<svg version="1.1" xmlns="http://www.w3.org/2000/svg" xmlns:xlink="http://www.w3.org/1999/xlink" width="35.90386" height="42.68454" viewBox="0,0,35.90386,42.68454"><g transform="translate(-221.68786,-158.14668)"><g data-paper-data="{&quot;isPaintingLayer&quot;:true}" fill-rule="nonzero" stroke-linecap="butt" stroke-linejoin="miter" stroke-miterlimit="10" stroke-dasharray="" stroke-dashoffset="0" style="mix-blend-mode: normal"><path d="M223.67947,196.38912c-1.28545,-0.92663 -1.32652,-3.06641 -0.09175,-4.77932c1.23478,-1.71291 3.27782,-2.35031 4.56327,-1.42368c1.28545,0.92663 1.32651,3.0664 0.09174,4.77931c-1.23478,1.71291 -3.27781,2.35032 -4.56326,1.42369z" fill="#a2a2a2" stroke="#000000" stroke-width="2"/><path d="M256.59171,194.92232c-1.19642,1.03902 -3.28872,0.58889 -4.67326,-1.00541c-1.38454,-1.59429 -1.53705,-3.72902 -0.34062,-4.76804c1.19643,-1.03903 3.28872,-0.58889 4.67326,1.00541c1.38454,1.59429 1.53705,3.72902 0.34062,4.76804z" fill="#a2a2a2" stroke="#000000" stroke-width="2"/><path d="M228.71324,192.71168v-13.1179h22.86262v13.1179z" fill="#d6f300" stroke="#000000" stroke-width="2"/><path d="M237.07288,184.20168l0.5596,-25.0329l6.2957,0.14074l-0.5596,25.03289z" fill="#daf700" stroke="#000000" stroke-width="2"/><g stroke="none" stroke-width="0.5"><path d="M241.03272,185.92908c0.70711,-0.70711 1.41422,0 1.41422,0l0.55428,0.73225c0.0324,0.12679 0.06032,0.26071 0.08383,0.40096c0.07097,-0.12471 0.1821,-0.24721 0.3491,-0.35854c0.83205,-0.5547 1.38675,0.27735 1.38675,0.27735c1.54944,2.38423 3.11274,7.7823 1.34543,10.4113c-2.17632,3.23743 -6.44414,3.7732 -9.9569,3.27929c-2.27949,-0.31713 -4.30062,-1.64623 -6.61265,-1.98579l-0.11999,-0.11818l-0.02905,0.0581l-0.88023,-0.44011c-0.33825,-0.16035 -0.57217,-0.50492 -0.57217,-0.90412c0,-0.50931 0.38074,-0.92969 0.87313,-0.99203l0.54718,-0.07817c0.71341,-0.48392 1.47219,-0.98792 2.07156,-1.21336c2.18555,-0.82205 5.21261,0.67956 7.25651,-0.26015c1.25216,-0.57571 1.98361,-3.58724 2.15609,-4.79459c0.15342,-1.07396 0.52257,-1.71218 0.17836,-2.73249l-0.04546,0.13252c0,0 -0.70711,-0.7071 0,-1.41421zM243.17782,188.12122c0.06094,2.91052 -1.21435,7.20382 -3.53968,8.40549c-1.4334,0.74075 -4.11499,0.25746 -5.69494,0.2555c-0.55768,-0.00069 -1.23418,0.24739 -1.87538,0.48363c1.47547,0.52601 2.898,1.2639 4.40708,1.42353c2.36173,0.34338 7.74399,0.1562 8.3336,-3.10823c0.30871,-1.70916 -0.25174,-3.05456 -0.72461,-4.59856c-0.34654,-1.13151 -0.22785,-1.8606 -0.90606,-2.86138z" fill="#000000"/><path d="M244.12959,190.96233c0.47287,1.54399 1.03503,2.92552 0.72633,4.63468c-0.58961,3.26443 -6.03723,3.48242 -8.39896,3.13904c-1.50907,-0.15963 -2.95668,-0.91871 -4.43215,-1.44472c0.6412,-0.23624 1.40109,-0.53929 1.95878,-0.5386c1.57995,0.00196 4.2035,0.46796 5.6369,-0.27279c2.32533,-1.20167 3.58528,-5.41064 3.52434,-8.32115c0.67821,1.00078 0.63823,1.67203 0.98477,2.80354z" data-paper-data="{&quot;noHover&quot;:false,&quot;origItem&quot;:[&quot;Path&quot;,{&quot;applyMatrix&quot;:true,&quot;segments&quot;:[[[358.53355,392.24662],[1.35643,2.00156],[0.12188,5.82103]],[[351.4542,409.0576],[4.65066,-2.40334],[-2.86681,1.48149]],[[340.06432,409.56861],[3.15989,0.00392],[-1.11536,-0.00138]],[[336.31356,410.53587],[1.2824,-0.47248],[2.95094,1.05202]],[[345.12771,413.38293],[-3.01815,-0.31925],[4.72346,0.68675]],[[361.7949,407.16648],[-1.17922,6.52886],[0.61741,-3.41832]],[[360.34568,397.96937],[0.94575,3.08799],[-0.69309,-2.26302]]],&quot;closed&quot;:true}]}" fill="#848484"/></g><path d="M239.92769,161.26968l5.96531,0.15891l-0.12395,25.75697l-5.96531,-0.15891z" fill="#e2ff00" stroke="#000000" stroke-width="2"/></g></g></svg>