<svg version="1.1" xmlns="http://www.w3.org/2000/svg" xmlns:xlink="http://www.w3.org/1999/xlink" width="97.191" height="252.84122" viewBox="0,0,97.191,252.84122"><g transform="translate(-185.20742,-68.06328)"><g data-paper-data="{&quot;isPaintingLayer&quot;:true}" fill-rule="nonzero" stroke="#000000" stroke-width="2" stroke-linecap="butt" stroke-linejoin="miter" stroke-miterlimit="10" stroke-dasharray="" stroke-dashoffset="0" style="mix-blend-mode: normal"><path d="M226.54128,304.12079c0,-8.43077 -4.51452,-15.26524 -10.08347,-15.26524c-5.56895,0 -10.08347,6.83448 -10.08347,15.26524c0,8.43077 4.51452,15.26525 10.08347,15.26525c5.56895,0 10.08347,-6.83449 10.08347,-15.26525z" fill="#a12d2d"/><path d="M251.14802,319.9045c-5.56895,0 -10.08347,-6.83448 -10.08347,-15.26525c0,-8.43076 4.51452,-15.26524 10.08347,-15.26524c5.56895,0 10.08347,6.83447 10.08347,15.26524c0,8.43076 -4.51453,15.26525 -10.08347,15.26525z" fill="#a12d2d"/><path d="M281.39842,234.00831c0,4.79548 -4.0756,8.68298 -9.10313,8.68298c-5.02752,0 -9.10313,-3.88751 -9.10313,-8.68298c0,-4.79548 4.07561,-8.68298 9.10313,-8.68298c5.02752,0 9.10313,3.8875 9.10313,8.68298z" data-paper-data="{&quot;index&quot;:null}" fill="#ffffff"/><path d="M204.41368,234.33014c0,4.79548 -4.07561,8.68298 -9.10313,8.68298c-5.02752,0 -9.10313,-3.8875 -9.10313,-8.68298c0,-4.79548 4.07561,-8.68298 9.10313,-8.68298c5.02752,0 9.10313,3.8875 9.10313,8.68298z" fill="#ffffff"/><path d="M206.09425,244.74683v-82.9085h55.45906v82.9085z" fill="#6e7bf4"/><path d="M189.62193,192.1821v-28.28972h12.27088v28.28972z" fill="#6e7bf4"/><path d="M189.00838,227.47423v-26.60915h12.88443v26.60915z" fill="#6e7bf4"/><path d="M208.05493,280.03896v-32.77126h15.96549v32.77126z" fill="#43a02d"/><path d="M208.05493,315.74478v-31.09069h15.96549v31.09069z" fill="#43a02d"/><path d="M243.58542,280.27732v-32.77126h15.96549v32.77126z" fill="#43a02d"/><path d="M243.58542,316.26325v-31.09069h15.96549v31.09069z" fill="#43a02d"/><path d="M265.77972,192.14036v-28.28973h12.53764v28.28973z" fill="#6e7bf4"/><path d="M265.15284,227.43249v-26.60914h13.16453v26.60914z" fill="#6e7bf4"/><path d="M251.74995,132.79524c0,16.3201 -8.15122,29.55016 -18.20626,29.55016c-10.05504,0 -18.20626,-13.23006 -18.20626,-29.55016c0,-16.3201 8.15122,-29.55016 18.20626,-29.55016c10.05504,0 18.20626,13.23006 18.20626,29.55016z" fill="#f5dfdf"/><path d="M251.17214,134.36443c-3.71474,2.45984 -9.3818,2.37477 -13.7071,2.37796c-8.61008,0.00636 -16.41939,0.09601 -22.86624,-5.33254c-0.19586,0.09497 -0.42103,0.17379 -0.67972,0.23127c-2.44047,0.54233 -2.98279,-1.89814 -2.98279,-1.89814c-1.46314,-6.62645 -4.06229,-14.55703 -1.91784,-21.41731c1.38731,-4.43814 6.27602,-6.8605 9.20951,-10.19312c2.63067,-2.9886 3.67264,-7.54498 5.44343,-11.06275c1.11194,-3.33582 2.47388,-6.7259 3.97017,-9.91363c0.26946,-0.57407 2.41875,-4.85385 2.65198,-5.09646c3.48134,-3.62125 11.75941,-4.07648 15.57569,-0.72798c0.83207,0.73008 1.22573,1.84363 1.8386,2.76544l0.39617,0.76716c0,0 0.79064,1.58129 -0.28759,2.74922l0.55152,1.72997c0,0 0,0.14166 -0.03372,0.35754c0.89705,1.98544 1.70205,3.86315 2.21496,6.10254c1.09142,4.9114 2.02502,9.44775 4.50166,13.88444c1.76837,3.16789 4.76094,5.59321 5.81907,9.19782c2.29905,7.83191 -1.60738,14.50147 -4.9232,21.15273c0,0 -0.59894,1.19788 -1.79681,1.40176c-0.78129,1.10023 -1.71713,2.08932 -2.97773,2.92408z" fill="#a03e00"/></g></g></svg>