<svg version="1.1" xmlns="http://www.w3.org/2000/svg" xmlns:xlink="http://www.w3.org/1999/xlink" width="92.70946" height="254.56353" viewBox="0,0,92.70946,254.56353"><g transform="translate(-188.00838,-68.06329)"><g data-paper-data="{&quot;isPaintingLayer&quot;:true}" fill-rule="nonzero" stroke="#000000" stroke-width="2" stroke-linecap="butt" stroke-linejoin="miter" stroke-miterlimit="10" stroke-dasharray="" stroke-dashoffset="0" style="mix-blend-mode: normal"><path d="M206.09425,244.74683v-82.9085h55.45906v82.9085z" fill="#6e7bf4"/><path d="M192.1428,193.02239v-28.28972h12.27088v28.28972z" fill="#6e7bf4"/><path d="M207.21464,223.54705c0,4.25371 -4.07561,7.70203 -9.10313,7.70203c-5.02752,0 -9.10313,-3.44831 -9.10313,-7.70203c0,-4.25371 4.07561,-7.70203 9.10313,-7.70203c5.02752,0 9.10313,3.44831 9.10313,7.70203z" fill="#ffffff"/><path d="M191.80934,217.46568v-23.60301h12.88443v23.60301z" fill="#6e7bf4"/><path d="M208.05493,278.91858v-32.77126h15.96549v32.77126z" fill="#43a02d"/><path d="M215.89762,321.62682c-5.56895,0 -10.08347,-8.21241 -10.08347,-18.34292c0,-10.13052 4.51453,-18.34292 10.08347,-18.34292c5.56895,0 10.08347,8.21241 10.08347,18.34292c0,10.13052 -4.51453,18.34292 -10.08347,18.34292z" fill="#a12d2d"/><path d="M207.49474,317.25143v-37.35897h15.96549v37.35897z" fill="#43a02d"/><path d="M243.58542,279.15694v-32.77126h15.96549v32.77126z" fill="#43a02d"/><path d="M251.42812,306.17979c-5.56895,0 -10.08347,-5.12586 -10.08347,-11.44894c0,-6.32307 4.51452,-11.44893 10.08347,-11.44893c5.56895,0 10.08347,5.12585 10.08347,11.44893c0,6.32307 -4.51452,11.44894 -10.08347,11.44894z" fill="#a12d2d"/><path d="M243.86552,303.44885v-23.31802h15.96549v23.31802z" fill="#43a02d"/><path d="M263.53895,192.42045v-28.28973h12.53764v28.28973z" fill="#6e7bf4"/><path d="M279.71784,230.61611c0,5.27671 -4.0756,9.55432 -9.10313,9.55432c-5.02752,0 -9.10313,-4.27762 -9.10313,-9.55432c0,-5.27671 4.07561,-9.55432 9.10313,-9.55432c5.02752,0 9.10313,4.27761 9.10313,9.55432z" data-paper-data="{&quot;index&quot;:null}" fill="#ffffff"/><path d="M263.47226,223.38041v-29.27936h13.16453v29.27936z" fill="#6e7bf4"/><path d="M251.74995,132.79524c0,16.3201 -8.15122,29.55016 -18.20626,29.55016c-10.05504,0 -18.20626,-13.23006 -18.20626,-29.55016c0,-16.3201 8.15122,-29.55016 18.20626,-29.55016c10.05504,0 18.20626,13.23006 18.20626,29.55016z" fill="#f5dfdf"/><path d="M251.17214,134.36444c-3.71474,2.45984 -9.3818,2.37477 -13.7071,2.37796c-8.61008,0.00636 -16.41939,0.09601 -22.86624,-5.33254c-0.19586,0.09497 -0.42103,0.17379 -0.67972,0.23127c-2.44047,0.54233 -2.98279,-1.89814 -2.98279,-1.89814c-1.46314,-6.62645 -4.06229,-14.55703 -1.91784,-21.41731c1.38731,-4.43814 6.27602,-6.8605 9.20951,-10.19312c2.63067,-2.9886 3.67264,-7.54498 5.44343,-11.06275c1.11194,-3.33582 2.47388,-6.7259 3.97017,-9.91363c0.26946,-0.57407 2.41875,-4.85385 2.65198,-5.09646c3.48134,-3.62125 11.75941,-4.07648 15.57569,-0.72798c0.83207,0.73008 1.22573,1.84363 1.8386,2.76544l0.39617,0.76716c0,0 0.79064,1.58129 -0.28759,2.74922l0.55152,1.72997c0,0 0,0.14166 -0.03372,0.35754c0.89705,1.98544 1.70205,3.86315 2.21496,6.10254c1.09142,4.9114 2.02502,9.44775 4.50166,13.88444c1.76837,3.16789 4.76094,5.59321 5.81907,9.19782c2.29905,7.83191 -1.60738,14.50147 -4.9232,21.15273c0,0 -0.59894,1.19788 -1.79681,1.40176c-0.78129,1.10023 -1.71713,2.08932 -2.97773,2.92408z" fill="#a03e00"/></g></g></svg>