<svg version="1.1" xmlns="http://www.w3.org/2000/svg" xmlns:xlink="http://www.w3.org/1999/xlink" width="92.70946" height="283.91702" viewBox="0,0,92.70946,283.91702"><g transform="translate(-188.00838,-68.06329)"><g data-paper-data="{&quot;isPaintingLayer&quot;:true}" fill-rule="nonzero" stroke="#000000" stroke-width="2" stroke-linecap="butt" stroke-linejoin="miter" stroke-miterlimit="10" stroke-dasharray="" stroke-dashoffset="0" style="mix-blend-mode: normal"><path d="M206.09425,244.74683v-82.9085h55.45906v82.9085z" data-paper-data="{&quot;index&quot;:null}" fill="#6e7bf4"/><path d="M192.1428,181.13385v-16.40119h12.27088v16.40119z" data-paper-data="{&quot;index&quot;:null}" fill="#6e7bf4"/><path d="M207.21464,198.83076c0,2.46612 -4.07561,4.46531 -9.10313,4.46531c-5.02752,0 -9.10313,-1.99919 -9.10313,-4.46531c0,-2.46612 4.07561,-4.46531 9.10313,-4.46531c5.02752,0 9.10313,1.99919 9.10313,4.46531z" data-paper-data="{&quot;index&quot;:null}" fill="#ffffff"/><path d="M191.80934,195.30504v-13.68402h12.88443v13.68402z" data-paper-data="{&quot;index&quot;:null}" fill="#6e7bf4"/><path d="M208.05493,291.66311v-45.5158h15.96549v45.5158z" data-paper-data="{&quot;index&quot;:null}" fill="#43a02d"/><path d="M215.89762,350.98031c-5.56895,0 -10.08347,-11.40617 -10.08347,-25.47636c0,-14.07022 4.51453,-25.47636 10.08347,-25.47636c5.56895,0 10.08347,11.40617 10.08347,25.47636c0,14.07022 -4.51453,25.47636 -10.08347,25.47636z" data-paper-data="{&quot;index&quot;:null}" fill="#a12d2d"/><path d="M207.49474,344.90336v-51.88762h15.96549v51.88762z" data-paper-data="{&quot;index&quot;:null}" fill="#43a02d"/><path d="M243.58542,265.35359v-18.9679h15.96549v18.9679z" data-paper-data="{&quot;index&quot;:null}" fill="#43a02d"/><path d="M251.42812,280.99433c-5.56895,0 -10.08347,-2.96683 -10.08347,-6.62661c0,-3.65977 4.51452,-6.6266 10.08347,-6.6266c5.56895,0 10.08347,2.96683 10.08347,6.6266c0,3.65977 -4.51452,6.62661 -10.08347,6.62661z" data-paper-data="{&quot;index&quot;:null}" fill="#a12d2d"/><path d="M243.86552,279.41367v-13.49639h15.96549v13.49639z" data-paper-data="{&quot;index&quot;:null}" fill="#43a02d"/><path d="M263.53895,200.54269v-36.41195h12.53764v36.41195z" data-paper-data="{&quot;index&quot;:null}" fill="#6e7bf4"/><path d="M279.71784,250.14283c0,6.85502 -4.0756,12.4121 -9.10313,12.4121c-5.02752,0 -9.10313,-5.55709 -9.10313,-12.4121c0,-6.85502 4.07561,-12.4121 9.10313,-12.4121c5.02752,0 9.10313,5.55708 9.10313,12.4121z" data-paper-data="{&quot;index&quot;:null}" fill="#ffffff"/><path d="M263.47226,240.74287v-38.03708h13.16453v38.03708z" data-paper-data="{&quot;index&quot;:null}" fill="#6e7bf4"/><path d="M251.74995,132.79524c0,16.3201 -8.15122,29.55016 -18.20626,29.55016c-10.05504,0 -18.20626,-13.23006 -18.20626,-29.55016c0,-16.3201 8.15122,-29.55016 18.20626,-29.55016c10.05504,0 18.20626,13.23006 18.20626,29.55016z" data-paper-data="{&quot;index&quot;:null}" fill="#f5dfdf"/><path d="M251.17214,134.36444c-3.71474,2.45984 -9.3818,2.37477 -13.7071,2.37796c-8.61008,0.00636 -16.41939,0.09601 -22.86624,-5.33254c-0.19586,0.09497 -0.42103,0.17379 -0.67972,0.23127c-2.44047,0.54233 -2.98279,-1.89814 -2.98279,-1.89814c-1.46314,-6.62645 -4.06229,-14.55703 -1.91784,-21.41731c1.38731,-4.43814 6.27602,-6.8605 9.20951,-10.19312c2.63067,-2.9886 3.67264,-7.54498 5.44343,-11.06275c1.11194,-3.33582 2.47388,-6.7259 3.97017,-9.91363c0.26946,-0.57407 2.41875,-4.85385 2.65198,-5.09646c3.48134,-3.62125 11.75941,-4.07648 15.57569,-0.72798c0.83207,0.73008 1.22573,1.84363 1.8386,2.76544l0.39617,0.76716c0,0 0.79064,1.58129 -0.28759,2.74922l0.55152,1.72997c0,0 0,0.14166 -0.03372,0.35754c0.89705,1.98544 1.70205,3.86315 2.21496,6.10254c1.09142,4.9114 2.02502,9.44775 4.50166,13.88444c1.76837,3.16789 4.76094,5.59321 5.81907,9.19782c2.29905,7.83191 -1.60738,14.50147 -4.9232,21.15273c0,0 -0.59894,1.19788 -1.79681,1.40176c-0.78129,1.10023 -1.71713,2.08932 -2.97773,2.92408z" data-paper-data="{&quot;index&quot;:null}" fill="#a03e00"/></g></g></svg>