<svg version="1.1" xmlns="http://www.w3.org/2000/svg" xmlns:xlink="http://www.w3.org/1999/xlink" width="92.70946" height="278.21234" viewBox="0,0,92.70946,278.21234"><g transform="translate(-188.00838,-68.0633)"><g data-paper-data="{&quot;isPaintingLayer&quot;:true}" fill-rule="nonzero" stroke="#000000" stroke-width="2" stroke-linecap="butt" stroke-linejoin="miter" stroke-miterlimit="10" stroke-dasharray="" stroke-dashoffset="0" style="mix-blend-mode: normal"><path d="M206.09425,244.74683v-82.9085h55.45906v82.9085z" fill="#6e7bf4"/><path d="M192.1428,184.16664v-19.43397h12.27088v19.43397z" fill="#6e7bf4"/><path d="M207.21464,205.13593c0,2.92214 -4.07561,5.291 -9.10313,5.291c-5.02752,0 -9.10313,-2.36886 -9.10313,-5.291c0,-2.92214 4.07561,-5.291 9.10313,-5.291c5.02752,0 9.10313,2.36886 9.10313,5.291z" fill="#ffffff"/><path d="M191.80934,200.95826v-16.21437h12.88443v16.21437z" fill="#6e7bf4"/><path d="M208.05493,289.18629v-43.03897h15.96549v43.03897z" fill="#43a02d"/><path d="M215.89762,345.27563c-5.56895,0 -10.08347,-10.78548 -10.08347,-24.09002c0,-13.30456 4.51453,-24.09002 10.08347,-24.09002c5.56895,0 10.08347,10.78548 10.08347,24.09002c0,13.30456 -4.51453,24.09002 -10.08347,24.09002z" fill="#a12d2d"/><path d="M207.49474,339.52937v-49.06406h15.96549v49.06406z" fill="#43a02d"/><path d="M243.58542,268.48015v-22.09446h15.96549v22.09446z" fill="#43a02d"/><path d="M251.42812,286.69902c-5.56895,0 -10.08347,-3.45587 -10.08347,-7.7189c0,-4.26303 4.51452,-7.71889 10.08347,-7.71889c5.56895,0 10.08347,3.45586 10.08347,7.71889c0,4.26303 -4.51452,7.7189 -10.08347,7.7189z" fill="#a12d2d"/><path d="M243.86552,284.85781v-15.72106h15.96549v15.72106z" fill="#43a02d"/><path d="M263.53895,198.08051v-33.94977h12.53764v33.94977z" fill="#6e7bf4"/><path d="M279.71784,244.32668c0,6.39148 -4.0756,11.57279 -9.10313,11.57279c-5.02752,0 -9.10313,-5.18132 -9.10313,-11.57279c0,-6.39148 4.07561,-11.57279 9.10313,-11.57279c5.02752,0 9.10313,5.18131 9.10313,11.57279z" data-paper-data="{&quot;index&quot;:null}" fill="#ffffff"/><path d="M263.47226,235.56235v-35.465h13.16453v35.465z" fill="#6e7bf4"/><path d="M251.74995,132.79524c0,16.3201 -8.15122,29.55016 -18.20626,29.55016c-10.05504,0 -18.20626,-13.23006 -18.20626,-29.55016c0,-16.3201 8.15122,-29.55016 18.20626,-29.55016c10.05504,0 18.20626,13.23006 18.20626,29.55016z" fill="#f5dfdf"/><path d="M251.17214,134.36444c-3.71474,2.45984 -9.3818,2.37477 -13.7071,2.37796c-8.61008,0.00636 -16.41939,0.09601 -22.86624,-5.33254c-0.19586,0.09497 -0.42103,0.17379 -0.67972,0.23127c-2.44047,0.54233 -2.98279,-1.89814 -2.98279,-1.89814c-1.46314,-6.62645 -4.06229,-14.55703 -1.91784,-21.41731c1.38731,-4.43814 6.27602,-6.8605 9.20951,-10.19312c2.63067,-2.9886 3.67264,-7.54498 5.44343,-11.06275c1.11194,-3.33582 2.47388,-6.7259 3.97017,-9.91363c0.26946,-0.57407 2.41875,-4.85385 2.65198,-5.09646c3.48134,-3.62125 11.75941,-4.07648 15.57569,-0.72798c0.83207,0.73008 1.22573,1.84363 1.8386,2.76544l0.39617,0.76716c0,0 0.79064,1.58129 -0.28759,2.74922l0.55152,1.72997c0,0 0,0.14166 -0.03372,0.35754c0.89705,1.98544 1.70205,3.86315 2.21496,6.10254c1.09142,4.9114 2.02502,9.44775 4.50166,13.88444c1.76837,3.16789 4.76094,5.59321 5.81907,9.19782c2.29905,7.83191 -1.60738,14.50147 -4.9232,21.15273c0,0 -0.59894,1.19788 -1.79681,1.40176c-0.78129,1.10023 -1.71713,2.08932 -2.97773,2.92408z" fill="#a03e00"/></g></g></svg>