<svg version="1.1" xmlns="http://www.w3.org/2000/svg" xmlns:xlink="http://www.w3.org/1999/xlink" width="92.70946" height="266.32758" viewBox="0,0,92.70946,266.32758"><g transform="translate(-188.00838,-68.06329)"><g data-paper-data="{&quot;isPaintingLayer&quot;:true}" fill-rule="nonzero" stroke="#000000" stroke-width="2" stroke-linecap="butt" stroke-linejoin="miter" stroke-miterlimit="10" stroke-dasharray="" stroke-dashoffset="0" style="mix-blend-mode: normal"><path d="M207.17291,244.74683v-82.9085h55.45906v82.9085z" data-paper-data="{&quot;index&quot;:null}" fill="#6e7bf4"/><path d="M264.31254,188.61472v-23.88205h12.27088v23.88205z" data-paper-data="{&quot;index&quot;:null}" fill="#6e7bf4"/><path d="M270.61471,207.88148c5.02752,0 9.10313,2.91106 9.10313,6.50202c0,3.59097 -4.07561,6.50202 -9.10313,6.50202c-5.02752,0 -9.10313,-2.91106 -9.10313,-6.50202c0,-3.59097 4.07561,-6.50202 9.10313,-6.50202z" data-paper-data="{&quot;index&quot;:null}" fill="#ffffff"/><path d="M264.03245,209.24964v-19.92555h12.88443v19.92555z" data-paper-data="{&quot;index&quot;:null}" fill="#6e7bf4"/><path d="M244.7058,284.02623v-37.87891h15.96549v37.87891z" data-paper-data="{&quot;index&quot;:null}" fill="#43a02d"/><path d="M242.74513,312.18907c0,-11.70942 4.51452,-21.2018 10.08347,-21.2018c5.56894,0 10.08347,9.49236 10.08347,21.2018c0,11.70942 -4.51452,21.2018 -10.08347,21.2018c-5.56894,0 -10.08347,-9.49236 -10.08347,-21.2018z" data-paper-data="{&quot;index&quot;:null}" fill="#a12d2d"/><path d="M245.26599,328.33354v-43.18164h15.96549v43.18164z" data-paper-data="{&quot;index&quot;:null}" fill="#43a02d"/><path d="M209.17531,273.16998v-26.7843h15.96549v26.7843z" data-paper-data="{&quot;index&quot;:null}" fill="#43a02d"/><path d="M207.21463,285.8987c0,-5.16792 4.51452,-9.35733 10.08347,-9.35733c5.56895,0 10.08347,4.18942 10.08347,9.35733c0,5.16792 -4.51452,9.35734 -10.08347,9.35734c-5.56895,0 -10.08347,-4.18943 -10.08347,-9.35734z" data-paper-data="{&quot;index&quot;:null}" fill="#a12d2d"/><path d="M208.89521,293.02401v-19.05806h15.96549v19.05806z" data-paper-data="{&quot;index&quot;:null}" fill="#43a02d"/><path d="M192.64963,195.44245v-31.31172h12.53764v31.31172z" data-paper-data="{&quot;index&quot;:null}" fill="#6e7bf4"/><path d="M198.11151,227.14334c5.02752,0 9.10313,4.73456 9.10313,10.57494c0,5.84037 -4.07561,10.57494 -9.10313,10.57494c-5.02753,0 -9.10313,-4.73456 -9.10313,-10.57494c0,-5.84038 4.07561,-10.57494 9.10313,-10.57494z" data-paper-data="{&quot;index&quot;:null}" fill="#ffffff"/><path d="M192.08943,229.70964v-32.40707h13.16453v32.40707z" data-paper-data="{&quot;index&quot;:null}" fill="#6e7bf4"/><path d="M251.74995,132.79524c0,16.3201 -8.15122,29.55016 -18.20626,29.55016c-10.05504,0 -18.20626,-13.23006 -18.20626,-29.55016c0,-16.3201 8.15122,-29.55016 18.20626,-29.55016c10.05504,0 18.20626,13.23006 18.20626,29.55016z" data-paper-data="{&quot;index&quot;:null}" fill="#f5dfdf"/><path d="M251.17214,134.36443c-3.71474,2.45984 -9.3818,2.37477 -13.7071,2.37796c-8.61008,0.00636 -16.41939,0.09601 -22.86624,-5.33254c-0.19586,0.09497 -0.42103,0.17379 -0.67972,0.23127c-2.44047,0.54233 -2.98279,-1.89814 -2.98279,-1.89814c-1.46314,-6.62645 -4.06229,-14.55703 -1.91784,-21.41731c1.38731,-4.43814 6.27602,-6.8605 9.20951,-10.19312c2.63067,-2.9886 3.67264,-7.54498 5.44343,-11.06275c1.11194,-3.33582 2.47388,-6.7259 3.97017,-9.91363c0.26946,-0.57407 2.41875,-4.85385 2.65198,-5.09646c3.48134,-3.62125 11.75941,-4.07648 15.57569,-0.72798c0.83207,0.73008 1.22573,1.84363 1.8386,2.76544l0.39617,0.76716c0,0 0.79064,1.58129 -0.28759,2.74922l0.55152,1.72997c0,0 0,0.14166 -0.03372,0.35754c0.89705,1.98544 1.70205,3.86315 2.21496,6.10254c1.09142,4.9114 2.02502,9.44775 4.50166,13.88444c1.76837,3.16789 4.76094,5.59321 5.81907,9.19782c2.29905,7.83191 -1.60738,14.50147 -4.9232,21.15273c0,0 -0.59894,1.19788 -1.79681,1.40176c-0.78129,1.10023 -1.71713,2.08932 -2.97773,2.92408z" data-paper-data="{&quot;index&quot;:null}" fill="#a03e00"/></g></g></svg>