<svg version="1.1" xmlns="http://www.w3.org/2000/svg" xmlns:xlink="http://www.w3.org/1999/xlink" width="912.13678" height="696.65511" viewBox="0,0,912.13678,696.65511"><defs><radialGradient cx="319.8395" cy="180.41517" r="324.59923" gradientUnits="userSpaceOnUse" id="color-1"><stop offset="0" stop-color="#00b8ff" stop-opacity="0.59608"/><stop offset="1" stop-color="#00e8ff" stop-opacity="0.30588"/></radialGradient></defs><g transform="translate(41.25,45.53125)"><g stroke-miterlimit="10"><path d="M-40,391.71875v-436h726v436z" fill="#000000" stroke="#000000" stroke-width="2.5"/><path d="M-4.75972,364.88457v-368.93881h649.19845v368.93881z" fill="#000000" stroke="url(#color-1)" stroke-width="0"/><path d="M540.29722,97.17387c0,-2.07107 1.67893,-3.75 3.75,-3.75c2.07107,0 3.75,1.67893 3.75,3.75c0,2.07107 -1.67893,3.75 -3.75,3.75c-2.07107,0 -3.75,-1.67893 -3.75,-3.75z" fill="#ffffff" stroke="none" stroke-width="0.5"/><path d="M609.73468,124.78154c0,-2.07107 1.67893,-3.75 3.75,-3.75c2.07107,0 3.75,1.67893 3.75,3.75c0,2.07107 -1.67893,3.75 -3.75,3.75c-2.07107,0 -3.75,-1.67893 -3.75,-3.75z" fill="#ffffff" stroke="none" stroke-width="0.5"/><path d="M459.14741,89.64451c0,-2.07107 1.67893,-3.75 3.75,-3.75c2.07107,0 3.75,1.67893 3.75,3.75c0,2.07107 -1.67893,3.75 -3.75,3.75c-2.07107,0 -3.75,-1.67893 -3.75,-3.75z" fill="#ffffff" stroke="none" stroke-width="0.5"/><path d="M460.8206,137.33048c0,-2.07107 1.67893,-3.75 3.75,-3.75c2.07107,0 3.75,1.67893 3.75,3.75c0,2.07107 -1.67893,3.75 -3.75,3.75c-2.07107,0 -3.75,-1.67893 -3.75,-3.75z" fill="#ffffff" stroke="none" stroke-width="0.5"/><path d="M381.34399,162.42836c0,-2.07107 1.67893,-3.75 3.75,-3.75c2.07107,0 3.75,1.67893 3.75,3.75c0,2.07107 -1.67893,3.75 -3.75,3.75c-2.07107,0 -3.75,-1.67893 -3.75,-3.75z" fill="#ffffff" stroke="none" stroke-width="0.5"/><path d="M360.42909,210.11433c0,-2.07107 1.67893,-3.75 3.75,-3.75c2.07107,0 3.75,1.67893 3.75,3.75c0,2.07107 -1.67893,3.75 -3.75,3.75c-2.07107,0 -3.75,-1.67893 -3.75,-3.75z" fill="#ffffff" stroke="none" stroke-width="0.5"/><path d="M314.41632,241.90497c0,-2.07107 1.67893,-3.75 3.75,-3.75c2.07107,0 3.75,1.67893 3.75,3.75c0,2.07107 -1.67893,3.75 -3.75,3.75c-2.07107,0 -3.75,-1.67893 -3.75,-3.75z" fill="#ffffff" stroke="none" stroke-width="0.5"/><path d="M303.94418,305.88988c-1.7941,0 -2.72985,-0.85835 -3.21792,-1.75373c-1.08684,-0.2092 -3.04187,-0.96182 -3.04187,-3.66947c0,-3.75 3.75,-3.75 3.75,-3.75c0.83659,0 1.67319,0 2.50979,0l3.75,5.42319c0,0 0,3.75 -3.75,3.75z" fill="#ffffff" stroke="none" stroke-width="0.5"/><path d="M326.96525,325.56457c0,-2.07107 1.67893,-3.75 3.75,-3.75c2.07107,0 3.75,1.67893 3.75,3.75c0,2.07107 -1.67893,3.75 -3.75,3.75c-2.07107,0 -3.75,-1.67893 -3.75,-3.75z" fill="#ffffff" stroke="none" stroke-width="0.5"/><path d="M337.00441,273.69561c0,-2.07107 1.67893,-3.75 3.75,-3.75c2.07107,0 3.75,1.67893 3.75,3.75c0,2.07107 -1.67893,3.75 -3.75,3.75c-2.07107,0 -3.75,-1.67893 -3.75,-3.75z" fill="#ffffff" stroke="none" stroke-width="0.5"/><path d="M270.86659,351.11376c0,-165.691 134.31909,-300.0101 300.01009,-300.0101c165.69101,0 300.0101,134.31909 300.0101,300.0101c0,165.691 -134.31909,300.0101 -300.0101,300.0101c-165.69101,0 -300.01009,-134.31909 -300.01009,-300.0101z" fill-opacity="0.32549" fill="#ccfbff" stroke="none" stroke-width="50"/><path d="M358.02036,351.11376c0,-117.5573 95.29902,-212.85633 212.85632,-212.85633c117.55731,0 212.85633,95.29902 212.85633,212.85633c0,117.5573 -95.29902,212.85633 -212.85633,212.85633c-117.5573,0 -212.85632,-95.29902 -212.85632,-212.85633z" fill="#77e813" stroke="none" stroke-width="50"/><path d="M534.12925,216.73943c-1.70734,1.02532 -3.92734,1.69192 -6.81394,1.69192c-12.5,0 -12.5,-12.5 -12.5,-12.5l12.5,-14.17319c1.67319,0 3.34639,0 5.01958,0c1.22173,0 2.7959,-0.5894 4.14348,-0.79988c-0.7463,-1.53854 -1.61672,-3.03948 -2.05827,-4.66857c-0.71385,-0.26654 -1.38348,-0.58268 -1.3938,-1.23121c-0.10101,-6.34768 0.40151,-12.82636 2.1821,-18.92003c0.2088,-0.71458 1.58894,-0.97054 2.51095,-0.73125c5.08572,-7.23588 7.99218,-7.9495 18.04023,-7.9495c0,0 12.5,0 12.5,12.5c0,7.92938 -5.03001,10.82876 -8.70845,11.88891c0.11857,0.49455 0.21457,0.86103 0.28504,1.03722c2.40121,6.00302 4.94556,17.05326 1.08817,23.08955c-5.47114,8.56157 -17.10486,10.5603 -26.79507,10.76603z" fill="#13d8e8" stroke="none" stroke-width="0.5"/><path d="M425.29953,253.61731c0,-6.90356 5.59644,-12.5 12.5,-12.5c6.90356,0 12.5,5.59644 12.5,12.5c0,6.90356 -5.59644,12.5 -12.5,12.5c-6.90356,0 -12.5,-5.59644 -12.5,-12.5z" fill="#13d8e8" stroke="none" stroke-width="0.5"/><path d="M544.51798,269.48667c0.97546,-4.3236 -0.00063,-10.09533 4.07594,-13.83244c1.98548,-1.82015 4.70484,-2.83845 7.45503,-3.26407c0.28667,-0.38934 0.60739,-0.71964 0.91093,-0.91891c4.02832,-2.64453 9.68903,-2.84485 12.97977,-6.36508c5.55166,-0.78983 11.72766,-1.45962 17.0041,-2.5108c3.61464,-0.72011 7.3539,-6.17116 10.25033,-7.7737c0.50989,-0.28212 0.95534,-0.51715 1.34186,-0.70965c-0.13994,-2.617 -0.12534,-8.48214 -0.06105,-8.93896c0.97977,-6.96145 0.29004,-9.15698 5.30048,-11.94749c0.09686,-1.98801 0.30027,-4.08957 1.58596,-5.4999c7.67536,-8.41937 17.17622,-8.32206 27.36506,-8.43815c7.78054,0.30732 12.28647,-0.47545 18.65889,8.48253c2.99835,4.21492 -0.57791,10.68308 0.37247,15.40072c0.85714,4.25481 2.32344,8.26611 3.17341,12.51591c0.53359,2.66791 2.00341,7.97661 2.45917,11.40016c0.31671,0.39888 0.66023,0.93409 1.02793,1.63203c2.51645,4.77649 9.73812,32.58347 9.89844,37.16357c0.78023,1.56046 3.76217,14.56889 4.94921,21.69862c0.48947,0.45459 1.11213,1.40116 1.88427,3.04591c2.74388,5.84476 8.22767,32.05949 6.88644,38.36229c-0.99447,4.67332 -0.55255,10.23 -3.66117,13.85841c-2.58611,3.01853 -7.49167,2.70023 -11.34862,3.66116c-1.78031,0.44356 -6.842,0.91032 -5.49405,-0.33439c-11.97852,5.98926 -66.99048,2.84418 -84.02171,2.84418c-19.10952,0 -38.10371,-2.50979 -58.56172,-2.50979c-11.30674,-1.07781 -20.08622,3.80068 -31.42692,-2.82457c-1.32297,-0.77288 -0.56833,-3.13367 -1.51201,-4.34076c-0.21638,-0.27678 -0.48758,-0.52376 -0.79369,-0.75058c-6.54609,0.7233 -13.9423,0.38654 -18.97293,0.38654c-6.50995,0 -18.92255,1.35856 -21.89668,-6.60178c-2.13734,-5.72062 2.94773,-11.85266 4.42159,-17.77899c1.89911,-0.97003 6.39292,-2.95917 8.4604,-3.631c-0.15808,-0.20979 -0.23985,-0.4557 -0.09445,-0.55198c2.12932,-1.40995 8.20987,-3.88748 9.34437,-3.88872c1.94642,-1.73543 6.9872,-5.49184 12.78817,-7.27187c2.27292,-0.69745 8.94415,-2.47097 12.68723,-2.35517c0.32743,-0.29849 0.70107,-0.54691 1.01837,-0.68313c2.21762,-0.95202 4.7143,-1.09841 7.12149,-1.30712c0.44241,-0.80186 0.83496,-1.66437 1.61528,-2.07262c6.11277,-3.19806 13.20243,-3.81357 18.96177,-6.89174c-0.65755,-1.92645 -0.9773,-4.10144 -0.78413,-6.6215c0.69912,-9.1207 5.26829,-13.28637 11.6812,-15.79946c0.3908,-3.91323 0.67476,-8.59782 3.63995,-11.13824c2.04524,-1.75225 5.61414,-2.37627 9.3096,-2.89948z" fill="#13d8e8" stroke="none" stroke-width="0.5"/><path d="M394.29915,282.22546c-2.64608,-1.74327 -4.97324,-4.80957 -4.97324,-10.20303c0,-12.5 12.5,-12.5 12.5,-12.5l9.91803,1.86687c2.42239,3.70254 5.62357,6.99964 7.26717,11.1076c1.14378,2.85874 -0.53869,6.2399 0.17298,9.23559c0.69191,2.91253 2.40699,5.0839 1.73577,8.10799c0.97773,0.36563 1.97146,0.72791 2.73891,1.41247c1.80994,1.61446 3.10662,3.72535 4.65993,5.58803c0,0 7.80869,9.76086 -1.95217,17.56955c-9.76086,7.80869 -17.56955,-1.95217 -17.56955,-1.95217c-0.67761,-0.92597 -1.18321,-2.00674 -2.03283,-2.77793c-2.02116,-1.83457 -4.97206,-2.71493 -6.5061,-4.9727c-2.12843,-3.13259 -3.01539,-6.96957 -4.07796,-10.60471c-0.31295,-1.07066 0.21876,-2.25259 0,-3.34638c-0.34589,-1.72945 -1.36588,-3.28285 -1.67319,-5.01957c-0.20441,-1.15521 -0.22755,-2.33317 -0.20774,-3.51159z" fill="#13d8e8" stroke="none" stroke-width="0.5"/><path d="M494.28444,31.08279c0,-2.07107 1.67893,-3.75 3.75,-3.75c2.07107,0 3.75,1.67893 3.75,3.75c0,2.07107 -1.67893,3.75 -3.75,3.75c-2.07107,0 -3.75,-1.67893 -3.75,-3.75z" fill="#ffffff" stroke="none" stroke-width="0.5"/><path d="M347.88015,84.62493c0,-2.07107 1.67893,-3.75 3.75,-3.75c2.07107,0 3.75,1.67893 3.75,3.75c0,2.07107 -1.67893,3.75 -3.75,3.75c-2.07107,0 -3.75,-1.67893 -3.75,-3.75z" fill="#ffffff" stroke="none" stroke-width="0.5"/><path d="M398.07591,37.77556c0,-2.07107 1.67893,-3.75 3.75,-3.75c2.07107,0 3.75,1.67893 3.75,3.75c0,2.07107 -1.67893,3.75 -3.75,3.75c-2.07107,0 -3.75,-1.67893 -3.75,-3.75z" fill="#ffffff" stroke="none" stroke-width="0.5"/><path d="M244.14226,29.4096c0,-2.07107 1.67893,-3.75 3.75,-3.75c2.07107,0 3.75,1.67893 3.75,3.75c0,2.07107 -1.67893,3.75 -3.75,3.75c-2.07107,0 -3.75,-1.67893 -3.75,-3.75z" fill="#ffffff" stroke="none" stroke-width="0.5"/><path d="M274.23035,154.0624c0,3.75 -3.75,3.75 -3.75,3.75c-0.83659,0 -4.18298,0 -5.01957,0c0,0 -3.75,0 -3.75,-3.75c0,-3.75 3.75,-3.75 3.75,-3.75c0.83659,0 1.67319,0 2.50978,0h2.50979c0,0 3.75,0 3.75,3.75z" fill="#ffffff" stroke="none" stroke-width="0.5"/><path d="M200.63927,96.33728c0,-2.07107 1.67893,-3.75 3.75,-3.75c2.07107,0 3.75,1.67893 3.75,3.75c0,2.07107 -1.67893,3.75 -3.75,3.75c-2.07107,0 -3.75,-1.67893 -3.75,-3.75z" fill="#ffffff" stroke="none" stroke-width="0.5"/><path d="M95.22818,36.10237c0,-2.07107 1.67893,-3.75 3.75,-3.75c2.07107,0 3.75,1.67893 3.75,3.75c0,2.07107 -1.67893,3.75 -3.75,3.75c-2.07107,0 -3.75,-1.67893 -3.75,-3.75z" fill="#ffffff" stroke="none" stroke-width="0.5"/><path d="M134.54818,99.68366c0,-2.07107 1.67893,-3.75 3.75,-3.75c2.07107,0 3.75,1.67893 3.75,3.75c0,2.07107 -1.67893,3.75 -3.75,3.75c-2.07107,0 -3.75,-1.67893 -3.75,-3.75z" fill="#ffffff" stroke="none" stroke-width="0.5"/><path d="M45.03242,94.66409c0,-2.07107 1.67893,-3.75 3.75,-3.75c2.07107,0 3.75,1.67893 3.75,3.75c0,2.07107 -1.67893,3.75 -3.75,3.75c-2.07107,0 -3.75,-1.67893 -3.75,-3.75z" fill="#ffffff" stroke="none" stroke-width="0.5"/><path d="M24.95412,31.08279c0,-2.07107 1.67893,-3.75 3.75,-3.75c2.07107,0 3.75,1.67893 3.75,3.75c0,2.07107 -1.67893,3.75 -3.75,3.75c-2.07107,0 -3.75,-1.67893 -3.75,-3.75z" fill="#ffffff" stroke="none" stroke-width="0.5"/><path d="M172.19501,151.55261c0,-2.07107 1.67893,-3.75 3.75,-3.75c2.07107,0 3.75,1.67893 3.75,3.75c0,2.07107 -1.67893,3.75 -3.75,3.75c-2.07107,0 -3.75,-1.67893 -3.75,-3.75z" fill="#ffffff" stroke="none" stroke-width="0.5"/><path d="M88.53541,172.46751c0,-2.07107 1.67893,-3.75 3.75,-3.75c2.07107,0 3.75,1.67893 3.75,3.75c0,2.07107 -1.67893,3.75 -3.75,3.75c-2.07107,0 -3.75,-1.67893 -3.75,-3.75z" fill="#ffffff" stroke="none" stroke-width="0.5"/><path d="M28.3005,231.02922c0,-2.07107 1.67893,-3.75 3.75,-3.75c2.07107,0 3.75,1.67893 3.75,3.75c0,2.07107 -1.67893,3.75 -3.75,3.75c-2.07107,0 -3.75,-1.67893 -3.75,-3.75z" fill="#ffffff" stroke="none" stroke-width="0.5"/><path d="M214.0248,205.09475c0,-3.75 3.75,-3.75 3.75,-3.75h3.34638c0,0 3.75,0 3.75,3.75c0,3.75 -3.75,3.75 -3.75,3.75h-3.34638c0,0 -3.75,0 -3.75,-3.75z" fill="#ffffff" stroke="none" stroke-width="0.5"/><path d="M168.84862,241.90497c0,-2.07107 1.67893,-3.75 3.75,-3.75c2.07107,0 3.75,1.67893 3.75,3.75c0,2.07107 -1.67893,3.75 -3.75,3.75c-2.07107,0 -3.75,-1.67893 -3.75,-3.75z" fill="#ffffff" stroke="none" stroke-width="0.5"/><path d="M106.28135,256.55676c2.08012,3.12019 -1.04006,5.20031 -1.04006,5.20031l-2.50979,1.6732c0,0 -3.12019,2.08012 -5.20031,-1.04007c-2.08012,-3.12019 1.04006,-5.20031 1.04006,-5.20031l2.50979,-1.67319c0,0 3.12019,-2.08013 5.20032,1.04006z" fill="#ffffff" stroke="none" stroke-width="0.5"/><path d="M219.88097,313.01563c0,-2.07107 1.67893,-3.75 3.75,-3.75c2.07107,0 3.75,1.67893 3.75,3.75c0,2.07107 -1.67893,3.75 -3.75,3.75c-2.07107,0 -3.75,-1.67893 -3.75,-3.75z" fill="#ffffff" stroke="none" stroke-width="0.5"/><path d="M118.65287,323.05478c0,-2.07107 1.67893,-3.75 3.75,-3.75c2.07107,0 3.75,1.67893 3.75,3.75c0,2.07107 -1.67893,3.75 -3.75,3.75c-2.07107,0 -3.75,-1.67893 -3.75,-3.75z" fill="#ffffff" stroke="none" stroke-width="0.5"/><path d="M41.68603,320.54499c0,-2.07107 1.67893,-3.75 3.75,-3.75c2.07107,0 3.75,1.67893 3.75,3.75c0,2.07107 -1.67893,3.75 -3.75,3.75c-2.07107,0 -3.75,-1.67893 -3.75,-3.75z" fill="#ffffff" stroke="none" stroke-width="0.5"/><path d="M587.14659,41.12194c0,-2.07107 1.67893,-3.75 3.75,-3.75c2.07107,0 3.75,1.67893 3.75,3.75c0,2.07107 -1.67893,3.75 -3.75,3.75c-2.07107,0 -3.75,-1.67893 -3.75,-3.75z" fill="#ffffff" stroke="none" stroke-width="0.5"/><path d="M385.52697,91.3177c0,-2.07107 1.67893,-3.75 3.75,-3.75c2.07107,0 3.75,1.67893 3.75,3.75c0,2.07107 -1.67893,3.75 -3.75,3.75c-2.07107,0 -3.75,-1.67893 -3.75,-3.75z" fill="#ffffff" stroke="none" stroke-width="0.5"/><path d="M311.06993,170.79432c0,-2.07107 1.67893,-3.75 3.75,-3.75c2.07107,0 3.75,1.67893 3.75,3.75c0,2.07107 -1.67893,3.75 -3.75,3.75c-2.07107,0 -3.75,-1.67893 -3.75,-3.75z" fill="#ffffff" stroke="none" stroke-width="0.5"/><path d="M270.07673,225.17305c0,-2.07107 1.67893,-3.75 3.75,-3.75c2.07107,0 3.75,1.67893 3.75,3.75c0,2.07107 -1.67893,3.75 -3.75,3.75c-2.07107,0 -3.75,-1.67893 -3.75,-3.75z" fill="#ffffff" stroke="none" stroke-width="0.5"/><path d="M242.46906,273.69561c0,-2.07107 1.67893,-3.75 3.75,-3.75c2.07107,0 3.75,1.67893 3.75,3.75c0,2.07107 -1.67893,3.75 -3.75,3.75c-2.07107,0 -3.75,-1.67893 -3.75,-3.75z" fill="#ffffff" stroke="none" stroke-width="0.5"/><path d="M264.22056,99.68366c0,-2.07107 1.67893,-3.75 3.75,-3.75c2.07107,0 3.75,1.67893 3.75,3.75c0,2.07107 -1.67893,3.75 -3.75,3.75c-2.07107,0 -3.75,-1.67893 -3.75,-3.75z" fill="#ffffff" stroke="none" stroke-width="0.5"/><path d="M306.05036,37.77556c0,-2.07107 1.67893,-3.75 3.75,-3.75c2.07107,0 3.75,1.67893 3.75,3.75c0,2.07107 -1.67893,3.75 -3.75,3.75c-2.07107,0 -3.75,-1.67893 -3.75,-3.75z" fill="#ffffff" stroke="none" stroke-width="0.5"/><path d="M162.15585,62.03684c0,-2.07107 1.67893,-3.75 3.75,-3.75c2.07107,0 3.75,1.67893 3.75,3.75c0,2.07107 -1.67893,3.75 -3.75,3.75c-2.07107,0 -3.75,-1.67893 -3.75,-3.75z" fill="#ffffff" stroke="none" stroke-width="0.5"/><path d="M86.86222,116.41558c0,-2.07107 1.67893,-3.75 3.75,-3.75c2.07107,0 3.75,1.67893 3.75,3.75c0,2.07107 -1.67893,3.75 -3.75,3.75c-2.07107,0 -3.75,-1.67893 -3.75,-3.75z" fill="#ffffff" stroke="none" stroke-width="0.5"/><path d="M28.3005,149.87942c0,-2.07107 1.67893,-3.75 3.75,-3.75c2.07107,0 3.75,1.67893 3.75,3.75c0,2.07107 -1.67893,3.75 -3.75,3.75c-2.07107,0 -3.75,-1.67893 -3.75,-3.75z" fill="#ffffff" stroke="none" stroke-width="0.5"/><path d="M141.24096,212.62411c0,-2.07107 1.67893,-3.75 3.75,-3.75c2.07107,0 3.75,1.67893 3.75,3.75c0,2.07107 -1.67893,3.75 -3.75,3.75c-2.07107,0 -3.75,-1.67893 -3.75,-3.75z" fill="#ffffff" stroke="none" stroke-width="0.5"/><path d="M142.91414,287.91775c0,-2.07107 1.67893,-3.75 3.75,-3.75c2.07107,0 3.75,1.67893 3.75,3.75c0,2.07107 -1.67893,3.75 -3.75,3.75c-2.07107,0 -3.75,-1.67893 -3.75,-3.75z" fill="#ffffff" stroke="none" stroke-width="0.5"/><path d="M58.41796,297.95689c0,-2.07107 1.67893,-3.75 3.75,-3.75c2.07107,0 3.75,1.67893 3.75,3.75c0,2.07107 -1.67893,3.75 -3.75,3.75c-2.07107,0 -3.75,-1.67893 -3.75,-3.75z" fill="#ffffff" stroke="none" stroke-width="0.5"/><path d="M168.01203,339.7867c0,-2.07107 1.67893,-3.75 3.75,-3.75c2.07107,0 3.75,1.67893 3.75,3.75c0,2.07107 -1.67893,3.75 -3.75,3.75c-2.07107,0 -3.75,-1.67893 -3.75,-3.75z" fill="#ffffff" stroke="none" stroke-width="0.5"/><path d="M85.18903,346.47946c0,-2.07107 1.67893,-3.75 3.75,-3.75c2.07107,0 3.75,1.67893 3.75,3.75c0,2.07107 -1.67893,3.75 -3.75,3.75c-2.07107,0 -3.75,-1.67893 -3.75,-3.75z" fill="#ffffff" stroke="none" stroke-width="0.5"/><g stroke="none"><path d="M503.04247,300.12027c0.08189,-0.3026 -0.1752,-0.80317 0.16354,-0.87069c0.36666,-0.07309 0.94283,0.1738 1.07116,-0.41611c0.05598,-0.25735 0.62815,0.18357 0.90788,0.25926c0.06032,0.01632 0.06582,0.45645 0.16802,0.46858c0.30627,0.03634 0.81432,-0.35971 0.93872,-0.24998c0.23552,0.20775 -0.08279,0.57646 0.17579,0.75985c0.26552,0.18831 0.84998,0.12834 0.89714,0.3793c0.03218,0.17123 -0.41257,0.54656 -0.45826,0.71542c-0.04757,0.17578 -0.56447,-0.12774 -0.62579,0.01577c-0.06178,0.14462 -0.04407,0.43017 -0.06198,0.65644c-0.01357,0.17142 -0.04758,0.30881 -0.1521,0.32513c-0.16267,0.02539 -0.66124,-0.48167 -0.90266,-0.71708c-0.08123,-0.07921 -0.67578,0.67267 -0.78945,0.64191c-0.09034,-0.02445 -0.07817,-0.32063 -0.10644,-0.4333c-0.06057,-0.24135 -0.10316,-0.3931 -0.30413,-0.52197c-0.3308,-0.21213 -1.27908,0.52747 -0.8738,0.23282c0.16711,-0.12149 0.29458,-0.32578 0.04895,-0.59024c-0.23704,-0.25521 -0.79788,-0.26853 -0.79398,-0.39879c0.00392,-0.1307 0.66139,-0.12332 0.69738,-0.25632z" fill="#5d554f" stroke-width="0"/><path d="M497.55009,298.58381c0,-0.13909 0.13909,-0.13909 0.13909,-0.13909l0.15608,0.00372c0.06351,0.03303 0.13715,0.05137 0.19052,0.09908c0.02746,0.02454 0.00362,0.08825 0.03683,0.10416c0.04389,0.02103 0.09701,-0.02508 0.14501,-0.01705c0.04562,0.00763 0.07925,0.05084 0.12412,0.06206c0.04014,0.01004 0.08398,-0.01004 0.12412,0c0.04488,0.01122 0.07876,0.05299 0.12412,0.06206c0.06086,0.01217 0.12559,-0.01342 0.18618,0c0.05839,0.01293 0.10799,0.05142 0.16198,0.07713c0.24392,0.1642 0.58627,0.16949 0.81011,0.31229c0.06261,0.03994 0.07145,0.159 0.14501,0.16913c0.15325,0.0211 0.36264,0.05784 0.49361,0.15442c0.03972,0.02929 0.03604,0.09436 0.06928,0.13085c0.06755,0.07415 0.1943,0.05562 0.28282,0.10279c0.22642,0.12066 0.48745,0.34012 0.6481,0.51783c0.0724,0.08009 0.35566,0.15012 0.4544,0.21141c-0.00183,0.03864 -0.03176,0.08753 -0.00548,0.11592c0.0616,0.06654 0.17876,0.04011 0.25967,0.08104c0.47685,0.24122 0.87917,0.62109 1.36426,0.86832c0.28443,0.14496 0.52967,0.41491 0.72664,0.65443c0.0464,0.05642 0.11556,0.09636 0.14755,0.16203c0.005,0.01027 -0.0109,0.031 -0.02303,0.03912c0.03408,0.00384 0.12671,0.02472 0.12671,0.13823c0,0.13909 -0.13909,0.13909 -0.13909,0.13909c-0.26525,-0.05645 -0.27231,-0.30096 -0.47774,-0.50701c-0.37695,-0.37808 -1.1476,-0.7856 -1.61239,-1.0653c-0.17176,-0.10337 -0.59702,-0.3172 -0.60375,-0.47962c-0.41552,-0.04703 -0.64689,-0.45174 -1.00759,-0.63611c-0.14901,-0.07617 -0.20491,-0.02116 -0.3378,-0.14546c-0.03154,-0.02951 -0.02059,-0.09109 -0.05484,-0.1174c-0.09687,-0.07441 -0.27056,-0.06086 -0.37525,-0.09383c-0.09696,-0.03053 -0.14514,-0.14346 -0.22735,-0.20324c-0.17874,-0.12997 -0.58035,-0.16089 -0.80349,-0.30832c-0.02875,-0.01566 -0.054,-0.04143 -0.08626,-0.04699c-0.06116,-0.01055 -0.12533,0.01217 -0.18618,0c-0.04536,-0.00907 -0.07925,-0.05084 -0.12412,-0.06206c-0.04014,-0.01004 -0.08398,0.01004 -0.12412,0c-0.04488,-0.01122 -0.07899,-0.0519 -0.12412,-0.06206c-0.07414,-0.01669 -0.15971,0.01759 -0.22735,-0.01705c-0.0661,-0.03385 -0.07689,-0.13958 -0.14501,-0.16913l-0.09216,0.00372c0,0 -0.13909,0 -0.13909,-0.13909z" fill="#ff0000" stroke-width="0.5"/><path d="M500.5911,296.03929c0,-0.13909 0.13909,-0.13909 0.13909,-0.13909l0.13922,0.02336c0.11141,0.07473 0.20739,0.17034 0.31448,0.25114c0.15448,0.11656 0.35067,0.19004 0.50335,0.31558c0.03511,0.02887 0.04824,0.08341 0.08917,0.10318c0.04101,0.01982 0.0999,-0.02121 0.13653,0.00587c0.0711,0.05256 0.10008,0.14636 0.1588,0.21246c0.07168,0.08068 0.32904,0.15142 0.3597,0.17453c0.06104,0.04601 0.07621,0.13419 0.12854,0.18992c0.07599,0.08094 0.22004,0.05743 0.30939,0.12332c0.03972,0.02929 0.03604,0.09436 0.06928,0.13085c0.01913,0.02099 0.05266,0.02127 0.079,0.03191c0.0771,0.03074 0.17128,0.03489 0.23131,0.09221c0.04279,0.04087 -0.00189,0.13565 0.04504,0.1717c0.04199,0.03226 0.10879,-0.03502 0.15808,-0.01567c0.12345,0.04848 0.23791,0.12134 0.34151,0.20415c0.16217,0.12963 0.28345,0.37072 0.44205,0.50276c0.36497,0.30383 0.78433,0.52024 1.1171,0.86886c0.10216,0.10702 0.29701,0.09456 0.3922,0.20782c0.06689,0.07959 0.05786,0.28349 0.05824,0.39294c0,0 0,0.13909 -0.13909,0.13909c-0.13909,0 -0.13909,-0.13909 -0.13909,-0.13909c0.00003,-0.00773 0.00249,-0.22153 -0.00382,-0.22767c-0.05136,-0.04997 -0.13363,-0.05204 -0.19856,-0.08235c-0.19591,-0.09144 -0.2756,-0.25829 -0.45256,-0.38323c-0.26061,-0.18399 -0.57934,-0.36833 -0.81851,-0.56783c-0.15404,-0.12849 -0.27192,-0.3662 -0.42681,-0.49023c-0.06913,-0.05536 -0.47749,-0.17216 -0.49339,-0.18389c-0.05787,-0.04267 -0.02966,-0.14845 -0.07909,-0.20067c-0.03314,-0.03501 -0.09404,-0.02127 -0.14106,-0.03191c-0.05642,-0.03074 -0.12233,-0.04832 -0.16925,-0.09221c-0.03154,-0.02951 -0.02059,-0.09109 -0.05484,-0.1174c-0.08865,-0.0681 -0.23021,-0.0479 -0.31123,-0.12493c-0.05272,-0.05012 -0.06182,-0.13841 -0.11971,-0.18245c-0.06743,-0.05129 -0.16251,-0.05083 -0.23787,-0.08955c-0.05417,-0.02784 -0.10688,-0.06261 -0.14717,-0.10829c-0.04041,-0.0458 -0.04095,-0.12277 -0.08944,-0.15991c-0.02961,-0.02267 -0.07855,0.02292 -0.11172,0.00587c-0.06383,-0.03281 -0.10252,-0.10089 -0.15908,-0.14506c-0.15125,-0.11812 -0.33841,-0.1922 -0.48964,-0.30504c-0.10482,-0.0782 -0.19709,-0.17316 -0.30613,-0.24535l0.01509,0.02336c0,0 -0.13909,0 -0.13909,-0.13909z" fill="#ff0000" stroke-width="0.5"/><path d="M498.64588,297.74072c0.09835,-0.09835 0.19671,0 0.19671,0l0.02591,0.03601c0.03129,0.01703 0.05883,0.0447 0.09387,0.0511c0.06105,0.01114 0.12559,-0.01342 0.18618,0c0.05839,0.01293 0.11021,0.0472 0.16198,0.07713c0.18358,0.10611 0.28553,0.16119 0.47991,0.24004c0.03605,0.01463 0.06528,0.04507 0.10285,0.05519c0.05348,0.01441 0.11823,-0.01217 0.16529,0.01705c0.0393,0.0244 0.02485,0.09665 0.06206,0.12412c0.02271,0.01677 0.05537,-0.02305 0.08296,-0.01705c0.0452,0.00983 0.07929,0.05065 0.12412,0.06206c0.03527,0.00898 0.07329,-0.00886 0.10916,-0.00268c0.2112,0.0364 0.34762,0.1227 0.55262,0.14385c0.10442,0.20884 0.38312,0.13723 0.60072,0.23806c0.06735,0.03121 0.14347,0.05898 0.18921,0.11744c0.02072,0.02649 -0.04855,0.08118 -0.01997,0.0989c0.07567,0.04691 0.1824,-0.00085 0.26518,0.03191c0.35778,0.14156 0.99917,0.58099 1.34315,0.579c0,0 0.13909,0 0.13909,0.13909c0,0.13909 -0.13909,0.13909 -0.13909,0.13909c-0.1154,-0.00052 -0.23303,0.00539 -0.34292,-0.04645c-0.24633,-0.11619 -0.52073,-0.2965 -0.75422,-0.43979c-0.19096,-0.11719 -0.53934,-0.09088 -0.70791,-0.20615c-0.04146,-0.02835 0.00272,-0.10454 -0.01997,-0.14935c-0.0542,-0.10705 -0.57552,-0.01706 -0.69954,-0.26511c-0.02765,0.00568 -0.0554,0.02321 -0.08296,0.01705c-0.05061,-0.01131 -0.09132,-0.0503 -0.14042,-0.06698c-0.11382,-0.03867 -0.23934,-0.02843 -0.35607,-0.05714c-0.04492,-0.01105 -0.0795,-0.04986 -0.12412,-0.06206c-0.05343,-0.01461 -0.11823,0.01217 -0.16529,-0.01705c-0.0393,-0.0244 -0.02485,-0.09665 -0.06206,-0.12412c-0.02271,-0.01677 -0.05542,0.02331 -0.08296,0.01705c-0.11588,-0.02633 -0.22142,-0.0864 -0.33158,-0.13099c-0.13997,-0.05666 -0.26879,-0.21648 -0.41316,-0.24138c-0.06116,-0.01055 -0.1255,0.01301 -0.18618,0c-0.05566,-0.01193 -0.10291,-0.04868 -0.15437,-0.07302l-0.09821,-0.08812c0,0 -0.09835,-0.09835 0,-0.19671z" fill="#ff0000" stroke-width="0.5"/><path d="M498.64588,298.4234c0.09835,-0.09835 0.19671,0 0.19671,0l0.02591,0.03601c0.04775,0.02455 0.10153,0.03983 0.14325,0.07363c0.06022,0.04879 0.09454,0.12614 0.15808,0.17052c0.01959,0.01368 0.04701,-0.01002 0.07089,-0.01059c0.0727,-0.00173 0.14672,-0.01001 0.21814,0.00372c0.04543,0.00873 0.07925,0.05084 0.12412,0.06206c0.04014,0.01004 0.08466,-0.01243 0.12412,0c0.06828,0.0215 0.13684,0.05172 0.19052,0.09908c0.03239,0.02858 0.02059,0.09109 0.05484,0.1174c0.0405,0.03112 0.10037,0.02093 0.14828,0.03863c0.04339,0.01604 0.08141,0.04429 0.12412,0.06206c0.07129,0.02966 0.1565,0.03253 0.21739,0.08003c0.05749,0.04485 0.07988,0.12202 0.11982,0.18302c0.47084,0.09601 0.73034,0.44059 1.15227,0.60581c0.12502,0.04895 0.27108,0.02777 0.39476,0.08001c0.19978,0.08439 0.35216,0.23966 0.57695,0.28549c0.10135,0.02066 0.2104,-0.02677 0.31031,0c0.25725,0.06894 0.29136,0.21419 0.58866,0.21349c0,0 0.13909,0 0.13909,0.13909c0,0.13909 -0.13909,0.13909 -0.13909,0.13909c-0.13841,-0.00028 -0.30818,0.00582 -0.43348,-0.04518c-0.11395,-0.04638 -0.10754,-0.15183 -0.21909,-0.17576c-0.10113,-0.02169 -0.20882,0.02001 -0.31031,0c-0.23676,-0.04668 -0.40629,-0.20658 -0.61288,-0.29658c-0.12523,-0.05456 -0.27481,-0.03127 -0.40137,-0.08265c-0.43892,-0.17819 -0.72937,-0.50054 -1.20606,-0.63542c-0.04281,-0.06312 -0.06956,-0.14086 -0.12843,-0.18934c-0.04146,-0.03415 -0.10478,-0.025 -0.15498,-0.04409c-0.11783,-0.04481 -0.24675,-0.07273 -0.34821,-0.14755c-0.03972,-0.02929 -0.03811,-0.09259 -0.06928,-0.13085c-0.03681,-0.04518 -0.15288,-0.0178 -0.18185,-0.02504c-0.04488,-0.01122 -0.07885,-0.05257 -0.12412,-0.06206c-0.07531,-0.01578 -0.26197,0.03089 -0.33158,-0.00687c-0.11924,-0.06468 -0.19703,-0.19355 -0.31928,-0.25234l-0.09821,-0.08812c0,0 -0.09835,-0.09835 0,-0.19671z" fill="#ff7b00" stroke-width="0.5"/><path d="M499.5768,296.56155c0.09835,-0.09835 0.19671,0 0.19671,0l0.02591,0.03601c0.12438,0.06394 0.22151,0.17087 0.32943,0.25982c0.08693,0.07164 0.2246,0.05712 0.31341,0.12642c0.06129,0.04783 0.07778,0.13649 0.13175,0.19245c0.06614,0.06858 0.18565,0.06422 0.25455,0.13004c0.03123,0.02984 0.02059,0.09109 0.05484,0.1174c0.0405,0.03112 0.10042,0.02081 0.14828,0.03863c0.0798,0.02972 0.14406,0.09782 0.22697,0.11726c0.04028,0.00944 0.0849,-0.01316 0.12412,0c0.09782,0.03282 0.18566,0.09006 0.27849,0.13509c0.17019,0.09264 0.3589,0.03956 0.54958,0.12002c0.09423,0.03977 0.14298,0.1473 0.22409,0.20961c0.10538,0.08095 0.30651,0.09107 0.42463,0.17842c0.47206,0.34915 1.21483,0.7081 1.38793,1.32033c0,0 0.03374,0.13494 -0.10121,0.16868c-0.13494,0.03374 -0.16868,-0.10121 -0.16868,-0.10121c-0.11712,-0.61076 -1.43856,-1.09653 -1.79423,-1.48692c-0.12851,-0.14106 -0.48035,-0.08152 -0.64653,-0.16013c-0.07267,-0.03772 -0.14027,-0.08745 -0.218,-0.11316c-0.03928,-0.01299 -0.0841,0.01049 -0.12412,0c-0.04987,-0.01308 -0.21174,-0.10656 -0.26952,-0.13099c-0.07364,-0.03114 -0.15974,-0.03804 -0.22409,-0.08549c-0.03972,-0.02929 -0.03543,-0.09493 -0.06928,-0.13085c-0.06156,-0.06532 -0.17749,-0.05574 -0.24194,-0.1182c-0.05131,-0.04972 -0.06139,-0.13445 -0.1165,-0.17992c-0.08497,-0.07011 -0.22034,-0.05408 -0.30721,-0.12182c-0.09863,-0.07692 -0.17846,-0.18247 -0.29118,-0.23668l-0.09821,-0.08812c0,0 -0.09835,-0.09835 0,-0.19671z" fill="#ff7b00" stroke-width="0.5"/><path d="M501.87307,295.63063c0.09835,-0.09835 0.19671,0 0.19671,0l0.00769,0.02846c0.05483,0.01891 0.10757,0.04553 0.16448,0.05672c0.04377,0.0086 0.09144,-0.01204 0.1338,0.00192c0.19399,0.06393 0.37996,0.18701 0.57486,0.25316c0.08771,0.02977 0.18565,0.0301 0.26852,0.07148c0.05389,0.02691 0.08581,0.08456 0.12872,0.12684c0.12759,0.0398 0.40815,0.11592 0.5078,0.19397c0.24857,0.19469 0.83013,0.88095 0.97208,1.16787c0.06868,0.1388 0.08543,0.30093 0.16254,0.43522c0.1381,0.2405 0.19185,0.37243 0.2298,0.63815c0.03915,0.27407 0.01498,0.31526 0.04062,0.27473c0,0 0.13909,0 0.13909,0.13909c0,0.13909 -0.13909,0.13909 -0.13909,0.13909c-0.46054,-0.08433 -0.2061,-0.48627 -0.37461,-0.82571c-0.40292,-0.8116 -0.79627,-1.61438 -1.68448,-1.92577c-0.03984,-0.04047 -0.06875,-0.09597 -0.11953,-0.1214c-0.06973,-0.03493 -0.15384,-0.02843 -0.22797,-0.05265c-0.18556,-0.06062 -0.35934,-0.18154 -0.54225,-0.24333c-0.03615,-0.01221 -0.07705,0.00952 -0.11445,0.00192c-0.07139,-0.0145 -0.13859,-0.04494 -0.20789,-0.0674l-0.11643,-0.09566c0,0 -0.09835,-0.09835 0,-0.19671z" fill="#ff7b00" stroke-width="0.5"/><path d="M497.98452,300.19741c0,-0.13909 0.13909,-0.13909 0.13909,-0.13909l0.19725,0.02077c0.02669,0.04579 0.03809,0.10501 0.08007,0.13736c0.04045,0.03118 0.10043,0.02076 0.14828,0.03863c0.03645,0.01362 0.06463,0.0479 0.10285,0.05519c0.06096,0.01164 0.12533,-0.01217 0.18618,0c0.04536,0.00907 0.07876,0.05299 0.12412,0.06206c0.06086,0.01217 0.12659,-0.01732 0.18618,0c0.23038,0.06697 0.22248,0.12487 0.39364,0.19305c0.10655,0.04244 0.21666,0.07701 0.31928,0.12822c0.11965,0.0597 0.2317,0.13748 0.35842,0.18014c0.08778,0.02955 0.18794,0.0258 0.26852,0.07148c0.07785,0.04414 0.12719,0.12594 0.19078,0.1889c0.36224,0.11529 0.65284,0.50323 0.99891,0.53882c0.45811,0.04711 0.94733,-0.0848 1.36643,-0.21112c0.20422,-0.06155 0.40135,-0.21744 0.63357,-0.22435c0,0 0.13909,0 0.13909,0.13909c0,0.13909 -0.13909,0.13909 -0.13909,0.13909c-0.19126,-0.01164 -0.37677,0.15961 -0.5456,0.21008c-0.42339,0.12657 -1.03107,0.28816 -1.48839,0.22331c-0.43935,-0.0623 -0.68987,-0.43227 -1.11117,-0.57829c-0.06053,-0.06115 -0.10704,-0.14049 -0.18159,-0.18346c-0.06757,-0.03895 -0.15391,-0.02821 -0.22797,-0.05265c-0.17577,-0.05798 -0.32946,-0.18168 -0.50146,-0.25019c-0.06077,-0.02421 -0.12548,-0.03768 -0.18618,-0.06206c-0.05677,-0.0228 -0.33642,-0.17521 -0.3511,-0.17932c-0.05976,-0.01673 -0.12533,0.01217 -0.18618,0c-0.04536,-0.00907 -0.07876,-0.05299 -0.12412,-0.06206c-0.06086,-0.01217 -0.12542,0.01263 -0.18618,0c-0.05251,-0.01092 -0.09591,-0.04825 -0.1454,-0.06893c-0.07376,-0.03083 -0.15959,-0.03825 -0.22409,-0.08549c-0.03209,-0.0235 -0.02937,-0.07392 -0.04405,-0.11088l-0.051,0.02077c0,0 -0.13909,0 -0.13909,-0.13909z" fill="#ffea00" stroke-width="0.5"/><path d="M499.10163,298.83206c0,-0.13909 0.13909,-0.13909 0.13909,-0.13909h0.12412c0.11288,0.00139 0.22124,0.0453 0.33259,0.06386c0.06122,0.0102 0.12497,-0.0102 0.18618,0c0.06453,0.01076 0.12206,0.04913 0.18618,0.06206c0.04647,0.00937 0.098,-0.01308 0.14215,0.00417c0.06947,0.02715 0.11718,0.0958 0.18618,0.12412c0.03274,0.01344 0.07138,-0.01105 0.1061,-0.00417c0.17056,0.03378 0.32625,0.0885 0.49649,0.12412c0.1044,0.02184 0.21334,0.0001 0.31998,0.00192c0.25922,0.12344 0.48939,0.26858 0.75309,0.37462c0.04875,0.0196 0.1129,-0.01385 0.15694,0.0148c0.12158,0.0791 0.10134,0.19159 0.26914,0.23119c0.12356,0.02916 0.2648,0.02054 0.36949,0.09236c0.0328,0.0225 0.01274,0.08636 0.04405,0.11088c0.08383,0.06567 0.44369,0.10223 0.55106,0.18187c0.11838,0.08781 0.1846,0.23333 0.30054,0.32433c0,0 0.10862,0.08689 0.02172,0.1955c-0.08689,0.10862 -0.19551,0.02172 -0.19551,0.02172c-0.10165,-0.08257 -0.15387,-0.21689 -0.25802,-0.29629c-0.12758,-0.09726 -0.42304,-0.10284 -0.56605,-0.1905c-0.04519,-0.0277 -0.03963,-0.10311 -0.08007,-0.13736c-0.06439,-0.05454 -0.18328,-0.01412 -0.25113,-0.03177c-0.18047,-0.04694 -0.24206,-0.189 -0.35148,-0.2653c-0.12568,-0.08764 -0.6289,-0.24702 -0.82769,-0.35532c-0.02968,0.00072 -0.26732,0.00832 -0.30063,0.00192c-0.17015,-0.03267 -0.3266,-0.08985 -0.49649,-0.12412c-0.04647,-0.00937 -0.098,0.01308 -0.14215,-0.00417c-0.06947,-0.02715 -0.11718,-0.0958 -0.18618,-0.12412c-0.03274,-0.01344 -0.07138,0.01105 -0.1061,0.00417c-0.06417,-0.01271 -0.12166,-0.05131 -0.18618,-0.06206c-0.06122,-0.0102 -0.12497,0.0102 -0.18618,0c-0.09675,-0.01613 -0.18995,-0.062 -0.28803,-0.06026h-0.12412c0,0 -0.13909,0 -0.13909,-0.13909z" fill="#ffea00" stroke-width="0.5"/><path d="M499.36485,295.58989c0.09866,0 0.12734,0.06998 0.13568,0.11067c0.03553,0.01534 0.06981,0.03216 0.09352,0.06141c0.03932,0.04851 0.01278,0.13327 0.05534,0.17897c0.03285,0.03528 0.09574,0.01547 0.14106,0.03191c0.04929,0.01787 0.09565,0.04347 0.14071,0.07026c0.1547,0.09199 0.34467,0.24558 0.5207,0.29524c0.06659,0.01879 0.14533,-0.02359 0.20746,0.00687c0.08364,0.04101 0.12051,0.14761 0.20149,0.19365c0.07415,0.04216 0.17435,0.01947 0.24825,0.06206c0.08282,0.04773 0.13237,0.1385 0.20584,0.19966c0.09616,0.08005 0.23122,0.10772 0.32048,0.1954c0.06642,0.06525 0.07961,0.18298 0.16096,0.22828c0.061,0.03397 0.14286,0.02635 0.19749,0.06984c0.05836,0.04646 0.08275,0.12412 0.12412,0.18618c0.664,0.18891 1.07158,0.85179 1.39924,1.40276c0.21258,0.35747 0.25735,0.79127 0.4939,1.14411c0,0 0.07716,0.11573 -0.03858,0.19289c-0.11573,0.07716 -0.19289,-0.03858 -0.19289,-0.03858c-0.61685,-0.92976 -0.60161,-2.02768 -1.83054,-2.48011c-0.04137,-0.06206 -0.066,-0.13944 -0.12412,-0.18618c-0.04756,-0.03825 -0.12338,-0.02153 -0.17488,-0.05428c-0.06463,-0.0411 -0.11642,-0.10096 -0.16384,-0.16111c-0.02418,-0.03068 -0.02034,-0.07909 -0.04758,-0.1071c-0.02409,-0.02477 -0.06582,-0.02256 -0.09558,-0.04011c-0.07067,-0.04167 -0.14156,-0.08431 -0.20455,-0.13686c-0.06141,-0.05123 -0.09693,-0.13332 -0.16653,-0.17271c-0.07423,-0.04202 -0.17429,-0.01957 -0.24825,-0.06206c-0.07147,-0.04106 -0.09751,-0.14117 -0.17088,-0.17872c-0.04898,-0.02507 -0.11206,0.02215 -0.16491,0.00687c-0.14632,-0.04231 -0.27954,-0.12303 -0.41023,-0.20125c-0.09823,-0.0588 -0.18859,-0.13266 -0.29372,-0.17798c-0.07622,-0.03286 -0.17118,-0.03499 -0.23131,-0.09221c-0.04956,-0.04717 -0.03049,-0.1367 -0.06879,-0.1934c-0.01608,-0.02381 -0.05417,-0.01919 -0.08125,-0.02879l-0.07689,-0.18647c0,0 0,-0.13909 0.13909,-0.13909z" fill="#ffea00" stroke-width="0.5"/></g></g></g></svg>