<svg version="1.1" xmlns="http://www.w3.org/2000/svg" xmlns:xlink="http://www.w3.org/1999/xlink" width="68.06681" height="30.3125" viewBox="0,0,68.06681,30.3125"><defs><radialGradient cx="320" cy="180.00001" r="34.03341" gradientUnits="userSpaceOnUse" id="color-1"><stop offset="0" stop-color="#000000"/><stop offset="1" stop-color="#ff00ff"/></radialGradient><radialGradient cx="320" cy="180.00001" r="34.03341" gradientUnits="userSpaceOnUse" id="color-2"><stop offset="0" stop-color="#000000"/><stop offset="1" stop-color="#ff00ff"/></radialGradient><radialGradient cx="320.74001" cy="182.10859" r="25.34999" gradientTransform="translate(-593.28002,-372) scale(2,2)" gradientUnits="userSpaceOnUse" id="color-3"><stop offset="0" stop-color="#ff00ff"/><stop offset="1" stop-color="#000000"/></radialGradient></defs><g transform="translate(-285.9666,-164.25)"><g stroke="none" stroke-miterlimit="10"><path d="M295.23526,194.56251c-5.11895,0 -9.26867,-1.77562 -9.26867,-3.96596v-21.19309c0,-2.19034 4.14972,-3.96596 9.26867,-3.96596h49.52947c5.11895,0 9.26867,1.77562 9.26867,3.96596v21.19309c0,2.19034 -4.14972,3.96596 -9.26867,3.96596z" fill="url(#color-1)" stroke-width="0"/><path d="M295.23526,194.56251c-5.11895,0 -9.26867,-1.77562 -9.26867,-3.96596v-21.19309c0,-2.19034 4.14972,-3.96596 9.26867,-3.96596h49.52947c5.11895,0 9.26867,1.77562 9.26867,3.96596v21.19309c0,2.19034 -4.14972,3.96596 -9.26867,3.96596z" fill="url(#color-2)" stroke-width="0"/><text transform="translate(296.64001,186) scale(0.5,0.5)" font-size="40" xml:space="preserve" fill="url(#color-3)" stroke-width="1" font-family="Sans Serif" font-weight="400" text-anchor="start"><tspan x="0" dy="0">144p</tspan></text></g></g></svg>