<svg version="1.1" xmlns="http://www.w3.org/2000/svg" xmlns:xlink="http://www.w3.org/1999/xlink" width="19.51827" height="15.88726" viewBox="0,0,19.51827,15.88726"><defs><radialGradient cx="333.99999" cy="128.1411" r="7.94363" gradientUnits="userSpaceOnUse" id="color-1"><stop offset="0" stop-color="#ff00ff"/><stop offset="1" stop-color="#000000"/></radialGradient><radialGradient cx="322.33334" cy="128.1411" r="7.94363" gradientUnits="userSpaceOnUse" id="color-2"><stop offset="0" stop-color="#ff00ff"/><stop offset="1" stop-color="#000000"/></radialGradient></defs><g transform="translate(-318.40753,-120.19746)"><g stroke="none" stroke-width="0" stroke-miterlimit="10"><g><path d="M333.99999,120.19747c2.16817,0 3.92581,3.55649 3.92581,7.94363c0,4.38714 -1.75765,7.94363 -3.92581,7.94363c-2.16817,0 -3.92581,-3.55649 -3.92581,-7.94363c0,-4.38714 1.75765,-7.94363 3.92581,-7.94363z" fill="url(#color-1)"/><path d="M322.33334,120.19747c2.16817,0 3.92581,3.55649 3.92581,7.94363c0,4.38714 -1.75765,7.94363 -3.92581,7.94363c-2.16817,0 -3.92581,-3.55649 -3.92581,-7.94363c0,-4.38714 1.75765,-7.94363 3.92581,-7.94363z" fill="url(#color-2)"/></g></g></g></svg>