<svg version="1.1" xmlns="http://www.w3.org/2000/svg" xmlns:xlink="http://www.w3.org/1999/xlink" width="49.95774" height="50.10014" viewBox="0,0,49.95774,50.10014"><defs><radialGradient cx="299.47915" cy="178.90403" r="22.43568" gradientUnits="userSpaceOnUse" id="color-1"><stop offset="0" stop-color="#ffffff"/><stop offset="1" stop-color="#ffffff" stop-opacity="0"/></radialGradient><radialGradient cx="312.72915" cy="177.52903" r="23.94801" gradientUnits="userSpaceOnUse" id="color-2"><stop offset="0" stop-color="#ffffff"/><stop offset="1" stop-color="#ffffff" stop-opacity="0"/></radialGradient><radialGradient cx="322.35415" cy="178.90403" r="22.80931" gradientUnits="userSpaceOnUse" id="color-3"><stop offset="0" stop-color="#ffffff"/><stop offset="1" stop-color="#ffffff" stop-opacity="0"/></radialGradient><radialGradient cx="336.10415" cy="181.02903" r="23.93918" gradientUnits="userSpaceOnUse" id="color-4"><stop offset="0" stop-color="#ffffff"/><stop offset="1" stop-color="#ffffff" stop-opacity="0"/></radialGradient></defs><g transform="translate(-295.02113,-154.94993)"><g stroke-miterlimit="10"><path d="M295.02113,204.90767v-49.95774h49.95774v49.95774z" fill="#e08200" stroke="#000000" stroke-width="0"/><path d="M295.02113,204.90767v-49.95774h49.95774v49.95774z" fill-opacity="0.90196" fill="#0073e1" stroke="#000000" stroke-width="0"/><path d="M298.24172,200.5808c-0.17678,-1.23744 1.06066,-1.41421 1.06066,-1.41421l0.30178,0.11244c2.89437,-2.04769 -0.42585,-2.95546 -1.16233,-4.91512c-1.23901,-3.29681 3.10086,-5.64902 2.91339,-8.65864c-0.15902,-2.55276 -2.35103,-3.11467 -2.96109,-5.48769c-0.45508,-1.77022 0.33298,-3.60286 1.15025,-5.10138c3.92001,-5.57093 -2.05829,-3.44834 -3.01328,-7.48061c-0.86671,-3.65955 8.0362,-8.35656 -0.17693,-8.35656c-0.15798,0 -0.30913,-0.0293 -0.44828,-0.08279c-0.35858,-0.12183 -0.80172,-0.42296 -0.80172,-1.16721c0,-0.74426 0.44313,-1.04538 0.80172,-1.16721c0.13916,-0.05348 0.2903,-0.08279 0.44828,-0.08279c0.13242,0 2.56389,-0.00184 2.62317,0.00609c8.58805,1.14871 -0.49001,8.1335 -0.05011,10.13736c0.64721,2.94824 8.17261,1.7158 2.73673,9.51939c-2.29931,4.02844 2.07556,5.15429 2.18916,9.16093c0.06781,2.39142 -1.38787,3.83208 -2.37547,5.84922c-0.31005,0.63326 -1.05249,1.37519 -0.71116,1.99215c0.43214,0.7811 1.50596,1.07027 1.93155,1.85495c1.30278,2.40198 0.35769,4.45999 -1.59388,5.97992l-1.44822,0.36244c0,0 -1.23744,0.17677 -1.41422,-1.06067z" fill="url(#color-1)" stroke="none" stroke-width="0.5"/><path d="M309.49246,204.54645c-0.76743,-0.98669 0.21926,-1.75412 0.21926,-1.75412l0.95687,-0.71731c0.77717,-1.26811 0.64782,-2.52186 0.35687,-3.95887c-2.17253,-5.95278 2.40801,-10.21434 1.41028,-12.5179c-1.04306,-2.40822 -3.24846,-3.3123 -2.95155,-6.43148c0.31206,-3.27835 3.35209,-3.44805 3.3832,-6.45623c-0.63091,-2.51463 -5.68248,-2.41485 -5.26075,-6.01058c0.1278,-1.08966 11.8673,-7.04593 1.4975,-7.04593c0,0 -1.25,0 -1.25,-1.25c0,-1.25 1.25,-1.25 1.25,-1.25c3.40867,0 9.08267,3.0066 6.49303,7.55902c-0.9723,1.70925 -6.16282,0.29528 -5.49554,2.14505c0.94938,2.63175 4.26204,2.44754 5.23925,5.48942c0.02713,3.75432 -2.11282,3.30762 -3.21619,6.0567c-1.11666,2.7822 1.81623,4.12712 2.64784,6.30559c1.77955,4.6617 -3.3089,7.30113 -1.33972,12.7321c0.48958,2.46944 0.40223,4.10962 -0.89313,6.29113l-1.29313,1.03269c0,0 -0.98669,0.76743 -1.75412,-0.21926z" fill="url(#color-2)" stroke="none" stroke-width="0.5"/><path d="M322.49616,157.57353c0.2055,-1.23299 1.43849,-1.02749 1.43849,-1.02749l1.00874,0.1974c1.0779,0.51552 2.12555,1.50757 2.38802,2.67322c0.68546,3.04424 -2.10886,4.93676 -1.85731,8.00012c0.21155,2.57621 2.86871,3.44251 2.09661,6.52445c-0.66268,2.64519 -4.02024,3.72751 -4.31171,6.48445c7.40997,6.16765 -0.55334,7.21015 -0.28376,13.0045c0.1692,3.63677 4.17642,6.70418 -2.1369,8.67113c0,0 -1.19728,0.35918 -1.55647,-0.8381c-0.35918,-1.19728 0.8381,-1.55647 0.8381,-1.55647c4.44011,-1.26281 0.4912,-3.57525 0.3631,-6.07887c-0.13882,-2.71319 2.91083,-4.30381 3.85052,-6.47404c0.98946,-2.28516 -2.04002,-4.28242 -3.38429,-5.77146c-0.08668,-2.74761 0.8075,-4.17555 2.58434,-6.17098c0.59889,-0.67257 1.40455,-0.90998 1.60395,-1.84457c0.41975,-1.96735 -1.22989,-2.3675 -1.83543,-4.04186c-0.325,-0.89865 -0.40376,-2.33446 -0.31796,-3.28321c0.14228,-1.5734 3.53271,-6.39873 1.03071,-6.97715l-0.49126,-0.0526c0,0 -1.23299,-0.2055 -1.02749,-1.43849z" fill="url(#color-3)" stroke="none" stroke-width="0.5"/><path d="M331.22915,203.02903c0,-1.25 1.25,-1.25 1.25,-1.25l-0.19872,0.08332c1.54989,-0.59454 2.99726,-0.70297 4.00236,-2.07055c0.03448,-1.61555 -2.93375,-2.45568 -3.57349,-4.01096c-0.27201,-0.66129 -0.43503,-1.40645 -0.34988,-2.11641c0.36623,-3.0538 3.29714,-1.82492 3.6597,-3.82395c0.57536,-3.17235 -2.25295,-3.86057 -2.88663,-6.67182c-0.70063,-3.10823 2.05936,-4.74849 3.69052,-6.84618c2.76814,-4.21148 -4.00003,-5.85306 -4.33756,-9.54324c-0.15693,-1.71571 6.32263,-8.04207 1.36871,-7.8752c0,0 -1.25,0 -1.25,-1.25c0,-1.25 1.25,-1.25 1.25,-1.25c1.42744,0.03146 2.53738,-0.24087 3.60867,1.1037c3.3144,4.15992 -2.7888,6.20261 -2.48995,9.0211c0.48947,4.61626 7.51032,4.88405 3.91244,11.20676c-5.72915,7.36468 3.50383,12.42967 -2.88741,15.30572c-0.89709,0.40369 -1.62384,0.39836 -0.99889,1.73591c1.2445,2.66352 3.65713,2.03633 3.67651,5.73904c-1.55244,2.42487 -2.93495,2.69101 -5.49764,3.67945l-0.69872,0.08332c0,0 -1.25,0 -1.25,-1.25z" fill="url(#color-4)" stroke="none" stroke-width="0.5"/></g></g></svg>