<svg version="1.1" xmlns="http://www.w3.org/2000/svg" xmlns:xlink="http://www.w3.org/1999/xlink" width="71.83537" height="55.87053" viewBox="0,0,71.83537,55.87053"><g transform="translate(-273.125,-149.08984)"><g stroke-miterlimit="10"><path d="M295.03963,204.96037v-49.92074h49.92074v49.92074z" fill="#ff00ff" stroke="none" stroke-width="0"/><g stroke="#000000" stroke-width="0"><g fill="#ff00ff"><path d=""/><path d="M328.7458,185.03209v-3.71752h3.14554v3.71752z"/></g><path d="M325.61921,185.03209v-3.71752h3.17396v3.71752z" fill="#000000"/><g fill="#ff00ff"><path d=""/><path d="M325.61921,188.52084v-3.66033h3.14554v3.66033z"/></g><path d="M328.71738,188.52084v-3.66033h3.17396v3.66033z" fill="#000000"/><g fill="#ff00ff"><path d=""/><path d="M322.87378,191.77709v-3.66057h3.09734v3.66057z"/></g><path d="M319.79509,191.77709v-3.66057h3.12533v3.66057z" fill="#000000"/><g fill="#ff00ff"><path d=""/><path d="M319.79509,195.21239v-3.60425h3.09734v3.60425z"/></g><path d="M322.84579,195.21239v-3.60425h3.12533v3.60425z" fill="#000000"/><g fill="#ff00ff"><path d=""/><path d="M322.94063,184.80332v3.71752h-3.14554v-3.71752z"/></g><path d="M326.06722,184.80332v3.71752h-3.17396v-3.71752z" fill="#000000"/><g fill="#ff00ff"><path d=""/><path d="M326.06722,181.31457v3.66033h-3.14554v-3.66033z"/></g><path d="M322.96906,181.31457v3.66033h-3.17396v-3.66033z" fill="#000000"/><g fill="#ff00ff"><path d=""/><path d="M328.81266,191.55182v3.66057h-3.09734v-3.66057z"/></g><path d="M331.89134,191.55182v3.66057h-3.12533v-3.66057z" fill="#000000"/><g fill="#ff00ff"><path d=""/><path d="M331.89134,188.11652v3.60425h-3.09734v-3.60425z"/></g><path d="M328.84064,188.11652v3.60425h-3.12533v-3.60425z" fill="#000000"/><g fill="#ff00ff"><path d=""/><path d="M340.95088,185.03209v-3.71752h3.18378v3.71752z"/></g><path d="M337.78627,185.03209v-3.71752h3.21255v3.71752z" fill="#000000"/><g fill="#ff00ff"><path d=""/><path d="M337.78627,188.52084v-3.66033h3.18378v3.66033z"/></g><path d="M340.92211,188.52084v-3.66033h3.21255v3.66033z" fill="#000000"/><g fill="#ff00ff"><path d=""/><path d="M335.00746,191.77709v-3.66057h3.135v3.66057z"/></g><path d="M331.89134,191.77709v-3.66057h3.16333v3.66057z" fill="#000000"/><g fill="#ff00ff"><path d=""/><path d="M331.89134,195.21239v-3.60425h3.135v3.60425z"/></g><path d="M334.97913,195.21239v-3.60425h3.16333v3.60425z" fill="#000000"/><g fill="#ff00ff"><path d=""/><path d="M335.07513,184.80332v3.71752h-3.18378v-3.71752z"/></g><path d="M338.23973,184.80332v3.71752h-3.21255v-3.71752z" fill="#000000"/><g fill="#ff00ff"><path d=""/><path d="M338.23973,181.31457v3.66033h-3.18378v-3.66033z"/></g><path d="M335.10389,181.31457v3.66033h-3.21255v-3.66033z" fill="#000000"/><g fill="#ff00ff"><path d=""/><path d="M341.01854,191.55182v3.66057h-3.135v-3.66057z"/></g><path d="M344.13466,191.55182v3.66057h-3.16333v-3.66057z" fill="#000000"/><g fill="#ff00ff"><path d=""/><path d="M344.13466,188.11652v3.60425h-3.135v-3.60425z"/></g><path d="M341.04687,188.11652v3.60425h-3.16333v-3.60425z" fill="#000000"/><g fill="#ff00ff"><path d=""/><path d="M304.83314,171.35709v-3.7734h3.19282v3.7734z"/></g><path d="M301.65956,171.35709v-3.7734h3.22167v3.7734z" fill="#000000"/><g fill="#ff00ff"><path d=""/><path d="M301.65956,174.89828v-3.71535h3.19282v3.71535z"/></g><path d="M304.80429,174.89828v-3.71535h3.22167v3.71535z" fill="#000000"/><g fill="#ff00ff"><path d=""/><path d="M298.87286,178.20347v-3.71559h3.1439v3.71559z"/></g><path d="M295.74789,178.20347v-3.71559h3.17231v3.71559z" fill="#000000"/><g fill="#ff00ff"><path d=""/><path d="M295.74789,181.69041v-3.65842h3.1439v3.65842z"/></g><path d="M298.84445,181.69041v-3.65842h3.17231v3.65842z" fill="#000000"/><g fill="#ff00ff"><path d=""/><path d="M298.94071,171.12488v3.7734h-3.19282v-3.7734z"/></g><path d="M302.1143,171.12488v3.7734h-3.22167v-3.7734z" fill="#000000"/><g fill="#ff00ff"><path d=""/><path d="M302.1143,167.58369v3.71535h-3.19282v-3.71535z"/></g><path d="M298.96956,167.58369v3.71535h-3.22167v-3.71535z" fill="#000000"/><g fill="#ff00ff"><path d=""/><path d="M304.901,177.97482v3.71559h-3.1439v-3.71559z"/></g><path d="M308.02596,177.97482v3.71559h-3.17231v-3.71559z" fill="#000000"/><g fill="#ff00ff"><path d=""/><path d="M308.02596,174.48788v3.65842h-3.1439v-3.65842z"/></g><path d="M304.92941,174.48788v3.65842h-3.17231v-3.65842z" fill="#000000"/><g fill="#ff00ff"><path d=""/><path d="M317.22167,171.35709v-3.7734h3.23164v3.7734z"/></g><path d="M314.0095,171.35709v-3.7734h3.26084v3.7734z" fill="#000000"/><g fill="#ff00ff"><path d=""/><path d="M314.0095,174.89828v-3.71535h3.23164v3.71535z"/></g><path d="M317.19247,174.89828v-3.71535h3.26084v3.71535z" fill="#000000"/><g fill="#ff00ff"><path d=""/><path d="M311.18892,178.20347v-3.71559h3.18212v3.71559z"/></g><path d="M308.02596,178.20347v-3.71559h3.21088v3.71559z" fill="#000000"/><g fill="#ff00ff"><path d=""/><path d="M308.02596,181.69041v-3.65842h3.18212v3.65842z"/></g><path d="M311.16016,181.69041v-3.65842h3.21088v3.65842z" fill="#000000"/><g fill="#ff00ff"><path d=""/><path d="M311.2576,171.12488v3.7734h-3.23164v-3.7734z"/></g><path d="M314.46977,171.12488v3.7734h-3.26084v-3.7734z" fill="#000000"/><g fill="#ff00ff"><path d=""/><path d="M314.46977,167.58369v3.71535h-3.23164v-3.71535z"/></g><path d="M311.2868,167.58369v3.71535h-3.26084v-3.71535z" fill="#000000"/><g fill="#ff00ff"><path d=""/><path d="M317.29035,177.97482v3.71559h-3.18212v-3.71559z"/></g><path d="M320.45331,177.97482v3.71559h-3.21088v-3.71559z" fill="#000000"/><g fill="#ff00ff"><path d=""/><path d="M320.45331,174.48788v3.65842h-3.18212v-3.65842z"/></g><path d="M317.3191,174.48788v3.65842h-3.21088v-3.65842z" fill="#000000"/><g fill="#ff00ff"><path d=""/><path d="M311.13675,191.49486v3.71752h-3.14554v-3.71752z"/></g><path d="M314.26334,191.49486v3.71752h-3.17396v-3.71752z" fill="#000000"/><g fill="#ff00ff"><path d=""/><path d="M314.26334,188.00611v3.66033h-3.14554v-3.66033z"/></g><path d="M311.16517,188.00611v3.66033h-3.17396v-3.66033z" fill="#000000"/><g fill="#ff00ff"><path d=""/><path d="M317.00877,184.74987v3.66057h-3.09734v-3.66057z"/></g><path d="M320.08746,184.74987v3.66057h-3.12533v-3.66057z" fill="#000000"/><g fill="#ff00ff"><path d=""/><path d="M320.08746,181.31457v3.60425h-3.09734v-3.60425z"/></g><path d="M317.03676,181.31457v3.60425h-3.12533v-3.60425z" fill="#000000"/><g fill="#ff00ff"><path d=""/><path d="M316.94192,191.72363v-3.71752h3.14554v3.71752z"/></g><path d="M313.81533,191.72363v-3.71752h3.17396v3.71752z" fill="#000000"/><g fill="#ff00ff"><path d=""/><path d="M313.81533,195.21239v-3.66033h3.14554v3.66033z"/></g><path d="M316.9135,195.21239v-3.66033h3.17396v3.66033z" fill="#000000"/><g fill="#ff00ff"><path d=""/><path d="M311.0699,184.97513v-3.66057h3.09734v3.66057z"/></g><path d="M307.99121,184.97513v-3.66057h3.12533v3.66057z" fill="#000000"/><g fill="#ff00ff"><path d=""/><path d="M307.99121,188.41043v-3.60425h3.09734v3.60425z"/></g><path d="M311.04191,188.41043v-3.60425h3.12533v3.60425z" fill="#000000"/><g fill="#ff00ff"><path d=""/><path d="M298.93168,191.49486v3.71752h-3.18378v-3.71752z"/></g><path d="M302.09628,191.49486v3.71752h-3.21255v-3.71752z" fill="#000000"/><g fill="#ff00ff"><path d=""/><path d="M302.09628,188.00611v3.66033h-3.18378v-3.66033z"/></g><path d="M298.96045,188.00611v3.66033h-3.21255v-3.66033z" fill="#000000"/><g fill="#ff00ff"><path d=""/><path d="M304.87509,184.74987v3.66057h-3.135v-3.66057z"/></g><path d="M307.99121,184.74987v3.66057h-3.16333v-3.66057z" fill="#000000"/><g fill="#ff00ff"><path d=""/><path d="M307.99121,181.31457v3.60425h-3.135v-3.60425z"/></g><path d="M304.90342,181.31457v3.60425h-3.16333v-3.60425z" fill="#000000"/><g fill="#ff00ff"><path d=""/><path d="M304.80743,191.72363v-3.71752h3.18378v3.71752z"/></g><path d="M301.64282,191.72363v-3.71752h3.21255v3.71752z" fill="#000000"/><g fill="#ff00ff"><path d=""/><path d="M301.64282,195.21239v-3.66033h3.18378v3.66033z"/></g><path d="M304.77866,195.21239v-3.66033h3.21255v3.66033z" fill="#000000"/><g fill="#ff00ff"><path d=""/><path d="M298.86401,184.97513v-3.66057h3.135v3.66057z"/></g><path d="M295.74789,184.97513v-3.66057h3.16333v3.66057z" fill="#000000"/><g fill="#ff00ff"><path d=""/><path d="M295.74789,188.41043v-3.60425h3.135v3.60425z"/></g><path d="M298.83568,188.41043v-3.60425h3.16333v3.60425z" fill="#000000"/><g fill="#ff00ff"><path d=""/><path d="M335.04941,177.91701v3.7734h-3.19282v-3.7734z"/></g><path d="M338.223,177.91701v3.7734h-3.22167v-3.7734z" fill="#000000"/><g fill="#ff00ff"><path d=""/><path d="M338.223,174.37581v3.71535h-3.19282v-3.71535z"/></g><path d="M335.07826,174.37581v3.71535h-3.22167v-3.71535z" fill="#000000"/><g fill="#ff00ff"><path d=""/><path d="M341.0097,171.07063v3.71559h-3.1439v-3.71559z"/></g><path d="M344.13466,171.07063v3.71559h-3.17231v-3.71559z" fill="#000000"/><g fill="#ff00ff"><path d=""/><path d="M344.13466,167.58369v3.65842h-3.1439v-3.65842z"/></g><path d="M341.03811,167.58369v3.65842h-3.17231v-3.65842z" fill="#000000"/><g fill="#ff00ff"><path d=""/><path d="M340.94184,178.14921v-3.7734h3.19282v3.7734z"/></g><path d="M337.76825,178.14921v-3.7734h3.22167v3.7734z" fill="#000000"/><g fill="#ff00ff"><path d=""/><path d="M337.76825,181.69041v-3.71535h3.19282v3.71535z"/></g><path d="M340.91299,181.69041v-3.71535h3.22167v3.71535z" fill="#000000"/><g fill="#ff00ff"><path d=""/><path d="M334.98155,171.29928v-3.71559h3.1439v3.71559z"/></g><path d="M331.85659,171.29928v-3.71559h3.17231v3.71559z" fill="#000000"/><g fill="#ff00ff"><path d=""/><path d="M331.85659,174.78621v-3.65842h3.1439v3.65842z"/></g><path d="M334.95314,174.78621v-3.65842h3.17231v3.65842z" fill="#000000"/><g fill="#ff00ff"><path d=""/><path d="M322.66089,177.91701v3.7734h-3.23164v-3.7734z"/></g><path d="M325.87306,177.91701v3.7734h-3.26084v-3.7734z" fill="#000000"/><g fill="#ff00ff"><path d=""/><path d="M325.87306,174.37581v3.71535h-3.23164v-3.71535z"/></g><path d="M322.69009,174.37581v3.71535h-3.26084v-3.71535z" fill="#000000"/><g fill="#ff00ff"><path d=""/><path d="M328.69364,171.07063v3.71559h-3.18212v-3.71559z"/></g><path d="M331.85659,171.07063v3.71559h-3.21088v-3.71559z" fill="#000000"/><g fill="#ff00ff"><path d=""/><path d="M331.85659,167.58369v3.65842h-3.18212v-3.65842z"/></g><path d="M328.72239,167.58369v3.65842h-3.21088v-3.65842z" fill="#000000"/><g fill="#ff00ff"><path d=""/><path d="M328.62495,178.14921v-3.7734h3.23164v3.7734z"/></g><path d="M325.41278,178.14921v-3.7734h3.26084v3.7734z" fill="#000000"/><g fill="#ff00ff"><path d=""/><path d="M325.41278,181.69041v-3.71535h3.23164v3.71535z"/></g><path d="M328.59575,181.69041v-3.71535h3.26084v3.71535z" fill="#000000"/><g fill="#ff00ff"><path d=""/><path d="M322.5922,171.29928v-3.71559h3.18212v3.71559z"/></g><path d="M319.42925,171.29928v-3.71559h3.21088v3.71559z" fill="#000000"/><g fill="#ff00ff"><path d=""/><path d="M319.42925,174.78621v-3.65842h3.18212v3.65842z"/></g><path d="M322.56345,174.78621v-3.65842h3.21088v3.65842z" fill="#000000"/></g><text transform="translate(314.93802,176.31907) scale(0.22951,0.22951)" font-size="40" xml:space="preserve" fill="#ff0000" stroke="none" stroke-width="1" font-family="Sans Serif" font-weight="normal" text-anchor="start"><tspan x="0" dy="0">game</tspan></text><path d="M319.33161,170.68901c0,1.25 -1.25,1.25 -1.25,1.25h-0.25c-5.43404,0 -10.52732,0.01238 -15.9555,-0.89201c0,0 -1.23299,-0.2055 -1.02749,-1.43849c0.2055,-1.23299 1.43849,-1.02749 1.43849,-1.02749c5.29678,0.8831 10.24395,0.85799 15.5445,0.85799h0.25c0,0 1.25,0 1.25,1.25z" fill="#ff0000" stroke="none" stroke-width="0.5"/><path d="M319.55682,182.00823c0,1.25 -1.25,1.25 -1.25,1.25h-1c-3.6947,0 -7.5834,0.13792 -11.22361,-0.52016c0,0 -1.22984,-0.22361 -1.00623,-1.45344c0.22361,-1.22984 1.45344,-1.00623 1.45344,-1.00623c3.48828,0.63817 7.23532,0.47984 10.77639,0.47984h1c0,0 1.25,0 1.25,1.25z" fill="#ff0000" stroke="none" stroke-width="0.5"/><path d="M328.82183,185.44013c0.2055,1.23299 -1.02749,1.43849 -1.02749,1.43849l-0.9555,0.14201c-3.04167,0 -6.08333,0 -9.125,0c0,0 -1.25,0 -1.25,-1.25c0,-1.25 1.25,-1.25 1.25,-1.25c3.04167,0 6.08333,0 9.125,0l0.5445,-0.10799c0,0 1.23299,-0.2055 1.43849,1.02749z" fill="#ff0000" stroke="none" stroke-width="0.5"/><path d="M336.03616,192.7231c0,1.25 -1.25,1.25 -1.25,1.25h-0.375c-2.1001,-0.00159 -3.81937,-0.37114 -5.8289,-0.91905c0,0 -1.20595,-0.3289 -0.87706,-1.53485c0.3289,-1.20595 1.53485,-0.87706 1.53485,-0.87706c1.80863,0.4934 3.28365,0.8325 5.1711,0.83095h0.375c0,0 1.25,0 1.25,1.25z" fill="#ff0000" stroke="none" stroke-width="0.5"/><path d="M338.87671,181.61352c0.15504,1.24035 -1.0853,1.39539 -1.0853,1.39539l-1.04187,0.12952c-0.85539,0.0745 -1.70673,0.23214 -2.53427,0.46109c0,0 -1.20595,0.3289 -1.53485,-0.87706c-0.3289,-1.20595 0.87706,-1.53485 0.87706,-1.53485c0.97018,-0.26133 1.96539,-0.44471 2.96573,-0.53891l0.95813,-0.12048c0,0 1.24035,-0.15504 1.39539,1.0853z" fill="#ff0000" stroke="none" stroke-width="0.5"/><path d="M308.04442,191.59707c0,-1.25 1.25,-1.25 1.25,-1.25h0.25c1.22772,0 2.30065,0.02174 3.50485,-0.22573c0,0 1.22573,-0.24515 1.47087,0.98058c0.24515,1.22573 -0.98058,1.47087 -0.98058,1.47087c-1.37003,0.26781 -2.60395,0.27427 -3.99515,0.27427h-0.25c0,0 -1.25,0 -1.25,-1.25z" fill="#ff0000" stroke="none" stroke-width="0.5"/><path d="M301.14831,186.38694c0.3434,-1.2019 1.54531,-0.8585 1.54531,-0.8585l0.89078,0.25462c0.77192,0.23607 1.57474,0.38337 2.37898,0.45242c0,0 1.24487,0.11317 1.1317,1.35804c-0.11317,1.24487 -1.35804,1.1317 -1.35804,1.1317c-0.96988,-0.09226 -1.93662,-0.27174 -2.87102,-0.54758l-0.85922,-0.24538c0,0 -1.2019,-0.3434 -0.8585,-1.54531z" fill="#ff0000" stroke="none" stroke-width="0.5"/><path d="M273.125,150.58984v-1.5h0.375v1.5z" fill="#ffffff" stroke="none" stroke-width="0"/></g></g></svg>