<svg version="1.1" xmlns="http://www.w3.org/2000/svg" xmlns:xlink="http://www.w3.org/1999/xlink" width="604.99537" height="339.1387" viewBox="0,0,604.99537,339.1387"><g transform="translate(-18.60348,-10.43065)"><g fill="#000000" stroke="none" stroke-miterlimit="10"><path d="M33.60157,20.24454c0,-0.69036 0.55964,-1.25 1.25,-1.25c0.69036,0 1.25,0.55964 1.25,1.25c0,0.69036 -0.55964,1.25 -1.25,1.25c-0.69036,0 -1.25,-0.55964 -1.25,-1.25z" stroke-width="0.5"/><path d="M38.95871,18.81596c0,-0.69036 0.55964,-1.25 1.25,-1.25c0.69036,0 1.25,0.55964 1.25,1.25c0,0.69036 -0.55964,1.25 -1.25,1.25c-0.69036,0 -1.25,-0.55964 -1.25,-1.25z" stroke-width="0.5"/><path d="M75.38728,45.24454c0,-0.99401 0.79043,-1.19757 1.11419,-1.23926c0.14136,-0.35284 0.28272,-0.70568 0.42408,-1.05852c1.94524,-3.66987 -2.12855,-20.17268 -5.16381,-21.24298c-2.78121,-0.98071 -5.78981,2.36599 -8.57468,2.19561c-1.09237,1.09237 -4.46983,2.93034 -8.55536,4.80312l-0.13727,0.64918c-0.33467,-0.07962 -0.73591,-0.0707 -1.12326,-0.08025c-2.29933,1.02205 -4.76206,2.03305 -7.13175,2.91741c-0.88738,8.07013 -4.50058,15.21557 -12.82151,14.96636c-9.0282,-6.03571 -4.15894,-24.47869 -4.10255,-33.89085c-0.31763,0.03922 -1.14734,0.04273 -1.39076,-0.93092c-0.30317,-1.21268 0.90951,-1.51585 0.90951,-1.51585l1.57901,-0.3851c3.0765,-0.01487 5.66914,0.04588 8.6034,0.72748c1.31403,0.30523 2.28214,-0.7758 3.67869,0.19236c0.70704,0.49016 0.7692,1.53916 1.1538,2.30873c1.70664,3.71788 2.83561,9.92826 2.58056,15.9987c1.91561,-0.73024 3.87474,-1.54633 5.74039,-2.38499c0.18165,-0.38928 0.39803,-0.78329 0.49214,-1.16066c0,0 0.55901,-1.11803 1.67705,-0.55902c0.25844,0.12921 0.42727,0.28831 0.53411,0.45655c3.43901,-1.67246 6.24492,-3.30975 7.3571,-4.42193c3.45469,-0.15013 7.11572,-3.74356 10.71103,-2.09011c4.56894,2.10122 8.5304,19.73267 6.26477,24.47131c-0.23133,0.5793 -0.46266,1.15858 -0.69399,1.73788l-1.87488,0.78576c0,0 -1.25,0 -1.25,-1.25zM35.56584,35.06596c0,0 -1.25,0 -1.25,-1.25c0,-1.25 1.25,-1.25 1.25,-1.25c0.16793,0 0.3462,-0.00666 0.53411,-0.01968c-0.21998,-0.22531 -0.35554,-0.53341 -0.35554,-0.87318c0,-0.69036 0.55964,-1.25 1.25,-1.25h1.78571c0.47989,0 0.95646,0.05743 1.42857,0.15221v-0.15221h1.42858v0c0.43867,0 0.82455,0.22596 1.04762,0.56783c0.4481,-0.14646 0.90461,-0.30091 1.36741,-0.46235c0.43171,-6.05854 -0.71927,-12.48957 -2.48391,-15.84341c-0.48208,-2.21537 -1.06894,-0.65273 -3.02465,-1.07034c-2.3329,-0.49816 -4.38899,-0.64786 -6.74432,-0.68907c0.01641,0.10633 0.01641,0.17591 0.01641,0.17591c0,7.39581 -4.74009,26.99773 2.32652,31.66078c5.84699,-0.29409 8.68359,-5.51673 9.62787,-11.68754c-3.4662,1.19053 -6.5046,1.99105 -8.20439,1.99105z" stroke-width="0.5"/><path d="M71.81585,52.74454c0,1.25 -1.25,1.25 -1.25,1.25l-1.19218,-0.02255c-2.50327,1.03965 -4.19726,1.44094 -5.43802,3.76328c0.01063,0.12092 0.01834,0.24307 0.02306,0.36642c0,0 0,0.90059 -0.76442,1.17292c-0.14945,0.34859 -0.33127,0.68547 -0.55701,1.00565c0,0 -0.75,1 -1.75,0.25c-1,-0.75 -0.25,-1.75 -0.25,-1.75c0.34866,-0.42279 0.59702,-0.89048 0.78282,-1.38734c-0.27166,-1.56446 -1.72001,-3.02077 -3.10421,-3.48777l-0.25005,0.0894c0,0 -1.25,0 -1.25,-1.25c0,-1.25 1.25,-1.25 1.25,-1.25l1.17853,0.0894c1.13816,0.5014 2.14166,1.20829 2.92741,2.08952c0.16974,-0.94669 0.41321,-1.87172 0.92542,-2.69373l-0.20993,-0.02091c0,0 0,-1.25 1.25,-1.25c1.25,0 1.25,1.25 1.25,1.25l-0.20994,1.40766c-0.25308,0.33863 -0.44786,0.70559 -0.60278,1.09291c1.22048,-0.77587 2.65392,-1.2921 4.32633,-1.9423l1.66495,-0.02255c0,0 1.25,0 1.25,1.25z" stroke-width="0.5"/><path d="M39.67299,80.60168c0,-0.69035 0.55964,-1.25 1.25,-1.25c0.69036,0 1.25,0.55965 1.25,1.25c0,0.69035 -0.55964,1.25 -1.25,1.25c-0.69036,0 -1.25,-0.55965 -1.25,-1.25z" stroke-width="0.5"/><path d="M83.40208,91.2846c-1.04007,0.69338 -1.73343,-0.34669 -1.73343,-0.34669l-0.26405,-0.66271c-2.62658,0.32485 -5.33678,0.1479 -7.98161,0.1479c0,0 -0.58114,0 -0.95092,-0.39625c-0.06254,0.08164 -0.12644,0.16603 -0.19193,0.25339c0,0 -0.75,1 -1.75,0.25c-0.43434,-0.32576 -0.53854,-0.69867 -0.51745,-1.01633c-0.57986,0.12414 -1.22628,0.19142 -1.94684,0.1949c0,0 -1.25,0 -1.25,-1.25c0,-1.25 1.25,-1.25 1.25,-1.25c4.80752,0.02757 4.46429,-4.18544 4.46429,-8.03571v-0.71429c0,0 0,-1.25 1.25,-1.25c1.25,0 1.25,1.25 1.25,1.25v0.71429c0,1.97284 -0.06675,3.92873 -0.48232,5.60991c0.12628,-0.08562 0.25636,-0.17296 0.39063,-0.26247l1.49696,-0.75119c0,0 1.11804,-0.55902 1.67705,0.55902c0.55901,1.11804 -0.55901,1.67705 -0.55901,1.67705l-1.36018,0.67739c-0.7221,0.4814 -1.26628,0.85517 -1.74192,1.23909c2.7144,-0.00535 5.42104,-0.01974 8.1329,0.14911l1.16453,1.48015c0,0 0.69338,1.04006 -0.34669,1.73344z" stroke-width="0.5"/><path d="M34.29253,109.93405c0,0 -1.11803,-0.55901 -0.55901,-1.67705c0.55901,-1.11804 1.67705,-0.55902 1.67705,-0.55902l1.47107,0.73656c4.19196,2.5525 9.37007,0.56005 14.04134,0.56005c18.5188,0.21909 18.17209,-17.16294 3.57143,-15.35715c-2.25705,-0.03057 -4.29753,-0.65877 -6.22748,-1.6188c-0.68159,3.51031 -2.02812,6.69947 -3.93448,8.72634c-2.05518,2.1851 -8.082,1.12085 -10.7887,1.08419c-5.96962,-2.44039 -6.44927,-12.68684 -4.58799,-20.60539c-0.2237,-0.02423 -0.44955,-0.04353 -0.67765,-0.05769c0.23107,0.22237 0.40677,0.57143 0.29918,1.10936c-0.24514,1.22572 -1.47087,0.98058 -1.47087,0.98058l-1.66375,-0.33895c-0.43514,0.00203 -0.87026,0.00405 -1.30539,0.00608c0,0 -1.25,0 -1.25,-1.25c0,-1.25 1.25,-1.25 1.25,-1.25c0.51725,0.00203 1.03449,0.00405 1.55174,0.00608l0.56529,0.11122c-0.09316,-0.16675 -0.15275,-0.38009 -0.15275,-0.65302c0,-1.25 1.25,-1.25 1.25,-1.25c0.77702,0 1.53358,0.05522 2.27138,0.15832c1.14781,-3.61359 2.78595,-6.396 4.53415,-7.12355c-0.20133,-0.05152 -0.40561,-0.11709 -0.61335,-0.20018l-1.19218,0.02255c0,0 -1.25,0 -1.25,-1.25c0,-1.25 1.25,-1.25 1.25,-1.25l1.66495,0.02255c2.27317,0.90927 3.74671,0.05622 6.06772,0.83964c0.47676,0.16092 0.50253,0.91049 0.91206,1.20285c1.76859,1.26262 2.10161,1.39548 3.31058,3.30107c3.62223,2.83216 4.91352,9.08539 4.3401,15.02873c1.93268,1.08579 3.85454,1.78572 5.84744,1.74801c18.74002,1.1668 16.45265,16.4437 1.95044,19.73599c-0.47596,-0.263 -0.97186,-0.48165 -1.49925,-0.63081c-0.94105,-0.26615 -6.41122,-0.27374 -8.24781,-0.25658c-1.37819,0.01287 -2.91335,-0.57495 -4.13424,0.06456c-0.24154,0.12652 -0.47818,0.26052 -0.71055,0.40105l-0.06968,-0.20903l-1.88086,0.62695c-1.8132,-0.69766 -3.63681,-0.85065 -5.49885,-0.88006zM45.38548,90.32552c-0.05279,1.16902 -1.2482,1.16902 -1.2482,1.16902h-2.14286c-0.69036,0 -1.25,-0.55965 -1.25,-1.25c0,-0.69035 0.55964,-1.25 1.25,-1.25h1.4984c-3.65406,-2.67894 -7.22788,-5.78025 -11.58179,-7.14752c-1.98032,6.72101 -4.23535,15.09111 2.10549,17.52721c1.45867,-0.0276 7.55777,0.89356 8.49701,-0.34438c1.32043,-1.74039 2.55151,-4.95757 3.23728,-8.464c-0.12205,-0.07921 -0.24381,-0.15935 -0.36533,-0.24034zM35.75084,80.792c0.05628,-0.00775 0.11374,-0.01175 0.17215,-0.01175c0.49696,0 0.92618,0.28999 1.12766,0.71c3.30484,1.883 6.25796,4.35701 9.11379,6.32837c0.527,-5.03241 -0.25809,-10.03178 -3.62533,-11.69021c-0.53379,-0.77761 -0.66016,-1.86789 -1.39108,-2.46403c-0.47787,-0.38975 -1.22524,-0.30489 -1.72693,-0.66347c-0.29086,-0.20789 -0.17663,-0.82906 -0.51651,-0.94c-1.05798,-0.34534 -2.07479,-0.20656 -3.14124,-0.20987c0.19221,0.1851 0.33821,0.4663 0.33821,0.8935c0,1.25 -1.25,1.25 -1.25,1.25c-0.54413,-0.12171 -1.21879,0.53753 -1.26614,1.09309c-0.09914,1.16333 -0.48865,2.68287 -0.98134,4.39862c1.08751,0.35104 2.13419,0.79592 3.14675,1.30576z" stroke-width="0.5"/><path d="M149.83171,54.17311c0,-0.69036 0.55964,-1.25 1.25,-1.25c0.69036,0 1.25,0.55964 1.25,1.25c0,0.69036 -0.55964,1.25 -1.25,1.25c-0.69036,0 -1.25,-0.55964 -1.25,-1.25z" stroke-width="0.5"/><path d="M153.046,54.17311c0,-0.69036 0.55964,-1.25 1.25,-1.25c0.69036,0 1.25,0.55964 1.25,1.25c0,0.69036 -0.55964,1.25 -1.25,1.25c-0.69036,0 -1.25,-0.55964 -1.25,-1.25z" stroke-width="0.5"/><path d="M226.43885,54.70883c-1.25,0 -1.25,-1.25 -1.25,-1.25v-1.07143c0,-1.36952 0.33769,-2.47519 -0.50435,-3.59234c0,0 -0.69338,-1.04006 0.34669,-1.73344c1.04006,-0.69338 1.73344,0.34669 1.73344,0.34669c1.07068,1.72494 0.92422,2.99375 0.92422,4.97909v1.07143c0,0 0,1.25 -1.25,1.25z" stroke-width="0.5"/><path d="M214.65314,53.6374c-1.25,0 -1.25,-1.25 -1.25,-1.25l0.21492,-2.12936c0.78552,-0.39137 1.57104,-0.78273 2.35656,-1.1741c0,0 1.1606,-0.46424 1.62483,0.69636c0.46424,1.1606 -0.69636,1.62483 -0.69636,1.62483c-0.40496,0.08483 -0.80991,0.16965 -1.21487,0.25448l0.21492,0.72779c0,0 0,1.25 -1.25,1.25z" stroke-width="0.5"/><path d="M205.61747,57.83371c-1.1606,-0.46424 -0.69636,-1.62483 -0.69636,-1.62483l0.73458,-1.83355c0.56289,-1.06195 0.08646,-2.599 0.88791,-3.4947c0.58432,-0.65304 1.6715,-0.52692 2.50725,-0.79038c0,0 1.22573,-0.24515 1.47087,0.98058c0.24515,1.22573 -0.98058,1.47087 -0.98058,1.47087c-1.5859,-0.1134 -0.83736,1.25255 -1.60485,2.85777l-0.69399,1.73788c0,0 -0.46424,1.1606 -1.62483,0.69636z" stroke-width="0.5"/><path d="M199.65314,64.35168c-1.25,0 -1.25,-1.25 -1.25,-1.25c0,-2.14286 0,-5.35714 0,-7.5c0,0 0,-1.25 1.25,-1.25c1.25,0 1.25,1.25 1.25,1.25c0,2.14286 0,4.28571 0,6.42857v1.07143c0,0 0,1.25 -1.25,1.25z" stroke-width="0.5"/><path d="M213.58171,74.70883c-1.25,0 -1.25,-1.25 -1.25,-1.25v-0.71429c0,-3.12661 -0.67394,-5.94995 -0.71429,-8.92857c0,0 0,-1.25 1.25,-1.25c1.25,0 1.25,1.25 1.25,1.25c-0.01928,1.01888 0.47892,1.98131 0.69173,2.9779c0.39195,1.83551 0.02255,4.07114 0.02255,5.95067v0.71429c0,0 0,1.25 -1.25,1.25z" stroke-width="0.5"/><path d="M221.796,73.99454c-1.25,0 -1.25,-1.25 -1.25,-1.25c0,-1.07143 0,-3.21429 0,-4.28571c0,0 0,-1.25 1.25,-1.25c1.25,0 1.25,1.25 1.25,1.25c0,1.07143 0,2.14286 0,3.21429v1.07143c0,0 0,1.25 -1.25,1.25z" stroke-width="0.5"/><path d="M210.01028,80.42311c-1.25,0 -1.25,-1.25 -1.25,-1.25c0,-0.47619 0,-2.02381 0,-2.5c0,0 0,-1.25 1.25,-1.25c1.25,0 1.25,1.25 1.25,1.25c0,0.47619 0,0.95238 0,1.42857v1.07143c0,0 0,1.25 -1.25,1.25z" stroke-width="0.5"/><path d="M215.18885,84.53026c0,-1.25 1.25,-1.25 1.25,-1.25l0.54469,0.36612c-0.12204,-0.18156 -0.24408,-0.36313 -0.36612,-0.54469c0,0 0,-1.25 1.25,-1.25c1.25,0 1.25,1.25 1.25,1.25c-0.12204,0.77082 -0.24408,1.54164 -0.36612,2.31245l-2.31245,0.36612c0,0 -1.25,0 -1.25,-1.25z" stroke-width="0.5"/><path d="M204.296,93.99454c-1.25,0 -1.25,-1.25 -1.25,-1.25v-1.78571c0,0 0,-1.25 1.25,-1.25c1.25,0 1.25,1.25 1.25,1.25v1.78571c0,0 0,1.25 -1.25,1.25z" stroke-width="0.5"/><path d="M207.68885,95.95883c0,-0.69036 0.55964,-1.25 1.25,-1.25c0.69036,0 1.25,0.55964 1.25,1.25c0,0.69036 -0.55964,1.25 -1.25,1.25c-0.69036,0 -1.25,-0.55964 -1.25,-1.25z" stroke-width="0.5"/><path d="M209.47697,109.35164c0.00519,-0.20802 0.01845,-0.44983 0.0361,-0.71635c-1.57186,-0.60958 -3.25839,-1.19587 -4.02118,-2.64582l-1.19589,0.14791c0,0 -1.25,0 -1.25,-1.25c0,-1.25 1.25,-1.25 1.25,-1.25l2.37554,0.14791c0.84889,1.10284 1.88141,1.67208 3.01492,2.17512c0.07092,-1.83573 -0.04189,-3.63472 -0.94947,-3.88356l-0.69098,-1.83232c0,0 0,-1.25 1.25,-1.25c1.06209,0 1.22175,0.90244 1.24575,1.17375c0.49332,0.20587 0.98925,0.40917 1.24613,0.84766c0.1769,0.30197 0.29837,0.69175 0.37826,1.14062c0.77257,-0.42889 1.81531,-0.63967 3.20129,-0.66203h1.42857c0,0 1.25,0 1.25,1.25c0,1.25 -1.25,1.25 -1.25,1.25h-1.42857c-2.568,-0.0573 -2.72399,0.51525 -2.67857,3.03571c0,0 0,0.24454 -0.10816,0.5173c0.1499,0.27238 0.21106,0.64343 -0.02381,1.11315c-0.05825,0.1165 -0.12257,0.21479 -0.19106,0.2974c-1.72511,0.25966 -3.13779,0.47069 -3.66939,0.65382c-0.54688,0.18839 -0.25649,1.4667 -0.8322,1.5227c-0.47647,0.04636 0.31091,-1.15853 -0.08069,-1.43389c-0.17473,-0.12286 -0.35413,-0.2391 -0.53758,-0.34913c0.74366,0.00002 1.48732,0.00003 2.23098,0.00005zM209.93044,99.88487l-0.07543,-0.04407c0.02477,0.01506 0.04993,0.02974 0.07543,0.04407z" stroke-width="0.5"/><path d="M234.08544,39.14116c-9.82918,4.40261 -20.13833,0.75287 -23.38703,3.93265c-2.2463,0.90174 -5.25107,2.64092 -7.81849,2.04371c-0.6118,0.59855 -1.50928,1.07585 -2.74645,1.37094c-0.52962,0.00208 -1.03988,-0.01956 -1.53077,-0.06316c-1.76327,1.71557 -4.95711,-0.10577 -6.82267,-2.86268c-0.63012,-0.6146 -1.13973,-1.29942 -1.5285,-2.02775c-1.12414,-0.12006 -2.05668,-0.83991 -2.76274,-2.84514c-0.28373,0.24173 -0.54976,0.54402 -0.79353,0.91384c-0.06647,0.10084 -0.13115,0.20234 -0.19387,0.30426c0.35102,0.19891 0.69422,0.44789 1.02552,0.75124c6.51639,3.16462 2.03236,6.79053 -1.51261,6.42551c1.19693,1.81648 -0.09328,3.41259 -2.0101,4.01082c1.45585,2.0858 2.21261,4.28452 1.84271,5.94849c-0.9746,4.38419 -7.72979,2.26052 -9.0606,0.25664c-3.0676,-6.60985 -14.44028,5.80141 -19.78979,11.37676l0.68338,0.68338c0.22621,0.22621 0.36612,0.53871 0.36612,0.88388c0,0.69036 -0.55964,1.25 -1.25,1.25h-1.42857c0,0 -0.52826,0 -0.89795,-0.34341c-2.22621,3.44348 -14.2042,4.75232 -17.80558,1.79898c-1.30408,-1.06943 -2.36972,-3.07839 -3.17968,-5.36155c0.14574,-1.99776 0.17075,-3.97816 -0.37637,-5.85033c-0.19611,-0.67106 -0.87932,-1.09487 -1.3283,-1.64035c-0.10627,-0.93129 -0.15878,-1.77604 -0.15604,-2.4765c0.21336,-0.82064 0.42671,-1.64128 0.64007,-2.46191l2.28247,-1.07551c0,0 0.37505,-0.15002 0.78402,-0.0663c0.19643,-0.31962 0.39258,-0.56792 0.58205,-0.72842c1.34667,-1.14079 5.59741,-1.0804 7.31245,-1.0804c0,0 0.02343,0 0.06387,0.00321c0.57945,-1.38606 1.45216,-2.56916 2.66645,-3.40793c-0.05175,-0.19568 -0.05175,-0.34527 -0.05175,-0.34527v-1.42857c0.12204,-0.77082 -0.21907,-1.79611 0.36612,-2.31245c0.48826,-0.43082 3.17799,-0.36612 4.09817,-0.36612c3.46452,0 7.36986,0.36382 9.03668,4.05053c0.73921,1.635 0.3099,4.09101 -0.1518,6.16942c0.17934,-0.13074 0.42406,-0.21994 0.75798,-0.21994c0.96824,0 1.18649,0.74999 1.23568,1.08809c0.18174,-0.00802 0.36322,-0.01322 0.53995,-0.01648c0.11345,-0.00209 0.22493,-0.00338 0.33327,-0.0041c1.515,-0.07447 3.84721,-0.89883 4.92099,-1.82604c0.76722,-0.6625 1.28749,-1.72926 2.25074,-2.04498c0.36155,-0.1185 0.8221,0.35146 1.13364,0.13305c0.29351,-0.20577 0.30605,-0.66228 0.42399,-1.01925c-0.6427,-0.63178 -0.91765,-1.52102 -1.59687,-2.38172h-1.0271c-0.69036,0 -1.25,-0.55964 -1.25,-1.25c0,-0.499 0.2924,-0.92971 0.7152,-1.13014l1.40435,-0.70218l0.19124,0.38249c2.66574,-1.44042 5.57571,-1.17019 8.20674,0.01817c0.38349,-3.23991 3.37285,-6.22611 6.47902,-6.32017c0.22798,-0.4386 0.48932,-0.85824 0.78277,-1.25005c0.63218,-0.84408 1.33132,-1.45532 2.07267,-1.86934c-0.48159,-2.11837 -0.59525,-2.98038 1.75005,-4.61086c1.29214,0.19119 -3.08352,-8.14208 1.00321,-11.20287c4.8736,-3.65013 8.41571,-0.62989 12.5784,0.48859c1.64366,0.44164 3.93994,-1.44877 5.77915,-1.44877c2.06455,-1.03228 4.42044,-0.85841 6.71576,-0.74772c0.69721,0.03362 1.56563,-0.27885 2.08574,0.18669c0.43125,0.38601 0.64427,0.9317 0.82335,1.50223c3.24195,-3.0441 9.61578,-4.18582 11.54622,2.24863c0.0531,0.17699 0.24578,-0.30293 0.42152,-0.36003c1.24747,-0.40533 3.122,-0.63168 4.78347,-0.47387c1.64778,1.19746 3.46033,1.49649 5.36638,1.56303c-0.04887,0.53182 -0.10836,1.07069 -0.17721,1.6155c0.3198,0.77155 0.22453,1.59695 -0.36699,2.47798c-0.15066,0.89804 -0.3205,1.80707 -0.50428,2.72254c0.21206,0.44894 0.37035,0.91183 0.46353,1.31661c0.44084,1.91507 -0.50498,3.10464 -1.69365,4.22513c-0.04567,0.19277 -0.09149,0.38543 -0.13742,0.57792c0.26952,0.63341 -0.08822,1.1089 -0.31967,1.33228c-0.56715,2.35377 -1.13327,4.6687 -1.60986,6.86745c-0.10029,-0.006 -0.20137,-0.00904 -0.30317,-0.00904c-0.86392,0 -1.67665,0.2191 -2.38568,0.60477c0.41358,-1.97015 0.9176,-3.9309 1.44001,-5.89409zM200.36742,28.99454c0,0 1.25,0 1.25,1.25c0,1.25 -1.25,1.25 -1.25,1.25c-4.46077,0 -7.1763,1.83819 -8.2102,4.1051c0.38611,-0.30101 0.83994,-0.57647 1.36787,-0.82035c4.39082,-2.02838 10.57833,3.67495 10.4133,7.91072c1.80954,0.03089 3.64304,-1.0112 5.38377,-1.70331c4.51846,-4.63607 15.69066,0.4408 24.25522,-4.19114c-0.36918,-0.10178 -0.88854,-0.38815 -0.88854,-1.19388c0,-1.25 1.25,-1.25 1.25,-1.25l1.30736,0.09515c0.041,-0.04649 0.08083,-0.09243 0.11951,-0.13781c0.26552,-1.03998 0.5198,-2.08331 0.75231,-3.13173c-0.27008,-0.38886 -0.68773,-0.75121 -1.18121,-1.14298l-0.12842,0.25683l-1.40435,-0.70218c-0.42281,-0.20043 -0.7152,-0.63114 -0.7152,-1.13014c0,-0.69036 0.55964,-1.25 1.25,-1.25h1.56162c0.33183,-0.17587 0.66367,-0.35173 0.9955,-0.5276c0.32765,-0.19202 0.2432,-0.92768 -0.07372,-1.13692c-2.38113,-1.57205 -7.42414,0.37937 -9.08157,-1.2016c-0.98631,-0.9408 0.9295,-3.87735 -0.42022,-4.0675c-3.56886,-0.50279 -6.71663,2.8096 -9.50216,1.78395l-0.08567,0.06177l0.15674,0.23511l-1.05721,0.70481c-0.20119,0.1384 -0.44493,0.21942 -0.7076,0.21942c-0.69036,0 -1.25,-0.55964 -1.25,-1.25c0,-0.44077 0.22813,-0.82825 0.57276,-1.05082l0.11414,-0.07609c-1.88594,-0.31532 -5.15368,0.16689 -6.6497,0.9149c-2.44239,0 -4.62018,2.12655 -7.07799,1.40838c-3.56,-1.04024 -5.89504,-3.82961 -10.27875,-0.93998c-3.5744,2.35615 0.63803,6.82401 0.86986,9.50576c1.83972,-1.67579 4.61829,-2.79785 8.34255,-2.79785zM148.28525,49.00002c0.52575,1.09885 -0.5731,1.64827 -0.5731,1.64827c-3.09265,1.34537 -3.33807,7.11131 -2.08211,11.65289c0.27551,0.30146 0.3159,0.63405 0.27696,0.90874c1.46441,4.37942 4.35854,7.1274 7.30785,2.47864c0.55188,-1.10627 0.82496,-2.36526 1.53904,-3.37447c0.2065,-0.29185 0.77711,-0.19826 0.94,-0.51651c0.6399,-1.25022 0.3498,-4.03965 0.59982,-5.41165c0.33157,-1.81952 1.58995,-5.20642 0.75131,-7.15619c-1.07723,-2.50449 -4.50206,-2.37804 -6.67761,-2.37804c-0.92597,0 -2.64358,-0.83205 -1.96429,0.17857v1.42857c0,0 0,0.25899 -0.11789,0.54119zM137.67987,55.057c-1.18658,0.77735 -1.20029,7.36568 -2.38066,10.10302c0.11789,0.40103 0.24415,0.79766 0.37863,1.18592c1.32617,-0.3261 3.50351,-1.21485 4.41931,-1.82538c0.99136,-0.49664 2.01106,-0.94193 3.0541,-1.3181l0.11736,-0.2018c-0.82904,-2.66833 -1.13421,-5.65933 -0.68531,-8.29929c-1.53429,-0.02602 -4.2257,-0.08834 -4.90342,0.35565zM138.35667,71.1104c2.05326,1.9138 11.29303,0.90062 13.74193,-1.0207c-3.16386,1.583 -6.1098,-0.89193 -7.9114,-4.71339c-0.95475,0.41431 -1.90409,0.84201 -2.83522,1.30651c-1.98869,1.32579 -3.53976,1.90487 -4.73168,1.93827c0.50845,1.01919 1.08887,1.88579 1.73637,2.48931zM177.33171,51.67311l-1.96429,1.25c0,0 -0.76468,0 -1.09787,-0.59809c-0.03268,0.03182 -0.06539,0.06284 -0.09803,0.09304c-0.42056,0.38909 -1.2209,-0.32299 -1.71837,-0.03878c-0.27588,0.15761 -0.31721,0.53362 -0.40097,0.87226c2.78233,-0.88795 5.24683,-0.33536 6.89637,2.79416c0.68255,1.01941 4.69769,1.07537 4.51083,0.25664c-0.25131,-1.10111 -1.54758,-3.16451 -3.05828,-5.16489c-0.0546,0.39979 -0.18116,0.74309 -0.51529,0.92346c-0.82316,0.44436 -1.8268,-0.26348 -2.61505,-0.99643c0.02032,0.20287 0.04063,0.40575 0.06095,0.60862zM175.49189,45.98949c-1.23012,-0.57506 -2.84498,0.79709 -4.30512,1.12989c0.37225,0.51398 0.72516,1.0462 1.13597,1.52699c0.56281,0.65867 2.34867,0.30858 2.9197,0.77941c0.22648,-0.24108 0.48034,-0.50406 0.7573,-0.77754c0.0615,-0.11818 0.14911,-0.23859 0.26952,-0.35901c0.14353,-0.14353 0.28706,-0.24045 0.42681,-0.3021c0.18969,-0.17274 0.38674,-0.34605 0.59016,-0.51733c-0.72731,-0.73905 -1.36271,-1.27853 -1.79433,-1.4803zM162.15314,60.06597v-0.11188c-0.08851,0.01776 -0.17726,0.03364 -0.26624,0.04747l-0.02095,0.03097c-0.01376,-0.00711 -0.02781,-0.01429 -0.04213,-0.02152c-0.2457,0.03544 -0.49312,0.05496 -0.74211,0.05496h-1.07143c0,0 -0.91408,0 -1.17891,-0.78166c-0.09463,-0.04257 -0.19096,-0.10137 -0.28782,-0.17992c-0.06365,1.36916 -0.13249,2.83232 -0.64547,3.87283c-0.2225,0.45131 -0.90846,0.50399 -1.20285,0.91206c-0.63597,0.88153 -0.81449,2.01708 -1.28917,2.99542l0.00814,-0.00084c1.83039,-1.86079 4.21147,-4.40643 6.78496,-6.81788zM193.48079,41.80685c0.93558,0.88479 2.23257,1.57865 3.8843,1.93353c-0.00342,-0.01485 -0.00703,-0.0299 -0.01083,-0.04517c-0.36637,-0.8896 -1.23897,-2.06167 -2.35887,-3.11901c-0.67796,0.15021 -1.32639,0.34219 -1.94224,0.51617c0.12444,0.24185 0.26877,0.4812 0.42763,0.71448zM183.17853,45.11778c-0.33881,-0.82348 -0.41832,-1.93105 -0.09909,-3.37471c0.00937,-0.04238 0.01902,-0.08473 0.02895,-0.12705c-0.44123,0.05669 -0.84461,0.23487 -1.14279,0.58384c-0.61093,0.71499 -1.07874,1.93318 -1.26065,3.17287c0.82002,-0.28953 1.65704,-0.40777 2.47358,-0.25495zM185.48439,42.21453c-0.41081,1.70973 0.22026,3.01475 2.86464,2.6422c1.03978,-0.14649 -1.34899,-1.69156 -2.28392,-2.16957c-0.14253,-0.16198 -0.34278,-0.32441 -0.58072,-0.47264zM199.80916,43.22244c-0.02611,0.27511 -0.06115,0.53364 -0.1045,0.77616c0.06048,0.00106 0.1213,0.00173 0.18245,0.00202c0.4199,-0.05255 0.74574,-0.16647 0.98847,-0.32881c-0.79358,-1.30745 -0.91416,-3.01188 -2.53025,-3.27125c-0.08771,-0.01408 -0.1751,-0.02638 -0.26215,-0.03699c0.76617,0.9515 1.36527,1.9387 1.72598,2.85887zM194.46372,37.09697c0.42773,0.27445 0.84354,0.57529 1.24296,0.89608c0.67028,-0.17043 1.38845,-0.26816 2.15469,-0.20668c-1.14275,-0.69421 -2.37489,-1.04181 -3.39765,-0.6894zM190.42468,33.75347c-0.31742,0.08461 -0.68971,0.14783 -1.12359,0.18743c-0.82372,0.44511 -0.59072,0.97817 -0.27751,1.54237c0.21407,-0.01948 0.42952,-0.02722 0.64582,-0.02391c0.18178,-0.58726 0.43349,-1.15977 0.75528,-1.70589zM183.76926,49.36066c0.52968,-0.15891 -0.70972,-1.14466 -1.25897,-1.0804c-0.281,0.03287 -0.56138,0.08095 -0.83986,0.14306c0.37949,0.35283 0.7406,0.72022 1.08041,1.09771c0.30212,0.00342 0.64071,-0.04705 1.01842,-0.16037zM165.50283,57.17067c-0.44934,0.1607 -0.90662,0.2992 -1.35889,0.41204c0.20934,0.03455 0.40113,0.12112 0.56167,0.24598c0.26508,-0.22353 0.53094,-0.44314 0.79722,-0.65802zM169.36944,54.46928c0.35692,-0.20405 0.71142,-0.39202 1.06262,-0.56185c-0.14273,-0.00434 -0.28302,0.00202 -0.41669,0.03347c-0.25443,0.05986 -0.46436,0.27503 -0.64593,0.52838zM192.64425,38.811c-0.02495,0.096 -0.04293,0.19369 -0.05439,0.29277c0.11416,-0.03558 0.23079,-0.07534 0.34989,-0.11828c-0.09796,-0.06008 -0.1965,-0.1183 -0.2955,-0.17449z" stroke-width="0.5"/><path d="M289.77139,75.60168c0,-0.69035 0.55964,-1.25 1.25,-1.25c0.1059,0 0.20871,0.01317 0.30692,0.03796c-0.16042,-0.68873 -0.31991,-1.37764 -0.45205,-2.0722c-0.08623,-0.45323 0.43468,-0.98645 0.18148,-1.37212c-0.2364,-0.36008 -0.86228,-0.11599 -1.2627,-0.27478c-1.91981,-0.76133 -2.11895,-2.49149 -4.13079,-2.3903h-0.71429c0,0 -0.09642,0 -0.2357,-0.02678c-4.65212,4.42936 -4.22858,18.14262 -4.22858,23.41964c-0.02044,15.67852 13.87829,19.99617 13.93171,-2.76853c-0.30064,-2.10385 -0.62695,-3.5758 -1.05202,-5.56651c-0.21269,-0.9961 0.38432,-2.09622 0.04159,-3.05539c-0.46195,-1.29282 -1.10373,-2.44125 -1.5407,-3.75975c-0.22248,0.20414 -0.51913,0.32875 -0.84488,0.32875c-0.69036,0 -1.25,-0.55965 -1.25,-1.25zM288.53843,66.79199c0.31774,0.29384 0.66683,0.65468 1.16735,1.08687c1.25725,1.08564 2.09226,-0.12579 3.42212,1.66488c0.66611,0.89694 0.64308,4.27648 0.89576,5.4136c0.37464,1.68587 1.27125,2.9971 1.755,4.53476c0.33745,1.07265 -0.21285,2.27787 0.0416,3.37319c0.47807,2.05792 0.78169,3.6974 1.09083,5.86206c0.05473,26.40234 -18.90244,21.86085 -18.92542,2.94575c0,-7.87478 -0.40708,-27.32143 10.17857,-27.32143c0,0 1.25,0 1.25,1.25c0,0.79651 -0.50754,1.08548 -0.87581,1.19031z" stroke-width="0.5"/><path d="M283.69996,75.60168c0,-0.69035 0.55964,-1.25 1.25,-1.25c0.69036,0 1.25,0.55965 1.25,1.25c0,0.69035 -0.55964,1.25 -1.25,1.25c-0.69036,0 -1.25,-0.55965 -1.25,-1.25z" stroke-width="0.5"/><path d="" stroke-width="0.5"/><path d="M309.41726,65.49729c0.06758,-1.14562 1.24698,-1.14562 1.24698,-1.14562l0.47236,0.03461c-0.0901,-0.06306 -0.18135,-0.11239 -0.27014,-0.14431c-0.51289,-0.18439 -1.02922,-0.37047 -1.51003,-0.62714c-0.13574,-0.07246 -0.318,-0.49713 -0.3083,-0.34356c0.04282,0.67808 -0.12579,1.42337 0.17943,2.03038c0.04426,0.08803 0.10925,0.15117 0.18971,0.19564zM307.51991,68.96109c-0.08596,-0.04368 -0.16912,-0.09136 -0.24983,-0.14251l-0.02199,0.04398l-1.40435,-0.70218c-0.42281,-0.20043 -0.7152,-0.63114 -0.7152,-1.13014c0,-0.69036 0.55964,-1.25 1.25,-1.25h0.47147c-0.01945,-0.4099 0.05021,-0.84999 0.06424,-1.25c0.03565,-1.01564 -0.29869,-2.25808 0.36612,-3.02674c0.432,-0.49948 1.33091,-0.57404 2.33324,-0.4089c-1.06752,-0.67116 -1.9602,-1.62803 -2.54613,-2.83963c-1.59043,0.86396 -3.24644,1.62802 -5.0446,2.49183l-0.28719,-0.0922v0.12564h-0.55579c0.0082,0.1481 0.01424,0.29951 0.01815,0.45195c0.00128,0.02728 0.00193,0.05519 0.00193,0.08376c0.02352,1.1501 -0.07395,2.33474 -0.28332,2.5782c-0.96323,1.12007 -4.59595,0.93711 -5.96668,0.81466c-0.77732,-0.06944 -1.79882,0.22145 -2.31245,-0.36612c-1.69616,-1.9403 0.23141,-2.97407 0.75067,-4.43184c0.49749,-1.39667 -1.33128,-1.75532 0.32076,-3.40736c0.37003,-0.37003 3.96406,-0.48479 4.4604,-0.31248c1.18681,0.41201 1.86008,1.06628 2.06741,1.97906l0.43715,-0.10929c0.40297,-0.73075 0.00521,-1.95988 0.26408,-2.58033c0.19448,-0.46613 0.86711,-0.60953 1.07143,-1.07143c0.42339,-0.95714 0.64083,-3.01753 0.61914,-4.1645v-1.78571c0,0 0,-1.25 1.25,-1.25c1.25,0 1.25,1.25 1.25,1.25v0.63199c0.14648,-0.06008 0.323,-0.09628 0.53571,-0.09628c1.25,0 1.25,1.25 1.25,1.25l-0.05363,1.06634c0.45232,0.6189 1.08755,1.08595 1.69144,1.55812c0.03198,0.56191 0.10925,1.15292 0.22228,1.75214c0.0643,-0.0324 0.12803,-0.06588 0.19107,-0.1006c1.43462,-0.79016 1.66954,-1.79166 3.32962,-2.55916c1.13581,-0.52512 2.21593,-1.24117 3.43916,-1.50483c0.4847,-0.10448 1.02849,0.31244 1.48308,0.11447c0.39353,-0.17138 0.31918,-0.90371 0.71429,-1.07143c0.52739,-0.22387 1.21608,0.31438 1.71837,0.03878c0.39186,-0.21501 0.16843,-0.93619 0.48757,-1.24914c0.47445,-0.46525 1.16896,-0.63229 1.75344,-0.94844c0,0 1.11803,-0.55902 1.67705,0.55902c0.55902,1.11803 -0.55902,1.67705 -0.55902,1.67705c-0.16462,0.07161 -0.3095,0.17094 -0.44158,0.28844c0.06113,0.21207 0.06113,0.37924 0.06113,0.37924c0,8.02405 -4.27341,11.67026 -8.4455,11.96676c-0.06284,0.1793 -0.12401,0.35858 -0.17956,0.53833c-0.0436,0.14107 -0.08186,0.28771 -0.11527,0.4393c0.76667,1.3089 0.70385,2.57029 0.15346,3.61106c0.01006,0.07161 0.01544,0.14825 0.01544,0.23027c0,0.36265 -0.10521,0.62009 -0.25459,0.80284c0.10825,1.38549 0.25459,2.74593 0.25459,3.84002c0,0 0,1.25 -1.25,1.25c-1.25,0 -1.25,-1.25 -1.25,-1.25c0,-0.81876 -0.05517,-1.71798 -0.11781,-2.64998c-1.26098,0.50042 -2.71058,0.55221 -3.91938,-0.06203zM295.86712,59.00089c0.02661,0.21681 0.04625,0.43735 0.04916,0.65678c0.11018,-0.09572 0.23729,-0.17247 0.37623,-0.22516c-0.13743,-0.1478 -0.27718,-0.29242 -0.42277,-0.429zM294.57718,62.48792c0.33564,-0.12579 0.88158,-0.143 1.4775,-0.12357c-0.34253,-0.22295 -0.56901,-0.60922 -0.56901,-1.04839c0,-0.01948 0.00045,-0.03885 0.00133,-0.0581c-0.22492,0.38394 -0.50705,0.74188 -0.76097,1.10606c-0.02574,0.03692 -0.08604,0.08297 -0.14885,0.12401zM295.53344,58.47058c-0.02302,-0.06277 -0.04235,-0.12987 -0.05554,-0.20049c-0.0004,0.00039 -0.0008,0.00079 -0.0012,0.00119c-0.06281,0.06281 -0.01922,0.12869 0.05674,0.1993zM304.31909,55.36574c-0.19448,0.46613 -0.86711,0.60953 -1.07143,1.07143c-0.11676,0.26396 -0.18388,0.55541 -0.22929,0.85777c0.27087,-0.16264 0.55178,-0.30176 0.85506,-0.38964c0.38569,-0.11175 0.84073,0.27167 1.20098,0.09427c0.32074,-0.15794 0.22466,-0.7335 0.51651,-0.94c0.24082,-0.17039 0.49718,-0.31314 0.76268,-0.43983c-0.04532,-0.49894 -0.04878,-1.023 -0.00575,-1.57111c-0.57742,-0.28439 -1.02469,-0.78015 -1.41188,-1.31705c-0.13255,0.98355 -0.33563,1.96002 -0.61689,2.63415zM319.11121,51.70377c-0.39397,0.17037 -0.31899,0.90416 -0.71429,1.07143c-1.86634,0.78972 -4.4239,0.45184 -6.19114,1.97786c-0.95086,0.82107 -1.89444,1.51974 -2.84879,2.14309c0.19809,0.6166 0.42239,1.21299 0.66184,1.76488c0.19691,0.45385 0.21279,1.88703 0.40027,1.4292c0.3072,-0.75019 0.98605,-1.08315 1.85229,-1.22309v-0.76547c0,0 0,-1.25 1.25,-1.25c1.25,0 1.25,1.25 1.25,1.25v0.68926c2.28556,0.05695 4.71694,0.12607 5.4025,-2.09436c0.38363,-1.24252 0.1643,-3.28429 0.03217,-4.95921c-0.37467,-0.06071 -0.76612,-0.17575 -1.09484,-0.0336z" stroke-width="0.5"/><path d="M312.83046,49.23c0.09457,0.16739 0.15521,0.38207 0.15521,0.65739c0,1.25 -1.25,1.25 -1.25,1.25h-2.14286c-0.69036,0 -1.25,-0.55964 -1.25,-1.25c0,-0.44077 0.22813,-0.82825 0.57276,-1.05082l0.00691,-0.0046c-0.16497,-0.10711 -0.32075,-0.27452 -0.4477,-0.52842c-0.194,-0.388 -0.18602,-0.70867 -0.0929,-0.96202c-0.02551,-0.09952 -0.03907,-0.20382 -0.03907,-0.31129c0,-0.69036 0.55964,-1.25 1.25,-1.25h1.42857v0.37013c0.2005,-0.08263 0.40602,-0.15278 0.61423,-0.20906c0.38625,-0.10441 0.78174,-0.16107 1.17148,-0.16107h1.42857c0.69036,0 1.25,0.55964 1.25,1.25c0,0.59488 -0.41555,1.0927 -0.9722,1.21902l-0.80873,0.20218c-0.28677,0.26924 -0.56929,0.52858 -0.87428,0.77855z" stroke-width="0.5"/><path d="" stroke-width="0.5"/><path d="" stroke-width="0.5"/><path d="" stroke-width="0.5"/><path d="M343.12901,39.28052c-0.88783,-0.04627 -1.77432,-0.07582 -2.64853,0.05908c-0.51299,0.07916 -1.00104,0.2701 -1.49454,0.43787c0.08108,0.0497 0.13361,0.08376 0.14785,0.09165c2.5359,1.40489 4.11162,1.40089 6.88107,2.39481c0.69949,0.25104 1.67333,1.70235 1.97978,1.0253c0.91761,-2.02727 -2.45193,-1.43755 -3.04469,-1.43755l-1.59817,-1.0804c0,0 -0.70825,-0.70825 -0.22278,-1.49076zM344.94996,39.35168c0.48678,0 3.53465,-0.05307 3.87145,0.18669c1.30228,0.92702 2.04751,4.28899 0.94101,5.51863c-0.66201,0.73567 -1.96528,0.43146 -2.95017,0.33422c-2.86318,-0.28269 -6.45001,-1.97571 -8.90326,-3.34268c-0.90397,-0.5037 -3.76923,-1.05655 -3.84946,-2.44061c-0.05362,-0.92504 1.13817,-1.53117 1.94602,-1.98501c0.49831,-0.27995 1.15109,0.03264 1.71323,-0.07074c2.59168,-0.47659 4.55623,-0.7005 7.23119,-0.7005c0,0 1.25,0 1.25,1.25c0,1.24993 -1.24985,1.25 -1.25,1.25z" stroke-width="0.5"/><path d="M380.3071,31.85168c-4.42475,0 -8.02301,0.31326 -11.6934,-1.1698l-0.13045,0.39136l-2.11551,-0.70517c-0.51078,-0.15709 -0.88206,-0.63267 -0.88206,-1.19497c0,-0.69036 0.55964,-1.25 1.25,-1.25h1.47763c2.58785,-1.86681 6.44234,-1.42857 9.59379,-1.42857c0,0 1.25,0 1.25,1.25c0,0.5045 -0.20362,0.80538 -0.44649,0.98483c0.53374,0.31423 0.95056,0.41774 1.25995,0.62521c0.14643,-0.00188 0.29198,-0.00289 0.43653,-0.00289h1.42857v0c0.69036,0 1.25,0.55964 1.25,1.25c0,0.69036 -0.55964,1.25 -1.25,1.25h-1.42857v0zM375.16405,29.51419c-0.02283,-0.10185 -0.03552,-0.21512 -0.03552,-0.34108c0,-0.07967 0.00508,-0.15427 0.01459,-0.22411c-1.34309,-0.01345 -2.69553,0.03349 -3.93287,0.3497c0.08473,0.01349 0.16879,0.02647 0.25202,0.03852c1.18001,0.17084 2.43384,0.20018 3.70178,0.17698z" stroke-width="0.5"/><path d="M404.77139,16.31596c0,1.25 -1.25,1.25 -1.25,1.25h-0.71429c-1.94008,0 -3.77181,0.16503 -5.54254,0c-0.65249,0 -1.30497,0 -1.95746,0h-2.14286c-0.69036,0 -1.25,-0.55964 -1.25,-1.25c0,-0.69036 0.55964,-1.25 1.25,-1.25c0.11905,0 2.02381,0 2.14286,0c0.65249,0 1.30497,0 1.95746,0c1.77073,-0.16503 3.60246,0 5.54254,0h0.71429c0,0 1.25,0 1.25,1.25z" stroke-width="0.5"/><path d="M480.14373,23.48687c-0.16339,0.61943 -0.63649,1.51627 -2.00642,1.51627c-2.0926,0 -2.0926,-2.0926 -2.0926,-2.0926l1.43087,-2.98966c3.99962,-1.31693 8.23639,-1.66441 12.26927,-0.36627c24.02189,5.91167 -0.54259,62.20656 -22.25329,50.21862c-9.76984,-9.79958 -9.34177,-49.75838 6.25364,-52.60453c0,0 2.05885,-0.37434 2.43318,1.68451c0.37434,2.05885 -1.68451,2.43318 -1.68451,2.43318c-11.04588,2.00039 -11.97645,37.64739 -4.46049,45.16189c15.17926,9.23278 36.71619,-39.41714 18.59432,-42.86036c-2.73979,-0.95247 -5.69337,-0.83523 -8.48395,-0.10106z" stroke-width="0.5"/><path d="M475.04025,35.63356c0,-1.15572 0.93688,-2.0926 2.0926,-2.0926c1.15572,0 2.0926,0.93688 2.0926,2.0926c0,1.15572 -0.93688,2.0926 -2.0926,2.0926c-1.15572,0 -2.0926,-0.93688 -2.0926,-2.0926z" stroke-width="0.5"/><path d="M481.06695,35.63356c0,-1.15572 0.93688,-2.0926 2.0926,-2.0926c1.15572,0 2.0926,0.93688 2.0926,2.0926c0,1.15572 -0.93688,2.0926 -2.0926,2.0926c-1.15572,0 -2.0926,-0.93688 -2.0926,-2.0926z" stroke-width="0.5"/><path d="M513.04192,40.321c0,0.57481 -0.1579,0.99173 -0.38693,1.29413c0.48836,11.41301 1.29298,22.97427 -0.30293,34.15185c-0.19888,1.39294 -1.6895,3.07658 -0.12671,3.73364c1.17226,-0.06059 4.24604,-0.28613 4.98753,0.11675c4.72347,2.56645 3.63395,14.12649 -0.96973,15.94227c-2.85501,1.12607 -11.28375,0.75468 -12.8307,-2.35466c-0.85775,-1.72405 -0.86158,-12.60174 0.14739,-14.26437c0.58181,-0.95875 2.02984,-0.95419 3.04477,-1.43129l2.60959,-0.10493c-0.50874,-3.89556 -0.80065,-9.24566 -0.96131,-14.96904c-1.11849,0.21323 -2.40368,-0.10734 -3.80551,-1.21528c-0.58101,-0.4592 -0.7458,-5.47037 -0.5859,-6.50232c0.03186,-0.20563 1.29772,-3.97857 1.41964,-4.34434c0,0 0.66173,-1.98521 2.64696,-1.32348c0.05113,0.01704 0.10048,0.03495 0.14816,0.0537c-0.00318,-1.84576 0.00062,-3.6431 0.00844,-5.35452c-0.54681,-0.02349 -1.23048,-0.23785 -1.6433,-1.05086l-1.13027,-0.37675c-0.85509,-0.26298 -1.47664,-1.05914 -1.47664,-2.00048c0,-1.15572 0.93688,-2.0926 2.0926,-2.0926c0.40093,0 1.27445,0 2.19611,0c0.03037,-3.38439 0.0639,-6.07801 0.0639,-7.61708c0,0 0,-2.0926 2.0926,-2.0926c2.0926,0 2.0926,2.0926 2.0926,2.0926c0,2.74534 0.07098,5.50972 0.1736,8.28542c0.28649,0.3094 0.49603,0.76206 0.49603,1.42426zM509.97676,81.46462c-0.38601,0.12251 -0.70152,0.12251 -0.70152,0.12251l-1.34717,-0.10739c-1.37377,-0.12991 -0.8698,10.01426 -0.05533,10.07426c0.77676,0.05722 7.76888,0.39108 7.92792,-0.32387c0.15283,-0.68704 -0.18954,-7.80675 -0.40076,-7.84065c-1.44448,-0.23181 -2.92506,0.16125 -4.38733,0.11675c-0.3946,-0.28612 -0.73772,-0.99377 -1.03579,-2.04163zM508.06734,55.82516c-0.21823,0.83003 -0.4321,1.64549 -0.66056,2.43549c-0.08293,0.28677 0.42625,-0.01997 0.74555,-0.36813c-0.01153,-0.68883 -0.02158,-1.37892 -0.03023,-2.06851c-0.01808,0.00062 -0.03634,0.001 -0.05476,0.00116z" stroke-width="0.5"/><path d="M27.76569,179.02529c0,-1.04568 0.84768,-1.89336 1.89336,-1.89336c1.04568,0 1.89336,0.84768 1.89336,1.89336c0,1.04568 -0.84768,1.89336 -1.89336,1.89336c-1.04568,0 -1.89336,-0.84768 -1.89336,-1.89336z" stroke-width="0.5"/><path d="M36.42107,178.48432c0,-1.04568 0.84768,-1.89336 1.89336,-1.89336c1.04568,0 1.89336,0.84768 1.89336,1.89336c0,1.04568 -0.84768,1.89336 -1.89336,1.89336c-1.04568,0 -1.89336,-0.84768 -1.89336,-1.89336z" stroke-width="0.5"/><path d="M62.22268,161.39339c-1.06053,-0.25669 -2.33475,0.33784 -3.2652,-0.23211c-1.94547,-1.19171 -4.53532,-6.58353 -4.67547,-8.45652c-4.60775,-23.03877 14.53178,-19.3907 31.09605,-19.3907c0,0 1.89336,0 1.89336,1.89336c0,1.38422 -1.012,1.75645 -1.55627,1.85656c-0.21657,0.22311 -0.47749,0.36007 -0.71621,0.44415c-0.56793,5.2926 -3.20103,10.67841 -4.84126,15.55873c-0.44308,1.31831 -2.23891,1.79901 -2.8476,3.04954c-0.23918,0.49138 0.30501,1.09426 0.18987,1.62849c-0.54456,2.52643 -2.62092,4.40799 -3.29285,6.68215c-0.25386,0.85921 0.30877,1.97179 -0.24429,2.67664c-0.59942,0.76396 -2.06618,0.35042 -2.7048,1.08191c-0.95641,1.09547 0.6395,2.95634 0.2443,4.35584c-0.20685,0.73246 -0.56574,1.49491 -1.02057,2.22466c0.58529,-0.0443 1.24694,0.04471 1.91325,0.20197h2.16386c1.04567,0 1.89336,0.84768 1.89336,1.89336c0,0.68873 -0.36774,1.29158 -0.91758,1.62289c0.54985,0.33131 0.91758,0.93416 0.91758,1.62289c0,1.04568 -0.8477,1.89336 -1.89336,1.89336h-2.16384v0c-0.08423,0 -0.18382,0.00218 -0.29686,0.00576c-0.08328,0.52548 -0.42931,1.61711 -1.86696,1.61711c-1.43709,0 -1.78341,-1.09077 -1.86687,-1.61651c-0.80544,-0.0663 -1.60447,-0.19839 -2.27922,-0.4445c-0.98402,2.70928 -1.95133,5.45907 -2.86128,8.2476c3.9651,5.47468 6.51491,11.26836 2.24305,20.82566c-1.41634,3.16872 -4.46755,6.46334 -7.91558,7.90799c-0.02161,0.71007 -0.03267,1.42195 -0.03267,2.13561c0,0 0,1.89336 -1.89336,1.89336c-1.89336,0 -1.89336,-1.89336 -1.89336,-1.89336c0,-0.37408 0.00282,-0.74808 0.00841,-1.12192c-20.91454,8.92409 -35.70217,20.53291 -35.12024,-15.54191c4.09751,-8.19504 2.64951,-33.09004 11.65782,-39.83624c0.40486,-1.10548 0.87204,-2.21018 1.74856,-3.17676c2.57254,-2.8368 13.74909,-2.94988 16.33673,-0.02898c1.24077,1.40057 0.68094,3.7149 1.43788,5.42609c0.30948,0.69965 1.32829,0.91684 1.62287,1.62289c0.90751,2.1751 0.96824,4.63429 2.14182,6.98142c1.5757,4.36904 4.24374,7.83262 6.83872,11.13322c0.96824,-2.76077 2.00018,-5.47006 3.06627,-8.11676c-0.00103,-0.02554 -0.00153,-0.0512 -0.00153,-0.07699c0,-0.54193 0.22767,-1.03066 0.59258,-1.37579c0.12346,-0.30055 0.2473,-0.60026 0.37149,-0.89909c1.39736,-0.95342 2.95027,-2.52626 3.44486,-4.22437c0.50215,-1.72402 -0.70745,-3.85877 0.24429,-5.38146c0.51468,-0.82343 2.05507,-0.36025 2.7048,-1.08191c0.37225,-0.41345 -0.392,-1.11466 -0.2443,-1.65103c0.07693,-0.2794 0.17786,-0.55229 0.29646,-0.82063c-3.05933,-0.07174 -5.6245,-0.38178 -8.65663,-1.11568zM58.0503,152.33161c-0.11448,0.77646 0.51995,1.54118 1.07755,2.09353c0.93741,0.92857 0.63652,2.93243 1.82043,3.51495c0.64512,0.3174 1.43902,-0.37127 2.14441,-0.23213c3.25542,0.64214 5.76941,1.03128 9.30229,1.03128h0.7206c0.2895,-0.54456 0.52857,-1.10931 0.66598,-1.71045c0.20098,-0.87928 -0.21805,-1.89476 0.18987,-2.69919c0.52514,-1.03558 2.33417,-1.22152 2.56201,-2.36007c1.02336,-5.1137 4.35271,-9.76841 4.75066,-14.97169c-13.53979,-0.60192 -26.90791,-3.03677 -23.2338,15.33378zM61.47418,199.46426c0.94717,0.1234 1.73534,0.33002 2.36319,0.67193c-0.16506,-2.29374 -0.86546,-4.34129 -1.88446,-6.26856c-0.45509,1.5212 -0.88788,3.05338 -1.29202,4.59622c0.35029,0.21168 0.60177,0.56989 0.81328,1.00041zM50.11126,176.55514c-1.12219,-2.24438 -1.32213,-5.13088 -2.18588,-7.08356c-0.30948,-0.69965 -1.32829,-0.91684 -1.62289,-1.62289c-0.65168,-1.56192 0.72654,-4.4725 -1.93153,-4.83243c-1.32785,-0.17979 -6.34448,-0.62855 -8.55127,-0.02998c0.3339,0.27722 0.60136,0.72139 0.60136,1.43303c0,1.89336 -1.89336,1.89336 -1.89336,1.89336c-0.54335,-0.16045 -0.91184,-0.0437 -1.18515,0.24358c-0.2711,0.68885 -0.52652,1.3678 -0.8374,2.0199c-0.2083,0.70282 -0.45044,1.42884 -0.88572,1.96484c-7.66126,9.43403 -3.85431,23.42508 -9.314,34.34444c0.73446,32.91385 11.72068,18.54544 31.3316,10.69027c0.08797,0.00529 0.17617,0.00789 0.26457,0.00789c0.17932,-2.72905 0.496,-5.44675 0.92738,-8.14454c-0.00995,-0.08953 -0.01522,-0.18405 -0.01522,-0.28384c0,-0.4078 0.08782,-0.72776 0.22566,-0.97881c0.21748,-1.25433 0.45912,-2.50404 0.72258,-3.74829c-0.08653,-0.9387 -0.04406,-1.89308 0.54715,-2.44588c0.82193,-3.49042 1.80592,-6.93264 2.90041,-10.3071c-3.05636,-4.03945 -6.88214,-7.9521 -9.0983,-13.12006zM61.13636,210.66249c-0.86416,-0.3743 -1.86775,-0.86607 -2.75903,-1.20809c-0.22902,1.54673 -0.41695,3.10295 -0.558,4.66837c1.30397,-0.92778 2.47293,-2.18961 3.31704,-3.46027zM61.34186,205.62963c0.26319,0.21889 0.52078,0.34668 0.75421,0.32248c-0.19217,-0.19059 -0.46627,-0.26648 -0.75421,-0.32248z" stroke-width="0.5"/><path d="M143.01747,161.57872c-3.082,9.79793 -3.30607,31.10926 -6.40805,36.27923c0.11035,6.44253 -4.65973,15.7787 -1.73539,22.19161c5.96086,13.07185 17.96455,4.28347 17.64141,-6.31906c0,-9.31662 6.19753,-51.05959 -1.36522,-51.05959c-3.00544,-0.04849 -4.75037,-1.15678 -7.64529,-1.09218zM144.76538,157.84013c2.28718,0.26703 3.91875,1.06315 6.38484,1.00812c1.3778,0 5.57484,-0.09893 6.26634,0.55982c4.0255,3.8348 -1.07846,46.56297 -1.07846,54.32243c-0.30806,13.90438 -17.40178,25.17132 -24.95376,7.87934c-3.27796,-7.50562 1.42913,-17.27586 1.54117,-24.77229c4.15628,-6.92714 2.64663,-26.17204 6.50536,-36.83264c-0.0141,-0.10531 -0.02162,-0.21765 -0.02162,-0.33751c0,-0.87539 0.40092,-1.34985 0.83554,-1.60701c1.30108,-2.68162 3.08949,-4.56714 5.61579,-5.18204c0,0 1.87421,-0.37483 2.24904,1.49938c0.37485,1.8742 -1.49936,2.24904 -1.49936,2.24904c-0.68873,0.08771 -1.29936,0.51294 -1.84484,1.21335z" stroke-width="0.5"/><path d="M143.77796,173.8658c0,-1.05558 0.85572,-1.91132 1.91132,-1.91132c1.0556,0 1.91132,0.85574 1.91132,1.91132c0,1.0556 -0.85572,1.91132 -1.91132,1.91132c-1.0556,0 -1.91132,-0.85574 -1.91132,-1.91132z" stroke-width="0.5"/><path d="M150.87716,173.8658c0,-1.05558 0.85572,-1.91132 1.91132,-1.91132c1.0556,0 1.91132,0.85574 1.91132,1.91132c0,1.0556 -0.85572,1.91132 -1.91132,1.91132c-1.0556,0 -1.91132,-0.85574 -1.91132,-1.91132z" stroke-width="0.5"/><path d="M179.27395,137.27762c0,1.04696 -0.57349,1.52042 -1.09219,1.73455c0,0.43642 0,0.87667 0,1.31996l0.81915,-0.05101c0,0 1.91132,0 1.91132,1.91132c0,1.91132 -1.91132,1.91132 -1.91132,1.91132l-0.81915,-0.1013c0,0.9426 0,1.88892 0,2.83177h1.91132c0,0 1.91132,0 1.91132,1.91132c0,1.91132 -1.91132,1.91132 -1.91132,1.91132c-0.43892,0 -1.12585,0 -1.91132,0c0,1.11077 0,2.20226 0,3.26185c0.51396,0.03012 1.00921,0.0555 1.47219,0.06583l1.76874,-0.94153c0,0 1.70953,-0.85477 2.56431,0.85477c0.85476,1.70953 -0.85476,2.56431 -0.85476,2.56431l-2.60001,1.24285c-0.79838,0.01289 -1.58036,0.05615 -2.35045,0.11881c0,0.32139 0,0.64279 0,0.96419c0.99864,0.02778 2.00141,0.06032 3.00351,0.06032h1.09218c0,0 1.91132,0 1.91132,1.91132c0,1.91132 -1.91132,1.91132 -1.91132,1.91132h-1.09218c-0.95745,0 -1.97115,-0.05746 -3.00351,-0.10951c0,1.73371 0,3.46741 0,5.20112c0.5187,0.21411 1.09219,0.68759 1.09219,1.73455c0,1.04696 -0.57349,1.52042 -1.09219,1.73455c0,1.87753 0,3.75504 0,5.63259c1.83351,0.00301 3.667,0.00893 5.50043,0.01943l1.95433,-0.50334c0,0 1.85426,-0.46358 2.31782,1.39068c0.46356,1.85426 -1.39069,2.31782 -1.39069,2.31782l-2.4144,0.58884c-1.98914,0.00962 -3.97832,0.01491 -5.9675,0.01757c0,1.28019 0,2.56039 0,3.84058c1.03886,0.05783 1.89021,0.2208 2.17065,0.53861c2.0223,2.29192 0.47957,8.89804 -2.13502,10.16024c-0.01188,0.00573 -0.02376,0.01141 -0.03563,0.01702c0,2.33697 0,4.67395 0,7.01091c0,0 0,1.91132 -1.91132,1.91132c-1.91132,0 -1.91132,-1.91132 -1.91132,-1.91132c0,-2.40455 0,-4.8091 0,-7.21365c-0.69571,-0.43841 -1.28803,-1.07956 -1.73369,-1.82332c-0.10911,-0.02651 -0.22288,-0.06283 -0.34138,-0.11025c-1.77462,-0.70985 -1.06477,-2.48447 -1.06477,-2.48447l0.57569,-1.38523c0.0785,-0.45665 0.22508,-0.89477 0.44736,-1.29669c0.0645,-1.01612 -0.26457,-2.26116 0.49223,-2.87457c0.17567,-0.1424 0.80077,-0.28223 1.62456,-0.38702c0,-1.32994 0,-2.65992 0,-3.98986c-3.73163,-0.00003 -7.4633,-0.00558 -11.19489,-0.00558c0,0 -1.91132,0 -1.91132,-1.91132c0,-1.91132 1.91132,-1.91132 1.91132,-1.91132c3.73154,0 7.46322,-0.00742 11.19489,-0.00778c0,-1.54968 0,-3.09938 0,-4.64907c-3.23654,0.91077 -7.24928,1.34164 -10.10271,1.3803c0,0 -1.91132,0 -1.91132,-1.91132c0,-1.91132 1.91132,-1.91132 1.91132,-1.91132c1.55793,0.02948 3.02954,-0.7323 4.5534,-1.0577c2.24302,-0.47896 3.64968,0.14495 5.54932,-0.47126c0,-1.9101 0,-3.82018 0,-5.73027c-1.55195,0.0856 -3.04027,0.36223 -4.3331,1.05043c0,0 -1.70955,0.85476 -2.56431,-0.85477c-0.85476,-1.70953 0.85476,-2.56431 0.85476,-2.56431c1.9371,-0.92597 3.96664,-1.26056 6.04265,-1.35843c0,-0.17645 0,-0.35291 0,-0.52936c-2.09192,0.27275 -4.15124,0.55233 -6.28007,0.59382c0,0 -1.91132,0 -1.91132,-1.91132c0,-1.91132 1.91132,-1.91132 1.91132,-1.91132c1.35449,0.03968 2.60443,-0.75808 3.92962,-1.04106c0.71237,-0.15213 1.51404,-0.21236 2.35045,-0.22219c0,-1.03516 0,-2.07033 0,-3.10549c-0.55462,0 -1.03159,0 -1.36522,0c0,0 -1.91132,0 -1.91132,-1.91132c0,-1.91132 1.91132,-1.91132 1.91132,-1.91132c0.45508,0 0.91016,0 1.36522,0c0,-0.33399 0,-0.66795 0,-1.00195c-1.99294,0.73678 -4.47691,0.96681 -6.28007,1.00195c0,0 -1.91132,0 -1.91132,-1.91132c0,-1.91132 1.91132,-1.91132 1.91132,-1.91132c1.9873,0.05821 4.64141,-0.34687 6.28007,-1.4995c0,-0.30921 0,-0.61844 0,-0.92765c-0.45233,0.12719 -0.91205,0.20957 -1.36522,0.2428c0,0 -1.91132,0 -1.91132,-1.91132c0,-1.91132 1.91132,-1.91132 1.91132,-1.91132c0.43907,0.07742 0.99947,-0.0654 1.36522,-0.36584c0,-0.1511 0,-0.30219 0,-0.4533v-2.18437c0,0 0,-1.91132 1.91132,-1.91132c1.91132,0 1.91132,1.91132 1.91132,1.91132c0,0.50301 0,1.01757 0,1.54201c0.5187,0.21411 1.09219,0.68759 1.09219,1.73455z" stroke-width="0.5"/><path d="M241.66932,168.11284c0.58564,0 1.14193,0.12575 1.6433,0.3517c0.18123,-3.24667 0.26314,-6.54439 0.27485,-9.95477c-2.12827,2.28041 -4.00123,5.72184 -5.59771,9.74137c0.33373,-0.09016 0.68467,-0.13826 1.04691,-0.13826c0.46114,0 0.90406,0.07796 1.31633,0.22142c0.41226,-0.14343 0.85519,-0.22142 1.31633,-0.22142zM241.66932,176.12046c-0.46114,0 -0.90406,-0.07796 -1.31633,-0.2214c-0.41226,0.14343 -0.85519,0.2214 -1.31633,0.2214c-1.30649,0 -2.46685,-0.62579 -3.19766,-1.59397c-6.63786,22.36973 -6.01333,52.11795 4.58212,15.03396c1.04839,-4.62997 1.77984,-9.0982 2.27349,-13.57248c-0.32726,0.08645 -0.67087,0.13249 -1.02525,0.13249zM251.50403,152.89892c0.09251,0.46454 0.09251,0.78929 0.09251,0.78929v3.94896c0,11.8445 -0.91082,22.44894 -3.41376,33.89263c-20.7217,72.52596 -39.46124,-33.48627 -1.4586,-43.72453c0,0 3.90844,-0.86854 4.77702,3.0399c0.17959,0.80813 0.15493,1.4863 0.00286,2.05373z" stroke-width="0.5"/><path d="M314.35712,221.00436c1.93041,3.89577 6.50099,12.67328 3.04158,17.21423c-5.23044,-0.32789 -10.16297,-0.09016 -16.80175,0.08638c-1.86631,-1.3893 -2.89597,-3.58856 -3.70806,-6.4772c-3.98555,2.38173 -10.19154,-0.09498 -6.75508,-10.92212c0.01278,-0.04032 0.0263,-0.0801 0.04048,-0.1194c-0.92452,-1.3905 -1.40642,-3.13693 -1.65843,-4.84825c-0.01723,0.0145 -0.0345,0.02877 -0.05188,0.04283c0.06713,6.14263 0.3753,12.01762 -1.53229,17.95257l0.20543,0.70838c0,0 0,2.87743 -2.4393,3.75362c-0.40053,-0.0072 -0.80621,-0.01522 -1.2171,-0.02405c-0.72044,-0.01551 -1.4653,-0.05262 -2.23243,-0.10867c-2.11879,-1.00139 -2.11874,-3.62088 -2.11874,-3.62088l0.20543,-3.2406c1.60295,-4.58352 1.29548,-9.53012 1.15713,-14.40647c-4.15668,0.09975 -8.29367,0.28811 -12.44414,0.42524c-0.70591,0.2875 -1.37927,0.2984 -1.97195,0.17697c0,5.68163 0,11.36328 0,17.04493v1.24288c-2.61113,-0.51489 -5.29516,-1.05796 -8.00761,-1.57519c0,-5.36318 0,-11.31059 0,-16.84905c-2.58574,-0.43449 -5.18839,-1.82058 -7.64457,-1.04861c-0.67678,0.21267 1.04451,1.07827 1.1727,1.77598c0.59563,3.24217 -0.01945,6.59291 -0.05171,9.88923l1.16253,3.32417c0,0 0.29965,0.89894 0.17008,1.96796c-2.79079,-0.4728 -5.58162,-0.88273 -8.32486,-1.17213l-0.91198,-2.83733c-0.02318,-2.94414 -1.32756,-16.48624 1.12097,-18.61011c2.22412,-1.92923 5.81963,-0.93819 8.75455,-1.17268c2.3208,-0.18541 4.66617,-0.32113 7.02567,-0.42005c0.34708,-0.12088 0.74292,-0.20157 1.19424,-0.22831c0.76678,-3.65511 2.47153,-6.51157 2.9656,-10.46866c0.74973,-6.00489 0.82385,-11.9721 0.72497,-17.92029c-1.21716,-0.54305 -2.45727,-1.19832 -3.61531,-1.45204c0,0 -3.68006,-1.57718 -2.10289,-5.25724c0.54407,-1.26948 1.33835,-1.91337 2.14552,-2.21219l-0.28933,-0.86797l1.5111,-0.50371l0.18234,-4.16824l1.86629,1.10232c-0.10608,-8.32401 0.18978,-16.6381 2.27781,-24.99395c0,0 0.97106,-3.88425 4.85533,-2.9132c3.88425,0.97106 2.9132,4.85533 2.9132,4.85533c-4.61331,18.44528 0.03614,36.99268 -2.56481,55.6138c-0.51164,3.66301 -2.15523,6.07499 -2.88611,9.18771c5.38445,-0.05746 10.77315,-0.01147 16.04615,-0.01147c0,0 1.72997,0 2.9156,1.13715c2.01369,-7.00838 11.40585,-5.74426 18.14553,-5.74426h1.31633c0,0 3.57903,0 3.96937,3.38382c1.96491,-3.41825 3.33748,-6.95338 5.86246,-10.81517c0,0 2.22089,-3.33135 5.55228,-1.11043c3.33139,2.22094 1.11046,5.55228 1.11046,5.55228c-4.38896,6.42076 -5.78594,12.32622 -11.51304,18.20145c0.82147,0.65935 1.23223,1.48083 1.23223,1.48083zM308.14339,212.31925h-1.31633c-1.32243,0 -9.72825,-1.04867 -10.8039,-0.05589c-0.82952,0.76565 -1.01005,3.00292 0.05175,3.38622c0.92062,0.33231 1.96565,-1.20066 2.83739,-0.7557c0.19398,0.09901 0.3845,0.20343 0.57184,0.31262l0.05295,-0.15887l3.86136,1.28715c0.55982,0.17215 1.06732,0.46378 1.49278,0.84512c0.34743,-1.09146 1.07916,-1.82317 1.07916,-1.82317l1.31633,-1.31633c0.61475,-0.60749 1.17418,-1.21453 1.68862,-1.82235c-0.48722,0.10119 -0.83199,0.10119 -0.83199,0.10119zM311.2357,233.127c0.555,-0.02048 -0.90631,-0.71411 -1.13401,-1.22068c-1.01867,-2.26634 -1.65207,-4.70091 -2.72074,-6.94173c0.10355,0.35574 0.15909,0.73195 0.15909,1.12112c0,1.41178 -0.73071,2.65289 -1.83458,3.36583l-1.80097,1.20066c1.89944,1.6556 5.07366,2.55811 7.33119,2.47483zM305.42915,222.55674c0.64827,0.34845 1.18945,0.87026 1.56152,1.50349c-0.17248,-0.53672 -0.36056,-1.41972 -0.15046,-2.33861c-0.24451,-0.15336 -0.49125,-0.3432 -0.73834,-0.57524c-0.13081,0.51764 -0.36245,0.99511 -0.67276,1.41032z" stroke-width="0.5"/><path d="M52.234,276.25524c-0.38023,0.53164 -0.91187,0.79744 -0.91187,0.79744c-10.4317,4.53802 -11.61627,35.26582 -11.61627,45.57038c0,17.99128 28.2928,23.73467 28.2928,-3.85811c0,-4.92979 -0.00971,-9.85967 0,-14.78942c0.00112,-0.56834 0.12065,-3.92952 -0.26241,-4.53487c-1.36614,-2.15881 -2.70925,-3.60462 -3.49912,-6.38729c-2.0117,-7.087 -5.3316,-13.30979 -12.00309,-16.79815zM48.06536,273.79762c-0.00019,-0.01455 -0.00029,-0.02918 -0.00029,-0.04391c0,-2.25056 2.25056,-2.25056 2.25056,-2.25056l2.93554,0.23761c6.20063,3.2714 13.65475,10.26026 15.34987,17.66281c0.39715,1.73445 0.31535,4.96139 1.06034,6.43684c0.3185,0.63077 1.48417,0.47116 1.81476,1.09568c0.68067,1.28586 0.8033,2.80586 1.01266,4.24562c0.8131,5.5918 0.01095,11.9237 0.01095,17.58325c0,33.30107 -37.29505,27.57898 -37.29505,3.85811c0,-12.5258 1.39183,-40.77374 12.86066,-48.82546z" stroke-width="0.5"/><path d="M46.77904,290.47217c0,-1.24296 1.00761,-2.25056 2.25056,-2.25056c1.24296,0 2.25056,1.00761 2.25056,2.25056c0,1.24296 -1.00761,2.25056 -2.25056,2.25056c-1.24296,0 -2.25056,-1.00761 -2.25056,-2.25056z" stroke-width="0.5"/><path d="M55.13828,293.68726c0,-1.24296 1.00761,-2.25056 2.25056,-2.25056c1.24296,0 2.25056,1.00761 2.25056,2.25056c0,1.24296 -1.00761,2.25056 -2.25056,2.25056c-1.24296,0 -2.25056,-1.00761 -2.25056,-2.25056z" stroke-width="0.5"/><path d="M105.89475,299.3905c2.01295,-1.00648 3.01944,1.00648 3.01944,1.00648l0.45627,1.6641c0.5534,0.40584 -0.21866,-2.90108 -0.21866,-3.87271c0,0 0,-1.31776 1.00835,-1.93661c-0.36536,-0.60876 -0.36536,-1.27848 -0.36536,-1.27848v-2.57207c0,-4.41522 0.93631,-9.9688 0.0602,-14.27233c-0.60524,-2.97306 -3.67893,-4.09127 -5.284,-6.10085c-0.46738,-0.58517 -0.98451,-1.52398 -1.63685,-1.77351l-0.71548,0.41609c-0.82432,2.28563 -2.83942,4.7756 -3.45175,6.95037c-0.26981,0.95828 0.2696,2.08847 -0.16973,2.98184c-0.34104,0.6935 -1.62048,0.5775 -1.92906,1.28604c-0.76886,1.76547 -0.38663,3.90992 -1.21725,5.64716c-2.7067,6.5172 -5.65845,14.16151 -8.14778,22.08163c0.00523,0.63801 -0.25154,1.15156 -0.25154,1.15156c-0.09142,0.1828 -0.1828,0.36561 -0.27422,0.54841c-1.77719,5.84279 -3.27769,11.80157 -4.22119,17.53904c0.65691,0.20256 1.5179,0.7336 1.5179,2.12563c0,1.93435 -1.66256,2.20613 -2.12975,2.24431c-0.34238,3.00135 -0.50418,5.9143 -0.44232,8.687c0,0 0,2.25056 -2.25056,2.25056c-2.25056,0 -2.25056,-2.25056 -2.25056,-2.25056c0.04854,-3.00911 0.29419,-6.10005 0.70026,-9.24012c-0.39007,-0.33031 -0.70026,-0.85565 -0.70026,-1.69119c0,-1.20884 0.6493,-1.76839 1.2504,-2.02737c0.858,-5.17337 2.10396,-10.44313 3.57883,-15.66749l-0.31194,-0.00427c0,0 -1.59137,-1.59137 0,-3.18278c0.39879,-0.39879 0.7976,-0.59772 1.17135,-0.67189c0.11204,-0.22408 0.22408,-0.44816 0.33612,-0.67225c0,0 0.08827,-0.17651 0.26478,-0.39887c2.45607,-7.93636 5.33136,-15.66126 8.05436,-22.66525c0.94916,-1.79067 0.56506,-4.06069 1.35482,-5.92716c0.30116,-0.71173 1.57785,-0.59764 1.92906,-1.28604c0.32857,-0.644 -0.37093,-1.46787 -0.16973,-2.1623c0.7381,-2.54743 3.20842,-6.01944 4.26446,-8.48206l1.97341,-1.41452c0.31738,-0.33542 0.71895,-0.51106 1.05248,-0.60301c0.32937,-0.10878 0.76233,-0.18551 1.21376,-0.08125c1.10152,-0.00926 2.27388,-0.23576 3.19233,0.31633c0.99734,0.59949 1.02945,2.11642 1.79004,2.99709c2.21792,2.56807 5.4058,4.27207 6.29032,8.04554c1.06716,4.55266 0.0602,10.61747 0.0602,15.30649v2.57207c0,0 0,1.31776 -1.00835,1.93661c0.36536,0.60876 0.36536,1.27848 0.36536,1.27848c0,1.50795 0.11649,6.78014 -0.65919,7.37856c-1.58308,1.22134 -3.99312,0.21538 -5.98967,0.32305l-2.11582,-3.48004c0,0 -1.00648,-2.01295 1.00648,-3.01944z" stroke-width="0.5"/><path d="M120.97047,322.45339c0.17844,0.1851 0.31066,0.45942 0.31066,0.86596c0,1.25 -1.25,1.25 -1.25,1.25c-1.007,-0.47098 0.11364,9.4742 -0.51182,11.45058c-0.22031,0.69618 -0.52037,1.3423 -0.88685,1.94098c0.48645,0.0563 0.96574,0.13425 1.38759,0.34437c0.30116,0.15 2.71204,2.59047 2.83259,2.86905c0.206,0.47604 -0.30951,1.10451 -0.05276,1.5552c0.36469,0.64015 2.25229,1.88984 3.28496,2.72079c-0.16173,-6.84116 4.41904,-28.5358 -3.95735,-28.02837c0.10844,0.87972 -0.63419,1.65547 -0.94152,2.48687c-0.2936,0.79427 0.21019,1.8356 -0.21551,2.54457zM115.78444,336.71536c2.04099,-4.02584 0.982,-9.34567 1.83894,-12.3539c-0.50892,-0.35546 -0.50892,-1.04211 -0.50892,-1.04211l0.36612,-2.55055c0.55556,0 1.32821,0.44055 1.66667,0c0.37301,-0.48552 -0.43984,-1.22818 -0.27097,-1.81669c0.14447,-0.50346 0.90938,-0.62774 1.11111,-1.11111c0.25226,-0.60444 0.11306,-1.30505 0.16959,-1.95758c12.71198,-4.27343 9.79074,19.70551 7.67564,30.21371h0.11517v2.22222c0,0.69036 -0.55964,1.25 -1.25,1.25c-0.44077,0 -0.82825,-0.22813 -1.05082,-0.57276l-1.04828,-1.57242c-0.95253,-0.93259 -3.42843,-2.59013 -4.003,-3.51501c-0.73658,-1.18566 0.13388,-2.52707 -1.66461,-3.35353c-0.62101,-0.28537 -1.32179,-0.39253 -2.01072,-0.51759c-3.53724,3.30442 -9.40051,4.53129 -13.27813,4.53129c-2.24277,0 -5.86329,0.61969 -7.97835,-0.09515c-4.55431,-1.53925 -6.9182,-14.71778 -1.77813,-17.25694c6.19421,-3.0599 11.05679,3.12186 16.12001,3.48165c0.39929,1.40715 0.36083,2.54929 1.83491,3.29017c0.64607,0.32472 1.47946,0.1211 2.12112,0.45446c0.86153,0.44759 1.24016,1.47069 1.82264,2.27182zM114.32097,338.77424c-0.50732,-0.74516 -0.74944,-1.78059 -1.55385,-2.13463c-2.14742,-0.94512 -4.43895,-0.95228 -4.3773,-4.03315c-4.03617,0.37393 -8.1493,-5.82905 -13.32443,-3.18501c-3.28949,1.68064 -1.09529,11.87955 1.5552,12.74306c1.79243,0.58396 5.11025,-0.09515 7.02165,-0.09515c5.51581,0 8.75921,-1.32565 10.67873,-3.29511z" stroke-width="0.5"/><path d="M97.11446,334.98602c0,-0.69036 0.55964,-1.25 1.25,-1.25c0.69036,0 1.25,0.55964 1.25,1.25c0,0.69036 -0.55964,1.25 -1.25,1.25c-0.69036,0 -1.25,-0.55964 -1.25,-1.25z" stroke-width="0.5"/><path d="M369.989,172.38301c0,-1.27953 1.03725,-2.31678 2.31678,-2.31678c1.27953,0 2.31678,1.03725 2.31678,2.31678c0,1.27953 -1.03725,2.31678 -2.31678,2.31678c-1.27953,0 -2.31678,-1.03725 -2.31678,-2.31678z" stroke-width="0.5"/><path d="M387.19934,171.05913c0,-1.27953 1.03725,-2.31678 2.31678,-2.31678c1.27953,0 2.31678,1.03725 2.31678,2.31678c0,1.27953 -1.03725,2.31678 -2.31678,2.31678c-1.27953,0 -2.31678,-1.03725 -2.31678,-2.31678z" stroke-width="0.5"/><path d="M408.77042,149.8384l-1.61357,-2.59956c0.12505,-3.15794 1.41299,-7.42678 4.00352,-9.69805c1.77115,-1.55287 5.4053,-1.22756 7.48095,-1.23334c6.04562,-0.01681 11.69102,-0.25286 17.21978,1.42328c1.02203,0.30986 2.31865,-0.36466 3.19439,0.2466c3.79457,2.64862 3.58307,6.84943 2.17807,10.28816c0,0 -0.05827,0.11654 -0.1748,0.28052c0.04878,0.07677 0.09721,0.15606 0.14525,0.23794c0.35476,0.60464 0.27414,6.22876 0.27414,7.05062c0,2.80225 0.56131,6.31583 -0.04179,9.04329c-0.83474,3.775 -2.69167,4.98763 -2.60595,8.829v2.64774c0,0 0,2.31678 -2.31678,2.31678c-2.31678,0 -2.31678,-2.31678 -2.31678,-2.31678v-2.64774c0.06822,-4.22953 1.82216,-5.8284 2.68956,-9.70523c0.66873,-2.9889 0.80626,-10.07357 0.23233,-13.0313c-0.16464,-0.84846 -1.72678,-0.11654 -2.59092,-0.10029c-3.08513,0.05801 -6.18139,0 -9.26711,0c-1.98581,0 -3.97163,0 -5.95744,0c-0.88258,0 -1.77586,0.13699 -2.64774,0c-0.59404,-0.09332 -1.32942,-1.17312 -1.67147,-0.67858c-0.4339,0.62737 0.72663,1.44895 0.6166,2.20376c-0.14234,0.97644 -0.88258,1.76516 -1.32388,2.64774c0.11222,5.02898 -4.72693,18.13454 -3.81811,23.94561c1.98709,-0.61042 4.60657,-0.78765 7.21421,-0.77885c1.13196,-0.14403 2.33541,-0.1953 3.61621,-0.20032c2.74164,0 6.89536,-0.69557 9.41922,1.18474c2.83075,-0.30166 5.04776,-0.52281 5.80533,-0.52281c0,0 2.31678,0 2.31678,2.31678c0,2.31678 -2.31678,2.31678 -2.31678,2.31678c-0.82855,0 -2.01747,0.11402 -3.44707,0.29089c0.6355,8.82355 -25.97477,7.88609 -26.06424,-0.75512c-0.97379,-1.99148 -1.06184,-5.02233 -0.72486,-8.42325c-0.16768,0.58162 -0.36171,1.15348 -0.58577,1.71367c0.27249,15.94322 -17.1785,89.62129 -34.16688,38.92193c-5.19507,-8.9686 -11.02907,-35.70517 -5.6261,-46.0094c2.01432,-3.84161 7.46694,-7.74338 8.13108,-11.78519c0,0 0.22632,-0.90525 0.96619,-1.42311c-0.91796,-1.20934 0.01568,-2.60979 0.01568,-2.60979l2.15837,-2.74334c7.27898,-0.44091 15.3747,-3.98821 22.80746,-2.19797c2.40971,0.5804 5.9002,3.16144 6.90363,5.33982c0.58572,1.27158 0.1484,2.79656 0.17635,4.19628c0.06652,3.33038 0.32615,6.88904 0.16154,10.35083c1.06112,-5.64553 2.50043,-11.23352 2.54818,-14.19281c0.45329,-0.90656 0.55428,-1.99352 0.64618,-3.07283c-1.02363,-0.13825 -1.64293,-1.0672 -1.64293,-1.0672zM437.08918,146.19331c0.72397,-0.98044 1.08935,-3.33327 -0.46969,-4.27444c-0.6037,-0.36444 -1.41922,0.42634 -2.10111,0.2466c-5.07901,-1.33878 -10.25981,-1.20728 -15.87705,-1.22446c-1.47827,-0.00452 -3.52178,-1.0728 -4.43391,0.09054c-0.20538,0.26193 -2.66044,4.63912 -2.61583,4.86457l0.58338,0.77397c1.54131,-0.52698 5.63841,-0.43357 7.1283,-0.43357c5.07284,0 10.15234,-0.07606 15.22455,0c0.89669,0.01346 1.74153,-0.02914 2.534,0.01688c0.01683,-0.03898 0.02738,-0.06007 0.02738,-0.06007zM423.80872,184.85067c-0.79695,0.09962 -1.59869,0.19429 -2.39648,0.28029c0.83751,-0.0567 1.6529,-0.15483 2.39648,-0.28029zM378.21162,156.45182c0.58351,0.84996 0.31338,1.93047 0.31338,1.93047c-1.4708,4.95262 -5.67266,8.03272 -8.39258,12.54435c-4.95817,8.22428 1.20899,35.16519 5.60204,42.19028c13.77695,41.55424 25.27407,-27.68159 25.40742,-37.86272c0.8619,-2.15464 1.29617,-4.52224 1.28199,-6.84284c-0.02093,-3.42424 1.38744,-10.08412 0.17635,-13.01409c-1.04833,-2.53622 -4.40088,-2.55435 -6.46476,-2.54143c-5.60753,0.0351 -11.40038,2.21933 -16.77909,1.71167l-0.4894,1.22828c0,0 -0.23524,0.35285 -0.65539,0.65598z" stroke-width="0.5"/><path d="M490.614,159.33954c-0.01847,0.30601 -0.18995,1.72659 -1.782,1.72659c-1.78423,0 -1.78423,-1.78423 -1.78423,-1.78423l0.9863,-2.46977c1.85306,-0.89476 3.10152,-2.92848 5.04021,-3.59244c3.26731,-1.11898 8.63255,-0.11329 11.59638,1.07703c0.75172,0.75172 1.6476,1.38279 2.25516,2.25516c0.50252,0.72155 0.65599,1.63205 1.01201,2.43606c0.30911,0.69808 0.81804,1.32333 0.98276,2.06881c0.18665,0.84467 0.03896,1.7297 0.04773,2.59471c0.0192,1.89337 0,3.78694 0,5.68041c0,1.43224 0.00766,2.8645 0,4.29672c-0.00697,1.30198 0.1815,2.62153 -0.03219,3.90587c-0.16,0.96161 -0.61206,1.86121 -1.07052,2.7215c-0.32838,0.61622 -0.97905,1.03167 -1.26824,1.66722c-0.78163,1.71781 -0.81263,3.76348 -1.81334,5.36361c-0.62488,0.99919 -1.57762,1.75903 -2.25174,2.72568c-1.65623,2.37495 -1.57546,2.82562 -2.51766,5.39793c-1.13436,3.09692 -1.06017,4.63992 -4.28697,6.20768c-2.96079,1.43852 -6.62442,0.95194 -9.76322,0.82293c-2.26859,-2.11092 -4.94873,-4.10389 -6.19747,-7.05562c-1.84872,-4.36995 -1.45828,-9.1349 -1.45828,-13.74598c0,-2.79152 -0.00953,-5.58345 0,-8.37496c0.00277,-0.81077 -0.11784,-1.63281 0.01725,-2.43225c0.19958,-1.18115 0.5744,-2.33019 0.97804,-3.45803c0.19204,-0.5366 0.70195,-0.94955 0.80027,-1.51093c0.17588,-1.00428 -0.19909,-2.05875 0,-3.05868c0.19913,-1.0001 1.89882,-3.55687 2.35721,-4.38125c0.622,-1.11862 1.14362,-2.29018 1.71602,-3.43498c0,0 0.79793,-1.59587 2.3938,-0.79793c1.59587,0.79793 0.79793,2.3938 0.79793,2.3938c-0.03748,0.07497 -1.76004,3.52102 -1.77962,3.55629c-0.41218,0.74256 -0.88608,1.44935 -1.31086,2.18477c-0.24616,0.42617 -0.62326,0.81327 -0.70148,1.29916c-0.16203,1.0066 0.18826,2.05665 0,3.05868c-0.13537,0.72049 -0.69328,1.29712 -0.94755,1.98471c-0.32007,0.86555 -0.62069,1.74862 -0.76978,2.65933c-0.10434,0.63731 0.0148,1.29151 0.01725,1.9373c0.00331,0.8739 0,1.74782 0,2.62173c0,1.91775 0,3.83549 0,5.75324c0,4.10424 -0.43178,8.41825 1.16344,12.32565c0.73274,1.7948 1.37312,2.00001 2.68351,3.38111c0.5531,0.58295 1.07062,1.19867 1.60593,1.798c0.64631,-0.04527 1.29137,-0.11519 1.93893,-0.13582c1.9423,-0.06187 2.86845,0.26092 4.87782,-0.58947c1.96498,-0.8316 1.86486,-2.35813 2.50728,-4.2087c0.97065,-2.79609 1.16314,-3.63828 2.94711,-6.23303c0.62132,-0.90369 1.52042,-1.59808 2.11781,-2.51777c0.57135,-0.8796 1.49386,-4.70836 1.68229,-5.1233c0.79826,-1.75778 1.7769,-1.55627 2.03079,-3.47646c0.14118,-1.06778 -0.0257,-2.154 -0.03219,-3.23105c-0.00863,-1.43221 0,-2.86448 0,-4.29672c0,-1.89347 -0.02325,-3.78708 0,-5.68041c0.00727,-0.59178 0.17712,-1.19733 0.04773,-1.77484c-0.11799,-0.52661 -0.54497,-0.93408 -0.76506,-1.42683c-0.28122,-0.62964 -0.37132,-1.3481 -0.73581,-1.93349c-0.30909,-0.4964 -0.82698,-0.82698 -1.24047,-1.24047c-1.96888,-0.78171 -6.35106,-1.35194 -8.50353,-0.67079c-1.14472,0.36225 -2.39064,1.7736 -3.58872,2.73451z" stroke-width="0.5"/><path d="M488.79558,167.14708c0,-0.9854 0.79883,-1.78423 1.78423,-1.78423c0.9854,0 1.78423,0.79883 1.78423,1.78423c0,0.9854 -0.79883,1.78423 -1.78423,1.78423c-0.9854,0 -1.78423,-0.79883 -1.78423,-1.78423z" stroke-width="0.5"/><path d="M495.3499,165.39926c0,-0.9854 0.79883,-1.78423 1.78423,-1.78423c0.9854,0 1.78423,0.79883 1.78423,1.78423c0,0.9854 -0.79883,1.78423 -1.78423,1.78423c-0.9854,0 -1.78423,-0.79883 -1.78423,-1.78423z" stroke-width="0.5"/><path d="M552.66379,178.5079c0,0.9854 -0.79883,1.78423 -1.78423,1.78423c-0.75548,0 -1.40129,-0.46953 -1.66153,-1.1327c-0.03813,0.06215 -0.08275,0.12021 -0.13551,0.17315c-0.55363,0.55562 -1.62995,0.31949 -2.18477,0.87391c-0.53865,0.53826 -0.28875,1.5882 -0.82257,2.13125c-0.70076,0.71289 -1.69078,1.12387 -2.65087,1.40229c-0.69944,0.20283 -1.45677,-0.01944 -2.18477,0c-0.21473,0.00573 -0.57961,-0.13071 -0.63999,0.07543c-0.21058,0.71893 0.39459,1.63706 -0.04029,2.24704c-0.45533,0.63866 -1.79319,0.19429 -2.18477,0.87391c-0.41302,0.71682 0.38935,1.65136 0.25904,2.46832c-0.00024,0.00152 -0.00049,0.00304 -0.00073,0.00455c0.26872,0.0779 0.53328,0.1628 0.79301,0.25533c1.13588,-0.54978 2.35086,-1.03057 2.81422,-1.11099c0.93026,-0.16145 1.9211,0.30825 2.83187,0.05937c0.7025,-0.19197 1.05259,-1.09404 1.74782,-1.31086c0.32512,-0.1014 4.97506,-0.10991 5.37072,-0.09156c1.04359,0.04841 2.22606,-0.26953 3.1228,0.26647c0.85209,0.50931 1.12348,1.64482 1.56353,2.53466c0.25567,0.517 0.12986,1.21847 0.5079,1.65405c0.28788,0.33169 0.84239,0.24918 1.26054,0.38351c0.48867,0.15699 1.08343,0.83956 1.45963,0.4904c0.35598,-0.33039 -0.44985,-0.87989 -0.52259,-1.36009c-0.10503,-0.69337 0.37774,-2.0123 -0.35132,-2.67095c-0.61542,-0.55599 -1.39265,-0.9011 -2.08898,-1.35165c0.11737,-1.18258 0.08614,-2.38948 0.3521,-3.54773c0.13289,-0.57871 0.67988,-1.00296 0.82506,-1.5787c0.22842,-0.90581 -0.16224,-2.12358 -0.39814,-2.97371c-0.13688,-0.4933 -0.09222,-1.09445 -0.43787,-1.47208c-0.29653,-0.32398 -0.82304,-0.34491 -1.26054,-0.38351c-0.90364,-0.07973 -1.81413,0.02807 -2.72127,0.03219c-0.4598,0.00209 -0.91961,-0.00267 -1.37942,-0.00624c0.33423,0.32427 0.54193,0.77822 0.54193,1.28069zM536.92417,193.45032c0.0955,-0.05308 0.17834,-0.12174 0.24319,-0.21235c0.03048,-0.04258 0.05405,-0.08728 0.07174,-0.13378c-0.05121,-0.0012 -0.10262,-0.00236 -0.15421,-0.00352c-0.04825,0.11953 -0.10108,0.23649 -0.16072,0.34964zM534.6924,197.07154l-2.59058,-1.98638c0.40594,-0.82495 0.83408,-1.63941 1.23005,-2.46906c-1.13481,-0.26516 -2.26922,-0.53987 -3.42614,-0.52619h-0.13818c0.06052,0.41522 0.21331,0.84485 0.12686,1.24743c-0.13675,0.63686 -0.71798,1.11538 -0.87391,1.74782c-0.12993,0.52696 -0.01605,1.08802 0.04165,1.62768c0.15228,1.42419 0.36547,2.81457 1.08814,4.07953c0.36126,0.63234 0.96496,1.10695 1.31086,1.74782c0.30961,0.57363 0.26784,1.30979 0.63146,1.85079c0.16971,0.2525 0.54248,0.31116 0.84477,0.34553c0.58804,0.06685 1.18304,-0.04189 1.77484,-0.04773c1.01951,-0.01007 2.03912,0 3.05868,0c0.87391,0 1.7513,-0.0779 2.62173,0c0.39514,0.03536 0.84158,0.59645 1.14151,0.33679c0.37005,-0.32037 0.14226,-0.97081 0.15598,-1.46009c0.06853,-2.44501 -0.02631,-4.91313 -0.00967,-7.36138c-0.28487,-1.41536 -0.84236,-2.17513 -1.57658,-2.58795c0.06564,0.56813 0.33218,1.18231 0.0184,1.62242c-0.45533,0.63866 -1.71312,0.24721 -2.18477,0.87391c-0.33077,0.4395 0.20451,1.08096 0.30677,1.62144c0,0 0,1.78423 -1.78423,1.78423c-1.78423,0 -1.78423,-1.78423 -1.78423,-1.78423c0.01837,-0.21688 0.02109,-0.43853 0.01658,-0.66237zM535.1605,188.58488c0.24116,-1.19532 -0.32062,-2.57622 0.25904,-3.64904c0.37285,-0.69007 1.72829,-0.23607 2.18477,-0.87391c0.41183,-0.57544 -0.46191,-1.5542 -0.04029,-2.12251c0.65725,-0.88593 1.80866,-1.325 2.85564,-1.67238c0.6912,-0.22934 1.46121,0.08252 2.18477,0c0.30227,-0.03448 0.67283,-0.09454 0.84477,-0.34553c0.45626,-0.66604 0.35458,-1.66723 0.92525,-2.2383c0.55443,-0.55482 1.62923,-0.32021 2.18477,-0.87391c0.59049,-0.58853 0.32969,-1.79183 0.99454,-2.29484c1.4012,-1.06011 4.33692,-0.85559 5.94751,-0.84948c2.23199,0.00847 4.65449,-0.38828 6.5051,1.3965c0.76294,0.7358 0.94586,1.90202 1.30995,2.89746c0.53329,1.45805 0.78209,3.37778 0.47577,4.89148c-0.15873,0.78435 -0.95664,1.9703 -1.44456,2.73875c0.46889,0.13206 1.07689,0.03764 1.40666,0.39617c1.50459,1.63579 1.54577,3.15791 1.3965,5.19423c-0.09549,1.30263 0.4754,3.04077 -0.52259,3.88337c-1.63166,1.37762 -6.23775,0.56046 -7.76674,-0.87391c-0.72571,-0.6808 -0.88047,-1.78762 -1.23991,-2.71549c-0.11782,-0.30414 0.10915,-0.81857 -0.18429,-0.96098c-0.38232,-0.18555 -0.82278,0.23727 -1.24675,0.26647c-0.87184,0.06006 -1.74802,0.01886 -2.62173,0c-0.54092,-0.01167 -1.11181,-0.27572 -1.62055,-0.09156c-0.68477,0.24788 -1.04513,1.11957 -1.74782,1.31086c-0.96611,0.26301 -2.00746,-0.04923 -3.00546,0.02684c0.90152,0.95822 1.60256,2.18117 2.02732,3.74289c0.00973,1.74896 0.02001,2.79526 0.01337,4.51472c-0.00496,1.28477 0.24274,2.59728 -0.02304,3.85427c-0.28303,1.33861 -0.55184,2.89434 -1.59184,3.78337c-0.82234,0.70296 -2.14797,0.27461 -3.22803,0.33679c-1.89034,0.10883 -3.78701,0.01599 -5.68041,0c-0.86502,-0.0073 -1.76093,0.18275 -2.59471,-0.04773c-0.96351,-0.26634 -1.9583,-0.68144 -2.65087,-1.40229c-0.63626,-0.66223 -0.66225,-1.72053 -1.11635,-2.51875c-0.36011,-0.633 -0.96351,-1.10774 -1.31086,-1.74782c-0.95322,-1.75652 -1.37513,-3.55033 -1.53359,-5.53348c-0.0728,-0.91116 -0.14099,-1.84624 0.04165,-2.74187c0.13015,-0.63824 0.72866,-1.11285 0.87391,-1.74782c0.18279,-0.7991 -0.27329,-1.72185 0.08809,-2.45764c1.0431,-2.1238 2.51658,-2.59638 4.34612,-3.5348c0,0 1.59587,-0.79793 2.3938,0.79793c0.25721,0.51442 0.26569,0.94593 0.15906,1.29453c0.57077,0.03243 1.14107,0.07629 1.70608,0.13626c0.01876,-0.05501 0.03431,-0.11122 0.04594,-0.16888z" stroke-width="0.5"/><path d="M553.46487,181.12963c0,-0.9854 0.79883,-1.78423 1.78423,-1.78423c0.9854,0 1.78423,0.79883 1.78423,1.78423c0,0.9854 -0.79883,1.78423 -1.78423,1.78423c-0.9854,0 -1.78423,-0.79883 -1.78423,-1.78423z" stroke-width="0.5"/><path d="M587.09757,196.90922c1.26164,1.26164 0,2.52328 0,2.52328l-2.13555,1.3965c-2.27006,-0.06105 -3.74763,0.8984 -5.94435,1.64086c-0.47116,2.22004 -1.97583,4.52174 -3.63145,5.75475c0.54588,0.181 0.89653,0.60178 0.89653,0.60178c2.4149,2.91733 2.43689,4.9533 3.67924,7.68241c0.48825,0.07372 1.54081,0.39157 1.54081,1.76197c0,1.78423 -1.78423,1.78423 -1.78423,1.78423l-2.46977,-0.9863c-1.6345,-3.44094 -1.07367,-4.82107 -3.70741,-7.95783c0,0 -0.82318,-0.98782 -0.23332,-1.98511c-1.23254,0.12033 -3.23063,-0.28886 -5.1988,-1.01998c0.41606,0.31193 1.11879,1.05321 0.53348,2.22383c-0.79793,1.59587 -2.3938,0.79793 -2.3938,0.79793l-1.35982,-0.73327c-0.21383,0.00385 -0.42766,0.00771 -0.64149,0.01156c0.21393,0.43982 0.21393,0.87367 0.21393,0.87367c-0.11712,2.07296 0.48386,2.3627 1.88075,3.79601l1.50249,0.72549c0,0 1.59587,0.79793 0.79793,2.3938c-0.79793,1.59587 -2.3938,0.79793 -2.3938,0.79793l-1.99314,-1.02233c-0.49481,-0.48677 -0.92628,-0.91881 -1.30002,-1.32939c-0.13696,0.13403 -0.28665,0.26127 -0.44984,0.38102c-0.07318,0.0537 -0.14715,0.1059 -0.22187,0.15659c0.03621,0.55247 -0.19564,1.01618 -0.19564,1.01618c-1.59743,2.96235 -1.55945,6.75261 -1.55945,10.12593l-3.0951,1.78423c0,0 -1.78423,0 -1.78423,-1.78423c0,-1.19288 0.79752,-1.58824 1.32617,-1.71927c0.05624,-2.79761 0.29601,-5.52626 1.16662,-8.12706c-2.85187,0.04106 -5.59823,-1.52932 -6.37765,-4.6002c-0.49307,-1.94267 -0.38501,-4.32838 -0.2368,-6.61724c-0.41518,0.15167 -1.5944,0.43984 -2.24429,-0.85995c-0.79793,-1.59587 0.79793,-2.3938 0.79793,-2.3938l1.65094,-0.78422c0.05993,-0.46304 0.35139,-1.58892 1.76872,-1.58892c1.06965,0 1.49805,0.64126 1.66961,1.15491c2.08471,-0.14426 4.47684,-0.20834 5.44804,0.46273c0.90317,0.62406 1.00559,1.95179 1.50127,2.93132c0.10889,0.21518 0.22402,0.44871 0.34207,0.69756c1.01255,0.01393 2.0251,0.02787 3.03764,0.0418c-1.32748,-0.73526 -2.43414,-1.59757 -2.98656,-2.49992c-2.88821,-4.71767 0.72876,-6.87312 4.53352,-7.15793c0,0 0.6845,0 1.20556,0.42397c2.33157,-0.45026 6.96224,-1.22936 8.90851,-0.15749c0.63276,0.34848 1.09815,0.79901 1.42069,1.31962c2.252,-0.79643 3.81769,-1.53895 6.38038,-1.58609l-0.38773,-0.35132c0,0 1.26164,-1.26164 2.52328,0zM555.12381,206.30166c-0.28496,4.43341 -0.39724,10.82116 5.10318,7.9744c1.27903,-0.66197 -0.83942,-7.46523 -1.60864,-8.07342c-0.26984,-0.21335 -1.99602,-0.0482 -3.49455,0.09902zM566.18908,200.76353c-3.44195,0.14386 5.85574,7.07742 7.54966,4.80225c0.3551,-0.47695 0.21405,-1.18897 0.4918,-1.71474c2.46951,-4.67478 -1.49237,-3.44359 -5.52288,-2.61973l-1.22383,0.03465c0,0 -0.76653,0 -1.29475,-0.50242z" stroke-width="0.5"/><path d="M588.49407,206.473c0,1.78423 -1.78423,1.78423 -1.78423,1.78423h-1.74782c-1.87107,-0.00502 -3.75732,-0.11129 -5.59337,-0.4716c0,0 -1.74958,-0.34992 -1.39967,-2.0995c0.34992,-1.74958 2.0995,-1.39967 2.0995,-1.39967c1.60353,0.32777 3.25686,0.40724 4.89354,0.40231h1.74782c0,0 1.78423,0 1.78423,1.78423z" stroke-width="0.5"/><path d="M614.27439,214.77514c0,1.78423 -1.78423,1.78423 -1.78423,1.78423h-3.05868c-2.44449,-0.52247 -1.27445,2.87634 -1.27445,4.77009c0,0 0,1.7606 -1.7489,1.784c-0.0117,0.25306 -0.14993,1.74805 -1.78315,1.74805c-1.78423,0 -1.78423,-1.78423 -1.78423,-1.78423c0.01658,-1.68113 -0.1788,-3.30222 -0.38898,-4.93204c-1.90216,-2.86554 -3.83921,-6.28616 -7.05206,-2.54541l-1.58279,1.09684c0,0 -1.48457,0.98971 -2.47428,-0.49486c-0.98971,-1.48457 0.49486,-2.47428 0.49486,-2.47428l1.03894,-0.65098c2.44894,-2.24677 6.22707,-3.48104 9.09041,-1.5996v-1.50831c0,0 0,-1.78423 1.78423,-1.78423c1.78423,0 1.78423,1.78423 1.78423,1.78423v2.62173c0,0.65341 0.02639,1.29007 0.07001,1.91551c0.70458,-0.81999 1.87855,-1.34877 3.82616,-1.51497h3.05868c0,0 1.78423,0 1.78423,1.78423z" stroke-width="0.5"/><text transform="translate(525.09923,157.12539) scale(0.52188,0.52188)" font-size="40" xml:space="preserve" fill="#000000" stroke-width="1" font-family="Sans Serif" font-weight="normal" text-anchor="start"><tspan x="0" dy="0">Maulwurf</tspan></text><text transform="translate(308.26098,90.35156) scale(0.24009,0.24009)" font-size="40" xml:space="preserve" fill="#000000" stroke-width="1" font-family="Sans Serif" font-weight="normal" text-anchor="start"><tspan x="0" dy="0">Munni:</tspan></text><path d="M358.68335,93.27102c0.06127,0.14743 0.09828,0.32549 0.09828,0.54056c0,1.25 -1.25,1.25 -1.25,1.25c-0.49209,0 -0.98419,0.00229 -1.47627,0c-0.37281,-0.00174 -0.74958,-0.06671 -1.11836,-0.01208c-0.44298,0.06561 -0.84722,0.31487 -1.29174,0.36907c-0.13441,0.01639 -3.85265,0.01225 -3.86406,0.01208c-0.55155,-0.00803 -1.12373,0.09841 -1.65397,-0.05363c-0.42638,-0.12227 -0.68675,-0.59683 -1.10721,-0.73814c-0.29418,-0.09887 -0.61925,0.04614 -0.92951,0.05363c-0.86091,0.02079 -1.72621,0.08181 -2.58348,0c-0.85309,-0.08141 -1.88107,0.17609 -2.54469,-0.36612c-0.52486,-0.42883 -0.20871,-1.34024 -0.35403,-2.00225c-0.09602,-0.43739 -0.32721,-0.84589 -0.36907,-1.29174c-0.14498,-1.5441 -0.18045,-3.07471 1.38623,-4.04348c0.53509,-0.33087 1.25283,-0.12577 1.88156,-0.14791c0.61998,-0.02183 1.25545,-0.11848 1.86104,0.01614c0.82561,0.18354 1.57564,0.61533 2.36346,0.92299c-0.02081,0.33283 -0.00068,0.67078 -0.06242,0.9985c-0.09837,0.52216 0.24971,-1.07354 0.59181,-1.48012c0.35545,-0.42245 0.71571,-0.86447 1.18168,-1.16057c1.64479,-1.0452 6.0578,-1.70095 7.94073,-0.80984c2.96742,1.40436 2.6444,5.54575 1.41815,7.8119zM356.13042,92.56148c0.11003,-0.33369 0.33279,-0.55645 0.33279,-0.55645l0.16765,-0.10536c2.26013,-3.64521 -1.43634,-4.86639 -4.5603,-4.24669c-1.82702,0.36242 -1.40885,1.61805 -2.72817,2.45903c-0.78544,0.50066 -1.6988,1.14393 -2.61606,0.98206c-0.58289,-0.10286 -0.5337,-1.05665 -0.80056,-1.58498c-0.31939,-0.06141 -0.63371,-0.16167 -0.95816,-0.18422c-0.48572,-0.03375 -0.97459,0.04575 -1.46058,0.01614c-0.23867,-0.01454 -0.47069,-0.20878 -0.70192,-0.14791c-0.12578,0.03311 -0.12376,0.23751 -0.13159,0.36734c-0.0226,0.37464 -0.02131,0.75518 0.04155,1.1252c0.075,0.44148 0.36547,0.84394 0.36907,1.29174c0.00182,0.22685 -0.55623,0.47838 -0.35403,0.58123c0.25517,0.1298 0.49502,-0.31622 0.77692,-0.36612c0.42399,-0.07504 0.86116,0 1.29174,0c0.43058,0 0.86123,-0.00784 1.29174,0c0.55152,0.01004 1.12373,-0.09841 1.65397,0.05363c0.42638,0.12227 0.68675,0.59683 1.10721,0.73814c0.29418,0.09887 0.61921,-0.04801 0.92951,-0.05363c0.67651,-0.01226 1.35326,-0.00232 2.02988,0c0.49582,0.0017 0.99565,0.07525 1.48743,0.01208c0.44416,-0.05705 0.84815,-0.30774 1.29174,-0.36907c0.06022,-0.00833 0.81157,-0.01128 1.54018,-0.01218z" stroke-width="0.5"/><path d="M375.17501,93.42993c0.12788,0.17867 0.2147,0.42129 0.2147,0.75072c0,1.25 -1.25,1.25 -1.25,1.25c-1.94189,-0.01801 -6.70461,1.76447 -8.26525,0.37202c-0.76401,-0.68168 -0.21515,-2.52259 -0.35403,-3.47852c-0.16933,-1.16547 -1.31319,-2.74515 -0.47527,-3.90808c0.39525,-0.54856 2.90264,-0.46784 3.74307,-0.46784c1.84981,0 5.67038,-0.32063 7.13131,1.0783c1.92576,1.84404 0.77981,3.46514 -0.74451,4.40341zM372.2909,93.03176l0.83951,-1.36308c0.45047,-0.02459 1.49089,-0.64807 1.07483,-0.82247c-1.51915,-0.6368 -3.78689,-0.39798 -5.41702,-0.39798c-0.43058,0 -0.87511,0.10871 -1.29174,0c-0.05684,-0.01483 -0.1283,-0.06357 -0.20035,-0.12507c0.36648,0.47935 0.61727,1.06629 0.70014,1.65425c0.09713,0.6891 -0.88381,1.60625 -0.35403,2.05751c0.61248,0.5217 1.503,-0.62793 2.30134,-0.72772c0.78734,-0.09842 1.56438,-0.20185 2.34734,-0.27542z" stroke-width="0.5"/><path d="M387.93436,87.28338c-0.07424,1.13496 -1.24632,1.13496 -1.24632,1.13496c-0.63116,-0.00249 -1.26531,-0.06886 -1.89348,-0.00746c-0.50681,0.04954 -0.99111,0.23502 -1.48979,0.33814c-0.27413,0.05669 -0.60438,-0.02746 -0.82786,0.14113c-0.21522,0.16235 -0.26752,0.47511 -0.33501,0.73611c-0.14519,0.5615 -0.20641,1.1415 -0.29855,1.7141c-0.0588,0.36539 -0.30599,0.99734 0.34061,1.13184c0.38714,0.08053 0.78725,-0.08192 1.18245,-0.09515c0.55329,-0.01852 1.10721,-0.00022 1.66081,0c0.53472,0.00021 1.07012,0.02821 1.60417,0.00128c0.67855,-0.03422 1.3515,-0.14699 2.02988,-0.18453c0.41141,-0.02277 0.82664,0.04957 1.23613,0.00377c0.68346,-0.07644 1.34554,-0.30095 2.02988,-0.36907c0.31267,-0.03112 1.12105,0.31156 1.37922,-0.20792c0.06,-0.12074 0.00308,-0.28258 -0.06438,-0.39932c-0.64303,-1.1127 -1.01012,-1.36204 -1.90193,-2.24636c-0.95511,-1.03536 -2.13533,-1.4911 -3.40583,-1.69152zM382.73121,86.31434c-0.03879,-0.12552 -0.06118,-0.27043 -0.06118,-0.43773c0,-1.25 1.25,-1.25 1.25,-1.25h0.73814c3.2383,0 6.02596,0.27352 8.44979,2.58053c0.39667,0.39953 0.84704,0.75212 1.19,1.1986c0.50396,0.65609 1.10088,1.29814 1.33689,2.09106c0.54967,1.84672 -0.21288,2.95443 -1.87804,3.75198c-0.48297,0.23132 -1.07336,0.00545 -1.60501,0.06961c-0.68276,0.0824 -1.34631,0.29361 -2.02988,0.36907c-0.44641,0.04928 -0.89893,-0.02124 -1.34735,0.00377c-0.67836,0.03782 -1.35129,0.15089 -2.02988,0.18453c-0.00987,0.00049 -3.33158,0.00245 -3.37826,0.00128c-0.71354,-0.01787 -1.49543,0.21317 -2.13916,-0.09515c-0.75835,-0.36321 -1.40102,-1.03499 -1.7837,-1.7837c-0.28589,-0.55934 -0.14185,-1.25632 -0.0901,-1.88235c0.11069,-1.33906 0.44208,-3.23213 1.58086,-4.19303c0.47241,-0.39862 1.16007,-0.4315 1.75562,-0.59701c0.01375,-0.00382 0.02751,-0.00765 0.04127,-0.01147z" stroke-width="0.5"/><path d="M414.33566,89.43279c0.15326,0.22346 0.24014,0.53362 0.14555,0.95926c-0.27116,1.22023 -1.4914,0.94907 -1.4914,0.94907c-0.61112,-0.14024 -1.24812,-0.1957 -1.83336,-0.42071c-0.59112,-0.22726 -1.07362,-0.68544 -1.66081,-0.92267c-0.42814,-0.17297 -0.89402,-0.2492 -1.35349,-0.29513c-0.50562,-0.05054 -1.01627,0.00656 -1.52441,0.00746c-1.03154,0.00184 -2.03425,-0.0627 -3.05346,0.15543c-0.67551,0.14457 -1.30412,0.66974 -1.98924,0.58125c-0.92526,-0.1195 -1.85932,-0.53308 -2.54404,-1.16675c-0.45903,-0.4248 -0.43415,-1.17347 -0.62746,-1.76827c-0.42999,-1.323 -0.40276,-1.53484 -0.74088,-2.96228c-0.1806,-0.76247 -0.75958,-1.52251 -0.56552,-2.28167c0.29926,-1.17071 2.05955,-2.30194 3.19677,-2.55139c0.80437,-0.17644 1.88309,-0.77368 2.46322,-0.18923c0.31419,0.31653 0.67819,1.32302 0.67263,2.2302c0.25638,-0.18708 0.52384,-0.36444 0.75587,-0.55512c1.61359,-1.32599 2.2596,-2.83226 4.48765,-3.53986c0.70729,-0.22463 3.06968,-0.91691 3.55205,-0.61866c0.84516,0.52256 0.27343,2.05465 0.86571,2.85251c0.41969,0.56537 1.34492,-0.79403 2.02353,-0.60618c0.78559,0.21747 1.56611,0.70396 2.01651,1.38336c0.19103,0.28816 0.14813,3.14022 0.14791,3.54237c-0.00165,2.92309 -0.23587,4.78517 -2.94333,5.217zM411.33082,88.19377c0.18821,-0.44479 0.633,-0.66719 0.633,-0.66719l1.29715,-0.50103c2.42473,0.10458 1.79037,-3.19406 1.66592,-5.17248c-0.02422,-0.38511 -0.73795,0.26284 -1.12348,0.27903c-0.74295,0.03119 -1.61594,0.19664 -2.21786,-0.23998c-0.74258,-0.53865 -0.21299,-1.85678 -0.61057,-2.68352c-0.08462,-0.17596 -0.15072,0.39696 -0.32317,0.48854c-0.65279,0.34667 -1.60632,0.0253 -2.15558,0.5199c-0.36853,0.33185 -0.35432,0.9777 -0.73814,1.29174c-1.39899,1.14462 -3.03854,1.36249 -3.60484,3.24779c-1.13394,0.11437 -2.4635,0.98998 -3.40183,0.34311c-0.40589,-0.27981 -0.31435,-1.83894 0.07132,-2.85297c-0.22728,0.08764 -0.48165,0.13061 -0.70107,0.23616c-0.20787,0.1 -0.58323,0.12878 -0.59143,0.35931c-0.01389,0.39061 0.41702,0.66951 0.54169,1.03995c0.18377,0.54606 0.23635,1.12809 0.37603,1.68706c0.10556,0.4224 0.263,0.83117 0.35937,1.25576c0.0607,0.26743 -0.05929,0.6 0.11067,0.81521c0.61478,0.77846 1.556,-0.08842 2.10995,-0.21643c1.17747,-0.2721 2.39603,-0.21551 3.58977,-0.21364c1.53494,0.00242 2.26197,-0.11529 3.76533,0.45047c0.3392,0.12765 0.6411,0.33538 0.94774,0.53321z" stroke-width="0.5"/><text transform="translate(357.40962,80.10991) scale(0.26408,0.26408)" font-size="40" xml:space="preserve" fill="#000000" stroke-width="1" font-family="Sans Serif" font-weight="normal" text-anchor="start"><tspan x="0" dy="0">Steine</tspan></text></g></g></svg>