<svg version="1.1" xmlns="http://www.w3.org/2000/svg" xmlns:xlink="http://www.w3.org/1999/xlink" width="553.12232" height="216.31723" viewBox="0,0,553.12232,216.31723"><g transform="translate(-43.43884,-128.78224)"><g fill="#000000" stroke="none" stroke-miterlimit="10"><text transform="translate(327.21437,315.77447) scale(0.5,0.5)" font-size="40" xml:space="preserve" fill="#000000" stroke-width="1" font-family="Sans Serif" font-weight="400" text-anchor="middle"><tspan x="0" dy="0">Gras für ALLES,</tspan><tspan x="0" dy="46.150000000000006px">also Upgrades, Tools, Skins und Hintergründe.</tspan></text><path d="M147.13395,206.58271c-1.08529,0 -1.2283,-0.94229 -1.24714,-1.19061c-5.08676,-0.99847 -9.04236,-5.48253 -13.2459,-8.2197c-4.25956,-2.77363 -9.1682,-4.56693 -13.78469,-6.63187c-0.56471,-0.3991 -1.13062,-0.7965 -1.69413,-1.1973c-0.64518,-0.45889 -1.24415,-0.98958 -1.93193,-1.38177c-1.53406,-0.87475 -3.14164,-1.15029 -4.65754,-2.08617c-0.44641,-0.2756 -0.7204,-0.76666 -1.12469,-1.10101c-0.46313,-0.38301 -0.98034,-0.69548 -1.46961,-1.04449c-0.66128,-0.47172 -1.30288,-0.97205 -1.98201,-1.41768c-1.16379,-0.76364 -2.46444,-1.3047 -3.62409,-2.07462c-0.4471,-0.29684 -0.82806,-0.6829 -1.2399,-1.02699c-0.6803,-0.56838 -1.42302,-1.07046 -2.03651,-1.71038c-0.30573,-0.31891 -2.31612,-3.3111 -2.53104,-3.55421c-0.23968,-0.2711 -0.59521,-0.41173 -0.8895,-0.62228c-0.16426,-0.11752 -4.11056,-2.96634 -4.18295,-3.03589c-0.21178,-0.20347 -0.40021,-0.39507 -0.5699,-0.57868c-0.2017,0.22738 -0.38456,0.46572 -0.50435,0.74242c-0.23963,0.55354 -0.0953,1.2027 -0.15594,1.80283c-0.06309,0.62436 -0.15709,1.24574 -0.22225,1.86977c0.14029,0.31645 0.26375,0.63772 0.33075,0.97599c0.04432,0.22378 0.09857,4.6328 0.10475,5.06296c1.24675,4.35963 3.09265,9.23157 3.60428,13.73152c0.18167,1.59785 0.37661,3.2021 0.75621,4.7648c0.1571,0.64673 0.24766,1.31243 0.27679,1.97733c0.02062,0.4706 -0.25299,1.61777 0.1664,1.4033c0.21213,-0.10849 0.17578,-0.4429 0.26367,-0.66436l-0.36611,-0.14051c0,0 0,-1.25 1.25,-1.25c1.25,0 1.25,1.25 1.25,1.25l-0.36612,1.90828c-1.85847,1.44133 -2.25454,2.63863 -4.54695,-0.29406c-0.41987,-0.53714 -0.07694,-1.3618 -0.14493,-2.04017c-0.22606,-2.25553 -0.77545,-4.31467 -1.01578,-6.57494c-0.47566,-4.47346 -2.39611,-9.35997 -3.6007,-13.70636c-0.01999,-0.88619 -0.04516,-1.77228 -0.05998,-2.65857c-0.00399,-0.23874 0.00733,-0.47901 0.02,-0.71937c-0.46847,-0.36259 -0.46847,-1.01236 -0.46847,-1.01236c0.00062,-0.52326 0.0176,-1.04655 0.04735,-1.56931c-0.18704,-0.3897 -0.39164,-0.77448 -0.51534,-1.18569c-0.02181,-0.07251 -1.06,-5.03892 -1.06825,-5.11017c-0.20685,-1.78616 0.05835,-3.23766 -0.12379,-5.01487c-0.08166,-0.79681 -0.28973,-1.57555 -0.43357,-2.36351c-0.40742,-2.23186 -0.90258,-4.41366 -1.4098,-6.62476c-0.19595,-0.8542 -0.47426,-1.69393 -0.58468,-2.56333c-0.10414,-0.81996 -0.04173,-1.65259 -0.05572,-2.47903c-0.01283,-0.75851 0.12928,-1.5329 -0.02473,-2.27572c-0.17,-0.81995 -0.76369,-1.5128 -0.93087,-2.33332c-0.15614,-0.76634 -0.01891,-1.56407 -0.02255,-2.34614c0,0 0,-4.27511 0,-4.54878c0,0 0,-1.25 1.25,-1.25c1.25,0 1.25,1.25 1.25,1.25c0,1.51626 0.00782,3.03254 0,4.54878c-0.00322,0.62449 -0.15443,1.26296 -0.02256,1.87338c0.17511,0.81058 0.76441,1.49569 0.92608,2.30907c0.21598,1.08663 -0.0403,3.75335 0.11138,4.94433c0.09984,0.78395 0.36087,1.53883 0.53963,2.30863c0.5218,2.24704 1.02231,4.46956 1.4335,6.7397c0.15429,0.85182 0.3726,1.69466 0.46086,2.55584c0.16936,1.65254 -0.07088,3.33199 0.12022,4.98216c0.02987,0.25794 0.07547,0.51331 0.12902,0.76737c0.29524,-0.375 0.64127,-0.72164 0.92082,-1.10873c-0.25221,-0.48861 -0.50229,-1.03109 -0.84064,-1.70296c0,0 -0.55902,-1.11804 0.55902,-1.67705c0.92727,-0.46363 1.47,0.2263 1.62822,0.47525c0.25738,-0.66097 0.5256,-1.31652 0.87564,-1.93032c0.4329,-0.75909 1.00366,-1.43079 1.50915,-2.1436c0.35513,-0.50078 0.79663,-0.94878 1.07269,-1.49713c0.74526,-1.48032 0.96065,-3.18852 1.69591,-4.67383c0.39016,-0.78816 0.9446,-1.48373 1.41849,-2.22458c0.90172,-1.4097 1.819,-2.80949 2.74589,-4.20277c1.40598,-2.11344 2.92184,-4.10656 4.46104,-6.1242c0.37063,-0.48584 0.70584,-1.00102 1.11319,-1.45651c0.57416,-0.64202 1.21674,-1.21939 1.82511,-1.82909c2.25661,-2.25393 4.93419,-4.99227 7.69984,-6.6197c1.16452,-0.68525 2.51422,-1.10717 3.52115,-2.00816l2.18977,-1.10682c0,0 1.11803,-0.55901 1.67705,0.55902c0.55902,1.11804 -0.55902,1.67705 -0.55902,1.67705l-1.90779,0.94197c-1.05329,0.92498 -2.43695,1.38616 -3.64958,2.08939c-2.58374,1.4984 -5.1047,4.13344 -7.20365,6.23501c-0.57014,0.56882 -1.173,1.10663 -1.71043,1.70644c-0.92654,1.0341 -1.68046,2.21073 -2.52203,3.31507c-0.99348,1.3037 -1.94545,2.64009 -2.853,4.005c-0.919,1.38216 -1.82488,2.77306 -2.72353,4.16854c-0.42622,0.66186 -0.93274,1.27793 -1.28199,1.98344c-0.74354,1.50203 -0.96458,3.22877 -1.72151,4.7241c-0.0861,0.17009 -2.59328,3.66407 -2.62508,3.71983c-0.92437,1.62089 -0.90191,2.26644 -1.49378,3.5318c0.22443,0.28955 0.4908,0.58348 0.8253,0.89845c0.56581,0.53278 1.26554,0.90243 1.8966,1.35605c0.67665,0.4864 1.35303,0.9732 2.02652,1.46397c0.40138,0.29248 0.86483,0.51749 1.19803,0.88577c0.6043,0.66795 1.05943,1.45707 1.58401,2.1893c0.33907,0.4733 0.60291,1.00796 1.0069,1.42722c0.54135,0.56182 1.20452,0.99194 1.8046,1.49054c0.35657,0.29627 0.67849,0.63857 1.06533,0.89405c1.13568,0.75003 2.40825,1.27703 3.54664,2.02295c0.71464,0.46826 1.39171,0.9915 2.08666,1.48851c0.54475,0.38958 1.11683,0.74388 1.63245,1.17128c0.33971,0.28158 0.5483,0.71654 0.92409,0.94778c1.39013,0.85536 3.06267,1.1667 4.48057,1.97521c0.15783,0.09 3.15645,2.24263 3.62606,2.57907c4.66295,2.05776 9.57832,3.89605 13.87386,6.6852c4.00226,2.59873 8.24504,7.69512 13.26006,8.00791l1.15544,2.27081c0,0 0,1.25 -1.25,1.25z" stroke-width="0.5"/><path d="M242.26172,172.92391c-0.88388,0.88388 -1.76776,0 -1.76776,0l-0.61886,-0.75342c-2.91303,0.06258 -4.88193,-1.83765 -7.66375,-2.55553c-0.80551,-0.20788 -1.65867,-0.34199 -2.53852,-0.42538c0.44156,1.32771 0.87576,2.65888 1.30325,3.99365c0.69262,2.16261 1.6557,4.42826 2.07354,6.6659c0.21624,1.15797 -0.27097,2.47968 0.2756,3.52319c0.39369,0.75162 1.25161,1.23844 1.51617,2.04462c0.30013,0.91455 0.06791,1.92387 0.10186,2.88581l0.00155,0.11001c0,0 0.01752,1.24988 -1.23236,1.2674c-1.24988,0.01752 -1.2674,-1.23236 -1.2674,-1.23236l-0.00154,-0.11c0.02165,-1.43997 -0.8367,-2.76703 -1.45205,-4.06907c-0.56716,-1.20005 -0.15725,-2.65686 -0.39957,-3.96187c-0.14856,-0.80007 -0.91997,-3.07933 -1.21462,-3.97727c-0.7969,-2.42858 -1.59941,-4.84905 -2.41743,-7.26118c-2.09914,-0.01088 -4.2279,0.12407 -6.13076,0.12407c-6.84959,0 -13.69918,0 -20.54878,0c-2.21951,0 -4.43902,0 -6.65853,0c-0.83334,0 -1.66667,0.00152 -2.5,0c-0.78384,-0.00143 -1.57154,-0.08681 -2.35149,-0.00885c-1.44019,0.14394 -2.78241,0.85244 -4.21952,1.02439c-0.05401,0.00646 -1.57741,0.00847 -2.95396,0.00899c-0.20246,0.38515 -0.40482,0.77031 -0.64628,1.13141c-0.53296,0.79704 -2.49727,3.12033 -3.07062,3.94814c-0.29244,0.42223 -0.50726,0.89325 -0.76174,1.33939c-0.41097,0.72048 -0.82782,1.43763 -1.23462,2.16047c-1.03302,1.83554 -2.05127,3.68796 -3.0357,5.54977c-0.41377,0.78255 -0.70462,1.63719 -1.21007,2.3639c-0.48432,0.69634 -1.22013,1.18799 -1.73118,1.86495c-0.47579,0.63025 -0.80863,1.35663 -1.21295,2.03495c0,0 -0.64312,1.07186 -1.71499,0.42874c-1.07187,-0.64312 -0.42874,-1.71498 -0.42874,-1.71498c0.45318,-0.75084 0.83284,-1.55128 1.35953,-2.25251c0.49154,-0.65443 1.20866,-1.12195 1.67843,-1.79218c0.44853,-0.63994 0.68508,-1.40506 1.04772,-2.09731c0.98667,-1.8835 2.02295,-3.7521 3.06589,-5.6054c0.41059,-0.72962 0.83017,-1.45415 1.24607,-2.18075c0.28449,-0.49703 0.52966,-1.01891 0.85513,-1.49013c0.92168,-1.33441 2.08087,-2.49583 2.99442,-3.83514c-0.31897,-0.15288 -0.64484,-0.46524 -0.64484,-1.10346c0,-1.25 1.25,-1.25 1.25,-1.25c0.24982,0 0.49965,-0.00014 0.74948,-0.00028c0.45602,-0.68773 0.98383,-1.3257 1.47397,-1.98976c0.98976,-1.34095 1.98003,-2.68152 2.97106,-4.02154c0.47995,-0.64897 1.003,-1.2681 1.44087,-1.94617c0.43871,-0.67937 0.786,-1.41361 1.18351,-2.11787c0.23454,-0.41553 2.12119,-3.71947 2.39643,-4.20164c0.85304,-1.19586 1.77776,-2.34351 2.56136,-3.58597c0.74255,-1.17737 1.26068,-2.4949 2.07461,-3.62409c0.50865,-0.70566 1.11083,-1.33893 1.66693,-2.00783c0.87091,-1.04757 1.63724,-2.18625 2.58013,-3.16953c0.60255,-0.62835 1.30821,-1.14901 1.96525,-1.72014c0.34676,-0.30142 0.74018,-0.55473 1.04612,-0.89751c0.50498,-0.56579 0.68499,-1.49597 1.37362,-1.81363c0.85117,-0.39264 1.89559,0.09138 2.80971,-0.11612c0.68592,-0.1557 1.24084,-0.6657 1.88443,-0.94944c0.83404,-0.36769 1.65735,-0.79126 2.54395,-1.00284c0.62803,-0.14987 1.34112,-0.31755 1.93585,-0.06622c0.91476,0.38657 1.55718,1.23315 2.32264,1.86584c0.37489,0.30986 2.55024,2.109 2.92851,2.71198c0.20597,0.32832 1.88561,4.25066 2.1191,4.71923c0.74562,1.49633 1.62209,2.92381 2.43177,4.38647c2.53447,6.0926 4.82962,12.24423 6.95272,18.47025c1.39221,0.0716 2.75112,0.23171 4.01664,0.55291c2.93434,0.74477 4.96052,2.60955 8.00091,2.66785l1.42991,1.29536c0,0 0.88388,0.88388 0,1.76777zM184.25373,167.72571c1.43711,-0.17195 2.7797,-0.87684 4.21952,-1.02439c0.11356,-0.01164 4.94505,-0.00885 5.1485,-0.00885c2.21951,0 4.43902,0 6.65854,0c6.84959,0 13.69919,0 20.54878,0c1.66778,0 3.4717,-0.08477 5.2842,-0.10019c-2.01006,-5.8291 -4.13091,-11.60868 -6.50292,-17.33528c-0.08444,-0.15196 -2.37487,-4.27184 -2.41815,-4.35871c-0.37985,-0.76229 -0.69611,-1.55466 -1.03882,-2.33435c-0.30473,-0.69328 -0.51267,-1.43585 -0.90347,-2.08453c-0.20173,-0.33484 -0.55182,-0.55445 -0.84331,-0.81491c-0.54042,-0.4829 -1.11183,-0.93041 -1.6514,-1.41427c-0.50241,-0.45053 -0.89782,-1.03625 -1.47365,-1.38811c-0.17228,-0.10526 -0.40279,0.05653 -0.5925,0.1256c-0.70963,0.25836 -1.40735,0.54961 -2.09844,0.85411c-0.78727,0.34688 -1.49438,0.91669 -2.33507,1.09934c-0.71445,0.15523 -1.51123,-0.38708 -2.19029,-0.11612c-0.44243,0.17655 -0.37353,0.89084 -0.67516,1.25953c-0.36084,0.44104 -0.8523,0.75663 -1.28126,1.13175c-0.59928,0.52406 -1.25266,0.99094 -1.80342,1.56577c-0.90247,0.94192 -1.62804,2.03893 -2.46436,3.04004c-0.51084,0.6115 -1.0668,1.18782 -1.534,1.83327c-0.29706,0.41039 -0.49887,0.88192 -0.74988,1.32199c-0.42331,0.74215 -0.81701,1.50216 -1.27307,2.22465c-0.78384,1.24176 -1.70627,2.39041 -2.56059,3.58477c-0.77472,1.36171 -1.5545,2.72056 -2.32577,4.08423c-0.42237,0.74679 -0.7945,1.52368 -1.26001,2.24437c-0.46634,0.72198 -1.0198,1.38382 -1.53019,2.07537c-0.9897,1.34099 -1.9801,2.68148 -2.97106,4.02155c-0.13648,0.18456 -0.2763,0.36682 -0.41662,0.54871c0.34583,0.00912 0.69094,0.0057 1.03389,-0.03534z" stroke-width="0.5"/><path d="M335.95275,136.6829c1.04007,-0.69337 1.73344,0.34668 1.73344,0.34668l1.18069,1.86773c0.1703,7.84908 1.6956,16.39872 -1.60512,23.95c-0.12685,0.2902 -2.63559,3.29688 -2.72103,3.44393c-1.19744,2.06093 -1.97752,4.69468 -2.95569,6.88125c-1.21855,1.71733 -2.44162,3.43144 -3.66176,5.14764c-0.5042,0.70919 -0.95006,1.46393 -1.51423,2.12642c-0.56417,0.66249 -1.23802,1.2231 -1.85807,1.83361c-1.21044,1.19183 -2.4688,2.33734 -3.77423,3.42431c-0.59476,0.49523 -1.26952,0.90637 -1.78887,1.4802c-0.62419,0.68967 -0.84689,1.74904 -1.61223,2.27772c-0.75446,0.52116 -1.7736,0.46736 -2.66611,0.67767c-0.85482,0.20142 -1.7019,0.46321 -2.57507,0.55732c-0.88184,0.09504 -1.77412,0.0269 -2.66085,0.007c-0.84226,-0.01891 -1.70114,0.05537 -2.52443,-0.12341c-0.80597,-0.17502 -1.4888,-0.75185 -2.29554,-0.92326c-0.67289,-0.14297 -1.38617,0.11591 -2.06373,-0.00298c-0.54248,-0.09518 -1.02204,-0.41107 -1.52857,-0.62732c-0.83371,-0.35593 -1.71671,-0.61923 -2.49194,-1.0891c-0.50467,-0.30589 -0.82528,-0.85008 -1.29558,-1.20656c-0.68926,-0.52245 -3.60042,-2.23618 -4.20744,-2.73293c-0.72147,-0.59039 -1.31641,-1.32037 -1.97462,-1.98055c-0.70587,-1.2178 -1.33546,-2.48191 -2.10284,-3.66192c-0.30318,-0.46619 -2.76694,-3.67684 -2.97591,-4.04769c-0.0351,-0.0623 -1.96911,-4.74117 -2.00351,-4.84571c-0.01792,-0.05445 -1.21035,-4.82684 -1.23801,-4.93831c-0.2129,-0.85824 -0.52449,-1.69839 -0.6343,-2.5758c-0.10627,-0.84917 -0.00779,-1.71157 -0.00937,-2.56736c-0.00308,-1.66667 0,-3.33333 0,-5c0,-4.86992 0,-9.73984 0,-14.60976c0,0 0,-1.25 1.25,-1.25c1.25,0 1.25,1.25 1.25,1.25c0,4.03658 0,8.07318 0,12.10976c0,2.49998 0.00491,5.00003 0,7.5c-0.00149,0.75397 -0.1032,1.51378 -0.00937,2.2619c0.09737,0.77634 0.38714,1.51622 0.57838,2.27492c0.39992,1.58666 0.67582,3.20883 1.18735,4.76311c0.25101,0.76272 0.61592,1.48311 0.92093,2.22588c0.29726,0.72387 0.50171,1.49229 0.88587,2.17403c0.79602,1.41259 2.00878,2.5514 2.8928,3.91065c0.21506,0.33066 1.60112,2.80776 1.99472,3.5088c0.52031,0.51832 0.98723,1.09643 1.56092,1.55499c1.29743,1.03705 2.85665,1.70844 4.18057,2.71146c0.41417,0.31379 0.6784,0.81178 1.12234,1.08181c0.64949,0.39505 1.40559,0.57979 2.10379,0.88049c0.35198,0.15159 0.66764,0.41805 1.04643,0.47625c0.67008,0.10295 1.37069,-0.14387 2.03384,-0.00298c0.82354,0.17497 1.52594,0.74671 2.34684,0.9337c0.66751,0.15205 1.36819,0.05666 2.05271,0.06842c0.77961,0.01338 1.56402,0.09152 2.33915,0.007c0.7838,-0.08546 1.53549,-0.36034 2.30885,-0.51383c0.59388,-0.11787 1.30454,0.05992 1.79143,-0.29997c0.59291,-0.43825 0.67166,-1.33126 1.16126,-1.88253c0.59282,-0.66748 1.36242,-1.15399 2.04577,-1.72845c0.62511,-0.5255 1.27476,-1.02269 1.87957,-1.57142c0.60481,-0.54874 1.16351,-1.14623 1.74631,-1.71829c0.56844,-0.55796 1.19097,-1.06533 1.70739,-1.67175c0.51642,-0.60642 0.91838,-1.30165 1.37843,-1.95188c1.16931,-1.65268 2.34782,-3.29869 3.53042,-4.94186c0.97141,-2.20158 1.76113,-4.83152 2.96543,-6.89814c0.70315,-1.20663 2.08025,-1.97903 2.62614,-3.26449c3.03019,-7.13541 1.2427,-14.8054 1.46805,-22.14756l-0.86809,-1.20544c0,0 -0.69338,-1.04006 0.34669,-1.73343z" stroke-width="0.5"/><path d="M424.96929,173.06442c0,1.25 -1.25,1.25 -1.25,1.25h-1.08537c-2.6268,-0.03151 -4.15506,-1.07032 -6.65853,-1.02439c-0.86287,-0.00105 -1.72769,0.05484 -2.58861,-0.00314c-0.77562,-0.05224 -1.53951,-0.21726 -2.30915,-0.3267c-1.63205,-0.23206 -3.25623,-0.52684 -4.89551,-0.70057c-0.96053,-0.10179 -3.70835,-0.12011 -4.39805,-0.24985c-0.81811,-0.1539 -1.5546,-0.6181 -2.3691,-0.79007c-0.56491,-0.11928 -1.15379,-0.04705 -1.73046,-0.07549c-0.87718,-0.04325 -1.76378,-0.00118 -2.63106,-0.13958c-0.86728,-0.1384 -1.6962,-0.45633 -2.54383,-0.68622c-2.40438,-0.65209 -4.79888,-1.33629 -7.19333,-2.02382c-0.76047,-0.21836 -1.50661,-0.49368 -2.28052,-0.65824c-0.43403,-0.09228 -0.8999,0.01247 -1.32674,-0.10877c-0.81041,-0.23019 -1.53375,-0.71914 -2.3481,-0.93503c-0.41354,-0.10963 -0.8578,-0.1049 -1.29448,-0.11966c0.27067,1.48832 0.665,3.66438 0.66843,3.69691c0.09064,0.85972 0.05507,1.72809 0.08184,2.59215c0.0448,1.44577 0.05658,2.8926 0.05501,4.33907c-0.00072,0.66584 -0.07017,1.33485 -0.00505,1.99749c0.16238,1.65243 0.71852,3.24931 0.89259,4.90056c0.15137,1.43592 0.00302,2.89156 0.13271,4.3296c0.22401,2.48382 0.66492,4.97511 0.99225,7.44765c0.02488,2.59686 -0.03511,3.47176 0.7627,5.89869c0.08722,0.26532 0.15623,0.55152 0.2097,0.82943l0.21339,-0.64016c0,0 0.39529,-1.18585 1.58114,-0.79056c1.18586,0.39529 0.79057,1.58113 0.79057,1.58113l-0.23382,0.70146c-0.56308,1.06433 -0.5697,2.74971 -1.68924,3.19299c-0.8847,0.3503 -1.7831,-0.83869 -2.37489,-1.58379c-1.82276,-2.29497 -1.73226,-6.2641 -1.75332,-9.01282c-0.33094,-2.46341 -0.76819,-4.94546 -0.99021,-7.42077c-0.10419,-1.16166 -0.01272,-3.1847 -0.12721,-4.27072c-0.17539,-1.66372 -0.73391,-3.2731 -0.89627,-4.93814c-0.07189,-0.73718 -0.00428,-1.48134 -0.00505,-2.22201c-0.00149,-1.4213 -0.01207,-2.84287 -0.05387,-4.26355c-0.02359,-0.80184 0.01489,-1.60781 -0.06921,-2.40557c-0.0841,-0.79776 -0.29004,-1.57794 -0.43394,-2.36711c-0.14644,-0.80311 -0.26716,-1.61126 -0.43707,-2.40973c-0.0618,-0.29042 -0.15208,-0.62657 -0.25433,-0.9824c-0.14047,-0.15806 -0.2836,-0.31235 -0.43424,-0.45605c0,0 -0.76551,-0.76551 -0.15931,-1.58412c-0.09116,-0.3457 -0.16242,-0.66079 -0.19615,-0.91735c-0.014,-0.10648 -0.01066,-4.95761 -0.01066,-5.1629c0,-3.22357 0,-6.44716 0,-9.67073c0.00082,-2.3282 -0.26115,-4.86564 1.30372,-6.87296c0.5287,-0.67818 1.32832,-1.16401 2.14503,-1.43317c1.07466,-0.35416 2.3073,0.20323 3.3925,-0.11716c0.81414,-0.24037 1.53657,-0.76458 2.36748,-0.9383c0.72442,-0.15146 1.48112,0.01872 2.22014,-0.02086c0.68217,-0.03654 1.37255,-0.05687 2.03893,-0.20728c0.83385,-0.1882 1.59681,-0.63805 2.43563,-0.80266c0.56813,-0.11149 1.15801,-0.02997 1.73681,-0.01614c0.52429,0.01253 1.0767,0.27196 1.57043,0.09516c0.45463,-0.16281 0.57125,-0.85748 1.02439,-1.0244c0.34837,-0.12833 3.8203,-0.09515 4.12469,-0.09515c2.19919,0 4.39837,0 6.59756,0c0,0 1.25,0 1.25,1.25c0,1.25 -1.25,1.25 -1.25,1.25c-2.19918,0 -4.39837,0 -6.59756,0c-0.70325,0 -1.40682,0.02112 -2.10976,0c-0.354,-0.01064 -0.7348,-0.23946 -1.05823,-0.09515c-0.44099,0.19676 -0.56383,0.87921 -1.02439,1.02439c-0.80397,0.25343 -1.68433,0.07792 -2.52713,0.09515c-0.44539,0.00911 -0.90031,-0.10736 -1.33635,-0.01614c-0.79465,0.16624 -1.51472,0.60486 -2.30779,0.77848c-0.79811,0.17473 -1.62141,0.21507 -2.43716,0.26036c-0.62489,0.03468 -1.26571,-0.15312 -1.87743,-0.02086c-0.79933,0.17282 -1.48681,0.70024 -2.2749,0.91865c-0.48343,0.13397 -0.99802,0.11582 -1.49953,0.1274c-0.92958,0.02146 -2.00666,-0.42724 -2.66201,0.56288c-1.02038,1.54159 -0.74568,3.58766 -0.74506,5.29778c0,3.22358 0,6.44716 0,9.67073c0,0.83333 0.00184,1.66667 0,2.5c-0.00171,0.77904 -0.11219,1.56469 -0.01066,2.33709c0.02015,0.15333 0.33767,1.26521 0.61335,2.25167c0.13729,0.13435 0.28803,0.25049 0.46184,0.33541c0.62941,0.30756 1.41371,0.02134 2.09262,0.19403c0.79876,0.20319 1.50217,0.6942 2.29429,0.92191c0.38587,0.11093 0.80901,-0.001 1.2016,0.08307c0.85606,0.18331 1.68502,0.47591 2.5271,0.71536c2.38669,0.67869 4.77141,1.35926 7.16433,2.01572c0.76033,0.20858 1.50142,0.50512 2.27999,0.62936c1.46008,0.233 2.98117,-0.06874 4.42987,0.22694c0.81736,0.16682 1.55519,0.63315 2.37432,0.79106c0.02733,0.00527 3.86498,0.18498 4.17561,0.21779c0.04149,0.00438 4.92794,0.70273 5.00398,0.71364c0.71102,0.10207 1.41611,0.25981 2.13281,0.30786c0.80199,0.05378 1.6076,-0.00209 2.41139,-0.00314c2.59165,0.03616 4.08735,1.06325 6.65853,1.02439h1.08537c0,0 1.25,0 1.25,1.25z" stroke-width="0.5"/><path d="M479.24653,191.81211c0.35611,0.0627 1.03983,0.30345 1.03983,1.22792c0,1.25 -1.25,1.25 -1.25,1.25l-2.27439,-1.25c0.12204,-0.21756 0.56347,-0.50011 0.36612,-0.6527c-0.21754,-0.1682 -0.4659,0.35573 -0.74079,0.36301c-0.68344,0.01807 -1.36561,-0.1304 -2.03047,-0.28972c-2.579,-0.618 -4.41412,-0.73157 -7.10095,-0.73157c-5.34789,0 -10.37785,-0.99581 -15.65244,-1.02379c0,1.11972 0,2.23944 0,3.35916v1.02439c0,0 0,1.25 -1.25,1.25c-1.25,0 -1.25,-1.25 -1.25,-1.25c0,-5.46341 0,-11.95122 0,-17.41463c0,-7.76422 0,-15.52845 0,-23.29268c0,-2.49994 -0.0084,-5.00008 0,-7.5c0.00258,-0.7666 0.13505,-1.54245 0.01614,-2.29978c-0.11163,-0.71093 -0.47044,-1.36028 -0.69801,-2.04299c-0.12835,-0.38507 -0.2763,-0.76519 -0.41593,-1.14752c-0.14074,0.03509 -0.28148,0.07022 -0.4222,0.1054c0,0 -1.21268,0.30317 -1.51585,-0.90951c-0.30317,-1.21268 0.90951,-1.51584 0.90951,-1.51584c0.18722,-0.0468 0.37442,-0.0937 0.56161,-0.14063c0.01187,-0.25247 0.02909,-0.50543 0.02815,-0.75645c-0.00313,-0.83332 0,-1.66666 0,-2.5c0,0 0,-1.25 1.25,-1.25c1.25,0 1.25,1.25 1.25,1.25c0,0.83334 0.00345,1.66668 0,2.5c-0.00014,0.03503 -0.00088,0.07011 -0.00209,0.10524c0.3824,-0.11214 0.76553,-0.22033 1.16034,-0.2605c0.87971,-0.08951 1.76848,-0.00776 2.65273,-0.00937c2.49998,-0.00455 5.00002,0 7.5,0c1.29946,0 2.60226,-0.09114 3.89839,0.00192c0.85417,0.06133 1.70323,0.18072 2.55362,0.28181c0.81212,0.09653 1.67522,0.00519 2.43372,0.31102c1.40209,0.56534 2.34435,1.95748 3.70587,2.61454c0.52158,0.25171 4.08485,1.27106 4.55533,1.40912c0.32975,0.09677 4.03985,1.18872 4.15681,1.20933c0.77818,0.1371 1.57835,0.0866 2.36503,0.16075c0.93991,0.08858 1.87552,0.2182 2.81327,0.3273c0.50922,0.78261 1.51584,1.46132 2.44477,1.36714h1.53659c0,0 1.25,0 1.25,1.25c0,1.25 -1.25,1.25 -1.25,1.25h-1.53659c-0.87953,-0.0493 -1.83857,0.22082 -2.6386,-0.14791c-0.57099,-0.26317 -0.70865,-1.03874 -1.06297,-1.55812c-1.3997,0.00431 -2.99262,0.05327 -4.35553,-0.18713c-0.28481,-0.05024 -3.85005,-1.10324 -4.42684,-1.27256c-0.89736,-0.26342 -4.18964,-1.19397 -4.98571,-1.58015c-0.6274,-0.30436 -1.14544,-0.79579 -1.71035,-1.20461c-0.59013,-0.42705 -1.08051,-1.02648 -1.7545,-1.30281c-0.56241,-0.23058 -1.21167,-0.09955 -1.81637,-0.16121c-0.80611,-0.0822 -1.60766,-0.21133 -2.4158,-0.27034c-1.25005,-0.09128 -2.50677,0.00191 -3.76015,0.00191c-2.49998,0 -5.00002,0.00483 -7.5,0c-0.78243,-0.00151 -1.5686,-0.08599 -2.34727,-0.00936c-0.38339,0.03772 -0.75149,0.1617 -1.12146,0.27564c0.41789,1.13312 1.00233,2.2911 1.1782,3.40545c0.14032,0.88909 0.01335,1.80014 0.01614,2.70023c0.00776,2.49994 0,5.00006 0,7.5c0,7.76423 0,15.52846 0,23.29268c0,3.51057 0,7.02112 0,10.53169c3.20592,0.03408 5.93719,0.78276 9.08872,1.02679c3.85018,0.29812 7.94201,-0.57627 11.75685,0.01141c0.30171,0.04648 6.27652,1.1998 6.44685,1.3755c0.29826,0.30765 0.35058,0.73717 0.35068,1.19255z" stroke-width="0.5"/><path d="M490.53026,167.43027c0,1.25 -1.25,1.25 -1.25,1.25l-1.90827,-0.36612c-0.48309,-0.58814 -1.44878,-0.47073 -2.15545,-0.75342c-0.45018,-0.18009 -0.57394,-0.863 -1.03028,-1.02685c-1.96749,-0.70643 -4.85249,0.43874 -6.96811,-0.21081c-0.7938,-0.24372 -1.35431,-1.00062 -2.135,-1.28352c-1.32017,-0.47839 -2.82673,0.04356 -4.20708,-0.21402c-5.86685,-1.09475 -11.9186,-0.75502 -17.96167,-0.75502c0,0 -1.25,0 -1.25,-1.25c0,-1.25 1.25,-1.25 1.25,-1.25c6.1985,0 12.40115,-0.35078 18.42506,0.79835c0.2197,0.04191 4.16072,0.17402 4.47936,0.28139c0.79252,0.26703 1.35738,1.02967 2.15247,1.28896c2.22573,0.72586 4.95783,-0.42193 7.18345,0.28988c0.45808,0.1465 0.57196,0.84333 1.0185,1.02193c1.00184,0.40069 2.16684,0.57095 2.9665,1.29536l0.14051,-0.36612c0,0 1.25,0 1.25,1.25z" stroke-width="0.5"/><path d="M556.37781,143.64369c1.25,0 1.25,1.25 1.25,1.25v2.10975c-0.0317,3.6401 -1.96899,5.90337 -2.57712,9.35876c-0.41074,2.33384 -0.01176,4.63999 -0.5221,7.03299c-0.16928,0.77311 -0.4193,1.53287 -0.50786,2.31932c-0.08857,0.78645 -0.0127,1.5828 -0.02068,2.37418c-0.0014,0.13932 -0.056,5.03947 -0.06303,5.10978c-0.16575,1.65823 -0.76874,3.2532 -0.93381,4.9115c-0.08119,0.8156 0.05226,4.37195 -0.06298,5.07742c-0.14447,0.88445 -0.54076,1.70884 -0.81493,2.56204c-0.24728,0.76952 -0.54703,1.52358 -0.74942,2.30611c-0.2024,0.78253 -0.30713,1.58711 -0.46267,2.38027c-0.15265,0.77838 -0.38554,1.54484 -0.46194,2.33436c-0.04994,0.51618 0.0833,4.85756 -0.02763,5.1668c-0.40791,1.13724 -0.96243,2.45048 -2.04072,2.99545c-0.60368,0.30509 -1.06289,-0.88476 -1.70297,-1.1034c-0.49586,-0.16939 -1.11186,0.23558 -1.57191,-0.01527c-1.81628,-0.99037 -1.87184,-2.52636 -2.66723,-4.19398c-0.70617,-1.48054 -1.59618,-2.86615 -2.39319,-4.29983c-0.44033,-0.8128 -1.05574,-1.55286 -1.32099,-2.43841c-0.2537,-0.84698 -0.05694,-1.77255 -0.20161,-2.64479c-0.12977,-0.78241 -0.41372,-1.53129 -0.61812,-2.2976c-0.20586,-0.77175 -0.34366,-1.56448 -0.61266,-2.31655c-0.63738,-1.78204 -1.45951,-2.76307 -2.07753,-4.57646c-0.25291,-0.74207 -0.34582,-1.52936 -0.5168,-2.29447c-0.31722,-1.41943 -0.66712,-2.83363 -1.09516,-4.22367c-0.48622,-1.57896 -0.92035,-3.17486 -1.45688,-4.73745c-0.20375,-0.59341 -1.58852,-4.02572 -1.69754,-4.41215c-0.44973,-1.5941 -0.40515,-3.30541 -0.89454,-4.88777c-0.2317,-0.74916 -0.64371,-1.43016 -0.96342,-2.1462c-0.63823,-1.42945 -1.24376,-2.87423 -1.80585,-4.33529c-0.19259,-0.50059 -0.46954,-0.98046 -0.6679,-1.47964c-0.81221,1.13955 -1.71112,2.05134 -2.37034,3.44825c-0.50905,1.07869 -0.17798,2.38724 -0.43717,3.55151c-0.74245,3.33506 -1.63886,5.73208 -1.89352,9.20202c-0.25054,0.87893 -0.44885,1.77446 -0.75163,2.63679c-0.15554,0.44298 -0.41135,0.8441 -0.61853,1.2654c-0.36301,0.73817 -0.74728,1.46616 -1.09206,2.21303c-0.34478,0.74686 -0.65053,1.51113 -0.97589,2.26665c-0.07412,0.17212 -1.9955,4.6396 -2.04446,4.72424c-0.39796,0.68791 -1.1001,1.18015 -1.44594,1.89569c-0.28415,0.58789 -0.25774,1.28029 -0.39747,1.91813c-0.19167,0.87496 -0.29821,1.77552 -0.59665,2.62005c-0.20175,0.57093 -0.59031,1.05747 -0.88903,1.58418c-0.40711,0.71782 -0.82864,1.42749 -1.22849,2.14938c-0.61212,1.10514 -1.16647,2.24131 -1.75079,3.36141c-0.37244,0.71394 -0.79556,1.40354 -1.11859,2.14115c-0.32304,0.73761 -0.53995,1.5173 -0.81507,2.27408c-0.26027,0.71594 -0.66018,1.3936 -0.79106,2.14404c-0.13088,0.75044 0.01532,1.52348 0.01859,2.28524c0.00293,0.68292 0,1.36585 0,2.04878c0,0 0,1.25 -1.25,1.25c-1.25,0 -1.25,-1.25 -1.25,-1.25c0,-0.49028 -0.00468,-4.63015 0.01858,-4.76353c0.15548,-0.89149 0.59768,-1.70836 0.90147,-2.56079c0.28918,-0.81143 0.53189,-1.64168 0.87747,-2.43074c0.34557,-0.78906 0.79386,-1.52904 1.19141,-2.29324c0.59052,-1.13514 1.15386,-2.28489 1.77366,-3.4043c0.40758,-0.73613 0.83219,-1.46272 1.25221,-2.19183c0.24,-0.41663 0.57031,-0.79106 0.72784,-1.24533c0.23985,-0.69169 0.76684,-4.06727 1.05465,-4.68133c0.37006,-0.78957 1.11642,-1.3501 1.55406,-2.10431c0.39353,-0.67822 0.61367,-1.44321 0.92257,-2.16392c0.32829,-0.76595 0.65927,-1.53073 0.98901,-2.29605c0.33398,-0.77518 0.64835,-1.5591 1.00212,-2.32545c0.35377,-0.76635 0.74546,-1.51462 1.1198,-2.27114c0.17501,-0.35369 0.39586,-0.68772 0.52823,-1.05948c0.25249,-0.70911 0.41465,-1.44722 0.62198,-2.17083c0.23559,-3.46635 1.18059,-5.99838 1.91509,-9.31031c0.28118,-1.26788 -0.01271,-2.679 0.52696,-3.86024c0.97318,-2.13014 2.53397,-3.00636 3.42928,-5.20712l0.08418,-1.1096c0.04306,-0.65132 0.58502,-1.16629 1.24725,-1.16629c0.54246,0 1.0042,0.34553 1.17715,0.82851l0.88697,2.30613c0.03395,0.05891 1.53605,4.01794 1.6517,4.29554c0.10069,0.2417 2.02337,4.5272 2.07003,4.67807c0.43593,1.40951 0.50693,3.51102 0.91224,4.94765c0.41468,1.46987 1.1577,2.82842 1.65381,4.27284c0.01001,0.02914 1.46661,4.76387 1.48397,4.82035c0.44697,1.45379 0.81809,2.9314 1.14619,4.41655c0.15047,0.68107 0.22187,1.38406 0.44733,2.04411c0.53593,1.56902 1.50212,2.96604 2.0605,4.52721c0.02723,0.07613 1.33205,4.97966 1.34342,5.04885c0.1269,0.77223 -0.0855,1.59246 0.13265,2.34403c0.20694,0.71295 0.73894,1.28781 1.10841,1.93172c0.04944,0.08894 2.44351,4.39385 2.46561,4.44042c0.33812,0.71243 0.5229,1.49142 0.86461,2.20213c0.14055,0.29232 0.26851,0.67372 0.5725,0.78682c0.46903,0.1745 1.05428,-0.24036 1.50125,-0.01528c0.2997,0.15091 0.03901,1.08127 0.34581,0.94538c0.33591,-0.14878 0.01087,-0.73474 0.00806,-1.10211c-0.00566,-0.73863 -0.0836,-4.25475 -0.02763,-4.8332c0.08412,-0.86941 0.32981,-1.71551 0.49669,-2.57289c0.164,-0.84258 0.28101,-1.69593 0.49595,-2.52697c0.21494,-0.83105 0.52491,-1.63458 0.79146,-2.45054c0.23926,-0.73244 0.60173,-1.43417 0.72595,-2.19461c0.12422,-0.76044 0.00344,-1.54105 0.01011,-2.31155c0.00752,-0.8702 -0.05373,-1.74453 0.03247,-2.61048c0.16511,-1.65864 0.76812,-3.25396 0.93391,-4.91254c0.07924,-0.79266 0.01406,-1.59316 0.02234,-2.38973c0.00865,-0.83329 0.01794,-1.66657 0.02846,-2.49984c0.01104,-0.87517 -0.06171,-1.75574 0.03623,-2.62549c0.09794,-0.86975 0.36573,-1.71186 0.54859,-2.56779c0.51711,-2.35668 0.08853,-4.5889 0.49794,-6.90522c0.58299,-3.29834 2.58086,-5.55514 2.54483,-8.9583v-2.10975c0,0 0,-1.25 1.25,-1.25z" stroke-width="0.5"/><path d="M596.53621,220.4847c0.21387,1.23157 -1.0177,1.44544 -1.0177,1.44544l-1.21963,0.19032c-1.06625,0.64785 -1.87408,1.70257 -3.00248,2.23484c-2.16548,1.02147 -4.76286,0.49862 -6.87858,1.119c-1.38014,0.4047 -2.17222,1.96672 -3.49617,2.52861c-2.21896,0.94173 -3.71214,0.23826 -5.56509,2.01825c-0.85717,0.1141 -1.72798,0.15199 -2.57149,0.34233c-0.83456,0.18832 -1.5971,0.65669 -2.44235,0.78903c-0.88807,0.13904 -1.79774,0.01208 -2.69662,0.01556c-1.27642,0.00494 -2.55285,0 -3.82927,0c-2.5,0 -5,0 -7.5,0c-1.53503,0 -3.07149,0.06475 -4.6051,-0.00127c-0.46435,-0.01999 -4.64017,-0.44141 -4.64052,-0.44151c-0.78449,-0.22453 -1.37946,-0.93196 -2.17058,-1.13183c-0.71606,-0.18091 -1.47699,0.02638 -2.21555,0.02368c-0.26021,-0.00095 -5.10262,-0.08052 -5.23247,-0.10608c-0.81435,-0.16034 -1.50378,-0.73416 -2.31118,-0.92651c-0.48097,-0.11459 -0.9887,0.01976 -1.48312,0.02255c-0.83332,0.00472 -1.66666,0 -2.5,0c-1.66666,0 -3.33334,0 -5,0c-0.35082,0 -4.63307,0.00097 -4.70422,-0.00357c-0.62925,-0.04018 -1.24713,-0.18702 -1.87054,-0.28154c-1.61671,-0.24512 -3.21846,-0.61928 -4.84897,-0.74285c-1.52586,-0.11564 -3.07032,0.16945 -4.59071,-0.00389c-0.27268,-0.03109 -4.41684,-0.99251 -4.65762,-1.03058c-0.66848,-0.10568 -1.36528,-0.00862 -2.02357,-0.16573c-0.79512,-0.18976 -1.49094,-0.71635 -2.29478,-0.8649c-0.74667,-0.13798 -1.51855,0.01674 -2.27787,0.0199c-1.66665,0.00694 -3.33333,0 -5,0c-5.25441,0 -10.56651,-0.22379 -15.79765,0.3148c-0.82266,0.2325 -1.62273,0.56962 -2.468,0.69751c-0.73239,0.1108 -1.48143,0.00984 -2.22215,0.01208c-1.42682,0.00431 -2.85366,0 -4.28048,0c-2.5,0 -5,0.00006 -7.5,0c-2.19586,-0.00005 -4.45427,0.0573 -6.64317,-0.11633c-0.92147,-0.07309 -1.86388,-0.09311 -2.75022,-0.35553c-0.82256,-0.24353 -1.5052,-0.83526 -2.3065,-1.14159c-0.5929,-0.22666 -1.2344,-0.29648 -1.85086,-0.44774c-0.7756,-0.19031 -1.53655,-0.45191 -2.3253,-0.57697c-0.8383,-0.13291 -1.70625,-0.02962 -2.5389,-0.19425c-0.80244,-0.15865 -1.52307,-0.63732 -2.33045,-0.76851c-0.75787,-0.12314 -1.53557,0.01286 -2.30338,0.01556c-0.70325,0.00248 -1.4065,0 -2.10976,0c-2.36992,0 -4.73984,0 -7.10976,0c-16.41057,0 -32.82113,0 -49.2317,0c-1.47325,-0.00029 -2.94777,-0.02028 -4.41845,-0.10738c-0.88558,-0.05245 -1.78439,0.00074 -2.65647,-0.16199c-0.80765,-0.15071 -1.52985,-0.64136 -2.34121,-0.77058c-0.81169,-0.12928 -1.64739,0.08124 -2.46577,0.00496c-0.48584,-0.04528 -0.94529,-0.24242 -1.4171,-0.36686c-0.80577,-0.21253 -1.61045,-0.42923 -2.41562,-0.64405c-1.58035,-0.42163 -3.17733,-0.78455 -4.78364,-1.09284c-0.77986,-0.14968 -1.54841,-0.3774 -2.33898,-0.45219c-0.79057,-0.07479 -1.58818,0.00465 -2.38227,0.00556c-2.49999,0.00284 -5,0 -7.5,0c-5.65447,0 -11.30894,0 -16.96341,0c-16.98374,0 -33.96747,0 -50.95121,0c-16.82114,0 -33.64228,0 -50.46341,0c-3.07317,0 -6.14634,0 -9.21951,0c-0.83334,0 -1.66667,0.00133 -2.5,0c-0.7284,-0.00116 -1.46147,0.07505 -2.18518,-0.00746c-1.10639,-0.12614 -3.5086,-0.87926 -4.60976,-1.02439c-0.52319,-0.06896 -1.05541,0.0065 -1.58312,0.00746c-1.66666,0.00305 -3.33334,0.00344 -5,0c-0.88764,-0.00183 -1.77961,0.07706 -2.66291,-0.01066c-1.31484,-0.13057 -2.51923,-0.85219 -3.82926,-1.02439c-0.77239,-0.10153 -1.55806,0.00894 -2.3371,0.01066c-0.83333,0.00183 -1.66666,0 -2.5,0c-4.05691,0 -8.11382,0 -12.17073,0c-4.45935,0 -8.9187,0 -13.37805,0c-1.53659,0 -3.07318,0.00548 -4.60976,0c-0.76741,-0.00274 -1.54409,-0.13496 -2.30219,-0.01575c-1.6191,0.2546 -3.0531,1.27279 -4.67073,1.53658c-0.84268,0.13742 -1.712,-0.07822 -2.56142,0.00829c-1.56099,0.15897 -3.04086,0.80506 -4.59477,1.02266c-1.39542,0.1954 -2.82316,-0.02921 -4.22581,0.1048c-0.83454,0.07973 -1.64586,0.33916 -2.48101,0.41233c-0.75505,0.06615 -1.51589,0.00358 -2.27383,0.00426c-2.36991,0.00212 -4.73984,0 -7.10976,0c-5.6748,0 -11.34959,0 -17.02439,0c-1.66666,0 -3.33334,0.00118 -5,0c-0.86494,-0.00061 -1.73222,0.05996 -2.59482,-0.0036c-0.79964,-0.05891 -1.59488,-0.19029 -2.37791,-0.36279c-0.7831,-0.17252 -1.51803,-0.54699 -2.31041,-0.67009c-1.41935,-0.2205 -2.13239,0.26676 -3.49197,-0.15076c-0.21101,-0.0648 -4.42622,-1.94458 -4.74234,-2.07977c-0.68692,-0.29377 -1.34151,-0.69923 -2.07259,-0.85311c-0.61111,-0.12863 -1.24888,0.01934 -1.87337,0.02256c-2.12962,0.01099 -4.25947,-0.00096 -6.38914,0.00614c-0.79964,0.01551 -3.92325,0.03672 -4.76322,0.20359c-1.04819,0.20824 -2.43476,0.85176 -3.47307,1.28231c-0.84606,0.35083 -1.64468,0.85862 -2.5416,1.04417c-0.83152,0.17203 -1.70747,-0.11615 -2.54739,0.00863c-0.66539,0.09885 -1.27193,0.43846 -1.90933,0.65346c-0.78963,0.26635 -1.58114,0.52704 -2.37171,0.79057c-1.54995,0.51665 -3.12991,0.95016 -4.65107,1.54625c-0.36338,0.14239 -0.69085,0.36335 -1.03688,0.54385c-0.10169,0.05304 -4.46335,2.32313 -4.51665,2.34621c-0.75953,0.32879 -1.58897,0.47965 -2.34445,0.81765c-0.6808,0.30459 -3.97118,2.31633 -4.54031,2.48998c-0.75166,0.22933 -1.57255,0.05255 -2.35332,0.14185c-0.80353,0.09191 -1.59529,0.26736 -2.39294,0.40103c0,0 -1.23299,0.20549 -1.43849,-1.0275c-0.2055,-1.23299 1.02749,-1.43849 1.02749,-1.43849c0.84634,-0.14033 1.68606,-0.32916 2.53903,-0.42097c0.64135,-0.06903 1.31676,0.12609 1.93422,-0.06054c0.70685,-0.21364 1.27695,-0.7421 1.92034,-1.1045c0.75708,-0.42644 1.4884,-0.90568 2.28092,-1.26195c0.76525,-0.34401 1.60538,-0.49909 2.37577,-0.83144c1.50288,-0.64835 2.90178,-1.51517 4.35456,-2.26914c0.40477,-0.21007 0.79133,-0.46043 1.21548,-0.62797c0.08798,-0.03475 4.68834,-1.56689 4.83575,-1.61603c0.07384,-0.02461 4.54223,-1.51994 4.67116,-1.54004c0.80778,-0.12593 1.65044,0.16643 2.45261,0.00863c0.73672,-0.14493 1.37595,-0.60154 2.066,-0.8975c1.17744,-0.505 2.78068,-1.19573 3.95543,-1.43033c1.08643,-0.21697 4.09221,-0.22933 5.22304,-0.25161c2.13911,-0.00722 4.27867,-0.01626 6.41777,-0.0063c0.78208,0.00364 1.58057,-0.13729 2.34614,0.02255c0.90022,0.18796 1.72039,0.65134 2.56979,1.00384c0.77659,0.32228 1.53915,0.67741 2.30698,1.02004c0.69992,0.31232 1.36783,0.70634 2.09623,0.94479c0.33188,0.10865 0.69527,0.07309 1.04434,0.08332c0.72088,0.02113 1.45068,-0.09854 2.16356,0.0107c0.85483,0.13099 1.65335,0.51433 2.49721,0.70352c0.66933,0.15006 1.34969,0.26479 2.03398,0.31239c0.7998,0.05563 1.60345,-0.00301 2.40519,-0.0036c1.66666,-0.00123 3.33334,0 5,0c5.6748,0 11.34959,0 17.02439,0c2.36991,0 4.73984,-0.00221 7.10976,0c0.68921,0.00065 1.38117,0.06585 2.06763,0.00426c0.82501,-0.07402 1.62631,-0.33188 2.45096,-0.40966c0.85888,-0.08101 1.72478,-0.04532 2.58723,-0.06556c0.52399,-0.01229 1.05316,0.04178 1.57207,-0.03204c0.43443,-0.06181 4.17716,-0.97931 4.62474,-1.02612c0.80846,-0.08456 1.63557,0.13448 2.43858,0.00829c1.61912,-0.25445 3.05175,-1.28127 4.67074,-1.53659c0.88831,-0.14008 1.79852,-0.01281 2.6978,-0.01575c1.53657,-0.00504 3.07317,0 4.60976,0c4.45935,0 8.9187,0 13.37805,0c4.05691,0 8.11382,0 12.17073,0c0.2053,0 5.05642,-0.00333 5.1629,0.01066c0.88007,0.11568 1.71771,0.44849 2.57521,0.67788c0.41896,0.11208 0.82226,0.30613 1.25406,0.34651c0.77566,0.07254 1.55806,-0.00894 2.33709,-0.01066c1.66666,-0.00368 3.33334,-0.00285 5,0c0.61864,0.00106 1.24236,-0.07175 1.85591,0.00746c1.56111,0.20155 3.04592,0.84518 4.60976,1.02439c0.63332,0.07258 1.27492,-0.00638 1.91239,-0.00746c0.83333,-0.00141 1.66666,0 2.5,0c3.07317,0 6.14634,0 9.21951,0c16.82113,0 33.64227,0 50.46341,0c16.98374,0 33.96747,0 50.95121,0c5.65447,0 11.30894,0 16.96341,0c2.5,0 5.00001,-0.00271 7.5,0c0.87257,0.00095 1.74903,-0.07662 2.61773,0.00556c0.8687,0.08218 1.71508,0.32259 2.57233,0.48543c1.66576,0.31642 3.32049,0.69633 4.95888,1.13287c0.80524,0.21456 1.61105,0.42702 2.41562,0.64405c0.36658,0.09888 0.71951,0.27152 1.09783,0.30367c0.84171,0.07152 1.7,-0.12792 2.53423,0.00496c0.83456,0.13293 1.58126,0.62443 2.41137,0.78279c0.76574,0.14607 1.55704,0.0802 2.33543,0.12271c1.42366,0.07777 2.85031,0.10362 4.2761,0.10333c16.41057,0 32.82113,0 49.2317,0c2.36992,0 4.73984,0 7.10976,0c0.44689,0 4.68092,-0.00406 4.80638,0.01556c0.83851,0.13112 1.58954,0.62025 2.42212,0.78486c0.80236,0.15864 1.6396,0.04869 2.44723,0.1779c0.85717,0.13714 1.68697,0.41022 2.52972,0.61834c0.70596,0.17433 1.43644,0.2712 2.11638,0.52899c0.7563,0.28674 1.39273,0.8561 2.16564,1.09448c0.70936,0.21877 1.47165,0.20548 2.21229,0.25571c2.13661,0.1449 4.31757,0.10957 6.45879,0.10953c2.5,-0.00006 5,0 7.5,0c1.42683,0 2.85366,-0.00472 4.28048,0c0.62514,0.00207 1.25788,0.10937 1.87541,0.01208c0.8019,-0.12633 1.55974,-0.45074 2.33962,-0.67611c0.88259,-0.09343 1.762,-0.22456 2.64777,-0.2803c0.8496,-0.05347 1.70227,-0.03151 2.55341,-0.04702c3.68962,-0.06718 7.38142,-0.03305 11.0716,-0.03305c1.66667,0 3.33335,-0.00635 5,0c0.9074,0.00346 1.82859,-0.13809 2.72213,0.01989c0.83625,0.14786 1.56365,0.68571 2.38943,0.88388c0.60225,0.14453 1.24144,0.03754 1.85319,0.13427c1.53893,0.24335 3.01397,0.84081 4.56189,1.0182c1.49252,0.17104 3.00886,-0.11742 4.50685,-0.00389c0.06091,0.00462 4.91767,0.74598 5.03681,0.76425c0.56101,0.08602 1.11625,0.22459 1.6827,0.26014c1.50215,0.09427 3.0102,-0.00357 4.5153,-0.00357c2.49986,0 5.00018,-0.01265 7.5,0c0.652,0.0033 1.31942,-0.11893 1.9559,0.02255c0.81674,0.18156 1.51167,0.76193 2.3312,0.93045c0.74238,0.15265 1.51581,0.00736 2.27368,0.01645c0.19434,0.00233 5.26587,0.08619 5.27691,0.08882c0.82745,0.19755 1.45781,0.91798 2.27354,1.15942c0.7225,0.21385 1.50246,0.11661 2.25323,0.1804c0.60086,0.05106 1.19915,0.13828 1.80163,0.16414c1.4961,0.06422 2.99497,-0.00127 4.49245,-0.00127c2.5,0 5,0 7.5,0c1.27642,0 2.55286,-0.00547 3.82927,0c0.7678,0.00329 1.54549,0.13857 2.30338,0.01556c0.80066,-0.12995 1.51673,-0.59612 2.31023,-0.76434c0.65973,-0.13986 1.34492,-0.10206 2.01739,-0.15309c1.72075,-1.80223 3.65632,-1.22025 5.70321,-2.07931c1.36547,-0.57308 2.23105,-2.13402 3.67457,-2.59334c1.93347,-0.61523 4.47753,-0.00481 6.43849,-0.92978c1.23602,-0.58302 2.15902,-1.6881 3.33376,-2.38642l1.66363,-0.31037c0,0 1.23157,-0.21387 1.44544,1.0177z" stroke-width="0.5"/></g></g></svg>