<svg version="1.1" xmlns="http://www.w3.org/2000/svg" xmlns:xlink="http://www.w3.org/1999/xlink" width="49.92074" height="49.92074" viewBox="0,0,49.92074,49.92074"><g transform="translate(-295.03963,-155.03963)"><g stroke-miterlimit="10"><path d="M295.03963,204.96037v-49.92074h49.92074v49.92074z" fill="#ff00ff" stroke="none" stroke-width="0" stroke-linecap="butt"/><path d="M303.52211,195.80663l16.47789,-32.07304" fill="none" stroke="#000000" stroke-width="2.5" stroke-linecap="round"/><path d="M321.76549,193.45265c0,0 11.61012,-10.86523 9.0937,-17.2333c-2.2626,-5.72576 -11.44769,-14.83974 -11.44769,-14.83974" fill="none" stroke="#000000" stroke-width="1.5" stroke-linecap="round"/><path d="M320.70107,188.64073c0,1 -1,1 -1,1l-0.15823,-0.10557c-0.90732,0.44506 -2.5591,2.20065 -3.69406,2.84381c2.0708,1.51299 2.65455,0.8466 4.80816,-0.48634c0,0 0.85166,-0.5241 1.37576,0.32756c0.5241,0.85166 -0.32756,1.37576 -0.32756,1.37576c-2.9042,1.7753 -4.39058,2.4166 -7.39999,0.11765l-0.95547,-0.57328c-0.29957,-0.17273 -0.50122,-0.49628 -0.50122,-0.86692c0,-0.51225 0.38515,-0.93453 0.88166,-0.99307l0.439,-0.05853c1.49587,-1.14119 2.72741,-2.58622 4.47929,-3.47548l1.05266,-0.10557c0,0 1,0 1,1z" fill="#000000" stroke="none" stroke-width="0.5" stroke-linecap="butt"/></g></g></svg>