<svg version="1.1" xmlns="http://www.w3.org/2000/svg" xmlns:xlink="http://www.w3.org/1999/xlink" width="38.41605" height="31.31222" viewBox="0,0,38.41605,31.31222"><defs><radialGradient cx="320" cy="140.23075" r="40.70324" gradientUnits="userSpaceOnUse" id="color-1"><stop offset="0" stop-color="#fafafa"/><stop offset="1" stop-color="#ffffff"/></radialGradient><radialGradient cx="306.00001" cy="128.14108" r="8.13201" gradientUnits="userSpaceOnUse" id="color-2"><stop offset="0" stop-color="#3f3f3f"/><stop offset="1" stop-color="#000000"/></radialGradient><radialGradient cx="317.66668" cy="128.14108" r="8.13201" gradientUnits="userSpaceOnUse" id="color-3"><stop offset="0" stop-color="#3f3f3f"/><stop offset="1" stop-color="#000000"/></radialGradient><radialGradient cx="319.97524" cy="163.30372" r="19.20802" gradientUnits="userSpaceOnUse" id="color-4"><stop offset="0" stop-color="#3f3f3f"/><stop offset="1" stop-color="#000000"/></radialGradient><radialGradient cx="312.5" cy="158.93961" r="9.6606" gradientUnits="userSpaceOnUse" id="color-5"><stop offset="0" stop-color="#ff4141"/><stop offset="1" stop-color="#ff0000"/></radialGradient></defs><g transform="translate(-300.76721,-148.67887)"><g stroke="none" stroke-width="0" stroke-miterlimit="10"><path d="" fill="url(#color-1)"/><g><path d="" fill="url(#color-2)"/><path d="" fill="url(#color-3)"/></g><path d="M339.18146,151.05593c-1.95508,17.79017 -9.8006,28.93515 -19.18146,28.93515c-9.46281,0 -17.36334,-11.47214 -19.23135,-29.49615c-0.2743,-2.64664 38.71948,-2.32328 38.41281,0.46724z" fill="url(#color-4)"/><path d="M312.5,168.91015c-7.96915,0.01797 -0.94503,-13.04155 -0.81825,-13.94789c0.06518,-0.46592 -3.64959,-4.77096 -3.13128,-5.95469c0.09589,-0.21899 3.82758,-0.03851 3.94953,-0.03851c0.04282,0 3.86635,-0.16238 3.93625,0.08512c0.34001,1.20407 -3.03459,5.30178 -2.92607,6.01998c0.14601,0.9664 7.043,13.81783 -1.01018,13.83599z" fill="url(#color-5)"/></g></g></svg>