<svg version="1.1" xmlns="http://www.w3.org/2000/svg" xmlns:xlink="http://www.w3.org/1999/xlink" width="576.16628" height="184.38949" viewBox="0,0,576.16628,184.38949"><g transform="translate(-31.91686,-87.80525)"><g fill="#000000" stroke="none" stroke-width="0.5" stroke-miterlimit="10"><path d="M215.22274,104.30256c0.12989,1.24323 -1.11334,1.37312 -1.11334,1.37312l-2.10379,0.21236c-1.29664,0.42825 -2.64383,0.8067 -4.00888,0.84319c-0.79149,0.01185 -1.58839,-0.05764 -2.37447,0.03556c-0.78608,0.09319 -1.5444,0.34816 -2.31696,0.52066c-0.81375,0.1817 -1.62777,0.36218 -2.44194,0.54195c-3.26144,0.72012 -6.52694,1.41147 -9.79838,2.08453c-2.48103,0.51044 -4.95991,0.87676 -7.46564,1.24382c-0.79754,0.11683 -1.60472,0.1799 -2.39279,0.34914c-0.78807,0.16924 -1.54999,0.44315 -2.32517,0.66406c-3.21872,0.91729 -6.43628,1.92095 -9.69221,2.69859c-2.20153,0.52581 -4.46564,0.79574 -6.67542,1.28585c-0.27649,0.06132 -0.55235,0.1253 -0.82773,0.19126c-0.04316,0.25709 -0.07907,0.50975 -0.10425,0.75594c-0.06262,0.61235 -0.05264,4.64726 -0.14736,5.11781c-0.17857,0.88719 -0.63894,1.69349 -0.96795,2.53655c-0.18551,0.47535 -0.49971,0.91388 -0.57552,1.41848c-0.11238,0.74804 0.01839,1.51278 0.02149,2.26921c0.0035,0.8549 0.04259,1.71095 -0.00168,2.56471c-0.04426,0.85376 -0.17541,1.70079 -0.26353,2.55114c-0.17179,1.65779 -0.34411,3.31552 -0.51702,4.9732c-0.081,0.77647 -0.20421,1.54965 -0.24384,2.32932c-0.0412,0.81071 0.0014,1.62353 0.00168,2.43528c0.00078,2.27727 0.00123,4.55452 -0.00505,6.83177c-0.15411,0.85701 -0.3067,1.71429 -0.46233,2.57102c-0.1428,0.78608 -0.3554,1.56223 -0.43295,2.3574c-0.07755,0.79517 -0.01974,1.59776 -0.0307,2.39663c-0.01143,0.83325 -0.0243,1.66649 -0.03646,2.49974c-0.04325,2.96475 -0.05691,5.92708 -0.05691,8.89222c0,1.4324 0.10246,2.86863 -0.00242,4.29718c-0.06291,0.85692 -0.21115,1.70543 -0.31732,2.55807c-0.00666,0.0535 -0.62181,4.97607 -0.62603,5.00259c-0.00411,0.02584 -0.94602,4.89785 -0.95617,4.95011c-0.15222,0.7836 -0.37389,1.55667 -0.45886,2.35039c-0.08497,0.79372 -0.03199,1.59619 -0.04912,2.39426c-0.01788,0.83314 -0.03727,1.66625 -0.0559,2.49938c-0.03223,1.44127 0.00848,2.88608 -0.09792,4.32377c-0.06286,0.8494 -0.18731,1.69312 -0.28096,2.53968c-0.52117,4.6906 -1.34629,9.42188 -1.67395,14.1257c-0.66119,9.49201 -0.0911,19.20312 -0.0911,28.71496v2.5c0,0.69036 -0.55964,1.25 -1.25,1.25c-0.69036,0 -1.25,-0.55964 -1.25,-1.25v-2.5c0,-0.34071 -0.00072,-0.68167 -0.00208,-1.02286c-0.24131,-1.09853 -0.16691,-2.29089 -0.42927,-3.70997c-0.60413,-3.26768 -1.31066,-6.51228 -1.99899,-9.76319l-0.10352,-0.48895c0,0 -0.25893,-1.22289 0.96396,-1.48182c0.79206,-0.16771 1.17973,0.28623 1.35458,0.62689c-0.03697,-4.36846 0.0117,-8.73082 0.31248,-13.04877c0.33006,-4.73836 1.15821,-9.50321 1.6832,-14.22807c0.0904,-0.80991 0.21073,-1.61704 0.27119,-2.42974c0.04241,-0.56994 0.02451,-1.14278 0.03713,-1.71416c0.03679,-1.66626 0.07309,-3.33254 0.1118,-4.99875c0.02017,-0.86818 -0.02975,-1.74101 0.06269,-2.60449c0.09244,-0.86348 0.32602,-1.70596 0.49009,-2.55873c0.31227,-1.62303 0.68225,-3.23583 0.94174,-4.86813c0.25949,-1.6323 0.40851,-3.28026 0.61432,-4.92019c0.10055,-0.80116 0.24304,-1.5981 0.30285,-2.40332c0.10226,-1.37682 -0.00241,-2.76122 -0.00241,-4.14184c0,-2.97728 0.01375,-5.95178 0.05717,-8.92868c0.00194,-0.13271 0.07208,-5.03468 0.0787,-5.10257c0.01463,-0.15003 0.84373,-4.63936 0.89357,-4.91028c-0.00692,-2.20242 -0.00578,-4.40483 -0.00505,-6.60726c0.00028,-0.85491 -0.04176,-1.71091 0.00168,-2.56471c0.16757,-3.29361 0.85367,-6.56046 1.02439,-9.85366c0.02771,-0.53453 -0.04172,-4.7758 0.01981,-5.16608c0.0682,-0.43255 1.49332,-3.70691 1.54964,-3.98675c0.15031,-0.74675 0.02312,-1.5233 0.04047,-2.28483c0.01846,-0.81039 -0.01287,-1.62426 0.05554,-2.43158c-0.4599,0.12017 -0.91994,0.2398 -1.38086,0.35567c-0.78877,0.19778 -1.58816,0.3572 -2.3663,0.59336c-1.57556,0.47817 -3.10011,1.11063 -4.6513,1.66273c-0.82202,0.29257 -1.62388,0.65042 -2.46697,0.87517c-0.65696,0.17513 -1.34285,0.21401 -2.01451,0.31951c-0.82324,0.12931 -1.64677,0.25673 -2.47019,0.38491c-2.43015,0.37828 -4.83965,0.85251 -7.22196,1.47307c-0.30585,0.07967 -4.74214,1.4059 -4.93579,1.43369c-0.11581,0.01662 -4.95492,0.01268 -5.17755,0.01268c-3.58536,0 -7.17073,0 -10.7561,0c0,0 -1.25,0 -1.25,-1.25c0,-1.25 1.25,-1.25 1.25,-1.25c3.58536,0 7.17073,0 10.7561,0c0.83334,0 1.66667,-0.00219 2.5,0c0.77416,0.00204 1.55614,0.12263 2.32245,0.01267c0.76631,-0.10996 1.4828,-0.44569 2.22518,-0.66524c0.81119,-0.2399 1.61692,-0.49983 2.43552,-0.71307c2.46328,-0.64166 4.95456,-1.13208 7.46724,-1.52399c0.82338,-0.12843 1.64663,-0.25767 2.47019,-0.38491c0.59444,-0.09184 1.20282,-0.11664 1.78381,-0.27235c0.76707,-0.20557 1.49417,-0.53856 2.24173,-0.80651c0.07258,-0.02601 4.72955,-1.68954 4.76612,-1.70064c0.8167,-0.24786 1.65521,-0.4171 2.48282,-0.62566c0.0225,-0.00566 1.25186,-0.31475 2.47129,-0.62126c0.17513,-0.78755 0.3451,-1.57573 0.41785,-2.37722c0.08065,-0.88844 -0.17182,-1.8068 0.02849,-2.6761c0.19296,-0.8374 0.74861,-1.54707 1.12292,-2.32061c0,0 0.55901,-1.11804 1.67705,-0.55902c1.11803,0.55902 0.55902,1.67705 0.55902,1.67705c-0.30862,0.59232 -0.78309,1.12449 -0.92586,1.77696c-0.1656,0.75678 0.09611,1.55217 0.02849,2.3239c-0.0418,0.47704 -0.12635,0.97907 -0.22811,1.49092c2.11633,-0.45207 4.27906,-0.71886 6.38314,-1.22202c3.21651,-0.76918 6.3931,-1.76525 9.57401,-2.66807c0.82792,-0.23498 1.64268,-0.52299 2.48412,-0.70369c0.84144,-0.1807 1.70261,-0.25262 2.55401,-0.37827c2.45853,-0.36284 4.89072,-0.71768 7.3253,-1.21908c3.25963,-0.67132 6.5136,-1.35953 9.76341,-2.07708c0.15867,-0.03503 4.91958,-1.09406 5.00357,-1.10402c0.869,-0.10303 1.74983,-0.03504 2.62475,-0.05256c1.2038,-0.00682 2.38369,-0.40316 3.52463,-0.78712l2.37231,-0.25529c0,0 1.24323,-0.12989 1.37312,1.11335z"/><path d="M230.51026,137.07242c-0.88388,-0.88389 0,-1.76777 0,-1.76777l1.42992,-1.29536c6.45594,-0.30487 12.29425,2.19 17.16139,6.44718c0.83287,0.29098 1.77465,0.36872 2.49862,0.87292c0.32323,0.22511 2.50891,3.49004 2.74042,3.74687c1.05833,1.17415 2.52409,1.92901 3.59885,3.08815c0.41854,0.4514 0.61143,1.08007 1.02439,1.53658c1.06546,1.17785 2.56168,1.91569 3.61335,3.10587c0.40676,0.46033 0.62427,1.05819 0.9302,1.59089c0.43935,0.76502 0.93244,1.50276 1.30559,2.30217c0.52293,1.1203 0.47255,2.45926 1.0284,3.5636c0.35282,0.70098 0.98605,1.22337 1.4267,1.87274c0.31952,0.47087 0.56809,0.98617 0.84907,1.481c0.44257,0.77939 0.99413,1.50731 1.32157,2.34164c0.30086,0.76661 0.36573,1.60595 0.54327,2.41012c0.18933,0.85758 0.4627,1.70195 0.55732,2.57507c0.09462,0.87312 0.00593,1.75644 0.00727,2.63467c0.00362,2.36447 -0.00066,4.72878 -0.01412,7.09321c-0.00935,1.55652 0.03982,3.66164 -0.22526,5.19898c-0.14828,0.85998 -0.45468,1.68508 -0.68346,2.52723c-0.35363,1.30174 -0.71913,2.60148 -1.14553,3.88122c-0.06626,0.19886 -1.58919,4.7767 -1.63801,4.8847c-0.26596,0.58829 -0.68527,1.09438 -1.03011,1.64018c-0.88221,1.39631 -1.82176,2.7575 -2.65607,4.18294c-0.83431,1.42544 -1.56384,2.90968 -2.3465,4.36413c-0.38746,0.72002 -0.80281,1.4257 -1.16277,2.15986c-0.18768,0.38279 -1.92898,4.39666 -2.08729,4.67195c-0.28823,0.50119 -0.72113,0.90391 -1.08418,1.35387c-0.07905,0.09796 -3.17316,3.91378 -3.21636,3.95902c-0.59867,0.62706 -1.28961,1.15907 -1.93925,1.73316c-0.68742,0.60748 -1.27338,1.35988 -2.07189,1.8115c-0.85658,0.48445 -1.86516,0.62842 -2.79774,0.94263c-2.30487,0.01938 -4.61511,0.05617 -6.91974,0.01614c-0.99314,-0.01725 -2.04956,0.25693 -2.97836,-0.09515c-0.7979,-0.30246 -1.21888,-1.19712 -1.87378,-1.74413c-0.57452,-0.47988 -1.20633,-0.8867 -1.80843,-1.33148c-1.3998,-1.03406 -3.04733,-2.09129 -4.06018,-3.56085c-0.51558,-0.74806 -0.75511,-1.65275 -1.12568,-2.48227c-0.36162,-0.80947 -0.7873,-1.59463 -1.07085,-2.43464c-0.1611,-0.47727 -0.17132,-0.99279 -0.25383,-1.48971c-0.1365,-0.82208 -0.26947,-1.64474 -0.40322,-2.46727c-0.13915,-0.85581 -0.34532,-1.70353 -0.41547,-2.56774c-0.00541,-0.06666 -0.0041,-4.97095 -0.0041,-5.10113c0,-0.3752 -0.00137,-4.63294 0.00508,-4.72236c0.04165,-0.5775 0.20347,-1.13998 0.30668,-1.70971c0.14855,-0.81999 0.29907,-1.63961 0.4486,-2.45942c0.29934,-1.64109 0.60162,-3.28164 0.90685,-4.92164c0.15248,-0.81927 0.30407,-1.6387 0.45744,-2.4578c0.14632,-0.78148 0.3694,-1.55215 0.44162,-2.34392c0.07635,-0.83704 -0.08557,-1.68563 0.00218,-2.52155c0.01098,-0.10461 1.03063,-4.66405 1.03841,-4.7041c0.26649,-1.37292 0.42063,-2.76529 0.6373,-4.14694c0.13913,-0.88712 0.18368,-1.79517 0.42456,-2.66022c0.14934,-0.53629 0.48658,-1.00145 0.73394,-1.50018c0.37027,-0.74656 0.74513,-1.49083 1.11893,-2.23562c0.35646,-0.71026 0.78429,-1.3887 1.07187,-2.12954c0.29534,-0.76085 0.41016,-1.5813 0.66906,-2.3553c0.20642,-0.61709 0.47788,-1.21052 0.72508,-1.81244c0.3569,-0.86904 0.52928,-1.84441 1.08716,-2.60031c0.54421,-0.73735 1.43366,-1.14303 2.12209,-1.74792c1.45617,-1.27947 1.23785,-1.71223 3.61963,-2.33394c0.75349,-0.19668 1.55732,-0.02229 2.33597,-0.03344c0,0 1.25,0 1.25,1.25c0,1.25 -1.25,1.25 -1.25,1.25c-0.5872,-0.01114 -1.18976,-0.16735 -1.76159,-0.03343c-1.59155,0.37273 -1.48023,0.86677 -2.52671,1.76363c-0.56982,0.48835 -1.33263,0.7747 -1.78225,1.37554c-0.43582,0.58241 -0.50986,1.36263 -0.77395,2.04042c-0.22065,0.56629 -0.48758,1.11522 -0.68021,1.69165c-0.26955,0.80666 -0.39538,1.65999 -0.70454,2.45232c-0.02573,0.06594 -2.22044,4.44975 -2.28493,4.57732c-0.19286,0.38151 -0.47611,0.72725 -0.58747,1.13997c-0.20025,0.7422 -0.22123,1.52148 -0.33572,2.28164c-0.2124,1.41013 -0.37978,2.82831 -0.65119,4.22828c-0.16122,0.8316 -0.36564,1.65424 -0.55061,2.48089c-0.15182,0.67849 -0.38963,1.34279 -0.45977,2.03453c-0.08334,0.82193 0.07891,1.65587 0.00218,2.47844c-0.00713,0.07638 -0.90362,4.88402 -0.93069,5.02946c-0.30468,1.63706 -0.60642,3.27466 -0.90521,4.9128c-0.14953,0.81981 -0.29803,1.6398 -0.4486,2.45942c-0.09105,0.49563 -0.24108,0.98363 -0.27627,1.48632c-0.10469,1.49539 0.00509,2.9981 0.00509,4.49715c0,0.83334 0.0007,1.66666 0,2.5c-0.00067,0.79962 -0.0688,1.60187 -0.0041,2.39887c0.0647,0.797 0.26132,1.57775 0.39095,2.3668c0.13509,0.82231 0.27109,1.64448 0.40321,2.46727c0.06298,0.39223 0.05262,0.80222 0.1821,1.17779c0.25427,0.7375 0.6446,1.42085 0.95985,2.13442c0.30639,0.69353 0.48014,1.45882 0.90501,2.08678c0.73544,1.08698 2.48243,2.22276 3.48168,2.9608c0.6521,0.48164 1.34574,0.91204 1.95417,1.44778c0.44786,0.39435 0.64214,1.11557 1.19939,1.32904c0.62999,0.24133 1.34717,-0.08096 2.02165,-0.09515c2.1703,-0.04567 4.34857,-0.00692 6.51928,0.01614c0.64856,-0.21284 1.35956,-0.28866 1.94568,-0.63851c0.64346,-0.38408 1.10419,-1.01346 1.66139,-1.51454c0.59464,-0.53474 1.2418,-1.01445 1.79405,-1.59287c0.55224,-0.57842 1.00488,-1.24435 1.50813,-1.86586c0.52441,-0.64765 1.0481,-1.29587 1.57483,-1.94163c0.29631,-0.36327 0.66261,-0.67789 0.89429,-1.08543c0.80444,-1.41498 1.25754,-3.00471 1.9741,-4.46616c0.37376,-0.76232 0.80372,-1.49576 1.20578,-2.24354c0.02786,-0.05182 2.37564,-4.41713 2.3906,-4.44269c0.01332,-0.02276 2.67303,-4.21294 2.70296,-4.25986c0.29271,-0.45886 0.6601,-0.87696 0.88285,-1.37356c0.32031,-0.71412 0.48761,-1.48745 0.73369,-2.23043c0.26201,-0.79107 0.52695,-1.58117 0.79057,-2.37171c0.41209,-1.23577 0.76126,-2.49204 1.10534,-3.74845c0.20972,-0.7658 0.49563,-1.51441 0.63213,-2.29658c0.22685,-1.29996 0.18159,-3.49184 0.18854,-4.78607c0.01344,-2.35974 0.01024,-4.71923 0.01408,-7.07898c0.00128,-0.78844 0.09223,-1.58147 0.00728,-2.36532c-0.08495,-0.78385 -0.34614,-1.53844 -0.51383,-2.30885c-0.14838,-0.6817 -0.17876,-1.39827 -0.43437,-2.04743c-0.28225,-0.71685 -0.77483,-1.33184 -1.15913,-1.99956c-0.25802,-0.44832 -0.47884,-0.9195 -0.7678,-1.34852c-0.4927,-0.73149 -1.18048,-1.33761 -1.57329,-2.12725c-0.40433,-0.81283 -0.52555,-1.73797 -0.78256,-2.60867c-0.10752,-0.36422 -0.14833,-0.75286 -0.31099,-1.09602c-0.33602,-0.70887 -0.78766,-1.35693 -1.1751,-2.03904c-0.23316,-0.41048 -0.37135,-0.88729 -0.68667,-1.23863c-1.04191,-1.1609 -2.50546,-1.88864 -3.55738,-3.04048c-0.41512,-0.45455 -0.60757,-1.0836 -1.02439,-1.53659c-1.06131,-1.15341 -2.52138,-1.89491 -3.57187,-3.05819c-0.59221,-0.65579 -1.04364,-1.42637 -1.5482,-2.15176c-0.28946,-0.41615 -0.40703,-0.99783 -0.83334,-1.27209c-0.65986,-0.42452 -1.49653,-0.47215 -2.2448,-0.70823c-4.5451,-3.82713 -9.15646,-5.79013 -14.97324,-6.31314l-0.61886,0.75342c0,0 -0.88389,0.88388 -1.76777,0z"/><path d="M301.85146,146.43244c0,-1.25 1.25,-1.25 1.25,-1.25l2.00146,0.0009c1.1781,-0.07378 2.23967,-0.76696 3.3963,-1.00273c2.71279,-0.55299 4.09041,0.23554 6.73918,-1.01683c1.05636,0.02447 2.16165,-0.2453 3.16908,0.07341c0.90669,0.28684 1.53865,1.11822 2.31838,1.66263c1.00344,0.7006 2.37019,1.3843 2.97492,2.54748c0.23274,0.44767 0.03728,1.01857 0.17762,1.50322c0.22224,0.76749 0.64726,1.46364 0.90089,2.22134c0.19783,0.59098 0.30187,1.20933 0.45012,1.81465c0.21017,0.85817 0.51716,1.69892 0.62514,2.57583c0.10103,0.82045 -0.07464,1.65644 -0.0026,2.47995c0.03245,0.37089 0.21264,0.71364 0.31334,1.07207c0.24077,0.85704 0.58953,1.69238 0.71105,2.57427c0.01478,0.10728 0.0117,4.36095 0.0117,4.78039c0,2.94309 0,5.88618 0,8.82927c0,1.66667 0.00145,3.33333 0,5c-0.00076,0.86843 0.04798,1.73844 -0.00444,2.60529c-0.02929,0.48424 -0.15996,0.95698 -0.23993,1.43547c-0.27621,1.62201 -0.63783,3.23169 -0.83023,4.86577c-0.09799,0.83227 -0.05952,1.67743 -0.16752,2.50846c-0.00647,0.04978 -0.94343,4.88797 -0.9625,4.9859c-0.16677,0.85664 -0.25719,1.732 -0.50298,2.56939c-0.24387,0.83083 -0.64859,1.60581 -0.9597,2.41387c-0.46935,1.21905 -0.89001,2.4563 -1.3351,3.68442c-0.56581,1.56118 -1.11981,3.12668 -1.66321,4.6958c-0.27911,0.80596 -0.52152,1.62561 -0.83799,2.41764c-0.0129,0.03228 -2.099,4.61614 -2.1168,4.65132c-0.00948,0.01874 -2.46219,4.40827 -2.47974,4.43744c-0.48005,0.79802 -0.85974,1.68339 -1.50827,2.35174c-0.64116,0.66077 -1.51302,1.04994 -2.28272,1.55518c-0.81036,0.53193 -1.53903,1.24397 -2.45682,1.55591c-1.56455,0.53176 -3.90401,-1.04702 -4.93713,-1.53282c-0.04576,-0.77196 0.13451,-1.5919 -0.13727,-2.31588c-0.20972,-0.55867 -0.8274,-0.86058 -1.22291,-1.30742c-0.58209,-0.65764 -1.19384,-1.29399 -1.70913,-2.00518c-0.31346,-0.43262 -0.51129,-0.93822 -0.76442,-1.4087c-0.40902,-0.76023 -0.86944,-1.49541 -1.22201,-2.28341c-0.05788,-0.12936 -1.65019,-4.54446 -1.72903,-4.74704c-0.47793,-1.22797 -1.05315,-2.41583 -1.57306,-3.62662c-0.35691,-0.83119 -0.84995,-1.61782 -1.06262,-2.49705c-0.21267,-0.87923 -0.13364,-1.80423 -0.19606,-2.70666c-0.17516,-2.53227 -0.32977,-5.0324 -0.3301,-7.57112c-0.00077,-5.80488 0,-11.60976 0,-17.41463c0.00121,-0.8651 -0.05095,-1.73193 0.00364,-2.59531c0.03854,-0.60951 0.18264,-1.20773 0.275,-1.81144c0.00823,-0.05378 0.76219,-4.95541 0.76723,-4.98253c0.09036,-0.48622 1.07319,-4.79527 1.15139,-4.9699c0.2291,-0.5116 0.74653,-0.83662 1.13191,-1.24368c0.52933,-0.55911 1.16849,-1.02496 1.61185,-1.65444c0.5561,-0.78955 1.7918,-4.15139 2.35197,-4.68919c0.6547,-0.62855 1.71836,-0.61515 2.50356,-1.07032c0.49652,-0.28782 0.74668,-0.96882 1.29671,-1.13265c0.79332,-0.23629 1.68829,0.23742 2.48327,0.00679c0.46378,-0.13455 0.56313,-0.88144 1.02439,-1.02439c0.8246,-0.25555 1.72497,-0.07901 2.58811,-0.09515c2.19678,-0.04108 4.40022,0 6.59756,0c0,0 1.25,0 1.25,1.25c0,1.25 -1.25,1.25 -1.25,1.25c-2.19638,0 -4.40202,0.05057 -6.59756,0c-0.54458,-0.01254 -1.11724,-0.27505 -1.6314,-0.09515c-0.45581,0.15948 -0.56075,0.88938 -1.02439,1.02439c-0.80546,0.23455 -1.70727,-0.21354 -2.51673,0.00679c-0.40724,0.11085 -0.50658,0.70847 -0.87402,0.91613c-0.66132,0.37376 -1.57698,0.27539 -2.13883,0.78663c-0.50699,0.46134 -0.51419,1.27158 -0.80516,1.89224c-0.3821,0.81505 -0.69518,1.67644 -1.21305,2.41273c-0.51591,0.7335 -1.22736,1.30797 -1.85464,1.94882c-0.23465,0.23972 -0.60316,0.38186 -0.73049,0.6922c-0.27363,0.66693 -0.27467,1.41542 -0.42362,2.12074c-0.15021,0.7113 -0.341,1.41411 -0.47378,2.12887c-0.30191,1.62511 -0.50057,3.26771 -0.75334,4.90119c-0.08368,0.54075 -0.21936,1.07578 -0.25321,1.62192c-0.04959,0.80003 0.00243,1.60312 0.00364,2.40469c0,5.80488 0.00079,11.60976 0,17.41463c-0.00011,0.81968 -0.02752,1.63981 -0.00067,2.45905c0.05415,1.65213 0.2235,3.29849 0.32541,4.94836c0.04698,0.76068 -0.04782,1.54184 0.13136,2.28261c0.17918,0.74077 0.62052,1.39225 0.92638,2.09031c0.53891,1.22995 1.11461,2.44501 1.60202,3.69627c0.59864,1.53681 1.01483,3.14541 1.6884,4.65089c0.32811,0.73333 0.76353,1.41377 1.14273,2.12204c0.20977,0.3918 0.36199,0.81929 0.62414,1.17816c0.3648,0.4994 3.02482,3.38218 3.2143,3.85814c0.22032,0.55341 -0.09151,1.18778 -0.13727,1.78168c0.52293,0.13721 1.04203,0.28996 1.56879,0.41164c0.21856,0.05049 0.46181,0.19974 0.66481,0.10431c0.63164,-0.29693 1.12634,-0.82503 1.70343,-1.21759c0.61687,-0.41962 1.35643,-0.68441 1.87753,-1.21832c0.51371,-0.52634 0.77928,-1.24786 1.14965,-1.88329c0.82531,-1.41593 1.65965,-2.82901 2.3996,-4.29136c0.36848,-0.72822 0.67519,-1.48608 1.01334,-2.22886c0.33716,-0.74061 0.71067,-1.46568 1.01261,-2.22134c0.30194,-0.75566 0.53108,-1.53841 0.79696,-2.3075c0.54652,-1.58089 1.10545,-3.15754 1.67537,-4.73015c0.44974,-1.24098 0.87263,-2.49202 1.3494,-3.72286c0.28924,-0.74673 0.67117,-1.4603 0.89725,-2.22851c0.22415,-0.76165 0.29712,-1.55986 0.44709,-2.33952c0.30991,-1.61115 0.72774,-3.20471 0.93765,-4.83191c0.10602,-0.82184 0.06665,-1.65763 0.16406,-2.48053c0.00501,-0.04233 0.83443,-4.90992 0.84846,-4.99232c0.07111,-0.4088 0.18944,-0.81214 0.21334,-1.22639c0.04597,-0.79691 -0.00372,-1.59647 -0.00444,-2.39471c-0.00227,-2.49999 0,-5 0,-7.5c0,-2.10976 0,-4.21951 0,-6.32927c0,-0.70325 -0.00185,-1.40651 0,-2.10976c0.00205,-0.77646 0.1177,-1.56017 0.0117,-2.32936c-0.17235,-1.25068 -0.90098,-2.38989 -1.02439,-3.64634c-0.08211,-0.83599 0.09706,-1.68597 -0.0026,-2.52005c-0.09291,-0.77761 -0.38232,-1.51891 -0.57078,-2.27904c-0.13605,-0.54874 -0.22365,-1.11131 -0.40274,-1.64755c-0.27485,-0.82298 -0.72092,-1.58586 -0.95607,-2.42105c-0.09262,-0.32895 0.12165,-0.71155 -0.01421,-1.02513c-0.11848,-0.27348 -0.43932,-0.40498 -0.68096,-0.57944c-0.47519,-0.34307 -0.99342,-0.62408 -1.46606,-0.97064c-0.57757,-0.4235 -1.0121,-1.08305 -1.68162,-1.33737c-0.57038,-0.21666 -1.22028,0.00222 -1.83043,0.00333c-2.53581,1.20403 -4.25125,0.47875 -6.7979,1.02887c-1.27613,0.27567 -2.47355,0.93553 -3.77443,1.04605l-2.0961,0.0009c0,0 -1.25,0 -1.25,-1.25z"/><path d="M415.2889,212.2801c1.24989,0.01672 1.23317,1.26661 1.23317,1.26661l-0.05517,1.85324c-2.03666,4.27708 -3.62409,8.40175 -8.87764,8.59956c-0.80682,-0.12204 -1.77974,0.13918 -2.42047,-0.36612c-0.40914,-0.32266 0.3851,-1.24231 -0.02561,-1.56296c-0.47875,-0.37377 -1.29457,0.43187 -1.81795,0.12366c-0.89114,-0.52479 -1.40119,-1.52871 -1.99991,-2.37196c-0.52911,-0.74521 -1.00896,-1.53537 -1.37034,-2.37484c-0.33011,-0.76685 -0.37843,-1.633 -0.68863,-2.40812c-0.22263,-0.5563 -0.60033,-1.03718 -0.89822,-1.55708c-1.24791,-2.17794 -2.57654,-4.35897 -3.69625,-6.60601c-0.37985,-0.76229 -0.69625,-1.5546 -1.03882,-2.33435c-0.36782,-0.83724 -0.87531,-1.62823 -1.09232,-2.51658c-0.17473,-0.71527 0.09574,-1.4888 -0.06181,-2.20805c-0.16226,-0.74072 -0.5908,-1.39676 -0.88126,-2.09721c-0.01043,-0.02516 -1.90081,-4.64003 -1.90469,-4.65006c-1.44799,-3.74668 -2.61721,-7.57925 -3.8214,-11.40836c-0.74625,-2.37311 -1.53143,-4.72236 -2.36764,-7.0653c-0.03178,-0.08903 -1.68956,-4.73207 -1.70308,-4.7783c-0.24077,-0.82309 -0.38664,-1.67101 -0.57945,-2.50664c-0.37472,-1.624 -0.74891,-3.24811 -1.12213,-4.87246c-0.18071,-0.7865 -0.31043,-1.5864 -0.54089,-2.35978c-0.71135,-2.38715 -1.85489,-4.64582 -2.58859,-7.02674c-0.01309,-0.04249 -1.20956,-4.8307 -1.23079,-4.91566c-0.74963,-3.00013 -1.25685,-6.02661 -1.82447,-9.0659c-0.45868,-2.45597 -0.93502,-4.90882 -1.40251,-7.36313c-0.16144,-0.85742 -0.39896,-1.70397 -0.48433,-2.57227c-0.07861,-0.79953 -0.00463,-1.60676 -0.00553,-2.41015c-0.00282,-2.49999 0,-5.00001 0,-7.5c0,-2.90417 -0.01887,-5.80882 0.02299,-8.71271c0.00229,-0.1586 0.07076,-5.0421 0.08009,-5.12359c0.01385,-0.12102 1.03459,-4.78394 1.07537,-4.9886c0.03424,-0.17183 0.88272,-4.88018 0.90944,-4.98532c0.03459,-0.13615 1.50843,-4.51706 1.54733,-4.64901c0.19452,-0.65988 0.33311,-1.33498 0.49967,-2.00247c0,0 0.30317,-1.21268 1.51585,-0.90951c1.21268,0.30317 0.90951,1.51585 0.90951,1.51585c-0.17491,0.69837 -0.32125,1.40451 -0.52472,2.0951c-0.45394,1.54067 -1.13055,3.01374 -1.52584,4.5705c-0.40464,1.59357 -0.55814,3.24094 -0.87942,4.85338c-0.16421,0.82414 -0.35492,1.64278 -0.53397,2.46383c-0.16874,0.77375 -0.41937,1.53374 -0.50942,2.32054c-0.09005,0.78679 -0.01766,1.58377 -0.02808,2.37563c-0.01096,0.83326 -0.02403,1.66649 -0.03606,2.49974c-0.04174,2.89187 -0.02273,5.78451 -0.02273,8.67666c0,2.49999 0.00296,5.00001 0,7.5c-0.00086,0.72507 -0.07677,1.45365 -0.00553,2.17522c0.07803,0.79034 0.30082,1.55961 0.45123,2.33942c0.46805,2.45725 0.94495,4.91304 1.40417,7.37195c0.55833,2.98957 1.05423,5.96782 1.79231,8.91853c0.39898,1.59506 0.71036,3.21448 1.19457,4.78576c0.73601,2.38839 1.88155,4.65366 2.59534,7.04902c0.24551,0.82387 0.38789,1.67502 0.58123,2.51267c0.37484,1.62397 0.74878,3.24814 1.12213,4.87246c0.18124,0.78853 0.31552,1.58927 0.54268,2.36582c0.46111,1.57636 1.10613,3.093 1.65817,4.63987c0.84681,2.37284 1.64208,4.75228 2.39794,7.15562c1.18815,3.77808 2.33978,7.56041 3.76847,11.25714c0.59781,1.54683 1.26354,3.06656 1.88618,4.60356c0.34108,0.84198 0.81292,1.64373 1.01417,2.5296c0.16045,0.70627 -0.11165,1.46705 0.05397,2.17213c0.17202,0.73234 0.62954,1.36653 0.93838,2.05248c0.33459,0.74313 0.62839,1.50527 0.99187,2.2347c1.09977,2.20703 2.41343,4.33869 3.63041,6.48265c0.34502,0.60783 0.76786,1.17832 1.03081,1.82589c0.31294,0.77067 0.36333,1.63242 0.68498,2.3995c0.29108,0.69417 0.7354,1.3145 1.13883,1.94998c0.33986,0.53534 0.53191,1.25714 1.08922,1.55961c0.73444,0.39861 1.81611,-0.13281 2.47844,0.37671c0.39906,0.30699 -0.26761,1.0687 -0.02561,1.51021c0.1199,0.21875 0.43513,-0.24408 0.6527,-0.36612c3.76037,0.22784 5.00197,-3.82468 6.44595,-6.67997l-0.01291,-1.30626c0,0 0.01672,-1.24989 1.26661,-1.23317z"/><path d="M444.75388,220.18853c0,-1.25 1.25,-1.25 1.25,-1.25c1.53659,0 4.09756,0 5.63415,0c1.1864,0 2.37301,0.02296 3.55919,0.00027c0.68449,-0.01309 1.38519,0.08363 2.0527,-0.06841c0.82089,-0.18698 1.52289,-0.76069 2.34684,-0.9337c0.71456,-0.15003 1.46244,0.03814 2.19035,-0.01895c1.30261,-0.10217 3.02853,-0.48825 4.2379,-0.93761c0.41762,-0.15517 0.78443,-0.42264 1.17802,-0.63138c0.76578,-0.40612 1.50406,-0.8701 2.30008,-1.21318c1.56302,-0.67367 3.06062,-0.86828 4.56826,-1.66918c0.45419,-0.24128 0.81346,-0.62954 1.22231,-0.94155c0.04853,-0.03704 4.00021,-3.03535 4.02368,-3.05171c0.66045,-0.46028 1.41009,-0.79203 2.03794,-1.29588c0.61484,-0.49341 1.11016,-1.11959 1.66715,-1.67748c0.3169,-0.31742 0.66871,-0.60277 0.9545,-0.94848c0.38292,-0.46321 0.69305,-0.98209 1.04449,-1.46961c0.44188,-0.61298 0.99947,-1.15499 1.33542,-1.83184c0.57028,-1.14895 0.40266,-2.48444 0.39704,-3.69545c0,-1.66667 -0.03895,-3.33379 0,-5c0.01226,-0.52429 0.27196,-1.0767 0.09515,-1.57043c-0.16281,-0.45463 -0.84504,-0.57603 -1.02439,-1.02439c-0.19022,-0.47556 0.15584,-1.04867 0,-1.53659c-0.0864,-0.27049 -0.43047,-0.37172 -0.66203,-0.53607c-0.502,-0.35629 -1.06246,-0.63177 -1.53659,-1.02439c-0.28167,-0.23325 -0.36244,-0.7232 -0.71026,-0.83622c-0.49877,-0.16207 -1.04622,0.07968 -1.57043,0.09515c-1.18388,0.03494 -3.45187,-0.00831 -4.39676,-0.31411c-0.78142,-0.2529 -1.32458,-1.02971 -2.1084,-1.27508c-0.69759,-0.21838 -1.47895,0.09078 -2.19178,-0.07108c-0.77741,-0.17652 -4.19036,-1.67035 -4.87965,-2.19175c-0.58013,-0.43883 -0.95975,-1.09341 -1.43116,-1.64739c-1.76532,-2.07456 -2.03741,-2.00829 -2.75225,-4.74683c-0.58584,-2.24437 -0.39244,-4.6539 -0.39244,-6.94278c0.00243,-0.87823 -0.08326,-1.76113 0.00728,-2.63468c0.20902,-2.01677 0.79382,-2.6678 1.02439,-4.67073c0.10729,-0.93203 -0.20598,-1.91868 0.07584,-2.81353c0.08729,-0.27718 2.90357,-3.3387 2.92896,-3.37066c1.29928,-1.63535 1.73295,-3.1437 3.8861,-4.0287c0.83302,-0.34239 1.81419,0.00021 2.69556,-0.18506c0.82568,-0.17356 1.54228,-0.73359 2.37314,-0.8804c0.89356,-0.15788 1.81474,-0.01644 2.72213,-0.0199c0.17737,-0.00068 5.05202,-0.00184 5.14205,0.0081c0.81682,0.09016 1.60353,0.36063 2.40347,0.54881c0.89215,0.20987 1.83781,0.26724 2.67269,0.64533c0.71743,0.32489 1.13918,1.17697 1.88826,1.42014c0.76103,0.24706 1.62079,-0.20875 2.40023,-0.02797c0.83712,0.19416 1.54707,0.74861 2.32061,1.12292c0,0 1.11803,0.55902 0.55902,1.67705c-0.55902,1.11803 -1.67705,0.55902 -1.67705,0.55902c-0.59232,-0.30862 -1.12437,-0.78364 -1.77695,-0.92586c-0.84677,-0.18454 -1.77591,0.24095 -2.59977,-0.02797c-0.83588,-0.27283 -1.35497,-1.1552 -2.1534,-1.52349c-0.68127,-0.31425 -1.46664,-0.31713 -2.19816,-0.48374c-0.70892,-0.16146 -1.40032,-0.42103 -2.12304,-0.50044c-0.78129,-0.08584 -1.57196,0.00679 -2.35795,0.0081c-0.83333,0.00139 -1.66667,0.00347 -2.5,0c-0.75931,-0.00316 -1.53121,-0.15795 -2.27787,-0.0199c-0.80923,0.14962 -1.50459,0.70457 -2.31106,0.86837c-0.75101,0.15254 -1.57615,-0.18944 -2.29805,0.06776c-1.18085,0.42073 -2.19727,2.45271 -2.83223,3.25257c-0.53425,0.673 -1.13499,1.29087 -1.72392,1.91657c-0.26253,0.27892 -0.73522,0.42437 -0.82901,0.79575c-0.17857,0.70706 0.14921,1.46091 0.07584,2.18647c-0.16035,1.58583 -0.86097,3.08522 -1.02439,4.67073c-0.08084,0.78429 0.00485,1.57688 0.00728,2.36532c0,2.07142 -0.19141,4.28708 0.31466,6.32404c0.17282,0.69561 0.37624,1.40211 0.74349,2.01764c0.39031,0.65418 1.00086,1.14874 1.49274,1.73041c0.36188,0.42794 0.62172,0.95972 1.06838,1.29823c0.3726,0.28238 3.52489,1.64118 3.8603,1.71398c0.77802,0.16887 1.62506,-0.11547 2.38535,0.12075c0.80728,0.25082 1.37977,1.02216 2.17906,1.2974c0.77206,0.26586 2.69389,0.16519 3.60846,0.18658c0.84274,0.01971 1.72861,-0.17498 2.52713,0.09515c0.57028,0.19292 0.86337,0.84287 1.33852,1.21256c1.00567,0.78246 2.34305,1.26113 2.92334,2.5371c0.21204,0.46624 -0.19022,1.06102 0,1.53659c0.17935,0.44836 0.87921,0.56383 1.02439,1.02439c0.25344,0.80398 0.0792,1.68431 0.09515,2.52713c0.03154,1.66637 0,3.33333 0,5c-0.00725,1.79748 0.17637,3.03352 -0.62735,4.74357c-0.38754,0.82455 -1.04398,1.49347 -1.57077,2.23682c-0.38724,0.54642 -0.74383,1.11687 -1.17127,1.63245c-0.33014,0.39822 -0.72825,0.73481 -1.09428,1.10031c-0.62153,0.62062 -1.18434,1.3071 -1.86839,1.85805c-0.67106,0.54049 -1.46773,0.90485 -2.17427,1.39805c-1.35296,0.94443 -2.62573,1.99886 -3.94274,2.99281c-0.49956,0.37702 -0.95045,0.83116 -1.50255,1.12593c-1.50925,0.8058 -3.23885,1.11372 -4.81064,1.78947c-1.22383,0.52615 -2.28416,1.40448 -3.53324,1.86752c-1.4897,0.55224 -3.38434,0.98301 -4.98162,1.11117c-0.63373,0.05085 -1.28567,-0.15269 -1.90722,-0.01895c-0.8063,0.17349 -1.48957,0.74824 -2.29554,0.92326c-0.82329,0.17878 -1.68233,0.09793 -2.52442,0.12341c-1.2033,0.03641 -2.40769,0.00027 -3.61154,0.00027c-1.53659,0 -3.07317,0 -4.60976,0h-1.02439c0,0 -1.25,0 -1.25,-1.25z"/><path d="M608.08314,242.21292c0,1.25 -1.25,1.25 -1.25,1.25h-1.02439c-2.73651,-0.10373 -3.21632,-1.99293 -5.67582,-2.60002c-4.16874,-1.02898 -9.33066,0.35915 -13.67088,-0.10735c-6.42018,-0.69006 -12.85101,-1.86252 -19.34804,-1.93417c-0.70325,-0.34146 -1.34776,-0.8497 -2.10976,-1.02439c-0.72132,-0.16537 -1.47985,0.02926 -2.21989,0.03179c-0.75045,0.00256 -1.51187,0.11171 -2.25129,-0.01651c-1.57986,-0.27396 -2.97576,-1.27716 -4.55786,-1.53791c-0.75591,-0.12458 -1.53217,0.0119 -2.29827,0.01355c-1.67515,0.00362 -3.3504,-0.02044 -5.02514,-0.05794c-0.86166,-0.01929 -1.72655,0.01795 -2.58496,-0.05936c-0.82546,-0.07435 -1.62876,-0.3281 -2.45489,-0.39455c-0.79768,-0.06417 -1.60051,0.0033 -2.40076,0.00395c0,0 -4.3699,0 -4.60976,0c-5.80488,0 -11.60976,0 -17.41463,0c-10.34553,0 -20.69105,0 -31.03658,0c-3.33333,0 -6.66667,0 -10,0c-1.63713,0 -3.27793,-0.11268 -4.91139,-0.00314c-1.54816,0.10382 -3.07165,0.44198 -4.60769,0.66142c-0.85435,0.12099 -1.70271,0.29682 -2.56304,0.36297c-1.51618,0.11658 -3.04929,-0.15988 -4.56197,-0.00432c-0.69163,0.07113 -1.35605,0.30783 -2.03452,0.45976c-1.40628,0.31491 -2.81293,0.62832 -4.21714,0.95237c-2.98545,0.68896 -5.96792,1.3868 -8.94756,2.10037c-0.08753,0.02096 -4.88512,1.17053 -4.9302,1.17872c-2.44106,0.44345 -4.96161,0.46372 -7.39927,0.92171c-0.40336,0.07578 -0.78159,0.25075 -1.1729,0.37449c-1.5891,0.50253 -3.17907,1.00231 -4.76935,1.50109c-0.83099,0.26063 -1.64279,0.59403 -2.49371,0.77952c-0.07277,0.01586 -4.92921,0.62128 -5.07259,0.6392c-0.79319,0.09774 -1.59524,0.13982 -2.37957,0.29321c-0.56638,0.11077 -1.1055,0.33181 -1.6586,0.49653c-1.59734,0.47569 -3.19523,0.94953 -4.79344,1.42231c-0.83185,0.24608 -1.64705,0.55849 -2.49612,0.73627c-0.06625,0.01387 -4.93178,0.62071 -5.06252,0.63705c-3.02218,0.37768 -6.05099,0.64501 -9.0834,0.92897c-1.63667,0.15326 -3.28437,0.21517 -4.91018,0.4579c-1.62581,0.24273 -3.21974,0.66481 -4.8298,0.99629c-4.66087,0.95959 -9.31862,2.07125 -14.02189,2.79591c-1.63128,0.25097 -3.27163,0.44859 -4.89397,0.75196c-1.38719,0.2594 -2.74765,0.64554 -4.12159,0.96785c-2.44073,0.57257 -4.8783,1.20908 -7.33263,1.71974c-5.36606,1.11649 -10.81411,1.83781 -16.18268,2.94216c-2.17413,0.44724 -4.30166,1.2019 -6.48909,1.57536c-0.84994,0.14511 -1.71567,0.17408 -2.57358,0.26039c-2.48931,0.25042 -4.97892,0.49789 -7.46838,0.74683c-2.09814,0.19076 -4.19629,0.38149 -6.29443,0.57223c-0.07704,0.007 -4.99509,0.45452 -5.03599,0.45653c-1.53554,0.07542 -3.07582,-0.05606 -4.61219,0.00011c-1.42574,0.05213 -2.84256,0.24844 -4.26388,0.37208c-2.48121,0.21583 -4.97232,0.38684 -7.44915,0.64776c-3.30543,0.34821 -6.60287,0.81902 -9.90168,1.22576c-0.85252,0.10511 -1.70035,0.26133 -2.55769,0.31418c-0.29649,0.01828 -4.65305,-0.01156 -5.02069,0.0011c-1.33787,0.0461 -2.66637,0.24186 -3.99962,0.36216c-2.4948,0.22511 -4.99021,0.48724 -7.48803,0.67552c-2.49782,0.18828 -5.00433,0.30318 -7.50469,0.45459c-2.49543,0.15111 -4.99081,0.30295 -7.48629,0.45334c-0.81188,0.04893 -1.62711,0.05801 -2.43568,0.14605c-0.80857,0.08804 -1.60665,0.25462 -2.41003,0.38158c-2.46114,0.38892 -4.91787,0.77547 -7.36933,1.22188c-0.14178,0.02582 -4.95667,0.90415 -5.03063,0.91083c-0.07399,0.00668 -4.96827,0.00507 -5.11242,0.00507c-2.39024,0 -4.78049,0 -7.17073,0c-1.6572,0 -3.3146,-0.02562 -4.97161,-0.00032c-3.75721,0.05737 -7.51205,0.40286 -11.26829,0.5122c-3.79891,0.11057 -7.61794,0.00032 -11.41863,0.00032c-6.95122,0 -13.90244,0 -20.85366,0c-4.16667,0 -8.33333,0 -12.5,0c-2.51156,0 -5.03561,0.06541 -7.5462,-0.00085c-1.304,-0.03442 -2.60184,-0.19187 -3.90273,-0.28823c-1.66211,-0.12312 -3.32423,-0.24624 -4.98634,-0.36936c-6.90213,-0.51127 -13.80397,-1.07214 -20.66745,-1.96737c-2.48462,-0.32408 -4.98045,-0.60538 -7.45894,-0.9731c-4.09919,-0.60818 -8.16387,-1.50215 -12.27183,-2.04586c-3.237,-0.42844 -6.52275,-0.62344 -9.77279,-0.94055c-0.87116,-0.085 -1.75479,-0.08685 -2.61318,-0.25808c-0.85838,-0.17123 -1.67509,-0.50857 -2.51219,-0.76434c-2.39087,-0.73052 -4.7802,-1.46623 -7.16994,-2.20046c-0.77688,-0.23869 -1.5426,-0.51709 -2.3304,-0.7168c-0.7878,-0.19971 -1.59368,-0.31971 -2.39044,-0.47995c0,0 -4.90155,-0.98732 -4.90155,-0.98732c-3.28147,-0.66099 -6.54501,-1.36393 -9.80763,-2.11249c-2.46823,-0.5663 -4.99163,-1.03066 -7.39668,-1.83867c-0.03616,-0.01215 -4.62839,-1.80179 -4.67226,-1.81888c-0.07333,-0.02857 -4.6783,-1.82218 -4.71469,-1.83844c-0.78663,-0.35145 -1.54568,-0.76219 -2.30701,-1.16552c-1.96093,-1.03882 -3.90141,-2.13998 -5.81999,-3.25562c-0.80321,-0.46706 -1.70752,-0.79617 -2.40337,-1.41187c-0.82611,-0.73095 -1.85754,-3.02977 -2.31388,-3.94013c0,0 -0.55902,-1.11803 0.55902,-1.67705c1.11803,-0.55902 1.67705,0.55902 1.67705,0.55902c0.09721,0.19496 1.33523,2.85022 1.78368,3.2306c0.56257,0.47718 1.29419,0.70843 1.93785,1.06883c1.9158,1.07271 3.81173,2.18765 5.7511,3.21768c2.18502,1.16049 4.45696,1.98663 6.75781,2.88306c1.52108,0.59262 3.0157,1.25805 4.56274,1.77913c2.32417,0.78283 4.77201,1.22382 7.15769,1.77118c3.2409,0.74358 6.48259,1.44181 9.74223,2.0984c0,0 4.90155,0.98732 4.90155,0.98732c0.83709,0.16888 1.68334,0.29753 2.51111,0.50738c0.82777,0.20984 1.63311,0.49987 2.44956,0.75017c2.39019,0.73276 4.78093,1.46386 7.16994,2.20046c0.75624,0.23317 1.49169,0.54781 2.26777,0.70263c0.77608,0.15482 1.57596,0.14645 2.36379,0.22129c3.27861,0.31148 6.59394,0.51833 9.85864,0.95032c4.12203,0.54543 8.20039,1.44146 12.31353,2.0517c2.46389,0.36555 4.94509,0.64481 7.41506,0.96698c6.81737,0.88922 13.67301,1.44537 20.52878,1.95321c1.66211,0.12312 3.32423,0.24624 4.98634,0.36936c1.27017,0.09409 2.53723,0.25017 3.81045,0.28311c2.47994,0.06417 4.97294,-0.00085 7.4538,-0.00085c4.16667,0 8.33333,0 12.5,0c6.95122,0 13.90244,0 20.85366,0c3.78165,0 7.58202,0.11106 11.36186,0.00032c3.75629,-0.11004 7.51098,-0.454 11.26829,-0.5122c0.02767,-0.00043 4.98221,-0.00032 5.02839,-0.00032c2.39024,0 4.78049,0 7.17073,0c0.83333,0 1.66667,-0.00086 2.5,0c0.79586,0.00082 1.59495,0.07664 2.38758,0.00507c0.79264,-0.07157 1.56522,-0.28931 2.34806,-0.43268c0.8197,-0.15013 1.6397,-0.29857 2.45956,-0.44784c2.47084,-0.44985 4.94686,-0.84122 7.42768,-1.23179c0.84293,-0.13271 1.68061,-0.30505 2.52891,-0.39742c0.8483,-0.09237 1.70344,-0.10435 2.55518,-0.15617c2.49539,-0.15182 4.99086,-0.30223 7.48629,-0.45334c2.48809,-0.15067 4.98232,-0.26473 7.46789,-0.45209c2.48556,-0.18736 4.96872,-0.44847 7.45127,-0.67248c1.37058,-0.12367 2.73654,-0.32158 4.11184,-0.36975c1.65875,-0.0581 3.32268,0.10324 4.97931,0.0011c0.80616,-0.0497 1.60291,-0.20039 2.40444,-0.29999c3.31329,-0.41171 6.62653,-0.88116 9.94686,-1.23094c2.49191,-0.26251 4.9981,-0.43497 7.49442,-0.65211c1.45733,-0.12677 2.91026,-0.32519 4.37211,-0.37913c1.53473,-0.05663 3.07341,0.07574 4.60733,0.00011c1.64579,-0.08115 3.28192,-0.29965 4.92294,-0.44883c2.09441,-0.1904 4.18881,-0.38081 6.28322,-0.57119c2.48572,-0.24858 4.9713,-0.49868 7.45718,-0.74573c0.80048,-0.07955 1.60865,-0.10175 2.4016,-0.23713c2.15353,-0.36768 4.24977,-1.11563 6.39065,-1.55652c5.37166,-1.10623 10.82327,-1.82708 16.1926,-2.94425c2.43371,-0.50637 4.8507,-1.13833 7.27092,-1.70608c1.40548,-0.32971 2.79769,-0.72243 4.21664,-0.98821c0.03792,-0.0071 4.92065,-0.75798 4.98975,-0.76861c4.66164,-0.71607 9.27859,-1.82259 13.8979,-2.77362c0.08736,-0.01799 4.91986,-1.01354 4.96477,-1.02024c0.04491,-0.0067 4.95745,-0.4661 5.04626,-0.47442c3.00666,-0.28154 6.0099,-0.5459 9.0064,-0.92055c0.8269,-0.10339 1.65371,-0.20743 2.48069,-0.31009c0.7931,-0.09845 1.59734,-0.12942 2.37957,-0.29321c0.78222,-0.16378 1.53134,-0.45805 2.29731,-0.68605c1.5974,-0.47548 3.19518,-0.94972 4.79344,-1.42231c0.61891,-0.18301 1.22416,-0.42211 1.85741,-0.54675c0.85115,-0.16752 1.72122,-0.21798 2.58182,-0.32697c0.8269,-0.10336 1.65369,-0.20759 2.48069,-0.31009c0.78973,-0.09788 1.59199,-0.12156 2.3695,-0.29106c0.77751,-0.16949 1.51684,-0.48187 2.27565,-0.72157c1.58926,-0.50202 3.17893,-1.00277 4.76935,-1.50109c0.46334,-0.14517 0.91406,-0.34126 1.39096,-0.43245c2.46557,-0.47145 5.01554,-0.49022 7.4849,-0.93881c1.61715,-0.29378 3.19639,-0.76744 4.79481,-1.15023c3.58204,-0.85783 7.16626,-1.7071 10.75918,-2.51851c0.81451,-0.18395 1.63001,-0.36355 2.44543,-0.54344c0.76774,-0.16938 1.52204,-0.42335 2.30406,-0.50437c1.97476,-0.20458 2.78132,0.14083 4.65754,-0.00432c0.8014,-0.062 1.59114,-0.22942 2.38671,-0.34413c1.59453,-0.22779 3.17695,-0.57202 4.78402,-0.68026c0.06173,-0.00416 4.97093,-0.00314 5.08861,-0.00314c3.33333,0 6.66667,0 10,0c10.34553,0 20.69105,0 31.03658,0c5.80488,0 11.60976,0 17.41463,0c1.53659,0 3.07317,-0.00119 4.60976,0c0.86641,0.00067 1.73551,-0.06419 2.59924,0.00395c0.83527,0.06589 1.64767,0.32075 2.48208,0.39687c0.80146,0.07311 1.60924,0.03266 2.41385,0.04975c1.65763,0.03521 3.31568,0.05008 4.97367,0.05735c0.90059,0.00394 1.81311,-0.12673 2.70173,0.01972c1.5816,0.26066 2.97749,1.26083 4.55634,1.53766c1.51897,0.26633 3.11901,-0.31031 4.62638,0.01528c0.76415,0.16505 1.4065,0.68293 2.10976,1.02439c6.373,-0.08327 12.75889,1.20819 19.05498,1.88491c4.45387,0.47872 9.74046,-0.95416 14.02365,0.17112c2.20522,0.57936 2.9227,2.66457 5.05589,2.52193h1.02439c0,0 1.25,0 1.25,1.25z"/></g></g></svg>