<svg version="1.1" xmlns="http://www.w3.org/2000/svg" xmlns:xlink="http://www.w3.org/1999/xlink" width="782.46248" height="487.62244" viewBox="0,0,782.46248,487.62244"><defs><radialGradient cx="248.49148" cy="272.20741" r="13.76876" gradientUnits="userSpaceOnUse" id="color-1"><stop offset="0" stop-color="#00b8ff" stop-opacity="0.59608"/><stop offset="1" stop-color="#00e8ff" stop-opacity="0.30588"/></radialGradient></defs><g transform="translate(50.58729,61.03239)"><g stroke-miterlimit="10"><path d="M-39.20231,-51.32986c3.24186,0.56126 13.80406,-0.40152 16.51652,0c3.60442,0.53355 6.92022,2.38141 10.51051,3.003c11.76725,2.03728 25.47336,0.09665 37.42305,0.09665c28.52853,0 57.05705,0 85.58559,0c54.92007,0 109.64384,-0.27347 164.45969,-1.76901c7.75317,-3.87659 11.7817,-2.73549 20.22499,-2.73549c12.50882,0 25.02987,0.1647 37.53753,0c3.26928,-0.04305 6.63583,0.53633 9.80504,-0.26751c3.25441,-0.82545 5.79136,-3.5457 9.00901,-4.5045c4.55813,-1.35824 15.13207,0.96608 20.1105,0.17085c3.59809,-0.57474 6.93223,-2.31562 10.51051,-3.003c8.40681,-1.61493 25.09623,0.09665 34.64902,0.09665c36.63736,0 73.72979,1.61099 110.31509,-0.26751c2.002,1.001 3.8141,2.54961 6.006,3.00301c3.14085,0.64968 6.41338,0.45484 9.61857,0.27779c0.68368,0.92305 1.31005,1.95438 2.36563,2.23152c3.88498,1.01998 8.32026,-1.02233 12.03982,0.4937c2.07275,0.84482 3.83728,2.44922 6.006,3.00301c2.4247,0.61915 5.1901,-0.94454 7.50751,0c2.07275,0.84482 3.83728,2.44922 6.006,3.003c1.67516,0.42775 3.42967,0.32304 5.17345,0.27631c0.03566,0.71212 0.21465,1.30934 0.56353,1.56677c2.81394,2.07635 6.64598,2.23777 10.07407,2.92893c0.33302,0.06714 0.38754,-0.93792 0.67767,-0.7612c1.20902,0.73638 1.68094,2.49689 3.003,3.00301c2.13931,0.81897 4.54596,0.5844 6.82984,0.7612c1.07874,0.08351 8.38721,1.50241 7.04421,-0.36751c0.81958,0.96417 1.48488,2.16615 2.64247,2.6093c2.13931,0.81897 4.53913,0.7612 6.82984,0.7612c0.33971,0 0.38754,-0.93792 0.67767,-0.7612c1.20902,0.73638 1.68094,2.49688 3.00301,3.003c2.13931,0.81897 4.54236,0.63976 6.82984,0.76121c2.11337,0.11221 4.26798,0.39287 6.36559,0.17385c2.10889,4.52465 4.23609,3.87109 10.15093,4.33065c6.8649,0.53338 14.12138,0 21.02102,0c1.4261,0 3.71834,1.00476 5.02576,0.8671c2.23717,0.94606 4.71169,1.36285 7.12732,1.84899c0.05732,0.14233 0.15147,0.26496 0.29537,0.36098c2.23097,1.48873 5.33165,1.0053 7.74874,2.16773c1.27576,0.61354 1.73919,2.36521 3.00301,3.003c0.64071,0.32334 1.56338,-0.88561 2.11126,-0.42205c0.72128,0.61029 0.01223,2.0622 0.65052,2.75882c2.28356,2.49227 6.9079,2.70418 8.34278,5.76478c0.70956,1.51347 -0.74457,3.64849 0.22576,5.00956c2.5984,3.64473 6.58082,6.06935 9.85132,9.1254c1.04368,0.97524 2.89067,1.54172 3.1043,2.95407c0.24952,1.64971 -0.70484,3.39435 -0.24864,4.99924c1.1799,4.15084 2.73609,8.27933 5.05722,11.91718c0.66949,1.04927 2.86788,0.32233 3.4531,1.42083c0.52237,0.98052 -1.20722,2.08649 -1.00282,3.1785c0.49589,2.64927 2.52655,4.85468 3.00301,7.50751c0.73419,4.08786 -0.35775,8.40042 0.58077,12.44627c0.31989,1.37902 2.68381,1.62383 3.003,3.00301c1.05914,4.5765 -1.4659,9.4481 -0.66454,14.0767c0.62159,3.59029 2.002,7.007 3.003,10.51051c-0.46128,22.04331 -0.09666,44.13263 -0.09666,66.18056c0,9.3837 0.90819,19.86625 0.02516,29.32114c-0.53602,5.73934 -1.51647,11.46111 -1.52666,17.2254c-0.01054,5.96031 1.12573,13.74535 0.09666,19.63401c-0.62725,3.5893 -2.38141,6.92022 -3.003,10.51051c-0.42043,2.42843 -0.18405,4.93002 -0.09666,7.39302c0.05172,1.45756 1.03789,2.98441 0.51317,4.34523c-0.90033,2.33494 -3.00301,4.004 -4.50451,6.006c-0.70339,7.84071 -2.52704,15.54444 -3.48209,23.35849c-0.48702,3.9847 1.11724,8.12494 0.23343,12.04079c-1.11513,4.94076 -4.93121,8.98999 -6.09308,13.91997c-0.4501,1.90983 0.54102,3.99366 0.02379,5.88642c-2.04056,7.46732 -5.86164,13.62715 -7.53129,21.1406c-0.4343,1.95433 0.4343,4.05167 0,6.00601c-0.58469,2.6311 -2.52086,4.85571 -3.003,7.50751c-0.53719,2.95457 0.4185,6.03531 0,9.00901c-0.7621,5.41519 -5.50024,6.91421 -7.17478,12.24231c-1.47799,4.7027 0.8306,9.99446 -0.33273,14.78472c-0.63608,2.61915 -2.33287,4.89687 -3.00301,7.50751c-0.99067,3.85929 -0.18043,11.81851 -0.18043,15.40458c0.48426,2.98424 -2.07087,5.6911 -2.82256,8.61944c-0.09226,0.35942 -0.14998,0.72399 -0.18452,1.09196c-4.11379,0.25917 -5.86253,0.26369 -7.66425,4.15744c-3.69249,-0.21002 -14.41134,0.30451 -15.25954,0.58427c-1.71376,0.56527 -2.92891,2.12323 -4.5045,3.003c-1.78296,0.99556 -4.06909,-0.42908 -6.11116,-0.42908c-2.37076,0 -11.36249,-0.0343 -12.40159,0.18044c-3.90426,0.80683 -7.63951,2.99721 -11.62244,2.82256c-3.91202,0 -21.47007,-0.01022 -22.11219,0.05971c-4.58726,0.49966 -8.95688,2.27524 -13.51351,3.003c-6.7279,1.07455 -13.73461,-1.06806 -20.43901,0.14452c-3.75085,0.67839 -6.76437,3.8006 -10.51051,4.5045c-4.22287,0.79348 -8.62562,-0.6352 -12.88986,-0.10757c-3.61612,0.44744 -6.91273,2.42634 -10.51051,3.00301c-13.93498,2.23355 -28.97632,-1.59057 -43.05459,-0.05625c-5.56282,0.60627 -10.95506,2.38428 -16.51652,3.003c-3.43712,0.38238 -6.93383,-0.35567 -10.37496,-0.01129c-6.55034,0.65553 -12.9692,2.34735 -19.51952,3.003c-3.67347,0.3677 -7.433,-0.54309 -11.07533,0.05937c-5.63009,0.93126 -10.87585,3.63966 -16.51652,4.5045c-4.9712,0.7622 -10.12643,-0.50562 -15.08402,0.3406c-1.77885,0.30363 -2.72552,2.70016 -4.50451,3.003c-6.45033,1.09805 -13.08155,-0.42908 -19.62468,-0.42908c-71.07107,0 -142.14215,0 -213.21322,0c-21.52152,0 -43.04305,0 -64.56456,0c-9.40666,0 -19.64368,1.11456 -28.93886,0.05971c-4.58495,-0.52031 -8.92626,-2.50334 -13.51351,-3.003c-5.37512,-0.58547 -10.96268,1.29712 -16.22068,0.03694c-3.54335,-0.84923 -6.94318,-2.26091 -10.51051,-3.003c-3.96832,-0.82551 -9.42049,1.25904 -13.00945,0.08378c-2.56144,-0.83878 -4.868,-2.45753 -7.5075,-3.003c-3.55866,-0.73541 -7.28956,-0.59164 -10.90008,-0.18044c-1.24481,0.14177 -2.49285,1.15961 -3.68067,0.7612c-1.34214,-0.45018 -2.002,-2.002 -3.003,-3.003c-1.001,0 -2.14465,0.51501 -3.003,0c-1.82084,-1.09251 -2.57874,-3.60983 -4.5045,-4.5045c-2.07746,-0.96515 -4.54596,-0.5844 -6.82984,-0.76121c-1.04276,-0.08072 -2.19499,0.93897 -3.10816,0.42908c-1.57559,-0.87977 -2.79074,-2.43774 -4.5045,-3.003c-1.51667,-0.50026 -3.1548,-0.40942 -4.76918,-0.40719c-0.01981,-0.04692 -0.04206,-0.07959 -0.06661,-0.09596c-0.52955,-0.35303 -1.32206,-0.65835 -2.10076,-0.78634c-0.49705,-2.33895 -1.327,-4.62 -2.40375,-6.72117c-0.02566,-0.05007 -0.05785,-0.09767 -0.09579,-0.14275c0.00477,-1.5897 0.08503,-3.2002 -0.40736,-4.69304c-0.56527,-1.71377 -2.425,-2.79499 -3.003,-4.5045c-0.59067,-1.74696 0.03755,-14.12869 -0.33212,-17.44551c-1.001,-1.001 -2.62156,-1.63973 -3.00301,-3.003c-0.61503,-2.19806 0.9658,-4.67626 0.24804,-6.84295c-0.78695,-2.37555 -3.09356,-3.93919 -4.5045,-6.00601c-0.10098,-0.14792 0.50464,0.33817 0.51317,0.15927c0.14122,-2.96165 0.37103,-5.96663 -0.09666,-8.89452c-0.57474,-3.59809 -2.31088,-6.93315 -3.003,-10.51051c-0.53642,-2.77256 0.19697,-5.75647 -0.66455,-8.44582c-0.43187,-1.34814 -2.75673,-1.60897 -3.00301,-3.00301c-0.56346,-3.18946 0.655,-6.44958 0.76121,-9.68668c0.40944,-12.47904 0,-25.04949 0,-37.53753c0,-32.63508 1.5015,-64.98901 1.5015,-97.5976c0,-25.02502 0,-50.05005 0,-75.07508c0,-12.67856 1.27327,-26.15738 -0.07493,-38.75937c-0.21952,-2.05191 -1.30985,-3.9513 -1.5015,-6.006c-2.50823,-26.89134 4.46648,-55.02703 -3.02473,-81.24626c0.07964,-5.04264 0.09665,-10.08624 0.09665,-15.12951c0,-3.17509 -0.52741,-6.38635 -0.04866,-9.52513c0.38481,-2.52289 1.23019,-4.96991 1.5015,-7.50751c0.01183,-0.11068 0.02099,-0.63681 0.02805,-1.42779c3.27103,0.7109 6.35094,2.26628 9.65463,2.83825z" fill="#77e813" stroke="none" stroke-width="50"/><path d="M320.44462,34.01275c-4.9368,2.96473 -11.35596,4.89222 -19.70261,4.89222c-36.14394,0 -36.14395,-36.14394 -36.14395,-36.14394l36.14395,-40.982c4.83805,0 9.67614,0 14.51419,0c3.53265,0 8.08439,-1.70426 11.98094,-2.31287c-1.94702,-4.01387 -4.18619,-7.93924 -5.54309,-12.12813c3.78793,-0.00319 7.57534,-0.02287 11.36152,-0.07272c3.26928,-0.04305 6.63583,0.53633 9.80504,-0.26751c3.25441,-0.82545 5.79136,-3.5457 9.00901,-4.5045c4.55813,-1.35824 15.13207,0.96608 20.1105,0.17085c3.59809,-0.57474 6.93223,-2.31562 10.51051,-3.003c3.43309,-0.65949 8.24743,-0.76423 13.39295,-0.65733c6.56543,17.82613 12.60074,47.35183 2.03946,63.8788c-15.81988,24.75592 -49.45897,30.53527 -77.47836,31.13014z" fill="#13d8e8" stroke="none" stroke-width="0.5"/><path d="M5.76179,140.64571c0,-19.96175 16.1822,-36.14394 36.14395,-36.14394c19.96175,0 36.14394,16.1822 36.14394,36.14395c0,19.96175 -16.18219,36.14395 -36.14394,36.14395c-19.96175,0 -36.14394,-16.1822 -36.14394,-36.14394z" fill="#13d8e8" stroke="none" stroke-width="0.5"/><path d="M350.4838,186.53222c2.82056,-12.50176 -0.00182,-29.19081 11.78564,-39.99672c5.74104,-5.26299 13.60412,-8.20742 21.55634,-9.43811c0.82891,-1.12579 1.75628,-2.08085 2.63396,-2.65704c11.64795,-7.6467 28.01599,-8.22593 37.53121,-18.40473c16.05271,-2.28381 33.91071,-4.22051 49.16762,-7.26002c10.45179,-2.08221 21.26391,-17.844 29.63899,-22.47777c1.47436,-0.81575 2.76238,-1.49535 3.88001,-2.05197c-0.40464,-7.56709 -0.36243,-24.52624 -0.17653,-25.84714c2.83302,-20.12914 0.83865,-26.47755 15.32642,-34.54635c0.28007,-5.74836 0.86824,-11.82505 4.58583,-15.90304c22.19343,-24.34474 49.66531,-24.06337 79.1265,-24.39904c22.49756,0.88862 35.52652,-1.37477 53.95247,24.52737c8.66977,12.1875 -1.67104,30.89029 1.077,44.53142c2.47843,12.30285 6.71826,23.90158 9.17597,36.18995c1.54288,7.7143 5.7929,23.06449 7.11073,32.96374c0.91577,1.15337 1.90906,2.70094 2.97227,4.71904c7.27635,13.8113 28.15792,94.21562 28.62149,107.45905c1.51422,3.02844 5.89637,20.96889 9.6523,38.67305c-1.5744,3.17395 -3.66732,6.17743 -4.47562,9.60718c-0.4501,1.90983 0.54102,3.99366 0.02379,5.88642c-2.04056,7.46732 -5.86164,13.62715 -7.53129,21.1406c-0.4343,1.95433 0.4343,4.05167 0,6.00601c-0.58469,2.6311 -2.52086,4.85571 -3.003,7.50751c-0.53719,2.95457 0.4185,6.03531 0,9.00901c-0.7621,5.41519 -5.50024,6.91421 -7.17478,12.24231c-1.47799,4.7027 0.8306,9.99446 -0.33273,14.78472c-0.63608,2.61915 -2.33287,4.89687 -3.00301,7.50751c-0.99067,3.85929 -0.18043,11.81851 -0.18043,15.40458c0.48426,2.98424 -2.07087,5.6911 -2.82256,8.61944c-0.09226,0.35942 -0.14998,0.72399 -0.18452,1.09196c-4.11379,0.25917 -5.86253,0.26369 -7.66425,4.15744c-3.69249,-0.21002 -14.41134,0.30451 -15.25954,0.58427c-1.71376,0.56527 -2.92891,2.12323 -4.5045,3.003c-1.78296,0.99556 -4.06909,-0.42908 -6.11116,-0.42908c-2.37076,0 -11.36249,-0.0343 -12.40159,0.18044c-3.90426,0.80683 -7.63951,2.99721 -11.62244,2.82256c-3.91202,0 -21.47007,-0.01022 -22.11219,0.05971c-4.58726,0.49966 -8.95688,2.27524 -13.51351,3.003c-6.7279,1.07455 -13.73461,-1.06806 -20.43901,0.14452c-3.75085,0.67839 -6.76437,3.8006 -10.51051,4.5045c-4.22287,0.79348 -8.62562,-0.6352 -12.88986,-0.10757c-3.61612,0.44744 -6.91273,2.42634 -10.51051,3.00301c-13.93498,2.23355 -28.97632,-1.59057 -43.05459,-0.05625c-5.56282,0.60627 -10.95506,2.38428 -16.51652,3.003c-3.43712,0.38238 -6.93383,-0.35567 -10.37496,-0.01129c-6.55034,0.65553 -12.9692,2.34735 -19.51952,3.003c-3.67347,0.3677 -7.433,-0.54309 -11.07533,0.05937c-5.63009,0.93126 -10.87585,3.63966 -16.51652,4.5045c-4.9712,0.7622 -10.12643,-0.50562 -15.08402,0.3406c-1.77885,0.30363 -2.72552,2.70016 -4.50451,3.003c-6.45033,1.09805 -13.08155,-0.42908 -19.62468,-0.42908c-71.07107,0 -142.14215,0 -213.21322,0c-21.52152,0 -43.04305,0 -64.56456,0c-9.40666,0 -19.64368,1.11456 -28.93886,0.05971c-4.58495,-0.52031 -8.92626,-2.50334 -13.51351,-3.003c-1.82047,-0.19829 -3.66531,-0.11348 -5.51347,0.03646c-3.27434,-15.56967 9.78394,-32.06972 13.75877,-48.05233c5.4913,-2.80485 18.48523,-8.55649 24.46338,-10.4991c-0.45709,-0.60661 -0.69353,-1.31766 -0.27311,-1.59606c6.15696,-4.07689 23.73897,-11.24071 27.0194,-11.24429c5.62811,-5.01803 20.2036,-15.87974 36.97719,-21.02672c6.57218,-2.01669 25.86215,-7.14486 36.68533,-6.81002c0.94677,-0.86309 2.02715,-1.5814 2.94463,-1.97528c6.41228,-2.75278 13.63148,-3.17606 20.5919,-3.77956c1.27923,-2.31859 2.4143,-4.81255 4.67061,-5.99301c17.67517,-9.24724 38.17504,-11.027 54.82826,-19.92757c-1.90132,-5.57036 -2.82588,-11.85938 -2.26733,-19.14617c2.02152,-26.37265 15.23334,-38.41774 33.77637,-45.68438c1.13,-11.31517 1.95108,-24.86073 10.52497,-32.20639c5.91384,-5.06666 16.23337,-6.87102 26.91885,-8.38389z" fill="#13d8e8" stroke="none" stroke-width="0.5"/><path d="M-33.43441,163.11854c7.00438,10.70595 16.26064,20.23957 21.01314,32.1178c3.30726,8.26609 -1.55763,18.04277 0.50017,26.70485c2.00067,8.42163 6.95986,14.70017 5.01901,23.44438c2.82712,1.05722 5.70051,2.10477 7.9196,4.08418c5.23347,4.66824 8.98284,10.77191 13.47426,16.15788c0,0 22.57895,28.22368 -5.64473,50.80263c-28.22368,22.57895 -50.80263,-5.64473 -50.80263,-5.64473c-1.77143,-2.4207 -3.1363,-5.20726 -5.19731,-7.36739c0.00413,-8.43928 -0.18191,-16.89436 -0.18191,-25.312c0,-32.63508 1.5015,-64.98901 1.5015,-97.5976c0,-6.57461 0,-13.14923 0,-19.72384z" fill="#13d8e8" stroke="none" stroke-width="0.5"/><path d="M234.72272,272.20741c0,-7.60428 6.16448,-13.76876 13.76876,-13.76876c7.60428,0 13.76876,6.16448 13.76876,13.76876c0,7.60428 -6.16448,13.76876 -13.76876,13.76876c-7.60428,0 -13.76876,-6.16448 -13.76876,-13.76876z" fill="#79440c" stroke="url(#color-1)" stroke-width="0"/></g></g></svg>