<svg version="1.1" xmlns="http://www.w3.org/2000/svg" xmlns:xlink="http://www.w3.org/1999/xlink" width="38.47561" height="31.31222" viewBox="0,0,38.47561,31.31222"><defs><radialGradient cx="319.97524" cy="163.30372" r="19.20802" gradientUnits="userSpaceOnUse" id="color-1"><stop offset="0" stop-color="#3f3f3f"/><stop offset="1" stop-color="#000000"/></radialGradient><radialGradient cx="337.50001" cy="158.93962" r="9.6606" gradientUnits="userSpaceOnUse" id="color-2"><stop offset="0" stop-color="#ff4141"/><stop offset="1" stop-color="#ff0000"/></radialGradient></defs><g transform="translate(-300.76722,-148.67887)"><g stroke="none" stroke-width="0" stroke-miterlimit="10"><path d="M339.18148,151.05593c-1.95508,17.79017 -9.8006,28.93515 -19.18146,28.93515c-9.46281,0 -17.36334,-11.47214 -19.23135,-29.49615c-0.2743,-2.64664 38.71948,-2.32328 38.41281,0.46724z" fill="url(#color-1)"/><path d="M336.48983,155.07416c0.10852,-0.7182 -3.31447,-4.52558 -2.97446,-5.72965c0.0699,-0.2475 3.60311,0.30197 3.64593,0.30197c0.12195,0 1.86977,0.40016 1.96566,0.61915c0.51831,1.18373 -0.87388,4.23071 -0.8087,4.69663c0.12678,0.90634 2.40897,13.57876 -1.54405,13.85111c-8.05318,-0.01816 -0.43039,-12.77282 -0.28438,-13.73922z" fill="url(#color-2)"/></g></g></svg>