<svg version="1.1" xmlns="http://www.w3.org/2000/svg" xmlns:xlink="http://www.w3.org/1999/xlink" width="563.35367" height="218.57703" viewBox="0,0,563.35367,218.57703"><g transform="translate(-38.32316,-121.3685)"><g fill="#000000" stroke="none" stroke-miterlimit="10"><path d="M140.70126,203.03313c0,1.25 -1.25,1.25 -1.25,1.25c-4.60976,0 -10.2439,0 -14.85366,0c-0.77119,0 -4.67374,0.02097 -5.07138,-0.08836c-0.47968,-0.13189 -0.60684,-0.88838 -1.08537,-1.02439c-1.3899,-0.39506 -2.94438,-0.24182 -4.24741,-0.86633c-0.14219,-0.0709 -4.61382,-2.2991 -4.64332,-2.31989c-0.71384,-0.50305 -1.22319,-1.24965 -1.88465,-1.81982c-0.76215,-0.65695 -3.27342,-2.40529 -3.99066,-3.04351c-0.64614,-0.57496 -1.20377,-1.24228 -1.8047,-1.86435c-0.59442,-0.61534 -1.22079,-1.20152 -1.78132,-1.84788c-0.56053,-0.64636 -1.05399,-1.34797 -1.57718,-2.02491c-0.55263,-0.71503 -1.21638,-1.35825 -1.65025,-2.15098c-0.06498,-0.11872 -1.54754,-4.58588 -1.57579,-4.67063c-0.08577,-0.25732 -1.61259,-4.81856 -1.63248,-4.96021c-0.13056,-0.93015 -0.01791,-1.88277 0.08325,-2.81657c0.00633,-0.05841 0.95758,-4.88514 0.98115,-5.00412c0.1541,-0.77778 0.38833,-1.5436 0.46527,-2.33276c0.16179,-1.65939 -0.14477,-3.34082 0.00017,-5.00177c0.06009,-0.68856 0.26582,-1.35656 0.40036,-2.03451c0.16221,-0.81739 0.32659,-1.63435 0.48989,-2.45153c0.33545,-1.67519 0.62121,-3.45814 1.23749,-5.06355c0.31574,-0.8225 1.25458,-2.48949 1.75869,-3.40554c0.80164,-1.45672 1.61731,-2.90581 2.40524,-4.36999c0.12313,-0.22881 2.33684,-4.45799 2.42192,-4.5741c0.50435,-0.6883 1.26397,-1.15543 1.80474,-1.81551c0.75203,-0.91794 1.98484,-3.33425 2.73319,-4.14722c1.85221,-2.01213 2.25962,-1.57479 4.42992,-2.93017c0.76248,-0.47618 1.34919,-1.24395 2.17963,-1.58817c1.55163,-0.64315 3.82517,-0.50129 5.45603,-0.50273c1.36585,-0.0012 2.73171,0 4.09756,0c0,0 1.25,0 1.25,1.25c0,1.25 -1.25,1.25 -1.25,1.25h-4.09756c-0.79962,-0.00074 -1.60107,-0.0582 -2.39887,-0.0041c-0.69916,0.04741 -1.43779,0.02657 -2.07965,0.30779c-0.7033,0.30815 -1.1778,0.99281 -1.82649,1.40365c-1.71185,1.08417 -2.54804,0.98485 -3.91362,2.49858c-1.07778,1.19471 -1.62411,2.79358 -2.64114,4.04042c-0.51411,0.63028 -1.24667,1.06642 -1.73079,1.72003c-0.45881,0.61943 -0.70716,1.36994 -1.06401,2.05321c-0.38761,0.74215 -0.77262,1.48571 -1.16938,2.22301c-0.00368,0.00684 -2.40902,4.37709 -2.41653,4.39075c-0.42478,0.77167 -1.36156,2.43757 -1.61893,3.10641c-0.53027,1.378 -0.83066,3.21663 -1.11589,4.64713c-0.1633,0.81718 -0.32545,1.63458 -0.48989,2.45153c-0.1202,0.59715 -0.31191,1.18387 -0.36404,1.79076c-0.14258,1.65997 0.16185,3.34002 0.00017,4.99823c-0.00764,0.07841 -0.95365,4.87512 -0.98348,5.02599c-0.249,1.25937 -0.75966,3.19198 -0.56002,4.52788c0.11224,0.75105 0.4961,1.43549 0.73923,2.15491c0.26681,0.78947 0.52705,1.58114 0.79057,2.37171c0.26352,0.79057 0.5302,1.5801 0.79057,2.37171c0.20905,0.63559 0.29537,1.32352 0.6177,1.90985c0.36758,0.66863 0.94895,1.1951 1.41945,1.79578c0.50016,0.63855 0.96111,1.30907 1.49252,1.92185c0.53141,0.61279 1.12817,1.1657 1.69128,1.74948c0.55662,0.57705 1.06895,1.20004 1.66791,1.73301c1.24042,1.10377 2.70618,1.93284 3.96233,3.01868c0.60023,0.51886 1.04794,1.21181 1.69477,1.67127c0.6269,0.4453 1.38561,0.66735 2.07555,1.00688c0.74848,0.36834 1.4931,0.74448 2.23965,1.11672c1.21847,0.64038 2.73203,0.40056 4.0551,0.78036c0.47817,0.13726 0.60882,0.88159 1.08537,1.02439c1.32483,0.39698 2.76511,-0.08836 4.14813,-0.08836c4.60976,0 9.21951,0 13.82927,0h1.02439c0,0 1.25,0 1.25,1.25z" stroke-width="0.5"/><path d="M175.89691,165.21599c-0.30112,0.14031 -0.59199,0.14031 -0.59199,0.14031c-0.52348,-0.03172 -1.08273,-0.28797 -1.57043,-0.09515c-1.77067,0.70008 -0.88348,1.99678 -1.35465,3.37605c-0.22188,0.64952 -0.77571,1.13442 -1.11574,1.73065c-0.98135,1.72078 -1.2166,2.12602 -1.37248,4.09129c-0.06302,0.79452 0.00398,1.59403 0.00476,2.39105c0.00162,1.66667 0,3.33333 0,5c0,1.2561 0.00657,2.51221 0,3.76829c-0.00398,0.76176 -0.14946,1.5348 -0.01859,2.28524c0.13088,0.75044 0.53459,1.42674 0.79106,2.14404c0.25136,0.70302 0.33884,1.48223 0.73234,2.11672c0.72129,1.16301 2.06028,1.83598 2.85603,2.94936c0.08259,0.11556 1.77358,3.08663 2.10027,3.65969c0.47256,0.66067 0.94859,1.31887 1.41768,1.98201c0.32356,0.45741 0.54746,1.0007 0.96023,1.37956c0.31695,0.29091 3.7342,2.37157 3.99429,2.53698c0.37637,0.23936 0.67804,0.6417 1.11218,0.74406c0.67132,0.15827 1.40599,-0.18352 2.06917,0.00598c0.59189,0.16914 0.94716,0.84686 1.53659,1.02439c0.53857,0.16221 1.12443,-0.07354 1.68655,-0.05363c0.62095,0.02198 1.32201,0.49772 1.85539,0.17903c0.53421,-0.31919 0.3626,-1.21438 0.72459,-1.72058c1.30619,-1.8265 2.15625,-1.49546 2.9539,-3.58104c0.42419,-1.10912 0.36938,-3.4235 0.37977,-4.52751c0.01882,-2.00017 0.00708,-4.00204 0.00708,-6.00234c0,-0.83333 -0.01399,-1.66678 0,-2.5c0.0095,-0.56574 0.28089,-1.17076 0.07046,-1.696c-0.27095,-0.6763 -1.00294,-1.0647 -1.41674,-1.66434c-0.48962,-0.70951 -0.85455,-1.49742 -1.28182,-2.24612c-3.3347,-5.62139 -8.26689,-9.44149 -12.834,-14.0086c-0.98903,-0.98903 -2.30118,-2.46827 -3.69591,-3.40939zM170.99876,164.31011c-0.35567,-0.06227 -1.0414,-0.30237 -1.0414,-1.2282c0,-1.25 1.25,-1.25 1.25,-1.25h2.04878c3.29505,0.1556 5.79895,2.72021 8.10445,5.0257c4.72611,4.72611 9.75854,8.70617 13.22712,14.51917c0.39667,0.70005 0.74333,1.4309 1.19001,2.10015c0.52111,0.78078 1.37861,1.36051 1.70673,2.24c0.09372,0.25122 0.07046,4.75719 0.07046,5.02351c0,2.00863 0.01509,4.01958 -0.00721,6.02803c-0.01766,1.58995 0.04044,3.88832 -0.54721,5.40169c-0.34801,0.89625 -0.94482,1.68359 -1.53901,2.43944c-0.50457,0.64185 -1.23624,1.08209 -1.73655,1.72727c-0.56834,0.7329 -0.63583,1.92582 -1.44614,2.37699c-0.20352,0.11331 -4.96135,0.28768 -5.55562,0.1254c-0.59384,-0.16217 -0.94468,-0.8553 -1.53659,-1.02439c-0.65013,-0.18572 -1.37556,0.18194 -2.02839,0.00598c-0.65062,-0.17536 -1.16701,-0.6742 -1.74374,-1.02269c-0.68715,-0.41523 -3.88357,-2.37287 -4.41809,-2.867c-0.52172,-0.48231 -0.84023,-1.14601 -1.25553,-1.7225c-0.4994,-0.69324 -0.99234,-1.39111 -1.48851,-2.08666c-0.66913,-1.16842 -1.21809,-2.41295 -1.99729,-3.51104c-0.83329,-1.17431 -2.2195,-1.90511 -2.97842,-3.1288c-0.48498,-0.78198 -0.64731,-1.72277 -0.96018,-2.5881c-0.3077,-0.85102 -0.746,-1.6693 -0.90147,-2.56078c-0.15548,-0.89148 -0.01436,-1.80983 -0.01859,-2.71476c-0.00975,-2.08932 0,-4.17895 0,-6.26829c0,-0.83333 -0.00078,-1.66667 0,-2.5c0.0018,-1.93729 -0.14413,-3.37885 0.48165,-5.26582c0.28936,-0.87252 0.77128,-1.67119 1.2238,-2.47135c0.26827,-0.47437 0.76064,-0.82554 0.93304,-1.34252c0.25997,-0.77957 -0.07708,-1.72903 0.32942,-2.44322c0.2282,-0.40093 0.43706,-0.73643 0.63446,-1.0172z" stroke-width="0.5"/><path d="M235.2376,182.31973c1.24999,0.00586 1.24412,1.25585 1.24412,1.25585l-0.00702,1.49634c-0.01654,3.4517 -1.04773,6.49606 -1.01736,9.82706c-0.0106,0.9267 0.16387,1.87424 -0.03179,2.78011c-0.16505,0.76415 -0.85319,1.34696 -1.02439,2.10976c-0.19314,0.86051 0.20433,1.79885 -0.04287,2.64542c-0.18008,0.6167 -0.75999,1.03739 -1.17558,1.52732c-0.65389,0.77085 -1.1316,1.79005 -2.03054,2.25231c-0.7653,0.39354 -1.71858,0.10149 -2.57897,0.11801c-0.60792,0.01168 -1.23927,0.13404 -1.82378,-0.03344c-2.49542,-0.71502 -2.30546,-1.35582 -4.31577,-2.67245c-0.73632,-0.48224 -1.64373,-0.69911 -2.31772,-1.2652c-0.66573,-0.55915 -2.2658,-2.86756 -2.88729,-3.73754c-1.81771,-2.54451 -3.53308,-5.13948 -5.15245,-7.81544c-0.46027,-0.76059 -1.02066,-1.46975 -1.37607,-2.28463c-0.98083,-2.24887 -1.07463,-4.81909 -1.76175,-7.1504c-0.17953,-0.60913 -0.46442,-1.18211 -0.69663,-1.77316c-0.31682,-0.81717 -0.72008,-1.6059 -0.95046,-2.45152c-0.5489,-2.01475 -0.45403,-2.67971 -0.45588,-4.57842c-0.00243,-2.49999 0,-5.00001 0,-7.5c0,-2.21951 -0.00055,-4.43902 0,-6.65854c0.00032,-1.28891 0.00086,-2.58136 0.11805,-3.86494c0.07933,-0.8689 0.08165,-1.74856 0.24067,-2.60646c0.14849,-0.80108 0.55181,-1.54339 0.67775,-2.34832c0.09837,-0.62867 -0.02502,-1.27275 -0.01163,-1.90893c0.01123,-0.53375 0.05417,-1.06637 0.08544,-1.59932c0.05337,-0.90955 -0.04749,-1.843 0.1685,-2.72815c0.21069,-0.86343 0.76654,-1.60545 1.09087,-2.43292c0.29595,-0.75506 0.51178,-1.53912 0.76766,-2.30868c0,0 0.39528,-1.18585 1.58114,-0.79057c1.18585,0.39528 0.79057,1.58114 0.79057,1.58114c-0.27116,0.81158 -0.49821,1.63926 -0.81348,2.43474c-0.28663,0.72323 -0.80149,1.35889 -0.98923,2.11385c-0.18236,0.73328 -0.06338,1.50991 -0.09963,2.26466c-0.02454,0.51093 -0.06977,1.02096 -0.08274,1.53231c-0.0185,0.72932 0.09815,1.46738 -0.01163,2.18863c-0.1282,0.84225 -0.53914,1.62189 -0.69585,2.4593c-0.14608,0.7806 -0.13812,1.5823 -0.20852,2.37333c-0.10762,1.2092 -0.10825,2.42636 -0.10794,3.64034c0.00057,2.21951 0,4.43902 0,6.65854c0,2.49999 0.00255,5.00001 0,7.5c-0.00164,1.61105 -0.10172,2.23725 0.36612,3.91453c0.21231,0.76118 0.57924,1.4705 0.86885,2.20575c0.2532,0.65156 0.5615,1.28431 0.75961,1.95468c0.24525,0.82985 0.37848,1.68877 0.56675,2.53338c0.19249,0.86354 0.74602,3.55064 1.09388,4.34335c0.31249,0.71212 0.81612,1.32403 1.22168,1.98758c1.59959,2.61715 3.26816,5.16539 5.05068,7.66121c0.34989,0.48991 2.08418,2.96628 2.45195,3.26886c0.60738,0.49972 1.43004,0.66759 2.08948,1.09628c1.34602,0.87502 1.94606,1.88238 3.5194,2.33003c0.40071,0.11401 0.83297,-0.04616 1.24939,-0.03344c0.50748,0.01551 1.07314,0.36166 1.51859,0.11801c0.57709,-0.31565 0.75652,-1.07753 1.17038,-1.5888c0.22597,-0.27915 0.66685,-0.42748 0.74545,-0.77792c0.1718,-0.76596 -0.21143,-1.5879 -0.04287,-2.35458c0.16787,-0.76353 0.8497,-1.34776 1.02439,-2.10976c0.16537,-0.72132 -0.02119,-1.47992 -0.03179,-2.21989c0.02589,-3.40574 1.00141,-6.35417 1.01739,-9.83878l0.00702,-1.49634c0,0 0.00586,-1.24999 1.25585,-1.24412z" stroke-width="0.5"/><path d="M272.80316,200.96868c1.04006,0.69338 0.34669,1.73344 0.34669,1.73344l-1.09778,1.6357c-0.39953,0.39953 -0.79905,0.79905 -1.19858,1.19858c-0.51275,0.34191 -1.06085,0.63598 -1.53824,1.02574c-0.45844,0.3743 -0.82537,0.84893 -1.25563,1.25532c-0.72172,0.68169 -1.27969,1.63452 -2.19948,2.00815c-0.91761,0.37274 -1.97961,0.0738 -2.96988,0.09167c-0.60218,0.01087 -4.77283,-0.00053 -4.98775,-0.05852c-0.67678,-0.18261 -1.0864,-0.9237 -1.73625,-1.18651c-0.82493,-0.33361 -1.85137,-0.10179 -2.60789,-0.57029c-0.81044,-0.5019 -1.20847,-1.47536 -1.84342,-2.18639c-0.32919,-0.36864 -0.73182,-0.66918 -1.04676,-1.05007c-0.42677,-0.51614 -0.78152,-1.08782 -1.17127,-1.63245c-1.7754,-2.48089 -3.44751,-4.97864 -4.92427,-7.65136c-0.43198,-0.78182 -0.96632,-1.51622 -1.29001,-2.34873c-0.04898,-0.12597 -1.04471,-4.65511 -1.06774,-4.74739c-0.56776,-2.27448 -1.28023,-4.52266 -1.89719,-6.78478c-0.22972,-0.85439 -0.54859,-1.68967 -0.68915,-2.56316c-0.1068,-0.66365 -0.03358,-1.34396 -0.04773,-2.016c-0.01754,-0.83315 -0.03225,-1.66636 -0.04735,-2.49955c-0.01449,-0.79972 0.03797,-1.60328 -0.0414,-2.39918c-0.16578,-1.66235 -0.74303,-3.26751 -0.89555,-4.93113c-0.0769,-0.83878 -0.0042,-1.68459 -0.00505,-2.52689c-0.00251,-2.49999 0,-5.00001 0,-7.5c0,-6.2561 0,-12.51219 0,-18.76829c0,0 0,-1.25 1.25,-1.25c1.25,0 1.25,1.25 1.25,1.25c0,6.2561 0,12.51219 0,18.76829c0,2.49999 0.00263,5.00001 0,7.5c-0.00081,0.76746 -0.07523,1.53813 -0.00505,2.30238c0.15204,1.65577 0.72831,3.25304 0.89331,4.90757c0.00623,0.06243 0.09854,4.97368 0.10064,5.09947c0.00949,0.56933 -0.06912,1.14613 0.02281,1.70807c0.12624,0.77169 0.41762,1.5071 0.62644,2.26065c0.62108,2.27735 1.3374,4.54068 1.90917,6.83042c0.20479,0.82011 0.36949,1.64972 0.55061,2.47538c0.14589,0.66505 0.18286,1.36247 0.43043,1.99674c0.28124,0.72052 0.76087,1.34688 1.13821,2.02205c0.39889,0.71374 0.76676,1.44539 1.19047,2.14468c1.09583,1.80853 2.35656,3.54762 3.58274,5.2677c0.34886,0.48938 0.6609,1.00696 1.04449,1.46961c0.30099,0.36303 0.6987,0.63762 1.00203,0.99871c0.45934,0.54681 0.66632,1.35283 1.28006,1.71795c0.66789,0.39734 1.57301,0.12218 2.29526,0.40905c0.5777,0.22946 0.90798,0.92892 1.50541,1.10054c0.6801,0.19537 1.41447,-0.04874 2.122,-0.05852c0.70318,-0.00972 1.40668,-0.01557 2.10976,0c0.67723,0.015 1.40222,0.34586 2.03012,0.09167c0.62573,-0.2533 0.91605,-0.99203 1.38751,-1.47517c0.46643,-0.47798 0.90951,-0.98392 1.42568,-1.4077c0.47522,-0.39017 1.02329,-0.68202 1.53493,-1.02304c0.2834,-0.2834 0.5668,-0.5668 0.8502,-0.8502l0.951,-1.43747c0,0 0.69338,-1.04006 1.73344,-0.34669z" stroke-width="0.5"/><path d="M315.87198,202.00874c0,1.25 -1.25,1.25 -1.25,1.25h-1.02439c-0.4302,-0.00005 -3.63451,0.04539 -4.08484,-0.13411c-0.76676,-0.30563 -1.21262,-1.20756 -1.99724,-1.46388c-0.75834,-0.24774 -1.59543,0.01974 -2.39315,0.02961c-0.70325,-0.34146 -1.34726,-0.85188 -2.10976,-1.02439c-0.87749,-0.19852 -1.83557,0.19198 -2.69824,-0.06336c-0.4916,-0.14551 -0.63949,-0.8618 -1.11061,-1.064c-0.58878,-0.2527 -1.29036,-0.06173 -1.90815,-0.23162c-1.07382,-0.29531 -2.29516,-0.42381 -3.13497,-1.15526c-0.41059,-0.35761 0.26269,-1.19761 -0.06538,-1.63217c-0.34863,-0.46179 -1.11904,-0.32889 -1.62586,-0.60805c-0.66272,-0.36505 -1.29772,-0.79655 -1.85439,-1.30897c-0.69735,-0.64193 -2.9433,-3.4037 -3.38362,-4.24066c-0.99881,-1.89852 -1.0449,-2.55773 -1.02191,-4.00039c-0.77307,-0.00171 -1.54614,-0.00518 -2.3192,-0.00518c0,0 -1.25,0 -1.25,-1.25c0,-1.25 1.25,-1.25 1.25,-1.25c0.77748,0 1.55499,-0.00409 2.33248,-0.00606c-0.00384,-2.14226 0.00289,-4.28465 0.00289,-6.42687c0,-0.74219 -0.02458,-4.77877 0.10499,-5.11121c0.28849,-0.74016 0.99931,-1.30634 1.71135,-1.65856c0.88485,-0.43771 1.91612,-0.49936 2.89585,-0.62049c0.06081,-0.00752 3.30389,-0.00608 3.70854,-0.00608c0.71453,0.0012 1.4314,-0.05411 2.1436,0.0036c2.23708,0.18128 2.63747,0.46913 4.81833,1.05817c1.92589,0.52018 2.73729,0.29042 3.92462,2.78305c0.95595,2.00687 -0.18177,2.75145 -1.29536,3.92321c-0.36095,0.37981 -0.70664,0.77987 -1.11579,1.10718c-0.44897,0.35917 -1.03777,0.5359 -1.44519,0.9416c-0.47871,0.47669 -0.6273,1.24973 -1.16549,1.65807c-0.50198,0.38087 -1.249,0.2767 -1.79623,0.5891c-0.75628,0.43174 -1.2845,1.2086 -2.05701,1.61058c-0.40576,0.21114 -0.93525,0.0034 -1.36183,0.16846c-1.5203,0.58825 -2.85601,1.99936 -4.43367,2.44628c-0.6982,0.19778 -1.44676,0.05904 -2.17617,0.04152c-0.02796,0.9566 0.03204,1.51529 0.74898,2.8236c0.36403,0.6643 0.88068,1.23368 1.35415,1.82499c1.30722,1.63257 1.32198,1.73319 2.96086,2.75806c0.80857,0.50563 1.86046,0.70872 2.4717,1.44073c0.30819,0.36908 -0.39991,1.09563 -0.06538,1.441c0.39121,0.40388 1.1173,0.13033 1.67265,0.21835c0.83713,0.13267 1.7209,0.11868 2.50374,0.44355c0.41875,0.17377 0.50208,0.86076 0.93817,0.98478c0.73827,0.20996 1.5518,-0.22674 2.30176,-0.06336c0.76385,0.1664 1.4065,0.68293 2.10976,1.02439c0.86895,0.00987 1.78028,-0.23861 2.60685,0.02961c0.80017,0.25966 1.27705,1.13502 2.04442,1.47976c0.99237,0.44582 2.17583,-0.00444 3.26374,-0.00458h1.02439c0,0 1.25,0 1.25,1.25zM288.72876,183.86723c0.50678,0.0403 1.02391,0.16964 1.5065,0.02903c0.69984,-0.20391 1.25575,-0.74086 1.89189,-1.09677c0.79995,-0.44755 1.56314,-0.97745 2.41601,-1.31338c0.36253,-0.14279 0.82125,0.08661 1.16489,-0.09706c0.70196,-0.37518 1.15647,-1.11766 1.84734,-1.51289c0.43971,-0.25155 1.06779,-0.07723 1.47016,-0.38499c0.44167,-0.33782 0.49097,-1.02105 0.88329,-1.4151c0.46304,-0.46506 1.11552,-0.69722 1.62798,-1.10718c0.34503,-0.27602 0.60868,-0.64151 0.93299,-0.9416c0.23855,-0.22073 0.58048,-0.3437 0.75342,-0.61886c0.44377,-0.70607 -1.13684,-1.6845 -1.21079,-1.72825c-0.29391,-0.17389 -0.67962,-0.08333 -1.01093,-0.16614c-0.79631,-0.19904 -1.56641,-0.49799 -2.36719,-0.67822c-1.8341,-0.41282 -2.14912,-0.31218 -3.98795,-0.30879c-1.82457,0 -3.69277,-0.1963 -5.46925,0.35401c-0.22471,0.06961 -0.51355,0.20274 -0.55647,0.43403c-0.12173,0.6559 0.08795,1.33167 0.10499,1.99855c0.01797,0.70302 0,1.4065 0,2.10976c0,2.14787 0.00737,4.29594 0.00312,6.44386z" stroke-width="0.5"/><path d="M334.311,199.44777c0,1.25 -1.25,1.25 -1.25,1.25h-1.02439c-3.22497,0 -7.64906,0.7644 -10.72226,-0.09515c-0.46505,-0.13007 -0.57699,-0.84265 -1.02439,-1.02439c-0.41594,-0.16896 -0.91729,0.19683 -1.34542,0.06171c-1.57004,-0.49551 -2.90118,-1.75261 -3.84235,-3.10345c-0.53219,-0.72016 -1.16539,-1.37567 -1.59656,-2.16049c-0.27046,-0.49229 -0.19936,-1.12819 -0.47812,-1.61583c-0.41408,-0.72433 -1.16727,-1.22045 -1.56315,-1.95488c-0.07466,-0.1385 -1.35139,-4.5312 -1.35727,-4.55037c-0.26202,-0.8531 -0.67794,-1.66805 -0.81711,-2.54956c-0.14154,-0.89651 -0.03399,-1.81538 -0.01529,-2.7228c0.04368,-2.11989 -0.04083,-3.49035 1.30345,-5.37117c0.40605,-0.56812 1.1701,-0.76646 1.71477,-1.20347c0.31697,-0.25432 0.59589,-0.55514 0.86097,-0.86316c0.51178,-0.59466 0.75473,-1.51075 1.46636,-1.84108c0.78518,-0.36448 1.76603,0.19918 2.59655,-0.0449c0.45137,-0.13265 0.55064,-0.83375 0.98749,-1.0084c0.64262,-0.25692 1.37955,-0.11925 2.06536,-0.21212c0.83905,-0.11363 1.66332,-0.33917 2.5073,-0.40711c0.06428,-0.00517 4.27014,-0.0041 4.64991,-0.0041c0,0 1.25,0 1.25,1.25c0,1.25 -1.25,1.25 -1.25,1.25c-1.48255,0 -2.97004,-0.1251 -4.44765,-0.0041c-0.81722,0.06692 -1.61204,0.31111 -2.42724,0.39931c-0.43651,0.04723 -0.91527,-0.17094 -1.31717,0.00584c-0.45346,0.19947 -0.58516,0.90358 -1.06129,1.04038c-0.77013,0.22127 -1.65491,-0.33084 -2.40345,-0.0449c-0.44193,0.16882 -0.41281,0.85955 -0.70437,1.23209c-0.34478,0.44054 -0.75047,0.83678 -1.18781,1.18562c-0.41693,0.33255 -1.03285,0.42289 -1.3584,0.84531c-0.85762,1.11281 -0.72067,2.57276 -0.74533,3.84834c-0.01467,0.75894 -0.13589,1.52776 -0.01529,2.2772c0.12302,0.76443 0.50524,1.46402 0.73627,2.20302c0.25058,0.80153 0.47665,1.61054 0.70829,2.41775c0.16401,0.57151 0.18973,1.19865 0.47862,1.71833c0.40441,0.72748 1.1475,1.22672 1.56032,1.94946c0.28494,0.49885 0.22134,1.14596 0.49596,1.65056c0.36868,0.67743 0.93563,1.22634 1.40344,1.83951c1.43804,2.2714 1.97486,1.33717 4.10491,2.17778c0.44919,0.17727 0.5625,0.88348 1.02439,1.02439c2.58049,0.78722 6.98876,-0.09515 9.76555,-0.09515h1.02439c0,0 1.25,0 1.25,1.25z" stroke-width="0.5"/><path d="M370.16466,177.93557c0,1.25 -1.25,1.25 -1.25,1.25h-2.04878c-1.14742,-0.03071 -2.17933,0.73311 -3.29785,0.99087c-1.85953,0.42854 -4.25328,-0.39539 -6.20825,-0.17573c0,7.31568 0,14.63137 0,21.94705c0,1.72028 0.68037,6.46694 -0.99293,7.70477c-0.87896,0.65022 -2.17951,0.1765 -3.26927,0.26474l-1.30221,-1.61443c0,0 -0.14777,-1.24124 1.09347,-1.389c0.86955,-0.10352 1.20245,0.47465 1.32386,0.83019c0.2161,0.04258 0.42453,0.04062 0.61562,-0.06202c0.35736,-0.19194 0.03688,-0.81063 0.04083,-1.21625c0.02275,-2.33835 -0.00937,-4.67944 -0.00937,-7.018c0,-6.00225 0,-12.00451 0,-18.00676c-0.1459,0.10439 -0.30119,0.19025 -0.47279,0.24414c-0.95681,0.30051 -3.76539,-0.13196 -4.91349,0.12954c-4.45528,1.0148 -8.68037,0.95625 -13.33933,0.95625c0,0 -1.25,0 -1.25,-1.25c0,-1.25 1.25,-1.25 1.25,-1.25c3.23658,0 7.37294,0.70242 10.51971,0.02255c0.80615,-0.17417 1.48957,-0.74824 2.29554,-0.92326c1.51928,-0.32992 3.19131,0.43702 4.66364,-0.06228c0.49646,-0.16836 0.85256,-0.60823 1.24672,-0.97364c0,-1.58007 0,-3.16014 0,-4.7402c0,-5.42769 0.10279,-10.86966 -0.03025,-16.2962c-0.1838,-7.49707 -0.82818,-14.98361 -0.99384,-22.48107c-0.00041,-0.01836 -0.0003,-4.99115 -0.0003,-5.02761c0,0 0,-1.25 1.25,-1.25c1.25,0 1.25,1.25 1.25,1.25c0,1.65746 -0.03692,3.31533 -0.0003,4.97239c0.03661,1.65706 0.14672,3.31168 0.21992,4.96752c0.18403,4.1626 0.36806,8.3252 0.55209,12.4878c0.00144,0.03247 0.22128,5.00335 0.22168,5.01969c0.13354,5.44698 0.031,10.90933 0.031,16.35747c0,1.33137 0,2.66275 0,3.99412c1.87679,-0.01352 3.88689,0.58594 5.63321,0.15525c1.29933,-0.32045 2.53485,-1.03337 3.87288,-1.05791h2.04878c0,0 1.25,0 1.25,1.25z" stroke-width="0.5"/><path d="M421.53024,210.57555c-0.88388,0.88388 -1.76777,0 -1.76777,0l-1.29536,-1.42992c-0.11216,-3.05075 -0.15517,-6.09135 -0.30692,-9.14117c-0.26479,-0.79756 -0.62193,-1.57019 -0.79437,-2.39267c-0.11096,-0.52922 -0.0352,-1.0809 -0.04725,-1.6215c-0.01762,-0.79028 0.05559,-1.5866 -0.04175,-2.37105c-0.09734,-0.78446 -0.36053,-1.53929 -0.53903,-2.30935c-0.37071,-1.59931 -0.78644,-3.18882 -1.24527,-4.76511c-0.24606,-0.84534 -0.58398,-1.66966 -0.73421,-2.53717c-0.28461,-1.64353 -0.00993,-3.35145 -0.29164,-4.99548c-0.14278,-0.83323 -0.56349,-1.60428 -0.69237,-2.43977c-0.10391,-0.6736 0.07848,-1.36759 0.00058,-2.04469c-0.04985,-0.43328 -0.25605,-0.83387 -0.3799,-1.25206c-0.23097,-0.77994 -0.42054,-1.5729 -0.68452,-2.3423c-0.28956,-0.84396 -0.78726,-1.62068 -0.97447,-2.49306c-0.14237,-0.66341 0.14562,-1.37226 0.00262,-2.03554c-0.15153,-0.70284 -0.5823,-1.31483 -0.86726,-1.97494c-0.02237,-0.05182 -0.8024,-1.88591 -1.37779,-3.24066c-0.03788,0.93093 -0.04331,1.85889 0.08459,2.66586c0.20308,1.28139 1.22496,2.31693 1.53479,3.57678c1.05819,4.30286 0.53952,9.65704 0.53952,14.08919c0,2.92276 0.00009,5.84553 0,8.76829c-0.00004,1.44647 -0.01022,2.89329 -0.05501,4.33906c-0.02677,0.86407 0.00879,1.73243 -0.08184,2.59215c-0.09063,0.85972 -0.30538,1.70178 -0.46049,2.55223c-0.15704,0.86105 -0.24478,1.73809 -0.47595,2.58227c-0.17726,0.64732 -0.48926,1.25002 -0.74356,1.87113c-0.35597,0.86942 -0.50498,1.86296 -1.08717,2.6003c-1.889,2.39244 -2.45511,2.04967 -5.00452,2.06652c-1.66279,0.01099 -2.57412,0.17693 -3.90939,-1.22277c-0.59692,-0.62573 -0.6921,-1.61135 -1.24567,-2.27575c-0.5398,-0.64787 -1.41558,-0.95127 -1.97141,-1.58544c-0.37677,-0.42987 -0.51524,-1.02061 -0.76387,-1.53532c-0.34934,-0.72321 -0.63388,-1.47955 -1.02997,-2.17825c-0.42337,-0.74681 -1.04342,-1.37674 -1.4221,-2.14718c-0.37128,-0.75537 -0.53932,-1.59463 -0.80898,-2.39195c-0.27527,-0.83324 -0.63263,-1.64371 -0.82581,-2.49971c-0.17107,-0.75804 -0.17561,-1.54426 -0.26114,-2.31665c-0.09422,-0.85088 -0.23178,-1.69831 -0.2781,-2.55313c-0.08781,-1.62033 0.01183,-2.9049 0.10552,-4.48668c0.05245,-0.88558 -0.00075,-1.78439 0.16198,-2.65647c0.15071,-0.80765 0.63876,-1.53027 0.77059,-2.34121c0.1588,-0.97688 -0.22087,-3.76616 0.03807,-4.71439c0.16217,-0.59384 0.85109,-0.9459 1.02439,-1.53659c0.2138,-0.72873 -0.2531,-1.60103 0.09427,-2.27637c0.33466,-0.65061 1.24401,-0.79462 1.7548,-1.31845c0.44739,-0.45882 0.58595,-1.18288 1.08102,-1.5898c0.23685,-0.19468 4.41405,-2.26309 4.70568,-2.32989c0.78565,-0.17996 1.63661,0.21992 2.41788,0.02185c0.5967,-0.15128 0.94924,-0.84008 1.53659,-1.02439c0.60414,-0.18958 1.26588,-0.03576 1.89882,-0.05363c0,0 0.10251,0 0.24882,0.02936c-0.19525,-1.7008 0.03777,-3.78079 0.03777,-5.43789v-2.5c0,-0.69036 0.55964,-1.25 1.25,-1.25c0.3324,0 0.6345,0.12974 0.85841,0.34135l1.02235,0.96149l-0.01982,0.02108c0.08224,0.07343 0.15956,0.15274 0.23095,0.23914c0.58495,0.70796 0.48717,1.77279 0.79767,2.63707c0.55479,1.54426 1.29393,3.01597 1.92872,4.5291c0.34252,0.81646 0.82144,1.59039 1.0163,2.45408c0.15128,0.67049 -0.13875,1.38938 0.00262,2.06202c0.15929,0.75792 0.62785,1.4179 0.88248,2.14932c0.28053,0.80581 0.48319,1.63665 0.72084,2.45613c0.15442,0.53251 0.38668,1.04962 0.45535,1.5998c0.08476,0.67902 -0.10373,1.37658 0.00058,2.05287c0.12519,0.8117 0.54481,1.55796 0.68123,2.36785c0.27662,1.6422 0.00613,3.34666 0.29029,4.98757c0.13416,0.77472 0.44822,1.50727 0.67022,2.26154c0.47724,1.62144 0.90442,3.2584 1.28206,4.90588c0.19577,0.85405 0.47596,1.6934 0.58386,2.56293c0.1079,0.86953 0.04409,1.75186 0.06026,2.62791c0.00767,0.41558 -0.07873,0.84111 0.01128,1.24689c0.17894,0.8067 0.52451,1.56716 0.78676,2.35075c0.17035,2.90024 0.33014,5.74731 0.16072,8.652l0.75342,0.61886c0,0 0.88388,0.88388 0,1.76777zM407.76535,165.9873c-0.36991,0.3934 -0.94826,0.3934 -0.94826,0.3934c-0.39145,-0.01788 -0.80543,-0.18574 -1.17436,-0.05363c-0.57955,0.20753 -0.93995,0.87283 -1.53659,1.02439c-0.83424,0.21191 -1.74057,-0.15892 -2.58212,0.02185c-0.67076,0.14408 -1.22116,0.62583 -1.83736,0.92744c-0.58769,0.28766 -1.27486,0.41719 -1.77403,0.84022c-0.4504,0.3817 -0.54363,1.07268 -0.96776,1.48337c-0.36091,0.34947 -1.10107,0.27738 -1.31838,0.73033c-0.26294,0.54807 0.25655,1.23537 0.09427,1.82119c-0.16433,0.59324 -0.84686,0.94716 -1.02439,1.53659c-0.16221,0.53857 0.04875,1.1241 0.05363,1.68655c0.00781,0.89885 0.12325,1.80851 -0.01556,2.69662c-0.1305,0.83494 -0.62443,1.58126 -0.78279,2.41137c-0.14607,0.76574 -0.08019,1.55703 -0.12272,2.33542c-0.08299,1.51913 -0.19136,2.64607 -0.10519,4.20787c0.04466,0.80936 0.1795,1.61121 0.26693,2.41707c0.07429,0.6847 0.06608,1.3829 0.21822,2.05461c0.17432,0.76965 0.50356,1.4958 0.75533,2.2437c0.22769,0.69471 0.35792,1.42935 0.68306,2.08414c0.35944,0.72388 0.9531,1.30983 1.3514,2.01307c0.42555,0.75136 0.74931,1.55605 1.11351,2.33899c0.16218,0.34865 0.20442,0.77317 0.46549,1.05547c0.55905,0.60452 1.40675,0.90471 1.93294,1.53803c0.51249,0.61683 0.62877,1.49434 1.11581,2.13146c0.58042,0.75928 1.3499,0.45837 2.11747,0.46606c1.54904,0.01551 1.944,0.50506 2.99738,-1.05696c0.40671,-0.6031 0.50915,-1.3629 0.77394,-2.04042c0.21379,-0.54702 0.50752,-1.06626 0.66172,-1.63297c0.20778,-0.76366 0.27737,-1.55835 0.41848,-2.33708c0.14303,-0.78933 0.34984,-1.56935 0.43394,-2.36712c0.0841,-0.79777 0.04561,-1.60373 0.0692,-2.40557c0.0418,-1.42068 0.05391,-2.84225 0.05387,-4.26354c-0.00009,-2.92276 0,-5.84553 0,-8.76829c0,-4.23096 0.55029,-9.48093 -0.48487,-13.56935c-0.17602,-0.69522 -0.55789,-1.32467 -0.90223,-1.9643z" stroke-width="0.5"/><path d="M447.7927,188.46606c1.25,0 1.25,1.25 1.25,1.25v1.02439c0,1.14675 -0.47288,4.07466 -0.08836,5.17252c0.16444,0.46952 0.88705,0.60722 1.02439,1.08537c0.24484,0.85241 0.03431,1.77343 0.05146,2.66014c0.17229,0.42643 0.18925,0.95651 0.51688,1.27929c0.23492,0.23145 0.77883,0.45473 0.97151,0.18709c0.29925,-0.41568 -0.42968,-1.25781 0,-1.53659c0.56873,-0.36899 3.44083,-0.39761 4.46925,-0.36612c0.52419,0.01605 1.0767,0.27196 1.57043,0.09515c0.45463,-0.16281 0.57514,-0.84728 1.02439,-1.02439c0.53834,-0.21223 1.17802,0.09418 1.73483,-0.06336c0.75224,-0.21283 1.3466,-0.85481 2.10976,-1.02439c0.81119,-0.18025 1.67898,0.16903 2.49292,0.00165c1.17245,-0.2411 1.82062,-1.05269 2.68836,-1.72862c0.51892,-0.40422 1.27857,-0.59035 1.5888,-1.17038c0.24901,-0.46558 -0.10274,-1.05179 -0.11801,-1.57956c-0.02409,-0.83206 0.00173,-1.66481 0,-2.49721c-0.00149,-0.7216 -0.01051,-1.44318 -0.00965,-2.16477c0.00088,-0.73676 0.18851,-1.49423 0.01485,-2.21023c-0.14906,-0.61457 -2.09423,-3.65306 -2.31655,-4.05533c-0.61095,-1.1055 -1.13216,-2.25999 -1.76499,-3.35311c-0.51389,-0.09842 -1.01986,-0.25687 -1.54168,-0.29526c-1.48308,-0.10911 -2.97417,0.00886 -4.46125,0.00885c-0.83006,-0.00001 -1.66013,0.00194 -2.49019,-0.00004c-0.59712,-0.00142 -1.21997,-0.18369 -1.79132,-0.01017c-0.73739,0.22395 -1.28323,0.87597 -1.99909,1.16133c-0.58891,0.23476 -1.41494,-0.0691 -1.86388,0.37855c-0.32845,0.3275 0.33169,0.99148 0.0918,1.38845c-0.37161,0.61492 -1.26572,0.74358 -1.71774,1.30206c-0.38361,0.47397 -1.66098,3.87686 -1.83318,4.2614c-0.29885,0.66736 -0.73203,1.2736 -0.98802,1.95855c-0.20352,0.54457 -0.2517,1.13514 -0.38011,1.70214c-0.18406,0.81275 -0.37022,1.62503 -0.5573,2.43709c-0.12332,0.53526 -0.29165,1.0627 -0.41204,1.59839c-0.02986,2.69798 -0.08401,5.39412 -0.10509,8.07839c0.03322,0.72131 0.14252,1.45073 -0.00873,2.15238v2.04878c0,0.69036 -0.55964,1.25 -1.25,1.25c-0.69036,0 -1.25,-0.55964 -1.25,-1.25v-2.04878c-0.29528,-0.77926 0,-1.66667 0,-2.5c0,-0.83333 0,-1.66667 0,-2.5c0,-0.35838 -0.00216,-4.72191 0.00789,-4.81094c0.00193,-0.01713 0.04406,-0.20807 0.11108,-0.5063c0.07628,-6.76682 -0.00966,-13.54525 -1.19515,-20.16614c-0.36195,-2.47143 -0.68172,-4.95449 -1.08607,-7.4193c-0.66511,-4.05421 -1.67809,-8.02938 -2.42658,-12.06473c-0.45455,-2.4506 -0.74203,-4.935 -1.15776,-7.39256c-0.40766,-2.40986 -0.87707,-4.79987 -1.23264,-7.21874c-0.1212,-0.82447 -0.2491,-1.64799 -0.36349,-2.47343c-0.10033,-0.72393 0.00549,-1.50201 -0.28066,-2.17451c-0.33772,-0.79368 -1.2453,-1.27188 -1.53197,-2.08539c-0.27086,-0.76864 -0.04276,-1.62938 -0.06415,-2.44407c0,0 0,-1.25 1.25,-1.25c1.25,0 1.25,1.25 1.25,1.25c-0.02138,0.55117 -0.2661,1.14022 -0.06415,1.6535c0.29445,0.74837 1.16394,1.1701 1.46803,1.91461c0.07877,0.19286 0.75538,4.87529 0.80982,5.24579c0.35276,2.40103 0.81953,4.77314 1.22419,7.16525c0.41354,2.44466 0.69877,4.91639 1.15095,7.35411c0.75164,4.05218 1.76754,8.0442 2.43544,12.11543c0.40454,2.4659 0.72481,4.94994 1.0866,7.42252c0.71896,4.01239 1.04191,8.07984 1.16993,12.16726c0.03778,-0.07723 0.07438,-0.15499 0.10938,-0.23347c0.56111,-1.25811 1.37696,-3.80856 2.22212,-4.87178c0.3375,-0.42457 1.12154,-0.36624 1.39769,-0.83305c0.28636,-0.48405 -0.31155,-1.29278 0.0918,-1.68472c0.746,-0.7249 1.94017,-0.75584 2.87954,-1.20259c0.8093,-0.38489 1.49761,-1.04299 2.35936,-1.28895c0.35943,-0.10259 4.61749,-0.07635 4.93369,-0.07635c0.38704,0 4.67743,-0.00235 4.75826,0.00885c0.91635,0.12696 1.78522,0.48608 2.67783,0.72913c0.46298,0.64446 0.98014,1.25327 1.38895,1.93339c0.4338,0.72169 0.72355,1.52187 1.13091,2.2588c0.6138,1.11038 2.25832,3.46345 2.55656,4.6692c0.05557,0.22467 0.06563,4.42449 0.06675,4.96492c0.00079,0.38223 0.03643,4.83843 -0.11801,5.14274c-0.45746,0.90139 -1.49116,1.36539 -2.25231,2.03054c-1.12246,0.9809 -2.17673,1.86972 -3.71444,2.24119c-0.81233,0.19624 -1.69129,-0.17965 -2.50708,0.00165c-0.76315,0.1696 -1.35669,0.8145 -2.10976,1.02439c-0.43022,0.11991 -0.92464,-0.23163 -1.33834,-0.06336c-0.44732,0.18194 -0.56383,0.87921 -1.02439,1.02439c-0.80398,0.25344 -1.68439,0.07542 -2.52713,0.09515c-0.51205,0.01199 -1.02903,0.06879 -1.53659,0c-0.40334,-0.05466 -0.87777,-0.65461 -1.1649,-0.36612c-0.36131,0.36304 0.4709,1.3351 0,1.53659c-1.2359,0.5288 -2.80864,0.75193 -4.02849,0.18709c-0.98841,-0.45768 -1.10257,-1.87885 -1.65385,-2.81827c0.01715,-0.77995 0.26463,-1.58941 0.05146,-2.33986c-0.13593,-0.47855 -0.87732,-0.61012 -1.02439,-1.08537c-0.47752,-1.54307 -0.08836,-4.45006 -0.08836,-6.09577v-1.02439c0,0 0,-1.25 1.25,-1.25z" stroke-width="0.5"/><path d="M520.89609,208.29559c0.88388,0.88388 0,1.76777 0,1.76777l-1.11579,1.10718c-2.12945,1.35776 -7.05904,2.37074 -9.57743,1.15981c-1.15992,-0.55773 -1.68529,-1.9938 -2.76364,-2.69639c-0.4082,-0.41048 -0.87403,-0.77076 -1.2246,-1.23143c-0.8636,-1.13484 -1.35524,-2.51354 -2.13672,-3.70643c-0.49038,-0.74854 -1.21006,-1.35276 -1.59052,-2.16272c-0.48156,-1.02519 -0.66819,-3.65776 -1.08944,-4.74417c-0.29387,-0.75788 -0.87235,-1.37881 -1.20149,-2.12205c-0.34659,-0.78263 -0.51926,-1.63188 -0.8164,-2.43459c-0.18607,-0.50265 -0.42162,-0.98557 -0.63212,-1.47848c-0.27846,-0.65204 -1.80907,-4.18203 -1.97261,-4.8073c-0.19453,-0.74375 -0.1796,-1.52701 -0.26598,-2.29091c-0.09622,-0.85095 -0.23056,-1.69878 -0.28181,-2.55362c-0.09334,-1.55683 -0.00191,-3.11925 -0.00191,-4.67888c0,-4.45935 0,-8.9187 0,-13.37805c0,-2.23984 0,-4.47967 0,-6.71951c0,-0.1331 -0.00115,-5.02051 0.00357,-5.09446c0.04018,-0.62926 0.18703,-1.24713 0.28155,-1.87054c0.24512,-1.6167 0.61947,-3.21845 0.74284,-4.84897c0.18722,-2.4744 -0.18702,-5.00798 0.06883,-7.48061c0.17126,-1.65507 0.79755,-3.2428 0.9578,-4.89898c0.08969,-0.92695 -0.13837,-4.4821 0.04782,-5.24184c0.14653,-0.59789 0.84686,-0.94716 1.02439,-1.53659c0.16221,-0.53857 -0.04556,-1.12414 -0.05363,-1.68655c-0.00981,-0.68286 0,-1.36585 0,-2.04878c0,0 0,-1.25 1.25,-1.25c1.25,0 1.25,1.25 1.25,1.25c0,0.43845 0.01519,4.20777 -0.05363,4.45979c-0.16217,0.59384 -0.86715,0.94142 -1.02439,1.53659c-0.18208,0.68917 0.04647,1.42499 0.05363,2.13777c0.00878,0.87342 0.07831,1.75098 -0.00581,2.62039c-0.16078,1.66166 -0.78763,3.25495 -0.95945,4.91551c-0.08192,0.79174 -0.01695,1.59184 -0.02671,2.38774c-0.00996,0.81279 -0.02662,1.6255 -0.03245,2.43833c-0.00618,0.86203 0.0617,1.72657 -0.00355,2.58615c-0.00463,0.061 -0.74597,4.91759 -0.76425,5.03681c-0.08601,0.56101 -0.22459,1.11625 -0.26014,1.6827c-0.10242,1.63197 0.00357,3.27036 0.00357,4.90554c0,2.23984 0,4.47967 0,6.71951c0,4.45935 0,8.9187 0,13.37805c0,1.51354 -0.09292,3.02983 -0.00191,4.54063c0.04872,0.80883 0.18259,1.61027 0.27035,2.4158c0.07112,0.65281 0.03961,1.32401 0.20626,1.95918c0.09855,0.37563 1.73068,4.16111 1.84698,4.43378c0.22361,0.52429 0.47262,1.03849 0.67024,1.57312c0.2811,0.76044 0.43637,1.56758 0.76474,2.30883c0.34582,0.78064 0.94384,1.4389 1.24879,2.2364c0.3191,0.8345 0.41015,1.73919 0.60483,2.61115c0.14716,0.6591 0.1288,1.37283 0.42064,1.98184c0.33356,0.69609 0.98351,1.19358 1.40948,1.83728c0.47396,0.71623 0.8585,1.48778 1.2844,2.23359c0.25211,0.44149 0.44893,0.91833 0.74962,1.32827c0.22884,0.31199 0.54945,0.5449 0.82418,0.81735c0.93247,0.63417 1.36384,1.89388 2.35831,2.42556c0.43107,0.23047 0.97049,-0.12966 1.45896,-0.14791c2.11051,-0.07885 3.63268,0.49529 5.35385,-0.74107l0.93299,-0.9416c0,0 0.88388,-0.88388 1.76777,0z" stroke-width="0.5"/><path d="M547.89635,188.17947c0,1.25 -1.25,1.25 -1.25,1.25c-2.36992,0 -4.80081,0 -7.17073,0c-0.3927,0 -3.8297,0.04739 -4.17519,-0.14791c-1.05479,-0.59625 -1.48216,-1.92636 -2.34284,-2.77919c-0.311,-0.31387 -0.58797,-0.66557 -0.93299,-0.9416c-1.48245,-1.18596 -2.2902,-1.0298 -2.963,-3.15936c-0.24082,-0.76225 0.02119,-1.60303 -0.07067,-2.39712c-0.096,-0.8299 -0.40176,-1.6271 -0.49093,-2.45776c-0.00805,-0.07501 -0.00608,-4.16795 -0.00608,-4.28171c0,-3.0935 0,-6.18699 0,-9.28049c0,-0.83333 -0.00527,-1.66668 0,-2.5c0.01367,-2.16121 -0.35687,-3.68529 1.39051,-5.43266c1.57578,-1.57578 2.64272,-1.37498 4.46925,-1.39051c0.70323,-0.00598 1.4065,0 2.10976,0c0.83333,0 1.66701,-0.02398 2.5,0c0.88055,0.02535 1.8447,-0.23383 2.6386,0.14791c0.65937,0.31705 0.80169,1.23687 1.31845,1.7548c0.34548,0.34626 0.82023,0.53316 1.23034,0.79974c0.53007,0.22552 1.16831,0.28434 1.59022,0.67655c0.65573,0.60957 0.91833,1.55139 1.51981,2.21455c0.61677,0.68002 1.65293,0.97865 2.10242,1.77915c0.67127,1.19547 0.58027,3.23311 0.58186,4.63341c0.00252,2.21951 0,4.43903 0,6.65854c0,0.71812 0.02246,4.7754 -0.09515,5.08811c-0.87226,2.31933 -1.60618,1.41139 -3.16074,1.85957c-0.81566,0.23515 -1.53571,0.76875 -2.36749,0.9383c-0.76632,0.15621 -1.56407,0.01891 -2.34614,0.02255c-0.83332,0.00388 -1.66667,0.00031 -2.5,0c-1.5306,-0.00056 -3.0368,0.07108 -4.55098,-0.26205c-0.85807,-0.18878 -1.66856,-0.55099 -2.50284,-0.82649c0,0 -1.18585,-0.39528 -0.79057,-1.58114c0.39528,-1.18585 1.58114,-0.79057 1.58114,-0.79057c0.74686,0.25155 1.47167,0.58182 2.24057,0.75465c1.22802,0.27603 2.77748,0.20606 4.02268,0.20559c0.83333,-0.00031 1.66668,-0.0043 2.5,0c0.62449,0.00322 1.26295,0.15442 1.87337,0.02255c0.79936,-0.17267 1.48794,-0.69619 2.2749,-0.91865c0.12401,-0.03505 1.34074,0.22913 1.41639,-0.38104c0.083,-0.6695 -0.07962,-1.3472 -0.09515,-2.02165c-0.03192,-1.38581 0,-2.77236 0,-4.15854c0,-1.53659 -0.00185,-3.07317 0,-4.60976c0.00057,-0.47783 0.0382,-0.95686 0.00426,-1.43348c-0.04626,-0.64955 0.09794,-1.38429 -0.2444,-1.93825c-0.39386,-0.63733 -1.28563,-0.80455 -1.79189,-1.35683c-0.5214,-0.5688 -0.68998,-1.41446 -1.24235,-1.95324c-0.2966,-0.2893 -0.78347,-0.26986 -1.17521,-0.40479c-0.61428,-0.41635 -1.31752,-0.72489 -1.84283,-1.24904c-0.35564,-0.35484 -0.28729,-1.08151 -0.73033,-1.31838c-0.43107,-0.23047 -0.97049,0.12966 -1.45896,0.14791c-1.53551,0.05737 -3.07325,0.0153 -4.60976,0c-1.07849,-0.01074 -1.78293,-0.26028 -2.70148,0.65827c-1.03268,1.03268 -0.66718,2.40943 -0.65827,3.6649c0.01183,1.66662 0,3.33333 0,5c0,2.26016 0,4.52032 0,6.78049c0,0.70325 0.00106,1.4065 0,2.10976c-0.00097,0.64187 -0.07667,1.28763 -0.00608,1.92561c0.09141,0.82619 0.402,1.61855 0.48965,2.44514c0.06747,0.63633 -0.17242,1.29637 -0.02686,1.91949c0.24418,1.04528 1.47215,1.41316 2.15895,1.96259c0.40915,0.32732 0.74386,0.73812 1.11579,1.10718c0.68724,0.69258 0.94671,1.79588 1.75472,2.34277c0.82792,0.56036 1.99581,-0.14791 2.99554,-0.14791c2.36992,0 4.73984,0 7.10976,0h0.06098c0,0 1.25,0 1.25,1.25z" stroke-width="0.5"/><path d="M561.31883,212.26832c-1.04006,-0.69338 -0.34669,-1.73344 -0.34669,-1.73344l1.43334,-1.92219c2.01803,-0.29352 3.26195,-0.7376 4.77326,-2.12339c0.77492,-0.40428 1.56192,-0.78621 2.32477,-1.21284c0.72976,-0.40812 1.4135,-0.8965 2.15108,-1.29031c0.56278,-0.30048 1.29624,-0.33438 1.74366,-0.78917c0.41849,-0.42538 0.31523,-1.1793 0.66707,-1.66126c0.57263,-0.78439 1.28341,-1.47527 2.05409,-2.06623c0.61826,-0.47408 1.46806,-0.59352 2.06598,-1.09301c0.50015,-0.41781 0.8902,-0.98581 1.14203,-1.58689c0.51824,-1.23695 0.38794,-2.71019 0.38599,-4.00037c-0.00106,-0.70325 0,-1.4065 0,-2.10976c0,-1.53659 -0.0194,-3.07329 0,-4.60976c0.009,-0.71276 0.21238,-1.44286 0.05363,-2.13777c-0.10112,-0.44266 -0.52168,-0.74353 -0.7947,-1.10633c-0.17074,-0.22688 -0.26555,-0.57572 -0.53607,-0.66203c-0.4277,-0.13646 -0.91347,0.18407 -1.34542,0.06171c-0.74947,-0.21229 -1.35674,-0.78651 -2.09463,-1.03613c-0.38416,-0.12996 -0.82391,0.02845 -1.21382,-0.08311c-0.80214,-0.22951 -1.51404,-0.72955 -2.32414,-0.92917c-0.79989,-0.1971 -1.70702,0.08745 -2.45882,-0.24939c-0.84216,-0.37733 -1.40448,-1.19747 -2.10672,-1.7962c-0.71416,-0.40778 -1.46257,-0.7607 -2.14248,-1.22334c-0.7102,-0.48326 -1.33891,-1.07666 -2.0155,-1.60596c-0.72678,-0.56855 -1.59851,-0.98295 -2.19444,-1.68745c-0.47939,-0.56672 -1.37124,-2.72288 -1.76542,-3.64482c-0.79307,-1.85488 -1.30031,-2.69699 -1.5887,-4.68631c-0.08079,-0.55729 -0.00924,-1.1262 -0.00937,-1.68931c-0.00021,-0.93825 -0.16686,-3.08128 0.4794,-3.99773c0.63771,-0.90433 1.3981,-1.83581 2.41048,-2.28254c0.90613,-0.39985 1.97961,-0.07359 2.96988,-0.09167c2.56535,-0.04686 5.18075,-0.08458 7.7439,0c1.05365,0.03477 2.24925,-0.34912 3.15716,0.18669c0.84791,0.5004 0.99017,1.70205 1.48526,2.55308c0,0 0.55902,1.11803 -0.55902,1.67705c-1.11803,0.55902 -1.67705,-0.55902 -1.67705,-0.55902c-0.18784,-0.51483 -0.08623,-1.27517 -0.56352,-1.54448c-0.53773,-0.30341 -1.22598,0.16017 -1.84284,0.18669c-0.83256,0.03579 -1.66667,0 -2.5,0c-1.74562,0 -3.49897,0.03922 -5.2439,0c-0.67723,-0.01522 -1.38994,-0.3131 -2.03012,-0.09167c-1.70789,0.59072 -1.32929,2.70112 -1.32963,3.96363c-0.00012,0.4613 -0.07342,0.92703 -0.00937,1.38386c0.25968,1.85196 1.17261,3.58107 1.94212,5.26094c0.27306,0.59609 0.42246,1.27678 0.85011,1.77378c0.48531,0.56402 1.2146,0.86043 1.80556,1.31255c0.64144,0.49075 1.22255,1.06146 1.89062,1.51529c0.69839,0.47442 1.46437,0.84077 2.19656,1.26116c0.54308,0.50895 0.94959,1.22346 1.62925,1.52684c0.62431,0.27867 1.38286,-0.04425 2.04786,0.1145c0.80959,0.19327 1.51785,0.69942 2.31824,0.92779c0.4228,0.12063 0.89801,-0.03208 1.31453,0.10871c0.70873,0.23956 1.28403,0.80562 2.00293,1.01265c0.55378,0.15948 1.20163,-0.17346 1.72775,0.06171c0.62451,0.27915 1.07739,0.8591 1.51271,1.38675c0.49482,0.59977 1.05084,1.21633 1.25408,1.96684c0.06681,0.24672 0.05363,4.35373 0.05363,4.97199c0,1.53659 0.00218,3.07317 0,4.60976c-0.00241,1.69576 0.13294,3.37715 -0.59459,5.00009c-0.41518,0.92616 -1.03808,1.77962 -1.78507,2.46676c-0.62161,0.5718 -1.53796,0.72256 -2.22146,1.21873c-0.56284,0.40858 -1.08366,0.89879 -1.48145,1.46931c-0.41514,0.5954 -0.40297,1.46383 -0.91934,1.97394c-0.63309,0.62541 -1.57946,0.82123 -2.3539,1.25961c-0.72277,0.40913 -1.41054,0.87852 -2.13638,1.28217c-0.69272,0.38524 -1.41127,0.7221 -2.1169,1.08315c-1.45047,1.30142 -2.87565,2.32382 -4.93663,2.22765l-0.61545,1.15098c0,0 -0.69338,1.04006 -1.73344,0.34669z" stroke-width="0.5"/><path d="M601.67683,215.83801c0,1.25 -1.25,1.25 -1.25,1.25l-0.20007,-0.31032c-3.35502,2.82009 -7.87736,3.11163 -12.07828,3.9655c-4.47283,0.90914 -8.0283,3.41738 -12.74752,3.83201c-0.81977,0.23195 -1.61732,0.56587 -2.4593,0.69585c-0.67292,0.10388 -1.36571,-0.0739 -2.04267,-0.00087c-0.38209,0.04122 -0.73299,0.2314 -1.10161,0.34006c-0.73148,0.21563 -1.51518,0.29429 -2.19854,0.63277c-0.79903,0.39577 -1.33764,1.26982 -2.18749,1.5397c-0.90657,0.28789 -1.90228,0.02852 -2.85291,0.06094c-0.58604,0.01999 -1.17092,0.06586 -1.75651,0.09627c-0.77678,0.04034 -1.56677,-0.03092 -2.3306,0.11596c-0.79304,0.1525 -1.51571,0.56505 -2.29587,0.77367c-0.61577,0.16466 -1.25398,0.22945 -1.88114,0.34328c-1.6106,0.29234 -3.24709,0.46494 -4.833,0.87038c-1.58591,0.40544 -3.10322,1.04313 -4.65774,1.55594c-0.85478,0.28198 -1.68019,0.68319 -2.56677,0.83857c-0.45253,0.07931 -4.22421,-0.0395 -4.65847,0.00692c-0.60804,0.065 -1.18499,0.30262 -1.77838,0.45039c-0.84326,0.20999 -1.67335,0.48615 -2.53154,0.62289c-0.80685,0.12856 -1.6439,0.01039 -2.44517,0.17006c-0.83174,0.16573 -1.61047,0.53235 -2.41571,0.79852c-1.62362,0.01105 -3.2473,0.01863 -4.87096,0.01614c-0.78787,-0.00121 -1.57987,-0.08806 -2.3636,-0.00746c-1.56581,0.16103 -3.04665,0.83892 -4.60976,1.02439c-1.4977,0.17771 -3.03419,-0.24328 -4.52462,-0.01232c-0.5715,0.08856 -1.07713,0.4216 -1.61898,0.62374c-0.84412,0.3149 -1.65463,0.75418 -2.53878,0.92733c-0.43544,0.08527 -4.53863,0.11085 -5.11155,0.16906c-1.6973,0.17246 -3.23754,0.70415 -4.94059,0.85757c-0.85989,0.07747 -1.72678,0.00727 -2.59001,0.0229c-1.63836,0.02967 -3.28136,-0.00513 -4.91404,0.13431c-0.83605,0.0714 -1.65549,0.29104 -2.49215,0.3549c-0.73066,0.05577 -1.46558,0.00265 -2.19837,0.00314c-2.10975,0.00141 -4.21952,0 -6.32927,0c-2.49998,0 -5.00003,0.00501 -7.5,0c-0.88683,-0.00178 -1.77805,0.07788 -2.66048,-0.01034c-1.3343,-0.1334 -2.56039,-0.85223 -3.89024,-1.02439c-0.77339,-0.10012 -1.55967,0.00868 -2.33952,0.01034c-0.83333,0.00178 -1.66667,0 -2.5,0c-2.5,0 -5,0 -7.5,0c-2.94309,0 -5.88618,0 -8.82927,0c-0.09873,0 -5.01439,0.00062 -5.06913,-0.00191c-1.44691,-0.06697 -2.87941,-0.31801 -4.31901,-0.47797c-1.63357,-0.18151 -3.26708,-0.36363 -4.9005,-0.54643c-1.7692,0.00213 -2.08758,0.00315 -4.08941,0.00191c-0.86287,-0.00053 -1.72769,0.05484 -2.58861,-0.00314c-0.77562,-0.05224 -1.53951,-0.21726 -2.30915,-0.3267c-0.07422,-0.01055 -4.9585,-0.70806 -5.00006,-0.71534c-1.34834,-0.2362 -2.6699,-0.60573 -4.00473,-0.9091c-1.62522,-0.36937 -3.25101,-0.73624 -4.87566,-1.10811c-0.76794,-0.17578 -1.52045,-0.43999 -2.30296,-0.53108c-0.75587,-0.08798 -1.52195,-0.00051 -2.28293,-0.00272c-0.10126,-0.00029 -5.02964,-0.02182 -5.07993,-0.02527c-2.48808,-0.17073 -4.94714,-0.77315 -7.43142,-0.99104c-0.41391,-0.0363 -0.83099,0.00244 -1.24648,0.00274c-0.83333,0.00061 -1.66667,0 -2.5,0c-1.66667,0 -3.33333,0 -5,0c-9.92276,0 -19.84553,0 -29.76829,0c-3.22358,0 -6.44715,0 -9.67073,0c-0.09873,0 -5.01439,0.00062 -5.06913,-0.00191c-1.44691,-0.06697 -2.87941,-0.31801 -4.31901,-0.47797c-3.7812,-0.42013 -7.54488,-0.90297 -11.31441,-1.41699c-0.06944,-0.00947 -4.96946,-0.6773 -5.00548,-0.68365c-1.54011,-0.27184 -3.0366,-0.76494 -4.57968,-1.01938c-0.57311,-0.0945 -1.15753,-0.0983 -1.73623,-0.14825c-2.49073,-0.21498 -4.98133,-0.43182 -7.4718,-0.64972c-0.85752,-0.07503 -1.72118,-0.09868 -2.57245,-0.22642c-1.56507,-0.23486 -3.07736,-0.74882 -4.63504,-1.02855c-1.47798,-0.26542 -2.97895,-0.38131 -4.46834,-0.57261c-2.45326,-0.3151 -4.90651,-0.63014 -7.35943,-0.94782c-2.48609,0.00262 -5.00717,0.11181 -7.49045,0.00057c-0.56645,-0.02537 -1.12706,-0.12553 -1.69053,-0.18888l-4.96843,-0.56095c-0.80477,-0.09119 -1.60556,-0.22905 -2.41421,-0.27456c-1.64066,-0.09232 -3.28651,0.00197 -4.92977,0.00197c-2.5,0 -5,0 -7.5,0c-7.0813,0 -14.1626,0 -21.2439,0c-2.5,0 -5,0 -7.5,0c-0.17851,0 -5.04158,0.00236 -5.1364,-0.00746c-1.35028,-0.13989 -3.26419,-0.86548 -4.60976,-1.02439c-0.67344,-0.07953 -1.35622,0.00635 -2.03434,0.00746c-0.83333,0.00137 -1.66667,0.00335 -2.5,0c-0.90942,-0.00365 -1.83192,0.13309 -2.7282,-0.02101c-0.14202,-0.02442 -4.49422,-1.70579 -4.5457,-1.72584c-0.70676,-0.27529 -1.37228,-0.68886 -2.11639,-0.8358c-0.67822,-0.13393 -1.38263,0.00979 -2.07394,0.00836c-0.86253,-0.00179 -1.72749,0.04738 -2.58754,-0.01804c-0.86005,-0.06543 -1.70707,-0.24855 -2.5605,-0.37358c-0.05381,-0.00788 -4.96178,-0.72975 -4.98834,-0.73457c-2.45887,-0.44688 -4.88534,-1.05935 -7.34625,-1.50661c-0.78277,-0.14403 -1.55622,-0.35426 -2.34832,-0.4321c-0.66264,-0.06512 -1.33166,0.00432 -1.9975,0.00505c-2.16676,0.00238 -4.3223,-0.04149 -6.48832,-0.09501c-0.86667,-0.02142 -1.73776,0.0243 -2.59995,-0.06624c-0.06448,-0.00677 -4.88837,-0.91229 -5.01418,-0.93602c-0.781,-0.14733 -1.55182,-0.36404 -2.3425,-0.44468c-0.65345,-0.06664 -1.31398,0.02449 -1.97053,0.0048c-1.55046,-0.04648 -3.09678,-0.18511 -4.64516,-0.27795c-2.49552,-0.14962 -4.99104,-0.29925 -7.48656,-0.44887c-1.65123,-0.099 -3.3002,-0.24804 -4.95365,-0.29757c-1.65345,-0.04952 -3.30839,0.0017 -4.96258,0.00056c-0.86451,-0.00059 -1.73144,0.06112 -2.59353,-0.0035c-0.86059,-0.06452 -1.70704,-0.25526 -2.56056,-0.38288c-2.46328,-0.37175 -4.92118,-0.74292 -7.39322,-1.05187c-0.12308,-0.01538 -4.98644,-0.62222 -5.0518,-0.63486c-0.70695,-0.13668 -1.38831,-0.3827 -2.08222,-0.57491c-1.60618,-0.44492 -3.21193,-0.8914 -4.81759,-1.33822c-0.77852,-0.21665 -1.54498,-0.48227 -2.33526,-0.65106c-0.78882,-0.16848 -1.59544,-0.23884 -2.39307,-0.35883c-2.46347,-0.3706 -4.92114,-0.74291 -7.39322,-1.05187c-0.08159,-0.0102 -4.97584,-0.62153 -5.01969,-0.62886c-0.65862,-0.11019 -1.30401,-0.28857 -1.95593,-0.43323l-4.88094,-1.08465c-0.76885,-0.17209 -1.52587,-0.40773 -2.3057,-0.52002c-0.41369,-0.05957 -0.83589,0.00663 -1.25385,0.00746c-0.83333,0.00166 -1.66667,0 -2.5,0c-7.45122,0 -14.90244,0 -22.35366,0c-2.34959,0 -4.69919,0 -7.04878,0c-0.70325,0 -1.40651,0.0014 -2.10976,0c-0.78384,-0.00156 -1.57155,-0.08681 -2.3515,-0.00885c-1.44018,0.14394 -2.7824,0.85244 -4.21951,1.02439c-0.09727,0.01164 -4.96044,0.00885 -5.1485,0.00885c0,0 -1.25,0 -1.25,-1.25c0,-1.25 1.25,-1.25 1.25,-1.25c0.83333,0 1.66667,-0.00152 2.5,0c0.78384,0.00143 1.57321,0.10197 2.3515,0.00885c1.43711,-0.17195 2.77969,-0.87684 4.21951,-1.02439c0.10932,-0.0112 4.34852,-0.00885 4.75826,-0.00885c2.34959,0 4.69919,0 7.04878,0c7.45122,0 14.90244,0 22.35366,0c0.83333,0 1.66667,-0.00154 2.5,0c0.50888,0.00094 1.02263,-0.06283 1.52664,0.00746c0.87038,0.12139 1.71708,0.37524 2.57523,0.56463c1.6275,0.35919 3.25407,0.72259 4.88094,1.08465c0.61349,0.13653 1.22037,0.30686 1.84029,0.41038c1.62453,0.27126 3.26879,0.40716 4.90309,0.61149c2.49301,0.31168 4.97217,0.68453 7.4562,1.06056c0.84741,0.12828 1.70389,0.20694 2.54205,0.38595c0.83962,0.17933 1.65499,0.45774 2.48233,0.68716c1.60606,0.44535 3.21206,0.89094 4.81759,1.33822c0.63484,0.17686 1.25692,0.40764 1.90403,0.53238c1.60658,0.30969 3.24746,0.40252 4.87097,0.60549c2.49306,0.31168 4.97197,0.68565 7.4562,1.06056c0.79152,0.12063 1.57614,0.30205 2.37455,0.3619c0.79991,0.05996 1.60431,-0.00293 2.40647,-0.0035c0.0481,-0.00003 5.01374,-0.00015 5.03742,0.00056c0.02485,0.00074 4.97927,0.29798 5.02843,0.30093c2.49552,0.14962 4.99104,0.29925 7.48656,0.44887c1.52347,0.09134 3.0449,0.22748 4.57038,0.27459c0.70868,0.02189 1.42172,-0.06748 2.12703,0.0048c0.08303,0.00851 4.8768,0.90881 5.02904,0.93749c0.78592,0.14804 1.562,0.36262 2.35737,0.44615c0.79536,0.08352 1.5991,0.03483 2.39862,0.05329c2.14659,0.04955 4.28138,0.09204 6.42856,0.0943c0.74067,0.00078 1.48484,-0.06683 2.22201,0.00505c0.86664,0.08451 1.71402,0.30822 2.57102,0.46233c2.46072,0.44758 4.88742,1.05974 7.34607,1.50658c1.62599,0.29551 3.2703,0.47934 4.90517,0.7209c0.7955,0.11754 1.58444,0.29316 2.38626,0.35416c0.36372,0.02767 4.6308,-0.01385 4.93536,0.04583c0.14279,0.02798 4.6273,1.75652 4.8837,1.85654c0.59188,0.23089 1.14483,0.59798 1.77128,0.70377c0.74673,0.1261 1.51451,-0.01767 2.2718,-0.02101c0.83333,-0.00367 1.66667,-0.00129 2.5,0c0.76905,0.00119 1.54331,-0.08204 2.30713,0.00746c1.56337,0.18319 3.04395,0.86336 4.60976,1.02439c0.78374,0.0806 1.57573,-0.00625 2.3636,-0.00746c0.83333,-0.00128 1.66667,0 2.5,0c2.5,0 5,0 7.5,0c7.91463,0 15.82927,0 23.7439,0c2.5,0 5,-0.00097 7.5,0c0.85674,0.00033 1.71484,-0.04616 2.57023,0.00197c0.85539,0.04814 1.70285,0.19061 2.55422,0.28639l4.96843,0.56095c0.51688,0.05861 1.03082,0.15419 1.55051,0.17704c0.80914,0.03559 1.61985,-0.00165 2.42977,-0.00197c2.39075,-0.00096 2.66678,0.00016 5.07978,0.00255c2.50633,0.3194 5.01234,0.64122 7.51835,0.96309c1.52696,0.19612 3.06538,0.31787 4.5807,0.58965c1.54095,0.27638 3.0362,0.78833 4.58447,1.02023c0.79698,0.11937 1.60587,0.13736 2.40875,0.20673c2.49071,0.2152 4.98134,0.43161 7.4718,0.64972c0.63336,0.05547 1.27254,0.065 1.89993,0.16794c1.52835,0.25078 3.10955,0.75947 4.63983,1.0294c1.62428,0.28651 3.2686,0.44463 4.90282,0.66748c3.74903,0.51123 7.49209,0.99151 11.25271,1.40936c1.3938,0.15487 2.78027,0.40252 4.18118,0.4665c1.64191,0.07499 3.28725,-0.00191 4.93087,-0.00191c3.22358,0 6.44715,0 9.67073,0c9.92276,0 19.84553,0 29.76829,0c1.66667,0 3.33333,0 5,0c1.30402,0 2.61282,-0.1089 3.91205,0.00274c2.48627,0.21365 4.94808,0.82063 7.437,0.99142c1.63615,0.11227 3.27999,0.00967 4.91997,0.01943c0.85203,0.00507 1.70972,-0.07943 2.55607,0.01891c0.873,0.10144 1.7154,0.3835 2.5727,0.57703c1.62576,0.367 3.25044,0.73874 4.87566,1.10811c1.3017,0.29584 2.58988,0.65883 3.90486,0.88853c1.62507,0.28387 3.2665,0.46447 4.89943,0.69887c0.71102,0.10206 1.41612,0.25981 2.13282,0.30786c0.802,0.05378 1.60759,-0.00263 2.41139,-0.00314c1.94883,-0.00125 2.44554,-0.00006 4.22766,0.00191c1.67951,0.18535 3.35896,0.37129 5.03833,0.55789c1.3938,0.15487 2.78027,0.40252 4.18118,0.4665c1.64191,0.07499 3.28725,-0.00191 4.93087,-0.00191c2.94309,0 5.88618,0 8.82927,0c2.5,0 5,0 7.5,0c0.2024,0 5.05554,-0.00324 5.16048,0.01034c0.87949,0.11385 1.71781,0.44164 2.57541,0.66747c0.43917,0.11564 0.86272,0.31404 1.31483,0.35692c0.77636,0.07363 1.55967,-0.00868 2.33952,-0.01034c2.49997,-0.00534 5.00003,0 7.5,0c2.10975,0 4.21952,-0.00147 6.32927,0c0.67372,0.00047 1.34947,0.05549 2.02114,0.00314c0.82507,-0.0643 1.63298,-0.28241 2.4576,-0.35221c0.0348,-0.00295 5.00949,-0.14169 5.08212,-0.14292c0.80318,-0.01352 1.60977,0.05852 2.40986,-0.01324c1.6552,-0.14845 3.25838,-0.68681 4.91171,-0.85481c0.8584,-0.08722 1.72467,-0.05802 2.58716,-0.0819c0.76546,-0.0212 1.54517,0.09381 2.29665,-0.05336c0.91985,-0.18014 3.23398,-1.40474 4.19515,-1.5581c1.54542,-0.24658 3.14103,0.1738 4.69489,-0.01232c1.20564,-0.14442 3.3991,-0.89897 4.60976,-1.02439c0.87412,-0.09056 1.75759,-0.00619 2.6364,-0.00746c1.49018,-0.00217 2.98038,0.00393 4.4705,0.01614c0.7759,-0.26087 1.52489,-0.62271 2.32771,-0.78262c0.83328,-0.16598 1.70278,-0.05491 2.54204,-0.18738c1.4917,-0.23545 2.89718,-0.92231 4.39848,-1.08571c0.87865,-0.09563 1.76767,-0.01056 2.65151,-0.00922c0.63653,0.00097 1.28282,0.12755 1.90953,0.01614c0.75478,-0.13418 1.4502,-0.4977 2.17665,-0.74256c0.10441,-0.03519 4.77708,-1.59304 4.82909,-1.60634c0.05601,-0.01432 4.89517,-0.88819 5.00752,-0.90841c0.56876,-0.10237 1.1484,-0.15573 1.70662,-0.30525c0.82985,-0.22228 1.60334,-0.64822 2.44755,-0.80747c0.87345,-0.16476 1.77456,-0.10584 2.66198,-0.15636c0.6081,-0.03462 1.21551,-0.09321 1.82457,-0.09905c0.71595,-0.00687 1.46832,0.28877 2.14709,0.06094c0.73495,-0.24668 1.15875,-1.06131 1.85417,-1.40394c0.81102,-0.39958 1.72876,-0.53023 2.59528,-0.78825c0.483,-0.14382 0.95274,-0.3576 1.45315,-0.41724c0.68015,-0.08106 1.37792,0.10346 2.05489,-0.00087c0.80522,-0.1241 1.56555,-0.45184 2.34832,-0.67775c4.70771,-0.43469 8.20502,-2.87178 12.697,-3.82207c3.59802,-0.76117 8.18768,-0.84013 10.93787,-3.39706l1.84871,-0.31032c0,0 1.25,0 1.25,1.25z" stroke-width="0.5"/><text transform="translate(332.76817,310.62053) scale(0.5,0.5)" font-size="40" xml:space="preserve" fill="#000000" stroke-width="1" font-family="Sans Serif" font-weight="normal" text-anchor="middle"><tspan x="0" dy="0">Fr alle, jeweils einen Skin und Hintergrund,</tspan><tspan x="0" dy="46.15px">wenn alle gefunden wurden!</tspan></text></g></g></svg>