<svg version="1.1" xmlns="http://www.w3.org/2000/svg" xmlns:xlink="http://www.w3.org/1999/xlink" width="209.41716" height="29.92361" viewBox="0,0,209.41716,29.92361"><defs><radialGradient cx="320" cy="180" r="104.08227" gradientUnits="userSpaceOnUse" id="color-1"><stop offset="0" stop-color="#000000"/><stop offset="1" stop-color="#ff00ff"/></radialGradient><radialGradient cx="320" cy="180" r="104.70858" gradientUnits="userSpaceOnUse" id="color-2"><stop offset="0" stop-color="#000000"/><stop offset="1" stop-color="#ff00ff"/></radialGradient><radialGradient cx="239.55003" cy="180.23359" r="23.57" gradientTransform="translate(-432.96008,-372) scale(2,2)" gradientUnits="userSpaceOnUse" id="color-3"><stop offset="0" stop-color="#ff00ff"/><stop offset="1" stop-color="#000000"/></radialGradient></defs><g transform="translate(-215.29142,-164.63889)"><g stroke="none" stroke-miterlimit="10"><path d="M244.26352,194.5625c-15.65496,0 -28.34579,-1.77562 -28.34579,-3.96596v-21.19309c0,-2.19034 12.69083,-3.96596 28.34579,-3.96596h151.47297c15.65496,0 28.34579,1.77562 28.34579,3.96596v21.19309c0,2.19034 -12.69083,3.96596 -28.34579,3.96596z" fill="url(#color-1)" stroke-width="0"/><path d="M243.80777,194.5625c-15.74916,0 -28.51635,-1.77562 -28.51635,-3.96596v-21.19309c0,-2.19034 12.7672,-3.96596 28.51635,-3.96596h152.38445c15.74916,0 28.51635,1.77562 28.51635,3.96596v21.19309c0,2.19034 -12.7672,3.96596 -28.51635,3.96596z" fill="url(#color-2)" stroke-width="0"/><text transform="translate(216.48004,186) scale(0.5,0.5)" font-size="40" xml:space="preserve" fill="url(#color-3)" stroke-width="1" font-family="Sans Serif" font-weight="400" text-anchor="start"><tspan x="0" dy="0">Speed Multiplier: 1.75</tspan></text></g></g></svg>