<svg version="1.1" xmlns="http://www.w3.org/2000/svg" xmlns:xlink="http://www.w3.org/1999/xlink" width="912.13678" height="696.65511" viewBox="0,0,912.13678,696.65511"><defs><radialGradient cx="319.8395" cy="180.41517" r="324.59923" gradientUnits="userSpaceOnUse" id="color-1"><stop offset="0" stop-color="#00b8ff" stop-opacity="0.59608"/><stop offset="1" stop-color="#00e8ff" stop-opacity="0.30588"/></radialGradient><radialGradient cx="497.66868" cy="298.11508" r="10.20468" gradientUnits="userSpaceOnUse" id="color-2"><stop offset="0" stop-color="#00b8ff" stop-opacity="0.59608"/><stop offset="1" stop-color="#00e8ff" stop-opacity="0.30588"/></radialGradient></defs><g transform="translate(41.25,45.53125)"><g stroke-miterlimit="10"><path d="M-40,391.71875v-436h726v436z" fill="#000000" stroke="#000000" stroke-width="2.5"/><path d="M-4.75972,364.88457v-368.93881h649.19845v368.93881z" fill="#000000" stroke="url(#color-1)" stroke-width="0"/><path d="M540.29722,97.17387c0,-2.07107 1.67893,-3.75 3.75,-3.75c2.07107,0 3.75,1.67893 3.75,3.75c0,2.07107 -1.67893,3.75 -3.75,3.75c-2.07107,0 -3.75,-1.67893 -3.75,-3.75z" fill="#ffffff" stroke="none" stroke-width="0.5"/><path d="M609.73468,124.78154c0,-2.07107 1.67893,-3.75 3.75,-3.75c2.07107,0 3.75,1.67893 3.75,3.75c0,2.07107 -1.67893,3.75 -3.75,3.75c-2.07107,0 -3.75,-1.67893 -3.75,-3.75z" fill="#ffffff" stroke="none" stroke-width="0.5"/><path d="M459.14741,89.64451c0,-2.07107 1.67893,-3.75 3.75,-3.75c2.07107,0 3.75,1.67893 3.75,3.75c0,2.07107 -1.67893,3.75 -3.75,3.75c-2.07107,0 -3.75,-1.67893 -3.75,-3.75z" fill="#ffffff" stroke="none" stroke-width="0.5"/><path d="M460.8206,137.33048c0,-2.07107 1.67893,-3.75 3.75,-3.75c2.07107,0 3.75,1.67893 3.75,3.75c0,2.07107 -1.67893,3.75 -3.75,3.75c-2.07107,0 -3.75,-1.67893 -3.75,-3.75z" fill="#ffffff" stroke="none" stroke-width="0.5"/><path d="M381.34399,162.42836c0,-2.07107 1.67893,-3.75 3.75,-3.75c2.07107,0 3.75,1.67893 3.75,3.75c0,2.07107 -1.67893,3.75 -3.75,3.75c-2.07107,0 -3.75,-1.67893 -3.75,-3.75z" fill="#ffffff" stroke="none" stroke-width="0.5"/><path d="M360.42909,210.11433c0,-2.07107 1.67893,-3.75 3.75,-3.75c2.07107,0 3.75,1.67893 3.75,3.75c0,2.07107 -1.67893,3.75 -3.75,3.75c-2.07107,0 -3.75,-1.67893 -3.75,-3.75z" fill="#ffffff" stroke="none" stroke-width="0.5"/><path d="M314.41632,241.90497c0,-2.07107 1.67893,-3.75 3.75,-3.75c2.07107,0 3.75,1.67893 3.75,3.75c0,2.07107 -1.67893,3.75 -3.75,3.75c-2.07107,0 -3.75,-1.67893 -3.75,-3.75z" fill="#ffffff" stroke="none" stroke-width="0.5"/><path d="M303.94418,305.88988c-1.7941,0 -2.72985,-0.85835 -3.21792,-1.75373c-1.08684,-0.2092 -3.04187,-0.96182 -3.04187,-3.66947c0,-3.75 3.75,-3.75 3.75,-3.75c0.83659,0 1.67319,0 2.50979,0l3.75,5.42319c0,0 0,3.75 -3.75,3.75z" fill="#ffffff" stroke="none" stroke-width="0.5"/><path d="M326.96525,325.56457c0,-2.07107 1.67893,-3.75 3.75,-3.75c2.07107,0 3.75,1.67893 3.75,3.75c0,2.07107 -1.67893,3.75 -3.75,3.75c-2.07107,0 -3.75,-1.67893 -3.75,-3.75z" fill="#ffffff" stroke="none" stroke-width="0.5"/><path d="M337.00441,273.69561c0,-2.07107 1.67893,-3.75 3.75,-3.75c2.07107,0 3.75,1.67893 3.75,3.75c0,2.07107 -1.67893,3.75 -3.75,3.75c-2.07107,0 -3.75,-1.67893 -3.75,-3.75z" fill="#ffffff" stroke="none" stroke-width="0.5"/><path d="M270.86659,351.11376c0,-165.691 134.31909,-300.0101 300.01009,-300.0101c165.69101,0 300.0101,134.31909 300.0101,300.0101c0,165.691 -134.31909,300.0101 -300.0101,300.0101c-165.69101,0 -300.01009,-134.31909 -300.01009,-300.0101z" fill-opacity="0.32549" fill="#ccfbff" stroke="none" stroke-width="50"/><path d="M358.02036,351.11376c0,-117.5573 95.29902,-212.85633 212.85632,-212.85633c117.55731,0 212.85633,95.29902 212.85633,212.85633c0,117.5573 -95.29902,212.85633 -212.85633,212.85633c-117.5573,0 -212.85632,-95.29902 -212.85632,-212.85633z" fill="#77e813" stroke="none" stroke-width="50"/><path d="M534.12925,216.73943c-1.70734,1.02532 -3.92734,1.69192 -6.81394,1.69192c-12.5,0 -12.5,-12.5 -12.5,-12.5l12.5,-14.17319c1.67319,0 3.34639,0 5.01958,0c1.22173,0 2.7959,-0.5894 4.14348,-0.79988c-0.7463,-1.53854 -1.61672,-3.03948 -2.05827,-4.66857c-0.71385,-0.26654 -1.38348,-0.58268 -1.3938,-1.23121c-0.10101,-6.34768 0.40151,-12.82636 2.1821,-18.92003c0.2088,-0.71458 1.58894,-0.97054 2.51095,-0.73125c5.08572,-7.23588 7.99218,-7.9495 18.04023,-7.9495c0,0 12.5,0 12.5,12.5c0,7.92938 -5.03001,10.82876 -8.70845,11.88891c0.11857,0.49455 0.21457,0.86103 0.28504,1.03722c2.40121,6.00302 4.94556,17.05326 1.08817,23.08955c-5.47114,8.56157 -17.10486,10.5603 -26.79507,10.76603z" fill="#13d8e8" stroke="none" stroke-width="0.5"/><path d="M425.29953,253.61731c0,-6.90356 5.59644,-12.5 12.5,-12.5c6.90356,0 12.5,5.59644 12.5,12.5c0,6.90356 -5.59644,12.5 -12.5,12.5c-6.90356,0 -12.5,-5.59644 -12.5,-12.5z" fill="#13d8e8" stroke="none" stroke-width="0.5"/><path d="M544.51798,269.48667c0.97546,-4.3236 -0.00063,-10.09533 4.07594,-13.83244c1.98548,-1.82015 4.70484,-2.83845 7.45503,-3.26407c0.28667,-0.38934 0.60739,-0.71964 0.91093,-0.91891c4.02832,-2.64453 9.68903,-2.84485 12.97977,-6.36508c5.55166,-0.78983 11.72766,-1.45962 17.0041,-2.5108c3.61464,-0.72011 7.3539,-6.17116 10.25033,-7.7737c0.50989,-0.28212 0.95534,-0.51715 1.34186,-0.70965c-0.13994,-2.617 -0.12534,-8.48214 -0.06105,-8.93896c0.97977,-6.96145 0.29004,-9.15698 5.30048,-11.94749c0.09686,-1.98801 0.30027,-4.08957 1.58596,-5.4999c7.67536,-8.41937 17.17622,-8.32206 27.36506,-8.43815c7.78054,0.30732 12.28647,-0.47545 18.65889,8.48253c2.99835,4.21492 -0.57791,10.68308 0.37247,15.40072c0.85714,4.25481 2.32344,8.26611 3.17341,12.51591c0.53359,2.66791 2.00341,7.97661 2.45917,11.40016c0.31671,0.39888 0.66023,0.93409 1.02793,1.63203c2.51645,4.77649 9.73812,32.58347 9.89844,37.16357c0.78023,1.56046 3.76217,14.56889 4.94921,21.69862c0.48947,0.45459 1.11213,1.40116 1.88427,3.04591c2.74388,5.84476 8.22767,32.05949 6.88644,38.36229c-0.99447,4.67332 -0.55255,10.23 -3.66117,13.85841c-2.58611,3.01853 -7.49167,2.70023 -11.34862,3.66116c-1.78031,0.44356 -6.842,0.91032 -5.49405,-0.33439c-11.97852,5.98926 -66.99048,2.84418 -84.02171,2.84418c-19.10952,0 -38.10371,-2.50979 -58.56172,-2.50979c-11.30674,-1.07781 -20.08622,3.80068 -31.42692,-2.82457c-1.32297,-0.77288 -0.56833,-3.13367 -1.51201,-4.34076c-0.21638,-0.27678 -0.48758,-0.52376 -0.79369,-0.75058c-6.54609,0.7233 -13.9423,0.38654 -18.97293,0.38654c-6.50995,0 -18.92255,1.35856 -21.89668,-6.60178c-2.13734,-5.72062 2.94773,-11.85266 4.42159,-17.77899c1.89911,-0.97003 6.39292,-2.95917 8.4604,-3.631c-0.15808,-0.20979 -0.23985,-0.4557 -0.09445,-0.55198c2.12932,-1.40995 8.20987,-3.88748 9.34437,-3.88872c1.94642,-1.73543 6.9872,-5.49184 12.78817,-7.27187c2.27292,-0.69745 8.94415,-2.47097 12.68723,-2.35517c0.32743,-0.29849 0.70107,-0.54691 1.01837,-0.68313c2.21762,-0.95202 4.7143,-1.09841 7.12149,-1.30712c0.44241,-0.80186 0.83496,-1.66437 1.61528,-2.07262c6.11277,-3.19806 13.20243,-3.81357 18.96177,-6.89174c-0.65755,-1.92645 -0.9773,-4.10144 -0.78413,-6.6215c0.69912,-9.1207 5.26829,-13.28637 11.6812,-15.79946c0.3908,-3.91323 0.67476,-8.59782 3.63995,-11.13824c2.04524,-1.75225 5.61414,-2.37627 9.3096,-2.89948z" fill="#13d8e8" stroke="none" stroke-width="0.5"/><path d="M394.29915,282.22546c-2.64608,-1.74327 -4.97324,-4.80957 -4.97324,-10.20303c0,-12.5 12.5,-12.5 12.5,-12.5l9.91803,1.86687c2.42239,3.70254 5.62357,6.99964 7.26717,11.1076c1.14378,2.85874 -0.53869,6.2399 0.17298,9.23559c0.69191,2.91253 2.40699,5.0839 1.73577,8.10799c0.97773,0.36563 1.97146,0.72791 2.73891,1.41247c1.80994,1.61446 3.10662,3.72535 4.65993,5.58803c0,0 7.80869,9.76086 -1.95217,17.56955c-9.76086,7.80869 -17.56955,-1.95217 -17.56955,-1.95217c-0.67761,-0.92597 -1.18321,-2.00674 -2.03283,-2.77793c-2.02116,-1.83457 -4.97206,-2.71493 -6.5061,-4.9727c-2.12843,-3.13259 -3.01539,-6.96957 -4.07796,-10.60471c-0.31295,-1.07066 0.21876,-2.25259 0,-3.34638c-0.34589,-1.72945 -1.36588,-3.28285 -1.67319,-5.01957c-0.20441,-1.15521 -0.22755,-2.33317 -0.20774,-3.51159z" fill="#13d8e8" stroke="none" stroke-width="0.5"/><path d="M494.28444,31.08279c0,-2.07107 1.67893,-3.75 3.75,-3.75c2.07107,0 3.75,1.67893 3.75,3.75c0,2.07107 -1.67893,3.75 -3.75,3.75c-2.07107,0 -3.75,-1.67893 -3.75,-3.75z" fill="#ffffff" stroke="none" stroke-width="0.5"/><path d="M347.88015,84.62493c0,-2.07107 1.67893,-3.75 3.75,-3.75c2.07107,0 3.75,1.67893 3.75,3.75c0,2.07107 -1.67893,3.75 -3.75,3.75c-2.07107,0 -3.75,-1.67893 -3.75,-3.75z" fill="#ffffff" stroke="none" stroke-width="0.5"/><path d="M398.07591,37.77556c0,-2.07107 1.67893,-3.75 3.75,-3.75c2.07107,0 3.75,1.67893 3.75,3.75c0,2.07107 -1.67893,3.75 -3.75,3.75c-2.07107,0 -3.75,-1.67893 -3.75,-3.75z" fill="#ffffff" stroke="none" stroke-width="0.5"/><path d="M244.14226,29.4096c0,-2.07107 1.67893,-3.75 3.75,-3.75c2.07107,0 3.75,1.67893 3.75,3.75c0,2.07107 -1.67893,3.75 -3.75,3.75c-2.07107,0 -3.75,-1.67893 -3.75,-3.75z" fill="#ffffff" stroke="none" stroke-width="0.5"/><path d="M274.23035,154.0624c0,3.75 -3.75,3.75 -3.75,3.75c-0.83659,0 -4.18298,0 -5.01957,0c0,0 -3.75,0 -3.75,-3.75c0,-3.75 3.75,-3.75 3.75,-3.75c0.83659,0 1.67319,0 2.50978,0h2.50979c0,0 3.75,0 3.75,3.75z" fill="#ffffff" stroke="none" stroke-width="0.5"/><path d="M200.63927,96.33728c0,-2.07107 1.67893,-3.75 3.75,-3.75c2.07107,0 3.75,1.67893 3.75,3.75c0,2.07107 -1.67893,3.75 -3.75,3.75c-2.07107,0 -3.75,-1.67893 -3.75,-3.75z" fill="#ffffff" stroke="none" stroke-width="0.5"/><path d="M95.22818,36.10237c0,-2.07107 1.67893,-3.75 3.75,-3.75c2.07107,0 3.75,1.67893 3.75,3.75c0,2.07107 -1.67893,3.75 -3.75,3.75c-2.07107,0 -3.75,-1.67893 -3.75,-3.75z" fill="#ffffff" stroke="none" stroke-width="0.5"/><path d="M134.54818,99.68366c0,-2.07107 1.67893,-3.75 3.75,-3.75c2.07107,0 3.75,1.67893 3.75,3.75c0,2.07107 -1.67893,3.75 -3.75,3.75c-2.07107,0 -3.75,-1.67893 -3.75,-3.75z" fill="#ffffff" stroke="none" stroke-width="0.5"/><path d="M45.03242,94.66409c0,-2.07107 1.67893,-3.75 3.75,-3.75c2.07107,0 3.75,1.67893 3.75,3.75c0,2.07107 -1.67893,3.75 -3.75,3.75c-2.07107,0 -3.75,-1.67893 -3.75,-3.75z" fill="#ffffff" stroke="none" stroke-width="0.5"/><path d="M24.95412,31.08279c0,-2.07107 1.67893,-3.75 3.75,-3.75c2.07107,0 3.75,1.67893 3.75,3.75c0,2.07107 -1.67893,3.75 -3.75,3.75c-2.07107,0 -3.75,-1.67893 -3.75,-3.75z" fill="#ffffff" stroke="none" stroke-width="0.5"/><path d="M172.19501,151.55261c0,-2.07107 1.67893,-3.75 3.75,-3.75c2.07107,0 3.75,1.67893 3.75,3.75c0,2.07107 -1.67893,3.75 -3.75,3.75c-2.07107,0 -3.75,-1.67893 -3.75,-3.75z" fill="#ffffff" stroke="none" stroke-width="0.5"/><path d="M88.53541,172.46751c0,-2.07107 1.67893,-3.75 3.75,-3.75c2.07107,0 3.75,1.67893 3.75,3.75c0,2.07107 -1.67893,3.75 -3.75,3.75c-2.07107,0 -3.75,-1.67893 -3.75,-3.75z" fill="#ffffff" stroke="none" stroke-width="0.5"/><path d="M28.3005,231.02922c0,-2.07107 1.67893,-3.75 3.75,-3.75c2.07107,0 3.75,1.67893 3.75,3.75c0,2.07107 -1.67893,3.75 -3.75,3.75c-2.07107,0 -3.75,-1.67893 -3.75,-3.75z" fill="#ffffff" stroke="none" stroke-width="0.5"/><path d="M214.0248,205.09475c0,-3.75 3.75,-3.75 3.75,-3.75h3.34638c0,0 3.75,0 3.75,3.75c0,3.75 -3.75,3.75 -3.75,3.75h-3.34638c0,0 -3.75,0 -3.75,-3.75z" fill="#ffffff" stroke="none" stroke-width="0.5"/><path d="M168.84862,241.90497c0,-2.07107 1.67893,-3.75 3.75,-3.75c2.07107,0 3.75,1.67893 3.75,3.75c0,2.07107 -1.67893,3.75 -3.75,3.75c-2.07107,0 -3.75,-1.67893 -3.75,-3.75z" fill="#ffffff" stroke="none" stroke-width="0.5"/><path d="M106.28135,256.55676c2.08012,3.12019 -1.04006,5.20031 -1.04006,5.20031l-2.50979,1.6732c0,0 -3.12019,2.08012 -5.20031,-1.04007c-2.08012,-3.12019 1.04006,-5.20031 1.04006,-5.20031l2.50979,-1.67319c0,0 3.12019,-2.08013 5.20032,1.04006z" fill="#ffffff" stroke="none" stroke-width="0.5"/><path d="M219.88097,313.01563c0,-2.07107 1.67893,-3.75 3.75,-3.75c2.07107,0 3.75,1.67893 3.75,3.75c0,2.07107 -1.67893,3.75 -3.75,3.75c-2.07107,0 -3.75,-1.67893 -3.75,-3.75z" fill="#ffffff" stroke="none" stroke-width="0.5"/><path d="M118.65287,323.05478c0,-2.07107 1.67893,-3.75 3.75,-3.75c2.07107,0 3.75,1.67893 3.75,3.75c0,2.07107 -1.67893,3.75 -3.75,3.75c-2.07107,0 -3.75,-1.67893 -3.75,-3.75z" fill="#ffffff" stroke="none" stroke-width="0.5"/><path d="M41.68603,320.54499c0,-2.07107 1.67893,-3.75 3.75,-3.75c2.07107,0 3.75,1.67893 3.75,3.75c0,2.07107 -1.67893,3.75 -3.75,3.75c-2.07107,0 -3.75,-1.67893 -3.75,-3.75z" fill="#ffffff" stroke="none" stroke-width="0.5"/><path d="M587.14659,41.12194c0,-2.07107 1.67893,-3.75 3.75,-3.75c2.07107,0 3.75,1.67893 3.75,3.75c0,2.07107 -1.67893,3.75 -3.75,3.75c-2.07107,0 -3.75,-1.67893 -3.75,-3.75z" fill="#ffffff" stroke="none" stroke-width="0.5"/><path d="M385.52697,91.3177c0,-2.07107 1.67893,-3.75 3.75,-3.75c2.07107,0 3.75,1.67893 3.75,3.75c0,2.07107 -1.67893,3.75 -3.75,3.75c-2.07107,0 -3.75,-1.67893 -3.75,-3.75z" fill="#ffffff" stroke="none" stroke-width="0.5"/><path d="M311.06993,170.79432c0,-2.07107 1.67893,-3.75 3.75,-3.75c2.07107,0 3.75,1.67893 3.75,3.75c0,2.07107 -1.67893,3.75 -3.75,3.75c-2.07107,0 -3.75,-1.67893 -3.75,-3.75z" fill="#ffffff" stroke="none" stroke-width="0.5"/><path d="M270.07673,225.17305c0,-2.07107 1.67893,-3.75 3.75,-3.75c2.07107,0 3.75,1.67893 3.75,3.75c0,2.07107 -1.67893,3.75 -3.75,3.75c-2.07107,0 -3.75,-1.67893 -3.75,-3.75z" fill="#ffffff" stroke="none" stroke-width="0.5"/><path d="M242.46906,273.69561c0,-2.07107 1.67893,-3.75 3.75,-3.75c2.07107,0 3.75,1.67893 3.75,3.75c0,2.07107 -1.67893,3.75 -3.75,3.75c-2.07107,0 -3.75,-1.67893 -3.75,-3.75z" fill="#ffffff" stroke="none" stroke-width="0.5"/><path d="M264.22056,99.68366c0,-2.07107 1.67893,-3.75 3.75,-3.75c2.07107,0 3.75,1.67893 3.75,3.75c0,2.07107 -1.67893,3.75 -3.75,3.75c-2.07107,0 -3.75,-1.67893 -3.75,-3.75z" fill="#ffffff" stroke="none" stroke-width="0.5"/><path d="M306.05036,37.77556c0,-2.07107 1.67893,-3.75 3.75,-3.75c2.07107,0 3.75,1.67893 3.75,3.75c0,2.07107 -1.67893,3.75 -3.75,3.75c-2.07107,0 -3.75,-1.67893 -3.75,-3.75z" fill="#ffffff" stroke="none" stroke-width="0.5"/><path d="M162.15585,62.03684c0,-2.07107 1.67893,-3.75 3.75,-3.75c2.07107,0 3.75,1.67893 3.75,3.75c0,2.07107 -1.67893,3.75 -3.75,3.75c-2.07107,0 -3.75,-1.67893 -3.75,-3.75z" fill="#ffffff" stroke="none" stroke-width="0.5"/><path d="M86.86222,116.41558c0,-2.07107 1.67893,-3.75 3.75,-3.75c2.07107,0 3.75,1.67893 3.75,3.75c0,2.07107 -1.67893,3.75 -3.75,3.75c-2.07107,0 -3.75,-1.67893 -3.75,-3.75z" fill="#ffffff" stroke="none" stroke-width="0.5"/><path d="M28.3005,149.87942c0,-2.07107 1.67893,-3.75 3.75,-3.75c2.07107,0 3.75,1.67893 3.75,3.75c0,2.07107 -1.67893,3.75 -3.75,3.75c-2.07107,0 -3.75,-1.67893 -3.75,-3.75z" fill="#ffffff" stroke="none" stroke-width="0.5"/><path d="M141.24096,212.62411c0,-2.07107 1.67893,-3.75 3.75,-3.75c2.07107,0 3.75,1.67893 3.75,3.75c0,2.07107 -1.67893,3.75 -3.75,3.75c-2.07107,0 -3.75,-1.67893 -3.75,-3.75z" fill="#ffffff" stroke="none" stroke-width="0.5"/><path d="M142.91414,287.91775c0,-2.07107 1.67893,-3.75 3.75,-3.75c2.07107,0 3.75,1.67893 3.75,3.75c0,2.07107 -1.67893,3.75 -3.75,3.75c-2.07107,0 -3.75,-1.67893 -3.75,-3.75z" fill="#ffffff" stroke="none" stroke-width="0.5"/><path d="M58.41796,297.95689c0,-2.07107 1.67893,-3.75 3.75,-3.75c2.07107,0 3.75,1.67893 3.75,3.75c0,2.07107 -1.67893,3.75 -3.75,3.75c-2.07107,0 -3.75,-1.67893 -3.75,-3.75z" fill="#ffffff" stroke="none" stroke-width="0.5"/><path d="M168.01203,339.7867c0,-2.07107 1.67893,-3.75 3.75,-3.75c2.07107,0 3.75,1.67893 3.75,3.75c0,2.07107 -1.67893,3.75 -3.75,3.75c-2.07107,0 -3.75,-1.67893 -3.75,-3.75z" fill="#ffffff" stroke="none" stroke-width="0.5"/><path d="M85.18903,346.47946c0,-2.07107 1.67893,-3.75 3.75,-3.75c2.07107,0 3.75,1.67893 3.75,3.75c0,2.07107 -1.67893,3.75 -3.75,3.75c-2.07107,0 -3.75,-1.67893 -3.75,-3.75z" fill="#ffffff" stroke="none" stroke-width="0.5"/><path d="M487.46401,298.11508c0,-5.63589 4.56879,-10.20468 10.20468,-10.20468c5.63589,0 10.20468,4.56879 10.20468,10.20468c0,5.63589 -4.56879,10.20468 -10.20468,10.20468c-5.63589,0 -10.20468,-4.56879 -10.20468,-10.20468z" fill="#79440c" stroke="url(#color-2)" stroke-width="0"/></g></g></svg>