<svg version="1.1" xmlns="http://www.w3.org/2000/svg" xmlns:xlink="http://www.w3.org/1999/xlink" width="792.90558" height="549.3258" viewBox="0,0,792.90558,549.3258"><defs><radialGradient cx="315.60968" cy="304.94473" r="107.87758" gradientUnits="userSpaceOnUse" id="color-1"><stop offset="0" stop-color="#00b8ff" stop-opacity="0.59608"/><stop offset="1" stop-color="#00e8ff" stop-opacity="0.30588"/></radialGradient><linearGradient x1="16.3216" y1="271.78271" x2="16.3216" y2="300.61906" gradientUnits="userSpaceOnUse" id="color-2"><stop offset="0" stop-color="#8cff2e"/><stop offset="1" stop-color="#65df00"/></linearGradient><linearGradient x1="31.27165" y1="295.44826" x2="31.27165" y2="324.28461" gradientUnits="userSpaceOnUse" id="color-3"><stop offset="0" stop-color="#8cff2e"/><stop offset="1" stop-color="#65df00"/></linearGradient><linearGradient x1="109.36813" y1="283.03834" x2="109.36813" y2="311.87469" gradientUnits="userSpaceOnUse" id="color-4"><stop offset="0" stop-color="#8cff2e"/><stop offset="1" stop-color="#65df00"/></linearGradient><linearGradient x1="211.87879" y1="307.80072" x2="211.87879" y2="336.63707" gradientUnits="userSpaceOnUse" id="color-5"><stop offset="0" stop-color="#8cff2e"/><stop offset="1" stop-color="#65df00"/></linearGradient><linearGradient x1="424.8473" y1="297.94939" x2="443.37086" y2="320.04945" gradientUnits="userSpaceOnUse" id="color-6"><stop offset="0" stop-color="#d1ffac"/><stop offset="1" stop-color="#add38e"/></linearGradient><linearGradient x1="482.3046" y1="285.28947" x2="482.3046" y2="314.12582" gradientUnits="userSpaceOnUse" id="color-7"><stop offset="0" stop-color="#8cff2e"/><stop offset="1" stop-color="#65df00"/></linearGradient><linearGradient x1="467.55033" y1="-27.51819" x2="444.45064" y2="-54.88054" gradientUnits="userSpaceOnUse" id="color-8"><stop offset="0" stop-color="#8cff2e"/><stop offset="1" stop-color="#65df00"/></linearGradient><linearGradient x1="479.87621" y1="-12.91777" x2="432.12478" y2="-69.48093" gradientUnits="userSpaceOnUse" id="color-9"><stop offset="0" stop-color="#8cff2e"/><stop offset="1" stop-color="#65df00"/></linearGradient><linearGradient x1="555.71869" y1="307.02276" x2="537.5861" y2="329.44471" gradientUnits="userSpaceOnUse" id="color-10"><stop offset="0" stop-color="#d1ffac"/><stop offset="1" stop-color="#add38e"/></linearGradient><linearGradient x1="198.83157" y1="290.46126" x2="183.43049" y2="314.84039" gradientUnits="userSpaceOnUse" id="color-11"><stop offset="0" stop-color="#d1ffac"/><stop offset="1" stop-color="#add38e"/></linearGradient><linearGradient x1="167.27041" y1="310.66134" x2="182.67149" y2="335.04046" gradientUnits="userSpaceOnUse" id="color-12"><stop offset="0" stop-color="#d1ffac"/><stop offset="1" stop-color="#add38e"/></linearGradient><linearGradient x1="85.71114" y1="288.72981" x2="70.31006" y2="313.10895" gradientUnits="userSpaceOnUse" id="color-13"><stop offset="0" stop-color="#d1ffac"/><stop offset="1" stop-color="#add38e"/></linearGradient><linearGradient x1="111.68267" y1="317.00993" x2="96.28159" y2="341.38906" gradientUnits="userSpaceOnUse" id="color-14"><stop offset="0" stop-color="#d1ffac"/><stop offset="1" stop-color="#add38e"/></linearGradient><linearGradient x1="17.82235" y1="310.05185" x2="17.82235" y2="338.8882" gradientUnits="userSpaceOnUse" id="color-15"><stop offset="0" stop-color="#8cff2e"/><stop offset="1" stop-color="#65df00"/></linearGradient><linearGradient x1="58.76714" y1="314.70135" x2="74.16822" y2="339.08048" gradientUnits="userSpaceOnUse" id="color-16"><stop offset="0" stop-color="#d1ffac"/><stop offset="1" stop-color="#add38e"/></linearGradient></defs><g transform="translate(75.15376,97.37862)"><g stroke-miterlimit="10"><path d="M-56.39206,-9.41193c0,-36.28004 25.65844,-39.42439 61.93848,-39.42439c36.28004,0 660.43754,22.84419 660.43754,59.12423c0,36.28004 78.46916,439.14416 42.18912,439.14416c-36.28004,0 -783.32684,13.6462 -783.32684,-22.63382z" fill="#13d8e8" stroke="none" stroke-width="0.5" stroke-linecap="butt"/><path d="M-15.36163,393.84451v-102.63172h669.6894v102.63172z" fill="#77e813" stroke="none" stroke-width="0" stroke-linecap="butt"/><path d="M207.7321,304.94473c0,-18.64997 48.29844,-33.76876 107.87758,-33.76876c59.57914,0 107.87758,15.11879 107.87758,33.76876c0,18.64997 -48.29844,33.76876 -107.87758,33.76876c-59.57914,0 -107.87758,-15.11879 -107.87758,-33.76876z" fill="#79440c" stroke="url(#color-1)" stroke-width="0" stroke-linecap="butt"/><path d="M16.3216,271.78274v28.83631" fill="none" stroke="url(#color-2)" stroke-width="15" stroke-linecap="round"/><path d="M31.27165,324.28461v-28.83631" fill="none" stroke="url(#color-3)" stroke-width="15" stroke-linecap="round"/><path d="M109.36813,283.03837v28.83631" fill="none" stroke="url(#color-4)" stroke-width="15" stroke-linecap="round"/><path d="M211.87879,307.80075v28.83631" fill="none" stroke="url(#color-5)" stroke-width="15" stroke-linecap="round"/><path d="M443.37086,320.04945l-18.52353,-22.10003" fill="none" stroke="url(#color-6)" stroke-width="15" stroke-linecap="round"/><path d="M482.3046,314.12582v-28.83631" fill="none" stroke="url(#color-7)" stroke-width="15" stroke-linecap="round"/><g fill="#65df00" stroke="none" stroke-width="0.5" stroke-linecap="butt"><path d="M475.71246,334.41354c0.54897,0.54897 0.02465,1.09795 0.00083,1.12231c-0.41631,0.66585 -0.70787,1.36705 -1.10456,2.05008c0,0 -0.40018,0.68599 -1.08616,0.28584c-0.68599,-0.40018 -0.28584,-1.08616 -0.28584,-1.08616c0.40589,-0.69231 0.70622,-1.39936 1.12425,-2.0815l-0.51171,0.17037c-0.79943,0.23743 -1.30882,0.60517 -2.00367,1.06847c0,0 -0.6608,0.44055 -1.10135,-0.22028c-0.44055,-0.6608 0.22028,-1.10135 0.22028,-1.10135c0.81916,-0.54605 1.47442,-0.96694 2.41763,-1.26498l0.53509,-0.1786c0,0 0.75343,-0.25115 1.00458,0.50228c0.07119,0.21354 0.06166,0.38671 0.0115,0.52528c0.21135,-0.07253 0.49526,-0.0757 0.77916,0.20824zM475.73527,335.50088l0.02421,-0.03799c-0.00813,0.01264 -0.0162,0.02532 -0.02421,0.03799z"/><path d="M478.39217,335.00166c0.71035,0.35516 0.35516,1.06551 0.35516,1.06551l-0.03866,0.0731c-0.35402,0.84829 -0.71814,1.56452 -1.25755,2.31089c0,0 -0.46711,0.64228 -1.10942,0.17517c-0.64228,-0.46711 -0.17517,-1.10942 -0.17517,-1.10942c0.47305,-0.64567 0.76896,-1.24964 1.07593,-1.9876l0.08415,-0.17253c0,0 0.35516,-0.71035 1.06551,-0.35516z"/><path d="M480.43187,335.16345c0.79419,0 0.79419,0.79419 0.79419,0.79419l-0.00924,0.24356c-0.18073,1.16908 -0.35125,2.22932 -0.70136,3.36735c0,0 -0.23355,0.75905 -0.99264,0.5255c-0.75905,-0.23355 -0.5255,-0.99264 -0.5255,-0.99264c0.32857,-1.06764 0.48137,-2.04341 0.64958,-3.14177l-0.00924,-0.00206c0,0 0,-0.79419 0.79419,-0.79419z"/><path d="M483.24612,335.84689c0.78621,0.11233 0.67388,0.89851 0.67388,0.89851l-0.07376,0.49611c-0.1874,0.80127 -0.24648,1.59104 -0.42985,2.39489c0,0 -0.17857,0.77386 -0.95242,0.59526c-0.77386,-0.17857 -0.59526,-0.95242 -0.59526,-0.95242c0.1874,-0.80127 0.24648,-1.59104 0.42985,-2.39489l0.04905,-0.36358c0,0 0.11233,-0.78621 0.89851,-0.67388z"/><path d="M485.84899,336.10697c0.71035,-0.35516 1.06551,0.35516 1.06551,0.35516l0.20052,0.50231c0.11115,0.90016 0.11795,1.77634 0.188,2.67809c0,0 0.0609,0.79184 -0.73094,0.85277c-0.79184,0.0609 -0.85277,-0.73094 -0.85277,-0.73094c-0.06681,-0.87659 -0.06979,-1.72936 -0.18044,-2.6029l-0.04511,0.01102c0,0 -0.35516,-0.71035 0.35516,-1.06551z"/><path d="M489.02307,335.84172c0.72999,-0.31285 1.04283,0.41714 1.04283,0.41714l0.23921,0.62194c0.14,0.9264 0.13479,1.76138 0.06862,2.69503c0,0 -0.05658,0.79215 -0.84876,0.73558c-0.79215,-0.05658 -0.73558,-0.84876 -0.73558,-0.84876c0.05896,-0.81843 0.07313,-1.52954 -0.0542,-2.34034l-0.12923,-0.23778c0,0 -0.31285,-0.72999 0.41714,-1.04283z"/><path d="M491.35344,335.8873c0.56159,-0.56159 1.12314,0 1.12314,0l0.35573,0.44033c0.39929,0.96262 0.60546,1.71516 0.61375,2.76174c0,0 0,0.79419 -0.79419,0.79419c-0.79419,0 -0.79419,-0.79419 -0.79419,-0.79419c0.00864,-0.84371 -0.16707,-1.37595 -0.49157,-2.15082l-0.01271,0.07189c0,0 -0.56159,-0.56159 0,-1.12314z"/><path d="M494.07753,335.06306c0.71035,-0.35516 1.06551,0.35516 1.06551,0.35516l0.05477,0.13368c0.53379,0.73605 1.06456,1.32248 1.48043,2.13836c0,0 0.35516,0.71035 -0.35516,1.06551c-0.71035,0.35516 -1.06551,-0.35516 -1.06551,-0.35516c-0.35726,-0.73275 -0.86357,-1.25513 -1.3443,-1.9145l-0.19086,-0.35757c0,0 -0.35516,-0.71035 0.35516,-1.06551z"/><path d="M495.59052,334.22933c0.56159,-0.56159 1.12314,0 1.12314,0l0.17183,0.19858c0.67881,0.43331 1.31702,0.74571 2.06937,1.0341c0,0 0.74126,0.28508 0.45615,1.02634c-0.28508,0.74126 -1.02634,0.45615 -1.02634,0.45615c-0.84724,-0.32686 -1.58532,-0.69005 -2.35194,-1.17654l-0.44224,-0.41549c0,0 -0.56159,-0.56159 0,-1.12314z"/><path d="M496.21761,333.0715c0,-0.79419 0.79419,-0.79419 0.79419,-0.79419l0.73342,0.12415c0.76255,0.48731 1.38636,1.03238 2.20085,1.43344c0,0 0.71035,0.35516 0.35516,1.06551c-0.35516,0.71035 -1.06551,0.35516 -1.06551,0.35516c-0.86608,-0.43849 -1.53062,-0.99941 -2.34327,-1.51407l0.11935,0.12415c0,0 -0.79419,0 -0.79419,-0.79419z"/><path d="M473.4888,332.1504c0,0.69132 -0.60177,0.78088 -0.75765,0.79247c-0.77141,0.17803 -1.54282,0.35602 -2.31423,0.53404c0,0 -0.77386,0.17857 -0.95242,-0.59526c-0.17857,-0.77386 0.59526,-0.95242 0.59526,-0.95242c0.79829,-0.18422 1.59657,-0.36844 2.39489,-0.55266l0.24,-0.02033c0,0 0.79419,0 0.79419,0.79419z"/><path d="M496.91341,328.89016c-0.17857,-0.77386 0.59526,-0.95242 0.59526,-0.95242l0.79829,-0.18422c0,0 0.77386,-0.17857 0.95242,0.59526c0.17857,0.77386 -0.59526,0.95242 -0.59526,0.95242l-0.75016,0.1731l0.25249,0.01337c0.60603,0.19391 1.18858,0.48518 1.70731,0.85366c0,0 0.64228,0.46711 0.17517,1.10942c-0.46711,0.64228 -1.10942,0.17517 -1.10942,0.17517c-0.36958,-0.27755 -0.79641,-0.49097 -1.2402,-0.6201l-0.19629,0.03513c0,0 -0.79419,0 -0.79419,-0.79419c0,-0.61407 0.47483,-0.75333 0.69018,-0.78491c-0.19912,-0.06408 -0.40421,-0.21891 -0.48563,-0.57166z"/><path d="M473.46634,330.17211c-0.35516,0.71035 -1.06551,0.35516 -1.06551,0.35516l-0.19184,-0.12072c-0.26608,-0.06141 -0.5322,-0.12281 -0.79829,-0.18422c0,0 -0.77386,-0.17857 -0.59526,-0.95242c0.17857,-0.77386 0.95242,-0.59526 0.95242,-0.59526c0.26608,0.06141 0.5322,0.12281 0.79829,0.18422l0.54503,0.24772c0,0 0.71035,0.35516 0.35516,1.06551z"/></g><g fill="#65df00" stroke="none" stroke-width="0.5" stroke-linecap="butt"><path d="M577.34957,312.58544c0.54897,0.54897 0.02465,1.09795 0.00082,1.12232c-0.41631,0.66584 -0.70787,1.36704 -1.10455,2.05008c0,0 -0.40018,0.68599 -1.08617,0.28584c-0.68598,-0.40017 -0.28584,-1.08616 -0.28584,-1.08616c0.40589,-0.69231 0.70622,-1.39936 1.12425,-2.0815l-0.51171,0.17037c-0.79943,0.23743 -1.30882,0.60518 -2.00367,1.06847c0,0 -0.6608,0.44055 -1.10135,-0.22028c-0.44055,-0.6608 0.22028,-1.10135 0.22028,-1.10135c0.81916,-0.54605 1.47442,-0.96693 2.41764,-1.26498l0.53509,-0.1786c0,0 0.75343,-0.25115 1.00459,0.50227c0.07119,0.21354 0.06166,0.38671 0.0115,0.52528c0.21135,-0.07252 0.49526,-0.0757 0.77916,0.20824zM577.37238,313.67278l0.0242,-0.03799c-0.00813,0.01265 -0.0162,0.02531 -0.0242,0.03799z"/><path d="M580.02928,313.17355c0.71035,0.35516 0.35516,1.06551 0.35516,1.06551l-0.03866,0.0731c-0.35401,0.84828 -0.71814,1.56452 -1.25755,2.3109c0,0 -0.46711,0.64227 -1.10941,0.17516c-0.64228,-0.46711 -0.17517,-1.10942 -0.17517,-1.10942c0.47305,-0.64567 0.76896,-1.24964 1.07593,-1.98759l0.08416,-0.17253c0,0 0.35515,-0.71035 1.06551,-0.35516z"/><path d="M582.06898,313.33535c0.79418,0 0.79418,0.79418 0.79418,0.79418l-0.00924,0.24356c-0.18072,1.16908 -0.35125,2.22932 -0.70136,3.36736c0,0 -0.23356,0.75905 -0.99264,0.5255c-0.75905,-0.23356 -0.5255,-0.99264 -0.5255,-0.99264c0.32857,-1.06764 0.48137,-2.04341 0.64958,-3.14177l-0.00924,-0.00207c0,0 0,-0.79418 0.79418,-0.79418z"/><path d="M584.88323,314.01878c0.78621,0.11233 0.67388,0.89851 0.67388,0.89851l-0.07376,0.49611c-0.18739,0.80127 -0.24649,1.59104 -0.42985,2.39489c0,0 -0.17856,0.77385 -0.95242,0.59526c-0.77386,-0.17856 -0.59526,-0.95242 -0.59526,-0.95242c0.18739,-0.80127 0.24649,-1.59104 0.42985,-2.39489l0.04904,-0.36358c0,0 0.11234,-0.78621 0.89851,-0.67388z"/><path d="M587.4861,314.27887c0.71035,-0.35516 1.06551,0.35516 1.06551,0.35516l0.20052,0.50231c0.11115,0.90017 0.11795,1.77634 0.188,2.67809c0,0 0.0609,0.79184 -0.73094,0.85277c-0.79183,0.0609 -0.85277,-0.73094 -0.85277,-0.73094c-0.0668,-0.87659 -0.06979,-1.72936 -0.18044,-2.6029l-0.04511,0.01102c0,0 -0.35516,-0.71035 0.35516,-1.06552z"/><path d="M590.66018,314.01361c0.72999,-0.31284 1.04283,0.41714 1.04283,0.41714l0.23921,0.62195c0.14,0.9264 0.13478,1.76138 0.06862,2.69502c0,0 -0.05658,0.79215 -0.84876,0.73557c-0.79216,-0.05658 -0.73558,-0.84876 -0.73558,-0.84876c0.05896,-0.81842 0.07313,-1.52955 -0.0542,-2.34035l-0.12923,-0.23778c0,0 -0.31285,-0.72999 0.41714,-1.04283z"/><path d="M592.99054,314.0592c0.56159,-0.56158 1.12314,0 1.12314,0l0.35573,0.44033c0.39929,0.96262 0.60546,1.71516 0.61374,2.76174c0,0 0,0.79419 -0.79418,0.79419c-0.79419,0 -0.79419,-0.79419 -0.79419,-0.79419c0.00864,-0.84371 -0.16706,-1.37594 -0.49157,-2.15082l-0.01271,0.07189c0,0 -0.56158,-0.56159 0,-1.12314z"/><path d="M595.71464,313.23496c0.71036,-0.35516 1.06551,0.35516 1.06551,0.35516l0.05477,0.13367c0.53379,0.73606 1.06456,1.32248 1.48043,2.13837c0,0 0.35516,0.71035 -0.35516,1.06552c-0.71035,0.35516 -1.06552,-0.35516 -1.06552,-0.35516c-0.35726,-0.73275 -0.86357,-1.25513 -1.34431,-1.9145l-0.19086,-0.35758c0,0 -0.35516,-0.71035 0.35516,-1.06551z"/><path d="M597.22763,312.40121c0.56158,-0.56158 1.12314,0 1.12314,0l0.17183,0.19858c0.67881,0.43331 1.31702,0.74571 2.06937,1.03409c0,0 0.74126,0.28508 0.45615,1.02634c-0.28508,0.74126 -1.02634,0.45614 -1.02634,0.45614c-0.84724,-0.32686 -1.58532,-0.69005 -2.35194,-1.17654l-0.44223,-0.41548c0,0 -0.56158,-0.56158 0,-1.12314z"/><path d="M597.85472,311.24339c0,-0.79419 0.79418,-0.79419 0.79418,-0.79419l0.73342,0.12414c0.76255,0.48732 1.38637,1.03238 2.20085,1.43345c0,0 0.71035,0.35516 0.35516,1.06552c-0.35516,0.71035 -1.06552,0.35516 -1.06552,0.35516c-0.86608,-0.43849 -1.53062,-0.99941 -2.34326,-1.51407l0.11935,0.12414c0,0 -0.79418,0 -0.79418,-0.79419z"/><path d="M575.12591,310.32229c0,0.69133 -0.60177,0.78088 -0.75765,0.79248c-0.77141,0.17802 -1.54282,0.35601 -2.31423,0.53404c0,0 -0.77386,0.17857 -0.95242,-0.59525c-0.17857,-0.77386 0.59525,-0.95243 0.59525,-0.95243c0.79829,-0.18422 1.59658,-0.36844 2.39489,-0.55266l0.24,-0.02033c0,0 0.79419,0 0.79419,0.79419z"/><path d="M598.55052,307.06206c-0.17856,-0.77386 0.59526,-0.95243 0.59526,-0.95243l0.79829,-0.18421c0,0 0.77386,-0.17857 0.95242,0.59525c0.17856,0.77386 -0.59526,0.95243 -0.59526,0.95243l-0.75016,0.1731l0.25249,0.01337c0.60603,0.19391 1.18858,0.48519 1.70731,0.85366c0,0 0.64228,0.46711 0.17517,1.10942c-0.46711,0.64227 -1.10942,0.17516 -1.10942,0.17516c-0.36958,-0.27756 -0.79641,-0.49097 -1.2402,-0.6201l-0.19629,0.03514c0,0 -0.79419,0 -0.79419,-0.79419c0,-0.61406 0.47483,-0.75333 0.69018,-0.78491c-0.19912,-0.06408 -0.40421,-0.21891 -0.48563,-0.57166z"/><path d="M575.10345,308.34401c-0.35516,0.71035 -1.06552,0.35516 -1.06552,0.35516l-0.19185,-0.12071c-0.26608,-0.0614 -0.5322,-0.12282 -0.79829,-0.18422c0,0 -0.77385,-0.17857 -0.59526,-0.95243c0.17857,-0.77386 0.95243,-0.59526 0.95243,-0.59526c0.26608,0.0614 0.5322,0.12281 0.79828,0.18422l0.54503,0.24773c0,0 0.71035,0.35516 0.35516,1.06551z"/></g><g fill-opacity="0.25882" fill="#000000" stroke="#000000" stroke-width="0" stroke-linecap="butt"><path d="M444.01256,-89.07171c4.65367,-5.01311 8.62276,-7.73687 11.8544,-8.21453c4.44814,-0.65746 3.20514,2.23825 -0.10993,7.2941c-2.9068,4.43321 -6.87433,9.19312 -11.56309,13.98224c-1.32254,-2.49162 -3.4896,-5.91638 -5.29311,-7.8376c2.02763,-2.15026 2.78386,-2.71653 5.11177,-5.22423z"/><path d="M407.62145,-49.36231c-6.65285,3.71625 -7.44939,1.10344 -7.51751,-0.44112c-0.06596,-1.49586 4.61083,-6.98804 10.80831,-11.17318c2.54712,-1.72007 3.60956,-2.65981 5.889,-4.18139c1.56405,2.05852 4.5162,4.90971 6.91635,6.52247c-5.98861,3.97309 -11.79622,6.87135 -16.09617,9.27322z"/><path d="M438.10578,-62.17871c-3.27277,2.76292 -9.73926,8.1133 -10.6839,6.99433c-3.09458,-3.66562 -12.03463,-8.2326 -11.47906,-13.83104c0.2675,-2.69541 1.7538,-6.22115 7.26423,-10.81128c5.48479,-4.56876 10.00031,-6.08238 12.20124,-5.80652c5.29678,0.66391 8.50426,10.30734 11.53975,13.90297c0.9811,1.16214 -5.55782,6.77873 -8.84226,9.5515z"/></g><g fill="#65df00" stroke="none" stroke-width="0.5" stroke-linecap="butt"><path d="M110.09172,318.04247c0.54897,0.54897 0.02465,1.09795 0.00082,1.12232c-0.41631,0.66584 -0.70788,1.36704 -1.10456,2.05008c0,0 -0.40018,0.68599 -1.08616,0.28584c-0.68599,-0.40017 -0.28584,-1.08616 -0.28584,-1.08616c0.40589,-0.69231 0.70622,-1.39936 1.12425,-2.0815l-0.51171,0.17037c-0.79943,0.23743 -1.30882,0.60518 -2.00367,1.06847c0,0 -0.6608,0.44055 -1.10135,-0.22028c-0.44055,-0.6608 0.22028,-1.10135 0.22028,-1.10135c0.81916,-0.54605 1.47442,-0.96693 2.41764,-1.26498l0.53509,-0.1786c0,0 0.75343,-0.25115 1.00459,0.50227c0.07119,0.21354 0.06166,0.38671 0.0115,0.52528c0.21135,-0.07252 0.49525,-0.0757 0.77916,0.20824zM110.11453,319.1298l0.0242,-0.03799c-0.00813,0.01265 -0.0162,0.02531 -0.0242,0.03799z"/><path d="M112.77143,318.63058c0.71035,0.35516 0.35516,1.06551 0.35516,1.06551l-0.03866,0.0731c-0.35402,0.84828 -0.71814,1.56452 -1.25755,2.3109c0,0 -0.46711,0.64227 -1.10942,0.17516c-0.64227,-0.46711 -0.17516,-1.10942 -0.17516,-1.10942c0.47305,-0.64567 0.76896,-1.24964 1.07593,-1.98759l0.08416,-0.17253c0,0 0.35515,-0.71035 1.06551,-0.35516z"/><path d="M114.81113,318.79237c0.79419,0 0.79418,0.79418 0.79418,0.79418l-0.00924,0.24356c-0.18072,1.16908 -0.35125,2.22932 -0.70136,3.36736c0,0 -0.23355,0.75905 -0.99264,0.5255c-0.75905,-0.23356 -0.5255,-0.99264 -0.5255,-0.99264c0.32857,-1.06764 0.48137,-2.04341 0.64958,-3.14177l-0.00924,-0.00207c0,0 0,-0.79418 0.79418,-0.79418z"/><path d="M117.62538,319.47582c0.78622,0.11233 0.67388,0.89851 0.67388,0.89851l-0.07376,0.49611c-0.18739,0.80127 -0.24649,1.59104 -0.42985,2.39489c0,0 -0.17856,0.77385 -0.95242,0.59526c-0.77386,-0.17856 -0.59526,-0.95242 -0.59526,-0.95242c0.18739,-0.80127 0.24649,-1.59104 0.42985,-2.39489l0.04904,-0.36358c0,0 0.11234,-0.78621 0.89852,-0.67388z"/><path d="M120.22825,319.7359c0.71035,-0.35516 1.06551,0.35516 1.06551,0.35516l0.20052,0.50231c0.11115,0.90017 0.11795,1.77634 0.188,2.67809c0,0 0.0609,0.79184 -0.73094,0.85277c-0.79183,0.0609 -0.85277,-0.73094 -0.85277,-0.73094c-0.0668,-0.87659 -0.06979,-1.72936 -0.18044,-2.6029l-0.04511,0.01102c0,0 -0.35516,-0.71035 0.35516,-1.06552z"/><path d="M123.40233,319.47064c0.72998,-0.31284 1.04283,0.41714 1.04283,0.41714l0.23921,0.62195c0.14,0.9264 0.13478,1.76138 0.06861,2.69502c0,0 -0.05657,0.79215 -0.84876,0.73557c-0.79215,-0.05658 -0.73558,-0.84876 -0.73558,-0.84876c0.05896,-0.81842 0.07313,-1.52955 -0.05419,-2.34035l-0.12923,-0.23778c0,0 -0.31284,-0.72999 0.41714,-1.04283z"/><path d="M125.73269,319.51622c0.56158,-0.56158 1.12314,0 1.12314,0l0.35573,0.44033c0.39929,0.96262 0.60546,1.71516 0.61374,2.76174c0,0 0,0.79419 -0.79419,0.79419c-0.79419,0 -0.79419,-0.79419 -0.79419,-0.79419c0.00864,-0.84371 -0.16707,-1.37594 -0.49157,-2.15082l-0.0127,0.07189c0,0 -0.56158,-0.56159 0,-1.12314z"/><path d="M128.45679,318.69199c0.71035,-0.35516 1.06551,0.35516 1.06551,0.35516l0.05477,0.13367c0.53379,0.73606 1.06456,1.32248 1.48043,2.13837c0,0 0.35516,0.71035 -0.35516,1.06552c-0.71035,0.35516 -1.06552,-0.35516 -1.06552,-0.35516c-0.35726,-0.73275 -0.86357,-1.25513 -1.34431,-1.9145l-0.19086,-0.35758c0,0 -0.35516,-0.71035 0.35516,-1.06551z"/><path d="M129.96978,317.85825c0.56158,-0.56158 1.12314,0 1.12314,0l0.17183,0.19858c0.67881,0.43331 1.31701,0.74571 2.06936,1.03409c0,0 0.74126,0.28508 0.45615,1.02634c-0.28508,0.74126 -1.02634,0.45614 -1.02634,0.45614c-0.84724,-0.32686 -1.58532,-0.69005 -2.35193,-1.17654l-0.44224,-0.41548c0,0 -0.56158,-0.56158 0,-1.12314z"/><path d="M130.59687,316.70042c0,-0.79419 0.79419,-0.79419 0.79419,-0.79419l0.73342,0.12414c0.76255,0.48732 1.38637,1.03238 2.20085,1.43345c0,0 0.71035,0.35516 0.35516,1.06552c-0.35516,0.71035 -1.06552,0.35516 -1.06552,0.35516c-0.86608,-0.43849 -1.53062,-0.99941 -2.34326,-1.51407l0.11935,0.12414c0,0 -0.79419,0 -0.79419,-0.79419z"/><path d="M107.86806,315.77932c0,0.69133 -0.60177,0.78088 -0.75765,0.79248c-0.77141,0.17802 -1.54282,0.35601 -2.31423,0.53404c0,0 -0.77386,0.17857 -0.95242,-0.59525c-0.17856,-0.77386 0.59526,-0.95243 0.59526,-0.95243c0.79829,-0.18422 1.59657,-0.36844 2.39489,-0.55266l0.24,-0.02033c0,0 0.79419,0 0.79419,0.79419z"/><path d="M131.29267,312.51909c-0.17857,-0.77386 0.59526,-0.95243 0.59526,-0.95243l0.79829,-0.18421c0,0 0.77386,-0.17857 0.95242,0.59525c0.17857,0.77386 -0.59526,0.95243 -0.59526,0.95243l-0.75016,0.1731l0.25249,0.01337c0.60603,0.19391 1.18858,0.48519 1.70731,0.85366c0,0 0.64228,0.46711 0.17517,1.10942c-0.46711,0.64227 -1.10942,0.17516 -1.10942,0.17516c-0.36958,-0.27756 -0.79641,-0.49097 -1.2402,-0.6201l-0.19629,0.03514c0,0 -0.79419,0 -0.79419,-0.79419c0,-0.61406 0.47483,-0.75333 0.69018,-0.78491c-0.19912,-0.06408 -0.40421,-0.21891 -0.48563,-0.57166z"/><path d="M107.8456,313.80103c-0.35516,0.71035 -1.06552,0.35516 -1.06552,0.35516l-0.19185,-0.12071c-0.26608,-0.0614 -0.5322,-0.12282 -0.79829,-0.18422c0,0 -0.77385,-0.17857 -0.59526,-0.95243c0.17856,-0.77386 0.95243,-0.59526 0.95243,-0.59526c0.26608,0.0614 0.5322,0.12281 0.79829,0.18422l0.54503,0.24773c0,0 0.71035,0.35516 0.35516,1.06551z"/></g><path d="M428.30995,-24.8561c2.9104,-8.9869 11.11449,-25.78127 16.13578,-30.0203c5.60551,-4.73226 19.9865,-11.35604 31.98547,-10.6265c7.99357,0.486 13.06343,2.1233 15.03589,10.38619c1.433,6.00307 -1.23647,10.26628 -8.13781,12.61693c-8.85967,3.01769 -16.22578,5.14731 -21.0477,9.21804c-4.65169,3.92702 -7.87147,10.96645 -12.36628,18.50548c-4.02764,6.75539 -11.9046,8.45685 -15.05448,6.14345c-3.25246,-2.38877 -9.26522,-7.84179 -6.55084,-16.22329z" fill="url(#color-8)" stroke="#000000" stroke-width="0" stroke-linecap="butt"/><path d="M445.18498,-73.81864c9.72857,11.52382 32.12119,32.20455 37.46868,44.14911c2.22201,4.96327 2.47045,12.11996 -2.88671,16.8399c-5.38221,4.74201 -11.57549,2.69217 -16.96169,-0.67567c-11.18725,-6.9951 -27.35618,-32.17057 -37.2741,-43.91868c-3.02757,-3.58625 3.2136,-9.20352 6.48637,-11.96645c3.28444,-2.77277 10.02304,-8.15284 13.16742,-4.42822z" fill="url(#color-9)" stroke="#000000" stroke-width="0" stroke-linecap="butt"/><path d="M555.71867,307.02279l-18.13257,22.42192" fill="none" stroke="url(#color-10)" stroke-width="15" stroke-linecap="round"/><path d="M183.43049,314.84037l15.40106,-24.37909" fill="none" stroke="url(#color-11)" stroke-width="15" stroke-linecap="round"/><path d="M167.27043,310.66137l15.40105,24.3791" fill="none" stroke="url(#color-12)" stroke-width="15" stroke-linecap="round"/><path d="M85.71112,288.72985l-15.40105,24.3791" fill="none" stroke="url(#color-13)" stroke-width="15" stroke-linecap="round"/><path d="M111.68265,317.00996l-15.40105,24.3791" fill="none" stroke="url(#color-14)" stroke-width="15" stroke-linecap="round"/><path d="M17.82235,338.8882v-28.83631" fill="none" stroke="url(#color-15)" stroke-width="15" stroke-linecap="round"/><path d="M74.16821,339.08048l-15.40105,-24.3791" fill="none" stroke="url(#color-16)" stroke-width="15" stroke-linecap="round"/></g></g></svg>