<svg version="1.1" xmlns="http://www.w3.org/2000/svg" xmlns:xlink="http://www.w3.org/1999/xlink" width="47.75232" height="54.56778" viewBox="0,0,47.75232,54.56778"><defs><radialGradient cx="320" cy="156.5466" r="23.87616" gradientUnits="userSpaceOnUse" id="color-1"><stop offset="0" stop-color="#8cff2e"/><stop offset="1" stop-color="#65df00"/></radialGradient><radialGradient cx="320" cy="156.5466" r="23.36058" gradientUnits="userSpaceOnUse" id="color-2"><stop offset="0" stop-color="#8cff2e"/><stop offset="1" stop-color="#65df00"/></radialGradient></defs><g transform="translate(-296.12383,-133.18601)"><g stroke-miterlimit="10"><g fill-opacity="0.24706" fill="#000000"><path d="M327.59488,184.44418l0.00001,-0.00225c0,0.00075 0,0.0015 -0.00001,0.00225z" stroke="none" stroke-width="0.5"/><path d="M306.29036,184.13287c-4.28545,0.47193 -7.30865,0.19905 -9.06168,-0.78034c-2.41294,-1.34808 -0.63447,-2.15156 3.0228,-3.13386c3.07331,-0.82546 7.44493,-1.42358 11.51039,-1.7902c-0.24047,1.38799 -0.24447,2.54468 -0.43936,4.03624c-0.02328,0.17815 -1.02236,0.32524 -0.75667,0.62447c0.17335,0.19523 0.47646,0.35097 0.87686,0.47474c-1.61366,0.17169 -3.32321,0.36753 -5.15234,0.56896z" stroke="#000000" stroke-width="0"/><path d="M340.0087,180.22168c4.72161,0.82692 4.04196,2.25661 3.44594,2.9538c-0.57723,0.6752 -5.06888,1.34711 -9.76178,0.89153c-1.75628,-0.1705 -3.42053,-0.34981 -5.00187,-0.51284c1.18936,-0.85816 0.2931,-3.7785 0.05631,-4.88249c4.12596,0.46072 8.5287,1.0714 11.2614,1.55z" stroke="#000000" stroke-width="0"/><path d="M320.08852,174.59962c2.70331,0 8.00037,0.04731 8.00037,0.88132c0,2.73211 2.45218,8.00401 -0.09516,10.23624c-1.22644,1.07472 -3.37875,2.063 -7.90519,2.03608c-4.50536,-0.0268 -7.29938,-1.02704 -8.24853,-1.95569c-2.28422,-2.23487 0.09518,-7.60988 0.09518,-10.28984c0,-0.86619 5.44037,-0.90811 8.15333,-0.90811z" stroke="#000000" stroke-width="0"/></g><path d="" fill-opacity="0.24706" fill="#000000" stroke="#000000" stroke-width="0"/><g fill="#65df00" stroke="none" stroke-width="0.5"><path d="M313.70388,178.43656c0.3725,0.32592 0.01673,0.65183 0.00056,0.6663c-0.28248,0.3953 -0.48032,0.81159 -0.74948,1.21709c0,0 -0.27153,0.40726 -0.73699,0.1697c-0.46546,-0.23758 -0.19395,-0.64483 -0.19395,-0.64483c0.27541,-0.41101 0.47919,-0.83077 0.76284,-1.23575l-0.34721,0.10114c-0.54244,0.14096 -0.88808,0.35928 -1.35955,0.63433c0,0 -0.44837,0.26155 -0.7473,-0.13077c-0.29893,-0.3923 0.14946,-0.65385 0.14946,-0.65385c0.55582,-0.32418 1.00044,-0.57405 1.64044,-0.75099l0.36308,-0.10603c0,0 0.51123,-0.14911 0.68164,0.29819c0.04831,0.12678 0.04184,0.22958 0.0078,0.31185c0.14341,-0.04306 0.33605,-0.04494 0.52868,0.12363zM313.71938,179.08209l0.01643,-0.02256c-0.00552,0.00751 -0.01099,0.01503 -0.01643,0.02256z"/><path d="M315.52215,178.78571c0.482,0.21085 0.24099,0.63257 0.24099,0.63257l-0.02623,0.0434c-0.24021,0.50361 -0.48728,0.92882 -0.85329,1.37193c0,0 -0.31695,0.38131 -0.75277,0.10399c-0.4358,-0.27731 -0.11886,-0.65864 -0.11886,-0.65864c0.32098,-0.38332 0.52177,-0.74189 0.73005,-1.18l0.0571,-0.10243c0,0 0.24099,-0.42172 0.72298,-0.21085z"/><path d="M316.90616,178.88176c0.53888,0 0.53888,0.47149 0.53888,0.47149l-0.00627,0.1446c-0.12263,0.69406 -0.23834,1.3235 -0.4759,1.99913c0,0 -0.15847,0.45063 -0.67354,0.31198c-0.51504,-0.13866 -0.35657,-0.58931 -0.35657,-0.58931c0.22295,-0.63384 0.32663,-1.21313 0.44076,-1.86521l-0.00627,-0.00123c0,0 0,-0.47149 0.53888,-0.47149z"/><path d="M318.8157,179.28751c0.53347,0.06669 0.45725,0.53343 0.45725,0.53343l-0.05005,0.29453c-0.12715,0.4757 -0.16725,0.94457 -0.29166,1.4218c0,0 -0.12116,0.45942 -0.64625,0.35339c-0.52509,-0.10601 -0.4039,-0.56543 -0.4039,-0.56543c0.12715,-0.4757 0.16725,-0.94457 0.29166,-1.4218l0.03328,-0.21585c0,0 0.07622,-0.46676 0.60967,-0.40007z"/><path d="M320.58182,179.44192c0.482,-0.21085 0.72298,0.21085 0.72298,0.21085l0.13606,0.29821c0.07542,0.53441 0.08003,1.05458 0.12756,1.58993c0,0 0.04132,0.4701 -0.49596,0.50627c-0.53729,0.03615 -0.57863,-0.43394 -0.57863,-0.43394c-0.04533,-0.52042 -0.04736,-1.02669 -0.12243,-1.54529l-0.03061,0.00654c0,0 -0.24099,-0.42172 0.24099,-0.63257z"/><path d="M322.73554,179.28444c0.49532,-0.18573 0.70759,0.24765 0.70759,0.24765l0.16231,0.36924c0.09499,0.54999 0.09146,1.0457 0.04656,1.59998c0,0 -0.03839,0.47029 -0.57591,0.4367c-0.5375,-0.03359 -0.49911,-0.50389 -0.49911,-0.50389c0.04001,-0.48588 0.04962,-0.90806 -0.03677,-1.38942l-0.08769,-0.14117c0,0 -0.21228,-0.43338 0.28304,-0.61911z"/><path d="M324.31676,179.3115c0.38105,-0.3334 0.76208,0 0.76208,0l0.24138,0.26141c0.27093,0.57149 0.41082,1.01826 0.41645,1.63959c0,0 0,0.47149 -0.53888,0.47149c-0.53888,0 -0.53888,-0.47149 -0.53888,-0.47149c0.00586,-0.5009 -0.11336,-0.81687 -0.33355,-1.2769l-0.00862,0.04268c0,0 -0.38105,-0.3334 0,-0.66679z"/><path d="M326.16515,178.82217c0.482,-0.21085 0.72298,0.21085 0.72298,0.21085l0.03716,0.07936c0.36219,0.43698 0.72234,0.78513 1.00452,1.26951c0,0 0.24099,0.42172 -0.24099,0.63257c-0.482,0.21085 -0.72298,-0.21085 -0.72298,-0.21085c-0.24241,-0.43502 -0.58596,-0.74515 -0.91215,-1.1366l-0.1295,-0.21229c0,0 -0.24099,-0.42172 0.24099,-0.63257z"/><path d="M327.19176,178.32719c0.38105,-0.3334 0.76208,0 0.76208,0l0.11659,0.11789c0.46059,0.25725 0.89364,0.44271 1.40413,0.61392c0,0 0.50297,0.16925 0.30951,0.60932c-0.19344,0.44007 -0.69641,0.27081 -0.69641,0.27081c-0.57488,-0.19405 -1.07569,-0.40967 -1.59586,-0.69849l-0.30007,-0.24667c0,0 -0.38105,-0.3334 0,-0.66679z"/><path d="M327.61726,177.63981c0,-0.47149 0.53888,-0.47149 0.53888,-0.47149l0.49765,0.0737c0.51741,0.28931 0.94069,0.6129 1.49335,0.85101c0,0 0.482,0.21085 0.24099,0.63257c-0.24099,0.42172 -0.72298,0.21085 -0.72298,0.21085c-0.58766,-0.26032 -1.03857,-0.59333 -1.58998,-0.89887l0.08098,0.0737c0,0 -0.53888,0 -0.53888,-0.47149z"/><path d="M312.19505,177.09297c0,0.41043 -0.40832,0.46359 -0.51409,0.47048c-0.52343,0.10569 -1.04685,0.21136 -1.57028,0.31705c0,0 -0.52509,0.10601 -0.64625,-0.35339c-0.12116,-0.45942 0.4039,-0.56543 0.4039,-0.56543c0.54166,-0.10937 1.08332,-0.21874 1.62501,-0.3281l0.16285,-0.01207c0,0 0.53888,0 0.53888,0.47149z"/><path d="M328.08938,175.15744c-0.12116,-0.45942 0.4039,-0.56543 0.4039,-0.56543l0.54166,-0.10937c0,0 0.52509,-0.10601 0.64625,0.35339c0.12116,0.45942 -0.4039,0.56543 -0.4039,0.56543l-0.50901,0.10277l0.17132,0.00794c0.41121,0.11512 0.80649,0.28804 1.15846,0.5068c0,0 0.4358,0.27731 0.11886,0.65864c-0.31695,0.38131 -0.75277,0.10399 -0.75277,0.10399c-0.25077,-0.16478 -0.54039,-0.29148 -0.84152,-0.36814l-0.13319,0.02086c0,0 -0.53888,0 -0.53888,-0.47149c0,-0.36456 0.32219,-0.44724 0.46831,-0.46599c-0.13511,-0.03804 -0.27427,-0.12996 -0.32951,-0.33938z"/><path d="M312.17981,175.9185c-0.24099,0.42172 -0.72298,0.21085 -0.72298,0.21085l-0.13017,-0.07167c-0.18055,-0.03646 -0.36111,-0.07291 -0.54166,-0.10937c0,0 -0.52509,-0.10601 -0.4039,-0.56543c0.12116,-0.45942 0.64625,-0.35339 0.64625,-0.35339c0.18055,0.03646 0.36111,0.07291 0.54166,0.10937l0.36982,0.14707c0,0 0.482,0.21085 0.24099,0.63257z"/></g><path d="M327.59488,144.94912l-0.00001,-0.00798c0.00001,0.00266 0.00001,0.00533 0.00001,0.00798z" fill="#99ff66" stroke="none" stroke-width="0.5"/><path d="M340.00869,159.93868c-5.06263,3.14924 -15.8571,7.90856 -20.00469,7.90856c-4.63016,0 -14.26269,-2.66067 -19.75253,-7.89787c-3.65727,-3.48895 -5.43574,-6.34278 -3.0228,-11.1309c1.75303,-3.4786 4.77623,-4.4478 9.06168,-2.77161c5.50149,2.15183 9.9211,4.12385 13.90401,4.12385c3.8423,0 8.26123,-2.08406 13.49849,-3.88992c4.6929,-1.61815 9.18455,0.76835 9.76178,3.16654c0.59602,2.47628 1.27567,7.55425 -3.44594,10.49133z" fill="url(#color-1)" stroke="#000000" stroke-width="0"/><path d="M311.93518,176.68173c0,-9.51869 -2.3794,-28.60972 -0.09518,-36.54757c0.94915,-3.29837 3.74317,-6.85106 8.24853,-6.94624c4.52644,-0.09562 6.67875,3.41456 7.90519,7.23178c2.54734,7.92847 0.09516,26.65326 0.09516,36.35721c0,2.96225 -5.29706,3.13027 -8.00037,3.13027c-2.71296,0 -8.15333,-0.14891 -8.15333,-3.22545z" fill="url(#color-2)" stroke="#000000" stroke-width="0"/></g></g></svg>