<svg version="1.1" xmlns="http://www.w3.org/2000/svg" xmlns:xlink="http://www.w3.org/1999/xlink" width="506.70359" height="194.88319" viewBox="0,0,506.70359,194.88319"><g transform="translate(-66.6482,-81.9334)"><g stroke-miterlimit="10"><path d="M84.77655,105.86936c0.08231,0.20361 0.13178,0.44839 0.13178,0.74263c0,1.75 -1.75,1.75 -1.75,1.75c-9.89788,-0.89502 -10.91334,31.0556 -5.31374,37.61534c21.16178,11.99094 18.2066,-17.52823 18.2066,-31.5082c0.06761,-3.87967 -2.70499,-4.91247 -5.43091,-7.21808c-0.51714,-0.4374 -0.72536,-1.25088 -1.34593,-1.52227c-1.21411,-0.53097 -2.64803,0.13321 -3.97316,0.13321c-0.17616,0 -0.35099,0.00256 -0.52464,0.00737zM77.44737,107.26322c-0.11105,0.01775 -0.23097,0.02734 -0.36047,0.02734c-1.75,0 -1.75,-1.75 -1.75,-1.75l1.75,-2.46429c3.92578,0.05893 9.58488,-2.1756 13.52684,-0.58107c0.93482,0.37814 1.43658,1.42108 2.2255,2.04915c3.72916,2.96885 6.64639,4.78856 6.71195,9.92477c0,16.93352 1.65515,48.94744 -23.93626,34.20609c-6.49311,-7.55333 -7.13865,-33.36963 1.83245,-41.41199z" fill="#000000" stroke="none" stroke-width="0.5"/><path d="M80.3369,116.61198c0,-0.9665 0.7835,-1.75 1.75,-1.75c0.9665,0 1.75,0.7835 1.75,1.75c0,0.9665 -0.7835,1.75 -1.75,1.75c-0.9665,0 -1.75,-0.7835 -1.75,-1.75z" fill="#000000" stroke="none" stroke-width="0.5"/><path d="M90.3369,116.96913c0,-0.9665 0.7835,-1.75 1.75,-1.75c0.9665,0 1.75,0.7835 1.75,1.75c0,0.9665 -0.7835,1.75 -1.75,1.75c-0.9665,0 -1.75,-0.7835 -1.75,-1.75z" fill="#000000" stroke="none" stroke-width="0.5"/><path d="M107.08039,145.33908h0.45346c0.61289,0 1.20002,-0.11027 1.74264,-0.31206c-0.19979,0.53749 -0.43516,1.0607 -0.71296,1.55914c-0.31558,0.56623 -1.01492,0.39833 -1.7663,0.19185c-0.14027,-0.2272 -0.2803,-0.45805 -0.4233,-0.69259c0.25414,-0.21017 0.49386,-0.45683 0.70646,-0.74634z" fill="#000000" stroke="none" stroke-width="0.5"/><path d="M99.80738,137.25793c0.43303,-0.86606 1.10565,-1.01332 1.62016,-0.97208c-0.62114,0.55447 -1.21029,1.30118 -1.83927,1.8085c0.00145,-0.24823 0.06442,-0.52704 0.21911,-0.83642z" fill="#000000" stroke="none" stroke-width="0.5"/><path d="M146.76547,129.82627c0,-0.9665 0.7835,-1.75 1.75,-1.75c0.84536,0 1.55073,0.59941 1.71426,1.39641c-0.05419,-0.63176 -0.12846,-1.25467 -0.22737,-1.86608c-0.4705,-2.9083 -2.50401,-5.57058 -3.79603,-8.13139l-0.74426,-1.85614c0,0 -0.64993,-1.62483 0.9749,-2.27477c1.62483,-0.64993 2.27477,0.9749 2.27477,0.9749l0.68431,1.71529c1.45145,2.86598 3.52268,5.75942 4.06111,9.01147c1.01075,6.10473 0.12336,13.33486 0.0226,19.56604c-0.02125,1.31402 -0.73716,2.5238 -1.16123,3.76769c-0.22173,0.65037 0.29856,1.51104 -0.11727,2.05806c-2.61107,3.43487 -5.37682,2.50246 -8.59342,1.16716c-13.07395,-4.50808 -12.41341,-41.83051 1.69334,-42.31433c0,0 1.75,0 1.75,1.75c0,1.75 -1.75,1.75 -1.75,1.75c-8.88095,-0.46492 -10.72662,32.26133 -0.44951,35.54281c0.52859,0.23537 2.17083,1.29407 3.15668,1.03228c0.74583,-0.19805 0.75171,-1.35874 0.98978,-2.09278c0.18364,-0.5662 0.86541,-0.87012 1.07143,-1.42857c0.5131,-1.39087 -0.0898,-2.96409 -0.0898,-4.4466c0,-4.30929 0.59696,-9.09763 0.28394,-13.4919c-0.04157,0.92959 -0.80838,1.67047 -1.74823,1.67047c-0.9665,0 -1.75,-0.7835 -1.75,-1.75z" fill="#000000" stroke="none" stroke-width="0.5"/><path d="M142.12262,131.25484c0,-0.9665 0.7835,-1.75 1.75,-1.75c0.9665,0 1.75,0.7835 1.75,1.75c0,0.9665 -0.7835,1.75 -1.75,1.75c-0.9665,0 -1.75,-0.7835 -1.75,-1.75z" fill="#000000" stroke="none" stroke-width="0.5"/><path d="" fill="#000000" stroke="none" stroke-width="0.5"/><path d="M126.56785,112.82627c0,8.87601 -4.15736,16.07143 -9.28572,16.07143c-5.12836,0 -9.28571,-7.19542 -9.28571,-16.07143c0,-8.876 4.15735,-16.07143 9.28571,-16.07143c5.12836,0 9.28572,7.19543 9.28572,16.07143z" fill="none" stroke="#000000" stroke-width="2.5"/><path d="M171.56785,94.79055c0,6.41045 -2.71828,11.60714 -6.07143,11.60714c-3.35315,0 -6.07143,-5.19669 -6.07143,-11.60714c0,-6.41045 2.71827,-11.60715 6.07143,-11.60715c3.35315,0 6.07143,5.1967 6.07143,11.60715z" fill="none" stroke="#000000" stroke-width="2.5"/><path d="M126.03213,106.75484c0,1.25 -1.25,1.25 -1.25,1.25h-0.71428c-1.06473,-0.02376 -3.52313,0.18006 -4.41018,0.56638c-0.39353,0.17139 -0.3223,0.89653 -0.71428,1.07143c-0.71555,0.31928 -2.83312,0.04559 -3.65138,0.13854c-2.33652,0.26542 -4.55454,0.36651 -6.93844,0.36651c0,0 -1.25,0 -1.25,-1.25c0,-1.25 1.25,-1.25 1.25,-1.25c2.28926,0 4.39483,-0.10415 6.63299,-0.34778c0.92144,-0.1003 1.98052,0.61229 2.77719,0.13854c0.36893,-0.21939 0.31898,-0.90416 0.71429,-1.07143c1.2931,-0.54716 4.16251,-0.83917 5.58983,-0.86219h0.71428c0,0 1.25,0 1.25,1.25z" fill="#000000" stroke="none" stroke-width="0.5"/><path d="M127.72844,115.93346c0.46424,1.1606 -0.69636,1.62484 -0.69636,1.62484l-2.01357,0.78113c-1.7867,0 -3.07284,0.72504 -4.87924,0.73684c-3.83177,0.02505 -7.35628,-0.71429 -11.07143,-0.71429c0,0 -1.25,0 -1.25,-1.25c0,-1.25 1.25,-1.25 1.25,-1.25c1.94237,0 3.02959,0.30719 4.87924,0.73684c3.51933,0.8175 7.23667,-0.71428 10.59866,-0.71428l1.55786,-0.64744c0,0 1.1606,-0.46424 1.62484,0.69636z" fill="#000000" stroke="none" stroke-width="0.5"/><path d="M177.32874,99.05296c0.55901,1.11803 -0.55901,1.67706 -0.55901,1.67706l-1.7004,0.81281c-2.32226,0 -4.64603,1.47436 -7.04943,0.70237c-3.21735,-1.03345 -6.1853,-3.35467 -8.93114,-5.16458c0,0 -1.04006,-0.69338 -0.34668,-1.73344c0.69338,-1.04006 1.73343,-0.34669 1.73343,-0.34669c2.55841,1.72158 5.23887,3.79183 8.21172,4.83542c1.82962,0.64227 3.96898,-0.7262 5.80772,-0.7262l1.15675,-0.61576c0,0 1.11803,-0.55902 1.67705,0.55901z" fill="#000000" stroke="none" stroke-width="0.5"/><path d="M244.52222,120.32289c0,-0.69036 0.55964,-1.25 1.25,-1.25c0.69036,0 1.25,0.55964 1.25,1.25c0,0.69036 -0.55964,1.25 -1.25,1.25c-0.69036,0 -1.25,-0.55964 -1.25,-1.25z" fill="#000000" stroke="none" stroke-width="0.5"/><path d="M250.23651,119.96574c0,-0.69036 0.55964,-1.25 1.25,-1.25c0.69036,0 1.25,0.55964 1.25,1.25c0,0.69036 -0.55964,1.25 -1.25,1.25c-0.69036,0 -1.25,-0.55964 -1.25,-1.25z" fill="#000000" stroke="none" stroke-width="0.5"/><path d="M267.27075,108.6823c-0.70016,-0.16947 -1.5414,0.22304 -2.15569,-0.15324c-1.2844,-0.78677 -2.99422,-4.34645 -3.08675,-5.583c-3.04204,-15.21021 9.59389,-12.80175 20.52963,-12.80175c0,0 1.25,0 1.25,1.25c0,0.91386 -0.66812,1.15961 -1.02745,1.2257c-0.14298,0.1473 -0.31524,0.23772 -0.47284,0.29323c-0.37495,3.49418 -2.11332,7.04989 -3.1962,10.27188c-0.29252,0.87035 -1.47813,1.18771 -1.87999,2.01331c-0.15791,0.32441 0.20137,0.72243 0.12535,1.07513c-0.35952,1.66795 -1.73033,2.91016 -2.17394,4.41156c-0.1676,0.56725 0.20385,1.30178 -0.16128,1.76712c-0.39574,0.50437 -1.36409,0.23135 -1.78571,0.71428c-0.63142,0.72323 0.4222,1.95178 0.16129,2.87573c-0.13656,0.48357 -0.3735,0.98694 -0.67378,1.46872c0.38641,-0.02925 0.82323,0.02952 1.26313,0.13334h1.42858c0.69035,0 1.25,0.55964 1.25,1.25c0,0.4547 -0.24278,0.8527 -0.60579,1.07143c0.36301,0.21873 0.60579,0.61673 0.60579,1.07143c0,0.69036 -0.55965,1.25 -1.25,1.25h-1.42857v0c-0.05561,0 -0.12136,0.00144 -0.19599,0.0038c-0.05498,0.34692 -0.28343,1.06762 -1.23257,1.06762c-0.94877,0 -1.17741,-0.72013 -1.23251,-1.06722c-0.53175,-0.04377 -1.05927,-0.13098 -1.50474,-0.29346c-0.64965,1.78867 -1.28827,3.60408 -1.88902,5.44507c2.61776,3.61439 4.30115,7.43938 1.48086,13.74911c-0.93507,2.09199 -2.94948,4.2671 -5.22587,5.22086c-0.01427,0.46879 -0.02157,0.93877 -0.02157,1.40993c0,0 0,1.25 -1.25,1.25c-1.25,0 -1.25,-1.25 -1.25,-1.25c0,-0.24697 0.00186,-0.49388 0.00555,-0.74069c-13.80779,5.89169 -23.57059,13.55584 -23.1864,-10.26078c2.70518,-5.41037 1.74921,-21.84606 7.6965,-26.29991c0.26729,-0.72984 0.57572,-1.45916 1.1544,-2.0973c1.69839,-1.87286 9.07716,-1.94751 10.78552,-0.01913c0.81916,0.92466 0.44956,2.45258 0.94929,3.58231c0.20432,0.46191 0.87694,0.6053 1.07142,1.07143c0.59914,1.436 0.63923,3.05956 1.41403,4.60914c1.04028,2.88444 2.80172,5.1711 4.51493,7.35016c0.63923,-1.82266 1.32052,-3.61134 2.02435,-5.35869c-0.00068,-0.01686 -0.00101,-0.0338 -0.00101,-0.05083c0,-0.35778 0.15031,-0.68044 0.39122,-0.9083c0.08151,-0.19842 0.16327,-0.39629 0.24526,-0.59358c0.92254,-0.62945 1.94777,-1.66784 2.2743,-2.78893c0.33152,-1.1382 -0.46706,-2.54756 0.16128,-3.55284c0.33979,-0.54363 1.35676,-0.23784 1.78571,-0.71428c0.24576,-0.27296 -0.2588,-0.7359 -0.16129,-1.09001c0.05079,-0.18446 0.11742,-0.36462 0.19572,-0.54178c-2.01977,-0.04736 -3.7133,-0.25205 -5.71511,-0.73657zM264.51614,102.69971c-0.07558,0.51262 0.34327,1.01749 0.7114,1.38215c0.61888,0.61304 0.42023,1.93599 1.20185,2.32057c0.42591,0.20955 0.95004,-0.24511 1.41574,-0.15325c2.14923,0.42394 3.80897,0.68085 6.14138,0.68085h0.47574c0.19113,-0.35952 0.34896,-0.73237 0.43968,-1.12924c0.13269,-0.5805 -0.14396,-1.25092 0.12535,-1.78201c0.3467,-0.68369 1.54102,-0.80645 1.69144,-1.55812c0.67562,-3.37607 2.87366,-6.44911 3.13639,-9.88432c-8.93898,-0.39739 -17.76462,-2.00488 -15.33897,10.12337zM266.77659,133.81671c0.62532,0.08147 1.14567,0.21788 1.56018,0.44361c-0.10897,-1.51433 -0.57138,-2.86612 -1.24412,-4.13851c-0.30045,1.0043 -0.58618,2.01584 -0.85299,3.03443c0.23126,0.13975 0.39729,0.37624 0.53693,0.66047zM259.27478,118.6921c-0.74087,-1.48174 -0.87287,-3.38741 -1.44312,-4.67657c-0.20432,-0.46191 -0.87694,-0.6053 -1.07143,-1.07143c-0.43024,-1.03118 0.47966,-2.95275 -1.2752,-3.19037c-0.87665,-0.1187 -4.18863,-0.41497 -5.64555,-0.01979c0.22044,0.18302 0.39702,0.47626 0.39702,0.94609c0,1.25 -1.25,1.25 -1.25,1.25c-0.35872,-0.10593 -0.602,-0.02885 -0.78244,0.16081c-0.17898,0.45478 -0.34761,0.90302 -0.55285,1.33354c-0.13752,0.464 -0.29738,0.94332 -0.58475,1.29719c-5.05797,6.22835 -2.54462,15.46525 -6.14911,22.67422c0.48489,21.72974 7.738,12.24371 20.68514,7.05772c0.05808,0.00349 0.11631,0.00521 0.17467,0.00521c0.11839,-1.80172 0.32746,-3.59595 0.61226,-5.37703c-0.00657,-0.05911 -0.01005,-0.12151 -0.01005,-0.18739c0,-0.26923 0.05798,-0.48047 0.14898,-0.64621c0.14358,-0.82811 0.30311,-1.65317 0.47705,-2.47462c-0.05713,-0.61973 -0.02909,-1.24981 0.36123,-1.61477c0.54264,-2.30438 1.19227,-4.57693 1.91485,-6.80475c-2.01781,-2.66685 -4.54359,-5.24998 -6.0067,-8.66187zM266.55356,141.20979c-0.57052,-0.24711 -1.23309,-0.57178 -1.82151,-0.79758c-0.1512,1.02115 -0.27527,2.04857 -0.36839,3.08206c0.86088,-0.61252 1.63263,-1.44558 2.18991,-2.28447zM266.68923,137.88709c0.17376,0.14451 0.34382,0.22888 0.49793,0.2129c-0.12687,-0.12583 -0.30783,-0.17593 -0.49793,-0.2129z" fill="#000000" stroke="none" stroke-width="0.5"/><path d="M302.54982,99.19434c-0.35352,0.97415 -0.14735,1.67468 0.39083,2.05506c0.45362,0.01922 0.85761,0.12553 1.17955,0.32971c0.07299,0.00055 0.14752,-0.00151 0.22345,-0.00622c0,0 1.15489,0 1.60714,0c0,-1.00276 0,-2.00553 0,-3.00829c-1.51915,0.19906 -3.35035,0.49023 -3.40098,0.62974zM309.34365,100.8586c0.05202,0 0.27589,-0.00105 0.58836,-0.00162c0.99596,-0.39605 2.06888,-0.52765 3.17061,-0.34655c0.39828,0.06547 -0.73126,-0.34252 -1.1037,-0.49809c-0.83613,-0.34922 -1.74937,-0.60253 -2.65527,-0.58232h-0.71429c0,0 -0.07074,0 -0.17857,-0.01683c0,0.4818 0,0.96361 0,1.4454zM304.34365,104.07289c-0.49623,-0.01746 -0.99895,-0.11747 -1.48068,-0.28745c-2.62176,0.43635 -4.83205,1.2139 -3.52743,4.80886c0.29428,0.81092 3.32753,0.76505 6.61526,0.34597c0,-1.62246 0,-3.24492 0,-4.86738zM314.61738,106.51553c-0.56368,-0.52155 -1.92409,-3.12861 -2.42167,-3.21056c-0.93822,-0.15453 -1.9012,0.05364 -2.85205,0.05364h-0.89286c0,1.73349 0,3.46697 0,5.20046c3.33816,-0.59099 6.28464,-1.44558 6.16658,-2.04353zM309.15599,96.93003h0.18767c2.52022,0.04065 8.03835,1.26108 5.52674,5.34817c-0.02619,0.04262 -0.05576,0.07996 -0.08835,0.11264c0.75406,1.01131 1.3074,2.2768 2.14502,3.16798c-0.09092,2.2509 -3.85884,4.52434 -8.12437,5.71668c0.05081,0.37508 -0.02138,0.90466 -0.68575,1.23685c-1.11803,0.55901 -1.67705,-0.55901 -1.67705,-0.55901l-0.0505,-0.13148c-3.91345,0.67764 -7.7503,0.30951 -9.18049,-1.91323c-2.27459,-3.53505 0.34241,-6.74022 3.1242,-8.04431c-0.7145,-1.09991 -0.85967,-2.50826 0.09008,-3.98431c0.74633,-1.15991 3.43574,-1.68455 5.51318,-1.8968c0.01102,-0.55531 0.04389,-1.09757 0.12341,-1.63932c-0.87914,-1.21387 -1.54503,-2.40927 -2.39906,-3.68478l-0.5581,-0.52378c0,0 -0.88388,-0.88388 0,-1.76777c0.88388,-0.88388 1.76777,0 1.76777,0l0.87046,0.90479c0.50383,0.75864 0.93773,1.48945 1.39481,2.21072c0.27664,-0.24251 0.72278,-0.4432 1.33843,-0.13538c0.3153,0.15766 0.49723,0.35977 0.59592,0.56873c1.66594,-0.1438 3.77519,-1.29803 4.59071,-2.64407l2.11149,-0.55662c0,0 1.25,0 1.25,1.25c0,1.25 -1.25,1.25 -1.25,1.25l-0.03136,-0.55662c-1.50881,2.14035 -4.29385,3.6448 -6.91748,3.76459c-0.02604,0.23703 -0.13594,0.49213 -0.40076,0.73249c-0.02437,0.26223 -0.03529,0.52626 -0.03784,0.79265c0.32413,0.11563 0.70775,0.37942 0.77121,0.98119z" fill="#000000" stroke="none" stroke-width="0.5"/><path d="M291.28679,143.32384c0,-0.25388 0.20581,-0.45969 0.45969,-0.45969c0.25388,0 0.45969,0.20581 0.45969,0.45969c0,0.25388 -0.20581,0.45969 -0.45969,0.45969c-0.25388,0 -0.45969,-0.20581 -0.45969,-0.45969z" fill="#000000" stroke="none" stroke-width="0.5"/><path d="M294.7016,143.06116c0,-0.25388 0.20581,-0.45969 0.45969,-0.45969c0.25388,0 0.45969,0.20581 0.45969,0.45969c0,0.25388 -0.20581,0.45969 -0.45969,0.45969c-0.25388,0 -0.45969,-0.20581 -0.45969,-0.45969z" fill="#000000" stroke="none" stroke-width="0.5"/><path d="M298.98165,138.85063l-0.32016,-0.51579c0.02481,-0.62659 0.28036,-1.47359 0.79436,-1.92425c0.35142,-0.30811 1.0725,-0.24357 1.48434,-0.24471c1.19955,-0.00334 2.31969,-0.05017 3.41668,0.2824c0.20279,0.06148 0.46006,-0.07235 0.63382,0.04893c0.7529,0.52553 0.71094,1.35904 0.43216,2.04134c0,0 -0.01156,0.02312 -0.03468,0.05566c0.00968,0.01523 0.01929,0.03096 0.02882,0.04721c0.07039,0.11997 0.05439,1.23589 0.05439,1.39896c0,0.55601 0.11137,1.25316 -0.00829,1.79433c-0.16563,0.74902 -0.53407,0.98963 -0.51706,1.75182v0.52535c0,0 0,0.45969 -0.45969,0.45969c-0.45969,0 -0.45969,-0.45969 -0.45969,-0.45969v-0.52535c0.01354,-0.83921 0.36154,-1.15645 0.53365,-1.92567c0.13269,-0.59305 0.15997,-1.99876 0.0461,-2.58562c-0.03267,-0.16835 -0.34262,-0.02312 -0.51408,-0.0199c-0.61214,0.01151 -1.22649,0 -1.83874,0c-0.39402,0 -0.78803,0 -1.18205,0c-0.17512,0 -0.35236,0.02718 -0.52535,0c-0.11787,-0.01852 -0.26378,-0.23277 -0.33165,-0.13464c-0.08609,0.12448 0.14418,0.28749 0.12234,0.43726c-0.02824,0.19374 -0.17512,0.35024 -0.26268,0.52535c0.02227,0.99783 -0.9379,3.59818 -0.75757,4.75119c0.39427,-0.12112 0.91402,-0.15628 1.43141,-0.15454c0.2246,-0.02858 0.46338,-0.03875 0.71751,-0.03975c0.54398,0 1.36815,-0.13801 1.86892,0.23507c0.56167,-0.05985 1.00156,-0.10373 1.15187,-0.10373c0,0 0.45969,0 0.45969,0.45969c0,0.45969 -0.45969,0.45969 -0.45969,0.45969c-0.1644,0 -0.4003,0.02262 -0.68395,0.05772c0.12609,1.75073 -5.15381,1.56473 -5.17156,-0.14983c-0.19322,-0.39514 -0.21069,-0.99651 -0.14382,-1.67131c-0.03327,0.1154 -0.07177,0.22887 -0.11623,0.34002c0.05407,3.16339 -3.40849,17.7823 -6.77926,7.72273c-1.03079,-1.77951 -2.18834,-7.08448 -1.11631,-9.129c0.39967,-0.76224 1.48156,-1.53641 1.61334,-2.33837c0,0 0.04491,-0.17962 0.19171,-0.28237c-0.18214,-0.23995 0.00311,-0.51782 0.00311,-0.51782l0.42825,-0.54432c1.44427,-0.08748 3.05059,-0.79133 4.52537,-0.43611c0.47812,0.11516 1.1707,0.62728 1.36979,1.05951c0.11622,0.2523 0.02945,0.55488 0.03499,0.83261c0.0132,0.6608 0.06471,1.3669 0.03205,2.05377c0.21054,-1.12016 0.49613,-2.22891 0.5056,-2.81608c0.08994,-0.17988 0.10998,-0.39555 0.12821,-0.6097c-0.2031,-0.02743 -0.32598,-0.21175 -0.32598,-0.21175zM304.60054,138.12738c0.14365,-0.19454 0.21614,-0.66137 -0.09319,-0.84812c-0.11978,-0.07231 -0.2816,0.08459 -0.41689,0.04893c-1.00776,-0.26564 -2.03571,-0.23954 -3.15026,-0.24295c-0.29331,-0.0009 -0.69878,-0.21286 -0.87976,0.01796c-0.04075,0.05197 -0.52787,0.92048 -0.51902,0.96521l0.11575,0.15357c0.30582,-0.10456 1.11875,-0.08603 1.41437,-0.08603c1.00653,0 2.01439,-0.01509 3.02079,0c0.17792,0.00267 0.34555,-0.00578 0.50279,0.00335c0.00334,-0.00773 0.00543,-0.01192 0.00543,-0.01192zM301.96549,145.79762c-0.15813,0.01977 -0.31721,0.03855 -0.4755,0.05561c0.16617,-0.01125 0.32796,-0.03072 0.4755,-0.05561zM292.91829,140.16283c0.11578,0.16865 0.06218,0.38304 0.06218,0.38304c-0.29183,0.98268 -1.12555,1.59382 -1.66522,2.489c-0.98378,1.63183 0.23988,6.97734 1.11154,8.37123c2.73357,8.24503 5.01478,-5.49247 5.04124,-7.51257c0.17101,-0.42752 0.25718,-0.89728 0.25437,-1.35773c-0.00415,-0.67942 0.27529,-2.00085 0.03499,-2.5822c-0.20801,-0.50323 -0.8732,-0.50682 -1.28271,-0.50426c-1.11262,0.00697 -2.26202,0.44035 -3.32924,0.33962l-0.0971,0.24371c0,0 -0.04667,0.07001 -0.13004,0.13016z" fill="#000000" stroke="none" stroke-width="0.5"/><path d="M501.79077,104.49661c0.10434,-0.03372 0.2079,-0.06833 0.31063,-0.10384c0,0 0.80784,-0.26928 1.07712,0.53856c0.26928,0.80784 -0.53856,1.07712 -0.53856,1.07712c-8.2822,2.6813 -20.66267,0.22297 -29.40085,0.22297c-8.52146,-0.01701 -20.62661,7.79631 -15.23917,-8.47093c4.63214,-13.88175 8.60123,-3.65798 12.51246,-3.80755c1.46416,-0.05599 5.31717,-5.17113 6.39144,-6.3713c4.23935,-0.28161 11.11661,4.51983 12.99453,3.90793c3.6488,-1.18892 3.84081,-7.23421 9.21023,-3.82781c1.16174,0.93598 2.10474,1.79215 3.24831,2.70526c0.57864,0.46203 1.42191,0.45633 2.05904,0.83363c0.92688,0.54888 2.19456,2.72337 2.37632,3.79976c0.14718,0.87157 -0.19518,1.75847 -0.35417,2.62796c-0.23568,1.28895 -0.09792,2.9205 -0.84872,4.10005c-1.02949,1.61741 -2.74261,1.53552 -3.79862,2.7682zM499.92204,104.99245c-0.01633,-0.08936 -0.01633,-0.15038 -0.01633,-0.15038l0.12135,-0.79665c0.45202,-0.74398 0.81174,-1.53986 1.65921,-1.96204c0.77632,-0.38674 1.86236,-0.31923 2.4853,-1.29848c0.61135,-0.96103 1.13673,-4.30647 0.94837,-5.46243c-0.38561,-2.36641 -2.26576,-2.43836 -3.81111,-3.61308c-1.13427,-0.86224 -2.06745,-1.77052 -3.20546,-2.67287c-3.79536,-2.72909 -4.91498,3.14164 -7.64126,4.06012c-3.09506,1.04273 -9.25711,-3.41224 -12.82051,-3.98001c-1.23924,1.87228 -5.02741,6.37205 -7.23318,6.53622c-2.31594,0.17237 -3.05986,-3.05498 -5.22228,-3.22864c-3.29502,-0.26461 -4.7422,3.38718 -5.5705,5.87485c-4.75604,14.16801 5.68295,6.24376 13.62349,6.2293c7.6381,0 18.80758,2.14966 26.68291,0.4641z" fill="#000000" stroke="none" stroke-width="0.5"/><path d="M475.54433,126.06038c-0.60213,0.60213 -1.20426,0 -1.20426,0l-0.6442,-0.66759c-2.1333,-3.22305 -1.93572,-7.43226 -1.93572,-11.22862c0,0 0,-0.85154 0.85154,-0.85154c0.85154,0 0.85154,0.85154 0.85154,0.85154c0,3.40696 -0.28466,7.40615 1.6497,10.28392l0.43142,0.40803c0,0 0.60213,0.60213 0,1.20426z" fill="#000000" stroke="none" stroke-width="0.5"/><path d="M484.32861,126.77747c-0.60213,0.60213 -1.20425,0 -1.20425,0l-0.83932,-0.87153c-0.81331,-2.35212 -0.91156,-4.86107 -1.69154,-7.15435c-0.47356,-1.39236 -0.98493,-2.3824 -1.28744,-3.8826c0,0 -0.167,-0.83501 0.668,-1.00201c0.835,-0.167 1.002,0.66801 1.002,0.66801c0.28807,1.45329 0.7795,2.29536 1.22236,3.64679c0.72078,2.19955 0.82251,4.57979 1.53534,6.82881l0.59485,0.56264c0,0 0.60213,0.60212 0,1.20425z" fill="#000000" stroke="none" stroke-width="0.5"/><path d="M489.30617,133.39074c-0.76164,0.38082 -1.14246,-0.38082 -1.14246,-0.38082l-0.44757,-1.05947c-0.14121,-3.24797 -0.35941,-6.44243 -0.35941,-9.71908c0,0 0,-0.85153 0.85154,-0.85153c0.85154,0 0.85154,0.85153 0.85154,0.85153c0,3.25375 0.20697,6.41688 0.35768,9.64221l0.26951,0.3747c0,0 0.38082,0.76164 -0.38082,1.14246z" fill="#000000" stroke="none" stroke-width="0.5"/><path d="M478.93098,136.75235c0,-0.61694 0.44698,-0.78691 0.69326,-0.83373c0.72539,-2.3007 3.7396,-4.36364 5.24079,-6.16517c0,0 0.54514,-0.65417 1.19931,-0.10903c0.65417,0.54514 0.10903,1.19931 0.10903,1.19931c-1.16748,1.40088 -2.38858,2.63902 -3.6148,3.9774c-0.64292,0.70173 -1.49377,0.98884 -1.38669,1.93122l-1.38936,0.85154c0,0 -0.85154,0 -0.85154,-0.85154z" fill="#000000" stroke="none" stroke-width="0.5"/><path d="M475.48001,151.22848c-0.85154,0 -0.85154,-0.85153 -0.85154,-0.85153c0,-1.37441 0,-3.10737 0,-4.48178c0,-0.29573 0.10271,-0.48877 0.23678,-0.61476c0.09143,-0.09731 0.21818,-0.17808 0.39387,-0.21507c0.34124,-0.72944 0.82686,-1.47699 1.0272,-2.13066c0.3693,-1.20494 0.0918,-3.054 0.32787,-4.36269c0,0 0.15232,-0.8378 0.99013,-0.68547c0.83781,0.15233 0.68547,0.99013 0.68547,0.99013c-0.26347,1.43688 0.01087,3.23785 -0.38922,4.60088c-0.24107,0.82128 -0.96158,1.80814 -1.25419,2.68693l-0.31484,0.15717c0,1.23226 0,2.46453 0,3.69679v0.35854c0,0 0,0.85153 -0.85154,0.85153z" fill="#000000" stroke="none" stroke-width="0.5"/><path d="M485.83292,160.77468c0,0.85154 -0.85154,0.85154 -0.85154,0.85154l-0.12461,-0.03277c-1.40925,0.3649 -3.51667,1.72574 -3.69649,3.26519c0,0 -0.08363,0.50182 -0.50948,0.66506l-0.05423,0.16269c-0.10701,0.34796 -0.43099,0.60088 -0.81405,0.60088c-0.47029,0 -0.85154,-0.38125 -0.85154,-0.85154v-1.07562c0,-0.36213 -0.00174,-0.76293 0.01449,-1.17098c-0.78449,-0.66218 -2.31841,-1.48197 -2.90941,-1.57827c-0.52416,-0.08541 -1.02474,0.00503 -1.52693,0.11834c-0.0156,0.04619 -0.0355,0.09399 -0.0602,0.14339c-0.38082,0.76164 -1.14245,0.38082 -1.14245,0.38082l-0.04841,-0.28382c-0.09517,0.00878 -0.19107,0.01414 -0.28786,0.01517l0.24307,-0.27777l-0.24307,-1.4253c1.23237,0.01783 2.08444,-0.56328 3.38791,-0.34318c0.74144,0.1252 1.89859,0.64943 2.88184,1.37136c0.0967,-0.27481 0.22363,-0.52342 0.39021,-0.73082c0.01081,-0.15062 0.0171,-0.30248 0.01789,-0.45588v-0.96194c0,-0.47029 0.38125,-0.85153 0.85154,-0.85153c0.47029,0 0.85154,0.38124 0.85154,0.85153v1.07563c0.07643,0.28793 0.02663,0.57328 -0.08013,0.85645c-0.03279,0.23241 -0.07364,0.46261 -0.11872,0.6915c0.92471,-0.85277 2.10074,-1.48224 3.23662,-1.82891l0.59247,-0.03276c0,0 0.85154,0 0.85154,0.85154z" fill="#000000" stroke="none" stroke-width="0.5"/><path d="M562.88097,104.2563c-6.04533,1.06454 -12.47313,1.02783 -18.53047,1.02783c-2.63675,-0.00537 -11.84537,-0.05573 -8.81798,-5.19731c1.21249,-2.05925 3.49405,-3.61756 5.78861,-4.01979c2.44184,-0.42805 4.75617,1.90827 4.15704,0.09808c0.47057,-1.76461 0.37205,-3.61066 2.589,-4.20578c0.99189,-0.26627 17.49009,-2.03903 17.83021,-1.97565c0.81739,0.1523 2.24764,1.96139 2.75143,2.58693c1.31786,1.31579 3.24486,2.50489 4.22014,4.0758c1.0693,1.72235 0.25377,5.30305 -1.37962,6.55071c-0.32063,0.24491 -0.80908,0.03258 -1.20565,0.1068c-2.28395,0.42748 -4.2009,1.08386 -6.57187,1.08386h-0.35854c0,0 -0.24508,0 -0.47228,-0.13147zM567.76348,102.24854c0.29933,-0.07093 0.59773,-0.15163 0.8955,-0.24289c0.63596,-0.1949 1.45875,0.13725 1.97551,-0.28155c0.82844,-0.6714 1.35772,-3.31945 0.77162,-4.20556c-0.94338,-1.42628 -2.80123,-2.5852 -4.02633,-3.81213c-0.27195,-0.34242 -1.50771,-2.00561 -1.90962,-2.07412c-0.27193,-0.04636 -0.50296,0.22682 -0.75604,0.33657c-5.32558,2.30959 -10.79099,0.44517 -16.19236,1.63174c-1.28686,0.2827 -1.09542,1.81249 -1.35496,2.78579c-0.66462,4.16164 -4.15506,0.20998 -7.46702,1.64284c-3.24556,1.40413 -3.67952,5.11641 0.18816,5.19349c1.52069,0.03031 2.93454,0.36174 4.46256,0.35833c7.35246,0 15.29738,0.07818 22.35423,-1.93922c0,0 0.81877,-0.23393 1.05271,0.58484c0.00209,0.00734 0.00411,0.01462 0.00604,0.02187z" fill="#000000" stroke="none" stroke-width="0.5"/><path d="M545.56058,122.72767c0.18827,0.11637 0.35854,0.32688 0.35854,0.70766c0,0.85154 -0.85154,0.85154 -0.85154,0.85154l-1.21008,-0.85154c0,-3.58543 0,-7.17084 0,-10.75627c0,0 0,-0.85153 0.85154,-0.85153c0.85154,0 0.85154,0.85153 0.85154,0.85153c0,3.34954 0,6.69907 0,10.04861z" fill="#000000" stroke="none" stroke-width="0.5"/><path d="M553.57823,123.02926c0.05048,0.05524 0.10332,0.10943 0.15869,0.16249zM553.50163,122.9425c0.08782,0.00271 0.84324,0.04933 0.84324,0.85137c0,0.85154 -0.85154,0.85153 -0.85154,0.85153l-0.96067,-0.24941c-2.09674,-2.16306 -0.83492,-5.04903 -2.5889,-7.26205c0,0 -0.51092,-0.68123 0.17031,-1.19215c0.68123,-0.51093 1.19216,0.17031 1.19216,0.17031c1.50598,2.0842 0.63498,5.00107 2.1954,6.8304z" fill="#000000" stroke="none" stroke-width="0.5"/><path d="M556.89949,137.55294c-0.85154,0 -0.85154,-0.85154 -0.85154,-0.85154l0.06091,-0.67479c1.22981,-3.07451 1.36696,-5.84043 1.37304,-9.11224l-0.35832,-0.25215c0,-2.25869 -0.00265,-4.44351 -0.34864,-6.68282c0,0 -0.12948,-0.84164 0.71215,-0.97112c0.84163,-0.12948 0.97112,0.71215 0.97112,0.71215c0.31995,2.08817 0.36237,4.13051 0.36771,6.22328c0.04662,0.03108 0.08718,0.06618 0.12249,0.10375c0.13407,0.12599 0.23678,0.31902 0.23678,0.61476c0,3.59745 -0.15016,6.6346 -1.49507,9.9969l0.0609,0.04229c0,0 0,0.85154 -0.85154,0.85154z" fill="#000000" stroke="none" stroke-width="0.5"/><path d="M538.84292,148.25322c-0.221,0.22082 -0.62108,0.21325 -0.81975,0.45436c-0.25993,0.31545 -0.97449,3.26008 -0.46269,3.36658c0.61475,0.12792 1.21172,-0.34002 1.83159,-0.44021c0.98017,-0.15842 2.17073,0.26523 3.11768,0.02267c0.41091,-0.10525 0.78187,-0.32044 1.15753,-0.52473c0.37219,-0.69885 1.23984,-1.37502 2.88937,-2.01215c0.34143,-0.13188 -0.76532,0.17394 -1.09785,0.02101c-0.69188,-0.3182 -2.40992,-1.72801 -2.63322,-2.48942c-0.04649,-0.15853 -0.06315,-0.32336 -0.05403,-0.49146c-2.28885,0.02891 -2.23456,0.40069 -3.92863,2.09336zM542.96437,153.2979c-1.06864,0.26245 -2.26174,-0.16245 -3.33607,0.02266c-0.93814,0.16164 -1.8136,0.79337 -2.82945,0.27688c-1.71432,-0.87162 -1.05555,-3.23983 -0.61195,-4.59873c0.2556,-0.78297 0.8986,-1.39542 1.48076,-1.97805c0.64096,-0.64149 0.98396,-1.60016 1.7534,-2.08006c1.10399,-0.68856 2.45512,-0.48572 3.67456,-0.48572h0.35854c0,0 0.05168,0 0.12957,0.01273c0.69827,-0.79767 1.714,-1.41676 2.50708,-1.45567c-0.66292,-1.71592 -0.97365,-3.28696 -0.96303,-5.21667c3.47144,-7.29479 9.27415,5.09742 10.80802,7.31928c0.29109,0.42166 1.46959,0.43587 1.66066,0.26566c0.40159,-0.35776 -0.03862,-0.70352 -0.67449,-1.03757l-0.11248,0.33745l-1.057,-0.35233c-0.34796,-0.10702 -0.60089,-0.43099 -0.60089,-0.81405c0,-0.4337 0.32422,-0.79167 0.7435,-0.84475l1.24251,-0.1775l0.00289,0.02023l0.05717,-0.02665c1.96139,-0.00439 4.34438,-0.52998 5.87551,0.97884c1.42362,1.40288 0.96344,3.98667 0.95234,5.7865c-0.00592,0.95879 0.17768,2.12244 -0.73268,2.85639c-0.32301,0.26041 -0.82491,0.09028 -1.23735,0.13541c-0.88651,0.29551 -5.70271,0.19335 -5.98804,0.47867c-0.82941,0.82941 1.21894,5.92332 0.08868,7.24589c-1.08195,1.26603 -4.74149,0.89145 -6.2482,0.89145c0,0 -0.62851,0 -0.8056,-0.53996c-0.04201,0.09513 -0.108,0.19284 -0.20571,0.29055c-0.60213,0.60213 -1.20425,0 -1.20425,0l-0.43765,-0.44975c-0.71241,-0.97702 -0.92814,-1.97613 -1.37325,-3.08637c-0.34819,-1.30371 -1.70918,-2.68445 -2.23412,-4.03678c-0.2201,0.10886 -0.44509,0.2036 -0.68296,0.26202zM549.0967,159.71288c0.16897,-0.55776 0.81121,-0.55776 0.81121,-0.55776c0.74887,0 1.50094,0.07331 2.24661,0.00414c5.83785,-0.54148 -0.39459,-4.53941 2.70866,-7.64266c1.06007,-1.06006 5.41661,-0.45454 6.91949,-0.9555c0.18512,0.04514 0.37788,0.20474 0.55536,0.13541c0.44903,-0.1754 -0.01218,-0.96407 -0.0156,-1.44613c-0.00897,-1.26633 0.49177,-3.60868 -0.48183,-4.61123c-0.68086,-0.7011 -2.01704,-0.63717 -3.19482,-0.54041c0.61813,1.45077 0.32544,3.86411 -2.85627,3.10761c-2.57745,-0.61283 -3.84099,-6.26436 -5.29988,-8.19074c-0.47812,-0.63133 -3.51513,-2.29156 -3.68953,-0.89829c0.01225,1.62029 0.37061,2.97095 0.90546,4.48014l0.75616,0.60493c0.19834,0.15591 0.32573,0.398 0.32573,0.66985c0,0.47029 -0.38125,0.85154 -0.85154,0.85154h-1.07563v-0.13851c-1.01394,0.2495 -2.07197,0.60947 -2.44016,1.22628c-0.42982,0.72006 3.87459,2.47737 3.81943,3.56947c-0.03898,0.77171 -2.06164,1.62738 -2.67325,2.14858c0.04714,0.41724 -0.21793,0.65588 -0.40761,0.77128c-0.60197,1.94067 1.64971,2.39549 2.3219,4.186c0.37372,0.93636 0.51353,1.85183 1.13655,2.65031l0.27944,0.26734c0,0 0.12083,0.12083 0.20011,0.30835z" fill="#000000" stroke="none" stroke-width="0.5"/><path d="M423.7427,103.62557c0.2592,0.02047 0.66465,0.14446 0.75811,0.70523c0.13999,0.83995 -0.69996,0.97995 -0.69996,0.97995c-7.303,1.20248 -14.48726,3.95555 -21.83181,3.95555c-7.19628,0 -24.28649,3.37475 -15.23262,-8.84853c0.28992,-0.47656 0.47328,-1.0373 0.86977,-1.42968c3.06346,-3.03177 5.84151,-0.82459 8.20453,0.56083c0.23192,0.13597 2.54124,-2.3873 2.76848,-2.56359c2.7133,-2.10487 6.65318,-3.89187 9.99272,-4.634c1.78035,-0.49787 5.16091,-2.03497 6.98905,-1.21623c2.17793,0.9754 2.01475,4.15573 3.76692,5.66023c1.21611,1.04422 3.75797,-0.78269 5.13918,0.1388c1.75756,1.17257 1.29158,3.89141 0.82405,5.45871c-0.32741,0.33205 -0.65483,0.66409 -0.98224,0.99614zM422.53543,103.80595c-0.1475,-0.07597 -0.28661,-0.21387 -0.38229,-0.45308c-0.31626,-0.79063 0.47438,-1.10688 0.47438,-1.10688l0.74385,-0.27881c0.15064,-0.14601 0.30128,-0.29201 0.45193,-0.43802c1.32437,-5.00284 -3.08393,-1.5826 -5.51012,-3.36605c-1.60546,-1.18015 -1.84571,-4.7744 -3.40393,-5.45458c-1.29203,-0.56399 -4.65364,0.92331 -5.91847,1.29357c-4.92506,1.09446 -7.80908,4.88013 -11.99293,6.73493c-2.57033,1.1395 -3.5105,-2.8235 -6.84051,-1.24023c-0.49064,0.23327 -1.0519,0.38907 -1.43319,0.77606c-0.2851,0.28937 -0.37627,0.72007 -0.5644,1.08011c-7.60801,10.00134 7.47242,6.21025 13.8093,6.21025c6.90303,0 13.70046,-2.4766 20.56639,-3.75727z" fill="#000000" stroke="none" stroke-width="0.5"/><path d="M400.57943,123.67509c-0.38082,0.76164 -1.14245,0.38082 -1.14245,0.38082l-1.15504,-0.88625c-0.74588,-2.61211 -1.07016,-5.1535 -1.45837,-7.82216c0,0 -0.12043,-0.84298 0.72255,-0.96341c0.84298,-0.12042 0.96341,0.72255 0.96341,0.72255c0.36331,2.59668 0.68626,5.06363 1.40996,7.59515l0.27913,-0.16916c0,0 0.76164,0.38082 0.38082,1.14246z" fill="#000000" stroke="none" stroke-width="0.5"/><path d="M407.64026,122.03081c-0.70852,0.47235 -1.18088,-0.23618 -1.18088,-0.23618l-0.30419,-0.46502c-0.95259,-1.15914 -1.56593,-2.12864 -1.80258,-3.65391c-0.12926,-0.83313 0.56525,-1.93311 -0.3693,-2.01654c0,0 -0.79064,-0.31625 -0.47438,-1.10689c0.31626,-0.79064 1.10688,-0.47438 1.10688,-0.47438c0.42841,0.22393 1.0379,0.25644 1.28524,0.67178c0.4163,0.69908 0.01754,1.89711 0.13818,2.68982c0.18289,1.20172 0.66161,1.89987 1.4243,2.79984l0.41289,0.61061c0,0 0.47235,0.70852 -0.23617,1.18087z" fill="#000000" stroke="none" stroke-width="0.5"/><path d="M411.04756,127.12328c-0.60213,-0.60213 0,-1.20426 0,-1.20426l0.10914,0.24359c0,-2.39028 0,-4.78057 0,-7.17085c0,0 -0.00001,-0.85154 0.85153,-0.85154c0.85154,0 0.85154,0.85154 0.85154,0.85154c0,2.39028 0,4.78057 0,7.17085l-0.60795,0.96067c0,0 -0.60213,0.60213 -1.20426,0z" fill="#000000" stroke="none" stroke-width="0.5"/><path d="M406.2661,133.80618c-0.83126,-0.18473 -0.64653,-1.01599 -0.64653,-1.01599l0.36916,-1.65602c0.6676,-2.00569 1.40915,-3.388 2.63752,-5.10796c0,0 0.49494,-0.69293 1.18787,-0.19798c0.69293,0.49495 0.19798,1.18787 0.19798,1.18787c-1.1217,1.57014 -1.77195,2.74513 -2.38209,4.57268l-0.34792,1.57086c0,0 -0.18473,0.83126 -1.01599,0.64654z" fill="#000000" stroke="none" stroke-width="0.5"/><path d="M407.12309,142.29701c0,0.85154 -0.85154,0.85154 -0.85154,0.85154l-0.86946,-0.1703c-2.96188,-2.26062 -1.99212,-8.50051 -1.40251,-11.7691c0,0 0.15233,-0.8378 0.99013,-0.68547c0.83781,0.15233 0.68547,0.99013 0.68547,0.99013c-0.38664,2.10859 -0.34259,4.16351 -0.34481,6.30143c-0.00163,1.57246 -0.19898,2.85323 1.09355,3.80055l-0.15238,-0.1703c0,0 0.85154,-0.00001 0.85154,0.85153z" fill="#000000" stroke="none" stroke-width="0.5"/><path d="M410.19324,147.00262c-0.76164,-0.38082 -0.38081,-1.14245 -0.38081,-1.14245l0.26864,-0.33626c0.00711,-2.2973 -0.00385,-3.95748 -0.51754,-6.26904c0,0 -0.18473,-0.83126 0.64653,-1.01599c0.83126,-0.18473 1.01599,0.64654 1.01599,0.64654c0.53269,2.39714 0.54966,4.25621 0.55809,6.63849l-0.44844,1.0979c0,0 -0.38082,0.76164 -1.14246,0.38082z" fill="#000000" stroke="none" stroke-width="0.5"/><path d="M406.45083,151.21576c-0.85154,0 -0.85154,-0.85153 -0.85154,-0.85153l0.06482,-1.58077c0.36032,-0.39087 0.72063,-0.78175 1.08094,-1.17262c0,0 0.60213,-0.60213 1.20426,0c0.60213,0.60213 0,1.20426 0,1.20426c-0.23726,0.2067 -0.47451,0.41339 -0.71177,0.62009l0.06482,0.92903c0,0 0,0.85153 -0.85154,0.85153z" fill="#000000" stroke="none" stroke-width="0.5"/><path d="M441.02112,126.34707c0,1.25 -1.25,1.25 -1.25,1.25l-1.94915,-0.55662c-0.84639,-1.76143 -6.07483,-0.80701 -8.05085,-0.80701c0,0 -1.25,0 -1.25,-1.25c0,-1.25 1.25,-1.25 1.25,-1.25c3.56137,0 7.84609,-1.05887 10.13097,1.92026l-0.13097,-0.55663c0,0 1.25,0 1.25,1.25z" fill="#000000" stroke="none" stroke-width="0.5"/><path d="M431.70294,119.52889c0,-1.25 1.25,-1.25 1.25,-1.25h0.90909c0.8533,0.01114 1.70661,0.02229 2.55992,0.03344c2.91214,1.45607 5.40924,0.03524 8.37298,0.9708c14.84085,4.68476 -2.7179,16.49637 -7.81034,18.2498c0,0 -1.18586,0.39528 -1.58114,-0.79057c-0.39529,-1.18585 0.79057,-1.58114 0.79057,-1.58114c3.59407,-1.14615 7.36294,-2.4743 9.88315,-5.51572c6.07157,-7.32724 -7.60782,-7.58915 -10.22961,-8.90004c-0.66185,0.01114 -1.32369,0.02229 -1.98553,0.03344h-0.90909c0,0 -1.25,0 -1.25,-1.25z" fill="#000000" stroke="none" stroke-width="0.5"/><path d="M505.96195,139.90124c-0.1044,0.36841 -0.39299,0.87764 -1.19083,0.87764c-1.25,0 -1.25,-1.25 -1.25,-1.25l1.25,-2.1591c0.40945,0.0493 0.86988,0.3518 1.22836,0.14791c0.47486,-0.27009 0.40724,-1.14779 0.90909,-1.36363c0.73025,-0.31407 1.62114,0.1701 2.38419,-0.05276c0.41136,-0.12015 0.49726,-0.79056 0.90909,-0.90909c1.11991,-0.32233 3.1027,-0.79968 4.39845,-0.56623c0.06523,-0.89963 -1.12573,-0.26917 -2.8328,-1.35578c-0.44207,-0.2814 -0.88555,-0.56941 -1.33196,-0.85655c-0.32068,0.63795 -1.11897,0.63795 -1.11897,0.63795c-4.09091,0 -10,0 -14.09091,0c0,0 -1.25,0 -1.25,-1.25c0,-1.25 1.25,-1.25 1.25,-1.25c4.03043,0 8.06086,0 12.09129,0c-1.78719,-0.93264 -3.66801,-1.60249 -5.72766,-1.59091c0,0 -1.25,0 -1.25,-1.25c0,-1.25 1.25,-1.25 1.25,-1.25c4.28091,0.02034 8.21313,2.35797 11.63998,4.7814c0.95063,0.67228 2.48728,0.2409 3.33481,1.03926c0.39815,0.37506 0.21807,1.05382 0.25498,1.61861l0.65412,0.65412c0.2262,0.22621 0.36611,0.53871 0.36611,0.88388c0,0.69035 -0.55964,1.25 -1.25,1.25h-0.89484c-0.80275,0.34521 -1.60462,0.69102 -2.45434,0.87565c-0.67833,0.1474 -1.41369,-0.25094 -2.08156,-0.06171c-0.41232,0.11682 -0.4963,0.79396 -0.9091,0.90909c-0.69414,0.1936 -1.4985,-0.33572 -2.16125,-0.05276c-0.50242,0.21451 -0.41198,1.13711 -0.90909,1.36364c-0.3777,0.17211 -0.79318,0.19282 -1.21717,0.17936z" fill="#000000" stroke="none" stroke-width="0.5"/><path d="M136.32339,243.00492c1.01728,0.00213 2.03459,0.00748 3.05139,0.00748c0,0 1.25,0 1.25,1.25c0,1.25 -1.25,1.25 -1.25,1.25c-1.90393,0 -3.81035,0.0221 -5.71429,0c-0.72647,-0.00843 -1.47869,-0.23467 -2.17916,-0.04187c-0.78262,0.21542 -1.34078,0.9526 -2.10667,1.22152c-0.65757,0.23089 -1.38088,0.19868 -2.07611,0.24714c-1.32851,0.09259 -2.66347,0.00178 -3.9952,0.00178c-1.66667,0 -3.33335,0.00896 -4.99999,0c-0.74959,-0.00403 -1.51437,-0.17624 -2.24867,-0.02552c-0.7343,0.15072 -1.36843,0.61251 -2.0568,0.90926c-0.82446,0.35541 -1.61598,0.80862 -2.48152,1.04714c-1.07121,0.29519 -3.65875,0.21171 -4.64158,0.21198c-2.14285,0.00059 -4.28572,0 -6.42857,0c-8.21428,0 -16.42857,0 -24.64285,0c-1.19047,0 -2.38096,0 -3.57143,0c-0.95238,0 -1.90929,0.09276 -2.85714,0c-0.77671,-0.07602 -1.76061,0.18573 -2.31245,-0.36611c-0.55184,-0.55184 -0.30692,-1.53429 -0.36611,-2.31245c-0.06321,-0.83093 0,-1.66666 0,-2.5c0,-0.83334 -0.00359,-1.66667 0,-2.5c0.00393,-0.91215 -0.12414,-1.8361 0.02255,-2.73639c0.1031,-0.63274 0.47619,-1.19047 0.71429,-1.78571c-0.02442,-2.06376 -0.03893,-4.12827 -0.02256,-6.19219c0.00643,-0.81007 -0.16106,-1.64365 0.03344,-2.43005c0.20747,-0.83881 0.86359,-1.50898 1.14304,-2.32663c0.35674,-1.0438 0.2529,-2.77644 0.2521,-3.81475c-0.00043,-0.55292 -0.11276,-4.74113 0.36612,-5.1696c0.75737,-0.67764 2.01388,-0.28288 3.02674,-0.36611c0.47459,-0.039 0.95238,0 1.42857,0c0.95238,0 1.90594,-0.04719 2.85715,0c0.51938,0.02577 1.11865,0.43379 1.55303,0.1479c0.68953,-0.4538 0.67751,-1.60799 1.36339,-2.0673c0.44425,-0.2975 4.35916,-0.24328 4.58358,-0.22346c0.55022,0.04859 1.15457,0.66954 1.61612,0.36611c0.39791,-0.26159 -0.37619,-1.13661 0,-1.42857c0.63965,-0.49643 4.19715,-0.36612 4.81246,-0.36612c0.7376,0.01114 1.49605,0.20793 2.2128,0.03343c0.78752,-0.19172 1.39002,-0.87441 2.1685,-1.10007c0.88913,-0.25773 1.83497,-0.25426 2.75777,-0.32788c0.27986,-0.02233 2.78704,-0.05087 3.21806,-0.03406c0.648,0.02528 1.34533,0.38834 1.94098,0.13196c0.54675,-0.23533 0.51461,-1.21819 1.07143,-1.42857c0.25186,-0.09516 4.02239,-0.1684 4.84473,-0.13197c0.51951,0.02301 1.11865,0.43379 1.55304,0.14791c0.68953,-0.4538 0.67751,-1.60799 1.36339,-2.0673c0.57304,-0.38375 1.36865,-0.17939 2.05692,-0.22318c1.19694,-0.07615 2.39872,-0.00028 3.59808,-0.00028c4.7619,0 9.52381,0 14.28571,0c2.12977,0 4.30161,-0.11987 6.42857,0c1.09159,0.06152 2.2933,-0.22804 3.26927,0.26474c0.53565,0.27045 0.21707,1.23996 0.60965,1.69377c0.57048,0.65947 1.6634,0.76845 2.14763,1.49363c0.30085,0.45056 0.22344,3.80553 0.22346,4.22643c0.00013,2.14285 0,4.28571 0,6.42857c0,0.00199 0.0208,4.42937 -0.05363,4.64795c-0.27045,0.79415 -1.0812,1.31759 -1.39195,2.09686c-0.19867,0.49821 0.15454,1.12691 -0.08496,1.60683c-0.29829,0.59773 -1.18103,0.78929 -1.42175,1.41243c-0.2431,0.6293 0.09515,1.34702 0.09515,2.02165c0,0.99329 0.2994,2.06678 -0.09515,2.97835c-0.39417,0.9107 -1.21592,1.66445 -2.10507,2.10507c-0.64001,0.31716 -1.45153,-0.17961 -2.14286,0c-0.34314,0.08915 -0.50138,0.50139 -0.75207,0.75208c0.03172,0.55483 0.06343,1.10967 0.09515,1.6645v1.42857c0,0 0,0.06749 -0.01568,0.17109zM133.85562,243.0106c-0.01655,-0.10682 -0.01655,-0.17677 -0.01655,-0.17677v-1.42857c0.03172,-0.87374 0.06343,-1.74748 0.09515,-2.62121c0.70169,-0.70169 1.21591,-1.66445 2.10506,-2.10506c0.63949,-0.3169 2.55994,0.66237 2.89494,-0.75207c0.15547,-0.65646 -0.09515,-1.34701 -0.09515,-2.02165c0,-0.99329 -0.22966,-2.03967 0.09515,-2.97835c0.22199,-0.64153 1.12771,-0.83959 1.43539,-1.44472c0.20785,-0.40878 -0.17212,-0.95018 -0.00132,-1.37577c0.30829,-0.76818 1.08696,-1.28985 1.38155,-2.06339c0.16899,-0.44374 -0.04714,-0.9487 -0.05363,-1.42348c-0.01139,-0.83326 0,-1.66666 0,-2.5c0,-2.14285 -0.00013,-4.28571 0,-6.42857c0.00005,-0.70541 -0.02275,-1.41118 0.00028,-2.11621c0.00968,-0.29626 0.29416,-0.66189 0.09771,-0.88386c-0.5269,-0.59536 -1.49196,-0.67905 -2.01262,-1.27987c-0.25499,-0.29424 0.24506,-0.99216 -0.10463,-1.16338c-0.52416,-0.25664 -1.14915,0.21601 -1.73074,0.26475c-0.47452,0.03976 -0.95238,0 -1.42857,0c-1.66666,0 -3.33334,0 -5,0c-4.7619,0 -9.52381,0 -14.28571,0c-1.1816,0 -2.36427,0.05033 -3.54478,-0.00028c-0.29614,-0.0127 -0.66021,-0.29224 -0.88386,-0.09772c-0.63473,0.55206 -0.67019,1.69272 -1.41011,2.09295c-0.26284,0.14217 -3.81988,0.17264 -4.51839,0.14791c-0.64808,-0.02295 -1.34533,-0.38835 -1.94098,-0.13197c-0.54675,0.23533 -0.51461,1.2182 -1.07143,1.42857c-0.95475,0.36072 -2.03883,0.1019 -3.05902,0.13197c-1.09501,0.03227 -1.94871,-0.04575 -3.05534,0.02876c-0.73931,0.04978 -1.50176,0.01574 -2.21097,0.23038c-0.81946,0.24802 -1.46921,0.94431 -2.30364,1.13599c-0.90554,0.20801 -1.85812,0.0223 -2.78719,0.03344c-0.83334,0 -1.67262,0.09949 -2.5,0c-0.2172,-0.02612 -0.44489,-0.56079 -0.54469,-0.36612c-0.21724,0.42375 0.42068,1.20545 0,1.42857c-1.0023,0.53159 -2.25154,0.2954 -3.38388,0.36612c-0.82285,0.0514 -1.64925,0.02377 -2.47336,-0.00029c-0.29629,-0.00865 -0.66021,-0.29224 -0.88386,-0.09771c-0.63472,0.55206 -0.67019,1.69272 -1.41011,2.09295c-0.80237,0.43401 -1.82103,0.1155 -2.73268,0.14791c-0.95178,0.03383 -1.90477,0 -2.85715,0c-0.47619,0 -0.95674,0.06428 -1.42857,0c-0.43304,-0.05899 -0.88421,-0.59097 -1.25897,-0.36612c-0.2782,0.16692 0.33141,0.57925 0.36612,0.90183c0.08917,0.82855 0.00062,1.66666 0,2.5c-0.00056,0.74559 0.05647,1.49358 -0.00353,2.23675c-0.06336,0.78476 -0.12168,1.58489 -0.36545,2.33352c-0.24851,0.76318 -0.88755,1.36962 -1.09302,2.1455c-0.15837,0.59804 0.02775,1.23703 0.03343,1.85566c0.0204,2.22135 -0.0015,4.44373 -0.02256,6.66495c-0.23809,0.59524 -0.60633,1.15378 -0.71428,1.78572c-0.12706,0.7438 0.01898,1.50905 0.02255,2.26362c0.00394,0.83333 0,1.66666 0,2.5c0,0.83334 0.09949,1.67263 0,2.5c-0.02612,0.2172 -0.5208,0.39 -0.36611,0.54469c0.15469,0.15469 0.32959,-0.32621 0.54468,-0.36612c0.4682,-0.08687 0.95238,0 1.42858,0c1.66667,0 3.33334,0 5,0c8.21429,0 16.42857,0 24.64285,0c2.14285,0 4.28572,-0.0006 6.42857,0c0.40156,0.00011 3.30255,0.07203 4.02411,-0.13453c1.28836,-0.36882 3.39247,-1.72404 4.65313,-1.9828c0.89842,-0.18441 1.83419,-0.02107 2.75133,-0.02553c1.66665,-0.0081 3.33333,0 4.99999,0c1.28732,0 2.57596,0.06032 3.86194,0.00178c0.48137,-0.02191 0.98905,0.04102 1.43981,-0.12931c0.79977,-0.30222 1.40657,-1.04608 2.23456,-1.25916c0.9107,-0.23437 1.8805,-0.03261 2.82084,-0.04188c0.06504,-0.00064 0.13008,-0.00124 0.19512,-0.00179z" fill="#000000" stroke="none" stroke-width="0.5"/><path d="M88.83907,239.26239c0,-1.25 1.25,-1.25 1.25,-1.25h1.42857c0,0 1.25,0 1.25,1.25c0,1.25 -1.25,1.25 -1.25,1.25h-1.42857c0,0 -1.25,0 -1.25,-1.25z" fill="#47e843" stroke="none" stroke-width="0.5"/><path d="M117.23193,228.72668c0.52611,0 1.06373,-0.02837 1.60366,-0.06112c-0.00108,-0.1034 0.00464,-0.20602 0.02052,-0.307c-0.06155,0.00718 -0.12668,0.01098 -0.19561,0.01098c-0.67562,0 -0.98607,-0.36516 -1.12872,-0.70076c-0.47944,0.33182 -0.9483,0.68794 -1.41014,1.0579c0.3701,0 0.7402,0 1.1103,0zM113.8574,232.31514c0.01143,-0.06668 0.02721,-0.13398 0.04566,-0.20162c-0.1044,0.00684 -0.2088,0.01394 -0.31322,0.02131c-0.02029,0.05679 -0.04162,0.11315 -0.06412,0.16898c0.02275,-0.00125 0.04546,-0.00255 0.06815,-0.00393c0.08666,-0.00528 0.17485,0.00226 0.26353,0.01525zM108.28756,233.81868c0.05003,-0.03539 0.10178,-0.07189 0.15498,-0.10935c-0.14857,-0.15931 -0.22864,-0.347 -0.27061,-0.51998c-0.21934,0.20329 -0.44685,0.39159 -0.69127,0.54753c0.26797,0.01806 0.53821,0.05581 0.80691,0.08181zM94.01764,232.65525h-2.45333c-0.39509,0.01453 -0.81005,-0.1498 -1.18805,-0.03344c-0.25327,0.07796 -0.49546,0.18333 -0.732,0.30268c-0.15363,0.20723 -0.3959,0.38562 -0.77797,0.43284c-0.21761,0.12619 -0.4356,0.25147 -0.65852,0.36455c-0.01165,0.00138 -0.0233,0.00277 -0.03494,0.00415c1.59112,-0.0041 3.18226,0.00065 4.77339,0.00065c2.08679,0 4.17357,0 6.26037,0c0.1347,-0.02588 0.28356,-0.03208 0.43799,0c0.32583,0 0.65165,0 0.97748,0c-0.08026,-0.08972 -0.15538,-0.19971 -0.22244,-0.33384c-0.35907,-0.71813 -0.02623,-1.20563 0.25781,-1.46249c-2.13236,0.51768 -4.07939,0.72485 -6.63977,0.72491zM109.56787,225.86447c0.00787,-0.69232 -0.01451,-1.44103 -0.01451,-2.31635c0,0 0,-1.25 1.25,-1.25c1.25,0 1.25,1.25 1.25,1.25c0,0.71095 0.00906,1.36032 0.00493,1.97377c0.20815,-0.191 0.42368,-0.27722 0.42368,-0.27722l1.81066,-0.70242c0.0027,-0.00585 0.0054,-0.01171 0.00809,-0.01758c-0.00411,-0.00317 -0.00794,-0.00612 -0.01149,-0.00883c-0.80486,-0.6157 -1.97085,-0.91095 -2.44511,-1.80647c-0.48257,-0.91123 -0.09861,-2.05988 -0.14791,-3.08982c0.0951,-1.09829 -0.29603,-2.35819 0.28528,-3.29487c0.39854,-0.64217 1.52098,-0.27135 2.16916,-0.66002c1.98987,-1.19317 1.21376,-2.43029 3.63188,-3.45334c2.01805,-0.85378 5.22249,-1.39083 4.96966,2.24695c-0.06269,0.90195 -1.19312,1.36112 -1.73548,2.0845c-0.50077,0.66791 -0.86173,1.43678 -1.38954,2.08354c-0.2672,0.32743 -0.68994,0.52664 -0.99481,0.81487c0.0093,-0.00014 0.01868,-0.00021 0.02813,-0.00021c1.25,0 1.25,1.25 1.25,1.25c0,0.61381 0,1.77689 0,2.97433c1.12403,-0.40831 2.33792,-0.64454 3.75,-0.65291c0,0 1.25,0 1.25,1.25c0,1.25 -1.25,1.25 -1.25,1.25c-0.31112,-0.00229 -0.61598,0.01203 -0.91508,0.04155c0.0328,0.26138 0.01527,0.54719 -0.01212,0.83779c1.02405,0.67491 1.97457,1.49599 2.74732,2.33495h1.03703c0.69035,0 1.25,0.55964 1.25,1.25c0,0.69036 -0.55965,1.25 -1.25,1.25h-1.70342c-0.29296,0.71428 -1.15372,0.71428 -1.15372,0.71428c-0.97693,0 -1.94824,-0.00347 -2.91577,-0.0028c-0.43703,0.53542 -1.00224,0.98235 -1.58974,1.32941c-0.4618,0.2728 -1.10862,-0.11371 -1.60683,0.08496c-0.43313,0.17272 -0.79012,0.49184 -1.15656,0.79219c-0.01012,1.17257 -0.20757,2.37373 -1.17043,3.18039c-0.78377,0.65662 -1.8794,0.80605 -2.81909,1.20907c-1.72292,0.32297 -2.65883,0.23816 -3.58253,0.58978c-0.41616,0.49396 -0.76443,0.67821 -1.14651,0.68091c-0.2112,0.16969 -0.4347,0.37144 -0.67705,0.61238l-0.47836,-0.12413v0.21928h-2.14286c-0.69035,0 -1.25,-0.55964 -1.25,-1.25c0,-0.59488 0.41555,-1.09269 0.97219,-1.21902l2.2273,-0.55682c0.4415,-0.25885 1.0115,-0.43709 1.2054,-0.89969c0.04723,-0.11267 0.06891,-0.23149 0.07402,-0.35416c-0.12429,-0.00465 -0.24829,-0.00714 -0.37177,-0.00601c-1.42851,0.01298 -2.85714,0 -4.28571,0c-0.41599,0 -0.83198,0 -1.24797,0c-0.1384,0.02801 -0.29158,0.03466 -0.45111,0c-0.48427,0 -0.96854,0 -1.45281,0l-1.7915,1.35811c-0.97125,0.02349 -1.9425,0.04697 -2.91376,0.07046c0,0 -1.25,0 -1.25,-1.25c0,-0.0626 0.00314,-0.12207 0.00909,-0.17857c-1.13399,0 -2.26796,0 -3.40195,0c-0.83334,0 -1.66667,0.00239 -2.5,0c-1.40366,-0.00402 -3.03077,0.10924 -4.26792,-0.77214c-0.06248,-0.04451 -0.12358,-0.09055 -0.18341,-0.13799l-0.01296,0.01728l-1.98837,-1.49127c-0.31022,-0.22746 -0.51163,-0.59457 -0.51163,-1.00873c0,-0.69036 0.55964,-1.25 1.25,-1.25h1.42008c1.25909,-0.02227 2.51684,-0.12187 3.76955,-0.25119c-0.0332,-0.60223 -0.08145,-1.21376 0.35506,-1.52555c0.92321,-0.65944 2.25063,-0.31213 3.38389,-0.36612c0.24987,-0.01191 0.52772,0.14186 0.7794,0.20135c-0.02999,-0.35456 -0.22676,-0.73286 -0.24368,-1.0942c-0.03899,-0.83242 0,-1.66666 0,-2.5c0,-0.50198 -0.05054,-1.007 -0.02376,-1.50737c-0.39572,0.00135 -0.80625,0.0527 -1.15365,-0.11162c-2.50047,-1.18267 -5.90154,-3.12633 -0.09607,-4.9428c0.58176,-0.18203 0.25046,1.36955 0.79274,1.64796c0.69925,0.35899 1.77297,-0.35954 2.4187,-0.0429c0.05349,-0.03431 0.10815,-0.06331 0.16233,-0.08783c0.03057,-0.34775 0.06457,-0.69663 0.04255,-1.02687c0,0 0,-1.25 1.25,-1.25c1.25,0 1.25,1.25 1.25,1.25c-0.03569,0.28402 -0.19079,0.59992 -0.25985,0.89285c0.26519,0 0.53037,0 0.79556,0h1.07143c0,0 1.25,0 1.25,1.25c0,0.4118 -0.13567,0.68794 -0.31761,0.87311c0.25151,0.27066 0.50809,0.53332 0.82853,0.70645c1.23243,0.66585 4.73192,0.02759 6.09622,0.02759h1.42857c0,0 1.25,0 1.25,1.25c0,0.40763 -0.13294,0.68234 -0.3121,0.86746c0.46611,0.00114 0.93214,0.00682 1.39804,0.02032zM95.25867,224.0928c0.36111,0.36713 0.53997,0.9792 1.02304,1.1576c0.52689,0.19458 1.06858,0.17688 1.58223,0.12575c-0.40405,-0.37004 -0.77826,-0.78824 -1.22763,-1.09551c-0.57822,-0.39538 -1.35362,-0.56122 -1.95554,-0.91111c-0.02468,0 -0.0489,0 -0.07261,0c0.21625,0.24335 0.42595,0.49497 0.6505,0.72326zM117.24366,223.83719c0.05546,0.05574 0.11102,0.11126 0.16683,0.16634c0,-0.17891 0,-0.35784 0,-0.53675c-0.057,0.12301 -0.11295,0.24636 -0.16683,0.37042zM115.23394,222.23995c0.23284,-0.47442 0.47062,-0.94689 0.61345,-1.45345c0.18743,-0.66472 -0.05189,-1.43689 0.2535,-2.05633c0.34219,-0.69408 1.11301,-1.08177 1.59293,-1.68883c0.5159,-0.65258 0.83781,-1.44924 1.38396,-2.07671c0.32895,-0.37793 0.82482,-0.57211 1.20531,-0.8981c0.02875,-0.02462 0.00761,-0.11974 -0.02891,-0.1098c-0.4557,0.12394 -0.9437,0.21271 -1.3329,0.48019c-1.40942,0.96864 -2.09201,2.57447 -3.60972,3.44186c-0.40548,0.23173 -1.14866,-0.3576 -1.40061,0.03563c-0.31089,0.48523 0.19018,1.13675 0.28528,1.70513c-0.0493,0.63673 -0.45339,1.34934 -0.14791,1.91018c0.22295,0.40931 0.72171,0.53713 1.18563,0.71024zM100.51687,229.01086c-0.09949,0.36014 -0.31114,0.69455 -0.58297,0.99522c0.14464,-0.03226 0.28536,-0.06876 0.42148,-0.10996c0.81946,-0.24802 1.48156,-0.89682 2.30364,-1.136c1.23504,-0.35933 2.57237,-0.03344 3.85862,-0.03344c0.889,0 1.77801,0 2.66701,0c0.03524,-0.11592 0.06734,-0.23051 0.09658,-0.34413c-0.68277,0.01103 -1.3663,-0.01301 -2.04931,-0.01301c-0.83333,0 -1.66667,0.0028 -2.5,0c-0.7666,-0.00258 -1.54086,-0.12451 -2.29977,-0.01614c-0.59971,0.08563 -1.14424,0.39842 -1.71895,0.58999c-0.0656,0.02186 -0.13103,0.0444 -0.19633,0.06745zM111.87943,228.72668c0.00938,-0.04057 0.0187,-0.08116 0.02799,-0.12178c-0.026,-0.05825 -0.05527,-0.11384 -0.08877,-0.16603c-0.01892,0.09569 -0.0393,0.19159 -0.06123,0.28781c0.04067,0 0.08134,0 0.12201,0zM113.85396,234.83369c-0.53883,-0.04759 -1.0772,-0.09301 -1.56665,0.09195c-0.79977,0.30222 -1.40657,1.04608 -2.23456,1.25916c-0.11751,0.03025 -0.23601,0.05324 -0.3553,0.07037c0.00952,0.05257 0.02081,0.10559 0.03307,0.15886c0.57908,-0.07368 1.22137,-0.14083 1.97457,-0.28074c0.60777,-0.21597 1.2865,-0.29031 1.82329,-0.64789c0.20138,-0.13415 0.28595,-0.39999 0.32557,-0.6517zM94.20007,226.64881c0.00256,0.23639 0.00577,0.47279 0.00764,0.70916c0.19422,-0.03348 0.42155,-0.05194 0.66642,-0.06065c-0.24609,-0.18314 -0.46366,-0.41074 -0.67406,-0.64852zM121.53135,228.57717c0.01244,0.00048 0.02488,0.00098 0.03731,0.00151c-0.00796,-0.00546 -0.01594,-0.01091 -0.02391,-0.01635c-0.00449,0.00493 -0.00896,0.00987 -0.0134,0.01484z" fill="#47e843" stroke="none" stroke-width="0.5"/><path d="M166.22269,239.35164c0,-0.2491 0.04964,-0.44856 0.12914,-0.60827c-0.65421,-2.23927 -2.81322,-3.70343 -5.27587,-4.34393c-0.36809,1.01659 -1.46512,0.74233 -1.46512,0.74233c-0.36509,-0.09805 -0.71834,-0.26528 -1.09527,-0.29413c-0.66944,-0.05124 -2.12401,0.34949 -2.57231,0.70375c-0.14602,0.11539 -1.43516,2.44731 -1.46474,2.51147c-0.22436,0.48666 -0.45716,0.98043 -0.56352,1.50565c-0.07893,0.38975 0.02129,0.79523 0.01705,1.19287c-0.00307,0.28753 -0.19443,0.61986 -0.03898,0.86176c0.14996,0.23337 0.53971,0.15177 0.77967,0.29093c0.35398,0.20529 0.61108,0.56653 0.9851,0.73254c0.37829,0.16791 0.81074,0.16709 1.21722,0.24501c0.55674,0.10673 1.10737,0.26251 1.67234,0.30895c0.86889,0.07144 1.74264,0.0559 2.61525,0.02631c0.17584,-0.11739 0.41038,-0.19567 0.7232,-0.19567c0.28196,0 0.50032,0.0636 0.66943,0.16212c0.37401,0.00142 0.74764,-0.00478 1.10316,-0.10808c0.4752,-0.13807 0.8397,-0.52741 1.28453,-0.74422c0.38534,-0.18781 0.85321,-0.21215 1.19861,-0.46604c0.19494,-0.14328 0.21402,-0.43395 0.32103,-0.65093c0.05887,-0.34023 0.08857,-0.66882 0.09137,-0.98569c-0.18877,-0.18516 -0.33126,-0.4647 -0.33126,-0.88674zM171.18537,234.2408c0.32274,-0.49408 0.4834,-1.14575 0.96822,-1.48224c0.55411,-0.38457 1.29512,-0.37857 1.94934,-0.54265c0.53392,-0.1339 1.06655,-0.29022 1.61364,-0.35094c0.53514,-0.0594 1.077,-0.02067 1.61527,-0.00746c0.65299,0.01603 1.38423,-0.21841 1.95723,0.09515c0.89132,0.48775 1.69385,1.25019 2.15537,2.15537c0.33456,0.65618 0.17118,1.47904 0.06963,2.20856c-0.06946,0.49895 -0.37392,0.93568 -0.57181,1.39895c-0.74444,1.74278 -1.44915,3.46962 -2.59636,4.9961c-0.46935,0.62453 -0.8387,1.3818 -1.49586,1.80425c-0.61303,0.39408 -1.39455,0.50203 -2.12305,0.52213c-1.49375,0.04121 -2.88511,-0.54203 -4.06338,-1.40206c-0.47174,-0.34433 -0.82044,-0.83187 -1.24681,-1.23102c-0.18001,-0.16852 -0.38034,-0.31786 -0.57751,-0.46981c-0.00951,0.04858 -0.01881,0.09692 -0.02785,0.14501c-0.33118,0.54985 -0.5182,1.21818 -0.99353,1.64954c-0.36141,0.32798 -0.84351,0.47508 -1.30666,0.6526c0.21838,0.15532 0.34229,0.33233 0.34229,0.33233c1.16329,1.66409 1.87726,2.74722 2.33234,4.71797l0.38224,-0.04765c0,0 0.97608,0.78087 0.19521,1.75696c-0.78087,0.97609 -1.75695,0.19522 -1.75695,0.19522l-1.26096,-1.3622c-0.35246,-1.66948 -0.93644,-2.39509 -1.93995,-3.82663c0,0 -0.22469,-0.32098 -0.24277,-0.72933c-0.05809,0.02175 -0.11708,0.04128 -0.17714,0.05823c-0.40574,0.11446 -0.82618,0.15547 -1.24972,0.17656c0,1.24046 0,2.48092 0,3.72138l-1.29072,1.63336c0,0 -0.97609,0.78087 -1.75696,-0.19522c-0.78087,-0.97609 0.19522,-1.75696 0.19522,-1.75696l0.35246,0.31881c0,-1.22645 0,-2.45292 0,-3.67937c-0.02152,-0.00011 -0.04304,-0.00018 -0.06455,-0.0002c-0.74947,-0.00079 -1.50159,0.05792 -2.24841,-0.00505c-0.65556,-0.05527 -1.29839,-0.21527 -1.94268,-0.34832c-0.36642,-0.07566 -0.74289,-0.12544 -1.10771,-0.21055c0.37529,0.61108 -0.04964,1.29097 -0.04964,1.29097c-0.78924,1.26234 -1.48562,2.49331 -2.14208,3.8305l-1.86096,0.92157c0,0 -1.14226,0.50767 -1.64994,-0.6346c-0.50768,-1.14227 0.63459,-1.64993 0.63459,-1.64993l1.09679,-0.39298c0.39969,-1.25686 1.10468,-2.2841 1.80159,-3.39955c0,0 0.31181,-0.4989 0.84987,-0.59824c-0.20874,-0.16117 -0.41191,-0.33246 -0.62841,-0.48011c-0.213,-0.14527 -0.46067,-0.25712 -0.69959,-0.37716c-0.18211,0.18553 -0.36764,0.27829 -0.36764,0.27829c-1.79427,0.88009 -3.64132,1.37174 -5.48915,2.16705l0.06284,0.06359c0,0 -0.88388,0.88388 -1.76776,0c-0.88389,-0.88388 0,-1.76777 0,-1.76777l0.72012,-0.59368c1.78776,-0.76253 3.65299,-1.233 5.35592,-2.10525c0,0 0.13583,-0.06792 0.33647,-0.10906c-0.01207,-0.22753 -0.01963,-0.45529 -0.03963,-0.67561c-0.0532,-0.58591 -0.09736,-1.18778 0.01705,-1.76487c0.24038,-1.21249 0.97878,-2.66929 1.64266,-3.72026c0.39001,-0.6174 0.68015,-1.34748 1.25866,-1.79315c0.48609,-0.37447 1.16151,-0.68888 1.88213,-0.9116c0.17364,-0.48019 0.65383,-0.72029 0.65383,-0.72029l1.2163,-0.4606c3.48534,0.01611 9.15888,1.88676 10.75633,5.55379c0.88111,-0.90009 1.73892,-1.99508 2.32255,-2.84186zM169.94341,239.45408c0.04893,0.10568 0.10558,0.207 0.17494,0.30112c0.25471,0.34564 0.68096,0.5249 0.99708,0.81545c0.94232,0.86612 0.98394,1.27635 2.20075,1.712c0.24103,0.0863 1.75918,0.46489 2.197,0.12073c0.36856,-0.28972 0.54036,-0.76627 0.80461,-1.1535c0.30645,-0.44906 0.64611,-0.87852 0.9074,-1.35528c0.3011,-0.54939 0.51766,-1.14105 0.77404,-1.71268c0.2189,-0.48809 0.43221,-0.97867 0.65178,-1.46645c0.13573,-0.30155 0.32111,-0.58417 0.41411,-0.90152c0.07053,-0.24069 0.17673,-0.5224 0.06962,-0.74919c-0.54196,-1.14755 -0.8663,-0.74228 -1.80289,-0.70723c-0.44719,0.01674 -0.89772,-0.05694 -1.34248,-0.00746c-0.4567,0.0508 -0.89177,0.22539 -1.34411,0.30633c-0.33301,0.05959 -0.72977,-0.07724 -1.0084,0.11463c-0.24393,0.16797 -0.23089,0.54549 -0.34633,0.81823c-0.95445,1.30536 -2.11155,2.72022 -3.34712,3.86482z" fill="#7e2e0e" stroke="none" stroke-width="0.5"/><path d="M174.60297,236.72254c0,-0.69036 0.55965,-1.25 1.25,-1.25c0.69035,0 1.25,0.55964 1.25,1.25c0,0.69036 -0.55965,1.25 -1.25,1.25c-0.69035,0 -1.25,-0.55964 -1.25,-1.25z" fill="#7e2e0e" stroke="none" stroke-width="0.5"/><path d="M187.6179,245.23493c-1.11804,-0.55901 -0.55902,-1.67705 -0.55902,-1.67705l0.03317,-0.04335c-0.00055,-0.01803 -0.00082,-0.03633 -0.00082,-0.0549c0,-1.25 1.25,-1.25 1.25,-1.25c0.00127,0 0.00254,0.00002 0.00382,0.00002c1.22716,-0.34048 5.05614,-1.26192 2.43305,-0.79387c-0.45238,0.08072 -0.89607,0.20423 -1.34411,0.30634c0,0 -1.22024,0.27116 -1.4914,-0.94907c-0.27116,-1.22024 0.94907,-1.4914 0.94907,-1.4914c2.19825,-0.47808 7.7174,0.15002 4.81871,3.66566c-0.05203,0.8096 -0.91777,1.05695 -0.91777,1.05695l-1.22247,0.34697c-0.74873,0.16284 -1.5123,0.27217 -2.27846,0.32396l0.00326,0.00074c0,0 -0.55901,1.11803 -1.67705,0.55901z" fill="#7e2e0e" stroke="none" stroke-width="0.5"/><path d="M202.47268,230.37864c1.25,0 1.25,1.25 1.25,1.25l-0.10107,0.65783c0.89254,2.10558 2.66653,5.20256 0.08033,6.86208c-1.64466,1.05534 -4.25088,-0.95408 -4.74452,1.84629c-0.0464,0.16794 -0.30038,0.43765 -0.1392,0.50382c0.23096,0.09482 0.44813,-0.25173 0.69672,-0.27495c0.59746,-0.05578 1.2163,-0.09856 1.7997,0.04188c0.47276,0.1138 0.8303,0.51487 1.28015,0.6995c1.43492,0.58893 4.1702,0.49045 2.33182,3.75557c-0.50655,0.89969 -2.83244,0.29816 -3.73257,0.4517c-0.46761,0.07977 -0.88478,0.35051 -1.34544,0.46374c-0.16531,0.04064 -1.26367,-0.15669 -1.23389,0.46132c0.00781,0.1623 0.2538,1.08664 0.54403,1.1979c0.40473,0.15516 0.85733,0.13828 1.29005,0.16349c0.51874,0.03021 1.04171,0.05308 1.55886,0.00241c0.82492,-0.08083 1.57976,-0.5026 2.36645,-0.76365c0.46027,-0.15274 0.94029,-0.23782 1.41044,-0.35673c0,0 1.21268,-0.30318 1.51585,0.9095c0.30317,1.21268 -0.9095,1.51585 -0.9095,1.51585c-0.40622,0.10019 -0.82194,0.16767 -1.21867,0.30055c-0.40072,0.13422 -0.76154,0.37513 -1.16585,0.49811c-1.29773,0.39471 -2.41334,0.53736 -3.78208,0.38385c-0.78734,-0.0883 -1.63132,-0.11096 -2.32496,-0.49379c-0.5851,-0.32292 -1.02917,-0.9098 -1.31377,-1.51447c-0.71275,-1.51428 -0.70081,-3.02832 0.70889,-4.18657c0.50456,-0.41456 1.26132,-0.3395 1.88683,-0.52706c0.62959,-0.18878 1.10116,-0.39169 1.5831,-0.51481c-0.02972,-0.01179 -0.06014,-0.02194 -0.09139,-0.03017c-1.18031,-0.31056 -2.22217,0.83518 -3.41907,-0.23307c-0.6416,-0.57264 -0.53099,-1.63595 -0.79648,-2.45392c0.48478,-2.01911 1.13213,-3.56995 3.39396,-4.16587c0.58026,-0.15288 1.20003,-0.06329 1.79971,-0.04188c0.35217,0.01257 1.1878,0.30086 1.05684,-0.02629c-0.46102,-1.15168 -0.87974,-2.32787 -1.38417,-3.48953l-0.10107,-1.64263c0,0 0,-1.25 1.25,-1.25z" fill="#7e2e0e" stroke="none" stroke-width="0.5"/><path d="M193.39903,225.16604c1.04006,-0.69338 1.73343,0.34669 1.73343,0.34669l0.70991,1.07224c0.27387,0.49296 0.54773,0.98591 0.8216,1.47887c0,0 0.60705,1.0927 -0.48565,1.69975c-1.09269,0.60706 -1.69975,-0.48565 -1.69975,-0.48565c-0.27387,-0.49296 -0.54773,-0.98592 -0.8216,-1.47888l-0.60465,-0.89959c0,0 -0.69337,-1.04006 0.34669,-1.73344z" fill="#7e2e0e" stroke="none" stroke-width="0.5"/><path d="M200.72973,220.94789c0,-0.69036 0.55964,-1.25 1.25,-1.25c0.69036,0 1.25,0.55964 1.25,1.25c0,0.69036 -0.55964,1.25 -1.25,1.25c-0.69036,0 -1.25,-0.55964 -1.25,-1.25z" fill="#7e2e0e" stroke="none" stroke-width="0.5"/><path d="M214.03959,230.80704c0,-0.69036 0.55964,-1.25 1.25,-1.25c0.69036,0 1.25,0.55964 1.25,1.25c0,0.69036 -0.55964,1.25 -1.25,1.25c-0.69036,0 -1.25,-0.55964 -1.25,-1.25z" fill="#7e2e0e" stroke="none" stroke-width="0.5"/><path d="M209.11001,220.45493c0,-0.69036 0.55964,-1.25 1.25,-1.25c0.69036,0 1.25,0.55964 1.25,1.25c0,0.69036 -0.55964,1.25 -1.25,1.25c-0.69036,0 -1.25,-0.55964 -1.25,-1.25z" fill="#7e2e0e" stroke="none" stroke-width="0.5"/><path d="M196.55719,213.45375c0.69036,0 1.25,0.55964 1.25,1.25c0,0.69036 -0.55964,1.25 -1.25,1.25c-0.27326,0 -0.52603,-0.08768 -0.73173,-0.23645c-0.1063,2.27581 -1.01606,3.39632 -2.12662,5.3578l-1.02302,1.08531c0,0 -0.88388,0.88388 -1.76777,0c-0.88388,-0.88388 0,-1.76777 0,-1.76777l0.62017,-0.55788c0.24945,-0.43315 0.49072,-0.80316 0.71139,-1.1479c-0.43752,0.13783 -0.8803,0.25821 -1.32675,0.3592l-0.5998,0.02976c0,0 -1.25,0 -1.25,-1.25c0,-1.25 1.25,-1.25 1.25,-1.25l0.05747,0.02976c0.41458,-0.09018 0.82527,-0.20191 1.2301,-0.33255c-0.03729,-0.00932 -0.07457,-0.01865 -0.11186,-0.02797l-0.84707,0.03733c0,0 -1.25,0 -1.25,-1.25c0,-1.25 1.25,-1.25 1.25,-1.25l1.45341,0.03732c0.43819,0.10954 0.87637,0.2191 1.31456,0.32864c0,0 0.19661,0.04915 0.41171,0.18704c0.17988,-0.13315 0.42633,-0.22437 0.76399,-0.22437c0.34434,0 0.59382,0.09485 0.77457,0.2323c0.15472,-0.51465 0.6322,-0.88958 1.19725,-0.88958z" fill="#7e2e0e" stroke="none" stroke-width="0.5"/><text transform="translate(184.23325,210.61132) scale(0.18712,0.18712)" font-size="40" xml:space="preserve" fill="#7e2e0e" stroke="none" stroke-width="1" font-family="Sans Serif" font-weight="normal" text-anchor="start"><tspan x="0" dy="0">Fliege</tspan></text><text transform="translate(153.01259,228.75411) scale(0.16522,0.16522)" font-size="40" xml:space="preserve" fill="#7e2e0e" stroke="none" stroke-width="1" font-family="Sans Serif" font-weight="normal" text-anchor="start"><tspan x="0" dy="0">MIstkfer</tspan></text><path d="M213.64639,238.46549c0,0 -1.25,0 -1.25,-1.25c0,-1.25 1.25,-1.25 1.25,-1.25c2.30487,0.03987 5.43323,1.47189 7.23302,2.98202c0.63319,0.53128 1.77563,1.11312 1.57525,1.91502c-0.30187,1.20804 -1.66768,1.88487 -2.6991,2.58249c-0.49111,0.33218 -1.15336,0.27549 -1.73003,0.41323l-0.76412,0.02977c0,0 -1.18477,-0.00001 -1.24742,-1.15345c-1.63165,0.34191 -3.22055,0.73713 -4.76633,1.51443c0,0 -1.11803,0.55902 -1.67705,-0.55901c-0.55901,-1.11803 0.55901,-1.67705 0.55901,-1.67705c2.31585,-1.15209 4.68022,-1.56191 7.15936,-2.08918c-1.14627,-0.75539 -2.09328,-1.49826 -3.64259,-1.45828z" fill="#7e2e0e" stroke="none" stroke-width="0.5"/><path d="M242.08399,244.58115c-0.46424,1.1606 -1.62483,0.69636 -1.62483,0.69636l-0.97753,-0.40393c-2.92535,-1.83745 -4.52652,1.29045 -3.91076,3.90175c0,0 0.27116,1.22023 -0.94907,1.4914c-0.56966,0.12659 -0.93248,-0.07185 -1.15742,-0.31945c-0.08113,0.01335 -0.16894,0.02058 -0.26398,0.02058c-1.25,0 -1.25,-1.25 -1.25,-1.25c0,-0.14732 0.00079,-0.2944 0.0023,-0.44123c-0.0023,-0.03295 -0.0023,-0.05173 -0.0023,-0.05173c0.00896,-2.54908 -0.7825,-6.8796 -4.04532,-4.83018l-0.06493,0.12722c0,0 -0.88388,0.88388 -1.76776,0c-0.88388,-0.88388 0,-1.76776 0,-1.76776l0.59235,-0.53006c2.45496,-1.32115 4.30324,-0.91643 5.58148,0.36222c0.02024,-0.57811 0.03283,-1.1582 0.03283,-1.7417v-1.47888c0,0 0,-1.25 1.25,-1.25c1.25,0 1.25,1.25 1.25,1.25v1.47888c0,1.1324 -0.04723,2.25025 -0.10587,3.36528c1.41094,-1.39138 3.57534,-1.83804 6.04882,-0.50692l0.66566,0.25334c0,0 1.16059,0.46424 0.69635,1.62483z" fill="#000000" stroke="none" stroke-width="0.5"/><path d="M313.24017,239.6347c-1.18586,0.39529 -1.58114,-0.79057 -1.58114,-0.79057l-0.1974,-1.97703c-0.38385,0.30587 -0.89741,0.52429 -1.09511,0.97013c-0.18128,0.40882 0.08407,0.89118 0.09515,1.33825c0.03902,1.57391 0.0277,3.14903 0,4.72319c-0.00834,0.47419 -0.20869,0.96963 -0.06415,1.42133c0.13554,0.42354 0.54985,0.70001 0.84843,1.02957c0.62864,0.69384 1.78137,1.8057 2.60871,2.10582c0.05201,0.01887 2.85976,-0.0027 2.98677,0.00644c0.39045,0.02811 0.81426,0.37132 1.15945,0.18669c0.28967,-0.15493 0.13363,-0.64824 0.26577,-0.94899c0.26094,-0.59391 0.49359,-1.2221 0.90758,-1.72152c0.22259,-0.26853 0.78109,-0.17148 0.92497,-0.48921c0.16991,-0.37521 -0.12521,-0.81553 -0.14791,-1.22679c-0.06006,-1.08831 0,-2.17993 0,-3.26989c0,-0.87313 0.48946,-1.79378 0.18669,-2.61273c-0.2889,-0.78143 -1.68048,0.01348 -2.49377,-0.16725c-1.17816,-0.26182 -3.476,-1.75348 -4.12258,-0.15986l0.50912,0.00131c0,0 0.39529,1.18585 -0.79057,1.58113zM313.53796,235.11835c1.38111,-0.37805 2.84838,0.25348 4.68062,0.66065c1.31581,0.2924 2.2067,-0.37441 3.1784,0.30986l0.42595,-1.27785c0.14354,-0.46672 0.553,-0.81697 1.05155,-0.87392c0.22582,-0.73671 0.54198,-1.41878 0.97984,-2.01731c0,-3.62188 0,-7.24377 0,-10.86566c-0.76977,0.00333 -1.53955,0.0006 -2.30932,-0.00029c-0.63015,-0.00072 -1.26341,0.05774 -1.89043,-0.00492c-0.658,-0.06575 -1.35066,-0.09356 -1.94736,-0.37858c-0.72629,-0.34692 -1.17112,-1.16642 -1.91756,-1.46755c-0.5593,-0.22563 -1.23167,0.13881 -1.80894,-0.03578c-0.40347,-0.12203 -0.79602,-0.28027 -1.17762,-0.46382c-0.26828,0.45161 -0.57388,0.88788 -0.71949,1.38783c-0.13915,0.47777 0.02793,0.99489 0.03344,1.49247c0.01486,1.34172 0.02542,2.68385 0,4.02542c-0.01896,1.0003 0.27131,2.07231 -0.10421,2.99965c-0.30384,0.75035 -1.45059,0.91291 -1.77966,1.65254c-0.28863,0.64873 0.16004,1.4206 0.09768,2.1279c-0.07094,0.80478 -0.23442,1.60781 -0.49445,2.37271c-0.03501,0.103 -0.07323,0.2047 -0.11398,0.30536c0.75823,-0.65083 1.56724,-1.2615 1.97827,-1.59087c0,0 0.97609,-0.78087 1.75696,0.19522c0.48215,0.60269 0.29447,1.13094 0.08031,1.44691zM322.45129,244.26199c-0.03078,0.80307 0.16091,1.66448 -0.1479,2.40643c-0.2027,0.48701 -0.91618,0.55974 -1.25496,0.96408c-0.84882,1.01307 -0.34845,2.33162 -1.73323,3.14263c-0.71357,0.4179 -1.64776,0.14768 -2.47377,0.18669c-0.63498,0.02999 -3.4592,-0.01976 -3.75264,-0.12664c-1.15619,-0.42112 -2.8684,-1.80298 -3.73147,-2.84761c-0.48859,-0.59137 -1.08371,-1.15103 -1.3315,-1.877c-0.23827,-0.69807 -0.05348,-1.47437 -0.06415,-2.2119c-0.02277,-1.57423 -0.03124,-3.1491 0,-4.72319c0.00115,-0.05794 0.00089,-0.11625 -0.00045,-0.17485c-0.4228,1.05492 -0.89315,2.15099 -1.43175,2.90292c-0.46403,0.64782 -1.25676,1.01637 -1.70639,1.67426c-0.26119,0.38216 -0.22758,0.89751 -0.35534,1.34241c-0.21359,0.74377 -0.55432,1.4578 -0.66861,2.22315c-0.13772,0.92231 0.23083,1.91756 -0.08093,2.79644c-0.24751,0.69776 -1.00744,1.08549 -1.49402,1.64349c-0.51497,0.59056 -1.05678,1.16235 -1.51005,1.8015c-0.49274,0.69478 -0.81173,1.5044 -1.31947,2.1883c-0.32774,0.44145 -0.77936,0.77575 -1.16904,1.16362c-0.58507,1.11484 -1.10271,2.11063 -1.73371,3.24323c-0.47487,0.85235 -0.73288,1.88352 -1.45464,2.54007c-0.55899,0.50849 -1.64348,0.16879 -2.1448,0.73422c-0.39997,0.45111 0.28327,1.34597 -0.10699,1.80552c-0.68115,0.80211 -1.81163,1.07359 -2.74715,1.55541c-1.27052,0.65435 -2.6472,1.08204 -3.937,1.69751c-0.29931,0.14282 -3.68097,1.91165 -4.02439,2.21833c-0.45887,0.40977 -0.51314,1.21056 -1.04352,1.52227c-0.67416,0.39621 -4.28437,1.02089 -5.19106,1.32369c-0.83608,0.27922 -1.56784,0.86266 -2.43125,1.04021c-0.08567,0.01762 -5.0153,0.04179 -5.25593,0.02649c-1.09023,-0.06933 -2.41875,0.33468 -3.25677,-0.36612c-0.68749,-0.57492 -0.24408,-1.7757 -0.36612,-2.66354c0,0 0,-1.25 1.25,-1.25c1.25,0 1.25,1.25 1.25,1.25c-0.12204,0.29859 -0.65786,0.75816 -0.36612,0.89578c0.46227,0.21805 0.98003,-0.3194 1.489,-0.36612c0.82985,-0.07617 1.66668,-0.00465 2.5,0c0.74806,0.00418 1.51246,0.18257 2.24407,0.02648c0.76797,-0.16385 1.40508,-0.71408 2.14954,-0.96388c0.82531,-0.27692 1.68902,-0.42364 2.53948,-0.60946c0.66236,-0.14472 1.41744,-0.03141 1.99778,-0.38193c0.42246,-0.25518 0.37758,-0.95224 0.74905,-1.27719c0.70774,-0.61909 1.58572,-1.01242 2.40201,-1.47915c1.999,-1.14298 4.12149,-2.03406 6.24676,-2.9101c0.57149,-0.23557 1.35868,-0.18274 1.72499,-0.68066c0.3749,-0.5096 -0.25242,-1.41665 0.16663,-1.89061c0.6046,-0.68383 1.81013,-0.52227 2.49759,-1.12274c0.52098,-0.45506 0.60005,-1.2468 0.91833,-1.86096c0.4765,-0.91947 1.37209,-2.5378 1.9289,-3.54963c0.40128,-0.40309 0.86474,-0.75262 1.20384,-1.20926c0.48584,-0.65423 0.77956,-1.43591 1.25301,-2.09917c0.51308,-0.71877 1.09733,-1.38625 1.69747,-2.03411c0.31173,-0.33652 0.89724,-0.47265 1.03107,-0.91141c0.21444,-0.70304 -0.18215,-1.47555 -0.08094,-2.20356c0.12294,-0.88434 0.48781,-1.71785 0.74496,-2.57287c0.19253,-0.64018 0.24172,-1.35057 0.60398,-1.91241c0.47137,-0.73109 1.31687,-1.15823 1.82913,-1.86127c0.62211,-0.8538 1.53582,-3.42915 1.93007,-4.3226c0.3213,-0.72815 0.76812,-1.40201 1.03387,-2.15221c0.20808,-0.58739 0.31454,-1.21104 0.37713,-1.83104c0.09622,-0.95308 -0.26944,-1.98731 0.09767,-2.8721c0.31024,-0.74773 1.44216,-0.91672 1.77966,-1.65254c0.27836,-0.6069 -0.08874,-1.33284 -0.1042,-2.00035c-0.03106,-1.34145 -0.01249,-2.68367 0,-4.02542c0.00642,-0.68901 -0.1446,-1.40122 0.03344,-2.06686c0.21303,-0.79646 0.81906,-1.44049 1.10615,-2.21272c-0.71688,-0.70882 -1.86901,-1.86429 -1.97181,-1.96708c-1.63324,-1.63324 -3.4195,-3.23217 -4.76866,-5.1222c-0.47346,-0.66325 -0.76864,-1.44386 -1.25302,-2.09917c-0.36837,-0.49836 -1.01744,-0.78274 -1.28893,-1.33983c-1.07502,-2.20591 -0.75547,-4.791 -0.75547,-7.1413c0,-2.72598 -0.00256,-5.45198 0,-8.17796c0.00167,-1.77631 -0.13233,-3.09445 0.36352,-4.80752c0.34223,-1.18233 1.56375,-3.77147 2.17822,-4.84531c0.3541,-0.61881 0.82104,-1.16745 1.18644,-1.77966c0.23947,-0.40122 0.41529,-0.83718 0.62473,-1.25486c0.39319,-0.78418 0.73373,-1.59737 1.18315,-2.35074c0.24423,-0.40941 0.58821,-0.75043 0.88798,-1.1211c1.14628,-1.41745 1.60728,-2.55624 3.43707,-2.98109c0.67119,-0.15584 1.37783,-0.02825 2.06685,-0.03344c2.1746,-0.01638 4.35078,0 6.52543,0c0,0 1.25,0 1.25,1.25c0,1.25 -1.25,1.25 -1.25,1.25c-2.17449,0 -4.351,0.01881 -6.52543,0c-0.49759,-0.00431 -0.99998,-0.10466 -1.49247,-0.03344c-0.92299,0.13348 -1.76974,1.74289 -2.05929,2.1097c-0.20586,0.26079 -0.45161,0.4933 -0.64211,0.76434c0.02647,-0.00162 0.04133,-0.00162 0.04133,-0.00162c4.11017,0 9.40678,0 13.51695,0c1.92449,0 5.30485,-0.58427 7.1309,0.09515c0.52418,0.19504 0.65573,1.00997 1.18644,1.18644c0.71395,0.2374 1.5045,-0.02768 2.25675,-0.04152c0.73664,0.47204 1.51557,0.88381 2.20991,1.41613c0.41638,0.31921 0.67373,0.82098 1.10251,1.12333c0.49736,0.35071 1.25717,0.33292 1.63699,0.80841c0.47272,0.59178 0.15865,1.65304 0.72813,2.15239c0.4077,0.3575 1.16371,-0.3759 1.62426,-0.08967c1.53523,0.95416 2.60736,3.36544 3.04706,5.00309c0.1511,0.56276 0.02918,1.16838 0.11996,1.74396c0.10504,0.66597 1.02484,4.34493 1.08946,4.91927c0.09352,0.83119 0.00601,1.67285 0.00746,2.50928c0.00135,0.77597 0.01932,4.35547 -0.1042,4.65219c-0.31113,0.74735 -1.44216,0.91672 -1.77966,1.65255c-0.27836,0.6069 0.08516,1.33293 0.1042,2.00035c0.02261,0.79275 -0.02405,4.4167 -0.08891,4.61554c-0.21751,0.6668 -1.00646,0.99191 -1.39228,1.57763c-1.12448,1.70711 -0.92019,2.69413 -2.44425,4.18224c-0.63036,0.61549 -1.46714,0.97581 -2.20072,1.46372c-0.78555,0.1427 -1.58688,0.21622 -2.35667,0.4281c-0.82481,0.22702 -1.57269,0.70595 -2.40949,0.88377c-0.80684,0.17145 -1.66662,-0.03468 -2.46983,0.15304c-0.82414,0.19262 -1.51487,0.80979 -2.34545,0.97241c-0.1027,0.02011 -0.20585,0.03588 -0.30936,0.04805c0,3.28267 0,6.56535 0,9.84802c0.0854,0.07684 0.16837,0.1724 0.24689,0.29019c0.55685,0.83527 -0.00432,1.44695 -0.24689,1.65544c0,0.1049 0,0.20981 0,0.31471c1.60436,-0.05928 3.42399,-0.24367 4.89305,0.03903c0.80675,0.15525 2.13395,0.73484 3.10359,1.43476c0.38242,-2.53869 1.3179,-4.5029 3.35268,-6.84772c0.42962,-0.49508 0.44495,-1.35132 1.00657,-1.68934c3.42195,-2.05955 9.43025,0.99905 11.48091,3.60232c2.93,3.7196 1.76001,9.83592 1.36385,14.23557c-0.50937,1.54485 -1.08987,3.06763 -1.53658,4.63175c-0.37851,1.32532 -0.59233,2.69224 -0.89537,4.03682c-0.19768,0.87707 -0.30291,1.78111 -0.60037,2.62955c-0.4325,1.23356 -1.52358,2.15577 -2.00093,3.37268c-0.30068,0.76653 -0.24912,1.63887 -0.53157,2.4123c-0.05556,0.15215 -2.22636,4.21148 -2.30342,4.36996c-0.36633,0.75339 -0.65323,1.54377 -1.02118,2.29637c-0.61973,1.26756 -1.36028,2.47253 -2.05915,3.69824c-0.22152,0.38851 -0.41349,0.79857 -0.62182,1.19708c0.56525,0.54436 1.21561,1.33825 1.61504,1.8065c0.43377,-0.03171 0.86753,-0.06343 1.3013,-0.09515h2.37288c0,0 1.25,0 1.25,1.25c0,1.25 -1.25,1.25 -1.25,1.25h-2.37288c-0.75267,-0.03171 -1.50534,-0.06344 -2.25802,-0.09515c-0.53066,-0.4858 -1.07432,-0.95776 -1.59197,-1.45741c-0.22139,-0.2137 -0.3961,-0.48318 -0.60506,-0.70941c-2.22658,1.91472 -5.69574,2.71749 -8.1658,0.87717c-0.5884,-0.43839 -1.22554,-0.92768 -1.50554,-1.60591c-0.31283,-0.75774 -0.09384,-1.63724 -0.17034,-2.45344c-0.07844,-0.83681 -0.19624,-1.66946 -0.29435,-2.50419c-0.00155,-1.85058 -0.00221,-3.70117 -0.00239,-5.55175c-0.04972,-0.05049 -0.09328,-0.10547 -0.12793,-0.16685c-0.34947,-0.61905 -0.42495,-1.35687 -0.62421,-2.03925c-0.24978,-0.85541 -0.576,-1.69487 -0.72282,-2.57384c-0.10028,-0.60034 -0.02522,-1.2174 -0.01208,-1.82591c0.01456,-0.67447 0.31241,-1.38296 0.09515,-2.02165c-0.18012,-0.52949 -0.98489,-0.66473 -1.18644,-1.18644c-0.25623,-0.66323 -0.09671,-1.41989 -0.09515,-2.1309c0.00146,-0.66769 0.38256,-1.39345 0.1042,-2.00035c-0.3375,-0.73583 -1.47581,-0.9022 -1.77966,-1.65255c-0.02277,-0.05623 -0.0431,-0.113 -0.06119,-0.17025c-0.02756,-0.01405 -0.05533,-0.02846 -0.08332,-0.04324c-1.59385,-0.84189 -1.30727,-3.00257 -1.31948,-4.33321c-0.00405,-0.44187 -0.01889,-0.90413 -0.0376,-1.38044c0.00977,0.82369 0.02588,1.6475 -0.00565,2.4704zM327.88536,241.37497c0.79034,0.03706 1.68503,0.05141 2.36622,0.02412c0.47024,-0.6175 1.17931,-1.05066 1.67241,-1.65837c0.55443,-0.6833 0.97292,-1.46386 1.40777,-2.23304c-0.01018,-0.25958 -0.06356,-0.49201 -0.16892,-0.67975c-0.9744,-1.73636 -4.69997,-1.2962 -6.80852,-1.15876c0,0.8415 0,1.683 0,2.5245c0,0.02167 0.00001,0.04335 0.00002,0.06502c0.68125,0.96466 1.24589,2.00295 1.53102,3.11629zM332.16424,243.60371c-0.1046,0.03979 -0.21354,0.07675 -0.32645,0.11088c-0.43611,1.19801 -0.09094,2.2265 -0.31909,3.65099c-0.13103,0.81807 -0.56153,1.57005 -0.68458,2.38936c-0.11521,0.76708 -0.01962,1.55126 -0.02376,2.32693c-0.00205,0.38503 -0.0023,4.60993 -0.00237,4.99044c-0.00032,1.76847 -0.00014,3.53696 -0.00018,5.30543c0.31742,0.25125 0.66524,0.47837 0.79033,0.84603c0.25477,0.74881 -0.29422,1.63868 0,2.37288c0.25095,0.62622 1.00772,0.89757 1.4968,1.36224c0.40954,0.38909 0.79889,0.79889 1.19834,1.19833c0.58925,0.58926 1.18256,1.17449 1.76776,1.76776c0.51916,0.52632 0.92804,1.184 1.54524,1.59094c0.03497,0.02306 0.07082,0.04431 0.10744,0.06399c0.25887,-0.45294 0.46105,-0.94444 0.7154,-1.40042c0.40486,-0.7258 0.80878,-1.45213 1.21351,-2.178c0.26192,-0.46974 0.55063,-0.92547 0.78643,-1.40885c0.36344,-0.74501 0.64683,-1.52731 1.00952,-2.27269c0.3709,-0.76226 0.79141,-1.49937 1.18996,-2.24754c0.33668,-0.63202 0.77335,-1.21919 1.01572,-1.89303c0.28541,-0.79351 0.24028,-1.68551 0.55309,-2.46863c0.33351,-0.83492 0.904,-1.55441 1.36273,-2.32764c0.20826,-0.35103 0.50662,-0.65867 0.63819,-1.04505c0.24743,-0.72665 0.3202,-1.5015 0.48428,-2.25139c0.30379,-1.3884 0.53694,-2.79503 0.92656,-4.16183c0.07892,-0.27686 1.40438,-4.19453 1.49784,-4.47153c0.23231,-2.78305 1.09808,-7.38398 0.32704,-10.09209c-0.80717,-2.83504 -3.96362,-4.94644 -6.79672,-4.92538c-0.87311,0.00649 -1.94061,-0.74401 -2.61273,-0.18669c-0.3327,0.27588 -0.17868,0.87817 -0.44671,1.21723c-1.08486,1.37233 -1.79146,2.47592 -2.24086,3.65491c0.35998,-0.27328 0.67474,-0.48225 0.89001,-0.5752c0.22666,-0.09787 4.00539,-0.07046 4.04698,-0.07046c0,0 1.25,0 1.25,1.25c0,1.25 -1.25,1.25 -1.25,1.25c-0.72665,0 -1.45346,0.0159 -2.17993,0c-0.34722,-0.0076 -0.7247,-0.2171 -1.03953,-0.07047c-0.55743,0.25963 -0.94532,0.78757 -1.39671,1.20516c-0.33952,0.31409 -0.69682,0.61517 -1.01238,0.95275c-0.0171,0.43177 -0.02456,0.89162 -0.02456,1.38574v0.72664c0,0 0,1.25 -1.25,1.25c-0.07667,0 -0.14863,-0.0047 -0.21619,-0.01353c-0.68694,1.4712 -1.80619,2.74123 -2.99041,3.19175zM327.99937,243.93497c-0.0299,0.17421 -0.06788,0.34996 -0.1144,0.52725c-0.25959,0.98936 -0.52862,2.13209 -1.09681,2.84184c0.46076,0.32497 1.0382,0.56558 1.24162,1.06792c0.37552,0.92734 0.10203,1.99916 0.1042,2.99964c0.00085,0.39268 -0.25993,0.81776 -0.09515,1.17419c0.06029,0.13043 0.15706,0.23686 0.27037,0.33209c0.00032,-0.44934 0.00073,-0.76434 0.00125,-0.81558c0.00903,-0.89095 -0.07759,-1.79077 0.05049,-2.67252c0.12049,-0.82946 0.55646,-1.59064 0.68903,-2.41826c0.13166,-0.8219 -0.05941,-1.67786 0.09803,-2.49523c0.0292,-0.15163 0.05969,-0.30382 0.09226,-0.45595c-0.40445,-0.00743 -0.82054,-0.03588 -1.24088,-0.0854zM330.80554,268.72151c0.09715,0.82046 0.23889,1.63685 0.29146,2.46137c0.03494,0.54789 -0.18262,1.11953 -0.02952,1.64675c0.08232,0.28349 0.42711,0.41277 0.67438,0.57402c0.86816,0.56615 1.25528,0.71857 2.33878,0.50684c0.64471,-0.12598 1.26748,-0.31952 1.83342,-0.61707c-0.91111,-0.88179 -3.17212,-3.15198 -3.38855,-3.36841c-0.2876,-0.28761 -1.02219,-1.01624 -1.71955,-1.72548c-0.00014,0.17399 -0.00027,0.348 -0.00043,0.522zM313.83041,192.37316c-0.45878,0 -0.85983,-0.24716 -1.07727,-0.61558l-0.01648,-0.00942l-0.00894,-0.03579c-0.08727,-0.16298 -0.13947,-0.34756 -0.14649,-0.54364l-0.20408,-0.04535l-0.03115,-0.01558l-0.006,-0.0015h-0.22918l-0.06411,0.04809l-0.15204,0.06401l-0.02823,0.02039l-0.07982,0.19957l-0.08821,0.12214l-0.05522,0.14017l-0.20998,0.29398l-0.099,0.54446l-0.02584,0.05713l-0.00209,0.06266l-0.1388,0.4858l-0.11119,0.50035v0.53689l0.00152,0.002l-0.00152,0.00939v0.13423l-0.06101,0.24404l-0.04006,0.24835l-0.05288,0.12338l-0.00231,0.00923l-0.00218,0.00124l-0.06513,0.15197v0.20741h0.09138l0.625,0.15625l0.625,1.09375l-0.625,1.09375l-0.02853,0.00713l0.02415,0.03091l0.22745,0.51175l0.22496,0.26995l0.35776,0.35776l0.4939,0.27439l0.00986,0.00493h1.25916l0.32283,-0.37663l0.36705,-0.44046l0.12962,-0.09473l0.10411,-0.12221l0.16627,-0.11876l0.02052,-0.07184l-0.0049,-0.01794l0.17013,-0.28355l0.05421,-0.09397l0.08718,-0.30512l0.01391,-0.02411l0.00214,-0.02777l0.15941,-0.47825v-1.93223l-0.10094,-0.35332l-0.00581,-0.17425l-0.04229,-0.16915v-0.09524l-0.20585,-0.61754l-0.18383,-0.36767l-0.01151,-0.05178l-0.03106,-0.043l-0.07742,-0.19354l-0.07724,-0.06579l-0.31248,-0.43747l-0.05479,-0.05479c-0.21329,0.16935 -0.48317,0.27051 -0.77667,0.27051zM312.53718,188.56557l-0.00153,-0.00306l-0.00611,-0.02751l-0.02365,-0.09461v-0.01183l-0.11928,-0.53674l0.00362,-0.13761l-0.03339,-0.13355v-0.35425l-0.17952,-0.65823l-0.00355,-0.16692l-0.0405,-0.16197v-0.49562l-0.10094,-0.35331l-0.00127,-0.03812l-0.01705,-0.03411l-0.12887,-0.57991l-0.33922,-0.88199l-0.00355,-0.02889l-0.01562,-0.02456l-0.29808,-0.89425l-0.00503,-0.06543l-0.02935,-0.05869l-0.04807,-0.2163l-0.10228,0.02922l-0.17426,0.00581l-0.16914,0.04228h-0.34678l-0.38754,0.2153l-0.11303,0.03033l-0.09874,0.06283l-0.44712,0.14904l-0.00696,0.00053l-0.14042,0.13458l-0.1352,0.18719l-0.07038,0.00982l-0.09284,0.08898l-0.21862,0.12492l-0.20311,0.36559l-0.00529,0.00566l-0.00209,0.00746l-0.13339,0.23343v0.04065l-0.04874,0.19494l-0.01541,0.20035l-0.0849,0.25469v2.028l0.25986,-0.05775l0.27864,-0.06966h0.03483l0.03505,-0.00779l0.01168,0.00779h0.44009l0.12815,0.03204l0.06707,-0.02655l0.2079,0.09529l0.22188,0.05547l0.03579,0.06262l0.12008,0.05504l0.3563,0.28503l0.01884,0.00263l0.1906,0.26391l0.1973,0.25896l-0.00295,0.01879l0.14128,0.35321l0.03198,0.23457l0.05742,0.22967v0.06014l0.04821,-0.0203l0.16952,-0.10788l0.22356,-0.07452l0.20034,-0.01542l0.19494,-0.04873h0.72902zM308.4649,193.86357h-0.52165l-0.00689,-0.00172l-0.01991,0.01116l-0.29701,-0.0904l-0.30119,-0.0753l-0.01132,-0.01981l-0.0068,-0.00207l-0.3726,-0.22357l-0.44185,-0.44185l-0.00879,-0.00502l-0.00125,-0.00502l-0.00366,-0.00366l0.00021,-0.01011l-0.15156,-0.60621v-0.11085l-0.12887,-0.70884l0.00114,-0.01743l-0.00677,-0.0161l-0.14904,-0.96877l0.00892,-0.09628l-0.02345,-0.0938v-0.27702l-0.02943,-0.19128l-0.7326,0.1332l-0.11337,-0.0074l-0.06956,0.01739l-0.09199,0.03874l-0.11169,0.08726l-0.67069,0.29809l-0.00905,0.00159l-0.084,0.14701l-0.11552,0.12055l-0.0859,0.14316l-0.03067,0.03068l-0.05034,0.08809v0.89671l0.12454,0.68496l0.14378,0.64701l-0.00362,0.13761l0.03339,0.13355v0.25088l0.26056,0.57323l0.01698,0.09245l0.04697,0.08141l0.06006,0.2102l0.14356,0.14357l0.06406,0.10676l0.09212,0.08375l0.28345,0.42517l0.10115,0.0578l0.35202,0.07823h0.55009l0.9138,-0.19582l0.1329,0.00451l0.12901,-0.03226h1.06015v-0.39288l-0.00151,-0.00201l0.00151,-0.00939v-0.13423l0.06101,-0.24405l0.04005,-0.24835l0.05288,-0.12337l0.00231,-0.00923l0.00218,-0.00124l0.06513,-0.15198v-0.23025zM308.56525,197.96223l-0.36037,0.2002l-0.00923,0.01615l-0.32079,0.0802l-0.31938,0.08568l-0.01591,-0.00964h-0.20431l-0.38652,0.08589l-0.05964,0.02982l-0.67713,0.50784l-0.19895,0.24869l-0.00562,0.00428l-0.00302,0.00639l-0.56418,0.68955l-0.42012,0.94528v1.10892l0.19034,0.42828l0.0153,0.08741l0.04434,0.07686l0.08975,0.31413l0.05582,0.07815l0.02783,0.02371l0.00344,0.00172l0.22877,0.19609l0.22938,0.19539l0.00224,0.00313l0.02875,0.02465l0.00094,0.01693l0.1995,0.27931l0.58973,0.37529l0.49582,0.28332l0.07608,0.07291l0.09529,0.04495l0.67093,0.54894l0.07727,0.03091l0.58504,0.10637h0.82808l0.19568,-0.13977l0.1185,-0.04668l0.10037,-0.07842l0.22644,-0.10064v-1.36532l0.04529,-0.18115l0.00999,-0.18646l0.29438,-0.95671l0.24347,-0.85218l-0.0064,-0.01141l0.0904,-0.29701l0.02165,-0.0866l-0.03411,-0.0319l-0.14951,-0.08971l-0.52165,-0.52164l-0.02973,-0.04955l-0.04666,-0.0341l-0.3726,-0.44712l-0.07532,-0.15602l-0.10667,-0.13653l-0.20382,-0.4586l-0.20849,-0.20849l-0.01588,-0.02647l-0.03235,-0.01003l-0.1317,-0.2634l-0.15151,-0.25252l0.00891,-0.03268l-0.0138,-0.02762l-0.03089,-0.13897zM313.66451,203.56815l-0.05274,0.21093l-0.02253,0.21625l-0.29808,0.81973l-0.04086,0.06054l-0.01584,0.0713l-0.14905,0.29809l-0.08102,0.09453l-0.05032,0.11388l-0.25834,0.33215v0.2385l0.07824,0.62592l0.02144,0.02813l0.05194,0.01275l0.13166,0.22822l0.15968,0.20958l-0.00829,0.05283l0.03888,0.06741l0.11713,0.40994l0.37193,0.74387l0.00874,0.00214l0.16524,0.28642l0.17013,0.28355l-0.00489,0.01794l0.06956,0.24346l0.42362,0.51776l0.26958,0.21566l0.08442,0.1108l0.1108,0.08442l0.15276,0.19096l0.49521,0.28887l0.11885,0.01981h1.80516l0.69547,-0.11591l0.35408,-0.11803l0.20034,-0.01541l0.19494,-0.04873h0.09276l0.27072,-0.21056l0.27349,-0.27349l0.46769,-0.57162l0.0781,-0.27336l0.09673,-0.16767l0.06511,-0.1823l0.14081,-0.21122l0.09638,-0.67467v-1.02053l-0.13808,-1.03557l0.00943,-0.0836l-0.0204,-0.08161v-0.68182l-0.45147,-1.28991l-0.00909,-0.09887l-0.04093,-0.09046l-0.13315,-0.73233l-0.08903,-0.26711l-0.51326,-0.07332l-0.15277,-0.06224l-0.16285,-0.02626l-0.52164,-0.22357l-0.02992,-0.02274l-0.0367,-0.00816l-0.29808,-0.14904l-0.02697,-0.02312l-0.03419,-0.00961l-0.52165,-0.29809l-0.09285,-0.08897l-0.07038,-0.00983l-0.13519,-0.18718l-0.16671,-0.15976v-0.07107l-0.07529,-0.10425l-0.12125,-0.30313l-0.06684,-0.05093l-0.22993,-0.28741l-0.06934,0.08321l-0.00721,0.00527l-0.004,0.00799l-0.44712,0.52165l-0.14012,0.09944l-0.11558,0.12713l-0.22357,0.14904l-0.07438,0.02657l-0.05997,0.05141l-0.22513,0.11257l-0.00697,0.01219l-0.03483,0.00871l-0.03115,0.01558l-0.28037,0.0623l-0.27864,0.06966h-0.03483l-0.03505,0.00778l-0.01168,-0.00778h-0.6805zM318.0781,197.84689l0.14928,0.03732h0.15389l0.89425,0.22356l0.17249,0.09199l0.08771,-0.00605l0.14059,0.12781l0.16766,0.08942l0.0238,0.08463l0.14465,0.1315l0.01498,0.02248l0.06048,0.0242l0.0188,-0.00295l0.25895,0.19729l0.26391,0.19061l0.00263,0.01884l0.28503,0.3563l0.02864,0.06247l0.04985,0.0473l0.24809,0.38987h0.60885l0.3272,-0.09349l0.42136,-0.14046l0.20035,-0.01541l0.19494,-0.04873h0.11603l0.28582,-0.1225l0.05237,-0.00845l0.04475,-0.02848l1.2571,-0.41903l0.36767,-0.18384l0.05177,-0.0115l0.043,-0.03105l0.37261,-0.14905l0.23457,-0.03199l0.16946,-0.04237l0.24544,-0.14025l0.00951,-0.01663l0.13336,-0.03335l0.57105,-0.57104l0.05151,-0.18031l-0.00489,-0.01795l0.11438,-0.19064v-0.71679l-0.07964,-0.1115l-0.67343,-0.67342l-0.26184,-0.18703l-0.31412,-0.08975l-0.02412,-0.01391l-0.02777,-0.00214l-0.44712,-0.14905l-0.14085,-0.08964l-0.15724,-0.05615l-0.08428,-0.05618l-0.4981,-0.16603l-0.94281,-0.2901l-0.34118,-0.09748h-2.15579l-0.47825,0.15941l-0.20035,0.01541l-0.19494,0.04874h-0.51681l-0.1488,0.0372h-0.15388l-0.14929,0.03732h-0.59617l-0.31494,-0.07873v1.8841l-0.04874,0.19494l-0.01541,0.20035l-0.19678,0.59034zM318.00185,192.6461l0.04742,-0.08299l0.15582,-0.03896l0.13772,-0.08263l0.09222,0.02515l0.23924,-0.05981h0.22357l0.00599,-0.0015l0.03116,-0.01558l0.22535,-0.05008l0.2122,-0.12731l0.0068,-0.00207l0.01132,-0.01981l0.29982,-0.07496l0.36136,-0.20649l0.0095,-0.01664l0.13337,-0.03334l1.17406,-1.17406l0.27571,-0.386l0.26671,-0.46673l0.04454,-0.04648l0.0236,-0.05989l0.35316,-0.49442l0.50369,-0.7915l0.09987,-0.09475l0.07083,-0.11804l0.06905,-0.06905l0.06006,-0.21021l0.03251,-0.05636l0.00879,-0.06448l0.05964,-0.1491v-0.95161l-0.0015,-0.00599l-0.01557,-0.03116l-0.01666,-0.07499l-0.12179,-0.12179l-0.03621,-0.06036l-0.05599,-0.04266l-0.01187,-0.01484l-0.0927,-0.0206l-0.03116,-0.01558l-0.03483,-0.0087l-0.00696,-0.01219l-0.17863,-0.08931l-0.32433,-0.12974l-0.043,-0.03105l-0.05178,-0.0115l-0.16069,-0.08034l-0.19165,-0.02614l-0.14909,-0.05964h-1.67965l-0.10082,0.04033l-0.33101,0.1655l-0.15881,0.10587l-0.15724,0.05616l-0.14086,0.08964l-0.41228,0.13743l-0.1987,0.07948l-0.39913,0.28509l-0.09225,0.03634l-0.07528,0.06453l-0.21037,0.10518l-0.2554,0.18243l-0.171,0.2565l-0.16708,0.15189l-0.14643,0.1719l-0.40217,0.28726l-0.27498,0.49496l-0.07243,0.07743l-0.04417,0.09639l-0.28589,0.35736l-0.16516,0.2202l-0.13813,0.24173l0.31943,0.25555l0.1167,0.15318l0.14249,0.12953l0.08039,0.12058l0.21056,0.21056l0.05375,0.08959l0.07953,0.06775l0.31248,0.43746l0.07589,0.07589l0.12943,0.21571l0.14729,0.20394l0.04985,0.12463l0.00489,0.00816l-0.00066,0.00242l0.07565,0.18913l0.20031,0.40062l0.01952,0.08783l0.0483,0.07591l0.10721,0.32163zM314.73503,186.4387l0.14904,-0.14904l0.08959,-0.05375l0.06775,-0.07953l0.33522,-0.23944l0.171,-0.2565l0.16709,-0.1519l0.14643,-0.17189l0.52165,-0.37261l0.09225,-0.03634l0.07528,-0.06453l0.21036,-0.10518l0.44184,-0.3156l0.14017,-0.05522l0.12213,-0.08821l0.37261,-0.14904l0.03724,-0.00508l0.03171,-0.02018l0.28832,-0.0961l0.08428,-0.05618l0.07439,-0.02657l0.05998,-0.05141l0.44712,-0.22356l0.05178,-0.0115l0.043,-0.03106l0.3726,-0.14904l0.23457,-0.03199l0.22967,-0.05742h2.16111l0.22967,0.05742l0.23456,0.03199l0.30191,0.12076l0.03414,0.00854l0.28037,0.0623l0.03116,0.01557l0.03483,0.00871l0.00697,0.01219l0.17863,0.08931l0.32433,0.12973l0.043,0.03105l0.05178,0.01151l0.10567,0.05284l0.22913,0.05728l0.09146,-0.01435l0.0727,0.05539l0.08866,0.02217l0.04593,0.08038l0.30515,0.2325l0.25484,0.31855l0.01256,0.01256l0.12058,0.08039l0.35242,0.38765l0.04796,0.02741l0.00874,0.03496l0.02424,0.02667l-0.0038,0.05511l0.09131,0.36522l0.01637,0.03272l0.01219,0.00697l0.00871,0.03483l0.01558,0.03115l0.0623,0.28038l0.06966,0.27864v0.03483l0.00779,0.03504l-0.00779,0.01168v1.40886l-0.05742,0.22967l-0.03199,0.23456l-0.12529,0.31325l-0.12294,0.43028l0.0049,0.01794l-0.17013,0.28355l-0.16524,0.28642l-0.01806,0.00444l-0.17908,0.17907l-0.44798,0.70397l-0.02486,0.02358l-0.01255,0.03187l-0.33585,0.47019l-0.26671,0.46673l-0.04454,0.04648l-0.0236,0.05989l-0.3726,0.52164l-0.04322,0.03682l0.16397,0.04099l0.17426,0.00581l0.52165,0.14904l0.01124,0.00648l0.01297,0.00069l0.96877,0.29809l0.01279,0.00773l0.0149,0.00114l0.67068,0.22356l0.14086,0.08964l0.15723,0.05615l0.08428,0.05618l0.26256,0.08752l0.49553,0.14158l0.18473,0.10658l0.19842,0.07816l0.52165,0.37261l0.06775,0.07953l0.08958,0.05375l0.81973,0.81973l0.05375,0.08958l0.07953,0.06775l0.37261,0.52164l0.02938,0.07458l0.04721,0.02697l0.06353,0.25413l0.09601,0.24372l-0.02273,0.04939l0.01944,0.07776v1.49041l-0.05981,0.23924l0.02515,0.09222l-0.08264,0.13772l-0.03895,0.15582l-0.08299,0.04743l-0.01779,0.02965l-0.08061,0.28212l0.0049,0.01794l-0.17013,0.28355l-0.16524,0.28642l-0.01806,0.00444l-1.02131,1.02131l-0.21146,0.12688l-0.04743,0.08299l-0.15581,0.03895l-0.13773,0.08264l-0.05949,-0.01623l-0.30815,0.17608l-0.0095,0.01664l-0.31372,0.07842l-0.31128,0.08755l-0.01651,-0.00972h-0.04084l-0.10082,0.04032l-0.40062,0.20031l-0.08783,0.01952l-0.07591,0.0483l-1.29206,0.43068l-0.34,0.14572l-0.00125,0.00218l-0.00923,0.00231l-0.12337,0.05287l-0.24835,0.04006l-0.24405,0.06101h-0.13423l-0.00939,0.00151l-0.002,-0.00151h-0.02414l-0.25469,0.08489l-0.02776,0.00214l-0.02412,0.01392l-0.52165,0.14904l-0.11377,0.00379l0.08839,0.48614l0.4892,1.39772l0.01923,0.20916l0.05095,0.20378v0.81128l0.13808,1.03557l-0.00943,0.08359l0.0204,0.08161v1.19234l-0.02182,0.08729l0.00926,0.08949l-0.13474,0.94318l0.005,0.01001l-0.01072,0.03002l-0.00858,0.06008l-0.10435,0.25614l-0.09303,0.26046l-0.03366,0.0505l-0.01202,0.02953l-0.0104,0.00412l-0.13375,0.20063l-0.05617,0.19659l0.00112,0.00292l-0.00495,0.01048l-0.03544,0.12403l-0.12648,0.21924l-0.10798,0.22891l-0.08168,0.09984l-0.0058,0.01004l-0.00303,0.00075l-0.00244,0.00297c0.21648,0.00721 0.43281,0.01828 0.64896,0.0344c1.0894,0.08124 2.48431,-0.40635 3.25677,0.36611c0.77246,0.77246 0.29522,2.16664 0.36611,3.25677c0.08796,1.35254 0.02913,2.70985 0.00724,4.06596c0.72087,-0.21147 1.34326,-0.7362 2.07842,-0.90814c0.8197,-0.19171 1.69656,0.01021 2.5201,-0.16425c0.79358,-0.16812 1.49675,-0.63911 2.27937,-0.8525c0.6776,-0.18475 1.38668,-0.22409 2.08002,-0.33613c0.45287,-0.30306 0.98017,-0.5171 1.35861,-0.90917c0.93624,-0.96996 1.47107,-2.82222 2.1647,-3.84922c0.28849,-0.42714 0.95538,-0.57957 1.11741,-1.06887c0.21366,-0.6452 -0.07253,-1.35755 -0.08891,-2.037c-0.0197,-0.81742 0.01665,-4.43599 0.1042,-4.65219c0.30385,-0.75034 1.43221,-0.92137 1.77966,-1.65255c0.26842,-0.56485 -0.08637,-1.24811 -0.1042,-1.87323c-0.01691,-0.59298 -0.0011,-1.18645 0,-1.77967c0.00139,-0.7455 0.09106,-1.49569 0.00747,-2.23649c-0.18545,-1.64342 -0.82233,-3.20892 -1.07984,-4.8426c-0.08031,-0.50947 0.04094,-1.04453 -0.08362,-1.54502c-0.08767,-0.35229 -1.07898,-2.99201 -1.69871,-3.30199c-0.5775,-0.28886 -1.44112,0.32622 -1.93507,-0.08967c-0.69712,-0.58694 -0.55903,-1.77879 -1.12883,-2.48998c-0.27953,-0.3489 -0.88321,-0.22844 -1.25182,-0.48141c-0.48973,-0.3361 -0.81606,-0.86694 -1.27038,-1.24955c-0.42175,-0.35519 -0.89961,-0.63783 -1.3494,-0.95675c-0.82967,-0.01384 -1.70199,0.22142 -2.48901,-0.04152c-0.53047,-0.17723 -0.67426,-0.96176 -1.18644,-1.18644c-1.26127,-0.55327 -4.79142,0.09515 -6.17419,0.09515c-3.25907,0 -6.51815,0 -9.77722,0l0.28399,0.071l0.07223,0.1264l0.14275,0.02855l0.34587,0.54351l0.03986,0.11959l0.07901,0.02448l0.07772,0.15543l0.11689,0.12859l-0.00637,0.09246l0.09987,0.19975l0.13505,0.60774l0.26871,0.80614l0.36241,0.94227l0.01147,0.0934l0.04208,0.08416l0.14095,0.63429l0.1388,0.4858l0.00581,0.17426l0.04228,0.16915v0.50329l0.09307,0.34126zM312.05922,210.73007l-0.00303,-0.00074l-0.00579,-0.01004l-0.08169,-0.09984l-0.10798,-0.22891l-0.12648,-0.21923l-0.03544,-0.12404l-0.00495,-0.01048l0.00111,-0.00292l-0.04865,-0.1703l-0.12629,-0.14734l-0.52165,-1.04329l-0.02539,-0.11425l-0.05848,-0.10137l-0.03947,-0.13813l-0.06115,-0.04891l-0.14032,-0.18417l-0.08659,-0.03608l-0.06104,-0.1577l-0.10248,-0.1345l0.01453,-0.09268l-0.04796,-0.1239l-0.06386,0.01597l-0.24372,0.09601l-0.04939,-0.02274l-0.07776,0.01944h-1.34137l-0.11023,-0.02756l-0.11337,0.0074l-0.81973,-0.14905l-0.11527,-0.05214l-0.12536,-0.0171l-0.3726,-0.14905l-0.15471,-0.11173l-0.1726,-0.08141l-0.73896,-0.60461l-0.43104,-0.24631l-0.02201,-0.02109l-0.02892,-0.00964l-0.81973,-0.52165l-0.16432,-0.1732l-0.18175,-0.15483l-0.18126,-0.25377l-0.02783,-0.02371l-0.00344,-0.00172l-0.22877,-0.19609l-0.22938,-0.19539l-0.00224,-0.00313l-0.02875,-0.02464l-0.00094,-0.01692l-0.28605,-0.40048c0.0567,0.44796 0.17137,0.88996 0.39504,1.32178c0.22957,0.4432 0.78547,0.633 1.08395,1.03305c0.50935,0.68269 0.82672,1.49351 1.31946,2.18829c1.25542,1.77023 2.97447,3.27883 4.49948,4.80383c0.08356,0.08356 0.16721,0.16703 0.25089,0.25047c0,-0.70265 0,-1.72757 0,-1.72757c0,-0.43412 0.15077,-0.71748 0.34758,-0.90242c0.18494,-0.19681 0.4683,-0.34758 0.90242,-0.34758c0.03243,0 0.06486,0 0.0973,0zM303.22398,198.73825l0.10327,-0.13218l0.07155,-0.15169l0.59555,-0.72791l-0.32651,-0.18658l-0.01401,0.00097l-0.02656,-0.02415l-0.03024,-0.01728l-0.20736,-0.19873l-0.17042,-0.15493c-0.00018,0.53471 -0.00034,1.06941 -0.00044,1.60411zM303.72937,187.95173l0.18497,-0.13872l0.09406,-0.03961l0.03094,-0.05414l0.24039,-0.0601l0.22836,-0.09615l0.05724,0.02475l0.09901,-0.02475h0.25989l0.72574,-0.13196v-2.64217l0.04873,-0.19494l0.01541,-0.20034l0.0849,-0.25469v-0.15325l-0.00973,-0.0165l0.08755,-0.31129l0.07843,-0.31371l0.01663,-0.00951l0.28616,-0.50077l0.36894,-0.66411l0.0074,-0.0079v-0.0246l0.22234,-0.21308l0.21038,-0.22489l0.0246,-0.0003l0.00781,-0.00749l0.16078,-0.09188l0.20749,-0.28728l0.02117,-0.08619l0.07042,-0.04063l0.04761,-0.06591l0.0879,-0.01227l0.3521,-0.20313l0.49553,-0.14158l0.31114,-0.10372l0.54196,-0.30109l0.00923,-0.01615l0.3208,-0.0802l0.31938,-0.08568l0.01591,0.00964h0.46454l0.22326,-0.06379c-0.35604,0 -0.71209,0 -1.06813,0h-1.18644c0,0 -0.69468,0.00001 -1.0483,-0.51787c-0.04536,0.0948 -0.09128,0.1893 -0.13814,0.28329c-0.23158,0.46451 -0.43332,0.94547 -0.69852,1.39165c-0.36428,0.61288 -0.83078,1.16174 -1.18644,1.77966c-0.49792,0.86504 -1.64323,3.28622 -1.9324,4.26213c-0.08071,0.27241 -0.14007,0.54538 -0.18337,0.81896zM308.48176,189.55578l-0.01315,0.00329l0.01315,0.08543zM314.59839,216.74452c0.65276,0.1738 1.39633,-0.14865 2.024,0.10103c0.80081,0.31855 1.31984,1.13092 2.08243,1.53245c0.34955,0.18405 0.77699,0.15633 1.17128,0.18074c1.32354,0.08193 2.65208,-0.00907 3.97821,-0.00518c0,-0.57194 0,-1.1439 0,-1.71584c0,-0.79096 -0.07465,-1.58545 0,-2.37288c0.04824,-0.50884 0.72754,-1.12758 0.36612,-1.489c-0.36142,-0.36141 -0.98132,0.30695 -1.489,0.36612c-0.54715,0.06376 -1.1017,0 -1.65254,0c-2.59181,0 -5.18361,0 -7.77542,0v1.12288c-0.00005,0.19711 0.01013,0.94543 0.00108,1.69932c0.40731,0.24765 0.83758,0.45888 1.29384,0.58035z" fill="#000000" stroke="none" stroke-width="0.5"/><path d="M334.48416,243.89867c0,-0.69036 0.55964,-1.25 1.25,-1.25c0.69036,0 1.25,0.55964 1.25,1.25c0,0.69036 -0.55964,1.25 -1.25,1.25c-0.69036,0 -1.25,-0.55964 -1.25,-1.25z" fill="#000000" stroke="none" stroke-width="0.5"/><path d="M339.57066,243.53536c0,-0.69036 0.55964,-1.25 1.25,-1.25c0.69036,0 1.25,0.55964 1.25,1.25c0,0.69036 -0.55964,1.25 -1.25,1.25c-0.69036,0 -1.25,-0.55964 -1.25,-1.25z" fill="#000000" stroke="none" stroke-width="0.5"/><path d="M322.49454,255.52498c0,-1.25 1.25,-1.25 1.25,-1.25l0.03327,0.20994c0.66847,-0.42396 1.05219,-1.19165 1.66267,-1.69554c3.02614,-2.49781 6.77205,-4.20689 9.88885,-6.60692c0.78164,-0.60188 1.55726,-1.21461 2.32893,-1.83414c-0.96907,-0.8015 -2.22231,-1.28527 -3.08615,-2.20529c-0.5974,-0.63625 -0.79989,-1.56219 -1.33115,-2.25462c-0.4753,-0.61949 -1.11259,-1.09587 -1.66381,-1.64889c-0.53666,-0.5384 -1.09324,-1.05847 -1.59976,-1.62532c-0.7957,-0.89048 -2.35819,-2.95483 -3.16311,-3.86638c-0.79506,-0.90038 -1.69981,-1.69761 -2.54916,-2.54697c-0.95258,-0.95258 -1.90515,-1.90515 -2.85773,-2.85773c0,0 -0.88388,-0.88388 0,-1.76777c0.88388,-0.88388 1.76777,0 1.76777,0c0.95258,0.95258 1.90515,1.90515 2.85773,2.85773c0.87871,0.87871 1.81181,1.70632 2.63503,2.63722c1.1051,1.24965 2.05802,2.629 3.16926,3.8732c0.26997,0.30227 3.30871,3.32109 3.38595,3.4214c0.48438,0.6291 0.6355,1.48972 1.17583,2.07147c0.51835,0.55808 1.29912,0.79909 1.91129,1.25227c0.45232,0.33485 0.90538,0.67634 1.31426,1.06292c2.93361,-2.40434 5.83536,-4.85774 8.82168,-7.13337c2.06509,-1.57363 4.56946,-1.29397 6.62756,-2.60107c0,0 1.07187,-0.64312 1.71499,0.42875c0.64312,1.07187 -0.42875,1.71499 -0.42875,1.71499c-2.05549,1.18216 -4.57777,1.0063 -6.45202,2.48544c-2.906,2.29337 -5.82786,4.62873 -8.76763,6.94802c0.42851,0.59873 0.85073,1.20301 1.34408,1.74701c0.04406,0.04858 3.2367,3.21924 3.32618,3.33841c0.50509,0.67262 0.75807,1.51051 1.25452,2.18954c0.24558,0.33589 2.06932,2.19635 2.58792,2.72938c1.08573,0.8777 1.93682,2.42864 3.15725,2.21959h1.08997c0,0 1.25,0 1.25,1.25c0,1.25 -1.25,1.25 -1.25,1.25h-1.08997c-2.64941,-0.1918 -2.77944,-1.2407 -4.83583,-2.86692c-0.68409,-0.69894 -2.51354,-2.54504 -2.92446,-3.10242c-0.48986,-0.66446 -0.7342,-1.48878 -1.22617,-2.15168c-0.38905,-0.52422 -0.93014,-0.91626 -1.39263,-1.37699c-0.60872,-0.6064 -1.24439,-1.18737 -1.82098,-1.8244c-0.69372,-0.76643 -1.00211,-1.28665 -1.41168,-1.87458c-4.63004,3.62741 -9.30538,7.18367 -14.03397,10.44379l-1.42002,0.20994c0,0 -1.25,0 -1.25,-1.25z" fill="#ff0000" stroke="none" stroke-width="0.5"/></g></g></svg>