<svg version="1.1" xmlns="http://www.w3.org/2000/svg" xmlns:xlink="http://www.w3.org/1999/xlink" width="794.52702" height="507.48147" viewBox="0,0,794.52702,507.48147"><defs><radialGradient cx="315.60968" cy="304.94474" r="107.87758" gradientUnits="userSpaceOnUse" id="color-1"><stop offset="0" stop-color="#00b8ff" stop-opacity="0.59608"/><stop offset="1" stop-color="#00e8ff" stop-opacity="0.30588"/></radialGradient><radialGradient cx="309.65318" cy="294.5812" r="2.51263" gradientUnits="userSpaceOnUse" id="color-2"><stop offset="0" stop-color="#00b8ff" stop-opacity="0.59608"/><stop offset="1" stop-color="#00e8ff" stop-opacity="0.30588"/></radialGradient><radialGradient cx="305.45297" cy="288.13088" r="2.51263" gradientUnits="userSpaceOnUse" id="color-3"><stop offset="0" stop-color="#00b8ff" stop-opacity="0.59608"/><stop offset="1" stop-color="#00e8ff" stop-opacity="0.30588"/></radialGradient><radialGradient cx="335.15446" cy="288.13088" r="2.51262" gradientUnits="userSpaceOnUse" id="color-4"><stop offset="0" stop-color="#00b8ff" stop-opacity="0.59608"/><stop offset="1" stop-color="#00e8ff" stop-opacity="0.30588"/></radialGradient><radialGradient cx="332.1543" cy="293.38114" r="2.51262" gradientUnits="userSpaceOnUse" id="color-5"><stop offset="0" stop-color="#00b8ff" stop-opacity="0.59608"/><stop offset="1" stop-color="#00e8ff" stop-opacity="0.30588"/></radialGradient><radialGradient cx="320.32206" cy="284.31787" r="19.72092" gradientUnits="userSpaceOnUse" id="color-6"><stop offset="0" stop-color="#00b8ff" stop-opacity="0.59608"/><stop offset="1" stop-color="#00e8ff" stop-opacity="0.30588"/></radialGradient><radialGradient cx="320.32206" cy="284.31787" r="19.72092" gradientUnits="userSpaceOnUse" id="color-7"><stop offset="0" stop-color="#00b8ff" stop-opacity="0.59608"/><stop offset="1" stop-color="#00e8ff" stop-opacity="0.30588"/></radialGradient><radialGradient cx="320.32206" cy="284.31787" r="19.72092" gradientUnits="userSpaceOnUse" id="color-8"><stop offset="0" stop-color="#00b8ff" stop-opacity="0.59608"/><stop offset="1" stop-color="#00e8ff" stop-opacity="0.30588"/></radialGradient><radialGradient cx="341.45477" cy="276.99282" r="10.23801" gradientUnits="userSpaceOnUse" id="color-9"><stop offset="0" stop-color="#00b8ff" stop-opacity="0.59608"/><stop offset="1" stop-color="#00e8ff" stop-opacity="0.30588"/></radialGradient><radialGradient cx="351.41777" cy="280.44299" r="4.12521" gradientUnits="userSpaceOnUse" id="color-10"><stop offset="0" stop-color="#00b8ff" stop-opacity="0.59608"/><stop offset="1" stop-color="#00e8ff" stop-opacity="0.30588"/></radialGradient><radialGradient cx="347.4508" cy="275.28099" r="0.69449" gradientUnits="userSpaceOnUse" id="color-11"><stop offset="0" stop-color="#00b8ff" stop-opacity="0.59608"/><stop offset="1" stop-color="#00e8ff" stop-opacity="0.30588"/></radialGradient><linearGradient x1="16.3216" y1="271.78271" x2="16.3216" y2="300.61906" gradientUnits="userSpaceOnUse" id="color-12"><stop offset="0" stop-color="#8cff2e"/><stop offset="1" stop-color="#65df00"/></linearGradient><linearGradient x1="33.58023" y1="294.29397" x2="33.58023" y2="323.13032" gradientUnits="userSpaceOnUse" id="color-13"><stop offset="0" stop-color="#8cff2e"/><stop offset="1" stop-color="#65df00"/></linearGradient><linearGradient x1="17.82235" y1="310.05185" x2="17.82235" y2="338.8882" gradientUnits="userSpaceOnUse" id="color-14"><stop offset="0" stop-color="#8cff2e"/><stop offset="1" stop-color="#65df00"/></linearGradient><linearGradient x1="47.83736" y1="276.28496" x2="47.83736" y2="305.12131" gradientUnits="userSpaceOnUse" id="color-15"><stop offset="0" stop-color="#8cff2e"/><stop offset="1" stop-color="#65df00"/></linearGradient><linearGradient x1="63.59524" y1="298.79622" x2="63.59524" y2="327.63257" gradientUnits="userSpaceOnUse" id="color-16"><stop offset="0" stop-color="#8cff2e"/><stop offset="1" stop-color="#65df00"/></linearGradient><linearGradient x1="49.20761" y1="314.5541" x2="49.20761" y2="343.39045" gradientUnits="userSpaceOnUse" id="color-17"><stop offset="0" stop-color="#8cff2e"/><stop offset="1" stop-color="#65df00"/></linearGradient><linearGradient x1="75.60124" y1="280.03684" x2="75.60124" y2="308.87318" gradientUnits="userSpaceOnUse" id="color-18"><stop offset="0" stop-color="#8cff2e"/><stop offset="1" stop-color="#65df00"/></linearGradient><linearGradient x1="92.85987" y1="302.54809" x2="92.85987" y2="331.38444" gradientUnits="userSpaceOnUse" id="color-19"><stop offset="0" stop-color="#8cff2e"/><stop offset="1" stop-color="#65df00"/></linearGradient><linearGradient x1="77.10199" y1="318.30597" x2="77.10199" y2="347.14232" gradientUnits="userSpaceOnUse" id="color-20"><stop offset="0" stop-color="#8cff2e"/><stop offset="1" stop-color="#65df00"/></linearGradient><linearGradient x1="109.36813" y1="283.03834" x2="109.36813" y2="311.87469" gradientUnits="userSpaceOnUse" id="color-21"><stop offset="0" stop-color="#8cff2e"/><stop offset="1" stop-color="#65df00"/></linearGradient><linearGradient x1="126.62676" y1="305.5496" x2="126.62676" y2="334.38595" gradientUnits="userSpaceOnUse" id="color-22"><stop offset="0" stop-color="#8cff2e"/><stop offset="1" stop-color="#65df00"/></linearGradient><linearGradient x1="110.86888" y1="321.30748" x2="110.86888" y2="350.14383" gradientUnits="userSpaceOnUse" id="color-23"><stop offset="0" stop-color="#8cff2e"/><stop offset="1" stop-color="#65df00"/></linearGradient><linearGradient x1="139.38314" y1="283.03834" x2="139.38314" y2="311.87469" gradientUnits="userSpaceOnUse" id="color-24"><stop offset="0" stop-color="#8cff2e"/><stop offset="1" stop-color="#65df00"/></linearGradient><linearGradient x1="156.64177" y1="305.5496" x2="156.64177" y2="334.38595" gradientUnits="userSpaceOnUse" id="color-25"><stop offset="0" stop-color="#8cff2e"/><stop offset="1" stop-color="#65df00"/></linearGradient><linearGradient x1="140.88389" y1="321.30748" x2="140.88389" y2="350.14383" gradientUnits="userSpaceOnUse" id="color-26"><stop offset="0" stop-color="#8cff2e"/><stop offset="1" stop-color="#65df00"/></linearGradient><linearGradient x1="176.15152" y1="285.28947" x2="176.15152" y2="314.12582" gradientUnits="userSpaceOnUse" id="color-27"><stop offset="0" stop-color="#8cff2e"/><stop offset="1" stop-color="#65df00"/></linearGradient><linearGradient x1="193.41015" y1="307.80072" x2="193.41015" y2="336.63707" gradientUnits="userSpaceOnUse" id="color-28"><stop offset="0" stop-color="#8cff2e"/><stop offset="1" stop-color="#65df00"/></linearGradient><linearGradient x1="177.65227" y1="323.5586" x2="177.65227" y2="352.39495" gradientUnits="userSpaceOnUse" id="color-29"><stop offset="0" stop-color="#8cff2e"/><stop offset="1" stop-color="#65df00"/></linearGradient><linearGradient x1="448.53772" y1="283.03834" x2="448.53772" y2="311.87469" gradientUnits="userSpaceOnUse" id="color-30"><stop offset="0" stop-color="#8cff2e"/><stop offset="1" stop-color="#65df00"/></linearGradient><linearGradient x1="465.79635" y1="305.5496" x2="465.79635" y2="334.38595" gradientUnits="userSpaceOnUse" id="color-31"><stop offset="0" stop-color="#8cff2e"/><stop offset="1" stop-color="#65df00"/></linearGradient><linearGradient x1="450.03847" y1="321.30748" x2="450.03847" y2="350.14383" gradientUnits="userSpaceOnUse" id="color-32"><stop offset="0" stop-color="#8cff2e"/><stop offset="1" stop-color="#65df00"/></linearGradient><linearGradient x1="482.3046" y1="285.28947" x2="482.3046" y2="314.12582" gradientUnits="userSpaceOnUse" id="color-33"><stop offset="0" stop-color="#8cff2e"/><stop offset="1" stop-color="#65df00"/></linearGradient><linearGradient x1="499.56323" y1="307.80072" x2="499.56323" y2="336.63707" gradientUnits="userSpaceOnUse" id="color-34"><stop offset="0" stop-color="#8cff2e"/><stop offset="1" stop-color="#65df00"/></linearGradient><linearGradient x1="483.80535" y1="323.5586" x2="483.80535" y2="352.39495" gradientUnits="userSpaceOnUse" id="color-35"><stop offset="0" stop-color="#8cff2e"/><stop offset="1" stop-color="#65df00"/></linearGradient><linearGradient x1="512.31961" y1="285.28947" x2="512.31961" y2="314.12582" gradientUnits="userSpaceOnUse" id="color-36"><stop offset="0" stop-color="#8cff2e"/><stop offset="1" stop-color="#65df00"/></linearGradient><linearGradient x1="529.57824" y1="307.80072" x2="529.57824" y2="336.63707" gradientUnits="userSpaceOnUse" id="color-37"><stop offset="0" stop-color="#8cff2e"/><stop offset="1" stop-color="#65df00"/></linearGradient><linearGradient x1="513.82036" y1="323.5586" x2="513.82036" y2="352.39495" gradientUnits="userSpaceOnUse" id="color-38"><stop offset="0" stop-color="#8cff2e"/><stop offset="1" stop-color="#65df00"/></linearGradient><linearGradient x1="546.0865" y1="283.03834" x2="546.0865" y2="311.87469" gradientUnits="userSpaceOnUse" id="color-39"><stop offset="0" stop-color="#8cff2e"/><stop offset="1" stop-color="#65df00"/></linearGradient><linearGradient x1="563.34513" y1="305.5496" x2="563.34513" y2="334.38595" gradientUnits="userSpaceOnUse" id="color-40"><stop offset="0" stop-color="#8cff2e"/><stop offset="1" stop-color="#65df00"/></linearGradient><linearGradient x1="547.58725" y1="321.30748" x2="547.58725" y2="350.14383" gradientUnits="userSpaceOnUse" id="color-41"><stop offset="0" stop-color="#8cff2e"/><stop offset="1" stop-color="#65df00"/></linearGradient><linearGradient x1="593.36013" y1="283.78872" x2="593.36013" y2="312.62507" gradientUnits="userSpaceOnUse" id="color-42"><stop offset="0" stop-color="#8cff2e"/><stop offset="1" stop-color="#65df00"/></linearGradient><linearGradient x1="610.61876" y1="306.29997" x2="610.61876" y2="335.13632" gradientUnits="userSpaceOnUse" id="color-43"><stop offset="0" stop-color="#8cff2e"/><stop offset="1" stop-color="#65df00"/></linearGradient><linearGradient x1="594.86088" y1="322.05785" x2="594.86088" y2="350.8942" gradientUnits="userSpaceOnUse" id="color-44"><stop offset="0" stop-color="#8cff2e"/><stop offset="1" stop-color="#65df00"/></linearGradient></defs><g transform="translate(75.15376,55.53428)"><g stroke-miterlimit="10"><path d="M-56.39206,-9.41193c0,-36.28004 25.65844,-39.42439 61.93848,-39.42439c36.28004,0 675.43754,-22.15581 675.43754,14.12423c0,36.28004 63.46916,484.14416 27.18912,484.14416c-36.28004,0 -783.32684,13.6462 -783.32684,-22.63382z" fill="#13d8e8" stroke="none" stroke-width="0.5" stroke-linecap="butt"/><path d="M-15.36163,393.84451v-102.63172h669.6894v102.63172z" fill="#77e813" stroke="none" stroke-width="0" stroke-linecap="butt"/><path d="M207.7321,304.94474c0,-18.64997 48.29844,-33.76876 107.87758,-33.76876c59.57914,0 107.87758,15.11879 107.87758,33.76876c0,18.64997 -48.29844,33.76876 -107.87758,33.76876c-59.57914,0 -107.87758,-15.11879 -107.87758,-33.76876z" fill="#79440c" stroke="url(#color-1)" stroke-width="0" stroke-linecap="butt"/><g stroke-width="0" stroke-linecap="butt"><g><path d="M306.53609,302.04448l1.2249,-15.3269l5.00928,0.40034l-1.2249,15.3269z" fill="#27ff00" stroke="url(#color-2)"/><path d="M301.55398,295.21711l2.86045,-15.10735l4.93752,0.93488l-2.86046,15.10736z" fill="#23e400" stroke="url(#color-3)"/><path d="M331.65705,295.42368l2.0128,-15.24345l4.98201,0.65784l-2.0128,15.24346z" fill="#22e100" stroke="url(#color-4)"/><path d="M331.55616,301.44706l-3.68268,-14.92823l4.87898,-1.20361l3.68268,14.92824z" fill="#27ff00" stroke="url(#color-5)"/><path d="M300.60114,284.31787c0,-5.41237 8.82936,-9.79997 19.72092,-9.79997c10.89157,0 19.72092,4.38759 19.72092,9.79997c0,5.41237 -8.82936,9.79997 -19.72092,9.79997c-10.89157,0 -19.72092,-4.3876 -19.72092,-9.79997z" fill="#27ff00" stroke="url(#color-6)"/><path d="M300.60114,284.31787c0,-5.41007 9.30579,-9.79623 20.19095,-9.79997c-0.05444,0.1797 0.33601,10.89973 -0.24045,10.75659c-0.62829,-0.15601 -19.9505,-0.5485 -19.9505,-0.95663z" fill="#23e300" stroke="url(#color-7)"/><path d="M300.60114,284.31787c0,-1.55819 16.78116,-0.14932 19.93757,-0.68987c0.66917,-0.1146 0.09203,10.48984 -0.21665,10.48984c-10.89157,0 -19.72092,-4.3876 -19.72092,-9.79997z" fill="#25f000" stroke="url(#color-8)"/></g><path d="M331.21676,276.99282c0,-4.18376 4.58371,-7.57538 10.23801,-7.57538c5.6543,0 10.23801,3.39162 10.23801,7.57538c0,4.18376 -4.58371,7.57538 -10.23801,7.57538c-5.6543,0 -10.23801,-3.39162 -10.23801,-7.57538z" fill="#9bff88" stroke="url(#color-9)"/><path d="M347.14256,281.56805l0.45002,-2.55013c0,0 2.48756,0.31771 3.74292,0.24665c1.38249,-0.07826 4.20748,-0.69667 4.20748,-0.69667c0,0 0.68825,0.40875 0.47014,0.73804c-0.02627,0.03967 -0.3357,-0.16294 -0.44702,-0.09805c-0.07885,0.04595 0.05729,0.35455 -0.04938,0.40827c-0.08691,0.04377 -0.36143,-0.32293 -0.45941,-0.27644c-0.06844,0.03247 0.04166,0.47771 -0.02942,0.5106c-0.07006,0.03241 -0.24394,-0.24444 -0.31437,-0.21233c-0.06008,0.02738 -0.0168,0.36381 -0.0757,0.39048c-0.05005,0.02266 -0.09944,0.045 -0.14773,0.06685c-0.10468,0.04737 -0.30736,-0.16521 -0.39763,-0.12366c-0.26356,0.1213 -0.34465,0.46956 -0.34465,0.4948c0,0.04424 0.06885,0.32424 0.16978,0.32046c0.10663,-0.004 0.24908,-0.29181 0.38398,-0.2404c0.06153,0.02345 0.02405,0.25335 0.09229,0.27734c0.06702,0.02356 0.36852,-0.18457 0.43922,-0.16047c0.0716,0.02441 -0.08759,0.28106 -0.01506,0.30604c0.11482,0.03955 0.43518,-0.25524 0.543,-0.2142c0.13738,0.05229 0.05828,0.44087 0.16329,0.4957c0.13619,0.07111 0.38987,-0.31949 0.42604,-0.24382c0.25308,0.52946 -0.40736,1.31098 -0.40736,1.31098c0,0 -2.67435,-0.54549 -4.06409,-0.66958c-1.41011,-0.1259 -4.33634,-0.08046 -4.33634,-0.08046z" fill="#88e477" stroke="url(#color-10)"/><path d="M346.75632,275.28099c0,-0.38356 0.31093,-0.69448 0.69448,-0.69448c0.38356,0 0.69449,0.31093 0.69449,0.69448c0,0.38356 -0.31094,0.69449 -0.69449,0.69449c-0.38356,0 -0.69448,-0.31094 -0.69448,-0.69449z" fill="#5d554f" stroke="url(#color-11)"/></g><path d="M16.3216,271.78275v28.83631" fill="none" stroke="url(#color-12)" stroke-width="15" stroke-linecap="round"/><path d="M33.58023,323.13032v-28.83631" fill="none" stroke="url(#color-13)" stroke-width="15" stroke-linecap="round"/><path d="M17.82235,338.8882v-28.83631" fill="none" stroke="url(#color-14)" stroke-width="15" stroke-linecap="round"/><path d="M47.83736,305.12131v-28.83631" fill="none" stroke="url(#color-15)" stroke-width="15" stroke-linecap="round"/><path d="M63.59524,298.79626v28.83631" fill="none" stroke="url(#color-16)" stroke-width="15" stroke-linecap="round"/><path d="M49.20761,343.39045v-28.83631" fill="none" stroke="url(#color-17)" stroke-width="15" stroke-linecap="round"/><path d="M75.60124,308.87318v-28.83631" fill="none" stroke="url(#color-18)" stroke-width="15" stroke-linecap="round"/><path d="M92.85987,331.38444v-28.83631" fill="none" stroke="url(#color-19)" stroke-width="15" stroke-linecap="round"/><path d="M77.10199,347.14232v-28.83631" fill="none" stroke="url(#color-20)" stroke-width="15" stroke-linecap="round"/><path d="M109.36813,311.87469v-28.83631" fill="none" stroke="url(#color-21)" stroke-width="15" stroke-linecap="round"/><path d="M126.62676,334.38595v-28.83631" fill="none" stroke="url(#color-22)" stroke-width="15" stroke-linecap="round"/><path d="M110.86888,350.14383v-28.83631" fill="none" stroke="url(#color-23)" stroke-width="15" stroke-linecap="round"/><path d="M139.38314,311.87469v-28.83631" fill="none" stroke="url(#color-24)" stroke-width="15" stroke-linecap="round"/><path d="M156.64177,334.38595v-28.83631" fill="none" stroke="url(#color-25)" stroke-width="15" stroke-linecap="round"/><path d="M140.88389,321.30752v28.83631" fill="none" stroke="url(#color-26)" stroke-width="15" stroke-linecap="round"/><path d="M176.15152,314.12582v-28.83631" fill="none" stroke="url(#color-27)" stroke-width="15" stroke-linecap="round"/><path d="M193.41015,307.80076v28.83631" fill="none" stroke="url(#color-28)" stroke-width="15" stroke-linecap="round"/><path d="M177.65227,352.39495v-28.83631" fill="none" stroke="url(#color-29)" stroke-width="15" stroke-linecap="round"/><path d="M448.53772,283.03838v28.83631" fill="none" stroke="url(#color-30)" stroke-width="15" stroke-linecap="round"/><path d="M465.79635,334.38595v-28.83631" fill="none" stroke="url(#color-31)" stroke-width="15" stroke-linecap="round"/><path d="M450.03847,350.14383v-28.83631" fill="none" stroke="url(#color-32)" stroke-width="15" stroke-linecap="round"/><path d="M482.3046,285.28951v28.83631" fill="none" stroke="url(#color-33)" stroke-width="15" stroke-linecap="round"/><path d="M499.56323,307.80076v28.83631" fill="none" stroke="url(#color-34)" stroke-width="15" stroke-linecap="round"/><path d="M483.80535,352.39495v-28.83631" fill="none" stroke="url(#color-35)" stroke-width="15" stroke-linecap="round"/><path d="M512.31961,314.12582v-28.83631" fill="none" stroke="url(#color-36)" stroke-width="15" stroke-linecap="round"/><path d="M529.57824,336.63707v-28.83631" fill="none" stroke="url(#color-37)" stroke-width="15" stroke-linecap="round"/><path d="M513.82036,352.39495v-28.83631" fill="none" stroke="url(#color-38)" stroke-width="15" stroke-linecap="round"/><path d="M546.0865,283.03838v28.83631" fill="none" stroke="url(#color-39)" stroke-width="15" stroke-linecap="round"/><path d="M563.34513,334.38595v-28.83631" fill="none" stroke="url(#color-40)" stroke-width="15" stroke-linecap="round"/><path d="M547.58725,350.14383v-28.83631" fill="none" stroke="url(#color-41)" stroke-width="15" stroke-linecap="round"/><path d="M593.36013,312.62507v-28.83631" fill="none" stroke="url(#color-42)" stroke-width="15" stroke-linecap="round"/><path d="M610.61876,306.30001v28.83631" fill="none" stroke="url(#color-43)" stroke-width="15" stroke-linecap="round"/><path d="M594.86088,350.8942v-28.83631" fill="none" stroke="url(#color-44)" stroke-width="15" stroke-linecap="round"/></g></g></svg>