<svg version="1.1" xmlns="http://www.w3.org/2000/svg" xmlns:xlink="http://www.w3.org/1999/xlink" width="912.13678" height="696.65511" viewBox="0,0,912.13678,696.65511"><defs><radialGradient cx="319.8395" cy="180.41517" r="324.59923" gradientUnits="userSpaceOnUse" id="color-1"><stop offset="0" stop-color="#00b8ff" stop-opacity="0.59608"/><stop offset="1" stop-color="#00e8ff" stop-opacity="0.30588"/></radialGradient></defs><g transform="translate(41.25,45.53125)"><g stroke-miterlimit="10"><path d="M-40,391.71875v-436h726v436z" fill="#000000" stroke="#000000" stroke-width="2.5"/><path d="M-4.75972,364.88457v-368.93881h649.19845v368.93881z" fill="#000000" stroke="url(#color-1)" stroke-width="0"/><path d="M540.29722,97.17387c0,-2.07107 1.67893,-3.75 3.75,-3.75c2.07107,0 3.75,1.67893 3.75,3.75c0,2.07107 -1.67893,3.75 -3.75,3.75c-2.07107,0 -3.75,-1.67893 -3.75,-3.75z" fill="#ffffff" stroke="none" stroke-width="0.5"/><path d="M609.73468,124.78154c0,-2.07107 1.67893,-3.75 3.75,-3.75c2.07107,0 3.75,1.67893 3.75,3.75c0,2.07107 -1.67893,3.75 -3.75,3.75c-2.07107,0 -3.75,-1.67893 -3.75,-3.75z" fill="#ffffff" stroke="none" stroke-width="0.5"/><path d="M459.14741,89.64451c0,-2.07107 1.67893,-3.75 3.75,-3.75c2.07107,0 3.75,1.67893 3.75,3.75c0,2.07107 -1.67893,3.75 -3.75,3.75c-2.07107,0 -3.75,-1.67893 -3.75,-3.75z" fill="#ffffff" stroke="none" stroke-width="0.5"/><path d="M460.8206,137.33048c0,-2.07107 1.67893,-3.75 3.75,-3.75c2.07107,0 3.75,1.67893 3.75,3.75c0,2.07107 -1.67893,3.75 -3.75,3.75c-2.07107,0 -3.75,-1.67893 -3.75,-3.75z" fill="#ffffff" stroke="none" stroke-width="0.5"/><path d="M381.34399,162.42836c0,-2.07107 1.67893,-3.75 3.75,-3.75c2.07107,0 3.75,1.67893 3.75,3.75c0,2.07107 -1.67893,3.75 -3.75,3.75c-2.07107,0 -3.75,-1.67893 -3.75,-3.75z" fill="#ffffff" stroke="none" stroke-width="0.5"/><path d="M360.42909,210.11433c0,-2.07107 1.67893,-3.75 3.75,-3.75c2.07107,0 3.75,1.67893 3.75,3.75c0,2.07107 -1.67893,3.75 -3.75,3.75c-2.07107,0 -3.75,-1.67893 -3.75,-3.75z" fill="#ffffff" stroke="none" stroke-width="0.5"/><path d="M314.41632,241.90497c0,-2.07107 1.67893,-3.75 3.75,-3.75c2.07107,0 3.75,1.67893 3.75,3.75c0,2.07107 -1.67893,3.75 -3.75,3.75c-2.07107,0 -3.75,-1.67893 -3.75,-3.75z" fill="#ffffff" stroke="none" stroke-width="0.5"/><path d="M303.94418,305.88988c-1.7941,0 -2.72985,-0.85835 -3.21792,-1.75373c-1.08684,-0.2092 -3.04187,-0.96182 -3.04187,-3.66947c0,-3.75 3.75,-3.75 3.75,-3.75c0.83659,0 1.67319,0 2.50979,0l3.75,5.42319c0,0 0,3.75 -3.75,3.75z" fill="#ffffff" stroke="none" stroke-width="0.5"/><path d="M326.96525,325.56457c0,-2.07107 1.67893,-3.75 3.75,-3.75c2.07107,0 3.75,1.67893 3.75,3.75c0,2.07107 -1.67893,3.75 -3.75,3.75c-2.07107,0 -3.75,-1.67893 -3.75,-3.75z" fill="#ffffff" stroke="none" stroke-width="0.5"/><path d="M337.00441,273.69561c0,-2.07107 1.67893,-3.75 3.75,-3.75c2.07107,0 3.75,1.67893 3.75,3.75c0,2.07107 -1.67893,3.75 -3.75,3.75c-2.07107,0 -3.75,-1.67893 -3.75,-3.75z" fill="#ffffff" stroke="none" stroke-width="0.5"/><path d="M270.86659,351.11376c0,-165.691 134.31909,-300.0101 300.01009,-300.0101c165.69101,0 300.0101,134.31909 300.0101,300.0101c0,165.691 -134.31909,300.0101 -300.0101,300.0101c-165.69101,0 -300.01009,-134.31909 -300.01009,-300.0101z" fill-opacity="0.32549" fill="#ccfbff" stroke="none" stroke-width="50"/><path d="M358.02036,351.11376c0,-117.5573 95.29902,-212.85633 212.85632,-212.85633c117.55731,0 212.85633,95.29902 212.85633,212.85633c0,117.5573 -95.29902,212.85633 -212.85633,212.85633c-117.5573,0 -212.85632,-95.29902 -212.85632,-212.85633z" fill="#77e813" stroke="none" stroke-width="50"/><path d="M534.12925,216.73943c-1.70734,1.02532 -3.92734,1.69192 -6.81394,1.69192c-12.5,0 -12.5,-12.5 -12.5,-12.5l12.5,-14.17319c1.67319,0 3.34639,0 5.01958,0c1.22173,0 2.7959,-0.5894 4.14348,-0.79988c-0.7463,-1.53854 -1.61672,-3.03948 -2.05827,-4.66857c-0.71385,-0.26654 -1.38348,-0.58268 -1.3938,-1.23121c-0.10101,-6.34768 0.40151,-12.82636 2.1821,-18.92003c0.2088,-0.71458 1.58894,-0.97054 2.51095,-0.73125c5.08572,-7.23588 7.99218,-7.9495 18.04023,-7.9495c0,0 12.5,0 12.5,12.5c0,7.92938 -5.03001,10.82876 -8.70845,11.88891c0.11857,0.49455 0.21457,0.86103 0.28504,1.03722c2.40121,6.00302 4.94556,17.05326 1.08817,23.08955c-5.47114,8.56157 -17.10486,10.5603 -26.79507,10.76603z" fill="#13d8e8" stroke="none" stroke-width="0.5"/><path d="M425.29953,253.61731c0,-6.90356 5.59644,-12.5 12.5,-12.5c6.90356,0 12.5,5.59644 12.5,12.5c0,6.90356 -5.59644,12.5 -12.5,12.5c-6.90356,0 -12.5,-5.59644 -12.5,-12.5z" fill="#13d8e8" stroke="none" stroke-width="0.5"/><path d="M544.51798,269.48667c0.97546,-4.3236 -0.00063,-10.09533 4.07594,-13.83244c1.98548,-1.82015 4.70484,-2.83845 7.45503,-3.26407c0.28667,-0.38934 0.60739,-0.71964 0.91093,-0.91891c4.02832,-2.64453 9.68903,-2.84485 12.97977,-6.36508c5.55166,-0.78983 11.72766,-1.45962 17.0041,-2.5108c3.61464,-0.72011 7.3539,-6.17116 10.25033,-7.7737c0.50989,-0.28212 0.95534,-0.51715 1.34186,-0.70965c-0.13994,-2.617 -0.12534,-8.48214 -0.06105,-8.93896c0.97977,-6.96145 0.29004,-9.15698 5.30048,-11.94749c0.09686,-1.98801 0.30027,-4.08957 1.58596,-5.4999c7.67536,-8.41937 17.17622,-8.32206 27.36506,-8.43815c7.78054,0.30732 12.28647,-0.47545 18.65889,8.48253c2.99835,4.21492 -0.57791,10.68308 0.37247,15.40072c0.85714,4.25481 2.32344,8.26611 3.17341,12.51591c0.53359,2.66791 2.00341,7.97661 2.45917,11.40016c0.31671,0.39888 0.66023,0.93409 1.02793,1.63203c2.51645,4.77649 9.73812,32.58347 9.89844,37.16357c0.78023,1.56046 3.76217,14.56889 4.94921,21.69862c0.48947,0.45459 1.11213,1.40116 1.88427,3.04591c2.74388,5.84476 8.22767,32.05949 6.88644,38.36229c-0.99447,4.67332 -0.55255,10.23 -3.66117,13.85841c-2.58611,3.01853 -7.49167,2.70023 -11.34862,3.66116c-1.78031,0.44356 -6.842,0.91032 -5.49405,-0.33439c-11.97852,5.98926 -66.99048,2.84418 -84.02171,2.84418c-19.10952,0 -38.10371,-2.50979 -58.56172,-2.50979c-11.30674,-1.07781 -20.08622,3.80068 -31.42692,-2.82457c-1.32297,-0.77288 -0.56833,-3.13367 -1.51201,-4.34076c-0.21638,-0.27678 -0.48758,-0.52376 -0.79369,-0.75058c-6.54609,0.7233 -13.9423,0.38654 -18.97293,0.38654c-6.50995,0 -18.92255,1.35856 -21.89668,-6.60178c-2.13734,-5.72062 2.94773,-11.85266 4.42159,-17.77899c1.89911,-0.97003 6.39292,-2.95917 8.4604,-3.631c-0.15808,-0.20979 -0.23985,-0.4557 -0.09445,-0.55198c2.12932,-1.40995 8.20987,-3.88748 9.34437,-3.88872c1.94642,-1.73543 6.9872,-5.49184 12.78817,-7.27187c2.27292,-0.69745 8.94415,-2.47097 12.68723,-2.35517c0.32743,-0.29849 0.70107,-0.54691 1.01837,-0.68313c2.21762,-0.95202 4.7143,-1.09841 7.12149,-1.30712c0.44241,-0.80186 0.83496,-1.66437 1.61528,-2.07262c6.11277,-3.19806 13.20243,-3.81357 18.96177,-6.89174c-0.65755,-1.92645 -0.9773,-4.10144 -0.78413,-6.6215c0.69912,-9.1207 5.26829,-13.28637 11.6812,-15.79946c0.3908,-3.91323 0.67476,-8.59782 3.63995,-11.13824c2.04524,-1.75225 5.61414,-2.37627 9.3096,-2.89948z" fill="#13d8e8" stroke="none" stroke-width="0.5"/><path d="M394.29915,282.22546c-2.64608,-1.74327 -4.97324,-4.80957 -4.97324,-10.20303c0,-12.5 12.5,-12.5 12.5,-12.5l9.91803,1.86687c2.42239,3.70254 5.62357,6.99964 7.26717,11.1076c1.14378,2.85874 -0.53869,6.2399 0.17298,9.23559c0.69191,2.91253 2.40699,5.0839 1.73577,8.10799c0.97773,0.36563 1.97146,0.72791 2.73891,1.41247c1.80994,1.61446 3.10662,3.72535 4.65993,5.58803c0,0 7.80869,9.76086 -1.95217,17.56955c-9.76086,7.80869 -17.56955,-1.95217 -17.56955,-1.95217c-0.67761,-0.92597 -1.18321,-2.00674 -2.03283,-2.77793c-2.02116,-1.83457 -4.97206,-2.71493 -6.5061,-4.9727c-2.12843,-3.13259 -3.01539,-6.96957 -4.07796,-10.60471c-0.31295,-1.07066 0.21876,-2.25259 0,-3.34638c-0.34589,-1.72945 -1.36588,-3.28285 -1.67319,-5.01957c-0.20441,-1.15521 -0.22755,-2.33317 -0.20774,-3.51159z" fill="#13d8e8" stroke="none" stroke-width="0.5"/><path d="M494.28444,31.08279c0,-2.07107 1.67893,-3.75 3.75,-3.75c2.07107,0 3.75,1.67893 3.75,3.75c0,2.07107 -1.67893,3.75 -3.75,3.75c-2.07107,0 -3.75,-1.67893 -3.75,-3.75z" fill="#ffffff" stroke="none" stroke-width="0.5"/><path d="M347.88015,84.62493c0,-2.07107 1.67893,-3.75 3.75,-3.75c2.07107,0 3.75,1.67893 3.75,3.75c0,2.07107 -1.67893,3.75 -3.75,3.75c-2.07107,0 -3.75,-1.67893 -3.75,-3.75z" fill="#ffffff" stroke="none" stroke-width="0.5"/><path d="M398.07591,37.77556c0,-2.07107 1.67893,-3.75 3.75,-3.75c2.07107,0 3.75,1.67893 3.75,3.75c0,2.07107 -1.67893,3.75 -3.75,3.75c-2.07107,0 -3.75,-1.67893 -3.75,-3.75z" fill="#ffffff" stroke="none" stroke-width="0.5"/><path d="M244.14226,29.4096c0,-2.07107 1.67893,-3.75 3.75,-3.75c2.07107,0 3.75,1.67893 3.75,3.75c0,2.07107 -1.67893,3.75 -3.75,3.75c-2.07107,0 -3.75,-1.67893 -3.75,-3.75z" fill="#ffffff" stroke="none" stroke-width="0.5"/><path d="M274.23035,154.0624c0,3.75 -3.75,3.75 -3.75,3.75c-0.83659,0 -4.18298,0 -5.01957,0c0,0 -3.75,0 -3.75,-3.75c0,-3.75 3.75,-3.75 3.75,-3.75c0.83659,0 1.67319,0 2.50978,0h2.50979c0,0 3.75,0 3.75,3.75z" fill="#ffffff" stroke="none" stroke-width="0.5"/><path d="M200.63927,96.33728c0,-2.07107 1.67893,-3.75 3.75,-3.75c2.07107,0 3.75,1.67893 3.75,3.75c0,2.07107 -1.67893,3.75 -3.75,3.75c-2.07107,0 -3.75,-1.67893 -3.75,-3.75z" fill="#ffffff" stroke="none" stroke-width="0.5"/><path d="M95.22818,36.10237c0,-2.07107 1.67893,-3.75 3.75,-3.75c2.07107,0 3.75,1.67893 3.75,3.75c0,2.07107 -1.67893,3.75 -3.75,3.75c-2.07107,0 -3.75,-1.67893 -3.75,-3.75z" fill="#ffffff" stroke="none" stroke-width="0.5"/><path d="M134.54818,99.68366c0,-2.07107 1.67893,-3.75 3.75,-3.75c2.07107,0 3.75,1.67893 3.75,3.75c0,2.07107 -1.67893,3.75 -3.75,3.75c-2.07107,0 -3.75,-1.67893 -3.75,-3.75z" fill="#ffffff" stroke="none" stroke-width="0.5"/><path d="M45.03242,94.66409c0,-2.07107 1.67893,-3.75 3.75,-3.75c2.07107,0 3.75,1.67893 3.75,3.75c0,2.07107 -1.67893,3.75 -3.75,3.75c-2.07107,0 -3.75,-1.67893 -3.75,-3.75z" fill="#ffffff" stroke="none" stroke-width="0.5"/><path d="M24.95412,31.08279c0,-2.07107 1.67893,-3.75 3.75,-3.75c2.07107,0 3.75,1.67893 3.75,3.75c0,2.07107 -1.67893,3.75 -3.75,3.75c-2.07107,0 -3.75,-1.67893 -3.75,-3.75z" fill="#ffffff" stroke="none" stroke-width="0.5"/><path d="M172.19501,151.55261c0,-2.07107 1.67893,-3.75 3.75,-3.75c2.07107,0 3.75,1.67893 3.75,3.75c0,2.07107 -1.67893,3.75 -3.75,3.75c-2.07107,0 -3.75,-1.67893 -3.75,-3.75z" fill="#ffffff" stroke="none" stroke-width="0.5"/><path d="M88.53541,172.46751c0,-2.07107 1.67893,-3.75 3.75,-3.75c2.07107,0 3.75,1.67893 3.75,3.75c0,2.07107 -1.67893,3.75 -3.75,3.75c-2.07107,0 -3.75,-1.67893 -3.75,-3.75z" fill="#ffffff" stroke="none" stroke-width="0.5"/><path d="M28.3005,231.02922c0,-2.07107 1.67893,-3.75 3.75,-3.75c2.07107,0 3.75,1.67893 3.75,3.75c0,2.07107 -1.67893,3.75 -3.75,3.75c-2.07107,0 -3.75,-1.67893 -3.75,-3.75z" fill="#ffffff" stroke="none" stroke-width="0.5"/><path d="M214.0248,205.09475c0,-3.75 3.75,-3.75 3.75,-3.75h3.34638c0,0 3.75,0 3.75,3.75c0,3.75 -3.75,3.75 -3.75,3.75h-3.34638c0,0 -3.75,0 -3.75,-3.75z" fill="#ffffff" stroke="none" stroke-width="0.5"/><path d="M168.84862,241.90497c0,-2.07107 1.67893,-3.75 3.75,-3.75c2.07107,0 3.75,1.67893 3.75,3.75c0,2.07107 -1.67893,3.75 -3.75,3.75c-2.07107,0 -3.75,-1.67893 -3.75,-3.75z" fill="#ffffff" stroke="none" stroke-width="0.5"/><path d="M106.28135,256.55676c2.08012,3.12019 -1.04006,5.20031 -1.04006,5.20031l-2.50979,1.6732c0,0 -3.12019,2.08012 -5.20031,-1.04007c-2.08012,-3.12019 1.04006,-5.20031 1.04006,-5.20031l2.50979,-1.67319c0,0 3.12019,-2.08013 5.20032,1.04006z" fill="#ffffff" stroke="none" stroke-width="0.5"/><path d="M219.88097,313.01563c0,-2.07107 1.67893,-3.75 3.75,-3.75c2.07107,0 3.75,1.67893 3.75,3.75c0,2.07107 -1.67893,3.75 -3.75,3.75c-2.07107,0 -3.75,-1.67893 -3.75,-3.75z" fill="#ffffff" stroke="none" stroke-width="0.5"/><path d="M118.65287,323.05478c0,-2.07107 1.67893,-3.75 3.75,-3.75c2.07107,0 3.75,1.67893 3.75,3.75c0,2.07107 -1.67893,3.75 -3.75,3.75c-2.07107,0 -3.75,-1.67893 -3.75,-3.75z" fill="#ffffff" stroke="none" stroke-width="0.5"/><path d="M41.68603,320.54499c0,-2.07107 1.67893,-3.75 3.75,-3.75c2.07107,0 3.75,1.67893 3.75,3.75c0,2.07107 -1.67893,3.75 -3.75,3.75c-2.07107,0 -3.75,-1.67893 -3.75,-3.75z" fill="#ffffff" stroke="none" stroke-width="0.5"/><path d="M587.14659,41.12194c0,-2.07107 1.67893,-3.75 3.75,-3.75c2.07107,0 3.75,1.67893 3.75,3.75c0,2.07107 -1.67893,3.75 -3.75,3.75c-2.07107,0 -3.75,-1.67893 -3.75,-3.75z" fill="#ffffff" stroke="none" stroke-width="0.5"/><path d="M385.52697,91.3177c0,-2.07107 1.67893,-3.75 3.75,-3.75c2.07107,0 3.75,1.67893 3.75,3.75c0,2.07107 -1.67893,3.75 -3.75,3.75c-2.07107,0 -3.75,-1.67893 -3.75,-3.75z" fill="#ffffff" stroke="none" stroke-width="0.5"/><path d="M311.06993,170.79432c0,-2.07107 1.67893,-3.75 3.75,-3.75c2.07107,0 3.75,1.67893 3.75,3.75c0,2.07107 -1.67893,3.75 -3.75,3.75c-2.07107,0 -3.75,-1.67893 -3.75,-3.75z" fill="#ffffff" stroke="none" stroke-width="0.5"/><path d="M270.07673,225.17305c0,-2.07107 1.67893,-3.75 3.75,-3.75c2.07107,0 3.75,1.67893 3.75,3.75c0,2.07107 -1.67893,3.75 -3.75,3.75c-2.07107,0 -3.75,-1.67893 -3.75,-3.75z" fill="#ffffff" stroke="none" stroke-width="0.5"/><path d="M242.46906,273.69561c0,-2.07107 1.67893,-3.75 3.75,-3.75c2.07107,0 3.75,1.67893 3.75,3.75c0,2.07107 -1.67893,3.75 -3.75,3.75c-2.07107,0 -3.75,-1.67893 -3.75,-3.75z" fill="#ffffff" stroke="none" stroke-width="0.5"/><path d="M264.22056,99.68366c0,-2.07107 1.67893,-3.75 3.75,-3.75c2.07107,0 3.75,1.67893 3.75,3.75c0,2.07107 -1.67893,3.75 -3.75,3.75c-2.07107,0 -3.75,-1.67893 -3.75,-3.75z" fill="#ffffff" stroke="none" stroke-width="0.5"/><path d="M306.05036,37.77556c0,-2.07107 1.67893,-3.75 3.75,-3.75c2.07107,0 3.75,1.67893 3.75,3.75c0,2.07107 -1.67893,3.75 -3.75,3.75c-2.07107,0 -3.75,-1.67893 -3.75,-3.75z" fill="#ffffff" stroke="none" stroke-width="0.5"/><path d="M162.15585,62.03684c0,-2.07107 1.67893,-3.75 3.75,-3.75c2.07107,0 3.75,1.67893 3.75,3.75c0,2.07107 -1.67893,3.75 -3.75,3.75c-2.07107,0 -3.75,-1.67893 -3.75,-3.75z" fill="#ffffff" stroke="none" stroke-width="0.5"/><path d="M86.86222,116.41558c0,-2.07107 1.67893,-3.75 3.75,-3.75c2.07107,0 3.75,1.67893 3.75,3.75c0,2.07107 -1.67893,3.75 -3.75,3.75c-2.07107,0 -3.75,-1.67893 -3.75,-3.75z" fill="#ffffff" stroke="none" stroke-width="0.5"/><path d="M28.3005,149.87942c0,-2.07107 1.67893,-3.75 3.75,-3.75c2.07107,0 3.75,1.67893 3.75,3.75c0,2.07107 -1.67893,3.75 -3.75,3.75c-2.07107,0 -3.75,-1.67893 -3.75,-3.75z" fill="#ffffff" stroke="none" stroke-width="0.5"/><path d="M141.24096,212.62411c0,-2.07107 1.67893,-3.75 3.75,-3.75c2.07107,0 3.75,1.67893 3.75,3.75c0,2.07107 -1.67893,3.75 -3.75,3.75c-2.07107,0 -3.75,-1.67893 -3.75,-3.75z" fill="#ffffff" stroke="none" stroke-width="0.5"/><path d="M142.91414,287.91775c0,-2.07107 1.67893,-3.75 3.75,-3.75c2.07107,0 3.75,1.67893 3.75,3.75c0,2.07107 -1.67893,3.75 -3.75,3.75c-2.07107,0 -3.75,-1.67893 -3.75,-3.75z" fill="#ffffff" stroke="none" stroke-width="0.5"/><path d="M58.41796,297.95689c0,-2.07107 1.67893,-3.75 3.75,-3.75c2.07107,0 3.75,1.67893 3.75,3.75c0,2.07107 -1.67893,3.75 -3.75,3.75c-2.07107,0 -3.75,-1.67893 -3.75,-3.75z" fill="#ffffff" stroke="none" stroke-width="0.5"/><path d="M168.01203,339.7867c0,-2.07107 1.67893,-3.75 3.75,-3.75c2.07107,0 3.75,1.67893 3.75,3.75c0,2.07107 -1.67893,3.75 -3.75,3.75c-2.07107,0 -3.75,-1.67893 -3.75,-3.75z" fill="#ffffff" stroke="none" stroke-width="0.5"/><path d="M85.18903,346.47946c0,-2.07107 1.67893,-3.75 3.75,-3.75c2.07107,0 3.75,1.67893 3.75,3.75c0,2.07107 -1.67893,3.75 -3.75,3.75c-2.07107,0 -3.75,-1.67893 -3.75,-3.75z" fill="#ffffff" stroke="none" stroke-width="0.5"/><g stroke="none"><path d="M451.23149,250.1364c1.26537,-4.67599 -2.70735,-12.41104 2.52707,-13.45444c5.66589,-1.12941 14.56928,2.68565 16.55229,-6.43004c0.86508,-3.97669 9.70654,2.83659 14.02911,4.00631c0.93208,0.25223 1.01712,7.0534 2.59632,7.24079c4.73267,0.5616 12.58336,-5.55851 14.50562,-3.86287c3.63935,3.2103 -1.27935,8.90778 2.71641,11.74161c4.10302,2.9099 13.13449,1.98324 13.86322,5.86121c0.49721,2.64595 -6.37524,8.44586 -7.08135,11.05518c-0.73504,2.71623 -8.72263,-1.97392 -9.67005,0.24372c-0.95471,2.23469 -0.68095,6.64725 -0.95771,10.14373c-0.20966,2.64886 -0.73528,4.77196 -2.35034,5.02406c-2.51372,0.39238 -10.21787,-7.44301 -13.94846,-11.08077c-1.25518,-1.22394 -10.44254,10.39445 -12.19906,9.91913c-1.39601,-0.37778 -1.20787,-4.95448 -1.64485,-6.69561c-0.93599,-3.72942 -1.59417,-6.07436 -4.69956,-8.06573c-5.11173,-3.27797 -19.7652,8.15079 -13.50246,3.59765c2.58228,-1.87737 4.55213,-5.03413 0.75647,-9.12075c-3.66286,-3.94366 -12.32935,-4.14942 -12.26902,-6.16232c0.06053,-2.01962 10.22019,-1.90564 10.77635,-3.96087z" fill="#5d554f" stroke-width="0"/><path d="M366.35986,226.39413c0,-2.14936 2.14936,-2.14936 2.14936,-2.14936l2.41185,0.05749c0.98135,0.51035 2.11937,0.79387 2.94403,1.53105c0.42426,0.37926 0.05595,1.36367 0.56917,1.60949c0.6783,0.3249 1.49907,-0.38756 2.24087,-0.26351c0.70501,0.1179 1.22456,0.78565 1.91802,0.95901c0.62025,0.15506 1.29777,-0.15506 1.91802,0c0.69346,0.17336 1.2171,0.81883 1.91802,0.95902c0.94039,0.18808 1.94073,-0.20743 2.87704,0c0.90223,0.19988 1.66868,0.79458 2.50302,1.19187c3.76924,2.53738 9.05946,2.61903 12.51833,4.82571c0.96744,0.61721 1.10404,2.45697 2.24087,2.61353c2.3682,0.32613 5.60375,0.89378 7.62753,2.38615c0.61379,0.45262 0.55698,1.45819 1.07057,2.02194c1.04387,1.14579 3.00241,0.85943 4.3703,1.58837c3.49873,1.86447 7.53241,5.25577 10.01488,8.00175c1.11877,1.23752 5.49579,2.31983 7.02162,3.26688c-0.02823,0.59708 -0.49078,1.35261 -0.0847,1.79126c0.95187,1.02821 2.76233,0.61986 4.01264,1.25233c7.36858,3.7274 13.58553,9.5975 21.08136,13.41782c4.39514,2.24001 8.18475,6.41148 11.22856,10.11266c0.71698,0.87183 1.78575,1.48896 2.28003,2.50377c0.07727,0.15863 -0.16844,0.47904 -0.35579,0.60457c0.5266,0.05936 1.95792,0.38201 1.95792,2.13598c0,2.14936 -2.14936,2.14936 -2.14936,2.14936c-4.09881,-0.87222 -4.20787,-4.65067 -7.38228,-7.83461c-5.82483,-5.84233 -17.73337,-12.13949 -24.9156,-16.4617c-2.65418,-1.59726 -9.22551,-4.9016 -9.32948,-7.41145c-6.42078,-0.72674 -9.99612,-6.98056 -15.56992,-9.82964c-2.30265,-1.17701 -3.16639,-0.32693 -5.21982,-2.24768c-0.48742,-0.45593 -0.31816,-1.40752 -0.84744,-1.81411c-1.49686,-1.14986 -4.18095,-0.94049 -5.79864,-1.4499c-1.49823,-0.47179 -2.2428,-2.21676 -3.5132,-3.14055c-2.76206,-2.00844 -8.96791,-2.48615 -12.416,-4.76441c-0.44434,-0.24205 -0.83439,-0.64015 -1.33302,-0.72615c-0.94505,-0.16301 -1.93665,0.18808 -2.87704,0c-0.70092,-0.14018 -1.22456,-0.78565 -1.91802,-0.95901c-0.62025,-0.15506 -1.29777,0.15506 -1.91803,0c-0.69346,-0.17336 -1.22067,-0.80204 -1.91802,-0.95902c-1.14569,-0.25788 -2.46795,0.27181 -3.5132,-0.26351c-1.0214,-0.5231 -1.18811,-2.15682 -2.24087,-2.61353l-1.4242,0.0575c0,0 -2.14936,0 -2.14936,-2.14936z" fill="#ff0000" stroke-width="0.5"/><path d="M413.35146,187.07463c0,-2.14936 2.14936,-2.14936 2.14936,-2.14936l2.15127,0.36098c1.72155,1.1548 3.20477,2.63219 4.85957,3.88077c2.3871,1.80113 5.41875,2.93665 7.77802,4.87652c0.54258,0.44613 0.7454,1.28886 1.37788,1.59447c0.63378,0.30624 1.54369,-0.32772 2.10969,0.09071c1.09865,0.81222 1.5465,2.26169 2.45392,3.28313c1.10758,1.24674 5.08446,2.33978 5.55824,2.69693c0.94325,0.71105 1.17768,2.0736 1.98622,2.93476c1.17427,1.25068 3.40013,0.88743 4.78088,1.90561c0.61379,0.45262 0.55698,1.45819 1.07058,2.02194c0.29555,0.32441 0.81381,0.32873 1.22072,0.49309c1.19145,0.47497 2.64675,0.53908 3.57434,1.42494c0.66123,0.63148 -0.02915,2.09622 0.69593,2.65321c0.6489,0.49847 1.68117,-0.5412 2.44281,-0.2421c1.90758,0.74914 3.67636,1.87505 5.27718,3.15467c2.50597,2.00316 4.38006,5.72857 6.83089,7.76888c5.6397,4.69502 12.11993,8.03914 17.26222,13.42617c1.57864,1.65377 4.58963,1.46115 6.06055,3.21143c1.03361,1.22991 0.89403,4.38066 0.89994,6.072c0,0 0,2.14936 -2.14936,2.14936c-2.14936,0 -2.14936,-2.14936 -2.14936,-2.14936c0.0005,-0.11947 0.0385,-3.42319 -0.05907,-3.51812c-0.79361,-0.77213 -2.065,-0.80421 -3.06835,-1.27252c-3.02734,-1.413 -4.25873,-3.99134 -6.99327,-5.92191c-4.02709,-2.8431 -8.95239,-5.69172 -12.6482,-8.77439c-2.38035,-1.98544 -4.20181,-5.65872 -6.59528,-7.57532c-1.06824,-0.8554 -7.37854,-2.66034 -7.6242,-2.8415c-0.89417,-0.65937 -0.45836,-2.29399 -1.22209,-3.10086c-0.51209,-0.54101 -1.45315,-0.32873 -2.17973,-0.49309c-0.87178,-0.47497 -1.8903,-0.74675 -2.61533,-1.42494c-0.48742,-0.45593 -0.31816,-1.40752 -0.84744,-1.81411c-1.36988,-1.05232 -3.55736,-0.74018 -4.80925,-1.93044c-0.81459,-0.77449 -0.95524,-2.13881 -1.84983,-2.81931c-1.04199,-0.79262 -2.51123,-0.78551 -3.6757,-1.38383c-0.83712,-0.43012 -1.65155,-0.96756 -2.27421,-1.6733c-0.62437,-0.70768 -0.63282,-1.89719 -1.38213,-2.47095c-0.45752,-0.35033 -1.21385,0.35415 -1.72636,0.09071c-0.98626,-0.50695 -1.58419,-1.55905 -2.45817,-2.24158c-2.33725,-1.82527 -5.22928,-2.97005 -7.56618,-4.7136c-1.61966,-1.20842 -3.04555,-2.67582 -4.73056,-3.79133l0.23324,0.36098c0,0 -2.14936,0 -2.14936,-2.14936z" fill="#ff0000" stroke-width="0.5"/><path d="M383.2926,213.36615c1.51983,-1.51983 3.03966,0 3.03966,0l0.40041,0.55639c0.48354,0.2632 0.90903,0.69078 1.45062,0.7896c0.94344,0.17213 1.94073,-0.20743 2.87704,0c0.90223,0.19988 1.70297,0.72941 2.50303,1.19187c2.83677,1.63977 4.41214,2.49078 7.4158,3.7093c0.55714,0.22602 1.00879,0.69648 1.58932,0.8529c0.82644,0.22267 1.82705,-0.18801 2.55419,0.26351c0.60726,0.37708 0.38397,1.49345 0.95902,1.91802c0.35093,0.25911 0.8556,-0.35616 1.28186,-0.26351c0.6985,0.15182 1.22531,0.78268 1.91802,0.95901c0.54506,0.13875 1.13254,-0.13691 1.68681,-0.04139c3.26352,0.56241 5.37167,1.89612 8.53947,2.22293c1.61355,3.2271 5.92013,2.12051 9.28266,3.67865c1.04078,0.48228 2.21705,0.91132 2.92385,1.81478c0.32021,0.4093 -0.75022,1.25439 -0.30853,1.52819c1.16934,0.72483 2.81848,-0.01309 4.09776,0.49309c5.52861,2.18753 15.43978,8.97788 20.75525,8.947c0,0 2.14936,0 2.14936,2.14936c0,2.14936 -2.14936,2.14936 -2.14936,2.14936c-1.78327,-0.00808 -3.60092,0.08329 -5.29906,-0.71773c-3.80636,-1.79545 -8.04669,-4.58172 -11.65463,-6.79587c-2.95076,-1.81085 -8.33419,-1.40439 -10.93898,-3.18556c-0.64066,-0.4381 0.04205,-1.61543 -0.30853,-2.30787c-0.83749,-1.65418 -8.89325,-0.26363 -10.80978,-4.09669c-0.42729,0.08784 -0.85614,0.35866 -1.28186,0.26351c-0.78208,-0.1748 -1.41115,-0.7772 -2.16992,-1.03502c-1.75877,-0.59761 -3.69842,-0.43934 -5.50218,-0.883c-0.69412,-0.17073 -1.22851,-0.77053 -1.91802,-0.95901c-0.82562,-0.22569 -1.82706,0.18801 -2.55419,-0.26351c-0.60726,-0.37708 -0.38396,-1.49345 -0.95901,-1.91802c-0.35093,-0.25911 -0.85648,0.36015 -1.28186,0.26351c-1.79073,-0.40681 -3.42157,-1.3351 -5.12376,-2.02414c-2.16291,-0.87554 -4.15345,-3.34514 -6.38439,-3.72993c-0.94505,-0.16301 -1.93934,0.20107 -2.87703,0c-0.86007,-0.18442 -1.59028,-0.75228 -2.38543,-1.12843l-1.51762,-1.36164c0,0 -1.51983,-1.51983 0,-3.03966z" fill="#ff0000" stroke-width="0.5"/><path d="M383.2926,223.91529c1.51983,-1.51983 3.03966,0 3.03966,0l0.40041,0.55639c0.73785,0.37927 1.56896,0.61554 2.21355,1.1378c0.93058,0.75398 1.46091,1.94913 2.44281,2.63493c0.30269,0.21142 0.72639,-0.15484 1.0955,-0.16361c1.12347,-0.02669 2.26727,-0.15461 3.37086,0.05749c0.70196,0.13491 1.22456,0.78565 1.91802,0.95902c0.62025,0.15506 1.30821,-0.19203 1.91802,0c1.05504,0.33223 2.11459,0.79925 2.94403,1.53105c0.50048,0.44157 0.31816,1.40752 0.84745,1.81411c0.62591,0.48081 1.55099,0.32334 2.29129,0.59701c0.67046,0.24785 1.25806,0.68443 1.91803,0.95902c1.10164,0.45835 2.41838,0.50274 3.35916,1.23665c0.88843,0.69307 1.23434,1.88548 1.85151,2.82822c7.27565,1.4836 11.28565,6.80823 17.80562,9.36129c1.93187,0.75648 4.18888,0.42907 6.10006,1.23641c3.08708,1.30408 5.44172,3.70339 8.91544,4.41155c1.56614,0.31927 3.25118,-0.41371 4.79506,0c3.97517,1.06523 4.50221,3.30974 9.0963,3.29904c0,0 2.14936,0 2.14936,2.14936c0,2.14936 -2.14936,2.14936 -2.14936,2.14936c-2.13874,-0.00433 -4.76217,0.08999 -6.6984,-0.69807c-1.76081,-0.71666 -1.66171,-2.34618 -3.38554,-2.71597c-1.5628,-0.33525 -3.2269,0.30921 -4.79506,0c-3.65854,-0.72138 -6.27825,-3.19215 -9.47066,-4.58297c-1.93512,-0.84307 -4.24646,-0.48323 -6.20223,-1.27721c-6.78255,-2.75352 -11.27073,-7.73466 -18.63684,-9.81895c-0.66151,-0.97528 -1.07491,-2.17662 -1.98454,-2.92585c-0.64065,-0.52768 -1.61914,-0.38632 -2.39491,-0.68137c-1.82073,-0.6925 -3.813,-1.12391 -5.38081,-2.28003c-0.61379,-0.45262 -0.58888,-1.4307 -1.07057,-2.02194c-0.5688,-0.69815 -2.36246,-0.27508 -2.81004,-0.38698c-0.69346,-0.17336 -1.21842,-0.81238 -1.91802,-0.95901c-1.16368,-0.2439 -4.04809,0.47738 -5.12376,-0.10612c-1.84258,-0.99949 -3.04462,-2.99092 -4.93376,-3.89936l-1.51762,-1.36163c0,0 -1.51983,-1.51983 0,-3.03966z" fill="#ff7b00" stroke-width="0.5"/><path d="M397.67779,195.14492c1.51983,-1.51983 3.03966,0 3.03966,0l0.40041,0.55639c1.92205,0.98797 3.42288,2.64041 5.09059,4.01484c1.34331,1.10708 3.4707,0.8826 4.84295,1.95356c0.94703,0.7391 1.20192,2.10909 2.03582,2.97382c1.02204,1.05981 2.86884,0.99245 3.93342,2.00953c0.48259,0.46105 0.31816,1.40752 0.84744,1.81411c0.62591,0.48081 1.55166,0.32154 2.2913,0.597c1.23316,0.45926 2.22616,1.51161 3.50734,1.81191c0.62247,0.1459 1.31189,-0.20337 1.91802,0c1.51152,0.50715 2.86897,1.39163 4.30345,2.08744c2.62995,1.43153 5.54601,0.61123 8.49241,1.85472c1.45614,0.61455 2.20939,2.27621 3.46278,3.23904c1.62846,1.25095 4.73646,1.40722 6.56157,2.75713c7.29457,5.39527 18.77236,10.94205 21.44719,20.4026c0,0 0.5213,2.08519 -1.56389,2.60649c-2.08519,0.5213 -2.60648,-1.56389 -2.60648,-1.56389c-1.80981,-9.43785 -22.22957,-16.9442 -27.7255,-22.97677c-1.98581,-2.17972 -7.42273,-1.25972 -9.99053,-2.47441c-1.12288,-0.58287 -2.1675,-1.35132 -3.36865,-1.74861c-0.607,-0.20077 -1.29959,0.16217 -1.91802,0c-0.77058,-0.20206 -3.2719,-1.64658 -4.16475,-2.02414c-1.13785,-0.48116 -2.46848,-0.58781 -3.46278,-1.32102c-0.61379,-0.45262 -0.54751,-1.46695 -1.07057,-2.02194c-0.95129,-1.00936 -2.74266,-0.86128 -3.73868,-1.82653c-0.79284,-0.76835 -0.94864,-2.07757 -1.80022,-2.78025c-1.31298,-1.08341 -3.40484,-0.83565 -4.74717,-1.88249c-1.52412,-1.1886 -2.75767,-2.81963 -4.49953,-3.65725l-1.51762,-1.36163c0,0 -1.51983,-1.51983 0,-3.03966z" fill="#ff7b00" stroke-width="0.5"/><path d="M433.16124,180.75974c1.51983,-1.51983 3.03966,0 3.03966,0l0.11887,0.43978c0.84722,0.29216 1.6623,0.70358 2.54164,0.87647c0.67631,0.13297 1.41293,-0.18599 2.06756,0.02975c2.99759,0.98786 5.87143,2.88983 8.883,3.91206c1.35532,0.46004 2.86877,0.46519 4.14932,1.10449c0.83281,0.41578 1.32602,1.3067 1.98903,1.96004c1.97158,0.61506 6.30697,1.79122 7.84676,2.99728c3.84099,3.00851 12.8277,13.61306 15.02127,18.0466c1.0612,2.14485 1.32004,4.65013 2.51166,6.72535c2.13395,3.7163 2.96453,5.755 3.55105,9.86104c0.60495,4.23509 0.23148,4.8716 0.62766,4.24525c0,0 2.14936,0 2.14936,2.14936c0,2.14936 -2.14936,2.14936 -2.14936,2.14936c-7.11649,-1.30316 -3.1848,-7.51418 -5.78877,-12.75938c-6.22616,-12.5414 -12.30445,-24.94645 -26.0296,-29.75816c-0.61567,-0.62534 -1.06239,-1.48301 -1.84703,-1.876c-1.07756,-0.53971 -2.37719,-0.43926 -3.52277,-0.81354c-2.86736,-0.93679 -5.55269,-2.80524 -8.37922,-3.76004c-0.55858,-0.18869 -1.19071,0.14711 -1.76849,0.02975c-1.10316,-0.22409 -2.14162,-0.69438 -3.21244,-1.04156l-1.79915,-1.47825c0,0 -1.51983,-1.51983 0,-3.03966z" fill="#ff7b00" stroke-width="0.5"/><path d="M373.07295,251.32844c0,-2.14936 2.14936,-2.14936 2.14936,-2.14936l3.04801,0.32101c0.41243,0.70754 0.58863,1.62268 1.23729,2.12264c0.62513,0.48182 1.55195,0.32077 2.2913,0.59701c0.56321,0.21043 0.99875,0.74012 1.58932,0.8529c0.94199,0.17988 1.93665,-0.18808 2.87704,0c0.70092,0.14018 1.2171,0.81883 1.91802,0.95901c0.94039,0.18808 1.95615,-0.26771 2.87704,0c3.56,1.03493 3.43784,1.92962 6.08278,2.98315c1.64644,0.65581 3.34797,1.19006 4.93376,1.98133c1.84886,0.92253 3.58032,2.12436 5.53856,2.78363c1.35646,0.45667 2.90421,0.39863 4.14932,1.10449c1.20303,0.68201 1.96536,1.94603 2.94804,2.91905c5.59765,1.78152 10.08804,7.7763 15.43584,8.32621c7.079,0.72793 14.63865,-1.31034 21.11497,-3.26235c3.15576,-0.95117 6.20194,-3.36006 9.79031,-3.46684c0,0 2.14936,0 2.14936,2.14936c0,2.14936 -2.14936,2.14936 -2.14936,2.14936c-2.95551,-0.17988 -5.82206,2.46636 -8.43093,3.24624c-6.54249,1.95578 -15.93271,4.45276 -22.99958,3.45074c-6.78917,-0.96265 -10.66027,-6.67969 -17.17058,-8.93601c-0.93535,-0.945 -1.65412,-2.17094 -2.80604,-2.83501c-1.04409,-0.60191 -2.37828,-0.43598 -3.52278,-0.81354c-2.71604,-0.89599 -5.09104,-2.80747 -7.74891,-3.86615c-0.93913,-0.37408 -1.93897,-0.58229 -2.87704,-0.95901c-0.8772,-0.35227 -5.19852,-2.70741 -5.42537,-2.77092c-0.9235,-0.25855 -1.93664,0.18808 -2.87703,0c-0.70092,-0.14018 -1.2171,-0.81883 -1.91803,-0.95901c-0.94039,-0.18808 -1.93809,0.19519 -2.87703,0c-0.81146,-0.16869 -1.48202,-0.74554 -2.24673,-1.06513c-1.13986,-0.47637 -2.46607,-0.59109 -3.46278,-1.32102c-0.49583,-0.3631 -0.45382,-1.14227 -0.68073,-1.71341l-0.78804,0.321c0,0 -2.14936,0 -2.14936,-2.14936z" fill="#ffea00" stroke-width="0.5"/><path d="M390.33517,230.23018c0,-2.14936 2.14936,-2.14936 2.14936,-2.14936h1.91802c1.74427,0.0214 3.41868,0.69999 5.13935,0.98677c0.94596,0.15766 1.93107,-0.15766 2.87703,0c0.99713,0.16619 1.88611,0.75911 2.87704,0.95901c0.71805,0.14485 1.51431,-0.20213 2.19659,0.06447c1.07354,0.41949 1.81075,1.48042 2.87704,1.91802c0.50596,0.20764 1.10297,-0.17073 1.63946,-0.06447c2.63555,0.522 5.0414,1.36758 7.6721,1.91802c1.61329,0.33756 3.29661,0.00163 4.94459,0.02975c4.00571,1.90741 7.56238,4.15032 11.63718,5.7888c0.75335,0.30292 1.74455,-0.21402 2.42516,0.22878c1.87877,1.22231 1.56597,2.9605 4.1589,3.57254c1.90925,0.45067 4.09179,0.31746 5.7095,1.42713c0.50679,0.34764 0.19692,1.33445 0.68073,1.71341c1.29545,1.01472 6.85624,1.57979 8.51532,2.81035c1.82928,1.35681 2.85247,3.60554 4.64406,5.01173c0,0 1.67837,1.34269 0.33567,3.02106c-1.34269,1.67837 -3.02107,0.33567 -3.02107,0.33567c-1.57074,-1.27598 -2.37771,-3.35146 -3.98705,-4.57839c-1.9714,-1.50297 -6.53712,-1.5891 -8.7469,-2.94372c-0.69823,-0.42802 -0.61237,-1.5933 -1.23729,-2.12264c-0.99493,-0.84274 -2.83214,-0.21819 -3.88062,-0.49089c-2.78869,-0.72531 -3.74039,-2.92053 -5.43123,-4.09956c-1.94212,-1.35426 -9.71813,-3.81719 -12.79001,-5.49057c-0.45858,0.01107 -4.13078,0.12858 -4.64553,0.02975c-2.62932,-0.50484 -5.04682,-1.38844 -7.6721,-1.91803c-0.71805,-0.14485 -1.51431,0.20213 -2.19659,-0.06447c-1.07354,-0.41949 -1.81075,-1.48043 -2.87704,-1.91803c-0.50596,-0.20764 -1.10297,0.17073 -1.63946,0.06447c-0.99162,-0.1964 -1.87991,-0.79282 -2.87704,-0.95901c-0.94596,-0.15766 -1.93107,0.15766 -2.87704,0c-1.4951,-0.24918 -2.93529,-0.95799 -4.45077,-0.93126h-1.91802c0,0 -2.14936,0 -2.14936,-2.14936z" fill="#ffea00" stroke-width="0.5"/><path d="M394.40255,180.1302c1.52458,0 1.96775,1.08141 2.09657,1.71011c0.54908,0.23706 1.07877,0.49694 1.4452,0.94902c0.60756,0.74958 0.19749,2.05939 0.8551,2.76547c0.5077,0.54514 1.47941,0.23914 2.17973,0.49309c0.76158,0.27617 1.47802,0.6717 2.17432,1.08575c2.39054,1.42153 5.32606,3.79484 8.04611,4.5622c1.029,0.2903 2.24577,-0.36459 3.20574,0.10612c1.29245,0.63373 1.86217,2.28092 3.1135,2.99241c1.14578,0.65147 2.69411,0.30084 3.83605,0.95901c1.27972,0.73759 2.04551,2.14022 3.18072,3.08522c1.48591,1.23693 3.57299,1.66454 4.95222,3.0194c1.02636,1.00823 1.23021,2.82756 2.4872,3.52752c0.94268,0.52493 2.20755,0.40725 3.0517,1.07926c0.90174,0.71786 1.27868,1.91803 1.91802,2.87704c10.26049,2.9192 16.55874,13.16236 21.62198,21.67639c3.28496,5.52379 3.97669,12.22713 7.63212,17.67946c0,0 1.19225,1.78838 -0.59612,2.98063c-1.78838,1.19225 -2.98063,-0.59612 -2.98063,-0.59612c-9.53198,-14.36728 -9.29644,-31.33302 -28.28663,-38.32413c-0.63934,-0.95901 -1.01985,-2.15472 -1.91802,-2.87704c-0.73498,-0.59109 -1.90648,-0.33265 -2.70237,-0.83877c-0.99874,-0.63511 -1.799,-1.5601 -2.53169,-2.48963c-0.37367,-0.47407 -0.31435,-1.2222 -0.73519,-1.65495c-0.37225,-0.38278 -1.01708,-0.34864 -1.47701,-0.61984c-1.09201,-0.64389 -2.18744,-1.30275 -3.16089,-2.11484c-0.94895,-0.79165 -1.49788,-2.06011 -2.57335,-2.66885c-1.14704,-0.64924 -2.69317,-0.30246 -3.83605,-0.95901c-1.10438,-0.63443 -1.50679,-2.18142 -2.64057,-2.76166c-0.75683,-0.38732 -1.73161,0.34229 -2.54833,0.10612c-2.26097,-0.65381 -4.31958,-1.90113 -6.33908,-3.1099c-1.51788,-0.90853 -2.91427,-2.04999 -4.53876,-2.75029c-1.17785,-0.50776 -2.64525,-0.54066 -3.57434,-1.42494c-0.76589,-0.72894 -0.47123,-2.11234 -1.06293,-2.9886c-0.24847,-0.36796 -0.837,-0.29655 -1.2555,-0.44483l-1.18814,-2.88146c0,0 0,-2.14936 2.14936,-2.14936z" fill="#ffea00" stroke-width="0.5"/></g></g></g></svg>