<svg version="1.1" xmlns="http://www.w3.org/2000/svg" xmlns:xlink="http://www.w3.org/1999/xlink" width="912.13678" height="696.65511" viewBox="0,0,912.13678,696.65511"><defs><radialGradient cx="319.8395" cy="180.41517" r="324.59923" gradientUnits="userSpaceOnUse" id="color-1"><stop offset="0" stop-color="#00b8ff" stop-opacity="0.59608"/><stop offset="1" stop-color="#00e8ff" stop-opacity="0.30588"/></radialGradient></defs><g transform="translate(41.25,45.53125)"><g stroke-miterlimit="10"><path d="M-40,391.71875v-436h726v436z" fill="#000000" stroke="#000000" stroke-width="2.5"/><path d="M-4.75972,364.88457v-368.93881h649.19845v368.93881z" fill="#000000" stroke="url(#color-1)" stroke-width="0"/><path d="M540.29722,97.17387c0,-2.07107 1.67893,-3.75 3.75,-3.75c2.07107,0 3.75,1.67893 3.75,3.75c0,2.07107 -1.67893,3.75 -3.75,3.75c-2.07107,0 -3.75,-1.67893 -3.75,-3.75z" fill="#ffffff" stroke="none" stroke-width="0.5"/><path d="M609.73468,124.78154c0,-2.07107 1.67893,-3.75 3.75,-3.75c2.07107,0 3.75,1.67893 3.75,3.75c0,2.07107 -1.67893,3.75 -3.75,3.75c-2.07107,0 -3.75,-1.67893 -3.75,-3.75z" fill="#ffffff" stroke="none" stroke-width="0.5"/><path d="M459.14741,89.64451c0,-2.07107 1.67893,-3.75 3.75,-3.75c2.07107,0 3.75,1.67893 3.75,3.75c0,2.07107 -1.67893,3.75 -3.75,3.75c-2.07107,0 -3.75,-1.67893 -3.75,-3.75z" fill="#ffffff" stroke="none" stroke-width="0.5"/><path d="M460.8206,137.33048c0,-2.07107 1.67893,-3.75 3.75,-3.75c2.07107,0 3.75,1.67893 3.75,3.75c0,2.07107 -1.67893,3.75 -3.75,3.75c-2.07107,0 -3.75,-1.67893 -3.75,-3.75z" fill="#ffffff" stroke="none" stroke-width="0.5"/><path d="M381.34399,162.42836c0,-2.07107 1.67893,-3.75 3.75,-3.75c2.07107,0 3.75,1.67893 3.75,3.75c0,2.07107 -1.67893,3.75 -3.75,3.75c-2.07107,0 -3.75,-1.67893 -3.75,-3.75z" fill="#ffffff" stroke="none" stroke-width="0.5"/><path d="M360.42909,210.11433c0,-2.07107 1.67893,-3.75 3.75,-3.75c2.07107,0 3.75,1.67893 3.75,3.75c0,2.07107 -1.67893,3.75 -3.75,3.75c-2.07107,0 -3.75,-1.67893 -3.75,-3.75z" fill="#ffffff" stroke="none" stroke-width="0.5"/><path d="M314.41632,241.90497c0,-2.07107 1.67893,-3.75 3.75,-3.75c2.07107,0 3.75,1.67893 3.75,3.75c0,2.07107 -1.67893,3.75 -3.75,3.75c-2.07107,0 -3.75,-1.67893 -3.75,-3.75z" fill="#ffffff" stroke="none" stroke-width="0.5"/><path d="M303.94418,305.88988c-1.7941,0 -2.72985,-0.85835 -3.21792,-1.75373c-1.08684,-0.2092 -3.04187,-0.96182 -3.04187,-3.66947c0,-3.75 3.75,-3.75 3.75,-3.75c0.83659,0 1.67319,0 2.50979,0l3.75,5.42319c0,0 0,3.75 -3.75,3.75z" fill="#ffffff" stroke="none" stroke-width="0.5"/><path d="M326.96525,325.56457c0,-2.07107 1.67893,-3.75 3.75,-3.75c2.07107,0 3.75,1.67893 3.75,3.75c0,2.07107 -1.67893,3.75 -3.75,3.75c-2.07107,0 -3.75,-1.67893 -3.75,-3.75z" fill="#ffffff" stroke="none" stroke-width="0.5"/><path d="M337.00441,273.69561c0,-2.07107 1.67893,-3.75 3.75,-3.75c2.07107,0 3.75,1.67893 3.75,3.75c0,2.07107 -1.67893,3.75 -3.75,3.75c-2.07107,0 -3.75,-1.67893 -3.75,-3.75z" fill="#ffffff" stroke="none" stroke-width="0.5"/><path d="M270.86659,351.11376c0,-165.691 134.31909,-300.0101 300.01009,-300.0101c165.69101,0 300.0101,134.31909 300.0101,300.0101c0,165.691 -134.31909,300.0101 -300.0101,300.0101c-165.69101,0 -300.01009,-134.31909 -300.01009,-300.0101z" fill-opacity="0.32549" fill="#ccfbff" stroke="none" stroke-width="50"/><path d="M358.02036,351.11376c0,-117.5573 95.29902,-212.85633 212.85632,-212.85633c117.55731,0 212.85633,95.29902 212.85633,212.85633c0,117.5573 -95.29902,212.85633 -212.85633,212.85633c-117.5573,0 -212.85632,-95.29902 -212.85632,-212.85633z" fill="#77e813" stroke="none" stroke-width="50"/><path d="M534.12925,216.73943c-1.70734,1.02532 -3.92734,1.69192 -6.81394,1.69192c-12.5,0 -12.5,-12.5 -12.5,-12.5l12.5,-14.17319c1.67319,0 3.34639,0 5.01958,0c1.22173,0 2.7959,-0.5894 4.14348,-0.79988c-0.7463,-1.53854 -1.61672,-3.03948 -2.05827,-4.66857c-0.71385,-0.26654 -1.38348,-0.58268 -1.3938,-1.23121c-0.10101,-6.34768 0.40151,-12.82636 2.1821,-18.92003c0.2088,-0.71458 1.58894,-0.97054 2.51095,-0.73125c5.08572,-7.23588 7.99218,-7.9495 18.04023,-7.9495c0,0 12.5,0 12.5,12.5c0,7.92938 -5.03001,10.82876 -8.70845,11.88891c0.11857,0.49455 0.21457,0.86103 0.28504,1.03722c2.40121,6.00302 4.94556,17.05326 1.08817,23.08955c-5.47114,8.56157 -17.10486,10.5603 -26.79507,10.76603z" fill="#13d8e8" stroke="none" stroke-width="0.5"/><path d="M425.29953,253.61731c0,-6.90356 5.59644,-12.5 12.5,-12.5c6.90356,0 12.5,5.59644 12.5,12.5c0,6.90356 -5.59644,12.5 -12.5,12.5c-6.90356,0 -12.5,-5.59644 -12.5,-12.5z" fill="#13d8e8" stroke="none" stroke-width="0.5"/><path d="M544.51798,269.48667c0.97546,-4.3236 -0.00063,-10.09533 4.07594,-13.83244c1.98548,-1.82015 4.70484,-2.83845 7.45503,-3.26407c0.28667,-0.38934 0.60739,-0.71964 0.91093,-0.91891c4.02832,-2.64453 9.68903,-2.84485 12.97977,-6.36508c5.55166,-0.78983 11.72766,-1.45962 17.0041,-2.5108c3.61464,-0.72011 7.3539,-6.17116 10.25033,-7.7737c0.50989,-0.28212 0.95534,-0.51715 1.34186,-0.70965c-0.13994,-2.617 -0.12534,-8.48214 -0.06105,-8.93896c0.97977,-6.96145 0.29004,-9.15698 5.30048,-11.94749c0.09686,-1.98801 0.30027,-4.08957 1.58596,-5.4999c7.67536,-8.41937 17.17622,-8.32206 27.36506,-8.43815c7.78054,0.30732 12.28647,-0.47545 18.65889,8.48253c2.99835,4.21492 -0.57791,10.68308 0.37247,15.40072c0.85714,4.25481 2.32344,8.26611 3.17341,12.51591c0.53359,2.66791 2.00341,7.97661 2.45917,11.40016c0.31671,0.39888 0.66023,0.93409 1.02793,1.63203c2.51645,4.77649 9.73812,32.58347 9.89844,37.16357c0.78023,1.56046 3.76217,14.56889 4.94921,21.69862c0.48947,0.45459 1.11213,1.40116 1.88427,3.04591c2.74388,5.84476 8.22767,32.05949 6.88644,38.36229c-0.99447,4.67332 -0.55255,10.23 -3.66117,13.85841c-2.58611,3.01853 -7.49167,2.70023 -11.34862,3.66116c-1.78031,0.44356 -6.842,0.91032 -5.49405,-0.33439c-11.97852,5.98926 -66.99048,2.84418 -84.02171,2.84418c-19.10952,0 -38.10371,-2.50979 -58.56172,-2.50979c-11.30674,-1.07781 -20.08622,3.80068 -31.42692,-2.82457c-1.32297,-0.77288 -0.56833,-3.13367 -1.51201,-4.34076c-0.21638,-0.27678 -0.48758,-0.52376 -0.79369,-0.75058c-6.54609,0.7233 -13.9423,0.38654 -18.97293,0.38654c-6.50995,0 -18.92255,1.35856 -21.89668,-6.60178c-2.13734,-5.72062 2.94773,-11.85266 4.42159,-17.77899c1.89911,-0.97003 6.39292,-2.95917 8.4604,-3.631c-0.15808,-0.20979 -0.23985,-0.4557 -0.09445,-0.55198c2.12932,-1.40995 8.20987,-3.88748 9.34437,-3.88872c1.94642,-1.73543 6.9872,-5.49184 12.78817,-7.27187c2.27292,-0.69745 8.94415,-2.47097 12.68723,-2.35517c0.32743,-0.29849 0.70107,-0.54691 1.01837,-0.68313c2.21762,-0.95202 4.7143,-1.09841 7.12149,-1.30712c0.44241,-0.80186 0.83496,-1.66437 1.61528,-2.07262c6.11277,-3.19806 13.20243,-3.81357 18.96177,-6.89174c-0.65755,-1.92645 -0.9773,-4.10144 -0.78413,-6.6215c0.69912,-9.1207 5.26829,-13.28637 11.6812,-15.79946c0.3908,-3.91323 0.67476,-8.59782 3.63995,-11.13824c2.04524,-1.75225 5.61414,-2.37627 9.3096,-2.89948z" fill="#13d8e8" stroke="none" stroke-width="0.5"/><path d="M394.29915,282.22546c-2.64608,-1.74327 -4.97324,-4.80957 -4.97324,-10.20303c0,-12.5 12.5,-12.5 12.5,-12.5l9.91803,1.86687c2.42239,3.70254 5.62357,6.99964 7.26717,11.1076c1.14378,2.85874 -0.53869,6.2399 0.17298,9.23559c0.69191,2.91253 2.40699,5.0839 1.73577,8.10799c0.97773,0.36563 1.97146,0.72791 2.73891,1.41247c1.80994,1.61446 3.10662,3.72535 4.65993,5.58803c0,0 7.80869,9.76086 -1.95217,17.56955c-9.76086,7.80869 -17.56955,-1.95217 -17.56955,-1.95217c-0.67761,-0.92597 -1.18321,-2.00674 -2.03283,-2.77793c-2.02116,-1.83457 -4.97206,-2.71493 -6.5061,-4.9727c-2.12843,-3.13259 -3.01539,-6.96957 -4.07796,-10.60471c-0.31295,-1.07066 0.21876,-2.25259 0,-3.34638c-0.34589,-1.72945 -1.36588,-3.28285 -1.67319,-5.01957c-0.20441,-1.15521 -0.22755,-2.33317 -0.20774,-3.51159z" fill="#13d8e8" stroke="none" stroke-width="0.5"/><path d="M494.28444,31.08279c0,-2.07107 1.67893,-3.75 3.75,-3.75c2.07107,0 3.75,1.67893 3.75,3.75c0,2.07107 -1.67893,3.75 -3.75,3.75c-2.07107,0 -3.75,-1.67893 -3.75,-3.75z" fill="#ffffff" stroke="none" stroke-width="0.5"/><path d="M347.88015,84.62493c0,-2.07107 1.67893,-3.75 3.75,-3.75c2.07107,0 3.75,1.67893 3.75,3.75c0,2.07107 -1.67893,3.75 -3.75,3.75c-2.07107,0 -3.75,-1.67893 -3.75,-3.75z" fill="#ffffff" stroke="none" stroke-width="0.5"/><path d="M398.07591,37.77556c0,-2.07107 1.67893,-3.75 3.75,-3.75c2.07107,0 3.75,1.67893 3.75,3.75c0,2.07107 -1.67893,3.75 -3.75,3.75c-2.07107,0 -3.75,-1.67893 -3.75,-3.75z" fill="#ffffff" stroke="none" stroke-width="0.5"/><path d="M244.14226,29.4096c0,-2.07107 1.67893,-3.75 3.75,-3.75c2.07107,0 3.75,1.67893 3.75,3.75c0,2.07107 -1.67893,3.75 -3.75,3.75c-2.07107,0 -3.75,-1.67893 -3.75,-3.75z" fill="#ffffff" stroke="none" stroke-width="0.5"/><path d="M274.23035,154.0624c0,3.75 -3.75,3.75 -3.75,3.75c-0.83659,0 -4.18298,0 -5.01957,0c0,0 -3.75,0 -3.75,-3.75c0,-3.75 3.75,-3.75 3.75,-3.75c0.83659,0 1.67319,0 2.50978,0h2.50979c0,0 3.75,0 3.75,3.75z" fill="#ffffff" stroke="none" stroke-width="0.5"/><path d="M200.63927,96.33728c0,-2.07107 1.67893,-3.75 3.75,-3.75c2.07107,0 3.75,1.67893 3.75,3.75c0,2.07107 -1.67893,3.75 -3.75,3.75c-2.07107,0 -3.75,-1.67893 -3.75,-3.75z" fill="#ffffff" stroke="none" stroke-width="0.5"/><path d="M95.22818,36.10237c0,-2.07107 1.67893,-3.75 3.75,-3.75c2.07107,0 3.75,1.67893 3.75,3.75c0,2.07107 -1.67893,3.75 -3.75,3.75c-2.07107,0 -3.75,-1.67893 -3.75,-3.75z" fill="#ffffff" stroke="none" stroke-width="0.5"/><path d="M134.54818,99.68366c0,-2.07107 1.67893,-3.75 3.75,-3.75c2.07107,0 3.75,1.67893 3.75,3.75c0,2.07107 -1.67893,3.75 -3.75,3.75c-2.07107,0 -3.75,-1.67893 -3.75,-3.75z" fill="#ffffff" stroke="none" stroke-width="0.5"/><path d="M45.03242,94.66409c0,-2.07107 1.67893,-3.75 3.75,-3.75c2.07107,0 3.75,1.67893 3.75,3.75c0,2.07107 -1.67893,3.75 -3.75,3.75c-2.07107,0 -3.75,-1.67893 -3.75,-3.75z" fill="#ffffff" stroke="none" stroke-width="0.5"/><path d="M24.95412,31.08279c0,-2.07107 1.67893,-3.75 3.75,-3.75c2.07107,0 3.75,1.67893 3.75,3.75c0,2.07107 -1.67893,3.75 -3.75,3.75c-2.07107,0 -3.75,-1.67893 -3.75,-3.75z" fill="#ffffff" stroke="none" stroke-width="0.5"/><path d="M172.19501,151.55261c0,-2.07107 1.67893,-3.75 3.75,-3.75c2.07107,0 3.75,1.67893 3.75,3.75c0,2.07107 -1.67893,3.75 -3.75,3.75c-2.07107,0 -3.75,-1.67893 -3.75,-3.75z" fill="#ffffff" stroke="none" stroke-width="0.5"/><path d="M88.53541,172.46751c0,-2.07107 1.67893,-3.75 3.75,-3.75c2.07107,0 3.75,1.67893 3.75,3.75c0,2.07107 -1.67893,3.75 -3.75,3.75c-2.07107,0 -3.75,-1.67893 -3.75,-3.75z" fill="#ffffff" stroke="none" stroke-width="0.5"/><path d="M28.3005,231.02922c0,-2.07107 1.67893,-3.75 3.75,-3.75c2.07107,0 3.75,1.67893 3.75,3.75c0,2.07107 -1.67893,3.75 -3.75,3.75c-2.07107,0 -3.75,-1.67893 -3.75,-3.75z" fill="#ffffff" stroke="none" stroke-width="0.5"/><path d="M214.0248,205.09475c0,-3.75 3.75,-3.75 3.75,-3.75h3.34638c0,0 3.75,0 3.75,3.75c0,3.75 -3.75,3.75 -3.75,3.75h-3.34638c0,0 -3.75,0 -3.75,-3.75z" fill="#ffffff" stroke="none" stroke-width="0.5"/><path d="M168.84862,241.90497c0,-2.07107 1.67893,-3.75 3.75,-3.75c2.07107,0 3.75,1.67893 3.75,3.75c0,2.07107 -1.67893,3.75 -3.75,3.75c-2.07107,0 -3.75,-1.67893 -3.75,-3.75z" fill="#ffffff" stroke="none" stroke-width="0.5"/><path d="M106.28135,256.55676c2.08012,3.12019 -1.04006,5.20031 -1.04006,5.20031l-2.50979,1.6732c0,0 -3.12019,2.08012 -5.20031,-1.04007c-2.08012,-3.12019 1.04006,-5.20031 1.04006,-5.20031l2.50979,-1.67319c0,0 3.12019,-2.08013 5.20032,1.04006z" fill="#ffffff" stroke="none" stroke-width="0.5"/><path d="M219.88097,313.01563c0,-2.07107 1.67893,-3.75 3.75,-3.75c2.07107,0 3.75,1.67893 3.75,3.75c0,2.07107 -1.67893,3.75 -3.75,3.75c-2.07107,0 -3.75,-1.67893 -3.75,-3.75z" fill="#ffffff" stroke="none" stroke-width="0.5"/><path d="M118.65287,323.05478c0,-2.07107 1.67893,-3.75 3.75,-3.75c2.07107,0 3.75,1.67893 3.75,3.75c0,2.07107 -1.67893,3.75 -3.75,3.75c-2.07107,0 -3.75,-1.67893 -3.75,-3.75z" fill="#ffffff" stroke="none" stroke-width="0.5"/><path d="M41.68603,320.54499c0,-2.07107 1.67893,-3.75 3.75,-3.75c2.07107,0 3.75,1.67893 3.75,3.75c0,2.07107 -1.67893,3.75 -3.75,3.75c-2.07107,0 -3.75,-1.67893 -3.75,-3.75z" fill="#ffffff" stroke="none" stroke-width="0.5"/><path d="M587.14659,41.12194c0,-2.07107 1.67893,-3.75 3.75,-3.75c2.07107,0 3.75,1.67893 3.75,3.75c0,2.07107 -1.67893,3.75 -3.75,3.75c-2.07107,0 -3.75,-1.67893 -3.75,-3.75z" fill="#ffffff" stroke="none" stroke-width="0.5"/><path d="M385.52697,91.3177c0,-2.07107 1.67893,-3.75 3.75,-3.75c2.07107,0 3.75,1.67893 3.75,3.75c0,2.07107 -1.67893,3.75 -3.75,3.75c-2.07107,0 -3.75,-1.67893 -3.75,-3.75z" fill="#ffffff" stroke="none" stroke-width="0.5"/><path d="M311.06993,170.79432c0,-2.07107 1.67893,-3.75 3.75,-3.75c2.07107,0 3.75,1.67893 3.75,3.75c0,2.07107 -1.67893,3.75 -3.75,3.75c-2.07107,0 -3.75,-1.67893 -3.75,-3.75z" fill="#ffffff" stroke="none" stroke-width="0.5"/><path d="M270.07673,225.17305c0,-2.07107 1.67893,-3.75 3.75,-3.75c2.07107,0 3.75,1.67893 3.75,3.75c0,2.07107 -1.67893,3.75 -3.75,3.75c-2.07107,0 -3.75,-1.67893 -3.75,-3.75z" fill="#ffffff" stroke="none" stroke-width="0.5"/><path d="M242.46906,273.69561c0,-2.07107 1.67893,-3.75 3.75,-3.75c2.07107,0 3.75,1.67893 3.75,3.75c0,2.07107 -1.67893,3.75 -3.75,3.75c-2.07107,0 -3.75,-1.67893 -3.75,-3.75z" fill="#ffffff" stroke="none" stroke-width="0.5"/><path d="M264.22056,99.68366c0,-2.07107 1.67893,-3.75 3.75,-3.75c2.07107,0 3.75,1.67893 3.75,3.75c0,2.07107 -1.67893,3.75 -3.75,3.75c-2.07107,0 -3.75,-1.67893 -3.75,-3.75z" fill="#ffffff" stroke="none" stroke-width="0.5"/><path d="M306.05036,37.77556c0,-2.07107 1.67893,-3.75 3.75,-3.75c2.07107,0 3.75,1.67893 3.75,3.75c0,2.07107 -1.67893,3.75 -3.75,3.75c-2.07107,0 -3.75,-1.67893 -3.75,-3.75z" fill="#ffffff" stroke="none" stroke-width="0.5"/><path d="M162.15585,62.03684c0,-2.07107 1.67893,-3.75 3.75,-3.75c2.07107,0 3.75,1.67893 3.75,3.75c0,2.07107 -1.67893,3.75 -3.75,3.75c-2.07107,0 -3.75,-1.67893 -3.75,-3.75z" fill="#ffffff" stroke="none" stroke-width="0.5"/><path d="M86.86222,116.41558c0,-2.07107 1.67893,-3.75 3.75,-3.75c2.07107,0 3.75,1.67893 3.75,3.75c0,2.07107 -1.67893,3.75 -3.75,3.75c-2.07107,0 -3.75,-1.67893 -3.75,-3.75z" fill="#ffffff" stroke="none" stroke-width="0.5"/><path d="M28.3005,149.87942c0,-2.07107 1.67893,-3.75 3.75,-3.75c2.07107,0 3.75,1.67893 3.75,3.75c0,2.07107 -1.67893,3.75 -3.75,3.75c-2.07107,0 -3.75,-1.67893 -3.75,-3.75z" fill="#ffffff" stroke="none" stroke-width="0.5"/><path d="M141.24096,212.62411c0,-2.07107 1.67893,-3.75 3.75,-3.75c2.07107,0 3.75,1.67893 3.75,3.75c0,2.07107 -1.67893,3.75 -3.75,3.75c-2.07107,0 -3.75,-1.67893 -3.75,-3.75z" fill="#ffffff" stroke="none" stroke-width="0.5"/><path d="M142.91414,287.91775c0,-2.07107 1.67893,-3.75 3.75,-3.75c2.07107,0 3.75,1.67893 3.75,3.75c0,2.07107 -1.67893,3.75 -3.75,3.75c-2.07107,0 -3.75,-1.67893 -3.75,-3.75z" fill="#ffffff" stroke="none" stroke-width="0.5"/><path d="M58.41796,297.95689c0,-2.07107 1.67893,-3.75 3.75,-3.75c2.07107,0 3.75,1.67893 3.75,3.75c0,2.07107 -1.67893,3.75 -3.75,3.75c-2.07107,0 -3.75,-1.67893 -3.75,-3.75z" fill="#ffffff" stroke="none" stroke-width="0.5"/><path d="M168.01203,339.7867c0,-2.07107 1.67893,-3.75 3.75,-3.75c2.07107,0 3.75,1.67893 3.75,3.75c0,2.07107 -1.67893,3.75 -3.75,3.75c-2.07107,0 -3.75,-1.67893 -3.75,-3.75z" fill="#ffffff" stroke="none" stroke-width="0.5"/><path d="M85.18903,346.47946c0,-2.07107 1.67893,-3.75 3.75,-3.75c2.07107,0 3.75,1.67893 3.75,3.75c0,2.07107 -1.67893,3.75 -3.75,3.75c-2.07107,0 -3.75,-1.67893 -3.75,-3.75z" fill="#ffffff" stroke="none" stroke-width="0.5"/><g stroke="none"><path d="M273.84595,183.68585c2.2077,-8.15822 -4.72353,-21.65358 4.40899,-23.47401c9.88529,-1.97048 25.41907,4.68567 28.87883,-11.21851c1.50931,-6.93814 16.93504,4.949 24.47664,6.98983c1.62621,0.44007 1.77457,12.3061 4.5298,12.63304c8.2571,0.97983 21.95424,-9.69796 25.30801,-6.73956c6.34958,5.60103 -2.23208,15.54143 4.73933,20.48563c7.15855,5.07692 22.91579,3.46016 24.1872,10.22608c0.86748,4.61639 -11.12291,14.73553 -12.35485,19.28801c-1.28242,4.73901 -15.2184,-3.44391 -16.87137,0.42522c-1.66568,3.89888 -1.18806,11.59748 -1.67092,17.6978c-0.3658,4.62147 -1.28284,8.32565 -4.10064,8.76549c-4.38569,0.68458 -17.82716,-12.98585 -24.33593,-19.33266c-2.18991,-2.13541 -18.21914,18.13524 -21.28374,17.30594c-2.43563,-0.65911 -2.10737,-8.6441 -2.86977,-11.68186c-1.63302,-6.50673 -2.78135,-10.59796 -8.19933,-14.0723c-8.91846,-5.71908 -34.48441,14.22072 -23.55779,6.27683c4.50532,-3.27546 7.94211,-8.78306 1.31982,-15.913c-6.39061,-6.88052 -21.51106,-7.2395 -21.40581,-10.75142c0.1056,-3.52363 17.8312,-3.32478 18.80154,-6.91055z" fill="#5d554f" stroke-width="0"/><path d="M125.77012,142.26263c0,-3.75 3.75,-3.75 3.75,-3.75l4.20796,0.10031c1.71216,0.89041 3.69768,1.38507 5.13646,2.67123c0.7402,0.66169 0.09761,2.3792 0.99303,2.80809c1.18344,0.56686 2.61544,-0.67618 3.90966,-0.45974c1.23004,0.2057 2.13649,1.37072 3.34638,1.67319c1.08215,0.27054 2.26423,-0.27054 3.34638,0c1.20989,0.30247 2.12348,1.42862 3.34638,1.6732c1.6407,0.32814 3.38599,-0.3619 5.01958,0c1.57412,0.34873 2.91135,1.3863 4.36703,2.07946c6.57621,4.42697 15.80607,4.56943 21.84077,8.41944c1.6879,1.07685 1.92623,4.28669 3.90966,4.55983c4.13181,0.569 9.77689,1.55938 13.30778,4.16312c1.07088,0.78968 0.97176,2.54411 1.86783,3.52768c1.82124,1.99907 5.23831,1.49945 7.62488,2.77124c6.10425,3.25294 13.14183,9.16976 17.47299,13.96068c1.95192,2.15911 9.58853,4.04742 12.25064,5.69974c-0.04926,1.04173 -0.85627,2.3599 -0.14778,3.12521c1.66073,1.79393 4.81944,1.08148 7.00086,2.18494c12.85599,6.50321 23.70272,16.7448 36.78073,23.41011c7.66822,3.90816 14.27997,11.18614 19.5905,17.64359c1.25092,1.52108 3.1156,2.59779 3.97798,4.36833c0.13481,0.27677 -0.29388,0.83578 -0.62075,1.05479c0.91876,0.10356 3.41599,0.66649 3.41599,3.72665c0,3.75 -3.75,3.75 -3.75,3.75c-7.1512,-1.52177 -7.34149,-8.11404 -12.87989,-13.66907c-10.1626,-10.19314 -30.93947,-21.17981 -43.47034,-28.72078c-4.63076,-2.78675 -16.09578,-8.55183 -16.27717,-12.93079c-11.20236,-1.26794 -17.44027,-12.17901 -27.1649,-17.14981c-4.01744,-2.05354 -5.52442,-0.57039 -9.10703,-3.92153c-0.85041,-0.79547 -0.55509,-2.4557 -1.47854,-3.16508c-2.61158,-2.00616 -7.29452,-1.64088 -10.11691,-2.52965c-2.61397,-0.82314 -3.91302,-3.86759 -6.12949,-5.47932c-4.81897,-3.50414 -15.64634,-4.33759 -21.66223,-8.31249c-0.77524,-0.4223 -1.45577,-1.11687 -2.32573,-1.26692c-1.64884,-0.2844 -3.37888,0.32814 -5.01958,0c-1.2229,-0.24458 -2.13649,-1.37072 -3.34638,-1.67319c-1.08216,-0.27054 -2.26423,0.27054 -3.34639,0c-1.20989,-0.30247 -2.1297,-1.39933 -3.34638,-1.6732c-1.99889,-0.44993 -4.30584,0.47423 -6.12949,-0.45974c-1.78204,-0.91266 -2.0729,-3.76301 -3.90966,-4.55984l-2.48481,0.10032c0,0 -3.75,0 -3.75,-3.75z" fill="#ff0000" stroke-width="0.5"/><path d="M207.75653,73.66176c0,-3.75 3.75,-3.75 3.75,-3.75l3.75332,0.62981c3.00359,2.01479 5.59137,4.59239 8.4785,6.7708c4.16478,3.14243 9.45411,5.12358 13.57033,8.50809c0.94664,0.77837 1.3005,2.24867 2.40399,2.78187c1.10575,0.53429 2.69329,-0.57178 3.68079,0.15827c1.91682,1.41709 2.69819,3.94598 4.28137,5.72808c1.9324,2.1752 8.87087,4.08222 9.69748,4.70535c1.64569,1.24058 2.0547,3.61782 3.46536,5.12028c2.04875,2.18207 5.93222,1.54831 8.34121,3.32473c1.07088,0.78968 0.97176,2.54411 1.86784,3.52769c0.51565,0.566 1.41986,0.57353 2.1298,0.86029c2.07872,0.82869 4.6178,0.94054 6.23616,2.48609c1.15365,1.10174 -0.05085,3.65728 1.2142,4.62906c1.13214,0.86969 2.93315,-0.94424 4.26198,-0.42239c3.32816,1.30703 6.41416,3.27141 9.20712,5.50397c4.37217,3.49492 7.6419,9.99465 11.91788,13.5544c9.8396,8.19142 21.14568,14.02591 30.11745,23.42468c2.75426,2.88534 8.00754,2.54928 10.57386,5.60299c1.80334,2.14582 1.55982,7.64295 1.57013,10.59384c0,0 0,3.75 -3.75,3.75c-3.75,0 -3.75,-3.75 -3.75,-3.75c0.00088,-0.20844 0.06717,-5.97245 -0.10306,-6.13808c-1.38461,-1.34714 -3.60282,-1.40311 -5.35336,-2.22017c-5.28181,-2.46526 -7.43022,-6.9637 -12.20119,-10.33198c-7.02607,-4.96036 -15.61926,-9.93036 -22.06736,-15.30871c-4.15301,-3.46401 -7.33092,-9.87279 -11.50681,-13.21668c-1.86376,-1.49242 -12.87336,-4.6415 -13.30197,-4.95757c-1.56006,-1.15041 -0.7997,-4.00234 -2.13218,-5.41008c-0.89345,-0.94391 -2.53532,-0.57353 -3.80299,-0.8603c-1.52099,-0.82869 -3.29801,-1.30286 -4.56297,-2.48609c-0.85041,-0.79547 -0.55509,-2.4557 -1.47854,-3.16508c-2.39004,-1.83598 -6.20654,-1.2914 -8.39071,-3.36805c-1.42121,-1.35125 -1.66661,-3.73159 -3.22741,-4.91886c-1.81796,-1.38288 -4.38135,-1.37049 -6.413,-2.41438c-1.46052,-0.75043 -2.88147,-1.6881 -3.96782,-2.91942c-1.08934,-1.2347 -1.10409,-3.31004 -2.4114,-4.31108c-0.79824,-0.61123 -2.11781,0.61788 -3.01198,0.15827c-1.72073,-0.88447 -2.76394,-2.72008 -4.28878,-3.9109c-4.07781,-3.18456 -9.12355,-5.18185 -13.20074,-8.22384c-2.82583,-2.10834 -5.31359,-4.66851 -8.25342,-6.61474l0.40693,0.62981c0,0 -3.75,0 -3.75,-3.75z" fill="#ff0000" stroke-width="0.5"/><path d="M155.31274,119.53268c2.65165,-2.65165 5.3033,0 5.3033,0l0.69859,0.97074c0.84364,0.4592 1.58599,1.20521 2.5309,1.37761c1.64602,0.30032 3.386,-0.3619 5.01958,0c1.57412,0.34873 2.97118,1.2726 4.36704,2.07946c4.94933,2.86091 7.69788,4.34567 12.93837,6.47163c0.97204,0.39433 1.76004,1.21515 2.7729,1.48806c1.4419,0.3885 3.18766,-0.32802 4.4563,0.45974c1.05948,0.65789 0.66991,2.60562 1.6732,3.34638c0.61227,0.45207 1.49276,-0.62139 2.23646,-0.45974c1.21867,0.26488 2.13781,1.36555 3.34638,1.67319c0.95097,0.24207 1.97595,-0.23887 2.94299,-0.07222c5.69388,0.98124 9.37198,3.30816 14.89884,3.87835c2.81517,5.63034 10.32888,3.69966 16.19549,6.41816c1.81585,0.84144 3.86809,1.58998 5.10126,3.16625c0.55867,0.71411 -1.30892,2.18854 -0.53829,2.66623c2.04015,1.26462 4.91742,-0.02284 7.14937,0.86029c9.64579,3.81659 26.93784,15.66373 36.21176,15.60987c0,0 3.75,0 3.75,3.75c0,3.75 -3.75,3.75 -3.75,3.75c-3.11127,-0.0141 -6.28254,0.14531 -9.24529,-1.25222c-6.64097,-3.13253 -14.03909,-7.99375 -20.33387,-11.85678c-5.1482,-3.15939 -14.54069,-2.45025 -19.08527,-5.55786c-1.11777,-0.76435 0.07336,-2.81844 -0.53829,-4.02655c-1.46118,-2.88605 -15.51609,-0.45996 -18.85986,-7.14751c-0.74549,0.15325 -1.49371,0.62576 -2.23646,0.45974c-1.36449,-0.30498 -2.46203,-1.35599 -3.78586,-1.80581c-3.06853,-1.04266 -6.45265,-0.76651 -9.59968,-1.54057c-1.21103,-0.29787 -2.14339,-1.34435 -3.34638,-1.67319c-1.44047,-0.39377 -3.18767,0.32802 -4.45631,-0.45974c-1.05948,-0.65789 -0.6699,-2.60562 -1.67319,-3.34638c-0.61227,-0.45207 -1.4943,0.62835 -2.23647,0.45974c-3.1243,-0.70977 -5.96963,-2.32935 -8.93945,-3.53152c-3.77364,-1.52756 -7.24654,-5.83628 -11.13886,-6.50763c-1.64884,-0.2844 -3.38357,0.35081 -5.01957,0c-1.50057,-0.32176 -2.77457,-1.31251 -4.16186,-1.96877l-2.64779,-2.37565c0,0 -2.65165,-2.65165 0,-5.3033z" fill="#ff0000" stroke-width="0.5"/><path d="M155.31274,137.93779c2.65165,-2.65165 5.3033,0 5.3033,0l0.69859,0.97074c1.28733,0.66171 2.73737,1.07393 3.86199,1.98513c1.62358,1.31548 2.54885,3.40065 4.26198,4.59718c0.52811,0.36886 1.26733,-0.27015 1.91132,-0.28545c1.96012,-0.04657 3.95571,-0.26975 5.88115,0.10031c1.22471,0.23538 2.13649,1.37073 3.34638,1.6732c1.08216,0.27054 2.28243,-0.33504 3.34638,0c1.84073,0.57964 3.68934,1.39445 5.13646,2.67122c0.87319,0.7704 0.55509,2.45571 1.47855,3.16508c1.09203,0.83887 2.70602,0.56414 3.99763,1.0416c1.16976,0.43242 2.19495,1.19412 3.34639,1.6732c1.92203,0.79969 4.21935,0.87713 5.86074,2.15759c1.55005,1.20921 2.15355,3.28961 3.23033,4.93441c12.69386,2.58845 19.69012,11.87834 31.06553,16.33268c3.37054,1.31983 7.30836,0.7486 10.64279,2.15717c5.38604,2.27524 9.49419,6.46132 15.5548,7.69684c2.73245,0.55704 5.67234,-0.72181 8.36596,0c6.93549,1.85851 7.85503,5.77451 15.87034,5.75585c0,0 3.75,0 3.75,3.75c0,3.75 -3.75,3.75 -3.75,3.75c-3.73146,-0.00755 -8.30858,0.157 -11.68672,-1.21792c-3.07209,-1.25036 -2.89919,-4.09339 -5.90677,-4.73857c-2.72662,-0.58491 -5.62998,0.53948 -8.36596,0c-6.38306,-1.2586 -10.95368,-5.56935 -16.5235,-7.99593c-3.37621,-1.4709 -7.40882,-0.84309 -10.82106,-2.22836c-11.83354,-4.80408 -19.66409,-13.49468 -32.51576,-17.13115c-1.15414,-1.70158 -1.8754,-3.79755 -3.46243,-5.10474c-1.11774,-0.92065 -2.82492,-0.67401 -4.17841,-1.18879c-3.17664,-1.2082 -6.65256,-1.96089 -9.38791,-3.97798c-1.07088,-0.78968 -1.02742,-2.49614 -1.86783,-3.52769c-0.99238,-1.21806 -4.12179,-0.47994 -4.90269,-0.67516c-1.20989,-0.30247 -2.12578,-1.41736 -3.34638,-1.67319c-2.03028,-0.42553 -7.06271,0.83289 -8.93945,-0.18514c-3.21476,-1.74381 -5.31196,-5.21826 -8.60795,-6.80322l-2.64779,-2.37564c0,0 -2.65165,-2.65165 0,-5.3033z" fill="#ff7b00" stroke-width="0.5"/><path d="M180.41062,87.74203c2.65165,-2.65165 5.3033,0 5.3033,0l0.69859,0.97074c3.3534,1.72371 5.97191,4.60673 8.88157,7.00471c2.34367,1.93152 6.05534,1.53987 8.44952,3.40839c1.65229,1.28951 2.097,3.67974 3.55191,5.18843c1.78316,1.84906 5.00528,1.73153 6.86266,3.50603c0.84197,0.8044 0.55509,2.45571 1.47854,3.16509c1.09203,0.83887 2.70719,0.561 3.99764,1.04159c2.1515,0.80128 3.88399,2.63731 6.11927,3.16125c1.08603,0.25456 2.28886,-0.35482 3.34638,0c2.63716,0.88483 5.0055,2.42798 7.50825,3.64196c4.58849,2.49759 9.67614,1.06642 14.81674,3.23593c2.54054,1.0722 3.85473,3.97132 6.04152,5.65117c2.84118,2.18253 8.26372,2.45519 11.448,4.81037c12.72687,9.41315 32.7522,19.09064 37.41899,35.59649c0,0 0.90951,3.63804 -2.72852,4.54755c-3.63804,0.90951 -4.54754,-2.72853 -4.54754,-2.72853c-3.15758,-16.46625 -38.78401,-29.5626 -48.37278,-40.08765c-3.46465,-3.80296 -12.95046,-2.19783 -17.43051,-4.31712c-1.95909,-1.01694 -3.78164,-2.35765 -5.87729,-3.0508c-1.05903,-0.35028 -2.2674,0.28293 -3.34638,0c-1.34443,-0.35253 -5.70849,-2.87279 -7.26626,-3.53152c-1.98521,-0.83948 -4.30677,-1.02555 -6.04152,-2.30478c-1.07088,-0.78968 -0.95525,-2.5594 -1.86783,-3.52769c-1.65972,-1.76104 -4.78512,-1.50267 -6.52288,-3.18675c-1.38327,-1.34055 -1.6551,-3.62474 -3.14085,-4.85071c-2.29076,-1.89023 -5.94044,-1.45797 -8.2824,-3.28438c-2.65913,-2.07376 -4.81131,-4.91942 -7.85035,-6.38082l-2.64779,-2.37564c0,0 -2.65165,-2.65165 0,-5.3033z" fill="#ff7b00" stroke-width="0.5"/><path d="M242.31872,62.64415c2.65165,-2.65165 5.3033,0 5.3033,0l0.20739,0.76728c1.47814,0.50973 2.90022,1.22754 4.4344,1.52918c1.17996,0.23199 2.46515,-0.32449 3.60728,0.0519c5.22991,1.72353 10.24391,5.04189 15.4982,6.82538c2.36463,0.80264 5.00516,0.81161 7.23934,1.92701c1.453,0.72541 2.31351,2.2798 3.47026,3.41969c3.43982,1.0731 11.00379,3.12515 13.69027,5.22937c6.70138,5.24895 22.38054,23.75076 26.20767,31.48596c1.85148,3.74213 2.30307,8.1131 4.3821,11.73375c3.72311,6.48384 5.17222,10.04077 6.19553,17.20459c1.05546,7.38897 0.40387,8.4995 1.09508,7.40671c0,0 3.75,0 3.75,3.75c0,3.75 -3.75,3.75 -3.75,3.75c-12.41617,-2.27362 -5.55653,-13.11001 -10.09969,-22.26134c-10.8628,-21.88103 -21.46761,-43.52416 -45.41394,-51.91916c-1.07417,-1.09103 -1.85356,-2.58741 -3.22252,-3.27307c-1.88002,-0.94163 -4.1475,-0.76638 -6.14619,-1.41938c-5.0027,-1.63442 -9.6878,-4.89431 -14.61925,-6.56015c-0.97455,-0.3292 -2.07744,0.25667 -3.08549,0.0519c-1.92469,-0.39097 -3.7365,-1.21148 -5.60475,-1.81721l-3.13899,-2.5791c0,0 -2.65165,-2.65165 0,-5.3033z" fill="#ff7b00" stroke-width="0.5"/><path d="M137.48247,185.76561c0,-3.75 3.75,-3.75 3.75,-3.75l5.31787,0.56006c0.71957,1.23445 1.02698,2.8311 2.15871,3.70337c1.09067,0.84063 2.7077,0.55964 3.99764,1.0416c0.98264,0.36714 1.74253,1.29129 2.77289,1.48806c1.6435,0.31384 3.37888,-0.32814 5.01958,0c1.2229,0.24458 2.12347,1.42861 3.34638,1.67319c1.6407,0.32814 3.41291,-0.46707 5.01958,0c6.21115,1.80564 5.99801,3.36661 10.61264,5.20471c2.87255,1.14419 5.84121,2.0763 8.60795,3.45683c3.22571,1.60955 6.24659,3.70638 9.66315,4.85661c2.36662,0.79675 5.06699,0.69549 7.23934,1.92701c2.09893,1.1899 3.42897,3.39525 5.14345,5.09288c9.76624,3.10823 17.60064,13.56733 26.93096,14.52676c12.35076,1.27003 25.54011,-2.28616 36.83937,-5.69183c5.50587,-1.65951 10.82055,-5.86231 17.08118,-6.0486c0,0 3.75,0 3.75,3.75c0,3.75 -3.75,3.75 -3.75,3.75c-5.15648,-0.31384 -10.15777,4.30307 -14.70947,5.66373c-11.41471,3.41225 -27.79786,7.76875 -40.12745,6.02051c-11.84508,-1.67954 -18.59901,-11.65408 -29.95757,-15.59069c-1.6319,-1.64875 -2.88595,-3.78764 -4.8957,-4.94626c-1.82162,-1.05016 -4.14939,-0.76065 -6.1462,-1.41938c-4.73869,-1.56324 -8.88236,-4.89821 -13.51955,-6.74529c-1.6385,-0.65265 -3.38292,-1.01593 -5.01958,-1.67319c-1.53046,-0.61461 -9.06987,-4.72363 -9.46567,-4.83444c-1.61123,-0.4511 -3.37887,0.32814 -5.01957,0c-1.2229,-0.24458 -2.12348,-1.42861 -3.34639,-1.67319c-1.6407,-0.32814 -3.3814,0.34054 -5.01957,0c-1.41576,-0.29431 -2.58568,-1.30074 -3.91987,-1.85833c-1.98871,-0.83113 -4.30256,-1.03128 -6.04152,-2.30478c-0.86507,-0.63351 -0.79179,-1.99293 -1.18768,-2.9894l-1.37489,0.56005c0,0 -3.75,0 -3.75,-3.75z" fill="#ffea00" stroke-width="0.5"/><path d="M167.59993,148.9554c0,-3.75 3.75,-3.75 3.75,-3.75h3.34638c3.04324,0.03733 5.96458,1.22127 8.96665,1.72162c1.65042,0.27507 3.36915,-0.27507 5.01957,0c1.7397,0.28995 3.2907,1.32443 5.01958,1.67319c1.25278,0.25272 2.64203,-0.35265 3.83239,0.11248c1.87301,0.73188 3.15922,2.5829 5.01958,3.34638c0.88275,0.36227 1.92436,-0.29787 2.86038,-0.11248c4.59826,0.91074 8.79574,2.38603 13.38554,3.34638c2.81472,0.58894 5.7516,0.00285 8.62685,0.0519c6.98878,3.32786 13.19411,7.24108 20.30342,10.09974c1.31438,0.52851 3.04372,-0.3734 4.23118,0.39915c3.27789,2.13256 2.73216,5.16519 7.25604,6.23302c3.33108,0.78628 7.13896,0.55388 9.96139,2.48992c0.8842,0.60652 0.34357,2.32822 1.18768,2.9894c2.26018,1.77038 11.96211,2.75626 14.8567,4.90323c3.19155,2.36723 4.97671,6.29059 8.10251,8.74399c0,0 2.92826,2.3426 0.58565,5.27086c-2.3426,2.92826 -5.27087,0.58565 -5.27087,0.58565c-2.74048,-2.22621 -4.1484,-5.8473 -6.95622,-7.98794c-3.43951,-2.62224 -11.40533,-2.7725 -15.26075,-5.13592c-1.2182,-0.74677 -1.0684,-2.77984 -2.1587,-3.70337c-1.73585,-1.47034 -4.94125,-0.38068 -6.77053,-0.85646c-4.86544,-1.26545 -6.52588,-5.09546 -9.47588,-7.15251c-3.38842,-2.36278 -16.95526,-6.65986 -22.31477,-9.57941c-0.80009,0.01931 -7.20698,0.22433 -8.10507,0.0519c-4.58739,-0.88079 -8.8052,-2.42241 -13.38554,-3.34639c-1.25278,-0.25272 -2.64203,0.35265 -3.83239,-0.11248c-1.87301,-0.73188 -3.15922,-2.58291 -5.01958,-3.34639c-0.88275,-0.36227 -1.92436,0.29787 -2.86037,0.11248c-1.73009,-0.34266 -3.27988,-1.38324 -5.01958,-1.67319c-1.65042,-0.27507 -3.36915,0.27507 -5.01958,0c-2.6085,-0.43475 -5.12121,-1.6714 -7.76528,-1.62477h-3.34638c0,0 -3.75,0 -3.75,-3.75z" fill="#ffea00" stroke-width="0.5"/><path d="M174.69631,61.5458c2.65994,0 3.43314,1.88674 3.65789,2.98363c0.95798,0.4136 1.88214,0.86702 2.52145,1.65575c1.06002,1.30779 0.34456,3.59302 1.49189,4.82493c0.88579,0.9511 2.58114,0.41723 3.80298,0.8603c1.32874,0.48183 2.5787,1.17192 3.79355,1.89432c4.17078,2.48015 9.29239,6.62087 14.03807,7.95969c1.7953,0.50648 3.9182,-0.63611 5.59307,0.18514c2.25495,1.10567 3.24894,3.97953 5.43214,5.22087c1.99904,1.13663 4.70042,0.52487 6.69277,1.67319c2.23273,1.28688 3.5688,3.73405 5.54941,5.3828c2.59247,2.15807 6.23381,2.90413 8.64015,5.26796c1.7907,1.75906 2.14635,4.93326 4.33942,6.15447c1.64469,0.91585 3.85152,0.71053 5.32431,1.88298c1.57327,1.25245 2.23092,3.34639 3.34638,5.01958c17.90151,5.09314 28.89009,22.96441 37.72394,37.81888c5.73128,9.63738 6.93815,21.33272 13.31579,30.84542c0,0 2.08013,3.12019 -1.04006,5.20031c-3.12019,2.08013 -5.20032,-1.04006 -5.20032,-1.04006c-16.63047,-25.06665 -16.21953,-54.66683 -49.35179,-66.86424c-1.11546,-1.67319 -1.77934,-3.75934 -3.34638,-5.01958c-1.28233,-1.03127 -3.32625,-0.58038 -4.71484,-1.4634c-1.74251,-1.10808 -3.13873,-2.72191 -4.41705,-4.34366c-0.65195,-0.82711 -0.54845,-2.13238 -1.28269,-2.88739c-0.64946,-0.66783 -1.77451,-0.60827 -2.57695,-1.08143c-1.90524,-1.1234 -3.81643,-2.27292 -5.51481,-3.68976c-1.65564,-1.38119 -2.61336,-3.59428 -4.48974,-4.65636c-2.00124,-1.13274 -4.69879,-0.5277 -6.69277,-1.67319c-1.92681,-1.1069 -2.6289,-3.80593 -4.60702,-4.81828c-1.32044,-0.67576 -3.02115,0.59719 -4.44608,0.18514c-3.94473,-1.1407 -7.53639,-3.31691 -11.05981,-5.42585c-2.64825,-1.58512 -5.08454,-3.57663 -7.91879,-4.79844c-2.055,-0.88589 -4.61517,-0.9433 -6.23616,-2.48609c-1.33625,-1.27179 -0.82215,-3.6854 -1.85449,-5.21422c-0.4335,-0.64198 -1.46032,-0.5174 -2.19048,-0.77609l-2.07295,-5.02729c0,0 0,-3.75 3.75,-3.75z" fill="#ffea00" stroke-width="0.5"/></g></g></g></svg>