<svg version="1.1" xmlns="http://www.w3.org/2000/svg" xmlns:xlink="http://www.w3.org/1999/xlink" width="1422.1083" height="886.24301" viewBox="0,0,1422.1083,886.24301"><defs><radialGradient cx="313.49148" cy="232.20741" r="33.76876" gradientUnits="userSpaceOnUse" id="color-1"><stop offset="0" stop-color="#00b8ff" stop-opacity="0.59608"/><stop offset="1" stop-color="#00e8ff" stop-opacity="0.30588"/></radialGradient></defs><g transform="translate(199.23596,354.60398)"><g stroke-miterlimit="10"><path d="M-178.54399,-336.96985c5.89201,1.02008 25.08857,-0.72975 30.01841,0c6.55095,0.96972 12.57735,4.32816 19.10262,5.45789c21.38672,3.70271 46.29727,0.17566 68.01557,0.17566c51.84997,0 103.69993,0 155.54992,0c99.81602,0 199.27526,-0.49703 298.90186,-3.21514c14.09122,-7.04562 21.41298,-4.97169 36.75847,-4.97169c22.7345,0 45.49124,0.29934 68.22363,0c5.94184,-0.07824 12.06047,0.97477 17.82044,-0.48619c5.91482,-1.50024 10.52567,-6.44423 16.37368,-8.18683c8.2843,-2.46857 27.5022,1.75583 36.55039,0.31052c6.53945,-1.04458 12.59918,-4.20859 19.10262,-5.45789c15.27919,-2.9351 45.61184,0.17566 62.97383,0.17566c66.58759,0 134.00227,2.92794 200.49524,-0.48619c3.63859,1.8193 6.93204,4.63386 10.91577,5.4579c5.70843,1.18078 11.65618,0.82666 17.48154,0.50488c1.24257,1.67762 2.38099,3.55204 4.29948,4.05574c7.06087,1.85379 15.12189,-1.85806 21.88211,0.89729c3.76718,1.53544 6.97417,4.4514 10.91577,5.4579c4.40684,1.12529 9.43289,-1.71668 13.64473,0c3.76718,1.53544 6.97417,4.4514 10.91577,5.45789c3.04457,0.77743 6.23335,0.58712 9.40263,0.50219c0.06481,1.29426 0.39012,2.3797 1.0242,2.84757c5.11427,3.77372 12.07892,4.0671 18.3094,5.32327c0.60526,0.12203 0.70435,-1.70465 1.23165,-1.38346c2.19737,1.33835 3.05507,4.53804 5.45789,5.4579c3.88815,1.48846 8.26218,1.06213 12.41308,1.38346c1.96059,0.15178 15.24357,2.7306 12.8027,-0.66794c1.48957,1.75236 2.69874,3.93693 4.80263,4.74235c3.88815,1.48846 8.24977,1.38346 12.41308,1.38346c0.61742,0 0.70435,-1.70465 1.23165,-1.38346c2.19737,1.33835 3.05507,4.53802 5.4579,5.45789c3.88815,1.48846 8.25564,1.16275 12.41308,1.38348c3.841,0.20394 7.75696,0.71403 11.56932,0.31597c3.83286,8.22345 7.699,7.03562 18.44909,7.87086c12.4768,0.96941 25.6653,0 38.20524,0c2.59191,0 6.758,1.82613 9.13421,1.57594c4.06601,1.71944 8.56339,2.47695 12.95375,3.3605c0.10418,0.25868 0.27529,0.48156 0.53683,0.65607c4.05474,2.70573 9.69016,1.82711 14.08316,3.9398c2.31867,1.1151 3.16094,4.29872 5.4579,5.45789c1.16448,0.58766 2.84141,-1.60958 3.83717,-0.76707c1.31091,1.10919 0.02223,3.748 1.18231,5.01409c4.15032,4.52965 12.55496,4.91479 15.16282,10.47736c1.28961,2.7507 -1.35324,6.63105 0.41031,9.10476c4.72253,6.62422 11.9605,11.03091 17.90456,16.58521c1.89687,1.77248 5.25373,2.80204 5.642,5.36896c0.4535,2.99831 -1.28103,6.16916 -0.4519,9.08601c2.14444,7.54406 4.97278,15.0475 9.19139,21.65921c1.21678,1.90703 5.21231,0.58583 6.27593,2.58233c0.9494,1.78207 -2.1941,3.79215 -1.8226,5.77685c0.90127,4.81499 4.59195,8.82327 5.4579,13.64473c1.33437,7.4296 -0.6502,15.26758 1.05554,22.62082c0.58139,2.50634 4.87777,2.95128 5.45789,5.4579c1.92496,8.31769 -2.66424,17.17171 -1.20779,25.58409c1.12973,6.52527 3.63859,12.73507 5.45789,19.10262c-0.83837,40.06323 -0.17568,80.21008 -0.17568,120.28171c0,17.05467 1.65062,36.10647 0.04573,53.29053c-0.9742,10.43112 -2.75615,20.83031 -2.77467,31.30678c-0.01916,10.83273 2.04599,24.98187 0.17568,35.68438c-1.14001,6.52347 -4.32816,12.57735 -5.45789,19.10262c-0.76412,4.41362 -0.33451,8.9602 -0.17568,13.43665c0.094,2.64908 1.88634,5.4241 0.93268,7.89736c-1.63633,4.2437 -5.4579,7.27718 -8.18685,10.91577c-1.2784,14.25032 -4.59284,28.25168 -6.32862,42.45354c-0.88515,7.2421 2.03056,14.7669 0.42425,21.88387c-2.02672,8.97972 -8.96237,16.33911 -11.07404,25.29924c-0.81805,3.47107 0.98329,7.25839 0.04324,10.69844c-3.70867,13.57169 -10.6534,24.76704 -13.68795,38.42257c-0.78933,3.55195 0.78933,7.36382 0,10.91579c-1.06266,4.78197 -4.58161,8.82515 -5.45789,13.64473c-0.97633,5.36987 0.76061,10.96904 0,16.37368c-1.3851,9.84199 -9.99656,12.56642 -13.04,22.25013c-2.68621,8.54705 1.5096,18.16471 -0.60473,26.8709c-1.15606,4.76025 -4.23994,8.89995 -5.4579,13.64473c-1.80052,7.01417 -0.32793,21.47988 -0.32793,27.99748c0.88013,5.42379 -3.76376,10.34345 -5.12994,15.66564c-0.16768,0.65324 -0.27259,1.31584 -0.33536,1.98461c-7.47672,0.47104 -10.65502,0.47925 -13.92961,7.55606c-6.71102,-0.38171 -26.19229,0.55344 -27.73388,1.0619c-3.11472,1.02737 -5.32323,3.85892 -8.18683,5.45789c-3.24049,1.80941 -7.39548,-0.77984 -11.1069,-0.77984c-4.3088,0 -20.65107,-0.06234 -22.53962,0.32795c-7.09591,1.4664 -13.88464,5.44736 -21.12353,5.12994c-7.11001,0 -39.02138,-0.01857 -40.18842,0.10852c-8.33724,0.90812 -16.27893,4.1352 -24.56051,5.45789c-12.22781,1.95297 -24.96235,-1.94118 -37.14745,0.26266c-6.81709,1.23296 -12.29409,6.90751 -19.10262,8.18683c-7.67497,1.44213 -15.67687,-1.15446 -23.42704,-0.19551c-6.57222,0.81321 -12.56373,4.40982 -19.10262,5.4579c-25.32652,4.05943 -52.66382,-2.89083 -78.25077,-0.10223c-10.1103,1.10188 -19.91058,4.33338 -30.01841,5.45789c-6.24689,0.69497 -12.60208,-0.64642 -18.85626,-0.02052c-11.9051,1.19141 -23.57123,4.26626 -35.4763,5.45789c-6.67645,0.66829 -13.50931,-0.98705 -20.12917,0.1079c-10.23256,1.69254 -19.76662,6.615 -30.01841,8.18683c-9.03505,1.38528 -18.40456,-0.91895 -27.41487,0.61903c-3.23302,0.55184 -4.95357,4.90748 -8.18685,5.45789c-11.72333,1.99568 -23.77543,-0.77984 -35.66742,-0.77984c-129.1701,0 -258.34022,0 -387.51032,0c-39.11489,0 -78.22979,0 -117.34466,0c-17.0964,0 -35.70195,2.02569 -52.59574,0.10852c-8.33305,-0.94565 -16.22328,-4.54977 -24.56051,-5.45789c-9.76916,-1.06408 -19.92443,2.35749 -29.48073,0.06714c-6.43996,-1.54346 -12.61908,-4.10915 -19.10262,-5.45789c-7.21233,-1.50035 -17.12153,2.28828 -23.64439,0.15227c-4.65536,-1.52446 -8.84748,-4.46651 -13.64472,-5.45789c-6.46779,-1.33659 -13.24861,-1.07529 -19.81065,-0.32795c-2.26241,0.25766 -4.5307,2.10757 -6.68954,1.38346c-2.43931,-0.81819 -3.63859,-3.63859 -5.45789,-5.45789c-1.8193,0 -3.89785,0.93602 -5.45789,0c-3.30934,-1.98561 -4.6868,-6.56079 -8.18683,-8.18683c-3.77574,-1.75414 -8.26218,-1.06213 -12.41308,-1.38348c-1.89519,-0.14671 -3.98935,1.70656 -5.64901,0.77984c-2.8636,-1.59896 -5.07211,-4.43054 -8.18683,-5.45789c-2.75651,-0.90921 -5.73378,-0.74411 -8.66788,-0.74006c-0.036,-0.08528 -0.07644,-0.14465 -0.12106,-0.17441c-0.96245,-0.64162 -2.40281,-1.19654 -3.81808,-1.42916c-0.90338,-4.25099 -2.41179,-8.39675 -4.36876,-12.21558c-0.04664,-0.091 -0.10514,-0.17751 -0.1741,-0.25944c0.00867,-2.88924 0.15454,-5.81629 -0.74037,-8.5295c-1.02737,-3.11474 -4.40738,-5.07983 -5.45789,-8.18683c-1.07353,-3.17506 0.06825,-25.67858 -0.60362,-31.70683c-1.8193,-1.8193 -4.76463,-2.98017 -5.4579,-5.45789c-1.1178,-3.99493 1.75532,-8.499 0.45081,-12.43691c-1.43026,-4.31751 -5.62248,-7.15939 -8.18683,-10.91579c-0.18353,-0.26884 0.91717,0.61462 0.93268,0.28947c0.25666,-5.38273 0.67434,-10.84422 -0.17568,-16.16559c-1.04458,-6.53945 -4.19997,-12.60085 -5.45789,-19.10262c-0.97493,-5.03907 0.35799,-10.46226 -1.2078,-15.35009c-0.78491,-2.45021 -5.0103,-2.92427 -5.4579,-5.4579c-1.02408,-5.79677 1.19045,-11.72197 1.38348,-17.60533c0.74415,-22.68038 0,-45.5269 0,-68.22363c0,-59.31354 2.72894,-118.11609 2.72894,-177.38148c0,-45.48242 0,-90.96486 0,-136.4473c0,-23.043 2.31414,-47.54046 -0.13618,-70.4443c-0.39897,-3.7293 -2.38062,-7.1814 -2.72894,-10.91577c-4.55865,-48.87442 8.11773,-100.01041 -5.49738,-147.66328c0.14474,-9.16489 0.17566,-18.33152 0.17566,-27.49755c0,-5.77066 -0.95856,-11.60705 -0.08844,-17.31171c0.69938,-4.5853 2.23584,-9.0327 2.72894,-13.64473c0.0215,-0.20116 0.03815,-1.15739 0.05098,-2.59498c5.94502,1.29205 11.54269,4.11891 17.54708,5.15846z" fill="#77e813" stroke="none" stroke-width="50"/><path d="M475.10637,-181.86154c-8.97253,5.38833 -20.63921,8.8915 -35.80906,8.8915c-65.69081,0 -65.69083,-65.69081 -65.69083,-65.69081l65.69083,-74.48388c8.79305,0 17.58617,0 26.37922,0c6.42051,0 14.6932,-3.09745 21.77509,-4.20359c-3.53867,-7.29512 -7.60831,-14.42939 -10.07444,-22.04261c6.88448,-0.0058 13.76801,-0.04157 20.64931,-0.13217c5.94184,-0.07824 12.06047,0.97477 17.82044,-0.48619c5.91482,-1.50024 10.52567,-6.44423 16.37368,-8.18683c8.2843,-2.46857 27.5022,1.75583 36.55039,0.31052c6.53945,-1.04458 12.59918,-4.20859 19.10262,-5.45789c6.23957,-1.19861 14.98952,-1.38897 24.34139,-1.19468c11.93252,32.3986 22.90157,86.06091 3.70667,116.09831c-28.75228,44.99334 -89.89059,55.49718 -140.81521,56.57834z" fill="#13d8e8" stroke="none" stroke-width="0.5"/><path d="M-96.82273,11.94151c0,-36.28004 29.41079,-65.69081 65.69083,-65.69081c36.28004,0 65.69081,29.41079 65.69081,65.69083c0,36.28004 -29.41077,65.69083 -65.69081,65.69083c-36.28004,0 -65.69081,-29.41079 -65.69081,-65.69081z" fill="#13d8e8" stroke="none" stroke-width="0.5"/><path d="M529.70192,95.33923c5.12631,-22.72167 -0.00331,-53.05365 21.42014,-72.69316c10.43421,-9.56537 24.72519,-14.9168 39.17817,-17.15356c1.50653,-2.0461 3.192,-3.7819 4.78716,-4.82911c21.16989,-13.89771 50.91844,-14.95045 68.21215,-33.45019c29.17545,-4.15077 61.63197,-7.67068 89.36106,-13.19493c18.9959,-3.78437 38.64669,-32.43108 53.86821,-40.85285c2.67962,-1.48261 5.02056,-2.71777 7.05183,-3.72941c-0.73542,-13.75302 -0.65871,-44.5759 -0.32084,-46.97661c5.14895,-36.58427 1.52423,-48.12236 27.85543,-62.78723c0.50902,-10.44752 1.57801,-21.49177 8.33464,-28.90342c40.33607,-44.24603 90.26561,-43.73464 143.81067,-44.34472c40.88882,1.61505 64.56867,-2.49861 98.05742,44.57795c15.75712,22.15051 -3.03708,56.14242 1.95742,80.93487c4.50449,22.36016 12.21029,43.44059 16.67712,65.77444c2.80415,14.02057 10.52847,41.9192 12.92359,59.91087c1.66439,2.09622 3.46967,4.9089 5.40204,8.57675c13.22461,25.10173 51.1764,171.23481 52.01893,195.30445c2.75206,5.50412 10.71652,38.11049 17.54284,70.28742c-2.86144,5.76858 -6.66527,11.22734 -8.13434,17.46084c-0.81805,3.47107 0.98329,7.25839 0.04324,10.69844c-3.70867,13.57169 -10.6534,24.76704 -13.68795,38.42257c-0.78933,3.55195 0.78933,7.36382 0,10.91579c-1.06266,4.78197 -4.58161,8.82515 -5.45789,13.64473c-0.97633,5.36987 0.76061,10.96904 0,16.37368c-1.3851,9.84199 -9.99656,12.56642 -13.04,22.25013c-2.68621,8.54705 1.5096,18.16471 -0.60473,26.8709c-1.15606,4.76025 -4.23994,8.89995 -5.4579,13.64473c-1.80052,7.01417 -0.32793,21.47988 -0.32793,27.99748c0.88013,5.42379 -3.76376,10.34345 -5.12994,15.66564c-0.16768,0.65324 -0.27259,1.31584 -0.33536,1.98461c-7.47672,0.47104 -10.65502,0.47925 -13.92961,7.55606c-6.71102,-0.38171 -26.19229,0.55344 -27.73388,1.0619c-3.11472,1.02737 -5.32323,3.85892 -8.18683,5.45789c-3.24049,1.80941 -7.39548,-0.77984 -11.1069,-0.77984c-4.3088,0 -20.65107,-0.06234 -22.53962,0.32795c-7.09591,1.4664 -13.88464,5.44736 -21.12353,5.12994c-7.11001,0 -39.02138,-0.01857 -40.18842,0.10852c-8.33724,0.90812 -16.27893,4.1352 -24.56051,5.45789c-12.22781,1.95297 -24.96235,-1.94118 -37.14745,0.26266c-6.81709,1.23296 -12.29409,6.90751 -19.10262,8.18683c-7.67497,1.44213 -15.67687,-1.15446 -23.42704,-0.19551c-6.57222,0.81321 -12.56373,4.40982 -19.10262,5.4579c-25.32652,4.05943 -52.66382,-2.89083 -78.25077,-0.10223c-10.1103,1.10188 -19.91058,4.33338 -30.01841,5.45789c-6.24689,0.69497 -12.60208,-0.64642 -18.85626,-0.02052c-11.9051,1.19141 -23.57123,4.26626 -35.4763,5.45789c-6.67645,0.66829 -13.50931,-0.98705 -20.12917,0.1079c-10.23256,1.69254 -19.76662,6.615 -30.01841,8.18683c-9.03505,1.38528 -18.40456,-0.91895 -27.41487,0.61903c-3.23302,0.55184 -4.95357,4.90748 -8.18685,5.45789c-11.72333,1.99568 -23.77543,-0.77984 -35.66742,-0.77984c-129.1701,0 -258.34022,0 -387.51032,0c-39.11489,0 -78.22979,0 -117.34466,0c-17.0964,0 -35.70195,2.02569 -52.59574,0.10852c-8.33305,-0.94565 -16.22328,-4.54977 -24.56051,-5.45789c-3.30866,-0.36039 -6.66162,-0.20625 -10.02061,0.06627c-5.95104,-28.29753 17.7821,-58.28601 25.00626,-87.33405c9.98032,-5.09775 33.5965,-15.55123 44.46165,-19.08188c-0.83075,-1.1025 -1.26048,-2.39482 -0.49637,-2.9008c11.19014,-7.40966 43.14505,-20.42974 49.10716,-20.43625c10.22897,-9.12016 36.7196,-28.86108 67.20523,-38.2156c11.94479,-3.66529 47.00389,-12.98563 66.67478,-12.37706c1.72073,-1.56865 3.6843,-2.87416 5.3518,-3.59003c11.65418,-5.00312 24.77491,-5.77242 37.42532,-6.86927c2.32497,-4.21399 4.38794,-8.7467 8.48873,-10.89216c32.12423,-16.80665 69.38229,-20.04133 99.64915,-36.21792c-3.45561,-10.12401 -5.13597,-21.55416 -4.12082,-34.79774c3.67407,-47.93171 27.68626,-69.82339 61.38781,-83.03035c2.05375,-20.56507 3.54604,-45.18383 19.1289,-58.5344c10.74827,-9.20854 29.50379,-12.48793 48.92442,-15.23754z" fill="#13d8e8" stroke="none" stroke-width="0.5"/><path d="M-168.06096,52.78538c12.73031,19.45783 29.55335,36.78497 38.19092,58.37339c6.01087,15.02344 -2.83096,32.79234 0.90905,48.53548c3.63617,15.30613 12.64939,26.71723 9.12194,42.60964c5.13823,1.92147 10.36055,3.82537 14.3937,7.42291c9.51172,8.48442 16.32611,19.57771 24.48917,29.36659c0,0 41.03674,51.29592 -10.25917,92.33266c-51.29592,41.03674 -92.33266,-10.25917 -92.33266,-10.25917c-3.21953,-4.39957 -5.70016,-9.46408 -9.446,-13.39007c0.00751,-15.33821 -0.33062,-30.70513 -0.33062,-46.004c0,-59.31354 2.72894,-118.11609 2.72894,-177.38148c0,-11.94921 0,-23.89844 0,-35.84764z" fill="#13d8e8" stroke="none" stroke-width="0.5"/><path d="M279.72272,232.20741c0,-18.64997 15.11879,-33.76876 33.76876,-33.76876c18.64997,0 33.76876,15.11879 33.76876,33.76876c0,18.64997 -15.11879,33.76876 -33.76876,33.76876c-18.64997,0 -33.76876,-15.11879 -33.76876,-33.76876z" fill="#79440c" stroke="url(#color-1)" stroke-width="0"/></g></g></svg>