<svg version="1.1" xmlns="http://www.w3.org/2000/svg" xmlns:xlink="http://www.w3.org/1999/xlink" width="510.64932" height="94.77447" viewBox="0,0,510.64932,94.77447"><g transform="translate(-64.67534,-132.61277)"><g fill="#000000" stroke="none" stroke-width="0.5" stroke-miterlimit="10"><path d="M99.49542,188.19885c0,1.25 -1.25,1.25 -1.25,1.25h-0.06097c-3.87862,0 -8.43377,-0.69493 -12.24891,-0.10218c-0.76846,0.11939 -0.26938,3.98176 -0.26938,4.48633c0,2.35958 0,4.71915 0,7.07872c0.0145,0.13344 0.01274,0.27012 0,0.40876c0,0.42873 0,0.85747 0,1.2862c0.2056,0.20685 0.44907,0.38246 0.65828,0.58633c0,0 0.6654,0.6654 0.26419,1.41887c0.19907,0.09804 0.37126,0.21958 0.46622,0.41177c0.3364,0.68087 -0.10805,1.54438 0.09427,2.27638c0.29587,1.07043 1.27645,1.81798 1.89248,2.74202c0,0 0.69337,1.04006 -0.34669,1.73344c-1.04006,0.69338 -1.73344,-0.34669 -1.73344,-0.34669c-0.22576,-0.33864 -2.13986,-3.18285 -2.20508,-3.40431c-0.06449,-0.21896 -0.02849,-0.45383 0.02705,-0.69049c-0.10853,0.02669 -0.23041,0.04167 -0.36727,0.04167c-1.25,0 -1.25,-1.25 -1.25,-1.25c0,-0.47451 -0.00083,-0.94909 -0.00224,-1.42374c-0.06604,-0.39128 -0.05131,-0.87408 -0.0183,-1.36619c-0.26225,-0.52993 -0.44068,-1.10877 -0.7679,-1.60114c-0.25307,-0.38081 -0.69145,-0.6057 -0.97701,-0.96279c-0.40288,-0.50379 -0.70366,-1.08185 -1.07814,-1.60711c-0.46059,-0.64605 -0.926,-1.28981 -1.42623,-1.90566c-0.39957,-0.49193 -1.0199,-0.83232 -1.27053,-1.41442c-0.20212,-0.46943 0.16997,-1.0508 0.00136,-1.53329c-0.10721,-0.30681 -0.52361,-0.38905 -0.75342,-0.61886c-0.22981,-0.22981 -0.31633,-0.63468 -0.61886,-0.75342c-0.32968,-0.1294 -0.70418,0.08619 -1.05823,0.09515c-0.4022,0.01018 -3.23213,-0.17031 -3.89318,0.28641c-0.41611,0.28749 -0.46391,0.90553 -0.77429,1.30486c-0.22428,0.28856 -2.35862,2.33975 -2.5371,2.41114c-0.35996,0.14398 -0.93941,-0.60797 -1.13106,-0.27096c-0.27304,0.48015 0.36611,1.06376 0.36611,1.61612c0,0.42646 -0.24407,0.81725 -0.36611,1.22588c0.54775,-0.09032 1.0955,-0.18065 1.64325,-0.27097l1.42992,1.29536c0,0 0.88389,0.88388 0,1.76776c-0.88389,0.88388 -1.76777,0 -1.76777,0l-0.61886,-0.75342c-0.81811,-0.09032 -1.6362,-0.18064 -2.4543,-0.27096c-0.17406,-1.42328 -0.84642,-5.03729 0,-6.37752c0.34903,-0.55265 1.33522,-0.02822 1.94211,-0.27097c0.30176,-0.1207 0.39813,-0.51488 0.61886,-0.75342c0.30009,-0.32431 0.66135,-0.59139 0.94159,-0.93299c0.46084,-0.56173 0.66026,-1.38019 1.27449,-1.76832c1.4523,-0.9177 3.73518,-0.76743 5.32634,-0.73798c0.67228,0.01244 1.39142,-0.15653 2.01494,0.09515c0.31291,0.12631 2.59179,2.41955 2.72528,2.72527c0.20539,0.47041 -0.17903,1.05934 0.00136,1.53989c0.13152,0.35038 0.60769,0.44789 0.85141,0.73192c0.56866,0.6627 1.06605,1.38387 1.57377,2.09434c0.09254,0.12949 0.17939,0.26302 0.26416,0.39802c-0.40532,-2.88577 -0.4858,-5.65542 -0.4858,-8.83459v-2.10975c0,0 0,-1.25 1.25,-1.25c1.25,0 1.25,1.25 1.25,1.25v0.02348c0.09529,-0.05042 0.19643,-0.0994 0.30379,-0.14691c0.2774,-0.12274 3.37197,-0.10218 4.08035,-0.10218c3.05285,0 6.10569,0 9.15854,0h0.06097c0,0 1.25,0 1.25,1.25z"/><path d="M128.17835,187.17446c0,1.25 -1.25,1.25 -1.25,1.25c-3.90651,0 -8.89837,0 -12.80488,0c0,0 -1.25,0 -1.25,-1.25c0,-1.25 1.25,-1.25 1.25,-1.25c3.90651,0 7.81301,0 11.71951,0h1.08536c0,0 1.25,0 1.25,1.25z"/><path d="M137.39786,194.85739c0,1.25 -1.25,1.25 -1.25,1.25h-1.08537c-6.1495,0 -12.88645,0.85542 -18.77333,-1.08854c0,0 -1.18586,-0.39528 -0.79057,-1.58114c0.39529,-1.18586 1.58114,-0.79057 1.58114,-0.79057c5.57183,1.87666 12.15122,0.96024 17.98276,0.96024h1.08537c0,0 1.25,0 1.25,1.25z"/><path d="M280.58687,188.93666c-1.25,0 -1.25,-1.25 -1.25,-1.25l0.00002,-0.30175c-0.10764,0.53255 -0.22712,1.04587 -0.65011,1.32225c-0.4255,0.27803 -4.35098,0.2295 -5.27064,0.2295c-0.5122,0 -1.02453,0.01199 -1.53659,0c-1.90502,-0.0446 -3.2849,0.42415 -4.22802,-1.79604c-0.32959,-0.77588 -0.07541,-1.68439 -0.09515,-2.52713c-0.01803,-0.77003 0.00234,-3.85865 0.1479,-4.17519c0.2572,-0.55928 1.2081,-0.50378 1.53659,-1.02439c0.2192,-0.34741 -0.22401,-0.83051 -0.11611,-1.22688c0.20533,-0.75432 0.85479,-1.34661 1.02439,-2.10976c0.1813,-0.81579 -0.18221,-1.69186 0.00164,-2.50708c0.17137,-0.75988 0.78651,-1.35675 1.03614,-2.09463c0.12997,-0.38416 -0.05307,-0.83181 0.08312,-1.21382c0.38016,-1.06642 0.64339,-2.27441 1.44531,-3.07359c0.41627,-0.41485 1.20734,0.08282 1.75901,-0.11977c0.30509,-0.11203 0.39826,-0.51476 0.61886,-0.75343c0.29438,-0.31848 2.24441,-2.24599 2.45431,-2.31975c0.7953,-0.27947 1.68475,-0.06343 2.52713,-0.09515c0,0 1.25,0 1.25,1.25c0,1.25 -1.25,1.25 -1.25,1.25c-0.52348,-0.03171 -1.0682,-0.24616 -1.57043,-0.09515c-0.31124,0.09358 -0.39826,0.51476 -0.61886,0.75342c-0.32778,0.35462 -0.67344,0.69268 -1.02439,1.02439c-0.4674,0.44177 -0.83875,1.04209 -1.42992,1.29536c-0.40432,0.17321 -0.97729,-0.40261 -1.31416,-0.11977c-0.60186,0.50534 -0.30315,2.24072 -0.52036,2.88332c-0.23957,0.70873 -0.84851,1.27304 -1.01265,2.00293c-0.18231,0.81073 0.1819,1.68173 0.00165,2.49292c-0.16958,0.76316 -0.80783,1.35859 -1.02439,2.10976c-0.17082,0.59251 0.19155,1.31188 -0.11612,1.84629c-0.30714,0.53349 -1.23614,0.48711 -1.53659,1.02439c-0.23858,0.42664 0.12381,0.97074 0.14791,1.45896c0.02526,0.51157 0.01568,1.02463 0,1.53659c-0.01605,0.52419 -0.16366,1.05049 -0.09515,1.57043c0.02142,0.1626 0.1853,0.32647 0.34789,0.34789c0.51994,0.0685 1.04624,-0.07909 1.57043,-0.09515c0.51196,-0.01568 1.02439,0 1.53659,0c1.27793,0 2.83133,1.0307 3.82692,0.2295c0.57748,-0.46473 0.18938,-1.52344 0.59812,-2.14181c0.28265,-0.42762 0.9843,-0.39425 1.32899,-0.77364c0.07514,-0.08271 0.14311,-0.16515 0.20454,-0.24749c0.05631,-0.96625 0.1911,-1.92004 0.50637,-2.71741c-0.01451,-0.2318 -0.02825,-0.4715 -0.03202,-0.72111v-2.10976c0,-0.69036 0.55964,-1.25 1.25,-1.25c0.69036,0 1.25,0.55964 1.25,1.25v2.10976c-0.02329,1.94128 0.19378,2.75141 -0.40557,3.95341c-0.04915,0.80064 -0.09929,1.66602 -0.10669,2.65684l0.00007,1.01171c0,0 0,1.25 -1.25,1.25z"/><path d="M325.37345,175.39398c0,1.25 -1.25,1.25 -1.25,1.25h-1.53659c-0.87953,-0.0493 -1.83826,0.22014 -2.6386,-0.14791c-0.55928,-0.25719 -0.50349,-1.20856 -1.02439,-1.53659c-0.34955,-0.22012 -0.83813,0.23264 -1.23395,0.11447c-1.96092,-0.58539 -3.05939,-1.68194 -4.24095,-3.03973c-0.36867,0 -0.73734,0 -1.10601,0c0,0 -0.17678,-0.00001 -0.39737,-0.06648c0.06721,2.68127 -0.45428,5.91109 -1.52095,6.97776l0.09515,1.05823c0,0 0,1.25 -1.25,1.25c-1.25,0 -1.25,-1.25 -1.25,-1.25l0.09515,-2.01494c1.33024,-1.33024 1.78764,-6.52312 0.96144,-8.381c-0.53275,-1.198 -2.13854,-1.77376 -2.50481,-3.03268c-0.14462,-0.49708 1.04138,-2.91548 -0.6738,-2.24216c-3.42165,1.34321 -1.99928,6.60148 -2.58049,9.29235c-0.13691,0.63389 -0.63139,1.14355 -0.89571,1.73386c-0.04414,0.82245 -0.0969,1.57733 -0.0969,2.08359v2.5c0,0.69036 -0.55964,1.25 -1.25,1.25c-0.69036,0 -1.25,-0.55964 -1.25,-1.25v-2.45845c-0.30589,-0.65014 -0.13475,-1.33047 0.16066,-2.06649c0.10289,-1.25627 0.18395,-2.66763 -0.01275,-3.01938c-0.30045,-0.53728 -1.24635,-0.48152 -1.53659,-1.02439c-0.33499,-0.62659 -0.20352,-1.41807 -0.14791,-2.12641c0.01952,-0.24869 0.5265,-0.46164 0.36612,-0.6527c-0.09885,-0.11776 -1.00601,0.39625 -1.03444,0.61886c-0.14693,1.15062 -0.17074,2.04162 -0.2146,2.87914c0.05702,0.08145 0.11657,0.16463 0.17876,0.24969l-0.21301,0.30933c-0.00167,0.02284 -0.00337,0.04568 -0.00512,0.06852l0.28398,-0.00694l0.0155,0.63399l0.04964,0.0001l-0.00368,1.89782c-0.00114,0.68938 -0.56035,1.24788 -1.25,1.24788c-0.68141,0 -1.23548,-0.54523 -1.24972,-1.22323l-0.05392,-2.20627c-0.46976,-0.65856 -0.79357,-1.24994 -1.01603,-1.82069c0.02832,1.13754 0.00328,2.16647 -0.04545,2.38925c-0.16316,0.7459 -0.80469,1.31753 -1.02439,2.04878c-0.11988,0.399 0.04057,0.83284 0.03343,1.24939c-0.01448,0.84534 0.2435,1.76115 -0.09822,2.53448c-0.09526,0.21559 -0.23733,0.3983 -0.40363,0.56435c0.11863,0.19024 0.25563,0.36986 0.41349,0.53711l0.08836,2.5104c0,0 0,1.25 -1.25,1.25c-1.07438,0 -1.22532,-0.92344 -1.24653,-1.18292c-0.10807,0.38347 -0.26642,0.72539 -0.58356,0.94697c-0.83984,0.58677 -2.06939,0.43636 -3.06686,0.20251c-3.41326,-0.80022 -2.91834,-1.53339 -3.01159,-4.28973c-0.02056,-0.60768 -0.12669,-1.23721 0.03344,-1.82377c0.20632,-0.75577 0.78648,-1.36641 1.03984,-2.10774c0.13945,-0.40805 -0.02766,-0.88313 0.12069,-1.28804c0.3757,-1.02543 0.59254,-2.24748 1.43102,-2.9472c0.78832,-0.65787 1.99308,-0.4946 2.98963,-0.7419c0,0 0.00523,-0.00104 0.01507,-0.00266c0.0127,-1.15203 0.06958,-2.46517 0.26921,-2.61406c1.0347,-0.7717 2.67347,-1.35239 3.8033,-0.72818c0.00572,0.00316 0.01139,0.00684 0.017,0.01104c0.00267,-0.4857 0.01252,-1.0087 0.01252,-1.58676c0,0 0,-1.25 1.25,-1.25c1.25,0 1.25,1.25 1.25,1.25c0,0.29306 -0.00366,0.56558 -0.00836,0.82127c0.24154,-0.19903 0.52114,-0.35006 0.84098,-0.43953c1.09843,-0.30725 2.48212,-0.39092 3.41102,0.27097c0.916,0.65271 -0.42957,2.44773 0.21821,3.36723c0.11636,0.16518 0.29417,0.27203 0.48964,0.36083c0.17347,-3.53397 0.28157,-8.44731 4.34127,-8.68559c1.12822,-0.06622 2.48892,0.13673 3.24737,0.97459c0.62931,0.6952 -0.07677,1.90474 0.17638,2.80764c0.36354,1.29656 2.02436,1.89578 2.54397,3.13805c0.10661,0.2549 0.19638,0.56085 0.2695,0.90542c0.31568,-0.16112 0.63465,-0.16112 0.63465,-0.16112c0.0895,0 0.17901,0 0.26851,0c-0.04293,-0.60766 -0.0497,-1.21029 0.11322,-1.78933c0.18528,-0.65849 0.8591,-1.07738 1.38675,-1.51271c0.59977,-0.49482 1.22245,-1.02945 1.96684,-1.25408c1.08326,-0.3269 2.30731,0.20323 3.39251,-0.11716c0.81414,-0.24037 1.53614,-0.76662 2.36748,-0.9383c0.74601,-0.15407 1.52343,-0.02822 2.28517,-0.02256c1.64723,0.01224 3.13056,-0.21524 4.17526,1.68457c1.11259,2.02328 -0.13944,2.86797 -1.2426,4.03468c-0.33591,0.35526 -0.67723,0.70627 -1.03725,1.03707c-0.48455,0.44522 -0.8661,1.09509 -1.49477,1.28947c-0.35362,0.10933 -4.33152,0.08837 -5.07137,0.08837c-0.82033,0 -1.64065,0 -2.46097,0c0.37062,0.25993 0.78204,0.47325 1.27255,0.60661c0.59274,0.16114 1.30707,-0.19235 1.83922,0.11447c0.53329,0.30748 0.4871,1.23614 1.02439,1.53659c0.42664,0.23857 0.97264,-0.0986 1.45896,-0.1479h1.53659c0,0 1.25,0 1.25,1.25zM314.98396,169.53422c1.48959,0 2.97917,0 4.46877,0c0.70325,0 1.40667,-0.01497 2.10976,0c0.67994,0.01449 1.37815,0.25156 2.03838,0.08836c0.32896,-0.08131 0.44221,-0.51398 0.67597,-0.75931c0.32896,-0.34525 0.66125,-0.68811 1.01153,-1.01172c0.23872,-0.22054 0.55985,-0.35779 0.75342,-0.61886c0.09359,-0.12622 0.15377,-0.34807 0.05275,-0.46841c-0.54219,-0.64589 -1.28322,-0.37138 -1.97108,-0.36422c-0.60415,0.00628 -1.22224,-0.15194 -1.8124,-0.02256c-0.79882,0.17514 -1.4868,0.70024 -2.27489,0.91865c-0.48343,0.13397 -0.99803,0.11582 -1.49954,0.1274c-0.57807,0.01335 -1.17442,-0.19889 -1.73387,-0.05274c-0.43932,0.11477 -0.74353,0.52168 -1.10633,0.7947c-0.22688,0.17074 -0.5773,0.26505 -0.66202,0.53607c-0.08362,0.26749 -0.07579,0.54874 -0.05045,0.83263zM291.86859,170.25947c0.09848,-0.17385 0.19867,-0.34766 0.24169,-0.53877c0.03057,-0.13577 -0.2904,0.15708 -0.29426,0.2962c-0.00234,0.08417 0.01997,0.16417 0.05256,0.24257zM289.64131,179.44111c-0.44147,-1.80577 -0.15158,-4.01409 -0.07675,-5.87776c-0.51,-0.01164 -1.03852,-0.06907 -1.42631,0.22186c-0.8308,0.6233 -0.44151,2.17956 -0.71612,2.9793c-0.24151,0.70336 -0.7945,1.27775 -1.00894,1.98982c-0.12014,0.39891 0.05757,0.83348 0.03344,1.24939c-0.02711,0.46724 -0.42299,0.98762 -0.18669,1.39162c0.22803,0.38986 0.83885,0.33928 1.27265,0.465c0.3363,0.09746 0.80856,0.47315 1.03071,0.20251c0.43856,-0.53432 0.10688,-1.42873 0.46235,-2.02158c0.14747,-0.24595 0.37318,-0.42999 0.61566,-0.60016z"/><path d="M287.53199,192.29641c0,-1.25 1.25,-1.25 1.25,-1.25l1.58716,0.08836c2.42689,-2.29055 5.44277,-0.39874 8.36955,-1.07931c1.46445,-0.34053 2.88139,-1.03631 4.38475,-1.05783c0,0 1.25,0 1.25,1.25c0,1.25 -1.25,1.25 -1.25,1.25c-1.31214,-0.0249 -2.52831,0.71051 -3.81037,0.99095c-2.78163,0.60846 -5.84397,-1.08497 -8.0207,0.96947l-2.5104,0.08836c0,0 -1.25,0 -1.25,-1.25z"/><path d="M292.14174,199.46714c0,-1.25 1.25,-1.25 1.25,-1.25l1.59954,0.08352c0.94618,-0.85925 2.46181,-0.69019 3.6798,-1.07755c0.5894,-0.18744 2.01488,-1.69355 2.54409,-2.22521c0,0 0.88388,-0.88388 1.76776,0c0.88389,0.88388 0,1.76776 0,1.76776c-0.9654,0.96146 -2.27398,2.37951 -3.50468,2.82356c-1.17185,0.42282 -2.66282,0.21065 -3.58849,1.0444l-2.49803,0.08352c0,0 -1.25,0 -1.25,-1.25z"/><path d="M289.92172,211.59342c-0.85798,-0.90905 0.05107,-1.76703 0.05107,-1.76703l1.48172,-1.27698c2.65833,-0.07931 4.18978,0.22302 6.50017,-0.98078c0,0 1.11804,-0.55902 1.67705,0.55901c0.55901,1.11803 -0.55902,1.67705 -0.55902,1.67705c-2.52366,1.22117 -3.94727,1.18711 -6.69495,1.06799l-0.68901,0.7718c0,0 -0.90905,0.85798 -1.76703,-0.05107z"/><path d="M256.28809,218.93056c0,-1.25 1.25,-1.25 1.25,-1.25h2.10976c1.96064,0 4.91198,0.47771 6.82256,0.03344c2.38632,-0.55489 3.33259,-1.05783 5.92134,-1.05783c0,0 1.25,0 1.25,1.25c0,1.25 -1.25,1.25 -1.25,1.25c-2.71065,0 -2.80941,0.43588 -5.34696,0.99095c-2.13637,0.46731 -5.19817,0.03344 -7.39695,0.03344h-2.10976c0,0 -1.25,0 -1.25,-1.25z"/><path d="M236.45057,180.29916c2.07799,-0.00695 4.15588,-0.00885 6.23387,-0.00885c0,0 1.25,0 1.25,1.25c0,1.25 -1.25,1.25 -1.25,1.25c-1.97899,0 -3.95788,-0.0014 -5.93687,-0.00885l-1.00825,0.24946c0,1.2589 0,2.5178 0,3.7767c0.13614,-0.09619 0.2723,-0.19238 0.40844,-0.28857c0.94271,-0.19617 1.87181,-0.47615 2.82814,-0.5885c0.73923,-0.08685 1.48862,-0.00513 2.23293,-0.00608c1.53659,-0.00197 3.07344,-0.02873 4.60976,0c0.99312,0.01857 2.03107,-0.20365 2.97835,0.09515c0.28746,0.09067 2.61724,2.45519 2.72528,2.72528c0.14398,0.35996 -0.5451,0.85692 -0.27096,1.13105c0.27414,0.27414 0.76508,-0.39889 1.13106,-0.27096c0.45585,0.15934 0.56858,0.86491 1.02439,1.02439c0.51416,0.1799 1.08682,-0.08261 1.6314,-0.09515c1.51586,-0.03491 3.03294,-0.03549 4.54878,0c0.67221,0.01574 1.39191,-0.15773 2.01494,0.09515c0.60149,0.24414 0.9895,0.84336 1.44259,1.30822c0.4593,0.47122 1.0951,0.8661 1.28947,1.49477c0.29174,0.94358 0.08098,1.974 0.08836,2.96162c0.0042,0.56245 -0.21585,1.14798 -0.05364,1.68655c0.17753,0.58943 0.84302,0.94833 1.02439,1.53659c0.36766,1.19245 -0.05462,2.43769 -0.31248,3.57591c0.21756,-0.12204 0.40514,-0.33542 0.6527,-0.36612c0.52585,-0.06521 1.08707,0.26351 1.58716,0.08836c0.46952,-0.16445 0.60569,-0.8925 1.08537,-1.02439c0.95231,-0.26184 1.974,-0.08098 2.96162,-0.08836c0.56245,-0.0042 1.14798,0.21584 1.68655,0.05363c0.58943,-0.17753 0.93565,-0.89094 1.53659,-1.02439c0.94031,-0.20881 1.98884,-0.30031 2.88936,0.04152c0.74962,0.28455 1.32694,0.99162 1.70089,1.70088c0.2217,0.4205 -0.29927,1.01866 -0.05276,1.42512c0.30456,0.50217 1.20133,0.43026 1.48867,0.94249c0.43366,0.77308 0.30023,1.74837 0.50461,2.61089c0.1974,0.83308 0.55872,1.62685 0.69962,2.47133c0.12219,0.73234 -0.07726,1.50108 0.08413,2.22579c0.18115,0.8134 0.7477,1.5077 0.92847,2.32119c0.16563,0.74534 -0.06965,1.5432 0.09591,2.28856c0.18255,0.82189 0.76348,1.52231 0.9337,2.34685c0.02929,0.1419 0.02256,4.0571 0.02256,4.33395c0,0 0,0.14875 -0.05132,0.34363c0.37062,0.01704 0.73996,0.01781 1.1047,-0.04148c0.81095,-0.13182 1.53356,-0.61988 2.34121,-0.77059c0.87208,-0.16273 1.77089,-0.10953 2.65647,-0.16198c0.62752,-0.03717 1.25445,-0.08987 1.88285,-0.10688c2.22607,-0.06026 4.46723,-0.01686 6.69414,-0.00051c0.74002,0.00544 1.49856,0.19716 2.21989,0.03179c0.762,-0.1747 1.34561,-0.85934 2.10975,-1.02439c0.14008,-0.03026 4.39028,-0.03905 4.88987,-0.03179c0.70457,0.01024 1.44614,0.28896 2.11303,0.06141c0.78537,-0.26798 1.22277,-1.20699 2.01037,-1.46836c0.85185,-0.28269 1.79401,-0.06122 2.69101,-0.09183c0.78366,-0.25539 1.54093,-0.61395 2.35097,-0.76618c0.87041,-0.16358 1.7674,-0.11745 2.65124,-0.1739c1.50171,-0.09591 3.00788,-0.12193 4.51264,-0.12211c0.1283,-0.00001 0.2566,-0.0001 0.3849,-0.00021c-0.03735,-0.16602 -0.03734,-0.28637 -0.03734,-0.28637c0.01822,-4.28308 2.01952,-7.83497 3.11001,-11.5695c0.55745,-1.90906 1.57418,-3.82272 0.93632,-5.56973c-0.30756,-0.28841 -0.90064,-0.42206 -0.878,-0.82144c0.00791,-0.13956 0.05763,-0.26163 0.13389,-0.37261c-0.03248,-0.03534 -0.06594,-0.07059 -0.10039,-0.10574h-0.12865v-2.04878c0,-0.67374 0.53303,-1.22298 1.20038,-1.24903c-0.08841,-0.03983 -0.1786,-0.07501 -0.27121,-0.10381c-0.60111,-0.18698 -1.37291,0.17657 -1.87805,-0.19911c-0.91561,-0.68095 -1.65937,-1.66448 -2.0629,-2.73181c-0.3404,-0.90034 -0.05625,-1.92444 -0.0614,-2.88697c-0.00083,-0.15379 -0.00336,-0.30866 -0.00623,-0.46415c-0.16735,0.0908 -0.3185,0.20513 -0.44676,0.34881l-1.88237,0.34095c0,0 -1.25,0 -1.25,-1.25c0,-1.25 1.25,-1.25 1.25,-1.25l0.16641,0.34095c0.64603,-0.55677 1.44817,-0.93962 2.34939,-1.19711c0.20684,-0.75843 0.62118,-1.45773 1.4368,-2.03033c0.73998,-0.5195 1.80269,-0.14694 2.70594,-0.18668c1.0234,-0.04504 2.04879,0 3.07317,0c0,0 1.25,0 1.25,1.25c0,0.27947 -0.06249,0.49647 -0.15952,0.66494c1.08626,0.0698 2.11143,0.13384 3.00708,0.13384c0.97755,0.12204 2.13338,-0.20977 2.93266,0.36612c0.53033,0.3821 0.0094,1.34309 0.27097,1.94211c0.19324,0.44255 0.87921,0.56383 1.02439,1.02439c0.04954,0.15715 0.19598,4.14629 -0.00984,4.56517c-1.25139,2.54681 -4.52111,2.29777 -6.84013,2.28513c-0.92912,-0.00507 -1.87957,0.1653 -2.7872,-0.03343c-0.23039,-0.05044 -0.4449,-0.14455 -0.65273,-0.25755c0.09017,0.17275 0.14114,0.3692 0.14114,0.57757v0.90443c0.3537,0.54243 0.69297,1.09167 0.92924,1.69039c0.7014,1.77731 0.85009,5.55138 1.97291,7.01797c0.38277,0.49997 1.32037,0.48327 1.5597,1.06569c0.14851,0.36142 0.19727,0.7419 0.19391,1.13267c0.15689,-0.11419 0.28854,-0.16685 0.28854,-0.16685c3.27261,-1.28864 8.22796,-0.69132 10.11831,-3.52686l2.12641,-0.14791c0,0 1.25,0 1.25,1.25c0,1.25 -1.25,1.25 -1.25,1.25l-0.94676,-0.14791c-2.02386,3.03579 -7.00334,2.27286 -10.36948,3.64387c0,0 -0.89271,0.35709 -1.42544,-0.33804c-0.07851,0.6078 -0.11109,1.20869 0.06727,1.77226c0.45884,1.44986 2.3592,2.64514 3.00176,4.35987c1.81768,-0.01315 3.63522,-0.00957 5.45315,-0.00957c1.4065,0 2.81303,-0.00898 4.21951,0c0.60417,0.00386 1.22224,0.15194 1.8124,0.02256c0.79882,-0.17514 1.48681,-0.70024 2.2749,-0.91865c0.48343,-0.13397 0.99821,-0.10951 1.49953,-0.1274c0.69826,-0.02491 1.3974,-0.00072 2.09609,-0.00089c0.5122,-0.00012 1.02903,-0.06878 1.53659,0c0.40334,0.05466 0.78179,0.50357 1.1649,0.36611c0.2348,-0.08424 -0.24408,-0.43513 -0.36612,-0.6527c0,-1.51771 0.07603,-3.03725 0.00128,-4.55312c-0.04011,-0.81347 -0.14862,-1.62211 -0.22249,-2.4332c-0.07662,-0.84135 -0.17414,-1.68109 -0.22899,-2.52415c-0.03214,-0.49401 0.09517,-1.00635 -0.03183,-1.48485c-0.19415,-0.7315 -0.61653,-1.38248 -0.9139,-2.07844c-0.21641,-0.50646 -0.54427,-0.9841 -0.62732,-1.52857c-0.13455,-0.88207 0.04925,-3.71497 -0.02312,-4.78341c-0.05457,-0.8056 -0.2023,-1.60216 -0.30285,-2.40332c-0.20543,-1.6369 -0.34189,-3.2838 -0.61285,-4.91113c-0.13409,-0.80532 -0.3354,-1.59799 -0.50108,-2.39741c-0.1601,-0.77248 -0.23338,-1.56769 -0.47624,-2.31827c-0.26785,-0.82782 -0.85781,-1.54169 -1.04742,-2.39085c-0.1993,-0.89255 -0.08244,-1.82744 -0.0987,-2.74183c-0.00558,-0.3143 0.17342,-0.66112 0.0332,-0.94247c-0.37207,-0.74659 -1.178,-1.23332 -1.50086,-2.00247c-0.2299,-0.5477 0.03443,-1.19838 -0.08683,-1.77986c-0.15864,-0.76073 -1.39354,-3.87068 -1.64016,-4.5105c-0.24863,-0.81083 -0.49812,-1.6214 -0.74589,-2.43249c-0.2063,-0.67534 -0.35147,-1.3722 -0.61629,-2.0268c-0.29309,-0.72447 -0.67543,-1.41043 -1.05142,-2.09555c-0.44064,-0.80293 -1.11755,-1.49381 -1.39704,-2.36602c-0.26747,-0.83468 -0.18009,-1.7455 -0.20126,-2.62172c-0.01674,-0.693 0.27148,-1.40937 0.08774,-2.07778c-0.10739,-0.39068 -0.66986,-0.48891 -0.88726,-0.83082c-0.49367,-0.77642 -0.95457,-1.59573 -1.21644,-2.47776c-0.11757,-0.396 0.33459,-0.88441 0.11446,-1.23396c-0.32803,-0.5209 -1.26391,-0.47249 -1.53659,-1.02439c-0.33641,-0.68087 0.03057,-1.52726 -0.09427,-2.27637c-0.04929,-0.29581 -0.13442,-0.69875 -0.41785,-0.79673c-0.46199,-0.15971 -0.9702,0.14049 -1.45896,0.14791c-0.67232,0.01021 -1.38399,0.13726 -2.01494,-0.09515c-0.45314,-0.16691 -0.56976,-0.86158 -1.02439,-1.02439c-0.49373,-0.17681 -1.04599,0.09515 -1.57043,0.09515c-0.67239,0 -1.38399,0.13726 -2.01494,-0.09515c-0.45314,-0.16691 -0.56976,-0.86158 -1.02439,-1.02439c-0.49373,-0.17681 -1.04624,0.0791 -1.57043,0.09515c-1.16504,0.03568 -2.33116,-0.00128 -3.49675,-0.00315c-1.34702,0.19379 -2.88826,-0.33345 -4.06809,0.34481c-0.54564,0.31367 -0.48841,1.30654 -1.06484,1.55921c-0.80258,0.35179 -1.78702,-0.18598 -2.62821,0.05955c-0.47755,0.13939 -0.60568,0.8925 -1.08536,1.02439c-1.47622,0.4059 -3.14792,-0.51242 -4.59302,-0.00679c-0.09302,0.03254 -0.17187,0.08751 -0.2423,0.15582c0.8462,-0.00088 1.59566,0.0003 1.81272,0.0003c0,0 1.25,0 1.25,1.25c0,1.25 -1.25,1.25 -1.25,1.25c-0.68293,0 -1.36587,0.00509 -2.04878,0c-0.74002,-0.00551 -1.49856,-0.19716 -2.21988,-0.03179c-0.762,0.1747 -1.34561,0.85934 -2.10976,1.02439c-0.16131,0.03484 -4.37417,0.03557 -4.88987,0.03179c-0.74002,-0.00544 -1.49857,-0.19716 -2.21989,-0.03179c-0.762,0.1747 -1.34561,0.85934 -2.10976,1.02439c-0.90587,0.19566 -1.85344,0.0451 -2.78011,0.03179c-0.54467,-0.00782 -1.11725,-0.27505 -1.63141,-0.09515c-0.4558,0.15948 -0.55933,0.89431 -1.02439,1.02439c-0.42048,0.1176 -4.29369,0.09515 -5.08811,0.09515c-4.26829,0 -8.53659,0 -12.80488,0c-5.46341,0 -10.92683,0 -16.39024,0c-1.51626,0 -3.03252,0.00195 -4.54878,0c-0.74431,-0.00096 -1.49275,0.07234 -2.23292,-0.00609c-0.3347,-0.03546 -0.66387,-0.10685 -0.99193,-0.18558c-0.28949,0.71302 -0.28476,1.61832 -0.53529,2.3593c-0.66059,1.95382 -1.59435,4.24395 -2.91906,6.099c0.7069,0.01227 1.31121,0.03673 1.46244,0.08461c0.47337,0.14986 0.61365,0.83406 1.0646,1.04188c0.57252,0.26385 1.47938,-0.18945 1.86583,0.3086c0.53504,0.68954 0.80258,1.63556 0.92616,2.66782c2.33832,0.01263 5.02803,-0.10153 6.47172,-1.46411l2.5104,-0.08837c0,0 1.25,0 1.25,1.25c0,1.25 -1.25,1.25 -1.25,1.25l-1.58715,-0.08836c-1.59393,1.50439 -4.7004,1.64276 -7.31001,1.63711c-0.02549,1.04398 -0.09674,2.04286 -0.09674,2.8354c0,0.75903 0.02246,4.71762 -0.09515,5.08811c-0.19641,0.61872 -0.84336,0.9895 -1.30822,1.4426c-0.22127,0.21567 -0.4257,0.47026 -0.64542,0.69978c0,1.32561 0,2.65122 0,3.97683v0.06097c0,0 0,1.25 -1.25,1.25c-1.25,0 -1.25,-1.25 -1.25,-1.25c0,-1.09572 0,-2.19721 0,-3.30092c-0.43793,-0.01925 -0.87856,-0.0583 -1.31097,-0.05884c-0.84298,-0.00105 -1.75153,0.23506 -2.52713,-0.09515c-0.8137,-0.34642 -1.30243,-1.19689 -1.94212,-1.80756c-0.70294,-0.67105 -1.40393,-1.34603 -2.06145,-2.06164c-0.44522,-0.48454 -1.0951,-0.8661 -1.28947,-1.49477c-0.29173,-0.94358 -0.13485,-1.97507 -0.08836,-2.96162c0.04637,-0.98405 -0.17007,-2.10622 0.36612,-2.93266c0.27877,-0.42969 1.15467,0.34131 1.53659,0c0.28907,-0.25834 -0.43514,-0.77984 -0.27096,-1.13106c0.2457,-0.52563 0.65049,-0.99069 1.1233,-1.34588c-0.19412,-0.01016 -1.21845,-0.11739 -1.21845,-1.24894c0,-0.92138 0.67915,-1.16361 1.03624,-1.22729c0.12736,-1.0471 1.23815,-1.0471 1.23815,-1.0471h1.53443c0.54001,-0.66759 0.88178,-1.59794 1.32477,-2.60285c0.65605,-1.48825 1.82536,-2.73873 2.34002,-4.28159c0.20459,-0.61335 0.35113,-1.27092 0.53852,-1.90554c-0.37795,0.00397 -0.7568,0.02293 -1.13432,0.02167c-0.83121,-0.00278 -1.66244,0.00001 -2.49365,0.00001c-1.53659,0 -3.07317,0.00208 -4.60976,0c-0.66219,-0.0009 -1.3283,-0.07791 -1.98659,-0.00608c-0.82632,0.09017 -1.61452,0.45774 -2.44514,0.48965c-0.47985,0.01843 -1.09681,-0.71483 -1.39943,-0.34198c-0.3488,0.42976 0.31325,1.06925 0.36165,1.62062c0.07286,0.83014 0,1.66666 0,2.5c0,0.83334 0,1.66666 0,2.5c0,6.19167 0,12.38333 0,18.57499zM249.11736,173.85739c0,0 0,-1.25 1.25,-1.25c0.37525,0 0.63785,0.11264 0.82162,0.27031c0.04072,-0.58898 0.12612,-1.53832 0.17446,-2.49767c-0.33796,-0.14097 -0.70949,-0.45092 -0.70949,-1.1324c0,-0.676 0.36559,-0.98642 0.70134,-1.12896c-0.04345,-0.42004 -0.12318,-0.74193 -0.25534,-0.8964c-0.13734,-0.16051 -0.35653,-0.09546 -0.58969,-0.01226c0.05192,0.13944 0.08272,0.30484 0.08272,0.50103c0,1.25 -1.25,1.25 -1.25,1.25c-1.63007,0 -3.44823,-0.23704 -5.01827,0.34995c-1.15859,0.43316 0.08546,1.45258 -0.75639,2.35711c-0.34895,0.37493 -1.17354,-0.36131 -1.53659,0c-0.2885,0.28713 0.33096,0.75939 0.36612,1.1649c0.05875,0.67756 -0.25156,1.37815 -0.08836,2.03838c0.08132,0.32897 0.51398,0.44221 0.75931,0.67596c0.69486,0.66208 1.37828,1.33703 2.03611,2.03592c0.38779,0.41199 0.6119,1.04069 1.13106,1.26562c0.48121,0.20849 1.04599,-0.09417 1.57043,-0.09515c0.43451,-0.00082 0.87635,0.10209 1.31097,0.13396c0,-1.68179 0,-3.36271 0,-5.0303zM252.41614,152.63178c0,0 0.71994,0 1.06707,0.54637c0.51695,0.01377 1.0371,-0.03347 1.55488,-0.03417c1.51626,-0.00206 3.03252,0 4.54878,0c5.46341,0 10.92683,0 16.39024,0c3.7561,0 7.5122,0 11.26829,0c1.21544,0 2.43121,-0.02799 3.64634,0c0.67445,0.01553 1.37638,0.292 2.02165,0.09515c0.46188,-0.14091 0.56313,-0.88144 1.02439,-1.02439c1.53097,-0.47446 3.24572,0.2948 4.808,-0.06336c0.762,-0.1747 1.34561,-0.85934 2.10976,-1.02439c0.16131,-0.03484 4.37418,-0.03557 4.88987,-0.03179c0.74002,0.00544 1.49856,0.19716 2.21988,0.03179c0.09997,-0.02292 0.19687,-0.05461 0.29152,-0.09276h-0.0114c0,0 -1.25,0 -1.25,-1.25c0,-1.25 1.25,-1.25 1.25,-1.25h2.04878c0.75712,0.06807 1.35652,-0.70422 2.08262,-0.92924c1.47305,-0.45651 3.14922,0.43587 4.62649,-0.00679c0.47654,-0.1428 0.6062,-0.89066 1.08537,-1.02439c0.76174,-0.21259 1.64617,0.37404 2.3718,0.05954c0.55223,-0.23935 0.44732,-1.24139 0.98393,-1.51395c1.54423,-0.78437 3.43658,-0.43628 5.15142,-0.67959c1.22466,-0.0018 2.44965,-0.03181 3.67398,-0.00314c0.84274,0.01973 1.72316,-0.15829 2.52713,0.09515c0.46056,0.14518 0.58339,0.82763 1.02439,1.02439c0.32343,0.14431 0.70407,-0.09515 1.05824,-0.09515c0.84298,0 1.72316,-0.15828 2.52713,0.09515c0.46056,0.14518 0.58339,0.82762 1.02439,1.02439c0.32343,0.14431 0.7041,-0.10021 1.05823,-0.09515c0.88083,0.01257 1.87257,-0.28707 2.6386,0.1479c0.81173,0.46092 1.30316,1.40243 1.63093,2.27645c0.21344,0.56917 -0.36909,1.27898 -0.09427,1.82118c0.2783,0.54908 1.22911,0.49111 1.53659,1.02439c0.30681,0.53215 -0.04771,1.24675 0.11446,1.83922c0.16026,0.58551 0.49317,1.11635 0.83234,1.61981c0.33025,0.49023 0.99527,0.77268 1.16153,1.3399c0.27411,0.93517 0.05273,1.94834 0.08774,2.92222c0.02338,0.65046 -0.1187,1.33329 0.0874,1.95068c0.23777,0.7123 0.83486,1.25042 1.20018,1.90651c0.43061,0.77336 0.85126,1.55661 1.18465,2.37659c0.29204,0.7183 0.45777,1.48171 0.68541,2.22295c0.24032,0.7825 0.47897,1.56552 0.71845,2.34828c0.42293,1.09605 1.50777,3.78894 1.74015,4.898c0.09508,0.4538 -0.19983,0.96624 -0.01367,1.39087c0.33426,0.76245 1.16757,1.23391 1.49914,1.99753c0.22575,0.5199 0.08471,1.13072 0.10516,1.69716c0.02713,0.75172 -0.13208,1.52349 0.03755,2.25632c0.17966,0.77611 0.74384,1.41776 0.98842,2.17592c0.01799,0.05575 1.04627,4.96445 1.06445,5.07365c0.0054,0.03247 0.61937,4.94641 0.6275,5.01165c0.10617,0.85264 0.25957,1.70078 0.31732,2.55806c0.04901,0.7275 0.00621,1.45829 0.00241,2.18743c-0.0039,0.74959 -0.12712,1.50597 -0.02553,2.24866c0.05194,0.3797 0.3249,0.69435 0.47625,1.04644c0.35935,0.83593 0.82648,1.63673 1.0557,2.51728c0.15747,0.60495 0.04242,1.2498 0.0872,1.8733c0.01506,0.20975 0.44622,4.84549 0.45388,5.00158c0.07631,1.5536 0.00128,3.11094 0.00128,4.6664c-0.12204,0.80683 0.25724,1.8939 -0.36612,2.42047c-0.75257,0.63572 -1.95081,0.28568 -2.93266,0.36612c-1.17541,0.09629 -2.35896,-0.02562 -3.53805,-0.0009c-0.34353,0.0072 -0.69927,-0.03287 -1.02881,0.06442c-0.81414,0.24037 -1.53615,0.76662 -2.36749,0.93831c-0.74601,0.15407 -1.52342,0.01826 -2.28517,0.02255c-2.23967,0.01262 -4.47981,0.00001 -6.71951,0c-0.98383,0 -1.97133,-0.00651 -2.9592,-0.00659c0.00729,0.05685 0.01794,0.11336 0.03256,0.16949c0.24621,0.94527 4.67868,0.41027 4.97542,0.41027h0.06098c0,0 1.25,0 1.25,1.25c0,1.25 -1.25,1.25 -1.25,1.25h-0.06098c-2.24352,0 -5.83291,0.81514 -7.19531,-1.76046c-0.21184,-0.40048 -0.31792,-0.84074 -0.38212,-1.29651c-0.42486,0.00897 -0.84926,0.02123 -1.27294,0.0378c-0.76849,0.03006 -1.54817,0.00326 -2.30199,0.15573c-0.83125,0.16814 -1.57964,0.65623 -2.41571,0.79852c-0.12814,0.02181 -4.8241,0.01614 -4.87096,0.01614c-1.45329,-0.00018 -2.90758,0.03079 -4.35829,0.11733c-0.77965,0.04651 -1.57219,-0.01243 -2.33922,0.13479c-0.82734,0.1588 -1.60353,0.51725 -2.40529,0.77587c-0.76941,-0.00124 -1.57957,-0.25079 -2.30822,-0.0037c-0.79251,0.26874 -1.23254,1.22571 -2.03129,1.47528c-0.22466,0.0702 -4.38325,0.06591 -4.99672,0.0614c-0.74002,-0.00544 -1.49857,-0.19716 -2.21989,-0.03179c-0.762,0.1747 -1.34561,0.85934 -2.10975,1.02439c-0.90587,0.19566 -1.85337,0.02577 -2.78011,0.03179c-2.20578,0.01434 -4.41802,-0.06007 -6.62293,-0.00051c-0.60467,0.01633 -1.20772,0.07084 -1.81171,0.10383c-0.77839,0.04252 -1.56968,-0.02336 -2.33542,0.12272c-0.83011,0.15836 -1.57642,0.65229 -2.41137,0.78278c-0.8881,0.1388 -1.79773,0.01269 -2.69662,0.01556c-1.5569,0.00498 -3.11382,0 -4.67073,0c-3.9065,0 -7.81301,0 -11.71951,0c-1.50498,0 -3.01359,-0.10804 -4.51494,-0.0036c-0.68429,0.0476 -1.36465,0.16232 -2.03398,0.31239c-0.84386,0.1892 -1.64367,0.56439 -2.49721,0.70352c-0.62275,0.10151 -1.26192,0.01035 -1.89289,0.01208c-0.83333,0.00229 -1.66667,0 -2.5,0c-3.20325,0 -6.4065,0 -9.60976,0c-1.53659,0 -3.07317,0 -4.60975,0c-0.68293,0 -1.36814,0.05576 -2.04878,0c-0.81328,-0.06662 -1.84347,0.21089 -2.42047,-0.36611c-0.47129,-0.47129 -0.36612,-3.88359 -0.36612,-4.53023c0,-3.77642 0,-7.55285 0,-11.32927c0,-1.6445 0.08591,-3.29114 0.00177,-4.93349c-0.0822,-1.60456 -0.42671,-3.18831 -0.5122,-4.79269c-0.00234,-0.04402 -0.00177,-4.97986 -0.00177,-5.06651c0,-1.96125 0,-3.92251 0,-5.88376c-0.37673,-0.06224 -0.95204,-0.29399 -1.0202,-1.12367c-0.08234,-1.00244 0.7082,-1.26452 1.0202,-1.32866c0,-0.3148 0,-0.6296 0,-0.9444c0,-1.63208 0,-3.26417 0,-4.89625c-0.01508,-0.12203 -0.01389,-0.23347 0,-0.33514c0,-6.64238 0,-13.28476 0,-19.92714c0,-1.66666 -0.10233,-3.33648 0,-5c0.06956,-1.13075 -0.38236,-2.52503 0.36164,-3.37939c0.64415,-0.7397 1.94912,-0.22789 2.91718,-0.3858c0.82454,-0.13449 1.62698,-0.4029 2.45776,-0.49093c0.74017,-0.07843 1.48862,-0.00513 2.23293,-0.00609c0.83333,-0.00107 1.66667,0 2.5,0c0.24638,0 4.61266,0 4.6161,0.00002c0.76052,0.00455 1.52543,-0.05428 2.28144,0.02861c0.2898,0.03178 0.57545,0.09041 0.85987,0.15703zM247.29419,166.46104c0.60296,-0.00151 1.20594,-0.00035 1.8089,-0.00006c-0.06899,-0.0682 -0.1465,-0.12324 -0.23847,-0.15606c-0.93878,-0.33506 -1.9878,0.06259 -2.98863,0.0933c-0.03369,0.02213 -0.06754,0.04397 -0.10156,0.06549c0.49311,-0.01578 0.99583,-0.00135 1.51977,-0.00267zM281.38565,223.54031c0,-0.68293 -0.00399,-1.36586 0,-2.04878c0.00353,-0.60417 0.15195,-1.22224 0.02255,-1.8124c-0.17664,-0.80561 -0.74426,-1.49045 -0.92326,-2.29554c-0.16571,-0.74533 0.06972,-1.54322 -0.09591,-2.28856c-0.18077,-0.81349 -0.74806,-1.50762 -0.92848,-2.32119c-0.16987,-0.766 0.02135,-1.57743 -0.1077,-2.35134c-0.13332,-0.79949 -0.51188,-1.54215 -0.67399,-2.33629c-0.12061,-0.59083 0.14109,-1.28476 -0.17056,-1.80101c-0.33291,-0.55147 -1.25536,-0.55257 -1.58451,-1.10629c-0.28084,-0.47246 0.05541,-1.10917 -0.05275,-1.64805c-0.03228,-0.16079 -0.18698,-0.31621 -0.34789,-0.34789c-0.39538,-0.07784 -0.83256,-0.10435 -1.20819,0.04152c-0.57383,0.22284 -0.94275,0.86223 -1.53659,1.02439c-0.77547,0.21177 -1.60717,0.05991 -2.41101,0.05364c-0.68007,-0.00531 -1.3869,-0.28358 -2.03838,-0.08837c-0.47654,0.1428 -0.61012,0.87732 -1.08537,1.02439c-1.34601,0.41654 -3.61197,-0.07826 -4.93087,-0.27775c-0.12204,-1.12796 -0.28955,-2.25192 -0.36612,-3.38388c-0.02782,-0.41123 0.18986,-0.84633 0.05363,-1.23533c-0.20346,-0.58098 -0.86222,-0.94275 -1.02439,-1.53659c-0.21177,-0.77548 -0.05991,-1.60717 -0.05363,-2.41101c0.00531,-0.68007 0.25156,-1.37815 0.08836,-2.03838c-0.08132,-0.32897 -0.52413,-0.432 -0.75931,-0.67596c-0.22139,-0.22967 -0.30876,-0.62523 -0.60619,-0.74057c-0.33021,-0.12804 -0.70423,0.08431 -1.05823,0.09515c-1.51555,0.04641 -3.03279,0.02835 -4.54878,0c-0.86313,-0.01614 -1.76351,0.1604 -2.58811,-0.09515c-0.46126,-0.14295 -0.58184,-0.83115 -1.02439,-1.02439c-0.59902,-0.26157 -1.47992,0.19123 -1.94212,-0.27096c-0.4622,-0.4622 -0.02821,-1.33523 -0.27097,-1.94212c-0.1207,-0.30175 -0.52362,-0.38905 -0.75342,-0.61886c-0.22981,-0.22981 -0.30351,-0.67481 -0.61886,-0.75342c-0.65459,-0.16319 -1.34719,0.07962 -2.02164,0.09515c-0.70306,0.01619 -1.4065,0 -2.10976,0c-0.83333,0 -1.66667,0.00113 -2.5,0c-0.66219,-0.0009 -1.32736,-0.06874 -1.98659,-0.00609c-0.70067,0.06659 -1.38317,0.26138 -2.07476,0.39208c-0.46939,0.34814 -0.93877,0.69628 -1.40816,1.04442c0,2.15938 0,4.31875 0,6.47813c0,1.6445 -0.08928,3.29132 -0.00178,4.93349c0.08288,1.5554 0.43227,3.23597 0.5122,4.79269c0.00234,0.04568 0.00177,4.97824 0.00177,5.06651c0,3.77642 0,7.55285 0,11.32927c0,0.70325 0.0924,1.4126 0,2.10975c-0.03277,0.2473 -0.54252,0.47631 -0.36612,0.6527c0.1764,0.1764 0.40551,-0.33262 0.6527,-0.36612c0.67674,-0.09171 1.36586,0 2.04878,0c1.53659,0 3.07317,0 4.60975,0c3.20325,0 6.4065,0 9.60976,0c0.83333,0 1.66667,-0.00249 2.5,0c0.51539,0.00154 1.03808,0.09877 1.54613,0.01209c0.79045,-0.13486 1.52731,-0.49757 2.31041,-0.67009c0.78303,-0.17251 1.57826,-0.30387 2.3779,-0.36279c0.06213,-0.00458 4.36091,-0.0036 4.70458,-0.0036c3.9065,0 7.81301,0 11.71951,0c1.15254,0 2.30507,-0.00297 3.45761,-0.00231c-0.03688,-0.16493 -0.03688,-0.28427 -0.03688,-0.28427zM326.86983,190.47703c0.01468,0.37362 0.04106,0.67724 0.04021,0.79499c-0.00822,1.13846 -0.50571,2.64867 0.81934,3.42289c0.3813,0.22278 0.90142,-0.14731 1.32465,-0.02126c0.72096,0.21472 1.28242,0.84568 2.01515,1.01595c0.71854,0.16698 1.47514,-0.02864 2.21281,-0.03344c1.63695,-0.01066 2.39133,0.14235 3.99363,-0.35401c0.2247,-0.06961 0.48737,-0.20916 0.55647,-0.43403c0.10188,-0.33151 -0.10368,-0.68832 -0.10499,-1.03513c-0.00198,-0.52443 0.27196,-1.0767 0.09515,-1.57043c-0.16281,-0.45463 -0.86505,-0.56853 -1.02439,-1.02439c-0.12793,-0.36597 0.56553,-0.879 0.27096,-1.13106c-0.30926,-0.26463 -0.77659,0.24408 -1.1649,0.36612c-3.00877,0 -6.02578,0.06278 -9.03411,0.00379zM334.31061,217.50919c-0.57868,-0.99081 -1.75993,-1.62139 -2.12249,-2.71003c-0.47382,-1.42271 0.69279,-3.14221 0.05275,-4.49829c-0.25677,-0.54403 -1.17744,-0.48412 -1.51347,-0.98309c-0.29186,-0.4334 -0.522,-0.97715 -0.7142,-1.57915c-0.02277,0.07539 -0.04507,0.15035 -0.06682,0.22485c-1.03472,3.54487 -3.05628,6.92999 -3.03634,10.96708c0,0 0,0.1248 -0.03944,0.29554c0.5564,0.02775 1.11663,0.10451 1.66238,0.00719c0.80587,-0.14371 1.52446,-0.6249 2.32771,-0.78262c0.83198,-0.16336 2.43403,-0.20521 3.74875,-0.22086c-0.07058,-0.2514 -0.166,-0.4932 -0.29883,-0.72062z"/><path d="M424.2271,206.63788c0,1.25 -1.25,1.25 -1.25,1.25h-2.04878c-0.75712,-0.06807 -1.35762,0.70069 -2.08262,0.92924c-1.0605,0.33429 -2.2209,-0.13999 -3.33283,-0.1408c-0.64563,-0.00047 0.70153,1.25475 1.3283,1.40968c1.55615,0.38466 3.9777,-0.08836 5.62374,-0.08836c0,0 1.09466,0 1.23521,1.02439h1.83796c0.21756,0.12204 0.43514,0.24408 0.6527,0.36612c0,-0.51219 -0.42766,-1.25471 0,-1.53659c2.10532,-1.38767 2.31508,0.04247 3.91416,-0.42964c0.81414,-0.24037 1.53697,-0.76269 2.36749,-0.93831c0.62719,-0.13262 1.30677,0.208 1.92293,0.03108c0.59168,-0.16988 0.94432,-0.85659 1.53659,-1.02439c0.61996,-0.17565 1.312,0.21469 1.93266,0.04152c0.31304,-0.08734 0.3961,-0.51676 0.61886,-0.75342c0.82744,-0.8791 1.70731,-1.70732 2.56097,-2.56098c0.34147,-0.34146 0.66977,-0.69661 1.02439,-1.02439c0.23867,-0.2206 0.64452,-0.31265 0.75342,-0.61886c0.18417,-0.51786 -0.22802,-1.17554 0.05275,-1.64805c0.32076,-0.53982 1.2144,-0.53429 1.55678,-1.06066c0.23014,-0.35382 -0.0833,-0.84528 -0.04369,-1.2655c0.0769,-0.8159 0.32612,-1.61027 0.39173,-2.42716c0.06407,-0.79769 -0.0033,-1.6005 -0.00394,-2.40076c-0.00067,-0.83334 0,-1.66666 0,-2.5c0,-2.21951 0,-4.43902 0,-6.65853c0.02923,-0.35888 0.231,-0.74633 0.08769,-1.07665c-0.1932,-0.44528 -0.85127,-0.59028 -1.00995,-1.049c-0.2955,-0.85426 -0.07083,-1.81868 -0.28573,-2.6967c-0.17177,-0.70181 -0.50114,-1.36272 -0.86114,-1.98918c-0.41769,-0.72685 -1.05768,-1.31245 -1.4591,-2.04842c-0.41454,-0.76002 -0.61798,-1.61837 -0.97183,-2.40847c-0.31098,-0.69438 -0.70472,-1.34944 -1.02104,-2.0414c-0.31662,-0.69262 -0.58826,-1.40497 -0.87664,-2.10981c-0.28486,-0.69622 -0.42177,-1.47014 -0.84307,-2.09334c-0.45866,-0.67846 -1.25905,-1.0709 -1.74275,-1.73174c-0.45081,-0.61591 -0.59413,-1.41736 -1.02392,-2.04812c-0.29154,-0.42785 -0.74174,-0.72251 -1.11113,-1.08529c-0.58992,-0.57936 -1.17357,-1.16514 -1.76678,-1.74113c-0.53879,-0.52316 -0.99419,-1.15518 -1.62914,-1.55621c-0.7439,-0.46984 -1.72902,-0.49092 -2.43769,-1.01238c-0.4744,-0.34909 -0.48103,-1.13836 -0.95686,-1.48549c-0.4139,-0.30195 -1.52761,-0.30977 -2.29598,-0.29547l-0.35453,0.64508c0.00714,0.05406 0.01082,0.1092 0.01082,0.1652c0,0.26266 -0.08102,0.5064 -0.21942,0.70759l-0.9418,1.41271c0.04658,0.13806 0.0922,0.28482 0.13683,0.44067c0.18162,0.63425 -0.88605,1.00221 -1.16488,1.60014c-0.18529,0.39736 -0.0119,0.90038 -0.18831,1.30176c-0.3865,0.87939 -0.91201,1.69703 -1.47253,2.47713c-0.31149,0.43351 -0.73592,0.77433 -1.12577,1.13901c-0.02195,0.02053 -0.04537,0.03994 -0.06988,0.05849c-0.08886,0.08615 -0.18353,0.16936 -0.27387,0.25479c0.1004,0.74021 0.35748,1.51239 0.15232,2.20967c-0.15512,0.52722 -0.54681,0.95033 -0.87329,1.40279c-0.13046,0.29482 -0.28583,0.58021 -0.44886,0.86219c-0.22784,0.83073 0.07359,1.77314 -0.2232,2.58481c-0.16487,0.4509 -0.9348,0.49769 -1.07706,0.95623c-0.24259,0.78196 0.26916,1.67671 0.01843,2.45609c-0.20153,0.62642 -0.85965,0.99651 -1.28947,1.49477l-0.01735,0.00819l0.00467,0.00467l-1.02439,1.02439c-0.2262,0.2262 -0.5387,0.36611 -0.88388,0.36611c-0.69036,0 -1.25,-0.55964 -1.25,-1.25c0,-0.108 0.01369,-0.21281 0.03945,-0.31277c-0.31496,0.16671 -0.64609,0.32127 -0.88009,0.57332c-0.76313,0.82201 -0.71089,2.12796 -1.09561,3.18155c-0.28688,0.78563 -1.64254,4.66504 -2.10255,5.1503c-0.62543,0.65975 -1.32301,0.8627 -2.03965,0.84394c-0.05259,0.18448 -0.10794,0.3829 -0.16625,0.59877c-0.14325,0.53037 -0.04976,1.17325 -0.39589,1.59987c-1.41325,1.74187 -3.58213,4.09194 -4.904,0.82086c-0.40499,0.60712 -1.11575,1.03709 -1.35163,1.72823c-0.27501,0.80575 0.1929,1.73901 -0.05479,2.55357c-0.16981,0.55845 -0.84278,0.82988 -1.12876,1.33872c-0.69288,1.23286 -1.21417,2.0912 -1.81329,2.85026c-0.15352,0.76054 -0.36121,1.51397 -0.73082,2.24386c-0.25518,0.50392 -0.70335,0.91995 -1.21785,1.27437l-1.02439,1.02439c-0.2262,0.2262 -0.5387,0.36612 -0.88389,0.36612c-0.58205,0 -1.07119,-0.39782 -1.21033,-0.93639c-0.12354,0.12972 -0.23756,0.26729 -0.33659,0.41727c-0.38394,0.58149 -0.6136,1.25128 -0.92041,1.87691c0,0 -0.55902,1.11803 -1.67705,0.55902c-0.21839,-0.1092 -0.3728,-0.23972 -0.47988,-0.37909c-0.20906,0.31274 -0.60682,0.65029 -1.31305,0.47373c-1.21268,-0.30317 -0.9095,-1.51584 -0.9095,-1.51584c0.23437,-0.82189 0.24102,-1.74671 0.7031,-2.46568c0.30797,-0.47919 1.20087,-0.38499 1.45626,-0.89415c0.27254,-0.54335 -0.26279,-1.23714 -0.09427,-1.82119c0.197,-0.68278 0.79039,-1.18285 1.13962,-1.80176c0.3953,-0.70057 0.64164,-1.4854 1.09148,-2.15226c0.65892,-0.97682 1.91749,-1.46978 2.51171,-2.48726c0.40222,-0.68873 0.37761,-1.56442 0.73723,-2.27632c0.40278,-0.79733 1.01582,-1.4697 1.52564,-2.20322c0.30593,-0.44017 0.53814,-0.77239 0.74881,-1.07144c-0.02284,-0.48558 -0.02853,-0.9597 0.24092,-1.33427c0.13961,-0.19409 0.42586,-0.11153 0.71842,-0.01286c0.17151,-0.23943 0.36703,-0.51225 0.60139,-0.83974c0.04374,-0.06112 0.08819,-0.12177 0.13309,-0.18212c-0.13624,-0.35313 -0.28717,-0.71427 -0.19407,-1.04301c0.1793,-0.63314 0.84425,-1.01022 1.28947,-1.49477c0.33565,-0.3653 0.67892,-0.72468 1.02712,-1.08011c0.74356,-1.14854 1.67183,-2.17476 2.40223,-3.33285c0.02088,-0.03311 0.04161,-0.06631 0.0622,-0.09959c-0.16279,-0.21106 -0.25963,-0.47561 -0.25963,-0.76277c0,-0.69036 0.55964,-1.25 1.25,-1.25h0.15262c0.00081,-0.0014 0.00162,-0.0028 0.00243,-0.0042c0.3108,-0.53792 0.5248,-1.14845 0.94383,-1.6071c0.57025,-0.62418 1.31771,-1.05962 1.97657,-1.58943c1.61924,-2.51877 3.53217,-4.90674 5.07319,-7.46233c0.44561,-0.73899 0.60381,-1.67512 1.21139,-2.2879c1.10983,-1.11936 2.7057,-1.67382 3.81655,-2.79216c2.32259,-2.33827 4.04974,-4.94513 7.08692,-5.61231c0.01508,-0.39551 0.16008,-0.65859 0.34629,-0.83357c0.18495,-0.19681 0.4683,-0.34759 0.90242,-0.34759c0.00642,0 0.0128,0.00003 0.01915,0.0001c1.4914,0.00703 2.89642,-0.1288 4.28628,0.74032c0.5446,0.34055 0.57507,1.20635 1.09193,1.58769c0.63327,0.46723 1.54213,0.41989 2.20469,0.84456c0.77096,0.49416 1.35599,1.23135 2.0192,1.86279c0.60823,0.57909 1.20015,1.17513 1.79465,1.76833c0.46314,0.46213 1.00401,0.86087 1.37817,1.39759c0.4368,0.62658 0.57402,1.43289 1.02486,2.04944c0.50038,0.68429 1.32469,1.09702 1.79279,1.80379c0.50497,0.76245 0.71933,1.68162 1.07389,2.52459c0.28393,0.67505 0.5369,1.36347 0.84159,2.0294c0.3188,0.69676 0.7157,1.35634 1.02773,2.05616c0.32617,0.73154 0.50054,1.53132 0.88512,2.23391c0.39773,0.72662 1.04466,1.29664 1.44452,2.0221c0.45575,0.82687 0.87319,1.69242 1.10702,2.60716c0.18899,0.73934 -0.1074,1.56416 0.1435,2.28485c0.17062,0.4901 0.87483,0.66011 1.05161,1.14803c0.22692,0.62631 0.05847,1.33101 0.08769,1.99651c0,2.21951 0,4.43902 0,6.65854c0,0.12834 0.00126,5.03329 -0.00395,5.09924c-0.06672,0.84452 -0.28018,1.67114 -0.39969,2.50981c-0.10598,0.74369 0.08841,1.58002 -0.27666,2.23656c-0.29318,0.52728 -1.20353,0.47227 -1.51639,0.98812c-0.24651,0.40645 0.24246,0.98925 0.05275,1.42512c-0.25666,0.58971 -0.85358,0.96252 -1.29535,1.42992c-1.15253,1.21938 -2.37342,2.42839 -3.58537,3.58536c-0.46519,0.4441 -0.82712,1.07119 -1.42992,1.29536c-0.6765,0.25159 -1.47132,-0.15822 -2.16491,0.04151c-0.59154,0.17034 -0.94448,0.856 -1.53659,1.02439c-0.6973,0.19831 -1.46564,-0.12025 -2.17462,0.03108c-0.79978,0.17071 -1.48681,0.70024 -2.2749,0.91865c-0.48343,0.13397 -0.9998,0.17123 -1.49953,0.1274c-0.4204,-0.03687 -0.90874,-0.65847 -1.21222,-0.36522c-0.36833,0.35592 0,1.02439 0,1.53659c-0.80683,0.12204 -1.61364,0.24408 -2.42047,0.36612h-2.04878c0,0 -1.09343,0 -1.23497,-1.02266c-1.89622,0.02993 -4.64549,0.43271 -6.33641,-0.09009c-2.23631,-0.69143 -3.94203,-3.8076 -1.86683,-5.76106c1.20774,-1.13689 2.6003,0.3024 3.8379,-0.14079c0.45463,-0.16281 0.57125,-0.85748 1.02439,-1.02439c0.63095,-0.23241 1.3433,-0.06343 2.01494,-0.09515h2.04878c0,0 1.25,0 1.25,1.25zM390.74795,200.23446c0.42138,-0.56659 0.82853,-1.15848 1.09995,-1.81033c0.20656,-0.49607 0.06642,-1.10375 0.31238,-1.58151c0.20571,-0.39959 0.85583,-0.49479 0.97905,-0.927c0.01725,-0.06048 0.03052,-0.12152 0.04042,-0.18302c-0.19225,0.17014 -0.38401,0.34054 -0.56266,0.52087c-0.29292,0.29567 -0.66561,0.52361 -0.89422,0.8714c-0.39697,0.60391 -0.5946,1.32021 -0.9573,1.9453c-0.26148,0.45064 -0.76737,0.77007 -0.90917,1.27141c-0.07374,0.26072 -0.06372,0.53866 -0.03571,0.8192c0.33569,-0.28597 0.66689,-0.57621 0.92726,-0.9263zM404.31673,180.39401c-0.31027,0.46175 -0.62466,0.92292 -0.89888,1.3997c0.0208,0.62384 0.10428,1.26968 -0.14965,1.81339c-0.38576,0.82599 -0.7922,1.65074 -1.21296,2.47337c0.32208,-0.41919 0.67872,-0.818 1.00208,-1.23278c0.31273,-0.40114 0.77429,-0.68782 1.02505,-1.13035c0.094,-0.1659 0.17215,-0.33949 0.24171,-0.51725c0.0059,-0.43863 -0.01087,-0.92773 -0.01162,-1.65978c-0.0004,-0.3821 0.0012,-0.76421 0.00427,-1.1463zM410.66567,176.16762c-0.05932,0.11408 -0.11787,0.22856 -0.17572,0.34338c0.04113,-0.05529 0.08018,-0.11196 0.11677,-0.17027c0.03431,-0.05466 0.05241,-0.11265 0.05895,-0.17311zM413.6314,174.51082c-0.06663,0.25586 -0.11868,0.51757 -0.16773,0.78035c0.05322,-0.08064 0.09586,-0.1662 0.12194,-0.25942c0.04732,-0.16915 0.05569,-0.34378 0.04579,-0.52093zM397.48713,189.17076c0.19569,-0.35946 0.39128,-0.71919 0.5865,-1.07914c-0.03073,-0.0102 -0.06162,-0.02063 -0.09251,-0.031c-0.20294,0.28585 -0.40568,0.57186 -0.6082,0.85801c0.04189,0.08387 0.08238,0.16831 0.11421,0.25213zM415.39801,169.85711c-0.04676,0.00673 -0.09271,0.01747 -0.13767,0.03318c-0.3068,0.10724 -0.39814,0.51488 -0.61887,0.75342c-0.20657,0.22324 -0.43997,0.42115 -0.65827,0.63302v1.01083c0.38611,-0.65997 0.97141,-1.64413 1.41481,-2.43045zM401.37864,188.57955c-0.02186,0.07242 -0.04402,0.14452 -0.06647,0.21628c0.0104,-0.02107 0.01973,-0.04248 0.02787,-0.06424c0.01855,-0.04958 0.03098,-0.10035 0.0386,-0.15204z"/><path d="M506.9771,198.15617c-4.43903,0 -9.90244,0 -14.34146,0c0,0 -1.25,0 -1.25,-1.25c0,-1.25 1.25,-1.25 1.25,-1.25c4.43903,0 8.87804,0 13.31707,0h0.04444c-1.00738,-0.93965 -1.73591,-2.15461 -2.71231,-3.12974c-0.63879,-0.63796 -1.51171,-1.05342 -2.03066,-1.79216c-0.55294,-0.7871 -0.79853,-1.75425 -1.10189,-2.66707c-0.10952,-0.32957 -0.21249,-0.66298 -0.30147,-0.99979c-1.08597,-0.10743 -2.11282,-0.25547 -3.03892,-0.43743c-0.80322,-0.15783 -1.52962,-0.60059 -2.32771,-0.78262c-0.67561,-0.1541 -1.52157,0.20732 -2.06725,-0.2198c-0.62009,-0.48538 -0.64478,-1.43691 -0.96716,-2.15536c0,0 -0.39529,-1.18586 0.79057,-1.58114c1.18586,-0.39529 1.58114,0.79057 1.58114,0.79057c0.07344,1.17777 2.01874,1.2014 3.47886,1.49653c0.69068,0.1396 1.46044,0.25977 2.28185,0.35578c-0.00154,-0.80185 -0.00164,-1.8308 -0.00155,-2.50189c-0.09299,-0.06705 -0.14598,-0.12003 -0.14598,-0.12003l-1.29536,-1.42992c0.09032,-0.37702 0.44408,-0.78417 0.27097,-1.13106c-0.11139,-0.22321 -0.4055,0.33261 -0.6527,0.36611c-0.67674,0.09171 -1.36585,0 -2.04878,0c-3.7561,0 -7.5122,0 -11.26829,0c0,0 -1.25,0 -1.25,-1.25c0,-1.25 1.25,-1.25 1.25,-1.25c2.05734,0 4.11468,0 6.17202,0c-0.14763,-0.18249 -0.25129,-0.43881 -0.25129,-0.79878c0,-1.25 1.25,-1.25 1.25,-1.25c1.41672,0.01802 2.78162,0.55967 4.14046,0.96086c1.14477,0.33799 2.46966,0.46685 3.86503,0.4856c0.01287,-0.33662 0.0299,-0.57631 0.05238,-0.65807c0.13189,-0.47968 0.88711,-0.60721 1.02439,-1.08537c0.20456,-0.71253 -0.17973,-1.48884 -0.0747,-2.22268c0.02972,-0.20762 0.07388,-0.41207 0.12733,-0.61447c-2.53712,0 -5.07213,0 -7.59831,0c0,0 -1.25,0 -1.25,-1.25c0,-1.25 1.25,-1.25 1.25,-1.25c2.80113,0 5.60228,0 8.40341,0c0.39936,-1.33392 0.9931,-3.30111 1.47492,-4.3154c0.35605,-0.74953 0.92202,-1.38628 1.28168,-2.13408c0.66319,-1.37891 0.82982,-2.96317 1.5027,-4.33738c0.40782,-0.83288 0.9209,-1.61841 1.49779,-2.34449c0.50487,-0.63544 1.24886,-1.06025 1.72788,-1.71539c0.45066,-0.61635 0.59981,-1.41419 1.02439,-2.04879c0.28467,-0.42548 0.75404,-0.69745 1.07815,-1.09371c0.31803,-0.38883 0.52869,-0.87013 0.82256,-1.27548c-0.1156,-0.32653 -0.07912,-0.63304 -0.07912,-0.63304l1.30221,-1.61443c0.94621,0 1.89242,0 2.83862,0c0.39535,-0.10714 0.79054,-0.21465 1.16097,-0.38509c0.509,-0.23419 0.92827,-0.6277 1.3924,-0.94156c0,0 1.04006,-0.69338 1.73343,0.34669c0.25199,0.37799 0.27503,0.71019 0.20225,0.97996c0.63061,0 1.26122,0 1.89184,0c0.19745,0 4.69629,-0.0206 4.93179,0.06012c1.42714,0.48918 2.84245,2.15702 3.85663,3.19796c0.46665,0.16839 1.04724,0.15631 1.39997,0.50517c0.66431,0.65702 0.95751,1.60738 1.50299,2.36595c0.35439,0.49284 1.01736,0.79666 1.18976,1.37869c0.55085,1.85974 -0.2538,3.18795 0.1565,4.98815c0.18519,0.8125 0.7477,1.5077 0.92848,2.32119c0.16563,0.74534 -0.06965,1.5432 0.09591,2.28856c0.18255,0.82189 0.7656,1.52187 0.9337,2.34685c0.15615,0.76633 0.01891,1.56407 0.02255,2.34614c0.0099,2.12584 0.00005,4.25249 -0.00006,6.37835c-0.00013,2.50103 0.04617,5.00842 -0.00151,7.50896c-0.01841,0.96519 0.20039,1.97751 -0.10195,2.89431c-0.27691,0.83968 -1.13819,1.3682 -1.55999,2.14526c-0.22577,0.41591 -0.22937,0.91829 -0.35118,1.37557c-0.20859,0.78302 -0.46984,1.55295 -0.64002,2.34521c-0.18484,0.86054 -0.13217,1.77577 -0.42355,2.60631c-0.32668,0.93115 -0.93667,1.73715 -1.405,2.60573c-0.59547,0.43457 -1.39012,0.68213 -1.78643,1.30373c-0.33951,0.53251 0.2654,1.50399 -0.24275,1.87898c-0.75393,0.55638 -1.86525,0.19583 -2.78817,0.35773c-0.73226,0.12846 -1.43159,0.43229 -2.17073,0.5122c-0.8764,0.09474 -1.763,0.00695 -2.6445,0.00838c-1.53658,0.00251 -3.07344,0.02873 -4.60975,0c-0.99312,-0.01857 -2.02229,0.17422 -2.97835,-0.09516c-0.48175,-0.13573 -0.62877,-0.82262 -1.07607,-1.04717c-0.32287,-0.16209 -0.73688,0.06606 -1.08319,-0.03683c-0.90894,-0.27004 -1.8092,-0.60474 -2.63639,-1.06823c-0.7994,-0.44792 -1.49718,-1.05992 -2.20353,-1.64366c-0.19819,-0.16379 -0.36755,-0.3594 -0.5403,-0.55118c-0.22988,0.85685 -1.20168,0.85685 -1.20168,0.85685zM515.98763,162.58569c-0.06022,-0.04254 -0.11439,-0.08612 -0.16299,-0.13047c-0.66562,-0.05599 -1.35098,-0.01501 -2.04246,0.08202c0.30085,0.16166 0.59126,0.47376 0.59126,1.07625c0,1.25 -1.25,1.25 -1.25,1.25c-0.44933,-0.07164 -0.98737,-0.49237 -1.34799,-0.21491c-0.55569,0.42755 -0.32762,2.70833 -0.6462,3.1814c-0.33602,0.49898 -1.20475,0.46677 -1.51347,0.98309c-0.12698,0.21236 -0.13622,0.46343 -0.10073,0.72116c1.18247,0 2.36495,0 3.54742,0h0.06097c0,0 1.20294,0 1.24866,1.18008c0.10935,-0.00495 0.21689,-0.02298 0.32177,-0.06054c0.45463,-0.16281 0.56074,-0.88938 1.02439,-1.02439c0.71723,-0.20886 1.50588,0.10407 2.24603,0.03692c0.01136,-0.23494 0.03748,-0.4682 0.08728,-0.69877c0.16505,-0.76415 0.84969,-1.34776 1.02439,-2.10976c0.16537,-0.72133 -0.02804,-1.47986 -0.03179,-2.21989c-0.00094,-0.18485 -0.00658,-0.37006 -0.01304,-0.55536c-0.56166,-0.37219 -0.98074,-1.024 -1.61393,-1.27044c-0.07424,-0.0289 -0.14891,-0.05594 -0.224,-0.0812c-0.30441,0.147 -0.72126,0.19691 -1.20557,-0.14518zM517.21926,158.91818c4.76867,-0.21327 11.92381,-2.53005 15.50484,1.2215c0.014,0.46914 0.23011,4.96191 -0.05169,5.58531c-0.2583,0.57142 -1.28711,0.51005 -1.53659,1.08537c-0.29372,0.67735 0.26278,1.4907 0.10661,2.21228c-0.16728,0.77292 -0.80113,1.37741 -1.04625,2.12927c-0.2061,0.63217 0.00753,1.37938 -0.29128,1.97338c-0.4781,0.95041 -1.10277,1.89251 -1.96615,2.51415c-1.75413,1.263 -3.63511,0.99734 -5.59581,1.00454c-0.79039,0.0029 -3.51896,0.07197 -3.95705,-0.36612c-0.42719,-0.42719 -0.3825,-3.33272 -0.36874,-4.31234c-0.45528,-0.06542 -0.91404,-0.15067 -1.3422,-0.02645c-0.46378,0.13455 -0.56383,0.87921 -1.02439,1.02439c-0.2717,0.08564 -3.36556,0.11263 -4.06372,0.09515c-0.84834,-0.02124 -1.76774,0.24118 -2.54377,-0.10218c-0.50969,-0.22552 -0.90741,-0.54318 -1.20792,-0.9222c-1.49407,0 -2.98958,0 -4.48516,0c-0.11109,0.32196 -0.20771,0.64723 -0.25852,0.98308c-0.13854,0.91568 0.17876,1.88657 -0.0747,2.77732c-0.0984,0.34583 -0.5151,0.50979 -0.79249,0.75405c2.19748,-0.12013 4.40334,-0.35592 6.22841,-0.35592h1.08537c0,0 1.25,0 1.25,1.25c0,1.25 -1.25,1.25 -1.25,1.25h-1.08537c-2.12271,0 -4.25212,0.0362 -6.38061,0.04958c0.00449,0.05884 0.00752,0.11754 0.00866,0.17603c0.01622,0.83318 0,1.66666 0,2.5c0,1.10541 -0.10339,2.21601 -0.05867,3.31892c3.66,0.18938 7.75181,-0.09957 10.39733,-1.18848l0.23978,-0.09591c0,0 1.1606,-0.46424 1.62484,0.69636c0.46424,1.1606 -0.69636,1.62483 -0.69636,1.62483l-0.23978,0.09591c-2.88516,1.12657 -7.00452,1.50257 -10.83433,1.37265c0.00668,0.02117 0.01337,0.04233 0.02005,0.06348c0.21227,0.67218 0.33979,1.40573 0.75507,1.97531c0.45011,0.61734 1.21394,0.93432 1.75769,1.47102c0.61407,0.60611 1.13895,1.2964 1.70542,1.94722c0.35195,0.40435 0.64488,0.86702 1.04986,1.21825c0.45452,0.39421 1.03466,0.62137 1.5045,0.99717c0.38611,0.30883 0.67306,0.72787 1.05091,1.04675c0.57341,0.48394 1.14532,0.98351 1.79647,1.35634c0.6235,0.357 1.30479,0.6169 1.99546,0.81481c0.50191,0.14382 1.08191,-0.02252 1.55324,0.20208c0.42014,0.20021 0.52728,0.86676 0.97271,1.0016c0.64569,0.19547 1.3472,-0.07961 2.02165,-0.09515c0.70307,-0.01619 1.4065,0 2.10975,0c0.83334,0 1.66667,-0.00144 2.5,0c0.78517,0.00135 1.57515,0.09524 2.3555,0.00838c0.73888,-0.08225 1.42802,-0.47923 2.17073,-0.51219c0.45201,-0.02006 0.95335,0.63694 1.3094,0.35773c0.31964,-0.25066 -0.45734,-0.84929 -0.24275,-1.19419c0.4917,-0.7903 1.41195,-1.21316 2.11792,-1.81974c0.31882,-0.60049 0.75179,-1.15314 0.95647,-1.80148c0.23679,-0.75004 0.18568,-1.56425 0.34898,-2.33364c0.17779,-0.83768 0.44401,-1.65415 0.67258,-2.47942c0.16809,-0.60688 0.22113,-1.26127 0.51737,-1.81696c0.36821,-0.6907 1.17777,-1.11728 1.44001,-1.85475c0.23514,-0.66125 -0.02715,-1.40339 -0.03187,-2.10519c-0.00558,-0.83041 0.0008,-1.66087 0.00101,-2.4913c0.00072,-2.95933 0.00048,-5.91866 0.0005,-8.87799c0,-0.83333 -0.0043,-1.66666 0,-2.49998c0.00322,-0.62449 0.15444,-1.26296 0.02256,-1.87338c-0.17417,-0.80615 -0.74426,-1.49044 -0.92325,-2.29554c-0.16571,-0.74533 0.06971,-1.54322 -0.09592,-2.28857c-0.18078,-0.81349 -0.75169,-1.50683 -0.92847,-2.32119c-0.17872,-0.82331 -0.11693,-1.68196 -0.12342,-2.52442c-0.0053,-0.68879 0.26756,-1.39954 0.08808,-2.06456c-0.10148,-0.37602 -0.63339,-0.47457 -0.85901,-0.79203c-0.42465,-0.59751 -0.55486,-1.3995 -1.06948,-1.92151c-0.27982,-0.28384 -0.76634,-0.21955 -1.1495,-0.32933c-0.16264,-0.15904 -2.63251,-2.72362 -3.3141,-2.94839c-1.31888,-0.43491 -2.77704,0.06012 -4.16577,0.06012c-1.99242,0 -3.98483,0 -5.97725,0c-0.8344,0.24247 -1.62829,0.50145 -2.40206,1.17707c-0.43661,0.38122 -0.6015,0.99507 -0.96528,1.44632c-0.28488,0.35337 -0.7195,0.57695 -0.97062,0.95506c-0.42242,0.63603 -0.5734,1.43267 -1.02439,2.04878c-0.50506,0.68999 -1.26764,1.15715 -1.80765,1.82014c-0.46689,0.57322 -0.87727,1.20072 -1.19614,1.86772c-0.22991,0.48093 -0.4012,0.9859 -0.55497,1.49805c2.78078,-0.2032 5.83554,-1.52453 8.81381,-1.28564zM519.334,161.17799c-0.03814,-0.00081 -0.07624,-0.00171 -0.11433,-0.00269c0.03007,0.0294 0.06012,0.05882 0.09026,0.08808c0.00797,-0.02847 0.016,-0.05693 0.02407,-0.08538zM521.9415,161.1284c-0.0752,0.26268 -0.15806,0.5239 -0.23109,0.78698c0.21218,-0.03023 0.424,-0.05803 0.63253,-0.06409c0.76861,0.08825 1.78968,-0.31156 2.30585,0.26475c2.45653,2.74271 0.96123,3.17552 -0.31478,4.85091c-0.39763,0.52209 -0.64314,1.16393 -1.10719,1.62798c-0.46405,0.46405 -1.11576,0.69693 -1.62798,1.10718c-0.29218,0.23401 -0.71018,0.70686 -1.13947,1.16057c0.02684,0.29558 0.05825,0.59172 0.0604,0.88495c0.00517,0.70324 0.0924,1.4126 0,2.10976c-0.03278,0.2473 -0.54251,0.4763 -0.36612,0.6527c0.17639,0.1764 0.40666,-0.32497 0.6527,-0.36611c0.50518,-0.08448 1.0244,-0.00207 1.53659,0c1.27725,0.00518 2.97512,0.25164 4.15677,-0.54884c0.49907,-0.33808 0.87012,-0.87836 1.09937,-1.43586c0.22249,-0.54107 0.02632,-1.18654 0.2077,-1.74274c0.22829,-0.70002 0.8353,-1.25123 1.00253,-1.96829c0.2112,-0.90562 -0.25658,-1.93165 0.10662,-2.78771c0.24491,-0.57728 1.23621,-0.53491 1.53658,-1.08536c0.23639,-0.4332 -0.13279,-0.98042 -0.14005,-1.47387c-0.01001,-0.68003 0.0589,-1.35891 0.08836,-2.03838c-0.52977,-0.59113 -1.56921,-0.31669 -2.36275,-0.29699c-2.00282,0.04973 -4.06635,0.26044 -6.09657,0.36247zM507.41159,167.63342c0.20839,-0.59419 1.17692,-0.56572 1.5597,-1.06569c0.18576,-0.24264 -0.14408,-0.62746 -0.04273,-0.91574c0.24869,-0.70732 0.41109,-1.51945 0.75122,-2.19024c-0.73032,0.17408 -1.43506,0.317 -2.09592,0.37375l-0.87449,0.0028c-0.0431,0.10225 -0.08838,0.20361 -0.13619,0.30392c-0.36006,0.75546 -0.92889,1.39881 -1.2908,2.15338c-0.33059,0.68927 -0.77166,2.09126 -1.11912,3.2386c0.96938,0 1.93876,0 2.90813,0c0.0065,-0.64719 0.13055,-1.30301 0.3402,-1.9008zM522.40066,165.38198c0.21045,-0.24489 0.6313,-0.28238 0.78642,-0.56557c0.69922,-1.27646 -0.73521,-0.50269 -0.84413,-0.46511c-0.27073,-0.00576 -0.54492,0.00959 -0.81965,0.02822c0.05641,0.74784 0.15386,1.48147 0.09883,2.25908c0.29461,-0.38962 0.45825,-0.88394 0.77853,-1.25662z"/><path d="M544.14173,175.39398c0,-1.25 1.25,-1.25 1.25,-1.25l0.94676,0.1479c1.80947,-2.71421 3.20782,-1.01649 5.93678,-1.65105c1.49309,-0.34719 2.76628,-1.08893 4.1125,-1.66725l-0.31757,-0.62385c-4.70102,0.45747 -9.53859,0.14791 -14.26384,0.14791c0,0 -1.25,0 -1.25,-1.25c0,-1.25 1.25,-1.25 1.25,-1.25c1.53383,0 3.0691,-0.01188 4.60475,-0.02108c0.35885,-0.49112 1.0294,-0.49111 1.0294,-0.49111c3.90651,0 7.813,0 11.71951,0c1.38302,0 2.82331,0.48534 4.14814,0.08836c0.47654,-0.1428 0.61012,-0.87732 1.08537,-1.02439c0.34375,-0.10638 3.31156,-0.08836 4.04698,-0.08836h2.04878v0c0.69035,0 1.25,0.55964 1.25,1.25c0,0.59488 -0.41555,1.09269 -0.9722,1.21901l-2.02341,0.50586l-0.03305,-0.13219c-3.94137,2.04496 -8.01962,3.3371 -12.21894,4.73104c-1.19817,0.39773 -2.40873,0.7694 -3.64203,1.03918c-1.40304,0.30691 -3.04646,-0.80254 -4.30713,-0.11447c-0.54034,0.29492 -0.68293,1.02439 -1.02439,1.53659l-2.1264,0.14791c0,0 -1.25,0 -1.25,-1.25zM560.05373,169.98688c-0.40245,-0.00042 -0.72395,-0.00143 -0.89372,-0.00143c-0.17182,0 -0.34363,0 -0.51545,0l0.07991,0.1054c0,0 0.03116,0.04673 0.07035,0.12699c0.41995,-0.08757 0.83947,-0.15972 1.25891,-0.23096z"/><path d="M554.89782,158.49154c0,-1.25 1.25,-1.25 1.25,-1.25h1.02439c2.89631,0 6.69042,-0.61579 9.50671,0.03344c6.28203,1.44818 8.64574,6.65355 8.64574,12.48485c0,0 0,1.25 -1.25,1.25c-1.25,0 -1.25,-1.25 -1.25,-1.25c0,-1.12839 0.23839,-2.27885 0.01614,-3.38514c-1.50531,-7.49278 -9.81171,-6.63315 -15.66858,-6.63315h-1.02439c0,0 -1.25,0 -1.25,-1.25z"/><path d="M493.37344,153.88178c0,1.25 -1.25,1.25 -1.25,1.25h-2.04878c-0.75712,-0.06807 -1.35762,0.70069 -2.08262,0.92924c-0.36298,0.11442 -3.3101,0.09515 -4.06372,0.09515c0,0 -1.25,0 -1.25,-1.25c0,-1.25 1.25,-1.25 1.25,-1.25c1.03616,0 2.13152,0.44448 3.10701,0.09515c0.45463,-0.16281 0.57125,-0.85747 1.02439,-1.02439c0.63095,-0.23241 1.3433,-0.06344 2.01494,-0.09515h2.04878c0,0 1.25,0 1.25,1.25z"/><path d="M501.56833,167.68691c0.02414,1.24976 -1.22562,1.27391 -1.22562,1.27391l-0.91291,-0.00214c-3.61081,0.71346 -7.21942,0.51457 -10.89172,0.51457c0,0 -1.25,0 -1.25,-1.25c0,-1.25 1.25,-1.25 1.25,-1.25c3.49709,0 6.96785,0.22984 10.40142,-0.46602l1.35492,-0.04595c0,0 1.24977,-0.02414 1.27391,1.22563z"/><path d="M520.00758,205.10129c0,1.25 -1.25,1.25 -1.25,1.25h-1.02439c-3.08149,0 -8.35406,1.05371 -11.23445,-0.09515c-2.20728,-0.88039 -5.30935,-4.25807 -6.66799,-6.039c0,0 -0.75,-1 0.25,-1.75c1,-0.75 1.75,0.25 1.75,0.25c1.09641,1.49243 3.89063,4.53171 5.62469,5.2293c0.96128,0.38672 2.07086,-0.09515 3.10702,-0.09515c2.39025,0 4.78048,0 7.17073,0h1.02439c0,0 1.25,0 1.25,1.25z"/><path d="M180.19663,175.68056c1.25,0 1.25,1.25 1.25,1.25l-0.36611,0.14051c0.33565,0.33651 0.68227,0.64557 1.0283,0.94439c0.13295,-0.33798 0.50388,-0.95449 1.40613,-0.77404c1.22573,0.24515 0.98058,1.47087 0.98058,1.47087c-0.09994,0.43394 -0.14742,0.88801 -0.21357,1.33491c0.51182,0.60535 0.93949,1.30047 1.21688,2.18384c0.05802,0.18475 0.04823,4.79171 0.04536,4.94342c-0.01595,0.84283 0.23443,1.75126 -0.09516,2.52713c-1.16535,2.74334 -5.86067,2.43213 -7.34011,0.17881c-0.50872,-0.77483 -0.31121,-1.89395 -0.04046,-2.78043c0.13517,-0.44256 0.95141,-0.37539 1.13415,-0.80052c0.66631,-1.55006 0.11642,-3.522 0.99388,-4.96309c0.24154,-0.39669 0.79004,-0.5091 1.18799,-0.76012c-0.69977,-0.60001 -1.47277,-1.13985 -2.07174,-1.73741l-0.36612,-1.90828c0,0 0,-1.25 1.25,-1.25zM182.85067,182.29393c-0.23899,0.12328 -0.46273,0.26147 -0.60512,0.47472c-0.48809,0.73099 -0.73377,4.41825 -0.89943,4.81745c-0.18923,0.456 -1.53111,0.72136 -1.11056,0.97998c0.62869,0.38662 1.8135,0.65696 2.55589,0.5267c0.63527,-0.11146 0.26782,-1.27353 0.25275,-1.91832c-0.03331,-1.42505 0.43634,-2.90532 0.04536,-4.27609c-0.0605,-0.21211 -0.14132,-0.41302 -0.23888,-0.60444z"/><path d="M190.44054,223.76592c-0.12006,0 -0.22859,-0.01153 -0.3267,-0.03238c-0.15459,0.08481 -0.30328,0.1762 -0.44063,0.27983c-0.43374,0.32726 -0.78518,0.75125 -1.17778,1.12688c-0.83731,0.2217 -1.65672,0.52779 -2.51193,0.66508c-0.55607,0.08927 -1.12636,0.00812 -1.68956,0.00937c-0.71936,0.00159 -1.43876,0.00708 -2.15807,-0.00086c-0.92732,-0.01023 -1.87859,0.15749 -2.7816,-0.05367c-0.88629,-0.20725 -1.63375,-0.80402 -2.46566,-1.17333c-0.83125,-0.36902 -1.76865,-0.53151 -2.5221,-1.04089c-0.53183,-0.35956 -2.19755,-2.34553 -3.02046,-3.40749c-0.10895,0.02695 -0.23137,0.04208 -0.36892,0.04208c-1.25,0 -1.25,-1.25 -1.25,-1.25c0,-0.68876 0,-1.40928 0,-2.15376c-0.1286,-0.30342 -0.25938,-0.60587 -0.39616,-0.90567c-0.35163,-0.77067 -0.90661,-1.46447 -1.10698,-2.28753c-0.02888,-0.11863 -0.03933,-0.54053 -0.04078,-1.08834c-1.08691,-0.03814 -2.13829,0.07295 -3.17123,0.81682c0,0 -1.04006,0.69338 -1.73344,-0.34669c-0.69338,-1.04006 0.34669,-1.73344 0.34669,-1.73344c1.72717,-1.09183 3.11503,-0.98288 4.57487,-0.89411c0.00839,-0.74368 0.01368,-1.3615 -0.00208,-1.51479c-0.07112,-0.69162 -0.30786,-1.35604 -0.45976,-2.03452c-0.28939,-1.29254 -0.5845,-2.58429 -0.91867,-3.86599c-0.22374,-0.85815 -0.55361,-1.69591 -0.66747,-2.57541c-0.11386,-0.87949 -0.00857,-1.77365 -0.01035,-2.66048c-0.00501,-2.49997 0,-5.00002 0,-7.5c0,-3.77642 0,-7.55284 0,-11.32926c0,-0.32561 -0.0081,-5.07906 0.0268,-5.25747c0.04049,-0.20696 1.31226,-3.03033 1.76587,-4.05981c-0.15017,-0.18286 -0.25609,-0.4408 -0.25609,-0.80467c0,-0.77453 0.47991,-1.06915 0.84501,-1.18121c0.08938,-0.34072 0.19556,-0.67471 0.35204,-0.98928c0.19078,-0.38353 0.78979,-0.47031 0.94688,-0.86883c0.10034,-0.25455 0.03164,-0.54636 -0.02119,-0.83263c-2.31937,0 -4.63874,0 -6.95811,0c-1.53659,0 -3.07413,0.05443 -4.60975,0c-0.92382,-0.03275 -2.03765,0.38137 -2.76692,-0.18669c-3.22173,-2.50952 -1.28782,-3.63089 0.09618,-5.81064c0.4551,-0.71676 0.82252,-1.49008 1.31776,-2.17971c0.41529,-0.57831 0.90852,-1.09833 1.40366,-1.60994c0.23558,-0.24341 0.70086,-0.31987 0.78227,-0.64869c0.19895,-0.80349 -0.27182,-1.69908 -0.00679,-2.48327c0.22377,-0.66212 0.84621,-1.12731 1.37966,-1.57887c0.59803,-0.50622 1.22838,-1.04681 1.98072,-1.26562c1.19805,-0.34846 4.32706,0.10268 5.36232,0.54095c0.73735,0.31215 1.23058,1.04139 1.9324,1.42684c0.383,0.21035 0.92716,0.60404 1.26839,0.3311c0.30827,-0.24658 -0.20971,-0.76747 -0.22997,-1.1617c-0.04656,-0.90584 -0.1631,-1.83478 0.03039,-2.72093c0.16677,-0.76377 0.84969,-1.34776 1.02439,-2.10976c0.34011,-1.48353 -0.31324,-3.07469 -0.00923,-4.56602c0.16956,-0.83177 0.62553,-1.57833 0.9383,-2.36749c0.05761,-0.91995 0.21147,-3.72494 0.42965,-3.91416c0.85711,-0.74334 2.25046,-0.31569 3.38388,-0.36612c0.50853,-0.02263 1.07311,0.39178 1.51993,0.14791c0.54034,-0.29492 0.48152,-1.24636 1.02439,-1.53659c0.62659,-0.33499 1.41634,-0.12275 2.12641,-0.14791c0.6825,-0.02418 1.36596,-0.01204 2.04878,0c2.00609,0.03538 3.71151,-0.52967 4.73318,1.7794c0.34337,0.77603 0.08094,1.69543 0.10218,2.54377c0.01133,0.45248 -0.0118,3.76966 -0.02256,3.82175c-0.17168,0.83134 -0.69793,1.55335 -0.9383,2.36749c-0.0973,0.32954 -0.05722,0.68528 -0.06442,1.02881c-0.01398,0.66701 0.00072,1.33431 0.00089,2.00146c0.00013,0.5122 0.06878,1.02903 0,1.53659c-0.05466,0.40334 -0.65393,0.87708 -0.36612,1.1649c0.28781,0.28781 0.75988,-0.32566 1.1649,-0.36612c0.82921,-0.08283 1.66666,0 2.5,0c1.53659,0 3.07317,0 4.60976,0c0.69514,0 4.78055,-0.02097 5.07138,0.08836c3.55493,1.33645 1.1539,7.5334 -0.79794,10.32403c0.06867,0.15287 0.11071,0.34007 0.11071,0.56932c0,1.25 -1.25,1.25 -1.25,1.25c-0.14696,0 -0.29393,0.00002 -0.4409,0.00007c-0.18399,0.17425 -0.38374,0.32354 -0.61733,0.41698c-0.35996,0.14398 -0.85692,-0.5451 -1.13106,-0.27097c-0.27414,0.27414 0.18064,0.75404 0.27096,1.13106l-1.29536,1.42992c0,0 -0.88388,0.88388 -1.76776,0c-0.88388,-0.88388 0,-1.76776 0,-1.76776l0.75342,-0.61886c0.0143,-0.10249 0.01928,-0.20962 0.01936,-0.31919c-0.30444,-0.00024 -0.60887,-0.00063 -0.9133,-0.00124c-0.78384,-0.00158 -1.57205,-0.09173 -2.35149,-0.00885c-1.53766,0.1635 -2.65121,0.80814 -4.06372,1.40478c-0.50736,0.2143 -0.98565,0.53475 -1.52857,0.62733c-0.75584,0.12888 -1.53336,0.02659 -2.30011,0.02553c-0.74004,-0.00102 -1.49856,-0.19716 -2.21989,-0.03179c-0.1059,0.02427 -0.20852,0.05767 -0.30877,0.09772c0.24874,0.04952 0.49596,0.10525 0.69857,0.23099c0.98573,0.61179 1.89363,1.35861 2.71398,2.17895c3.55643,3.55643 7.88124,7.19828 8.15739,12.49862c1.26838,1.71601 1.9289,2.27667 2.42885,4.53289c0.16383,0.73932 -0.04537,1.51889 0.03895,2.27143c0.09303,0.83024 0.39502,1.62785 0.49094,2.45776c0.07052,0.61017 0.00522,1.22845 0.00608,1.84268c0.00116,0.83334 0,1.66666 0,2.5c0,2.4454 0,4.89082 0,7.33623c0.07521,-0.00032 0.15042,-0.00061 0.22561,-0.00086h0.06098c0,0 1.25,0 1.25,1.25c0,1.25 -1.25,1.25 -1.25,1.25h-0.06098c-0.07519,-0.00028 -0.15039,-0.00053 -0.22561,-0.00072c0,1.33154 0,2.66308 0,3.99462c0,0.22519 0.00395,2.27093 -0.00427,3.75c0.07663,0 0.15326,0 0.22988,0h2.10976c0,0 1.25,0 1.25,1.25c0,1.25 -1.25,1.25 -1.25,1.25c-0.89069,0 -1.83787,0 -2.82306,0c-0.23113,0.3654 -0.47603,0.72612 -0.56849,1.13987c-0.17271,0.77286 0.11209,1.58887 0.02204,2.37566c-0.08437,0.73722 -0.35868,1.44008 -0.54106,2.15935c-0.13491,0.53208 -0.2886,1.05977 -0.42467,1.59155c0.36798,0.07994 0.97547,0.34386 0.97547,1.21528c0,1.25 -1.25,1.25 -1.25,1.25h-0.03664c-0.03849,0.43761 -0.12382,0.85663 -0.35779,1.21948c-0.1267,0.1965 -0.28887,0.35691 -0.47283,0.49544c-0.11183,0.36523 -0.40626,0.84605 -1.18152,0.84605zM185.69353,217.28242c-0.5474,-1.7705 -0.10393,-3.83125 0.10974,-5.80918c-1.54626,0 -3.06661,0 -4.50294,0c0.06396,1.00109 0.1463,1.97677 0.1463,2.84756c0,0.76513 -0.16971,1.55376 -0.24264,2.32654c0.68411,-0.13732 1.35284,-0.26522 2.54416,0.10398c0.46126,0.14295 0.5834,0.82762 1.02439,1.02439c0.41726,0.18617 0.87291,0.17748 1.34031,0.11579c-0.1914,-0.17264 -0.34471,-0.36775 -0.41932,-0.60907zM185.65881,208.0245c-0.09785,-0.32488 -0.34871,-0.57834 -0.58192,-0.83968c-1.19866,-0.04077 -2.39847,-0.0835 -3.59925,-0.12399c-0.14666,0.6031 -0.21681,1.24861 -0.24097,1.91242c1.53831,0 3.07662,0 4.61493,0c-0.03824,-0.32459 -0.10026,-0.64153 -0.19279,-0.94875zM184.40889,203.07114c-0.26219,-0.58878 -0.72185,-1.08361 -1.04546,-1.63907c-3.70828,0.1105 -7.4279,0.2346 -11.1363,0.28562c0,0.88199 0,1.76398 0,2.64597c2.53361,0.00371 5.06895,0.06922 7.60125,0.15243c0.10653,-0.20965 0.22373,-0.41652 0.35259,-0.62036c0,0 0.69337,-1.04007 1.73344,-0.34669c0.48666,0.32444 0.5938,0.72479 0.57002,1.05898c0.70722,0.02522 1.41409,0.0506 2.12047,0.07521c-0.01642,-0.65884 -0.06319,-1.31383 -0.19601,-1.61208zM182.15177,196.95299c0,0 -0.55902,-1.11804 0.55902,-1.67705c1.11803,-0.55901 1.67705,0.55902 1.67705,0.55902c0.5271,1.08929 0.87608,2.07603 1.20103,3.05998c2.23098,-0.06035 4.4571,-0.11314 6.67485,-0.14246c0,-2.45283 0,-4.90568 0,-7.35851c0,-0.83334 -0.00124,-1.66667 0,-2.5c0.00079,-0.53212 0.0693,-1.06799 0.00608,-1.59634c-0.09876,-0.82534 -0.39866,-1.61891 -0.48965,-2.44514c-0.07462,-0.67763 0.12918,-1.37676 -0.00486,-2.04518c-0.32522,-1.62183 -1.42891,-2.87484 -2.33172,-4.18c-0.37621,-5.00416 -4.18191,-8.18104 -7.56984,-11.56897c-1.15425,-1.15425 -3.6524,-2.04987 -4.69414,-3.19014c-0.19019,-0.01215 -0.38025,-0.02559 -0.56831,-0.02911c-0.52232,-0.00977 -1.07244,-0.26994 -1.56472,-0.09717c-0.02749,0.01223 -0.05507,0.02426 -0.08272,0.03614c-0.39254,0.20875 -0.52095,0.8332 -0.94738,0.99027c-0.14942,0.05504 -0.86634,0.08028 -1.65928,0.09119c-0.10769,0.07707 -0.19537,0.17016 -0.24013,0.29127c-0.1736,0.46964 0.203,1.03798 0.01493,1.50201c-0.20213,0.49875 -0.86087,0.69879 -1.1019,1.17995c-0.025,0.0499 -0.04813,0.1005 -0.06963,0.1517c0.4974,0.5697 0.82605,1.36756 1.51943,1.64491c0.60689,0.24275 1.47992,-0.19123 1.94212,0.27097c0.4622,0.4622 0.01056,1.34258 0.27096,1.94211c0.1039,0.23922 0.3602,0.36947 0.58914,0.51993c0.15224,-0.13484 0.30533,-0.26902 0.4453,-0.41326c0,0 0.88388,-0.88388 1.76776,0c0.88388,0.88388 0,1.76776 0,1.76776c-0.28824,0.27621 -0.66739,0.48158 -0.86472,0.82862c-0.13151,0.23128 -0.22983,0.47854 -0.31671,0.7313c0.06029,0.83086 0.0076,1.67443 0.01095,2.67815c0,3.07289 0.02124,6.1467 0,9.21951c-0.01275,1.84358 0.29729,3.83563 -1.61722,5.16087c-0.76008,0.52613 -1.8426,0.19904 -2.76692,0.18669c-1.09441,-0.01462 -2.39911,0.39212 -3.27262,-0.26737c-0.0085,-0.00642 -0.01693,-0.01296 -0.0253,-0.01963c0.00125,1.81722 0.00302,3.63444 -0.00087,5.45164c-0.00114,0.53406 -0.05253,1.07115 -0.05265,1.60504c0.19271,-0.05016 0.33923,-0.05016 0.33923,-0.05016c0.33999,0 0.68006,-0.00074 1.02022,-0.00216c0.17284,-0.26982 0.48059,-0.51003 1.02856,-0.51003c0.53689,0 0.84318,0.23059 1.01791,0.4937c3.57541,-0.04131 7.15664,-0.14554 10.72932,-0.24776c-0.11263,-0.70359 -0.24713,-1.39767 -0.57258,-2.02229zM186.75198,202.1994c0.32669,0.78947 0.15417,1.69127 0.15384,2.55999c1.79032,0.05522 3.57686,0.09861 5.35789,0.11441c0,-1.21225 0,-2.42449 0,-3.63674c-1.94156,0.0173 -3.89135,0.05783 -5.84602,0.10879c0.10327,0.27833 0.21374,0.56222 0.33429,0.85355zM188.05154,207.30004c0.14738,0.53967 0.21247,1.10012 0.22599,1.6732c1.35832,0 2.71663,0 4.07495,0c-0.02456,-0.41595 -0.08597,-0.83588 -0.08876,-1.25c-0.00079,-0.11681 -0.00136,-0.23363 -0.00175,-0.35044c-1.4033,-0.01909 -2.80884,-0.05244 -4.21625,-0.09326c0.00202,0.0068 0.00395,0.01363 0.00583,0.02049zM188.01681,216.35918c0.23389,0.94622 1.76915,1.15728 2.042,2.09302c0.02333,0.08001 0.04275,0.15775 0.05867,0.23322c0.02517,0.00517 0.05048,0.00955 0.07595,0.01309c0.1522,-0.73108 0.38675,-1.44479 0.57274,-2.16863c0.15883,-0.61811 0.41137,-1.21849 0.4829,-1.85266c0.09805,-0.8693 -0.16677,-1.77015 0.02204,-2.62434c0.04503,-0.2037 0.12652,-0.39465 0.22514,-0.57964c-1.11201,0 -2.24821,0 -3.38594,0c-0.20192,1.68249 -0.46741,3.37331 -0.0935,4.88594zM169.07755,201.74148c0.05641,0.18085 0.11107,0.36204 0.15962,0.54446c0.17371,0.65279 0.33535,1.30875 0.48996,1.96641c0,-0.86123 0,-1.70215 0,-2.51233c-0.21659,0.00081 -0.43311,0.00129 -0.64957,0.00145zM172.56428,209.0616c1.54307,-0.47752 4.45006,-0.08836 6.09577,-0.08836c0.05747,0 0.11494,0 0.17241,0c0.02301,-0.67445 0.0805,-1.33999 0.19555,-1.99059c-2.26461,-0.06696 -4.53207,-0.11594 -6.80088,-0.11902c0,0.81251 0,1.62502 0,2.43753c0.09535,-0.10913 0.20254,-0.19791 0.33716,-0.23957zM187.40121,220.08541c-1.12515,-0.40293 -2.4639,0.41309 -3.58536,0c-0.45314,-0.16691 -0.56859,-0.86491 -1.02439,-1.02439c-0.327,-0.11442 -0.66535,-0.15267 -1.01026,-0.14873c0.2394,0.16168 0.50088,0.30967 0.59468,0.5643c0.09379,0.25462 0.12221,0.5225 0.12483,0.79561c0.3656,0.07487 0.99471,0.33255 0.99471,1.21933c0,1.25 -1.25,1.25 -1.25,1.25l-2.27439,-1.25c0.06807,-0.75712 -0.70422,-1.35652 -0.92924,-2.08262c-0.01173,-0.03784 -0.02209,-0.10889 -0.03125,-0.20703c-0.21527,-0.00548 -0.42821,-0.02915 -0.63768,-0.07915c-1.49075,-0.35586 -2.36286,-2.03065 -3.77653,-2.62269c-0.62992,-0.26381 -1.40878,0.23832 -2.04878,0c-0.10006,-0.03726 -0.19317,-0.08595 -0.28107,-0.14322c0.11014,0.26488 0.21995,0.5299 0.33218,0.79384c0.16078,0.37813 0.24984,0.79379 0.47511,1.13743c0.41793,0.63753 0.9441,1.19753 1.43685,1.77917c0.41058,0.48465 0.7418,1.06922 1.27224,1.41863c0.63243,0.41658 1.42817,0.50868 2.12028,0.81607c0.69146,0.3071 1.28919,0.84951 2.02514,1.02501c0.71926,0.17152 1.47881,-0.01103 2.21823,-0.0131c0.71597,-0.00201 1.43196,-0.00124 2.14793,0.00083c0.46121,0.00133 0.92557,0.06335 1.38361,0.00937c0.53822,-0.06343 1.05709,-0.23954 1.58563,-0.35931c0.23157,-0.2451 0.42713,-0.53203 0.67285,-0.76071c-0.3134,-0.48956 -0.19367,-1.13851 -0.1378,-1.77656c-0.10919,-0.15077 -0.23057,-0.2823 -0.39753,-0.34208zM172.8854,213.43692c0.58649,0.71401 1.82098,0.38339 2.66764,0.75342c1.287,0.5625 2.01772,2.21399 3.39281,2.49898c-0.00605,-1.09814 0.00078,-2.15462 0.00078,-2.36852c0,-0.94153 -0.04916,-1.89604 -0.08625,-2.84756c-0.06709,0 -0.13387,0 -0.20034,0c-1.14675,0 -4.07466,-0.47287 -5.17252,-0.08836c-0.46952,0.16445 -0.60568,0.8925 -1.08536,1.02439c-0.05848,0.01608 -0.11683,0.03109 -0.17504,0.04511c0,0.20694 0,0.41387 0,0.62081c0.38942,0.09287 0.65828,0.36173 0.65828,0.36173zM169.84489,180.49845c0.31186,-0.65744 0.47089,-1.39917 0.89267,-1.99212c0.52067,-0.73196 1.26922,-1.2716 1.89042,-1.92042c0.33132,-0.34606 0.73233,-0.64578 0.96661,-1.06368c0.07323,-0.13063 0.13668,-0.26601 0.19394,-0.40439c-0.05537,-0.43847 -0.15214,-0.84386 -0.31588,-1.16047c-0.24347,-0.47078 -0.91097,-0.65912 -1.0894,-1.1582c-0.13051,-0.36506 0.5451,-0.85692 0.27096,-1.13106c-0.27414,-0.27414 -0.7711,0.41495 -1.13106,0.27096c-0.15353,-0.06141 -0.77057,-0.64687 -1.35455,-1.22113c-0.24175,0.56437 -0.51599,1.11584 -0.76653,1.67649c-0.2573,0.57577 -0.6683,1.10108 -0.78712,1.72043c-0.14085,0.73417 0.02258,1.49499 0.0268,2.24254c0.00471,0.83332 0,1.66666 0,2.5c0,1.35379 0,2.70759 0,4.06139c0.37088,-0.78573 0.7846,-1.538 1.20314,-2.42033zM173.82468,178.80791c-0.32854,0.28108 -0.66789,0.61409 -1.02158,1.10681c-0.34669,0.48296 -0.44289,1.10408 -0.69375,1.64308c-0.6517,1.40025 -1.42846,2.62664 -1.86748,4.12297c-0.09673,0.32971 -0.05696,0.68529 -0.06442,1.02882c-0.01667,0.76789 -0.01561,1.53616 -0.00796,2.30418c0.00424,0.42543 -0.32608,1.06513 0.04366,1.27562c0.50635,0.28826 1.14492,-0.25259 1.72738,-0.26737c0.48802,-0.01238 1.0278,0.42726 1.45259,0.18669c0.393,-0.22257 0.4014,-0.82551 0.465,-1.27266c0.0827,-0.58145 -0.02883,-1.1743 -0.03344,-1.76159c-0.00654,-0.83331 0,-1.66666 0,-2.5c0,-1.95551 0,-3.91104 0,-5.86655zM196.86864,158.26549c0.38387,-0.54737 0.48847,-1.28316 0.64532,-1.833c0.06806,-0.23862 2.92584,-5.3427 1.62349,-5.48663c-1.37465,-0.15192 -2.76511,0.08836 -4.14813,0.08836c-1.53659,0 -3.07317,0 -4.60976,0c-0.83334,0 -1.66855,0.05604 -2.5,0c-0.98291,-0.06624 -2.23606,0.33048 -2.93266,-0.36612c-0.42911,-0.42911 -0.36635,-3.51342 -0.36612,-4.46925c0.00011,-0.47344 -0.05754,-2.92509 0.1283,-3.59564c0.21841,-0.78809 0.74351,-1.47607 0.91865,-2.2749c0.12939,-0.59016 -0.01848,-1.20823 -0.02255,-1.81239c-0.00345,-0.51219 -0.01692,-1.02467 0,-1.53659c0.01716,-0.51877 0.18187,-1.0409 0.10218,-1.55379c-0.02743,-0.17655 -0.22158,-0.33812 -0.39917,-0.35774c-0.67598,-0.0747 -1.35844,0.07366 -2.03838,0.08836c-0.68276,0.01476 -1.36669,0.03368 -2.04878,0c-0.31903,-0.01575 -0.68564,-0.33187 -0.94676,-0.14791c-0.50324,0.35453 -0.46352,1.28288 -1.02439,1.53659c-0.82111,0.37142 -1.79952,0.19342 -2.69958,0.14791c-0.55165,-0.0279 -1.15859,-0.67558 -1.61612,-0.36612c-0.34956,0.23644 0.32835,0.79181 0.36522,1.21222c0.04382,0.49973 -0.08493,0.99969 -0.1274,1.49953c-0.30622,0.7583 -0.74597,1.47554 -0.91865,2.2749c-0.13186,0.61043 0.02379,1.24887 0.02255,1.87337c-0.00184,0.92677 0.16388,1.87424 -0.03179,2.78011c-0.16505,0.76414 -0.85171,1.3473 -1.02439,2.10975c-0.25007,1.10414 0.5725,4.37996 -0.5876,5.20124c-2.94857,2.08743 -3.85841,-0.44729 -5.84975,-1.34536c-0.3637,-0.16403 -3.01824,-0.61133 -3.63814,-0.43963c-0.43179,0.1196 -0.73925,0.50746 -1.09245,0.78315c-0.23473,0.18322 -0.60585,0.30088 -0.66912,0.59185c-0.17825,0.81976 0.25257,1.71892 -0.00679,2.51674c-0.19456,0.59849 -0.84758,0.93049 -1.26651,1.4001c-0.40664,0.45584 -0.85614,0.87836 -1.21015,1.37618c-0.47385,0.66634 -0.78288,1.44101 -1.26354,2.10245c-0.37524,0.51636 -1.0681,0.81582 -1.29164,1.4137c-0.11397,0.30482 0.13075,0.76207 0.4366,0.87321c0.45882,0.16673 0.96496,-0.16366 1.45259,-0.18669c1.53487,-0.0725 3.07317,0 4.60975,0c2.36992,0 4.73984,0 7.10976,0c0.00856,0 0.01711,-0.00001 0.02567,-0.00001c-0.14762,-0.18249 -0.25128,-0.4388 -0.25128,-0.79877c0,-1.25 1.25,-1.25 1.25,-1.25h1.08536c1.0776,0 4.0425,-0.36182 5.82972,-0.05589c0.28098,-0.27454 0.42815,-0.75559 0.80168,-0.87335c0.80398,-0.25343 1.68475,-0.06344 2.52713,-0.09515c0,0 1.10542,0 1.23721,1.03953c0.70382,0.06292 1.40785,0.11959 2.09683,0.01039c0.37851,-0.05999 0.69504,-0.3233 1.04644,-0.47625c1.7036,-0.74152 2.88664,-1.37449 4.75152,-1.58921c0.87705,-0.10099 1.76566,-0.00719 2.6485,-0.00885c1.28903,-0.00243 2.57809,-0.00119 3.86713,-0.00044z"/></g></g></svg>