<svg version="1.1" xmlns="http://www.w3.org/2000/svg" xmlns:xlink="http://www.w3.org/1999/xlink" width="728.5" height="448.39361" viewBox="0,0,728.5,448.39361"><defs><radialGradient cx="548.57291" cy="305.26108" r="563.43296" gradientUnits="userSpaceOnUse" id="color-1"><stop offset="0" stop-color="#00b8ff" stop-opacity="0.59608"/><stop offset="1" stop-color="#00e8ff" stop-opacity="0.30588"/></radialGradient></defs><g transform="translate(41.25,45.53125)"><g stroke-miterlimit="10"><path d="M-40,391.71875v-436h726v436z" fill="#000000" stroke="#000000" stroke-width="2.5"/><path d="M-14.86003,-14.93729h666.69138c-0.07233,2.7281 -0.82812,4.3781 0.11555,8.1311c0.47001,1.86928 2.12157,3.30124 2.58596,5.17192c1.08813,4.38329 -0.26751,11.10525 -0.26751,15.80419c0,11.63682 0,23.27363 0,34.91044c0,28.87655 0,57.75309 0,86.62963c0,6.5309 -1.07697,15.61145 2.92893,21.29385c0.16616,0.2357 0.43282,0.42792 0.75098,0.57056c0.1134,0.52754 0.19903,1.02096 0.19903,1.40923c0,3.87894 0,7.75788 0,11.63682c0,12.4988 0,24.99761 0,37.49641c0,22.41164 0,44.82329 0,67.23494c0.1515,3.75903 1.56824,7.37575 2.76639,10.94193c0.77044,2.29314 -0.18044,6.8395 -0.18044,9.74575c0,7.75788 0,15.51575 0,23.27363c0,4.74093 0,9.48185 0,14.22278c0,0.86199 -0.23897,1.75776 0,2.58596c0.07051,0.24436 0.90589,-0.15706 0.76121,0.0521c-0.69348,1.00257 -2.16097,1.4434 -2.58596,2.58596c-1.29482,3.48111 -0.76121,9.08488 -0.76121,12.87769c0,3.87894 0,7.75788 0,11.63682c0,1.72397 0,3.44795 0,5.17192c0,0.0115 -0.00015,0.02318 -0.00045,0.03504c-1.39539,2.77932 -1.85939,5.98063 -2.58551,9.01581c-0.20056,0.83833 -0.15982,1.73892 0,2.58596c0.03278,0.17375 0.52057,-0.46319 0.42908,-0.31188c-0.80407,1.32977 -2.10963,2.39977 -2.58596,3.87894c-1.2854,3.99162 -0.42908,10.31249 -0.42908,14.53466c0,0.80523 -0.31557,2.19119 -0.50452,3.34414c-0.09327,0.26337 -0.18793,0.52657 -0.28284,0.78973c-0.31347,0.05432 -0.60269,0.08891 -0.84945,0.08891c-3.01695,0 -6.03391,0 -9.05086,0c-2.25288,0 -4.56681,0.81031 -6.75332,0.26751c-1.87068,-0.46439 -3.31768,-2.05977 -5.17192,-2.58596c-1.3283,-0.37694 -10.79691,-0.27867 -11.34839,-0.26751c-2.25242,0.04559 -4.54186,0.69745 -6.75333,0.26751c-1.89203,-0.36784 -3.28364,-2.19928 -5.17192,-2.58596c-4.77736,-0.9783 -9.84294,0.84657 -14.62923,-0.08708c-2.27804,-0.44437 -4.16584,-2.26784 -6.4649,-2.58596c-6.84122,-0.94662 -15.66461,-0.37527 -22.86717,0.08708c-6.46142,-3.23071 -11.99459,-2.85347 -19.10627,-2.85347c-12.9298,0 -25.85959,0 -38.78938,0c-4.74093,0 -9.48185,0 -14.22278,0c-0.86199,0 -1.75443,-0.22711 -2.58596,0c-0.6783,0.18526 -1.14931,1.55473 -1.74632,1.18325c-1.3194,-0.82097 -1.20265,-3.17093 -2.58596,-3.87894c-5.55961,-2.84554 -21.49086,-1.18325 -27.99221,-1.18325c-23.27363,0 -46.54726,0 -69.8209,0c-11.64625,0 -24.51893,-1.52314 -36.00162,0.05971c-5.25672,0.72462 -10.41171,2.60388 -15.71757,2.52625c-2.58121,0 -21.09861,-0.01415 -21.77884,0.05971c-3.95034,0.42895 -7.70636,2.00224 -11.63682,2.58596c-4.32976,0.64301 -8.75436,-0.05971 -13.13161,-0.05971c-11.63682,0 -23.27363,0 -34.91044,0c-6.08153,0 -13.5171,-0.85109 -19.48873,0.09666c-3.09889,0.49182 -5.97057,1.98859 -9.05086,2.58596c-4.39103,0.85158 -9.12409,-0.85609 -13.41208,0.41651c-1.81578,0.53889 -3.09199,2.14338 -4.55486,3.38855c-0.00202,-0.01311 -0.01471,-0.0212 -0.04074,-0.02277c-5.16246,-0.31261 -10.34383,0 -15.51575,0c-40.51336,0 -81.02672,0 -121.54008,0c-28.11826,0 -56.23651,0 -84.35477,0z" fill="#000000" stroke="url(#color-1)" stroke-width="0"/><path d="M655.33119,274.03993c0,-2.22219 1.11356,-4.1843 2.81309,-5.35875c0,2.22354 0,4.44707 0,6.67061c0.06087,1.51027 0.32597,2.99756 0.69907,4.46784c-2.08677,-1.08427 -3.51217,-3.26552 -3.51217,-5.77969z" fill="#ffffff" stroke="none" stroke-width="0.5"/><path d="M619.02752,356.8123c0,-3.59492 2.91426,-6.50918 6.50918,-6.50918c3.59492,0 6.50918,2.91425 6.50918,6.50918c0,3.59492 -2.91425,6.50917 -6.50918,6.50917c-3.59492,0 -6.50918,-2.91425 -6.50918,-6.50917z" fill="#ffffff" stroke="none" stroke-width="0.5"/><path d="M658.14429,208.11685c0,22.41164 0,44.82329 0,67.23494c0.1515,3.75903 1.56824,7.37575 2.76639,10.94193c0.77044,2.29314 -0.18044,6.8395 -0.18044,9.74575c0,7.75788 0,15.51575 0,23.27363c0,4.74093 0,9.48185 0,14.22278c0,0.86199 -0.23897,1.75776 0,2.58596c0.07051,0.24436 0.90589,-0.15706 0.76121,0.0521c-0.69348,1.00257 -2.16097,1.4434 -2.58596,2.58596c-1.29482,3.48111 -0.76121,9.08488 -0.76121,12.87769c0,3.87894 0,7.75788 0,11.63682c0,1.72397 0,3.44795 0,5.17192c0,0.0115 -0.00015,0.02318 -0.00045,0.03504c-1.39539,2.77932 -1.85939,5.98063 -2.58551,9.01581c-0.20056,0.83833 -0.15982,1.73892 0,2.58596c0.03278,0.17375 0.52057,-0.46319 0.42908,-0.31188c-0.80407,1.32977 -2.10963,2.39977 -2.58596,3.87894c-1.2854,3.99162 -0.42908,10.31249 -0.42908,14.53466c0,0.80523 -0.31557,2.19119 -0.50452,3.34414c-0.09327,0.26337 -0.18793,0.52657 -0.28284,0.78973c-0.31347,0.05432 -0.60269,0.08891 -0.84945,0.08891c-3.01695,0 -6.03391,0 -9.05086,0c-2.25288,0 -4.56681,0.81031 -6.75332,0.26751c-1.87068,-0.46439 -3.31768,-2.05977 -5.17192,-2.58596c-1.3283,-0.37694 -10.79691,-0.27867 -11.34839,-0.26751c-2.25242,0.04559 -4.54186,0.69745 -6.75333,0.26751c-1.89203,-0.36784 -3.28364,-2.19928 -5.17192,-2.58596c-4.77736,-0.9783 -9.84294,0.84657 -14.62923,-0.08708c-2.27804,-0.44437 -4.16584,-2.26784 -6.4649,-2.58596c-6.84122,-0.94662 -15.66461,-0.37527 -22.86717,0.08708c-6.46142,-3.23071 -11.99459,-2.85347 -19.10627,-2.85347c-12.1993,0 -24.39861,0 -36.59791,0c33.9061,-77.07418 85.94877,-144.36812 150.72395,-196.47777c0,4.17695 0,8.35389 0,12.53085z" fill-opacity="0.32549" fill="#ccfbff" stroke="none" stroke-width="50"/><path d="M597.24532,138.99027c0,-3.59492 2.91425,-6.50917 6.50918,-6.50917c3.59492,0 6.50917,2.91425 6.50917,6.50917c0,3.59492 -2.91425,6.50917 -6.50917,6.50917c-3.59492,0 -6.50918,-2.91425 -6.50918,-6.50917z" fill="#ffffff" stroke="none" stroke-width="0.5"/><path d="M417.17913,43.14859c0,-3.59493 2.91425,-6.50918 6.50918,-6.50918c3.59492,0 6.50917,2.91425 6.50917,6.50918c0,3.59493 -2.91425,6.50918 -6.50917,6.50918c-3.59492,0 -6.50918,-2.91425 -6.50918,-6.50918z" fill="#ffffff" stroke="none" stroke-width="0.5"/><path d="M469.40544,259.51846c0,6.50918 -6.50917,6.50917 -6.50917,6.50917c-1.45213,0 -7.26074,0 -8.71287,0c0,0 -6.50918,0 -6.50918,-6.50917c0,-6.50917 6.50918,-6.50917 6.50918,-6.50917c1.45213,0 2.90429,0 4.35643,0h4.35645c0,0 6.50917,0 6.50917,6.50917z" fill="#ffffff" stroke="none" stroke-width="0.5"/><path d="M341.6675,159.32034c0,-3.59492 2.91425,-6.50918 6.50918,-6.50918c3.59492,0 6.50917,2.91425 6.50917,6.50918c0,3.59492 -2.91425,6.50917 -6.50917,6.50917c-3.59492,0 -6.50918,-2.91425 -6.50918,-6.50917z" fill="#ffffff" stroke="none" stroke-width="0.5"/><path d="M158.697,54.76576c0,-3.59493 2.91425,-6.50917 6.50917,-6.50917c3.59492,0 6.50917,2.91425 6.50917,6.50917c0,3.59493 -2.91425,6.50918 -6.50917,6.50918c-3.59492,0 -6.50917,-2.91425 -6.50917,-6.50918z" fill="#ffffff" stroke="none" stroke-width="0.5"/><path d="M226.94788,165.12892c0,-3.59492 2.91426,-6.50918 6.50918,-6.50918c3.59492,0 6.50917,2.91426 6.50917,6.50918c0,3.59492 -2.91425,6.50917 -6.50917,6.50917c-3.59492,0 -6.50918,-2.91425 -6.50918,-6.50917z" fill="#ffffff" stroke="none" stroke-width="0.5"/><path d="M71.56819,156.41604c0,-3.59492 2.91425,-6.50917 6.50917,-6.50917c3.59493,0 6.50917,2.91425 6.50917,6.50917c0,3.59492 -2.91425,6.50918 -6.50917,6.50918c-3.59493,0 -6.50917,-2.91425 -6.50917,-6.50918z" fill="#ffffff" stroke="none" stroke-width="0.5"/><path d="M36.71667,46.05288c0,-3.59493 2.91425,-6.50917 6.50917,-6.50917c3.59492,0 6.50918,2.91425 6.50918,6.50917c0,3.59493 -2.91426,6.50917 -6.50918,6.50917c-3.59492,0 -6.50917,-2.91425 -6.50917,-6.50917z" fill="#ffffff" stroke="none" stroke-width="0.5"/><path d="M292.29451,255.16202c0,-3.59492 2.91425,-6.50917 6.50917,-6.50917c3.59492,0 6.50918,2.91425 6.50918,6.50917c0,3.59492 -2.91425,6.50918 -6.50918,6.50918c-3.59492,0 -6.50917,-2.91425 -6.50917,-6.50918z" fill="#ffffff" stroke="none" stroke-width="0.5"/><path d="M147.07982,291.46569c0,-3.59492 2.91425,-6.50918 6.50918,-6.50918c3.59492,0 6.50917,2.91425 6.50917,6.50918c0,3.59492 -2.91425,6.50918 -6.50917,6.50918c-3.59492,0 -6.50918,-2.91426 -6.50918,-6.50918z" fill="#ffffff" stroke="none" stroke-width="0.5"/><path d="M42.52525,393.11595c0,-3.59492 2.91425,-6.50917 6.50917,-6.50917c3.59493,0 6.50918,2.91425 6.50918,6.50917c0,3.59492 -2.91425,6.50918 -6.50918,6.50918c-3.59493,0 -6.50917,-2.91425 -6.50917,-6.50918z" fill="#ffffff" stroke="none" stroke-width="0.5"/><path d="M364.90184,348.09941c0,-6.50918 6.50917,-6.50917 6.50917,-6.50917h5.80858c0,0 6.50918,0 6.50918,6.50917c0,6.50918 -6.50918,6.50918 -6.50918,6.50918h-5.80858c0,0 -6.50917,0 -6.50917,-6.50918z" fill="#ffffff" stroke="none" stroke-width="0.5"/><path d="M533.35086,288.5614c0,-3.59492 2.91425,-6.50918 6.50918,-6.50918c3.59492,0 6.50917,2.91425 6.50917,6.50918c0,3.59492 -2.91425,6.50918 -6.50917,6.50918c-3.59492,0 -6.50918,-2.91426 -6.50918,-6.50918z" fill="#ffffff" stroke="none" stroke-width="0.5"/><path d="M462.19567,382.95093c0,-3.59492 2.91425,-6.50917 6.50917,-6.50917c3.59492,0 6.50918,2.91425 6.50918,6.50917c0,1.87962 -0.79669,3.57316 -2.0708,4.76136c-2.8714,-0.0419 -5.89251,0.05357 -8.68786,0.16943c-1.38378,-1.19365 -2.25969,-2.95993 -2.25969,-4.93079z" fill="#ffffff" stroke="none" stroke-width="0.5"/><path d="M452.03065,165.12892c0,-3.59492 2.91425,-6.50918 6.50918,-6.50918c3.59492,0 6.50918,2.91426 6.50918,6.50918c0,3.59492 -2.91425,6.50917 -6.50918,6.50917c-3.59492,0 -6.50918,-2.91425 -6.50918,-6.50917z" fill="#ffffff" stroke="none" stroke-width="0.5"/><path d="M524.63799,57.67005c0,-3.59493 2.91425,-6.50918 6.50918,-6.50918c3.59492,0 6.50918,2.91425 6.50918,6.50918c0,3.59493 -2.91425,6.50918 -6.50918,6.50918c-3.59492,0 -6.50918,-2.91425 -6.50918,-6.50918z" fill="#ffffff" stroke="none" stroke-width="0.5"/><path d="M274.86873,99.78231c0,-3.59493 2.91425,-6.50917 6.50918,-6.50917c3.59492,0 6.50918,2.91425 6.50918,6.50917c0,3.59493 -2.91425,6.50918 -6.50918,6.50918c-3.59492,0 -6.50918,-2.91425 -6.50918,-6.50918z" fill="#ffffff" stroke="none" stroke-width="0.5"/><path d="M144.17553,194.17185c0,-3.59492 2.91425,-6.50917 6.50917,-6.50917c3.59492,0 6.50918,2.91425 6.50918,6.50917c0,3.59492 -2.91425,6.50917 -6.50918,6.50917c-3.59492,0 -6.50917,-2.91425 -6.50917,-6.50917z" fill="#ffffff" stroke="none" stroke-width="0.5"/><path d="M42.52525,252.25773c0,-3.59492 2.91425,-6.50917 6.50917,-6.50917c3.59493,0 6.50918,2.91425 6.50918,6.50917c0,3.59492 -2.91425,6.50918 -6.50918,6.50918c-3.59493,0 -6.50917,-2.91425 -6.50917,-6.50918z" fill="#ffffff" stroke="none" stroke-width="0.5"/><path d="M238.56508,361.16872c0,-3.59492 2.91425,-6.50918 6.50918,-6.50918c3.59492,0 6.50917,2.91425 6.50917,6.50918c0,3.59492 -2.91425,6.50918 -6.50917,6.50918c-3.59492,0 -6.50918,-2.91426 -6.50918,-6.50918z" fill="#ffffff" stroke="none" stroke-width="0.5"/><g stroke="none"><path d="M322.78671,258.81273c3.83208,-14.16088 -8.19902,-37.58586 7.65303,-40.74572c17.15869,-3.42032 44.12192,8.13329 50.1273,-19.47287c2.61983,-12.04308 29.39551,8.59037 42.48607,12.13281c2.82274,0.76387 3.08027,21.36069 7.86274,21.92818c14.33251,1.70077 38.10773,-16.83353 43.92915,-11.6984c11.02148,9.72216 -3.8744,26.97651 8.22643,35.55855c12.42567,8.81242 39.77677,6.00608 41.98367,17.75023c1.50576,8.01304 -19.30693,25.57764 -21.44531,33.47975c-2.226,8.22588 -26.4158,-5.97787 -29.28499,0.73809c-2.89126,6.7676 -2.06221,20.13068 -2.90035,30.71949c-0.63495,8.02186 -2.22673,14.4515 -7.11781,15.21497c-7.61259,1.18828 -30.94403,-22.54058 -42.24183,-33.55725c-3.8012,-3.70661 -31.62442,31.47879 -36.94389,30.03931c-4.22772,-1.14407 -3.65793,-15.00426 -4.98129,-20.27714c-2.83456,-11.29426 -4.82781,-18.39573 -14.23224,-24.42642c-15.48048,-9.92707 -59.85735,24.68405 -40.89114,10.8952c7.82025,-5.68548 13.78575,-15.24546 2.29091,-27.62147c-11.09269,-11.94307 -37.33847,-12.56619 -37.15578,-18.6621c0.1833,-6.11625 30.95104,-5.77109 32.63534,-11.9952z" fill="#5d554f" stroke-width="0"/><path d="M65.7596,186.91112c0,-6.50917 6.50917,-6.50917 6.50917,-6.50917l7.30409,0.17412c2.97194,1.54556 6.41836,2.40418 8.91577,4.63667c1.28482,1.14855 0.16943,4.12976 1.72368,4.87422c2.05419,0.98395 4.53983,-1.17369 6.78632,-0.798c2.13508,0.35705 3.70847,2.37927 5.80858,2.90429c1.87838,0.4696 3.93021,-0.4696 5.80858,0c2.1001,0.52502 3.68589,2.47977 5.80858,2.90431c2.84789,0.56958 5.87734,-0.62818 8.71289,0c2.73233,0.60532 5.05346,2.40632 7.5802,3.60949c11.41485,7.68425 27.43587,7.93152 37.91078,14.61429c2.92982,1.86918 3.34351,7.44075 6.78631,7.91486c7.17192,0.98766 16.97054,2.70674 23.09939,7.22626c1.85881,1.37071 1.68676,4.41602 3.24214,6.12328c3.16127,3.46994 9.09256,2.60271 13.23512,4.81026c10.59563,5.64639 22.81133,15.91669 30.32927,24.23268c3.3881,3.74774 16.64358,7.02543 21.26442,9.89349c-0.08551,1.80822 -1.4863,4.09627 -0.25651,5.42468c2.88266,3.11387 8.36549,1.87721 12.15195,3.79257c22.31518,11.28814 41.14272,29.06529 63.84327,40.63481c13.31034,6.7837 24.78688,19.41668 34.0048,30.62539c2.17132,2.64026 5.408,4.50919 6.9049,7.58246c0.234,0.48041 -0.51011,1.45073 -1.07749,1.83088c1.59476,0.17976 5.92941,1.15688 5.92941,6.46865c0,6.50918 -6.50917,6.50917 -6.50917,6.50917c-12.41291,-2.64146 -12.74322,-14.08419 -22.35666,-23.7265c-17.64004,-17.69305 -53.70412,-36.7635 -75.45496,-49.85296c-8.03798,-4.83718 -27.93874,-14.8441 -28.2536,-22.44501c-19.44484,-2.20087 -30.27248,-21.14009 -47.1523,-29.7683c-6.9734,-3.56449 -9.58918,-0.99007 -15.80781,-6.80692c-1.47612,-1.38076 -0.96352,-4.26255 -2.56642,-5.49388c-4.53313,-3.48226 -12.66169,-2.84821 -17.56073,-4.39092c-4.53728,-1.42879 -6.79214,-6.71329 -10.63944,-9.5109c-8.36468,-6.08241 -27.15861,-7.5291 -37.60087,-14.42866c-1.34565,-0.73302 -2.5269,-1.93864 -4.03696,-2.19909c-2.86203,-0.49365 -5.865,0.56958 -8.71289,0c-2.12269,-0.42453 -3.70847,-2.37927 -5.80858,-2.90429c-1.87839,-0.4696 -3.93021,0.4696 -5.80859,0c-2.1001,-0.52502 -3.69669,-2.42893 -5.80858,-2.90431c-3.46963,-0.78098 -7.474,0.82316 -10.63945,-0.798c-3.09323,-1.58417 -3.5981,-6.53176 -6.78631,-7.91488l-4.31309,0.17413c0,0 -6.50917,0 -6.50917,-6.50917z" fill="#ff0000" stroke-width="0.5"/><path d="M208.07,67.83508c0,-6.50917 6.50917,-6.50918 6.50917,-6.50918l6.51494,1.09321c5.21357,3.49724 9.70539,7.97138 14.71681,11.75262c7.22914,5.45457 16.41026,8.89341 23.55511,14.76818c1.64316,1.35108 2.25738,3.90319 4.1728,4.82872c1.91934,0.92741 4.67495,-0.99249 6.38904,0.27472c3.32718,2.45976 4.68347,6.84936 7.43152,9.94269c3.35422,3.77567 15.39788,7.08584 16.8327,8.16746c2.85656,2.15337 3.56651,6.27974 6.0151,8.88768c3.55618,3.78759 10.29703,2.68752 14.47851,5.771c1.85881,1.37071 1.68676,4.41602 3.24216,6.12329c0.89506,0.98245 2.46456,0.99553 3.69687,1.49328c3.6082,1.43842 8.01549,1.63257 10.8246,4.3153c2.00248,1.91238 -0.08826,6.34824 2.10759,8.03503c1.96515,1.50959 5.0913,-1.63899 7.39786,-0.73318c5.77695,2.26871 11.13357,5.67845 15.98154,9.55369c7.58913,6.06642 13.26466,17.34852 20.68683,23.52746c17.07939,14.2185 36.70426,24.34589 52.27728,40.66009c4.78079,5.00832 13.89933,4.42499 18.3539,9.72556c3.1302,3.72467 2.70751,13.26649 2.7254,18.38858c0,0 0,6.50917 -6.50918,6.50917c-6.50918,0 -6.50918,-6.50917 -6.50918,-6.50917c0.00153,-0.36181 0.11659,-10.36687 -0.17889,-10.65436c-2.40338,-2.33834 -6.2537,-2.43549 -9.29226,-3.85372c-9.16806,-4.27915 -12.89723,-12.08745 -21.17858,-17.93404c-12.19572,-8.6101 -27.1116,-17.23692 -38.30409,-26.57256c-7.20871,-6.01276 -12.72487,-17.137 -19.9733,-22.94126c-3.23508,-2.59052 -22.34532,-8.05662 -23.08929,-8.60525c-2.70792,-1.99686 -1.3881,-6.94718 -3.701,-9.39071c-1.55084,-1.63842 -4.40076,-0.99552 -6.60116,-1.49329c-2.64011,-1.43842 -5.72462,-2.26149 -7.92031,-4.31531c-1.47613,-1.38076 -0.96351,-4.26255 -2.56642,-5.49388c-4.14859,-3.18686 -10.77319,-2.24158 -14.56443,-5.84619c-2.46691,-2.34547 -2.89287,-6.47722 -5.60208,-8.53806c-3.15558,-2.40037 -7.60506,-2.37887 -11.13156,-4.19084c-2.53514,-1.30258 -5.0016,-2.93017 -6.88727,-5.06747c-1.89085,-2.14317 -1.91645,-5.74551 -4.18566,-7.48309c-1.38557,-1.06096 -3.67605,1.0725 -5.22814,0.27472c-2.98681,-1.53525 -4.7976,-4.72146 -7.44438,-6.78846c-7.07818,-5.52769 -15.83648,-8.99455 -22.91358,-14.27478c-4.90502,-3.65962 -9.22322,-8.1035 -14.32612,-11.48173l0.70634,1.09321c0,0 -6.50918,0 -6.50918,-6.50917z" fill="#ff0000" stroke-width="0.5"/><path d="M117.0391,147.45692c4.60268,-4.60268 9.20537,0 9.20537,0l1.2126,1.68499c1.46438,0.79707 2.75293,2.09197 4.39308,2.39122c2.85713,0.52129 5.87736,-0.62818 8.71289,0c2.73233,0.60532 5.15731,2.20896 7.58022,3.60949c8.59095,4.96591 13.36183,7.54313 22.45817,11.23333c1.68725,0.68447 3.05504,2.10924 4.81314,2.58295c2.50282,0.67435 5.53307,-0.56937 7.73515,0.79801c1.83902,1.14195 1.16282,4.52278 2.90431,5.80858c1.06277,0.78469 2.5911,-1.0786 3.882,-0.79801c2.11534,0.45978 3.71077,2.37029 5.80858,2.90429c1.65068,0.42018 3.42981,-0.41462 5.10838,-0.12535c9.88333,1.70322 16.2677,5.74223 25.86111,6.73196c4.88652,9.77303 17.92867,6.4218 28.11182,11.14051c3.15192,1.46055 6.71415,2.75986 8.85466,5.49592c0.96973,1.23954 -2.272,3.79882 -0.93435,4.62799c3.54125,2.1951 8.53556,-0.03964 12.40974,1.49328c16.74297,6.62476 46.75817,27.1888 62.85566,27.0953c0,0 6.50918,0 6.50918,6.50917c0,6.50917 -6.50918,6.50918 -6.50918,6.50918c-5.40048,-0.02447 -10.9051,0.25223 -16.04779,-2.17358c-11.52726,-5.43739 -24.36877,-13.8754 -35.29513,-20.58077c-8.93615,-5.484 -25.23945,-4.2531 -33.12784,-9.64722c-1.9402,-1.32674 0.12734,-4.89219 -0.93435,-6.9892c-2.53628,-5.00955 -26.93253,-0.79839 -32.73658,-12.40651c-1.294,0.26601 -2.59275,1.08619 -3.882,0.79801c-2.36846,-0.52938 -4.27355,-2.3537 -6.57143,-3.13449c-5.32629,-1.80983 -11.20038,-1.33049 -16.66294,-2.67409c-2.10208,-0.51703 -3.72046,-2.33349 -5.80858,-2.90429c-2.50034,-0.6835 -5.5331,0.56937 -7.73517,-0.79801c-1.83902,-1.14195 -1.1628,-4.52278 -2.90429,-5.80858c-1.06277,-0.78469 -2.59377,1.09068 -3.88202,0.79801c-5.4231,-1.232 -10.36196,-4.04324 -15.51692,-6.12994c-6.55021,-2.65151 -12.57841,-10.1305 -19.33462,-11.29582c-2.86202,-0.49365 -5.87314,0.60893 -8.71287,0c-2.60466,-0.5585 -4.81604,-2.27823 -7.22407,-3.41735l-4.59598,-4.1236c0,0 -4.60268,-4.60269 0,-9.20536z" fill="#ff0000" stroke-width="0.5"/><path d="M117.0391,179.40415c4.60268,-4.60268 9.20537,0 9.20537,0l1.2126,1.68499c2.23452,1.14858 4.75147,1.8641 6.70357,3.44575c2.81818,2.28339 4.42424,5.90278 7.39786,7.97969c0.91669,0.64026 2.19981,-0.46892 3.31763,-0.49548c3.40234,-0.08084 6.86624,-0.46823 10.20838,0.17412c2.12583,0.40857 3.70848,2.37929 5.80859,2.90431c1.87839,0.4696 3.96179,-0.58156 5.80858,0c3.19511,1.00613 6.40389,2.42046 8.91577,4.63665c1.51567,1.33724 0.96352,4.26257 2.56644,5.49389c1.89552,1.4561 4.69705,0.97922 6.939,1.80799c2.03044,0.75059 3.80996,2.07273 5.8086,2.90431c3.33622,1.38808 7.32387,1.52251 10.17296,3.7451c2.69055,2.09893 3.73809,5.71004 5.60715,8.56505c22.03375,4.49298 34.17772,20.61819 53.92293,28.34995c5.85051,2.29093 12.6857,1.2994 18.47355,3.74437c9.34898,3.94931 16.47983,11.21544 26.99972,13.36003c4.74293,0.9669 9.84593,-1.2529 14.52147,0c12.03848,3.22596 13.63461,10.02328 27.54742,9.99089c0,0 6.50918,0 6.50918,6.50918c0,6.50918 -6.50918,6.50917 -6.50918,6.50917c-6.47699,-0.0131 -14.42187,0.27251 -20.28558,-2.11404c-5.33247,-2.17035 -5.03235,-7.10523 -10.25285,-8.22512c-4.73282,-1.01527 -9.77241,0.93642 -14.52147,0c-11.07959,-2.18466 -19.01318,-9.66716 -28.68117,-13.87917c-5.86036,-2.55316 -12.86008,-1.46342 -18.78298,-3.86795c-20.54042,-8.33882 -34.13254,-23.4238 -56.44022,-29.73592c-2.00333,-2.95357 -3.25528,-6.59171 -6.01002,-8.8607c-1.94015,-1.59805 -4.90344,-1.16994 -7.2528,-2.06348c-5.51395,-2.09717 -11.54739,-3.40367 -16.29535,-6.9049c-1.85881,-1.37071 -1.78338,-4.33275 -3.24214,-6.1233c-1.72255,-2.11428 -7.15453,-0.83306 -8.51,-1.17192c-2.10011,-0.52502 -3.68988,-2.46023 -5.80858,-2.90429c-3.52412,-0.73863 -12.25931,1.44572 -15.51692,-0.32136c-5.58012,-3.02687 -9.2204,-9.05776 -14.94151,-11.8089l-4.59598,-4.12359c0,0 -4.60268,-4.60269 0,-9.20536z" fill="#ff7b00" stroke-width="0.5"/><path d="M160.60351,92.27533c4.60268,-4.60268 9.20536,0 9.20536,0l1.2126,1.685c5.82076,2.99198 10.36592,7.99627 15.41645,12.15864c4.06809,3.35269 10.51074,2.67287 14.66651,5.91621c2.86801,2.2383 3.63993,6.38722 6.16533,9.00598c3.09518,3.20956 8.68806,3.00556 11.91207,6.0857c1.46148,1.39626 0.96352,4.26257 2.56642,5.4939c1.89552,1.4561 4.69908,0.97377 6.93902,1.80797c3.73453,1.39085 6.74176,4.5778 10.62171,5.48724c1.88511,0.44186 3.97296,-0.61589 5.80858,0c4.57753,1.53587 8.68845,4.21443 13.03267,6.32164c7.96461,4.33527 16.79566,1.85107 25.71861,5.61687c4.40982,1.86111 6.69096,6.89334 10.48675,9.80919c4.93167,3.7884 14.344,4.26167 19.87121,8.34974c22.09105,16.33916 56.85063,33.13716 64.95115,61.78769c0,0 1.57871,6.31484 -4.73611,7.89355c-6.31484,1.57871 -7.89353,-4.73613 -7.89353,-4.73613c-5.48086,-28.58179 -67.32051,-51.31418 -83.96451,-69.58336c-6.01387,-6.6011 -22.47915,-3.81495 -30.25554,-7.49357c-3.40055,-1.76519 -6.5641,-4.09237 -10.20168,-5.29552c-1.83825,-0.60801 -3.93571,0.49111 -5.80858,0c-2.33363,-0.61192 -9.90868,-4.98653 -12.61263,-6.12994c-3.44589,-1.45716 -7.47561,-1.78014 -10.48675,-4.0006c-1.85881,-1.37071 -1.65811,-4.44255 -3.24214,-6.12329c-2.88091,-3.05678 -8.30591,-2.6083 -11.32228,-5.5315c-2.40106,-2.3269 -2.87289,-6.29175 -5.45183,-8.41977c-3.97626,-3.28102 -10.3113,-2.53072 -14.37643,-5.70096c-4.61567,-3.59959 -8.35138,-8.53903 -13.62648,-11.0757l-4.59598,-4.12358c0,0 -4.60268,-4.60268 0,-9.20536z" fill="#ff7b00" stroke-width="0.5"/><path d="M268.06237,48.71093c4.60268,-4.60268 9.20536,0 9.20536,0l0.35998,1.33183c2.56572,0.88478 5.03415,2.13074 7.69715,2.65432c2.04815,0.40268 4.27896,-0.56324 6.26144,0.09009c9.07797,2.99167 17.78118,8.75161 26.90147,11.84736c4.10448,1.3932 8.68786,1.40877 12.5659,3.34486c2.52209,1.25915 4.01575,3.95723 6.02361,5.93583c5.97077,1.86267 19.10016,5.42457 23.7633,9.07704c11.63212,9.11102 38.8477,41.2261 45.49076,54.65271c3.21377,6.49552 3.99762,14.08256 7.60636,20.36721c6.4625,11.25452 8.97784,17.42857 10.75408,29.86339c1.83204,12.82563 0.70103,14.75327 1.90082,12.85642c0,0 6.50918,0 6.50918,6.50917c0,6.50917 -6.50918,6.50917 -6.50918,6.50917c-21.55174,-3.94651 -9.64492,-22.75609 -17.53084,-38.64079c-18.85543,-37.98066 -37.26306,-75.54838 -78.82862,-90.12025c-1.86453,-1.89379 -3.21737,-4.49117 -5.59359,-5.68133c-3.2633,-1.63447 -7.19915,-1.33026 -10.66843,-2.46373c-8.68359,-2.837 -16.81589,-8.49545 -25.37581,-11.38698c-1.6916,-0.57142 -3.60598,0.44552 -5.35573,0.09009c-3.34084,-0.67864 -6.48575,-2.10286 -9.72861,-3.15428l-5.4486,-4.47675c0,0 -4.60268,-4.60268 0,-9.20536z" fill="#ff7b00" stroke-width="0.5"/><path d="M86.08967,262.42273c0,-6.50917 6.50917,-6.50917 6.50917,-6.50917l9.23065,0.97214c1.24902,2.14274 1.78261,4.91417 3.74705,6.42824c1.89316,1.45915 4.69997,0.97141 6.93903,1.80799c1.70565,0.63727 3.02465,2.2414 4.81313,2.58295c2.85276,0.54476 5.865,-0.56958 8.71289,0c2.12268,0.42453 3.68588,2.47975 5.80858,2.90429c2.84789,0.56958 5.92406,-0.81073 8.71289,0c10.78119,3.13419 10.41123,5.84369 18.42121,9.03423c4.98612,1.98606 10.13905,3.604 14.94151,6.0003c5.59912,2.79383 10.84271,6.43346 16.77311,8.43c4.10793,1.38299 8.79518,1.20722 12.5659,3.34487c3.64328,2.0654 5.95194,5.89341 8.9279,8.84012c16.95204,5.3952 30.55085,23.5499 46.74623,25.21526c21.4382,2.2045 44.33202,-3.96827 63.94505,-9.87977c9.55698,-2.88054 18.7821,-10.17568 29.64918,-10.49904c0,0 6.50917,0 6.50917,6.50917c0,6.50918 -6.50917,6.50918 -6.50917,6.50918c-8.95051,-0.54476 -17.63166,7.46918 -25.53241,9.83099c-19.81343,5.92291 -48.25097,13.48484 -69.65243,10.45028c-20.56045,-2.91531 -32.28379,-20.22892 -51.99976,-27.06201c-2.83262,-2.86187 -5.00938,-6.57451 -8.49786,-8.58562c-3.16193,-1.82284 -7.20243,-1.32033 -10.66845,-2.46374c-8.22532,-2.71344 -15.41782,-8.50221 -23.46696,-11.70834c-2.84408,-1.13286 -5.87201,-1.76343 -8.71289,-2.90429c-2.65654,-1.06683 -15.74331,-8.19918 -16.43033,-8.39153c-2.79674,-0.78301 -5.86497,0.56958 -8.71287,0c-2.12269,-0.42453 -3.68589,-2.47976 -5.8086,-2.90429c-2.84789,-0.56958 -5.86937,0.59111 -8.71287,0c-2.45745,-0.51086 -4.48817,-2.2578 -6.80403,-3.22566c-3.45197,-1.44266 -7.4683,-1.79008 -10.48676,-4.00059c-1.50157,-1.09963 -1.37437,-3.45929 -2.06155,-5.18894l-2.3865,0.97213c0,0 -6.50917,0 -6.50917,-6.50918z" fill="#ffea00" stroke-width="0.5"/><path d="M138.36696,198.5283c0,-6.50917 6.50917,-6.50918 6.50917,-6.50918h5.80858c5.2824,0.0648 10.3532,2.11985 15.56413,2.98835c2.86477,0.47746 5.84811,-0.47746 8.71287,0c3.01973,0.50329 5.71193,2.29892 8.71289,2.90429c2.17455,0.43866 4.58598,-0.61213 6.65219,0.19524c3.25114,1.27039 5.48371,4.48335 8.71289,5.80858c1.53226,0.62882 3.34026,-0.51703 4.96499,-0.19524c7.98157,1.58085 15.26748,4.14162 23.23436,5.80858c4.88574,1.02227 9.98351,0.00495 14.97431,0.09009c12.13099,5.77643 22.90208,12.56892 35.24228,17.53093c2.28148,0.91737 5.28323,-0.64814 7.3444,0.69284c5.6897,3.70165 4.74243,8.96564 12.59489,10.81916c5.78202,1.36481 12.39166,0.96141 17.29078,4.32195c1.53478,1.05279 0.59636,4.04128 2.06155,5.18894c3.92318,3.07299 20.7636,4.78426 25.78797,8.51093c5.53983,4.10899 8.63848,10.91908 14.06418,15.17764c0,0 5.08281,4.06624 1.01656,9.14905c-4.06624,5.08281 -9.14907,1.01656 -9.14907,1.01656c-4.75687,-3.86421 -7.20071,-10.14962 -12.07447,-13.8653c-5.97024,-4.55163 -19.79715,-4.81245 -26.48931,-8.91483c-2.11453,-1.29623 -1.85451,-4.82519 -3.74703,-6.42824c-3.01306,-2.55219 -8.57692,-0.66077 -11.75215,-1.48662c-8.44533,-2.19654 -11.3275,-8.8446 -16.44805,-12.41519c-5.88155,-4.10127 -29.4306,-11.56006 -38.73353,-16.62775c-1.38878,0.03352 -12.50974,0.38938 -14.06862,0.09008c-7.9627,-1.52886 -15.28389,-4.20477 -23.23436,-5.80859c-2.17455,-0.43866 -4.58598,0.61212 -6.65219,-0.19524c-3.25114,-1.27039 -5.48372,-4.48336 -8.71289,-5.80859c-1.53226,-0.62882 -3.34026,0.51703 -4.96497,0.19524c-3.00305,-0.59478 -5.69315,-2.401 -8.71288,-2.90429c-2.86477,-0.47746 -5.84811,0.47746 -8.71289,0c-4.52778,-0.75463 -8.88929,-2.90118 -13.47882,-2.82024h-5.80858c0,0 -6.50917,0 -6.50917,-6.50917z" fill="#ffea00" stroke-width="0.5"/><path d="M150.68472,46.80443c4.61707,0 5.95918,3.27497 6.34929,5.17893c1.66285,0.71792 3.26699,1.50496 4.37669,2.87402c1.83996,2.27004 0.59807,6.23669 2.58959,8.37502c1.53753,1.6509 4.4803,0.72422 6.60114,1.49329c2.3064,0.83635 4.47606,2.0342 6.58477,3.28813c7.23956,4.305 16.12955,11.49238 24.36701,13.81627c3.11624,0.87914 6.80113,-1.10415 9.70834,0.32136c3.9141,1.9192 5.63944,6.90759 9.429,9.06229c3.4699,1.97294 8.1589,0.91106 11.61718,2.90429c3.87553,2.23374 6.19465,6.48149 9.63256,9.34336c4.49996,3.74594 10.82052,5.04094 14.9974,9.14402c3.10826,3.05334 3.72559,8.56306 7.53228,10.68281c2.85482,1.58971 6.68539,1.23332 9.24183,3.26844c2.73085,2.17398 3.87239,5.8086 5.80858,8.71289c31.07309,8.84057 50.14685,39.86117 65.48048,65.64527c9.94824,16.72838 12.0431,37.02892 23.11328,53.54088c0,0 3.61065,5.41597 -1.80532,9.0266c-5.41597,3.61065 -9.02661,-1.80532 -9.02661,-1.80532c-28.86684,-43.5102 -28.15354,-94.88961 -85.66386,-116.06163c-1.93619,-2.90429 -3.08855,-6.52539 -5.80858,-8.71289c-2.22584,-1.79006 -5.77364,-1.00741 -8.18392,-2.54014c-3.02462,-1.92338 -5.44815,-4.72464 -7.66703,-7.53964c-1.13164,-1.43568 -0.95199,-3.70135 -2.22647,-5.01188c-1.12732,-1.1592 -3.08015,-1.05582 -4.47302,-1.87712c-3.30708,-1.94997 -6.62448,-3.94529 -9.5725,-6.40462c-2.87383,-2.39744 -4.53622,-6.23887 -7.7932,-8.08241c-3.47371,-1.96619 -8.15607,-0.91597 -11.61718,-2.90429c-3.34452,-1.92133 -4.56319,-6.60626 -7.99677,-8.36347c-2.292,-1.17297 -5.24406,1.03659 -7.71742,0.32136c-6.84718,-1.98001 -13.08152,-5.75743 -19.1974,-9.41809c-4.59678,-2.75142 -8.82564,-6.20824 -13.74528,-8.32903c-3.56703,-1.53771 -8.01092,-1.63736 -10.82461,-4.31531c-2.31943,-2.20755 -1.42707,-6.39704 -3.21898,-9.05074c-0.75246,-1.11433 -2.5348,-0.89809 -3.80219,-1.34712l-3.59819,-8.72627c0,0 0,-6.50917 6.50918,-6.50917z" fill="#ffea00" stroke-width="0.5"/></g></g></g></svg>