<svg version="1.1" xmlns="http://www.w3.org/2000/svg" xmlns:xlink="http://www.w3.org/1999/xlink" width="662" height="378" viewBox="0,0,662,378"><g transform="translate(11,9)"><g stroke="#000000" stroke-width="0" stroke-miterlimit="10"><path d="" fill="#ff00ff"/><g fill="#ff00ff"><path d=""/><path d="M440.45849,229.71904v-50.86103h43.03547v50.86103z"/></g><path d="M397.68228,229.71904v-50.86103h43.42434v50.86103z" fill="#000000"/><g fill="#ff00ff"><path d=""/><path d="M397.68228,277.45015v-50.07855h43.03546v50.07855z"/></g><path d="M440.06962,277.45015v-50.07855h43.42435v50.07855z" fill="#000000"/><g fill="#ff00ff"><path d=""/><path d="M360.12082,322.0002v-50.08176h42.3761v50.08176z"/></g><path d="M318,322.0002v-50.08176h42.75901v50.08176z" fill="#000000"/><g fill="#ff00ff"><path d=""/><path d="M318,369v-49.31127h42.3761v49.31127z"/></g><path d="M359.7379,369v-49.31127h42.75901v49.31127z" fill="#000000"/><g fill="#ff00ff"><path d=""/><path d="M361.03547,226.58913v50.86103h-43.03546v-50.86103z"/></g><path d="M403.81168,226.58913v50.86103h-43.42434v-50.86103z" fill="#000000"/><g fill="#ff00ff"><path d=""/><path d="M403.81168,178.85801v50.07855h-43.03547v-50.07855z"/></g><path d="M361.42434,178.85801v50.07855h-43.42434v-50.07855z" fill="#000000"/><g fill="#ff00ff"><path d=""/><path d="M441.37314,318.91824v50.08176h-42.3761v-50.08176z"/></g><path d="M483.49396,318.91824v50.08176h-42.75901v-50.08176z" fill="#000000"/><g fill="#ff00ff"><path d=""/><path d="M483.49396,271.91844v49.31127h-42.3761v-49.31127z"/></g><path d="M441.75606,271.91844v49.31127h-42.75901v-49.31127z" fill="#000000"/><g fill="#ff00ff"><path d=""/><path d="M607.44131,229.71904v-50.86103h43.55869v50.86103z"/></g><path d="M564.14502,229.71904v-50.86103h43.95229v50.86103z" fill="#000000"/><g fill="#ff00ff"><path d=""/><path d="M564.14502,277.45015v-50.07855h43.55869v50.07855z"/></g><path d="M607.0477,277.45015v-50.07855h43.9523v50.07855z" fill="#000000"/><g fill="#ff00ff"><path d=""/><path d="M526.12689,322.0002v-50.08176h42.8913v50.08176z"/></g><path d="M483.49396,322.0002v-50.08176h43.27887v50.08176z" fill="#000000"/><g fill="#ff00ff"><path d=""/><path d="M483.49396,369v-49.31127h42.8913v49.31127z"/></g><path d="M525.73931,369v-49.31127h43.27888v49.31127z" fill="#000000"/><g fill="#ff00ff"><path d=""/><path d="M527.05265,226.58913v50.86103h-43.55869v-50.86103z"/></g><path d="M570.34894,226.58913v50.86103h-43.95229v-50.86103z" fill="#000000"/><g fill="#ff00ff"><path d=""/><path d="M570.34894,178.85801v50.07855h-43.55869v-50.07855z"/></g><path d="M527.44625,178.85801v50.07855h-43.95229v-50.07855z" fill="#000000"/><g fill="#ff00ff"><path d=""/><path d="M608.36708,318.91824v50.08176h-42.89131v-50.08176z"/></g><path d="M651,318.91824v50.08176h-43.27888v-50.08176z" fill="#000000"/><g fill="#ff00ff"><path d=""/><path d="M651,271.91844v49.31127h-42.89131v-49.31127z"/></g><path d="M608.75465,271.91844v49.31127h-43.27888v-49.31127z" fill="#000000"/><g fill="#ff00ff"><path d=""/><path d="M113.29916,42.62551v-51.62551h43.68232v51.62551z"/></g><path d="M69.87997,42.62551v-51.62551h44.07705v51.62551z" fill="#000000"/><g fill="#ff00ff"><path d=""/><path d="M69.87997,91.07408v-50.83128h43.68233v50.83128z"/></g><path d="M112.90443,91.07408v-50.83128h44.07705v50.83128z" fill="#000000"/><g fill="#ff00ff"><path d=""/><path d="M31.75393,136.29375v-50.83454h43.01305v50.83454z"/></g><path d="M-11,136.29375v-50.83454h43.40172v50.83454z" fill="#000000"/><g fill="#ff00ff"><path d=""/><path d="M-11,184v-50.05246h43.01305v50.05246z"/></g><path d="M31.36526,184v-50.05246h43.40172v50.05246z" fill="#000000"/><g fill="#ff00ff"><path d=""/><path d="M32.68232,39.44856v51.62552h-43.68232v-51.62552z"/></g><path d="M76.10151,39.44856v51.62552h-44.07704v-51.62552z" fill="#000000"/><g fill="#ff00ff"><path d=""/><path d="M76.10151,-9v50.83128h-43.68233v-50.83128z"/></g><path d="M33.07705,-9v50.83128h-44.07705v-50.83128z" fill="#000000"/><g fill="#ff00ff"><path d=""/><path d="M114.22755,133.16547v50.83453h-43.01305v-50.83453z"/></g><path d="M156.98148,133.16547v50.83453h-43.40172v-50.83453z" fill="#000000"/><g fill="#ff00ff"><path d=""/><path d="M156.98148,85.45921v50.05247h-43.01304v-50.05247z"/></g><path d="M114.61622,85.45921v50.05247h-43.40172v-50.05247z" fill="#000000"/><g fill="#ff00ff"><path d=""/><path d="M282.79187,42.62551v-51.62551h44.21342v51.62551z"/></g><path d="M238.84479,42.62551v-51.62551h44.61294v51.62551z" fill="#000000"/><g fill="#ff00ff"><path d=""/><path d="M238.84479,91.07408v-50.83128h44.21342v50.83128z"/></g><path d="M282.39235,91.07408v-50.83128h44.61294v50.83128z" fill="#000000"/><g fill="#ff00ff"><path d=""/><path d="M200.25522,136.29375v-50.83454h43.536v50.83454z"/></g><path d="M156.98148,136.29375v-50.83454h43.9294v50.83454z" fill="#000000"/><g fill="#ff00ff"><path d=""/><path d="M156.98148,184v-50.05246h43.53601v50.05246z"/></g><path d="M199.86182,184v-50.05246h43.9294v50.05246z" fill="#000000"/><g fill="#ff00ff"><path d=""/><path d="M201.1949,39.44856v51.62552h-44.21342v-51.62552z"/></g><path d="M245.14198,39.44856v51.62552h-44.61294v-51.62552z" fill="#000000"/><g fill="#ff00ff"><path d=""/><path d="M245.14198,-9v50.83128h-44.21342v-50.83128z"/></g><path d="M201.59442,-9v50.83128h-44.61294v-50.83128z" fill="#000000"/><g fill="#ff00ff"><path d=""/><path d="M283.73155,133.16547v50.83453h-43.536v-50.83453z"/></g><path d="M327.00529,133.16547v50.83453h-43.92939v-50.83453z" fill="#000000"/><g fill="#ff00ff"><path d=""/><path d="M327.00529,85.45921v50.05247h-43.536v-50.05247z"/></g><path d="M284.12495,85.45921v50.05247h-43.9294v-50.05247z" fill="#000000"/><g fill="#ff00ff"><path d=""/><path d="M199.54151,318.13897v50.86103h-43.03547v-50.86103z"/></g><path d="M242.31773,318.13897v50.86103h-43.42434v-50.86103z" fill="#000000"/><g fill="#ff00ff"><path d=""/><path d="M242.31773,270.40786v50.07855h-43.03546v-50.07855z"/></g><path d="M199.93039,270.40786v50.07855h-43.42435v-50.07855z" fill="#000000"/><g fill="#ff00ff"><path d=""/><path d="M279.87918,225.85781v50.08176h-42.3761v-50.08176z"/></g><path d="M322,225.85781v50.08176h-42.75901v-50.08176z" fill="#000000"/><g fill="#ff00ff"><path d=""/><path d="M322,178.85801v49.31127h-42.3761v-49.31127z"/></g><path d="M280.2621,178.85801v49.31127h-42.75901v-49.31127z" fill="#000000"/><g fill="#ff00ff"><path d=""/><path d="M278.96454,321.26888v-50.86103h43.03546v50.86103z"/></g><path d="M236.18832,321.26888v-50.86103h43.42434v50.86103z" fill="#000000"/><g fill="#ff00ff"><path d=""/><path d="M236.18832,369v-50.07855h43.03547v50.07855z"/></g><path d="M278.57566,369v-50.07855h43.42434v50.07855z" fill="#000000"/><g fill="#ff00ff"><path d=""/><path d="M198.62686,228.93977v-50.08176h42.37609v50.08176z"/></g><path d="M156.50604,228.93977v-50.08176h42.75902v50.08176z" fill="#000000"/><g fill="#ff00ff"><path d=""/><path d="M156.50604,275.93957v-49.31127h42.3761v49.31127z"/></g><path d="M198.24395,275.93957v-49.31127h42.75901v49.31127z" fill="#000000"/><g fill="#ff00ff"><path d=""/><path d="M32.55869,318.13897v50.86103h-43.55869v-50.86103z"/></g><path d="M75.85499,318.13897v50.86103h-43.9523v-50.86103z" fill="#000000"/><g fill="#ff00ff"><path d=""/><path d="M75.85499,270.40786v50.07855h-43.55869v-50.07855z"/></g><path d="M32.9523,270.40786v50.07855h-43.9523v-50.07855z" fill="#000000"/><g fill="#ff00ff"><path d=""/><path d="M113.87311,225.85781v50.08176h-42.8913v-50.08176z"/></g><path d="M156.50604,225.85781v50.08176h-43.27887v-50.08176z" fill="#000000"/><g fill="#ff00ff"><path d=""/><path d="M156.50604,178.85801v49.31127h-42.8913v-49.31127z"/></g><path d="M114.26069,178.85801v49.31127h-43.27888v-49.31127z" fill="#000000"/><g fill="#ff00ff"><path d=""/><path d="M112.94735,321.26888v-50.86103h43.55869v50.86103z"/></g><path d="M69.65106,321.26888v-50.86103h43.95229v50.86103z" fill="#000000"/><g fill="#ff00ff"><path d=""/><path d="M69.65106,369v-50.07855h43.55869v50.07855z"/></g><path d="M112.55375,369v-50.07855h43.95229v50.07855z" fill="#000000"/><g fill="#ff00ff"><path d=""/><path d="M31.63293,228.93977v-50.08176h42.89131v50.08176z"/></g><path d="M-11,228.93977v-50.08176h43.27888v50.08176z" fill="#000000"/><g fill="#ff00ff"><path d=""/><path d="M-11,275.93957v-49.31127h42.89131v49.31127z"/></g><path d="M31.24536,275.93957v-49.31127h43.27888v49.31127z" fill="#000000"/><g fill="#ff00ff"><path d=""/><path d="M526.70084,132.37449v51.62551h-43.68232v-51.62551z"/></g><path d="M570.12003,132.37449v51.62551h-44.07705v-51.62551z" fill="#000000"/><g fill="#ff00ff"><path d=""/><path d="M570.12003,83.92593v50.83128h-43.68233v-50.83128z"/></g><path d="M527.09557,83.92593v50.83128h-44.07705v-50.83128z" fill="#000000"/><g fill="#ff00ff"><path d=""/><path d="M608.24607,38.70625v50.83454h-43.01305v-50.83454z"/></g><path d="M651,38.70625v50.83454h-43.40172v-50.83454z" fill="#000000"/><g fill="#ff00ff"><path d=""/><path d="M651,-9v50.05246h-43.01305v-50.05246z"/></g><path d="M608.63474,-9v50.05246h-43.40172v-50.05246z" fill="#000000"/><g fill="#ff00ff"><path d=""/><path d="M607.31768,135.55144v-51.62552h43.68232v51.62552z"/></g><path d="M563.89849,135.55144v-51.62552h44.07705v51.62552z" fill="#000000"/><g fill="#ff00ff"><path d=""/><path d="M563.89849,184v-50.83128h43.68233v50.83128z"/></g><path d="M606.92295,184v-50.83128h44.07705v50.83128z" fill="#000000"/><g fill="#ff00ff"><path d=""/><path d="M525.77245,41.83453v-50.83453h43.01305v50.83453z"/></g><path d="M483.01852,41.83453v-50.83453h43.40172v50.83453z" fill="#000000"/><g fill="#ff00ff"><path d=""/><path d="M483.01852,89.54079v-50.05247h43.01305v50.05247z"/></g><path d="M525.38378,89.54079v-50.05247h43.40172v50.05247z" fill="#000000"/><g fill="#ff00ff"><path d=""/><path d="M357.20813,132.37449v51.62551c0,0 -14.28957,0 -22.20813,0c-6.56339,0 -22.00529,0 -22.00529,0v-51.62551z"/></g><path d="M401.15521,132.37449v51.62551h-44.61294v-51.62551z" fill="#000000"/><g fill="#ff00ff"><path d=""/><path d="M401.15521,83.92593v50.83128h-44.21342v-50.83128z"/></g><path d="M357.60765,83.92593v50.83128h-44.61294v-50.83128z" fill="#000000"/><g fill="#ff00ff"><path d=""/><path d="M439.74479,38.70625v50.83454h-43.536v-50.83454z"/></g><path d="M483.01852,38.70625v50.83454h-43.9294v-50.83454z" fill="#000000"/><g fill="#ff00ff"><path d=""/><path d="M483.01852,-9v50.05246h-43.536v-50.05246z"/></g><path d="M440.13818,-9v50.05246h-43.9294v-50.05246z" fill="#000000"/><g fill="#ff00ff"><path d=""/><path d="M438.8051,135.55144v-51.62552h44.21342v51.62552z"/></g><path d="M394.85803,135.55144v-51.62552h44.61294v51.62552z" fill="#000000"/><g fill="#ff00ff"><path d=""/><path d="M394.85803,184v-50.83128h44.21342v50.83128z"/></g><path d="M438.40558,184v-50.83128h44.61294v50.83128z" fill="#000000"/><g fill="#ff00ff"><path d=""/><path d="M356.26845,41.83453v-50.83453h43.536v50.83453z"/></g><path d="M312.99471,41.83453v-50.83453h43.9294v50.83453z" fill="#000000"/><g fill="#ff00ff"><path d=""/><path d="M312.99471,89.54079v-50.05247h43.536v50.05247z"/></g><path d="M355.87505,89.54079v-50.05247h43.9294v50.05247z" fill="#000000"/></g></g></svg>