<svg version="1.1" xmlns="http://www.w3.org/2000/svg" xmlns:xlink="http://www.w3.org/1999/xlink" width="49.92074" height="49.92074" viewBox="0,0,49.92074,49.92074"><defs><radialGradient cx="320" cy="180" r="24.22599" gradientUnits="userSpaceOnUse" id="color-1"><stop offset="0" stop-color="#fafafa"/><stop offset="1" stop-color="#ffffff"/></radialGradient><radialGradient cx="316.52808" cy="172.80441" r="4.84006" gradientUnits="userSpaceOnUse" id="color-2"><stop offset="0" stop-color="#3f3f3f"/><stop offset="1" stop-color="#000000"/></radialGradient><radialGradient cx="323.47192" cy="172.80441" r="4.84006" gradientUnits="userSpaceOnUse" id="color-3"><stop offset="0" stop-color="#3f3f3f"/><stop offset="1" stop-color="#000000"/></radialGradient></defs><g transform="translate(-295.03963,-155.03963)"><g stroke="none" stroke-width="0" stroke-miterlimit="10"><path d="M295.03963,204.96037v-49.92074h49.92074v49.92074z" fill="#ff00ff"/><path d="M331.69532,180c0,13.06969 -5.23618,23.66478 -11.69532,23.66478c-6.45915,0 -11.69532,-10.59509 -11.69532,-23.66478c0,-13.06969 5.23618,-23.66478 11.69532,-23.66478c6.45915,0 11.69532,10.59509 11.69532,23.66478z" fill="url(#color-1)"/><g><path d="M318.86467,172.80441c0,2.61116 -1.04612,4.72794 -2.33659,4.72794c-1.29046,0 -2.33659,-2.11677 -2.33659,-4.72794c0,-2.61116 1.04612,-4.72794 2.33659,-4.72794c1.29046,0 2.33659,2.11677 2.33659,4.72794z" fill="url(#color-2)"/><path d="M325.8085,172.80441c0,2.61116 -1.04612,4.72794 -2.33659,4.72794c-1.29046,0 -2.33659,-2.11677 -2.33659,-4.72794c0,-2.61116 1.04612,-4.72794 2.33659,-4.72794c1.29046,0 2.33659,2.11677 2.33659,4.72794z" fill="url(#color-3)"/></g></g></g></svg>