<svg version="1.1" xmlns="http://www.w3.org/2000/svg" xmlns:xlink="http://www.w3.org/1999/xlink" width="16.79901" height="24.23405" viewBox="0,0,16.79901,24.23405"><defs><radialGradient cx="320" cy="183.71752" r="8.39951" gradientUnits="userSpaceOnUse" id="color-1"><stop offset="0" stop-color="#ff00ff"/><stop offset="1" stop-color="#000000"/></radialGradient><radialGradient cx="312.37413" cy="183.71752" r="0.77364" gradientUnits="userSpaceOnUse" id="color-2"><stop offset="0" stop-color="#ff00ff"/><stop offset="1" stop-color="#000000"/></radialGradient><radialGradient cx="315.46869" cy="183.71752" r="0.77364" gradientUnits="userSpaceOnUse" id="color-3"><stop offset="0" stop-color="#ff00ff"/><stop offset="1" stop-color="#000000"/></radialGradient><radialGradient cx="318.3422" cy="183.71752" r="0.77364" gradientUnits="userSpaceOnUse" id="color-4"><stop offset="0" stop-color="#ff00ff"/><stop offset="1" stop-color="#000000"/></radialGradient><radialGradient cx="321.76832" cy="183.71752" r="0.77364" gradientUnits="userSpaceOnUse" id="color-5"><stop offset="0" stop-color="#ff00ff"/><stop offset="1" stop-color="#000000"/></radialGradient><radialGradient cx="324.64183" cy="183.71752" r="0.77364" gradientUnits="userSpaceOnUse" id="color-6"><stop offset="0" stop-color="#ff00ff"/><stop offset="1" stop-color="#000000"/></radialGradient><radialGradient cx="327.51535" cy="183.71752" r="0.77364" gradientUnits="userSpaceOnUse" id="color-7"><stop offset="0" stop-color="#ff00ff"/><stop offset="1" stop-color="#000000"/></radialGradient><radialGradient cx="320" cy="175.20749" r="8.39951" gradientUnits="userSpaceOnUse" id="color-8"><stop offset="0" stop-color="#ff00ff"/><stop offset="1" stop-color="#000000"/></radialGradient><radialGradient cx="320.67754" cy="171.96097" r="8.40065" gradientUnits="userSpaceOnUse" id="color-9"><stop offset="0" stop-color="#000000"/><stop offset="1" stop-color="#ff00ff"/></radialGradient><radialGradient cx="321.41172" cy="170.5929" r="2.70936" gradientUnits="userSpaceOnUse" id="color-10"><stop offset="0" stop-color="#ff00ff"/><stop offset="1" stop-color="#000000"/></radialGradient></defs><g transform="translate(-311.6005,-167.88298)"><g stroke="#000000" stroke-width="0" stroke-miterlimit="10"><g><path d="M311.6005,192.11702v-16.79901h16.79901v16.79901z" fill="url(#color-1)"/><path d="M311.6005,192.11702v-16.79901h1.54728v16.79901z" fill="url(#color-2)"/><path d="M314.69505,192.11702v-16.79901h1.54728v16.79901z" fill="url(#color-3)"/><path d="M317.56857,192.11702v-16.79901h1.54728v16.79901z" fill="url(#color-4)"/><path d="M320.99468,192.11702v-16.79901h1.54728v16.79901z" fill="url(#color-5)"/><path d="M323.86819,192.11702v-16.79901h1.54728v16.79901z" fill="url(#color-6)"/><path d="M326.74171,192.11702v-16.79901h1.54728v16.79901z" fill="url(#color-7)"/><path d="M311.6005,175.20749c0,-0.67142 3.76058,-1.21572 8.3995,-1.21572c4.63892,0 8.39951,0.5443 8.39951,1.21572c0,0.67142 -3.76059,1.21572 -8.39951,1.21572c-4.63892,0 -8.3995,-0.5443 -8.3995,-1.21572z" fill="url(#color-8)"/><path d="M313.04045,168.46159c0.45357,-0.95747 4.2405,-0.16693 8.45835,1.76573c4.21785,1.93266 7.2694,4.27557 6.81583,5.23305c-0.45357,0.95747 -4.2405,0.16693 -8.45835,-1.76572c-4.21785,-1.93266 -7.2694,-4.27558 -6.81583,-5.23305z" fill="url(#color-9)"/><path d="M321.98643,167.9452c1.46229,0.31741 2.3904,1.76013 2.07299,3.22242c-0.11773,0.54241 -0.3903,1.01132 -0.76127,1.37043c-0.05156,-0.36569 -0.22939,-0.70082 -0.49685,-0.94845c-0.04471,-0.14181 -0.14578,-0.28375 -0.29213,-0.42281c0.11502,-0.81864 -0.41976,-1.59968 -1.2407,-1.77788c-0.5995,-0.13012 -1.1934,0.09556 -1.5616,0.53547c-0.28815,-0.06972 -0.58064,-0.12885 -0.86997,-0.17534c0.42591,-1.30486 1.77913,-2.1013 3.14953,-1.80384z" fill="url(#color-10)"/></g></g></g></svg>