<svg version="1.1" xmlns="http://www.w3.org/2000/svg" xmlns:xlink="http://www.w3.org/1999/xlink" width="49.92074" height="49.92074" viewBox="0,0,49.92074,49.92074"><defs><radialGradient cx="320" cy="180" r="24.226" gradientUnits="userSpaceOnUse" id="color-1"><stop offset="0" stop-color="#fafafa"/><stop offset="1" stop-color="#ffffff"/></radialGradient><radialGradient cx="316.52808" cy="172.80441" r="4.84006" gradientUnits="userSpaceOnUse" id="color-2"><stop offset="0" stop-color="#3f3f3f"/><stop offset="1" stop-color="#000000"/></radialGradient><radialGradient cx="323.47192" cy="172.80441" r="4.84006" gradientUnits="userSpaceOnUse" id="color-3"><stop offset="0" stop-color="#3f3f3f"/><stop offset="1" stop-color="#000000"/></radialGradient><radialGradient cx="319.98506" cy="193.9231" r="11.59085" gradientUnits="userSpaceOnUse" id="color-4"><stop offset="0" stop-color="#3f3f3f"/><stop offset="1" stop-color="#000000"/></radialGradient><radialGradient cx="320" cy="191.28962" r="5.82957" gradientUnits="userSpaceOnUse" id="color-5"><stop offset="0" stop-color="#ff4141"/><stop offset="1" stop-color="#ff0000"/></radialGradient></defs><g transform="translate(-295.03963,-155.03963)"><g stroke="none" stroke-width="0" stroke-miterlimit="10"><path d="M295.03963,204.96037v-49.92074h49.92074v49.92074z" fill="#ff00ff"/><path d="M331.69533,180c0,13.06969 -5.23618,23.66478 -11.69533,23.66478c-6.45916,0 -11.69533,-10.59509 -11.69533,-23.66478c0,-13.06969 5.23618,-23.66478 11.69533,-23.66478c6.45916,0 11.69533,10.59509 11.69533,23.66478z" fill="url(#color-1)"/><g><path d="M318.86467,172.80441c0,2.61116 -1.04612,4.72794 -2.33659,4.72794c-1.29046,0 -2.33658,-2.11677 -2.33658,-4.72794c0,-2.61116 1.04612,-4.72794 2.33658,-4.72794c1.29046,0 2.33659,2.11677 2.33659,4.72794z" fill="url(#color-2)"/><path d="M325.8085,172.80441c0,2.61116 -1.04612,4.72794 -2.33658,4.72794c-1.29046,0 -2.33659,-2.11677 -2.33659,-4.72794c0,-2.61116 1.04612,-4.72794 2.33659,-4.72794c1.29046,0 2.33658,2.11677 2.33658,4.72794z" fill="url(#color-3)"/></g><path d="M331.57482,186.53232c-1.17977,10.73526 -5.91406,17.46057 -11.57482,17.46057c-5.71022,0 -10.4777,-6.92272 -11.60493,-17.79909c-0.16552,-1.59708 23.3648,-1.40196 23.17975,0.28195z" fill="url(#color-4)"/><path d="M320,197.30622c-4.80889,0.01085 -0.57027,-7.86976 -0.49376,-8.41668c0.03933,-0.28115 -2.2023,-2.87898 -1.88953,-3.59329c0.05786,-0.13214 2.30971,-0.02324 2.3833,-0.02324c0.02584,0 2.3331,-0.09799 2.37528,0.05136c0.20518,0.72658 -1.83119,3.1993 -1.7657,3.63269c0.08811,0.58316 4.25002,8.3382 -0.60958,8.34916z" fill="url(#color-5)"/></g></g></svg>