<svg version="1.1" xmlns="http://www.w3.org/2000/svg" xmlns:xlink="http://www.w3.org/1999/xlink" width="38.42609" height="31.31222" viewBox="0,0,38.42609,31.31222"><defs><radialGradient cx="319.97524" cy="163.30372" r="19.20802" gradientUnits="userSpaceOnUse" id="color-1"><stop offset="0" stop-color="#3f3f3f"/><stop offset="1" stop-color="#000000"/></radialGradient><radialGradient cx="302.5" cy="158.93962" r="9.6606" gradientUnits="userSpaceOnUse" id="color-2"><stop offset="0" stop-color="#ff4141"/><stop offset="1" stop-color="#ff0000"/></radialGradient></defs><g transform="translate(-300.75717,-148.67887)"><g stroke="none" stroke-width="0" stroke-miterlimit="10"><path d="M339.18146,151.05593c-1.95508,17.79017 -9.8006,28.93515 -19.18146,28.93515c-9.46281,0 -17.36334,-11.47214 -19.23135,-29.49615c-0.2743,-2.64664 38.71948,-2.32328 38.41281,0.46724z" fill="url(#color-1)"/><path d="M303.22581,168.81338c-3.95302,-0.27235 -1.67084,-12.94478 -1.54406,-13.85112c0.06518,-0.46592 -1.32701,-3.5129 -0.8087,-4.69663c0.09589,-0.21899 1.84371,-0.61916 1.96566,-0.61916c0.04282,0 3.57603,-0.54948 3.64593,-0.30198c0.34001,1.20407 -3.08298,5.01146 -2.97446,5.72966c0.14601,0.9664 7.76881,13.72106 -0.28437,13.73922z" fill="url(#color-2)"/></g></g></svg>