<svg version="1.1" xmlns="http://www.w3.org/2000/svg" xmlns:xlink="http://www.w3.org/1999/xlink" width="792.90558" height="500.7835" viewBox="0,0,792.90558,500.7835"><defs><radialGradient cx="315.60968" cy="304.94474" r="107.87758" gradientUnits="userSpaceOnUse" id="color-1"><stop offset="0" stop-color="#00b8ff" stop-opacity="0.59608"/><stop offset="1" stop-color="#00e8ff" stop-opacity="0.30588"/></radialGradient><linearGradient x1="16.3216" y1="271.78271" x2="16.3216" y2="300.61906" gradientUnits="userSpaceOnUse" id="color-2"><stop offset="0" stop-color="#8cff2e"/><stop offset="1" stop-color="#65df00"/></linearGradient><linearGradient x1="33.58023" y1="294.29397" x2="33.58023" y2="323.13032" gradientUnits="userSpaceOnUse" id="color-3"><stop offset="0" stop-color="#8cff2e"/><stop offset="1" stop-color="#65df00"/></linearGradient><linearGradient x1="17.82235" y1="310.05185" x2="17.82235" y2="338.8882" gradientUnits="userSpaceOnUse" id="color-4"><stop offset="0" stop-color="#8cff2e"/><stop offset="1" stop-color="#65df00"/></linearGradient><linearGradient x1="47.83736" y1="276.28496" x2="47.83736" y2="305.12131" gradientUnits="userSpaceOnUse" id="color-5"><stop offset="0" stop-color="#8cff2e"/><stop offset="1" stop-color="#65df00"/></linearGradient><linearGradient x1="63.59524" y1="298.79622" x2="63.59524" y2="327.63257" gradientUnits="userSpaceOnUse" id="color-6"><stop offset="0" stop-color="#8cff2e"/><stop offset="1" stop-color="#65df00"/></linearGradient><linearGradient x1="49.20761" y1="314.5541" x2="49.20761" y2="343.39045" gradientUnits="userSpaceOnUse" id="color-7"><stop offset="0" stop-color="#8cff2e"/><stop offset="1" stop-color="#65df00"/></linearGradient><linearGradient x1="75.60124" y1="280.03684" x2="75.60124" y2="308.87318" gradientUnits="userSpaceOnUse" id="color-8"><stop offset="0" stop-color="#8cff2e"/><stop offset="1" stop-color="#65df00"/></linearGradient><linearGradient x1="92.85987" y1="302.54809" x2="92.85987" y2="331.38444" gradientUnits="userSpaceOnUse" id="color-9"><stop offset="0" stop-color="#8cff2e"/><stop offset="1" stop-color="#65df00"/></linearGradient><linearGradient x1="77.10199" y1="318.30597" x2="77.10199" y2="347.14232" gradientUnits="userSpaceOnUse" id="color-10"><stop offset="0" stop-color="#8cff2e"/><stop offset="1" stop-color="#65df00"/></linearGradient><linearGradient x1="109.36813" y1="283.03834" x2="109.36813" y2="311.87469" gradientUnits="userSpaceOnUse" id="color-11"><stop offset="0" stop-color="#8cff2e"/><stop offset="1" stop-color="#65df00"/></linearGradient><linearGradient x1="126.62676" y1="305.5496" x2="126.62676" y2="334.38595" gradientUnits="userSpaceOnUse" id="color-12"><stop offset="0" stop-color="#8cff2e"/><stop offset="1" stop-color="#65df00"/></linearGradient><linearGradient x1="110.86888" y1="321.30748" x2="110.86888" y2="350.14383" gradientUnits="userSpaceOnUse" id="color-13"><stop offset="0" stop-color="#8cff2e"/><stop offset="1" stop-color="#65df00"/></linearGradient><linearGradient x1="139.38314" y1="283.03834" x2="139.38314" y2="311.87469" gradientUnits="userSpaceOnUse" id="color-14"><stop offset="0" stop-color="#8cff2e"/><stop offset="1" stop-color="#65df00"/></linearGradient><linearGradient x1="156.64177" y1="305.5496" x2="156.64177" y2="334.38595" gradientUnits="userSpaceOnUse" id="color-15"><stop offset="0" stop-color="#8cff2e"/><stop offset="1" stop-color="#65df00"/></linearGradient><linearGradient x1="140.88389" y1="321.30748" x2="140.88389" y2="350.14383" gradientUnits="userSpaceOnUse" id="color-16"><stop offset="0" stop-color="#8cff2e"/><stop offset="1" stop-color="#65df00"/></linearGradient><linearGradient x1="176.15152" y1="285.28947" x2="176.15152" y2="314.12582" gradientUnits="userSpaceOnUse" id="color-17"><stop offset="0" stop-color="#8cff2e"/><stop offset="1" stop-color="#65df00"/></linearGradient><linearGradient x1="200.91303" y1="314.14932" x2="200.91303" y2="342.98567" gradientUnits="userSpaceOnUse" id="color-18"><stop offset="0" stop-color="#8cff2e"/><stop offset="1" stop-color="#65df00"/></linearGradient><linearGradient x1="177.65227" y1="323.5586" x2="177.65227" y2="352.39495" gradientUnits="userSpaceOnUse" id="color-19"><stop offset="0" stop-color="#8cff2e"/><stop offset="1" stop-color="#65df00"/></linearGradient><linearGradient x1="448.53772" y1="283.03834" x2="448.53772" y2="311.87469" gradientUnits="userSpaceOnUse" id="color-20"><stop offset="0" stop-color="#8cff2e"/><stop offset="1" stop-color="#65df00"/></linearGradient><linearGradient x1="465.79635" y1="305.5496" x2="465.79635" y2="334.38595" gradientUnits="userSpaceOnUse" id="color-21"><stop offset="0" stop-color="#8cff2e"/><stop offset="1" stop-color="#65df00"/></linearGradient><linearGradient x1="450.03847" y1="321.30748" x2="450.03847" y2="350.14383" gradientUnits="userSpaceOnUse" id="color-22"><stop offset="0" stop-color="#8cff2e"/><stop offset="1" stop-color="#65df00"/></linearGradient><linearGradient x1="482.3046" y1="285.28947" x2="482.3046" y2="314.12582" gradientUnits="userSpaceOnUse" id="color-23"><stop offset="0" stop-color="#8cff2e"/><stop offset="1" stop-color="#65df00"/></linearGradient><linearGradient x1="499.56323" y1="307.80072" x2="499.56323" y2="336.63707" gradientUnits="userSpaceOnUse" id="color-24"><stop offset="0" stop-color="#8cff2e"/><stop offset="1" stop-color="#65df00"/></linearGradient><linearGradient x1="483.80535" y1="323.5586" x2="483.80535" y2="352.39495" gradientUnits="userSpaceOnUse" id="color-25"><stop offset="0" stop-color="#8cff2e"/><stop offset="1" stop-color="#65df00"/></linearGradient><linearGradient x1="512.31961" y1="285.28947" x2="512.31961" y2="314.12582" gradientUnits="userSpaceOnUse" id="color-26"><stop offset="0" stop-color="#8cff2e"/><stop offset="1" stop-color="#65df00"/></linearGradient><linearGradient x1="529.57824" y1="307.80072" x2="529.57824" y2="336.63707" gradientUnits="userSpaceOnUse" id="color-27"><stop offset="0" stop-color="#8cff2e"/><stop offset="1" stop-color="#65df00"/></linearGradient><linearGradient x1="513.82036" y1="323.5586" x2="513.82036" y2="352.39495" gradientUnits="userSpaceOnUse" id="color-28"><stop offset="0" stop-color="#8cff2e"/><stop offset="1" stop-color="#65df00"/></linearGradient><linearGradient x1="546.0865" y1="283.03834" x2="546.0865" y2="311.87469" gradientUnits="userSpaceOnUse" id="color-29"><stop offset="0" stop-color="#8cff2e"/><stop offset="1" stop-color="#65df00"/></linearGradient><linearGradient x1="563.34513" y1="305.5496" x2="563.34513" y2="334.38595" gradientUnits="userSpaceOnUse" id="color-30"><stop offset="0" stop-color="#8cff2e"/><stop offset="1" stop-color="#65df00"/></linearGradient><linearGradient x1="547.58725" y1="321.30748" x2="547.58725" y2="350.14383" gradientUnits="userSpaceOnUse" id="color-31"><stop offset="0" stop-color="#8cff2e"/><stop offset="1" stop-color="#65df00"/></linearGradient><linearGradient x1="593.36013" y1="283.78872" x2="593.36013" y2="312.62507" gradientUnits="userSpaceOnUse" id="color-32"><stop offset="0" stop-color="#8cff2e"/><stop offset="1" stop-color="#65df00"/></linearGradient><linearGradient x1="610.61876" y1="306.29997" x2="610.61876" y2="335.13632" gradientUnits="userSpaceOnUse" id="color-33"><stop offset="0" stop-color="#8cff2e"/><stop offset="1" stop-color="#65df00"/></linearGradient><linearGradient x1="594.86088" y1="322.05785" x2="594.86088" y2="350.8942" gradientUnits="userSpaceOnUse" id="color-34"><stop offset="0" stop-color="#8cff2e"/><stop offset="1" stop-color="#65df00"/></linearGradient><radialGradient cx="181.54643" cy="285.31212" r="2.51263" gradientUnits="userSpaceOnUse" id="color-35"><stop offset="0" stop-color="#00b8ff" stop-opacity="0.59608"/><stop offset="1" stop-color="#00e8ff" stop-opacity="0.30588"/></radialGradient><radialGradient cx="180.71406" cy="277.65996" r="2.51263" gradientUnits="userSpaceOnUse" id="color-36"><stop offset="0" stop-color="#00b8ff" stop-opacity="0.59608"/><stop offset="1" stop-color="#00e8ff" stop-opacity="0.30588"/></radialGradient><radialGradient cx="157.72284" cy="296.46375" r="2.51262" gradientUnits="userSpaceOnUse" id="color-37"><stop offset="0" stop-color="#00b8ff" stop-opacity="0.59608"/><stop offset="1" stop-color="#00e8ff" stop-opacity="0.30588"/></radialGradient><radialGradient cx="163.3691" cy="298.62847" r="2.51262" gradientUnits="userSpaceOnUse" id="color-38"><stop offset="0" stop-color="#00b8ff" stop-opacity="0.59608"/><stop offset="1" stop-color="#00e8ff" stop-opacity="0.30588"/></radialGradient><radialGradient cx="166.79026" cy="284.12191" r="19.72092" gradientUnits="userSpaceOnUse" id="color-39"><stop offset="0" stop-color="#00b8ff" stop-opacity="0.59608"/><stop offset="1" stop-color="#00e8ff" stop-opacity="0.30588"/></radialGradient><radialGradient cx="166.79026" cy="284.12191" r="19.72092" gradientUnits="userSpaceOnUse" id="color-40"><stop offset="0" stop-color="#00b8ff" stop-opacity="0.59608"/><stop offset="1" stop-color="#00e8ff" stop-opacity="0.30588"/></radialGradient><radialGradient cx="166.79026" cy="284.12191" r="19.72092" gradientUnits="userSpaceOnUse" id="color-41"><stop offset="0" stop-color="#00b8ff" stop-opacity="0.59608"/><stop offset="1" stop-color="#00e8ff" stop-opacity="0.30588"/></radialGradient><radialGradient cx="145.7945" cy="291.83072" r="10.23801" gradientUnits="userSpaceOnUse" id="color-42"><stop offset="0" stop-color="#00b8ff" stop-opacity="0.59608"/><stop offset="1" stop-color="#00e8ff" stop-opacity="0.30588"/></radialGradient><radialGradient cx="140.26666" cy="300.80891" r="4.12521" gradientUnits="userSpaceOnUse" id="color-43"><stop offset="0" stop-color="#00b8ff" stop-opacity="0.59608"/><stop offset="1" stop-color="#00e8ff" stop-opacity="0.30588"/></radialGradient><radialGradient cx="140.06937" cy="294.30167" r="0.69449" gradientUnits="userSpaceOnUse" id="color-44"><stop offset="0" stop-color="#00b8ff" stop-opacity="0.59608"/><stop offset="1" stop-color="#00e8ff" stop-opacity="0.30588"/></radialGradient><radialGradient cx="85.24934" cy="348.68831" r="2.51263" gradientUnits="userSpaceOnUse" id="color-45"><stop offset="0" stop-color="#00b8ff" stop-opacity="0.59608"/><stop offset="1" stop-color="#00e8ff" stop-opacity="0.30588"/></radialGradient><radialGradient cx="79.5089" cy="343.56037" r="2.51263" gradientUnits="userSpaceOnUse" id="color-46"><stop offset="0" stop-color="#00b8ff" stop-opacity="0.59608"/><stop offset="1" stop-color="#00e8ff" stop-opacity="0.30588"/></radialGradient><radialGradient cx="108.17746" cy="335.79556" r="2.51262" gradientUnits="userSpaceOnUse" id="color-47"><stop offset="0" stop-color="#00b8ff" stop-opacity="0.59608"/><stop offset="1" stop-color="#00e8ff" stop-opacity="0.30588"/></radialGradient><radialGradient cx="106.6542" cy="341.64756" r="2.51262" gradientUnits="userSpaceOnUse" id="color-48"><stop offset="0" stop-color="#00b8ff" stop-opacity="0.59608"/><stop offset="1" stop-color="#00e8ff" stop-opacity="0.30588"/></radialGradient><radialGradient cx="92.86406" cy="335.99277" r="19.72092" gradientUnits="userSpaceOnUse" id="color-49"><stop offset="0" stop-color="#00b8ff" stop-opacity="0.59608"/><stop offset="1" stop-color="#00e8ff" stop-opacity="0.30588"/></radialGradient><radialGradient cx="92.86406" cy="335.99277" r="19.72092" gradientUnits="userSpaceOnUse" id="color-50"><stop offset="0" stop-color="#00b8ff" stop-opacity="0.59608"/><stop offset="1" stop-color="#00e8ff" stop-opacity="0.30588"/></radialGradient><radialGradient cx="92.86406" cy="335.99277" r="19.72092" gradientUnits="userSpaceOnUse" id="color-51"><stop offset="0" stop-color="#00b8ff" stop-opacity="0.59608"/><stop offset="1" stop-color="#00e8ff" stop-opacity="0.30588"/></radialGradient><radialGradient cx="111.34686" cy="323.39777" r="10.23801" gradientUnits="userSpaceOnUse" id="color-52"><stop offset="0" stop-color="#00b8ff" stop-opacity="0.59608"/><stop offset="1" stop-color="#00e8ff" stop-opacity="0.30588"/></radialGradient><radialGradient cx="121.86534" cy="324.12334" r="4.12521" gradientUnits="userSpaceOnUse" id="color-53"><stop offset="0" stop-color="#00b8ff" stop-opacity="0.59608"/><stop offset="1" stop-color="#00e8ff" stop-opacity="0.30588"/></radialGradient><radialGradient cx="116.68684" cy="320.17794" r="0.69449" gradientUnits="userSpaceOnUse" id="color-54"><stop offset="0" stop-color="#00b8ff" stop-opacity="0.59608"/><stop offset="1" stop-color="#00e8ff" stop-opacity="0.30588"/></radialGradient><radialGradient cx="566.39938" cy="326.79253" r="2.51263" gradientUnits="userSpaceOnUse" id="color-55"><stop offset="0" stop-color="#00b8ff" stop-opacity="0.59608"/><stop offset="1" stop-color="#00e8ff" stop-opacity="0.30588"/></radialGradient><radialGradient cx="570.59959" cy="320.34221" r="2.51263" gradientUnits="userSpaceOnUse" id="color-56"><stop offset="0" stop-color="#00b8ff" stop-opacity="0.59608"/><stop offset="1" stop-color="#00e8ff" stop-opacity="0.30588"/></radialGradient><radialGradient cx="540.8981" cy="320.34221" r="2.51262" gradientUnits="userSpaceOnUse" id="color-57"><stop offset="0" stop-color="#00b8ff" stop-opacity="0.59608"/><stop offset="1" stop-color="#00e8ff" stop-opacity="0.30588"/></radialGradient><radialGradient cx="543.89826" cy="325.59247" r="2.51262" gradientUnits="userSpaceOnUse" id="color-58"><stop offset="0" stop-color="#00b8ff" stop-opacity="0.59608"/><stop offset="1" stop-color="#00e8ff" stop-opacity="0.30588"/></radialGradient><radialGradient cx="555.7305" cy="316.5292" r="19.72092" gradientUnits="userSpaceOnUse" id="color-59"><stop offset="0" stop-color="#00b8ff" stop-opacity="0.59608"/><stop offset="1" stop-color="#00e8ff" stop-opacity="0.30588"/></radialGradient><radialGradient cx="555.7305" cy="316.5292" r="19.72092" gradientUnits="userSpaceOnUse" id="color-60"><stop offset="0" stop-color="#00b8ff" stop-opacity="0.59608"/><stop offset="1" stop-color="#00e8ff" stop-opacity="0.30588"/></radialGradient><radialGradient cx="555.7305" cy="316.5292" r="19.72092" gradientUnits="userSpaceOnUse" id="color-61"><stop offset="0" stop-color="#00b8ff" stop-opacity="0.59608"/><stop offset="1" stop-color="#00e8ff" stop-opacity="0.30588"/></radialGradient><radialGradient cx="534.59779" cy="309.20415" r="10.23801" gradientUnits="userSpaceOnUse" id="color-62"><stop offset="0" stop-color="#00b8ff" stop-opacity="0.59608"/><stop offset="1" stop-color="#00e8ff" stop-opacity="0.30588"/></radialGradient><radialGradient cx="524.63479" cy="312.65432" r="4.12521" gradientUnits="userSpaceOnUse" id="color-63"><stop offset="0" stop-color="#00b8ff" stop-opacity="0.59608"/><stop offset="1" stop-color="#00e8ff" stop-opacity="0.30588"/></radialGradient><radialGradient cx="528.60176" cy="307.49232" r="0.69449" gradientUnits="userSpaceOnUse" id="color-64"><stop offset="0" stop-color="#00b8ff" stop-opacity="0.59608"/><stop offset="1" stop-color="#00e8ff" stop-opacity="0.30588"/></radialGradient></defs><g transform="translate(75.15376,48.83632)"><g stroke-miterlimit="10"><path d="M-56.39206,-9.41193c0,-36.28004 25.65844,-39.42439 61.93848,-39.42439c36.28004,0 660.43754,22.84419 660.43754,59.12423c0,36.28004 78.46916,439.14416 42.18912,439.14416c-36.28004,0 -783.32684,13.6462 -783.32684,-22.63382z" fill="#13d8e8" stroke="none" stroke-width="0.5" stroke-linecap="butt"/><path d="M-15.36163,393.84451v-102.63172h669.6894v102.63172z" fill="#77e813" stroke="none" stroke-width="0" stroke-linecap="butt"/><path d="M207.7321,304.94474c0,-18.64997 48.29844,-33.76876 107.87758,-33.76876c59.57914,0 107.87758,15.11879 107.87758,33.76876c0,18.64997 -48.29844,33.76876 -107.87758,33.76876c-59.57914,0 -107.87758,-15.11879 -107.87758,-33.76876z" fill="#79440c" stroke="url(#color-1)" stroke-width="0" stroke-linecap="butt"/><path d="M16.3216,271.78275v28.83631" fill="none" stroke="url(#color-2)" stroke-width="15" stroke-linecap="round"/><path d="M33.58023,323.13032v-28.83631" fill="none" stroke="url(#color-3)" stroke-width="15" stroke-linecap="round"/><path d="M17.82235,338.8882v-28.83631" fill="none" stroke="url(#color-4)" stroke-width="15" stroke-linecap="round"/><path d="M47.83736,305.12131v-28.83631" fill="none" stroke="url(#color-5)" stroke-width="15" stroke-linecap="round"/><path d="M63.59524,298.79626v28.83631" fill="none" stroke="url(#color-6)" stroke-width="15" stroke-linecap="round"/><path d="M49.20761,343.39045v-28.83631" fill="none" stroke="url(#color-7)" stroke-width="15" stroke-linecap="round"/><path d="M75.60124,308.87318v-28.83631" fill="none" stroke="url(#color-8)" stroke-width="15" stroke-linecap="round"/><path d="M92.85987,331.38444v-28.83631" fill="none" stroke="url(#color-9)" stroke-width="15" stroke-linecap="round"/><path d="M77.10199,347.14232v-28.83631" fill="none" stroke="url(#color-10)" stroke-width="15" stroke-linecap="round"/><path d="M109.36813,311.87469v-28.83631" fill="none" stroke="url(#color-11)" stroke-width="15" stroke-linecap="round"/><path d="M126.62676,334.38595v-28.83631" fill="none" stroke="url(#color-12)" stroke-width="15" stroke-linecap="round"/><path d="M110.86888,350.14383v-28.83631" fill="none" stroke="url(#color-13)" stroke-width="15" stroke-linecap="round"/><path d="M139.38314,311.87469v-28.83631" fill="none" stroke="url(#color-14)" stroke-width="15" stroke-linecap="round"/><path d="M156.64177,334.38595v-28.83631" fill="none" stroke="url(#color-15)" stroke-width="15" stroke-linecap="round"/><path d="M140.88389,321.30752v28.83631" fill="none" stroke="url(#color-16)" stroke-width="15" stroke-linecap="round"/><path d="M176.15152,314.12582v-28.83631" fill="none" stroke="url(#color-17)" stroke-width="15" stroke-linecap="round"/><path d="M200.91303,314.14936v28.83631" fill="none" stroke="url(#color-18)" stroke-width="15" stroke-linecap="round"/><path d="M177.65227,352.39495v-28.83631" fill="none" stroke="url(#color-19)" stroke-width="15" stroke-linecap="round"/><path d="M448.53772,283.03838v28.83631" fill="none" stroke="url(#color-20)" stroke-width="15" stroke-linecap="round"/><path d="M465.79635,334.38595v-28.83631" fill="none" stroke="url(#color-21)" stroke-width="15" stroke-linecap="round"/><path d="M450.03847,350.14383v-28.83631" fill="none" stroke="url(#color-22)" stroke-width="15" stroke-linecap="round"/><path d="M482.3046,285.28951v28.83631" fill="none" stroke="url(#color-23)" stroke-width="15" stroke-linecap="round"/><path d="M499.56323,307.80076v28.83631" fill="none" stroke="url(#color-24)" stroke-width="15" stroke-linecap="round"/><path d="M483.80535,352.39495v-28.83631" fill="none" stroke="url(#color-25)" stroke-width="15" stroke-linecap="round"/><path d="M512.31961,314.12582v-28.83631" fill="none" stroke="url(#color-26)" stroke-width="15" stroke-linecap="round"/><path d="M529.57824,336.63707v-28.83631" fill="none" stroke="url(#color-27)" stroke-width="15" stroke-linecap="round"/><path d="M513.82036,352.39495v-28.83631" fill="none" stroke="url(#color-28)" stroke-width="15" stroke-linecap="round"/><path d="M546.0865,283.03838v28.83631" fill="none" stroke="url(#color-29)" stroke-width="15" stroke-linecap="round"/><path d="M563.34513,334.38595v-28.83631" fill="none" stroke="url(#color-30)" stroke-width="15" stroke-linecap="round"/><path d="M547.58725,350.14383v-28.83631" fill="none" stroke="url(#color-31)" stroke-width="15" stroke-linecap="round"/><path d="M593.36013,312.62507v-28.83631" fill="none" stroke="url(#color-32)" stroke-width="15" stroke-linecap="round"/><path d="M610.61876,306.30001v28.83631" fill="none" stroke="url(#color-33)" stroke-width="15" stroke-linecap="round"/><path d="M594.86088,350.8942v-28.83631" fill="none" stroke="url(#color-34)" stroke-width="15" stroke-linecap="round"/><g stroke-width="0" stroke-linecap="butt"><g><path d="M185.06013,292.59709l-10.65151,-11.08871l3.62411,-3.48123l10.65151,11.08871z" fill="#27ff00" stroke="url(#color-35)"/><path d="M184.98828,284.5264l-11.77857,-9.88331l3.23015,-3.84957l11.77856,9.88331z" fill="#23e400" stroke="url(#color-36)"/><path d="M161.60715,303.55805l-11.20858,-10.52531l3.43998,-3.66329l11.20857,10.5253z" fill="#22e100" stroke="url(#color-37)"/><path d="M164.39988,306.6506l-6.60028,-13.88707l4.5387,-2.15716l6.60027,13.88706z" fill="#27ff00" stroke="url(#color-38)"/><path d="M172.99455,291.70783c-8.4309,6.89536 -18.04325,9.08883 -21.46978,4.89924c-3.42654,-4.18959 0.6303,-13.17572 9.06121,-20.07109c8.4309,-6.89536 18.04325,-9.08883 21.46978,-4.89924c3.42653,4.18959 -0.6303,13.17572 -9.06121,20.07109z" fill="#27ff00" stroke="url(#color-39)"/><path d="M182.05575,271.63673c0.25838,0.31592 -14.45,12.85249 -14.83757,13.37102c-0.3556,0.47575 -6.84014,-8.06956 -6.99604,-8.17419c8.42831,-6.88842 18.40855,-9.38462 21.83362,-5.19681z" fill="#23e300" stroke="url(#color-40)"/><path d="M172.99455,291.70783c-0.23894,0.19542 -7.39928,-7.64784 -6.80874,-7.98278c2.78552,-1.57987 14.88347,-13.29447 15.86995,-12.08831c3.42653,4.18959 -0.6303,13.17572 -9.06121,20.07109z" fill="#25f000" stroke="url(#color-41)"/></g><path d="M150.59042,297.69464c-4.37686,3.57969 -10.07221,3.85623 -12.72092,0.61769c-2.64871,-3.23855 -1.24777,-8.76583 3.12908,-12.34553c4.37686,-3.57969 10.07221,-3.85623 12.72092,-0.61769c2.64871,3.23855 1.24777,8.76583 -3.12908,12.34553z" fill="#9bff88" stroke="url(#color-42)"/><path d="M140.98254,301.78078c-0.9972,0.97589 -2.72201,3.09125 -2.72201,3.09125c0,0 -1.00601,-0.18684 -1.1453,-0.7569c-0.01991,-0.08147 0.42375,0.06028 0.48415,-0.08099c0.04657,-0.10892 -0.26066,-0.35964 -0.18743,-0.48709c0.05748,-0.10003 0.49209,-0.07466 0.55593,-0.17796c0.04033,-0.06525 -0.24538,-0.16314 -0.20541,-0.22736c0.03947,-0.06341 0.40462,-0.09318 0.44158,-0.15385c0.03764,-0.06177 -0.13693,-0.216 -0.10414,-0.27311c0.07188,-0.1252 0.36435,0.0074 0.44943,-0.05701c0.08052,-0.06097 -0.04345,-0.3213 -0.07146,-0.35555c-0.01598,-0.01954 -0.29923,-0.23778 -0.58004,-0.16482c-0.09618,0.02499 -0.11849,0.31785 -0.22951,0.34746c-0.05121,0.01366 -0.10359,0.02763 -0.15668,0.04178c-0.06248,0.01664 -0.24197,-0.27118 -0.30581,-0.25434c-0.07485,0.01973 -0.03417,0.34412 -0.10892,0.36338c-0.07584,0.01954 -0.2725,-0.39481 -0.34603,-0.37662c-0.10528,0.02604 -0.08562,0.48369 -0.18061,0.50483c-0.11658,0.02595 -0.20657,-0.29912 -0.2967,-0.28477c-0.12725,0.02025 -0.2385,0.37298 -0.28395,0.3589c-0.3773,-0.11681 -0.10332,-0.86894 -0.10332,-0.86894c0,0 2.57827,-1.30978 3.69797,-2.12445c1.01673,-0.73975 2.74115,-2.56054 2.74115,-2.56054l1.96282,1.68909c0,0 -2.29389,1.8174 -3.30572,2.80759z" fill="#88e477" stroke="url(#color-43)"/><path d="M140.50905,294.83926c-0.2969,0.24282 -0.73444,0.19899 -0.97726,-0.09791c-0.24282,-0.2969 -0.19899,-0.73443 0.09792,-0.97726c0.2969,-0.24282 0.73442,-0.19899 0.97725,0.09791c0.24282,0.2969 0.199,0.73443 -0.0979,0.97726z" fill="#5d554f" stroke="url(#color-44)"/></g><g stroke-width="0" stroke-linecap="butt"><g><path d="M84.19176,356.70694l-2.82458,-15.1141l4.93973,-0.92315l2.82458,15.1141z" fill="#27ff00" stroke="url(#color-45)"/><path d="M77.59805,351.41947l-1.18852,-15.32976l5.01021,-0.38844l1.18851,15.32977z" fill="#23e400" stroke="url(#color-46)"/><path d="M106.70822,343.74906l-2.04227,-15.23953l4.98073,-0.66748l2.04227,15.23954z" fill="#22e100" stroke="url(#color-47)"/><path d="M108.18552,349.58934l-7.45727,-13.44631l4.39465,-2.43726l7.45727,13.44632z" fill="#27ff00" stroke="url(#color-48)"/><path d="M73.82897,341.14837c-1.41495,-5.22414 5.96031,-11.7674 16.47309,-14.61476c10.51279,-2.84737 20.18212,-0.92061 21.59707,4.30355c1.41495,5.22414 -5.96031,11.7674 -16.47309,14.61476c-10.51279,2.84737 -20.18213,0.9206 -21.59707,-4.30355z" fill="#27ff00" stroke="url(#color-49)"/><path d="M73.82897,341.14837c-1.41435,-5.22192 6.42115,-11.88834 16.92678,-14.73764c-0.00557,0.18768 3.17382,10.43283 2.57999,10.44537c-0.64723,0.01367 -19.40007,4.6862 -19.50677,4.29227z" fill="#23e300" stroke="url(#color-50)"/><path d="M73.82897,341.14837c-0.40736,-1.504 16.15852,-4.5312 19.06385,-5.87812c0.61594,-0.28555 2.83117,10.10097 2.53323,10.18167c-10.51279,2.84737 -20.18213,0.9206 -21.59707,-4.30355z" fill="#25f000" stroke="url(#color-51)"/></g><path d="M101.46489,326.07428c-1.09375,-4.03826 2.44388,-8.51024 7.90154,-9.98844c5.45766,-1.47819 10.76863,0.59716 11.86238,4.63542c1.09375,4.03826 -2.44388,8.51024 -7.90154,9.98844c-5.45766,1.47819 -10.76863,-0.59716 -11.86238,-4.63542z" fill="#9bff88" stroke="url(#color-52)"/><path d="M118.03294,326.32694l-0.23231,-2.57909c0,0 2.48411,-0.34366 3.67723,-0.74043c1.31395,-0.43696 3.87903,-1.7724 3.87903,-1.7724c0,0 0.77117,0.21461 0.64673,0.58947c-0.01499,0.04516 -0.36662,-0.06951 -0.45711,0.02222c-0.0641,0.06497 0.14799,0.32724 0.05907,0.40698c-0.07244,0.06497 -0.43328,-0.21721 -0.5157,-0.14672c-0.05757,0.04923 0.1651,0.45021 0.10509,0.50053c-0.05915,0.0496 -0.29936,-0.17217 -0.35895,-0.12276c-0.05083,0.04213 0.07889,0.35555 0.02902,0.39669c-0.04239,0.03496 -0.08422,0.06943 -0.12512,0.10315c-0.08866,0.07309 -0.33986,-0.07911 -0.41613,-0.01541c-0.22268,0.18598 -0.20991,0.54333 -0.20331,0.56769c0.01157,0.0427 0.15122,0.29496 0.24765,0.26493c0.10188,-0.03174 0.16413,-0.34678 0.30778,-0.33242c0.06552,0.00655 0.08945,0.23825 0.16158,0.24357c0.07085,0.00522 0.30745,-0.27449 0.38199,-0.26971c0.07549,0.00484 -0.01107,0.29418 0.06547,0.29933c0.12117,0.00816 0.35332,-0.36013 0.46812,-0.34871c0.14627,0.01456 0.17151,0.4103 0.2872,0.43577c0.15004,0.03303 0.29279,-0.4103 0.34748,-0.34672c0.38269,0.44488 -0.05047,1.37188 -0.05047,1.37188c0,0 -2.72395,0.17263 -4.0978,0.41617c-1.39398,0.24712 -4.20657,1.05598 -4.20657,1.05598z" fill="#88e477" stroke="url(#color-53)"/><path d="M116.01651,320.3595c-0.10027,-0.37022 0.11856,-0.75161 0.48877,-0.85188c0.37022,-0.10027 0.75162,0.11856 0.85189,0.48877c0.10027,0.37022 -0.11857,0.75163 -0.48878,0.8519c-0.37022,0.10027 -0.75162,-0.11857 -0.85189,-0.48878z" fill="#5d554f" stroke="url(#color-54)"/></g><g stroke-width="0" stroke-linecap="butt"><g><path d="M564.50719,334.65615l-1.2249,-15.3269l5.00928,-0.40034l1.2249,15.3269z" fill="#27ff00" stroke="url(#color-55)"/><path d="M569.56107,328.36333l-2.86046,-15.10736l4.93752,-0.93488l2.86045,15.10735z" fill="#23e400" stroke="url(#color-56)"/><path d="M539.4135,328.29286l-2.0128,-15.24346l4.98201,-0.65784l2.0128,15.24345z" fill="#22e100" stroke="url(#color-57)"/><path d="M539.61742,332.45479l3.68268,-14.92824l4.87898,1.20361l-3.68268,14.92823z" fill="#27ff00" stroke="url(#color-58)"/><path d="M555.7305,326.32917c-10.89156,0 -19.72092,-4.3876 -19.72092,-9.79997c0,-5.41238 8.82935,-9.79997 19.72092,-9.79997c10.89156,0 19.72092,4.3876 19.72092,9.79997c0,5.41237 -8.82935,9.79997 -19.72092,9.79997z" fill="#27ff00" stroke="url(#color-59)"/><path d="M575.45142,316.52919c0,0.40813 -19.32221,0.80062 -19.9505,0.95663c-0.57646,0.14314 -0.18601,-10.57689 -0.24045,-10.75659c10.88516,0.00374 20.19095,4.3899 20.19095,9.79997z" fill="#23e300" stroke="url(#color-60)"/><path d="M555.7305,326.32917c-0.30868,0 -0.88582,-10.60444 -0.21665,-10.48984c3.15641,0.54055 19.93757,-0.86832 19.93757,0.68987c0,5.41237 -8.82935,9.79997 -19.72092,9.79997z" fill="#25f000" stroke="url(#color-61)"/></g><path d="M534.59779,316.77953c-5.6543,0 -10.23801,-3.39162 -10.23801,-7.57538c0,-4.18376 4.58371,-7.57538 10.23801,-7.57538c5.6543,0 10.23801,3.39162 10.23801,7.57538c0,4.18376 -4.58371,7.57538 -10.23801,7.57538z" fill="#9bff88" stroke="url(#color-62)"/><path d="M524.57366,313.85984c-1.38974,0.12409 -4.06409,0.66958 -4.06409,0.66958c0,0 -0.66044,-0.78152 -0.40736,-1.31098c0.03617,-0.07567 0.28985,0.31493 0.42604,0.24382c0.10501,-0.05483 0.02591,-0.44341 0.16329,-0.4957c0.10782,-0.04104 0.42818,0.25375 0.543,0.2142c0.07253,-0.02498 -0.08666,-0.28163 -0.01506,-0.30604c0.0707,-0.0241 0.3722,0.18403 0.43922,0.16047c0.06824,-0.02399 0.03076,-0.25389 0.09229,-0.27734c0.1349,-0.05141 0.27735,0.2364 0.38398,0.2404c0.10093,0.00378 0.16978,-0.27622 0.16978,-0.32046c0,-0.02524 -0.08109,-0.3735 -0.34465,-0.4948c-0.09027,-0.04155 -0.29295,0.17103 -0.39763,0.12366c-0.04829,-0.02185 -0.09768,-0.04419 -0.14773,-0.06685c-0.0589,-0.02667 -0.01562,-0.3631 -0.0757,-0.39048c-0.07043,-0.03211 -0.24431,0.24474 -0.31437,0.21233c-0.07108,-0.03289 0.03902,-0.47813 -0.02942,-0.5106c-0.09798,-0.04649 -0.3725,0.32021 -0.45941,0.27644c-0.10667,-0.05372 0.02947,-0.36232 -0.04938,-0.40827c-0.11132,-0.06489 -0.42075,0.13772 -0.44702,0.09805c-0.21811,-0.32929 0.47014,-0.73804 0.47014,-0.73804c0,0 2.82499,0.61841 4.20748,0.69667c1.25536,0.07106 3.74292,-0.24665 3.74292,-0.24665l0.45002,2.55013c0,0 -2.92623,-0.04544 -4.33634,0.08046z" fill="#88e477" stroke="url(#color-63)"/><path d="M528.60176,308.18681c-0.38355,0 -0.69449,-0.31093 -0.69449,-0.69449c0,-0.38355 0.31093,-0.69448 0.69449,-0.69448c0.38355,0 0.69448,0.31092 0.69448,0.69448c0,0.38355 -0.31092,0.69449 -0.69448,0.69449z" fill="#5d554f" stroke="url(#color-64)"/></g></g></g></svg>