<svg version="1.1" xmlns="http://www.w3.org/2000/svg" xmlns:xlink="http://www.w3.org/1999/xlink" width="49.92074" height="49.92074" viewBox="0,0,49.92074,49.92074"><defs><radialGradient cx="320" cy="180" r="24.226" gradientUnits="userSpaceOnUse" id="color-1"><stop offset="0" stop-color="#fafafa"/><stop offset="1" stop-color="#ffffff"/></radialGradient><radialGradient cx="316.54256" cy="172.83442" r="4.70823" gradientUnits="userSpaceOnUse" id="color-2"><stop offset="0" stop-color="#ff00ff"/><stop offset="1" stop-color="#000000"/></radialGradient><radialGradient cx="323.45744" cy="172.83442" r="4.70822" gradientUnits="userSpaceOnUse" id="color-3"><stop offset="0" stop-color="#ff00ff"/><stop offset="1" stop-color="#000000"/></radialGradient></defs><g transform="translate(-295.03963,-155.03963)"><g stroke="none" stroke-width="0" stroke-miterlimit="10"><path d="M295.03963,204.96037v-49.92074h49.92074v49.92074z" fill="#ff00ff"/><path d="M331.69533,180c0,13.06969 -5.23618,23.66478 -11.69533,23.66478c-6.45916,0 -11.69533,-10.59509 -11.69533,-23.66478c0,-13.06969 5.23618,-23.66478 11.69533,-23.66478c6.45916,0 11.69533,10.59509 11.69533,23.66478z" fill="url(#color-1)"/><path d="M318.8694,172.83441c0,2.60028 -1.04176,4.70822 -2.32684,4.70822c-1.28508,0 -2.32684,-2.10795 -2.32684,-4.70822c0,-2.60028 1.04176,-4.70822 2.32684,-4.70822c1.28508,0 2.32684,2.10795 2.32684,4.70822z" fill="url(#color-2)"/><path d="M325.78429,172.83441c0,2.60028 -1.04176,4.70822 -2.32684,4.70822c-1.28508,0 -2.32684,-2.10795 -2.32684,-4.70822c0,-2.60028 1.04176,-4.70822 2.32684,-4.70822c1.28508,0 2.32684,2.10795 2.32684,4.70822z" fill="url(#color-3)"/></g></g></svg>