<svg version="1.1" xmlns="http://www.w3.org/2000/svg" xmlns:xlink="http://www.w3.org/1999/xlink" width="19.51828" height="15.88726" viewBox="0,0,19.51828,15.88726"><defs><radialGradient cx="341.16668" cy="128.14111" r="7.94363" gradientUnits="userSpaceOnUse" id="color-1"><stop offset="0" stop-color="#ff00ff"/><stop offset="1" stop-color="#000000"/></radialGradient><radialGradient cx="329.50001" cy="128.14111" r="7.94363" gradientUnits="userSpaceOnUse" id="color-2"><stop offset="0" stop-color="#ff00ff"/><stop offset="1" stop-color="#000000"/></radialGradient></defs><g transform="translate(-325.5742,-120.19747)"><g stroke="none" stroke-width="0" stroke-miterlimit="10"><g><path d="M341.16668,120.19748c2.16817,0 3.92581,3.55649 3.92581,7.94363c0,4.38714 -1.75765,7.94363 -3.92581,7.94363c-2.16817,0 -3.92581,-3.55649 -3.92581,-7.94363c0,-4.38714 1.75765,-7.94363 3.92581,-7.94363z" fill="url(#color-1)"/><path d="M329.50001,120.19748c2.16817,0 3.92581,3.55649 3.92581,7.94363c0,4.38714 -1.75765,7.94363 -3.92581,7.94363c-2.16817,0 -3.92581,-3.55649 -3.92581,-7.94363c0,-4.38714 1.75765,-7.94363 3.92581,-7.94363z" fill="url(#color-2)"/></g></g></g></svg>