<svg version="1.1" xmlns="http://www.w3.org/2000/svg" xmlns:xlink="http://www.w3.org/1999/xlink" width="912.13678" height="696.65511" viewBox="0,0,912.13678,696.65511"><defs><radialGradient cx="319.8395" cy="180.41517" r="324.59923" gradientUnits="userSpaceOnUse" id="color-1"><stop offset="0" stop-color="#00b8ff" stop-opacity="0.59608"/><stop offset="1" stop-color="#00e8ff" stop-opacity="0.30588"/></radialGradient></defs><g transform="translate(41.25,45.53125)"><g stroke-miterlimit="10"><path d="M-40,391.71875v-436h726v436z" fill="#000000" stroke="#000000" stroke-width="2.5"/><path d="M-4.75972,364.88457v-368.93881h649.19845v368.93881z" fill="#000000" stroke="url(#color-1)" stroke-width="0"/><path d="M540.29722,97.17387c0,-2.07107 1.67893,-3.75 3.75,-3.75c2.07107,0 3.75,1.67893 3.75,3.75c0,2.07107 -1.67893,3.75 -3.75,3.75c-2.07107,0 -3.75,-1.67893 -3.75,-3.75z" fill="#ffffff" stroke="none" stroke-width="0.5"/><path d="M609.73468,124.78154c0,-2.07107 1.67893,-3.75 3.75,-3.75c2.07107,0 3.75,1.67893 3.75,3.75c0,2.07107 -1.67893,3.75 -3.75,3.75c-2.07107,0 -3.75,-1.67893 -3.75,-3.75z" fill="#ffffff" stroke="none" stroke-width="0.5"/><path d="M459.14741,89.64451c0,-2.07107 1.67893,-3.75 3.75,-3.75c2.07107,0 3.75,1.67893 3.75,3.75c0,2.07107 -1.67893,3.75 -3.75,3.75c-2.07107,0 -3.75,-1.67893 -3.75,-3.75z" fill="#ffffff" stroke="none" stroke-width="0.5"/><path d="M460.8206,137.33048c0,-2.07107 1.67893,-3.75 3.75,-3.75c2.07107,0 3.75,1.67893 3.75,3.75c0,2.07107 -1.67893,3.75 -3.75,3.75c-2.07107,0 -3.75,-1.67893 -3.75,-3.75z" fill="#ffffff" stroke="none" stroke-width="0.5"/><path d="M381.34399,162.42836c0,-2.07107 1.67893,-3.75 3.75,-3.75c2.07107,0 3.75,1.67893 3.75,3.75c0,2.07107 -1.67893,3.75 -3.75,3.75c-2.07107,0 -3.75,-1.67893 -3.75,-3.75z" fill="#ffffff" stroke="none" stroke-width="0.5"/><path d="M360.42909,210.11433c0,-2.07107 1.67893,-3.75 3.75,-3.75c2.07107,0 3.75,1.67893 3.75,3.75c0,2.07107 -1.67893,3.75 -3.75,3.75c-2.07107,0 -3.75,-1.67893 -3.75,-3.75z" fill="#ffffff" stroke="none" stroke-width="0.5"/><path d="M314.41632,241.90497c0,-2.07107 1.67893,-3.75 3.75,-3.75c2.07107,0 3.75,1.67893 3.75,3.75c0,2.07107 -1.67893,3.75 -3.75,3.75c-2.07107,0 -3.75,-1.67893 -3.75,-3.75z" fill="#ffffff" stroke="none" stroke-width="0.5"/><path d="M303.94418,305.88988c-1.7941,0 -2.72985,-0.85835 -3.21792,-1.75373c-1.08684,-0.2092 -3.04187,-0.96182 -3.04187,-3.66947c0,-3.75 3.75,-3.75 3.75,-3.75c0.83659,0 1.67319,0 2.50979,0l3.75,5.42319c0,0 0,3.75 -3.75,3.75z" fill="#ffffff" stroke="none" stroke-width="0.5"/><path d="M326.96525,325.56457c0,-2.07107 1.67893,-3.75 3.75,-3.75c2.07107,0 3.75,1.67893 3.75,3.75c0,2.07107 -1.67893,3.75 -3.75,3.75c-2.07107,0 -3.75,-1.67893 -3.75,-3.75z" fill="#ffffff" stroke="none" stroke-width="0.5"/><path d="M337.00441,273.69561c0,-2.07107 1.67893,-3.75 3.75,-3.75c2.07107,0 3.75,1.67893 3.75,3.75c0,2.07107 -1.67893,3.75 -3.75,3.75c-2.07107,0 -3.75,-1.67893 -3.75,-3.75z" fill="#ffffff" stroke="none" stroke-width="0.5"/><path d="M270.86659,351.11376c0,-165.691 134.31909,-300.0101 300.01009,-300.0101c165.69101,0 300.0101,134.31909 300.0101,300.0101c0,165.691 -134.31909,300.0101 -300.0101,300.0101c-165.69101,0 -300.01009,-134.31909 -300.01009,-300.0101z" fill-opacity="0.32549" fill="#ccfbff" stroke="none" stroke-width="50"/><path d="M358.02036,351.11376c0,-117.5573 95.29902,-212.85633 212.85632,-212.85633c117.55731,0 212.85633,95.29902 212.85633,212.85633c0,117.5573 -95.29902,212.85633 -212.85633,212.85633c-117.5573,0 -212.85632,-95.29902 -212.85632,-212.85633z" fill="#77e813" stroke="none" stroke-width="50"/><path d="M534.12925,216.73943c-1.70734,1.02532 -3.92734,1.69192 -6.81394,1.69192c-12.5,0 -12.5,-12.5 -12.5,-12.5l12.5,-14.17319c1.67319,0 3.34639,0 5.01958,0c1.22173,0 2.7959,-0.5894 4.14348,-0.79988c-0.7463,-1.53854 -1.61672,-3.03948 -2.05827,-4.66857c-0.71385,-0.26654 -1.38348,-0.58268 -1.3938,-1.23121c-0.10101,-6.34768 0.40151,-12.82636 2.1821,-18.92003c0.2088,-0.71458 1.58894,-0.97054 2.51095,-0.73125c5.08572,-7.23588 7.99218,-7.9495 18.04023,-7.9495c0,0 12.5,0 12.5,12.5c0,7.92938 -5.03001,10.82876 -8.70845,11.88891c0.11857,0.49455 0.21457,0.86103 0.28504,1.03722c2.40121,6.00302 4.94556,17.05326 1.08817,23.08955c-5.47114,8.56157 -17.10486,10.5603 -26.79507,10.76603z" fill="#13d8e8" stroke="none" stroke-width="0.5"/><path d="M425.29953,253.61731c0,-6.90356 5.59644,-12.5 12.5,-12.5c6.90356,0 12.5,5.59644 12.5,12.5c0,6.90356 -5.59644,12.5 -12.5,12.5c-6.90356,0 -12.5,-5.59644 -12.5,-12.5z" fill="#13d8e8" stroke="none" stroke-width="0.5"/><path d="M544.51798,269.48667c0.97546,-4.3236 -0.00063,-10.09533 4.07594,-13.83244c1.98548,-1.82015 4.70484,-2.83845 7.45503,-3.26407c0.28667,-0.38934 0.60739,-0.71964 0.91093,-0.91891c4.02832,-2.64453 9.68903,-2.84485 12.97977,-6.36508c5.55166,-0.78983 11.72766,-1.45962 17.0041,-2.5108c3.61464,-0.72011 7.3539,-6.17116 10.25033,-7.7737c0.50989,-0.28212 0.95534,-0.51715 1.34186,-0.70965c-0.13994,-2.617 -0.12534,-8.48214 -0.06105,-8.93896c0.97977,-6.96145 0.29004,-9.15698 5.30048,-11.94749c0.09686,-1.98801 0.30027,-4.08957 1.58596,-5.4999c7.67536,-8.41937 17.17622,-8.32206 27.36506,-8.43815c7.78054,0.30732 12.28647,-0.47545 18.65889,8.48253c2.99835,4.21492 -0.57791,10.68308 0.37247,15.40072c0.85714,4.25481 2.32344,8.26611 3.17341,12.51591c0.53359,2.66791 2.00341,7.97661 2.45917,11.40016c0.31671,0.39888 0.66023,0.93409 1.02793,1.63203c2.51645,4.77649 9.73812,32.58347 9.89844,37.16357c0.78023,1.56046 3.76217,14.56889 4.94921,21.69862c0.48947,0.45459 1.11213,1.40116 1.88427,3.04591c2.74388,5.84476 8.22767,32.05949 6.88644,38.36229c-0.99447,4.67332 -0.55255,10.23 -3.66117,13.85841c-2.58611,3.01853 -7.49167,2.70023 -11.34862,3.66116c-1.78031,0.44356 -6.842,0.91032 -5.49405,-0.33439c-11.97852,5.98926 -66.99048,2.84418 -84.02171,2.84418c-19.10952,0 -38.10371,-2.50979 -58.56172,-2.50979c-11.30674,-1.07781 -20.08622,3.80068 -31.42692,-2.82457c-1.32297,-0.77288 -0.56833,-3.13367 -1.51201,-4.34076c-0.21638,-0.27678 -0.48758,-0.52376 -0.79369,-0.75058c-6.54609,0.7233 -13.9423,0.38654 -18.97293,0.38654c-6.50995,0 -18.92255,1.35856 -21.89668,-6.60178c-2.13734,-5.72062 2.94773,-11.85266 4.42159,-17.77899c1.89911,-0.97003 6.39292,-2.95917 8.4604,-3.631c-0.15808,-0.20979 -0.23985,-0.4557 -0.09445,-0.55198c2.12932,-1.40995 8.20987,-3.88748 9.34437,-3.88872c1.94642,-1.73543 6.9872,-5.49184 12.78817,-7.27187c2.27292,-0.69745 8.94415,-2.47097 12.68723,-2.35517c0.32743,-0.29849 0.70107,-0.54691 1.01837,-0.68313c2.21762,-0.95202 4.7143,-1.09841 7.12149,-1.30712c0.44241,-0.80186 0.83496,-1.66437 1.61528,-2.07262c6.11277,-3.19806 13.20243,-3.81357 18.96177,-6.89174c-0.65755,-1.92645 -0.9773,-4.10144 -0.78413,-6.6215c0.69912,-9.1207 5.26829,-13.28637 11.6812,-15.79946c0.3908,-3.91323 0.67476,-8.59782 3.63995,-11.13824c2.04524,-1.75225 5.61414,-2.37627 9.3096,-2.89948z" fill="#13d8e8" stroke="none" stroke-width="0.5"/><path d="M394.29915,282.22546c-2.64608,-1.74327 -4.97324,-4.80957 -4.97324,-10.20303c0,-12.5 12.5,-12.5 12.5,-12.5l9.91803,1.86687c2.42239,3.70254 5.62357,6.99964 7.26717,11.1076c1.14378,2.85874 -0.53869,6.2399 0.17298,9.23559c0.69191,2.91253 2.40699,5.0839 1.73577,8.10799c0.97773,0.36563 1.97146,0.72791 2.73891,1.41247c1.80994,1.61446 3.10662,3.72535 4.65993,5.58803c0,0 7.80869,9.76086 -1.95217,17.56955c-9.76086,7.80869 -17.56955,-1.95217 -17.56955,-1.95217c-0.67761,-0.92597 -1.18321,-2.00674 -2.03283,-2.77793c-2.02116,-1.83457 -4.97206,-2.71493 -6.5061,-4.9727c-2.12843,-3.13259 -3.01539,-6.96957 -4.07796,-10.60471c-0.31295,-1.07066 0.21876,-2.25259 0,-3.34638c-0.34589,-1.72945 -1.36588,-3.28285 -1.67319,-5.01957c-0.20441,-1.15521 -0.22755,-2.33317 -0.20774,-3.51159z" fill="#13d8e8" stroke="none" stroke-width="0.5"/><path d="M494.28444,31.08279c0,-2.07107 1.67893,-3.75 3.75,-3.75c2.07107,0 3.75,1.67893 3.75,3.75c0,2.07107 -1.67893,3.75 -3.75,3.75c-2.07107,0 -3.75,-1.67893 -3.75,-3.75z" fill="#ffffff" stroke="none" stroke-width="0.5"/><path d="M347.88015,84.62493c0,-2.07107 1.67893,-3.75 3.75,-3.75c2.07107,0 3.75,1.67893 3.75,3.75c0,2.07107 -1.67893,3.75 -3.75,3.75c-2.07107,0 -3.75,-1.67893 -3.75,-3.75z" fill="#ffffff" stroke="none" stroke-width="0.5"/><path d="M398.07591,37.77556c0,-2.07107 1.67893,-3.75 3.75,-3.75c2.07107,0 3.75,1.67893 3.75,3.75c0,2.07107 -1.67893,3.75 -3.75,3.75c-2.07107,0 -3.75,-1.67893 -3.75,-3.75z" fill="#ffffff" stroke="none" stroke-width="0.5"/><path d="M244.14226,29.4096c0,-2.07107 1.67893,-3.75 3.75,-3.75c2.07107,0 3.75,1.67893 3.75,3.75c0,2.07107 -1.67893,3.75 -3.75,3.75c-2.07107,0 -3.75,-1.67893 -3.75,-3.75z" fill="#ffffff" stroke="none" stroke-width="0.5"/><path d="M274.23035,154.0624c0,3.75 -3.75,3.75 -3.75,3.75c-0.83659,0 -4.18298,0 -5.01957,0c0,0 -3.75,0 -3.75,-3.75c0,-3.75 3.75,-3.75 3.75,-3.75c0.83659,0 1.67319,0 2.50978,0h2.50979c0,0 3.75,0 3.75,3.75z" fill="#ffffff" stroke="none" stroke-width="0.5"/><path d="M200.63927,96.33728c0,-2.07107 1.67893,-3.75 3.75,-3.75c2.07107,0 3.75,1.67893 3.75,3.75c0,2.07107 -1.67893,3.75 -3.75,3.75c-2.07107,0 -3.75,-1.67893 -3.75,-3.75z" fill="#ffffff" stroke="none" stroke-width="0.5"/><path d="M95.22818,36.10237c0,-2.07107 1.67893,-3.75 3.75,-3.75c2.07107,0 3.75,1.67893 3.75,3.75c0,2.07107 -1.67893,3.75 -3.75,3.75c-2.07107,0 -3.75,-1.67893 -3.75,-3.75z" fill="#ffffff" stroke="none" stroke-width="0.5"/><path d="M134.54818,99.68366c0,-2.07107 1.67893,-3.75 3.75,-3.75c2.07107,0 3.75,1.67893 3.75,3.75c0,2.07107 -1.67893,3.75 -3.75,3.75c-2.07107,0 -3.75,-1.67893 -3.75,-3.75z" fill="#ffffff" stroke="none" stroke-width="0.5"/><path d="M45.03242,94.66409c0,-2.07107 1.67893,-3.75 3.75,-3.75c2.07107,0 3.75,1.67893 3.75,3.75c0,2.07107 -1.67893,3.75 -3.75,3.75c-2.07107,0 -3.75,-1.67893 -3.75,-3.75z" fill="#ffffff" stroke="none" stroke-width="0.5"/><path d="M24.95412,31.08279c0,-2.07107 1.67893,-3.75 3.75,-3.75c2.07107,0 3.75,1.67893 3.75,3.75c0,2.07107 -1.67893,3.75 -3.75,3.75c-2.07107,0 -3.75,-1.67893 -3.75,-3.75z" fill="#ffffff" stroke="none" stroke-width="0.5"/><path d="M172.19501,151.55261c0,-2.07107 1.67893,-3.75 3.75,-3.75c2.07107,0 3.75,1.67893 3.75,3.75c0,2.07107 -1.67893,3.75 -3.75,3.75c-2.07107,0 -3.75,-1.67893 -3.75,-3.75z" fill="#ffffff" stroke="none" stroke-width="0.5"/><path d="M88.53541,172.46751c0,-2.07107 1.67893,-3.75 3.75,-3.75c2.07107,0 3.75,1.67893 3.75,3.75c0,2.07107 -1.67893,3.75 -3.75,3.75c-2.07107,0 -3.75,-1.67893 -3.75,-3.75z" fill="#ffffff" stroke="none" stroke-width="0.5"/><path d="M28.3005,231.02922c0,-2.07107 1.67893,-3.75 3.75,-3.75c2.07107,0 3.75,1.67893 3.75,3.75c0,2.07107 -1.67893,3.75 -3.75,3.75c-2.07107,0 -3.75,-1.67893 -3.75,-3.75z" fill="#ffffff" stroke="none" stroke-width="0.5"/><path d="M214.0248,205.09475c0,-3.75 3.75,-3.75 3.75,-3.75h3.34638c0,0 3.75,0 3.75,3.75c0,3.75 -3.75,3.75 -3.75,3.75h-3.34638c0,0 -3.75,0 -3.75,-3.75z" fill="#ffffff" stroke="none" stroke-width="0.5"/><path d="M168.84862,241.90497c0,-2.07107 1.67893,-3.75 3.75,-3.75c2.07107,0 3.75,1.67893 3.75,3.75c0,2.07107 -1.67893,3.75 -3.75,3.75c-2.07107,0 -3.75,-1.67893 -3.75,-3.75z" fill="#ffffff" stroke="none" stroke-width="0.5"/><path d="M106.28135,256.55676c2.08012,3.12019 -1.04006,5.20031 -1.04006,5.20031l-2.50979,1.6732c0,0 -3.12019,2.08012 -5.20031,-1.04007c-2.08012,-3.12019 1.04006,-5.20031 1.04006,-5.20031l2.50979,-1.67319c0,0 3.12019,-2.08013 5.20032,1.04006z" fill="#ffffff" stroke="none" stroke-width="0.5"/><path d="M219.88097,313.01563c0,-2.07107 1.67893,-3.75 3.75,-3.75c2.07107,0 3.75,1.67893 3.75,3.75c0,2.07107 -1.67893,3.75 -3.75,3.75c-2.07107,0 -3.75,-1.67893 -3.75,-3.75z" fill="#ffffff" stroke="none" stroke-width="0.5"/><path d="M118.65287,323.05478c0,-2.07107 1.67893,-3.75 3.75,-3.75c2.07107,0 3.75,1.67893 3.75,3.75c0,2.07107 -1.67893,3.75 -3.75,3.75c-2.07107,0 -3.75,-1.67893 -3.75,-3.75z" fill="#ffffff" stroke="none" stroke-width="0.5"/><path d="M41.68603,320.54499c0,-2.07107 1.67893,-3.75 3.75,-3.75c2.07107,0 3.75,1.67893 3.75,3.75c0,2.07107 -1.67893,3.75 -3.75,3.75c-2.07107,0 -3.75,-1.67893 -3.75,-3.75z" fill="#ffffff" stroke="none" stroke-width="0.5"/><path d="M587.14659,41.12194c0,-2.07107 1.67893,-3.75 3.75,-3.75c2.07107,0 3.75,1.67893 3.75,3.75c0,2.07107 -1.67893,3.75 -3.75,3.75c-2.07107,0 -3.75,-1.67893 -3.75,-3.75z" fill="#ffffff" stroke="none" stroke-width="0.5"/><path d="M385.52697,91.3177c0,-2.07107 1.67893,-3.75 3.75,-3.75c2.07107,0 3.75,1.67893 3.75,3.75c0,2.07107 -1.67893,3.75 -3.75,3.75c-2.07107,0 -3.75,-1.67893 -3.75,-3.75z" fill="#ffffff" stroke="none" stroke-width="0.5"/><path d="M311.06993,170.79432c0,-2.07107 1.67893,-3.75 3.75,-3.75c2.07107,0 3.75,1.67893 3.75,3.75c0,2.07107 -1.67893,3.75 -3.75,3.75c-2.07107,0 -3.75,-1.67893 -3.75,-3.75z" fill="#ffffff" stroke="none" stroke-width="0.5"/><path d="M270.07673,225.17305c0,-2.07107 1.67893,-3.75 3.75,-3.75c2.07107,0 3.75,1.67893 3.75,3.75c0,2.07107 -1.67893,3.75 -3.75,3.75c-2.07107,0 -3.75,-1.67893 -3.75,-3.75z" fill="#ffffff" stroke="none" stroke-width="0.5"/><path d="M242.46906,273.69561c0,-2.07107 1.67893,-3.75 3.75,-3.75c2.07107,0 3.75,1.67893 3.75,3.75c0,2.07107 -1.67893,3.75 -3.75,3.75c-2.07107,0 -3.75,-1.67893 -3.75,-3.75z" fill="#ffffff" stroke="none" stroke-width="0.5"/><path d="M264.22056,99.68366c0,-2.07107 1.67893,-3.75 3.75,-3.75c2.07107,0 3.75,1.67893 3.75,3.75c0,2.07107 -1.67893,3.75 -3.75,3.75c-2.07107,0 -3.75,-1.67893 -3.75,-3.75z" fill="#ffffff" stroke="none" stroke-width="0.5"/><path d="M306.05036,37.77556c0,-2.07107 1.67893,-3.75 3.75,-3.75c2.07107,0 3.75,1.67893 3.75,3.75c0,2.07107 -1.67893,3.75 -3.75,3.75c-2.07107,0 -3.75,-1.67893 -3.75,-3.75z" fill="#ffffff" stroke="none" stroke-width="0.5"/><path d="M162.15585,62.03684c0,-2.07107 1.67893,-3.75 3.75,-3.75c2.07107,0 3.75,1.67893 3.75,3.75c0,2.07107 -1.67893,3.75 -3.75,3.75c-2.07107,0 -3.75,-1.67893 -3.75,-3.75z" fill="#ffffff" stroke="none" stroke-width="0.5"/><path d="M86.86222,116.41558c0,-2.07107 1.67893,-3.75 3.75,-3.75c2.07107,0 3.75,1.67893 3.75,3.75c0,2.07107 -1.67893,3.75 -3.75,3.75c-2.07107,0 -3.75,-1.67893 -3.75,-3.75z" fill="#ffffff" stroke="none" stroke-width="0.5"/><path d="M28.3005,149.87942c0,-2.07107 1.67893,-3.75 3.75,-3.75c2.07107,0 3.75,1.67893 3.75,3.75c0,2.07107 -1.67893,3.75 -3.75,3.75c-2.07107,0 -3.75,-1.67893 -3.75,-3.75z" fill="#ffffff" stroke="none" stroke-width="0.5"/><path d="M141.24096,212.62411c0,-2.07107 1.67893,-3.75 3.75,-3.75c2.07107,0 3.75,1.67893 3.75,3.75c0,2.07107 -1.67893,3.75 -3.75,3.75c-2.07107,0 -3.75,-1.67893 -3.75,-3.75z" fill="#ffffff" stroke="none" stroke-width="0.5"/><path d="M142.91414,287.91775c0,-2.07107 1.67893,-3.75 3.75,-3.75c2.07107,0 3.75,1.67893 3.75,3.75c0,2.07107 -1.67893,3.75 -3.75,3.75c-2.07107,0 -3.75,-1.67893 -3.75,-3.75z" fill="#ffffff" stroke="none" stroke-width="0.5"/><path d="M58.41796,297.95689c0,-2.07107 1.67893,-3.75 3.75,-3.75c2.07107,0 3.75,1.67893 3.75,3.75c0,2.07107 -1.67893,3.75 -3.75,3.75c-2.07107,0 -3.75,-1.67893 -3.75,-3.75z" fill="#ffffff" stroke="none" stroke-width="0.5"/><path d="M168.01203,339.7867c0,-2.07107 1.67893,-3.75 3.75,-3.75c2.07107,0 3.75,1.67893 3.75,3.75c0,2.07107 -1.67893,3.75 -3.75,3.75c-2.07107,0 -3.75,-1.67893 -3.75,-3.75z" fill="#ffffff" stroke="none" stroke-width="0.5"/><path d="M85.18903,346.47946c0,-2.07107 1.67893,-3.75 3.75,-3.75c2.07107,0 3.75,1.67893 3.75,3.75c0,2.07107 -1.67893,3.75 -3.75,3.75c-2.07107,0 -3.75,-1.67893 -3.75,-3.75z" fill="#ffffff" stroke="none" stroke-width="0.5"/><g stroke="none"><path d="M469.91842,281.34617c0.54181,-2.00218 -1.15924,-5.31418 1.08205,-5.76095c2.42603,-0.48359 6.2383,1.14995 7.08739,-2.75323c0.37041,-1.70275 4.15617,1.21457 6.00701,1.71543c0.3991,0.108 0.43551,3.02014 1.11169,3.10038c2.02644,0.24047 5.38797,-2.38006 6.21104,-1.65401c1.5583,1.37459 -0.54779,3.81415 1.16312,5.02754c1.75684,1.24597 5.62395,0.84919 5.93598,2.50967c0.2129,1.13295 -2.72976,3.61637 -3.0321,4.73363c-0.31473,1.16304 -3.73487,-0.8452 -4.14054,0.10436c-0.40879,0.95686 -0.29157,2.84623 -0.41007,4.34336c-0.08977,1.13419 -0.31483,2.04327 -1.00637,2.15121c-1.07633,0.16801 -4.37511,-3.18696 -5.97248,-4.74459c-0.53744,-0.52407 -4.47131,4.45072 -5.22342,4.24719c-0.59775,-0.16176 -0.51719,-2.12142 -0.70429,-2.86694c-0.40077,-1.59687 -0.68259,-2.60093 -2.01226,-3.4536c-2.18875,-1.40357 -8.4631,3.49002 -5.78151,1.54045c1.10569,-0.80386 1.94914,-2.15552 0.32391,-3.90534c-1.56837,-1.6886 -5.2792,-1.7767 -5.25337,-2.63859c0.02592,-0.86476 4.3761,-0.81596 4.61424,-1.69597z" fill="#5d554f" stroke-width="0"/><path d="M433.57793,271.18016c0,-0.92032 0.92032,-0.92032 0.92032,-0.92032l1.03271,0.02462c0.4202,0.21852 0.90748,0.33992 1.26058,0.65557c0.18166,0.16239 0.02396,0.5839 0.24371,0.68916c0.29044,0.13912 0.64188,-0.16595 0.9595,-0.11283c0.30187,0.05048 0.52433,0.3364 0.82126,0.41063c0.26558,0.0664 0.55568,-0.0664 0.82126,0c0.29693,0.07423 0.52114,0.35061 0.82126,0.41063c0.40266,0.08053 0.83098,-0.08882 1.2319,0c0.38632,0.08558 0.7145,0.34022 1.07175,0.51034c1.61392,1.08646 3.8791,1.12142 5.36012,2.06628c0.41424,0.26428 0.47273,1.05203 0.9595,1.11906c1.01402,0.13964 2.39943,0.3827 3.26597,1.02171c0.26281,0.1938 0.23849,0.62437 0.4584,0.86576c0.44697,0.49061 1.28558,0.36799 1.87128,0.68011c1.49809,0.79833 3.22524,2.25043 4.28819,3.4262c0.47904,0.52988 2.3532,0.99331 3.00653,1.39882c-0.01209,0.25566 -0.21014,0.57916 -0.03627,0.76698c0.40757,0.44026 1.18278,0.26541 1.71814,0.53622c3.15509,1.59601 5.81708,4.10948 9.02666,5.74527c1.88192,0.95913 3.50456,2.74528 4.80786,4.33006c0.307,0.3733 0.76462,0.63754 0.97627,1.07207c0.03308,0.06792 -0.07212,0.20512 -0.15234,0.25886c0.22548,0.02542 0.83835,0.16357 0.83835,0.91459c0,0.92032 -0.92032,0.92032 -0.92032,0.92032c-1.75503,-0.37347 -1.80173,-1.99133 -3.16096,-3.35464c-2.49409,-2.50158 -7.59311,-5.19791 -10.66841,-7.0486c-1.13647,-0.68392 -3.9502,-2.09877 -3.99471,-3.17345c-2.74926,-0.31118 -4.28016,-2.98895 -6.66676,-4.20887c-0.98595,-0.50398 -1.35579,-0.13998 -2.23503,-0.96241c-0.20871,-0.19522 -0.13623,-0.60267 -0.36286,-0.77677c-0.64093,-0.49235 -1.79021,-0.4027 -2.48287,-0.62082c-0.64152,-0.20201 -0.96033,-0.94918 -1.50429,-1.34472c-1.18266,-0.85998 -3.8399,-1.06452 -5.3163,-2.04004c-0.19026,-0.10364 -0.35727,-0.2741 -0.57078,-0.31093c-0.40466,-0.0698 -0.82924,0.08053 -1.2319,0c-0.30012,-0.06002 -0.52433,-0.3364 -0.82126,-0.41063c-0.26558,-0.0664 -0.55568,0.0664 -0.82126,0c-0.29693,-0.07423 -0.52267,-0.34342 -0.82126,-0.41063c-0.49056,-0.11042 -1.05673,0.11638 -1.50429,-0.11283c-0.43734,-0.22398 -0.50873,-0.92351 -0.9595,-1.11907l-0.60982,0.02462c0,0 -0.92032,0 -0.92032,-0.92032z" fill="#ff0000" stroke-width="0.5"/><path d="M453.69888,254.34426c0,-0.92032 0.92032,-0.92032 0.92032,-0.92032l0.92113,0.15457c0.73714,0.49447 1.37222,1.12706 2.08078,1.66168c1.02211,0.77121 2.32021,1.25742 3.3304,2.08804c0.23232,0.19103 0.31917,0.55186 0.58998,0.68272c0.27137,0.13112 0.66098,-0.14033 0.90333,0.03884c0.47042,0.34778 0.66218,0.96841 1.05073,1.40577c0.47425,0.53383 2.17707,1.00185 2.37994,1.15478c0.40388,0.30446 0.50426,0.88788 0.85046,1.25661c0.5028,0.53552 1.45587,0.37998 2.04708,0.81595c0.26281,0.1938 0.23849,0.62437 0.4584,0.86576c0.12655,0.13891 0.34846,0.14075 0.52269,0.21113c0.51016,0.20338 1.13329,0.23083 1.53047,0.61013c0.28313,0.27039 -0.01248,0.89756 0.29799,1.13606c0.27785,0.21344 0.71985,-0.23173 1.04597,-0.10366c0.81679,0.32077 1.57415,0.80286 2.25959,1.35077c1.07301,0.85772 1.87546,2.45287 2.92486,3.3265c2.41482,2.01032 5.18953,3.44221 7.39137,5.74884c0.67595,0.70811 1.9652,0.62564 2.59502,1.37508c0.44257,0.52662 0.38281,1.87572 0.38534,2.59992c0,0 0,0.92032 -0.92032,0.92032c-0.92032,0 -0.92032,-0.92032 -0.92032,-0.92032c0.00022,-0.05115 0.01648,-1.46575 -0.02529,-1.5064c-0.33981,-0.33061 -0.8842,-0.34435 -1.31381,-0.54487c-1.29625,-0.60502 -1.82351,-1.70902 -2.99439,-2.53566c-1.72432,-1.21736 -3.83325,-2.43709 -5.41573,-3.75703c-1.01922,-0.85013 -1.79914,-2.42296 -2.82398,-3.24361c-0.4574,-0.36627 -3.15936,-1.13911 -3.26454,-1.21668c-0.38287,-0.28233 -0.19626,-0.98225 -0.52328,-1.32773c-0.21927,-0.23165 -0.62221,-0.14075 -0.93332,-0.21113c-0.37328,-0.20338 -0.80939,-0.31975 -1.11984,-0.61013c-0.20871,-0.19522 -0.13623,-0.60267 -0.36286,-0.77677c-0.58656,-0.45058 -1.5232,-0.31693 -2.05923,-0.82658c-0.34879,-0.33162 -0.40902,-0.9158 -0.79206,-1.20718c-0.44616,-0.33938 -1.07526,-0.33634 -1.57387,-0.59253c-0.35844,-0.18417 -0.70716,-0.41429 -0.97377,-0.71648c-0.26734,-0.30302 -0.27096,-0.81234 -0.5918,-1.05802c-0.1959,-0.15001 -0.51975,0.15164 -0.73919,0.03884c-0.4223,-0.21706 -0.67832,-0.66756 -1.05254,-0.95981c-1.00077,-0.78155 -2.23908,-1.27172 -3.2397,-2.01828c-0.69351,-0.51742 -1.30405,-1.14574 -2.02554,-1.62338l0.09987,0.15457c0,0 -0.92032,0 -0.92032,-0.92032z" fill="#ff0000" stroke-width="0.5"/><path d="M440.82822,265.60182c0.65076,-0.65076 1.30153,0 1.30153,0l0.17145,0.23824c0.20704,0.1127 0.38923,0.29578 0.62113,0.33809c0.40396,0.0737 0.83099,-0.08882 1.2319,0c0.38632,0.08558 0.72918,0.31232 1.07175,0.51034c1.21466,0.70212 1.8892,1.06651 3.17531,1.58826c0.23856,0.09678 0.43195,0.29822 0.68052,0.3652c0.35387,0.09534 0.78231,-0.0805 1.09366,0.11283c0.26002,0.16146 0.16441,0.63947 0.41063,0.82126c0.15026,0.11095 0.36635,-0.1525 0.54887,-0.11283c0.29908,0.06501 0.52466,0.33513 0.82126,0.41063c0.23339,0.05941 0.48493,-0.05862 0.72226,-0.01772c1.39738,0.24081 2.30005,0.81188 3.65645,0.95182c0.69089,1.38179 2.53489,0.90796 3.97467,1.57513c0.44564,0.2065 0.9493,0.39021 1.25194,0.77706c0.13711,0.17526 -0.32123,0.53711 -0.13211,0.65434c0.50069,0.31036 1.20682,-0.00561 1.75458,0.21113c2.36725,0.93666 6.61103,3.84416 8.88702,3.83094c0,0 0.92032,0 0.92032,0.92032c0,0.92032 -0.92032,0.92032 -0.92032,0.92032c-0.76356,-0.00346 -1.54185,0.03566 -2.26896,-0.30732c-1.62981,-0.76878 -3.44545,-1.96181 -4.9903,-2.90987c-1.26346,-0.77537 -3.56855,-0.60134 -4.68387,-1.364c-0.27432,-0.18759 0.018,-0.6917 -0.13211,-0.98819c-0.3586,-0.70829 -3.80793,-0.11288 -4.62855,-1.75413c-0.18296,0.03761 -0.36658,0.15357 -0.54887,0.11283c-0.33487,-0.07485 -0.60423,-0.33278 -0.92912,-0.44318c-0.75307,-0.25589 -1.5836,-0.18812 -2.35594,-0.37808c-0.29721,-0.0731 -0.52603,-0.32993 -0.82126,-0.41063c-0.35352,-0.09664 -0.78231,0.0805 -1.09366,-0.11283c-0.26002,-0.16146 -0.16441,-0.63947 -0.41063,-0.82126c-0.15026,-0.11095 -0.36673,0.15421 -0.54887,0.11283c-0.76676,-0.17419 -1.46506,-0.57166 -2.1939,-0.8667c-0.92612,-0.37489 -1.77843,-1.43233 -2.73368,-1.59709c-0.40466,-0.0698 -0.83039,0.0861 -1.23189,0c-0.36827,-0.07897 -0.68093,-0.32211 -1.0214,-0.48317l-0.64982,-0.58303c0,0 -0.65076,-0.65076 0,-1.30153z" fill="#ff0000" stroke-width="0.5"/><path d="M440.82822,270.11876c0.65076,-0.65076 1.30153,0 1.30153,0l0.17145,0.23824c0.31593,0.1624 0.6718,0.26356 0.9478,0.48719c0.39846,0.32284 0.62553,0.83458 1.04597,1.12823c0.12961,0.09052 0.31103,-0.0663 0.46907,-0.07005c0.48105,-0.01143 0.9708,-0.0662 1.44334,0.02462c0.30057,0.05777 0.52433,0.3364 0.82126,0.41063c0.26558,0.0664 0.56015,-0.08222 0.82126,0c0.45175,0.14225 0.90543,0.34222 1.26058,0.65557c0.2143,0.18907 0.13623,0.60268 0.36286,0.77677c0.268,0.20587 0.66411,0.13845 0.98109,0.25563c0.28708,0.10612 0.53868,0.29306 0.82126,0.41063c0.4717,0.19626 1.0355,0.21526 1.43833,0.52951c0.38041,0.29676 0.52852,0.80733 0.79278,1.21099c3.1153,0.63525 4.83231,2.91516 7.62404,4.00834c0.82719,0.32391 1.7936,0.18372 2.61193,0.52941c1.32183,0.55839 2.33005,1.58572 3.81743,1.88894c0.67059,0.13671 1.3921,-0.17715 2.05316,0c1.70209,0.45611 1.92777,1.41717 3.89487,1.41259c0,0 0.92032,0 0.92032,0.92032c0,0.92032 -0.92032,0.92032 -0.92032,0.92032c-0.91577,-0.00185 -2.03908,0.03853 -2.86813,-0.2989c-0.75395,-0.30686 -0.71151,-1.00459 -1.44963,-1.16293c-0.66916,-0.14355 -1.3817,0.1324 -2.05316,0c-1.56652,-0.30888 -2.68823,-1.36682 -4.05517,-1.96235c-0.82858,-0.36099 -1.81826,-0.20691 -2.65568,-0.54688c-2.90417,-1.17901 -4.82592,-3.31184 -7.97996,-4.20429c-0.28325,-0.4176 -0.46026,-0.93199 -0.84974,-1.2528c-0.27431,-0.22594 -0.69329,-0.16541 -1.02546,-0.29175c-0.77961,-0.29651 -1.63266,-0.48124 -2.30396,-0.97627c-0.26281,-0.1938 -0.25215,-0.6126 -0.4584,-0.86576c-0.24355,-0.29893 -1.01156,-0.11779 -1.20321,-0.1657c-0.29693,-0.07423 -0.5217,-0.34785 -0.82126,-0.41063c-0.49827,-0.10443 -1.73332,0.20441 -2.1939,-0.04544c-0.78896,-0.42796 -1.30365,-1.28066 -2.11255,-1.66963l-0.64982,-0.58303c0,0 -0.65076,-0.65076 0,-1.30153z" fill="#ff7b00" stroke-width="0.5"/><path d="M446.9877,257.79981c0.65076,-0.65076 1.30153,0 1.30153,0l0.17145,0.23824c0.82299,0.42303 1.46561,1.13058 2.1797,1.71908c0.57518,0.47403 1.48609,0.37791 2.07367,0.83648c0.4055,0.31647 0.51464,0.90307 0.8717,1.27333c0.43762,0.45379 1.22839,0.42495 1.68422,0.86044c0.20663,0.19741 0.13623,0.60268 0.36286,0.77677c0.268,0.20587 0.66439,0.13768 0.98109,0.25563c0.52802,0.19665 0.9532,0.64724 1.50178,0.77583c0.26653,0.06247 0.56173,-0.08708 0.82126,0c0.64721,0.21715 1.22844,0.59587 1.84266,0.8938c1.1261,0.61295 2.3747,0.26172 3.6363,0.79416c0.62349,0.26314 0.94602,0.97463 1.4827,1.3869c0.69728,0.53563 2.02807,0.60255 2.80955,1.18055c3.1234,2.31016 8.03798,4.68519 9.1833,8.73602c0,0 0.22321,0.89284 -0.66963,1.11605c-0.89284,0.22321 -1.11605,-0.66963 -1.11605,-0.66963c-0.77493,-4.04112 -9.5183,-7.2552 -11.87156,-9.83824c-0.85029,-0.93332 -3.17828,-0.53939 -4.27776,-1.0595c-0.4808,-0.24958 -0.92808,-0.57861 -1.44239,-0.74872c-0.25991,-0.08597 -0.55646,0.06944 -0.82126,0c-0.32995,-0.08652 -1.40097,-0.70503 -1.78327,-0.8667c-0.48721,-0.20602 -1.05696,-0.25169 -1.4827,-0.56563c-0.26281,-0.1938 -0.23444,-0.62812 -0.4584,-0.86576c-0.40733,-0.43219 -1.17436,-0.36878 -1.60083,-0.78209c-0.33948,-0.329 -0.40619,-0.88958 -0.77082,-1.19045c-0.56219,-0.4639 -1.45789,-0.35781 -2.03265,-0.80605c-0.6526,-0.50894 -1.18078,-1.20731 -1.92662,-1.56597l-0.64982,-0.58303c0,0 -0.65076,-0.65076 0,-1.30153z" fill="#ff7b00" stroke-width="0.5"/><path d="M462.18106,251.64034c0.65076,-0.65076 1.30153,0 1.30153,0l0.0509,0.1883c0.36276,0.1251 0.71177,0.30126 1.08828,0.37529c0.28958,0.05693 0.60499,-0.07964 0.88529,0.01274c1.28351,0.42299 2.51404,1.23737 3.80354,1.67507c0.58032,0.19698 1.22836,0.19918 1.77667,0.47292c0.35659,0.17803 0.56778,0.5595 0.85166,0.83925c0.84419,0.26336 2.70053,0.76697 3.35984,1.28338c1.64464,1.28819 5.49259,5.82887 6.43184,7.72723c0.45439,0.91839 0.56522,1.9911 1.07545,2.87967c0.91372,1.59125 1.26936,2.46419 1.5205,4.22232c0.25903,1.81339 0.09912,2.08593 0.26875,1.81774c0,0 0.92032,0 0.92032,0.92032c0,0.92032 -0.92032,0.92032 -0.92032,0.92032c-3.04715,-0.55799 -1.36367,-3.21743 -2.47865,-5.46334c-2.66593,-5.37 -5.26854,-10.68162 -11.1454,-12.7419c-0.26362,-0.26776 -0.4549,-0.635 -0.79086,-0.80327c-0.46139,-0.23109 -1.01787,-0.18808 -1.50839,-0.34834c-1.22775,-0.40112 -2.37756,-1.20115 -3.58783,-1.60998c-0.23917,-0.08079 -0.50984,0.06299 -0.75724,0.01274c-0.47235,-0.09595 -0.917,-0.29732 -1.37551,-0.44598l-0.77037,-0.63296c0,0 -0.65076,-0.65076 0,-1.30153z" fill="#ff7b00" stroke-width="0.5"/><path d="M436.45235,281.85658c0,-0.92032 0.92032,-0.92032 0.92032,-0.92032l1.3051,0.13745c0.1766,0.30296 0.25204,0.6948 0.52979,0.90887c0.26767,0.20631 0.66452,0.13735 0.98109,0.25563c0.24116,0.0901 0.42765,0.31691 0.68052,0.3652c0.40334,0.07702 0.82924,-0.08053 1.2319,0c0.30012,0.06002 0.52114,0.35061 0.82126,0.41063c0.40266,0.08053 0.83759,-0.11463 1.2319,0c1.52433,0.44314 1.47202,0.82623 2.60453,1.27733c0.70498,0.2808 1.43354,0.50956 2.11255,0.84837c0.79165,0.39501 1.53303,0.90961 2.37151,1.1919c0.58081,0.19554 1.24353,0.17069 1.77667,0.47292c0.51512,0.29202 0.84153,0.83326 1.2623,1.24989c2.39681,0.76282 4.31952,3.32967 6.60935,3.56513c3.0311,0.31169 6.26801,-0.56107 9.04105,-1.39688c1.35124,-0.40727 2.65556,-1.43872 4.19203,-1.48444c0,0 0.92032,0 0.92032,0.92032c0,0.92032 -0.92032,0.92032 -0.92032,0.92032c-1.26549,-0.07702 -2.4929,1.05605 -3.60997,1.38998c-2.80138,0.83743 -6.8221,1.90659 -9.848,1.47754c-2.907,-0.41219 -4.56453,-2.86012 -7.35213,-3.82624c-0.4005,-0.40463 -0.70826,-0.92956 -1.20149,-1.2139c-0.44706,-0.25773 -1.01834,-0.18668 -1.50839,-0.34834c-1.16296,-0.38365 -2.17989,-1.20211 -3.31794,-1.65542c-0.40212,-0.16017 -0.83023,-0.24933 -1.2319,-0.41063c-0.3756,-0.15084 -2.22591,-1.15926 -2.32305,-1.18646c-0.39543,-0.11071 -0.82924,0.08053 -1.23189,0c-0.30012,-0.06002 -0.52114,-0.35061 -0.82126,-0.41063c-0.40266,-0.08053 -0.82986,0.08357 -1.23189,0c-0.34745,-0.07223 -0.63457,-0.31923 -0.96201,-0.45607c-0.48807,-0.20397 -1.05593,-0.25309 -1.4827,-0.56563c-0.2123,-0.15547 -0.19432,-0.4891 -0.29148,-0.73365l-0.33742,0.13745c0,0 -0.92032,0 -0.92032,-0.92032z" fill="#ffea00" stroke-width="0.5"/><path d="M443.84372,272.82268c0,-0.92032 0.92032,-0.92032 0.92032,-0.92032h0.82126c0.74687,0.00916 1.46382,0.29972 2.20058,0.42252c0.40504,0.06751 0.82685,-0.06751 1.23189,0c0.42695,0.07116 0.8076,0.32504 1.2319,0.41063c0.30745,0.06202 0.6484,-0.08655 0.94054,0.0276c0.45967,0.17962 0.77533,0.63389 1.2319,0.82126c0.21664,0.08891 0.47227,-0.0731 0.70199,-0.0276c1.1285,0.22351 2.15863,0.58557 3.28505,0.82126c0.69078,0.14454 1.41155,0.0007 2.11719,0.01274c1.71517,0.81672 3.23807,1.77709 4.98283,2.47866c0.32257,0.12971 0.74698,-0.09164 1.03841,0.09796c0.80445,0.52337 0.67052,1.26763 1.78076,1.5297c0.81751,0.19297 1.75203,0.13593 2.44471,0.61107c0.217,0.14885 0.08432,0.57139 0.29148,0.73365c0.55469,0.43448 2.93572,0.67644 3.6461,1.20334c0.78326,0.58096 1.22137,1.54382 1.9885,2.14593c0,0 0.71865,0.57492 0.14373,1.29356c-0.57492,0.71865 -1.29357,0.14373 -1.29357,0.14373c-0.67256,-0.54635 -1.01809,-1.43503 -1.70718,-1.96039c-0.84412,-0.64355 -2.79907,-0.68042 -3.74526,-1.26045c-0.29897,-0.18327 -0.2622,-0.68222 -0.52978,-0.90887c-0.42601,-0.36085 -1.21267,-0.09343 -1.66161,-0.21019c-1.19407,-0.31056 -1.60157,-1.25052 -2.32555,-1.75536c-0.83158,-0.57987 -4.16113,-1.63445 -5.47645,-2.35096c-0.19636,0.00474 -1.76872,0.05505 -1.98913,0.01274c-1.12583,-0.21616 -2.16096,-0.5945 -3.28505,-0.82126c-0.30745,-0.06202 -0.6484,0.08655 -0.94054,-0.0276c-0.45967,-0.17962 -0.77533,-0.63389 -1.2319,-0.82126c-0.21664,-0.08891 -0.47227,0.0731 -0.70199,0.0276c-0.4246,-0.08409 -0.80494,-0.33947 -1.2319,-0.41063c-0.40504,-0.06751 -0.82685,0.06751 -1.2319,0c-0.64017,-0.1067 -1.25684,-0.41019 -1.90574,-0.39875h-0.82126c0,0 -0.92032,0 -0.92032,-0.92032z" fill="#ffea00" stroke-width="0.5"/><path d="M445.5853,251.37078c0.6528,0 0.84255,0.46304 0.89771,0.73224c0.23511,0.1015 0.46191,0.21278 0.61881,0.40635c0.26015,0.32096 0.08456,0.88179 0.36614,1.18413c0.21739,0.23342 0.63346,0.1024 0.93332,0.21113c0.3261,0.11825 0.63286,0.28761 0.93101,0.4649c1.02358,0.60867 2.28052,1.62488 3.4452,1.95345c0.4406,0.1243 0.9616,-0.15611 1.37264,0.04544c0.55341,0.27135 0.79735,0.97665 1.33315,1.2813c0.4906,0.27895 1.15357,0.12881 1.64253,0.41063c0.54795,0.31582 0.87585,0.9164 1.36193,1.32104c0.63624,0.52963 1.52989,0.71273 2.12045,1.29285c0.43947,0.43171 0.52675,1.21071 1.06497,1.51042c0.40364,0.22477 0.94523,0.17438 1.30668,0.46212c0.38611,0.30737 0.54751,0.82126 0.82126,1.2319c4.39335,1.24995 7.09015,5.63588 9.25814,9.28144c1.40656,2.36519 1.70275,5.23544 3.26794,7.57002c0,0 0.5105,0.76575 -0.25525,1.27625c-0.76575,0.5105 -1.27625,-0.25525 -1.27625,-0.25525c-4.08142,-6.15181 -3.98057,-13.41623 -12.11182,-16.4097c-0.27375,-0.41063 -0.43668,-0.92261 -0.82126,-1.2319c-0.31471,-0.25309 -0.81632,-0.14244 -1.15711,-0.35914c-0.42764,-0.27194 -0.7703,-0.66801 -1.08402,-1.06601c-0.16,-0.20299 -0.1346,-0.52332 -0.3148,-0.70862c-0.15939,-0.1639 -0.4355,-0.14928 -0.63243,-0.2654c-0.46758,-0.2757 -0.93662,-0.55782 -1.35343,-0.90553c-0.40632,-0.33897 -0.64137,-0.8821 -1.10186,-1.14276c-0.49114,-0.27799 -1.15317,-0.12951 -1.64253,-0.41063c-0.47287,-0.27165 -0.64518,-0.93404 -1.13065,-1.18249c-0.32406,-0.16584 -0.74144,0.14656 -1.09115,0.04544c-0.96811,-0.27995 -1.84957,-0.81403 -2.71428,-1.3316c-0.64993,-0.38902 -1.24784,-0.87777 -1.94341,-1.17762c-0.50433,-0.21741 -1.13265,-0.2315 -1.53047,-0.61013c-0.32794,-0.31212 -0.20177,-0.90446 -0.45513,-1.27966c-0.10639,-0.15755 -0.35839,-0.12698 -0.53758,-0.19047l-0.50874,-1.23379c0,0 0,-0.92032 0.92032,-0.92032z" fill="#ffea00" stroke-width="0.5"/></g></g></g></svg>