<svg version="1.1" xmlns="http://www.w3.org/2000/svg" xmlns:xlink="http://www.w3.org/1999/xlink" width="1660.93463" height="988.12712" viewBox="0,0,1660.93463,988.12712"><defs><radialGradient cx="357.31896" cy="213.55054" r="75.07377" gradientUnits="userSpaceOnUse" id="color-1"><stop offset="0" stop-color="#00b8ff" stop-opacity="0.59608"/><stop offset="1" stop-color="#00e8ff" stop-opacity="0.30588"/></radialGradient></defs><g transform="translate(455.39759,421.36816)"><g stroke-miterlimit="10"><path d="M-345.90219,-365.2466c73.43812,0 146.87623,0 220.31436,0c3.2323,0 15.50734,-1.59807 19.16249,-0.40114c5.69452,1.86475 10.84111,5.37632 16.69049,6.67619c4.34481,0.96551 9.00108,-0.93582 13.35238,0c12.94236,2.78349 24.33561,11.10795 37.36212,13.46647c12.00415,2.17342 24.89957,-4.34726 36.58799,-0.8538c5.3305,1.59319 8.02485,8.41126 13.35239,10.01429c10.28568,3.09492 29.16746,-2.65861 39.54515,0.73972c5.69452,1.86475 10.82241,5.46352 16.69049,6.6762c9.5123,1.96576 20.1444,-3.85974 29.13925,-0.19358c22.21874,9.056 25.13012,7.27092 48.50306,7.27092c10.01429,0 20.02857,0 30.04286,0c5.44917,0 11.1969,1.76004 16.36591,0.1085c1.50169,1.97788 2.90824,4.12452 5.16924,4.87541c5.88373,1.95402 12.33622,1.27686 18.522,1.69229c24.45476,1.64236 59.79744,2.92751 83.67544,-0.28708c3.4872,-0.46947 6.51874,-2.93537 10.01428,-3.33809c29.15488,-3.359 63.51721,0.28707 93.24367,0.28707c40.05716,0 80.11431,0 120.17147,0c17.75266,0 44.67721,2.83401 61.91724,-1.69229c3.04402,-0.7992 3.78771,-5.42663 6.6762,-6.67619c1.56997,-0.67917 3.14508,1.49872 4.84467,1.69229c11.28807,1.2856 30.65897,-0.29275 39.08688,-6.51153c1.6314,-1.20378 2.64059,-2.38688 3.16789,-3.50276c9.28175,0 18.5635,0 27.84525,0c102.36828,0 204.73658,0 307.10486,0c60.47416,0 120.94831,0 181.42247,0c2.25706,10.99777 6.69937,23.57373 6.86075,24.24709c1.81534,7.57439 -1.22858,15.67529 0,23.36667c1.27775,7.99916 5.14803,15.41155 6.6762,23.36667c1.91922,9.99084 -1.82019,20.52448 0.07219,30.52043c1.68025,8.87548 4.78337,17.48971 8.42303,25.75713c2.14489,4.87208 7.5495,8.15772 8.78705,13.3352c1.74676,7.30783 -1.54375,15.14536 -0.21196,22.54009c0.88201,4.89735 5.78765,8.45621 6.6762,13.35238c1.27052,7.00092 -1.37209,14.2967 -0.37984,21.34244c1.12965,8.02142 5.14803,15.41155 6.6762,23.36667c2.37318,12.35402 -0.21489,27.66185 -0.21489,40.31168c0,22.25398 0,44.50795 0,66.76193c0,35.60636 0,71.21273 0,106.81909c0,19.47375 -2.69802,46.25162 0.59472,65.19353c0.85224,4.90262 5.10373,8.63123 6.6762,13.35238c2.17382,6.52661 -0.59472,17.54065 -0.59472,24.93507c0,28.23897 -3.33809,54.87992 -3.33809,83.45241c0,62.31114 0,124.62225 0,186.93338c0,25.59207 0,51.18415 0,76.77622c0,0.78771 -0.03975,3.93956 -0.07703,7.68529c-0.36807,0.05675 -0.72178,0.09983 -1.05793,0.12585c-5.07745,0.39307 -10.42786,-0.12842 -15.1839,1.69229c-2.93918,1.12518 -3.98833,5.03909 -6.6762,6.6762c-0.64502,0.39287 -0.76698,-1.53934 -1.50658,-1.69229c-5.96724,-1.23409 -13.91954,0 -20.02857,0c-13.43487,0 -30.86614,1.39318 -44.01701,0.16657c-4.56795,-0.42606 -8.77781,-2.99042 -13.35238,-3.3381c-17.67403,-1.3433 -35.70601,3.03187 -53.175,0.03015c-12.50348,-2.1485 -24.13513,-8.40261 -36.71907,-10.01429c-14.22001,-1.82122 -28.67192,-0.16135 -43.00804,-0.19672c-36.71843,-0.09059 -73.4386,0 -110.15717,0c-19.22001,0 -38.53851,2.07754 -57.65988,0.13276c-10.20593,-1.03802 -19.85973,-5.4344 -30.04287,-6.6762c-39.35775,-4.79955 -81.12014,6.2371 -120.17147,0c-10.13018,-1.61795 -19.82921,-5.71731 -30.04287,-6.6762c-14.09907,-1.32367 -28.322,-0.08849 -42.48301,-0.13275c-82.3397,0 -164.67942,0 -247.01912,0c-22.25398,0 -44.50795,0 -66.76193,0c-8.61394,0 -17.46806,2.434 -25.83868,0.40115c-5.82281,-1.4141 -11.12698,-4.4508 -16.69048,-6.6762c-18.10195,-0.29965 -36.17361,-0.40114 -54.27564,-0.40114c-8.52562,0 -17.58701,3.43947 -25.57283,0.45402c-7.93752,-2.9674 -15.06435,-8.31692 -23.36667,-10.01429c-22.54553,-4.60934 -54.42285,4.31842 -76.13844,0.1407c-4.88653,-0.94009 -8.42083,-6.01158 -13.35239,-6.6762c-12.4287,-1.67498 -25.18075,1.38012 -37.62268,-0.19358c-5.94471,-0.75191 -10.77357,-5.73008 -16.69048,-6.67619c-24.12606,-3.85773 -53.17615,-0.40114 -77.64231,-0.40114c-16.91057,0 -20.28693,3.16293 -33.61475,-5.72228c-2.59598,-0.1251 -42.45826,0.40464 -43.90326,-0.14724c-6.06108,-2.31488 -10.47734,-8.14555 -16.69049,-10.01429c-6.16187,-1.85333 -12.85338,-0.685 -19.28677,-0.80668c-13.08183,-0.24741 -61.93127,2.96954 -71.66841,0.59472c-4.83443,-1.17908 -8.4794,-5.66822 -13.35238,-6.6762c-7.11811,-1.47238 -14.53053,-0.47176 -21.79829,-0.59472c-16.6779,-0.28218 -33.39176,0 -50.07144,0c-5.51988,0 -11.34614,-1.80602 -16.56687,-0.04246c-1.64763,-1.6555 -3.31669,-3.28984 -4.96829,-4.94143c-8.26969,-0.75557 -17.01032,-4.3685 -24.87431,-1.8017c-1.50143,-1.97762 -2.90791,-4.12372 -5.16856,-4.87449c-5.88373,-1.95402 -12.33622,-1.27686 -18.522,-1.69229c-2.5767,-0.17305 -5.16013,-0.14527 -7.74444,-0.09147c-0.0427,-0.36547 -0.0667,-0.71482 -0.0667,-1.04348c0,-10.01429 0,-20.02858 0,-30.04287c0,-33.61916 -6.20192,-71.42246 6.27505,-102.61489c0.6862,-41.45311 0.40114,-82.9173 0.40114,-124.37565c0,-22.7284 -3.53116,-47.9512 -0.21488,-70.35455c1.18617,-8.01326 5.53557,-15.34681 6.67619,-23.36667c1.14777,-8.07013 -0.77566,-16.35229 0.12506,-24.45372c2.30024,-20.68915 6.71773,-41.26569 6.76602,-62.08226c0.01033,-4.45078 0.59345,-8.94133 0,-13.35238c-0.29935,-2.22503 -3.74738,-4.25268 -2.63058,-6.20027c1.9957,-3.4803 8.47863,-2.96985 10.01429,-6.6762c9.52977,-23.00041 -3.36306,-50.01983 2.22943,-73.04794c1.4141,-5.82281 4.4508,-11.12699 6.6762,-16.69049c0.07442,-3.25694 0.78377,-28.80932 0.43793,-33.82721c2.0831,-1.51321 4.43224,-2.89269 4.94711,-5.26452c6.3484,-29.24478 -3.83588,-67.89353 1.4774,-95.55275c1.52816,-7.95512 5.2943,-15.38484 6.6762,-23.36667c4.04989,-23.39198 0.21488,-73.61371 0.21488,-99.88836c0,-5.88012 0,-11.76024 0,-17.64036c1.49277,-0.01642 2.98411,-0.0698 4.47306,-0.18507c5.07745,-0.39307 10.42786,0.12842 15.1839,-1.69229c2.93918,-1.12518 3.98833,-5.03909 6.6762,-6.6762c0.64502,-0.39287 0.76698,1.53934 1.50658,1.69229c2.17928,0.4507 4.45079,0 6.67619,0c4.79064,0 12.22939,0.16511 17.89013,-0.75314c3.14893,0.75314 5.47654,0.75314 5.47654,0.75314z" fill="#77e813" stroke="none" stroke-width="50"/><path d="M-262.79616,-276.13842c0,80.65677 -65.3852,146.04202 -146.04198,146.04202c-0.65839,0 -1.31576,-0.00436 -1.97209,-0.01304c3.28584,-27.99128 -4.69712,-62.22934 0.13437,-87.3805c1.52816,-7.95512 5.2943,-15.38484 6.6762,-23.36667c4.04989,-23.39198 0.21488,-73.61371 0.21488,-99.88836c0,-5.88012 0,-11.76024 0,-17.64036c1.49277,-0.01642 2.98411,-0.0698 4.47306,-0.18507c5.07745,-0.39307 10.42786,0.12842 15.1839,-1.69229c2.93918,-1.12518 3.98833,-5.03909 6.6762,-6.6762c0.64502,-0.39287 0.76698,1.53934 1.50658,1.69229c2.17928,0.4507 4.45079,0 6.67619,0c4.79064,0 12.22939,0.16511 17.89013,-0.75314c3.14893,0.75314 5.47654,0.75314 5.47654,0.75314c17.59321,0 35.18642,0 52.77963,0c19.01577,24.6573 30.3264,55.56186 30.3264,89.10817z" fill="#13d8e8" stroke="none" stroke-width="0.5"/><path d="M-393.34309,-421.36816c10.46374,1.1035 20.59806,3.312 30.2841,6.50665c-2.73594,2.30721 -4.35698,4.57094 -4.63596,4.97373c-0.54101,0.10127 -1.07236,0.17775 -1.57391,0.17775c-2.2254,0 -4.45579,-0.14912 -6.67619,0c-5.76401,0.38711 -11.75959,-0.17447 -17.3108,1.3281c0.13649,-4.2853 0.05059,-8.63878 -0.08725,-12.98623z" fill="#13d8e8" stroke="none" stroke-width="0.5"/><path d="M837.99198,-90.73098c11.39667,-50.51418 -0.00736,-117.9474 47.62066,-161.60941c23.19704,-21.26546 54.96835,-33.16261 87.09982,-38.13532c3.34928,-4.54883 7.09637,-8.40781 10.64268,-10.73594c24.05898,-15.79435 53.10179,-24.12632 80.88187,-33.99208c29.94377,0 59.88754,0 89.83132,0c2.25706,10.99777 6.69937,23.57373 6.86075,24.24709c1.81534,7.57439 -1.22858,15.67529 0,23.36667c1.27775,7.99916 5.14803,15.41155 6.6762,23.36667c1.91922,9.99084 -1.82019,20.52448 0.07219,30.52043c1.68025,8.87548 4.78337,17.48971 8.42303,25.75713c2.14489,4.87208 7.5495,8.15772 8.78705,13.3352c1.74676,7.30783 -1.54375,15.14536 -0.21196,22.54009c0.88201,4.89735 5.78765,8.45621 6.6762,13.35238c1.27052,7.00092 -1.37209,14.2967 -0.37984,21.34244c1.12965,8.02142 5.14803,15.41155 6.6762,23.36667c2.37318,12.35402 -0.21489,27.66185 -0.21489,40.31168c0,22.25398 0,44.50795 0,66.76193c0,35.60636 0,71.21273 0,106.81909c0,19.47375 -2.69802,46.25162 0.59472,65.19353c0.85224,4.90262 5.10373,8.63123 6.6762,13.35238c2.17382,6.52661 -0.59472,17.54065 -0.59472,24.93507c0,28.23897 -3.33809,54.87992 -3.33809,83.45241c0,62.31114 0,124.62225 0,186.93338c0,25.59207 0,51.18415 0,76.77622c0,0.78771 -0.03975,3.93956 -0.07703,7.68529c-0.36807,0.05675 -0.72178,0.09983 -1.05793,0.12585c-5.07745,0.39307 -10.42786,-0.12842 -15.1839,1.69229c-2.93918,1.12518 -3.98833,5.03909 -6.6762,6.6762c-0.64502,0.39287 -0.76698,-1.53934 -1.50658,-1.69229c-5.96724,-1.23409 -13.91954,0 -20.02857,0c-13.43487,0 -30.86614,1.39318 -44.01701,0.16657c-4.56795,-0.42606 -8.77781,-2.99042 -13.35238,-3.3381c-17.67403,-1.3433 -35.70601,3.03187 -53.175,0.03015c-12.50348,-2.1485 -24.13513,-8.40261 -36.71907,-10.01429c-14.22001,-1.82122 -28.67192,-0.16135 -43.00804,-0.19672c-36.71843,-0.09059 -73.4386,0 -110.15717,0c-19.22001,0 -38.53851,2.07754 -57.65988,0.13276c-10.20593,-1.03802 -19.85973,-5.4344 -30.04287,-6.6762c-39.35775,-4.79955 -81.12014,6.2371 -120.17147,0c-10.13018,-1.61795 -19.82921,-5.71731 -30.04287,-6.6762c-14.09907,-1.32367 -28.322,-0.08849 -42.48301,-0.13275c-82.3397,0 -164.67942,0 -247.01912,0c-22.25398,0 -44.50795,0 -66.76193,0c-8.61394,0 -17.46806,2.434 -25.83868,0.40115c-5.82281,-1.4141 -11.12698,-4.4508 -16.69048,-6.6762c-18.10195,-0.29965 -36.17361,-0.40114 -54.27564,-0.40114c-8.52562,0 -17.58701,3.43947 -25.57283,0.45402c-7.93752,-2.9674 -15.06435,-8.31692 -23.36667,-10.01429c-22.54553,-4.60934 -54.42285,4.31842 -76.13844,0.1407c-4.88653,-0.94009 -8.42083,-6.01158 -13.35239,-6.6762c-3.24868,-0.43782 -6.51944,-0.55246 -9.80099,-0.51106c18.3239,-9.3714 38.26866,-17.91826 59.04832,-24.29449c26.55532,-8.14857 104.49774,-28.86929 148.22951,-27.51633c3.82548,-3.48738 8.19083,-6.38975 11.89797,-7.98125c25.90925,-11.1228 55.07889,-12.83308 83.20293,-15.27157c5.16881,-9.36843 9.75515,-19.44542 18.87191,-24.21515c71.41769,-37.36408 154.24877,-44.55533 221.53721,-80.51867c-7.68242,-22.50742 -11.41815,-47.91861 -9.16129,-77.36137c8.16809,-106.56044 61.55132,-155.22941 136.47567,-184.59076c4.56584,-45.71969 7.88346,-100.45143 42.52684,-130.13205c23.89525,-20.47217 65.592,-27.76282 108.76741,-33.87567z" fill="#13d8e8" stroke="none" stroke-width="0.5"/><path d="M282.24519,213.55054c0,-41.46209 33.61167,-75.07377 75.07377,-75.07377c41.46209,0 75.07377,33.61167 75.07377,75.07377c0,41.46209 -33.61167,75.07377 -75.07377,75.07377c-41.46209,0 -75.07377,-33.61167 -75.07377,-75.07377z" fill="#79440c" stroke="url(#color-1)" stroke-width="0"/></g></g></svg>