<svg version="1.1" xmlns="http://www.w3.org/2000/svg" xmlns:xlink="http://www.w3.org/1999/xlink" width="879.12195" height="469.79525" viewBox="0,0,879.12195,469.79525"><defs><radialGradient cx="589.15075" cy="236.77627" r="1000.40718" gradientUnits="userSpaceOnUse" id="color-1"><stop offset="0" stop-color="#00b8ff" stop-opacity="0.59608"/><stop offset="1" stop-color="#00e8ff" stop-opacity="0.30588"/></radialGradient><radialGradient cx="307.251" cy="270.45607" r="2.51263" gradientUnits="userSpaceOnUse" id="color-2"><stop offset="0" stop-color="#00b8ff" stop-opacity="0.59608"/><stop offset="1" stop-color="#00e8ff" stop-opacity="0.30588"/></radialGradient><radialGradient cx="301.39222" cy="265.46378" r="2.51263" gradientUnits="userSpaceOnUse" id="color-3"><stop offset="0" stop-color="#00b8ff" stop-opacity="0.59608"/><stop offset="1" stop-color="#00e8ff" stop-opacity="0.30588"/></radialGradient><radialGradient cx="329.87135" cy="257.03066" r="2.51262" gradientUnits="userSpaceOnUse" id="color-4"><stop offset="0" stop-color="#00b8ff" stop-opacity="0.59608"/><stop offset="1" stop-color="#00e8ff" stop-opacity="0.30588"/></radialGradient><radialGradient cx="328.48537" cy="262.91667" r="2.51262" gradientUnits="userSpaceOnUse" id="color-5"><stop offset="0" stop-color="#00b8ff" stop-opacity="0.59608"/><stop offset="1" stop-color="#00e8ff" stop-opacity="0.30588"/></radialGradient><radialGradient cx="314.56675" cy="257.58592" r="19.72092" gradientUnits="userSpaceOnUse" id="color-6"><stop offset="0" stop-color="#00b8ff" stop-opacity="0.59608"/><stop offset="1" stop-color="#00e8ff" stop-opacity="0.30588"/></radialGradient><radialGradient cx="314.56675" cy="257.58592" r="19.72092" gradientUnits="userSpaceOnUse" id="color-7"><stop offset="0" stop-color="#00b8ff" stop-opacity="0.59608"/><stop offset="1" stop-color="#00e8ff" stop-opacity="0.30588"/></radialGradient><radialGradient cx="314.56675" cy="257.58592" r="19.72092" gradientUnits="userSpaceOnUse" id="color-8"><stop offset="0" stop-color="#00b8ff" stop-opacity="0.59608"/><stop offset="1" stop-color="#00e8ff" stop-opacity="0.30588"/></radialGradient><radialGradient cx="332.74995" cy="244.56214" r="10.23801" gradientUnits="userSpaceOnUse" id="color-9"><stop offset="0" stop-color="#00b8ff" stop-opacity="0.59608"/><stop offset="1" stop-color="#00e8ff" stop-opacity="0.30588"/></radialGradient><radialGradient cx="343.28253" cy="245.04154" r="4.12521" gradientUnits="userSpaceOnUse" id="color-10"><stop offset="0" stop-color="#00b8ff" stop-opacity="0.59608"/><stop offset="1" stop-color="#00e8ff" stop-opacity="0.30588"/></radialGradient><radialGradient cx="338.01318" cy="241.21832" r="0.69449" gradientUnits="userSpaceOnUse" id="color-11"><stop offset="0" stop-color="#00b8ff" stop-opacity="0.59608"/><stop offset="1" stop-color="#00e8ff" stop-opacity="0.30588"/></radialGradient><radialGradient cx="281.29512" cy="212.05847" r="2.51263" gradientUnits="userSpaceOnUse" id="color-12"><stop offset="0" stop-color="#00b8ff" stop-opacity="0.59608"/><stop offset="1" stop-color="#00e8ff" stop-opacity="0.30588"/></radialGradient><radialGradient cx="277.90939" cy="205.14579" r="2.51263" gradientUnits="userSpaceOnUse" id="color-13"><stop offset="0" stop-color="#00b8ff" stop-opacity="0.59608"/><stop offset="1" stop-color="#00e8ff" stop-opacity="0.30588"/></radialGradient><radialGradient cx="307.39102" cy="208.753" r="2.51261" gradientUnits="userSpaceOnUse" id="color-14"><stop offset="0" stop-color="#00b8ff" stop-opacity="0.59608"/><stop offset="1" stop-color="#00e8ff" stop-opacity="0.30588"/></radialGradient><radialGradient cx="303.77544" cy="213.60003" r="2.51262" gradientUnits="userSpaceOnUse" id="color-15"><stop offset="0" stop-color="#00b8ff" stop-opacity="0.59608"/><stop offset="1" stop-color="#00e8ff" stop-opacity="0.30588"/></radialGradient><radialGradient cx="293.1315" cy="203.16684" r="19.72092" gradientUnits="userSpaceOnUse" id="color-16"><stop offset="0" stop-color="#00b8ff" stop-opacity="0.59608"/><stop offset="1" stop-color="#00e8ff" stop-opacity="0.30588"/></radialGradient><radialGradient cx="293.1315" cy="203.16684" r="19.72092" gradientUnits="userSpaceOnUse" id="color-17"><stop offset="0" stop-color="#00b8ff" stop-opacity="0.59608"/><stop offset="1" stop-color="#00e8ff" stop-opacity="0.30588"/></radialGradient><radialGradient cx="293.1315" cy="203.16684" r="19.72092" gradientUnits="userSpaceOnUse" id="color-18"><stop offset="0" stop-color="#00b8ff" stop-opacity="0.59608"/><stop offset="1" stop-color="#00e8ff" stop-opacity="0.30588"/></radialGradient><radialGradient cx="314.9974" cy="198.46255" r="10.23801" gradientUnits="userSpaceOnUse" id="color-19"><stop offset="0" stop-color="#00b8ff" stop-opacity="0.59608"/><stop offset="1" stop-color="#00e8ff" stop-opacity="0.30588"/></radialGradient><radialGradient cx="324.46763" cy="203.09718" r="4.12521" gradientUnits="userSpaceOnUse" id="color-20"><stop offset="0" stop-color="#00b8ff" stop-opacity="0.59608"/><stop offset="1" stop-color="#00e8ff" stop-opacity="0.30588"/></radialGradient><radialGradient cx="321.15694" cy="197.49161" r="0.69449" gradientUnits="userSpaceOnUse" id="color-21"><stop offset="0" stop-color="#00b8ff" stop-opacity="0.59608"/><stop offset="1" stop-color="#00e8ff" stop-opacity="0.30588"/></radialGradient><radialGradient cx="311.47107" cy="139.63393" r="2.51263" gradientUnits="userSpaceOnUse" id="color-22"><stop offset="0" stop-color="#00b8ff" stop-opacity="0.59608"/><stop offset="1" stop-color="#00e8ff" stop-opacity="0.30588"/></radialGradient><radialGradient cx="305.61228" cy="134.64164" r="2.51263" gradientUnits="userSpaceOnUse" id="color-23"><stop offset="0" stop-color="#00b8ff" stop-opacity="0.59608"/><stop offset="1" stop-color="#00e8ff" stop-opacity="0.30588"/></radialGradient><radialGradient cx="334.09142" cy="126.20852" r="2.51262" gradientUnits="userSpaceOnUse" id="color-24"><stop offset="0" stop-color="#00b8ff" stop-opacity="0.59608"/><stop offset="1" stop-color="#00e8ff" stop-opacity="0.30588"/></radialGradient><radialGradient cx="332.70544" cy="132.09453" r="2.51262" gradientUnits="userSpaceOnUse" id="color-25"><stop offset="0" stop-color="#00b8ff" stop-opacity="0.59608"/><stop offset="1" stop-color="#00e8ff" stop-opacity="0.30588"/></radialGradient><radialGradient cx="318.78681" cy="126.76378" r="19.72092" gradientUnits="userSpaceOnUse" id="color-26"><stop offset="0" stop-color="#00b8ff" stop-opacity="0.59608"/><stop offset="1" stop-color="#00e8ff" stop-opacity="0.30588"/></radialGradient><radialGradient cx="318.78681" cy="126.76378" r="19.72092" gradientUnits="userSpaceOnUse" id="color-27"><stop offset="0" stop-color="#00b8ff" stop-opacity="0.59608"/><stop offset="1" stop-color="#00e8ff" stop-opacity="0.30588"/></radialGradient><radialGradient cx="318.78681" cy="126.76378" r="19.72092" gradientUnits="userSpaceOnUse" id="color-28"><stop offset="0" stop-color="#00b8ff" stop-opacity="0.59608"/><stop offset="1" stop-color="#00e8ff" stop-opacity="0.30588"/></radialGradient><radialGradient cx="336.97002" cy="113.74" r="10.23801" gradientUnits="userSpaceOnUse" id="color-29"><stop offset="0" stop-color="#00b8ff" stop-opacity="0.59608"/><stop offset="1" stop-color="#00e8ff" stop-opacity="0.30588"/></radialGradient><radialGradient cx="347.5026" cy="114.2194" r="4.12521" gradientUnits="userSpaceOnUse" id="color-30"><stop offset="0" stop-color="#00b8ff" stop-opacity="0.59608"/><stop offset="1" stop-color="#00e8ff" stop-opacity="0.30588"/></radialGradient><radialGradient cx="342.23325" cy="110.39618" r="0.69449" gradientUnits="userSpaceOnUse" id="color-31"><stop offset="0" stop-color="#00b8ff" stop-opacity="0.59608"/><stop offset="1" stop-color="#00e8ff" stop-opacity="0.30588"/></radialGradient><radialGradient cx="383.49856" cy="249.71355" r="2.51263" gradientUnits="userSpaceOnUse" id="color-32"><stop offset="0" stop-color="#00b8ff" stop-opacity="0.59608"/><stop offset="1" stop-color="#00e8ff" stop-opacity="0.30588"/></radialGradient><radialGradient cx="382.22248" cy="242.12277" r="2.51263" gradientUnits="userSpaceOnUse" id="color-33"><stop offset="0" stop-color="#00b8ff" stop-opacity="0.59608"/><stop offset="1" stop-color="#00e8ff" stop-opacity="0.30588"/></radialGradient><radialGradient cx="409.45475" cy="253.97951" r="2.51262" gradientUnits="userSpaceOnUse" id="color-34"><stop offset="0" stop-color="#00b8ff" stop-opacity="0.59608"/><stop offset="1" stop-color="#00e8ff" stop-opacity="0.30588"/></radialGradient><radialGradient cx="404.60813" cy="257.59564" r="2.51262" gradientUnits="userSpaceOnUse" id="color-35"><stop offset="0" stop-color="#00b8ff" stop-opacity="0.59608"/><stop offset="1" stop-color="#00e8ff" stop-opacity="0.30588"/></radialGradient><radialGradient cx="397.37758" cy="244.56244" r="19.72092" gradientUnits="userSpaceOnUse" id="color-36"><stop offset="0" stop-color="#00b8ff" stop-opacity="0.59608"/><stop offset="1" stop-color="#00e8ff" stop-opacity="0.30588"/></radialGradient><radialGradient cx="397.37758" cy="244.56244" r="19.72092" gradientUnits="userSpaceOnUse" id="color-37"><stop offset="0" stop-color="#00b8ff" stop-opacity="0.59608"/><stop offset="1" stop-color="#00e8ff" stop-opacity="0.30588"/></radialGradient><radialGradient cx="397.37758" cy="244.56244" r="19.72092" gradientUnits="userSpaceOnUse" id="color-38"><stop offset="0" stop-color="#00b8ff" stop-opacity="0.59608"/><stop offset="1" stop-color="#00e8ff" stop-opacity="0.30588"/></radialGradient><radialGradient cx="419.67756" cy="246.28247" r="10.23801" gradientUnits="userSpaceOnUse" id="color-39"><stop offset="0" stop-color="#00b8ff" stop-opacity="0.59608"/><stop offset="1" stop-color="#00e8ff" stop-opacity="0.30588"/></radialGradient><radialGradient cx="427.43499" cy="253.42301" r="4.12521" gradientUnits="userSpaceOnUse" id="color-40"><stop offset="0" stop-color="#00b8ff" stop-opacity="0.59608"/><stop offset="1" stop-color="#00e8ff" stop-opacity="0.30588"/></radialGradient><radialGradient cx="425.85847" cy="247.10655" r="0.69449" gradientUnits="userSpaceOnUse" id="color-41"><stop offset="0" stop-color="#00b8ff" stop-opacity="0.59608"/><stop offset="1" stop-color="#00e8ff" stop-opacity="0.30588"/></radialGradient><radialGradient cx="474.64707" cy="207.62393" r="2.51263" gradientUnits="userSpaceOnUse" id="color-42"><stop offset="0" stop-color="#00b8ff" stop-opacity="0.59608"/><stop offset="1" stop-color="#00e8ff" stop-opacity="0.30588"/></radialGradient><radialGradient cx="468.78828" cy="202.63164" r="2.51263" gradientUnits="userSpaceOnUse" id="color-43"><stop offset="0" stop-color="#00b8ff" stop-opacity="0.59608"/><stop offset="1" stop-color="#00e8ff" stop-opacity="0.30588"/></radialGradient><radialGradient cx="497.26742" cy="194.19852" r="2.51262" gradientUnits="userSpaceOnUse" id="color-44"><stop offset="0" stop-color="#00b8ff" stop-opacity="0.59608"/><stop offset="1" stop-color="#00e8ff" stop-opacity="0.30588"/></radialGradient><radialGradient cx="495.88144" cy="200.08453" r="2.51262" gradientUnits="userSpaceOnUse" id="color-45"><stop offset="0" stop-color="#00b8ff" stop-opacity="0.59608"/><stop offset="1" stop-color="#00e8ff" stop-opacity="0.30588"/></radialGradient><radialGradient cx="481.96281" cy="194.75378" r="19.72092" gradientUnits="userSpaceOnUse" id="color-46"><stop offset="0" stop-color="#00b8ff" stop-opacity="0.59608"/><stop offset="1" stop-color="#00e8ff" stop-opacity="0.30588"/></radialGradient><radialGradient cx="481.96281" cy="194.75378" r="19.72092" gradientUnits="userSpaceOnUse" id="color-47"><stop offset="0" stop-color="#00b8ff" stop-opacity="0.59608"/><stop offset="1" stop-color="#00e8ff" stop-opacity="0.30588"/></radialGradient><radialGradient cx="481.96281" cy="194.75378" r="19.72092" gradientUnits="userSpaceOnUse" id="color-48"><stop offset="0" stop-color="#00b8ff" stop-opacity="0.59608"/><stop offset="1" stop-color="#00e8ff" stop-opacity="0.30588"/></radialGradient><radialGradient cx="500.14602" cy="181.73" r="10.23801" gradientUnits="userSpaceOnUse" id="color-49"><stop offset="0" stop-color="#00b8ff" stop-opacity="0.59608"/><stop offset="1" stop-color="#00e8ff" stop-opacity="0.30588"/></radialGradient><radialGradient cx="510.6786" cy="182.2094" r="4.12521" gradientUnits="userSpaceOnUse" id="color-50"><stop offset="0" stop-color="#00b8ff" stop-opacity="0.59608"/><stop offset="1" stop-color="#00e8ff" stop-opacity="0.30588"/></radialGradient><radialGradient cx="505.40925" cy="178.38618" r="0.69449" gradientUnits="userSpaceOnUse" id="color-51"><stop offset="0" stop-color="#00b8ff" stop-opacity="0.59608"/><stop offset="1" stop-color="#00e8ff" stop-opacity="0.30588"/></radialGradient><radialGradient cx="369.3149" cy="199.90272" r="2.51263" gradientUnits="userSpaceOnUse" id="color-52"><stop offset="0" stop-color="#00b8ff" stop-opacity="0.59608"/><stop offset="1" stop-color="#00e8ff" stop-opacity="0.30588"/></radialGradient><radialGradient cx="366.80646" cy="192.62563" r="2.51263" gradientUnits="userSpaceOnUse" id="color-53"><stop offset="0" stop-color="#00b8ff" stop-opacity="0.59608"/><stop offset="1" stop-color="#00e8ff" stop-opacity="0.30588"/></radialGradient><radialGradient cx="395.61922" cy="199.83697" r="2.51262" gradientUnits="userSpaceOnUse" id="color-54"><stop offset="0" stop-color="#00b8ff" stop-opacity="0.59608"/><stop offset="1" stop-color="#00e8ff" stop-opacity="0.30588"/></radialGradient><radialGradient cx="391.43411" cy="204.20171" r="2.51262" gradientUnits="userSpaceOnUse" id="color-55"><stop offset="0" stop-color="#00b8ff" stop-opacity="0.59608"/><stop offset="1" stop-color="#00e8ff" stop-opacity="0.30588"/></radialGradient><radialGradient cx="382.15641" cy="192.53684" r="19.72092" gradientUnits="userSpaceOnUse" id="color-56"><stop offset="0" stop-color="#00b8ff" stop-opacity="0.59608"/><stop offset="1" stop-color="#00e8ff" stop-opacity="0.30588"/></radialGradient><radialGradient cx="382.15641" cy="192.53684" r="19.72092" gradientUnits="userSpaceOnUse" id="color-57"><stop offset="0" stop-color="#00b8ff" stop-opacity="0.59608"/><stop offset="1" stop-color="#00e8ff" stop-opacity="0.30588"/></radialGradient><radialGradient cx="382.15641" cy="192.53684" r="19.72092" gradientUnits="userSpaceOnUse" id="color-58"><stop offset="0" stop-color="#00b8ff" stop-opacity="0.59608"/><stop offset="1" stop-color="#00e8ff" stop-opacity="0.30588"/></radialGradient><radialGradient cx="404.43527" cy="190.56186" r="10.23801" gradientUnits="userSpaceOnUse" id="color-59"><stop offset="0" stop-color="#00b8ff" stop-opacity="0.59608"/><stop offset="1" stop-color="#00e8ff" stop-opacity="0.30588"/></radialGradient><radialGradient cx="413.26247" cy="196.32776" r="4.12521" gradientUnits="userSpaceOnUse" id="color-60"><stop offset="0" stop-color="#00b8ff" stop-opacity="0.59608"/><stop offset="1" stop-color="#00e8ff" stop-opacity="0.30588"/></radialGradient><radialGradient cx="410.66751" cy="190.35706" r="0.69449" gradientUnits="userSpaceOnUse" id="color-61"><stop offset="0" stop-color="#00b8ff" stop-opacity="0.59608"/><stop offset="1" stop-color="#00e8ff" stop-opacity="0.30588"/></radialGradient><radialGradient cx="415.16221" cy="154.75333" r="2.51263" gradientUnits="userSpaceOnUse" id="color-62"><stop offset="0" stop-color="#00b8ff" stop-opacity="0.59608"/><stop offset="1" stop-color="#00e8ff" stop-opacity="0.30588"/></radialGradient><radialGradient cx="420.73451" cy="149.44316" r="2.51263" gradientUnits="userSpaceOnUse" id="color-63"><stop offset="0" stop-color="#00b8ff" stop-opacity="0.59608"/><stop offset="1" stop-color="#00e8ff" stop-opacity="0.30588"/></radialGradient><radialGradient cx="391.83073" cy="142.60573" r="2.51262" gradientUnits="userSpaceOnUse" id="color-64"><stop offset="0" stop-color="#00b8ff" stop-opacity="0.59608"/><stop offset="1" stop-color="#00e8ff" stop-opacity="0.30588"/></radialGradient><radialGradient cx="393.54167" cy="148.40563" r="2.51262" gradientUnits="userSpaceOnUse" id="color-65"><stop offset="0" stop-color="#00b8ff" stop-opacity="0.59608"/><stop offset="1" stop-color="#00e8ff" stop-opacity="0.30588"/></radialGradient><radialGradient cx="407.14254" cy="142.30962" r="19.72092" gradientUnits="userSpaceOnUse" id="color-66"><stop offset="0" stop-color="#00b8ff" stop-opacity="0.59608"/><stop offset="1" stop-color="#00e8ff" stop-opacity="0.30588"/></radialGradient><radialGradient cx="407.14254" cy="142.30962" r="19.72092" gradientUnits="userSpaceOnUse" id="color-67"><stop offset="0" stop-color="#00b8ff" stop-opacity="0.59608"/><stop offset="1" stop-color="#00e8ff" stop-opacity="0.30588"/></radialGradient><radialGradient cx="407.14254" cy="142.30962" r="19.72092" gradientUnits="userSpaceOnUse" id="color-68"><stop offset="0" stop-color="#00b8ff" stop-opacity="0.59608"/><stop offset="1" stop-color="#00e8ff" stop-opacity="0.30588"/></radialGradient><radialGradient cx="388.26367" cy="130.31645" r="10.23801" gradientUnits="userSpaceOnUse" id="color-69"><stop offset="0" stop-color="#00b8ff" stop-opacity="0.59608"/><stop offset="1" stop-color="#00e8ff" stop-opacity="0.30588"/></radialGradient><radialGradient cx="377.77401" cy="131.38043" r="4.12521" gradientUnits="userSpaceOnUse" id="color-70"><stop offset="0" stop-color="#00b8ff" stop-opacity="0.59608"/><stop offset="1" stop-color="#00e8ff" stop-opacity="0.30588"/></radialGradient><radialGradient cx="382.82275" cy="127.27029" r="0.69449" gradientUnits="userSpaceOnUse" id="color-71"><stop offset="0" stop-color="#00b8ff" stop-opacity="0.59608"/><stop offset="1" stop-color="#00e8ff" stop-opacity="0.30588"/></radialGradient><radialGradient cx="354.85563" cy="168.36914" r="1.58163" gradientUnits="userSpaceOnUse" id="color-72"><stop offset="0" stop-color="#00b8ff" stop-opacity="0.59608"/><stop offset="1" stop-color="#00e8ff" stop-opacity="0.30588"/></radialGradient><radialGradient cx="355.55628" cy="163.57484" r="1.58163" gradientUnits="userSpaceOnUse" id="color-73"><stop offset="0" stop-color="#00b8ff" stop-opacity="0.59608"/><stop offset="1" stop-color="#00e8ff" stop-opacity="0.30588"/></radialGradient><radialGradient cx="338.57826" cy="171.40404" r="1.58162" gradientUnits="userSpaceOnUse" id="color-74"><stop offset="0" stop-color="#00b8ff" stop-opacity="0.59608"/><stop offset="1" stop-color="#00e8ff" stop-opacity="0.30588"/></radialGradient><radialGradient cx="341.67716" cy="173.61437" r="1.58162" gradientUnits="userSpaceOnUse" id="color-75"><stop offset="0" stop-color="#00b8ff" stop-opacity="0.59608"/><stop offset="1" stop-color="#00e8ff" stop-opacity="0.30588"/></radialGradient><radialGradient cx="346.05169" cy="165.31467" r="12.41376" gradientUnits="userSpaceOnUse" id="color-76"><stop offset="0" stop-color="#00b8ff" stop-opacity="0.59608"/><stop offset="1" stop-color="#00e8ff" stop-opacity="0.30588"/></radialGradient><radialGradient cx="346.05169" cy="165.31467" r="12.41376" gradientUnits="userSpaceOnUse" id="color-77"><stop offset="0" stop-color="#00b8ff" stop-opacity="0.59608"/><stop offset="1" stop-color="#00e8ff" stop-opacity="0.30588"/></radialGradient><radialGradient cx="346.05169" cy="165.31467" r="12.41376" gradientUnits="userSpaceOnUse" id="color-78"><stop offset="0" stop-color="#00b8ff" stop-opacity="0.59608"/><stop offset="1" stop-color="#00e8ff" stop-opacity="0.30588"/></radialGradient><radialGradient cx="332.04092" cy="166.69801" r="6.44454" gradientUnits="userSpaceOnUse" id="color-79"><stop offset="0" stop-color="#00b8ff" stop-opacity="0.59608"/><stop offset="1" stop-color="#00e8ff" stop-opacity="0.30588"/></radialGradient><radialGradient cx="327.2553" cy="171.29642" r="2.5967" gradientUnits="userSpaceOnUse" id="color-80"><stop offset="0" stop-color="#00b8ff" stop-opacity="0.59608"/><stop offset="1" stop-color="#00e8ff" stop-opacity="0.30588"/></radialGradient><radialGradient cx="328.16222" cy="167.30003" r="0.43716" gradientUnits="userSpaceOnUse" id="color-81"><stop offset="0" stop-color="#00b8ff" stop-opacity="0.59608"/><stop offset="1" stop-color="#00e8ff" stop-opacity="0.30588"/></radialGradient></defs><g transform="translate(89.44809,59.72238)"><g stroke-miterlimit="10"><path d="M667.06868,400.40284c-4.04479,-0.789 -7.39669,-4.02668 -11.47879,-4.59152c-12.14697,-1.68078 -27.8134,-0.66631 -40.60196,0.15461c-11.47262,-5.73631 -21.29707,-5.06649 -33.92426,-5.06649c-22.95759,0 -45.91517,0 -68.87275,0c-8.41779,0 -16.83556,0 -25.25335,0c-1.53051,0 -3.11509,-0.40325 -4.59152,0c-1.20436,0.32894 -2.04067,2.76051 -3.10069,2.10092c-2.34267,-1.45768 -2.13537,-5.63016 -4.59151,-6.88727c-9.8714,-5.05242 -38.15825,-2.10093 -49.70176,-2.10093c-41.32365,0 -82.6473,0 -123.97097,0c-20.67858,0 -43.53475,-2.70442 -63.92292,0.10602c-9.33361,1.28661 -18.48659,4.62333 -27.90744,4.4855c-4.58309,0 -37.46178,-0.02513 -38.66956,0.10602c-7.01406,0.76162 -13.68308,3.55509 -20.66184,4.59152c-7.68774,1.1417 -15.54386,-0.10602 -23.31592,-0.10602c-20.66183,0 -41.32365,0 -61.98546,0c-10.7981,0 -24.00038,-1.51116 -34.60335,0.17163c-5.50225,0.87325 -10.60108,3.53085 -16.07031,4.59152c-7.79652,1.51203 -16.20034,-1.52004 -23.81391,0.73954c-3.22402,0.95683 -5.49001,3.80569 -8.08742,6.01656c-0.00359,-0.02328 -0.02611,-0.03764 -0.07233,-0.04043c-9.16624,-0.55505 -18.36606,0 -27.54909,0c-2.22653,0 -4.45307,0 -6.6796,0c0.23045,-6.01752 -0.71878,-14.31101 -3.13267,-17.00364c-1.38923,-1.54965 -3.50358,-1.9464 -5.69575,-2.21943c-0.45412,-0.70607 -0.87358,-1.43016 -1.21057,-2.19723c-0.81291,-1.85038 -5.13561,-20.65437 -5.27643,-21.43081c-0.38726,-2.13537 0.38294,-4.39065 -0.08378,-6.51007c-0.57963,-2.63221 -2.48913,-4.86167 -3.003,-7.50751c-0.69654,-3.58637 -0.38718,-7.29651 -0.58077,-10.94477c-1.5015,-1.5015 -3.66804,-2.55275 -4.50451,-4.5045c-0.78862,-1.84013 0.63309,-4.10674 0,-6.00601c-0.44766,-1.34298 -2.55282,-1.66086 -3.003,-3.003c-0.71305,-2.1259 0.76121,-4.44138 0.76121,-6.68367c0,-8.00801 0,-16.01601 0,-24.02402c0,-26.02222 0.25506,-52.05737 0,-78.07808c-0.08207,-8.37249 -3.21381,-14.20681 -3.00301,-22.52252c0,-13.27407 1.62923,-28.44545 -0.76121,-41.36437c-0.25756,-1.392 -2.55282,-1.66086 -3.003,-3.00301c-0.39841,-1.18782 0.6941,-2.42962 0.76121,-3.68067c0.29488,-5.4976 0,-11.01101 0,-16.51652c0,-21.49279 0.59147,-43.08065 0,-64.56456c-0.05214,-1.89393 0.29351,-3.89502 -0.36285,-5.67234c-1.01103,-2.73767 -3.14148,-4.92697 -4.5045,-7.50751c-0.98859,-1.87164 0.36285,-4.22299 0.36285,-6.33967c0,-17.01701 0,-34.03404 0,-51.05105c0,-4.44914 0.34749,-9.09147 0,-13.51351c-0.09815,-1.24901 -1.15962,-2.49285 -0.76121,-3.68067c0.45018,-1.34214 2.55261,-1.66094 3.003,-3.00301c0.73631,-2.19406 -0.31564,-4.71318 0.33213,-6.935c0.50509,-1.73246 2.43774,-2.79074 3.00301,-4.50451c0.61775,-1.87289 0.33415,-3.93098 0.42908,-5.90084c0.05034,-1.04467 -0.93897,-2.19499 -0.42908,-3.10816c0.87977,-1.57559 2.43774,-2.79074 3.003,-4.5045c0.48694,-1.4763 0.38396,-3.06948 0.38856,-4.64134c1.1193,-0.47258 2.22906,-1.05571 2.95549,-1.9417c1.95888,-0.22917 3.92181,-0.55598 5.80852,-0.09582c2.17457,0.53036 3.85382,2.38809 6.00601,3.003c1.44373,0.41249 3.06077,-0.41249 4.5045,0c2.15219,0.61491 3.80381,2.60261 6.00601,3.00301c3.44699,0.62673 7.0512,-0.55473 10.51051,0c1.55298,0.24903 2.66206,1.6962 4.09606,2.34229c4.17603,1.88152 8.21492,4.33552 12.70734,5.2285c4.6221,0.91877 9.46172,-0.48248 14.13716,0.10757c3.61503,0.45622 6.89486,2.55177 10.51051,3.00301c4.6316,0.57803 9.35822,-0.4093 14.00247,0.05625c5.56786,0.55813 10.96201,2.3247 16.51651,3.003c16.459,2.00993 34.2634,0.08589 50.85794,-0.01931c25.55492,5.67887 53.02029,3.06272 79.16925,3.06272c40.54054,0 81.08108,0 121.62162,0c22.52253,0 45.04505,0 67.56757,0c7.48417,0 24.67445,-1.77908 31.43121,-0.12913c4.61263,1.12638 8.86192,3.55176 13.51351,4.50451c5.2991,1.08536 10.91615,-1.0763 16.22726,-0.05131c2.64645,0.51074 4.84604,2.57744 7.50751,3.003c8.14022,1.30161 19.55086,-1.82884 27.53109,0.08378c5.88982,1.41161 11.84742,3.02048 17.90353,3.09966c3.04134,0 6.12756,-0.62021 9.12349,-0.09665c5.96621,1.04263 11.84704,3.06038 17.90353,3.09966c4.50441,0.02922 9.04923,0.60062 13.51352,0c1.00083,-0.13465 1.91289,-1.6856 2.78893,-1.18326c1.56547,0.89768 1.33586,3.81376 3.003,4.50451c7.0735,2.93077 28.46352,1.18325 37.75161,1.18325c7.00701,0 14.01402,0 21.02103,0c6.68901,0 8.14151,-2.30637 12.68968,2.24179c1.71844,0.11541 20.00946,-0.126 22.55033,0.4937c2.17457,0.53036 3.82047,2.51982 6.00601,3.00301c2.67031,0.59036 5.51286,-0.35263 8.20321,0.13839c3.11401,0.56833 5.89101,2.45701 9.00901,3.00301c1.95671,0.34264 4.06903,-1.03144 5.94705,-0.38405c2.36587,0.81556 3.58109,3.88621 6.00601,4.50451c4.77666,1.21795 10.10001,-1.20135 14.78472,0.33273c2.56144,0.83878 4.868,2.45754 7.50751,3.00301c4.04875,0.8367 8.29384,0.64827 12.40159,0.18044c0.76449,-0.08707 1.47298,-1.0667 2.17917,-0.7612c1.29926,0.56206 1.65953,2.55683 3.00301,3.00301c1.48865,0.49439 3.05824,0.61432 4.64189,0.65788c1.03932,2.55731 2.49802,4.97849 2.96596,5.91437c0,2.50251 -0.65845,5.09318 0,7.50751c0.88341,3.23915 3.31801,5.86819 4.5045,9.00901c1.48473,3.9303 -0.78702,8.44704 -0.17085,12.603c0.53439,3.6043 2.4877,6.90343 3.003,10.51051c0.49547,3.46829 -0.49547,7.04222 0,10.51051c0.5153,3.60708 2.42634,6.91274 3.00301,10.51051c0.6973,4.35038 -0.73421,8.86728 -0.03695,13.21767c0.73025,4.55624 2.38895,8.94017 3.00301,13.51351c0.44046,3.28042 -0.58959,6.70109 0.14451,9.9285c0.84541,3.71676 3.66352,6.79274 4.50451,10.51051c1.2059,5.33096 -1.12992,11.04438 -0.02379,16.39693c0.54547,2.63951 2.53834,4.85259 3.00301,7.50751c0.84055,4.80251 -0.18044,9.74992 -0.18044,14.62544c0,11.51151 0,23.02303 0,34.53454c0,14.51451 0,29.02903 0,43.54354c0,5.04327 1.04806,10.17679 0.09666,15.1295c-0.68738,3.57827 -2.38141,6.92022 -3.003,10.51051c-0.71673,4.1398 1.16636,8.52125 0.17085,12.603c-0.53036,2.17456 -2.54961,3.8141 -3.00301,6.00601c-1.33009,6.43018 1.53634,14.72178 0,21.02102c-0.53036,2.17456 -2.44922,3.83729 -3.003,6.00601c-0.90035,3.52596 0.77173,7.38065 -0.08708,10.91697c-0.63608,2.61915 -2.45754,4.868 -3.00301,7.50751c-0.2033,0.98377 -0.18043,8.2727 -0.18043,10.90008c0.17106,1.44841 0.98856,2.96641 0.51316,4.34523c-0.50531,1.46555 -2.2882,2.12529 -3.18106,3.39256c-1.65101,2.34332 -3.51878,4.6581 -4.41053,7.38238c-0.5276,1.6118 0.67966,3.41705 0.33213,5.07702c-0.10763,0.5141 -1.18214,0.07 -1.49762,0.48994c-1.86297,2.47974 -3.91477,4.98635 -4.84051,7.94656c-0.28651,0.91616 -0.6506,14.76483 -0.42908,16.41135c0.07772,0.57766 1.54005,0.82652 1.18326,1.28743c-1.10464,1.42699 -3.87313,1.31248 -4.5045,3.003c-1.77928,4.76407 -1.18326,12.61627 -1.18326,18.23209c0,0.51929 0,1.0447 0,1.57566c-2.73384,0.13936 -5.44999,0.10154 -8.11729,-0.41876z" fill="#000000" stroke="url(#color-1)" stroke-width="0"/><path d="M667.06868,400.40282c-4.04479,-0.789 -7.39669,-4.02668 -11.47879,-4.59152c-12.14697,-1.68078 -27.8134,-0.66631 -40.60196,0.15461c-11.47262,-5.73631 -21.29707,-5.0665 -33.92426,-5.0665c-21.66055,0 -43.32111,0 -64.98167,0c45.30386,-102.98318 108.84396,-196.13237 186.53125,-275.35851c0.71372,5.02007 -1.25221,10.33013 -0.21982,15.32584c0.54547,2.63951 2.53834,4.85259 3.00301,7.50751c0.84055,4.80251 -0.18044,9.74992 -0.18044,14.62544c0,11.51151 0,23.02303 0,34.53454c0,14.51451 0,29.02903 0,43.54354c0,5.04327 1.04806,10.17679 0.09666,15.1295c-0.68738,3.57827 -2.38141,6.92022 -3.003,10.51051c-0.71673,4.1398 1.16636,8.52125 0.17085,12.603c-0.53036,2.17456 -2.54961,3.8141 -3.00301,6.00601c-1.33009,6.43018 1.53634,14.72178 0,21.02102c-0.53036,2.17456 -2.44922,3.83729 -3.003,6.00601c-0.90035,3.52596 0.77173,7.38065 -0.08708,10.91697c-0.63608,2.61915 -2.45754,4.868 -3.00301,7.50751c-0.2033,0.98377 -0.18043,8.2727 -0.18043,10.90008c0.17106,1.44841 0.98856,2.96641 0.51316,4.34523c-0.50531,1.46555 -2.2882,2.12529 -3.18106,3.39256c-1.65101,2.34332 -3.51878,4.6581 -4.41053,7.38238c-0.5276,1.6118 0.67966,3.41705 0.33213,5.07702c-0.10763,0.5141 -1.18214,0.07 -1.49762,0.48994c-1.86297,2.47974 -3.91477,4.98635 -4.84051,7.94656c-0.28651,0.91616 -0.6506,14.76483 -0.42908,16.41135c0.07772,0.57766 1.54005,0.82652 1.18326,1.28743c-1.10464,1.42699 -3.87313,1.31248 -4.5045,3.003c-1.77928,4.76407 -1.18326,12.61627 -1.18326,18.23209c0,0.51929 0,1.04469 0,1.57565c-2.73384,0.13936 -5.44999,0.10154 -8.11729,-0.41877z" fill-opacity="0.32549" fill="#ccfbff" stroke="none" stroke-width="50"/><path d="M783.70095,64.29118c0,39.79314 0,79.5863 0,119.37945c0.269,6.67437 2.7845,13.09606 4.91189,19.42801c1.36796,4.0716 -0.32039,12.14392 -0.32039,17.30414c0,13.77455 0,27.5491 0,41.32365c0,8.41779 0,16.83556 0,25.25336c0,1.53051 -0.42431,3.121 0,4.59152c0.12519,0.43388 1.60847,-0.27886 1.35158,0.09251c-1.23131,1.78012 -3.83692,2.56283 -4.59152,4.59151c-2.29903,6.18091 -1.35157,16.13072 -1.35157,22.86507c0,6.88728 0,13.77456 0,20.66183c0,3.06101 0,6.12203 0,9.18304c0,0.02042 -0.00027,0.04116 -0.0008,0.06222c-2.47759,4.93484 -3.30145,10.61894 -4.59072,16.00808c-0.3561,1.4885 -0.28377,3.08755 0,4.59152c0.05821,0.30851 0.9243,-0.82242 0.76185,-0.55376c-1.42767,2.36108 -3.74577,4.26092 -4.59152,6.88727c-2.2823,7.08735 -0.76185,18.31042 -0.76185,25.80712c0,1.42973 -0.56031,3.89058 -0.8958,5.93771c-0.16561,0.46763 -0.33368,0.93495 -0.5022,1.40221c-0.55659,0.09645 -1.07011,0.15787 -1.50825,0.15787c-5.35676,0 -10.71355,0 -16.07031,0c-4.00012,0 -8.10862,1.43875 -11.9909,0.47498c-3.3215,-0.82455 -5.89073,-3.65724 -9.18304,-4.59152c-2.35847,-0.66928 -19.17052,-0.4948 -20.14971,-0.47498c-3.9993,0.08095 -8.06433,1.23837 -11.99092,0.47498c-2.60614,-0.50667 -4.67755,-2.57731 -7.04078,-3.80097c0,-0.70068 0,-1.40136 0,-2.10204c0,-2.002 0.40072,-4.04451 0,-6.00601c-0.20213,-0.98942 -1.6856,-1.91289 -1.18325,-2.78893c0.89768,-1.56547 3.81375,-1.33586 4.5045,-3.003c1.22698,-2.96136 1.34379,-14.26049 1.18326,-18.2321c-0.04224,-1.04503 -0.61094,-2.07821 -0.42908,-3.10816c0.09141,-0.51769 0.82216,-0.66437 1.1655,-1.06245c1.55096,-1.79824 3.64793,-3.30274 4.50838,-5.51605c0.83858,-2.15704 -0.17621,-4.6772 0.33212,-6.935c0.16682,-0.74095 1.14988,-1.01159 1.59548,-1.62662c2.03486,-2.8086 4.74482,-5.32466 5.82795,-8.61946c1.11199,-3.38261 0.34211,-7.11319 0.51316,-10.66978c0,-2.3734 -0.74055,-4.81156 -0.18043,-7.11793c0.63608,-2.61915 2.45753,-4.868 3.003,-7.50751c0.68164,-3.29845 -1.15141,-6.9085 -0.08707,-10.10406c0.70731,-2.12361 2.54961,-3.8141 3.003,-6.006c1.33009,-6.43018 -1.53634,-14.72179 0,-21.02102c0.53036,-2.17456 2.54961,-3.8141 3.003,-6.00601c0.97399,-4.70867 -0.73624,-9.70202 0.17085,-14.42403c0.68738,-3.57827 2.38141,-6.92022 3.003,-10.51051c1.01809,-5.88045 0.09666,-11.9356 0.09666,-17.90353c0,-14.51451 0,-29.02903 0,-43.54354c0,-11.51151 0,-23.02303 0,-34.53454c0,-3.80023 0.02913,-17.097 -0.18043,-18.40759c-0.42557,-2.66147 -2.36693,-4.88837 -3.003,-7.50751c-1.30868,-5.38874 1.08696,-11.20311 -0.02379,-16.6361c-0.7219,-3.53099 -3.328,-6.46344 -4.34516,-9.90948c21.06255,-20.52057 43.10035,-40.04495 66.03731,-58.49703c0,7.41641 0,14.83281 0,22.24924z" fill-opacity="0.32549" fill="#ccfbff" stroke="none" stroke-width="50"/><path d="M448.58441,155.55765c0,11.55742 -11.5574,11.5574 -11.5574,11.5574c-2.57834,0 -12.89185,0 -15.47019,0c0,0 -11.55742,0 -11.55742,-11.5574c0,-11.5574 11.55742,-11.5574 11.55742,-11.5574c2.57834,0 5.15673,0 7.73509,0h7.73512c0,0 11.5574,0 11.5574,11.5574z" fill="#ffffff" stroke="none" stroke-width="0.5"/><path d="M221.77845,-22.3498c0,-6.38299 5.17442,-11.55742 11.55742,-11.55742c6.38298,0 11.5574,5.17442 11.5574,11.55742c0,6.38299 -5.17442,11.5574 -11.5574,11.5574c-6.38298,0 -11.55742,-5.17442 -11.55742,-11.5574z" fill="#ffffff" stroke="none" stroke-width="0.5"/><path d="M18.08726,-12.03633c0,-6.38298 5.17443,-11.55742 11.55742,-11.55742c6.38299,0 11.5574,5.17444 11.5574,11.55742c0,6.38299 -5.17441,11.5574 -11.5574,11.5574c-6.38299,0 -11.55742,-5.17441 -11.55742,-11.5574z" fill="#ffffff" stroke="none" stroke-width="0.5"/><path d="M134.1139,147.82255c0,-6.38298 5.17441,-11.5574 11.5574,-11.5574c6.38298,0 11.55742,5.17442 11.55742,11.5574c0,6.38298 -5.17442,11.55742 -11.55742,11.55742c-6.38298,0 -11.5574,-5.17442 -11.5574,-11.55742z" fill="#ffffff" stroke="none" stroke-width="0.5"/><path d="M263.03234,312.83815c0,-11.55742 11.5574,-11.5574 11.5574,-11.5574h10.31346c0,0 11.55742,0 11.55742,11.5574c0,11.55742 -11.55742,11.55742 -11.55742,11.55742h-10.31346c0,0 -11.5574,0 -11.5574,-11.55742z" fill="#ffffff" stroke="none" stroke-width="0.5"/><path d="M562.12312,207.12504c0,-6.38298 5.17442,-11.55741 11.55742,-11.55741c6.38298,0 11.5574,5.17441 11.5574,11.55741c0,6.38298 -5.17442,11.55742 -11.5574,11.55742c-6.38298,0 -11.55742,-5.17444 -11.55742,-11.55742z" fill="#ffffff" stroke="none" stroke-width="0.5"/><path d="M435.78306,374.71901c0,-6.38299 5.17441,-11.5574 11.5574,-11.5574c6.38299,0 11.55742,5.17442 11.55742,11.5574c0,3.33737 -1.41457,6.34435 -3.67683,8.45407c-5.09834,-0.07439 -10.46249,0.09512 -15.42579,0.30083c-2.45698,-2.11939 -4.0122,-5.25552 -4.0122,-8.7549z" fill="#ffffff" stroke="none" stroke-width="0.5"/><path d="M417.73449,-12.03633c0,-6.38298 5.17442,-11.55742 11.55742,-11.55742c6.38299,0 11.55742,5.17444 11.55742,11.55742c0,6.38299 -5.17442,11.5574 -11.55742,11.5574c-6.38299,0 -11.55742,-5.17441 -11.55742,-11.5574z" fill="#ffffff" stroke="none" stroke-width="0.5"/><path d="M38.71426,336.04346c0,-6.38299 5.17441,-11.55742 11.55742,-11.55742c6.38298,0 11.5574,5.17442 11.5574,11.55742c0,6.38299 -5.17442,11.55741 -11.5574,11.55741c-6.38298,0 -11.55741,-5.17443 -11.55741,-11.55741z" fill="#ffffff" stroke="none" stroke-width="0.5"/><path d="M188.25454,154.30459c6.80408,-25.14345 -14.55783,-66.73582 13.58839,-72.34633c30.46623,-6.07297 78.34097,14.44111 89.00387,-34.57519c4.65166,-21.38317 52.1934,15.25269 75.43642,21.5425c5.01193,1.3563 5.4692,37.92712 13.96074,38.93473c25.44819,3.01981 67.66244,-29.88889 77.9987,-20.77117c19.56927,17.26225 -6.87921,47.89833 14.60649,63.13623c22.06248,15.64695 70.62592,10.66413 74.54439,31.51654c2.67356,14.22761 -34.28055,45.41455 -38.07737,59.4452c-3.95239,14.60551 -46.90276,-10.61405 -51.99716,1.31052c-5.1336,12.01626 -3.66157,35.74316 -5.14974,54.5442c-1.12739,14.24327 -3.95369,25.65946 -12.63808,27.01504c-13.51659,2.10986 -54.94288,-40.02207 -75.00276,-59.5828c-6.74924,-6.5813 -56.15096,55.89237 -65.59598,53.33649c-7.50655,-2.03136 -6.49486,-26.64091 -8.84456,-36.00321c-5.03292,-20.0536 -8.57205,-32.66267 -25.27015,-43.3705c-27.48647,-17.62608 -106.28012,43.82793 -72.60454,19.34504c13.8853,-10.09489 24.47738,-27.06917 4.06764,-49.04348c-19.6957,-21.2056 -66.29657,-22.31199 -65.97219,-33.13562c0.32546,-10.85975 54.95533,-10.24689 57.9459,-21.29815z" fill="#5d554f" stroke="none" stroke-width="0"/><path d="M-73.41309,87.58533c12.73415,1.75365 30.13216,4.80597 41.01428,12.83064c3.30043,2.43377 2.99494,7.8409 5.7566,10.87223c5.61302,6.16107 16.14436,4.62126 23.49971,8.54089c18.81314,10.02549 40.50281,28.26099 53.85134,43.0265c6.01577,6.65433 29.55162,12.47404 37.75619,17.56645c-0.15183,3.2106 -2.63901,7.27316 -0.45545,9.63183c5.11832,5.52885 14.8534,3.33309 21.57648,6.73392c39.62187,20.04273 73.05123,51.60707 113.35735,72.14941c23.63326,12.04485 44.01052,34.47542 60.37746,54.37712c3.8553,4.68793 9.60221,8.00632 12.26004,13.46309c0.41548,0.853 -0.90573,2.57585 -1.91314,3.25083c2.83159,0.31917 10.52801,2.0541 10.52801,11.48546c0,11.55742 -11.5574,11.5574 -11.5574,11.5574c-22.03983,-4.69006 -22.62631,-25.00728 -39.69552,-42.12775c-31.32089,-31.41501 -95.35471,-65.27567 -133.97456,-88.51675c-14.27189,-8.58869 -49.60682,-26.35655 -50.16587,-39.85239c-34.52542,-3.90777 -53.7505,-37.53543 -83.72158,-52.8553c-12.38167,-6.32896 -17.02613,-1.75793 -28.06766,-12.08607c-2.62094,-2.45162 -1.71078,-7.5684 -4.55682,-9.7547c-8.04883,-6.18295 -22.48154,-5.05715 -31.18007,-7.79632c-1.95582,-0.61589 -3.67279,-1.63526 -5.24935,-2.897c0.09832,-10.77304 0.20508,-21.55422 0.09807,-32.31862c3.84527,4.07883 5.03083,11.97123 10.46193,12.71915z" fill="#ff0000" stroke="none" stroke-width="0.5"/><path d="M250.66466,-28.9562c13.47493,10.77128 23.55216,30.80328 36.73064,41.77434c30.32542,25.24576 65.1705,43.2275 92.82128,72.1943c8.48856,8.89256 24.67905,7.85682 32.58839,17.26829c5.55785,6.61337 4.80734,23.55541 4.8391,32.64997c0,0 0,11.5574 -11.55742,11.5574c-11.55742,0 -11.55742,-11.5574 -11.55742,-11.5574c0.00272,-0.64241 0.20701,-18.40697 -0.31763,-18.91742c-4.26734,-4.15185 -11.1038,-4.32434 -16.49893,-6.84249c-16.27841,-7.59788 -22.89977,-21.46196 -37.60377,-31.84291c-21.6542,-15.28772 -48.13818,-30.60512 -68.01108,-47.18108c-12.79947,-10.67599 -22.59372,-30.42771 -35.46372,-40.73351c-5.74407,-4.59961 -39.67539,-14.30498 -40.99635,-15.27911c-3.10889,-2.29254 -3.22781,-6.77756 -4.03378,-10.83416c16.12295,0 32.24589,0 48.36883,0c3.7003,2.40013 7.26755,5.00656 10.69187,7.7438z" fill="#ff0000" stroke="none" stroke-width="0.5"/><path d="M-81.95906,-9.82216c2.99581,1.21532 5.4244,3.74507 8.546,4.58617c4.4439,1.19735 9.82428,-1.01095 13.7342,1.41692c3.26528,2.02759 2.06465,8.03046 5.15677,10.31347c1.88701,1.39326 4.60065,-1.91512 6.89271,-1.41692c3.7559,0.81637 6.58868,4.20858 10.31347,5.15673c2.93088,0.74606 6.08982,-0.73618 9.07022,-0.22256c17.54841,3.02417 28.88423,10.19566 45.91787,11.95298c8.6763,17.35257 31.83337,11.40227 49.91413,19.7806c5.59642,2.59329 11.92136,4.90029 15.72195,9.75832c1.72181,2.20087 -4.03407,6.74501 -1.659,8.21725c6.28769,3.89753 15.15538,-0.07038 22.0342,2.65141c29.72809,11.76263 83.02178,48.27526 111.60379,48.10924c0,0 11.55742,0 11.55742,11.5574c0,11.5574 -11.55742,11.55741 -11.55742,11.55741c-9.58886,-0.04345 -19.36262,0.44786 -28.49376,-3.85931c-20.46731,-9.65439 -43.26814,-24.63656 -62.66851,-36.54232c-15.86664,-9.73716 -44.81407,-7.55163 -58.82036,-17.12919c-3.44494,-2.3557 0.2261,-8.68636 -1.65899,-12.40972c-4.50331,-8.89474 -47.82023,-1.41759 -58.12565,-22.02846c-2.29757,0.47232 -4.60357,1.92859 -6.89271,1.41691c-4.20533,-0.93995 -7.58793,-4.17913 -11.66794,-5.56547c-9.45713,-3.21346 -19.88691,-2.36236 -29.586,-4.748c-3.73236,-0.91802 -6.60589,-4.14324 -10.31346,-5.15673c-4.4395,-1.2136 -9.82434,1.01095 -13.73424,-1.41691c-3.26529,-2.0276 -2.06461,-8.03045 -5.15673,-10.31346c-1.88701,-1.39326 -4.60538,1.93656 -6.89275,1.41691c-3.37929,-0.76769 -6.65269,-1.88075 -9.87395,-3.16235c0,-7.25304 0,-14.50608 0,-21.75912c0,-1.61159 0.04559,-3.24852 0.08723,-4.89115c2.05304,0.88132 4.22242,1.78509 6.55151,2.72996z" fill="#ff0000" stroke="none" stroke-width="0.5"/><path d="M-73.05285,49.40727c2.69116,2.37434 1.71079,7.56843 4.55686,9.75471c3.36561,2.58539 8.33987,1.73866 12.32059,3.21019c3.60516,1.33272 6.7648,3.68025 10.3135,5.15677c5.92365,2.46461 13.00395,2.7033 18.06267,6.64964c4.77723,3.72677 6.63719,10.1385 9.95581,15.20773c39.12218,7.97754 60.68448,36.60877 95.74323,50.33695c10.38791,4.06768 22.52418,2.30716 32.80084,6.64835c16.59964,7.01223 29.26087,19.91365 47.93953,23.72149c8.42134,1.71678 17.48201,-2.22459 25.78369,0c21.37501,5.72788 24.20902,17.7969 48.912,17.73939c0,0 11.55742,0 11.55742,11.55742c0,11.55742 -11.55742,11.5574 -11.55742,11.5574c-11.50027,-0.02326 -25.60685,0.48386 -36.0182,-3.75359c-9.46811,-3.85358 -8.93522,-12.61574 -18.20452,-14.60417c-8.40339,-1.80267 -17.35147,1.66267 -25.78369,0c-19.67244,-3.87899 -33.75898,-17.16459 -50.92504,-24.64325c-10.4054,-4.53328 -22.8338,-2.59839 -33.35024,-6.86777c-36.47068,-14.80605 -60.60426,-41.59028 -100.21281,-52.79781c-3.55703,-5.24423 -5.77994,-11.70396 -10.67113,-15.73267c-3.44485,-2.83743 -8.70633,-2.07729 -12.87775,-3.66382c-9.79033,-3.72365 -20.50305,-6.04341 -28.93332,-12.26005c-0.07506,-0.05536 -0.14835,-0.11216 -0.21994,-0.17038c-0.03632,-4.51807 -0.10834,-9.03341 -0.23253,-13.54417c-0.05214,-1.89393 0.29351,-3.89502 -0.36285,-5.67234c-1.01103,-2.73767 -3.14148,-4.92697 -4.5045,-7.50751c-0.98859,-1.87164 0.36285,-4.22299 0.36285,-6.33967c0,-0.70831 0,-1.41663 0,-2.12494c5.5784,1.78057 11.15979,4.27316 15.54497,8.14213z" fill="#ff7b00" stroke="none" stroke-width="0.5"/><path d="M119.15365,-35.60585c7.82989,3.3045 11.88018,12.23952 18.61982,17.41677c8.75646,6.72652 25.46858,7.56684 35.28246,14.82544c39.22392,29.01111 100.94152,58.83691 115.32445,109.70755c0,0 2.80309,11.21236 -8.40923,14.01545c-11.21236,2.80309 -14.01541,-8.40927 -14.01541,-8.40927c-9.73158,-50.74859 -119.53139,-91.11123 -149.08375,-123.5492c-10.67796,-11.72063 -39.91301,-6.77366 -53.72043,-13.30526c-6.03787,-3.1342 -11.65493,-7.26623 -18.11366,-9.40249c-3.26391,-1.07955 -6.98808,0.87199 -10.31347,0c-2.60399,-0.68281 -8.88356,-4.00425 -14.38207,-6.88204c2.58416,0.56327 5.16894,1.1255 7.7894,1.4455c16.459,2.00993 34.2634,0.08589 50.85794,-0.01931c12.6402,2.80893 25.74781,3.58843 38.93232,3.65889c0.41042,0.15881 0.82096,0.32467 1.23162,0.49798z" fill="#ff7b00" stroke="none" stroke-width="0.5"/><path d="M350.09829,-24.67251c11.47454,19.98304 15.94067,30.94542 19.09448,53.02415c3.25289,22.77264 1.24472,26.19527 3.37501,22.8273c0,0 11.55741,0 11.55741,11.5574c0,11.5574 -11.55741,11.55741 -11.55741,11.55741c-38.26634,-7.00725 -17.12511,-40.40473 -31.127,-68.60891c-7.09341,-14.28832 -14.15112,-28.54373 -21.57181,-42.38483c8.35428,0 16.70856,0 25.06284,0c1.38645,4.16528 2.98605,8.23028 5.16647,12.02749z" fill="#ff7b00" stroke="none" stroke-width="0.5"/><path d="M-76.05649,201.9445c9.94155,4.9606 19.25185,11.42298 29.78161,14.96795c7.29386,2.45558 15.61635,2.14348 22.31147,5.93901c6.46885,3.66724 10.56801,10.46409 15.852,15.69613c30.09931,9.57949 54.24477,41.81419 83.00058,44.77113c38.06474,3.91422 78.71401,-7.04589 113.53806,-17.5421c16.96896,-5.11456 33.34868,-18.0675 52.6438,-18.64164c0,0 11.55741,0 11.55741,11.5574c0,11.55742 -11.55741,11.55742 -11.55741,11.55742c-15.89214,-0.96725 -31.30601,13.26195 -45.33424,17.45548c-35.17987,10.51646 -85.67233,23.9431 -123.67184,18.55507c-36.50624,-5.1763 -57.3217,-35.9176 -92.32853,-48.05014c-5.02948,-5.08141 -8.89444,-11.67341 -15.08843,-15.24425c-5.61418,-3.23656 -12.78832,-2.34432 -18.94244,-4.37451c-8.28854,-2.7343 -15.98643,-7.22736 -23.70691,-11.64279c-0.01784,-4.12942 -0.04547,-8.25859 -0.08594,-12.38739c-0.05395,-5.50384 -1.42578,-9.91083 -2.29961,-14.64692c1.45803,0.64436 2.90295,1.31789 4.33042,2.03016z" fill="#ffea00" stroke="none" stroke-width="0.5"/><path d="M-74.21714,41.01473c5.3617,0.89362 10.14186,4.08187 15.47023,5.15674c3.86104,0.77887 8.14267,-1.08687 11.81134,0.34666c5.77258,2.25565 9.73665,7.96044 15.47024,10.31346c2.72061,1.11651 5.93082,-0.91801 8.81562,-0.34666c14.17173,2.80689 27.10828,7.35368 41.25392,10.31346c8.67491,1.8151 17.72629,0.00879 26.58774,0.15996c21.53926,10.25638 40.66395,22.31683 62.57467,31.12716c4.05089,1.62884 9.38067,-1.15081 13.0404,1.23018c10.10239,6.57249 8.42046,15.919 22.36295,19.21004c10.2663,2.4233 22.00209,1.70703 30.70076,7.67386c2.72509,1.86929 1.05887,7.17552 3.6604,9.21326c6.96583,5.45627 36.86695,8.49473 45.78801,15.11164c9.83628,7.29575 15.33811,19.38744 24.97175,26.94876c0,0 9.02482,7.21983 1.80496,16.24465c-7.21984,9.02482 -16.24469,1.80496 -16.24469,1.80496c-8.44609,-6.86112 -12.78527,-18.02122 -21.43891,-24.61862c-10.6005,-8.08167 -35.15097,-8.54478 -47.03327,-15.82879c-3.75447,-2.30153 -3.29279,-8.5674 -6.65306,-11.4137c-5.34986,-4.53156 -15.22881,-1.17324 -20.86661,-2.63958c-14.99516,-3.90008 -20.11262,-15.70409 -29.20445,-22.04388c-10.44303,-7.28204 -52.2557,-20.52554 -68.77358,-29.52351c-2.46586,0.05952 -22.21175,0.69137 -24.97963,0.15994c-14.13822,-2.71458 -27.13741,-7.46581 -41.25392,-10.31348c-3.86104,-0.77886 -8.14267,1.08685 -11.81134,-0.34666c-5.77258,-2.25565 -9.73665,-7.96046 -15.47023,-10.31348c-2.72062,-1.11651 -5.93082,0.91801 -8.81558,0.34666c-5.33208,-1.05607 -10.10851,-4.26311 -15.47021,-5.15674c-2.02621,-0.3377 -4.08581,-0.27184 -6.15222,-0.12392c-0.00696,-0.26584 -0.01409,-0.53167 -0.02141,-0.79749c-0.05214,-1.89393 0.29351,-3.89502 -0.36285,-5.67234c-1.01103,-2.73767 -3.14148,-4.92697 -4.5045,-7.50751c-0.98859,-1.87164 0.36285,-4.22299 0.36285,-6.33967c0,-0.74371 0,-1.48741 0,-2.23112c4.75026,0.47498 9.65628,-0.93164 14.38066,-0.14424z" fill="#ffea00" stroke="none" stroke-width="0.5"/><path d="M227.69702,51.50356c17.66367,29.70219 21.38321,65.74695 41.03894,95.06487c0,0 6.41091,9.61636 -3.20545,16.02724c-9.61636,6.41091 -16.02726,-3.20545 -16.02726,-3.20545c-46.94358,-70.75677 -49.82969,-153.23417 -128.43571,-195.49003c12.43196,-0.03196 24.90465,-0.6002 37.09141,-0.6002c1.14035,0 2.28071,0 3.42106,0c27.62702,24.28206 48.29484,58.23489 66.11701,88.20357z" fill="#ffea00" stroke="none" stroke-width="0.5"/><g stroke-width="0"><g><path d="M306.38124,278.49724l-3.17726,-15.04391l4.91679,-1.03841l3.17727,15.04391z" fill="#27ff00" stroke="url(#color-2)"/><path d="M299.66568,273.36542l-1.54669,-15.29778l4.99975,-0.5055l1.54669,15.29779z" fill="#23e400" stroke="url(#color-3)"/><path d="M328.58851,265.01635l-2.39809,-15.1876l4.96375,-0.78377l2.3981,15.18761z" fill="#22e100" stroke="url(#color-4)"/><path d="M330.20198,270.82047l-7.76968,-13.26824l4.33645,-2.53936l7.76968,13.26825z" fill="#27ff00" stroke="url(#color-5)"/><path d="M295.65744,263.18527c-1.53673,-5.18962 5.68349,-11.90357 16.12681,-14.996c10.44333,-3.09243 20.15507,-1.39233 21.6918,3.7973c1.53673,5.18963 -5.68349,11.90357 -16.12681,14.996c-10.44333,3.09244 -20.15508,1.39232 -21.69181,-3.7973z" fill="#27ff00" stroke="url(#color-6)"/><path d="M295.65744,263.18527c-1.53607,-5.18742 6.14138,-12.03526 16.5775,-15.12946c-0.00117,0.18776 3.41694,10.35575 2.82355,10.38218c-0.64673,0.0288 -19.28517,5.1386 -19.40105,4.74727z" fill="#23e300" stroke="url(#color-7)"/><path d="M295.65744,263.18527c-0.44241,-1.49406 16.04814,-4.90784 18.92117,-6.32234c0.60909,-0.29988 3.06662,10.032 2.77064,10.11964c-10.44333,3.09244 -20.15508,1.39232 -21.69181,-3.7973z" fill="#25f000" stroke="url(#color-8)"/></g><path d="M322.93328,247.46901c-1.1879,-4.01159 2.2442,-8.56507 7.6658,-10.17049c5.4216,-1.60542 10.77964,0.34516 11.96753,4.35675c1.1879,4.01159 -2.24419,8.56506 -7.6658,10.17048c-5.4216,1.60542 -10.77964,-0.34515 -11.96754,-4.35674z" fill="#9bff88" stroke="url(#color-9)"/><path d="M339.5027,247.33414l-0.29255,-2.57295c0,0 2.47539,-0.40166 3.65891,-0.82622c1.30338,-0.46756 3.83652,-1.86263 3.83652,-1.86263c0,0 0.77597,0.19651 0.66034,0.57418c-0.01394,0.0455 -0.36814,-0.06092 -0.45646,0.0329c-0.06255,0.06645 0.15559,0.32369 0.06856,0.40549c-0.0709,0.06664 -0.43824,-0.20701 -0.51899,-0.13462c-0.0564,0.05057 0.17558,0.44622 0.11678,0.49793c-0.05797,0.05097 -0.3033,-0.16511 -0.36172,-0.11433c-0.04983,0.04331 0.08718,0.3536 0.03828,0.39589c-0.04156,0.03595 -0.08256,0.07138 -0.12267,0.10604c-0.08692,0.07514 -0.34161,-0.07115 -0.41637,-0.00568c-0.21828,0.19113 -0.19714,0.54809 -0.18998,0.5723c0.01256,0.04242 0.15808,0.29135 0.25378,0.25906c0.10111,-0.03411 0.15598,-0.35052 0.29991,-0.33952c0.06565,0.00502 0.09498,0.2361 0.16722,0.23972c0.07094,0.00357 0.30096,-0.28161 0.3756,-0.27857c0.07558,0.00307 -0.00419,0.29436 0.07245,0.29772c0.12131,0.00532 0.34479,-0.36828 0.45984,-0.35954c0.14657,0.01113 0.18106,0.40618 0.2973,0.42894c0.15078,0.02953 0.28312,-0.41704 0.33929,-0.35475c0.39299,0.4358 -0.01837,1.37268 -0.01837,1.37268c0,0 -2.71917,0.23629 -4.08694,0.51189c-1.38783,0.27965 -4.18072,1.15407 -4.18072,1.15407z" fill="#88e477" stroke="url(#color-10)"/><path d="M337.34728,241.4155c-0.1089,-0.36776 0.10094,-0.75419 0.46872,-0.8631c0.36777,-0.1089 0.75419,0.10095 0.8631,0.46872c0.1089,0.36776 -0.10095,0.75419 -0.46872,0.86309c-0.36777,0.1089 -0.75419,-0.10094 -0.86309,-0.46872z" fill="#5d554f" stroke="url(#color-11)"/></g><g stroke-width="0"><g><path d="M277.2947,219.08794l3.07727,-15.06468l4.92358,1.00575l-3.07727,15.06468z" fill="#27ff00" stroke="url(#color-12)"/><path d="M273.17865,211.70605l4.67404,-14.64812l4.78743,1.52761l-4.67406,14.64813z" fill="#23e400" stroke="url(#color-13)"/><path d="M303.0338,215.56707l3.8492,-14.88616l4.86523,1.25803l-3.8492,14.88618z" fill="#22e100" stroke="url(#color-14)"/><path d="M302.20212,221.5336l-1.8424,-15.26498l4.98904,-0.60215l1.8424,15.26499z" fill="#27ff00" stroke="url(#color-15)"/><path d="M273.55656,200.77175c0.65733,-5.37231 9.9542,-8.65511 20.76513,-7.33235c10.81095,1.32277 19.04207,6.75019 18.38475,12.1225c-0.65733,5.37231 -9.9542,8.65512 -20.76513,7.33235c-10.81095,-1.32277 -19.04208,-6.7502 -18.38475,-12.12251z" fill="#27ff00" stroke="url(#color-16)"/><path d="M273.55656,200.77175c0.65705,-5.37002 10.42665,-8.59354 21.23169,-7.27526c-0.07586,0.17176 -0.99024,10.85985 -1.54505,10.64776c-0.60469,-0.23116 -19.73621,-2.9674 -19.68664,-3.37251z" fill="#23e300" stroke="url(#color-17)"/><path d="M273.55656,200.77175c0.18924,-1.54665 16.67507,1.88984 19.87377,1.73663c0.67813,-0.03248 -1.18262,10.42337 -1.48902,10.38588c-10.81095,-1.32277 -19.04208,-6.7502 -18.38475,-12.12251z" fill="#25f000" stroke="url(#color-18)"/></g><path d="M304.83517,197.21916c0.50811,-4.15281 5.46981,-6.96262 11.08225,-6.27591c5.61244,0.68671 9.75032,4.60989 9.24221,8.7627c-0.50811,4.15281 -5.4698,6.96262 -11.08224,6.27591c-5.61244,-0.68671 -9.75032,-4.60989 -9.24221,-8.76269z" fill="#9bff88" stroke="url(#color-19)"/><path d="M320.08743,203.69469l0.7564,-2.4766c0,0 2.43056,0.61747 3.68526,0.6994c1.38176,0.09023 4.26095,-0.18052 4.26095,-0.18052c0,0 0.63351,0.4893 0.37702,0.78967c-0.03091,0.03618 -0.31342,-0.20251 -0.4318,-0.15161c-0.08384,0.03605 0.01379,0.35888 -0.09861,0.39925c-0.09158,0.03289 -0.31954,-0.36443 -0.42244,-0.33019c-0.07187,0.02392 -0.01666,0.47923 -0.0912,0.50324c-0.07348,0.02366 -0.21245,-0.27225 -0.28626,-0.24894c-0.06296,0.01988 -0.06087,0.35906 -0.12256,0.37838c-0.05244,0.01642 -0.10416,0.0326 -0.15476,0.04842c-0.10965,0.0343 -0.28501,-0.20131 -0.37966,-0.17104c-0.27634,0.08838 -0.39913,0.42422 -0.40219,0.44929c-0.00538,0.04391 0.02896,0.33021 0.12961,0.3387c0.10633,0.00898 0.28268,-0.25939 0.41033,-0.19198c0.05822,0.03075 -0.00691,0.25439 0.05791,0.2865c0.06365,0.03152 0.38822,-0.13845 0.45547,-0.10594c0.06811,0.03293 -0.12108,0.26834 -0.05212,0.30194c0.10915,0.0532 0.46294,-0.20049 0.565,-0.14666c0.13002,0.06859 0.0043,0.44469 0.10187,0.51187c0.12655,0.08713 0.4258,-0.26977 0.45251,-0.19027c0.18691,0.55627 -0.56356,1.2518 -0.56356,1.2518c0,0 -2.5883,-0.86624 -3.95267,-1.1582c-1.38439,-0.29622 -4.29447,-0.60651 -4.29447,-0.60651z" fill="#88e477" stroke="url(#color-20)"/><path d="M320.4676,197.40727c0.04658,-0.38071 0.39297,-0.65159 0.77369,-0.60501c0.38071,0.04658 0.65159,0.39298 0.60501,0.7737c-0.04658,0.38071 -0.39297,0.65159 -0.77369,0.60501c-0.38071,-0.04658 -0.65159,-0.39298 -0.60501,-0.7737z" fill="#5d554f" stroke="url(#color-21)"/></g><g stroke-width="0"><g><path d="M310.60131,147.6751l-3.17726,-15.04391l4.91679,-1.03841l3.17727,15.04391z" fill="#27ff00" stroke="url(#color-22)"/><path d="M303.88575,142.54328l-1.54669,-15.29778l4.99975,-0.5055l1.54669,15.29779z" fill="#23e400" stroke="url(#color-23)"/><path d="M332.80858,134.19421l-2.39809,-15.1876l4.96375,-0.78377l2.3981,15.18761z" fill="#22e100" stroke="url(#color-24)"/><path d="M334.42205,139.99833l-7.76968,-13.26824l4.33645,-2.53936l7.76968,13.26825z" fill="#27ff00" stroke="url(#color-25)"/><path d="M299.8775,132.36313c-1.53673,-5.18962 5.68349,-11.90357 16.12681,-14.996c10.44333,-3.09243 20.15507,-1.39233 21.6918,3.7973c1.53673,5.18963 -5.68349,11.90357 -16.12681,14.996c-10.44333,3.09244 -20.15508,1.39232 -21.69181,-3.79731z" fill="#27ff00" stroke="url(#color-26)"/><path d="M299.8775,132.36313c-1.53607,-5.18742 6.14138,-12.03525 16.5775,-15.12945c-0.00117,0.18776 3.41694,10.35575 2.82355,10.38218c-0.64673,0.0288 -19.28517,5.1386 -19.40105,4.74727z" fill="#23e300" stroke="url(#color-27)"/><path d="M299.8775,132.36313c-0.44241,-1.49406 16.04814,-4.90784 18.92117,-6.32234c0.60909,-0.29988 3.06662,10.032 2.77064,10.11964c-10.44333,3.09244 -20.15508,1.39232 -21.69181,-3.79731z" fill="#25f000" stroke="url(#color-28)"/></g><path d="M327.15335,116.64687c-1.1879,-4.01159 2.2442,-8.56507 7.6658,-10.17049c5.4216,-1.60542 10.77964,0.34516 11.96753,4.35675c1.1879,4.01159 -2.24419,8.56506 -7.6658,10.17048c-5.4216,1.60542 -10.77964,-0.34515 -11.96754,-4.35674z" fill="#9bff88" stroke="url(#color-29)"/><path d="M343.72277,116.512l-0.29255,-2.57295c0,0 2.47539,-0.40166 3.65891,-0.82622c1.30338,-0.46756 3.83652,-1.86263 3.83652,-1.86263c0,0 0.77597,0.19651 0.66034,0.57418c-0.01394,0.0455 -0.36814,-0.06092 -0.45646,0.0329c-0.06255,0.06645 0.15559,0.32369 0.06856,0.40549c-0.0709,0.06664 -0.43824,-0.20701 -0.51899,-0.13462c-0.0564,0.05057 0.17558,0.44622 0.11678,0.49793c-0.05797,0.05097 -0.3033,-0.16511 -0.36172,-0.11433c-0.04983,0.04331 0.08718,0.3536 0.03828,0.39589c-0.04156,0.03595 -0.08256,0.07138 -0.12267,0.10604c-0.08692,0.07514 -0.34161,-0.07115 -0.41637,-0.00568c-0.21828,0.19113 -0.19714,0.54809 -0.18998,0.5723c0.01256,0.04242 0.15808,0.29135 0.25378,0.25906c0.10111,-0.03411 0.15598,-0.35052 0.29991,-0.33952c0.06565,0.00502 0.09498,0.2361 0.16722,0.23972c0.07094,0.00357 0.30096,-0.28161 0.3756,-0.27857c0.07558,0.00307 -0.00419,0.29436 0.07245,0.29772c0.12131,0.00532 0.34479,-0.36828 0.45984,-0.35954c0.14657,0.01113 0.18106,0.40618 0.2973,0.42894c0.15078,0.02953 0.28312,-0.41704 0.33929,-0.35475c0.39299,0.4358 -0.01837,1.37268 -0.01837,1.37268c0,0 -2.71917,0.23629 -4.08694,0.51189c-1.38783,0.27965 -4.18072,1.15407 -4.18072,1.15407z" fill="#88e477" stroke="url(#color-30)"/><path d="M341.56735,110.59336c-0.1089,-0.36776 0.10094,-0.75419 0.46872,-0.8631c0.36777,-0.1089 0.75419,0.10095 0.8631,0.46872c0.1089,0.36776 -0.10095,0.75419 -0.46872,0.86309c-0.36777,0.1089 -0.75419,-0.10094 -0.86309,-0.46872z" fill="#5d554f" stroke="url(#color-31)"/></g><g stroke-width="0"><g><path d="M377.6613,255.31205l7.24152,-13.56373l4.43302,2.36675l-7.24152,13.56373z" fill="#27ff00" stroke="url(#color-32)"/><path d="M375.81883,247.06344l8.65345,-12.70953l4.15384,2.8282l-8.65346,12.70953z" fill="#23e400" stroke="url(#color-33)"/><path d="M403.33683,259.26987l7.9306,-13.17268l4.30523,2.59195l-7.93061,13.1727z" fill="#22e100" stroke="url(#color-34)"/><path d="M400.83982,264.75222l2.58278,-15.15729l4.95385,0.84413l-2.58278,15.1573z" fill="#27ff00" stroke="url(#color-35)"/><path d="M379.29615,236.68992c2.1606,-4.96241 12.00745,-5.4606 21.99354,-1.11273c9.9861,4.34788 16.32992,11.89535 14.16931,16.85777c-2.1606,4.96241 -12.00745,5.4606 -21.99354,1.11273c-9.9861,-4.34788 -16.32992,-11.89536 -14.16932,-16.85778z" fill="#27ff00" stroke="url(#color-36)"/><path d="M379.29615,236.68992c2.15968,-4.9603 12.44278,-5.26698 22.4245,-0.92509c-0.12165,0.14303 -4.04306,10.12772 -4.51445,9.76636c-0.51378,-0.39385 -18.07296,-8.46707 -17.91004,-8.84127z" fill="#23e300" stroke="url(#color-37)"/><path d="M379.29615,236.68992c0.62203,-1.42865 15.44567,6.56207 18.55546,7.32649c0.65928,0.16206 -4.10313,9.65451 -4.38615,9.53128c-9.9861,-4.34788 -16.32992,-11.89536 -14.16932,-16.85778z" fill="#25f000" stroke="url(#color-38)"/></g><path d="M410.29069,242.19549c1.67015,-3.83596 7.22671,-5.1158 12.41094,-2.85862c5.18423,2.25718 8.03296,7.19662 6.36281,11.03258c-1.67015,3.83596 -7.22671,5.1158 -12.41094,2.85862c-5.18423,-2.25718 -8.03296,-7.19663 -6.36281,-11.03258z" fill="#9bff88" stroke="url(#color-39)"/><path d="M423.06609,252.74788l1.43061,-2.15848c0,0 2.15393,1.28432 3.33329,1.7203c1.29879,0.48014 4.1358,1.04086 4.1358,1.04086c0,0 0.46786,0.64951 0.13643,0.86436c-0.03993,0.02588 -0.24274,-0.2834 -0.37071,-0.26835c-0.09064,0.01066 -0.08902,0.34794 -0.20827,0.35461c-0.09716,0.00544 -0.20247,-0.44036 -0.31086,-0.43685c-0.0757,0.00245 -0.1525,0.45462 -0.23079,0.45641c-0.07718,0.00175 -0.12609,-0.32149 -0.20347,-0.32018c-0.06602,0.00112 -0.16064,0.32684 -0.22528,0.32779c-0.05494,0.00081 -0.10913,0.00157 -0.16214,0.00232c-0.11488,0.00164 -0.21585,-0.27417 -0.3152,-0.27212c-0.29007,0.00599 -0.50344,0.29294 -0.51352,0.31609c-0.01766,0.04056 -0.06631,0.32477 0.02774,0.36159c0.09936,0.0389 0.34486,-0.16811 0.44801,-0.06713c0.04704,0.04606 -0.0791,0.24188 -0.02611,0.29112c0.05203,0.04835 0.41157,-0.02211 0.46678,0.02821c0.0559,0.05096 -0.19251,0.22272 -0.13598,0.27458c0.08948,0.08209 0.50088,-0.06029 0.58336,0.02038c0.10509,0.10278 -0.12256,0.42749 -0.04818,0.51967c0.09648,0.11958 0.48501,-0.13729 0.48796,-0.05348c0.02068,0.58646 -0.89683,1.03937 -0.89683,1.03937c0,0 -2.23426,-1.56773 -3.45892,-2.23628c-1.24262,-0.67834 -3.94372,-1.80482 -3.94372,-1.80482z" fill="#88e477" stroke="url(#color-40)"/><path d="M425.22172,246.82932c0.15311,-0.35166 0.56232,-0.51263 0.91399,-0.35952c0.35166,0.15311 0.51263,0.56232 0.35952,0.91399c-0.15311,0.35166 -0.56232,0.51263 -0.91399,0.35952c-0.35166,-0.15311 -0.51263,-0.56232 -0.35952,-0.91399z" fill="#5d554f" stroke="url(#color-41)"/></g><g stroke-width="0"><g><path d="M473.77731,215.6651l-3.17726,-15.04391l4.91679,-1.03841l3.17727,15.04391z" fill="#27ff00" stroke="url(#color-42)"/><path d="M467.06175,210.53328l-1.54669,-15.29778l4.99975,-0.5055l1.54669,15.29779z" fill="#23e400" stroke="url(#color-43)"/><path d="M495.98458,202.18421l-2.39809,-15.1876l4.96375,-0.78377l2.3981,15.18761z" fill="#22e100" stroke="url(#color-44)"/><path d="M497.59805,207.98833l-7.76968,-13.26824l4.33645,-2.53936l7.76968,13.26825z" fill="#27ff00" stroke="url(#color-45)"/><path d="M463.0535,200.35313c-1.53673,-5.18962 5.68349,-11.90357 16.12681,-14.996c10.44333,-3.09243 20.15507,-1.39233 21.6918,3.7973c1.53673,5.18963 -5.68349,11.90357 -16.12681,14.996c-10.44333,3.09244 -20.15508,1.39232 -21.69181,-3.79731z" fill="#27ff00" stroke="url(#color-46)"/><path d="M463.0535,200.35313c-1.53607,-5.18742 6.14138,-12.03525 16.5775,-15.12945c-0.00117,0.18776 3.41694,10.35575 2.82355,10.38218c-0.64673,0.0288 -19.28517,5.13861 -19.40105,4.74727z" fill="#23e300" stroke="url(#color-47)"/><path d="M463.0535,200.35313c-0.44241,-1.49406 16.04814,-4.90784 18.92117,-6.32234c0.60909,-0.29988 3.06662,10.032 2.77064,10.11965c-10.44333,3.09244 -20.15508,1.39232 -21.69181,-3.79731z" fill="#25f000" stroke="url(#color-48)"/></g><path d="M490.32935,184.63687c-1.1879,-4.01159 2.2442,-8.56507 7.6658,-10.17049c5.4216,-1.60542 10.77964,0.34516 11.96753,4.35675c1.1879,4.01159 -2.24419,8.56506 -7.6658,10.17048c-5.4216,1.60542 -10.77964,-0.34515 -11.96754,-4.35674z" fill="#9bff88" stroke="url(#color-49)"/><path d="M506.89877,184.502l-0.29255,-2.57295c0,0 2.47539,-0.40166 3.65891,-0.82622c1.30338,-0.46756 3.83652,-1.86263 3.83652,-1.86263c0,0 0.77597,0.19651 0.66034,0.57418c-0.01393,0.0455 -0.36814,-0.06092 -0.45646,0.0329c-0.06255,0.06645 0.15559,0.32369 0.06856,0.40549c-0.07091,0.06664 -0.43824,-0.20701 -0.51899,-0.13462c-0.0564,0.05057 0.17558,0.44622 0.11677,0.49793c-0.05797,0.05097 -0.3033,-0.16511 -0.36172,-0.11433c-0.04983,0.04331 0.08718,0.3536 0.03828,0.39589c-0.04156,0.03595 -0.08256,0.07138 -0.12267,0.10604c-0.08692,0.07514 -0.34161,-0.07115 -0.41637,-0.00568c-0.21828,0.19113 -0.19715,0.54809 -0.18998,0.5723c0.01256,0.04242 0.15808,0.29135 0.25378,0.25906c0.1011,-0.03411 0.15598,-0.35052 0.29992,-0.33952c0.06564,0.00502 0.09498,0.2361 0.16722,0.23972c0.07094,0.00357 0.30096,-0.28161 0.37559,-0.27857c0.07559,0.00307 -0.00419,0.29436 0.07245,0.29772c0.12131,0.00532 0.34479,-0.36828 0.45984,-0.35954c0.14657,0.01113 0.18106,0.40618 0.29731,0.42894c0.15078,0.02953 0.28312,-0.41704 0.33929,-0.35475c0.39299,0.4358 -0.01837,1.37268 -0.01837,1.37268c0,0 -2.71917,0.23629 -4.08694,0.51189c-1.38783,0.27965 -4.18072,1.15407 -4.18072,1.15407z" fill="#88e477" stroke="url(#color-50)"/><path d="M504.74335,178.58336c-0.1089,-0.36776 0.10094,-0.75419 0.46872,-0.8631c0.36777,-0.1089 0.75419,0.10095 0.8631,0.46872c0.1089,0.36776 -0.10095,0.75419 -0.46872,0.86309c-0.36777,0.1089 -0.75419,-0.10094 -0.86309,-0.46872z" fill="#5d554f" stroke="url(#color-51)"/></g><g stroke-width="0"><g><path d="M364.47904,206.38588l4.90953,-14.57089l4.76219,1.60459l-4.90953,14.57089z" fill="#27ff00" stroke="url(#color-52)"/><path d="M361.30365,198.55318l6.44283,-13.96081l4.56279,2.10571l-6.44284,13.96082z" fill="#23e400" stroke="url(#color-53)"/><path d="M390.45581,206.06241l5.65359,-14.29863l4.67322,1.84775l-5.65359,14.29865z" fill="#22e100" stroke="url(#color-54)"/><path d="M388.8955,211.88105l0.052,-15.37568l5.02522,0.01699l-0.052,15.37568z" fill="#27ff00" stroke="url(#color-55)"/><path d="M363.02559,187.74872c1.31409,-5.25042 10.94454,-7.36302 21.5102,-4.71861c10.56567,2.64441 18.06555,9.04442 16.75145,14.29485c-1.31409,5.25042 -10.94454,7.36302 -21.5102,4.71861c-10.56567,-2.64441 -18.06555,-9.04443 -16.75146,-14.29485z" fill="#27ff00" stroke="url(#color-56)"/><path d="M363.02559,187.74872c1.31353,-5.24819 11.40581,-7.24372 21.96617,-4.60449c-0.09644,0.16111 -2.32043,10.65517 -2.84489,10.37635c-0.57161,-0.30389 -19.22037,-5.37595 -19.12127,-5.77187z" fill="#23e300" stroke="url(#color-57)"/><path d="M363.02559,187.74872c0.37832,-1.51157 16.31529,3.92951 19.50849,4.17149c0.67697,0.0513 -2.45759,10.1983 -2.75704,10.12336c-10.56567,-2.64441 -18.06555,-9.04443 -16.75146,-14.29485z" fill="#25f000" stroke="url(#color-58)"/></g><path d="M394.5036,188.07613c1.01579,-4.05858 6.28581,-6.23581 11.77093,-4.86298c5.48511,1.37283 9.1082,5.77585 8.09241,9.83443c-1.01579,4.05858 -6.28581,6.23581 -11.77092,4.86298c-5.48511,-1.37283 -9.10821,-5.77585 -8.09241,-9.83443z" fill="#9bff88" stroke="url(#color-59)"/><path d="M408.84203,196.38115l1.05571,-2.36456c0,0 2.33599,0.91217 3.57104,1.14803c1.36012,0.25975 4.25073,0.34573 4.25073,0.34573c0,0 0.56841,0.56361 0.27688,0.8301c-0.03513,0.0321 -0.28609,-0.23957 -0.40984,-0.20365c-0.08765,0.02544 -0.03052,0.35785 -0.14704,0.38406c-0.09494,0.02136 -0.27221,-0.40101 -0.37855,-0.37971c-0.07427,0.01489 -0.07557,0.47353 -0.1525,0.48818c-0.07583,0.01443 -0.1773,-0.29635 -0.25341,-0.28231c-0.06493,0.01197 -0.10464,0.34883 -0.16824,0.36041c-0.05406,0.00984 -0.10738,0.01951 -0.15954,0.02898c-0.11305,0.02054 -0.25804,-0.23489 -0.3557,-0.21651c-0.28512,0.05367 -0.44834,0.37183 -0.45447,0.39632c-0.01074,0.04292 -0.01193,0.33126 0.0869,0.35209c0.10441,0.02201 0.31248,-0.2226 0.43085,-0.13997c0.05398,0.03769 -0.0382,0.25161 0.02218,0.29145c0.05928,0.03912 0.40232,-0.08957 0.46505,-0.04902c0.06353,0.04106 -0.15321,0.25138 -0.08892,0.29322c0.10177,0.06624 0.48412,-0.14193 0.57876,-0.07594c0.12058,0.08408 -0.0505,0.44183 0.03804,0.52051c0.11485,0.10206 0.45578,-0.21527 0.4725,-0.13308c0.11696,0.57505 -0.71347,1.17285 -0.71347,1.17285c0,0 -2.46189,-1.17848 -3.7799,-1.63628c-1.33735,-0.4645 -4.18705,-1.13089 -4.18705,-1.13089z" fill="#88e477" stroke="url(#color-60)"/><path d="M409.9938,190.18845c0.09312,-0.37207 0.47024,-0.59822 0.84233,-0.50509c0.37207,0.09312 0.59822,0.47024 0.50509,0.84233c-0.09312,0.37207 -0.47024,0.59822 -0.84233,0.50509c-0.37207,-0.09312 -0.59822,-0.47024 -0.50509,-0.84233z" fill="#5d554f" stroke="url(#color-61)"/></g><g stroke-width="0"><g><path d="M411.51059,161.97017l2.33633,-15.19723l4.9669,0.76357l-2.33633,15.19723z" fill="#27ff00" stroke="url(#color-62)"/><path d="M417.87737,157.00979l0.69416,-15.3601l5.02012,0.22687l-0.69416,15.36009z" fill="#23e400" stroke="url(#color-63)"/><path d="M388.55573,150.00109l1.55038,-15.29741l4.99964,0.50671l-1.55037,15.2974z" fill="#22e100" stroke="url(#color-64)"/><path d="M387.79608,154.09817l7.02032,-13.67953l4.47087,2.29445l-7.02032,13.67952z" fill="#27ff00" stroke="url(#color-65)"/><path d="M404.88654,151.84638c-10.59904,-2.50729 -18.18121,-8.80961 -16.93526,-14.07662c1.24596,-5.26702 10.84821,-7.5042 21.44726,-4.99691c10.59904,2.50729 18.18121,8.80961 16.93526,14.07662c-1.24595,5.26701 -10.84822,7.5042 -21.44726,4.99691z" fill="#27ff00" stroke="url(#color-66)"/><path d="M426.3338,146.84946c-0.09395,0.39717 -18.98756,-3.66895 -19.63489,-3.66177c-0.59393,0.00659 2.25383,-10.33564 2.24223,-10.52304c10.59195,2.50946 18.63809,8.92005 17.39267,14.18482z" fill="#23e300" stroke="url(#color-67)"/><path d="M404.88654,151.84638c-0.30039,-0.07106 1.57917,-10.52355 2.20398,-10.25798c2.9472,1.25265 19.60198,3.74473 19.24328,5.26107c-1.24595,5.26701 -10.84822,7.5042 -21.44726,4.99691z" fill="#25f000" stroke="url(#color-68)"/></g><path d="M386.51978,137.68837c-5.50244,-1.30165 -9.18227,-5.65735 -8.21915,-9.72876c0.96312,-4.07141 6.20449,-6.31673 11.70693,-5.01508c5.50244,1.30165 9.18228,5.65735 8.21915,9.72876c-0.96312,4.07141 -6.20449,6.31673 -11.70693,5.01508z" fill="#9bff88" stroke="url(#color-69)"/><path d="M381.67539,133.45944c0,0 -2.83718,-0.71785 -4.2384,-0.91995c-1.38097,-0.19916 -4.10907,-0.28398 -4.10907,-0.28398c0,0 -0.46279,-0.91257 -0.09463,-1.36954c0.05262,-0.06531 0.20957,0.37321 0.35848,0.33535c0.1148,-0.02918 0.12728,-0.42554 0.27301,-0.4448c0.11438,-0.01511 0.35828,0.34549 0.47911,0.33343c0.07633,-0.00761 -0.0195,-0.29402 0.05579,-0.30129c0.07435,-0.00718 0.31986,0.26477 0.3905,0.25727c0.07193,-0.00763 0.08838,-0.23999 0.15364,-0.24865c0.1431,-0.01898 0.21548,0.29389 0.31832,0.32233c0.09735,0.02692 0.22881,-0.22971 0.23899,-0.27276c0.00581,-0.02457 0.00707,-0.38215 -0.22149,-0.56086c-0.07828,-0.0612 -0.32445,0.09901 -0.41541,0.02881c-0.04197,-0.03238 -0.08489,-0.06548 -0.12837,-0.09906c-0.05117,-0.03951 0.06838,-0.35694 0.01622,-0.39741c-0.06115,-0.04745 -0.29409,0.18193 -0.35481,0.13426c-0.06159,-0.04837 0.14804,-0.4563 0.08892,-0.50366c-0.08465,-0.0678 -0.43621,0.22586 -0.51071,0.16325c-0.09144,-0.07683 0.11207,-0.3458 0.04592,-0.40867c-0.09339,-0.08877 -0.44114,0.03717 -0.45758,-0.00749c-0.13644,-0.37067 0.62741,-0.60999 0.62741,-0.60999c0,0 2.60676,1.25214 3.9341,1.64654c1.20529,0.35814 3.69917,0.62161 3.69917,0.62161l-0.14912,2.58523z" fill="#88e477" stroke="url(#color-70)"/><path d="M382.66287,127.94613c-0.37326,-0.0883 -0.60425,-0.46246 -0.51596,-0.83571c0.0883,-0.37326 0.46246,-0.60425 0.83571,-0.51596c0.37326,0.0883 0.60425,0.46246 0.51596,0.83571c-0.0883,0.37326 -0.46246,0.60425 -0.83571,0.51596z" fill="#5d554f" stroke="url(#color-71)"/></g><g stroke-width="0"><g><path d="M355.84684,173.36294l-4.74029,-8.43831l2.75789,-1.54927l4.74029,8.43831z" fill="#27ff00" stroke="url(#color-72)"/><path d="M357.07698,168.43364l-5.61734,-7.88169l2.57596,-1.83591l5.61734,7.88169z" fill="#23e400" stroke="url(#color-73)"/><path d="M339.8254,176.34014l-5.16868,-8.18293l2.67442,-1.68927l5.16868,8.18292z" fill="#22e100" stroke="url(#color-74)"/><path d="M341.03903,178.66543l-1.82993,-9.50405l3.1062,-0.59807l1.82992,9.50404z" fill="#27ff00" stroke="url(#color-75)"/><path d="M348.63492,170.91655c-6.22585,2.87097 -12.42946,2.69031 -13.85614,-0.40352c-1.42668,-3.09384 2.46382,-7.92926 8.68968,-10.80023c6.22585,-2.87097 12.42947,-2.69031 13.85615,0.40352c1.42668,3.09383 -2.46382,7.92926 -8.68968,10.80024z" fill="#27ff00" stroke="url(#color-76)"/><path d="M357.3246,160.11631c0.10758,0.2333 -10.83396,5.55091 -11.15198,5.80571c-0.29179,0.23378 -2.89436,-5.99695 -2.97284,-6.08532c6.22318,-2.86715 12.69875,-2.81289 14.12482,0.27962z" fill="#23e300" stroke="url(#color-77)"/><path d="M348.63492,170.91655c-0.17645,0.08137 -3.30164,-5.82823 -2.88892,-5.93911c1.94676,-0.52303 11.16787,-5.75182 11.5786,-4.86112c1.42668,3.09383 -2.46382,7.92926 -8.68968,10.80024z" fill="#25f000" stroke="url(#color-78)"/></g><path d="M334.03776,171.02826c-3.23212,1.49045 -6.74628,0.75998 -7.84911,-1.63155c-1.10283,-2.39154 0.62331,-5.5385 3.85543,-7.02895c3.23212,-1.49045 6.74629,-0.75999 7.84911,1.63155c1.10283,2.39154 -0.62331,5.5385 -3.85543,7.02895z" fill="#9bff88" stroke="url(#color-79)"/><path d="M329.99566,170.8126c0,0 -1.68467,0.74537 -2.45754,1.18904c-0.76169,0.43726 -2.14662,1.45402 -2.14662,1.45402c0,0 -0.58353,-0.27265 -0.57842,-0.642c0.00073,-0.05279 0.24871,0.10362 0.30781,0.02707c0.04557,-0.05902 -0.10208,-0.26029 -0.03733,-0.32639c0.05082,-0.05188 0.31165,0.03217 0.36685,-0.0207c0.03488,-0.0334 -0.12378,-0.13814 -0.08928,-0.17097c0.03406,-0.03241 0.26128,0.00708 0.29337,-0.02405c0.03269,-0.0317 -0.04934,-0.15324 -0.02036,-0.18286c0.06355,-0.06494 0.22085,0.06202 0.28285,0.0362c0.05869,-0.02444 0.02424,-0.20264 0.01258,-0.22793c-0.00666,-0.01443 -0.14481,-0.19214 -0.32744,-0.19199c-0.06255,0.00005 -0.12237,0.17499 -0.19469,0.1755c-0.03337,0.00024 -0.06748,0.00049 -0.10207,0.00073c-0.04069,0.00028 -0.10464,-0.20343 -0.1462,-0.20325c-0.04872,0.00022 -0.07514,0.2043 -0.12373,0.20424c-0.04929,-0.00007 -0.10373,-0.28359 -0.1514,-0.28412c-0.06826,-0.00075 -0.12852,0.28123 -0.18974,0.27912c-0.07513,-0.00259 -0.07867,-0.21487 -0.13585,-0.22036c-0.08074,-0.00775 -0.2042,0.18963 -0.22968,0.17388c-0.21148,-0.13074 0.0742,-0.54581 0.0742,-0.54581c0,0 1.77784,-0.39116 2.58873,-0.71085c0.73632,-0.29029 2.07452,-1.12761 2.07452,-1.12761l0.92945,1.33908z" fill="#88e477" stroke="url(#color-80)"/><path d="M328.34528,167.69702c-0.21925,0.1011 -0.47895,0.00532 -0.58005,-0.21392c-0.1011,-0.21925 -0.00532,-0.47895 0.21392,-0.58005c0.21925,-0.1011 0.47895,-0.00532 0.58005,0.21392c0.1011,0.21925 0.00532,0.47895 -0.21392,0.58005z" fill="#5d554f" stroke="url(#color-81)"/></g></g></g></svg>