<svg version="1.1" xmlns="http://www.w3.org/2000/svg" xmlns:xlink="http://www.w3.org/1999/xlink" width="912.13678" height="696.65511" viewBox="0,0,912.13678,696.65511"><defs><radialGradient cx="319.8395" cy="180.41517" r="324.59923" gradientUnits="userSpaceOnUse" id="color-1"><stop offset="0" stop-color="#00b8ff" stop-opacity="0.59608"/><stop offset="1" stop-color="#00e8ff" stop-opacity="0.30588"/></radialGradient></defs><g transform="translate(41.25,45.53125)"><g stroke-miterlimit="10"><path d="M-40,391.71875v-436h726v436z" fill="#000000" stroke="#000000" stroke-width="2.5"/><path d="M-4.75972,364.88457v-368.93881h649.19845v368.93881z" fill="#000000" stroke="url(#color-1)" stroke-width="0"/><path d="M540.29722,97.17387c0,-2.07107 1.67893,-3.75 3.75,-3.75c2.07107,0 3.75,1.67893 3.75,3.75c0,2.07107 -1.67893,3.75 -3.75,3.75c-2.07107,0 -3.75,-1.67893 -3.75,-3.75z" fill="#ffffff" stroke="none" stroke-width="0.5"/><path d="M609.73468,124.78154c0,-2.07107 1.67893,-3.75 3.75,-3.75c2.07107,0 3.75,1.67893 3.75,3.75c0,2.07107 -1.67893,3.75 -3.75,3.75c-2.07107,0 -3.75,-1.67893 -3.75,-3.75z" fill="#ffffff" stroke="none" stroke-width="0.5"/><path d="M459.14741,89.64451c0,-2.07107 1.67893,-3.75 3.75,-3.75c2.07107,0 3.75,1.67893 3.75,3.75c0,2.07107 -1.67893,3.75 -3.75,3.75c-2.07107,0 -3.75,-1.67893 -3.75,-3.75z" fill="#ffffff" stroke="none" stroke-width="0.5"/><path d="M460.8206,137.33048c0,-2.07107 1.67893,-3.75 3.75,-3.75c2.07107,0 3.75,1.67893 3.75,3.75c0,2.07107 -1.67893,3.75 -3.75,3.75c-2.07107,0 -3.75,-1.67893 -3.75,-3.75z" fill="#ffffff" stroke="none" stroke-width="0.5"/><path d="M381.34399,162.42836c0,-2.07107 1.67893,-3.75 3.75,-3.75c2.07107,0 3.75,1.67893 3.75,3.75c0,2.07107 -1.67893,3.75 -3.75,3.75c-2.07107,0 -3.75,-1.67893 -3.75,-3.75z" fill="#ffffff" stroke="none" stroke-width="0.5"/><path d="M360.42909,210.11433c0,-2.07107 1.67893,-3.75 3.75,-3.75c2.07107,0 3.75,1.67893 3.75,3.75c0,2.07107 -1.67893,3.75 -3.75,3.75c-2.07107,0 -3.75,-1.67893 -3.75,-3.75z" fill="#ffffff" stroke="none" stroke-width="0.5"/><path d="M314.41632,241.90497c0,-2.07107 1.67893,-3.75 3.75,-3.75c2.07107,0 3.75,1.67893 3.75,3.75c0,2.07107 -1.67893,3.75 -3.75,3.75c-2.07107,0 -3.75,-1.67893 -3.75,-3.75z" fill="#ffffff" stroke="none" stroke-width="0.5"/><path d="M303.94418,305.88988c-1.7941,0 -2.72985,-0.85835 -3.21792,-1.75373c-1.08684,-0.2092 -3.04187,-0.96182 -3.04187,-3.66947c0,-3.75 3.75,-3.75 3.75,-3.75c0.83659,0 1.67319,0 2.50979,0l3.75,5.42319c0,0 0,3.75 -3.75,3.75z" fill="#ffffff" stroke="none" stroke-width="0.5"/><path d="M326.96525,325.56457c0,-2.07107 1.67893,-3.75 3.75,-3.75c2.07107,0 3.75,1.67893 3.75,3.75c0,2.07107 -1.67893,3.75 -3.75,3.75c-2.07107,0 -3.75,-1.67893 -3.75,-3.75z" fill="#ffffff" stroke="none" stroke-width="0.5"/><path d="M337.00441,273.69561c0,-2.07107 1.67893,-3.75 3.75,-3.75c2.07107,0 3.75,1.67893 3.75,3.75c0,2.07107 -1.67893,3.75 -3.75,3.75c-2.07107,0 -3.75,-1.67893 -3.75,-3.75z" fill="#ffffff" stroke="none" stroke-width="0.5"/><path d="M270.86659,351.11376c0,-165.691 134.31909,-300.0101 300.01009,-300.0101c165.69101,0 300.0101,134.31909 300.0101,300.0101c0,165.691 -134.31909,300.0101 -300.0101,300.0101c-165.69101,0 -300.01009,-134.31909 -300.01009,-300.0101z" fill-opacity="0.32549" fill="#ccfbff" stroke="none" stroke-width="50"/><path d="M358.02036,351.11376c0,-117.5573 95.29902,-212.85633 212.85632,-212.85633c117.55731,0 212.85633,95.29902 212.85633,212.85633c0,117.5573 -95.29902,212.85633 -212.85633,212.85633c-117.5573,0 -212.85632,-95.29902 -212.85632,-212.85633z" fill="#77e813" stroke="none" stroke-width="50"/><path d="M534.12925,216.73943c-1.70734,1.02532 -3.92734,1.69192 -6.81394,1.69192c-12.5,0 -12.5,-12.5 -12.5,-12.5l12.5,-14.17319c1.67319,0 3.34639,0 5.01958,0c1.22173,0 2.7959,-0.5894 4.14348,-0.79988c-0.7463,-1.53854 -1.61672,-3.03948 -2.05827,-4.66857c-0.71385,-0.26654 -1.38348,-0.58268 -1.3938,-1.23121c-0.10101,-6.34768 0.40151,-12.82636 2.1821,-18.92003c0.2088,-0.71458 1.58894,-0.97054 2.51095,-0.73125c5.08572,-7.23588 7.99218,-7.9495 18.04023,-7.9495c0,0 12.5,0 12.5,12.5c0,7.92938 -5.03001,10.82876 -8.70845,11.88891c0.11857,0.49455 0.21457,0.86103 0.28504,1.03722c2.40121,6.00302 4.94556,17.05326 1.08817,23.08955c-5.47114,8.56157 -17.10486,10.5603 -26.79507,10.76603z" fill="#13d8e8" stroke="none" stroke-width="0.5"/><path d="M425.29953,253.61731c0,-6.90356 5.59644,-12.5 12.5,-12.5c6.90356,0 12.5,5.59644 12.5,12.5c0,6.90356 -5.59644,12.5 -12.5,12.5c-6.90356,0 -12.5,-5.59644 -12.5,-12.5z" fill="#13d8e8" stroke="none" stroke-width="0.5"/><path d="M544.51798,269.48667c0.97546,-4.3236 -0.00063,-10.09533 4.07594,-13.83244c1.98548,-1.82015 4.70484,-2.83845 7.45503,-3.26407c0.28667,-0.38934 0.60739,-0.71964 0.91093,-0.91891c4.02832,-2.64453 9.68903,-2.84485 12.97977,-6.36508c5.55166,-0.78983 11.72766,-1.45962 17.0041,-2.5108c3.61464,-0.72011 7.3539,-6.17116 10.25033,-7.7737c0.50989,-0.28212 0.95534,-0.51715 1.34186,-0.70965c-0.13994,-2.617 -0.12534,-8.48214 -0.06105,-8.93896c0.97977,-6.96145 0.29004,-9.15698 5.30048,-11.94749c0.09686,-1.98801 0.30027,-4.08957 1.58596,-5.4999c7.67536,-8.41937 17.17622,-8.32206 27.36506,-8.43815c7.78054,0.30732 12.28647,-0.47545 18.65889,8.48253c2.99835,4.21492 -0.57791,10.68308 0.37247,15.40072c0.85714,4.25481 2.32344,8.26611 3.17341,12.51591c0.53359,2.66791 2.00341,7.97661 2.45917,11.40016c0.31671,0.39888 0.66023,0.93409 1.02793,1.63203c2.51645,4.77649 9.73812,32.58347 9.89844,37.16357c0.78023,1.56046 3.76217,14.56889 4.94921,21.69862c0.48947,0.45459 1.11213,1.40116 1.88427,3.04591c2.74388,5.84476 8.22767,32.05949 6.88644,38.36229c-0.99447,4.67332 -0.55255,10.23 -3.66117,13.85841c-2.58611,3.01853 -7.49167,2.70023 -11.34862,3.66116c-1.78031,0.44356 -6.842,0.91032 -5.49405,-0.33439c-11.97852,5.98926 -66.99048,2.84418 -84.02171,2.84418c-19.10952,0 -38.10371,-2.50979 -58.56172,-2.50979c-11.30674,-1.07781 -20.08622,3.80068 -31.42692,-2.82457c-1.32297,-0.77288 -0.56833,-3.13367 -1.51201,-4.34076c-0.21638,-0.27678 -0.48758,-0.52376 -0.79369,-0.75058c-6.54609,0.7233 -13.9423,0.38654 -18.97293,0.38654c-6.50995,0 -18.92255,1.35856 -21.89668,-6.60178c-2.13734,-5.72062 2.94773,-11.85266 4.42159,-17.77899c1.89911,-0.97003 6.39292,-2.95917 8.4604,-3.631c-0.15808,-0.20979 -0.23985,-0.4557 -0.09445,-0.55198c2.12932,-1.40995 8.20987,-3.88748 9.34437,-3.88872c1.94642,-1.73543 6.9872,-5.49184 12.78817,-7.27187c2.27292,-0.69745 8.94415,-2.47097 12.68723,-2.35517c0.32743,-0.29849 0.70107,-0.54691 1.01837,-0.68313c2.21762,-0.95202 4.7143,-1.09841 7.12149,-1.30712c0.44241,-0.80186 0.83496,-1.66437 1.61528,-2.07262c6.11277,-3.19806 13.20243,-3.81357 18.96177,-6.89174c-0.65755,-1.92645 -0.9773,-4.10144 -0.78413,-6.6215c0.69912,-9.1207 5.26829,-13.28637 11.6812,-15.79946c0.3908,-3.91323 0.67476,-8.59782 3.63995,-11.13824c2.04524,-1.75225 5.61414,-2.37627 9.3096,-2.89948z" fill="#13d8e8" stroke="none" stroke-width="0.5"/><path d="M394.29915,282.22546c-2.64608,-1.74327 -4.97324,-4.80957 -4.97324,-10.20303c0,-12.5 12.5,-12.5 12.5,-12.5l9.91803,1.86687c2.42239,3.70254 5.62357,6.99964 7.26717,11.1076c1.14378,2.85874 -0.53869,6.2399 0.17298,9.23559c0.69191,2.91253 2.40699,5.0839 1.73577,8.10799c0.97773,0.36563 1.97146,0.72791 2.73891,1.41247c1.80994,1.61446 3.10662,3.72535 4.65993,5.58803c0,0 7.80869,9.76086 -1.95217,17.56955c-9.76086,7.80869 -17.56955,-1.95217 -17.56955,-1.95217c-0.67761,-0.92597 -1.18321,-2.00674 -2.03283,-2.77793c-2.02116,-1.83457 -4.97206,-2.71493 -6.5061,-4.9727c-2.12843,-3.13259 -3.01539,-6.96957 -4.07796,-10.60471c-0.31295,-1.07066 0.21876,-2.25259 0,-3.34638c-0.34589,-1.72945 -1.36588,-3.28285 -1.67319,-5.01957c-0.20441,-1.15521 -0.22755,-2.33317 -0.20774,-3.51159z" fill="#13d8e8" stroke="none" stroke-width="0.5"/><path d="M494.28444,31.08279c0,-2.07107 1.67893,-3.75 3.75,-3.75c2.07107,0 3.75,1.67893 3.75,3.75c0,2.07107 -1.67893,3.75 -3.75,3.75c-2.07107,0 -3.75,-1.67893 -3.75,-3.75z" fill="#ffffff" stroke="none" stroke-width="0.5"/><path d="M347.88015,84.62493c0,-2.07107 1.67893,-3.75 3.75,-3.75c2.07107,0 3.75,1.67893 3.75,3.75c0,2.07107 -1.67893,3.75 -3.75,3.75c-2.07107,0 -3.75,-1.67893 -3.75,-3.75z" fill="#ffffff" stroke="none" stroke-width="0.5"/><path d="M398.07591,37.77556c0,-2.07107 1.67893,-3.75 3.75,-3.75c2.07107,0 3.75,1.67893 3.75,3.75c0,2.07107 -1.67893,3.75 -3.75,3.75c-2.07107,0 -3.75,-1.67893 -3.75,-3.75z" fill="#ffffff" stroke="none" stroke-width="0.5"/><path d="M244.14226,29.4096c0,-2.07107 1.67893,-3.75 3.75,-3.75c2.07107,0 3.75,1.67893 3.75,3.75c0,2.07107 -1.67893,3.75 -3.75,3.75c-2.07107,0 -3.75,-1.67893 -3.75,-3.75z" fill="#ffffff" stroke="none" stroke-width="0.5"/><path d="M274.23035,154.0624c0,3.75 -3.75,3.75 -3.75,3.75c-0.83659,0 -4.18298,0 -5.01957,0c0,0 -3.75,0 -3.75,-3.75c0,-3.75 3.75,-3.75 3.75,-3.75c0.83659,0 1.67319,0 2.50978,0h2.50979c0,0 3.75,0 3.75,3.75z" fill="#ffffff" stroke="none" stroke-width="0.5"/><path d="M200.63927,96.33728c0,-2.07107 1.67893,-3.75 3.75,-3.75c2.07107,0 3.75,1.67893 3.75,3.75c0,2.07107 -1.67893,3.75 -3.75,3.75c-2.07107,0 -3.75,-1.67893 -3.75,-3.75z" fill="#ffffff" stroke="none" stroke-width="0.5"/><path d="M95.22818,36.10237c0,-2.07107 1.67893,-3.75 3.75,-3.75c2.07107,0 3.75,1.67893 3.75,3.75c0,2.07107 -1.67893,3.75 -3.75,3.75c-2.07107,0 -3.75,-1.67893 -3.75,-3.75z" fill="#ffffff" stroke="none" stroke-width="0.5"/><path d="M134.54818,99.68366c0,-2.07107 1.67893,-3.75 3.75,-3.75c2.07107,0 3.75,1.67893 3.75,3.75c0,2.07107 -1.67893,3.75 -3.75,3.75c-2.07107,0 -3.75,-1.67893 -3.75,-3.75z" fill="#ffffff" stroke="none" stroke-width="0.5"/><path d="M45.03242,94.66409c0,-2.07107 1.67893,-3.75 3.75,-3.75c2.07107,0 3.75,1.67893 3.75,3.75c0,2.07107 -1.67893,3.75 -3.75,3.75c-2.07107,0 -3.75,-1.67893 -3.75,-3.75z" fill="#ffffff" stroke="none" stroke-width="0.5"/><path d="M24.95412,31.08279c0,-2.07107 1.67893,-3.75 3.75,-3.75c2.07107,0 3.75,1.67893 3.75,3.75c0,2.07107 -1.67893,3.75 -3.75,3.75c-2.07107,0 -3.75,-1.67893 -3.75,-3.75z" fill="#ffffff" stroke="none" stroke-width="0.5"/><path d="M172.19501,151.55261c0,-2.07107 1.67893,-3.75 3.75,-3.75c2.07107,0 3.75,1.67893 3.75,3.75c0,2.07107 -1.67893,3.75 -3.75,3.75c-2.07107,0 -3.75,-1.67893 -3.75,-3.75z" fill="#ffffff" stroke="none" stroke-width="0.5"/><path d="M88.53541,172.46751c0,-2.07107 1.67893,-3.75 3.75,-3.75c2.07107,0 3.75,1.67893 3.75,3.75c0,2.07107 -1.67893,3.75 -3.75,3.75c-2.07107,0 -3.75,-1.67893 -3.75,-3.75z" fill="#ffffff" stroke="none" stroke-width="0.5"/><path d="M28.3005,231.02922c0,-2.07107 1.67893,-3.75 3.75,-3.75c2.07107,0 3.75,1.67893 3.75,3.75c0,2.07107 -1.67893,3.75 -3.75,3.75c-2.07107,0 -3.75,-1.67893 -3.75,-3.75z" fill="#ffffff" stroke="none" stroke-width="0.5"/><path d="M214.0248,205.09475c0,-3.75 3.75,-3.75 3.75,-3.75h3.34638c0,0 3.75,0 3.75,3.75c0,3.75 -3.75,3.75 -3.75,3.75h-3.34638c0,0 -3.75,0 -3.75,-3.75z" fill="#ffffff" stroke="none" stroke-width="0.5"/><path d="M168.84862,241.90497c0,-2.07107 1.67893,-3.75 3.75,-3.75c2.07107,0 3.75,1.67893 3.75,3.75c0,2.07107 -1.67893,3.75 -3.75,3.75c-2.07107,0 -3.75,-1.67893 -3.75,-3.75z" fill="#ffffff" stroke="none" stroke-width="0.5"/><path d="M106.28135,256.55676c2.08012,3.12019 -1.04006,5.20031 -1.04006,5.20031l-2.50979,1.6732c0,0 -3.12019,2.08012 -5.20031,-1.04007c-2.08012,-3.12019 1.04006,-5.20031 1.04006,-5.20031l2.50979,-1.67319c0,0 3.12019,-2.08013 5.20032,1.04006z" fill="#ffffff" stroke="none" stroke-width="0.5"/><path d="M219.88097,313.01563c0,-2.07107 1.67893,-3.75 3.75,-3.75c2.07107,0 3.75,1.67893 3.75,3.75c0,2.07107 -1.67893,3.75 -3.75,3.75c-2.07107,0 -3.75,-1.67893 -3.75,-3.75z" fill="#ffffff" stroke="none" stroke-width="0.5"/><path d="M118.65287,323.05478c0,-2.07107 1.67893,-3.75 3.75,-3.75c2.07107,0 3.75,1.67893 3.75,3.75c0,2.07107 -1.67893,3.75 -3.75,3.75c-2.07107,0 -3.75,-1.67893 -3.75,-3.75z" fill="#ffffff" stroke="none" stroke-width="0.5"/><path d="M41.68603,320.54499c0,-2.07107 1.67893,-3.75 3.75,-3.75c2.07107,0 3.75,1.67893 3.75,3.75c0,2.07107 -1.67893,3.75 -3.75,3.75c-2.07107,0 -3.75,-1.67893 -3.75,-3.75z" fill="#ffffff" stroke="none" stroke-width="0.5"/><path d="M587.14659,41.12194c0,-2.07107 1.67893,-3.75 3.75,-3.75c2.07107,0 3.75,1.67893 3.75,3.75c0,2.07107 -1.67893,3.75 -3.75,3.75c-2.07107,0 -3.75,-1.67893 -3.75,-3.75z" fill="#ffffff" stroke="none" stroke-width="0.5"/><path d="M385.52697,91.3177c0,-2.07107 1.67893,-3.75 3.75,-3.75c2.07107,0 3.75,1.67893 3.75,3.75c0,2.07107 -1.67893,3.75 -3.75,3.75c-2.07107,0 -3.75,-1.67893 -3.75,-3.75z" fill="#ffffff" stroke="none" stroke-width="0.5"/><path d="M311.06993,170.79432c0,-2.07107 1.67893,-3.75 3.75,-3.75c2.07107,0 3.75,1.67893 3.75,3.75c0,2.07107 -1.67893,3.75 -3.75,3.75c-2.07107,0 -3.75,-1.67893 -3.75,-3.75z" fill="#ffffff" stroke="none" stroke-width="0.5"/><path d="M270.07673,225.17305c0,-2.07107 1.67893,-3.75 3.75,-3.75c2.07107,0 3.75,1.67893 3.75,3.75c0,2.07107 -1.67893,3.75 -3.75,3.75c-2.07107,0 -3.75,-1.67893 -3.75,-3.75z" fill="#ffffff" stroke="none" stroke-width="0.5"/><path d="M242.46906,273.69561c0,-2.07107 1.67893,-3.75 3.75,-3.75c2.07107,0 3.75,1.67893 3.75,3.75c0,2.07107 -1.67893,3.75 -3.75,3.75c-2.07107,0 -3.75,-1.67893 -3.75,-3.75z" fill="#ffffff" stroke="none" stroke-width="0.5"/><path d="M264.22056,99.68366c0,-2.07107 1.67893,-3.75 3.75,-3.75c2.07107,0 3.75,1.67893 3.75,3.75c0,2.07107 -1.67893,3.75 -3.75,3.75c-2.07107,0 -3.75,-1.67893 -3.75,-3.75z" fill="#ffffff" stroke="none" stroke-width="0.5"/><path d="M306.05036,37.77556c0,-2.07107 1.67893,-3.75 3.75,-3.75c2.07107,0 3.75,1.67893 3.75,3.75c0,2.07107 -1.67893,3.75 -3.75,3.75c-2.07107,0 -3.75,-1.67893 -3.75,-3.75z" fill="#ffffff" stroke="none" stroke-width="0.5"/><path d="M162.15585,62.03684c0,-2.07107 1.67893,-3.75 3.75,-3.75c2.07107,0 3.75,1.67893 3.75,3.75c0,2.07107 -1.67893,3.75 -3.75,3.75c-2.07107,0 -3.75,-1.67893 -3.75,-3.75z" fill="#ffffff" stroke="none" stroke-width="0.5"/><path d="M86.86222,116.41558c0,-2.07107 1.67893,-3.75 3.75,-3.75c2.07107,0 3.75,1.67893 3.75,3.75c0,2.07107 -1.67893,3.75 -3.75,3.75c-2.07107,0 -3.75,-1.67893 -3.75,-3.75z" fill="#ffffff" stroke="none" stroke-width="0.5"/><path d="M28.3005,149.87942c0,-2.07107 1.67893,-3.75 3.75,-3.75c2.07107,0 3.75,1.67893 3.75,3.75c0,2.07107 -1.67893,3.75 -3.75,3.75c-2.07107,0 -3.75,-1.67893 -3.75,-3.75z" fill="#ffffff" stroke="none" stroke-width="0.5"/><path d="M141.24096,212.62411c0,-2.07107 1.67893,-3.75 3.75,-3.75c2.07107,0 3.75,1.67893 3.75,3.75c0,2.07107 -1.67893,3.75 -3.75,3.75c-2.07107,0 -3.75,-1.67893 -3.75,-3.75z" fill="#ffffff" stroke="none" stroke-width="0.5"/><path d="M142.91414,287.91775c0,-2.07107 1.67893,-3.75 3.75,-3.75c2.07107,0 3.75,1.67893 3.75,3.75c0,2.07107 -1.67893,3.75 -3.75,3.75c-2.07107,0 -3.75,-1.67893 -3.75,-3.75z" fill="#ffffff" stroke="none" stroke-width="0.5"/><path d="M58.41796,297.95689c0,-2.07107 1.67893,-3.75 3.75,-3.75c2.07107,0 3.75,1.67893 3.75,3.75c0,2.07107 -1.67893,3.75 -3.75,3.75c-2.07107,0 -3.75,-1.67893 -3.75,-3.75z" fill="#ffffff" stroke="none" stroke-width="0.5"/><path d="M168.01203,339.7867c0,-2.07107 1.67893,-3.75 3.75,-3.75c2.07107,0 3.75,1.67893 3.75,3.75c0,2.07107 -1.67893,3.75 -3.75,3.75c-2.07107,0 -3.75,-1.67893 -3.75,-3.75z" fill="#ffffff" stroke="none" stroke-width="0.5"/><path d="M85.18903,346.47946c0,-2.07107 1.67893,-3.75 3.75,-3.75c2.07107,0 3.75,1.67893 3.75,3.75c0,2.07107 -1.67893,3.75 -3.75,3.75c-2.07107,0 -3.75,-1.67893 -3.75,-3.75z" fill="#ffffff" stroke="none" stroke-width="0.5"/><g stroke="none"><path d="M481.08549,294.12341c0.30559,-1.12928 -0.65384,-2.99734 0.6103,-3.24932c1.36834,-0.27276 3.51856,0.6486 3.99747,-1.55289c0.20892,-0.96039 2.34419,0.68505 3.38811,0.96755c0.2251,0.06092 0.24564,1.70344 0.62702,1.74869c1.14297,0.13563 3.03895,-1.34241 3.50319,-0.9329c0.87892,0.77531 -0.30897,2.15128 0.65603,2.83567c0.9909,0.70276 3.17205,0.47896 3.34805,1.41552c0.12008,0.63901 -1.53966,2.03972 -1.71019,2.66989c-0.17752,0.65598 -2.10656,-0.47671 -2.33537,0.05886c-0.23057,0.53969 -0.16445,1.60535 -0.23129,2.44977c-0.05063,0.63971 -0.17757,1.15245 -0.56762,1.21334c-0.60708,0.09476 -2.46767,-1.79753 -3.36863,-2.67607c-0.30313,-0.29559 -2.52193,2.51032 -2.94614,2.39553c-0.33715,-0.09124 -0.29171,-1.19654 -0.39724,-1.61703c-0.22605,-0.90068 -0.385,-1.46699 -1.13497,-1.94792c-1.23451,-0.79165 -4.77341,1.96846 -3.26092,0.86885c0.62364,-0.4534 1.09936,-1.21577 0.18269,-2.20271c-0.8846,-0.95242 -2.97761,-1.00211 -2.96304,-1.48824c0.01462,-0.48775 2.46823,-0.46022 2.60255,-0.95657z" fill="#5d554f" stroke-width="0"/><path d="M460.58851,288.38951c0,-0.51908 0.51908,-0.51908 0.51908,-0.51908l0.58248,0.01389c0.237,0.12325 0.51184,0.19172 0.711,0.36976c0.10246,0.09159 0.01351,0.32933 0.13746,0.3887c0.16381,0.07847 0.36203,-0.0936 0.54118,-0.06364c0.17026,0.02847 0.29574,0.18974 0.46321,0.23161c0.14979,0.03745 0.31342,-0.03745 0.46321,0c0.16748,0.04187 0.29394,0.19775 0.46321,0.23161c0.22711,0.04542 0.4687,-0.05009 0.69482,0c0.21789,0.04827 0.403,0.19189 0.60449,0.28784c0.91029,0.61279 2.18791,0.63251 3.02325,1.16544c0.23364,0.14906 0.26663,0.59337 0.54118,0.63118c0.57193,0.07876 1.35334,0.21585 1.84209,0.57627c0.14823,0.10931 0.13451,0.35216 0.25855,0.48831c0.2521,0.27672 0.7251,0.20756 1.05545,0.3836c0.84496,0.45028 1.81912,1.2693 2.41865,1.93247c0.27019,0.29887 1.32727,0.56025 1.69576,0.78897c-0.00682,0.1442 -0.11853,0.32666 -0.02046,0.4326c0.22988,0.24832 0.66712,0.1497 0.96907,0.30244c1.77955,0.90019 3.28098,2.31785 5.09127,3.24048c1.06145,0.54098 1.97667,1.54841 2.71176,2.44226c0.17316,0.21055 0.43127,0.35959 0.55064,0.60467c0.01866,0.03831 -0.04068,0.11569 -0.08593,0.14601c0.12718,0.01434 0.47285,0.09226 0.47285,0.51585c0,0.51908 -0.51908,0.51908 -0.51908,0.51908c-0.98988,-0.21065 -1.01623,-1.12316 -1.78286,-1.8921c-1.40673,-1.41096 -4.28271,-2.93176 -6.01726,-3.97559c-0.641,-0.38575 -2.22801,-1.18376 -2.25312,-1.78991c-1.55066,-0.17551 -2.41412,-1.68585 -3.76023,-2.37391c-0.5561,-0.28426 -0.7647,-0.07895 -1.26062,-0.54283c-0.11772,-0.11011 -0.07684,-0.33992 -0.20466,-0.43812c-0.3615,-0.2777 -1.00972,-0.22713 -1.40041,-0.35016c-0.36183,-0.11394 -0.54165,-0.53536 -0.84846,-0.75846c-0.66705,-0.48505 -2.1658,-0.60042 -2.99853,-1.15063c-0.10731,-0.05846 -0.20151,-0.1546 -0.32193,-0.17537c-0.22824,-0.03937 -0.46771,0.04542 -0.69482,0c-0.16928,-0.03386 -0.29574,-0.18974 -0.46321,-0.23161c-0.14979,-0.03745 -0.31342,0.03745 -0.46321,0c-0.16748,-0.04187 -0.2948,-0.1937 -0.46321,-0.23161c-0.27669,-0.06228 -0.59602,0.06564 -0.84846,-0.06364c-0.24667,-0.12633 -0.28694,-0.52088 -0.54118,-0.63118l-0.34395,0.01389c0,0 -0.51908,0 -0.51908,-0.51908z" fill="#ff0000" stroke-width="0.5"/><path d="M471.93725,278.89363c0,-0.51908 0.51908,-0.51908 0.51908,-0.51908l0.51954,0.08718c0.41576,0.27889 0.77397,0.63569 1.17361,0.93723c0.5765,0.43498 1.30866,0.70922 1.87844,1.17771c0.13104,0.10774 0.18002,0.31127 0.33277,0.38507c0.15306,0.07396 0.37281,-0.07915 0.5095,0.02191c0.26533,0.19616 0.37349,0.54621 0.59264,0.79289c0.26749,0.3011 1.22793,0.56507 1.34235,0.65132c0.2278,0.17172 0.28442,0.50079 0.47968,0.70876c0.28359,0.30205 0.82115,0.21432 1.15461,0.46022c0.14823,0.10931 0.13451,0.35216 0.25855,0.48831c0.07138,0.07835 0.19654,0.07939 0.29481,0.11908c0.28774,0.11471 0.63921,0.13019 0.86322,0.34413c0.15969,0.15251 -0.00704,0.50625 0.16807,0.64076c0.15671,0.12038 0.40601,-0.1307 0.58995,-0.05847c0.46069,0.18092 0.88786,0.45284 1.27447,0.76187c0.60521,0.48377 1.05781,1.38348 1.6497,1.87623c1.36202,1.13387 2.92703,1.9415 4.16892,3.2425c0.38125,0.3994 1.10842,0.35288 1.46366,0.77558c0.24962,0.29703 0.21591,1.05795 0.21734,1.46642c0,0 0,0.51908 -0.51908,0.51908c-0.51908,0 -0.51908,-0.51908 -0.51908,-0.51908c0.00012,-0.02885 0.0093,-0.82672 -0.01427,-0.84965c-0.19166,-0.18647 -0.49871,-0.19422 -0.74102,-0.30732c-0.73112,-0.34125 -1.02851,-0.96393 -1.68892,-1.43018c-0.97256,-0.68662 -2.16205,-1.37458 -3.05461,-2.11907c-0.57487,-0.4795 -1.01476,-1.36661 -1.5928,-1.82948c-0.25799,-0.20658 -1.78196,-0.64249 -1.84129,-0.68624c-0.21595,-0.15924 -0.1107,-0.55401 -0.29514,-0.74888c-0.12367,-0.13066 -0.35094,-0.07939 -0.52642,-0.11908c-0.21054,-0.11471 -0.45652,-0.18034 -0.63162,-0.34413c-0.11772,-0.11011 -0.07684,-0.33992 -0.20466,-0.43812c-0.33083,-0.25414 -0.85912,-0.17876 -1.16146,-0.46621c-0.19673,-0.18704 -0.2307,-0.51653 -0.44675,-0.68088c-0.25165,-0.19142 -0.60648,-0.18971 -0.8877,-0.3342c-0.20217,-0.10388 -0.39886,-0.23367 -0.54923,-0.40411c-0.15079,-0.17091 -0.15283,-0.45818 -0.33379,-0.59675c-0.11049,-0.08461 -0.29315,0.08553 -0.41692,0.02191c-0.23819,-0.12243 -0.38259,-0.37652 -0.59366,-0.54136c-0.56446,-0.44081 -1.2629,-0.71728 -1.82728,-1.13836c-0.39116,-0.29184 -0.73552,-0.64623 -1.14246,-0.91563l0.05633,0.08718c0,0 -0.51908,0 -0.51908,-0.51908z" fill="#ff0000" stroke-width="0.5"/><path d="M464.67786,285.24318c0.36705,-0.36705 0.73409,0 0.73409,0l0.0967,0.13437c0.11678,0.06356 0.21954,0.16683 0.35033,0.19069c0.22785,0.04157 0.4687,-0.05009 0.69482,0c0.21789,0.04827 0.41128,0.17616 0.6045,0.28784c0.6851,0.39601 1.06556,0.60154 1.79096,0.89582c0.13455,0.05458 0.24363,0.1682 0.38383,0.20598c0.19959,0.05378 0.44124,-0.04541 0.61685,0.06364c0.14666,0.09107 0.09273,0.36068 0.23161,0.46321c0.08475,0.06258 0.20663,-0.08601 0.30958,-0.06364c0.16869,0.03667 0.29592,0.18902 0.46321,0.23161c0.13164,0.03351 0.27352,-0.03306 0.40738,-0.01c0.78816,0.13583 1.29729,0.45792 2.06233,0.53685c0.38968,0.77936 1.42975,0.51212 2.24182,0.88842c0.25135,0.11647 0.53543,0.22009 0.70613,0.43828c0.07733,0.09885 -0.18118,0.30294 -0.07451,0.36907c0.2824,0.17505 0.68068,-0.00316 0.98963,0.11908c1.33519,0.5283 3.7288,2.16821 5.01251,2.16075c0,0 0.51908,0 0.51908,0.51908c0,0.51908 -0.51908,0.51908 -0.51908,0.51908c-0.43067,-0.00195 -0.86964,0.02011 -1.27975,-0.17334c-0.91926,-0.43361 -1.94332,-1.10651 -2.81466,-1.64124c-0.71263,-0.43733 -2.01275,-0.33917 -2.64183,-0.76933c-0.15472,-0.1058 0.01015,-0.39013 -0.07451,-0.55736c-0.20226,-0.39949 -2.14777,-0.06367 -2.61062,-0.98937c-0.10319,0.02121 -0.20676,0.08662 -0.30958,0.06364c-0.18888,-0.04222 -0.3408,-0.1877 -0.52405,-0.24996c-0.42475,-0.14433 -0.89319,-0.1061 -1.32881,-0.21325c-0.16763,-0.04123 -0.29669,-0.18609 -0.46321,-0.23161c-0.19939,-0.05451 -0.44124,0.04541 -0.61685,-0.06364c-0.14666,-0.09107 -0.09273,-0.36068 -0.23161,-0.46321c-0.08475,-0.06258 -0.20684,0.08698 -0.30958,0.06364c-0.43247,-0.09825 -0.82633,-0.32243 -1.23742,-0.48884c-0.52236,-0.21145 -1.00308,-0.80787 -1.54187,-0.9008c-0.22824,-0.03937 -0.46836,0.04856 -0.69482,0c-0.20771,-0.04454 -0.38406,-0.18168 -0.57609,-0.27252l-0.36651,-0.32884c0,0 -0.36705,-0.36705 0,-0.73409z" fill="#ff0000" stroke-width="0.5"/><path d="M464.67786,287.79086c0.36705,-0.36705 0.73409,0 0.73409,0l0.0967,0.13437c0.1782,0.0916 0.37891,0.14866 0.53459,0.27479c0.22474,0.18209 0.35282,0.47073 0.58995,0.63635c0.0731,0.05106 0.17543,-0.03739 0.26457,-0.03951c0.27132,-0.00645 0.54756,-0.03734 0.81408,0.01389c0.16953,0.03258 0.29574,0.18974 0.46321,0.23161c0.14979,0.03745 0.31594,-0.04638 0.46321,0c0.2548,0.08024 0.51069,0.19302 0.711,0.36976c0.12087,0.10664 0.07684,0.33992 0.20466,0.43812c0.15116,0.11612 0.37457,0.07809 0.55336,0.14418c0.16192,0.05986 0.30383,0.16529 0.46321,0.23161c0.26605,0.11069 0.58405,0.12141 0.81126,0.29866c0.21456,0.16738 0.2981,0.45536 0.44715,0.68303c1.75711,0.3583 2.72555,1.64423 4.30016,2.26081c0.46656,0.18269 1.01164,0.10362 1.4732,0.2986c0.74555,0.31494 1.31421,0.89439 2.15313,1.06541c0.37823,0.07711 0.78518,-0.09991 1.15803,0c0.96003,0.25726 1.08731,0.79932 2.19681,0.79674c0,0 0.51908,0 0.51908,0.51908c0,0.51908 -0.51908,0.51908 -0.51908,0.51908c-0.51652,-0.00105 -1.15009,0.02173 -1.6177,-0.16859c-0.42525,-0.17308 -0.40131,-0.56662 -0.81763,-0.65592c-0.37742,-0.08096 -0.77931,0.07468 -1.15803,0c-0.88356,-0.17422 -1.51623,-0.77092 -2.28722,-1.10681c-0.46734,-0.20361 -1.02555,-0.1167 -1.49788,-0.30845c-1.63802,-0.66499 -2.72195,-1.86796 -4.5009,-2.37133c-0.15976,-0.23554 -0.2596,-0.52567 -0.47928,-0.70661c-0.15472,-0.12744 -0.39103,-0.0933 -0.57838,-0.16455c-0.43972,-0.16724 -0.92086,-0.27143 -1.2995,-0.55064c-0.14823,-0.10931 -0.14222,-0.34552 -0.25855,-0.48831c-0.13737,-0.16861 -0.57055,-0.06643 -0.67864,-0.09346c-0.16748,-0.04187 -0.29426,-0.19619 -0.46321,-0.23161c-0.28104,-0.0589 -0.97764,0.11529 -1.23742,-0.02563c-0.44499,-0.24138 -0.73529,-0.72232 -1.19153,-0.94172l-0.36651,-0.32884c0,0 -0.36705,-0.36705 0,-0.73409z" fill="#ff7b00" stroke-width="0.5"/><path d="M468.15197,280.84265c0.36705,-0.36705 0.73409,0 0.73409,0l0.0967,0.13437c0.46419,0.2386 0.82664,0.63767 1.22941,0.96961c0.32442,0.26737 0.83819,0.21315 1.1696,0.4718c0.22871,0.1785 0.29027,0.50936 0.49166,0.71819c0.24683,0.25595 0.69284,0.23968 0.94994,0.48531c0.11655,0.11135 0.07684,0.33992 0.20466,0.43812c0.15116,0.11612 0.37474,0.07765 0.55336,0.14418c0.29782,0.11091 0.53763,0.36506 0.84704,0.43759c0.15033,0.03524 0.31683,-0.04911 0.46321,0c0.36504,0.12248 0.69287,0.33609 1.03931,0.50413c0.63515,0.34572 1.33939,0.14762 2.05097,0.44792c0.35167,0.14842 0.53358,0.54972 0.83628,0.78225c0.39328,0.30211 1.14388,0.33985 1.58466,0.66586c1.76168,1.30299 4.53363,2.64257 5.17962,4.92734c0,0 0.1259,0.50359 -0.37769,0.62948c-0.50359,0.1259 -0.62948,-0.37769 -0.62948,-0.37769c-0.43708,-2.27929 -5.36857,-4.09212 -6.69587,-5.54902c-0.47958,-0.52641 -1.79263,-0.30423 -2.41277,-0.59759c-0.27118,-0.14077 -0.52346,-0.32635 -0.81355,-0.4223c-0.14659,-0.04849 -0.31386,0.03916 -0.46321,0c-0.1861,-0.0488 -0.79018,-0.39766 -1.00581,-0.48884c-0.2748,-0.1162 -0.59615,-0.14196 -0.83628,-0.31903c-0.14823,-0.10931 -0.13223,-0.35428 -0.25855,-0.48831c-0.22974,-0.24377 -0.66237,-0.208 -0.90291,-0.44112c-0.19148,-0.18556 -0.2291,-0.50174 -0.43476,-0.67145c-0.31709,-0.26165 -0.82229,-0.20182 -1.14647,-0.45463c-0.36808,-0.28705 -0.66599,-0.68096 -1.08666,-0.88325l-0.36651,-0.32884c0,0 -0.36705,-0.36705 0,-0.73409z" fill="#ff7b00" stroke-width="0.5"/><path d="M476.72142,277.36855c0.36705,-0.36705 0.73409,0 0.73409,0l0.02871,0.10621c0.20461,0.07056 0.40145,0.16992 0.61382,0.21167c0.16333,0.03211 0.34123,-0.04492 0.49933,0.00718c0.72394,0.23857 1.41798,0.69791 2.1453,0.94478c0.32732,0.1111 0.69283,0.11234 1.00209,0.26674c0.20113,0.10041 0.32024,0.31557 0.48036,0.47336c0.47615,0.14854 1.52317,0.43259 1.89504,0.72386c0.92762,0.72657 3.09796,3.28763 3.62772,4.35836c0.25629,0.51799 0.3188,1.12303 0.60658,1.62421c0.51536,0.89751 0.71595,1.38987 0.8576,2.3815c0.1461,1.0228 0.0559,1.17652 0.15158,1.02525c0,0 0.51908,0 0.51908,0.51908c0,0.51908 -0.51908,0.51908 -0.51908,0.51908c-1.71867,-0.31472 -0.76915,-1.81472 -1.39802,-3.08146c-1.50365,-3.02882 -2.97159,-6.02471 -6.2863,-7.18676c-0.14869,-0.15102 -0.25657,-0.35816 -0.44607,-0.45307c-0.26024,-0.13034 -0.57411,-0.10608 -0.85077,-0.19647c-0.69248,-0.22624 -1.34101,-0.67748 -2.02363,-0.90807c-0.1349,-0.04557 -0.28756,0.03553 -0.4271,0.00718c-0.26642,-0.05412 -0.51721,-0.1677 -0.77582,-0.25154l-0.43451,-0.357c0,0 -0.36705,-0.36705 0,-0.73409z" fill="#ff7b00" stroke-width="0.5"/><path d="M462.20976,294.41129c0,-0.51908 0.51908,-0.51908 0.51908,-0.51908l0.73611,0.07752c0.0996,0.17088 0.14216,0.39189 0.29881,0.51263c0.15097,0.11636 0.37481,0.07747 0.55336,0.14418c0.13602,0.05082 0.2412,0.17874 0.38383,0.20598c0.2275,0.04344 0.46771,-0.04542 0.69482,0c0.16928,0.03386 0.29394,0.19775 0.46321,0.23161c0.22711,0.04542 0.47242,-0.06465 0.69482,0c0.85976,0.24994 0.83026,0.46601 1.46903,0.72045c0.39762,0.15838 0.80855,0.28741 1.19153,0.4785c0.44651,0.2228 0.86467,0.51305 1.33759,0.67226c0.32759,0.11029 0.70138,0.09627 1.00209,0.26674c0.29054,0.16471 0.47465,0.46998 0.71197,0.70497c1.35186,0.43025 2.43632,1.87802 3.72784,2.01083c1.70962,0.1758 3.53532,-0.31646 5.09939,-0.78788c0.76213,-0.22971 1.4978,-0.81147 2.36441,-0.83726c0,0 0.51908,0 0.51908,0.51908c0,0.51908 -0.51908,0.51908 -0.51908,0.51908c-0.71377,-0.04344 -1.40606,0.59564 -2.03612,0.78399c-1.58005,0.47233 -3.84784,1.07537 -5.55453,0.83337c-1.63962,-0.23249 -2.57452,-1.61318 -4.14679,-2.1581c-0.22589,-0.22822 -0.39948,-0.52429 -0.67767,-0.68467c-0.25215,-0.14537 -0.57437,-0.10529 -0.85077,-0.19647c-0.65594,-0.21639 -1.22952,-0.67802 -1.87141,-0.9337c-0.2268,-0.09034 -0.46827,-0.14063 -0.69482,-0.23161c-0.21185,-0.08508 -1.25547,-0.65386 -1.31026,-0.66919c-0.22303,-0.06244 -0.46771,0.04542 -0.69482,0c-0.16928,-0.03386 -0.29394,-0.19775 -0.46321,-0.23161c-0.22711,-0.04542 -0.46806,0.04714 -0.69482,0c-0.19597,-0.04074 -0.35792,-0.18005 -0.5426,-0.25723c-0.27528,-0.11505 -0.59557,-0.14275 -0.83628,-0.31903c-0.11974,-0.08769 -0.1096,-0.27587 -0.1644,-0.4138l-0.19032,0.07752c0,0 -0.51908,0 -0.51908,-0.51908z" fill="#ffea00" stroke-width="0.5"/><path d="M466.37868,289.31594c0,-0.51908 0.51908,-0.51908 0.51908,-0.51908h0.46321c0.42125,0.00517 0.82563,0.16905 1.24118,0.23831c0.22845,0.03808 0.46637,-0.03808 0.69482,0c0.24081,0.04014 0.45551,0.18333 0.69482,0.23161c0.17341,0.03498 0.36572,-0.04881 0.53049,0.01557c0.25927,0.10131 0.43731,0.35753 0.69482,0.46321c0.12219,0.05015 0.26637,-0.04123 0.39594,-0.01557c0.6365,0.12607 1.21753,0.33028 1.85286,0.46321c0.38962,0.08152 0.79615,0.00039 1.19415,0.00718c0.9674,0.46065 1.82636,1.00233 2.81044,1.39803c0.18194,0.07316 0.42132,-0.05169 0.58569,0.05525c0.45373,0.29519 0.37819,0.71498 1.0044,0.86279c0.4611,0.10884 0.98819,0.07667 1.37888,0.34466c0.12239,0.08396 0.04756,0.32228 0.1644,0.4138c0.31286,0.24506 1.65582,0.38153 2.0565,0.67872c0.44178,0.32768 0.68889,0.87076 1.12157,1.21036c0,0 0.40534,0.32427 0.08107,0.7296c-0.32427,0.40534 -0.72961,0.08107 -0.72961,0.08107c-0.37934,-0.30816 -0.57423,-0.8094 -0.9629,-1.10571c-0.4761,-0.36298 -1.57875,-0.38378 -2.11243,-0.71093c-0.16863,-0.10337 -0.14789,-0.38479 -0.29881,-0.51263c-0.24028,-0.20353 -0.68398,-0.05269 -0.93719,-0.11855c-0.67348,-0.17517 -0.90333,-0.70532 -1.31167,-0.99007c-0.46903,-0.32706 -2.34698,-0.92187 -3.08886,-1.326c-0.11075,0.00267 -0.99761,0.03105 -1.12192,0.00718c-0.635,-0.12192 -1.21884,-0.33532 -1.85286,-0.46321c-0.17341,-0.03498 -0.36572,0.04881 -0.53049,-0.01557c-0.25927,-0.10131 -0.43731,-0.35753 -0.69482,-0.46321c-0.12219,-0.05015 -0.26637,0.04123 -0.39594,0.01557c-0.23948,-0.04743 -0.45401,-0.19147 -0.69482,-0.23161c-0.22845,-0.03808 -0.46637,0.03808 -0.69482,0c-0.36107,-0.06018 -0.70889,-0.23136 -1.07489,-0.2249h-0.46321c0,0 -0.51908,0 -0.51908,-0.51908z" fill="#ffea00" stroke-width="0.5"/><path d="M467.36098,277.21651c0.36819,0 0.47522,0.26117 0.50633,0.413c0.13261,0.05725 0.26053,0.12001 0.34902,0.22919c0.14673,0.18103 0.04769,0.49735 0.20651,0.66788c0.12261,0.13165 0.35729,0.05775 0.52642,0.11908c0.18393,0.0667 0.35695,0.16222 0.52511,0.26222c0.57733,0.34331 1.28627,0.91648 1.94318,1.1018c0.24851,0.07011 0.54237,-0.08805 0.77421,0.02563c0.31214,0.15305 0.44973,0.55086 0.75193,0.72268c0.27671,0.15733 0.65064,0.07265 0.92643,0.23161c0.30906,0.17813 0.494,0.51688 0.76816,0.7451c0.35886,0.29872 0.8629,0.402 1.19599,0.7292c0.24787,0.24349 0.2971,0.68287 0.60067,0.85192c0.22766,0.12677 0.53314,0.09835 0.737,0.26065c0.21778,0.17337 0.30881,0.46321 0.46321,0.69482c2.47797,0.705 3.99903,3.17878 5.22183,5.23497c0.79334,1.33403 0.96039,2.95292 1.8432,4.26969c0,0 0.28794,0.4319 -0.14397,0.71984c-0.4319,0.28794 -0.71984,-0.14397 -0.71984,-0.14397c-2.30203,-3.46978 -2.24514,-7.5671 -6.83138,-9.2555c-0.1544,-0.23161 -0.2463,-0.52038 -0.46321,-0.69482c-0.1775,-0.14275 -0.46043,-0.08034 -0.65264,-0.20257c-0.2412,-0.15338 -0.43447,-0.37677 -0.61142,-0.60126c-0.09024,-0.11449 -0.07592,-0.29517 -0.17755,-0.39968c-0.0899,-0.09244 -0.24563,-0.0842 -0.35671,-0.14969c-0.26373,-0.1555 -0.52828,-0.31462 -0.76337,-0.51074c-0.22918,-0.19119 -0.36175,-0.49753 -0.62148,-0.64454c-0.27702,-0.1568 -0.65042,-0.07305 -0.92643,-0.23161c-0.26671,-0.15322 -0.3639,-0.52683 -0.63771,-0.66696c-0.18278,-0.09354 -0.41819,0.08266 -0.61544,0.02563c-0.54604,-0.1579 -1.0432,-0.45913 -1.53092,-0.75106c-0.36658,-0.21942 -0.70381,-0.49509 -1.09614,-0.66421c-0.28446,-0.12263 -0.63884,-0.13057 -0.86322,-0.34413c-0.18497,-0.17604 -0.1138,-0.51014 -0.2567,-0.72176c-0.06001,-0.08886 -0.20214,-0.07162 -0.30321,-0.10743l-0.28694,-0.69589c0,0 0,-0.51908 0.51908,-0.51908z" fill="#ffea00" stroke-width="0.5"/></g></g></g></svg>