<svg version="1.1" xmlns="http://www.w3.org/2000/svg" xmlns:xlink="http://www.w3.org/1999/xlink" width="531.59754" height="148.03974" viewBox="0,0,531.59754,148.03974"><g transform="translate(-54.20123,-105.98013)"><g fill="#000000" stroke="none" stroke-width="0.5" stroke-miterlimit="10"><path d="M152.76832,222.72596c-1.25,0 -1.25,-1.25 -1.25,-1.25c0,-3.07317 0,-7.23171 0,-10.30488c0,-3.05612 -0.01858,-6.11298 0.00004,-9.16902c0.00821,-1.34764 -0.06845,-2.70209 0.07259,-4.04236c0.17405,-1.65406 0.79739,-3.24136 0.95757,-4.89682c0.07639,-0.78952 -0.00487,-1.58641 -0.00581,-2.37961c-0.00099,-0.83333 0,-1.66667 0,-2.5c0,-3.66667 0,-7.33333 0,-11c0,-1.82873 0,-3.65746 0,-5.48619c-1.6343,4.64025 -2.97291,9.41273 -4.80413,13.97612c-2.66681,6.64568 -6.1639,12.72635 -8.66099,19.47411c-1.03112,2.29315 -2.06229,4.58629 -3.09468,6.87887c-0.35008,0.7774 -0.66977,1.56924 -1.05083,2.33193c-0.6648,1.33057 -1.49884,2.57047 -2.19816,3.88323c-0.77854,1.46147 -1.48072,2.96236 -2.22126,4.44345c-1.43638,2.87276 -2.84151,5.75422 -4.21641,8.65684c-0.73014,1.54143 -1.49516,3.07463 -2.41373,4.51176c-0.56012,0.87632 -0.81164,2.12396 -1.74223,2.58836c-0.9076,0.45293 -2.25147,0.43901 -3.03619,-0.20372c-0.67291,-0.55115 -0.30386,-1.716 -0.36684,-2.58353c-0.11756,-1.61927 0.1677,-3.2559 -0.00135,-4.87061c-0.08236,-0.78666 -0.33,-1.54711 -0.49213,-2.32127c-0.17857,-0.85265 -0.35333,-1.70611 -0.52999,-2.55916c-0.02298,-0.87085 -0.04743,-1.74166 -0.06893,-2.61255c-0.01977,-0.80074 0.0268,-1.60551 -0.05486,-2.40232c-0.17043,-1.66302 -0.73365,-3.27069 -0.89589,-4.93453c-0.01348,-0.13825 0.00077,-4.59081 -0.00078,-4.61882c-0.0222,-0.40127 -0.136,-0.79217 -0.20258,-1.1885c-0.27573,-1.64131 -0.53839,-3.28483 -0.82151,-4.92489c-0.42485,-2.4611 -0.87924,-4.91745 -1.31635,-7.3764c-0.14056,-0.79072 -0.22156,-1.59425 -0.42003,-2.37246c-0.20931,-0.82075 -0.60531,-1.58749 -0.80007,-2.41181c-0.14624,-0.61894 -0.14638,-1.26352 -0.21761,-1.8955c-0.18667,-1.65618 -0.36816,-3.31294 -0.55216,-4.96942c-0.35314,-3.17915 -0.82903,-6.33893 -1.27468,-9.50629c-0.13046,-0.38846 -1.45023,-4.31206 -1.52107,-4.55056c-0.40086,-1.3496 -0.66985,-2.73491 -1.00426,-4.10249c-0.01171,-0.04791 -1.19083,-4.86908 -1.19601,-4.89344c-0.17619,-0.82727 -0.33613,-1.65894 -0.45447,-2.49645c-0.08727,-0.61762 -0.0185,-1.25718 -0.16169,-1.86428c-0.02494,-0.10573 -0.21973,-0.18185 -0.30508,-0.11464c-0.21297,0.16772 -0.25279,0.4846 -0.4277,0.69171c-0.30501,0.36118 -0.679,0.6584 -1.00309,1.00256c-0.51812,0.55021 -1.01475,1.12027 -1.52282,1.67977c-0.53942,0.59404 -1.1264,1.14796 -1.61965,1.78086c-0.49738,0.6382 -0.88588,1.35439 -1.34373,2.02152c-0.18228,0.26559 -2.50064,3.49021 -2.52203,3.52534c-0.41675,0.68442 -0.72726,1.42812 -1.09323,2.14098c-0.36035,0.70192 -0.80264,1.36687 -1.0857,2.10336c-0.59443,1.54665 -0.71889,3.24387 -1.27691,4.80403c-0.2923,0.81724 -0.71569,1.58147 -1.07353,2.3722c-1.23477,2.71603 -2.3454,5.48135 -3.58537,8.19512c-0.36854,0.80658 -0.673,1.64611 -1.11025,2.4176c-0.60951,1.07543 -1.7327,1.79834 -2.34781,2.87057c-0.38103,0.66419 -0.52326,1.43929 -0.78895,2.15744c-0.03697,0.09992 -1.76296,4.71687 -1.78431,4.76367c-0.75899,1.6631 -1.64793,2.93055 -2.62979,4.45846c-0.08717,0.13565 -2.705,4.21022 -2.76272,4.28979c-0.73469,1.01286 -1.75988,1.78846 -2.51853,2.7835c-0.51154,0.67093 -0.83667,1.47388 -1.36623,2.13069c-0.55129,0.68377 -1.2387,1.24559 -1.85805,1.86839c0,0 -0.88388,0.88388 -1.76777,0c-0.88388,-0.88388 0,-1.76777 0,-1.76777c0.55916,-0.55572 1.18439,-1.05206 1.67748,-1.66715c0.51476,-0.64211 0.82769,-1.42787 1.3277,-2.08153c0.76081,-0.99461 1.78808,-1.76999 2.5203,-2.78582c0.95459,-1.32434 1.76182,-2.74891 2.64485,-4.12199c0.87527,-1.361 1.78485,-2.66222 2.45757,-4.14273c0.67749,-1.491 1.13937,-3.07088 1.7178,-4.60304c0.31822,-0.84291 0.51378,-1.7444 0.96211,-2.52592c0.44833,-0.78152 1.12674,-1.40626 1.69483,-2.10558c0.22923,-0.28219 0.52017,-0.52124 0.69707,-0.83887c0.37947,-0.68135 0.63754,-1.42356 0.95876,-2.13423c1.22882,-2.71862 2.35098,-5.479 3.58537,-8.19512c0.33183,-0.72654 0.72649,-1.42755 0.99548,-2.17963c0.43492,-1.21599 0.84684,-3.68694 1.29729,-4.85897c0.31486,-0.81924 0.79469,-1.56513 1.19435,-2.34651c0.39272,-0.7678 0.73427,-1.56442 1.18279,-2.30102c0.44928,-0.73785 1.002,-1.40753 1.50362,-2.11085c0.36502,-0.51181 0.74009,-1.01656 1.0963,-1.53454c0.48591,-0.70659 0.90227,-1.46263 1.42977,-2.13874c0.53164,-0.6814 1.15901,-1.28238 1.7392,-1.92295c0.65108,-0.71885 1.80639,-2.04643 2.61004,-2.77068c1.30542,-1.17644 2.41309,-2.68531 4.38918,-0.44731c0.3187,0.36094 1.02021,4.76203 1.17269,5.47797c0.34457,1.61789 0.78638,3.21353 1.1793,4.82036c0.32631,1.33443 0.58624,2.68681 0.97791,4.00354c0.4676,1.57199 1.03665,3.112 1.5521,4.66895c0.47294,3.26546 0.96177,6.52511 1.32626,9.80459c0.1841,1.65647 0.37089,3.31264 0.55216,4.96942c0.05962,0.54494 0.04629,1.10233 0.1747,1.63527c0.19199,0.79685 0.57935,1.53717 0.78107,2.33161c0.21252,0.83699 0.3061,1.69976 0.45835,2.54978c0.44116,2.46294 0.89315,4.92465 1.31879,7.39032c0.00054,0.00314 0.82258,4.93105 0.82387,4.93882c0.07694,0.46434 0.2008,0.92359 0.22812,1.39346c0.08902,1.53098 -0.15076,3.07448 -0.00078,4.60069c0.1625,1.65364 0.72356,3.25123 0.89296,4.90417c0.01567,0.15288 0.11409,4.70677 0.12022,4.98215c0.06017,0.28461 1.00926,4.75606 1.02513,4.90776c0.09118,0.87128 0.01025,1.75205 0.0128,2.62809c0.00231,0.7927 0.08424,1.58989 0.01426,2.37877c0.15479,-0.32541 0.3157,-0.64782 0.48941,-0.96334c0.39202,-0.71207 0.87248,-1.37354 1.25592,-2.09027c1.11408,-2.08245 2.00456,-4.3025 3.03985,-6.4259c1.46418,-3.00306 2.92217,-6.03647 4.49291,-8.98505c0.69133,-1.29776 1.51784,-2.5224 2.17464,-3.83798c0.36363,-0.72835 0.66712,-1.48521 1.00099,-2.22768c1.01943,-2.26703 2.04007,-4.53351 3.06079,-6.79996c2.49086,-6.74314 5.99098,-12.82062 8.65452,-19.45815c2.47642,-6.17124 4.06467,-12.71288 6.67357,-18.81256l0.54044,-1.26102c0.18473,-0.4596 0.63461,-0.78408 1.16028,-0.78408c0.69036,0 1.25,0.55964 1.25,1.25v2.04878c0.14204,0.82114 0,1.66667 0,2.5c0,0.83333 0,1.66667 0,2.5c0,2.26016 0,4.52032 0,6.78049c0,3.07317 0,6.14634 0,9.21951c0,0.15394 0.00185,5.04124 -0.00581,5.12039c-0.16085,1.66238 -0.78489,3.2567 -0.95968,4.91767c-0.13263,1.26042 -0.05126,2.53433 -0.05895,3.80169c-0.0185,3.04905 0.00004,6.09892 0.00004,9.14806c0,3.07317 0,6.14634 0,9.21951v1.08537c0,0 0,1.25 -1.25,1.25z"/><path d="M163.2988,202.01255c0,-1.25 1.25,-1.25 1.25,-1.25h1.02439c0.85105,0 4.76469,-0.03363 5.19958,0.14791c0.61935,0.25853 0.64362,1.22642 1.17735,1.63331c1.37505,1.04825 3.75005,2.11724 5.4173,2.94457c0.81837,0.35035 3.70666,1.57377 3.91697,1.76109c0.59738,0.53209 0.59081,1.51726 1.10395,2.13099c0.41711,0.49889 1.23471,0.57444 1.60497,1.10902c1.00891,1.45664 0.75265,3.35218 0.75671,4.96214c0.0005,0.19849 0.00237,5.0451 -0.00922,5.15151c-0.1634,1.5013 -0.85026,2.90678 -1.08571,4.39848c-0.13247,0.83926 -0.01772,1.70951 -0.18738,2.54204c-0.36299,1.78121 -0.89605,2.68373 -1.65354,4.19435c-0.3562,0.71034 -0.77684,1.39149 -1.07228,2.12918c-0.35498,0.88633 -0.26282,1.99372 -0.87305,2.72803c-0.67044,0.80677 -1.73007,1.23087 -2.71556,1.59027c-1.33034,0.48516 -3.54721,0.44408 -4.98253,0.41857c-0.99313,-0.01765 -2.02494,0.18346 -2.97835,-0.09515c-0.53679,-0.15687 -0.75996,-0.84027 -1.23462,-1.136c-0.46316,-0.28857 -1.01916,-0.39047 -1.52874,-0.5857c-0.86677,-0.36239 -1.84449,-0.52918 -2.6003,-1.08717c-0.7382,-0.54498 -1.14163,-1.43797 -1.75023,-2.12466c-0.60474,-0.68233 -2.79409,-2.70423 -3.14953,-3.20683c-0.49769,-0.70374 -0.68314,-1.58821 -1.12504,-2.32825c-0.47381,-0.79348 -1.32615,-1.37683 -1.61214,-2.25564c-0.08048,-0.2473 -0.0651,-4.93445 -0.06372,-5.39402c0.00268,-0.89878 -0.1159,-1.80718 0.01551,-2.6963c0.11444,-0.77434 0.47265,-1.49247 0.71363,-2.2372c0.7831,-2.42018 0.73183,-2.60646 2.0007,-4.85244c0.30279,-0.53596 0.71738,-1.00303 1.02439,-1.53659c0.40904,-0.71087 0.61561,-1.54413 1.12027,-2.19064c0.25579,-0.32769 3.99993,-3.41496 4.13694,-3.47626c0.6185,-0.27671 1.35377,-0.06604 2.03124,-0.07764c0.83321,-0.01428 1.66667,0 2.5,0c0,0 0.07045,0 0.17789,0.01672c-0.06548,-0.09629 -0.14703,-0.17522 -0.25552,-0.22561c-1.21611,-0.56484 -2.67905,0.14791 -4.01993,0.14791h-1.02439c0,0 -1.25,0 -1.25,-1.25zM170.89558,204.86386c-0.17678,0.95966 -1.22483,0.95966 -1.22483,0.95966c-0.83333,0 -1.66685,0.01766 -2.5,0c-0.38873,-0.00824 -0.81533,-0.24996 -1.16388,-0.07764c-0.61787,0.30547 -1.00093,0.94832 -1.51834,1.40369c-0.49417,0.43493 -1.11377,0.74483 -1.51546,1.26639c-0.43139,0.56012 -0.57974,1.29195 -0.92851,1.90692c-0.30368,0.53546 -0.71912,1.00203 -1.02439,1.53659c-1.16504,2.04013 -1.04783,2.13088 -1.78628,4.37308c-0.20392,0.61918 -0.52735,1.20927 -0.62134,1.85435c-0.11072,0.75989 0.01303,1.53579 0.01551,2.3037c0.00269,0.83333 0.01153,1.66675 0,2.5c-0.00972,0.70225 -0.29046,1.44127 -0.06372,2.10598c0.23986,0.70316 0.99124,1.11723 1.3793,1.75076c0.42035,0.68624 0.56964,1.52353 1.03044,2.18328c0.43751,0.6264 1.08487,1.07622 1.62417,1.61746c0.45132,0.45295 0.92929,0.88155 1.34767,1.3651c0.49027,0.56664 0.77325,1.33084 1.37325,1.77968c0.58248,0.43573 1.36028,0.51596 2.04042,0.77394c0.65845,0.27319 1.36976,0.44349 1.97535,0.81958c0.34635,0.21509 0.42241,0.79983 0.81416,0.91278c0.64822,0.1869 1.34719,-0.0798 2.02165,-0.09515c1.4921,-0.03396 2.71291,0.13441 4.18673,-0.28853c0.55656,-0.15972 1.216,-0.30581 1.5542,-0.77579c0.41646,-0.57873 0.24899,-1.41245 0.50056,-2.07959c0.49545,-1.31391 1.35909,-2.46543 1.8843,-3.76773c0.28115,-0.69712 0.57614,-1.39932 0.71936,-2.13723c0.15567,-0.80206 0.0415,-1.63832 0.17006,-2.44517c0.13674,-0.85819 0.41289,-1.68828 0.62289,-2.53154c0.14777,-0.59339 0.38539,-1.17034 0.45039,-1.77838c0.08321,-0.7784 -0.00773,-1.56565 -0.00922,-2.34849c-0.00158,-0.83333 -0.00226,-1.66667 0,-2.5c0.0021,-0.77324 0.07243,-1.54873 0.01307,-2.31969c-0.03047,-0.39575 -0.02652,-0.85238 -0.28076,-1.15719c-0.37218,-0.44623 -1.09702,-0.4927 -1.4682,-0.93976c-0.46456,-0.55954 -0.41558,-1.46778 -0.94483,-1.96657c-0.5025,-0.47357 -1.29234,-0.4871 -1.93272,-0.74533c-0.44439,-0.1792 -0.88069,-0.37783 -1.32104,-0.56675c-1.60525,-0.80787 -3.88813,-1.84909 -5.41997,-2.89242z"/><path d="M237.7927,184.8845c1.25,0 1.25,1.25 1.25,1.25v1.02439c0,4.06585 -0.55983,7.58208 -1.03324,11.53875c-0.56069,4.68609 -0.2056,9.18492 -1.09019,13.90416c-0.61445,3.27615 -0.94886,6.59181 -1.53793,9.86997c-0.29487,1.64092 -0.75157,3.24993 -1.04857,4.89047c-0.29452,1.62684 -0.47728,3.27196 -0.72569,4.90647c-0.1364,0.89752 -0.12742,1.83128 -0.41873,2.6911c-0.08692,0.25656 -2.30456,4.15669 -2.49007,4.52898c-0.36748,0.73745 -1.99039,4.73056 -2.46834,5.05967c-2.14065,1.47405 -3.20808,-0.34618 -4.25447,-1.53937c-0.53944,-0.61512 -1.02446,-1.27697 -1.57085,-1.88592c-0.28698,-0.31984 -3.24216,-3.33135 -3.48658,-3.6132c-0.56053,-0.64636 -1.05176,-1.3497 -1.57718,-2.02491c-0.94248,-1.21116 -1.85962,-2.44336 -2.72843,-3.70841c-0.46442,-0.67694 -0.90875,-1.36811 -1.39326,-2.03083c-0.2048,-0.28013 -2.94066,-3.75937 -3.09923,-3.98894c-0.78228,-1.13258 -1.29959,-2.43063 -2.04878,-3.58537c-0.28869,-0.44496 -0.65344,-0.83568 -0.97941,-1.25411c-0.51212,-0.6574 -1.02323,-1.31559 -1.53485,-1.97338c-1.54145,-1.98186 -3.17563,-3.92601 -4.63868,-5.96616c-0.8521,-1.18821 -1.57761,-2.46227 -2.36587,-3.69376c-2.70103,-4.21981 -5.31129,-8.49103 -7.92382,-12.76608c0,0 -0.65181,-1.0666 0.41479,-1.71841c1.0666,-0.65181 1.71841,0.41479 1.71841,0.41479c2.60348,4.26025 5.20454,8.51676 7.89621,12.72195c0.76767,1.19933 1.47162,2.44183 2.3019,3.59869c1.44162,2.00866 3.05237,3.92234 4.57043,5.87413c0.87353,1.12311 1.84227,2.17856 2.6181,3.37125c0.75056,1.15385 1.26504,2.45379 2.04878,3.58537c0.9392,1.35604 2.06666,2.57297 3.04018,3.90458c0.49914,0.68273 0.95751,1.39435 1.43626,2.09153c0.84007,1.22463 1.72918,2.41585 2.64064,3.58832c0.49781,0.64038 0.96111,1.30907 1.49252,1.92185c1.08733,1.25383 2.35027,2.34624 3.45863,3.58152c0.56667,0.63156 1.10811,1.28618 1.63047,1.95486c0.23748,0.304 0.38362,0.67756 0.64649,0.9599c0.07631,0.08196 0.27288,0.18285 0.32531,0.0839c0.28557,-0.53904 0.33228,-1.17588 0.55422,-1.74409c0.30987,-0.79332 0.65897,-1.57206 1.03882,-2.33435c0.37985,-0.76229 0.82215,-1.49184 1.23813,-2.23504c0.37065,-0.66222 0.87822,-1.2624 1.12173,-1.98116c0.24352,-0.71876 0.20551,-1.50382 0.31348,-2.255c0.00664,-0.0462 0.73508,-4.9656 0.73872,-4.98572c0.2968,-1.63948 0.75332,-3.24742 1.04799,-4.88728c0.59015,-3.28417 0.9264,-6.60596 1.54132,-9.88839c0.87467,-4.66637 0.50991,-9.10048 1.0651,-13.74058c0.46419,-3.87955 1.01554,-7.25179 1.01554,-11.24174v-1.02439c0,0 0,-1.25 1.25,-1.25z"/><path d="M273.35977,225.06133c0,1.25 -1.25,1.25 -1.25,1.25l-0.47841,-0.12554c-3.10996,1.46377 -5.93739,1.14993 -9.31427,1.14993c-0.05396,0 -4.17866,0.03881 -4.51164,-0.09379c-1.06552,-0.42431 -4.45099,-3.0572 -5.11614,-3.96745c-0.46261,-0.63307 -1.41153,-3.98006 -1.81918,-4.78592c-0.40866,-0.80786 -1.19609,-1.42127 -1.46892,-2.28452c-1.03119,-3.26276 -0.05881,-8.39325 -0.04379,-11.84725c0.00252,-0.57673 -0.00609,-5.00102 0.11978,-5.39157c0.25456,-0.78983 1.20942,-1.22197 1.46836,-2.01037c0.24265,-0.73879 -0.17633,-1.56655 -0.04199,-2.33247c0.14964,-0.85319 0.58223,-1.63167 0.87995,-2.44511c0.30322,-0.82845 0.51997,-1.69566 0.92286,-2.48049c0.72374,-1.40985 1.99936,-3.05067 3.27143,-4.03781c0.65617,-0.5092 1.42527,-0.85324 2.13977,-1.27672c0.74769,-0.44315 1.46313,-0.94724 2.24677,-1.32315c0.79427,-0.38101 1.63713,-0.65297 2.47014,-0.93953c0.85908,-0.29553 1.70584,-0.66676 2.60362,-0.80589c0.88621,-0.13733 1.79354,-0.01218 2.69033,-0.01451c0.94437,-0.00245 4.13899,-0.01082 5.069,0.04911c0.94584,0.06094 1.93466,-0.01874 2.82766,0.29889c1.59706,0.56805 3.80219,2.47437 4.43493,4.07357c0.30959,0.78248 0.05866,1.6821 0.07046,2.52351c0.01238,0.88243 -0.00661,3.75907 -0.01165,4.71906c-0.13193,0.48504 -0.26022,0.97109 -0.39579,1.45513c-0.21,0.74981 -0.52933,1.47572 -0.6409,2.24634c-0.13019,0.89921 0.21414,1.86455 -0.07879,2.72461c-0.29713,0.87239 -1.12123,1.46602 -1.61382,2.24493c-0.23318,0.36871 -0.36867,0.79081 -0.55539,1.18509c-0.36958,0.78042 -0.68568,1.58892 -1.11351,2.33899c-0.44817,0.78573 -0.94119,1.55111 -1.50761,2.25637c-0.4375,0.54474 -1.08317,0.90641 -1.48921,1.47499c-0.45715,0.64015 -0.58627,1.48228 -1.06719,2.10476c-0.40312,0.52178 -1.01571,0.8411 -1.52875,1.2553c-1.28419,1.03678 -2.62309,2.00696 -3.8735,3.08424c-0.65215,0.56186 -1.20457,1.23974 -1.89288,1.75666c-0.70699,0.53095 -1.50398,0.93071 -2.27104,1.37044c-0.77752,0.44572 -1.51062,1.004 -2.36157,1.28524c-2.00574,0.6629 -4.30876,0.42392 -6.38984,0.41866c1.03467,2.05717 2.61406,3.74954 5.01651,4.76443c1.25017,0.52812 4.24262,-0.09379 5.67129,-0.09379c2.42257,0 3.91797,0.20879 6.11256,-0.89885l1.57037,-0.12554c0,0 1.25,0 1.25,1.25zM252.85712,217.93772c0.3606,-0.27274 0.81363,-0.27274 0.81363,-0.27274c1.16559,0 2.33401,0.08446 3.49675,0.00314c0.7266,-0.05081 1.47533,-0.05912 2.16558,-0.29168c0.69275,-0.23339 1.27631,-0.71327 1.90819,-1.08082c0.6764,-0.39345 1.39196,-0.73048 2.01642,-1.20204c0.6431,-0.48564 1.15408,-1.12652 1.76424,-1.65295c0.01637,-0.01412 3.90641,-3.11337 3.94832,-3.14626c0.37748,-0.29611 0.8581,-0.4882 1.14386,-0.87358c0.44105,-0.5948 0.55114,-1.39029 0.98159,-1.9928c0.43602,-0.61029 1.11054,-1.01642 1.58396,-1.59818c0.48103,-0.59111 0.8923,-1.23962 1.26589,-1.90388c0.64844,-1.15296 0.98164,-2.47577 1.70394,-3.58396c0.40706,-0.62454 1.14817,-1.0486 1.38618,-1.75507c0.24214,-0.71875 -0.13394,-1.52407 -0.02846,-2.27513c0.04161,-0.2963 0.79809,-2.87541 1.03494,-3.68902c-0.00618,-0.99639 -0.02581,-3.53526 -0.01165,-4.3785c0.0095,-0.56574 0.26526,-1.16477 0.07046,-1.696c-0.30212,-0.82393 -2.12704,-2.28476 -2.89216,-2.53811c-0.68258,-0.22602 -1.43243,-0.1329 -2.15071,-0.16575c-1.36575,-0.06247 -3.56912,-0.04083 -4.93015,-0.04522c-0.7699,-0.00248 -1.54857,-0.13066 -2.30967,-0.01457c-0.74953,0.11433 -1.4494,0.44695 -2.16513,0.69712c-0.74174,0.25926 -1.49803,0.48986 -2.20599,0.83071c-0.71858,0.34596 -1.37016,0.81662 -2.05711,1.22175c-0.62543,0.36885 -1.30171,0.66116 -1.88003,1.10021c-0.94974,0.72103 -2.05843,2.16794 -2.57524,3.19561c-0.35245,0.70084 -0.53243,1.47587 -0.80534,2.21135c-0.25045,0.67496 -0.64259,1.31038 -0.76469,2.01987c-0.15083,0.8764 0.23127,1.82127 -0.04199,2.66753c-0.25714,0.79634 -1.19831,1.24162 -1.47527,2.03129c-0.23344,0.66559 0.01921,1.41058 0.02072,2.11592c0.00179,0.83057 -0.00721,1.66112 -0.01081,2.49168c-0.01753,4.02791 -0.31784,9.26298 0.99972,13.57005z"/><path d="M362.2561,220.16499c-1.25,0 -1.25,-1.25 -1.25,-1.25l0.08176,-1.60412c-1.89986,-2.00954 -2.56161,-5.55692 -3.56908,-8.15448c-1.00522,-2.59177 -3.12496,-4.24623 -4.53829,-6.52588c-1.96094,-3.16293 -3.20915,-7.21816 -4.69682,-10.63142c-0.91266,-2.09398 -1.94717,-3.7676 -3.3716,-5.56881c-0.25147,-0.31799 -0.65822,-0.54829 -0.93739,-0.84293c-1.44106,2.21077 -2.72849,4.38523 -3.9401,6.7919c-0.20643,0.71985 -0.49312,1.42139 -0.61929,2.15955c-0.13662,0.79929 0.072,1.65149 -0.16469,2.42706c-0.42059,1.37815 -1.91898,3.08396 -2.45537,4.45346c-0.21366,0.54552 -0.21694,1.1515 -0.32972,1.72642c-0.01163,0.0593 -0.98419,4.92575 -0.99071,4.95253c-0.18743,0.76995 -0.47019,1.51433 -0.66372,2.28277c-0.24894,0.9885 0.29871,2.64742 -0.66301,2.98535c-4.23186,1.48702 -3.0365,-3.14658 -3.32805,-4.40812c-0.15907,-0.68828 -0.71793,-1.22397 -0.9728,-1.88282c-0.02822,-0.07296 -1.36488,-4.75754 -1.39891,-4.87667c-0.6727,-2.35499 -1.46884,-4.65023 -2.21397,-6.98216c-0.18619,-0.58271 -1.01338,-3.50251 -1.07686,-3.66222c-0.33707,-0.84795 -1.85735,-3.50048 -2.28358,-4.26199c-0.39258,-0.70345 -0.73839,-1.43511 -1.17773,-2.11034c-0.43934,-0.67523 -1.02427,-1.24924 -1.45226,-1.93172c-0.29685,-0.47336 -0.33172,-1.10769 -0.71104,-1.51794c-0.12028,-0.13009 -0.2329,0.28531 -0.26813,0.45895c-0.08265,0.40742 0.03726,0.84517 -0.07749,1.24473c-0.24552,0.85492 -0.64839,1.65674 -0.99146,2.47739c-0.63709,1.52398 -1.401,2.99523 -1.98662,4.53973c-0.28809,0.75981 -0.49836,1.54689 -0.74827,2.3201c-0.24994,0.7733 -0.53997,1.53469 -0.7513,2.31943c-0.4262,1.58263 -0.7202,3.19828 -1.04048,4.8057c-0.03217,0.16143 -0.87978,4.8607 -0.90488,4.96693c-0.17264,0.73082 -0.42992,1.43902 -0.64546,2.15836c-0.48437,1.61649 -1.01156,3.22071 -1.5786,4.81008c-0.08877,0.24882 -1.73054,4.87656 -1.80142,4.95732c-0.06059,0.06902 -0.12328,0.13567 -0.18785,0.20019l0.01539,0.01539l-1.76777,1.76777l-0.34761,-0.34761c-0.34602,0.1973 -0.68982,0.39712 -1.01436,0.61869l-0.27707,-1.15461l-0.49484,0.00023c0,-0.00002 0,-0.00005 0,-0.00007l-0.00096,-2.07031c-0.00524,-0.20064 -0.10036,-4.35004 -0.19131,-4.6294c-0.26222,-0.80545 -1.05264,-1.37382 -1.29835,-2.18446c-0.64321,-2.12205 0.16259,-4.92553 -0.09999,-7.13022c-0.80853,-6.78852 -3.01914,-12.90196 -3.01914,-19.83976c0,0 0,-1.25 1.25,-1.25c1.25,0 1.25,1.25 1.25,1.25c0,6.82559 2.20783,12.85724 3.00165,19.54461c0.23384,1.96996 -0.59352,4.89218 0.02556,6.75369c0.25865,0.77774 1.03331,1.31956 1.27413,2.103c0.14228,0.46287 0.21834,2.16553 0.26095,3.55822c0.41982,-1.19927 0.96278,-2.70689 1.06844,-3.00289c0.55292,-1.54901 1.06547,-3.11298 1.5386,-4.68819c0.20265,-0.67469 0.44732,-1.33807 0.60913,-2.0237c0.18607,-0.78844 0.2882,-1.59435 0.43283,-2.39144c0.30002,-1.65345 0.62864,-3.30195 0.98512,-4.94415c0.18116,-0.83454 0.32225,-1.67884 0.54431,-2.50344c0.66698,-2.47675 1.57645,-4.87896 2.60107,-7.224c0.2472,-0.56578 1.67621,-3.78212 1.87662,-4.43279c0.19273,-0.62572 -0.06258,-1.44217 0.37662,-1.92773c0.72095,-0.79707 1.74641,-1.77526 2.80504,-1.58983c1.10858,0.19417 1.56347,1.62163 2.28896,2.48206c1.54364,1.83076 1.64645,2.24424 2.81165,4.32124c0.55081,0.98455 2.01437,3.52909 2.42462,4.55807c0.17334,0.43477 0.87323,3.00544 1.13915,3.83734c0.75199,2.35255 1.55383,4.66906 2.23281,7.04497c0.22898,0.80126 0.45876,1.60229 0.6868,2.40381c0.21363,0.75087 0.3586,1.52449 0.63824,2.25336c0.20488,0.53402 0.56149,1.00994 0.81827,1.52075c0.01875,-0.06132 0.03549,-0.12152 0.04971,-0.18045c0.19151,-0.79367 0.31913,-1.60141 0.47896,-2.40206c0.16313,-0.81721 0.32396,-1.63489 0.48989,-2.45153c0.14226,-0.70016 0.17639,-1.43271 0.43468,-2.09886c0.32451,-0.83693 0.85614,-1.57806 1.2947,-2.36128c0.36184,-0.64622 0.89601,-1.2167 1.10636,-1.92683c0.20363,-0.68741 -0.02501,-1.44264 0.10083,-2.14844c0.16109,-0.90356 0.50288,-1.76538 0.75432,-2.64807c1.54332,-3.09883 3.20646,-5.83481 5.14793,-8.69427l0.10817,-0.06068l-0.02779,-0.02779l1.02439,-1.02439c0.22621,-0.22621 0.53871,-0.36612 0.88388,-0.36612c0.69036,0 1.25,0.55964 1.25,1.25v0.91794c0.92316,1.79978 2.24863,2.99042 3.42241,5.12348c2.20747,4.01154 3.17931,8.83202 5.5914,12.72264c1.18721,1.91494 2.70109,3.32114 3.84232,5.32296c1.76619,3.09804 2.20354,7.09866 4.47673,9.78539l0.08176,2.49344c0,0 0,1.25 -1.25,1.25z"/><path d="M416.2622,209.69547c0,1.25 -1.25,1.25 -1.25,1.25h-1.02439c-2.21203,0 -4.4489,0.09723 -6.65854,0c-0.73318,-0.03226 -1.59211,0.23359 -2.19375,-0.18669c-0.68674,-0.47972 -0.65565,-1.57778 -1.21929,-2.19749c-0.31008,-0.34093 -0.98598,-0.18034 -1.27203,-0.54168c-0.46145,-0.5829 -0.89126,-1.23463 -1.29188,-1.92875c-0.35762,-0.08992 -0.71397,-0.18772 -1.07327,-0.26698c-1.55536,-0.34313 -3.11062,-0.68675 -4.66586,-1.0304c-0.76987,-0.17011 -1.52487,-0.43006 -2.30885,-0.51383c-0.82919,-0.0886 -1.67237,0.08689 -2.50172,-0.00019c-1.18637,-0.12456 -3.42845,-0.88084 -4.60976,-1.02439c-0.63281,-0.0769 -1.27492,0.00498 -1.91238,0.00746c0,0 -1.25,0 -1.25,-1.25c0,-1.25 1.25,-1.25 1.25,-1.25c0.72839,0.00249 1.46198,-0.07945 2.18518,0.00746c1.56282,0.18782 3.04372,0.86561 4.60976,1.02439c0.82851,0.084 1.6705,-0.09109 2.49828,-0.00019c0.87298,0.09587 1.71695,0.37044 2.57507,0.55732c1.17673,0.25626 2.52385,0.55302 3.76376,0.829c-0.58511,-1.35665 -1.08745,-2.73713 -1.5209,-3.99105c-0.54288,-1.57185 -1.15777,-3.1181 -1.70762,-4.68753c-0.72558,-2.07102 -1.35742,-3.47539 -0.75349,-5.77264c0.12278,-0.46703 0.83135,-0.58175 1.02439,-1.02439c0.26087,-0.59816 -0.24411,-1.53497 0.26813,-1.93927c0.53076,-0.41891 4.38722,-0.40951 5.07337,-0.47914c0.83775,-0.08501 1.65515,-0.33182 2.49459,-0.39807c0.86373,-0.06817 1.73283,-0.00328 2.59924,-0.00395c1.53658,-0.00119 3.07317,-0.00009 4.60976,0c0.71669,0.00004 4.33841,-0.04052 5.0506,0.12369c1.36083,0.31376 3.67308,1.29731 4.47536,2.66061c1.06774,1.8144 0.87643,3.21028 0.88258,5.12424c0.00725,2.25575 -0.03993,4.48058 -0.14791,6.73616c-0.5122,0.34146 -1.25863,0.47513 -1.53659,1.02439c-0.2762,0.54579 0.28549,1.253 0.09068,1.83285c-0.49994,1.48802 -2.54209,3.41084 -3.93996,3.88788c-0.91096,0.31087 -1.9245,0.04958 -2.88696,0.0614c-1.53647,0.01888 -3.07317,0 -4.60976,0c-1.38618,0 -2.77236,0.00201 -4.15854,0c-0.2326,-0.00034 -0.46553,0.00532 -0.69853,0.01215c0.31292,0.19848 0.85021,0.09342 1.09937,0.38422c0.44964,0.5248 0.34147,1.41076 0.82949,1.90007c0.21162,0.21218 0.58036,-0.16762 0.87942,-0.18669c2.19887,-0.14019 4.45465,0 6.65854,0h1.02439c0,0 1.25,0 1.25,1.25zM402.926,203.84995c0.76085,0.06873 1.52912,-0.01306 2.29352,-0.01423c0,0 3.69197,0 4.15854,0c1.53659,0 3.07333,-0.02234 4.60976,0c0.70457,0.01025 1.43851,0.2652 2.11304,0.0614c0.47421,-0.14328 2.14442,-1.57426 2.32834,-2.25846c0.19612,-0.72961 -0.24434,-1.58755 0.09068,-2.26471c0.27297,-0.55175 1.02439,-0.68293 1.53659,-1.02439c-0.14395,-1.85912 -0.15451,-3.69275 -0.14791,-5.55652c0.0047,-1.3265 0.18388,-2.53813 -0.49103,-3.78094c-0.19718,-0.36309 -0.59485,-0.58979 -0.9585,-0.78595c-1.78957,-0.96533 -2.00718,-0.81215 -3.98519,-0.84192c-2.35953,-0.03552 -4.72376,0.00217 -7.08358,0.00027c-0.80025,-0.00064 -1.60308,-0.06808 -2.40076,-0.00395c-0.82196,0.06609 -1.62186,0.31121 -2.44237,0.39336c-0.86079,0.08618 -1.7299,0.1706 -2.59292,0.11077c-0.33987,-0.02356 -0.73156,-0.61175 -0.95771,-0.35694c-0.25781,0.29048 0.39657,0.76736 0.26813,1.1339c-0.15969,0.45573 -0.87241,0.56603 -1.02439,1.02439c-0.36459,1.09956 0.48006,3.09096 0.79988,3.97994c0.56529,1.57132 1.16914,3.12887 1.71451,4.70721c0.57922,1.67778 1.28285,3.70338 2.17139,5.47677z"/><path d="M473.91463,224.77474c-1.25,0 -1.25,-1.25 -1.25,-1.25v-1.02439c0.03566,-1.12148 -0.66966,-2.14224 -0.97076,-3.22314c-0.32389,-1.16274 0.13563,-2.46296 -0.22816,-3.61385c-0.47128,-1.49093 -1.5835,-2.69742 -2.3293,-4.07174c-1.12992,-2.08215 -1.4071,-4.44531 -2.31897,-6.59936c-1.73224,-4.09197 -5.52181,-8.20609 -8.64035,-11.31535c-1.53161,-1.53161 -3.09145,-3.03991 -4.59689,-4.59708c-0.23553,-0.24363 -0.347,-0.67799 -0.67596,-0.75931c-0.66023,-0.1632 -1.35831,0.08202 -2.03838,0.08836c-0.56244,0.00524 -1.13223,-0.14901 -1.68655,-0.05363c-0.3183,0.05477 -0.71737,0.18791 -0.83715,0.48785c-0.24756,0.61993 -0.0005,1.34717 -0.15496,1.99658c-0.19343,0.81324 -0.66833,1.53978 -0.87862,2.34883c-0.19089,0.7344 -0.26131,1.49742 -0.31781,2.25411c-0.10101,1.35288 0.00314,2.71328 0.00314,4.06992c0,3.11473 -0.05997,6.21923 0.15882,9.32715c0.00402,0.05713 0.3516,5.00267 0.35261,5.03147c0.02972,0.84742 0.16585,1.7121 0.00077,2.54382v2.5c0,0.69036 -0.55964,1.25 -1.25,1.25c-0.69036,0 -1.25,-0.55964 -1.25,-1.25v-1.68417c-2.49493,-2.83808 -0.63005,-9.38922 -1.01426,-13.0107c-0.39862,-3.75725 -1.76723,-7.61289 -2.85446,-11.22005c-0.70838,-2.35023 -0.51926,-4.16812 -1.63346,-6.30654c0,0 -0.55902,-1.11803 0.55902,-1.67705c1.11803,-0.55902 1.67705,0.55902 1.67705,0.55902c1.15964,2.3965 1.01843,4.19471 1.78893,6.6962c0.31314,1.01662 0.64265,2.05396 0.96494,3.10404c0.02198,-0.85906 0.10727,-1.67118 0.39249,-2.80595c0.2025,-0.80568 0.66271,-1.53043 0.87479,-2.33364c0.23411,-0.88661 -0.03128,-1.93691 0.45769,-2.71267c1.21283,-1.92417 2.81505,-1.6264 4.64703,-1.61456c0.98763,0.00638 2.01805,-0.20338 2.96162,0.08836c0.62867,0.19437 1.01465,0.83947 1.49477,1.28947c1.58679,1.48725 3.08445,3.08427 4.62262,4.62243c3.34286,3.35211 7.30487,7.71715 9.17371,12.10596c0.87476,2.0543 1.12419,4.40203 2.21173,6.37782c0.84412,1.53356 2.02066,2.92416 2.54247,4.5951c0.35484,1.13626 -0.12197,2.4227 0.21384,3.56473c0.38481,1.30865 1.04769,2.58388 1.07803,3.9476v1.02439c0,0 0,1.25 -1.25,1.25z"/><path d="M562.74999,143.11011c0,1.25 -1.25,1.25 -1.25,1.25l-2.41101,-0.05363c-1.06335,-0.7089 -2.47026,-0.66132 -3.68476,-1.05912c-0.47277,-0.15485 -0.60882,-0.88159 -1.08537,-1.02439c-3.0079,-0.90132 -7.97356,0.08955 -11.16258,0.08472c-2.16488,0.33797 -4.3535,0.60185 -6.50697,1.00341c-2.07053,0.38609 -4.08101,1.11013 -6.14402,1.53611c-0.3481,0.07188 -0.69755,0.13743 -1.04799,0.1984c0,1.64345 0,3.2869 0,4.93035c0,8.70732 0,17.41463 0,26.12195c0,3.30488 0,6.60976 0,9.91463c0,0.83333 0.00063,1.66667 0,2.5c-0.00041,0.54363 -0.04912,1.08921 -0.00314,1.6309c0.20364,2.39934 0.86257,4.7679 1.02439,7.17073c0.05798,0.86092 0.0021,1.72574 0.00314,2.58861c0,5.0341 0.88602,9.78414 1.01004,14.7525c0.01435,0.09852 0.01435,0.16213 0.01435,0.16213l-0.01049,0.00404c0.00685,0.31883 0.01049,0.63857 0.01049,0.95937l-1.25,-0.48171l-1.25,0.48171c0,-5.37111 -1.02439,-10.46533 -1.02439,-15.87805c0.00105,-0.8038 0.05692,-1.60939 0.00314,-2.41139c-0.04806,-0.7167 -0.2058,-1.4218 -0.30786,-2.13282c-0.01781,-0.12409 -0.7107,-4.96836 -0.71653,-5.03791c-0.11986,-1.43103 -0.00314,-2.87208 -0.00314,-4.30812c0,-3.30488 0,-6.60976 0,-9.91463c0,-8.70732 0,-17.41463 0,-26.12195c0,-1.51722 0,-3.03444 0,-4.55166c-1.19301,0.16537 -2.38714,0.3251 -3.56793,0.54604c-1.63344,0.30563 -3.24236,0.73188 -4.87212,1.05661c-1.61692,0.32217 -3.26425,0.49495 -4.86669,0.88275c-1.53552,0.37161 -3.01809,0.93532 -4.52746,1.4019c-2.39825,0.74136 -4.79285,1.48144 -7.20655,2.17114c0,0 -1.2019,0.3434 -1.54531,-0.8585c-0.3434,-1.2019 0.8585,-1.54531 0.8585,-1.54531c2.3965,-0.68464 4.77388,-1.41975 7.15501,-2.15582c1.5571,-0.48134 3.08794,-1.05828 4.67196,-1.44186c0.10247,-0.02482 4.81104,-0.87403 4.97201,-0.90611c0.16435,-0.03275 4.76989,-1.03765 4.90085,-1.06216c1.33225,-0.24927 2.682,-0.4197 4.02772,-0.60897c0,-0.14269 0,-0.28537 0,-0.42806c0,-1.63219 0.09373,-3.26684 0.00429,-4.89658c-0.02169,-0.39523 -0.13432,-0.78018 -0.20005,-1.17051c-0.13838,-0.82176 -0.27492,-1.64384 -0.41227,-2.46577c-0.13551,-0.81093 -0.24905,-1.62583 -0.4063,-2.43283c-0.47856,-2.4559 -1.17606,-4.87124 -1.63316,-7.3312c-0.45732,-2.46117 -0.68328,-4.96629 -1.11018,-7.43298c-0.14046,-0.81162 -0.3213,-1.61573 -0.478,-2.42437c-0.1462,-0.75446 -0.16661,-1.54321 -0.43072,-2.2649c-0.2641,-0.72169 -0.7576,-1.33732 -1.13294,-2.00792c-0.40701,-0.72718 -0.8094,-1.45693 -1.21411,-2.18539c0,0 -0.60705,-1.0927 0.48564,-1.69975c1.0927,-0.60705 1.69975,0.48564 1.69975,0.48564c0.11779,0.21202 2.46534,4.42792 2.50938,4.54826c0.30868,0.84349 0.35969,1.76003 0.53583,2.64079c0.65558,3.27806 0.98321,6.60074 1.59326,9.88391c0.45573,2.45264 1.15192,4.86107 1.62908,7.30976c0.16152,0.8289 0.27889,1.6658 0.41823,2.49872c0.1375,0.82191 0.27575,1.6437 0.41227,2.46577c0.07614,0.45849 0.19889,0.91193 0.2257,1.37593c0.00566,0.09789 0.00429,4.94184 0.00429,5.10342c0,0.00991 0,0.01982 0,0.02973c0.18354,-0.0345 0.36675,-0.07051 0.54957,-0.10829c2.06502,-0.42671 4.07605,-1.14876 6.14866,-1.53706c2.25262,-0.42202 4.54388,-0.70133 6.81011,-1.04537c3.67016,-0.00515 8.74283,-0.88687 12.27645,0.08472c0.47968,0.13189 0.6124,0.87015 1.08537,1.02439c1.14839,0.3745 2.48093,0.31964 3.48597,0.98966l1.68655,-0.05363c0,0 1.25,0 1.25,1.25z"/><path d="M585.79877,229.67108c0,1.25 -1.25,1.25 -1.25,1.25h-2.10976c-2.00872,-0.0228 -3.87449,1.06874 -5.83403,1.51106c-2.05163,0.46311 -4.53392,-0.06456 -6.63568,0.2307c-2.46869,0.3468 -4.82728,1.42551 -7.27154,1.83153c-2.17174,0.36075 -4.50777,-0.22047 -6.69552,0.00462c-4.73339,0.48699 -9.6077,2.11714 -14.27653,3.08311c-5.48627,1.13509 -10.97635,2.24134 -16.4355,3.50092c-2.25951,0.52133 -4.48322,1.21022 -6.74314,1.7181c-2.34803,0.52767 -4.7397,0.85444 -7.09155,1.37714c-2.05619,0.45699 -4.08575,0.9552 -6.12945,1.46502c-0.83455,0.20819 -1.6609,0.45281 -2.50395,0.62332c-1.27691,0.25827 -2.58763,0.30491 -3.88159,0.45609c-1.67946,0.19621 -3.359,0.3917 -5.03862,0.58653c-0.82801,-0.00034 -1.65785,-0.05594 -2.48404,-0.00103c-0.71673,0.04763 -1.4218,0.2058 -2.13282,0.30786c-0.11518,0.01653 -4.95687,0.70879 -5.02516,0.71555c-2.09247,0.20708 -4.23396,-0.08236 -6.32532,0.12781c-1.66247,0.16707 -3.2687,0.7356 -4.93186,0.89562c-0.76148,0.07326 -1.52999,0.00477 -2.29498,0.00585c-0.83333,0.00117 -1.66667,0.00172 -2.5,0.00089c-0.79057,-0.00079 -1.58534,-0.08718 -2.37171,-0.00576c-0.78637,0.08142 -1.54658,0.32881 -2.32021,0.49156c-0.15829,0.0333 -4.93927,1.034 -5.02145,1.04249c-0.0844,0.00872 -4.96464,0.00662 -5.12852,0.00662c-1.61186,0 -3.22372,0.00634 -4.83554,0.01697c-0.80391,0.0053 -1.61025,-0.04818 -2.41173,0.01437c-0.80149,0.06255 -1.58984,0.23999 -2.38476,0.35999c-3.31111,0.49545 -6.61908,0.94514 -9.94287,1.34709c-0.85227,0.10307 -1.70004,0.25627 -2.55696,0.30809c-0.85692,0.05182 -1.71697,0.00189 -2.57545,0.00228c-1.66667,0.00075 -3.33333,0.00134 -5,0c-0.80025,-0.00064 -1.60184,-0.05015 -2.40076,-0.00395c-0.45677,0.02642 -0.90297,0.14828 -1.35466,0.22116c-0.1246,0.02011 -4.97184,0.79816 -5.03558,0.80323c-0.86368,0.06879 -1.73283,0.00328 -2.59924,0.00395c-1.66667,0.00129 -3.33333,0 -5,0c-4.69106,0 -9.38211,0 -14.07317,0c-5.70325,0 -11.4065,0 -17.10976,0c-2.2398,0 -4.47973,0.00695 -6.71951,0c-0.90009,-0.00279 -1.81114,0.12418 -2.70023,-0.01614c-0.8427,-0.133 -1.62295,-0.52667 -2.4331,-0.79402c-1.36864,-0.45165 -2.74872,-0.87544 -4.1489,-1.21695c-0.76715,-0.18711 -1.51789,-0.46034 -2.30057,-0.5649c-1.63224,-0.21804 -3.29758,0.00677 -4.93845,-0.1321c-0.82462,-0.06979 -1.6326,-0.28702 -2.4576,-0.35221c-0.65136,-0.05147 -1.30678,0.0026 -1.96017,0.00314c-1.42683,0.0012 -2.85366,0 -4.28049,0c-3.7561,0 -7.51219,0 -11.26829,0c-2.47637,0 -4.97048,-0.07863 -7.44551,-0.00119c-1.28866,0.04032 -2.56867,0.2258 -3.85305,0.33811c-2.4905,0.21777 -4.98094,0.43615 -7.47149,0.65332c-0.81194,0.0708 -1.62786,0.10518 -2.43588,0.21178c-1.6499,0.21768 -3.26759,0.64275 -4.91617,0.87021c-0.03125,0.00431 -4.96066,0.49404 -5.02268,0.5002c-0.08038,0.00799 -4.99623,0.49717 -5.03723,0.4992c-0.85292,0.04229 -1.70793,0.00102 -2.5619,0.00153c-16.90244,0 -33.80488,0 -50.70731,0c-16.28049,0 -32.56097,0 -48.84146,0c-11.47833,0 -22.95666,0.00188 -34.435,-0.0014c-2.50107,-0.00071 -5.00208,-0.00772 -7.50314,-0.01479c-1.67436,-0.00473 -3.34883,-0.02156 -5.02274,-0.061c-0.88785,-0.02092 -1.78572,0.06753 -2.66341,-0.06805c-0.87768,-0.13558 -1.70653,-0.49252 -2.5598,-0.73879c-0.74172,-0.22174 -1.45886,-0.55527 -2.22517,-0.66523c-0.76631,-0.10996 -1.54829,0.01064 -2.32245,0.01267c-0.83333,0.00219 -1.66667,0 -2.5,0c-3.12492,0 -6.24472,-0.03225 -9.36896,-0.09818c-0.85733,-0.01809 -1.7171,0.01216 -2.57196,-0.05531c-0.85486,-0.06747 -1.69925,-0.23222 -2.5488,-0.34885c-0.03149,-0.00432 -4.96209,-0.68322 -4.97755,-0.68566c-1.61819,-0.2553 -3.20592,-0.72156 -4.83778,-0.86564c-2.06754,-0.18254 -2.91852,0.21576 -5.02646,-0.00262c-0.78202,-0.08102 -1.53632,-0.33494 -2.30406,-0.50437c-3.77034,-0.83207 -7.47057,-1.93007 -11.21948,-2.85245c-0.83079,-0.20505 -1.67361,-0.36635 -2.49236,-0.61516c-0.81875,-0.24881 -1.60894,-0.58338 -2.41321,-0.87561c-2.03728,-0.74023 -4.11023,-1.49998 -6.06443,-2.44653c-1.26979,-0.61504 -2.43472,-1.42771 -3.67743,-2.09576c-0.73193,-0.39346 -1.49056,-0.73564 -2.22465,-1.12506c-0.01046,-0.00555 -4.38038,-2.43317 -4.39966,-2.44402c-1.24183,-0.69902 -2.51663,-1.34617 -3.70689,-2.12978c-0.67488,-0.44431 -1.24933,-1.03254 -1.935,-1.46c-0.36896,-0.23002 -0.80567,-0.32733 -1.2056,-0.49791c-0.69064,-0.29457 -1.33004,-0.74877 -2.066,-0.8975c-0.73596,-0.14874 -1.50156,0.02051 -2.25239,0.02477c-1.53656,0.00873 -3.07317,0 -4.60976,0c0,0 -1.25,0 -1.25,-1.25c0,-1.25 1.25,-1.25 1.25,-1.25c1.53659,0 3.07319,-0.00784 4.60976,0c0.9159,0.00467 1.84986,-0.15666 2.74761,0.02477c0.89776,0.18143 1.69632,0.69148 2.5416,1.04416c0.49511,0.20658 1.02215,0.35314 1.47949,0.6336c0.73199,0.44888 1.3478,1.06783 2.065,1.54c1.14282,0.75238 2.36906,1.3698 3.5614,2.04095c1.44283,0.81214 2.87921,1.63664 4.34191,2.41241c0.73827,0.39156 1.50107,0.7359 2.23708,1.1317c1.21938,0.65574 2.36058,1.45673 3.60706,2.05935c1.87022,0.90416 3.85689,1.62627 5.80527,2.33536c0.76205,0.27734 1.50985,0.59731 2.28576,0.83311c0.77591,0.23579 1.57521,0.38638 2.36281,0.57956c2.43796,0.59999 4.85801,1.25261 7.2819,1.90683c1.28502,0.34683 2.58369,0.64196 3.88255,0.93273c0.67848,0.15189 1.34289,0.38864 2.03452,0.45976c1.64915,0.1696 3.32212,-0.14842 4.97354,-0.00262c0.12423,0.01097 4.80481,0.85451 5.00752,0.88649c1.63822,0.25846 3.28609,0.45154 4.92897,0.67848c0.80154,0.11072 1.59782,0.26956 2.40446,0.33323c0.80664,0.06366 1.61798,0.03171 2.42697,0.04809c3.10708,0.06294 6.20952,0.09764 9.31726,0.09764c0.22263,0 5.06174,-0.00394 5.17755,0.01267c0.88348,0.12677 1.71538,0.49384 2.57307,0.74076c0.74615,0.2224 1.46899,0.54835 2.23845,0.66721c0.76946,0.11886 1.55699,0.02434 2.33544,0.03932c0.82929,0.01596 1.65838,0.04342 2.48776,0.05349c3.32749,0.04041 6.65742,0.02077 9.98515,0.02172c11.47809,0.00327 22.95619,0.0014 34.43428,0.0014c16.28049,0 32.56097,0 48.84146,0c16.90244,0 33.80488,0 50.70731,0c0.8127,0.00051 1.6264,0.04178 2.4381,0.00153c1.64401,-0.08151 3.27577,-0.32718 4.91373,-0.49001c1.64273,-0.1633 3.29294,-0.26337 4.92828,-0.489c0.94956,-0.13102 4.00979,-0.75067 4.93086,-0.87219c0.84433,-0.1114 1.69672,-0.14937 2.54511,-0.22376c2.49044,-0.21837 4.98099,-0.43554 7.47149,-0.65332c1.32058,-0.11547 2.63689,-0.30289 3.96183,-0.34523c2.51112,-0.08025 5.04194,-0.00119 7.55449,-0.00119c3.7561,0 7.51219,0 11.26829,0c1.42683,0 2.85366,-0.00115 4.28049,0c0.71246,0.00057 1.42705,-0.05179 2.13739,0.00314c0.8366,0.0647 1.6561,0.2835 2.49215,0.3549c0.51601,0.04407 4.63955,0.08927 5.0577,0.14513c0.86931,0.11613 1.70604,0.40769 2.55864,0.61328c1.469,0.35423 2.91835,0.79242 4.35038,1.27485c0.68199,0.22975 1.33205,0.58638 2.04299,0.69801c0.75733,0.11891 1.53317,-0.01356 2.29977,-0.01614c2.23978,-0.00753 4.47972,0 6.71951,0c5.70325,0 11.4065,0 17.10976,0c4.69106,0 9.38211,0 14.07317,0c1.66667,0 3.33333,-0.00134 5,0c0.80025,0.00064 1.60303,0.06748 2.40076,0.00395c0.79773,-0.06353 1.57981,-0.25659 2.36987,-0.3839c0.82272,-0.13257 1.64553,-0.26461 2.46848,-0.39571c0.51717,-0.08239 1.02914,-0.21346 1.55189,-0.24478c0.86486,-0.05182 1.73283,-0.00328 2.59924,-0.00395c1.66667,-0.00129 3.33333,-0.00077 5,0c0.80818,0.00037 1.61784,0.05106 2.42455,0.00228c0.80671,-0.04878 1.60436,-0.19667 2.40661,-0.29443c3.30051,-0.40219 6.58582,-0.84574 9.87416,-1.33778c0.8534,-0.12664 1.70006,-0.3128 2.56019,-0.37993c0.86013,-0.06713 1.72542,-0.01509 2.58813,-0.02189c1.61785,-0.01275 3.23577,-0.01703 4.85367,-0.01704c0.83333,0 1.66667,-0.00113 2.5,0c0.7905,0.00107 1.58517,0.0879 2.37148,0.00662c0.78631,-0.08127 1.54643,-0.3288 2.31999,-0.49154c0.15802,-0.03324 4.9392,-1.03398 5.02123,-1.04247c0.08244,-0.00854 4.96641,-0.00854 5.12829,-0.00842c0.69031,0.00051 1.38382,0.07081 2.07091,0.00429c1.65476,-0.16019 3.25268,-0.727 4.90684,-0.89323c0.06447,-0.00648 4.97119,-0.10581 5.09836,-0.10833c0.42473,-0.00843 0.85152,0.01866 1.27421,-0.02378c1.63317,-0.16399 3.2493,-0.46759 4.87434,-0.69866c0.76964,-0.10944 1.53355,-0.27402 2.30915,-0.3267c0.83673,-0.05683 1.67731,-0.00069 2.51596,-0.00103c1.63119,-0.19201 3.26247,-0.38328 4.89382,-0.57387c1.24075,-0.14496 2.49856,-0.18262 3.72254,-0.4323c0.79027,-0.16121 1.5644,-0.39333 2.34676,-0.58936c2.06417,-0.5172 4.1161,-1.01855 6.19346,-1.48013c2.3499,-0.52213 4.73985,-0.84865 7.08572,-1.37584c0.24485,-0.05502 3.79818,-1.03054 4.27161,-1.14758c0.81615,-0.20178 1.63835,-0.37825 2.45753,-0.56732c5.47755,-1.26427 10.98627,-2.37416 16.49113,-3.51309c4.74956,-0.98265 9.69365,-2.62085 14.51025,-3.12004c2.14953,-0.22278 4.49618,0.37128 6.62155,0.00462c2.44236,-0.42134 4.79764,-1.48399 7.27051,-1.83138c2.02526,-0.28451 4.50794,0.24508 6.4808,-0.20395c2.78689,-0.63431 3.24932,-1.53347 6.3367,-1.56211h2.10976c0,0 1.25,0 1.25,1.25z"/></g></g></svg>