<svg version="1.1" xmlns="http://www.w3.org/2000/svg" xmlns:xlink="http://www.w3.org/1999/xlink" width="38.41605" height="31.31222" viewBox="0,0,38.41605,31.31222"><defs><radialGradient cx="333.95047" cy="158.9396" r="9.6606" gradientUnits="userSpaceOnUse" id="color-1"><stop offset="0" stop-color="#ff4141"/><stop offset="1" stop-color="#ff0000"/></radialGradient><radialGradient cx="319.97524" cy="163.30372" r="19.20802" gradientUnits="userSpaceOnUse" id="color-2"><stop offset="0" stop-color="#3f3f3f"/><stop offset="1" stop-color="#000000"/></radialGradient></defs><g transform="translate(-300.76721,-148.67886)"><g stroke="none" stroke-width="0" stroke-miterlimit="10"><path d="M332.94029,155.07414c0.10852,-0.7182 -3.59455,-4.21372 -3.25454,-5.41779c0.0699,-0.2475 3.83869,1.00977 3.88151,1.00977c0.12195,0 2.92298,0.20273 3.01887,0.42172c0.51831,1.18373 -1.88259,3.40848 -1.81741,3.8744c0.12678,0.90634 2.90234,12.23176 -0.81825,13.94789c-8.05318,-0.01816 -1.15619,-12.86959 -1.01018,-13.83599z" fill="url(#color-1)"/><path d="M339.18146,151.05593c-1.95508,17.79017 -9.8006,28.93515 -19.18146,28.93515c-9.46281,0 -17.36334,-11.47214 -19.23135,-29.49615c-0.2743,-2.64664 38.71948,-2.32328 38.41281,0.46724z" fill="url(#color-2)"/></g></g></svg>