<svg version="1.1" xmlns="http://www.w3.org/2000/svg" xmlns:xlink="http://www.w3.org/1999/xlink" width="49.92074" height="49.92074" viewBox="0,0,49.92074,49.92074"><g transform="translate(-215.03963,-155.03963)"><g stroke-miterlimit="10"><path d="M215.03963,204.96037v-49.92074h49.92074v49.92074z" fill="#ff00ff" stroke="none" stroke-width="0"/><path d="M216,195.4375v-30.875h48v30.875z" fill="#000000" stroke="#000000" stroke-width="0"/><text transform="translate(227.5,174.3356) scale(0.22951,0.22951)" font-size="40" xml:space="preserve" fill="#ff00ff" stroke="none" stroke-width="1" font-family="Sans Serif" font-weight="normal" text-anchor="start"><tspan x="0" dy="0">game</tspan></text><path d="M249.125,182.58984c0,1.25 -1.25,1.25 -1.25,1.25h-0.25c-5.43404,0 -10.52732,0.01238 -15.9555,-0.89201c0,0 -1.23299,-0.2055 -1.02749,-1.43849c0.2055,-1.23299 1.43849,-1.02749 1.43849,-1.02749c5.29678,0.8831 10.24395,0.85799 15.5445,0.85799h0.25c0,0 1.25,0 1.25,1.25z" fill="#ff00ff" stroke="none" stroke-width="0.5"/><path d="M246.375,187.21484c0,1.25 -1.25,1.25 -1.25,1.25h-1c-3.6947,0 -7.5834,0.13792 -11.22361,-0.52016c0,0 -1.22984,-0.22361 -1.00623,-1.45344c0.22361,-1.22984 1.45344,-1.00623 1.45344,-1.00623c3.48828,0.63817 7.23532,0.47984 10.77639,0.47984h1c0,0 1.25,0 1.25,1.25z" fill="#ff00ff" stroke="none" stroke-width="0.5"/><path d="M244.48299,192.13435c0.2055,1.23299 -1.02749,1.43849 -1.02749,1.43849l-0.9555,0.14201c-3.04167,0 -6.08333,0 -9.125,0c0,0 -1.25,0 -1.25,-1.25c0,-1.25 1.25,-1.25 1.25,-1.25c3.04167,0 6.08333,0 9.125,0l0.5445,-0.10799c0,0 1.23299,-0.2055 1.43849,1.02749z" fill="#ff00ff" stroke="none" stroke-width="0.5"/><path d="M260.375,193.71484c0,1.25 -1.25,1.25 -1.25,1.25h-0.375c-2.1001,-0.00159 -3.81937,-0.37114 -5.8289,-0.91905c0,0 -1.20595,-0.3289 -0.87706,-1.53485c0.3289,-1.20595 1.53485,-0.87706 1.53485,-0.87706c1.80863,0.4934 3.28365,0.8325 5.1711,0.83095h0.375c0,0 1.25,0 1.25,1.25z" fill="#ff00ff" stroke="none" stroke-width="0.5"/><path d="M260.24035,188.0598c0.15504,1.24035 -1.0853,1.39539 -1.0853,1.39539l-1.04187,0.12952c-0.85539,0.0745 -1.70673,0.23214 -2.53427,0.46109c0,0 -1.20595,0.3289 -1.53485,-0.87706c-0.3289,-1.20595 0.87706,-1.53485 0.87706,-1.53485c0.97018,-0.26133 1.96539,-0.44471 2.96573,-0.53891l0.95813,-0.12048c0,0 1.24035,-0.15504 1.39539,1.0853z" fill="#ff00ff" stroke="none" stroke-width="0.5"/><path d="M218.375,192.46484c0,-1.25 1.25,-1.25 1.25,-1.25h0.25c1.22772,0 2.30065,0.02174 3.50485,-0.22573c0,0 1.22573,-0.24515 1.47087,0.98058c0.24515,1.22573 -0.98058,1.47087 -0.98058,1.47087c-1.37003,0.26781 -2.60395,0.27427 -3.99515,0.27427h-0.25c0,0 -1.25,0 -1.25,-1.25z" fill="#ff00ff" stroke="none" stroke-width="0.5"/><path d="M218.1731,188.24644c0.3434,-1.2019 1.54531,-0.8585 1.54531,-0.8585l0.89078,0.25462c0.77192,0.23607 1.57474,0.38337 2.37898,0.45242c0,0 1.24487,0.11317 1.1317,1.35804c-0.11317,1.24487 -1.35804,1.1317 -1.35804,1.1317c-0.96988,-0.09226 -1.93662,-0.27174 -2.87102,-0.54758l-0.85922,-0.24538c0,0 -1.2019,-0.3434 -0.8585,-1.54531z" fill="#ff00ff" stroke="none" stroke-width="0.5"/></g></g></svg>