<svg version="1.1" xmlns="http://www.w3.org/2000/svg" xmlns:xlink="http://www.w3.org/1999/xlink" width="792.90558" height="500.7835" viewBox="0,0,792.90558,500.7835"><defs><radialGradient cx="315.60968" cy="304.94474" r="107.87758" gradientUnits="userSpaceOnUse" id="color-1"><stop offset="0" stop-color="#00b8ff" stop-opacity="0.59608"/><stop offset="1" stop-color="#00e8ff" stop-opacity="0.30588"/></radialGradient><linearGradient x1="16.3216" y1="271.78271" x2="16.3216" y2="300.61906" gradientUnits="userSpaceOnUse" id="color-2"><stop offset="0" stop-color="#8cff2e"/><stop offset="1" stop-color="#65df00"/></linearGradient><linearGradient x1="33.58023" y1="294.29397" x2="33.58023" y2="323.13032" gradientUnits="userSpaceOnUse" id="color-3"><stop offset="0" stop-color="#8cff2e"/><stop offset="1" stop-color="#65df00"/></linearGradient><linearGradient x1="17.82235" y1="310.05185" x2="17.82235" y2="338.8882" gradientUnits="userSpaceOnUse" id="color-4"><stop offset="0" stop-color="#8cff2e"/><stop offset="1" stop-color="#65df00"/></linearGradient><linearGradient x1="47.83736" y1="276.28496" x2="47.83736" y2="305.12131" gradientUnits="userSpaceOnUse" id="color-5"><stop offset="0" stop-color="#8cff2e"/><stop offset="1" stop-color="#65df00"/></linearGradient><linearGradient x1="63.59524" y1="298.79622" x2="63.59524" y2="327.63257" gradientUnits="userSpaceOnUse" id="color-6"><stop offset="0" stop-color="#8cff2e"/><stop offset="1" stop-color="#65df00"/></linearGradient><linearGradient x1="49.20761" y1="314.5541" x2="49.20761" y2="343.39045" gradientUnits="userSpaceOnUse" id="color-7"><stop offset="0" stop-color="#8cff2e"/><stop offset="1" stop-color="#65df00"/></linearGradient><linearGradient x1="75.60124" y1="280.03684" x2="75.60124" y2="308.87318" gradientUnits="userSpaceOnUse" id="color-8"><stop offset="0" stop-color="#8cff2e"/><stop offset="1" stop-color="#65df00"/></linearGradient><linearGradient x1="92.85987" y1="302.54809" x2="92.85987" y2="331.38444" gradientUnits="userSpaceOnUse" id="color-9"><stop offset="0" stop-color="#8cff2e"/><stop offset="1" stop-color="#65df00"/></linearGradient><linearGradient x1="77.10199" y1="318.30597" x2="77.10199" y2="347.14232" gradientUnits="userSpaceOnUse" id="color-10"><stop offset="0" stop-color="#8cff2e"/><stop offset="1" stop-color="#65df00"/></linearGradient><linearGradient x1="109.36813" y1="283.03834" x2="109.36813" y2="311.87469" gradientUnits="userSpaceOnUse" id="color-11"><stop offset="0" stop-color="#8cff2e"/><stop offset="1" stop-color="#65df00"/></linearGradient><linearGradient x1="126.62676" y1="305.5496" x2="126.62676" y2="334.38595" gradientUnits="userSpaceOnUse" id="color-12"><stop offset="0" stop-color="#8cff2e"/><stop offset="1" stop-color="#65df00"/></linearGradient><linearGradient x1="110.86888" y1="321.30748" x2="110.86888" y2="350.14383" gradientUnits="userSpaceOnUse" id="color-13"><stop offset="0" stop-color="#8cff2e"/><stop offset="1" stop-color="#65df00"/></linearGradient><linearGradient x1="139.38314" y1="283.03834" x2="139.38314" y2="311.87469" gradientUnits="userSpaceOnUse" id="color-14"><stop offset="0" stop-color="#8cff2e"/><stop offset="1" stop-color="#65df00"/></linearGradient><linearGradient x1="156.64177" y1="305.5496" x2="156.64177" y2="334.38595" gradientUnits="userSpaceOnUse" id="color-15"><stop offset="0" stop-color="#8cff2e"/><stop offset="1" stop-color="#65df00"/></linearGradient><linearGradient x1="140.88389" y1="321.30748" x2="140.88389" y2="350.14383" gradientUnits="userSpaceOnUse" id="color-16"><stop offset="0" stop-color="#8cff2e"/><stop offset="1" stop-color="#65df00"/></linearGradient><linearGradient x1="176.15152" y1="285.28947" x2="176.15152" y2="314.12582" gradientUnits="userSpaceOnUse" id="color-17"><stop offset="0" stop-color="#8cff2e"/><stop offset="1" stop-color="#65df00"/></linearGradient><linearGradient x1="193.41015" y1="307.80072" x2="193.41015" y2="336.63707" gradientUnits="userSpaceOnUse" id="color-18"><stop offset="0" stop-color="#8cff2e"/><stop offset="1" stop-color="#65df00"/></linearGradient><linearGradient x1="177.65227" y1="323.5586" x2="177.65227" y2="352.39495" gradientUnits="userSpaceOnUse" id="color-19"><stop offset="0" stop-color="#8cff2e"/><stop offset="1" stop-color="#65df00"/></linearGradient><linearGradient x1="448.53772" y1="283.03834" x2="448.53772" y2="311.87469" gradientUnits="userSpaceOnUse" id="color-20"><stop offset="0" stop-color="#8cff2e"/><stop offset="1" stop-color="#65df00"/></linearGradient><linearGradient x1="465.79635" y1="305.5496" x2="465.79635" y2="334.38595" gradientUnits="userSpaceOnUse" id="color-21"><stop offset="0" stop-color="#8cff2e"/><stop offset="1" stop-color="#65df00"/></linearGradient><linearGradient x1="450.03847" y1="321.30748" x2="450.03847" y2="350.14383" gradientUnits="userSpaceOnUse" id="color-22"><stop offset="0" stop-color="#8cff2e"/><stop offset="1" stop-color="#65df00"/></linearGradient><linearGradient x1="482.3046" y1="285.28947" x2="482.3046" y2="314.12582" gradientUnits="userSpaceOnUse" id="color-23"><stop offset="0" stop-color="#8cff2e"/><stop offset="1" stop-color="#65df00"/></linearGradient><linearGradient x1="499.56323" y1="307.80072" x2="499.56323" y2="336.63707" gradientUnits="userSpaceOnUse" id="color-24"><stop offset="0" stop-color="#8cff2e"/><stop offset="1" stop-color="#65df00"/></linearGradient><linearGradient x1="483.80535" y1="323.5586" x2="483.80535" y2="352.39495" gradientUnits="userSpaceOnUse" id="color-25"><stop offset="0" stop-color="#8cff2e"/><stop offset="1" stop-color="#65df00"/></linearGradient><linearGradient x1="512.31961" y1="285.28947" x2="512.31961" y2="314.12582" gradientUnits="userSpaceOnUse" id="color-26"><stop offset="0" stop-color="#8cff2e"/><stop offset="1" stop-color="#65df00"/></linearGradient><linearGradient x1="529.57824" y1="307.80072" x2="529.57824" y2="336.63707" gradientUnits="userSpaceOnUse" id="color-27"><stop offset="0" stop-color="#8cff2e"/><stop offset="1" stop-color="#65df00"/></linearGradient><linearGradient x1="513.82036" y1="323.5586" x2="513.82036" y2="352.39495" gradientUnits="userSpaceOnUse" id="color-28"><stop offset="0" stop-color="#8cff2e"/><stop offset="1" stop-color="#65df00"/></linearGradient><linearGradient x1="546.0865" y1="283.03834" x2="546.0865" y2="311.87469" gradientUnits="userSpaceOnUse" id="color-29"><stop offset="0" stop-color="#8cff2e"/><stop offset="1" stop-color="#65df00"/></linearGradient><linearGradient x1="563.34513" y1="305.5496" x2="563.34513" y2="334.38595" gradientUnits="userSpaceOnUse" id="color-30"><stop offset="0" stop-color="#8cff2e"/><stop offset="1" stop-color="#65df00"/></linearGradient><linearGradient x1="547.58725" y1="321.30748" x2="547.58725" y2="350.14383" gradientUnits="userSpaceOnUse" id="color-31"><stop offset="0" stop-color="#8cff2e"/><stop offset="1" stop-color="#65df00"/></linearGradient><linearGradient x1="593.36013" y1="283.78872" x2="593.36013" y2="312.62507" gradientUnits="userSpaceOnUse" id="color-32"><stop offset="0" stop-color="#8cff2e"/><stop offset="1" stop-color="#65df00"/></linearGradient><linearGradient x1="610.61876" y1="306.29997" x2="610.61876" y2="335.13632" gradientUnits="userSpaceOnUse" id="color-33"><stop offset="0" stop-color="#8cff2e"/><stop offset="1" stop-color="#65df00"/></linearGradient><linearGradient x1="594.86088" y1="322.05785" x2="594.86088" y2="350.8942" gradientUnits="userSpaceOnUse" id="color-34"><stop offset="0" stop-color="#8cff2e"/><stop offset="1" stop-color="#65df00"/></linearGradient><radialGradient cx="213.20229" cy="340.1198" r="2.51263" gradientUnits="userSpaceOnUse" id="color-35"><stop offset="0" stop-color="#00b8ff" stop-opacity="0.59608"/><stop offset="1" stop-color="#00e8ff" stop-opacity="0.30588"/></radialGradient><radialGradient cx="218.82332" cy="334.86124" r="2.51263" gradientUnits="userSpaceOnUse" id="color-36"><stop offset="0" stop-color="#00b8ff" stop-opacity="0.59608"/><stop offset="1" stop-color="#00e8ff" stop-opacity="0.30588"/></radialGradient><radialGradient cx="189.98382" cy="327.75758" r="2.51262" gradientUnits="userSpaceOnUse" id="color-37"><stop offset="0" stop-color="#00b8ff" stop-opacity="0.59608"/><stop offset="1" stop-color="#00e8ff" stop-opacity="0.30588"/></radialGradient><radialGradient cx="191.64121" cy="333.57302" r="2.51262" gradientUnits="userSpaceOnUse" id="color-38"><stop offset="0" stop-color="#00b8ff" stop-opacity="0.59608"/><stop offset="1" stop-color="#00e8ff" stop-opacity="0.30588"/></radialGradient><radialGradient cx="205.2977" cy="327.60267" r="19.72092" gradientUnits="userSpaceOnUse" id="color-39"><stop offset="0" stop-color="#00b8ff" stop-opacity="0.59608"/><stop offset="1" stop-color="#00e8ff" stop-opacity="0.30588"/></radialGradient><radialGradient cx="205.2977" cy="327.60267" r="19.72092" gradientUnits="userSpaceOnUse" id="color-40"><stop offset="0" stop-color="#00b8ff" stop-opacity="0.59608"/><stop offset="1" stop-color="#00e8ff" stop-opacity="0.30588"/></radialGradient><radialGradient cx="205.2977" cy="327.60267" r="19.72092" gradientUnits="userSpaceOnUse" id="color-41"><stop offset="0" stop-color="#00b8ff" stop-opacity="0.59608"/><stop offset="1" stop-color="#00e8ff" stop-opacity="0.30588"/></radialGradient><radialGradient cx="186.53022" cy="315.43594" r="10.23801" gradientUnits="userSpaceOnUse" id="color-42"><stop offset="0" stop-color="#00b8ff" stop-opacity="0.59608"/><stop offset="1" stop-color="#00e8ff" stop-opacity="0.30588"/></radialGradient><radialGradient cx="176.0312" cy="316.40314" r="4.12521" gradientUnits="userSpaceOnUse" id="color-43"><stop offset="0" stop-color="#00b8ff" stop-opacity="0.59608"/><stop offset="1" stop-color="#00e8ff" stop-opacity="0.30588"/></radialGradient><radialGradient cx="181.11763" cy="312.33973" r="0.69449" gradientUnits="userSpaceOnUse" id="color-44"><stop offset="0" stop-color="#00b8ff" stop-opacity="0.59608"/><stop offset="1" stop-color="#00e8ff" stop-opacity="0.30588"/></radialGradient><radialGradient cx="164.17133" cy="342.58286" r="2.51263" gradientUnits="userSpaceOnUse" id="color-45"><stop offset="0" stop-color="#00b8ff" stop-opacity="0.59608"/><stop offset="1" stop-color="#00e8ff" stop-opacity="0.30588"/></radialGradient><radialGradient cx="170.05094" cy="337.61511" r="2.51263" gradientUnits="userSpaceOnUse" id="color-46"><stop offset="0" stop-color="#00b8ff" stop-opacity="0.59608"/><stop offset="1" stop-color="#00e8ff" stop-opacity="0.30588"/></radialGradient><radialGradient cx="141.60732" cy="329.06297" r="2.51262" gradientUnits="userSpaceOnUse" id="color-47"><stop offset="0" stop-color="#00b8ff" stop-opacity="0.59608"/><stop offset="1" stop-color="#00e8ff" stop-opacity="0.30588"/></radialGradient><radialGradient cx="142.96868" cy="334.95473" r="2.51262" gradientUnits="userSpaceOnUse" id="color-48"><stop offset="0" stop-color="#00b8ff" stop-opacity="0.59608"/><stop offset="1" stop-color="#00e8ff" stop-opacity="0.30588"/></radialGradient><radialGradient cx="156.90947" cy="329.68223" r="19.72092" gradientUnits="userSpaceOnUse" id="color-49"><stop offset="0" stop-color="#00b8ff" stop-opacity="0.59608"/><stop offset="1" stop-color="#00e8ff" stop-opacity="0.30588"/></radialGradient><radialGradient cx="156.90947" cy="329.68223" r="19.72092" gradientUnits="userSpaceOnUse" id="color-50"><stop offset="0" stop-color="#00b8ff" stop-opacity="0.59608"/><stop offset="1" stop-color="#00e8ff" stop-opacity="0.30588"/></radialGradient><radialGradient cx="156.90947" cy="329.68223" r="19.72092" gradientUnits="userSpaceOnUse" id="color-51"><stop offset="0" stop-color="#00b8ff" stop-opacity="0.59608"/><stop offset="1" stop-color="#00e8ff" stop-opacity="0.30588"/></radialGradient><radialGradient cx="138.78089" cy="316.58252" r="10.23801" gradientUnits="userSpaceOnUse" id="color-52"><stop offset="0" stop-color="#00b8ff" stop-opacity="0.59608"/><stop offset="1" stop-color="#00e8ff" stop-opacity="0.30588"/></radialGradient><radialGradient cx="128.24639" cy="317.01786" r="4.12521" gradientUnits="userSpaceOnUse" id="color-53"><stop offset="0" stop-color="#00b8ff" stop-opacity="0.59608"/><stop offset="1" stop-color="#00e8ff" stop-opacity="0.30588"/></radialGradient><radialGradient cx="133.53169" cy="313.21671" r="0.69449" gradientUnits="userSpaceOnUse" id="color-54"><stop offset="0" stop-color="#00b8ff" stop-opacity="0.59608"/><stop offset="1" stop-color="#00e8ff" stop-opacity="0.30588"/></radialGradient><radialGradient cx="58.39579" cy="343.40847" r="2.51263" gradientUnits="userSpaceOnUse" id="color-55"><stop offset="0" stop-color="#00b8ff" stop-opacity="0.59608"/><stop offset="1" stop-color="#00e8ff" stop-opacity="0.30588"/></radialGradient><radialGradient cx="54.19558" cy="336.95815" r="2.51263" gradientUnits="userSpaceOnUse" id="color-56"><stop offset="0" stop-color="#00b8ff" stop-opacity="0.59608"/><stop offset="1" stop-color="#00e8ff" stop-opacity="0.30588"/></radialGradient><radialGradient cx="83.89707" cy="336.95815" r="2.51262" gradientUnits="userSpaceOnUse" id="color-57"><stop offset="0" stop-color="#00b8ff" stop-opacity="0.59608"/><stop offset="1" stop-color="#00e8ff" stop-opacity="0.30588"/></radialGradient><radialGradient cx="80.89691" cy="342.20841" r="2.51262" gradientUnits="userSpaceOnUse" id="color-58"><stop offset="0" stop-color="#00b8ff" stop-opacity="0.59608"/><stop offset="1" stop-color="#00e8ff" stop-opacity="0.30588"/></radialGradient><radialGradient cx="69.06467" cy="333.14514" r="19.72092" gradientUnits="userSpaceOnUse" id="color-59"><stop offset="0" stop-color="#00b8ff" stop-opacity="0.59608"/><stop offset="1" stop-color="#00e8ff" stop-opacity="0.30588"/></radialGradient><radialGradient cx="69.06467" cy="333.14514" r="19.72092" gradientUnits="userSpaceOnUse" id="color-60"><stop offset="0" stop-color="#00b8ff" stop-opacity="0.59608"/><stop offset="1" stop-color="#00e8ff" stop-opacity="0.30588"/></radialGradient><radialGradient cx="69.06467" cy="333.14514" r="19.72092" gradientUnits="userSpaceOnUse" id="color-61"><stop offset="0" stop-color="#00b8ff" stop-opacity="0.59608"/><stop offset="1" stop-color="#00e8ff" stop-opacity="0.30588"/></radialGradient><radialGradient cx="90.19738" cy="325.82009" r="10.23801" gradientUnits="userSpaceOnUse" id="color-62"><stop offset="0" stop-color="#00b8ff" stop-opacity="0.59608"/><stop offset="1" stop-color="#00e8ff" stop-opacity="0.30588"/></radialGradient><radialGradient cx="100.16038" cy="329.27026" r="4.12521" gradientUnits="userSpaceOnUse" id="color-63"><stop offset="0" stop-color="#00b8ff" stop-opacity="0.59608"/><stop offset="1" stop-color="#00e8ff" stop-opacity="0.30588"/></radialGradient><radialGradient cx="96.19341" cy="324.10826" r="0.69449" gradientUnits="userSpaceOnUse" id="color-64"><stop offset="0" stop-color="#00b8ff" stop-opacity="0.59608"/><stop offset="1" stop-color="#00e8ff" stop-opacity="0.30588"/></radialGradient><radialGradient cx="279.18164" cy="322.56356" r="2.51263" gradientUnits="userSpaceOnUse" id="color-65"><stop offset="0" stop-color="#00b8ff" stop-opacity="0.59608"/><stop offset="1" stop-color="#00e8ff" stop-opacity="0.30588"/></radialGradient><radialGradient cx="283.38185" cy="316.11324" r="2.51263" gradientUnits="userSpaceOnUse" id="color-66"><stop offset="0" stop-color="#00b8ff" stop-opacity="0.59608"/><stop offset="1" stop-color="#00e8ff" stop-opacity="0.30588"/></radialGradient><radialGradient cx="253.68036" cy="316.11324" r="2.51262" gradientUnits="userSpaceOnUse" id="color-67"><stop offset="0" stop-color="#00b8ff" stop-opacity="0.59608"/><stop offset="1" stop-color="#00e8ff" stop-opacity="0.30588"/></radialGradient><radialGradient cx="256.68052" cy="321.3635" r="2.51262" gradientUnits="userSpaceOnUse" id="color-68"><stop offset="0" stop-color="#00b8ff" stop-opacity="0.59608"/><stop offset="1" stop-color="#00e8ff" stop-opacity="0.30588"/></radialGradient><radialGradient cx="268.51276" cy="312.30023" r="19.72092" gradientUnits="userSpaceOnUse" id="color-69"><stop offset="0" stop-color="#00b8ff" stop-opacity="0.59608"/><stop offset="1" stop-color="#00e8ff" stop-opacity="0.30588"/></radialGradient><radialGradient cx="268.51276" cy="312.30023" r="19.72092" gradientUnits="userSpaceOnUse" id="color-70"><stop offset="0" stop-color="#00b8ff" stop-opacity="0.59608"/><stop offset="1" stop-color="#00e8ff" stop-opacity="0.30588"/></radialGradient><radialGradient cx="268.51276" cy="312.30023" r="19.72092" gradientUnits="userSpaceOnUse" id="color-71"><stop offset="0" stop-color="#00b8ff" stop-opacity="0.59608"/><stop offset="1" stop-color="#00e8ff" stop-opacity="0.30588"/></radialGradient><radialGradient cx="247.38005" cy="304.97518" r="10.23801" gradientUnits="userSpaceOnUse" id="color-72"><stop offset="0" stop-color="#00b8ff" stop-opacity="0.59608"/><stop offset="1" stop-color="#00e8ff" stop-opacity="0.30588"/></radialGradient><radialGradient cx="237.41705" cy="308.42535" r="4.12521" gradientUnits="userSpaceOnUse" id="color-73"><stop offset="0" stop-color="#00b8ff" stop-opacity="0.59608"/><stop offset="1" stop-color="#00e8ff" stop-opacity="0.30588"/></radialGradient><radialGradient cx="241.38402" cy="303.26335" r="0.69449" gradientUnits="userSpaceOnUse" id="color-74"><stop offset="0" stop-color="#00b8ff" stop-opacity="0.59608"/><stop offset="1" stop-color="#00e8ff" stop-opacity="0.30588"/></radialGradient><radialGradient cx="324.20666" cy="293.38068" r="2.51263" gradientUnits="userSpaceOnUse" id="color-75"><stop offset="0" stop-color="#00b8ff" stop-opacity="0.59608"/><stop offset="1" stop-color="#00e8ff" stop-opacity="0.30588"/></radialGradient><radialGradient cx="328.40687" cy="286.93036" r="2.51263" gradientUnits="userSpaceOnUse" id="color-76"><stop offset="0" stop-color="#00b8ff" stop-opacity="0.59608"/><stop offset="1" stop-color="#00e8ff" stop-opacity="0.30588"/></radialGradient><radialGradient cx="298.70538" cy="286.93036" r="2.51262" gradientUnits="userSpaceOnUse" id="color-77"><stop offset="0" stop-color="#00b8ff" stop-opacity="0.59608"/><stop offset="1" stop-color="#00e8ff" stop-opacity="0.30588"/></radialGradient><radialGradient cx="301.70554" cy="292.18062" r="2.51262" gradientUnits="userSpaceOnUse" id="color-78"><stop offset="0" stop-color="#00b8ff" stop-opacity="0.59608"/><stop offset="1" stop-color="#00e8ff" stop-opacity="0.30588"/></radialGradient><radialGradient cx="313.53778" cy="283.11735" r="19.72092" gradientUnits="userSpaceOnUse" id="color-79"><stop offset="0" stop-color="#00b8ff" stop-opacity="0.59608"/><stop offset="1" stop-color="#00e8ff" stop-opacity="0.30588"/></radialGradient><radialGradient cx="313.53778" cy="283.11735" r="19.72092" gradientUnits="userSpaceOnUse" id="color-80"><stop offset="0" stop-color="#00b8ff" stop-opacity="0.59608"/><stop offset="1" stop-color="#00e8ff" stop-opacity="0.30588"/></radialGradient><radialGradient cx="313.53778" cy="283.11735" r="19.72092" gradientUnits="userSpaceOnUse" id="color-81"><stop offset="0" stop-color="#00b8ff" stop-opacity="0.59608"/><stop offset="1" stop-color="#00e8ff" stop-opacity="0.30588"/></radialGradient><radialGradient cx="292.40507" cy="275.7923" r="10.23801" gradientUnits="userSpaceOnUse" id="color-82"><stop offset="0" stop-color="#00b8ff" stop-opacity="0.59608"/><stop offset="1" stop-color="#00e8ff" stop-opacity="0.30588"/></radialGradient><radialGradient cx="282.44207" cy="279.24247" r="4.12521" gradientUnits="userSpaceOnUse" id="color-83"><stop offset="0" stop-color="#00b8ff" stop-opacity="0.59608"/><stop offset="1" stop-color="#00e8ff" stop-opacity="0.30588"/></radialGradient><radialGradient cx="286.40904" cy="274.08047" r="0.69449" gradientUnits="userSpaceOnUse" id="color-84"><stop offset="0" stop-color="#00b8ff" stop-opacity="0.59608"/><stop offset="1" stop-color="#00e8ff" stop-opacity="0.30588"/></radialGradient><radialGradient cx="347.7232" cy="319.22837" r="2.51263" gradientUnits="userSpaceOnUse" id="color-85"><stop offset="0" stop-color="#00b8ff" stop-opacity="0.59608"/><stop offset="1" stop-color="#00e8ff" stop-opacity="0.30588"/></radialGradient><radialGradient cx="343.52299" cy="312.77805" r="2.51263" gradientUnits="userSpaceOnUse" id="color-86"><stop offset="0" stop-color="#00b8ff" stop-opacity="0.59608"/><stop offset="1" stop-color="#00e8ff" stop-opacity="0.30588"/></radialGradient><radialGradient cx="373.22448" cy="312.77805" r="2.51262" gradientUnits="userSpaceOnUse" id="color-87"><stop offset="0" stop-color="#00b8ff" stop-opacity="0.59608"/><stop offset="1" stop-color="#00e8ff" stop-opacity="0.30588"/></radialGradient><radialGradient cx="370.22432" cy="318.02831" r="2.51262" gradientUnits="userSpaceOnUse" id="color-88"><stop offset="0" stop-color="#00b8ff" stop-opacity="0.59608"/><stop offset="1" stop-color="#00e8ff" stop-opacity="0.30588"/></radialGradient><radialGradient cx="358.39208" cy="308.96504" r="19.72092" gradientUnits="userSpaceOnUse" id="color-89"><stop offset="0" stop-color="#00b8ff" stop-opacity="0.59608"/><stop offset="1" stop-color="#00e8ff" stop-opacity="0.30588"/></radialGradient><radialGradient cx="358.39208" cy="308.96504" r="19.72092" gradientUnits="userSpaceOnUse" id="color-90"><stop offset="0" stop-color="#00b8ff" stop-opacity="0.59608"/><stop offset="1" stop-color="#00e8ff" stop-opacity="0.30588"/></radialGradient><radialGradient cx="358.39208" cy="308.96504" r="19.72092" gradientUnits="userSpaceOnUse" id="color-91"><stop offset="0" stop-color="#00b8ff" stop-opacity="0.59608"/><stop offset="1" stop-color="#00e8ff" stop-opacity="0.30588"/></radialGradient><radialGradient cx="379.52479" cy="301.63999" r="10.23801" gradientUnits="userSpaceOnUse" id="color-92"><stop offset="0" stop-color="#00b8ff" stop-opacity="0.59608"/><stop offset="1" stop-color="#00e8ff" stop-opacity="0.30588"/></radialGradient><radialGradient cx="389.48779" cy="305.09016" r="4.12521" gradientUnits="userSpaceOnUse" id="color-93"><stop offset="0" stop-color="#00b8ff" stop-opacity="0.59608"/><stop offset="1" stop-color="#00e8ff" stop-opacity="0.30588"/></radialGradient><radialGradient cx="385.52082" cy="299.92816" r="0.69449" gradientUnits="userSpaceOnUse" id="color-94"><stop offset="0" stop-color="#00b8ff" stop-opacity="0.59608"/><stop offset="1" stop-color="#00e8ff" stop-opacity="0.30588"/></radialGradient><radialGradient cx="587.68637" cy="332.56912" r="2.51263" gradientUnits="userSpaceOnUse" id="color-95"><stop offset="0" stop-color="#00b8ff" stop-opacity="0.59608"/><stop offset="1" stop-color="#00e8ff" stop-opacity="0.30588"/></radialGradient><radialGradient cx="591.88658" cy="326.1188" r="2.51263" gradientUnits="userSpaceOnUse" id="color-96"><stop offset="0" stop-color="#00b8ff" stop-opacity="0.59608"/><stop offset="1" stop-color="#00e8ff" stop-opacity="0.30588"/></radialGradient><radialGradient cx="562.18509" cy="326.1188" r="2.51262" gradientUnits="userSpaceOnUse" id="color-97"><stop offset="0" stop-color="#00b8ff" stop-opacity="0.59608"/><stop offset="1" stop-color="#00e8ff" stop-opacity="0.30588"/></radialGradient><radialGradient cx="565.18525" cy="331.36906" r="2.51262" gradientUnits="userSpaceOnUse" id="color-98"><stop offset="0" stop-color="#00b8ff" stop-opacity="0.59608"/><stop offset="1" stop-color="#00e8ff" stop-opacity="0.30588"/></radialGradient><radialGradient cx="577.01749" cy="322.30579" r="19.72092" gradientUnits="userSpaceOnUse" id="color-99"><stop offset="0" stop-color="#00b8ff" stop-opacity="0.59608"/><stop offset="1" stop-color="#00e8ff" stop-opacity="0.30588"/></radialGradient><radialGradient cx="577.01749" cy="322.30579" r="19.72092" gradientUnits="userSpaceOnUse" id="color-100"><stop offset="0" stop-color="#00b8ff" stop-opacity="0.59608"/><stop offset="1" stop-color="#00e8ff" stop-opacity="0.30588"/></radialGradient><radialGradient cx="577.01749" cy="322.30579" r="19.72092" gradientUnits="userSpaceOnUse" id="color-101"><stop offset="0" stop-color="#00b8ff" stop-opacity="0.59608"/><stop offset="1" stop-color="#00e8ff" stop-opacity="0.30588"/></radialGradient><radialGradient cx="555.88478" cy="314.98074" r="10.23801" gradientUnits="userSpaceOnUse" id="color-102"><stop offset="0" stop-color="#00b8ff" stop-opacity="0.59608"/><stop offset="1" stop-color="#00e8ff" stop-opacity="0.30588"/></radialGradient><radialGradient cx="545.92178" cy="318.43091" r="4.12521" gradientUnits="userSpaceOnUse" id="color-103"><stop offset="0" stop-color="#00b8ff" stop-opacity="0.59608"/><stop offset="1" stop-color="#00e8ff" stop-opacity="0.30588"/></radialGradient><radialGradient cx="549.88875" cy="313.26891" r="0.69449" gradientUnits="userSpaceOnUse" id="color-104"><stop offset="0" stop-color="#00b8ff" stop-opacity="0.59608"/><stop offset="1" stop-color="#00e8ff" stop-opacity="0.30588"/></radialGradient><radialGradient cx="466.72273" cy="301.02851" r="2.51263" gradientUnits="userSpaceOnUse" id="color-105"><stop offset="0" stop-color="#00b8ff" stop-opacity="0.59608"/><stop offset="1" stop-color="#00e8ff" stop-opacity="0.30588"/></radialGradient><radialGradient cx="465.45405" cy="293.43649" r="2.51263" gradientUnits="userSpaceOnUse" id="color-106"><stop offset="0" stop-color="#00b8ff" stop-opacity="0.59608"/><stop offset="1" stop-color="#00e8ff" stop-opacity="0.30588"/></radialGradient><radialGradient cx="492.67474" cy="305.31977" r="2.51262" gradientUnits="userSpaceOnUse" id="color-107"><stop offset="0" stop-color="#00b8ff" stop-opacity="0.59608"/><stop offset="1" stop-color="#00e8ff" stop-opacity="0.30588"/></radialGradient><radialGradient cx="487.82459" cy="308.93117" r="2.51262" gradientUnits="userSpaceOnUse" id="color-108"><stop offset="0" stop-color="#00b8ff" stop-opacity="0.59608"/><stop offset="1" stop-color="#00e8ff" stop-opacity="0.30588"/></radialGradient><radialGradient cx="480.60676" cy="295.89094" r="19.72092" gradientUnits="userSpaceOnUse" id="color-109"><stop offset="0" stop-color="#00b8ff" stop-opacity="0.59608"/><stop offset="1" stop-color="#00e8ff" stop-opacity="0.30588"/></radialGradient><radialGradient cx="480.60676" cy="295.89094" r="19.72092" gradientUnits="userSpaceOnUse" id="color-110"><stop offset="0" stop-color="#00b8ff" stop-opacity="0.59608"/><stop offset="1" stop-color="#00e8ff" stop-opacity="0.30588"/></radialGradient><radialGradient cx="480.60676" cy="295.89094" r="19.72092" gradientUnits="userSpaceOnUse" id="color-111"><stop offset="0" stop-color="#00b8ff" stop-opacity="0.59608"/><stop offset="1" stop-color="#00e8ff" stop-opacity="0.30588"/></radialGradient><radialGradient cx="502.90506" cy="297.6327" r="10.23801" gradientUnits="userSpaceOnUse" id="color-112"><stop offset="0" stop-color="#00b8ff" stop-opacity="0.59608"/><stop offset="1" stop-color="#00e8ff" stop-opacity="0.30588"/></radialGradient><radialGradient cx="510.65552" cy="304.7808" r="4.12521" gradientUnits="userSpaceOnUse" id="color-113"><stop offset="0" stop-color="#00b8ff" stop-opacity="0.59608"/><stop offset="1" stop-color="#00e8ff" stop-opacity="0.30588"/></radialGradient><radialGradient cx="509.08516" cy="298.4628" r="0.69449" gradientUnits="userSpaceOnUse" id="color-114"><stop offset="0" stop-color="#00b8ff" stop-opacity="0.59608"/><stop offset="1" stop-color="#00e8ff" stop-opacity="0.30588"/></radialGradient></defs><g transform="translate(75.15376,48.83632)"><g stroke-miterlimit="10"><path d="M-56.39206,-9.41193c0,-36.28004 25.65844,-39.42439 61.93848,-39.42439c36.28004,0 660.43754,22.84419 660.43754,59.12423c0,36.28004 78.46916,439.14416 42.18912,439.14416c-36.28004,0 -783.32684,13.6462 -783.32684,-22.63382z" fill="#13d8e8" stroke="none" stroke-width="0.5" stroke-linecap="butt"/><path d="M-15.36163,393.84451v-102.63172h669.6894v102.63172z" fill="#77e813" stroke="none" stroke-width="0" stroke-linecap="butt"/><path d="M207.7321,304.94474c0,-18.64997 48.29844,-33.76876 107.87758,-33.76876c59.57914,0 107.87758,15.11879 107.87758,33.76876c0,18.64997 -48.29844,33.76876 -107.87758,33.76876c-59.57914,0 -107.87758,-15.11879 -107.87758,-33.76876z" fill="#79440c" stroke="url(#color-1)" stroke-width="0" stroke-linecap="butt"/><path d="M16.3216,271.78275v28.83631" fill="none" stroke="url(#color-2)" stroke-width="15" stroke-linecap="round"/><path d="M33.58023,323.13032v-28.83631" fill="none" stroke="url(#color-3)" stroke-width="15" stroke-linecap="round"/><path d="M17.82235,338.8882v-28.83631" fill="none" stroke="url(#color-4)" stroke-width="15" stroke-linecap="round"/><path d="M47.83736,305.12131v-28.83631" fill="none" stroke="url(#color-5)" stroke-width="15" stroke-linecap="round"/><path d="M63.59524,298.79626v28.83631" fill="none" stroke="url(#color-6)" stroke-width="15" stroke-linecap="round"/><path d="M49.20761,343.39045v-28.83631" fill="none" stroke="url(#color-7)" stroke-width="15" stroke-linecap="round"/><path d="M75.60124,308.87318v-28.83631" fill="none" stroke="url(#color-8)" stroke-width="15" stroke-linecap="round"/><path d="M92.85987,331.38444v-28.83631" fill="none" stroke="url(#color-9)" stroke-width="15" stroke-linecap="round"/><path d="M77.10199,347.14232v-28.83631" fill="none" stroke="url(#color-10)" stroke-width="15" stroke-linecap="round"/><path d="M109.36813,311.87469v-28.83631" fill="none" stroke="url(#color-11)" stroke-width="15" stroke-linecap="round"/><path d="M126.62676,334.38595v-28.83631" fill="none" stroke="url(#color-12)" stroke-width="15" stroke-linecap="round"/><path d="M110.86888,350.14383v-28.83631" fill="none" stroke="url(#color-13)" stroke-width="15" stroke-linecap="round"/><path d="M139.38314,311.87469v-28.83631" fill="none" stroke="url(#color-14)" stroke-width="15" stroke-linecap="round"/><path d="M156.64177,334.38595v-28.83631" fill="none" stroke="url(#color-15)" stroke-width="15" stroke-linecap="round"/><path d="M140.88389,321.30752v28.83631" fill="none" stroke="url(#color-16)" stroke-width="15" stroke-linecap="round"/><path d="M176.15152,314.12582v-28.83631" fill="none" stroke="url(#color-17)" stroke-width="15" stroke-linecap="round"/><path d="M193.41015,307.80076v28.83631" fill="none" stroke="url(#color-18)" stroke-width="15" stroke-linecap="round"/><path d="M177.65227,352.39495v-28.83631" fill="none" stroke="url(#color-19)" stroke-width="15" stroke-linecap="round"/><path d="M448.53772,283.03838v28.83631" fill="none" stroke="url(#color-20)" stroke-width="15" stroke-linecap="round"/><path d="M465.79635,334.38595v-28.83631" fill="none" stroke="url(#color-21)" stroke-width="15" stroke-linecap="round"/><path d="M450.03847,350.14383v-28.83631" fill="none" stroke="url(#color-22)" stroke-width="15" stroke-linecap="round"/><path d="M482.3046,285.28951v28.83631" fill="none" stroke="url(#color-23)" stroke-width="15" stroke-linecap="round"/><path d="M499.56323,307.80076v28.83631" fill="none" stroke="url(#color-24)" stroke-width="15" stroke-linecap="round"/><path d="M483.80535,352.39495v-28.83631" fill="none" stroke="url(#color-25)" stroke-width="15" stroke-linecap="round"/><path d="M512.31961,314.12582v-28.83631" fill="none" stroke="url(#color-26)" stroke-width="15" stroke-linecap="round"/><path d="M529.57824,336.63707v-28.83631" fill="none" stroke="url(#color-27)" stroke-width="15" stroke-linecap="round"/><path d="M513.82036,352.39495v-28.83631" fill="none" stroke="url(#color-28)" stroke-width="15" stroke-linecap="round"/><path d="M546.0865,283.03838v28.83631" fill="none" stroke="url(#color-29)" stroke-width="15" stroke-linecap="round"/><path d="M563.34513,334.38595v-28.83631" fill="none" stroke="url(#color-30)" stroke-width="15" stroke-linecap="round"/><path d="M547.58725,350.14383v-28.83631" fill="none" stroke="url(#color-31)" stroke-width="15" stroke-linecap="round"/><path d="M593.36013,312.62507v-28.83631" fill="none" stroke="url(#color-32)" stroke-width="15" stroke-linecap="round"/><path d="M610.61876,306.30001v28.83631" fill="none" stroke="url(#color-33)" stroke-width="15" stroke-linecap="round"/><path d="M594.86088,350.8942v-28.83631" fill="none" stroke="url(#color-34)" stroke-width="15" stroke-linecap="round"/><g stroke-width="0" stroke-linecap="butt"><g><path d="M209.48429,347.30265l2.47636,-15.17504l4.95965,0.80934l-2.47636,15.17504z" fill="#27ff00" stroke="url(#color-35)"/><path d="M215.89654,342.40119l0.83576,-15.35305l5.01782,0.27315l-0.83576,15.35304z" fill="#23e400" stroke="url(#color-36)"/><path d="M186.64076,335.12242l1.69137,-15.28246l4.99476,0.55279l-1.69136,15.28245z" fill="#22e100" stroke="url(#color-37)"/><path d="M185.84336,339.21234l7.14616,-13.61421l4.44952,2.33558l-7.14616,13.6142z" fill="#27ff00" stroke="url(#color-38)"/><path d="M202.95386,337.11823c-10.57547,-2.60492 -18.09921,-8.97688 -16.80474,-14.23217c1.29447,-5.2553 10.91695,-7.40386 21.49242,-4.79894c10.57547,2.60492 18.09921,8.97688 16.80474,14.23217c-1.29447,5.25529 -10.91695,7.40386 -21.49242,4.79894z" fill="#27ff00" stroke="url(#color-39)"/><path d="M224.44629,332.31928c-0.09761,0.39629 -18.95293,-3.84387 -19.60029,-3.84266c-0.59396,0.00111 2.34904,-10.31442 2.33916,-10.50192c10.56836,2.60702 18.55505,9.09153 17.26113,14.34459z" fill="#23e300" stroke="url(#color-40)"/><path d="M202.95386,337.11823c-0.29972,-0.07383 1.67613,-10.50854 2.29847,-10.23722c2.93552,1.27978 19.56662,3.92531 19.19395,5.43828c-1.29447,5.25529 -10.91695,7.40386 -21.49242,4.79894z" fill="#25f000" stroke="url(#color-41)"/></g><path d="M184.71843,322.79147c-5.4902,-1.35233 -9.12972,-5.7418 -8.12909,-9.80414c1.00062,-4.06234 6.26247,-6.25925 11.75267,-4.90692c5.4902,1.35233 9.12972,5.7418 8.12909,9.80414c-1.00062,4.06234 -6.26247,6.25925 -11.75267,4.90692z" fill="#9bff88" stroke="url(#color-42)"/><path d="M175.68352,317.55906c-1.37909,-0.21189 -4.10628,-0.32185 -4.10628,-0.32185c0,0 -0.45436,-0.9168 -0.08199,-1.37036c0.05322,-0.06482 0.20612,0.37511 0.35536,0.33864c0.11508,-0.02812 0.13121,-0.42434 0.27711,-0.44226c0.11451,-0.01406 0.35506,0.34879 0.47601,0.33785c0.0764,-0.00691 -0.01679,-0.29418 0.05857,-0.30076c0.07441,-0.00649 0.31738,0.26771 0.38809,0.26086c0.072,-0.00697 0.09059,-0.23916 0.15594,-0.24722c0.14328,-0.01765 0.21276,0.29587 0.31534,0.32526c0.0971,0.02781 0.23092,-0.2276 0.2415,-0.27055c0.00604,-0.02451 0.01059,-0.38205 -0.21631,-0.56287c-0.07771,-0.06193 -0.32535,0.096 -0.41567,0.02497c-0.04166,-0.03277 -0.08428,-0.06627 -0.12745,-0.10024c-0.05081,-0.03998 0.07168,-0.3563 0.01989,-0.39725c-0.06071,-0.04802 -0.29575,0.17921 -0.35603,0.13098c-0.06115,-0.04894 0.15224,-0.45492 0.09355,-0.50282c-0.08402,-0.06857 -0.43827,0.22183 -0.51219,0.15854c-0.09073,-0.07767 0.11527,-0.34476 0.0497,-0.40823c-0.09257,-0.08963 -0.44148,0.03309 -0.4575,-0.01171c-0.13302,-0.3719 0.63301,-0.60418 0.63301,-0.60418c0,0 2.5951,1.27611 3.91875,1.68275c1.20193,0.36924 3.69328,0.6557 3.69328,0.6557l-0.17295,2.58375c0,0 -2.83044,-0.74398 -4.22973,-0.95899z" fill="#88e477" stroke="url(#color-43)"/><path d="M180.95153,313.01406c-0.37242,-0.09173 -0.59997,-0.46801 -0.50823,-0.84043c0.09173,-0.37242 0.468,-0.59996 0.84043,-0.50822c0.37242,0.09173 0.59996,0.46799 0.50823,0.84042c-0.09173,0.37242 -0.468,0.59997 -0.84042,0.50824z" fill="#5d554f" stroke="url(#color-44)"/></g><g stroke-width="0" stroke-linecap="butt"><g><path d="M160.09505,349.56862l3.24015,-15.03049l4.91241,1.05897l-3.24015,15.03049z" fill="#27ff00" stroke="url(#color-45)"/><path d="M166.74683,344.9975l1.61064,-15.29119l4.9976,0.52641l-1.61065,15.29117z" fill="#23e400" stroke="url(#color-46)"/><path d="M137.89631,336.24943l2.46159,-15.17745l4.96044,0.80452l-2.46159,15.17744z" fill="#22e100" stroke="url(#color-47)"/><path d="M136.89322,340.29382l7.8251,-13.23564l4.32579,2.55747l-7.8251,13.23563z" fill="#27ff00" stroke="url(#color-48)"/><path d="M154.0877,339.06717c-10.4303,-3.13608 -17.62238,-9.88016 -16.06396,-15.06331c1.55842,-5.18316 11.27719,-6.84264 21.7075,-3.70656c10.4303,3.13608 17.62238,9.88016 16.06396,15.06331c-1.55842,5.18315 -11.27719,6.84264 -21.7075,3.70656z" fill="#27ff00" stroke="url(#color-49)"/><path d="M175.7952,335.36059c-0.11752,0.39085 -18.73443,-4.79686 -19.38103,-4.82836c-0.59326,-0.02891 2.86734,-10.18251 2.86695,-10.37028c10.42309,3.13782 18.07184,10.0177 16.51408,15.19865z" fill="#23e300" stroke="url(#color-50)"/><path d="M154.0877,339.06717c-0.29561,-0.08888 2.2051,-10.4104 2.81293,-10.10797c2.86709,1.4265 19.34322,4.90921 18.89457,6.40141c-1.55842,5.18315 -11.27719,6.84264 -21.7075,3.70656z" fill="#25f000" stroke="url(#color-51)"/></g><path d="M136.59966,323.83708c-5.41484,-1.62808 -8.82785,-6.19588 -7.6232,-10.20246c1.20466,-4.00658 6.57082,-5.93474 11.98565,-4.30666c5.41484,1.62808 8.82785,6.19588 7.6232,10.20246c-1.20466,4.00658 -6.57082,5.93474 -11.98565,4.30666z" fill="#9bff88" stroke="url(#color-52)"/><path d="M127.84074,318.15473c-1.36661,-0.28132 -4.08477,-0.52898 -4.08477,-0.52898c0,0 -0.40744,-0.93859 -0.01263,-1.37275c0.05643,-0.06205 0.18689,0.38505 0.33779,0.35617c0.11635,-0.02227 0.15249,-0.41717 0.2991,-0.42769c0.11507,-0.00826 0.33698,0.36629 0.45833,0.36148c0.07665,-0.00304 -0.0019,-0.29466 0.0737,-0.29742c0.07465,-0.00272 0.30345,0.28341 0.37441,0.28014c0.07226,-0.00333 0.10256,-0.23428 0.16824,-0.23902c0.14399,-0.01039 0.19754,0.30625 0.2985,0.34078c0.09557,0.03268 0.24212,-0.21564 0.25486,-0.258c0.00727,-0.02417 0.02989,-0.38103 -0.18758,-0.57308c-0.07448,-0.06578 -0.32979,0.07944 -0.4164,0.00393c-0.03995,-0.03483 -0.08082,-0.07044 -0.12223,-0.10656c-0.04873,-0.0425 0.08959,-0.35222 0.03994,-0.39574c-0.0582,-0.05103 -0.30443,0.16403 -0.36219,0.11282c-0.0586,-0.05196 0.17504,-0.44665 0.11885,-0.49745c-0.08044,-0.07273 -0.44892,0.19939 -0.51955,0.13245c-0.08668,-0.08216 0.13255,-0.33849 0.07027,-0.4052c-0.08792,-0.09419 -0.44259,0.01074 -0.45632,-0.03482c-0.11406,-0.37815 0.66274,-0.57141 0.66274,-0.57141c0,0 2.52729,1.40564 3.82869,1.87865c1.18173,0.42951 3.65542,0.84152 3.65542,0.84152l-0.30331,2.57171c0,0 -2.78922,-0.88608 -4.17586,-1.17154z" fill="#88e477" stroke="url(#color-53)"/><path d="M133.33172,313.88179c-0.36731,-0.11044 -0.57555,-0.49773 -0.46511,-0.86505c0.11044,-0.36731 0.49773,-0.57554 0.86504,-0.4651c0.36731,0.11044 0.57554,0.49772 0.4651,0.86503c-0.11044,0.36731 -0.49772,0.57555 -0.86504,0.46511z" fill="#5d554f" stroke="url(#color-54)"/></g><g stroke-width="0" stroke-linecap="butt"><g><path d="M55.2787,350.87175l1.2249,-15.3269l5.00928,0.40034l-1.2249,15.3269z" fill="#27ff00" stroke="url(#color-55)"/><path d="M50.29659,344.04438l2.86045,-15.10735l4.93752,0.93488l-2.86046,15.10736z" fill="#23e400" stroke="url(#color-56)"/><path d="M80.39966,344.25095l2.0128,-15.24345l4.98201,0.65784l-2.0128,15.24346z" fill="#22e100" stroke="url(#color-57)"/><path d="M80.29877,350.27433l-3.68268,-14.92823l4.87898,-1.20361l3.68268,14.92824z" fill="#27ff00" stroke="url(#color-58)"/><path d="M49.34375,333.14514c0,-5.41237 8.82936,-9.79997 19.72092,-9.79997c10.89157,0 19.72092,4.38759 19.72092,9.79997c0,5.41237 -8.82936,9.79997 -19.72092,9.79997c-10.89157,0 -19.72092,-4.3876 -19.72092,-9.79997z" fill="#27ff00" stroke="url(#color-59)"/><path d="M49.34375,333.14514c0,-5.41007 9.30579,-9.79623 20.19095,-9.79997c-0.05444,0.1797 0.33601,10.89973 -0.24045,10.75659c-0.62829,-0.15601 -19.9505,-0.5485 -19.9505,-0.95663z" fill="#23e300" stroke="url(#color-60)"/><path d="M49.34375,333.14514c0,-1.55819 16.78116,-0.14932 19.93757,-0.68987c0.66917,-0.1146 0.09203,10.48984 -0.21665,10.48984c-10.89157,0 -19.72092,-4.3876 -19.72092,-9.79997z" fill="#25f000" stroke="url(#color-61)"/></g><path d="M79.95937,325.82009c0,-4.18376 4.58371,-7.57538 10.23801,-7.57538c5.6543,0 10.23801,3.39162 10.23801,7.57538c0,4.18376 -4.58371,7.57538 -10.23801,7.57538c-5.6543,0 -10.23801,-3.39162 -10.23801,-7.57538z" fill="#9bff88" stroke="url(#color-62)"/><path d="M95.88517,330.39532l0.45002,-2.55013c0,0 2.48756,0.31771 3.74292,0.24665c1.38249,-0.07826 4.20748,-0.69667 4.20748,-0.69667c0,0 0.68825,0.40875 0.47014,0.73804c-0.02627,0.03967 -0.3357,-0.16294 -0.44702,-0.09805c-0.07885,0.04595 0.05729,0.35455 -0.04938,0.40827c-0.08691,0.04377 -0.36143,-0.32293 -0.45941,-0.27644c-0.06844,0.03247 0.04166,0.47771 -0.02942,0.5106c-0.07006,0.03241 -0.24394,-0.24444 -0.31437,-0.21233c-0.06008,0.02738 -0.0168,0.36381 -0.0757,0.39048c-0.05005,0.02266 -0.09944,0.045 -0.14773,0.06685c-0.10468,0.04737 -0.30736,-0.16521 -0.39763,-0.12366c-0.26356,0.1213 -0.34465,0.46956 -0.34465,0.4948c0,0.04424 0.06885,0.32424 0.16978,0.32046c0.10663,-0.004 0.24908,-0.29181 0.38398,-0.2404c0.06153,0.02345 0.02405,0.25335 0.09229,0.27734c0.06702,0.02356 0.36852,-0.18457 0.43922,-0.16047c0.0716,0.02441 -0.08759,0.28106 -0.01506,0.30604c0.11482,0.03955 0.43518,-0.25524 0.543,-0.2142c0.13738,0.05229 0.05828,0.44087 0.16329,0.4957c0.13619,0.07111 0.38987,-0.31949 0.42604,-0.24382c0.25308,0.52946 -0.40736,1.31098 -0.40736,1.31098c0,0 -2.67435,-0.54549 -4.06409,-0.66958c-1.41011,-0.1259 -4.33634,-0.08046 -4.33634,-0.08046z" fill="#88e477" stroke="url(#color-63)"/><path d="M95.49893,324.10826c0,-0.38356 0.31093,-0.69448 0.69448,-0.69448c0.38356,0 0.69449,0.31093 0.69449,0.69448c0,0.38356 -0.31094,0.69449 -0.69449,0.69449c-0.38356,0 -0.69448,-0.31094 -0.69448,-0.69449z" fill="#5d554f" stroke="url(#color-64)"/></g><g stroke-width="0" stroke-linecap="butt"><g><path d="M277.28945,330.42718l-1.2249,-15.3269l5.00928,-0.40034l1.2249,15.3269z" fill="#27ff00" stroke="url(#color-65)"/><path d="M282.34333,324.13436l-2.86046,-15.10736l4.93752,-0.93488l2.86045,15.10735z" fill="#23e400" stroke="url(#color-66)"/><path d="M252.19576,324.06389l-2.0128,-15.24346l4.98201,-0.65784l2.0128,15.24345z" fill="#22e100" stroke="url(#color-67)"/><path d="M252.39968,328.22582l3.68268,-14.92824l4.87898,1.20361l-3.68268,14.92823z" fill="#27ff00" stroke="url(#color-68)"/><path d="M268.51276,322.1002c-10.89156,0 -19.72092,-4.3876 -19.72092,-9.79997c0,-5.41238 8.82935,-9.79997 19.72092,-9.79997c10.89156,0 19.72092,4.3876 19.72092,9.79997c0,5.41237 -8.82935,9.79997 -19.72092,9.79997z" fill="#27ff00" stroke="url(#color-69)"/><path d="M288.23368,312.30022c0,0.40813 -19.32221,0.80062 -19.9505,0.95663c-0.57646,0.14314 -0.18601,-10.57689 -0.24045,-10.75659c10.88516,0.00374 20.19095,4.3899 20.19095,9.79997z" fill="#23e300" stroke="url(#color-70)"/><path d="M268.51276,322.1002c-0.30868,0 -0.88582,-10.60444 -0.21665,-10.48984c3.15641,0.54055 19.93757,-0.86832 19.93757,0.68987c0,5.41237 -8.82935,9.79997 -19.72092,9.79997z" fill="#25f000" stroke="url(#color-71)"/></g><path d="M247.38005,312.55056c-5.6543,0 -10.23801,-3.39162 -10.23801,-7.57538c0,-4.18376 4.58371,-7.57538 10.23801,-7.57538c5.6543,0 10.23801,3.39162 10.23801,7.57538c0,4.18376 -4.58371,7.57538 -10.23801,7.57538z" fill="#9bff88" stroke="url(#color-72)"/><path d="M237.35592,309.63087c-1.38974,0.12409 -4.06409,0.66958 -4.06409,0.66958c0,0 -0.66044,-0.78152 -0.40736,-1.31098c0.03617,-0.07567 0.28985,0.31493 0.42604,0.24382c0.10501,-0.05483 0.02591,-0.44341 0.16329,-0.4957c0.10782,-0.04104 0.42818,0.25375 0.543,0.2142c0.07253,-0.02498 -0.08666,-0.28163 -0.01506,-0.30604c0.0707,-0.0241 0.3722,0.18403 0.43922,0.16047c0.06824,-0.02399 0.03076,-0.25389 0.09229,-0.27734c0.1349,-0.05141 0.27735,0.2364 0.38398,0.2404c0.10093,0.00378 0.16978,-0.27622 0.16978,-0.32046c0,-0.02524 -0.08109,-0.3735 -0.34465,-0.4948c-0.09027,-0.04155 -0.29295,0.17103 -0.39763,0.12366c-0.04829,-0.02185 -0.09768,-0.04419 -0.14773,-0.06685c-0.0589,-0.02667 -0.01562,-0.3631 -0.0757,-0.39048c-0.07043,-0.03211 -0.24431,0.24474 -0.31437,0.21233c-0.07108,-0.03289 0.03902,-0.47813 -0.02942,-0.5106c-0.09798,-0.04649 -0.3725,0.32021 -0.45941,0.27644c-0.10667,-0.05372 0.02947,-0.36232 -0.04938,-0.40827c-0.11132,-0.06489 -0.42075,0.13772 -0.44702,0.09805c-0.21811,-0.32929 0.47014,-0.73804 0.47014,-0.73804c0,0 2.82499,0.61841 4.20748,0.69667c1.25536,0.07106 3.74292,-0.24665 3.74292,-0.24665l0.45002,2.55013c0,0 -2.92623,-0.04544 -4.33634,0.08046z" fill="#88e477" stroke="url(#color-73)"/><path d="M241.38402,303.95784c-0.38355,0 -0.69449,-0.31093 -0.69449,-0.69449c0,-0.38355 0.31093,-0.69448 0.69449,-0.69448c0.38355,0 0.69448,0.31092 0.69448,0.69448c0,0.38355 -0.31092,0.69449 -0.69448,0.69449z" fill="#5d554f" stroke="url(#color-74)"/></g><g stroke-width="0" stroke-linecap="butt"><g><path d="M322.31447,301.2443l-1.2249,-15.3269l5.00928,-0.40034l1.2249,15.3269z" fill="#27ff00" stroke="url(#color-75)"/><path d="M327.36835,294.95148l-2.86046,-15.10736l4.93752,-0.93488l2.86045,15.10735z" fill="#23e400" stroke="url(#color-76)"/><path d="M297.22078,294.88101l-2.0128,-15.24346l4.98201,-0.65784l2.0128,15.24345z" fill="#22e100" stroke="url(#color-77)"/><path d="M297.4247,299.04294l3.68268,-14.92824l4.87898,1.20361l-3.68268,14.92823z" fill="#27ff00" stroke="url(#color-78)"/><path d="M313.53778,292.91732c-10.89156,0 -19.72092,-4.3876 -19.72092,-9.79997c0,-5.41238 8.82935,-9.79997 19.72092,-9.79997c10.89156,0 19.72092,4.3876 19.72092,9.79997c0,5.41237 -8.82935,9.79997 -19.72092,9.79997z" fill="#27ff00" stroke="url(#color-79)"/><path d="M333.2587,283.11734c0,0.40813 -19.32221,0.80062 -19.9505,0.95663c-0.57646,0.14314 -0.18601,-10.57689 -0.24045,-10.75659c10.88516,0.00374 20.19095,4.3899 20.19095,9.79997z" fill="#23e300" stroke="url(#color-80)"/><path d="M313.53778,292.91732c-0.30868,0 -0.88582,-10.60444 -0.21665,-10.48984c3.15641,0.54055 19.93757,-0.86832 19.93757,0.68987c0,5.41237 -8.82935,9.79997 -19.72092,9.79997z" fill="#25f000" stroke="url(#color-81)"/></g><path d="M292.40507,283.36768c-5.6543,0 -10.23801,-3.39162 -10.23801,-7.57538c0,-4.18376 4.58371,-7.57538 10.23801,-7.57538c5.6543,0 10.23801,3.39162 10.23801,7.57538c0,4.18376 -4.58371,7.57538 -10.23801,7.57538z" fill="#9bff88" stroke="url(#color-82)"/><path d="M282.38094,280.44799c-1.38974,0.12409 -4.06409,0.66958 -4.06409,0.66958c0,0 -0.66044,-0.78152 -0.40736,-1.31098c0.03617,-0.07567 0.28985,0.31493 0.42604,0.24382c0.10501,-0.05483 0.02591,-0.44341 0.16329,-0.4957c0.10782,-0.04104 0.42818,0.25375 0.543,0.2142c0.07253,-0.02498 -0.08666,-0.28163 -0.01506,-0.30604c0.0707,-0.0241 0.3722,0.18403 0.43922,0.16047c0.06824,-0.02399 0.03076,-0.25389 0.09229,-0.27734c0.1349,-0.05141 0.27735,0.2364 0.38398,0.2404c0.10093,0.00378 0.16978,-0.27622 0.16978,-0.32046c0,-0.02524 -0.08109,-0.3735 -0.34465,-0.4948c-0.09027,-0.04155 -0.29295,0.17103 -0.39763,0.12366c-0.04829,-0.02185 -0.09768,-0.04419 -0.14773,-0.06685c-0.0589,-0.02667 -0.01562,-0.3631 -0.0757,-0.39048c-0.07043,-0.03211 -0.24431,0.24474 -0.31437,0.21233c-0.07108,-0.03289 0.03902,-0.47813 -0.02942,-0.5106c-0.09798,-0.04649 -0.3725,0.32021 -0.45941,0.27644c-0.10667,-0.05372 0.02947,-0.36232 -0.04938,-0.40827c-0.11132,-0.06489 -0.42075,0.13772 -0.44702,0.09805c-0.21811,-0.32929 0.47014,-0.73804 0.47014,-0.73804c0,0 2.82499,0.61841 4.20748,0.69667c1.25536,0.07106 3.74292,-0.24665 3.74292,-0.24665l0.45002,2.55013c0,0 -2.92623,-0.04544 -4.33634,0.08046z" fill="#88e477" stroke="url(#color-83)"/><path d="M286.40904,274.77496c-0.38355,0 -0.69449,-0.31093 -0.69449,-0.69449c0,-0.38355 0.31093,-0.69448 0.69449,-0.69448c0.38355,0 0.69448,0.31092 0.69448,0.69448c0,0.38355 -0.31092,0.69449 -0.69448,0.69449z" fill="#5d554f" stroke="url(#color-84)"/></g><g stroke-width="0" stroke-linecap="butt"><g><path d="M344.60611,326.69165l1.2249,-15.3269l5.00928,0.40034l-1.2249,15.3269z" fill="#27ff00" stroke="url(#color-85)"/><path d="M339.624,319.86428l2.86045,-15.10735l4.93752,0.93488l-2.86046,15.10736z" fill="#23e400" stroke="url(#color-86)"/><path d="M369.72707,320.07085l2.0128,-15.24345l4.98201,0.65784l-2.0128,15.24346z" fill="#22e100" stroke="url(#color-87)"/><path d="M369.62618,326.09423l-3.68268,-14.92823l4.87898,-1.20361l3.68268,14.92824z" fill="#27ff00" stroke="url(#color-88)"/><path d="M338.67116,308.96504c0,-5.41237 8.82936,-9.79997 19.72092,-9.79997c10.89157,0 19.72092,4.38759 19.72092,9.79997c0,5.41237 -8.82936,9.79997 -19.72092,9.79997c-10.89157,0 -19.72092,-4.3876 -19.72092,-9.79997z" fill="#27ff00" stroke="url(#color-89)"/><path d="M338.67116,308.96504c0,-5.41007 9.30579,-9.79623 20.19095,-9.79997c-0.05444,0.1797 0.33601,10.89973 -0.24045,10.75659c-0.62829,-0.15601 -19.9505,-0.5485 -19.9505,-0.95663z" fill="#23e300" stroke="url(#color-90)"/><path d="M338.67116,308.96504c0,-1.55819 16.78116,-0.14932 19.93757,-0.68987c0.66917,-0.1146 0.09203,10.48984 -0.21665,10.48984c-10.89157,0 -19.72092,-4.3876 -19.72092,-9.79997z" fill="#25f000" stroke="url(#color-91)"/></g><path d="M369.28678,301.63999c0,-4.18376 4.58371,-7.57538 10.23801,-7.57538c5.6543,0 10.23801,3.39162 10.23801,7.57538c0,4.18376 -4.58371,7.57538 -10.23801,7.57538c-5.6543,0 -10.23801,-3.39162 -10.23801,-7.57538z" fill="#9bff88" stroke="url(#color-92)"/><path d="M385.21258,306.21522l0.45002,-2.55013c0,0 2.48756,0.31771 3.74292,0.24665c1.38249,-0.07826 4.20748,-0.69667 4.20748,-0.69667c0,0 0.68825,0.40875 0.47014,0.73804c-0.02627,0.03967 -0.3357,-0.16294 -0.44702,-0.09805c-0.07885,0.04595 0.05729,0.35455 -0.04938,0.40827c-0.08691,0.04377 -0.36143,-0.32293 -0.45941,-0.27644c-0.06844,0.03247 0.04166,0.47771 -0.02942,0.5106c-0.07006,0.03241 -0.24394,-0.24444 -0.31437,-0.21233c-0.06008,0.02738 -0.0168,0.36381 -0.0757,0.39048c-0.05005,0.02266 -0.09944,0.045 -0.14773,0.06685c-0.10468,0.04737 -0.30736,-0.16521 -0.39763,-0.12366c-0.26356,0.1213 -0.34465,0.46956 -0.34465,0.4948c0,0.04424 0.06885,0.32424 0.16978,0.32046c0.10663,-0.004 0.24908,-0.29181 0.38398,-0.2404c0.06153,0.02345 0.02405,0.25335 0.09229,0.27734c0.06702,0.02356 0.36852,-0.18457 0.43922,-0.16047c0.0716,0.02441 -0.08759,0.28106 -0.01506,0.30604c0.11482,0.03955 0.43518,-0.25524 0.543,-0.2142c0.13738,0.05229 0.05828,0.44087 0.16329,0.4957c0.13619,0.07111 0.38987,-0.31949 0.42604,-0.24382c0.25308,0.52946 -0.40736,1.31098 -0.40736,1.31098c0,0 -2.67435,-0.54549 -4.06409,-0.66958c-1.41011,-0.1259 -4.33634,-0.08046 -4.33634,-0.08046z" fill="#88e477" stroke="url(#color-93)"/><path d="M384.82634,299.92816c0,-0.38356 0.31093,-0.69448 0.69448,-0.69448c0.38356,0 0.69449,0.31093 0.69449,0.69448c0,0.38356 -0.31094,0.69449 -0.69449,0.69449c-0.38356,0 -0.69448,-0.31094 -0.69448,-0.69449z" fill="#5d554f" stroke="url(#color-94)"/></g><g stroke-width="0" stroke-linecap="butt"><g><path d="M585.79418,340.43274l-1.2249,-15.3269l5.00928,-0.40034l1.2249,15.3269z" fill="#27ff00" stroke="url(#color-95)"/><path d="M590.84806,334.13992l-2.86046,-15.10736l4.93752,-0.93488l2.86045,15.10735z" fill="#23e400" stroke="url(#color-96)"/><path d="M560.70049,334.06945l-2.0128,-15.24346l4.98201,-0.65784l2.0128,15.24345z" fill="#22e100" stroke="url(#color-97)"/><path d="M560.90441,338.23138l3.68268,-14.92824l4.87898,1.20361l-3.68268,14.92823z" fill="#27ff00" stroke="url(#color-98)"/><path d="M577.01749,332.10576c-10.89156,0 -19.72092,-4.3876 -19.72092,-9.79997c0,-5.41238 8.82935,-9.79997 19.72092,-9.79997c10.89156,0 19.72092,4.3876 19.72092,9.79997c0,5.41237 -8.82935,9.79997 -19.72092,9.79997z" fill="#27ff00" stroke="url(#color-99)"/><path d="M596.73841,322.30578c0,0.40813 -19.32221,0.80062 -19.9505,0.95663c-0.57646,0.14314 -0.18601,-10.57689 -0.24045,-10.75659c10.88516,0.00374 20.19095,4.3899 20.19095,9.79997z" fill="#23e300" stroke="url(#color-100)"/><path d="M577.01749,332.10576c-0.30868,0 -0.88582,-10.60444 -0.21665,-10.48984c3.15641,0.54055 19.93757,-0.86832 19.93757,0.68987c0,5.41237 -8.82935,9.79997 -19.72092,9.79997z" fill="#25f000" stroke="url(#color-101)"/></g><path d="M555.88478,322.55612c-5.6543,0 -10.23801,-3.39162 -10.23801,-7.57538c0,-4.18376 4.58371,-7.57538 10.23801,-7.57538c5.6543,0 10.23801,3.39162 10.23801,7.57538c0,4.18376 -4.58371,7.57538 -10.23801,7.57538z" fill="#9bff88" stroke="url(#color-102)"/><path d="M545.86065,319.63643c-1.38974,0.12409 -4.06409,0.66958 -4.06409,0.66958c0,0 -0.66044,-0.78152 -0.40736,-1.31098c0.03617,-0.07567 0.28985,0.31493 0.42604,0.24382c0.10501,-0.05483 0.02591,-0.44341 0.16329,-0.4957c0.10782,-0.04104 0.42818,0.25375 0.543,0.2142c0.07253,-0.02498 -0.08666,-0.28163 -0.01506,-0.30604c0.0707,-0.0241 0.3722,0.18403 0.43922,0.16047c0.06824,-0.02399 0.03076,-0.25389 0.09229,-0.27734c0.1349,-0.05141 0.27735,0.2364 0.38398,0.2404c0.10093,0.00378 0.16978,-0.27622 0.16978,-0.32046c0,-0.02524 -0.08109,-0.3735 -0.34465,-0.4948c-0.09027,-0.04155 -0.29295,0.17103 -0.39763,0.12366c-0.04829,-0.02185 -0.09768,-0.04419 -0.14773,-0.06685c-0.0589,-0.02667 -0.01562,-0.3631 -0.0757,-0.39048c-0.07043,-0.03211 -0.24431,0.24474 -0.31437,0.21233c-0.07108,-0.03289 0.03902,-0.47813 -0.02942,-0.5106c-0.09798,-0.04649 -0.3725,0.32021 -0.45941,0.27644c-0.10667,-0.05372 0.02947,-0.36232 -0.04938,-0.40827c-0.11132,-0.06489 -0.42075,0.13772 -0.44702,0.09805c-0.21811,-0.32929 0.47014,-0.73804 0.47014,-0.73804c0,0 2.82499,0.61841 4.20748,0.69667c1.25536,0.07106 3.74292,-0.24665 3.74292,-0.24665l0.45002,2.55013c0,0 -2.92623,-0.04544 -4.33634,0.08046z" fill="#88e477" stroke="url(#color-103)"/><path d="M549.88875,313.9634c-0.38355,0 -0.69449,-0.31093 -0.69449,-0.69449c0,-0.38355 0.31093,-0.69448 0.69449,-0.69448c0.38355,0 0.69448,0.31092 0.69448,0.69448c0,0.38355 -0.31092,0.69449 -0.69448,0.69449z" fill="#5d554f" stroke="url(#color-104)"/></g><g stroke-width="0" stroke-linecap="butt"><g><path d="M460.88001,306.62131l7.25474,-13.55666l4.43071,2.37107l-7.25474,13.55666z" fill="#27ff00" stroke="url(#color-105)"/><path d="M459.04559,298.3709l8.66584,-12.70108l4.15108,2.83225l-8.66585,12.70109z" fill="#23e400" stroke="url(#color-106)"/><path d="M486.55167,310.60416l7.94344,-13.16495l4.3027,2.59615l-7.94344,13.16496z" fill="#22e100" stroke="url(#color-107)"/><path d="M484.04931,316.08408l2.59755,-15.15476l4.95302,0.84895l-2.59756,15.15477z" fill="#27ff00" stroke="url(#color-108)"/><path d="M462.53302,288.00079c2.16544,-4.96031 12.01277,-5.44889 21.99462,-1.09128c9.98186,4.35761 16.31831,11.91127 14.15287,16.87158c-2.16544,4.96031 -12.01277,5.44889 -21.99462,1.09128c-9.98186,-4.35761 -16.31831,-11.91128 -14.15287,-16.87158z" fill="#27ff00" stroke="url(#color-109)"/><path d="M462.53302,288.00079c2.16452,-4.9582 12.44791,-5.25485 22.42539,-0.90323c-0.12179,0.14291 -4.05293,10.12377 -4.52397,9.76195c-0.51339,-0.39435 -18.0647,-8.48469 -17.90141,-8.85873z" fill="#23e300" stroke="url(#color-110)"/><path d="M462.53302,288.00079c0.62342,-1.42804 15.43927,6.57713 18.54831,7.34458c0.65913,0.1627 -4.11254,9.6505 -4.39544,9.527c-9.98186,-4.35761 -16.31831,-11.91128 -14.15287,-16.87158z" fill="#25f000" stroke="url(#color-111)"/></g><path d="M493.52217,293.53657c1.67388,-3.83431 7.2317,-5.10875 12.41372,-2.84652c5.18203,2.26223 8.02593,7.20447 6.35205,11.03878c-1.67388,3.83431 -7.2317,5.10875 -12.41372,2.84652c-5.18203,-2.26223 -8.02593,-7.20447 -6.35205,-11.03878z" fill="#9bff88" stroke="url(#color-112)"/><path d="M506.28727,304.10142l1.43271,-2.15708c0,0 2.15268,1.28642 3.33161,1.72356c1.29833,0.4814 4.13478,1.04489 4.13478,1.04489c0,0 0.46723,0.64997 0.13559,0.86449c-0.03995,0.02585 -0.24247,-0.28364 -0.37045,-0.26871c-0.09065,0.01056 -0.08935,0.34786 -0.2086,0.35441c-0.09716,0.00534 -0.20204,-0.44056 -0.31044,-0.43716c-0.07571,0.00238 -0.15295,0.45448 -0.23125,0.45618c-0.07718,0.00167 -0.12577,-0.32162 -0.20316,-0.32037c-0.06602,0.00106 -0.16095,0.3267 -0.2256,0.32758c-0.05494,0.00074 -0.10914,0.00146 -0.16214,0.00216c-0.11489,0.00153 -0.21559,-0.27438 -0.31494,-0.27242c-0.29008,0.00572 -0.50373,0.29245 -0.51383,0.31558c-0.0177,0.04054 -0.06663,0.3247 0.02739,0.36162c0.09932,0.039 0.34503,-0.16778 0.44809,-0.06669c0.04701,0.04611 -0.07932,0.24181 -0.02638,0.2911c0.052,0.04841 0.41158,-0.02171 0.46674,0.02866c0.05585,0.05102 -0.19272,0.22254 -0.13625,0.27445c0.08941,0.08218 0.50095,-0.05981 0.58335,0.02094c0.10498,0.10289 -0.12298,0.42736 -0.04867,0.51963c0.09636,0.11966 0.48513,-0.13682 0.48801,-0.053c0.02011,0.58649 -0.89785,1.0385 -0.89785,1.0385c0,0 -2.23273,-1.56991 -3.45675,-2.23966c-1.24196,-0.67956 -3.94196,-1.80867 -3.94196,-1.80867z" fill="#88e477" stroke="url(#color-113)"/><path d="M508.44868,298.18495c0.15346,-0.35152 0.56281,-0.51207 0.91433,-0.35862c0.35152,0.15346 0.51208,0.56282 0.35863,0.91433c-0.15346,0.35152 -0.56283,0.51208 -0.91434,0.35862c-0.35152,-0.15346 -0.51207,-0.56282 -0.35862,-0.91434z" fill="#5d554f" stroke="url(#color-114)"/></g></g></g></svg>