<svg version="1.1" xmlns="http://www.w3.org/2000/svg" xmlns:xlink="http://www.w3.org/1999/xlink" width="669.15312" height="518.42231" viewBox="0,0,669.15312,518.42231"><g transform="translate(73.21376,71.68426)"><g data-paper-data="{&quot;isPaintingLayer&quot;:true}" fill-rule="nonzero" stroke="none" stroke-linecap="butt" stroke-linejoin="miter" stroke-miterlimit="10" stroke-dasharray="" stroke-dashoffset="0" style="mix-blend-mode: normal"><path d="M267.5,180c0,15.74012 -12.31217,28.5 -27.5,28.5c-15.18783,0 -27.5,-12.75988 -27.5,-28.5c0,-15.74012 12.31217,-28.5 27.5,-28.5c15.18783,0 27.5,12.75988 27.5,28.5z" fill="#000000" stroke-width="0"/><path d="M229.40823,137.87017c1.48107,-0.37017 2.59177,-0.37017 2.59177,-0.37017c4.56092,0 9.42108,-0.32193 14,0c2.6148,0.18384 5.37416,-0.16367 7.82683,0.7612c5.33326,2.0111 8.49981,8.42331 12.24423,12.16773c1.01242,1.01242 2.38103,1.59993 3.48095,2.51653c3.5685,2.97375 6.36226,6.60899 9.1814,10.21465c2.7999,3.58104 5.61251,5.40128 8.12437,9.69882c1.43215,2.45026 2.11176,5.27576 3.381,7.81423c2.43582,7.79815 3.53128,20.12737 -0.5368,27.75382c-0.62828,1.17785 -4.89295,5.41978 -6.63093,7.14408c-4.25199,4.21852 -8.91356,7.87055 -14.77354,9.66142c-1.37639,0.42064 -2.88509,0.03206 -4.31215,0.21884c-3.51239,0.45973 -7.07256,1.36176 -10.5872,0.91954c-1.04585,-0.13159 -1.96225,-0.8151 -3,-1c-1.41324,-0.2518 -2.95652,0.21616 -4.29602,-0.29995c-2.33233,-0.89866 -4.38735,-2.41426 -6.44205,-3.8375c-0.32521,-0.22526 -0.2257,-0.87052 -0.5871,-1.03142c-0.65709,-0.29255 -1.46225,0.02451 -2.1497,-0.18707c-4.75956,-1.46485 -9.50414,-3.65219 -13.94258,-5.86583c-6.66991,-4.50104 -13.33489,-10.85662 -18.53527,-17.09708c-0.9166,-1.09992 -1.50411,-2.46853 -2.51653,-3.48095c-1.01242,-1.01242 -2.38103,-1.59993 -3.48095,-2.51653c-5.14932,-4.2911 -9.4484,-10.75429 -11.18047,-17.25701c-0.63487,-2.3835 -0.09002,-11.73903 0.49369,-13.12436c1.04908,-2.48977 3.39505,-4.20532 5.16773,-6.24423c2.89315,-3.32766 7.56648,-8.50232 11.14408,-10.63093c1.63551,-0.9731 3.63835,-1.1179 5.45753,-1.67685c1.72398,-0.78455 3.34579,-1.85083 5.17193,-2.35364c2.23038,-0.61411 4.6431,-0.35011 6.87217,-0.96894l-0.04678,-0.24285c0,0 3.92864,-1.96432 7.88036,-0.68556zM229.0878,157.04536l-2.66245,1.15606c-4.16588,0.97964 -6.49808,0.66446 -9.95589,2.67743c-0.84749,0.10772 -1.77773,-0.05765 -2.54247,0.32315c-0.48178,0.2399 -0.50791,0.95852 -0.85592,1.36907c-1.51134,1.78289 -4.01977,4.77242 -6,6c-0.01673,0.01037 -0.0341,0.01915 -0.05199,0.02643c-0.02366,0.19333 -0.36146,0.40454 -0.28658,0.60497c0.25556,0.68416 0.86738,1.18137 1.21178,1.82539c1.28414,2.40131 1.54082,3.19516 3.60775,4.9176c1.46111,1.21759 3.17418,2.1386 4.51905,3.48347c5.60464,5.60464 10.16056,13.03941 16.9482,17.42197c5.036,2.5297 10.98279,3.40493 15.90772,5.9471c1.33981,0.69159 2.3751,1.8748 3.4129,2.96858c0.08342,0.08792 -0.31841,0.14707 -0.43419,0.16165c1.57339,-0.16928 3.168,0.28916 4.69613,0.7009c1.77651,0.47866 3.58536,-0.86701 5.4128,-1.08046c0.56349,-0.06582 1.13192,0.33198 1.68785,0.21884c2.42152,-0.49279 6.84262,-5.43429 8.59553,-7.1945c0.49261,-0.49466 -0.28895,-1.37496 -0.298,-2.07301c-0.01729,-1.33322 -0.02327,-2.66687 0,-4c0.02432,-1.39312 0.35876,-2.91448 -0.2388,-4.17317c-1.00136,-2.00273 -1.55247,-4.21697 -2.619,-6.18577c-1.31569,-2.42874 -4.17724,-4.21344 -5.87563,-6.30118c-2.21377,-2.72127 -4.06426,-5.49007 -6.8186,-7.78535c-2.89806,-2.41505 -5.58747,-5.10446 -8.00252,-8.00252c-0.27076,-0.32491 -1.65226,-1.59675 -2.60199,-2.51583c-3.83566,0.85446 -10.25189,-0.03619 -13.84347,-0.03619c0,0 -1.27382,0 -2.9122,-0.45464z" fill="#ff0000" stroke-width="0.5"/><path d="M349.94427,198.97214c-4.47214,8.94427 -13.41641,4.47214 -13.41641,4.47214l-4.99733,-2.56542c-2.57434,-0.63405 -5.20797,-1.0632 -7.72301,-1.90214c-4.61846,-1.54056 -9.13506,-3.37787 -13.63436,-5.23792c-0.55866,-0.23096 -1.01607,-0.68954 -1.51252,-1.04643c-0.84414,-0.05988 -1.63919,-0.24102 -2.36664,-0.48792c-0.762,0.08498 -1.53095,0.27452 -2.29401,0.29556c-1.99924,0.05512 -4.00493,0.14029 -6,0c-0.14666,-0.01031 0.02325,-0.50583 -0.10216,-0.42908c-2.39371,1.46493 -5.17111,3.53516 -7.85231,4.57422c-4.94377,1.9159 -8.98964,1.85486 -14.04554,1.85486c0,0 -10,0 -10,-10c0,-4.14143 1.71514,-6.56771 3.7248,-7.98917c-3.57499,-0.00469 -7.14996,-0.01083 -10.7248,-0.01083c0,0 -10,0 -10,-10c0,-10 10,-10 10,-10c12.54814,0 26.11777,-1.3931 38.41052,1.29488c1.79093,0.39161 8.65146,2.99323 9.43658,3.5927c2.48981,1.90105 3.98275,4.85272 6.22396,7.04135l0.89183,0.89183c1.30526,0.58412 2.52904,1.42039 3.86394,1.94044c6.83601,2.6632 13.51906,5.05442 20.64263,6.85995l7.00267,3.43458c0,0 8.94427,4.47214 4.47214,13.41641z" fill="#ff5600" stroke-width="0.5"/><path d="M242.80855,294.43919c-3.93919,-9.19145 5.25226,-13.13064 5.25226,-13.13064l6.73171,-2.88033c7.6684,-3.82605 15.33563,-8.05897 22.34298,-13.02808c2.99202,-2.12173 6.36758,-4.07652 8.35799,-7.15746c1.5763,-2.43995 1.52716,-7.04787 1.50651,-9.74269c-0.03449,-4.50075 0.58083,-9.53139 0.04867,-14.01462c-0.68388,-5.76145 -1.04867,-11.14966 -1.04867,-16.98538c0,0 0,-10 10,-10c10,0 10,10 10,10c0,10.41191 1.06412,20.54037 1,31c-0.04078,6.65185 -0.80998,14.43251 -4.49349,20.25731c-1.75044,2.768 -4.37851,4.88204 -6.76313,7.12691c-9.29503,8.75031 -21.21509,15.01701 -32.5359,20.68755l-7.26829,3.11967c0,0 -9.19145,3.93919 -13.13064,-5.25226z" fill="#ff5600" stroke-width="0.5"/><path d="M192.44619,206.15278c2.48896,-0.95619 4.83229,-2.28499 7.36133,-3.1295c2.60722,-0.87061 5.39088,-1.1351 8,-2c8.6852,-2.87907 16.60939,-7.39669 24.72034,-11.46756c0,0 8.94427,-4.47214 13.41641,4.47214c4.47214,8.94427 -4.47214,13.41641 -4.47214,13.41641c-8.95395,4.45682 -17.72063,9.32992 -27.27966,12.53244c-6.33823,2.12347 -12.73328,3.75163 -18.97257,6.20011c0.5989,1.65335 1.10931,3.3325 1.51258,5.02564c1.32346,5.55654 1.5766,11.30474 2.96894,16.87217c0.67352,2.69316 1.0682,6.49124 3.36964,8.35429c0,0 7.07107,7.07107 0,14.14214c-7.07107,7.07107 -14.14214,0 -14.14214,0c-9.19629,-9.74846 -8.9433,-22.42836 -11.66142,-34.77354c-0.07365,-0.3345 -0.19464,-0.76674 -0.34989,-1.2606c-3.02716,0.14915 -6.523,-0.40665 -9.1147,-0.72412c-0.76139,0.76268 -1.31102,1.31848 -1.54841,1.56992c-8.42775,8.92646 -16.43094,18.56368 -25.70249,26.6718c-4.79079,4.18963 -10.1026,7.46294 -15.38974,10.93229l-6.16228,0.51317c0,0 -10,0 -10,-10c0,-10 10,-10 10,-10l-0.16228,0.51317c2.26189,-2.94475 5.81658,-4.62169 8.61026,-7.06771c8.77046,-7.679 16.32006,-16.88423 24.29751,-25.3282c4.59704,-4.86587 9.93007,-9.0445 14.34338,-14.06628c-0.33616,-2.97744 0.08895,-8.29513 6.70522,-10.5232c1.47013,-3.182 2.67011,-6.49552 3.71908,-9.69007c0,0 3.16228,-9.48683 12.64911,-6.32456c9.48683,3.16228 6.32456,12.64911 6.32456,12.64911c-1.51688,4.49697 -3.25565,9.04284 -5.38115,13.38894c0.78017,-0.30031 1.56079,-0.59889 2.34051,-0.89843z" fill="#ff5600" stroke-width="0.5"/><path d="M289.07107,147.57107c-7.07107,7.07107 -14.14214,0 -14.14214,0l-1.26882,-1.33765c-2.27083,-1.45371 -4.61302,-3.6816 -7.05363,-4.75027c-2.16741,-0.94905 -4.5776,-1.32093 -6.68735,-2.38559c-3.04117,0.6435 -6.13779,1.0892 -9.10736,1.99899c-2.68725,0.8233 -5.0722,2.52677 -7.80111,3.19922c-1.94648,0.47964 -4.00624,0.17014 -6.01066,0.20422c-5.66272,0.09629 -11.33582,0 -17,0c0,0 -2.28138,0 -4.66479,-1.08967c0.30084,0.53183 0.62674,1.04761 0.98529,1.54267c0,0 5.547,8.3205 -2.7735,13.8675c-8.3205,5.547 -13.8675,-2.7735 -13.8675,-2.7735c-2.89937,-4.52275 -4.22477,-9.31328 -6.62377,-14.07487c-0.41157,-0.81689 -0.81753,-1.63129 -1.21809,-2.44423c-2.38657,-2.05193 -3.32447,-4.86562 -3.32447,-4.86562l-0.06215,-0.22148c-2.694,1.44751 -7.10804,2.54431 -11.52209,-1.86973c-7.07107,-7.07107 0,-14.14214 0,-14.14214c0.71039,-0.71039 1.34813,-1.61732 2.23809,-2.05277l0.27323,-0.81968c0.1147,-0.37296 0.25063,-0.73663 0.40638,-1.08959c-0.33443,-0.57908 -0.65006,-1.17179 -0.93175,-1.78832c-0.8434,-1.84594 -1.16514,-3.89252 -1.89802,-5.78505c-0.71614,-1.84929 -2.71731,-2.88921 -4.08792,-4.32245c-2.40189,-2.51165 -4.15676,-5.6696 -5.41577,-8.90879l-0.51317,-4.16228c0,0 0,-10 10,-10c8.10299,0 9.64013,6.56584 9.93173,9.05694c1.20167,1.91928 4.44484,4.1667 4.80169,4.60317c1.24869,1.52732 2.39678,3.1675 3.24973,4.94637c0.94553,1.97196 1.20121,4.22214 2.10198,6.21495c1.46601,3.24333 3.81147,6.05524 5.15367,9.35173c2.51891,6.18657 5.11848,12.04525 8.058,18.04254c1.65834,-7.2157 9.70321,-7.2157 9.70321,-7.2157c3.66667,0 7.33333,0 11,0c2,0 4.00065,-0.05111 6,0c0.66638,0.01703 1.35393,0.40572 1.98934,0.20422c0.42156,-0.13368 0.83209,-0.29629 1.23592,-0.47644c-1.99373,-1.9936 -3.95075,-4.04265 -6.22526,-5.72779c0,0 -8,-6 -2,-14c6,-8 14,-2 14,-2c2.45259,1.85639 4.88748,3.76253 7.07107,5.92893c1.29456,1.28437 2.27617,2.9214 3.77604,3.95865c2.37816,1.64464 5.20649,2.60211 7.48946,4.37641c5.50339,-1.94217 10.98733,-3.93904 16.53168,-5.76094c5.21446,-1.7135 10.74928,-2.22755 16.13206,-3.30107c5.14615,-1.02633 10.45316,-2.61914 15.57434,-3.9034l4.42536,-0.29857c0,0 10,0 10,10c0,10 -10,10 -10,10l0.42536,-0.29857c-5.39889,1.346 -11.00495,3.00954 -16.42566,4.0966c-4.61745,0.92597 -9.40765,1.18763 -13.86794,2.69893c-0.42576,0.14426 -0.85124,0.28927 -1.27647,0.43493c0.16256,0.11357 0.32412,0.22523 0.48461,0.33469l2.73118,2.66235c0,0 7.07107,7.07107 0,14.14214zM186.64912,88.02152l-0.16228,-0.6838c0.00469,0.21588 0.06238,0.44537 0.16228,0.6838z" fill="#ff5600" stroke-width="0.5"/><path d="M318,248.5c0,-10 10,-10 10,-10h6c0.70297,0.06015 1.41652,0.31594 2.10892,0.18044c0.00008,-0.00002 0.00016,-0.00003 0.00023,-0.00005c0.03501,-0.1972 0.0501,-0.39178 0.01997,-0.57857c-0.16788,-1.04064 -0.86281,-1.95487 -1,-3c-1.00615,-7.665 -0.01881,-15.50533 2.38404,-22.7641c0,0 3.16228,-9.48683 12.64911,-6.32456c9.48683,3.16228 6.32456,12.64911 6.32456,12.64911c-1.37634,4.09281 -2.31841,8.88172 -1.61596,13.2359c0.8351,5.17643 2.79809,12.24448 -0.05413,17.3204c-1.53945,2.73966 -4.47816,4.49561 -7.16126,6.13164c-2.36582,1.44257 -5.06437,2.34655 -7.76441,2.96934c-1.91435,0.44156 -3.92738,0.12029 -5.89108,0.18044h-6c0,0 -10,0 -10,-10z" fill="#ff5600" stroke-width="0.5"/><path d="M79,131.5c0,-10 10,-10 10,-10h7c8.51946,0 17.3431,-0.66058 25.82481,0.03407c4.85451,0.39758 9.49823,2.16473 14.26076,3.18582c2.37524,0.50925 4.84995,0.48018 7.21197,1.04761c6.86255,1.6486 18.01857,5.92724 22.64954,11.66255c1.34659,1.66771 1.69318,3.93844 2.53977,5.90766c0,0 3.16228,9.48683 -6.32456,12.64911c-8.38349,2.7945 -11.828,-4.28896 -12.51581,-5.97441c-1.39526,-0.62835 -5.77557,-2.98726 -6.4733,-3.27363c-3.55368,-1.45854 -7.50255,-1.65423 -11.25873,-2.45869c-5.06473,-1.08471 -6.93768,-2.47845 -11.73924,-2.81418c-7.96224,-0.55672 -16.18466,0.03407 -24.17519,0.03407h-7c0,0 -10,0 -10,-10z" fill="#ff5600" stroke-width="0.5"/><path d="M313.47998,307.20001c5.29999,8.47998 -3.17999,13.77997 -3.17999,13.77997l-8.40842,5.24197c-2.85541,1.43026 -8.32887,4.29943 -12.75006,6.22782c2.37282,2.25035 4.89689,4.45738 7.93518,5.53529l7.34866,1.81351c0,0 9.70143,2.42536 7.27607,12.12678c-2.42536,9.70143 -12.12678,7.27607 -12.12678,7.27607l-8.65134,-2.18649c-2.38245,-0.99598 -5.00129,-1.55182 -7.14735,-2.98795c-2.71549,-1.81719 -6.19005,-4.93609 -9.5345,-8.15396c0.48365,2.00962 1.02064,4.0142 1.62942,6.02516l-0.49159,1.12572c0.05817,0.15688 0.11251,0.31562 0.16291,0.4761h0.4578v3c0,5.52285 -4.47715,10 -10,10c-2.76142,0 -5.26142,-1.11929 -7.07107,-2.92893l-4,-4l0.29252,-0.29252c-0.54616,-0.39079 -1.07092,-0.81318 -1.56986,-1.27364c-3.11373,-2.87358 -3.27677,-7.81497 -4.90959,-11.72478c-1.01583,-2.43242 -2.02897,-4.86596 -3.04185,-7.29961c-2.81104,-0.82285 -6.03712,-2.9594 -6.63898,-8.3762c-0.28733,-2.58596 0.17294,-4.57384 1.01122,-6.09981l-0.66531,-1.77366c-4.53144,-2.44099 -8.98026,-2.87163 -14.0323,-4.9111c-3.20994,-1.29583 -6.29807,-2.89706 -9.30176,-4.61775c-0.23544,-0.13488 -22.46953,-14.27419 -22.76158,-14.47763c-3.91165,-2.72492 -7.34002,-6.14043 -11.4104,-8.62201c-3.23443,-1.97193 -6.97724,-2.96463 -10.36726,-4.65513c-4.91665,-2.45179 -12.92839,-7.57181 -18.66469,-9.44999c-2.92062,-0.95627 -6.08562,-1.02488 -9,-2c-8.7645,-2.9325 -16.98235,-7.68862 -25.49431,-11.17748c-0.91771,-0.37615 -1.86039,-0.68267 -2.81829,-0.9411c-0.94043,1.29688 -1.72113,2.39744 -2.24833,3.18684c-2.97037,4.44761 -5.22188,9.3768 -8.46079,13.63282c-2.19592,2.8855 -5.47767,4.81103 -7.73494,7.6488c-2.061,2.59103 -2.96805,5.93681 -4.79192,8.6999l-0.37623,0.92513c0,0 -4.47214,8.94427 -13.41641,4.47214c-0.19067,-0.09533 -0.37523,-0.1927 -0.55388,-0.29197c-0.14967,0.45746 -0.29739,0.91565 -0.44309,1.37457c-1.18502,3.73254 -1.80307,7.63776 -3.11084,11.32908c-0.94998,2.68141 -2.89513,4.97391 -3.6379,7.71995c-0.42899,1.58597 0.19244,3.28131 0.21784,4.92409c0.04947,3.19862 -1.05643,6.87026 1.33989,9.26658l2.20711,1.41292c0,0 8.3205,5.547 2.7735,13.8675c-5.547,8.3205 -13.8675,2.7735 -13.8675,2.7735l-3.79289,-2.58708c-2.90522,-2.90522 -5.29614,-4.80453 -6.89891,-8.90659c-2.15771,-5.52237 -1.81838,-10.06073 -1.7612,-15.82683c0.03001,-3.02603 -0.47896,-6.13105 0.21784,-9.07591c0.85712,-3.62239 3.14461,-6.76237 4.3621,-10.28005c1.20527,-3.48236 1.76967,-7.16004 2.88916,-10.67092c1.83327,-5.7494 3.94627,-11.39418 6.26488,-16.9543c-0.58724,-0.148 -1.19443,-0.3168 -1.82642,-0.509c-15.73787,-4.78621 -17.8914,-20.83873 -22.38427,-34.31735c-0.24212,-0.72635 -0.53813,-1.43222 -0.85551,-2.12996c-1.24343,0.57992 -2.77682,0.93749 -4.66778,0.93749c-10,0 -10,-10 -10,-10l0.12913,-4.60182c0.64118,-1.92354 0.6476,-4.00327 1,-6c0.16765,-0.94991 0.36731,-1.89969 0.59402,-2.84739c-1.65278,-2.45664 -3.87683,-7.53925 1.20579,-12.62186c1.36986,-1.36986 2.73971,-2.20896 4.05816,-2.67153c0.44793,-2.18267 0.56003,-5.63555 0.28042,-6.95987c-0.22534,-1.06726 -1.31603,-1.78849 -1.64636,-2.82807c-0.17375,-0.54679 0.28778,-1.14129 0.20469,-1.70898c-0.03247,-0.2219 -0.24856,0.37335 -0.37285,0.56002c0,0 -8.3205,-5.547 -2.7735,-13.8675c5.547,-8.3205 13.8675,-2.7735 13.8675,-2.7735c1.87572,1.52001 4.21421,2.60238 5.62715,4.56002c1.30044,1.80177 1.38362,4.22624 2.20469,6.29102c0.6999,1.76005 1.99184,3.31271 2.35364,5.17193c1.1459,5.8885 0.62321,14.05442 -1.35364,19.76699c-0.16703,0.48268 -0.39153,0.94086 -0.63605,1.39062c3.88001,5.06914 4.70094,10.85516 6.73391,16.94745c0.80356,2.40806 2.19723,4.59168 3,7c0.86923,2.60768 1.13222,5.39184 2,8c0.76112,2.2876 2.0103,4.38645 2.8705,6.63867c1.55517,4.07181 0.65016,5.85672 4.74522,7.04398c1.20753,0.3501 2.47936,0.44051 3.73236,0.5439c0.21434,0.01769 0.42887,0.03199 0.64355,0.04367c2.49243,-4.98704 5.08763,-9.92136 7.72694,-14.81874c2.42308,-4.49616 4.60277,-9.13291 7.27812,-13.48368c5.29137,-8.60503 10.95201,-14.794 15.73489,-23.5404c3.59108,-6.56698 5.85521,-13.65675 8.39377,-20.65235c0,0 3.41743,-9.39793 12.81536,-5.9805c9.39793,3.41743 5.9805,12.81536 5.9805,12.81536c-3.04966,8.37023 -5.22267,15.24154 -9.4898,23.13302c1.56842,-1.85232 3.23991,-3.62997 4.51289,-5.68867c1.48125,-2.39552 2.2864,-5.14871 3.36589,-7.75012c2.25379,-5.43126 4.87684,-10.72558 6.73637,-16.30414c0.94022,-2.82065 1.16847,-5.86014 2.23792,-8.63436c0.74479,-1.93202 2.2887,-3.47045 3.15367,-5.35173c0.72877,-1.58507 1.06553,-3.32247 1.5983,-4.98371c0,0 1.74947,-5.24842 6.54967,-6.63651c0.01472,-0.15756 0.0318,-0.30948 0.05051,-0.45503c-4.91243,-2.33466 -9.95742,-4.28086 -14.94019,-6.50739c-5.06285,-2.26232 -10.75101,-1.2388 -16.17317,-1.2388c-3.33825,0 -6.68693,-0.31393 -10.01462,-0.04867c-3.05026,0.24315 -5.62822,2.41538 -8.51591,3.42752c-2.23662,0.78394 -4.802,0.51864 -6.94186,1.53747c-1.64496,0.7832 -2.6714,2.47848 -4.03368,3.68822c-5.27045,4.68029 -10.44125,9.4799 -15.42285,14.46653l-8,8c0,0 -7.07107,7.07107 -14.14214,0c-7.07107,-7.07107 0,-14.14214 0,-14.14214l8,-8c7.91233,-7.90481 8.11705,-8.46938 16.57715,-15.53347c2.60054,-2.17142 4.95486,-4.75969 7.96632,-6.31178c2.7813,-1.43346 6.11664,-1.39573 9.05814,-2.46253c2.17612,-0.78921 4.0319,-2.3365 6.2241,-3.07988c6.25433,-2.12086 12.78249,-1.54127 19.24536,-1.54127c8.5528,0 15.6859,-0.46202 23.82683,2.7612c2.07904,0.82315 3.93594,2.13997 6,3c7.20127,3.00053 18.02242,5.13234 21.41196,13.41196c2.1763,5.31603 0.64656,8.38093 -0.75196,12.98911c0,0 -1.74947,5.24842 -6.54967,6.63651c-0.13146,1.40691 -0.45033,2.36349 -0.45033,2.36349c-0.80057,2.33876 -1.38745,4.76196 -2.4017,7.01629c-0.74545,1.65686 -2.19564,2.95195 -2.84633,4.64827c-0.90413,2.35703 -0.96377,4.9707 -1.76208,7.36564c-0.87412,2.62236 -2.18828,5.0772 -3.23792,7.63436c-1.64539,4.00853 -6.45417,16.66649 -8.65983,20.31138c-2.06203,3.40754 -5.08716,6.14829 -7.29501,9.46322c-2.53728,3.80954 -4.40882,8.03287 -6.91077,11.86571c-0.36373,0.55721 -0.86898,1.28737 -1.47806,2.14429c7.41104,3.16435 14.59041,7.3532 22.23578,9.89133c2.91666,0.96828 6.08902,1.01478 9,2c8.78342,2.97276 12.98351,6.36366 21.33531,10.55001c3.81487,1.91221 7.98621,3.12843 11.63274,5.34487c4.47163,2.71795 8.29203,6.39243 12.5896,9.37799c6.89259,4.78835 13.99831,9.27774 21.23842,13.52237c5.62698,3.2989 12.08393,4.3171 17.925,6.76727c-0.10701,-0.27183 -0.2107,-0.54508 -0.31072,-0.8199c-1.24304,-3.41558 -1.27773,-7.16455 -2.20626,-10.67868c-0.77856,-2.94652 -2.03115,-5.74944 -2.90592,-8.66884c-2.88561,-9.63018 -4.93577,-19.30128 -7.96272,-28.87962c-1.71532,-5.42787 -2.66788,-11.10932 -4.78611,-16.39299c-1.82671,-4.55652 -4.42913,-8.76231 -6.62452,-13.15309c0,0 -4.47214,-8.94427 4.47214,-13.41641c8.94427,-4.47214 13.41641,4.47214 13.41641,4.47214c0.98221,1.96443 7.1422,14.26265 7.37548,14.84691c2.26972,5.68455 3.3719,11.76982 5.21389,17.60701c3.04855,9.66071 5.12349,19.41955 8.03728,29.12038c0.94266,3.13841 2.26342,6.16127 3.09408,9.33116c0.80206,3.06077 0.71334,6.34737 1.79374,9.32132c1.39705,3.84559 3.81137,7.24376 5.56678,10.93954c1.49951,3.15701 2.19157,6.74517 4.19374,9.60987c0.11951,0.17099 0.24253,0.33898 0.36875,0.50424c2.12078,-0.30678 4.25699,-0.72305 6.44587,-1.35827c2.41335,-0.70036 11.48093,-5.37686 13.07455,-6.17198l7.59158,-4.75803c0,0 8.47998,-5.29999 13.77997,3.17999zM106.34376,240.82586c2.17762,-2.87357 4.31602,-5.77408 6.28304,-8.79301c0.77895,-1.19551 1.49986,-2.42702 2.1993,-3.67181c-2.4878,3.38903 -4.92943,6.35558 -8.78719,12.53718c0.10219,-0.02578 0.20385,-0.04987 0.30484,-0.07237z" fill="#ffb800" stroke-width="0.5"/><path d="M403.13803,282.39634c6.07464,2.7612 6.25335,7.73338 5.69977,10.73643c1.14256,0.85852 2.21364,2.10944 3.10647,3.89509c0.70507,1.41015 1.07666,2.70913 1.2024,3.89695c2.41843,1.345 4.87167,2.63427 7.20083,4.12508c0.10278,0.06579 0.79883,0.39394 1.71671,0.88366c-0.01816,-0.47813 -0.03704,-0.95619 -0.0642,-1.43355v-7c0,0 0,-10 10,-10c10,0 10,10 10,10v7c-0.08917,3.09918 0.8133,6.39155 -0.26751,9.29753c-1.92246,5.16893 -4.27196,10.63872 -8.47518,14.20898c-4.19339,3.56191 -12.40834,1.14456 -16.51462,-1c-1.15493,-0.60318 -1.83598,-1.86792 -2.89681,-2.62445c-4.73001,-3.37323 -10.23977,-5.6816 -15.1298,-8.74362c-2.76318,5.24834 -5.7474,10.29704 -8.86585,15.51705c-1.53223,2.56481 -1.97177,5.97424 -4.27418,7.87815c-2.55599,2.1136 -6.0642,2.9717 -9.35421,3.39144c-2.95172,0.37658 -6.18335,0.22672 -8.8629,-1.06728c-2.39199,-1.15513 -3.82815,-3.71388 -5.42826,-5.83416c-0.0046,-0.00609 -0.00919,-0.01219 -0.01379,-0.01828c-2.64055,1.05021 -5.62824,2.01543 -7.44475,2.93892c0,0 -8.94427,4.47214 -13.41641,-4.47214c-4.47214,-8.94427 4.47214,-13.41641 4.47214,-13.41641c1.49995,-0.74089 2.96212,-1.56396 4.4963,-2.2304c-3.62063,-5.2298 -7.24126,-10.45959 -10.86188,-15.68939c-3.79473,-5.48128 -7.58947,-10.96256 -11.3842,-16.44384c0,0 -5.6921,-8.22192 2.52982,-13.91402c8.22192,-5.6921 13.91402,2.52982 13.91402,2.52982c7.26295,10.49093 14.52591,20.98187 21.78886,31.4728c4.33505,-2.19461 8.79446,-4.28351 13.33111,-6.15833c-4.9047,-4.34872 -9.82249,-8.6834 -15.15428,-12.48504c0,0 -8.13733,-5.81238 -2.32495,-13.94972c5.81238,-8.13733 13.94972,-2.32495 13.94972,-2.32495c6.14499,4.39645 8.36462,5.71217 13.931,10.75311c0.77858,0.70509 1.5586,1.42313 2.34142,2.14869c2.09125,-2.17211 5.72019,-4.29223 11.05323,-1.86812z" fill="#ffb800" stroke-width="0.5"/><path d="M458.42536,142.79857c9.70143,2.42536 7.27607,12.12678 7.27607,12.12678l-2.22471,8.76712c-2.47424,5.77744 -5.60733,11.25903 -8.75476,16.6991c-1.37136,2.37028 -2.10453,5.14422 -3.8399,7.26255c-2.13537,2.6066 -5.28757,4.21759 -7.58452,6.68299c-1.53365,1.64612 -9.07045,12.62231 -10.4249,14.32906c-1.64155,2.06853 -3.90368,3.65723 -5.26332,5.92104c-1.25785,2.09433 -1.47178,4.66826 -2.44293,6.90997c-3.27548,7.56079 -7.30695,14.7049 -11.84588,21.54982c0,0 -5.547,8.3205 -13.8675,2.7735c-8.3205,-5.547 -2.7735,-13.8675 -2.7735,-13.8675c3.92531,-5.85071 7.29992,-11.98488 10.15412,-18.45018c1.31406,-2.97659 1.88395,-6.29942 3.55707,-9.09003c1.80303,-3.00729 4.58235,-5.31245 6.73668,-8.07896c3.75476,-4.82172 7.49221,-11.25975 11.5751,-15.67094c1.88665,-2.03835 4.61308,-3.20379 6.41548,-5.31701c1.12626,-1.32049 1.30916,-3.22482 2.1601,-4.73745c1.99937,-3.55409 4.19694,-7.01729 6.01713,-10.66261c-0.72458,0.46598 -1.23379,0.6923 -1.23379,0.6923l-9.31972,4.1355c-12.97721,4.72634 -25.84049,9.67308 -39.16335,13.38828c-7.97938,2.22512 -16.63696,2.12016 -24.41604,4.82493c0,0 -9.48683,3.16228 -12.64911,-6.32456c-3.16228,-9.48683 6.32456,-12.64911 6.32456,-12.64911c8.33463,-2.70646 17.14287,-2.80078 25.58396,-5.17507c12.52368,-3.52262 24.62435,-8.17822 36.83665,-12.61172l8.68028,-3.8645c0,0 9.13812,-4.06138 13.1995,5.07673c0.04027,0.09061 0.07925,0.18072 0.11694,0.27034c1.42117,-2.69835 4.6548,-6.53925 11.1703,-4.91038z" fill="#ffb800" stroke-width="0.5"/><path d="M340.59347,47.85056c1.91838,-1.5328 7.69799,-5.20124 13.4776,0.57837c7.07107,7.07107 0,14.14214 0,14.14214l-4.90879,3.41577c-1.4631,0.47109 -2.90894,1.00504 -4.31517,1.62559c-0.73037,0.90224 -2.34896,1.85562 -2.70196,2.93311c-1.01595,3.10108 -1.63337,6.32971 -2.75529,9.39404c-0.50451,1.37799 -1.36888,2.63 -1.70677,4.05801c-1.62813,6.88092 -0.67567,14.50271 -0.68308,21.50242c-0.00441,4.16352 -0.284,10.54358 0.72581,14.67435c0.71963,2.94373 2.52124,5.56947 3.11373,8.5414c0.4821,2.41825 -0.28305,4.95592 0.06381,7.39724c0.31239,2.19872 1.45664,4.21014 1.89468,6.38731c1.68801,8.38985 2.12205,16.89007 6.14625,24.52756c0,0 4.47214,8.94427 -4.47214,13.41641c-8.94427,4.47214 -13.41641,-4.47214 -13.41641,-4.47214c-1.18852,-2.4599 -2.69294,-4.79083 -3.56555,-7.37969c-0.74581,-2.21266 -0.71481,-4.61943 -1.24537,-6.89332c-0.56682,-2.42929 -1.55315,-4.75341 -2.04282,-7.19942c-0.52754,-2.63513 -0.47575,-5.36421 -1,-8c-0.5136,-2.58223 -1.73106,-5.00661 -2.10532,-7.61269c-0.31288,-2.17867 0.49697,-4.44478 0.06381,-6.60276c-0.52464,-2.61373 -2.29523,-4.85908 -2.88627,-7.4586c-1.57079,-6.90865 -1.26741,-12.43752 -1.27419,-19.32565c-0.00869,-8.82974 -0.6578,-17.79861 1.31692,-26.49758c0.88646,-3.905 2.91042,-7.46913 4.08188,-11.29829c0.53125,-1.7365 0.6949,-3.60093 1.45606,-5.24966c2.13603,-4.62681 5.70549,-7.67783 9.29804,-11.06689c2.43489,-1.26446 4.89635,-2.50933 7.44057,-3.53702z" fill="#ffb800" stroke-width="0.5"/><path d="M395.07115,87.53252c0.29878,-2.50929 1.85219,-9.03252 9.92885,-9.03252c10,0 10,10 10,10l-0.51317,4.16228c-2.10708,5.79307 -5.6262,10.22381 -8.62904,15.47879c-0.52298,0.91521 -0.47702,2.08479 -1,3c-0.8269,1.44707 -2.25126,2.51099 -3,4c-0.81352,1.61785 -0.94501,3.50499 -1.619,5.18577c-1.31233,3.27268 -5.10009,9.59144 -6.55636,12.13456c-3.67506,6.4178 -7.43021,12.79459 -12.61136,18.10968c0,0 -7.07107,7.07107 -14.14214,0c-7.07107,-7.07107 0,-14.14214 0,-14.14214c3.96205,-3.75819 6.73382,-9.23342 9.38864,-13.89032c0.0942,-0.16525 4.63817,-7.84668 5.44364,-9.86544c0.89165,-2.23477 1.30913,-4.66009 2.381,-6.81423c0.74247,-1.49215 2.1731,-2.55293 3,-4c0.52298,-0.91521 0.47702,-2.08479 1,-3c0.8269,-1.44707 2.1731,-2.55293 3,-4c0.52298,-0.91521 0.47702,-2.08479 1,-3c0.85663,-1.49911 2.17517,-2.79425 2.92894,-4.32641z" fill="#ffb800" stroke-width="0.5"/><path d="M245.92893,13.42893c7.07107,-7.07107 14.14214,0 14.14214,0l3.66235,3.73118c2.70305,4.00553 4.54201,8.15493 6.91568,12.32062c0.41519,0.72863 0.84555,1.45085 1.29866,2.15811c8.05224,1.20595 8.05224,9.86116 8.05224,9.86116v3c0,5.52285 -4.47715,10 -10,10c-2.76142,0 -5.26142,-1.11929 -7.07107,-2.92893l-0.45589,-0.45589c0.09322,0.36871 0.18178,0.73955 0.26539,1.11264c0.80288,3.58271 0.7085,7.31002 1.17403,10.95196c0.69981,5.47475 1.8099,10.94928 2.89334,16.35906c0,0 1.96116,9.80581 -7.84465,11.76697c-9.80581,1.96116 -11.76697,-7.84465 -11.76697,-7.84465c-1.16409,-5.82795 -2.387,-11.73935 -3.10666,-17.64094c-0.3666,-3.00629 -0.17561,-6.09014 -0.82597,-9.04804c-1.51065,-6.87054 -5.42683,-12.79532 -8.31351,-19.02221c-1.07584,-2.3207 -1.31885,-5.00434 -2.59248,-7.22266c-1.32652,-2.31044 -3.74935,-3.8595 -5.09157,-6.16086c-1.05406,-1.8073 -0.77073,-4.24738 -1.97616,-5.95744c-3.47588,-4.931 -7.95696,-9.07116 -11.8602,-13.6713c-0.91741,-1.0812 -1.49985,-2.47137 -2.59803,-3.36838c-1.05198,-0.85926 -2.58166,-0.95325 -3.67671,-1.7569c-0.79691,-0.58484 -4.8338,-4.65118 -6.22396,-6.04135l-2,-2c0,0 -7.07107,-7.07107 0,-14.14214c7.07107,-7.07107 14.14214,0 14.14214,0l2,2c1.28947,1.28947 2.27429,2.92412 3.77604,3.95865c1.33698,0.92103 3.08942,1.18793 4.32329,2.2431c2.09024,1.78751 3.71344,4.05962 5.49603,6.15405c4.73202,5.55983 9.84571,10.83438 14.04574,16.80627c1.22197,1.73748 0.95339,4.20784 2.02384,6.04256c0.01714,0.02938 0.03448,0.05863 0.05201,0.08774c0.3309,-0.42972 0.7096,-0.86104 1.14092,-1.29236z" fill="#ffb800" stroke-width="0.5"/><path d="M138.60949,25.16999c-0.24973,-0.11291 -0.50706,-0.17741 -0.77176,-0.18316zM139.06394,25.43255c-2.48577,-0.28954 -9.06394,-1.82195 -9.06394,-9.93255c0,-10 10,-10 10,-10l4.16228,0.51317c1.69834,0.66011 3.53804,1.03381 5.09503,1.98032c7.19183,4.37201 9.26343,12.36865 13.89552,18.71588c3.35171,4.59276 7.30955,8.4288 11.84717,11.79063c0,0 8,6 2,14c-6,8 -14,2 -14,2c-8.07911,-6.11515 -14.77601,-13.31652 -19.76606,-22.18791c-0.80057,-1.42327 -2.23311,-5.51811 -4.17,-6.87954z" fill="#ffb800" stroke-width="0.5"/><path d="M51.05573,64.02786c4.47214,-8.94427 13.41641,-4.47214 13.41641,-4.47214l3.52786,1.94427c5.88783,4.45655 10.70017,9.05598 14.59948,15.23902c4.0584,-1.72818 7.76107,-4.11309 11.93105,-5.61787c2.80739,-1.01307 5.81091,-1.37804 8.67359,-2.22235c3.1605,-0.93215 6.1792,-2.34349 9.38536,-3.10392c16.12001,-3.82332 31.92571,-4.28733 48.41052,-4.29488c15.50579,-0.0071 20.86346,-0.4721 35.33948,1.09012c8.86403,0.95658 17.56133,3.14995 26.2272,5.24489c4.51635,1.09181 8.83437,2.96762 13.39448,3.85919c0,0 9.80581,1.96116 7.84465,11.76697c-1.96116,9.80581 -11.76697,7.84465 -11.76697,7.84465c-12.85845,-2.61689 -25.16984,-7.49228 -38.37832,-8.89592c-13.03968,-1.3857 -18.46554,-0.90303 -32.66052,-0.90988c-14.82468,-0.00716 -29.091,0.23811 -43.58948,3.70512c-2.9464,0.70457 -5.70754,2.04375 -8.61464,2.89608c-2.41149,0.70702 -4.95629,0.94238 -7.32641,1.77765c-3.67772,1.29608 -6.84752,3.59516 -10.46946,5.037c0,0.82377 0,2.58415 0,2.58415c0,5.52285 -4.47715,10 -10,10c-4.49839,0 -8.30305,-2.97024 -9.55975,-7.05648l-1.72254,-5.16763c-1.62257,-1.91847 -2.12867,-4.56674 -3.3668,-6.75662c-2.68405,-4.74724 -6.04272,-7.82742 -10.3509,-11.01927l-0.47214,-0.05573c0,0 -8.94427,-4.47214 -4.47214,-13.41641z" fill="#ffb800" stroke-width="0.5"/><path d="M347,-39.5c6,-8 14,-2 14,-2l3.77572,2.83661c1.72378,1.36449 3.82895,2.35241 5.17134,4.09346c1.30882,1.69751 1.75399,3.91339 2.53977,5.90766c2.19345,5.56688 4.1491,12.25627 5.30365,18.12598c0.3214,1.634 0.18337,3.36716 0.71935,4.94385c0.70256,2.06672 2.22407,3.78806 2.94891,5.84708c0.75631,2.14842 2.01703,10.27528 2.40521,12.60137c0,0 1.64399,9.86394 -8.21995,11.50793c-9.86394,1.64399 -11.50793,-8.21995 -11.50793,-8.21995c-0.52172,-3.13454 -0.47038,-6.42655 -1.59479,-9.39863c-0.81006,-2.14118 -2.33773,-3.97762 -3.05109,-6.15292c-1.36479,-4.16174 -1.57081,-8.71158 -2.97701,-12.93016c-0.80784,-2.42352 -1.41588,-4.90913 -2.11437,-7.3664c-0.25324,-0.89088 -0.76905,-1.71479 -0.88563,-2.6336c-0.00193,-0.01518 0.00155,-0.02847 0.00942,-0.04008c-0.09937,0.01482 -0.19873,0.02996 -0.29831,0.04119l-4.22428,-3.16339c0,0 -8,-6 -2,-14z" fill="#ffb800" stroke-width="0.5"/><path d="M14,46.5c0,-10 10,-10 10,-10l4.22183,0.07492c7.14331,1.69528 14.35964,1.71504 21.54699,3.08276c4.39761,0.83684 24.79112,6.38054 28.05877,7.25612c6.66045,1.78469 13.4545,3.13209 19.97866,5.36413c1.86901,0.63942 3.7079,1.35746 5.53085,2.11732c-2.20342,-4.19937 -5.18319,-9.59461 -5.81543,-10.59261c-2.18438,-3.44807 -4.8721,-6.56229 -7.02049,-10.0329c-2.21824,-3.58347 -3.89357,-7.48147 -6.05932,-11.0969c-5.6928,-9.50333 -12.43834,-19.27957 -19.28824,-27.9733c-5.95001,-7.55161 -8.8185,-9.33954 -15.40813,-16.3168c-5.5304,-5.85573 -10.88305,-11.88378 -16.57733,-17.58027l-7.75321,-6.7767c0,0 -7.52577,-6.58505 -0.94072,-14.11081c6.58505,-7.52577 14.11081,-0.94072 14.11081,-0.94072l8.24679,7.2233c5.97709,5.975 11.61973,12.27545 17.42267,18.41973c7.72515,8.17955 9.31368,8.48031 16.59187,17.6832c7.36419,9.31162 14.59113,19.8415 20.71176,30.0267c2.13184,3.54756 3.76212,7.38404 5.94068,10.9031c2.13493,3.44859 4.81811,6.53503 6.97951,9.9671c1.92002,3.04878 8.3832,15.05295 9.84142,18.67741c1.67118,4.15378 2.85098,8.4867 4.24165,12.74445c2.31774,0.87983 4.60994,1.81793 6.83911,2.90105c5.54482,2.69415 10.63431,6.24127 15.87639,9.48536c13.33095,8.24993 25.74591,16.8954 37.95947,26.67723c2.80114,2.24343 5.56285,4.5445 8.49084,6.61964c5.21682,3.69728 10.72058,5.76503 15.34386,10.12644c0,0 7.07107,7.07107 0,14.14214c-7.07107,7.07107 -14.14214,0 -14.14214,0c-1.9603,-2.42158 -12.08651,-7.47285 -12.65614,-7.87356c-3.28174,-2.30857 -6.37466,-4.87552 -9.50916,-7.38036c-11.62655,-9.29101 -23.37929,-17.43906 -36.04053,-25.32277c-1.32307,-0.82383 -2.63344,-1.67255 -3.94473,-2.52037c-0.44378,0.69442 -1.00599,1.39574 -1.70731,2.09706c-7.07107,7.07107 -14.14214,0 -14.14214,0c-3.72577,-3.94947 -6.18827,-8.56035 -8.12961,-13.44176c-1.19142,-0.43595 -2.37751,-0.88463 -3.5522,-1.36022c-6.01009,-2.43326 -11.78482,-5.46781 -17.9188,-7.5693c-6.09041,-2.08656 -12.44419,-3.306 -18.66491,-4.9642c-1.23738,-0.32984 -23.16863,-6.27095 -26.43225,-6.89327c-6.81083,-1.2987 -13.7091,-1.11476 -20.45301,-2.91724l-1.77817,0.07492c0,0 -10,0 -10,-10z" fill="#fdff00" stroke-width="0.5"/><path d="M322.547,-37.1795c-8.3205,5.547 -13.8675,-2.7735 -13.8675,-2.7735l-2.29752,-4.05022c-5.87398,-2.36615 -11.62824,-6.68815 -17.9838,-7.62591c-2.76974,-0.40867 -5.59849,0.1157 -8.39818,0.12913c-8.30312,0.03982 -18.66759,-0.51185 -26.28142,3.81675c-2.69433,1.53177 -13.28832,11.18494 -15.30102,12.85234c-3.00191,2.48691 -6.5068,4.40601 -9.18593,7.23769c-2.87601,3.03977 -4.76277,6.88642 -7.31495,10.20275c-2.84793,3.70063 -6.09939,7.0836 -8.87704,10.83727c-3.00676,4.06328 -11.74455,17.90192 -14.58127,22.38763c-2.78548,4.4047 -7.31225,12.65315 -11.73869,15.86834c-6.4661,4.69672 -14.46306,2.2497 -21.55013,1.7627c0,0 -9.96546,-0.83045 -9.135,-10.79591c0.83045,-9.96546 10.79591,-9.135 10.79591,-9.135c3.32644,0.34551 6.70546,0.35359 9.97933,1.03654c0.55247,0.11525 -1.53924,1.29044 -1.52946,0.72616c0.01742,-1.00524 1.03305,-1.72521 1.56159,-2.58046c3.40839,-5.51524 8.46512,-13.59998 11.77905,-18.67497c5.35802,-8.20531 11.45634,-15.90774 17.46236,-23.65134c2.99274,-3.85856 5.32473,-8.25419 8.68505,-11.79725c3.19264,-3.36627 7.25771,-5.78288 10.81407,-8.76231c4.91953,-4.12146 13.3315,-12.21061 18.69898,-15.14766c10.74499,-5.87959 23.88761,-6.22792 35.71858,-6.18325c3.86749,0.0146 7.78576,-0.49965 11.60182,0.12913c10.02552,1.65192 19.2711,7.59945 28.0162,12.37409l5.70248,7.94978c0,0 5.547,8.3205 -2.7735,13.8675z" fill="#fdff00" stroke-width="0.5"/><path d="M425.28086,2.53738c-9.03738,4.28086 -13.31824,-4.75651 -13.31824,-4.75651l-0.43827,-0.92524c-2.7276,-5.78417 -5.05265,-11.77589 -8.1828,-17.3525c-2.33893,-4.16698 -5.19484,-8.04022 -8.16932,-11.7801c-2.89807,-3.64382 -6.22755,-6.92344 -9.40951,-10.32217c-2.15851,-2.30555 -4.26411,-4.67363 -6.60982,-6.78843c-0.2496,-0.22503 -0.6155,-0.3472 -0.98928,-0.45395c-0.86296,0.64169 -1.8185,1.17002 -2.6116,1.89607c-4.58454,4.19699 -10.05951,10.40146 -13.9729,14.96903c-6.92149,8.07851 -13.06299,16.80161 -19.93429,24.92287c-11.00284,13.00437 -23.87742,24.81196 -33.32433,39.10056c0,0 -5.547,8.3205 -13.8675,2.7735c-8.3205,-5.547 -2.7735,-13.8675 -2.7735,-13.8675c9.9907,-14.8918 23.15105,-27.28052 34.67567,-40.89944c9.62308,-11.37182 18.12322,-23.52622 28.36911,-34.41387c6.40525,-6.80645 15.77051,-17.58642 26.57325,-14.87218c8.76453,2.20213 12.8928,7.50967 18.93975,13.83164c8.18295,8.55512 14.48708,15.46026 20.42117,25.89773c3.42922,6.03165 5.96044,12.53134 8.94066,18.79702l0.43827,0.92524c0,0 4.28086,9.03738 -4.75651,13.31824z" fill="#fdff00" stroke-width="0.5"/><path d="M545,106.5c-10,0 -10,-10 -10,-10l0.08848,-8.67267c-1.84507,-6.54209 -3.13843,-15.74043 -7.2009,-21.48023c-1.1947,-1.68798 -2.54126,-3.74766 -4.55691,-4.20995c-0.76635,-0.17576 -1.54491,0.33495 -2.33066,0.36285c-1.925,0.06835 -3.86684,-0.31397 -5.77817,-0.07492c-4.25323,0.53193 -8.19288,2.36236 -12.01435,4.1467c-2.90386,1.35589 -5.9609,2.46222 -8.63358,4.23073c-5.6342,3.72814 -11.12359,11.39065 -15.52469,15.79035c-2.9006,2.89968 -6.20231,5.37182 -9.1889,8.18286c-4.40011,4.14147 -10.57693,11.66411 -16.55024,14.16056c-2.25491,0.94241 -4.87338,0.37581 -7.31007,0.56372c0,0 -10,0 -10,-10c0,-10 10,-10 10,-10c0.70874,0.57908 1.69683,-0.79118 2.33079,-1.45128c2.5524,-2.65765 5.12556,-5.29906 7.8089,-7.82444c2.85921,-2.69088 6.03523,-5.04037 8.8111,-7.81714c3.17973,-3.18075 5.82457,-6.87035 9.02776,-10.02748c12.36999,-12.19212 29.53863,-20.19643 47.02145,-19.87966c2.55888,0.04636 5.22955,-0.41012 7.66934,0.36285c5.67668,1.79848 11.9887,7.09829 15.44309,11.79005c6.21274,8.43815 8.19728,20.72925 10.7991,30.51977l0.08848,11.32733c0,0 0,10 -10,10z" fill="#fdff00" stroke-width="0.5"/><path d="M536.36614,291.04058c6.45942,-7.63386 14.09329,-1.17444 14.09329,-1.17444l12.9367,10.94688c2.84815,2.49871 5.31592,5.51318 8.54446,7.49612c1.03758,0.63727 2.40292,0.2232 3.64507,0.19009c-0.20969,-1.11699 -0.41974,-2.23237 -0.86463,-3.27088c-0.99058,-2.31235 -2.77204,-4.22509 -3.79411,-6.52369c-3.76853,-8.47537 -6.56333,-17.3957 -10.82209,-25.63565c-6.41853,-12.41871 -14.23901,-24.43592 -21.59616,-36.28723c-9.6221,-15.4998 -19.10895,-31.21345 -29.27652,-46.36705c-7.45296,-11.10778 -12.02581,-17.52941 -20.61637,-27.17135c-2.57024,-2.8848 -4.5946,-6.96239 -8.28511,-8.10623c-1.38368,-0.42886 -2.88205,0.36285 -4.33066,0.36285c0,0 -10,0 -10,-10c0,-10 10,-10 10,-10c2.33716,0 8.43409,-0.05433 9.66934,0.36285c11.76073,3.97191 21.22668,17.30011 28.26297,26.54793c13.66779,17.96362 25.19591,37.62653 37.14766,56.74919c9.19632,14.71401 18.8533,29.32508 26.81521,44.77101c4.37349,8.48448 7.30262,17.64105 11.17791,26.36435c1.16087,2.61313 3.18778,4.80432 4.20589,7.47631c3.15838,8.28905 2.6592,9.09899 2.5919,16.33017c-0.78812,2.2185 -1.03987,4.70906 -2.36437,6.65549c-4.46865,6.56695 -9.41405,7.658 -17.4188,7.7423c-4.05428,0.0427 -8.37756,-0.04489 -12.02829,-1.80876c-5.12333,-2.47536 -8.97036,-7.00258 -13.45554,-10.50388l-13.0633,-11.05312c0,0 -7.63386,-6.45942 -1.17444,-14.09329z" fill="#fdff00" stroke-width="0.5"/><path d="M219.4453,280.5154c9.9846,-0.5547 10.5393,9.4299 10.5393,9.4299l0.8906,16.03079c1.10471,20.02153 3.77392,39.49723 6.3938,59.37771c2.20559,16.73671 1.37646,19.95122 7.92468,35.21221c4.74211,11.05175 7.30753,14.82769 14.0436,23.03313c1.01105,1.2316 1.85319,2.72361 3.23218,3.522c0.55291,0.32012 1.19266,-0.48397 1.82165,-0.59599c3.47097,-0.61814 6.54329,-0.06328 9.42211,-2.80182c2.49125,-2.36985 4.17682,-5.463 6.26523,-8.1945c6.3802,-9.23157 13.50797,-19.27905 19.25549,-28.84093c6.21752,-10.34381 10.21929,-22.3822 14.87885,-33.53109c2.38338,-5.7027 5.36572,-11.18623 7.18827,-17.09212c0.85437,-2.76855 0.48041,-5.77498 0.75849,-8.65899c1.12843,-11.70308 2.06431,-23.43821 2.38896,-35.19109c0.4447,-16.09905 0.9322,-32.29355 0.55636,-48.40257c-0.24464,-10.48561 -1.1907,-20.94411 -1.96356,-31.40406c-0.62612,-8.47395 -2.46187,-16.83273 -3.02348,-25.3112c-0.01997,-0.3015 -0.01782,-17.67855 -0.01782,-22.59679c0,0 0,-10 10,-10c10,0 10,10 10,10c0,7.13441 -0.49252,14.28461 -0.01782,21.40321c0.55153,8.27083 2.35942,16.42261 2.97652,24.6888c0.59336,7.94831 1.27159,15.89658 1.6933,23.85553c7.74716,0.10542 9.19584,8.31461 9.19584,8.31461l2.52429,14.30433c3.12004,17.69887 5.06459,35.16481 7.51757,52.95233c0.93549,6.78363 2.13702,13.52958 3.45336,20.25204c1.60111,-8.88048 3.58744,-20.18712 3.73587,-21.02476c1.67299,-22.37602 2.63938,-44.62721 3.31988,-67.05816c0.7862,-25.91534 1.15913,-51.43803 -2.2887,-77.20807c-2.70404,-20.21074 -8.16444,-41.0184 -13.69677,-60.63454c-5.58133,-19.78987 -14.62949,-38.38834 -20.06098,-58.21415c0,0 -2.63117,-9.64764 7.01646,-12.27881c9.64764,-2.63117 12.27881,7.01646 12.27881,7.01646c5.34191,19.68452 14.38342,38.14379 19.93902,57.78585c5.80157,20.51166 11.45441,42.22731 14.30323,63.36546c3.63296,26.95644 3.32035,53.66295 2.49974,80.77358c-0.69821,23.06668 -1.65664,45.95413 -3.46856,68.9602c-0.6114,3.47808 -5.31079,30.66698 -6.27556,34.38505c-0.59461,2.29153 -7.20999,20.94851 -9.79841,22.47346c-10.74093,6.32795 -17.38983,-0.6753 -21.0859,-9.28559c-3.21065,-7.47947 -6.81073,-30.42108 -8.12129,-37.75748c-0.72479,-4.05728 -1.37506,-8.1237 -1.98038,-12.19584c-0.43634,6.68468 -1.01197,13.36098 -1.69924,20.02226c-0.39711,3.84899 -0.15548,7.8315 -1.26137,11.53953c-2.04428,6.85445 -5.39196,13.25057 -8.1058,19.86855c-4.85896,11.84909 -9.27062,24.51109 -15.82707,35.50824c-6.43846,10.79923 -13.60768,20.84617 -20.74451,31.15907c-3.24492,3.93517 -5.82019,8.53577 -9.73477,11.8055c-5.75457,4.80662 -13.28651,6.88566 -20.57789,7.19818c-3.39548,0.14554 -7.05981,0.75498 -10.17835,-0.59599c-6.80283,-2.94702 -15.16829,-12.88397 -18.92805,-18.94914c-7.42003,-11.96982 -13.15569,-24.3994 -16.34561,-38.17768c-0.12374,-0.53447 -3.43273,-25.40715 -4.16916,-30.93039c-2.29634,-17.22256 -4.21121,-33.38087 -5.18172,-50.73614l-0.8906,-16.03079c0,0 -0.5547,-9.9846 9.4299,-10.5393z" fill="#fdff00" stroke-width="0.5"/><path d="M36.19644,368.65117c7.84883,6.19644 1.65238,14.04527 1.65238,14.04527l-2.60711,3.30234c-3.97807,5.02255 -8.34839,9.75794 -11.9342,15.06764c-3.16737,4.6901 -5.4902,9.89757 -8.29334,14.81498c2.46576,-1.39744 4.85984,-2.94503 7.37202,-4.25343c5.24285,-2.7306 10.57062,-5.29498 15.85592,-7.94247c14.15765,-9.1761 28.50365,-18.10025 42.56988,-27.412c5.21251,-3.45065 10.65418,-6.5761 15.64701,-10.33758c1.50719,-1.13548 2.47043,-2.85343 3.72876,-4.25968c4.50393,-5.0334 8.96158,-10.10963 13.55772,-15.05897c7.84434,-8.44716 10.0157,-8.70465 19.55025,-19.49256c2.05135,-2.32101 3.45074,-5.14523 5.18879,-7.70927c3.7683,-5.55912 7.48155,-11.15638 11.33023,-16.66016c3.62471,-5.1835 18.0247,-24.68004 20.88463,-28.832c5.62455,-8.16557 10.59936,-16.76217 15.70591,-25.2613c3.33067,-5.54343 6.71228,-11.06521 9.72803,-16.78607c2.68916,-5.1013 4.56265,-10.61462 7.37126,-15.65114c1.23241,-2.21 3.12447,-3.98114 4.68671,-5.9717c0,0 6.24695,-7.80869 14.05564,-1.56174c7.80869,6.24695 1.56174,14.05564 1.56174,14.05564c-4.42422,5.37897 -6.69743,12.21439 -9.94203,18.37715c-3.19874,6.07566 -6.78207,11.94242 -10.31342,17.83098c-5.2742,8.79478 -10.43979,17.6732 -16.25264,26.12165c-5.19369,7.54856 -15.48974,21.1226 -21.11537,29.168c-5.92609,8.47509 -10.66212,17.85569 -17.48098,25.63057c-6.36538,7.25782 -13.88349,13.43083 -20.44975,20.50744c-4.47493,4.82273 -8.78666,9.79442 -13.20086,14.67279c-1.8237,2.01547 -3.36062,4.34821 -5.51265,6.00855c-5.60735,4.32621 -11.75367,7.90475 -17.635,11.85042c-14.3756,9.64432 -29.18821,18.73495 -43.73092,28.13004c-5.52042,2.77583 -11.06966,5.49507 -16.56127,8.32748c-9.79641,5.05268 -13.77795,8.96692 -24.31628,9.86047c-3.97233,0.33681 -9.24969,2.44952 -11.94999,-0.48327c-11.55378,-12.54855 -3.8924,-21.31876 1.90492,-32.09489c3.03236,-5.6366 5.86089,-11.41451 9.44002,-16.72076c3.87312,-5.7421 8.56772,-10.88511 12.85158,-16.32767l2.60711,-3.30234c0,0 6.19644,-7.84883 14.04527,-1.65238z" fill="#fdff00" stroke-width="0.5"/><path d="M-70.07107,131.42893c7.07107,-7.07107 14.14214,0 14.14214,0l3,3c3.28214,3.46018 8.59054,6.10813 12.64751,8.25432c4.6083,2.43785 7.54371,3.89205 10.69021,5.28401c1.51138,-1.60769 3.11907,-2.41154 3.11907,-2.41154l3.30986,-1.54256c2.52015,-0.79468 4.94292,-2.02185 7.56046,-2.38404c3.50085,-0.48442 7.06788,-0.08608 10.60182,-0.12913c1.21787,0 21.1714,-0.0036 21.49814,0.01241c7.37986,0.36169 14.64538,1.97678 21.94931,3.0929c3.35303,0.51238 6.81279,0.39593 10.10184,1.22509c2.84489,0.71719 5.39285,2.31616 8.13047,3.37124c7.35756,2.83562 16.85221,5.60534 23.55294,9.77669c8.72465,5.43128 14.00506,11.40829 20.45524,19.12671c4.9631,5.93894 11.90467,15.2144 15.28255,21.97565c4.38921,8.78557 4.6834,14.33992 7.56041,23.39243c1.22116,3.84238 3.04595,7.48667 4.11112,11.37518c1.08688,3.96777 1.29758,8.13727 2.32506,12.12084c2.239,8.68058 5.18512,17.16396 7.64816,25.78365c0,0 2.74721,9.61524 -6.86803,12.36245c-9.61524,2.74721 -12.36245,-6.86803 -12.36245,-6.86803c-2.53314,-8.867 -5.54034,-17.60048 -7.84576,-26.5294c-0.98082,-3.79874 -1.1459,-7.78181 -2.18102,-11.56611c-0.99504,-3.63775 -2.74414,-7.03136 -3.88888,-10.62482c-2.01988,-6.34059 -3.39725,-14.52922 -6.43959,-20.60757c-2.63664,-5.26778 -8.91127,-13.44164 -12.71745,-18.02435c-1.57682,-1.89852 -3.12782,-3.75619 -4.73321,-5.53449c-2.95955,3.13953 -7.57885,3.13953 -7.57885,3.13953c-0.99425,0 -14.41356,0.01194 -14.89806,-0.04041c-3.84266,-0.41515 -7.58041,-1.54729 -11.41313,-2.04593c-3.98939,-0.51902 -8.04479,-0.43377 -12.02723,-1.00364c-5.5225,-0.79025 -10.96297,-2.07497 -16.45198,-3.07161c-8.48692,-1.54097 -22.51223,-3.6272 -31.136,-6.27619c-4.7056,-1.44543 -9.21993,-3.45474 -13.79193,-5.27923c-13.78697,-5.50177 -29.48774,-11.62072 -40.35274,-22.21193l-3,-3c0,0 -7.07107,-7.07107 0,-14.14214zM21.79039,162.66158c5.18849,0.9447 10.32705,2.18383 15.54802,2.92839c2.94108,0.41943 5.92215,0.47908 8.88645,0.69394c-0.89522,-0.45678 -1.80335,-0.87432 -2.77415,-1.11432c-2.56805,-0.63488 -5.28087,-0.39057 -7.89816,-0.77491c-6.68179,-0.98118 -13.30438,-2.59658 -20.05069,-2.9071c-0.22021,-0.01014 -0.44043,-0.01961 -0.66067,-0.02844c2.72757,0.46697 5.15457,0.87568 6.9492,1.20244z" fill="#fdff00" stroke-width="0.5"/></g></g></svg>