<svg version="1.1" xmlns="http://www.w3.org/2000/svg" xmlns:xlink="http://www.w3.org/1999/xlink" width="145.54686" height="112.95074" viewBox="0,0,145.54686,112.95074"><g transform="translate(-150.47017,-170.6171)"><g data-paper-data="{&quot;isPaintingLayer&quot;:true}" fill-rule="nonzero" stroke-linejoin="miter" stroke-miterlimit="10" stroke-dasharray="" stroke-dashoffset="0" style="mix-blend-mode: normal"><path d="M284.26311,234.13734c6.49151,0 11.75392,9.96499 11.75392,22.25742c0,12.29244 -5.26241,22.25742 -11.75392,22.25742c-6.49151,0 -11.75392,-9.96498 -11.75392,-22.25742c0,-12.29243 5.26241,-22.25742 11.75392,-22.25742z" data-paper-data="{&quot;index&quot;:null}" fill="#6b6b6b" stroke="none" stroke-width="0" stroke-linecap="butt"/><path d="M173.97801,253.8956c0,12.29243 -5.26241,22.25742 -11.75392,22.25742c-6.49151,0 -11.75392,-9.96499 -11.75392,-22.25742c0,-12.29243 5.26241,-22.25742 11.75392,-22.25742c6.49151,0 11.75392,9.96499 11.75392,22.25742z" data-paper-data="{&quot;index&quot;:null}" fill="#6b6b6b" stroke="none" stroke-width="0" stroke-linecap="butt"/><path d="M184.48151,230.13851c2.86769,0.01548 4.29236,-0.90878 7.02973,-1.45539c1.56331,-0.31216 3.23959,0.03105 4.76207,-0.44163c2.79939,-0.86912 5.50154,-1.79766 8.46869,-2.09214c11.0126,-1.09296 22.6828,-0.01217 33.75752,-0.01217c6.7632,0 13.55678,0.30311 20.25302,1.0125c2.96238,0.31383 5.42431,1.99106 8.22909,2.53378c0.81843,0.15837 1.68466,-0.1696 2.50083,0c3.21778,0.66865 6.25924,2.17333 9.32522,3.47723c-0.42077,-0.81492 -0.78176,-1.671 -1.09454,-2.55835c1.7294,1.34688 3.69597,2.41329 5.74253,3.09548c0.57925,0.19308 1.19671,0.2442 1.82147,0.18761c1.23546,1.75698 2.61051,3.89462 3.10993,5.46501c0.16076,0.5055 0.12829,4.94101 0.12829,5.79224c0,6.75035 -0.15298,12.93025 -3.26138,19.11691c-1.503,2.99143 -4.68243,5.42371 -5.95935,8.41235c-0.56722,1.32758 -0.99806,2.74195 -1.68018,4.00886c0.48777,0.35849 0.89758,0.96087 0.89758,1.97305c0,2.5 -2.5,2.5 -2.5,2.5l-0.00987,-0.04855c-1.72501,0.3372 -3.48796,0.53655 -5.24562,0.53655c-17.93969,3.68656 -37.11156,0.93232 -55.26468,1.0125c-7.01183,-0.03105 -13.81444,-1.40078 -20.75318,-2.01283c-7.74276,-0.68297 -14.72843,-1.74807 -21.87477,-4.09715c-0.178,0.54184 -0.59162,1.0829 -1.45857,1.42968c-2.32119,0.92847 -3.24967,-1.39272 -3.24967,-1.39272c-1.60581,-4.12322 -3.8582,-7.89024 -5.51245,-12.03099c-2.65776,-6.65263 -3.1692,-13.82604 -3.1692,-20.90816c0,-2.6496 0.06639,-5.39263 0.62746,-7.96398c0.07939,-0.06536 0.15642,-0.12578 0.2309,-0.17983c1.23879,-0.89912 2.84898,-1.40396 4.05222,-2.31867c0.01047,0.00599 0.02094,0.01197 0.03141,0.01796c1.49161,0.85235 3.37455,-0.66297 5.03115,-1.11804c0.11914,-0.03273 0.2361,-0.06717 0.35089,-0.10328c4.9101,-0.47359 9.73238,-1.8159 14.68348,-1.83783z" fill="#ff0000" stroke="none" stroke-width="0.5" stroke-linecap="butt"/><path d="M286.78279,235.90678c-1.57824,1.57824 -3.15648,0.33842 -3.47676,0.05443c-3.03313,-0.46963 -5.97525,-0.01075 -9.04086,-0.3347c-1.80606,-0.19085 -3.44737,-1.17662 -5.22809,-1.53344c-2.738,-0.54864 -5.00887,-0.46574 -7.7421,-1.55903c-10.07998,-2.02456 -20.01244,-2.39719 -30.29797,-2.39719c-4.16682,0 -8.61526,-0.43731 -12.75799,-0.01217c-3.34787,0.34357 -6.6177,1.00034 -10.00334,1.00034c-1.81245,0.36893 -3.52226,1.18252 -5.34772,1.48039c-3.46642,0.56563 -7.16702,-0.32932 -10.65761,0.02011c-9.4121,0.94222 -18.49295,3.1489 -27.95701,3.47324c-0.28418,0.68545 -1.03395,1.84318 -2.78963,1.49205c-2.45145,-0.49029 -1.96116,-2.94174 -1.96116,-2.94174c0.01561,-0.07506 0.03154,-0.15007 0.0478,-0.22504c-0.06149,-0.2296 -0.09635,-0.48996 -0.09635,-0.78517c0,-0.96257 0.37061,-1.55452 0.82645,-1.91855c1.2112,-3.73883 3.20413,-7.26764 5.78692,-10.22295c1.52624,-1.74636 3.65419,-3.71496 4.60804,-5.88459c0.73078,-1.66224 0.73806,-3.6097 1.60335,-5.20605c1.13285,-2.08996 2.9463,-4.1418 3.89848,-6.29778c0.34345,-0.77766 0.14597,-1.72801 0.50017,-2.50083c0.69464,-1.51562 2.33984,-2.4708 3.001,-4.00133c0.64693,-1.4976 0.78053,-3.17893 1.3864,-4.69361c0.34495,-1.72477 0.87206,-3.4171 1.51209,-5.05609c-0.11524,-0.41232 -0.11523,-0.73372 -0.11523,-0.73372c0.05524,-3.6413 1.34909,-4.9658 2.71857,-8.02275c0.39404,-0.87957 0.10688,-2.02929 0.66741,-2.81334c0.76524,-1.07041 1.91618,-1.86576 3.09526,-2.44984c2.72934,-1.35202 5.33548,-0.10022 8.05016,-0.67279c0.8785,-0.18529 1.61894,-0.83192 2.50083,-1.00033c2.49141,-0.47578 5.21238,0.22531 7.72893,-0.03294c4.99975,-0.51308 9.94717,-0.52746 15.005,-0.50017c6.88074,-1.37615 13.86264,-1.33975 20.74331,0.03638c2.75693,0.55139 6.17145,0.77282 8.53293,2.46783c1.81336,1.30158 4.11094,4.19258 5.48094,5.98613l1.5005,2.00066c0,0 0.78431,1.04573 0.46249,2.19199l0.43403,1.09647c0.46609,2.64723 1.89325,4.2573 2.92584,6.78623c2.41271,6.12972 6.47563,11.47603 9.4216,17.3234c2.24075,4.4476 4.60444,9.09759 7.34999,13.23919c2.31128,3.48651 5.89775,6.08294 8.41573,9.37939c0,0 1.4881,1.98413 -0.47632,3.48209c-0.07563,0.09509 -0.16071,0.19047 -0.25608,0.28584z" fill="#da0000" stroke="none" stroke-width="0.5" stroke-linecap="butt"/><path d="M184.27705,188.91028c-0.18021,-0.33064 -0.29487,-0.75137 -0.29487,-1.28677c0,-2.5 2.5,-2.5 2.5,-2.5c3.57362,0.01583 6.74244,1.16156 10.24968,1.51266c2.62926,0.2632 5.32113,0.25129 7.96252,0.49652c9.21983,0.85598 18.59353,-1.00885 27.80313,-1.00885c6.7693,0 13.55432,-0.23207 20.25301,0.51233c2.12665,0.23632 4.47202,0.7464 6.02293,2.22057c2.28389,2.17089 2.64428,4.98601 3.97302,7.65919c1.18382,2.38163 3.46425,4.20982 4.54414,6.59265c0.39562,0.87296 0.33699,1.89146 0.61426,2.8089c0.48616,1.6086 2.59019,5.28446 1.90217,6.69883c-1.413,2.90478 -4.91844,2.47941 -7.29953,2.51554c-4.97089,-0.02683 -9.83189,1.49625 -14.75866,1.9885c-5.94834,0.59431 -12.26847,0.01217 -18.25234,0.01217c-7.05728,0 -13.96121,0.50017 -21.007,0.50017c-4.34939,0 -8.92523,0.42 -13.25068,-0.01217c-4.35978,-0.4356 -8.64864,-1.55368 -13.00433,-2.00067c-1.82085,-0.18686 -5.42014,0.5801 -6.68867,-0.90286c-0.11477,-0.13417 -0.12566,-7.0488 0.19745,-7.70468c0.48229,-0.97899 1.71218,-1.3639 2.46897,-2.15023c1.7459,-1.81406 2.41264,-3.84052 3.58969,-5.95921c1.3865,-2.49571 2.24609,-2.81712 2.18024,-5.77752c0,-0.83361 0,-1.66723 0,-2.50083v-0.50017c0,0 0,-0.60127 0.29487,-1.21406z" fill="#00fff3" stroke="none" stroke-width="0.5" stroke-linecap="butt"/><path d="M176.4025,252.27877c0.1025,-0.71666 0.34044,-1.3772 0.80942,-1.90152c0.4666,-0.52166 6.67344,-1.02193 7.93693,-0.64152c5.41683,1.63088 12.63629,9.76622 7.48934,15.28715c-1.07761,1.1559 -5.29941,1.27756 -6.86237,1.11745c-1.27379,-0.13049 -2.59568,-0.20233 -3.7783,-0.69323c-4.1763,-1.73357 -8.61679,-8.79588 -5.59502,-13.16834zM182.01893,255.66269c0.00232,0.0046 0.00463,0.00921 0.00695,0.01381l0.01327,-0.01377c-0.00674,-0.00001 -0.01348,-0.00002 -0.02022,-0.00004z" fill="#efff00" stroke="none" stroke-width="0.5" stroke-linecap="butt"/><path d="M261.66751,251.24122c0.74068,0.18827 1.83949,0.74688 1.83949,2.4043c0,0.01673 -0.00011,0.03334 -0.00034,0.04984c1.76545,0.27179 3.58073,0.85184 4.08196,1.56441c0.83994,1.1941 0.06286,2.93059 -0.12884,4.37787c-0.15618,1.17908 -0.19144,2.50142 -0.90808,3.45066c-3.15085,4.17351 -10.54466,4.29053 -15.038,3.012c-1.3382,-0.38078 -3.09843,-0.26166 -3.94389,-1.36664c-2.82433,-3.69129 1.47153,-12.05568 5.14411,-13.45985c0.85938,-0.32858 2.08875,-0.40083 3.38776,-0.37538c0.35154,-0.33784 0.75137,-0.58412 1.22931,-0.6604c1.82894,-0.2919 3.29231,0.13482 4.33651,1.00319z" fill="#efff00" stroke="none" stroke-width="0.5" stroke-linecap="butt"/><path d="M151.24132,244.54444l8.42253,7.63292" fill="none" stroke="#000000" stroke-width="0.5" stroke-linecap="round"/><path d="M294.95074,247.17648l-6.84331,7.89612" fill="none" stroke="#000000" stroke-width="0.5" stroke-linecap="round"/></g></g></svg>