<svg version="1.1" xmlns="http://www.w3.org/2000/svg" xmlns:xlink="http://www.w3.org/1999/xlink" width="146.81084" height="118.50539" viewBox="0,0,146.81084,118.50539"><g transform="translate(-886.59458,-480.74731)"><g data-paper-data="{&quot;isPaintingLayer&quot;:true}" fill-rule="nonzero" stroke="none" stroke-width="0" stroke-linecap="butt" stroke-linejoin="miter" stroke-miterlimit="10" stroke-dasharray="" stroke-dashoffset="0" style="mix-blend-mode: normal"><path d="M886.59458,599.25269c0,0 0.84634,-13.99522 0.84634,-22.19127c0,-0.76483 11.56525,-12.05177 11.56255,-12.97625c-0.01171,-3.99203 -0.43906,-9.32556 -1.12872,-14.9115c-0.40157,-3.25253 14.62417,-14.86271 14.07499,-18.36561c-0.69272,-4.41851 1.34294,-9.50393 -0.38816,-13.47148c-1.31188,-3.00673 23.56811,-16.83299 21.76099,-19.44346c-0.47313,-0.68345 -1.04357,-1.59882 -1.69871,-2.18536c-0.15955,-0.14285 16.86442,-10.473 21.054,-11.0908c0.20186,-0.02976 5.47647,-3.44521 5.6679,-3.47557c4.36965,-0.69305 1.43288,-0.44786 3.91298,0.54579c0.62142,0.24897 23.54596,8.32144 23.58178,8.38499c1.8159,3.222 7.67462,3.49149 10.4778,8.15084c0.2224,0.36966 -1.25646,4.41136 -1.05307,4.79012c0.3906,0.72741 13.60889,15.79566 12.8681,20.09841c-1.00637,5.84538 14.48487,18.03931 13.90308,23.78995c-0.47916,4.73622 -0.76191,9.31183 -0.76191,13.51519c0,7.0008 12.13089,12.969 12.13089,16.92683c0,9.74342 0,21.90915 0,21.90915z" fill="#bdbdbd"/><path d="M942.22074,598.78418c0,0 0,-21.82067 0,-31.59674c0,-8.46632 11.40378,-23.69756 17.20894,-23.69756c5.94619,0 18.05528,14.34925 18.05528,22.5691c0,9.89801 0,32.7252 0,32.7252z" fill="#3b3b3b"/></g></g></svg>