<svg viewBox="9.25 -32.85 120.4 105.75" width="120.4" height="105.75" version="1.1" baseProfile="full" xmlns="http://www.w3.org/2000/svg" class="js-draw--autoresize"><style id="js-draw-style-sheet">path{stroke-linecap:round;stroke-linejoin:round;}text{white-space:pre;}</style><path d="M129.65,72.9L129.65,-32.85L9.25,-32.85L9.25,72.9L129.65,72.9" fill="#ffffff" class="js-draw-image-background"></path><path d="M28.3,-23.3q-6.5,.8 -8.5,4.3q-8.2,14.6 4.2,28.1q11.4,12.4 23.4-5.3q8.2-12.1 -6.8-27.1q-7.2-7.2 -14.7,1.2q-4.3,4.8 2.4,13.9q5.1,6.9 9.5-2.2q2.9-6.1 -5.2-11.2q-4-2.5 -4.4,7.3q-.3,7.1 6.6,5.8q6.1-1.1 2.4-11.8q-1-2.9 -3.7-1q-4.8,3.5 4.4,11.8q5.2,4.6 3.5-6.3q-1.5-9.8 -4.6-3.6q-3.3,6.6 5,16.1q3.3,3.8 3.3-5.2q0-7.3 -4.6-5.9q-4.3,1.3 2.6,13.8q.2,.4 2.1,1q1.5,.5 -.5-9.9q-2.2-11.9 -11.4-13.1q-3.9-.5 0,9.9q.2-.6 .2-1.8q.3-6.8 -5.3-4.3q-6.1,2.8 2,15.3q-1.8-4.5 -5.6-12.6q-1.7-3.7 -4.5-2q-2.7,1.6 4.2,15q.6-2.1 .7-5.7q.1-3 -2.6-2.6q-4.8,.7 3,16.8q2.3,4.8 3.9-.6q2.7-9.1 -3.6-9.1q-3.3,0 -.7,8.7q3.3,10.8 11,4q4-3.5 -1.1-9.7q-2.9-3.6 -3.3,4.6q-.3,7.5 7.3,3.3q5.7-3.1 2.6-13.2q-.7-2.3 -2.2,1.4q-1.8,4.4 3.8,7q3.8,1.8 2.9-8.6q-.6-6.3 -6.9-3.7q-6.1,2.6 -3.6,17.8q.4-.8 .8-2.2q1.5-5.4 -5.6-9.3q-6.5-3.6 -3.4,8.3q1.4,5.4 7.9,1.6q6.9-4 -3.3-14.8q-3.5-3.7 -9.9-.8q-3.7,1.7 3,13q5.5,9.2 14.5,6.8q8-2.2 -2.7-16.5q-6.4-8.5 -9.9,4.3q.8-.2 1.8-.9q2.7-1.8 -2.3-10.6q-2.8-5 -7-2.2" fill="none" stroke="#6e32af75" stroke-width="4.7"></path><path d="M92.7,-17.1q-13.8-.3 -19.3,4.6q-11.8,10.4 -2,23.9q8.9,12.3 36.6,7.4q19.2-3.4 4.1-26q-8.6-12.9 -20.6-3.7q-4.8,3.7 1.2,10.6q5.7,6.5 9.5-2.6q1.8-4.4 -6-9.9q-5.9-4.1 -5.5,6.6q.3,8.7 8.2,6.4q3.9-1.1 .6-11.4q-2.8-8.6 -11.1-1q-2,6.4 -2.3,12.3q-2.6-3.3 -5.7-9.9q-1.4-3 -2.6,1.9q-1.2,5 4.8,5q4.2,0 1.4-8.3q-1.3-3.7 -8,.3q-3.1,1.8 -.3,10.7q.7-1.1 1.4-3.1q1.3-4 -2.9-2.6q-3.5,1.2 1.6,14.2q2.1,5.4 4.2-.6q2.4-6.8 -5.2-10.6q-5.7-2.9 -2,8.3q3.7,11.1 7.5,4.6q2.6-4.5 -.5-6.3q-4.5-2.6 -.3,7.9q2.6,6.6 8.1,2.9q6.7-4.4 0-10.5q-3-2.7 -3.8,6.3q-.5,6.3 7.7,6.3q3-3.1 4.7-7q1.4,2.9 2.3,8.2q.7,4.3 3.3-4.5q.1-3.5 -.2-6.5q1.7,2.3 3.9,6.9q2.3,4.7 4.9-1.3q2-4.5 -2.6-8.1q-4.7-3.7 .4,7.1q2.2,4.5 5.5-1.2q2.8-4.8 -4.3-12.5q-4.1-4.5 -5.3,3q-.9,5.8 5.2,9.5q4.1,2.5 .5-12.1q-3.4-13.4 -9.6-9q-4.2,3 4.2,13.7q5.3,6.8 5.3-4.9q0-3.7 -4.9-5.5q-5-1.8 -2,23.8q-3.3-5.9 -7.9-17.4q-2.2-5.6 -5.2-.3q-2.3,4.1 1.9,16.2q1,2.8 1.9-3.4q1.5-9.6 -8.9-16.1q-8.2-5.1 -3.8,9.5q6,19.7 13.4,7.9q5.8-9.2 -6.6-19.2q-7-5.7 -6.1,6.4q.8,10.4 11.2,10.4q9.5,0 3.1-13.8q-3.6-7.8 -8.5-2.9q-4.5,4.5 1.7,7.9q5.1,2.7 7.9-4q3.5-8.4 -8.6-7.3q-10.4,1 -6.5,18.2q2.5,11 16.4,4.1q6.4-3.2 3.4-8.1q-1.6-2.5 -2.3,7q-.8,11.2 6.8,4.3q9.4-8.5 -1.4-21.2q-6.5-7.7 -12.5,5.6q-4.3,9.6 3.3,20.6q2.5,3.6 7.6-3.6q3.5-5 -3.9-12.4q-4.1-4.1 -7.3,2.7q-2.4,5.1 4.3,4.6q6.6-.5 2.9-9.4q-1.6-1.3 -3.2-2.1" fill="none" stroke="#6e32af75" stroke-width="4.9"></path><path d="M57.1,27.2q-1.5,.7 -2.5-.3q-1.7-1.7 -5.6,.3q-3.1,.4 -5.8,.3q-1.9,2.5 -2.8,5.6q-1.3,2.7 -2.6,4.9q-7.5,12.7 .5,21.7q1.8,2 11.1,2q7.3,0 10.2,3.3q2.4,2.7 11.8,4.3q3.3-3.8 5.1-8.8q1.4,.1 2.9,.8q1.8,.9 -.3-7.4q-1.4-8.7 -2.3-15.9q-.3-2.5 -9.2-13.4q-.4-.5 -7.6,1.6q-23.7,7 -7.7,15.7q8.6,4.7 8.6-10.1q0-3 -2.3-1.6q-2.4,1.5 0,10.1q1.9,6.8 4.6,.1q3.1-7.6 -1.2-11.2q-3.4-2.8 .9,7.9q2.7,6.7 5.4,1.3q1.9-3.7 -1.7-9.3q-3.1-4.9 -3.1,5.6q0,6.1 6.1,10.8q2.8,2.2 2.5-8.1q-.2-7.2 -3.8-3.3q-2.6,2.8 2.9,15.7q1.5,3.5 3.2,.4q3.8-7.1 -2.9-11.1q-1.9-1.2 -.4,10.7q1.6,12.6 5.1,11.6q3.4-.9 0-11.3q-1.8-5.5 -5.3,.8q-3.6,6.3 0,17q1.4-2.2 2.6-6.2q1.7-5.6 -4-7.3q-5-1.5 -2.9,7.7q.7,2.9 3.2-1.1q3-4.6 -2.2-17.1q-.9,.4 -1.8,1.4q-2.5,2.8 3.5,8.8q4.8,4.8 -1-8.6q-3.5-8.2 -9.9,.1q-3.8,5 3.9,15.5q2.4,3.2 4.8-2.9q3.8-9.4 -6.4-10.4q-5.5-.6 -2.5,9.3q.9,2.9 3.7,1.3q3.3-1.9 -.9-13.9q-3.5-10 -8.9,2.3q.2,5.2 1.3,9.6q-1-4 -2.9-11.4q-1.5-6.1 -5.4,2q-1.9,4.1 1.4,8.5q-.5-3.4 -2.3-9.2q-2.1-6.6 -7.1-.1q1.4-.7 3.7-2.3q2.2-4 3.3-7.9q.5,1.2 .8,3.4q.7,4.4 3.5-3.7q2-5.6 -1-6q-4.1-.6 0,8.9q4.8,11.2 10,1.7q2.4-4.4 -1.5-9.6q-1.8,2.5 -3.1,6.9q-1.8-2 -3.5-5.8q-1.6,1 -3.2,3.2q-.6,.8 -1-.3q-1-2.9 -3.2,.3q-1.1,4.5 -1.4,8.5q-.5,6.7 -.1,7.4q3.6,6.4 4.8,3.7q1.8-4 -4.1-7.4q-4.6-2.6 -2.8,6.6q1.4,7.1 9.1,2.6q5.4-3.1 2.4-12.4q-1.6-5 -6,2.8q-1.7,3 4.4,11q4.4,5.7 9.1-6.2q1.8-4.4 -.6-6q-3.5-2.3 -.7,10.3q3.3,14.7 9,7.9q2.9-3.5 .8-10.3q-.9-3 -2.5,1.4q-2.4,6.9 5.6,10.2q6.6,2.7 4.2-11.3q-1.9-11.3 -8.2-7.9q-3.2,5.9 -4.7,11.8q-4.7-2.8 -9.8-9.2q-5.2-6.5 -6.9-.2q-.8,2.9 4.5,3.3q3.4,.3 3-13.7q-.1-4 -1.6-3.3q-1.3,.7 2,5.4" fill="none" stroke="#6e32af75" stroke-width="4.6"></path><path d="M39.2,-.3q4.4-7.7 .4-13.8q-2.9-4.5 -6.1-4.5q-2.2,0 -4.2,6.4q-1,3.3 4.2,6.8q.7,.5 -1.8-3.7q-2.9-.4 -5.8,.3q-2.1-2.6 -3.2-6.2q.5,3.4 1.7,9.6q1.8,9 10.1,6.2q1.8,2.4 2.7,5.8q0-3.6 -.6-10.1q3.2-.2 7.2,1.2q.4,.1 0,.7q-2.5,3.5 -12.2,.3" fill="none" stroke="#6e32af75" stroke-width="4.1"></path><path d="M32.2,-15q3.2,2.6 3,.2" fill="none" stroke="#6e32af75" stroke-width="3.6"></path><path d="M37.6,-4.1Q36.6,-3.8 35.8,-3.5" fill="none" stroke="#6e32af75" stroke-width="3.6"></path><path d="M23.7,-8.2q-2-5.3 -2.2-5.8" fill="none" stroke="#6e32af75" stroke-width="3.8"></path><path d="M95,-6.6q-2.3,0 -2.5,1.4q-.4-1.8 -.6-5.2q-.7,0 -1.6,.3q-.4,.2 .9,2" fill="none" stroke="#6e32af75" stroke-width="2.6"></path><path d="M109.1,3.4Q107.2,8.2 107,7.9Q105,3.9 104.4,4.4" fill="none" stroke="#6e32af75" stroke-width="2.9"></path><path d="M74.1,4Q74.7,2.3 74.8,2.3" fill="none" stroke="#6e32af75" stroke-width="2.2"></path><path d="M78,6.3Q79.8,8.6 80.7,8.9" fill="none" stroke="#6e32af75" stroke-width="2.1"></path><path d="M95.8,12.4q2.3,5.1 1.3,4.8q-1.1-1.5 -1.8-3" fill="none" stroke="#6e32af75" stroke-width="3.5"></path><path d="M78.5,-2.2Q78.7,-7.3 81,-6.2Q82,-5.2 82.8,-4.3" fill="none" stroke="#6e32af75" stroke-width="2.5"></path><path d="M93.2,3.4Q95.4,1.2 95.6,1" fill="none" stroke="#6e32af75" stroke-width="1.6"></path><path d="M90.3,5.6Q87.9,5.7 87.3,4.7Q87.2,4.6 87.1,4" fill="none" stroke="#6e32af75" stroke-width="1.9"></path><path d="M101.6,-3.8Q104.1,-4.5 105.1,-5.5Q105.2,-5.6 105.5,-5.4" fill="none" stroke="#6e32af75" stroke-width="3.5"></path><path d="M95.2,.1Q98.1,2.9 104.1,7" fill="none" stroke="#6e32af75" stroke-width="4"></path><path d="M107.2,13.2q-3.4,1.7 -4.1,1.7" fill="none" stroke="#6e32af75" stroke-width="2.6"></path><path d="M82.7,7.9Q79.6,.6 79.4,-3.5Q79.4,-3.7 79.3,-4.6" fill="none" stroke="#6e32af75" stroke-width="2.3"></path><path d="M89.2,-1.5Q91.6,-6.1 91.3,-8.5" fill="none" stroke="#6e32af75" stroke-width="3.2"></path><path d="M79.4,-3.6Q80.1,2 82.8,7.7Q84,10.2 84.9,12.3" fill="none" stroke="#6e32af75" stroke-width="2"></path><path d="M80.1,13.6Q87.6,14.6 89.7,13.6Q90.9,13 92.9,9.1" fill="none" stroke="#6e32af75" stroke-width="2.9"></path><path d="M93.5,1.5Q93.6,-.3 94.5,-.5Q94.8,-.6 96.2,-.3" fill="none" stroke="#6e32af75" stroke-width="1.9"></path><path d="M101.4,2.7Q102,3 104.2,4.3" fill="none" stroke="#6e32af75" stroke-width="1.6"></path><path d="M109.3,5Q110.7,2.3 110.3,-.2Q110.2,-.8 109.3,-2.8" fill="none" stroke="#6e32af75" stroke-width="2.4"></path><path d="M108.2,.7Q111.7,1.3 112.6,.4Q113.3,-1 113.8,-2.3" fill="none" stroke="#6e32af75" stroke-width="4.1"></path><path d="M114.4,4.3Q118.9,13.7 117.6,9.7" fill="none" stroke="#6e32af75" stroke-width="2.8"></path><path d="M107.7,11.7q-3-1 -4.2-2.4q-5.1-9 -8.5-16.8q-2.3-2 -4.7-3.3" fill="none" stroke="#6e32af75" stroke-width="1.9"></path><path d="M88.7,-13q2,.5 2.5-.4q-.2-.9 -.6-1.7" fill="none" stroke="#6e32af75" stroke-width="2.4"></path><path d="M90.3,-15.1q.2,.2 0,.2q-.2,0 -.2-.2q0-.2 .2-.2q.2,0 .2,.2" fill="none" stroke="#6e32af75" stroke-width="1.6"></path><path d="M89.9,-15q.2,.2 0,.2q-.2,0 -.2-.2q0-.2 .2-.2q.2,0 .2,.2" fill="none" stroke="#6e32af75" stroke-width="1.6"></path><path d="M86.3,-12q.2,.2 0,.2q-.2,0 -.2-.2q0-.2 .2-.2q.2,0 .2,.2" fill="none" stroke="#6e32af75" stroke-width="1.6"></path><path d="M77.7,3.7Q76.3,2.9 75.1,2.3" fill="none" stroke="#6e32af75" stroke-width="2.6"></path><path d="M77.5,-1.9Q84.3,-3.9 86.1,-4.6" fill="none" stroke="#6e32af75" stroke-width="3.5"></path><path d="M87.4,-5.6Q83.7,.7 84.1,3.3Q85,5.2 86,6.7" fill="none" stroke="#6e32af75" stroke-width="3.3"></path><path d="M87.3,8.3Q87.5,8.5 87.3,8.5Q87.1,8.5 87.1,8.3Q87.1,8.1 87.3,8.1Q87.5,8.1 87.5,8.3" fill="none" stroke="#6e32af75" stroke-width="1.6"></path><path d="M88.3,8.7Q88.5,8.9 88.3,8.9Q88.1,8.9 88.1,8.7Q88.1,8.5 88.3,8.5Q88.5,8.5 88.5,8.7" fill="none" stroke="#6e32af75" stroke-width="1.6"></path><path d="M94.3,12.7q5.5,2.3 7.3,1.2q.7-.7 1.2-1.3" fill="none" stroke="#6e32af75" stroke-width="3.3"></path><path d="M102.2,5.8Q102.5,-4.8 101.9,-8.2" fill="none" stroke="#6e32af75" stroke-width="2.1"></path><path d="M101.2,-7.1q1.3,3.4 2.3,2.2q3.5-4 -2.1-8.1q-.2-.1 -1.2,0" fill="none" stroke="#6e32af75" stroke-width="2.9"></path><path d="M89.6,-1.5Q80.3,-7.5 79.4,-7.5" fill="none" stroke="#6e32af75" stroke-width="2.3"></path><path d="M81.8,-5.4q9.4-2.3 13.8-6q.2-.2 1.2-1.1" fill="none" stroke="#6e32af75" stroke-width="3.2"></path><path d="M100.5,-9.2Q93.9,-7.5 88.9,-8.2Q88.8,-8.2 88.3,-8.2" fill="none" stroke="#6e32af75" stroke-width="2.2"></path><path d="M73.5,-4.5Q73.7,-4.3 73.5,-4.3Q73.3,-4.3 73.3,-4.5Q73.3,-4.7 73.5,-4.7Q73.7,-4.7 73.7,-4.5" fill="none" stroke="#6e32af75" stroke-width="1.6"></path><path d="M64.8,38q.2,.2 0,.2q-.2,0 -.2-.2q0-.2 .2-.2q.2,0 .2,.2" fill="none" stroke="#6e32af75" stroke-width="1.8"></path><path d="M67.8,37q1.3-2.9 1.1-4.2q-.3-1.9 -1.7-1.7q-1.5,.2 -.4,5.7q.3,1.6 2.3,1.1q3.2-.8 -1.3-7.2" fill="none" stroke="#6e32af75" stroke-width="1.8"></path><path d="M70.4,40.9q-.4-5.6 -2.2-7.2q-6-5.4 4.3,12q1.8,3 2.2-1q.3-3 -2.9-10.6q.9,3.7 2.9,10.4q.1,.3 1.3,.2q-.3-1.7 -1.6-3.7q.5,5.1 2.7,13.9q-1.3-2.4 -3.3-6.9q-.5,2.7 -.4,7.5q1.5,3 3.3,5.3q-.9-2.8 -3.2-7.7q-1.8-3.9 -5.2,2.6q-2.7,5.2 3.1,8.1q3.8,1.9 -.2-7q-2.6-5.7 -5.6,1.3q.5,2.9 1.6,5.4q-.9-3.2 -2.9-9.1q-2.2-6.4 -8.3-.3q-.7,.9 -1.3,1.6q-2.4-1 -4.6-3.1q-.8,1.4 -1.1,3.8q.1-.3 .3-1q1-3.6 -7.5-2.3q-.3,0 -.3-.3q0-7 -4.2-4.5q1.3-1.9 4.2-5q1.5-1.6 .4-5.4q.2,2.2 .9,6.3q1.3-2.1 2.7-6.2q1.6-4.7 -2.6-7.2q-4.7-2.8 .5,6.3q3.9,6.8 6-4.4q1.2,1.3 2.4,3.9q1.4,2.9 5.5-.5q1.5-2.6 2.4-5q1.9-.3 3.9,.2q.4-1.8 -.1-4.1q-.1,2.2 .1,6.2q.1,1.8 3.5,3.9q2.5,1.6 -.6-6.6q-2.6-6.8 -6.1,5.1q-1.2,4.1 3.5,10.2q.6-2.6 .3-7q-.4-7.2 -4.2-1.3q-3.4,5.2 5.6,12.5q4.7,3.8 1.3-9q-2-7.6 -5.4-4.2q-3.4,3.4 6.1,12.9q2.6,2.6 3-1.1q1-8.8 -10.4-10.7q-7.3-1.2 -5.8,11.4q-.7-3 -1.8-8.6q-1.2-6 -6.2,1.5q-2.3,3.4 4.4,10.5q3.9,4.1 3.5-5.9q-.3-8.1 -6.3-8.1q-4.5,0 -2.6,10q1.3,6.9 7.3,5q4.3-1.3 2-11.2q-.6-2.6 -2.1-.5q-1.9,2.7 6.3,13.7q3.1,4.1 3.1-5q0-7.2 -3.7-4.3q-2.9,2.2 5.3,15.7q2.3,3.8 2.9,.8q1.3-6.6 -8.1-12.6q-5.2-3.3 -2.7,6.4q.9,.5 1.9,.6q2.2,.3 -4.6-7.2q-3.9-4.3 -6.9,2.6q-.3,.6 -.3,.5q-1.2-7.1 -4.7-3.2q-.4,2.1 -.2,4q-2.2-.9 -4.9-3.3q.2,1.4 1.1,3.6q3.8,.3 7.8-.9q.9,1.3 1.3,3.1q-1.9-.4 -4.4-1.9q.1,1.2 .8,3.1q.6,1.7 7.7-.2q5.2-1.4 -1.6-9.4q-6-2.5 -11.6-3.6q1.2-4.5 5-9.6q1.4-1.8 7.7-1.1q6.1,.7 4.5-4.5q-1.7-5.5 -4.5,4.9q-.3,2 -.5,3.6q-1.6,.2 -3.5-.3q-3-.8 -3,5.9q0,5.3 8.5,1.1q6.7-3.4 4.7-10.4q-1.3-4.4 -5,3.4q-3.6,7.6 6.6,4q3.9-1.4 2.6-9.6q-.7-4.8 -8.9,5.8q-3.8,5 4.4,10.3q1.1,.7 12.5,.7" fill="none" stroke="#6e32af75" stroke-width="4.4"></path><path d="M55.4,43.7q-3.1-2.7 -5.3-1.8q-2.2,.9 -3.3,2.8" fill="none" stroke="#6e32af75" stroke-width="3.1"></path><path d="M68.3,48.9q6.4-1.4 6.8,.4q0,1.7 -.2,3.1" fill="none" stroke="#6e32af75" stroke-width="3.8"></path><path d="M68.2,55.7q-1,2.2 -1.7,2q-3.2-2.1 -5.6-4.3q-3.8-.4 -7.3,.1q-.8,.1 -3.3-2.4" fill="none" stroke="#6e32af75" stroke-width="2"></path><path d="M45.2,48.8q2.6-.9 2.9-1.2" fill="none" stroke="#6e32af75" stroke-width="3.1"></path><path d="M55.1,33.4q1.6-1.6 .9-3" fill="none" stroke="#6e32af75" stroke-width="3.5"></path><path d="M44.5,5.4q4.3-12.4 1.2-10.8q-2.7,1.4 1.3,5.8q4.3,4.8 -1.3-9.2q-2.2-5.6 -3.6-2.1q-.9,2.4 3.3,5.7q3.6,2.8 -1.3-8.2q-3.5-7.9 -5.5-4q-2.5,5 2.8,5q4.4,0 -2.5-8q-1.8-2.1 -2.3,.4q1.2,1.6 2.9,2.7q-.7-2.1 -2.7-5.4q-1.9,1.2 -3.6,3.6q-.1-.7 .1-1.9q-1.4,.4 -3.3,1.7q-4.3,3 2.2,5.2q-1.2-2 -3.9-5q-1.7,1.8 -3,5q-.5,1.2 2.4,2.4q-1.1-1.7 -3.6-4.3q-2.2-2.3 -2.7,5.1q1.5,2.4 3.3,4.1q-1.1-1.3 -3.2-3.7q-.2,3.2 .8,8.6q.5,2.4 3.1,3.2q-.7-1.7 -2.7-4.1q.1,2 .9,5.5q.9,3.6 4.7,2q-.6-1.4 -2-2.9q-.4,1.7 -.2,4.6q.3,4.2 6.8,4.2q4.5,0 0-5.9q-1.9-2.5 -3.6,1.6q-1.2,3 5.2,6q3.7,1.7 3.7-6.7q0-6 -3.9-3.8q-3.8,2.1 2.3,4.9q5.2,2.4 5.2-5q-.9,.3 -2,1.3q.6,1 1.7,1.8q4,3 .1-11.3q-2.8-10.1 -8.9-5.6q-3.5,2.6 1.8,7.9q2.7,2.7 2.3-4.6q-.4-7.6 -6.4-1.6q-4.2,4.2 2.1,11.2q2.6,3 1.1-5.9q-1-6 -6-1.5q-2.7,2.4 2.4,8.3q4,4.6 5.3-3.9q1.3-8.5 -8.9-5.4q-5.8,1.7 .9,6.4q3.3,2.3 3-6.4q-.4-10.1 -6.7-3.1q-3.6,4 .1,5.8q4.1,2.1 3-9.1q-.6-6.1 -5.6-1.1q4.2-2.4 11.5-7.6q-3.1,1.5 -8.6,4.7q-.7,.4 -4.2,8.5q1.7,6.5 4.9,11.8" fill="none" stroke="#6e32af75" stroke-width="4.6"></path><path d="M92.5,.4q-1.2-.9 -2.1,.6q-3.2,5.3 3.2,8.1q3.9,1.7 2.3-9q-.5-3 -2.6-2.4q-4.6,1.4 2.7,10.9q.2-2.8 -.5-7.5q.8,2.8 2.1,8q1.5,6.1 5,3.5q3.6-2.7 .2-7.9q-1,1.3 -1.7,3.6q-1.1,3.6 4.3,4.9q3.1,.8 3.1-4.3q-.8,.4 -1.7,1.3q.9,1.5 2.7,2.8q4.4,3.2 1.6-6.7q-.9,1 -1.7,3q1.3,.8 3.2,1q.3-3.8 -1.2-8.6q-.1,1.3 0,3.7q.7-.4 1.6-1.3q2.4-2.6 -5.2-9q-2.8-2.4 -2.1,2q1,6 2.7,2.9q3-5.6 -4.2-8.8q-4.9-2.2 .2,5.5q1.5,2.3 2.8-.9q2.4-5.9 -3.1-5.9q-3.8,0 .8,4.6q2.1,2.1 1.8-3.3q-.3-4.9 -5.8-3.3q-.9,.5 -1.6,1q-2.1-.9 -3.8-2.6q-.8-.1 -1.6,0q-2.5-.1 -4.5-.3q-.8,0 -1.4,0q-14.2,.4 -16.8,4.2q-5.1,7.7 .2,15.2q8.3,11.7 22.9,13.5q5.7,.7 8.3-.6q5.1-1.9 9.4-3.3q8.9-2.9 2.6-12.6q-4-6.1 -9.1,1.6q-2.7,4.1 3.6,4.1q6.6,0 1-12.9q-4.1-9.4 -9.5,1.3q-.9,1.8 .5,7.9q-2.3-3.3 -5.6-9.9q-3-5.9 -6.5-.4q-3.1,4.8 5.3,8.6q5.5,2.5 2.6-9.2q-1.5-6 -3.7-4.3q-2.8,2.3 5.9,9.5q2.6,2.1 3.7-1.6q1-3.4 -3.6-4.9q-4.8-1.6 .6,9.8q2.3,4.9 3.7,2.6q1.5-2.5 -8.2-13.3q-4.4-4.9 -6.6,.8q1,3.1 2.8,5.6q-.8-2.7 -2.9-7.4q-1.5-3.4 -5.3,0q-3.3,2.9 4,6.6q3.7,1.9 2.6-5.7q-.7-5 -5.5-5q-.1,2.4 1,5.3q-2,.6 -4.9,.4q-5-.4 -1.1,5.5q2.4,3.6 2.4-3.6q0-6.4 -5.7-5.2q-6.5,1.4 -1,9.2q1.6,2.3 3.6-1.7q1.6-3.3 -2.5-4.2q-4-.9 .6,10.9q2.9,7.5 4.6,4.9q2.4-3.6 -3.2-8.2q-1.9-1.6 -2.4,2.2q-.7,5.8 6,8.2q6.2,2.2 -.8-9.1q-4.8-7.8 -5.8,.7q-.8,6.7 8.1,9.2q6.7,1.9 5.7-7.7q-1.1-11.3 -7.6-2q-3.2,4.6 5.6,12q6,5.1 3.6-5.7q-1.3-5.9 -4.7-3.5q-4,2.9 3,10.8q4.8,5.4 6.4,2.6q2-3.6 -10.4-14.7q-7.8-4.3 -14.7-7.1q-1-.4 -1.9-.8q.5,3.2 2.9,7.9q.7-1 1.3-2.8q0-.1 7,8.9q8.8,4.3 17,6.4q4,1 1.6-4.7q-1.7-4 -3.1-.6q-1.2,2.9 4.9,7.5q3.8,2.9 3.8-4.9q0-.1 2.1,.3q6.1,1.1 5.5-8.3q-.4-5.5 -3.8-3.5q-2.9,1.6 .9,7.6q-1.4-2.1 -4-5.9q-3.6-5.4 -18.1-4.6q-6.3,.3 -3.7,6.7q-.4-1.3 -1.3-3.6" fill="none" stroke="#6e32af75" stroke-width="4.6"></path></svg>