<svg viewBox="-20.75 -135.55 315.9 181.5" width="315.9" height="181.5" version="1.1" baseProfile="full" xmlns="http://www.w3.org/2000/svg" class="js-draw--autoresize"><style id="js-draw-style-sheet">path{stroke-linecap:round;stroke-linejoin:round;}text{white-space:pre;}</style><path d="M295.15,45.95l0-181.5l-315.9,0l0,181.5l315.9,0" fill="#ffffff" class="js-draw-image-background"></path><path d="M90.5,-61.5q18,6 22.5-1.5" fill="none" stroke="#000000" stroke-width="2.25"></path><path d="M106.25,-68.25q15.525,5.1 15.45,5.175q-5.625,5.1 -21.525,10.425" fill="none" stroke="#000000" stroke-width="1.95"></path><path d="M182.5,38.7q0,0 0,0" fill="none" stroke="#b1e6ff" stroke-width="1.5"></path><path d="M9.7,-72.1Q10.4,-71.4 9.7,-71.4Q9,-71.4 9,-72.1Q9,-72.8 9.7,-72.8Q10.4,-72.8 10.4,-72.1" fill="none" stroke="#ffffff" stroke-width="6.7"></path><path d="M62.9,-134.6q-.8,3 -.4,4.6q.2,1.9 .3,3.5q-.9,1.4 -2.1,2.3q-.9,.7 2,2.4q0,1.6 -.7,3.1q-1.1,2.5 .1,4.8q-.6,1.3 -1.6,2.3q.2,2.3 1.2,4.3q-.8,1.9 -2.2,3.3q-1.8,1.9 0,7.4q1.5,4 2.7,7.2q-.7,5.5 -2.4,10.1q-1.6,1.1 -3.3,1.8q1.4,2.1 4.3,4.3q1.7,1.2 -.1,3.5q-1.7,1.6 -3.3,2.8q-2.5,1.9 2.1,8.2q-.9,2 -2.7,3.6q1.4,3.8 4.4,7.1q-1.6,3.5 -4.7,6.5q-.4,5 .8,9.6q-.4,1.6 -1,3q-.4,2.2 -.4,4q-.3,1.1 -.7,1.9q.3,3.9 1.3,7.1q-.5,3.4 -1.6,6.2q.8,6.1 2.7,11.2q-1,2.1 -2.5,3.8q0,3.5 1,6.7q-.1,4 -.7,7.2q.2,6.7 1,12.1q0,4 -.2,7.3" fill="none" stroke="#b1e6ff" stroke-width="1.9"></path><path d="M255.3,-112.4q12.6,8.4 20.1,22q17.7,31.6 7.9,76.3q-3.1,14.1 -25.3,34.3q-18.9,17.2 -58.9,10q-21.5-3.9 -40-27.9q-16.5-21.3 -10-62q10.2-64 58.7-61q6.7,.5 6.9,.2" fill="none" stroke="#b1e6ff" stroke-width="2.1"></path><path d="M256.9,-109.8q-3.6-3 -10.1-6.3q-5.2-2.6 -9.4-4.9q-5-2.6 -12.2-1.3q-7.2,.9 -13,1.5q3.6-.7 10.5-1.9q9.1-1.4 24.8,4.9q8,3.2 13,9.6q4.8,6.1 8.7,11.1q.5,.3 1,.5" fill="none" stroke="#b1e6ff" stroke-width="1.9"></path><path d="M238.8,-120.9q-8-3 -9-3.2q-15.3-2.6 -21.2-.9q-7.9,1.8 -14.4,3q-8.8,1.6 -14.1,4.8q-2.1,1.2 -4.9,4.5q-4.1,4.1 -7.5,7.3q-3.3,5.7 -5.4,10.8q-1.1,2.8 -6.3,10.6q-2.1,3.1 -5.3,17q-3.6,15.1 -3.6,21.5q0,16.9 .1,17.9q.6,7.7 3.4,16.5q2.2,7.2 4.7,10.9q8.2,12.3 22.2,20.7q1.2,.8 11,6q17.7,9.6 28,9.5q8.4-.1 21.4-4.3q16.2-5.3 23.9-12.6q8.3-7.9 9.7-9.5q8.5-10.1 13.8-29.9q2-8.3 3.6-15.2q3.1-13.6 2-23.1q-.9-8.5 -6.1-22.2q-5.7-15 -17.1-23.6q-10.4-7.9 -13.7-9.1q-11.1-4.7 -20.2-8.8q-3.7-1.6 -15.1-2.7q-6.1,1 -11.1,2.5q.2-.3 .7-.7q2.3-1.9 13,.8q.3,.1 -3.8,1.8q-4.6,2 -6.8,6q-.6,1.1 -2.2,.3" fill="none" stroke="#b1e6ff" stroke-width="2.1"></path><path d="M214.1,-58q-4.2-12.6 -9.1-14.5q-5.8-2.3 .8,33q2.2,11.9 7.7,6.4q3.5-3.6 -1.9-37.1q-1.3-8 -4.7-7.5q-2.5,.4 5.8,36q2.3-.9 4.9-3.3q1.5-1.4 -4.2-30.2q-1.8-8.8 -5.8-8.8q-5.3-.1 7.7,27.3q3.7,7.7 8.2,1.2q6.7-9.8 -5.8-46.3q-2.8-5.2 -5.4-9.4q-1.7-3.5 -3-6.4q-1.2-2.7 2.7-3.2q18.8-2.4 36,9.5q27.8,19.1 31.9,34.7q4.4,16.2 4.8,24.5q1.3,23 -5,42.4q-5.7,17.6 -20,27q-7.3,4.7 -19.3,7.9q-9.9,2.8 -18.1,5.1q-9.7,2.9 -30-6.6q-12-7.1 -21.6-13.3q-11.9-7.7 -17.2-27.2q-1.8-6.2 .5-28.5q3.9-38.8 18.7-58.2q6.5-8.5 20.2-12q23.5-6.1 27.9-4.4q5.9,1.9 10.8,3.4q-6-1.1 -17.2-3.6q-12.1-2.7 -22,1.4q-10,3.7 -18.2,6.5q-3.8,1.3 -12.4,10.6q-14.7,15.7 -17.7,38.8q-2.7,21 1.3,40.7q1.6,8.1 8.6,15.7q5.4,6 16.8,14.9q6.8,5.3 24,10q16.3,4.5 16.5,10.9q.2,4 -13.5-1.1q-34.1-12.6 -34.6-13.1q-15.7-17.1 -17.2-19.7q-9.5-17.5 -9.6-27.4q-.1-15 4.4-34q4-16.6 11.9-27.8q2.8-3.9 18-17.7q15.4-13.9 37.8-11.5q28.8,3 39.8,33.9q8,22.7 -10.6,20.9q-17.3-1.7 -20.1-39.4q3,.7 6.7,3.2q5.2,9.5 7.9,18.6q-1.8-7.1 -5.3-20.2q4.4,15.8 12.5,45.4q3.3,.7 6.9,.1q1.5-15.7 -4-33.6q-.1-.1 4.4,20.8q4.4,20.7 5.5,14q-2.9-27.7 -8.2-50.4q-.7-3.1 4.7,8.4q8.4,18.2 15.3,33.1q.5,1 -1.9-13.1q-1.6-6.8 -3.1-12.4q3.2,14.2 9.5,40.5q.3,1.2 -1.7-19.3q-1.3-9 -2.6-16.5q1.6,20.3 5.7,57.8q.7,6.2 -5.3,8.1q-.3-1.1 0-2.6" fill="none" stroke="#b1e6ff" stroke-width="15.2"></path><path d="M264.4,-56.1q4.6-5 5.5-3q1.5,6.9 2.2,12.8q-.1-9 -.9-25.5q.4,14.7 1.4,41.9q.5-7.2 1-20.6q-3.6,14.3 -8.3,41.1q.3-2 .9-5.6q2.9-18.3 5.9-15.8q1.6,1.4 -9.8,30.2q0-1.7 .4-4.8q5.4-15.9 11-28.6q-6.2,16.2 -18.2,46.1q.5-6.3 2.6-17.7q-6,5.3 -14.2,16.4q-7.4,10.2 -13.6,4.7q2.9,.6 7.9,2.7q1.7,.7 -9.4,2.6q-20.6,3.5 -16,.5q6.7-2.7 12.4-4.2q15.5-4.3 30.5-36.3q6.8-14.7 -2.4-24.8q-7.4-8.2 -13.7,19.2q-3.5,14.7 9.7,12.7q7.6-1.1 10.3-30.5q1.6-16.4 -11.1-14.9q-7.6,.9 -4.5,33.2q3.3,1.3 7.2,1.2q3.7-.1 -2.8-24.5q-3-11.3 -10.2-2.9q-6,6.9 -4.8,36.7q.4,9 6.4,3.9q5.7-5 .9-38.8q-2.8-19.1 -15-8.2q-7.9,7 -8.8,38.1q3.3,1.2 7.2,1.1q4.1-.2 4-45q-.1-16 -9.3-7.7q-6.4,5.9 -.9,43.2q1.3,9 7.3,6.7q4.3-1.6 2.4-40.3q-1.3-28.2 -13.4-23.3q-5.8,2.3 -4.6,23.7q2.3-1.7 5.1-5.3q5.4-7 -4.1-38.5q-2.5-8.3 -9.3-3.4q-3.8,2.8 -2.6,28q2.4-.8 5.4-3.1q4-3.2 -5.4-26.7q-2.8-7.1 -6.9,1.2q-2.3,4.6 .2,29.1q1.8-1 3.9-3.3q3.4-3.6 -4.5-24q-4.3-11.2 -11,7.5q-8.1,23 -4.2,42.9q2-.5 4.3-2.1q6-4.3 -.1-31.4q-1.8-8 -6.6,1.2q-9.1,17.3 -4.9,45q2-.5 4.2-2.2q3.1-2.4 1.6-24.6q-1.2-18.4 -7.3-10.8q-6.2,7.5 -6.2,48.3q0,11.1 5.2,7.5q4-2.7 4-25.6q-3.1-1.5 -7-1.6q-2-.1 -2.1,29.4q-.1,26.2 9.1,17.8q11.3-10.4 7-31.9q-2.1,.6 -4.6,2.5q-5.6,4.4 1,35.1q2.7,12.4 10.1,1.1q5.8-8.9 3-25.9q-1.3-7.8 -5.4,.3q-7.3,14.5 3.2,34.3q5.8,11 15.6-16.1q4.7-12.9 -.7-17.6q-4.4,13.5 -3.8,35.1q.1,5.8 10.1-8.8q14.4-21 6.3-29.2q-6-6 -1.6,26.9q1.9,14.2 9.8,4.6q5.6-6.9 4-22.5q-1.9,1.6 -4,5q-4.4,7 3.8,20.9q4,6.8 8.6-5.9q6.5-17.9 -14.5-9.9q-17.2,6.6 -11.6,17.4q2.6,5.1 21.2-3q-10.1,1.2 -28.3,5.1q-3.5,.8 .2-28.8q5.5-44.7 -12.9-44.8q-8-.1 -7.1,30.4q1.3-1.6 2.9-4.8q2.7-5.6 .8-43.5q-.5-8.9 -4.3-9.4q-1.8-.3 1.1,33.5q3.1,35 13,24.7q5-5.3 5.4-41.8q-2.7,.9 -6,3.4q-3.5,2.7 -1.1,37.3q2.1-.8 4.5-3q4.6-4.1 -.5-36.9q-1-7 -7.3-3q-5,3.3 -5.1,45.8q.8,.6 1.7,1" fill="none" stroke="#b1e6ff" stroke-width="14.5"></path><path d="M185.3,-93.4q.06,.06 0,.06q-.06,0 -.06-.06q0-.06 .06-.06q.06,0 .06,.06" fill="none" stroke="#c1e9fb3f" stroke-width=".6"></path><path d="M174.2,-37.5q-.2-.1 -.4-.2" fill="none" stroke="#c1e9fb3f" stroke-width=".7"></path><path d="M222.2,-79.1q.1,0 .4,.2" fill="none" stroke="#c1e9fb3f" stroke-width="1.2"></path><path d="M223.9,-22.8q-.3,0 -1.5,0" fill="none" stroke="#c1e9fb3f" stroke-width=".9"></path><path d="M186.3,-14.5q0,.5 0,.9" fill="none" stroke="#c1e9fb3f" stroke-width="1.1"></path><path d="M190,-29.4q.05,.05 0,.05q-.05,0 -.05-.05q0-.05 .05-.05q.05,0 .05,.05" fill="none" stroke="#c1e9fb3f" stroke-width=".5"></path><path d="M173.6,-54.6q.6-16.7 -1.2-11q-1.9,5.8 -1.7,15.6q.4-.2 .9-.6q1-1 0-9.7q-.5-4.9 -3-.6q-.1,.2 -3.4,13.1" fill="none" stroke="#c1e9fb3f" stroke-width="1.1"></path><path d="M164.4,-57.4q8.7-19.4 7-21.2q-.7,1.8 -.8,4.8" fill="none" stroke="#c1e9fb3f" stroke-width="1"></path><path d="M174.2,-82.3q3.9-7.4 4-7.3" fill="none" stroke="#c1e9fb3f" stroke-width=".6"></path><path d="M178.5,-88.5q2.8-3.4 3.1-5.1" fill="none" stroke="#c1e9fb3f" stroke-width=".9"></path><path d="M180.6,-92.1q.04,.04 0,.04q-.04,0 -.04-.04q0-.04 .04-.04q.04,0 .04,.04" fill="none" stroke="#c1e9fb3f" stroke-width=".4"></path><path d="M179.9,-90q.3,1.7 .7,3" fill="none" stroke="#c1e9fb3f" stroke-width=".4"></path><path d="M181.2,-102.6q-3,9 -3,9" fill="none" stroke="#c1e9fb3f" stroke-width=".7"></path><path d="M179.3,-94.3q3.9-4.2 7-7.6q-2.7,3.1 -7.8,8.7" fill="none" stroke="#c1e9fb3f" stroke-width="1"></path><path d="M173.6,-99.4q-2.5,9.3 -4.7,16.8q.4,.7 1,1.3q1,.8 4.7-14.3q.9-4 -.1-3q-1.1,1.1 -8,25" fill="none" stroke="#c1e9fb3f" stroke-width="1.1"></path><path d="M166.9,-74.6q.04,.04 0,.04q-.04,0 -.04-.04q0-.04 .04-.04q.04,0 .04,.04" fill="none" stroke="#c1e9fb3f" stroke-width=".4"></path><path d="M171.4,-88.3q8.4-10.2 15.2-18.7q3.6-4.5 7.4-1.6q2.3,1.7 -9.8,14.7q-20.5,22.4 -16.5,16.8" fill="none" stroke="#c1e9fb3f" stroke-width="1"></path><path d="M176.1,-89.1q-14.7,43 -11.9,56.5q.8,3.8 3.3-3.6q1.3-6.5 2-12" fill="none" stroke="#c1e9fb3f" stroke-width=".9"></path><path d="M169.5,-48.6q.04,.04 0,.04q-.04,0 -.04-.04q0-.04 .04-.04q.04,0 .04,.04" fill="none" stroke="#c1e9fb3f" stroke-width=".4"></path><path d="M170.1,-29q2.1,26.7 2.7,29.9q.7,3.6 1.7-6.6q.8-9.1 -2.3-22.9q0-.1 -.6,.4q-.3,.2 1.6,11.7q6.6,40.5 13.4,39.3q2.5-.5 -2.8-22.4q-4.6-18.8 -11.5-22.4q-5.8-3 -12,14.2q-.2-.7 -.4-1.9q.6-7.7 1.7-13.9q3.2-18.1 0-31.8q-.1-.2 -1.3-.1q-.3,0 -.8,9.7q-1.1,22.5 2.4,23.5q4.8-10.4 5.3-24.6" fill="none" stroke="#c1e9fb3f" stroke-width="1.3"></path><path d="M179.5,-68q3.2-4.4 5.9-10.2q.4-.6 2-3" fill="none" stroke="#c1e9fb3f" stroke-width="1"></path><path d="M185.3,-69.3q-.8,14.9 1,19.6q1.3,3.5 4.1-14.5q2.9-18.8 -.4-31.6q-.5-1.7 -2.5,30.6q-1,15.6 -1.8,28.3q.1,.2 .3,.3q.7-2.6 .3-6.7" fill="none" stroke="#c1e9fb3f" stroke-width="1.2"></path><path d="M188.5,-75.5q10.2-15.7 18.5-28.6q3.8-6 6.7,0q.6,1.3 1-.6q-5.9,6.5 -14.1,19.8" fill="none" stroke="#c1e9fb3f" stroke-width="1.1"></path><path d="M193,-71.4q-.3,.9 -.5,1.4q-.3,1.8 3-7.9q10.9-31.7 3.9-33.8q-.9-.2 -13.6,25.1q-6.2,12.4 -10.4,17.7" fill="none" stroke="#c1e9fb3f" stroke-width="1"></path><path d="M157.8,-77.4q-5.3,6.1 -7.8,14.7q-.4,7.1 -.1,13" fill="none" stroke="#c1e9fb3f" stroke-width=".7"></path><path d="M218.8,-105.4q9.1,17.1 16.5,31.2q.1,.2 .9-.6q.3-.3 -2.8-10.5q-4.3-14.1 -8.1-20.3q3.2,8.6 10,24.1q4.7,14.8 8,27q-1.8-7.1 -5.2-20.3q-4.3-13.9 -8.2-25.2q-.5-1.4 5.5,8.5q15.8,26.2 15.3,54.6q0,4 -1.6,3.8q-.4-.1 -2.3-15q-1.6-13.4 -3-24.4q-.2-2.3 .7-1.9q1.7,.7 4.4,13.4q6.6,30.9 -9.1,62.5q-3,6 -5.7,5.6q.1-1.1 .9-2.4" fill="none" stroke="#c1e9fb3f" stroke-width="1.2"></path><path d="M233.7,-2.8q-.7,3.5 -5.7,9q-11.6,12.4 -10,16.3q1.2,2.9 8.4-14.2q7-16.8 -1.1-15.7q-3.9,.6 -13.7,23.7q-1.9,4.6 -.7,4.3q1.7-.5 13.6-29.7q4.8-11.8 1.4-14.4q-1.6-1.2 -6.6,20.8q-3.6,15.9 -.6,20.9q3.7,6.6 17.1-24.4q10.3-24 6.8-54.7q-.5-4.7 -1.7-3.8q-1.5,1 -.4,24.6q.3,5.4 1.8,3.8q1.1-1.1 .5-22.3q-1-35.3 -16-53.1" fill="none" stroke="#c1e9fb3f" stroke-width="1.1"></path><path d="M211.3,-35q2.3-8.3 2.8-23.1q.7-20.2 -3.8-26.6q-1.1-1.5 -1.3,13.6q-1.2,26 -2.5,47.2q.8-6.2 2-17.6q2.6-25.8 -2.1-38.4q-.9-2.5 -2.3,12.6q-1.4,15 -3.6,46.7q-.6,8.1 4.6,2q3.2-3.7 9.7-43.9q.8-7.8 1.1-14.3q.2,1.7 .5,4.9q.3,17.9 .2,32.6q-.1,18.4 4.2,12.9q2.2-2.8 4.6-39.3q.1-7.2 .1-13.2q-.1-6.3 2.5,12.3q3.1,29.9 5.2,54.5q-.9-15.2 -2.7-43.5q-.4-6.3 -6.1-20.4q-2-4.9 -4.2-.6q-.4,.9 -2.7,45q-1.4,27.4 -5,29.9q-.5-2.3 -.1-6" fill="none" stroke="#c1e9fb3f" stroke-width="1.2"></path><path d="M207.3,-37.5q3.6-38.1 2.3-52.7q-.4,18.1 .2,51.5q0,14 0,25.4q-.1,6.4 1.8-10.4q4.7-41.7 -.1-52.8q-.9-2 -.6,13.6q.8,43.1 4.1,42q1.4-.5 3.1-28.3q1.8-29.9 -4.9-33.5q-1.2-.7 -3.6,14.1q-4.6,30.2 -8.4,54.9q-.7,5 -2.4,6.1q-.3,.2 1.5-10q3.5-19.1 4.3-44q.3,2.2 .5,6.2q1,23.6 1.6,42.8q.3,9.7 5.7,10.5q3.6,.4 11.1-48.8q2.7-18.1 -4.4-50.5q-1.2-5 -1.8-2.8q-.2,.9 1.8,34.1q1,17.6 1.6,32q.4,8 2.8,7.5q1.2-.3 3.2-17.8q2.8-23.9 -1.2-38q-.1-.2 -1.4-.1q-.4,.1 1,14.7q1.6,25.1 2.6,45.6q.3,.6 .8,1q.4,.5 .2-15.8q-.4-24.8 -8.7-35.1q-2.8-3.4 -5.5,7.8q-4.4,24.2 -7.5,44q-.7,4.9 -3.4,2.9q-.6-.5 -2.3-17.5q-3-29.7 -9.4-31.1q-1.9-.4 1.5,27.6q1,8.6 5.7,10.2q5.4,1.9 18.3-38.5q5.4-17 10.2-3.5q.1,0 4.7,34.6q1,7.4 2.9,3.6q1.1-2.3 -2.8-.8q-3.5,3.1 -6,6.1" fill="none" stroke="#c1e9fb3f" stroke-width="1.3"></path><path d="M208.7,-26.4q3.2-13.6 5.2-28.6q4.1-29.5 -2.4-31q-1.9-.4 -1.1,28.3q.6,24.7 3,27.1q2.2,2.2 3.4-22.7q1.4-29 -4.2-29.2q-.5,0 .7,17.9q1.1,30.2 1.8,55q.2,7.2 1.6-31q1-26 -2.6-37.6q-1.5-4.9 -3.1-.4q-1.2,3.3 2.9,17.3q1.6,5.3 4.9,1q3.7-4.7 -2.8-30.3q-.7,.1 -1.4,.4q-.2,.1 -.2,18q-.1,28.7 -3.5,73.4q-.5,1.8 -1.1,3.2" fill="none" stroke="#c1e9fb3f" stroke-width="1.3"></path><path d="M208.5,4.7q4-10.2 4.4-18.4q.1-.7 -1.9-2.8q-1.1-1.2 -3.4,16.7q-1.7,13.3 2,8.6q1.8-2.2 5.9-56.9q2.6-35.7 -3.2-58.1q-.5-.7 -1.1-1.2q-.3-.4 1.9,8q.9,3.3 1.8,2.4q1.1-1.1 -2.6-15.5q-1.3-5 -2-2.6q-.2,.5 1.2,37.4q.6,33.2 1,60.4q.1,4.4 1.5,4.2q.5-.1 1.6-11.5q3.1-34.5 -2.5-35.8q-.7-.1 -4.6,19.2" fill="none" stroke="#c1e9fb3f" stroke-width="1.2"></path><path d="M211.7,-53.7q-.6-7.3 -2.7-14.1q-2.2-7.5 -6.2,.4q-2.9,5.5 -5.9,32.5q.1-3.5 .5-10.2q1.1-18.7 -5.7-21.1q-3.8-1.3 -5.8,38.3" fill="none" stroke="#c1e9fb3f" stroke-width="1"></path><path d="M187.8,-71q3.8-16.7 4.4-35.7q.2-6.3 1.7-7.4q-.1-.7 -.4-1.3q-.4-.7 -10.7,13.3q-8.8,12 -23.1,49.2q.1-7.3 1.8-20.4q1.8-13.4 -4.8-14.5q-2.7-.5 -9.3,37.8q-3.7,16.4 -7.2,29.7q-1.1,4.2 .2,4.5q1.2,.4 4.3-17.1q2.7-27.5 4.1-50.1q.9-13.3 23.3-37.5q6-6.6 7.1,0q.6,3.4 -16.5,14.7q-12.3,8.2 -16.6,20.5q-.9,2.7 -4.6,22.1q-.1,.5 -.2,17.9q0,4.5 7.6,17q8.1,12.1 14.9,21.9q4.4,6.3 2.8,9.6q-.1,.3 -6.8-7.8q-13.8-16.7 -18.2-15.7q-1.7,.4 13.2,18.8q10.5,13.1 12,11.3q.7-.7 -8.8-9.4q-6.5-5.9 -18.2-9.2q-1.1-.4 2.3-6.6q10.5-19.5 9.5-38.4q-.1-1.9 1,3.9q4.2,29.9 7.2,54.5q.7,5.5 2.3-10q.3-2.2 .2-8.8q1.2,3.8 2.8,11q2.1,10.1 13.6,30.9q1.8,3.2 3.3,1.7q2.6-2.6 -10.4-23.4" fill="none" stroke="#c1e9fb3f" stroke-width="1.2"></path><path d="M223.5,22.4q10.3-3.9 22.5-13.5q8.6-6.7 21.3-24.8q0,1 -.2,2.6q-4.8,11.3 -10,20.1q-4.5,7.8 -2,12.1q1.2,2.1 14.2-16.2q8.6-12.1 11-24.9q0-.3 -.8-1.4q-.7-1 -3.2,10.3q-.8,4 .6,3.3q2.4-1.2 3.8-27.4q.6-12 -6.5-30.6q-1.6-4.3 -3.7-3.6q-2,.8 3.7,21.1q1.4,5 2.3,3q1.1-2.1 -8.5-28.4q-6.9-18.7 -15.7-29.7q-.2-.2 -1,.5q-.1,0 1.4,6q.7,2.8 -1.3,2.2q-.6-.2 -14.7-17.2q-8.7-10.4 -12.6-13.4q9.7,10 28.5,27.7q9.9,12.6 17.3,23.6q1,1.5 -.6-3.3q-5.6-16.7 -8-17.8q-.1-.1 2.8,14.4q5.5,27 5.2,52.5q-.2,17.1 -4,20.5q-.4,.3 0-15.8q.9-45.6 -11.1-56.3q-.9-.8 0,3.3q2.9,12.7 4.9,14.9q-.1-3.6 -1.7-9.4q1,10 3.9,28.5q3.3,21.3 2.3,29.3q-1.3,10 -15.9,21.9q-7.9,3.3 -14.8,5.1q-4.6,1.2 -9.3,9.3q.2,.2 .5,.2q.4,.2 16.5-27.4q2.8-4.8 3.1-1.8q0,.1 -5.1,12.3q-4,9.6 -2.9,13.6q.9,3.3 7.3-5.2q12.5-16.7 18.7-53.5q2.8-16.6 -3.1-40.7q-.7-2.8 -4.4-2.4q-2.6-2.3 -4.2-5.2q-1.2-2.1 -1.9,1.4q-.3,1.4 8.9,29.7q4.1,12.7 3,36.6q-.5,2.3 -1.1,4.2" fill="none" stroke="#c1e9fb3f" stroke-width="1.2"></path><path d="M255,-20.2q3.1-9.3 6.7-29.8q3.3-19.3 -3.5-37.9q-1.6-4.4 -3.3-.9q-1,2.2 6,19.9q.2,.6 2.5,1.6q2,1 -6.1-23q-1.6-4.7 -1.8-3.5q1.1,9.5 3.1,17.2q6.3,24.5 0,64.6q-2.6,16.3 -19.9,29.5q-5.6,4.3 -7.5-.7q-.2-.5 6.3-17.9q16.3-43.4 7-81.4q-3.3-13.4 -4.9-17.3q-4.3-10.6 -11.9-12.8q-3.2-.9 2.7,19.8q11.4,39.8 12.2,40q2,.6 -10.4-34.3q-3.7-10.4 -6.1-4.6q-.1,.1 6.1,48.3q3.3,26.6 3.8,26.9q.6,.3 -.6-18.9q-2.6-46.5 -11.7-50.8q-1.7-.8 -.8,18.9q1.2,24.7 3.3,50.5q.1,.7 2,2.7q.7,.7 .7-15.8q0-29.7 -7.4-45.2q-1.4-2.9 -2.8,3.2q-1.4,5.8 -.9,39.5q.6,1.6 1.4,2.8q2,3.3 1.1-41.7q-.2-11.8 -5.7-34.4q-.2-.7 -2.6-2.5q-1-.8 1.2,17.4q1.5,11.8 4.5,8.8q1.1-1.1 -1.6-16.2q-2.2-12.1 -9.2-8.3q-2.7,1.4 -12.8,35.9q-1.3,4.3 -2.4,2.7q-.6-8 .5-15q1.1-7.1 -3-17.2q-2-4.7 -5.7,5.2q-2.8,7.4 -5.9,34.6q-.1-5.2 .1-14.8q.3-15 -6.9-17.7q-2.5-1 -10,36.4q-3.5,17.4 -.9,18.8q.3,.1 .7-11.2q.2-3.8 1.2-3.4q.3,.2 4.7,28.7q4.3,28.1 8.8,37.5q1.3,2.6 2.8-.1q1-1.8 -1.4-26.7q-3.1-33 -5.6-60q.1,3.6 .3,10.3q.9,31.8 1.7,57.7q.2,9.9 5.3,4.3q2.3-2.7 7-46.1q.6-6.4 -1.2-35.5q-.2-3.8 -2.3-5.2q-.7-.5 -.5,14.3q.7,45.3 1.1,56q.2,4.9 2.5,3.3q1.6-1.1 7.7-30.6q4.4-20.9 2.6-43.1q-.5-.7 -1.1-1.3q-.3-.2 -.2,17.8q.3,36.4 3.3,48.5q1.5,5.7 4.8-6.6q5.1-18.4 4-49.3q-.5-13.8 -3.7-11q-2.5,2.1 1.4,53.8q.2,3.5 2.7,1.9q2.5-1.6 6.4-33.7q2.8-24.1 -4-38.8q-1.6-3.3 -2.9-.6q-1.4,3.1 5.9,19.7q2.4,5.5 4.7,1.2q1.3-2.6 -.3-19.3q.8,2.5 1.9,7.3q1.3,5.5 4.2,4.2q2.2-.9 -6.1-24.6q-3.1-8.8 -5.8-9.9q-.2-.1 6.2,11.4q14,25 19.1,18.7q1.3-1.6 -2.2-9.6q-.8-1.9 -1.3-.5q-.3,1.1 3.5,10.6q5.8,14.8 14.9,12.9q4.1-.9 3.6-12.8q-.5-10 -13.3-22.2q-2.4-2.4 -3.4,2.4q1.3,7.7 3.5,13.9q-3.8-3.6 -9.4-11q-5.1-6.7 -12.2-8.8q-2.3-.6 3.9,11.8q2.3,4.7 .1,3.2q-5.4-5.8 -9.2-11.1q-4.2-5.7 -6.7-1.8q-1.2,1.8 5.9,7q-1.5,0 -4-.6q-4.3-1 -26.7,15.9q-2.7,2 -3.7-1.9q-.6-2 8.9-12.8q10.7-12 6.3-9.9q-3.9,1.9 -7.1,3.5q4.8-2.2 13.7-6.5q-9.1,4.7 -26.3,13.2q-5.8,2.9 -7.5,14.5q-.3,2.4 -6.2,11.5q0,.1 .1,.2q0,0 16.8-21.8q6-7.7 18.1-17.5q2.6-2.1 6.2,.6q2.8,.8 5.4,1q.1,0 -2.8,8.7q-1.2,5.1 -2.1,9.3q-1.9,1.1 -4.1,1.5q-2.1,.4 -10.9,17.5q-6,11.6 -10.4,43q-1.5,4.7 -3.1,8.5q.1,5.6 1.2,10.4q1.8,10.1 3,18.4q1.9,12.6 6,29.9q-2.4-3.6 -5.9-10.4q-5.1-10.1 -7.6-10.6q-1.5-.3 7.4,11.8q9.1,11.7 16.7,21.1q-.5-3.4 -2.3-9.3q-3.7-22.1 -5.5-40.5q1.9,8.3 4.8,23.7q3,16.3 8.4,19.7q1.6,1.1 -.4-14.5q-1.8-14 -4.1-15.7q2.1,11 10.1,28.2q.4,.8 2.1-10.3q4.6-29.8 17.8-32q4.5-.8 14,13.2q4.7,6.9 -1.4,17.4q-6.3,10.9 -7,13.4q.2,.2 .5,.4q.8,.3 2.9-9.3q.5-2.4 -1.1-1.8q-3.7,4.5 -6,9.2q-2.9,5.8 -5.9,2.4q-.4-.5 3-14.2q.9-3.8 -.1-4.7q-.1-.1 -3.8,10.5q-4.1,11.8 -6.1,7.5q-.5-5.1 -.1-9.4q.4-6 -4.8-5.4q-4,4.5 -6.3,9.6q-.2,.3 -1.8,.1q-.4-.1 3.9-21.3q7.6-38 -1.7-49.2q-3-3.5 -5.2,10.7q-6,39 -6.6,52.1q-.3,5.4 3.6,3.1q2.9-1.7 18.6-51.3q1.6-5 3.3-3.2q.7,.8 -.8,35.2q-.5,11.1 1.1,10.3q1-.4 4.1-18.7q5.9-34.2 -2.9-60.4q-1.7-5.3 -3.6-1q-1.9,4.2 1.3,32.7q.6-1.2 1.3-3.5q2-6.9 -2.7-50.1q-.4-3.7 -3.2-4.4q-1.2-.2 -.6,13.1q2.8,61.4 2.9,62.4" fill="none" stroke="#c1e9fb3f" stroke-width="1.3"></path><path d="M210.7,-47.8q2.5-12.4 3.6-33.1q.2-4.6 1.3,6.5q1.5,22.1 2.5,40.2q.3,4.8 2,3.6q1.1-.7 2.1-17.7q1-16.8 -1.9-30.6q2.3,13.3 7,38.1q1.7,9.3 5.6,6.1q4-3.2 -4.3-49.4q-.7-4.2 -1.2-2.4q-.2,.8 7.8,26.4q4.2,13.1 6.7,12q3-1.4 -11.3-47.8q-1.7-5.7 -4.9-3.9q-.9,.6 1.4,6.6q.1,.3 1.2,.8q2.5,1 -9.8-21.6q-6-11 -9.4-6.8q-.4,.6 2.8,23.7q.6,4.1 1.9,20.3q-.5-.8 -1.2-2.3q-1.7-4.5 -2.8-8.1q-2.7-8 -11.1-9.8q-3.9-.8 -9,17.3q-3,10.5 -5.1,39.2q-.4,4.8 1.1,5.3q.9,.3 2.3-14.7q1.3-13.5 1.6-14.1q2-4.8 2.9,43q.3,13 2,15.6q1.6,2.4 4.2-7.7q3.5-13 1.7-32.5q-.1-.2 -.6-1.2q-.5,11.1 2,30.8q1.2,14.9 2,27.1q.8,12.3 5.6,7q2.2-2.5 6.9-55.8q.6-6.7 -1.8-45q0-.2 1-.3q.5-.1 3,11.2q3.2,14.2 5,56.6q.5,12.6 4.3,11q2.6-1 8.7-52.7q.8-7.2 -.2-18.9q-.2-1.4 -.6,8.7q-1.5,25.2 -2.9,45.8q-.2,4.2 1.2,3.5q.7-.3 2.5-16.5q3.8-33.8 -1.6-46.2q-.7-1.7 -.9,3.6q-1.1,36.1 3.4,51.8q1.3,4.5 3.9,.7q2.3-3.6 .2-44.2q-.5-11.2 -10.2-33.3q-4.8-11 -10-3.5q-1.3,1.9 -4.7,44.4q-2.4,30 -5.9,17.7q-3.2-14.8 -5.4-27q-1.6-8.5 -6.2-10q-1.7-.6 -1.8,13.2q-.1,44.5 -3,67.1q-.9,5.5 -1.7,9.9q.8-4.2 2.3-12.2" fill="none" stroke="#c1e9fb3f" stroke-width="1.3"></path><path d="M184.2,-26q12-35.5 12.6-62.2q0-1.6 0-3.8q.7,2.5 1.5,7.2q.7,3.6 4.8-1.5q3.8-4.8 1.9-14.7q-.6-3.1 -4.8,4.8q-8.3,15.6 -15.3,57.5q-1.3,7.7 .1,7.3q1.7-.5 3.4-28.5q.9-13.1 -2.6-13.8q-.5-.1 -1.1,41.5q-.5,15.1 -1,27.4q-.2,5.2 1.8,4.8q3-.7 3.6-25.6q.4-13.8 -3-13.5q-1.3,.1 -1.2,20.4q.1,14.9 4.3,15.6q3.4,.6 9.2-27q3.2-14.8 8.2-65.3q.2-2 0-1.4q-1.5,8 -4.1,28.4q-3.2,25.4 -9.3,57.5q-.9,4.5 -.3,4.6q.4,.1 2.8-14.4q5.6-34.1 2.1-67.7q-2.4-14.4 -4.7-26q-.9-4.5 3.7-1.3q2.4,1.7 3,22.4q.3,10.1 -11.3,47.5q-15.8,51.5 -5.6,43.4q3.8-5.6 6.2-10.8" fill="none" stroke="#c1e9fb3f" stroke-width="1.3"></path><path d="M225,-32q1.9-.3 3.7-2.2q7.1-8.1 5.4-41.8q-.2-5 -4.3-5.6q-2.1-.2 -1.9,6.9q-2.1-5.9 -4.8-17q-4.5-19.1 -8.3-21.4q-.2-.1 3.4,10.5q9,26 13.4,69.1q1.2,11.4 3.6,12.6q0-.4 -.1-.9q-.7-2.7 -8.7,9.7q-7.3,11.2 -16.8,38q-1.7,4.6 -.3,6.3q.5,.6 3.9-8.6q9.8-26.9 14.2-50.3q5.1-27.1 -3-58.6q-2.5-11.3 -4.5-20.6q-1.4-4.2 -2.8-7.5q1.9,8.4 6.3,23.7q7.2,24.6 9.2,61.2q.5,8.7 2,9.1q2.5,.5 -1.5-16.2q-2.1-8.7 -6.6-2.6q-4.1,20.4 -4.1,38.4" fill="none" stroke="#c1e9fb3f" stroke-width="1.3"></path><path d="M223.9,-29.2q1.3-38.8 -2.6-54q-.1-.4 -1.7-.5q-.4,0 1,13.2q1.6,14.9 4.1,35.2q.1,.3 1.6,.5q.8,.2 .7-14.3q-.1-22.6 -6.5-36.4q-.9-.1 -1.9,.1q-.2,0 1.6,21.3q2.6,31.5 1.5,56.6q.2-17.1 .9-48.9q-.7,2.8 -1.6,8.2q-2,11.9 -6.2,66.8q-.3,4 1.1-5.5q4.9-33.1 6.4-50.6q3.5-41.4 -2.9-73.5q-1.7-8.7 -3.4-6.1q-.1,.2 2.3,15.1q4.5,28.1 4,74.7q-.3,23.3 1.4,22.8q.8-.2 2.5-27.6q1.8-27.3 -3.3-28.3q-.8-.2 -2.9,17.2q-2.1,24 -3.6,43.6" fill="none" stroke="#c1e9fb3f" stroke-width="1.3"></path><path d="M213.6,-9.8q5-11 8.7-29.8q2.6-13.2 .6-25q-.3-1.4 -.8,8.3q-2.2,30 -4.2,54.6q.3,.8 .8,1.4q.4,.5 1.6-10.9q1.3-11.1 .1-37.4q-.2-3.9 -2.8,14.3q-4,29.1 -2.9,36.9q.5,3.4 2.9-2q3.4-7.4 9-54.9q1.2-9.8 -4.4-44.5q-1.3-7.8 -3.7-8.6q-.5-.2 4.6,27.9q2.3,12.3 4.6,9.5q1.7-2.2 -8.3-35.4q-1.4-4.5 -2.4-2.7q-.1,.1 2.6,17.7q9.1,59 .9,90.9q-2.9,11.4 -11.7,18.7q-3.2,2.7 -2.6-3.4q2-7 4-12.6" fill="none" stroke="#c1e9fb3f" stroke-width="1.3"></path><path d="M195.5,-56.3q5.9-16.9 8.8-36.2q.1,.1 .2,.1q.4,2.5 .2,4.8q.6,.5 1.4,.8q.6,.3 .3-8.2q-.1-3.7 -1.7-3.9q-.7,0 -2.3,11q-8.8,58.9 -7.7,87.5q.2,5.1 2.8,2.7q3.3-3.2 1.4-29.4q-.4-5.2 -3-2.4q-1.5,1.6 -1.8,36.9q-.2,13.1 3.5,11.4q1.3-.6 4.1-45.6q1.4-37 2.1-67.2q.3-12.3 6.2-11.6q1.8,.2 -.1,11.8q-9.1,58.8 -9.3,60.1q-2.9,25.1 -5.4,45.5q-.1,.4 .8,1.8" fill="none" stroke="#c1e9fb3f" stroke-width="1.2"></path><path d="M197,-15.8q8.6-27.3 7-46.1q-.6-7.7 -5.3-4.7q-1.1,.7 -.1,3q2.8,6.1 9-24.5q3.9-19.3 .9-24q-.1-.2 -.9,8.8q-2.1,22.2 -11.3,73.9q-6.2,34.4 1.2,26.3q3.1-3.4 5-44q.2-4.1 -.5-3.2q-.2,.3 -.7,16.7q-2.1,35.7 -4.1,64.9q.3,.1 .6,.1q.6-.1 2.5-54.1q-.1-48.4 -1-88.1q-.1-3.1 1.5,5.3q5.4,29.3 .8,103.5q-.9,15.1 1.9,18.4" fill="none" stroke="#c1e9fb3f" stroke-width="1.3"></path><path d="M205.8,-33.3q5.9-33.1 4-52.2q-.1-.4 -1.1-1.5q-.3-.3 .2,13.6q1.3,32.2 4.1,31q1.8-.9 -3.5-45.2q0-.5 -1.6-1.6q-.6-.3 -1.3,19.4q-1.7,47.8 1.6,51.2q0-1.2 -.4-3.1q-1.1,6.7 -1.4,18.9q-1.2,13.2 -2.7,23.9q1.6-10.6 4.4-30.3q4.2-29.4 2.2-62.8q-1.5-24.3 -1.5-24.4q.3-.3 .6-.4q.2-.1 .8,11.2q2.1,47 -1.5,75.7q-1.3,6.4 -2.5,11.6" fill="none" stroke="#c1e9fb3f" stroke-width="1.3"></path><path d="M206,-15.8q3.7-11.3 6.8-29.5q4.5-27.1 -2.1-34.3q-1.5-1.6 -1.2,1.5q.6,5.8 .2,19.3q-1.6,32.2 -3.1,58.6" fill="none" stroke="#c1e9fb3f" stroke-width="1.2"></path><path d="M207.3,-7q8.5-37 7.6-68.3q-.6-20.2 -6.3-22.4q-.8-.3 .2,16.2q1.5,25.1 .9,44.2q-1,18.8 -1.9,34.2q-.9,13.8 6.1,10.2q5.2-2.6 7.5-56.8q.3-7.1 -4.4-24q-1.4-5.1 -3.8,0q-.9,2.1 -3.7,55.7q-1.2,21.5 2,21q1.5-.2 4.8-17.7q4.5-23.6 .6-59.1q-2.3-21.6 -6.4-28.8q-.6-1 0,8.7q2.7,49.6 3.3,52.2q1,5.3 3.1,.7q1.6-3.4 -.2-44.8q-.6-13.2 -8-28.2q-1.9-4 -1.9,9.4q.2,44.5 -1.3,71q-.3,5.7 -1.2,28.4q-.1,1.8 1,.5q1.2-1.3 4.7-26.8q5.4-39 -2.5-53.2q-1.3-2.3 -2.7,17.3q-3.1,38.2 -5.8,69.3q-.7,8.9 2.3,7.3q2.3-1.2 7.4-30.4q4.4-25.2 1.5-75q-.2-3.9 -1.5-7.3q-.1-.4 .2,15.3q.8,31.2 -6.1,82.5" fill="none" stroke="#c1e9fb3f" stroke-width="1.3"></path><path d="M206.8,-40.1q4.1-31.1 3.8-39.8q-.8-22.5 -5.7-27.2q-.6-.6 .3,8.9q3.4,32.8 -1.2,94.4q-.3,4.7 1.7,4.5q1.5-.2 5.6-27q2.8-18.6 2.1-48.2q-.8-31.3 -5.5-31.4q-.7,0 -.6,28.5q-.3,33.2 -.6,60.5q-.1,9.3 2.8,6.3q2.1-2.1 6-45.2q1.6-17.5 -4.1-45.6q-1-5.1 -2-3.8q-.1,.2 -.8,38.8q-.7,43.4 -7.1,80.5" fill="none" stroke="#c1e9fb3f" stroke-width="1.3"></path><path d="M216.4,-51.2q-4.6-55.4 -8.9-63.5q-1.2-2.3 -.4,14.1q1.7,35.5 1.7,53q-2.1,39.8 -4.5,72.3q-.5,5.4 3-7.3q5.9-21.1 7.8-64.6q1-24.4 -6.3-56.4q-.2,1 -.4,2.9q.8,18.9 2.6,34.4q1.9,17.2 -1.4,75.8q-.3,4.4 1,3q1.8-2.1 7-42.1q3-22.7 -.9-52.2q-1.2-9 -2.1-6.5q-.2,.6 2.1,30.7q1.7,29.9 2.8,54.4q.1,3.2 1.1-12.6q2.2-35.7 -5.4-59.1q-2.5-7.9 -8-6.7q-2.8,.7 -4.4,23.6q-1.6,23.4 -.1,52.7q.4,6.5 3.9,1.7q3.2-4.3 6.8-51.7q.7-9.8 -2.7-21.8q-.4-1.4 -1.5,17.6q-2.4,41.1 -12.2,80.1q-2.7,8.7 -5.1,15.7" fill="none" stroke="#c1e9fb3f" stroke-width="1.3"></path><path d="M203.8,-101.3q-4.7-14.2 -14.9-25.6q-.4-.4 -2.6-1.3" fill="none" stroke="#c1e9fb3f" stroke-width=".6"></path><path d="M203,-99.8q-4.7-9.2 -16-26.2" fill="none" stroke="#c1e9fb3f" stroke-width="1"></path><path d="M201.1,-96q-17.1-33.8 -19-32.4" fill="none" stroke="#c1e9fb3f" stroke-width="1"></path><path d="M209.8,-94.3q4.5-9.8 11.1-29" fill="none" stroke="#c1e9fb3f" stroke-width="1.2"></path><path d="M222.2,-107.1q1,.9 2.7-1.3q4.1-7.1 7.1-13.2" fill="none" stroke="#c1e9fb3f" stroke-width="1"></path><path d="M223.5,-102.4q3.3-1.9 7.3-6.9q3-4.3 5.5-7.8" fill="none" stroke="#c1e9fb3f" stroke-width="1.1"></path><path d="M221.3,-99.4q7.2-11.8 13.3-21.3" fill="none" stroke="#c1e9fb3f" stroke-width="1"></path><path d="M224.5,-99q14.7-17.9 13.5-18.7" fill="none" stroke="#c1e9fb3f" stroke-width="1.1"></path><path d="M221.1,-104.3q12.6-11.7 12.6-11.9" fill="none" stroke="#c1e9fb3f" stroke-width="1"></path><path d="M223.5,-110.5q-1.3-2.2 0-7.1q3.5-7.6 6.8-13.6" fill="none" stroke="#c1e9fb3f" stroke-width=".8"></path><path d="M198.9,-96.6q-19.7-12.4 -15.8-12.8" fill="none" stroke="#c1e9fb3f" stroke-width="1"></path><path d="M244.6,-48q-4.2,38.2 -10.5,56.8q-7.2,21.1 -22.2,33.8q-3.6,3 -7.6,2.6" fill="none" stroke="#c1e9fb3f" stroke-width=".7"></path><path d="M216.8,-3.8Q216.86,-3.74 216.8,-3.74Q216.74,-3.74 216.74,-3.8Q216.74,-3.86 216.8,-3.86Q216.86,-3.86 216.86,-3.8" fill="none" stroke="#c1e9fb3f" stroke-width=".6"></path><path d="M217.1,-1.7Q218.3,11.4 222.6,25.7Q226.4,38.7 231.6,36.3" fill="none" stroke="#c1e9fb3f" stroke-width="1.1"></path><path d="M215.1,4.5Q221.9,8.5 230.5,17Q231.5,18 235.8,21.8" fill="none" stroke="#c1e9fb3f" stroke-width="1.1"></path><path d="M214.1,1.7Q217.9,10.3 217.7,17.9Q217.5,22.1 210.8,32.1Q203.5,42.9 192.3,42.5" fill="none" stroke="#c1e9fb3f" stroke-width="1"></path><path d="M200,14.3q-13.2,5.4 -24.1,9.6" fill="none" stroke="#c1e9fb3f" stroke-width="1"></path><path d="M199.6,13.9q-25.7,17 -25.2,12.6" fill="none" stroke="#c1e9fb3f" stroke-width="1"></path><path d="M210.9,-3.2Q173.9,20.5 176.3,16.9" fill="none" stroke="#c1e9fb3f" stroke-width="1"></path><path d="M197.7,-12.8q-21.2,21.8 -21.8,18.8" fill="none" stroke="#c1e9fb3f" stroke-width=".9"></path><path d="M205.1,-30.3q-18.8,35.7 -19.8,34.6" fill="none" stroke="#c1e9fb3f" stroke-width=".8"></path><path d="M200.9,-70.8q1.7,5 1.8,13.4q.3,23.7 -16.5,64.8q-2.9,7 -16.3,20.3" fill="none" stroke="#c1e9fb3f" stroke-width="1.1"></path><path d="M203.2,-66.5q-11,37.7 -26.5,67.5q-2.3,4.3 -12.8,21" fill="none" stroke="#c1e9fb3f" stroke-width="1"></path><path d="M182.5,6q4.6-6.1 10.2-18.5q17.8-40 -3.7-95.9q-4-10.4 -5.2-8.9q1,4.7 3.6,8.9q4.7,7.6 10.3,43.7q2.1,13.4 1,31.4q-1.1,19.8 -17.9,47.8q-2,3.2 -11.4,7.5q-5.3,2.5 -4.4-2.1q.1-.4 8.1-10q14.3-17 22-35.8q12.7-31 -1.9-73q-3-8.5 -12.4-20.9q-.4-.5 2,5.2q12.1,29 14.6,55.2q1.9,19.6 -6.6,55.1q-4.7,19.5 -16.8,30.5q-2.4,2.1 -1.7-1.5q0-.2 15-30.9q13.5-27.9 13.7-65.7q-1.1-22.4 -2.6-40.7q-.2-2.7 8.2,32.8q7.6,32.1 -4.1,79.4q-3.3,13.5 -12.2,25.6q-.4,.1 -.8,.2q.8-2.4 3.2-5.5" fill="none" stroke="#c1e9fb3f" stroke-width="1.2"></path><path d="M225.4,-39.7q.8-6.8 -.3-25.6q-1.2-19.9 -.6-29.6q.8-12.3 14.1-16.9q7.2-.5 13.2-.2q-2,.8 -5.8,1.7q-7.3,1.7 -19.1,16.7q-11,14.1 -2.4,65.8q2.5,15 14.1,29.3q11.1,13.8 14.1,19.5q2.4,4.5 -.8,4.3q-4.6-.3 -21.6-20.4q-6.7-8.1 -8.1-27.6q-1.1-15.3 13.9-80.5q3.6-15.6 4.8-13.7q.2,.2 -3.5,9.1q-10.5,25.2 -12.8,54.4q-1.5,18.2 3.4,34.7q3.2,10.9 25.2,40.4q3,3.4 5.7,6" fill="none" stroke="#c1e9fb3f" stroke-width="1.2"></path><path d="M220.7,-30.7q8.4-55.3 17.1-81.9q2.1-6.5 6.6-5q.3,.1 -6.9,6.6q-10.4,9.2 -17.2,21.4q-7.4,13.2 -1,38.9q3.7,15.2 21,41.4q7.1,8.8 13.2,15.8q4.1,4.6 5.3,15.4q.7,6.4 -8.1-.2q-16.8-12.5 -25.9-48.5q-5.6-22.3 3.7-65.1q3.7-17.2 11.5-14.3q3.7,1.3 1.9,8.8q0,.3 -11.5,20.2q-11.7,20.3 -8.1,48.6q1.1,8.8 16.3,27.4q15.5,19 13.9,18.5" fill="none" stroke="#c1e9fb3f" stroke-width="1.2"></path><path d="M194.9,-39.7q-4.5,15.6 -10.7,26q-4.3,7.3 -19,21.1q-.9,1 -.8,.9q10.2-4.6 23.7-29.5q10.6-19.5 8.7-56.5q-.6-12.3 -13.1-41.8q-.8-2 -.8-1.2q-.1,.4 5.3,15.6q7.7,21.7 5.8,69.2q-.9,23 -23.7,47.4q-5.2,5.6 -8.4,3q-.1-.1 7.9-10.1q22-27.5 31.2-55.7q3.3-10.1 2-19.7" fill="none" stroke="#c1e9fb3f" stroke-width="1.1"></path><path d="M181.7,2.8Q173.6,15.6 166.9,26" fill="none" stroke="#c1e9fb3f" stroke-width=".9"></path><path d="M189.1,-6.4Q188.8,-1.7 185.8,5.1Q182.1,12.7 178.9,18.8" fill="none" stroke="#c1e9fb3f" stroke-width="1"></path><path d="M191,-.2Q188.2,9.4 181.4,24.1" fill="none" stroke="#c1e9fb3f" stroke-width="1"></path><path d="M195.7,-.2Q189.9,15.6 185.3,28.6" fill="none" stroke="#c1e9fb3f" stroke-width=".9"></path><path d="M197.2,-4.5Q197.3,29.1 198.3,35" fill="none" stroke="#c1e9fb3f" stroke-width=".9"></path><path d="M211.3,-2.8Q215.4,8.1 219.8,24.8Q220.8,27.5 221.8,29.7" fill="none" stroke="#c1e9fb3f" stroke-width="1.1"></path><path d="M224.3,-7.9Q226.3,-2.9 229.4,7.5Q232.5,17.9 235,21.1" fill="none" stroke="#c1e9fb3f" stroke-width="1.2"></path><path d="M228.8,-5.1Q228.7,.8 234.7,11.7Q238.7,19 242.8,21.6" fill="none" stroke="#c1e9fb3f" stroke-width=".9"></path><path d="M233.7,-6.6Q243.3,15.9 242.9,16" fill="none" stroke="#c1e9fb3f" stroke-width="1.1"></path><path d="M221.1,5.1Q229.9,18.8 237.1,30.1" fill="none" stroke="#c1e9fb3f" stroke-width="1"></path><path d="M228.2,7.9Q238,25.3 242.2,30.9" fill="none" stroke="#c1e9fb3f" stroke-width="1"></path><path d="M230.3,1.9Q243.8,30.3 241.2,29.9" fill="none" stroke="#c1e9fb3f" stroke-width="1.1"></path><path d="M223.9,12q-1.1,3.3 -1.5,16.5q-.2,5 -.4,9.1" fill="none" stroke="#c1e9fb3f" stroke-width="1"></path><path d="M213.9,13.5q-.5,13 -.9,23.6" fill="none" stroke="#c1e9fb3f" stroke-width="1.1"></path><path d="M202.3,14.3q-7.2,19.1 -8.9,19.2" fill="none" stroke="#c1e9fb3f" stroke-width="1.1"></path><path d="M186.3,12.6q-6.2,6.1 -11.3,11.1" fill="none" stroke="#c1e9fb3f" stroke-width="1.2"></path><path d="M171,11.7q.6,.3 1.1,.5" fill="none" stroke="#c1e9fb3f" stroke-width=".5"></path><path d="M195.5,-84.4q-3.4-3.1 -13.7-19.2q-10.1-15.7 -8.7-13.1" fill="none" stroke="#c1e9fb3f" stroke-width="1.1"></path><path d="M194,-94.5q-1-14.3 -7.7-36.2" fill="none" stroke="#c1e9fb3f" stroke-width="1.1"></path><path d="M199.1,-102.8q1,.3 2-.4q1.6-1.1 1.9-23.7" fill="none" stroke="#c1e9fb3f" stroke-width="1"></path><path d="M206.2,-107.1q2.1,1 4.4-1.8q2.8-5.8 4.5-11" fill="none" stroke="#c1e9fb3f" stroke-width="1"></path><path d="M222,-104.1q6.7-10.2 6.2-10.6" fill="none" stroke="#c1e9fb3f" stroke-width=".9"></path><path d="M230.1,-100.7q3-2.3 4.7-4.7q2-4.4 3.4-8.1" fill="none" stroke="#c1e9fb3f" stroke-width=".9"></path><path d="M237.5,-107.5q3.4-2.6 3.2-4" fill="none" stroke="#c1e9fb3f" stroke-width=".9"></path><path d="M224.1,-91.3q-34.7,31.9 -23.7,18.4" fill="none" stroke="#c1e9fb3f" stroke-width="1"></path><path d="M196.6,-58.2q-.3-14.6 -5.3-36.5q-2.6-11.6 -6-14.9" fill="none" stroke="#c1e9fb3f" stroke-width="1"></path><path d="M195.5,-85.5q-8.9-18.7 -16.4-33.9" fill="none" stroke="#c1e9fb3f" stroke-width="1.1"></path><path d="M192.5,-90q-1.8-6.7 -6.6-16.3q-4.2-7.1 -7.9-12.9" fill="none" stroke="#c1e9fb3f" stroke-width="1"></path><path d="M191.3,-26.2q-22.9,27.2 -29.3,30.9" fill="none" stroke="#c1e9fb3f" stroke-width="1.1"></path><path d="M174.8,1.5Q173.9,4.7 173.1,7.3" fill="none" stroke="#c1e9fb3f" stroke-width=".9"></path><path d="M217.3,.7Q227.8,20.7 227.1,22.8" fill="none" stroke="#c1e9fb3f" stroke-width="1.1"></path><path d="M230.5,-2.3Q239.4,18.6 245.4,28" fill="none" stroke="#c1e9fb3f" stroke-width="1.1"></path><path d="M206.2,-51.6q-8.7-14.4 -17.3-22.9q-10.2-10.1 -36.1-14.6q-10.9-2 -17.9-.5" fill="none" stroke="#c1e9fb3f" stroke-width="1"></path><path d="M204.1,-56.7q-16.7-15.2 -33.4-25.2q-10.1-6 -28.1-9.4" fill="none" stroke="#c1e9fb3f" stroke-width="1"></path><path d="M208.1,-65.5q-1,6.3 -4.5,14.2q-7,16.4 -19.7,27.9q-4.6,4.1 -16.4,6.7q-2.6,.6 -13.1-.3" fill="none" stroke="#c1e9fb3f" stroke-width="1.1"></path><path d="M190.6,-36.2q-8.9,5.9 -28.9,14.4q-10.8,3.8 -19.7,6.5" fill="none" stroke="#c1e9fb3f" stroke-width=".8"></path><path d="M180.6,-42q-8.1,2.4 -34.8,5.3" fill="none" stroke="#c1e9fb3f" stroke-width="1"></path><path d="M178.5,-55.4q18,.3 39.1,4.2q24.4,4.4 26.3,2.2" fill="none" stroke="#c1e9fb3f" stroke-width="1.1"></path><path d="M241.6,-61.4q7.3-2.1 29.9-4.9" fill="none" stroke="#c1e9fb3f" stroke-width="1.2"></path><path d="M233.7,-50.3q2.3,3.6 9.5,9.2q23.8,18.4 26,20.4q1.8,2.3 3.1,4.3" fill="none" stroke="#c1e9fb3f" stroke-width="1.2"></path><path d="M229,-45.2q19,18.1 34.6,32.8" fill="none" stroke="#c1e9fb3f" stroke-width="1.3"></path><path d="M228.6,-33.7q17.8,5.5 42.6,5.8" fill="none" stroke="#c1e9fb3f" stroke-width="1.2"></path><path d="M241.2,-29.8q20,0 31.6,4q2.6,2.5 4.4,5.1" fill="none" stroke="#c1e9fb3f" stroke-width="1.1"></path><path d="M246.3,-13q-.2-2.2 3.5-2.1q7.7,.3 27.1,15.4q1,.8 2.7,5.6" fill="none" stroke="#c1e9fb3f" stroke-width="1.1"></path><path d="M223,-46.3q17.8,2.2 33.7,2.8q2.8,.1 13.9-2.3" fill="none" stroke="#c1e9fb3f" stroke-width="1.2"></path><path d="M229.2,-56.1q12.9-5.8 30.1-17.7" fill="none" stroke="#c1e9fb3f" stroke-width="1.1"></path><path d="M236.3,-69.5q15.7-6.9 28.5-17.9" fill="none" stroke="#c1e9fb3f" stroke-width="1.1"></path><path d="M233.7,-71q3.5,1.6 10.1,1.3q8.1-.4 22.3-8.4" fill="none" stroke="#c1e9fb3f" stroke-width="1.2"></path><path d="M236.3,-65.7q7.2,1.2 19.7,.6q7.7-.2 14-.2" fill="none" stroke="#c1e9fb3f" stroke-width="1.1"></path><path d="M228.2,-49.3q4.4,4 15.4,12.9q10.1,8.3 18.2,16.4q2,3.3 3.3,6.2" fill="none" stroke="#c1e9fb3f" stroke-width="1.1"></path><path d="M234.1,-40.3q40.4,49.6 39.5,47.6" fill="none" stroke="#c1e9fb3f" stroke-width="1.3"></path><path d="M158.6,-22.2q-3.1,3 -5.7,5.4" fill="none" stroke="#c1e9fb3f" stroke-width=".6"></path><path d="M152.6,-16.4q13.1-12 23.8-21.8q8.6-8 10.6-1.4q-8.1,18.6 -20.5,33.2q2.9-4.5 8.5-12.6q5.3-7.5 4.7-12.6q-.5-4.2 -16.3,2.6q-5.7,2.4 -6.5,.2q-.3-.9 16.6-12.4q17.8-12.2 13.4-11.4q-13.5,5.8 -24.1,11.7q-15.5,8.7 -16.3,4.5q0,0 15.3-11.9q19-14.7 17.9-20.7q-.8-3.8 -15.2-4.8q-7.2-.5 -5.6-1.6q6.3-2.1 11.8-3.2q9.1-1.6 7.8-6.9q-.9-3.3 -21.5-1.3q-4.8,.5 -3.5,1.9q.1,.1 12.9,1.4q5.8,1.5 10.4,3q.4,.2 -.5,2" fill="none" stroke="#c1e9fb3f" stroke-width="1.1"></path><path d="M194.9,-31.3q13.2-1.1 46.6-9.3q6.3-1.6 9.9-1.2q6.4,.6 -1.6,10.6q-4,5 -3.9,8.6q.1,3.2 11.1,2.4q7.7-.6 10.8,.7q6.3,2.7 -10.4,8q-11.8,3.8 -16.2,6.3q-4.4,2.5 4.8,3.2q4.9,.4 35.4-4.4q.6-.3 1-.7q-2.4-.8 -6.6-1q-10-.4 -33.5-9.6q-9.6-3.7 7.7-9.1q31.5-9.9 38.8-16.3q3.8-3.5 -4.7-5.4q-12-.6 -21.8-.1" fill="none" stroke="#c1e9fb3f" stroke-width="1.2"></path><path d="M246.7,-48q-5.9,1.6 -7.2,.1q-.1-.2 3.4-5.6q3.3-5.2 6.1-14.2q3.1-10.1 -8.3-9.9q-4.3,0 -18,9.6q-4.6,3.2 -1.8,3.5q3.3,.3 27.6-20.1q6-5 7.2-9.8q-.8,1.3 -2,3.7q-2.6,5.4 4.4,44.1q1.1,7.9 1.8,14.4q.6,5.2 2.3,2.7q.9-15.1 -1.5-28.4q-.5-2.7 2.8,23.1q2.6,12.8 5.1,23.2" fill="none" stroke="#c1e9fb3f" stroke-width="1.3"></path><path d="M175.9,-48.4q-12.9,9.4 -23.4,17.2q4.1-4.9 12.3-13.4q7.4-7.7 11.2-20q1.2-3.8 -25.8,7.8q-.5,.2 -2.5-.6q-.4-.2 8.2-5.2q20.1-11.7 23.1-16.4q-4.1,1.3 -10.5,5.2q-10.8,6.5 -14.3,3.8q-.4-.3 18.2-11.3q3.4-2 16.5-10.7q.4-.2 -21.4,2.3q-12.6,1.4 -16.2-.3q-3.6-1.7 2.5-3.4q8.4-2.3 18.5,4.6q7.5,5.3 -9.5,13.6q-13.1,6.4 -17.4,3.3q-1.5-1.1 12.4-2.2q9.1-.7 9.6,4.8q.1,1.9 -23.6,12.7q-6.9,3.2 -.4,4.5q1,.2 43,0q6,0 2.8,4.6q-3.4,5.1 -47.4,14.4q-4.8,1 -3.2,1.2q.3,0 26.9-1.6q18-1.2 23.6,1.4q8.5,3.8 -11.1,11.6q-6.6,2.6 -27.8,6q-4.3,.6 -4-1.3q.1-.3 19.6-7.7q12-4.5 11.5-8.1q-.3-1.9 -42.2-.8q-4.6,.1 -4.7-1.4q-.1-.7 13.7-4.3q37.3-9.9 35.6-18.3q-.4-2.3 -23,2.3q-5.1,1 -5.2,.1q0,0 16-7q12.4-5.4 23.2-14.6q.3-.3 -1-1.5q-.5-.4 -17.1,5.4q-35.2,12.2 -31.6,14.6q2.6,1.8 44.1-10.9q.7-.2 3.4,.6q1.1,.3 -11.6,6.4q-17.3,7.3 -31.5,13" fill="none" stroke="#c1e9fb3f" stroke-width="1.3"></path><path d="M150.9,-41.8q15.7-2.5 37.3-8.6q-5.5,2 -15.8,5.4q-18.1,6.1 -23.9,5.3q-5.8-.9 8.5-6.3q30-11.5 29.6-12.1q-4.8,0 -9.3,1.6q-21.7,3.1 -39.8,4" fill="none" stroke="#c1e9fb3f" stroke-width="1.2"></path><path d="M242.2,-55.7q3.8,1 11-.3q14.1-4.3 25.4-8.4q-1.4,.8 -4,2.2q-10.6,4.5 -19.4,8" fill="none" stroke="#c1e9fb3f" stroke-width="1"></path><path d="M249.5,-51.6q-.9,1.5 -.8,3q0,2.8 20.5-.6q3.4-.6 17.1-3.2q2-.3 1.5,1.2q0,.2 -13.2,7.2q-12.6,6.6 -13.4,15.7q-.3,3 9.2,1.3q8.1-1.5 3.4-6.5q-2.8-2.9 -42.9-12.8q-5.8-1.4 -2.6-3q12.6-3.5 23.1-5.6q10.6-3.1 19.1-6.1q-3.4,2.1 -9.9,5.5q-7.5,4 -8.1,9.2q-.6,5.5 21.6,5.4q3.2,0 15.7-3.9" fill="none" stroke="#c1e9fb3f" stroke-width="1.1"></path><path d="M234.1,-56.7q22.9-2.6 41.6-4.8q.9,1 1.4,2.4q.2,.7 -14.1,7.9q-15,7.6 -16.8,10.4q-3.4,5.5 29.6-3.4q9.9-2.7 13.3-.3q2.5,1.7 -4.4,8.1q-7.4,5.3 -13.7,9.3" fill="none" stroke="#c1e9fb3f" stroke-width="1.2"></path><path d="M194.7,-51q-12.4-28.5 -15.6-30q-3.3-1.6 13.7,16.5q6.3,6.7 7,.9q.7-6.8 -19.2-33q-3.4-4.4 -4-2q-.4,1.9 14.7,23q3.4,4.7 3.5,2.8q0-1.4 -12-18q-10-13.7 -14.2-10.9q-1.6,1 17.9,37q2.4,4.4 1.4,3.9q-5.8-6.8 -9.5-13.6q-6.6-11.9 -14.9-14.4q-4.1-1.3 .4,8.3q1.8,3.7 16.5,25.9q2.7,4 3.5,1.7q.7-2 -9.2-29.2q-5.4-14.5 -10-26.3q5.4,3.3 13.3,10.9q6.8,6.4 9.8-.2q-2.6-6.4 -7.2-11.5" fill="none" stroke="#c1e9fb3f" stroke-width="1.2"></path><path d="M187.4,-65.3q-9.9-10.4 -24.6-19.4q-4.3-2.7 -4.3,.4q0,2.3 7.5,5.5q3.1,1.4 3.1-2.1q-4.2-4.9 -9.4-8.2" fill="none" stroke="#c1e9fb3f" stroke-width="1.2"></path><path d="M184.4,-34.1q-12.8,9.9 -23.2,18q-.1,.1 -.4-.8q-.1-.2 7.2-8.4q8.6-9.7 9.5-5.3q.1,.3 -17.3,24.7q1.9-1.5 5.1-4.7q7.7-9.5 13.7-17.5q.3-.4 -1.8,1.8q-8.9,9.6 -16.2,17.4" fill="none" stroke="#c1e9fb3f" stroke-width="1.1"></path><path d="M177.4,-19q4.3-2.9 4.5-2q.5,1.4 -18.4,17.4q-4.1,3.5 -3.9,.7q4.2-7 9.2-12.3q-5.9,4.8 -16.4,14.1" fill="none" stroke="#c1e9fb3f" stroke-width="1.1"></path><path d="M235.4,-27.9q16.3,16.4 22.5,18.7q2.2,.9 -.6-2.9q-.1-.1 -22.4-23.5q-.2-.2 -1.6-.8q-1.8-.6 22.1,21.7q8.6,8 8.1,4.1q-.5-3.5 -26.2-27.9q0,0 .1,.1q.5,2.2 43.8,17.8q6.8,2.5 13.3,2.5" fill="none" stroke="#c1e9fb3f" stroke-width="1.3"></path><path d="M230.3,-33.7q28.2,27.7 36.4,30.1q2.2,.7 .8-2.7q-1.8-4.6 -21.6-22.3q0,.5 .3,1.4q.8,2.3 17.4,15.6q12.5,10.1 23.2,7.8q.7-2 .6-4.3" fill="none" stroke="#c1e9fb3f" stroke-width="1.2"></path><path d="M217.1,-69.9q6.9-1.4 18.4-7.8q13.8-9.8 24.6-18.4q2.9-2.3 -7,10.7q-8.1,10.5 -6.8,11.3q.3,.2 10.1-12.2q4.9-6.3 5.6-5.9q.4,.2 -11,17.1q-6.4,9.5 -11.5,13.7q-5.5,4.4 -10.9,.8" fill="none" stroke="#c1e9fb3f" stroke-width="1.1"></path><path d="M226,-63.1q-.6-2.6 2.3-5.8q15.3-11.7 28.7-20.3q3.5-3.1 6.3-5.9" fill="none" stroke="#c1e9fb3f" stroke-width=".5"></path><path d="M229.4,-67.8q16.5-6.9 33.2-18.2q4.2-2.9 5-1.9q.1,.1 -17.4,16.4q-11.7,10.9 -3.3,9.4q3.6-.6 25.2-17.5q10.7-8.3 6-9.2q-.1-.1 -19,11.9q-11.3,7.2 -16.7,7.4q-5,.2 -1.5-8.9q4.1-8.9 7.6-16.1q2.4-5 -1.5-5.1q-13.8,10.6 -23.2,23.8q8.1-9.1 22.4-26.4q3.6-4.3 3.5,.3q-2.9,9.5 -6.5,17.1q-3.7,8 1.6,11.1q2.5,1.4 15.2-8.1q8.9-6.8 10.3-4.6q-2.8,4.3 -7.4,7.5" fill="none" stroke="#c1e9fb3f" stroke-width="1.2"></path><path d="M154.6,-54.6q-3.5-.2 -6.4-.4" fill="none" stroke="#c1e9fb3f" stroke-width=".7"></path><path d="M138.6,-33.3q1.2,1.9 2.9,2.2q3.1,.4 4.3-8.4q.5-3.5 -3.2-4.9q-4-1.5 -1.5,11.3q3.9,19.6 24.6,23.8q-.1-.2 -.3-.5q-3.7-1.2 -7.1-1.4q-8.3-.6 -15.5-11q-6.7-9.6 9-41.5q1.8-3.7 3.3-1.1q.2,.5 -2.2,11.5q-2.7,12.3 .9,13.7q2,.8 2.5-11.4q.4-9.3 -8.8-8.3q-4.8,.6 -3.7,18.5q.5,9.8 11.7,17.4q6.7,4.5 22.6-8.8q7.9-6.7 13.6-25q.2,6.1 -.7,17.4q-1.7,20.2 13.4,28.5q8.3,4.6 22.8-10.5q9.6-10 5.6-25.8q-1.3-4.7 -7-3.8q-7.2,1.2 -2,28.7q1.9,9.9 12,12.5q5.8,1.5 16.4-7.2q7.9-6.5 12.4-25.7q2.2-9.3 -4.1-19q-3.8-5.9 -9.9,5.6q-2.9,5.4 -3,36.5q0,6.1 13,4.2q3.3-.4 14.1-8.6q8.3-6.3 14.3-24.7q3-9.3 -3.6-20.9q-2.5-4.3 -10.7-2.6q-5.9,1.2 -12.5,13.2q-7.5,13.7 -2.2,25.4q2.1,4.8 7.9-11.6q1.2-3.3 1.5-17.4q.3-13 -7-17.6q-3.7-2.3 -11.2,1.4q-10.6,5.4 -15.5,26.6q-1.2,5.5 3.2,4.6q2.9-.6 8.5-20.9q4.5-16.3 -2.6-25.2q-4.3-5.4 -12.6,3q-7.6,7.5 -1.3,25.9q2.6,7.7 12.3-2.7q4.5-4.8 4-25.7q-.2-7.7 -11.1-12.5q-3.8-1.7 -14.7,4.7q-9.8,5.7 -15.7,30.6q-1.4,5.8 3.2,7.6q3.4,1.4 7.8-14q2.8-9.8 -4.5-20.6q-2.5-3.7 -10.9-1q-6.1,1.9 -16,16.5q-9,13.2 -7,32.7q.8,7.4 12,.8q5-3 9.8-20.3q2.6-9.4 -6.3-20.1q-5.7-7 -20.4,2.8q-7.5,4.9 -7.7,25.2q-.1,5.6 6.2,6.3q5.3,.6 9.8-15.9q2.7-9.9 -6-16.2q-5.1-3.7 -16.4,1.2q-5.4,2.4 -10.6,15.7q-4,10.2 -2.1,38.3q.7,11.7 7.2,14.6q3.2,1.4 10-4.2q2.7-2.3 10.6-14.5q9.1-13.9 10.7-29.9q1.1-11.4 -3.8-20.9q-3.3-6.4 -9,4.6q-2.9,5.6 .6,18q2,6.9 11.5,5.7q11-1.4 18.5-24.5q7.1-22 -3.6-26.3q-2.1-.8 -7.5,3.1q-10.2,9.8 -18,18.5" fill="none" stroke="#c1e9fb3f" stroke-width="1.3"></path><path d="M168,-77q-10.1,30.7 -11.2,48.5q-.5,8.5 6.3,12.4q3.7,2.1 10.4-3.1q11.3-8.7 7.7-27.8q-1.2-6.9 -11.2,1.3q-9.1,7.5 -12.5,39.6q-.8,7.5 7.2,15.5q3.9,4.1 17.8,1.6q7.6-1.4 21.2-14.9q11.6-11.5 11.6-26.9q.1-4.9 -4.7-.7q-2.1,1.8 -6.7,13.8q-7.8,20.5 -4.2,30.1q1.4,3.6 8,4.7q5.9,.9 20.2-8.6q14.8-9.8 20.7-38.3q1.6-8.2 -4.4-10.4q-2.6-.9 -7.2,5.5q-4.8,6.5 -6.7,21.3q-2.2,16.5 5.8,19.6q3,1.3 12.8-5q3.5-2.3 13.9-15.5q12.1-15.4 8.3-28.3q-1.4-4.9 -13.4,7.1q-5.1,5.1 -9.3,25q-.9,4.1 5.1,4q5.7-.2 16.9-21.5q9.3-17.9 4.4-33.2q-2.4-7.3 -13.4-12.4q-6.9-3.1 -20.9,5.6q-12,7.5 -12.7,23.7q-.3,5.1 4.2,2.8q4.5-2.2 9.6-31.7q1.8-9.9 -6.4-23q-3.4-5.6 -17.9,5.6q-6.5,5 -7.8,19.7q-.8,9.2 10.7,8.8q4.9-.2 12.3-13.2q10.1-17.9 -3.6-29.8q-4.1-3.6 -18.2,.2q-11.8,3.1 -24.3,17.2q-8.6,9.6 -18.7,33.5q-2.9,6.9 -.9,7q2.5,.3 7.3-20.1q3.3-14 -1.3-16.1q-2.1-1.1 -10.7,31.3q-4.9,18.8 -4.3,27.9q.4,4.7 4.3,6.2q5.1-2.2 9.1-5.7" fill="none" stroke="#c1e9fb3f" stroke-width="1.3"></path><path d="M170.4,-35.8q.7-7.4 -.5-14.6q-.9-4.8 -2.8-2.3q-.1,0 -2.7,17.9q-2.9,19.8 -9.3,29.9q-3,4.8 -8.7-4.6q-4.7-7.7 -3.9-35.1q.2-6.8 9-19.3q4.2-6.1 13.2,.9q2.8,2.3 4.1,15.1q1.5,15.6 -14.7,28.2q-5.7,4.5 -10.7-6.4q-2.9-6.1 3.2-27.7q2.9-10.3 13.3-7.3q4.7,1.4 3.2,18.4q-.7,9.2 -10.8,16.5q-5.5,4 -8.6-6.9q-2.8-10 9.7-47.6q3.7-11.4 8.8-6.6q1.4,1.4 1.9,17.6q.2,8.9 2.8,5.5q.3-.4 3.1-22.7q2.7-21.1 5.9-29.3q3-7.8 8.7-9.5q7.3-2.1 12.1,19.2q2.9,12.9 -4.6,32.7q-1.5,3.8 -2.9,.4q-.6-1.6 3-18.2q3.9-17.4 10.2-26.7q4.3-6.4 11.4-6.8q4.4-.2 9.2,6.2q2.6,6.5 4,12.2q2.9,12.2 -9.3,32.8q-2.7,4.6 -4.7,2.2q-1.9-2.2 15-25.5q6.6-9.2 16.9-10.6q5.2-.7 9.6,17.1q3.7,15.1 -7.7,33.4q-2.7,4.5 -3.8,.4q-1.3-4.7 16.4-33q4.1-6.6 10.1,2.3q1.9,2.8 1,19.8q-.8,17.1 -15.4,32.5q-3.4,3.6 -5.4-.5q-2.4-5 14.9-28.8q4.5-6.3 9.5,3.2q3.9,7.3 -7.6,31q-5.9,12.2 -14.1,13.3q-7.6,1.1 7.2-26.1q5.3-9.5 10.8-8.6q5.6,.9 3,17.5q-2.9,17.7 -17.1,21.4q-7.8,2.1 1.8-19.5q4.1-9.1 15.4-18.7q4.7-4.1 6.5,8.3q1.7,11.9 -13.3,36.1q-8.2,13.4 -13.9,7.6q-2.7-2.8 14.7-30.6q6.3-10.1 12.2-4.2q2.7,2.8 -6.5,23.5q-9.4,21.3 -22,23.9q-5.3,1 2.5-17.8q6.6-16.2 16.2-19.8q6-2.2 -1.9,20.1q-6.5,18.1 -22.4,28.1q-5.3,3.2 -3.9-7.5q.7-5.9 13.2-27.8q2.3-4.1 4.2-2q2.4,2.6 -12.5,25.6q-9.8,15.4 -28.6,20q-10,2.4 -9.1-15.9q.7-12.8 9.1-17.7q2.1-1.2 .8,3.3q-.9,2.9 -6.1,9.3q-9.5,11.5 -19.1,14q-5.7,1.5 -12.9-2.8q-10.3-6.2 -17-27.1q-2.3-7.3 2.5-12.9q2.4-2.8 1.4,4.5q-.8,5.3 -8.6,10q-7.6,4.6 -9.7-18.3q-2.2-24.5 11.9-46.7q4.6-7.2 13,.8q5.7,5.5 .2,31.7q-3.5,16.5 -13.3,16.4q-6.2-.1 7.2-43.5q2.6-8.3 7.2-4.3q.8,.6 3,26.7q1.3,16.3 5.7,21.6q5,6 15.5-10.2q2.5-3.8 14.9-35.2q3.2-8 7.2-8.9q4.4-1 4.3,21.4q0,16 -7.3,27.7q-6.1,7.1 -11.5,12.6q-2.9,2.9 -17.2,10.8q-6.5,1.6 -12.1,2.2" fill="none" stroke="#c1e9fb3f" stroke-width="1.3"></path><path d="M-19.8,-58.4q3.4-1.6 7.9-.7q5-.5 9.2-1.4q3.6,.3 6.5,1.1q10.5,1.9 19.1,3.3q3.1,.5 9-1.1q6.3-1.8 24.7,.5q5.5,.9 10.1,1.8q3-.4 5.4-1q4.1,.6 7.5,1.9q4.1,.2 7.5-.1q3.9,.8 7.1,1.8q3-.1 5.5-.6q4.6,1.2 8.3,3q3.5-.1 6.5-.8q.5-.2 3,.1" fill="none" stroke="#b1e6ff" stroke-width="1.9"></path><path d="M72.9,-28.8q-3.3-7.3 -4.6-11.4q-.8-2.4 -3-4.8q-1.7-3 -2.8-5.5q-3.2-4.1 -6.2-7.1q-5.3-5.3 -5.7-9.8q-.2-3.1 -4.8-9.7q-4.1-5.9 -4.1-12.6q0-.8 -3-9.3q-3.1-5.8 -6-10.3q-4.4-7 -5-7.3q-1.6-.8 -2.8-4.9" fill="none" stroke="#b1e6ff" stroke-width="1.8"></path><path d="M71.2,-34.8q4.9,9 9,16.4q.6,1.7 .9,3.1q2.4,5 4.7,8.9q1.1,2.2 2.1,4" fill="none" stroke="#b1e6ff" stroke-width="1.7"></path></svg>