<svg viewBox="-44.6 -35.8 65.1 57.8" width="65.1" height="57.8" version="1.1" baseProfile="full" xmlns="http://www.w3.org/2000/svg" class="js-draw--autoresize"><style id="js-draw-style-sheet">path{stroke-linecap:round;stroke-linejoin:round;}text{white-space:pre;}</style><path d="M20.5,22l0-57.8l-65.1,0l0,57.8l65.1,0" fill="#ffffff" class="js-draw-image-background"></path><path d="M-14.6,-34.3q13.5,1.5 18.4,4.5q13.8,8.5 14.6,28.1q.6,15.2 -25.8,19.9q-13.1,2.3 -24.2-9q-11.5-11.7 -2.2-28.1q7-12.6 18.3-15.2q1-.2 2.6,.5" fill="none" stroke="#4e2c75" stroke-width="3"></path><path d="M-10.7,-12.4q.9,3.7 2,4.6q2.2,1.9 -.4-4.2q.4-.9 1-1.5q.3-.3 -3.2-6.4q.4,1.3 1.4,3.7q2,5.1 6.5,8.5q1.9,1.3 -1.7-5.9q-.1,.8 .1,2.2q.3,2.9 4.2,6.4q.6,.6 -.3-2.3q-2.7-6.3 -5.2-11.4q2.6,4.5 7.3,13.1q.1-1 -.1-2.8q-.6-4.7 -2.8-7.6q-.3-.4 2.8,6.6q.3-.5 .5-1.5q.8-2.9 .1-4.3q-1.7-3.6 -1.7-3.5q5,7.1 4.9,6.4q-.4-3.7 -6-10.2q-.3-.3 3.1,4.9q3.8,5.7 4.6,5.5q.8-.3 -4.7-9.3q.4,1.3 1.3,3.8q-.7-1.4 -1.8-3.9q-.2-.5 -2.8-3.4q-2.2-2.6 -5.7-2.4q-3.7-.5 -6.8-1.3q-.5-.1 -5.8,2.2q-2.6,1.2 -7.4,7.8q-2.8,3.7 -5.2,6.7q-1.1,1.5 -.8,6.4q.2,3.1 2.6,6.7q4.4,6.9 5.5,7.4q9.3,4.6 9.9,4.6q11.4,.6 14.9-1.5q10.4-6.3 10.5-6.6q4.1-7.6 2-15.8q-1.8-7.2 -6.2-11.4q-7.3-6.7 -9.5-2.8q-4,6.8 .8,19.8q3,8.3 6.3,4q1.8-2.3 -.2-8.2q-.4,1.5 -.7,4.2q-.2,1.8 2.7,5q-.9-1.1 -2.6-3.1q-1.7-2.1 -7.9,1.7q-2.7,1.7 -2.5,9.2q-1.7-2.4 -3.8-7q-.6,1.4 -.9,3.9q-.3,2.6 5.4,4.2q4.1,1.3 3.7-5.9q-.5-7.8 -5.5-6.9q-2.6,3.3 -4,7q-3.3-1.5 -6.7-5.1q-1.7-1.8 -3.9,.6q-1.3,1.3 2.5,8.3q.1-1.3 -.2-3.7q-.4-4.2 -6.6-10.6q1.5-1.3 3.9-2.1q1.6-.5 2.3-9.1q.3,.9 .7,2.7q1.9,9.8 4.4,6.9q1.4-1.8 -1.1-10.3q0,1.2 .2,3.4q.5,6.5 3.7,7.5q2.2,.7 -1.6-11.2q-1.8-5.5 -3.9-4.2q-.8,.5 2.3,15.3q.9,2 1.9,3.6" fill="none" stroke="#6e32af77" stroke-width="10"></path><path d="M-4.1,-21.1q-4.1-3.2 -3.9-3q7.5,7.9 7.6,8.1q4.1,7.4 2.7,15.5q-1.6,8.8 -12.7,7.1q-6.9-1.1 -10.8-10.4q-1.8-4.5 2.2-14q1.7-4.3 9-3.3q3.8,.5 -.3-4q-4.5-5 -5.3-.6q-.4,2 1.8,2.8q1.8,.8 -.2-5.3q-2.3-.4 -4.8,.2q-2.9,.7 -2.4,4.8q-1.5,.8 -3.5,.9q-1.6,.1 -1.8,3q-.3,3.7 -.5,3.2q-1.2,.7 -2.3,2.2q-1.3,1.7 -2.4,3.1q-.5,3.3 -.3,6.2q-.4-2 -1-5.8q-.2-1.3 2.4-7.7q-.6,1.4 -1.7,4.1q-1.3,2.7 -.7,8.1q.7,6.2 2.9,9.4q3.1,4.6 3.9,.5q2.4-12.9 -.8-16.7q-.4-.5 -.4,10q0,8.1 3.9,7.4q1.6,2 2.4,4.5q.6,2 4.6,1.4q-1.2-1.5 -3.8-3.1q-2.6,.2 -4.8,.9q1.3,1.2 4,2.3q7.8,3.4 13.6,2.6q13.7-2 17.9-9.4q1.9-2.8 3.6-5.1q0-.1 -2.2-11.8q-1.8-9.9 -9.5-13.4q-4.3-1.9 -10.2-3.2q-3-.7 -5.8,1.2q-.8,.6 6.7,6q11.6,8.5 12.7,21.5q.7,7.6 1.6,5.7q2.2-4.7 -2.2-15.4q-.3-.7 -1.6-4.1q-2.9-8 -6.6-4.9q-2.4,2.1 -.9,20q-.7-1.2 -1.7-3.5q-7.8-18.8 -9-8.3q-.7,6.2 2.4,10.1q1,1.2 .3-4.4q-1.6-12.3 -6-10.3q-1.8,.9 1.7,12.2q2.6,8.6 5.6,3.8q1.2-2 -.9-10.8q-1.8,.7 -3.8,2.4q-.3,.3 2.2,6.3" fill="none" stroke="#6e32af77" stroke-width="9.8"></path><path d="M-17.6,-15.1q.3,1.6 .6,.9q-.3-.6 -.8-1.1q.2,.4 .6,1q-.4-.2 -1-.6q.1,.2 .4,.4" fill="none" stroke="#6e32af" stroke-width="1.2"></path><path d="M8.7,-19.8q-3.7-6.9 -4.7-7.3q1.7,3.9 6.2,9.7q1.2,1.5 .3,1.2q-2.7-3.8 -4.3-7.7q1.8,2.6 4.8,7.6q-1.2-2.9 -3.7-8.1q-.8-1.8 3.6,6.5q.6,1.3 1.2,2.4q-.9-2.6 -2.8-7.4q1.4,3.8 4,10.9q-.6-3.5 -2.1-9.9q1.1,3.6 3,10.3q-.5-3.1 -1.5-8.7q.4,1.3 .9,3.8q.9,3.3 1.5,6q-1-3.6 -2.8-10.3q1.2,4.6 3.3,13.1q-.3-3 -1.1-8.4q.5,3.6 1.4,10.4q.1-.3 .1-.8q0-2.4 -.1-4.4q-.4,3 -.7,8.6q-.7-4 -1.3-11.4q-.1,3.6 -.1,10.3q-.6-4.3 -1.4-12.4q.7,3 1.9,8.6q-1.9-4.1 -4.7-11.8q.3,.8 1,2.3q-3.8-3.6 -9.7-11q-2.1-2.6 -2.1-1.2q2.6,3.4 5.8,5.8q.3,.2 -3.1-2.6q-3.5-2.8 -6.5-4.9q-.3-.3 4.9,2.5q5.6,3 5.3,2.9q-11.2-8.5 -11.2-8.5q6.7,4.1 11.9,7.9q-2.7-2.4 -7.8-6.7q-.5-.3 4.5,3.4q8.4,6.3 4.9,4.5q-13.4-6.8 -14.9-7.1q-4.2-1 -2.6,.4q4.2,1.8 7.8,2.8q-4.4-.3 -12.6-1.6q-1,.3 -1.9,.6q3.4,.4 9.4,0q0,.3 0,.6q-.1,.3 -11.1,0q0-.3 0-.7q3.8-2.1 7.9-2.9q-3.8,.6 -10.9,1.9q4.7,.1 13.4-.3q-.1,.1 -.4,.3q-5.6,.2 -10.4-.5q-.3,0 1.9,0q6.8-.1 6.4-.5q-4.2-2 -7.9-3.2q1.1,.1 3.1,.5q-3.3,3 -9.8,6.3q1.5-.7 4.2-2q-1.6,2.3 -5.1,5.7q1.9-2.4 5.6-6.7q-1.4,1.4 -4,4.2q2.2-1.5 6.1-4.6q.3,.2 .5,.5q.2,.4 -3.6,4.8q.1-.4 .3-.9q1-1.6 2-2.9q-2.4,2.1 -6.4,6.1q.6-.9 2-2.5q-2.3,3.4 -6.7,9.6q-.1,0 2.6-5.7q0,.2 0,.6q-1.5,3 -2.9,5.4q-1.8,2.8 2.7-5.8q.9-2.2 1.5-4.1q-1.8,2.3 -4.5,6.8q-.6,1.1 3-6q1.3-2.3 2.4-4.1q-.9,2.1 -2.7,5.9q2.2-2.1 5.8-6.5q-2,2.4 -5.8,7q.7-1.5 2.2-4.1q-2,3.7 -5.8,10.4q.9-1.5 2.4-4.3q-1.2,3.6 -3.7,10.3q.9-2.8 2.8-7.8q-1.1,2.9 -3.1,8.2q.1-3 1-8.6q-.5,2.6 -1.4,7.4q.5-2.9 1.4-8.3q-.7,2.6 -1.7,7.3q-.3-1.7 -.4-5q-.8,2.8 -1.7,8q-.5-1.7 -.9-5q.1,1.1 .3,3q.1-.9 .1-2.6q.1,3.3 .2,9.4q.1,.3 .5-3q.3-2.6 .5-4.8q.1,3.2 .1,9q0,.4 .2-2.4q.3-4.7 .6-8.5q.2,3.5 .3,10q.2-2.5 .3-7.1q.1,3.6 .1,10.5q-.3-1.9 -.6-5.4q1.4,2.7 3.3,8q-1-1.4 -2.6-4.2q1.7,2.7 4.9,7.9q-2.4-2.7 -6.6-8q1.7,2.9 5.1,8.2q-.1,.1 -.3,.2q-2.6-2.6 -4.1-6.2q-.1,.3 -.2,.8q1.9,4.6 4.5,8.1q.2,.3 -3.7-6.4q-1.2-1.7 -2.2-3.1q1.9,3.8 5.7,10.6q-1.4-3.4 -4.4-9.7q3,3.8 7.9,11q-2-3.1 -5.9-8.8q-.1-.2 2.4,1.5q3.1,2.7 5.7,4.9q-2.1-1.2 -5.6-3.7q-.7-.4 4,2.6q2.5,1.7 4.5,3.2q-1.2-.6 -3.2-1.9q2.5,1.2 7.1,3.7q-.8-.2 -2.3-.6q2.2,.7 6.4,1.9q-1,.1 -2.9,.1q-.1,0 4.7-.6q2.9-.4 1.9-.1q.1,0 .1,.1q2.1-.4 3.7-1.1q-.3,.4 -.9,1q-.4,.4 4.7-1.8q-.2,.5 -.6,1.3q1.8-.8 4.5-2.7q-.4,.5 -1.3,1.3q1.9-.9 5.1-3q-.5,.3 -1.4,.9q.9-1.5 2.9-4.1q.3,0 .5,.1q1.2-.9 2.1-2q.2,0 .3,0q2.2-2.1 3.6-5.2q.1,.1 .3,.3q.1,.1 -1,1.8q.5-1.1 1.6-3.1q-.7,2.7 -2.5,7.5q1.1-3.1 3.2-8.8q-.2,2.9 -1,8.2q.5-2.5 1.5-7.3q.4-1.9 1-.7q0,4.1 -.8,7.7q.4-2.3 1.2-6.6q-1,3.4 -2.7,9.9q.5-1.8 1.2-5.1q.4-1.4 -4.8,10.5q.1-.3 .2-.8q2.5-8.3 1.8-7.8q-2.1,3.7 -3.3,7.1q.7-2.7 2.3-7.8q.3-1.2 -.8-.6q-2.5,1.2 -3,8.5q1-2.4 2.5-7q-.6,.4 -1.6,1.4q-3.4,3.8 -1.1,8q.9,1.6 1.7-3.5q.9-5.6 -2.5-3.7q-1.6,.9 -1.5,7q.1,2.4 1.2,1.5q1.1-.9 -.2-5.6q-.7-2.6 -2.3,.9q-2.1,4.5 -.3,5.7q.4,.3 .6-2.7q.3-4 -2-1.3q-.9,2.3 -1.4,4.4q.5-1.7 1.3-4.8q.2-1.1 -3,2.6q-1.1,2 -1.9,3.7q1.9-2.1 4.9-6.3q-1.5,1.5 -4,4.5q2.7-2.3 7.4-6.9q-2.4,2.5 -7,7.2q1-1.1 2.9-3q-2.9,1.3 -7.7,4.3q1.4-1.6 4.2-4.2q-1.9,.8 -5.3,2.8q-2.6,1.5 5.6-3q-.1,.1 -.3,.3q-2.7,2.4 -5.1,4.3q.9-1 2.7-2.6q-1.9,.5 -5,2q1.2-.9 3.4-2.2q1.6-1 -.1-1.7q-1.3-.6 -4.4,2.8q-1.9,2 .6,2.1q2.3,0 2-3.2q-.1-1.6 -3.5,1.3q-1.8,1.5 -.1,2.1q1.2,.3 .9-1.9q-.3-2.3 -3.3,0q.3,.5 1,.9q.1-.6 -.1-1.7q-.3-1.3 -3.6-.4q-.1-.2 -.2-.3q-.5-.8 -5-2.2q-3.5-1.7 -6.4-3.3q-2.9-2.2 -5.3-4.1q2.8,1.6 7.8,4.8q2,1.3 1.1,2.5q-.5,.7 -4.4-3.6q3.1,2.3 8.3,7q.5,.4 -5.7-4.5q-1.7-1.3 -3.1-2.4q3.9,2.3 10.9,6.9q-1.9-1 -5.4-3.1q3.8,1.2 10.6,3.8q-2.9,0 -8-.8q3.3,.8 9.5,2q-2.5-.1 -6.9-.4q3-.3 8.6-.4q-1.6,.2 -4.4,.4q2.5-1 7.2-2.5q-2.6,.7 -7.4,1.9q2.8-.7 7.9-2q-2.4,.3 -6.8,1.1q3.3-.5 9.4-1.6q3.9-.6 12.8-7.4q-3.2,1.9 -9,5.8q-6.2,4.2 -20.7,0q-4.5-1.2 -8.4-6.3q-3.3-4.2 -2.4-12.3q1.2-10.7 4.9-14.8q5.6-5.1 10.4-9.1q.2-.1 -3.2,4.1q-4.3,5.3 -6.1,5.2q-1.2,0 4-4.7q4.6-4.3 15.4-3.3q1.6,.2 8.8,2.6q3.2,1.1 9.1,11.3q6.3,11.1 -1.7,21.6q-8.7,11.5 -23,8.4q-5.4-1.2 -14.9-6.5q.3-.2 .7-.2q4.9,1.1 8.8,2.8q4.3,2 12.2-.2q4.1-1.1 11.1-6.1q3.3-1.8 6-3.2q2.2-1.1 -8.7,6.4q-3.2,1.8 -5.9,3q2.7-1.6 7.8-4.3q8.5-4.7 8.8-18.5q0-1.9 -1.6-6.7q.2,3.5 1.1,10.1q-.3,5.1 -.9,9.4q1.1-3.5 2.8-10.1q-.2,.1 -.4,.4q-1.9,5.1 -2.9,9.6q-1.8,8.9 -26.1,12.2q-8.1,1 -12.3-6.8q-2.8-5.2 -2.1-13.9q1.4-6.6 2.9-12q.8-2.6 4.2-6.5q-.1,.1 -.3,.3q-5.7,6.9 -9.4,27.7q0-.2 -.1-.6q1.2-8.8 2.9-16q1.5-5.9 7.4-10.8q5.5-4.5 9.8-3.9q-2,2.1 -6.1,4.4q-4.1,2.3 -7,6.9q-1.4,3.2 -2.3,6q1.9-3.7 5.1-10.8q1.8-4 9.3-4.5q15.9-1.1 25.3,14.1q3.3,5.3 2.5,8.6q-.9-2.2 -1.6-6.2q-1.7-10.4 -13.1-16.1q-10.1-5.1 -16.8-4.7q-5.2,.3 -10.6,11.4q-2.2,4.3 -4,7.9q-1.9,3.8 1,13.1q2.4,7.5 8.9,13.5q4.6,4.2 15.7,3.5q.8-.5 1.4-1.2" fill="none" stroke="#6e32af26" stroke-width="1.9"></path></svg>