<svg viewBox="-48.15 -85.8 56.8 60" width="56.8" height="60" version="1.1" baseProfile="full" xmlns="http://www.w3.org/2000/svg" class="js-draw--autoresize"><style id="js-draw-style-sheet">path{stroke-linecap:round;stroke-linejoin:round;}text{white-space:pre;}</style><path d="M8.65,-25.8l0-60l-56.8,0l0,60l56.8,0" fill="#ffffff" class="js-draw-image-background"></path><path d="M5.5,-55.8q-.3-14.1 -12.3-21.4q-12.4-6.8 -24.8,0q-12,7.3 -12.3,21.4q.3,14.1 12.3,21.4q12.4,6.8 24.8,0q12-7.3 12.3-21.4" fill="none" stroke="#000000" stroke-width="3.6"></path><path d="M-14.4,-66.8q-.77-2.01 -.88-1.77q-.43,.92 1.19,2.42q.97,.9 1.06-.38q.1-1.36 -2.36-3.04q-1.25-.85 -.49,1.76q1.1,3.73 3.51,3.57q.9-.06 -1.85-3.8q-2.14-2.91 -3.09-1.11q-.42,.79 1.93,3.54q1.28,1.51 2.48,.61q.7-.5 -1.9-4.9q-.8-1.4 -1-.3q-.2,1 1.8,3.5q1.1,1.3 1.2-.2q.1-1.9 -3.1-5.6q-.8-.8 -1.1-.3q-.3,.6 3.5,4q1.6,1.4 2.1,.7q.2-.4 -2.7-3.3q-1-1 -1.5-.9q-.1,0 1.2,3.3q.9,2.3 2.2,3.3q.4,.4 -.9-3.3q-1.4-3.8 -3.1-5.8q0,.1 0,.2" fill="none" stroke="#fff6b4" stroke-width=".4"></path><path d="M-20.1,-66.4q-2.2-2.7 -2.9-1.9q-.9,1.2 3.3,6.4q1,1.2 1.2,.2q.2-2.3 -2.9-5.7q-.3,.1 -.5,.4q-1,.7 2.8,3.1q1.5,.9 -.2-3.7q-.8-1.4 -1.4-2.5q1.2,2.1 3.4,5.9q.3,.5 -2-5.3q-1.5-3.7 -3.1-4.5q.1,.1 .1,.2q1.3,2.4 2.8,6.9q.4,.8 .7,1.4" fill="none" stroke="#fff6b4" stroke-width="1.4"></path><path d="M-18.6,-62.9q-3.1,2.3 -4.1,1.8q-1.9-.9 -.6-4.5q4.1-2.8 8.5-4.2q1.1-.4 -6.2-4.1q-1.3-.3 -2.4-.5q2.4,3.3 7.8,7.7q2.4,2 3.1,6q1.8,5.1 3.5,9.3q-.2-.1 -.5-.3q-1.6-4.3 -2.1-8.4q-.3-3.2 -1.6-5.1" fill="none" stroke="#fff6b4" stroke-width="2.2"></path><path d="M-13.3,-66.7q4.6,6.6 5.9,7.8q-2.5-4.4 -7.7-12q1.5,2.8 4.6,7.9q2.2,3.8 1.9,2.8q-3.6-7.1 -7-12.7q2.3,2.1 6.3,6.5q-1.7-2.9 -5.1-8q.2-.2 .5-.4q0,0 7.7,8.6q-2.7-3.2 -7.7-9q2.7,2.4 7.6,7q.3,.3 -1.5-1.9q-5.1-6.4 -4.2-6.6q5.1,3.9 8.6,9.3q-2.5-3.7 -7.2-10.6q-1.3-1.9 6.4,7.4q1.2,1.5 2.1,2.8q-1-1.3 -2.8-3.8q1,2 3.1,5.4q-.8-1.9 -2.5-5.5q1.4,1 3.5,3.3q-2.5-2.6 -7.2-7.5q-2.4-1.1 -4.6-1.8q.5,.6 1.6,1.4q-2.2-.3 -5.8-1.7q.6,.5 1.7,1.3q.8-.2 1.4-.5q-2-.8 -5.5-1.2q1.6,.8 4.7,1.8q-1.8-.7 -5.3-2q-1.6-.5 -.8,1.6q1.1,.5 2.3,.6q-2.1-.7 -6.1-1.6q-3-.7 -.5,2.3q-.2-.2 -.4-.5q-1.1-1.6 -2.9,.4q1,1.3 2.9,2.2q-1.3-.5 -3.5-1.5q-2.4-1.1 -2,1.4q0-.2 0-.6q-.7,0 -1.4,.3q-.3,.4 -.5,.7q-1.3,2 -2.4,3.6q0,0 -.7-.5q-1.4-.9 -1.4,4.3q-.6-.7 -1.2-2.2q-1.1-2.6 -1.1,5.1q0,2.6 -.1,2.2q-.3,.1 -.6,.5q-.2,.6 -.3,1.2q-.3,1.4 -.5,2.6q-.4-.3 -.8-.9q-.3-.5 .6,3.4q.5,1.6 1,2.9q-.3-2.7 -1.3-7.5q.8-2.1 2.1-3.8q.7-1.8 1-3.4q-1.5,2 -3.6,5.9q-1.2,2.3 1.4,10.6q1.5,3.8 2.7,7q-.7-1.7 -1.9-4.9q1.9,2.3 5,6.9q.1-.3 .2-.8q0-.5 -2-1.6q-3.2-1.8 3.2,5.1q2.3,2.5 1.6,1.4q-1.2-1.4 -2.3-2.4q1.6,1.4 4.6,3.9q1.4,1.3 11.5,1.5q4.8,.1 8.6-3.9q1.6-1.7 4.5-2.8q4.5-1.7 6.6-10.3q4-15.9 -5.9-23.1q-2.2-1.6 -1.6-.5q7.2,12.3 7.9,14.9q3.3,12.3 -8.2,21.6q-4.3,3.6 -14,4.9q-7.3,1 -12.9-6.6q-9-12.4 -8.5-15.9q1.7-11.4 5.9-16.1q6.5-7.4 16.1-6.7q11.3,.9 18.1,13.1q1.1,2.6 2,4.8q-1.8-3 -4.8-8.8q-1.8-3.5 -3.4-1.4q-1.3,1.9 5.8,7.4q4.6,3.6 4.5-.2q-.1-1.6 -5.2-6q-3.3-2.8 -2.3,1.6q1.6,6.9 4.1,7q1.1,0 -4.9-8.2q-2.9-4 -3.1-1.6q-.1,1 2,8.1q1,2.8 1.8,5.1" fill="none" stroke="#fff6b4" stroke-width="1.8"></path><path d="M-4.2,-55.9Q-3,-55.4 -2.6,-56.4Q-2.1,-57.9 -5,-64.6Q-6.3,-67.8 -7.6,-66.3Q-8.5,-65.2 -3.5,-55.7Q-.5,-50 .9,-53.6Q1.8,-55.8 -2.1,-63.3Q-3.4,-65.9 -5,-64.4Q-5.2,-60.3 -4.1,-56.6" fill="none" stroke="#fff6b4" stroke-width="1"></path><path d="M-2.1,-52.4Q-.6,-52.2 -.1,-53.7Q1.1,-57.9 -3.1,-64.9Q-3.8,-65.9 -4.1,-65Q-4.5,-63.8 -1,-58.3Q.5,-56 1.3,-57.6Q2.2,-59.6 -3.2,-68.6Q-4,-69.8 -4.5,-68.9Q-4.1,-65.2 -2.8,-62.1" fill="none" stroke="#fff6b4" stroke-width="1.3"></path><path d="M-.9,-73q-3.2-5.3 -5-5.9q-3.6-1.6 -6.6-3q-3.8-1.7 -10.3,.2q-4.7,1.2 -8.5,2q-4.4,1 -8.2,5.4q-3.4,4 -5.1,10q-.9,3.1 -1.7,5.7q.4,4.9 1.5,9.1q1.8,7.1 5.7,11.4q2.7,3.1 9,6.1q7.2,3.5 12.4,3q5.9-.6 11-3.1q3.6-1.9 10.1-10.1q4.3-5.4 3.6-15.4q-.4-7 -2.1-9.4q-6.4-9.8 -12.4-12.1q-5.8-2.2 -7.6-1.6q-.4,.2 -2.1-.1" fill="none" stroke="#fff6b4" stroke-width="1.9"></path><path d="M-23,-57.3q.7,4.1 1.3,4q4.4-1.2 4.6-1.5q2.4-4 -.5-10.3q2.7,5.2 7.6,15q1,2.2 .3-9.4q-.5-6.2 -2.7-6.5q.9,2.6 3.5,5.9q1.6,2.7 2.8,5q0-2 -.5-5.5" fill="none" stroke="#fff6b4" stroke-width="10.7"></path><path d="M-7.3,-63.6Q-6.8,-63.1 -7.3,-63.1Q-7.8,-63.1 -7.8,-63.6Q-7.8,-64.1 -7.3,-64.1Q-6.8,-64.1 -6.8,-63.6" fill="none" stroke="#fff6b4" stroke-width="5.2"></path><path d="M-7.3,-63.8Q-4,-60 -4,-60" fill="none" stroke="#fff6b4" stroke-width="6"></path><path d="M-4,-60.1Q-3.5,-59.6 -4,-59.6Q-4.5,-59.6 -4.5,-60.1Q-4.5,-60.6 -4,-60.6Q-3.5,-60.6 -3.5,-60.1" fill="none" stroke="#fff6b4" stroke-width="5.2"></path><path d="M-3.7,-62.9Q-3.2,-62.4 -3.7,-62.4Q-4.2,-62.4 -4.2,-62.9Q-4.2,-63.4 -3.7,-63.4Q-3.2,-63.4 -3.2,-62.9" fill="none" stroke="#fff6b4" stroke-width="5.2"></path><path d="M-3.6,-63q2.4,2.2 2.9,3.7q.5-.7 1-2q.7-.4 1.4-.6q.8-.2 .6,5.5q-.1,4.3 -.2,7.8q0-3.9 .2-11q0-1.8 -1.5-5.9q-.9-2.4 -4.2-6q-2.7-2.8 -9.1-5.6q-2.8-.3 -5.1-.3q-4.2-.1 -9.8,2q-5.5,2 -4.2,2q-1.5,1.4 -4.5,3.1q.8-1 2.4-2.6q-1.1,2 -3.6,5.4q-1.7,3 -3,5.5q-1.8,3.7 .3,6.4q1.5,1.9 2.5,6.3q1.3,5.4 .8,4.4q-2-3.5 -3.7-6.4q1.5,1.7 4,4.9q3.6,4.6 2.8,4.1q-.4-.2 4.1,3.7q2.8,1.6 5.1,2.8q3.6,.4 6.7,.2q4-.3 9.9-3.8q2.4-2 4.2-3.7q1.3-1.6 2.3-3q-3.1,2.6 -8.3,7.9q-1.1,1.1 -2.9-3q-5.2-11.3 -5.9-7q-.9,5.2 -1.5,4.7q-6.4-5.1 -5.8,.9q.2,1.8 -3.4-6.7q-3.8-8.7 .8-12.1q6.9-3.5 12.9-6q-2.3-1 -6.4-1.7q-4.1-.7 -8.7,4.8q-3.6,4.3 3.9,15.4q2.9,4.3 6-1.5q2.9-5.5 -2.9-6.5q-4.1-.7 -3.4,8.5q.8,9.9 5.3,5.3q2.8-2.8 4-12.1" fill="none" stroke="#fff6b4" stroke-width="12.1"></path><path d="M-32.2,-69.5q.3,2.2 1.3,11.2" fill="none" stroke="#ede7be28" stroke-width="10.2"></path><path d="M-31.8,-65.3q.6,.6 0,.6q-.6,0 -.6-.6q0-.6 .6-.6q.6,0 .6,.6" fill="none" stroke="#ede7be28" stroke-width="6.4"></path><path d="M-17.7,-51.3q-1.2-.5 -2.2-.9" fill="none" stroke="#ede7be28" stroke-width="9.6"></path><path d="M-28.2,-59.2q1.2,1.2 0,1.2q-1.2,0 -1.2-1.2q0-1.2 1.2-1.2q1.2,0 1.2,1.2" fill="none" stroke="#ede7be28" stroke-width="11.9"></path><path d="M-18.4,-65q-1-2 -1.8-3.6" fill="none" stroke="#ede7be28" stroke-width="8.4"></path><path d="M-14.9,-67.8q1.1,1.1 0,1.1q-1.1,0 -1.1-1.1q0-1.1 1.1-1.1q1.1,0 1.1,1.1" fill="none" stroke="#ede7be28" stroke-width="10.7"></path><path d="M-8.2,-55.6q-1.6-1.5 -2.9-2.7" fill="none" stroke="#ede7be28" stroke-width="9.3"></path><path d="M-26.6,-58.9q.1-.6 .5-3.1" fill="none" stroke="#ede7be28" stroke-width="11.2"></path><path d="M-24.9,-74.6q-1.5-.7 -2.7-1.3" fill="none" stroke="#ede7be28" stroke-width="7.4"></path><path d="M-34,-58.8q.9,.9 0,.9q-.9,0 -.9-.9q0-.9 .9-.9q.9,0 .9,.9" fill="none" stroke="#ede7be28" stroke-width="9.3"></path><path d="M-33.2,-47.1q1.7,3.5 3.1,6.3" fill="none" stroke="#ede7be28" stroke-width="8.4"></path><path d="M-19.3,-35q3.8-2.8 4.6-5.3q.9-2.9 1.7-2.1q2.5,2.5 2.3,2.5" fill="none" stroke="#ede7be28" stroke-width="7.5"></path><path d="M-6.5,-44.6Q-5.7,-43.8 -6.5,-43.8Q-7.3,-43.8 -7.3,-44.6Q-7.3,-45.4 -6.5,-45.4Q-5.7,-45.4 -5.7,-44.6" fill="none" stroke="#ede7be28" stroke-width="8.2"></path><path d="M-5,-66.2Q-8.4,-71.8 -8.4,-72" fill="none" stroke="#ede7be28" stroke-width="5.2"></path><path d="M-10.7,-75.1q.1,1 .6,2.8" fill="none" stroke="#ede7be28" stroke-width="10.3"></path><path d="M0,-60.7Q.9,-59.8 0,-59.8Q-.9,-59.8 -.9,-60.7Q-.9,-61.6 0,-61.6Q.9,-61.6 .9,-60.7" fill="none" stroke="#ede7be28" stroke-width="8.5"></path><path d="M1.4,-55.9Q1.9,-55.4 1.4,-55.4Q.9,-55.4 .9,-55.9Q.9,-56.4 1.4,-56.4Q1.9,-56.4 1.9,-55.9" fill="none" stroke="#ede7be28" stroke-width="5.2"></path><path d="M.1,-58.1Q.8,-57.4 .1,-57.4Q-.6,-57.4 -.6,-58.1Q-.6,-58.8 .1,-58.8Q.8,-58.8 .8,-58.1" fill="none" stroke="#ede7be28" stroke-width="7.2"></path><path d="M-10.7,-69.2q.5,.5 0,.5q-.5,0 -.5-.5q0-.5 .5-.5q.5,0 .5,.5" fill="none" stroke="#ede7be28" stroke-width="5.2"></path><path d="M-15,-71.6q.6,.6 0,.6q-.6,0 -.6-.6q0-.6 .6-.6q.6,0 .6,.6" fill="none" stroke="#ede7be28" stroke-width="6.5"></path><path d="M-20.8,-72.6q-3.9-.6 -5.3,1.4" fill="none" stroke="#ede7be28" stroke-width="5.2"></path><path d="M-25.9,-66.4q.5,.5 0,.5q-.5,0 -.5-.5q0-.5 .5-.5q.5,0 .5,.5" fill="none" stroke="#ede7be28" stroke-width="5.2"></path><path d="M-16.3,-61.1q.5,.5 0,.5q-.5,0 -.5-.5q0-.5 .5-.5q.5,0 .5,.5" fill="none" stroke="#ede7be28" stroke-width="5.2"></path><path d="M-15,-64q.2,.4 1.2,2.2" fill="none" stroke="#ede7be28" stroke-width="8.5"></path><path d="M-12.7,-59.6q.9,.9 0,.9q-.9,0 -.9-.9q0-.9 .9-.9q.9,0 .9,.9" fill="none" stroke="#ede7be28" stroke-width="8.9"></path><path d="M-24,-39.2q.8,.8 0,.8q-.8,0 -.8-.8q0-.8 .8-.8q.8,0 .8,.8" fill="none" stroke="#ede7be28" stroke-width="8.2"></path><path d="M-27.8,-43q-.6-.8 -1.1-1.4" fill="none" stroke="#ede7be28" stroke-width="5.6"></path><path d="M-28.9,-49.6q1,1 0,1q-1,0 -1-1q0-1 1-1q1,0 1,1" fill="none" stroke="#ede7be28" stroke-width="9.5"></path><path d="M-28.5,-54.2q1.1,1.1 0,1.1q-1.1,0 -1.1-1.1q0-1.1 1.1-1.1q1.1,0 1.1,1.1" fill="none" stroke="#ede7be28" stroke-width="10.9"></path><path d="M-28.2,-70.4q-.3-1.8 -.5-3.3" fill="none" stroke="#ede7be28" stroke-width="10.8"></path><path d="M-30.6,-75.9q.7,.7 0,.7q-.7,0 -.7-.7q0-.7 .7-.7q.7,0 .7,.7" fill="none" stroke="#ede7be28" stroke-width="7"></path><path d="M-33.3,-75.4q.8,.8 0,.8q-.8,0 -.8-.8q0-.8 .8-.8q.8,0 .8,.8" fill="none" stroke="#ede7be28" stroke-width="7.7"></path><path d="M-34.8,-70.9q-2.7,3.7 -2,4.6" fill="none" stroke="#ede7be28" stroke-width="9.7"></path><path d="M-37.4,-62.2q1.2,1.2 0,1.2q-1.2,0 -1.2-1.2q0-1.2 1.2-1.2q1.2,0 1.2,1.2" fill="none" stroke="#ede7be28" stroke-width="12.3"></path><path d="M-36.2,-54.7q1,1 0,1q-1,0 -1-1q0-1 1-1q1,0 1,1" fill="none" stroke="#ede7be28" stroke-width="10.2"></path><path d="M-36.5,-50.8q1,1 0,1q-1,0 -1-1q0-1 1-1q1,0 1,1" fill="none" stroke="#ede7be28" stroke-width="10.2"></path><path d="M-29.7,-37.6q.6,.6 0,.6q-.6,0 -.6-.6q0-.6 .6-.6q.6,0 .6,.6" fill="none" stroke="#ede7be28" stroke-width="6.1"></path><path d="M-28.5,-36.8q1.4,1.4 0,1.4q-1.4,0 -1.4-1.4q0-1.4 1.4-1.4q1.4,0 1.4,1.4" fill="none" stroke="#ede7be28" stroke-width="13.5"></path><path d="M-27.2,-37q1.3,1.3 0,1.3q-1.3,0 -1.3-1.3q0-1.3 1.3-1.3q1.3,0 1.3,1.3" fill="none" stroke="#ede7be28" stroke-width="13.1"></path><path d="M-20.7,-69.1q.2-.1 .3-.1" fill="none" stroke="#ede7be28" stroke-width=".7"></path><path d="M-20.7,-69.7q0,.7 0,1.3" fill="none" stroke="#ede7be28" stroke-width=".5"></path><path d="M-22.6,-64.9q-.3,.3 -.6,.6" fill="none" stroke="#ede7be28" stroke-width=".4"></path><path d="M-25.7,-63.3q0,.2 -.1,.9" fill="none" stroke="#ede7be28" stroke-width=".4"></path><path d="M-28.2,-61.9q-.6,.4 -1.1,.7" fill="none" stroke="#ede7be28" stroke-width=".8"></path><path d="M-32.2,-56.8q.4,2.8 .7,5.1" fill="none" stroke="#ede7be28" stroke-width=".7"></path><path d="M-30,-49.2q-.1-4 -2-7.7q-1.2-2.4 -2-.6q-.3,.6 1.6,4.1q.2,0 .3-.1q-.6-1.2 -1.8-2.3" fill="none" stroke="#ede7be28" stroke-width=".5"></path><path d="M-32.7,-53.4q-.5-.9 -1.2-1.7" fill="none" stroke="#ede7be28" stroke-width=".4"></path><path d="M-32.6,-53.7q-.1-.2 -.3-.8" fill="none" stroke="#ede7be28" stroke-width=".4"></path><path d="M-39.5,-55.5q-.5-1.3 -1-1.4" fill="none" stroke="#ede7be28" stroke-width=".7"></path><path d="M-38.7,-53q.9,.3 .9-.4q0-1.2 -1.9-2.8q-.8-.7 -.5,.9q.4,1.9 1.9,2.3q.1,.2 .1,.5q.5,.3 1.2,.5q.9,.2 -1.2-2.6q-.2-.8 -.2-1.4" fill="none" stroke="#ede7be28" stroke-width="1"></path><path d="M-39.1,-56.5q.1,.1 0,.1q-.1,0 -.1-.1q0-.1 .1-.1q.1,0 .1,.1" fill="none" stroke="#ede7be28" stroke-width="1"></path><path d="M-39.5,-57.7q.1,.1 .4,.3" fill="none" stroke="#ede7be28" stroke-width="1"></path><path d="M-38.7,-59.3q.4,.1 .8,.2" fill="none" stroke="#ede7be28" stroke-width="1"></path><path d="M-37.5,-60.6q.3-.7 .6-1.2" fill="none" stroke="#ede7be28" stroke-width=".5"></path><path d="M-37.1,-66.4q.4-.2 .7-1" fill="none" stroke="#ede7be28" stroke-width=".8"></path><path d="M-36,-70.5q1.6,.1 2.1-.3" fill="none" stroke="#ede7be28" stroke-width=".7"></path><path d="M-33.7,-71.4q.04,.04 0,.04q-.04,0 -.04-.04q0-.04 .04-.04q.04,0 .04,.04" fill="none" stroke="#ede7be28" stroke-width=".4"></path><path d="M-33.3,-72.3q.1,0 .3-.2" fill="none" stroke="#ede7be28" stroke-width=".4"></path><path d="M-22.7,-64.3q.1-2 -.6-3.8q-.7-2 -2.2-1.6q-.9,.3 .7,3.2q.9,1.5 2,1.1q0-1.2 -.5-2.5" fill="none" stroke="#ede7be28" stroke-width=".7"></path><path d="M-15.7,-69.8q.3,.3 0,.3q-.3,0 -.3-.3q0-.3 .3-.3q.3,0 .3,.3" fill="none" stroke="#ede7be28" stroke-width="3"></path><path d="M-12.8,-64q.2,.2 0,.2q-.2,0 -.2-.2q0-.2 .2-.2q.2,0 .2,.2" fill="none" stroke="#ede7be28" stroke-width="1.8"></path><path d="M-7.8,-56.4Q-7.9,-56.6 -8,-56.8" fill="none" stroke="#ede7be28" stroke-width="1.5"></path><path d="M-3.5,-52.5Q-3.4,-52.6 -3.2,-52.8" fill="none" stroke="#ede7be28" stroke-width="1.6"></path><path d="M.1,-54.1Q.2,-54 .1,-54Q0,-54 0,-54.1Q0,-54.2 .1,-54.2Q.2,-54.2 .2,-54.1" fill="none" stroke="#ede7be28" stroke-width="1.2"></path><path d="M.3,-57.9Q.4,-57.7 .9,-57.1" fill="none" stroke="#ede7be28" stroke-width="1.7"></path><path d="M2,-47.8Q2,-47.6 2.1,-47" fill="none" stroke="#ede7be28" stroke-width="2.6"></path><path d="M-3.6,-44.3Q-3.7,-44.2 -4.1,-43.7" fill="none" stroke="#ede7be28" stroke-width="2.3"></path><path d="M-10.2,-39.5q-.6,1.4 -1.1,2.6" fill="none" stroke="#ede7be28" stroke-width="2"></path><path d="M-19.4,-56.9q.4,0 .8,.1q1.2,1.8 1.9,3.8q-1.2-1.4 -3.1-4.1q-.6-1 -.9,.3q-.3,1.2 1.6,2.2q0-.2 0-.5" fill="none" stroke="#ede7be28" stroke-width="2.1"></path><path d="M-19.4,-51.7q.2,.3 .5,.8q.2,.6 .5,3.1" fill="none" stroke="#ede7be28" stroke-width="2.2"></path><path d="M-17.7,-49.4q.1,.1 .4,.7" fill="none" stroke="#ede7be28" stroke-width="2.5"></path><path d="M-19.5,-48.8q-1.3-.5 -2.3-1" fill="none" stroke="#ede7be28" stroke-width="1.6"></path><path d="M-20.7,-49.1q1,.1 1.8,.1" fill="none" stroke="#ede7be28" stroke-width="1.7"></path><path d="M-17.4,-52.3q0,7.6 -.6,8.6" fill="none" stroke="#ede7be28" stroke-width="2.6"></path><path d="M-19.6,-43.4q-3.1-5.6 -3.5-3.2q0,1.6 .1,2.8" fill="none" stroke="#ede7be28" stroke-width="1.3"></path><path d="M-23.5,-40.7q.2,0 .8-.2" fill="none" stroke="#ede7be28" stroke-width="1.4"></path><path d="M-22.4,-36.9q1.6-.3 2.9-.6" fill="none" stroke="#ede7be28" stroke-width="1.9"></path><path d="M-15.4,-31.4q3.3-1.7 3.7-2.4" fill="none" stroke="#ede7be28" stroke-width="2"></path><path d="M-11.7,-32.7q.6-.6 1.1-1.1" fill="none" stroke="#ede7be28" stroke-width="1.2"></path><path d="M-10.2,-32.4q.1-2 .6-1.5" fill="none" stroke="#ede7be28" stroke-width="1.8"></path><path d="M-9.1,-34.1Q-5.9,-36.1 -7.6,-36.7" fill="none" stroke="#ede7be28" stroke-width="1.7"></path><path d="M-7.9,-36.5Q-7.3,-36.8 -6.8,-37" fill="none" stroke="#ede7be28" stroke-width="2"></path><path d="M-3.4,-42.4Q-1.9,-46.5 -.8,-49.9" fill="none" stroke="#ede7be28" stroke-width="1.3"></path><path d="M1.2,-48.9Q1.7,-51 2.1,-52.8" fill="none" stroke="#ede7be28" stroke-width="1.3"></path><path d="M2.1,-50.8Q2.3,-52.3 2.5,-53.6" fill="none" stroke="#ede7be28" stroke-width="1.6"></path><path d="M2.6,-52.4Q3.6,-50.4 3.8,-50.9Q3.3,-53.2 2.4,-55" fill="none" stroke="#ede7be28" stroke-width="1.9"></path><path d="M1.2,-52.8Q2.6,-47.6 3.1,-48.8Q3.7,-50.3 1.5,-56.1" fill="none" stroke="#ede7be28" stroke-width="1.7"></path><path d="M2,-51.4Q2.5,-53 2.9,-54.4" fill="none" stroke="#ede7be28" stroke-width="1.6"></path><path d="M2.2,-59Q-2,-66.1 -2.1,-66.1" fill="none" stroke="#ede7be28" stroke-width="1.8"></path><path d="M-6.8,-71.7Q-8.5,-74.1 -9.8,-76.1" fill="none" stroke="#ede7be28" stroke-width="1.6"></path><path d="M-10.7,-74.1q-1.3-.4 -2.3-.7" fill="none" stroke="#ede7be28" stroke-width="2"></path><path d="M-17.6,-74.9q1.2,3.3 3.7,4" fill="none" stroke="#ede7be28" stroke-width="2.2"></path><path d="M-12.2,-71.8q2.6,4.1 4.7,7.5" fill="none" stroke="#ede7be28" stroke-width="1.6"></path><path d="M-13,-67.6q-4.5-1.4 -8.1-2.6" fill="none" stroke="#ede7be28" stroke-width="1.2"></path><path d="M-27.1,-66.3q-1.1,4.3 -1.5,3.5q.3-.1 .8-.2q2.3,1.8 3.9,4.1" fill="none" stroke="#ede7be28" stroke-width="1.8"></path><path d="M-24,-61q-.5,3.7 -1.1,6.7" fill="none" stroke="#ede7be28" stroke-width="1.7"></path><path d="M-25.8,-54.4q-.4-2 -.8-3.7" fill="none" stroke="#ede7be28" stroke-width="1.6"></path><path d="M-31.5,-61.3q.4,5.5 .1,5.5" fill="none" stroke="#ede7be28" stroke-width="1.6"></path><path d="M-34.3,-57.7q-.4-1 -.8-1.8" fill="none" stroke="#ede7be28" stroke-width="1.2"></path><path d="M-40.9,-59.7q.3,1.9 .5,3.4" fill="none" stroke="#ede7be28" stroke-width="1.9"></path><path d="M-37.9,-43.1q1.2,2.1 2.2,3.9" fill="none" stroke="#ede7be28" stroke-width="2.1"></path><path d="M-31.9,-36.5q1.4-.5 2.5-1" fill="none" stroke="#ede7be28" stroke-width="1.3"></path><path d="M-17.5,-36.6q.2,0 1.8,.3" fill="none" stroke="#ede7be28" stroke-width="1.5"></path><path d="M-14.1,-33.4q.3-.3 .5-.6" fill="none" stroke="#ede7be28" stroke-width="1.9"></path><path d="M-18.4,-31.9q.2-.1 .9-.5" fill="none" stroke="#ede7be28" stroke-width="1.2"></path><path d="M-16.6,-31.9q1.9-1.8 3.4-3.4" fill="none" stroke="#ede7be28" stroke-width="1.6"></path><path d="M-13.9,-34.1q-5.9,3 -6.2,2.6" fill="none" stroke="#ede7be28" stroke-width="1.2"></path><path d="M-16.9,-31.7q3.8-1.4 5.1-4q0,0 0,.2q-.1,1.9 1.4,.4q1.4-2.8 2.2-5.3q.8,1.5 1.4,4.4q.3-.4 .6-1.2" fill="none" stroke="#ede7be28" stroke-width="1.2"></path><path d="M-4.9,-43Q-2.4,-40.3 -2.1,-41.4" fill="none" stroke="#ede7be28" stroke-width="1.7"></path><path d="M-.4,-47.4Q.8,-48.2 1.3,-50.1" fill="none" stroke="#ede7be28" stroke-width="1.5"></path><path d="M1.8,-49.3Q1.9,-50.7 2,-51.9" fill="none" stroke="#ede7be28" stroke-width="1.2"></path><path d="M2.3,-54.8Q.7,-71.8 -.1,-65.3" fill="none" stroke="#ede7be28" stroke-width="1.2"></path><path d="M-.4,-64.6Q-.5,-67 -.8,-68.9" fill="none" stroke="#ede7be28" stroke-width="1.7"></path><path d="M-1.3,-68.1Q-.4,-66.6 -.6,-66.9Q-4.6,-71.7 -4.5,-71.7" fill="none" stroke="#ede7be28" stroke-width="1.9"></path><path d="M-6.6,-72.5Q-6.9,-73.7 -7.2,-74.6" fill="none" stroke="#ede7be28" stroke-width="1.8"></path><path d="M-6.4,-74Q-.1,-69.1 1.7,-66.4Q.7,-68.4 -1.3,-72.2Q-.6,-71.6 .5,-70.5Q.4,-70.7 .1,-71.2" fill="none" stroke="#ede7be28" stroke-width="1.5"></path><path d="M-.7,-73.5Q1.3,-71.2 3.8,-67.4" fill="none" stroke="#ede7be28" stroke-width="1.6"></path><path d="M3,-66.5Q3.5,-65.9 3.9,-65.4" fill="none" stroke="#ede7be28" stroke-width="1.2"></path><path d="M3.9,-58.6Q4.3,-57.5 4.7,-56.6" fill="none" stroke="#ede7be28" stroke-width="1.2"></path><path d="M4.4,-62.2Q5.6,-59.1 6.5,-56.6" fill="none" stroke="#ede7be28" stroke-width="2"></path><path d="M6.3,-53.2Q6.1,-53 6,-52.8" fill="none" stroke="#ede7be28" stroke-width="1.2"></path><path d="M2.2,-53.4Q2.2,-53.8 2.2,-55.3" fill="none" stroke="#ede7be28" stroke-width="2.2"></path><path d="M-15.3,-68.5q-3-3.6 -3.1-3.2q-2.6-.5 -5.7-2.5q-1.8-.2 -3.3,.1q-1.3,.2 -1.5-1.5" fill="none" stroke="#ede7be28" stroke-width="1.8"></path><path d="M-29.8,-76.6q.2-.6 -.1-2.1" fill="none" stroke="#ede7be28" stroke-width="2.2"></path><path d="M-29.9,-79q.5,.2 .9,.3" fill="none" stroke="#ede7be28" stroke-width="1.8"></path><path d="M-29.1,-78.7q0,.1 -.2,.5" fill="none" stroke="#ede7be28" stroke-width="1.2"></path><path d="M-30.4,-78.4q3.6,5.6 4,4.7" fill="none" stroke="#ede7be28" stroke-width="1.7"></path><path d="M-9.5,-75.6Q-7.4,-75 -7.9,-76.7Q-8.5,-78.8 -7.9,-78.7Q-4.5,-74.7 -2.5,-70.2" fill="none" stroke="#ede7be28" stroke-width="2"></path><path d="M-1,-66.9Q-1.8,-66.3 -2.5,-66.4Q-4.2,-67.2 -5.6,-67.9" fill="none" stroke="#ede7be28" stroke-width="1.9"></path><path d="M-7.9,-68.6q-5.7-.5 -9,1.3q-2,1.1 -2.4,.3q-3.7-6.6 -3.7-4q.3,2.1 .8,3.9" fill="none" stroke="#ede7be28" stroke-width="1.8"></path><path d="M-22.5,-49.6q0,.6 0,1.1" fill="none" stroke="#ede7be28" stroke-width="1.6"></path><path d="M-23.4,-57q-3.4-2.8 -6-5.2" fill="none" stroke="#ede7be28" stroke-width="1.2"></path><path d="M-34.3,-65.1q-5.3-3.7 -5.3-3.7" fill="none" stroke="#ede7be28" stroke-width="1.7"></path><path d="M-40.1,-68.2q-.2,1.3 -.4,2.4" fill="none" stroke="#ede7be28" stroke-width="1.2"></path><path d="M-42.6,-59.7q.1,.3 .5,1.3" fill="none" stroke="#ede7be28" stroke-width="2.5"></path><path d="M-43.7,-58.5q.9,2.7 1.7,4.9" fill="none" stroke="#ede7be28" stroke-width="1.7"></path><path d="M-42.9,-50q.7,1.5 1.3,2.7" fill="none" stroke="#ede7be28" stroke-width="2.7"></path><path d="M-41.3,-45.6q-2.9-13.2 -3.4-12.5" fill="none" stroke="#ede7be28" stroke-width="2.1"></path><path d="M-31.5,-37.3q.3,.4 .5,.7" fill="none" stroke="#ede7be28" stroke-width="1.6"></path><path d="M-31.9,-37.3q1.4,3 2.2,3.7" fill="none" stroke="#ede7be28" stroke-width="1.9"></path><path d="M-19,-37q3.5,2.1 5.3,.9q2.7-6.5 3.5-12.7q1.4,1.5 3,4.5q.5-3.7 .1-10.2q.8,2.9 2,8.4" fill="none" stroke="#ede7be28" stroke-width="2.6"></path><path d="M-4.1,-48.1Q-1.5,-44.3 -2,-43.7" fill="none" stroke="#ede7be28" stroke-width="2.1"></path><path d="M-4.5,-46.3Q-3.7,-46.2 -3,-46.2" fill="none" stroke="#ede7be28" stroke-width="1.8"></path><path d="M-1.9,-49.1Q-1.1,-46.9 -1.9,-44.8Q-3.4,-40.6 -8.1,-40.1" fill="none" stroke="#ede7be28" stroke-width="1.5"></path><path d="M-14.1,-40q-2.4,3.1 -4.3,3.2" fill="none" stroke="#ede7be28" stroke-width="1.7"></path><path d="M-20.4,-32.7q1.2,.3 2.8-.7" fill="none" stroke="#ede7be28" stroke-width="1.2"></path><path d="M-15,-36.6q1,.4 1.8,.7" fill="none" stroke="#ede7be28" stroke-width="1.5"></path></svg>