<svg viewBox="-252 -260 214.9 216.3" width="214.9" height="216.3" version="1.1" baseProfile="full" xmlns="http://www.w3.org/2000/svg" class="js-draw--autoresize"><style id="js-draw-style-sheet">path{stroke-linecap:round;stroke-linejoin:round;}text{white-space:pre;}</style><path d="M-37.1,-43.7l0-216.3l-214.9,0l0,216.3l214.9,0" fill="#ffffff" class="js-draw-image-background"></path><path d="M-171.5,-239.35q19.6-.7 33.25,1.75q17.85,3.15 46.55,31.15q11.9,11.9 22.05,39.55q7.7,21.7 1.75,53.2q-2.45,12.25 -17.15,30.45q-15.4,19.95 -53.55,24.5q-28,3.15 -68.25-24.5q-27.65-19.25 -35-61.25q-3.5-17.85 7-41.3q11.2-25.2 40.6-44.1q14.35-9.1 33.25-8.75" fill="none" stroke="#5a0f8f" stroke-width="1.4"></path><path d="M-85.4,-108.45q-2.8,5.25 -5.95,8.75q-11.97,14.07 -14.875,16.45q-3.64,2.975 -14.875,8.82q-9.45,4.83 -23.45,4.83q-3.15,0 -18.2-3.85q-17.85-4.9 -28.7-14.35q-2.1-1.75 -3.85-2.8q-6.65-7.7 -10.85-15.05q-4.2-5.95 -7.7-10.5q-3.85-5.6 -9.8-21.35q-2.8-7 -3.15-23.45q0-7.7 3.5-17.5q5.25-13.3 17.85-26.95q11.2-12.25 37.45-18.9q18.9-4.9 40.25,9.45q9.8,7 17.85,13.3q1.4,1.05 2.8,1.75" fill="none" stroke="#5a0f8f" stroke-width="1.4"></path><path d="M-92.05,-184.75q1.4,2.1 2.8,4.2q10.36,15.645 11.41,24.78q2.45,21.07 -2.415,34.86q-1.295,3.71 -2.695,6.86" fill="none" stroke="#5a0f8f" stroke-width="1.4"></path><path d="M-105.35,-201.2q.7,.7 1.05,1.05" fill="none" stroke="#5a0f8f" stroke-width="3.5"></path><path d="M-96.95,-193.15q0,0 0,0" fill="none" stroke="#5a0f8f" stroke-width="3.5"></path><path d="M-96.95,-192.8q0,0 0,0" fill="none" stroke="#5a0f8f" stroke-width="3.5"></path><path d="M-130.9,-221.5q8.4,3.15 19.95,11.55q1.4,.7 2.45,1.4q.35,0 -3.5-2.8q-9.1-5.95 -16.8-10.15q6.65,4.55 18.9,13.3q1.05,.35 -5.95-3.85q-7.35-4.55 -13.3-8.4q6.65,4.2 18.9,12.25q-8.05-4.9 -23.45-14.35q-2.1-1.4 6.3,4.9q8.4,6.65 15.75,11.9q-4.55-3.15 -12.6-9.1q5.25,3.85 14.7,10.85q-4.9-5.25 -14.7-14.7q7.7,5.25 21.7,15.75q2.1,1.75 -11.9-13.65q-8.4-9.1 -7-8.05q8.75,7 15.75,13.3q2.45,2.1 -8.05-7.7q-2.8-2.45 -4.9-4.55q4.9,3.5 14.35,10.5q-2.8-3.85 -8.05-10.5q-1.75-1.75 7.35,7.35q3.5,3.5 6.3,6.65q-1.75-2.1 -5.25-5.6q4.9,7.35 15.05,20.65q-5.6-5.25 -15.4-15.4q7,7.7 19.6,21.35q-6.65-5.6 -18.55-16.45q-3.5-3.15 -4.2-.7q3.5,5.25 7.35,9.8" fill="none" stroke="#5a0f8f" stroke-width="3.5"></path><path d="M-104.3,-200.15q1.75,1.75 3.85,3.85" fill="none" stroke="#5a0f8f" stroke-width="3.5"></path><path d="M-100.45,-196.3q.35,.35 .7,.7" fill="none" stroke="#5a0f8f" stroke-width="3.5"></path><path d="M-90.3,-184.4q.7,.7 1.4,2.1q14.35,26.6 11.9,19.6q-6.3-19.25 -12.95-29.05q-1.4-1.4 8.05,18.2q2.1,3.85 2.45,3.85q-5.6-21 -18.9-39.55q-.7-1.4 12.25,19.25q3.85,6.3 3.85,5.95q1.05-1.4 -20.3-29.4q-1.05-1.75 -2.1-2.8q6.3,7.7 18.9,22.4q-2.1-4.2 -6.65-10.85q4.2,7.35 11.9,21.7q-7.7-6.3 -20.3-19.6q-1.05,0 -1.75,.35q3.5,5.95 11.9,12.6" fill="none" stroke="#5a0f8f" stroke-width="3.5"></path><path d="M-104.3,-208.55q2.1,1.4 3.85,2.8" fill="none" stroke="#5a0f8f" stroke-width="22.4"></path><path d="M-100.45,-205.75q1.05,.7 2.1,1.75" fill="none" stroke="#5a0f8f" stroke-width="22.4"></path><path d="M-98.35,-204q-9.1-8.75 -26.6-24.15q2.45,.7 6.65,2.45q12.25,11.55 21.35,22.75" fill="none" stroke="#5a0f8f" stroke-width="22.4"></path><path d="M-99.05,-206.1q-3.85-5.95 -10.15-15.05q4.2,4.9 12.25,14.7q1.75,2.45 3.5,4.9" fill="none" stroke="#5a0f8f" stroke-width="22.4"></path><path d="M-79.1,-176.7q.35-.7 1.05-1.05q3.5,4.55 6.3,9.45" fill="none" stroke="#5a0f8f" stroke-width="22.4"></path><path d="M-69.65,-164.1q4.55,8.4 7,17.85q-.7-3.5 -2.1-9.8q-10.15-43.05 -45.85-68.6q-20.3-14.7 -71.75-6.65q-25.2,3.85 -46.9,31.15q-9.45,11.9 -11.55,45.15q3.15,21.35 8.05,38.5q8.05,27.65 47.95,44.45q40.25,17.15 63.7,11.2q40.25-9.8 51.45-32.2q21.35-42.7 5.25-74.2q-8.4-18.9 -15.05-34.65q-8.05-18.9 -47.6-35.35q-3.85-1.4 -21,1.05q-17.85,2.1 -32.55,3.85q-9.8,1.05 -22.4,17.15q-5.95,5.95 -11.2,10.85" fill="none" stroke="#5a0f8f" stroke-width="22.4"></path><path d="M-79.1,-104.25q-4.55,11.9 -11.55,17.15q-31.5,21.35 -34.3,21.7q-33.6,8.05 -46.9-7.7q-16.1-9.8 -30.8-16.45q-4.55-2.1 -16.1-17.85q-1.75-2.1 -11.55-29.75q-4.9-13.3 -1.4-33.25q3.15-19.6 17.85-32.55q51.1-45.85 86.8-22.4q12.25,8.75 22.4,16.8" fill="none" stroke="#5a0f8f" stroke-width="22.4"></path><path d="M-70.7,-133.65q-3.5,24.85 -3.15,23.8q10.15-19.25 -3.5-52.85q-11.55-26.95 -16.8-33.25q-23.1-28 -38.15-32.55" fill="none" stroke="#5a0f8f" stroke-width="21"></path><path d="M-178.5,-78.7q45.15,7.7 60.2,2.8q23.45-7.7 32.2-21.35q20.65-32.55 15.75-63.7q-1.4-7.7 -8.05-17.85" fill="none" stroke="#5a0f8f" stroke-width="21"></path><path d="M-142.45,-164.8q-5.25-18.2 -4.9-17.5q17.15,31.85 18.9,26.6q.7-3.15 -15.05-22.05q7.7,8.4 21.35,24.15q-5.95-11.9 -18.55-32.55q8.05,7.35 21,22.05q1.4-3.15 1.4-8.05q0-1.05 -18.2-22.75q1.75,2.8 4.9,7.7q5.95,9.45 12.95,5.6q2.8-1.75 -19.6-21q-16.1-14 -18.9-6.65q-2.1,5.25 22.4,16.45q2.8-3.85 4.2-9.45q1.05-4.2 -19.25-14.35q-13.65-6.65 -30.1,7.7q-51.45,45.15 -30.45,83.3q11.2,20.3 46.2,40.95q22.75,13.3 57.4-6.65q26.25-15.05 -8.05-49q-10.5-10.15 -13.65-.7q-1.75,5.6 16.1,31.85q8.4,12.25 16.8-.35q6.65-10.5 -11.2-54.95q-7.35-18.2 -11.9-15.75q-2.45,1.4 23.45,44.1q2.1-2.8 3.85-7.7q1.05-3.15 -17.15-42.7q-6.3-10.5 -12.25-18.55q10.85,16.8 31.5,48.3q-10.85-11.9 -30.1-34.65q-8.05-9.8 -23.1-9.1q-7.7,.7 12.6,62.3q10.15,30.8 6.3,32.2q-.35,.35 -12.25-18.55q-21.35-33.25 -35.35-35q0,0 19.95,24.85q13.3,17.15 23.8,31.5q.35-2.45 -.7-7q-2.8-12.95 -30.45-41.65q-26.6-26.95 -29.75,5.6q-1.75,21.35 17.85,52.15q8.05,12.95 13.65,1.05q4.9-10.85 -19.6-43.05q-14-18.2 -25.9-14.35q-10.85,3.15 29.75,45.85q27.3,28.35 24.15-14.35q-1.75-25.2 -31.85-57.05q-16.45-17.5 -17.85-2.8q-.35,5.25 23.45,35q11.9,14.35 22.05-8.05q10.5-24.15 -20.65-64.4q-2.45,1.4 -4.55,3.85q-2.1,2.8 36.75,59.15q-2.45-3.5 -7-10.15q-19.25-27.3 -32.55-22.4q-2.1,.7 9.45,25.2q16.45,39.2 29.05,72.1q2.8,7 -2.45-15.75q-7-28.35 4.55-17.15q14.35,20.65 24.85,38.15q3.85,7 -5.25-24.15q-5.95-19.95 -18.2-35.35" fill="none" stroke="#5a0f8f3f" stroke-width="24.15"></path><path d="M-113.4,-147.3q-16.8-33.95 -27.65-48.3q-.35-.35 1.75,1.75q31.85,38.5 35.7,42q8.05,7.35 -1.05-14.7q-11.55-24.15 -21.35-43.4q11.9,8.05 30.8,25.55q-8.4-9.1 -23.8-25.2q-2.45,3.15 -4.2,8.05q3.15,8.75 8.05,15.75q-1.75-1.05 -4.9-3.5q-16.1-16.45 -28.35-31.15q-10.15-11.9 -19.6-6.65q-3.15,5.6 -4.9,10.85q-8.4,9.1 -17.5,15.05q-12.95,9.1 -21,39.9q-4.2,16.45 19.25,51.1q17.5,26.25 54.6,25.55q37.1-.7 46.55-46.2q7-31.5 -18.2-67.2q-22.05-31.15 -58.45-19.6q-11.9,3.85 -27.3,32.2q-15.75,29.05 20.3,73.15q29.4,36.75 56,0q21.35-29.05 -17.5-77.7q-29.4-37.1 -60.2-12.95q-18.55,14.35 -6.65,58.1q9.8,35.35 43.05,42.7q30.8,7 51.8-32.9q12.95-25.2 -16.1-57.75q-29.4-32.9 -61.25-1.4q-21.7,21.7 8.4,60.2q12.25,15.4 28.7,1.4q13.65-11.55 1.4-55.3q-10.85-39.9 -43.4-30.45q-19.6,5.6 -11.2,43.4q5.95,27.65 34.65,29.75q17.85,1.4 12.95-30.8q-2.8-18.55 -22.4-30.45q-9.1-5.6 -10.85,16.1q-1.75,20.3 21.35,54.25q14.7,21 20.65,4.9q3.15-9.1 -19.6-44.8q-2.8,2.8 -5.6,8.05q-.7,1.4 21,43.05q10.85,21 16.8,7q7.35-18.55 -28-69.3q-4.9,.7 -9.8,3.15q-5.25,2.8 20.3,42.7q22.4,34.3 32.55,14q8.4-17.5 -19.6-47.25q-14.35-15.4 -28-4.55q-10.15,7.35 6.65,49.7q3.5,9.1 9.8,10.85" fill="none" stroke="#5a0f8f3f" stroke-width="24.5"></path><path d="M-122.5,-173.2q-22.75-16.8 -35.35-18.55q-25.55-3.15 -23.8,32.9q1.75,37.1 32.9,39.9q14.35,1.4 35-28.35q15.4-21.7 -19.95-60.9q-25.2-27.3 -55.65-3.5q-14.35,11.2 -6.65,54.25q1.4,7.7 4.2-11.55q2.45-21.35 3.85-38.5q.7-6.65 24.15-6.3q25.2,0 23.8,4.9q-10.5,2.45 -22.4,1.05q-18.2-2.45 -37.1,17.5q-20.65,21.7 5.25,83.65q1.75-1.75 3.5-4.55q1.05-1.75 -10.15-39.55q-5.25-16.8 -17.5-23.45q-1.75-1.05 8.05,28q16.8,50.4 15.05,36.4q-5.25-36.4 -23.45-44.45q-5.25-2.45 18.9,43.75q14.7,28.35 20.65,4.2q4.55-19.6 -14.35-36.05q-5.6-4.9 -3.85,5.25q2.8,15.75 24.15,47.25q4.2-2.8 8.05-8.05q-1.75-9.45 -6.3-17.5q3.85,5.95 10.5,17.15q16.8,28 21.35,13.65q1.75-10.15 3.15-18.55q1.05-7 14.35,9.1q14,16.45 12.25-5.25q2.1-4.2 4.55-7q5.6,1.4 10.5,5.25q5.25,3.85 3.5-31.15q-2.1-10.85 -4.9-19.95q2.8,4.9 7.35,14q3.5,7.35 2.45-15.4q-3.15-61.25 -67.2-78.05q-35.35-9.45 -55.3,24.5q-18.55,31.15 -4.55,66.85q14.7,37.1 56.35,49q28,8.4 52.15-23.1q17.85-23.8 1.75-48.65q-9.45-15.05 -18.2,10.5q-1.75,24.85 -.35,45.5q.35,5.95 -19.25,12.6q-16.8,5.95 -35,2.8q-1.05-1.05 -1.4-2.1" fill="none" stroke="#5a0f8f3f" stroke-width="25.2"></path><path d="M-96.25,-124.55q3.85-11.9 3.15-21q-2.8-37.8 -42.35-61.6q-33.6-20.65 -52.85-4.2q-25.2,21.7 -24.5,61.25q.35,39.55 45.15,59.15q32.55,14.35 70-23.1q19.25-19.25 9.45-60.9q-9.45-40.95 -50.75-44.8" fill="none" stroke="#5a0f8f3f" stroke-width="24.5"></path><path d="M-100.8,-149.75q-7,23.8 -13.65,28.35q-8.75,6.65 -15.75,11.9q-9.45,7.35 -42.35-2.1q-29.4-8.75 -28.35-53.55q.35-16.8 18.55-35.7q18.2-19.25 57.4,4.9q11.2,7 33.6,40.25q1.75-1.75 3.15-5.25q2.8-5.95 -21.7-42.7q-19.25-28.35 -58.1-24.5q-11.9,1.4 -25.55,24.85q-17.15,29.4 -17.5,31.15q-7.35,27.65 5.6,58.45q10.85,26.6 47.95,32.2q15.75,2.1 41.65-8.05q26.25-10.15 33.25-62.3q-2.1,3.5 -4.9,10.5q-10.85,26.25 -14.35,30.1q-34.3,36.75 -39.9,31.85q6.3-7.35 17.5-12.95q18.9-9.45 32.55-36.05q10.5-20.65 -4.9-68.25q-1.75-6.65 4.2,11.9q23.8,71.4 -13.65,100.45q-6.65,5.25 -35.35-1.4q-9.1,1.4 -16.45,3.5q-8.4,2.8 -19.25-10.85q-3.5-4.55 13.65,7q-4.2-.35 -11.2-2.1q-21.35-5.25 -46.2-21.7q-3.85-3.85 -7-7" fill="none" stroke="#5a0f8f3f" stroke-width="25.2"></path><path d="M-127.75,-128.05q-4.69-2.135 -5.11-1.995q-.385,.525 -.63,1.12q-3.01,1.33 -6.16,1.645q-3.71-.7 -6.685-1.75q-.455,.735 -.595,1.75q-2.905,.63 -6.23,.07q-3.85,.735 -7,1.89q-.91,.35 -4.025-.35q-3.22-.63 -5.88-1.085q-2.415-.56 -4.375-1.085q-1.085-.105 -1.995-.14q-1.82-.525 -3.255-1.12q-1.12-.525 -2.03-1.015q-.49-.245 7.07,11.025q2.065,3.115 5.775,1.47q3.815-1.715 6.545,.7q4.305,3.885 3.5,7.77q.665,2.415 1.68,4.34q.525,.98 2.45-5.32q.595-2.24 .98-4.095q.77-.42 1.645-.595q1.995-1.12 3.535-2.31q3.115-2.415 8.575,5.075q2.555,3.5 2.8-.105q.14-2.52 2.695-5.845q.7-.91 5.145,.105q1.54,.385 1.26-6.02q.56-1.12 1.26-1.995q-.105-2.52 -.945-4.76q-.525-.175 -1.05-.175" fill="none" stroke="#000000" stroke-width=".875"></path><path d="M-115.5,-145.55q-3.78-.245 -6.895-.56q-.805,1.19 -1.12,2.73q-.315,1.47 -3.99-2.555q-1.015-1.085 -.49-1.015q.42,.035 .28-1.225q-.455-4.165 .665-3.955q.7,.14 2.415-1.855q4.2-4.9 6.405,3.955q1.855,3.15 3.78,5.53" fill="none" stroke="#000000" stroke-width=".735"></path><path d="M-161,-150.8q-2.94-2.94 -5.145-6.335q-.595-.945 -1.575,2.1q-1.4,4.13 -10.395,1.645q-7.84-2.17 -.84-7.42q5.915-4.445 9.275-3.535q.42-.525 .665-1.26q2.17-.175 4.55,.56q5.81,1.855 5.53,11.305q-.07,1.96 -3.885,2.03q-.91,.105 -1.68,.21" fill="none" stroke="#000000" stroke-width=".805"></path><path d="M-119,-112.65q3.955-1.26 5.565-.245q6.16,3.85 1.61,5.46q-4.83,.175 -8.855-.28q-2.66-.28 -.245-6.755q.42-.21 .875-.28" fill="none" stroke="#000000" stroke-width=".735"></path><path d="M-149.45,-127.35q-9.73-26.005 -7-15.645q.385-.105 .77-.42q-.455,1.54 -1.715,3.955q-1.47-.455 -2.87-1.68q-1.365,2.065 -2.03,5.425q-1.435,1.295 -3.045,2.065q-4.165,4.2 -7.105,8.33q-.245-.105 -.455-.28" fill="none" stroke="#000000" stroke-width=".805"></path><path d="M-120.05,-155.35q-6.685-1.61 -8.295-.175q-.665-3.43 .035-8.96q.035-.42 3.675-1.015q4.305-.665 4.41,5.425q-.56,3.395 -1.225,6.125" fill="none" stroke="#000000" stroke-width=".84"></path><path d="M-129.5,-156.75q-4.34,.56 -5.215-1.96q-1.12-3.29 2.345-4.06q2.415-.84 4.375-1.68q.35,.28 .595,.7" fill="none" stroke="#000000" stroke-width=".7"></path><path d="M-121.8,-157.8q6.79,.105 5.915-1.715q-2.065-4.27 -3.71-4.375" fill="none" stroke="#000000" stroke-width=".77"></path><path d="M-120.75,-164.45q-2.205-6.615 .945-5.915q1.75,.175 3.22,.245q1.19,.07 -.245,8.785" fill="none" stroke="#000000" stroke-width=".735"></path><path d="M-128.45,-164.1q-1.155-4.655 -3.605-5.985q-3.045-1.61 -1.33,4.48q.805,2.73 -.035,4.725" fill="none" stroke="#000000" stroke-width=".77"></path><path d="M-128.8,-169.7q-.49-3.08 -1.05-5.6" fill="none" stroke="#000000" stroke-width=".7"></path><path d="M-130.9,-169.7q-2.17-5.565 -2.1-5.6" fill="none" stroke="#000000" stroke-width=".63"></path><path d="M-134.75,-170.4q-.21-2.1 -.7-3.85" fill="none" stroke="#000000" stroke-width=".7"></path><path d="M-121.1,-170.4q-.28-3.815 -.35-3.85" fill="none" stroke="#000000" stroke-width=".595"></path><path d="M-118.65,-171.45q-.455-1.75 -1.05-3.15" fill="none" stroke="#000000" stroke-width=".595"></path><path d="M-117.6,-172.85q.35-1.855 .35-3.5" fill="none" stroke="#000000" stroke-width=".735"></path><path d="M-124.95,-166.55q1.47-5.565 -.385-10.885q-.14,.035 -.245,.14q-1.82,1.47 -.105,9.17q.84,4.305 1.435,7.875" fill="none" stroke="#000000" stroke-width=".77"></path><path d="M-123.55,-178.1q-.21-1.33 -.35-2.45" fill="none" stroke="#000000" stroke-width=".7"></path><path d="M-124.95,-179.85q-1.05-3.885 -1.4-3.15" fill="none" stroke="#000000" stroke-width=".63"></path><path d="M-124.6,-176.7q-.77-2.31 -1.4-4.2" fill="none" stroke="#000000" stroke-width=".63"></path><path d="M-164.85,-161.65q.91-8.82 1.4-16.1" fill="none" stroke="#000000" stroke-width=".805"></path><path d="M-176.05,-157.45q-.42-8.855 -.7-16.1" fill="none" stroke="#000000" stroke-width=".91"></path><path d="M-160.65,-182.3q-3.465,2.415 -6.93,7.07q-3.115,4.2 -8.89,3.22q-1.89-.315 -2.555-5.25q-.945-7.035 6.965-8.61q1.295-.245 11.69,3.115q.315,.105 1.12,1.155" fill="none" stroke="#000000" stroke-width=".77"></path><path d="M-166.6,-165.15q4.165,.945 5.005,4.445q1.4,5.705 -9.345,6.615q-6.895,.56 -11.41-4.795q-1.05-1.225 9.03-7.455q6.65-4.095 11.165,.28q1.295,1.96 2.205,3.71" fill="none" stroke="#000000" stroke-width=".805"></path><path d="M-172.55,-166.55q-.735-5.775 -1.4-10.5" fill="none" stroke="#000000" stroke-width=".735"></path><path d="M-162.75,-157.45q-8.575-24.255 -5.95-21" fill="none" stroke="#000000" stroke-width=".7"></path><path d="M-168,-156.75q-2.66-6.335 .35-5.355q1.015,.945 1.715,1.89q.805,.035 1.61-.21q-1.05-.56 -3.01-1.015q.035,.805 .455,1.89q-1.89-.385 -4.62-1.855q-2.38-1.26 -3.745,1.575q.49,.735 1.225,1.26q-.455-.315 -1.26-.91q1.085,.035 2.975,.49q.455-.98 .455-2.345q1.47-.42 3.22-.21q-.385-.875 -1.365-2.03q-.49,2.555 -.105,6.825" fill="none" stroke="#000000" stroke-width=".595"></path></svg>