<svg viewBox="-229.175 -233.175 207.55 206.15" width="207.55" height="206.15" version="1.1" baseProfile="full" xmlns="http://www.w3.org/2000/svg" class="js-draw--autoresize"><style id="js-draw-style-sheet">path{stroke-linecap:round;stroke-linejoin:round;}text{white-space:pre;}</style><path d="M-21.625,-27.025l0-206.15l-207.55,0l0,206.15l207.55,0" fill="#ffffff" class="js-draw-image-background"></path><path d="M-137.3,-222.85q21.35-2.8 36.75,3.85q41.65,17.85 60.2,68.6q14.35,39.2 -16.1,78.4q-23.1,29.75 -72.8,36.75q-26.6,3.85 -55.3-13.3q-40.25-24.5 -28-85.75q5.25-26.95 37.8-67.9q11.55-14.35 38.85-21.7q2.45,.35 4.2,1.4" fill="none" stroke="#491267" stroke-width="8.75"></path><path d="M-89.35,-207.8q11.55,11.55 20.65,21q-5.95-5.6 -17.15-16.1q8.75,9.8 25.9,27.65q-4.2-6.3 -12.6-17.15q8.05,12.95 24.15,36.4q0,0 .35-.35q-3.15-8.75 -9.8-16.1q4.55,15.05 16.8,41.3q2.45,4.9 -9.1-28.7q0,.35 0,1.4q5.25,23.8 9.8,43.4q-1.75-6.3 -4.9-18.2q-1.75,12.6 -1.75,35.35q-.35-3.15 -.35-9.1q-3.5,9.1 -7,25.9q2.1-7.35 5.6-20.65q-5.6,11.55 -14.35,33.95q-7,8.4 -14,14.7q-4.9,4.55 -7.35,2.1q5.6-6.3 15.75-11.55q9.1-4.55 13.3-19.25q.7-1.4 -15.05,14q-11.55,11.55 -35,20.3q-26.6,9.8 -41.3,5.6q-16.1-3.5 -29.05-5.95q-5.6-1.05 -20.3-18.2q-14-16.8 -13.3-44.45q3.15-18.9 6.3-34.3q4.9-21.7 18.2-41.3q15.05-22.75 41.65-31.5q7.7-2.8 28.35,.7q11.9,1.75 30.45,15.4q5.6,4.55 9.8,8.4" fill="none" stroke="#491267" stroke-width="9.1"></path><path d="M-118.05,-148.3q-4.9-14 -4.9-14.7q8.4,5.6 17.15,17.5q-5.6-8.4 -16.1-24.15q7,6.3 18.55,19.25q-4.9-8.75 -15.05-23.45q6.3,3.85 16.8,12.6q-1.4-4.9 -5.95-12.6q-.35-1.05 4.9-10.85q2.8-4.9 14.35,8.75q2.1,2.45 8.75,19.25q6.3,15.4 7.7,14q5.25-3.5 5.25,10.15q.7,11.9 1.05,22.05q.35,2.1 -11.55,20.65q-15.05,23.1 -16.1,23.8q-8.4,5.95 -18.2,5.6q-16.45-.35 -29.75-1.05q-19.95-.7 -20.3-.7q-4.9-2.45 -14-21.7q-1.05-1.75 -11.55-18.2q1.4,8.4 5.95,23.1q-3.5-8.4 -9.45-24.5q-2.1-5.6 -1.75-24.15q.35-13.65 15.05-35q8.4-11.9 15.4-22.05q5.6-8.05 22.4-15.75q26.95-12.25 61.6,44.8q1.75,3.15 -10.15-10.85q2.1,2.1 6.3,5.95q14.7,16.1 26.95,29.4q-7.7-7.35 -21.7-21.35q-13.65-13.65 -7.35,16.45q-5.25,8.75 -11.9,15.05q-4.55,4.2 -18.55-22.75q-4.55-8.4 -16.1-9.8q-5.95-1.05 10.15,43.4q4.9,13.3 12.6,11.2q8.4-2.45 -19.25-48.65q-9.1-15.4 -21-7.7q-7.35,4.55 5.6,48.65q5.25,.35 11.2-1.4q14.7-4.9 -23.45-36.05q-12.95-10.85 -17.5,8.05q-4.55,18.9 14.7,49.7q3.15,5.6 11.9,.35q7-3.85 -2.8-27.3q-6.65-16.8 -17.15-9.45q-7,5.25 4.9,19.95q7.7,9.45 16.8,3.5q3.85-2.45 -1.75-13.65q-2.8,1.05 -5.6,3.85" fill="none" stroke="#49126751" stroke-width="40.95"></path><path d="M-92.85,-162.3q-10.15-14 -18.2-25.2q11.2,11.9 31.15,34.3q-6.65-9.45 -19.25-26.95q-14.7-19.25 -22.75-11.2q-4.9,4.9 27.65,23.45q.35-7.35 -2.8-18.9q-2.1-7 -29.4-15.75q-11.9-3.5 -8.75,9.1q2.1,7.35 16.1,13.3q-1.4-5.6 -6.3-13.65q-3.85-6.3 -19.25-4.55q-12.6,1.75 5.6,16.45q-4.55-2.45 -12.25-7q-7,5.25 -11.9,13.3q-8.75,14.35 -6.65,16.45q-7,3.15 -18.55,3.85q-3.85,8.05 -4.9,17.85q-3.15,20.3 -6.3,36.75q-2.45,12.6 23.8,30.8q21.7,15.4 38.15,11.55q15.75-3.85 41.65-19.6q5.6-3.5 26.25-26.25q22.4-24.85 -15.4-68.95q-10.15-12.25 -25.2-18.2q-12.6-4.9 7.7,27.65q21.35,33.95 13.3,59.15q-2.8-9.1 -4.55-25.55q-2.1-22.05 -24.85-29.75q-33.6-11.9 -57.05,20.65q-12.25,16.45 3.5,39.9q8.75,12.95 27.65,16.45q14,2.45 31.85-16.45q14-15.05 12.25-39.55q.7-1.4 1.75-2.45" fill="none" stroke="#49126751" stroke-width="41.3"></path><path d="M-107.9,-166.5q-16.1-17.5 -20.3-17.85q-14-1.05 -22.4,4.2q-28.35,17.85 -30.8,20.65q-3.85,4.9 -6.3,26.25q-3.15,30.45 1.05,40.6q10.5,25.2 45.15,22.05q18.9-1.75 35.35-17.15q19.25-17.5 11.2-58.45q-8.4-18.2 -17.15-32.55q6.3,7.35 17.15,21q10.15,15.75 18.2,28.7q-2.8-11.55 -10.15-31.85q1.75-.35 4.55,.35q7,1.4 3.5-4.55q-15.75-24.85 -39.9-33.95q-2.8-1.05 -23.1-1.05q4.9,1.05 14.35,2.1q10.85,1.4 38.5,26.25q12.6,11.2 23.8,39.2q4.55,11.2 -8.75,37.1q-24.5,47.25 -57.05,38.5q-12.6-2.8 -23.1-4.9q-30.45-5.6 -38.85-37.1q-4.2-16.8 2.1-54.25q3.15-18.9 23.45-31.15q16.8-10.5 32.9-4.9" fill="none" stroke="#49126751" stroke-width="40.6"></path><path d="M-82.7,-154.95q-8.4,.35 -12.6,4.55q-4.2,4.2 -1.05,18.55q.7,2.8 11.55,5.6q10.85,3.15 14-7.35q3.5-11.55 -5.25-19.6q-2.45-2.45 -9.45-2.1q-1.05,.35 -1.75,1.05" fill="none" stroke="#8e1092" stroke-width="2.1"></path><path d="M-120.15,-186.8q-4.55-1.75 -7.35-.35q-8.75,3.85 -3.15,20.3q2.45,6.65 11.9,2.45q5.95-2.8 5.25-13.3q-.35-5.6 -8.4-8.75q-2.1,0 -3.5,.35" fill="none" stroke="#8e1092" stroke-width="1.75"></path><path d="M-162.5,-104.9q-4.2,0 -7.7,4.55q-7.35,9.45 .7,23.1q5.25,8.75 14.35,2.45q8.75-5.95 5.6-21.7q-2.8-13.3 -16.8-12.25q-4.55,0 -2.45,3.5" fill="none" stroke="#8e1092" stroke-width="1.75"></path><path d="M-76.75,-138.85q-9.8-1.4 -9.8-1.05q-4.2,1.05 -3.15,4.55q1.75,.35 3.85,0q2.1,.35 3.85,.7q1.75-.35 3.5-1.05q1.05-2.1 1.75-3.85" fill="none" stroke="#000000" stroke-width="2.1"></path><path d="M-76.4,-131.85q.35-.7 .7-1.05" fill="none" stroke="#000000" stroke-width="1.4"></path><path d="M-77.8,-146.2q-.7,1.75 0,1.75q-.35-1.05 -1.4-1.75q-.35-.35 -2.8,.35" fill="none" stroke="#000000" stroke-width="1.75"></path><path d="M-88.65,-146.55q-.7,.7 -1.05,1.4" fill="none" stroke="#000000" stroke-width="1.75"></path><path d="M-119.45,-175.25q-1.05,6.3 -3.5,5.95q-3.85-.7 -4.9-5.25q0-1.05 0-1.75" fill="none" stroke="#000000" stroke-width="1.75"></path><path d="M-161.8,-98.95q.7-.7 1.05-1.4" fill="none" stroke="#f0e569" stroke-width="1.75"></path><path d="M-155.5,-94.75q.385,0 .7,0" fill="none" stroke="#f0e569" stroke-width="1.015"></path><path d="M-165.3,-95.8q-.35,.7 -.35,1.05" fill="none" stroke="#f0e569" stroke-width="1.4"></path><path d="M-165.3,-85.65q0-.21 0-.35" fill="none" stroke="#f0e569" stroke-width=".7"></path><path d="M-156.9,-91.25q.35,0 1.05,0" fill="none" stroke="#f0e569" stroke-width="1.4"></path><path d="M-155.85,-82.5q.35,.7 .7,1.05" fill="none" stroke="#f0e569" stroke-width="1.75"></path><path d="M-160.4,-93q-4.55,5.25 -2.1,7.35q1.75,1.4 3.5-3.5q1.05-3.15 -1.75-3.15q-2.1-.35 -1.75,4.9q0,3.15 2.1,0q1.75-2.1 .35-5.25q-1.75-2.8 -2.1,4.2q-.35,3.5 2.1,2.45q2.1-1.05 1.05-5.6q-.35-4.2 -3.15,.35q-1.75,2.45 1.05,5.6q1.75,2.1 3.15-2.45q1.05-3.85 -3.15-4.9q-3.5-1.05 -2.1,5.6q.7,3.15 2.8-1.4q1.75-3.85 -.35-4.9q-.35,2.1 .35,5.25q0-2.1 .35-5.6q-.7,.35 -1.05,.7q.35,2.45 1.75,4.9q-.7-1.05 -1.4-2.8q0-.35 -1.75,1.05" fill="none" stroke="#51a6e3" stroke-width="2.1"></path><path d="M-117,-177.35q-1.75-2.1 -4.55-2.8q-2.8-.7 -5.95,1.4" fill="none" stroke="#51a6e3" stroke-width="1.75"></path><path d="M-128.2,-168.6q1.4,1.4 3.5,1.05" fill="none" stroke="#51a6e3" stroke-width="1.75"></path><path d="M-117.7,-170.35q-1.4-3.85 -3.5-4.55q-.7,0 -1.4,0" fill="none" stroke="#51a6e3" stroke-width="1.05"></path><path d="M-124.7,-172.1q-2.8-2.1 -2.1-.7q2.1,2.45 1.75,.7q0-.7 1.05,.7q0-.35 -.35-.7q0,.35 0,1.05q-.35-1.05 -1.4-2.8" fill="none" stroke="#dde63b" stroke-width="1.75"></path><path d="M-122.25,-172.1q-2.1,.7 -1.4,.7q3.15,0 1.75-1.4q-.7,.35 -1.05,1.05q0-.35 .35-1.05" fill="none" stroke="#3c7ae6" stroke-width="1.75"></path><path d="M-160.05,-92.3q-2.45,2.1 -.7,1.75q0-1.05 0-2.1q.35,0 .7,.7q.35-.35 .35-1.4" fill="none" stroke="#3f9c2b" stroke-width="1.75"></path><path d="M-162.85,-87.75q.07,.07 0,.07q-.07,0 -.07-.07q0-.07 .07-.07q.07,0 .07,.07" fill="none" stroke="#3f9c2b" stroke-width=".84"></path><path d="M-159.7,-87.05q1.05-1.4 .7-.35q.35,0 .7-.35" fill="none" stroke="#3f9c2b" stroke-width="1.4"></path><path d="M-162.5,-96.15q.7,0 1.4,0" fill="none" stroke="#ffffff" stroke-width="1.4"></path><path d="M-165.3,-92.3q.07,.14 .35,.7" fill="none" stroke="#ffffff" stroke-width=".805"></path><path d="M-156.2,-88.8q.35,.35 .7,.35" fill="none" stroke="#ffffff" stroke-width="1.75"></path><path d="M-160.75,-88.1q-1.4,.7 -2.45,1.4" fill="none" stroke="#ffffff" stroke-width="1.4"></path><path d="M-210.7,-188.9q.4,.1 .7,.2" fill="none" stroke="#ffffff" stroke-width="1"></path></svg>