<svg version="1.1" xmlns="http://www.w3.org/2000/svg" xmlns:xlink="http://www.w3.org/1999/xlink" width="516.95654" height="385.75798" viewBox="0,0,516.95654,385.75798"><g transform="translate(19.13044,-4.02469)"><g data-paper-data="{&quot;isPaintingLayer&quot;:true}" fill-rule="nonzero" stroke-linejoin="miter" stroke-miterlimit="10" stroke-dasharray="" stroke-dashoffset="0" style="mix-blend-mode: normal"><text transform="translate(60.4891,64.53528) scale(0.923,1.24503)" font-size="40" xml:space="preserve" fill="#ff9566" fill-rule="nonzero" stroke="none" stroke-width="1" stroke-linecap="butt" stroke-linejoin="miter" stroke-miterlimit="10" stroke-dasharray="" stroke-dashoffset="0" font-family="Sans Serif" font-weight="normal" text-anchor="start" style="mix-blend-mode: normal"><tspan x="0" dy="0">Graß-Zupf Simulator</tspan></text><text transform="translate(63.3152,65.89398) scale(0.90634,1.20427)" font-size="40" xml:space="preserve" fill="#ffb366" fill-rule="nonzero" stroke="none" stroke-width="1" stroke-linecap="butt" stroke-linejoin="miter" stroke-miterlimit="10" stroke-dasharray="" stroke-dashoffset="0" font-family="Sans Serif" font-weight="normal" text-anchor="start" style="mix-blend-mode: normal"><tspan x="0" dy="0">Graß-Zupf Simulator</tspan></text><path d="M95.2174,361.95656c0,15.1278 -20.14718,27.3913 -45,27.3913c-24.85281,0 -45,-12.26351 -45,-27.3913c0,-15.1278 20.14719,-27.3913 45.00001,-27.3913c24.85282,0 45,12.26351 45,27.3913z" fill="#bfff56" stroke="none" stroke-width="0" stroke-linecap="butt"/><path d="M70.86957,355.86961c0,15.1278 -20.14719,27.3913 -45,27.3913c-24.85281,0 -45,-12.26351 -45,-27.3913c0,-15.1278 20.14719,-27.3913 45.00001,-27.3913c24.85282,0 45,12.26351 45,27.3913z" fill="#bfff56" stroke="none" stroke-width="0" stroke-linecap="butt"/><path d="M151.08695,361.08701c0,15.1278 -20.14719,27.3913 -45,27.3913c-24.85281,0 -45,-12.26351 -45,-27.3913c0,-15.1278 20.14719,-27.39131 45,-27.39131c24.85281,0 45,12.26351 45,27.39131z" fill="#bfff56" stroke="none" stroke-width="0" stroke-linecap="butt"/><path d="M126.73915,355.00001c0,15.1278 -20.14719,27.3913 -45,27.3913c-24.85281,0 -45,-12.26351 -45,-27.3913c0,-15.1278 20.14719,-27.3913 45.00001,-27.3913c24.85281,0 45,12.26351 45,27.3913z" fill="#bfff56" stroke="none" stroke-width="0" stroke-linecap="butt"/><path d="M214.34783,361.08701c0,15.1278 -20.14719,27.3913 -45,27.3913c-24.85281,0 -45,-12.26351 -45,-27.3913c0,-15.1278 20.14719,-27.39131 45,-27.39131c24.85281,0 45,12.26351 45,27.39131z" fill="#bfff56" stroke="none" stroke-width="0" stroke-linecap="butt"/><path d="M190.00003,355.00001c0,15.1278 -20.14719,27.3913 -45,27.3913c-24.85281,0 -45,-12.26351 -45,-27.3913c0,-15.1278 20.14719,-27.3913 45.00001,-27.3913c24.85281,0 45,12.26351 45,27.3913z" fill="#bfff56" stroke="none" stroke-width="0" stroke-linecap="butt"/><path d="M270.21741,360.21741c0,15.1278 -20.14719,27.3913 -45,27.3913c-24.85281,0 -45,-12.26351 -45,-27.3913c0,-15.1278 20.14719,-27.3913 45,-27.3913c24.85281,0 45,12.26351 45,27.3913z" fill="#bfff56" stroke="none" stroke-width="0" stroke-linecap="butt"/><path d="M245.86959,354.13047c0,15.1278 -20.14719,27.3913 -45,27.3913c-24.85281,0 -45,-12.26351 -45,-27.3913c0,-15.1278 20.14719,-27.39131 45,-27.39131c24.85281,0 45,12.26351 45,27.39131z" fill="#bfff56" stroke="none" stroke-width="0" stroke-linecap="butt"/><path d="M320.00001,362.39135c0,15.1278 -20.14718,27.39131 -45,27.39131c-24.85281,0 -45,-12.26351 -45,-27.39131c0,-15.1278 20.14719,-27.3913 45,-27.3913c24.85282,0 45,12.26351 45,27.3913z" fill="#bfff56" stroke="none" stroke-width="0" stroke-linecap="butt"/><path d="M295.65218,356.30436c0,15.1278 -20.14718,27.3913 -45,27.3913c-24.85281,0 -45,-12.26351 -45,-27.3913c0,-15.1278 20.14719,-27.3913 45,-27.3913c24.85282,0 45,12.26351 45,27.3913z" fill="#bfff56" stroke="none" stroke-width="0" stroke-linecap="butt"/><path d="M375.8696,361.52176c0,15.1278 -20.14718,27.3913 -45,27.3913c-24.85282,0 -45,-12.26351 -45,-27.3913c0,-15.1278 20.14718,-27.3913 45,-27.3913c24.85282,0 45,12.26351 45,27.3913z" fill="#bfff56" stroke="none" stroke-width="0" stroke-linecap="butt"/><path d="M351.52176,355.43482c0,15.1278 -20.14718,27.39131 -45,27.39131c-24.85282,0 -45.00001,-12.26351 -45.00001,-27.39131c0,-15.1278 20.14719,-27.3913 45.00001,-27.3913c24.85282,0 45,12.26351 45,27.3913z" fill="#bfff56" stroke="none" stroke-width="0" stroke-linecap="butt"/><path d="M439.13047,361.52176c0,15.1278 -20.14718,27.3913 -45,27.3913c-24.85282,0 -45,-12.26351 -45,-27.3913c0,-15.1278 20.14718,-27.3913 45,-27.3913c24.85282,0 45,12.26351 45,27.3913z" fill="#bfff56" stroke="none" stroke-width="0" stroke-linecap="butt"/><path d="M414.78265,355.43482c0,15.1278 -20.14718,27.39131 -45,27.39131c-24.85282,0 -45.00001,-12.26351 -45.00001,-27.39131c0,-15.1278 20.14719,-27.3913 45.00001,-27.3913c24.85282,0 45,12.26351 45,27.3913z" fill="#bfff56" stroke="none" stroke-width="0" stroke-linecap="butt"/><path d="M495.00003,360.65221c0,15.1278 -20.14718,27.3913 -45,27.3913c-24.85282,0 -45,-12.26351 -45,-27.3913c0,-15.1278 20.14718,-27.3913 45,-27.3913c24.85282,0 45,12.26351 45,27.3913z" fill="#bfff56" stroke="none" stroke-width="0" stroke-linecap="butt"/><path d="M470.65221,354.56526c0,15.1278 -20.14718,27.3913 -45,27.3913c-24.85282,0 -45,-12.26351 -45,-27.3913c0,-15.1278 20.14719,-27.3913 45,-27.3913c24.85282,0 45,12.26351 45,27.3913z" fill="#bfff56" stroke="none" stroke-width="0" stroke-linecap="butt"/><text transform="translate(64.83694,64.31788) scale(0.89468,1.02764)" font-size="40" xml:space="preserve" fill="#ffd266" fill-rule="nonzero" stroke="none" stroke-width="1" stroke-linecap="butt" stroke-linejoin="miter" stroke-miterlimit="10" stroke-dasharray="" stroke-dashoffset="0" font-family="Sans Serif" font-weight="normal" text-anchor="start" style="mix-blend-mode: normal"><tspan x="0" dy="0">Graß-Zupf Simulator</tspan></text><text transform="translate(67.88793,64.99781) scale(0.87767,0.9618)" font-size="40" xml:space="preserve" fill="#ffe966" fill-rule="nonzero" stroke="none" stroke-width="1" stroke-linecap="butt" stroke-linejoin="miter" stroke-miterlimit="10" stroke-dasharray="" stroke-dashoffset="0" font-family="Sans Serif" font-weight="normal" text-anchor="start" style="mix-blend-mode: normal"><tspan x="0" dy="0">Graß-Zupf Simulator</tspan></text><text transform="translate(71.32722,66.3198) scale(0.85982,0.85982)" font-size="40" xml:space="preserve" fill="#fffe66" fill-rule="nonzero" stroke="none" stroke-width="1" stroke-linecap="butt" stroke-linejoin="miter" stroke-miterlimit="10" stroke-dasharray="" stroke-dashoffset="0" font-family="Sans Serif" font-weight="normal" text-anchor="start" style="mix-blend-mode: normal"><tspan x="0" dy="0">Graß-Zupf Simulator</tspan></text><text transform="translate(58.31518,63.50268) scale(0.93966,1.36731)" font-size="40" xml:space="preserve" fill="#ff7e66" fill-rule="nonzero" stroke="none" stroke-width="1" stroke-linecap="butt" stroke-linejoin="miter" stroke-miterlimit="10" stroke-dasharray="" stroke-dashoffset="0" font-family="Sans Serif" font-weight="normal" text-anchor="start" style="mix-blend-mode: normal"><tspan x="0" dy="0">Graß-Zupf Simulator</tspan></text><path d="M95.2174,331.30437c0,15.1278 -20.14719,27.39131 -45,27.39131c-24.85281,0 -45,-12.26351 -45,-27.39131c0,-15.1278 20.14719,-27.39131 45,-27.39131c24.85281,0 45,12.26351 45,27.39131z" fill="#49d859" stroke="none" stroke-width="0" stroke-linecap="butt"/><path d="M70.86956,325.21741c0,15.1278 -20.14719,27.3913 -45,27.3913c-24.85281,0 -45,-12.26351 -45,-27.3913c0,-15.1278 20.14719,-27.39131 45.00001,-27.39131c24.85281,0 45,12.26351 45,27.39131z" fill="#49d859" stroke="none" stroke-width="0" stroke-linecap="butt"/><path d="M151.08695,330.43481c0,15.1278 -20.14718,27.3913 -45,27.3913c-24.85282,0 -45,-12.26351 -45,-27.3913c0,-15.1278 20.14719,-27.3913 45,-27.3913c24.85281,0 45,12.26351 45,27.3913z" fill="#49d859" stroke="none" stroke-width="0" stroke-linecap="butt"/><path d="M126.73914,324.34785c0,15.1278 -20.14719,27.3913 -45,27.3913c-24.85282,0 -45.00001,-12.26351 -45.00001,-27.3913c0,-15.1278 20.14719,-27.3913 45.00001,-27.3913c24.85281,0 45,12.26351 45,27.3913z" fill="#49d859" stroke="none" stroke-width="0" stroke-linecap="butt"/><path d="M214.34784,330.43481c0,15.1278 -20.14718,27.3913 -45,27.3913c-24.85281,0 -45,-12.26351 -45,-27.3913c0,-15.1278 20.14718,-27.3913 45,-27.3913c24.85282,0 45,12.26351 45,27.3913z" fill="#49d859" stroke="none" stroke-width="0" stroke-linecap="butt"/><path d="M190.00002,324.34785c0,15.1278 -20.14718,27.3913 -45,27.3913c-24.85281,0 -45,-12.26351 -45,-27.3913c0,-15.1278 20.14719,-27.3913 45,-27.3913c24.85282,0 45,12.26351 45,27.3913z" fill="#49d859" stroke="none" stroke-width="0" stroke-linecap="butt"/><path d="M270.21741,329.56525c0,15.1278 -20.14719,27.3913 -45,27.3913c-24.85282,0 -45,-12.26351 -45,-27.3913c0,-15.1278 20.14718,-27.39131 45,-27.39131c24.85282,0 45,12.26351 45,27.39131z" fill="#49d859" stroke="none" stroke-width="0" stroke-linecap="butt"/><path d="M245.86957,323.47828c0,15.1278 -20.14718,27.3913 -45,27.3913c-24.85281,0 -45.00001,-12.26351 -45.00001,-27.3913c0,-15.1278 20.14719,-27.3913 45.00001,-27.3913c24.85281,0 45,12.26351 45,27.3913z" fill="#49d859" stroke="none" stroke-width="0" stroke-linecap="butt"/><path d="M320.00002,331.73916c0,15.1278 -20.14719,27.3913 -45,27.3913c-24.85282,0 -45,-12.26351 -45,-27.3913c0,-15.1278 20.14718,-27.3913 45,-27.3913c24.85281,0 45,12.26351 45,27.3913z" fill="#49d859" stroke="none" stroke-width="0" stroke-linecap="butt"/><path d="M295.65218,325.6522c0,15.1278 -20.14719,27.3913 -45,27.3913c-24.85282,0 -45,-12.26351 -45,-27.3913c0,-15.1278 20.14719,-27.3913 45,-27.3913c24.85281,0 45,12.26351 45,27.3913z" fill="#49d859" stroke="none" stroke-width="0" stroke-linecap="butt"/><path d="M375.86959,330.8696c0,15.1278 -20.14719,27.3913 -45,27.3913c-24.85282,0 -45,-12.26351 -45,-27.3913c0,-15.1278 20.14718,-27.39131 45,-27.39131c24.85281,0 45,12.26351 45,27.39131z" fill="#49d859" stroke="none" stroke-width="0" stroke-linecap="butt"/><path d="M351.52176,324.78263c0,15.1278 -20.14718,27.3913 -45,27.3913c-24.85281,0 -45,-12.26351 -45,-27.3913c0,-15.1278 20.14719,-27.3913 45,-27.3913c24.85282,0 45,12.26351 45,27.3913z" fill="#49d859" stroke="none" stroke-width="0" stroke-linecap="butt"/><path d="M439.13046,330.8696c0,15.1278 -20.14719,27.3913 -45,27.3913c-24.85282,0 -45,-12.26351 -45,-27.3913c0,-15.1278 20.14719,-27.39131 45,-27.39131c24.85281,0 45,12.26351 45,27.39131z" fill="#49d859" stroke="none" stroke-width="0" stroke-linecap="butt"/><path d="M414.78264,324.78263c0,15.1278 -20.14718,27.3913 -45,27.3913c-24.85281,0 -45,-12.26351 -45,-27.3913c0,-15.1278 20.14719,-27.3913 45,-27.3913c24.85282,0 45,12.26351 45,27.3913z" fill="#49d859" stroke="none" stroke-width="0" stroke-linecap="butt"/><path d="M495.00002,330.00002c0,15.1278 -20.14718,27.3913 -45,27.3913c-24.85281,0 -45,-12.26351 -45,-27.3913c0,-15.1278 20.14719,-27.3913 45,-27.3913c24.85282,0 45,12.26351 45,27.3913z" fill="#49d859" stroke="none" stroke-width="0" stroke-linecap="butt"/><path d="M470.6522,323.91306c0,15.1278 -20.14719,27.3913 -45,27.3913c-24.85282,0 -45.00001,-12.26351 -45.00001,-27.3913c0,-15.1278 20.14719,-27.39131 45.00001,-27.39131c24.85281,0 45,12.26351 45,27.39131z" fill="#49d859" stroke="none" stroke-width="0" stroke-linecap="butt"/><path d="M95.21741,361.95657c0,15.1278 -20.14718,27.3913 -45,27.3913c-24.85281,0 -45,-12.26351 -45,-27.3913c0,-15.1278 20.14719,-27.3913 45.00001,-27.3913c24.85282,0 45,12.26351 45,27.3913z" fill="#bfff56" stroke="none" stroke-width="0" stroke-linecap="butt"/><path d="M70.86958,355.86961c0,15.1278 -20.14719,27.3913 -45,27.3913c-24.85281,0 -45,-12.26351 -45,-27.3913c0,-15.1278 20.14719,-27.3913 45.00001,-27.3913c24.85282,0 45,12.26351 45,27.3913z" fill="#bfff56" stroke="none" stroke-width="0" stroke-linecap="butt"/><path d="M151.08695,361.08701c0,15.1278 -20.14719,27.3913 -45,27.3913c-24.85281,0 -45,-12.26351 -45,-27.3913c0,-15.1278 20.14719,-27.39131 45,-27.39131c24.85281,0 45,12.26351 45,27.39131z" fill="#bfff56" stroke="none" stroke-width="0" stroke-linecap="butt"/><path d="M126.73915,355.00002c0,15.1278 -20.14719,27.3913 -45,27.3913c-24.85281,0 -45,-12.26351 -45,-27.3913c0,-15.1278 20.14719,-27.3913 45.00001,-27.3913c24.85281,0 45,12.26351 45,27.3913z" fill="#bfff56" stroke="none" stroke-width="0" stroke-linecap="butt"/><path d="M214.34783,361.08701c0,15.1278 -20.14719,27.3913 -45,27.3913c-24.85281,0 -45,-12.26351 -45,-27.3913c0,-15.1278 20.14719,-27.39131 45,-27.39131c24.85281,0 45,12.26351 45,27.39131z" fill="#bfff56" stroke="none" stroke-width="0" stroke-linecap="butt"/><path d="M190.00004,355.00002c0,15.1278 -20.14719,27.3913 -45,27.3913c-24.85281,0 -45,-12.26351 -45,-27.3913c0,-15.1278 20.14719,-27.3913 45.00001,-27.3913c24.85281,0 45,12.26351 45,27.3913z" fill="#bfff56" stroke="none" stroke-width="0" stroke-linecap="butt"/><path d="M270.21741,360.21742c0,15.1278 -20.14719,27.3913 -45,27.3913c-24.85281,0 -45,-12.26351 -45,-27.3913c0,-15.1278 20.14719,-27.3913 45,-27.3913c24.85281,0 45,12.26351 45,27.3913z" fill="#bfff56" stroke="none" stroke-width="0" stroke-linecap="butt"/><path d="M245.8696,354.13048c0,15.1278 -20.14719,27.3913 -45,27.3913c-24.85281,0 -45,-12.26351 -45,-27.3913c0,-15.1278 20.14719,-27.39131 45,-27.39131c24.85281,0 45,12.26351 45,27.39131z" fill="#bfff56" stroke="none" stroke-width="0" stroke-linecap="butt"/><path d="M320.00001,362.39136c0,15.1278 -20.14718,27.39131 -45,27.39131c-24.85281,0 -45,-12.26351 -45,-27.39131c0,-15.1278 20.14719,-27.3913 45,-27.3913c24.85282,0 45,12.26351 45,27.3913z" fill="#bfff56" stroke="none" stroke-width="0" stroke-linecap="butt"/><path d="M295.65218,356.30437c0,15.1278 -20.14718,27.3913 -45,27.3913c-24.85281,0 -45,-12.26351 -45,-27.3913c0,-15.1278 20.14719,-27.3913 45,-27.3913c24.85282,0 45,12.26351 45,27.3913z" fill="#bfff56" stroke="none" stroke-width="0" stroke-linecap="butt"/><path d="M375.86961,361.52177c0,15.1278 -20.14718,27.3913 -45,27.3913c-24.85282,0 -45,-12.26351 -45,-27.3913c0,-15.1278 20.14718,-27.3913 45,-27.3913c24.85282,0 45,12.26351 45,27.3913z" fill="#bfff56" stroke="none" stroke-width="0" stroke-linecap="butt"/><path d="M351.52176,355.43483c0,15.1278 -20.14718,27.39131 -45,27.39131c-24.85282,0 -45.00001,-12.26351 -45.00001,-27.39131c0,-15.1278 20.14719,-27.3913 45.00001,-27.3913c24.85282,0 45,12.26351 45,27.3913z" fill="#bfff56" stroke="none" stroke-width="0" stroke-linecap="butt"/><path d="M439.13048,361.52177c0,15.1278 -20.14718,27.3913 -45,27.3913c-24.85282,0 -45,-12.26351 -45,-27.3913c0,-15.1278 20.14718,-27.3913 45,-27.3913c24.85282,0 45,12.26351 45,27.3913z" fill="#bfff56" stroke="none" stroke-width="0" stroke-linecap="butt"/><path d="M414.78266,355.43483c0,15.1278 -20.14718,27.39131 -45,27.39131c-24.85282,0 -45.00001,-12.26351 -45.00001,-27.39131c0,-15.1278 20.14719,-27.3913 45.00001,-27.3913c24.85282,0 45,12.26351 45,27.3913z" fill="#bfff56" stroke="none" stroke-width="0" stroke-linecap="butt"/><path d="M495.00004,360.65222c0,15.1278 -20.14718,27.3913 -45,27.3913c-24.85282,0 -45,-12.26351 -45,-27.3913c0,-15.1278 20.14718,-27.3913 45,-27.3913c24.85282,0 45,12.26351 45,27.3913z" fill="#bfff56" stroke="none" stroke-width="0" stroke-linecap="butt"/><path d="M470.65222,354.56526c0,15.1278 -20.14718,27.3913 -45,27.3913c-24.85282,0 -45,-12.26351 -45,-27.3913c0,-15.1278 20.14719,-27.3913 45,-27.3913c24.85282,0 45,12.26351 45,27.3913z" fill="#bfff56" stroke="none" stroke-width="0" stroke-linecap="butt"/><path d="M95.2174,338.47828c0,15.1278 -20.14719,27.39131 -45,27.39131c-24.85281,0 -45,-12.26351 -45,-27.39131c0,-15.1278 20.14719,-27.39131 45,-27.39131c24.85281,0 45,12.26351 45,27.39131z" fill="#53f35b" stroke="none" stroke-width="0" stroke-linecap="butt"/><path d="M70.86956,332.39132c0,15.1278 -20.14719,27.3913 -45,27.3913c-24.85281,0 -45,-12.26351 -45,-27.3913c0,-15.1278 20.14719,-27.39131 45.00001,-27.39131c24.85281,0 45,12.26351 45,27.39131z" fill="#4ee656" stroke="none" stroke-width="0" stroke-linecap="butt"/><path d="M151.08695,337.60871c0,15.1278 -20.14718,27.3913 -45,27.3913c-24.85282,0 -45,-12.26351 -45,-27.3913c0,-15.1278 20.14719,-27.3913 45,-27.3913c24.85281,0 45,12.26351 45,27.3913z" fill="#53f35b" stroke="none" stroke-width="0" stroke-linecap="butt"/><path d="M126.73914,331.52173c0,15.1278 -20.14719,27.3913 -45,27.3913c-24.85282,0 -45.00001,-12.26351 -45.00001,-27.3913c0,-15.1278 20.14719,-27.3913 45.00001,-27.3913c24.85281,0 45,12.26351 45,27.3913z" fill="#4ee656" stroke="none" stroke-width="0" stroke-linecap="butt"/><path d="M214.34783,337.60871c0,15.1278 -20.14718,27.3913 -45,27.3913c-24.85281,0 -45,-12.26351 -45,-27.3913c0,-15.1278 20.14718,-27.3913 45,-27.3913c24.85282,0 45,12.26351 45,27.3913z" fill="#53f35b" stroke="none" stroke-width="0" stroke-linecap="butt"/><path d="M190.00001,331.52173c0,15.1278 -20.14718,27.3913 -45,27.3913c-24.85281,0 -45,-12.26351 -45,-27.3913c0,-15.1278 20.14719,-27.3913 45,-27.3913c24.85282,0 45,12.26351 45,27.3913z" fill="#4ee656" stroke="none" stroke-width="0" stroke-linecap="butt"/><path d="M270.2174,336.73916c0,15.1278 -20.14719,27.3913 -45,27.3913c-24.85282,0 -45,-12.26351 -45,-27.3913c0,-15.1278 20.14718,-27.39131 45,-27.39131c24.85282,0 45,12.26351 45,27.39131z" fill="#4ee656" stroke="none" stroke-width="0" stroke-linecap="butt"/><path d="M245.86957,330.65218c0,15.1278 -20.14718,27.3913 -45,27.3913c-24.85281,0 -45.00001,-12.26351 -45.00001,-27.3913c0,-15.1278 20.14719,-27.3913 45.00001,-27.3913c24.85281,0 45,12.26351 45,27.3913z" fill="#4ee656" stroke="none" stroke-width="0" stroke-linecap="butt"/><path d="M320.00001,338.91306c0,15.1278 -20.14719,27.3913 -45,27.3913c-24.85282,0 -45,-12.26351 -45,-27.3913c0,-15.1278 20.14718,-27.3913 45,-27.3913c24.85281,0 45,12.26351 45,27.3913z" fill="#53f35b" stroke="none" stroke-width="0" stroke-linecap="butt"/><path d="M295.65218,332.82608c0,15.1278 -20.14719,27.3913 -45,27.3913c-24.85282,0 -45,-12.26351 -45,-27.3913c0,-15.1278 20.14719,-27.3913 45,-27.3913c24.85281,0 45,12.26351 45,27.3913z" fill="#4ee656" stroke="none" stroke-width="0" stroke-linecap="butt"/><path d="M375.86958,338.04351c0,15.1278 -20.14719,27.3913 -45,27.3913c-24.85282,0 -45,-12.26351 -45,-27.3913c0,-15.1278 20.14718,-27.39131 45,-27.39131c24.85281,0 45,12.26351 45,27.39131z" fill="#53f35b" stroke="none" stroke-width="0" stroke-linecap="butt"/><path d="M351.52175,331.95653c0,15.1278 -20.14718,27.3913 -45,27.3913c-24.85281,0 -45,-12.26351 -45,-27.3913c0,-15.1278 20.14719,-27.3913 45,-27.3913c24.85282,0 45,12.26351 45,27.3913z" fill="#4ee656" stroke="none" stroke-width="0" stroke-linecap="butt"/><path d="M439.13045,338.04351c0,15.1278 -20.14719,27.3913 -45,27.3913c-24.85282,0 -45,-12.26351 -45,-27.3913c0,-15.1278 20.14719,-27.39131 45,-27.39131c24.85281,0 45,12.26351 45,27.39131z" fill="#53f35b" stroke="none" stroke-width="0" stroke-linecap="butt"/><path d="M414.78263,331.95653c0,15.1278 -20.14718,27.3913 -45,27.3913c-24.85281,0 -45,-12.26351 -45,-27.3913c0,-15.1278 20.14719,-27.3913 45,-27.3913c24.85282,0 45,12.26351 45,27.3913z" fill="#4ee656" stroke="none" stroke-width="0" stroke-linecap="butt"/><path d="M495.00002,337.17393c0,15.1278 -20.14718,27.3913 -45,27.3913c-24.85281,0 -45,-12.26351 -45,-27.3913c0,-15.1278 20.14719,-27.3913 45,-27.3913c24.85282,0 45,12.26351 45,27.3913z" fill="#4ee656" stroke="none" stroke-width="0" stroke-linecap="butt"/><path d="M470.65219,331.08697c0,15.1278 -20.14719,27.3913 -45,27.3913c-24.85282,0 -45.00001,-12.26351 -45.00001,-27.3913c0,-15.1278 20.14719,-27.39131 45.00001,-27.39131c24.85281,0 45,12.26351 45,27.39131z" fill="#4ee656" stroke="none" stroke-width="0" stroke-linecap="butt"/><path d="M95.21739,361.95656c0,15.1278 -20.14718,27.3913 -45,27.3913c-24.85281,0 -45,-12.26351 -45,-27.3913c0,-15.1278 20.14719,-27.3913 45.00001,-27.3913c24.85282,0 45,12.26351 45,27.3913z" fill="#bfff56" stroke="none" stroke-width="0" stroke-linecap="butt"/><path d="M70.86956,355.86961c0,15.1278 -20.14719,27.3913 -45,27.3913c-24.85281,0 -45,-12.26351 -45,-27.3913c0,-15.1278 20.14719,-27.3913 45.00001,-27.3913c24.85282,0 45,12.26351 45,27.3913z" fill="#bfff56" stroke="none" stroke-width="0" stroke-linecap="butt"/><path d="M151.08694,361.08701c0,15.1278 -20.14719,27.3913 -45,27.3913c-24.85281,0 -45,-12.26351 -45,-27.3913c0,-15.1278 20.14719,-27.39131 45,-27.39131c24.85281,0 45,12.26351 45,27.39131z" fill="#bfff56" stroke="none" stroke-width="0" stroke-linecap="butt"/><path d="M126.73914,355.00002c0,15.1278 -20.14719,27.3913 -45,27.3913c-24.85281,0 -45,-12.26351 -45,-27.3913c0,-15.1278 20.14719,-27.3913 45.00001,-27.3913c24.85281,0 45,12.26351 45,27.3913z" fill="#bfff56" stroke="none" stroke-width="0" stroke-linecap="butt"/><path d="M214.34783,361.08701c0,15.1278 -20.14719,27.3913 -45,27.3913c-24.85281,0 -45,-12.26351 -45,-27.3913c0,-15.1278 20.14719,-27.39131 45,-27.39131c24.85281,0 45,12.26351 45,27.39131z" fill="#bfff56" stroke="none" stroke-width="0" stroke-linecap="butt"/><path d="M190.00003,355.00002c0,15.1278 -20.14719,27.3913 -45,27.3913c-24.85281,0 -45,-12.26351 -45,-27.3913c0,-15.1278 20.14719,-27.3913 45.00001,-27.3913c24.85281,0 45,12.26351 45,27.3913z" fill="#bfff56" stroke="none" stroke-width="0" stroke-linecap="butt"/><path d="M270.21741,360.21742c0,15.1278 -20.14719,27.3913 -45,27.3913c-24.85281,0 -45,-12.26351 -45,-27.3913c0,-15.1278 20.14719,-27.3913 45,-27.3913c24.85281,0 45,12.26351 45,27.3913z" fill="#bfff56" stroke="none" stroke-width="0" stroke-linecap="butt"/><path d="M245.86958,354.13047c0,15.1278 -20.14719,27.3913 -45,27.3913c-24.85281,0 -45,-12.26351 -45,-27.3913c0,-15.1278 20.14719,-27.39131 45,-27.39131c24.85281,0 45,12.26351 45,27.39131z" fill="#bfff56" stroke="none" stroke-width="0" stroke-linecap="butt"/><path d="M320.00001,362.39135c0,15.1278 -20.14718,27.39131 -45,27.39131c-24.85281,0 -45,-12.26351 -45,-27.39131c0,-15.1278 20.14719,-27.3913 45,-27.3913c24.85282,0 45,12.26351 45,27.3913z" fill="#bfff56" stroke="none" stroke-width="0" stroke-linecap="butt"/><path d="M295.65218,356.30437c0,15.1278 -20.14718,27.3913 -45,27.3913c-24.85281,0 -45,-12.26351 -45,-27.3913c0,-15.1278 20.14719,-27.3913 45,-27.3913c24.85282,0 45,12.26351 45,27.3913z" fill="#bfff56" stroke="none" stroke-width="0" stroke-linecap="butt"/><path d="M375.8696,361.52177c0,15.1278 -20.14718,27.3913 -45,27.3913c-24.85282,0 -45,-12.26351 -45,-27.3913c0,-15.1278 20.14718,-27.3913 45,-27.3913c24.85282,0 45,12.26351 45,27.3913z" fill="#bfff56" stroke="none" stroke-width="0" stroke-linecap="butt"/><path d="M351.52176,355.43482c0,15.1278 -20.14718,27.39131 -45,27.39131c-24.85282,0 -45.00001,-12.26351 -45.00001,-27.39131c0,-15.1278 20.14719,-27.3913 45.00001,-27.3913c24.85282,0 45,12.26351 45,27.3913z" fill="#bfff56" stroke="none" stroke-width="0" stroke-linecap="butt"/><path d="M439.13047,361.52177c0,15.1278 -20.14718,27.3913 -45,27.3913c-24.85282,0 -45,-12.26351 -45,-27.3913c0,-15.1278 20.14718,-27.3913 45,-27.3913c24.85282,0 45,12.26351 45,27.3913z" fill="#bfff56" stroke="none" stroke-width="0" stroke-linecap="butt"/><path d="M414.78265,355.43482c0,15.1278 -20.14718,27.39131 -45,27.39131c-24.85282,0 -45.00001,-12.26351 -45.00001,-27.39131c0,-15.1278 20.14719,-27.3913 45.00001,-27.3913c24.85282,0 45,12.26351 45,27.3913z" fill="#bfff56" stroke="none" stroke-width="0" stroke-linecap="butt"/><path d="M495.00003,360.65221c0,15.1278 -20.14718,27.3913 -45,27.3913c-24.85282,0 -45,-12.26351 -45,-27.3913c0,-15.1278 20.14718,-27.3913 45,-27.3913c24.85282,0 45,12.26351 45,27.3913z" fill="#bfff56" stroke="none" stroke-width="0" stroke-linecap="butt"/><path d="M470.6522,354.56526c0,15.1278 -20.14718,27.3913 -45,27.3913c-24.85282,0 -45,-12.26351 -45,-27.3913c0,-15.1278 20.14719,-27.3913 45,-27.3913c24.85282,0 45,12.26351 45,27.3913z" fill="#bfff56" stroke="none" stroke-width="0" stroke-linecap="butt"/><path d="M73.04347,340.43483c0,15.1278 -20.14719,27.3913 -45,27.3913c-24.85281,0 -45,-12.26351 -45,-27.3913c0,-15.1278 20.14719,-27.3913 45.00001,-27.3913c24.85282,0 45,12.26351 45,27.3913z" fill="#6af754" stroke="none" stroke-width="0" stroke-linecap="butt"/><path d="M128.91306,338.91308c0,15.1278 -20.14719,27.3913 -45,27.3913c-24.85281,0 -45,-12.26351 -45,-27.3913c0,-15.1278 20.14719,-27.3913 45.00001,-27.3913c24.85281,0 45,12.26351 45,27.3913z" fill="#6af754" stroke="none" stroke-width="0" stroke-linecap="butt"/><path d="M192.17393,338.91308c0,15.1278 -20.14719,27.3913 -45,27.3913c-24.85281,0 -45,-12.26351 -45,-27.3913c0,-15.1278 20.14719,-27.3913 45.00001,-27.3913c24.85281,0 45,12.26351 45,27.3913z" fill="#6af754" stroke="none" stroke-width="0" stroke-linecap="butt"/><path d="M248.0435,338.04352c0,15.1278 -20.14719,27.3913 -45,27.3913c-24.85281,0 -45,-12.26351 -45,-27.3913c0,-15.1278 20.14719,-27.39131 45,-27.39131c24.85281,0 45,12.26351 45,27.39131z" fill="#6af754" stroke="none" stroke-width="0" stroke-linecap="butt"/><path d="M297.82609,340.21743c0,15.1278 -20.14718,27.3913 -45,27.3913c-24.85281,0 -45,-12.26351 -45,-27.3913c0,-15.1278 20.14719,-27.3913 45,-27.3913c24.85282,0 45,12.26351 45,27.3913z" fill="#6af754" stroke="none" stroke-width="0" stroke-linecap="butt"/><path d="M353.69567,339.34787c0,15.1278 -20.14718,27.39131 -45,27.39131c-24.85282,0 -45.00001,-12.26351 -45.00001,-27.39131c0,-15.1278 20.14719,-27.3913 45.00001,-27.3913c24.85282,0 45,12.26351 45,27.3913z" fill="#6af754" stroke="none" stroke-width="0" stroke-linecap="butt"/><path d="M416.95655,339.34787c0,15.1278 -20.14718,27.39131 -45,27.39131c-24.85282,0 -45.00001,-12.26351 -45.00001,-27.39131c0,-15.1278 20.14719,-27.3913 45.00001,-27.3913c24.85282,0 45,12.26351 45,27.3913z" fill="#6af754" stroke="none" stroke-width="0" stroke-linecap="butt"/><path d="M497.8261,343.26092c0,15.1278 -20.14718,27.3913 -45,27.3913c-24.85282,0 -45,-12.26351 -45,-27.3913c0,-15.1278 20.14718,-27.3913 45,-27.3913c24.85282,0 45,12.26351 45,27.3913z" fill="#6af754" stroke="none" stroke-width="0" stroke-linecap="butt"/><path d="M472.82611,337.82613c0,15.1278 -20.14718,27.3913 -45,27.3913c-24.85282,0 -45,-12.26351 -45,-27.3913c0,-15.1278 20.14719,-27.3913 45,-27.3913c24.85282,0 45,12.26351 45,27.3913z" fill="#6af754" stroke="none" stroke-width="0" stroke-linecap="butt"/><path d="M96.30435,355.86961c0,15.1278 -20.14718,27.3913 -45,27.3913c-24.85281,0 -45,-12.26351 -45,-27.3913c0,-15.1278 20.14719,-27.3913 45.00001,-27.3913c24.85282,0 45,12.26351 45,27.3913z" fill="#8eff57" stroke="none" stroke-width="0" stroke-linecap="butt"/><path d="M71.95652,349.78266c0,15.1278 -20.14719,27.3913 -45,27.3913c-24.85281,0 -45,-12.26351 -45,-27.3913c0,-15.1278 20.14719,-27.3913 45.00001,-27.3913c24.85282,0 45,12.26351 45,27.3913z" fill="#8eff57" stroke="none" stroke-width="0" stroke-linecap="butt"/><path d="M152.17389,355.00006c0,15.1278 -20.14719,27.3913 -45,27.3913c-24.85281,0 -45,-12.26351 -45,-27.3913c0,-15.1278 20.14719,-27.39131 45,-27.39131c24.85281,0 45,12.26351 45,27.39131z" fill="#8eff57" stroke="none" stroke-width="0" stroke-linecap="butt"/><path d="M127.82611,348.26091c0,15.1278 -20.14719,27.3913 -45,27.3913c-24.85281,0 -45,-12.26351 -45,-27.3913c0,-15.1278 20.14719,-27.3913 45.00001,-27.3913c24.85281,0 45,12.26351 45,27.3913z" fill="#8eff57" stroke="none" stroke-width="0" stroke-linecap="butt"/><path d="M215.43479,355.00006c0,15.1278 -20.14719,27.3913 -45,27.3913c-24.85281,0 -45,-12.26351 -45,-27.3913c0,-15.1278 20.14719,-27.39131 45,-27.39131c24.85281,0 45,12.26351 45,27.39131z" fill="#8eff57" stroke="none" stroke-width="0" stroke-linecap="butt"/><path d="M191.08698,348.26091c0,15.1278 -20.14719,27.3913 -45,27.3913c-24.85281,0 -45,-12.26351 -45,-27.3913c0,-15.1278 20.14719,-27.3913 45.00001,-27.3913c24.85281,0 45,12.26351 45,27.3913z" fill="#8eff57" stroke="none" stroke-width="0" stroke-linecap="butt"/><path d="M271.30437,354.13048c0,15.1278 -20.14719,27.3913 -45,27.3913c-24.85281,0 -45,-12.26351 -45,-27.3913c0,-15.1278 20.14719,-27.3913 45,-27.3913c24.85281,0 45,12.26351 45,27.3913z" fill="#8eff57" stroke="none" stroke-width="0" stroke-linecap="butt"/><path d="M246.95655,347.39136c0,15.1278 -20.14719,27.3913 -45,27.3913c-24.85281,0 -45,-12.26351 -45,-27.3913c0,-15.1278 20.14719,-27.39131 45,-27.39131c24.85281,0 45,12.26351 45,27.39131z" fill="#8eff57" stroke="none" stroke-width="0" stroke-linecap="butt"/><path d="M321.08697,356.3044c0,15.1278 -20.14718,27.39131 -45,27.39131c-24.85281,0 -45,-12.26351 -45,-27.39131c0,-15.1278 20.14719,-27.3913 45,-27.3913c24.85282,0 45,12.26351 45,27.3913z" fill="#8eff57" stroke="none" stroke-width="0" stroke-linecap="butt"/><path d="M296.73913,349.56526c0,15.1278 -20.14718,27.3913 -45,27.3913c-24.85281,0 -45,-12.26351 -45,-27.3913c0,-15.1278 20.14719,-27.3913 45,-27.3913c24.85282,0 45,12.26351 45,27.3913z" fill="#8eff57" stroke="none" stroke-width="0" stroke-linecap="butt"/><path d="M376.95655,355.43483c0,15.1278 -20.14718,27.3913 -45,27.3913c-24.85282,0 -45,-12.26351 -45,-27.3913c0,-15.1278 20.14718,-27.3913 45,-27.3913c24.85282,0 45,12.26351 45,27.3913z" fill="#8eff57" stroke="none" stroke-width="0" stroke-linecap="butt"/><path d="M352.60872,348.69571c0,15.1278 -20.14718,27.39131 -45,27.39131c-24.85282,0 -45.00001,-12.26351 -45.00001,-27.39131c0,-15.1278 20.14719,-27.3913 45.00001,-27.3913c24.85282,0 45,12.26351 45,27.3913z" fill="#8eff57" stroke="none" stroke-width="0" stroke-linecap="butt"/><path d="M440.21742,355.43483c0,15.1278 -20.14718,27.3913 -45,27.3913c-24.85282,0 -45,-12.26351 -45,-27.3913c0,-15.1278 20.14718,-27.3913 45,-27.3913c24.85282,0 45,12.26351 45,27.3913z" fill="#8eff57" stroke="none" stroke-width="0" stroke-linecap="butt"/><path d="M415.8696,348.69571c0,15.1278 -20.14718,27.39131 -45,27.39131c-24.85282,0 -45.00001,-12.26351 -45.00001,-27.39131c0,-15.1278 20.14719,-27.3913 45.00001,-27.3913c24.85282,0 45,12.26351 45,27.3913z" fill="#8eff57" stroke="none" stroke-width="0" stroke-linecap="butt"/><path d="M496.73914,352.60875c0,15.1278 -20.14718,27.3913 -45,27.3913c-24.85282,0 -45,-12.26351 -45,-27.3913c0,-15.1278 20.14718,-27.3913 45,-27.3913c24.85282,0 45,12.26351 45,27.3913z" fill="#8eff57" stroke="none" stroke-width="0" stroke-linecap="butt"/><path d="M471.73916,347.17396c0,15.1278 -20.14718,27.3913 -45,27.3913c-24.85282,0 -45,-12.26351 -45,-27.3913c0,-15.1278 20.14719,-27.3913 45,-27.3913c24.85282,0 45,12.26351 45,27.3913z" fill="#8eff57" stroke="none" stroke-width="0" stroke-linecap="butt"/><path d="M95.21739,361.95657c0,15.1278 -20.14718,27.3913 -45,27.3913c-24.85281,0 -45,-12.26351 -45,-27.3913c0,-15.1278 20.14719,-27.3913 45.00001,-27.3913c24.85282,0 45,12.26351 45,27.3913z" fill="#bfff56" stroke="none" stroke-width="0" stroke-linecap="butt"/><path d="M70.86956,355.86961c0,15.1278 -20.14719,27.3913 -45,27.3913c-24.85281,0 -45,-12.26351 -45,-27.3913c0,-15.1278 20.14719,-27.3913 45.00001,-27.3913c24.85282,0 45,12.26351 45,27.3913z" fill="#bfff56" stroke="none" stroke-width="0" stroke-linecap="butt"/><path d="M151.08694,361.08701c0,15.1278 -20.14719,27.3913 -45,27.3913c-24.85281,0 -45,-12.26351 -45,-27.3913c0,-15.1278 20.14719,-27.39131 45,-27.39131c24.85281,0 45,12.26351 45,27.39131z" fill="#bfff56" stroke="none" stroke-width="0" stroke-linecap="butt"/><path d="M126.73915,355.00005c0,15.1278 -20.14719,27.3913 -45,27.3913c-24.85281,0 -45,-12.26351 -45,-27.3913c0,-15.1278 20.14719,-27.3913 45.00001,-27.3913c24.85281,0 45,12.26351 45,27.3913z" fill="#bfff56" stroke="none" stroke-width="0" stroke-linecap="butt"/><path d="M214.34783,361.08701c0,15.1278 -20.14719,27.3913 -45,27.3913c-24.85281,0 -45,-12.26351 -45,-27.3913c0,-15.1278 20.14719,-27.39131 45,-27.39131c24.85281,0 45,12.26351 45,27.39131z" fill="#bfff56" stroke="none" stroke-width="0" stroke-linecap="butt"/><path d="M190.00002,355.00005c0,15.1278 -20.14719,27.3913 -45,27.3913c-24.85281,0 -45,-12.26351 -45,-27.3913c0,-15.1278 20.14719,-27.3913 45.00001,-27.3913c24.85281,0 45,12.26351 45,27.3913z" fill="#bfff56" stroke="none" stroke-width="0" stroke-linecap="butt"/><path d="M270.21741,360.21745c0,15.1278 -20.14719,27.3913 -45,27.3913c-24.85281,0 -45,-12.26351 -45,-27.3913c0,-15.1278 20.14719,-27.3913 45,-27.3913c24.85281,0 45,12.26351 45,27.3913z" fill="#bfff56" stroke="none" stroke-width="0" stroke-linecap="butt"/><path d="M245.86959,354.13048c0,15.1278 -20.14719,27.3913 -45,27.3913c-24.85281,0 -45,-12.26351 -45,-27.3913c0,-15.1278 20.14719,-27.39131 45,-27.39131c24.85281,0 45,12.26351 45,27.39131z" fill="#bfff56" stroke="none" stroke-width="0" stroke-linecap="butt"/><path d="M320.00001,362.39136c0,15.1278 -20.14718,27.39131 -45,27.39131c-24.85281,0 -45,-12.26351 -45,-27.39131c0,-15.1278 20.14719,-27.3913 45,-27.3913c24.85282,0 45,12.26351 45,27.3913z" fill="#bfff56" stroke="none" stroke-width="0" stroke-linecap="butt"/><path d="M295.65218,356.3044c0,15.1278 -20.14718,27.3913 -45,27.3913c-24.85281,0 -45,-12.26351 -45,-27.3913c0,-15.1278 20.14719,-27.3913 45,-27.3913c24.85282,0 45,12.26351 45,27.3913z" fill="#bfff56" stroke="none" stroke-width="0" stroke-linecap="butt"/><path d="M375.86959,361.5218c0,15.1278 -20.14718,27.3913 -45,27.3913c-24.85282,0 -45,-12.26351 -45,-27.3913c0,-15.1278 20.14718,-27.3913 45,-27.3913c24.85282,0 45,12.26351 45,27.3913z" fill="#bfff56" stroke="none" stroke-width="0" stroke-linecap="butt"/><path d="M351.52176,355.43483c0,15.1278 -20.14718,27.39131 -45,27.39131c-24.85282,0 -45.00001,-12.26351 -45.00001,-27.39131c0,-15.1278 20.14719,-27.3913 45.00001,-27.3913c24.85282,0 45,12.26351 45,27.3913z" fill="#bfff56" stroke="none" stroke-width="0" stroke-linecap="butt"/><path d="M439.13046,361.5218c0,15.1278 -20.14718,27.3913 -45,27.3913c-24.85282,0 -45,-12.26351 -45,-27.3913c0,-15.1278 20.14718,-27.3913 45,-27.3913c24.85282,0 45,12.26351 45,27.3913z" fill="#bfff56" stroke="none" stroke-width="0" stroke-linecap="butt"/><path d="M414.78264,355.43483c0,15.1278 -20.14718,27.39131 -45,27.39131c-24.85282,0 -45.00001,-12.26351 -45.00001,-27.39131c0,-15.1278 20.14719,-27.3913 45.00001,-27.3913c24.85282,0 45,12.26351 45,27.3913z" fill="#bfff56" stroke="none" stroke-width="0" stroke-linecap="butt"/><path d="M495.00001,360.65222c0,15.1278 -20.14718,27.3913 -45,27.3913c-24.85282,0 -45,-12.26351 -45,-27.3913c0,-15.1278 20.14718,-27.3913 45,-27.3913c24.85282,0 45,12.26351 45,27.3913z" fill="#bfff56" stroke="none" stroke-width="0" stroke-linecap="butt"/><path d="M470.6522,354.56526c0,15.1278 -20.14718,27.3913 -45,27.3913c-24.85282,0 -45,-12.26351 -45,-27.3913c0,-15.1278 20.14719,-27.3913 45,-27.3913c24.85282,0 45,12.26351 45,27.3913z" fill="#bfff56" stroke="none" stroke-width="0" stroke-linecap="butt"/><path d="M32.5755,288.23003l-5.13158,4.73685l-1.18421,9.47368l-5.92105,1.57894l-1.57894,-11.44737l-9.86842,-5.92105" fill="none" stroke="#6fc543" stroke-width="4" stroke-linecap="round"/><path d="M22.70709,301.65108v-9.47369l1.18421,-8.68421" fill="none" stroke="#6fc543" stroke-width="4" stroke-linecap="round"/><path d="M26.25972,297.30897v-3.55263" fill="none" stroke="#6fc543" stroke-width="4" stroke-linecap="round"/><path d="M71.57551,290.23003l-5.13158,4.73685l-1.18421,9.47368l-5.92106,1.57894l-1.57894,-11.44737l-9.86842,-5.92105" fill="none" stroke="#6fc543" stroke-width="4" stroke-linecap="round"/><path d="M61.70709,303.65108v-9.47368l1.18421,-8.68421" fill="none" stroke="#6fc543" stroke-width="4" stroke-linecap="round"/><path d="M65.25972,295.75634v3.55263" fill="none" stroke="#6fc543" stroke-width="4" stroke-linecap="round"/><path d="M122.0755,291.23003l-5.13158,4.73685l-1.18421,9.47368l-5.92105,1.57894l-1.57894,-11.44737l-9.86842,-5.92105" fill="none" stroke="#6fc543" stroke-width="4" stroke-linecap="round"/><path d="M112.20709,304.65108v-9.47368l1.18421,-8.68421" fill="none" stroke="#6fc543" stroke-width="4" stroke-linecap="round"/><path d="M115.75972,300.30897v-3.55264" fill="none" stroke="#6fc543" stroke-width="4" stroke-linecap="round"/><path d="M177.0755,293.23002l-5.13158,4.73685l-1.18421,9.47369l-5.92105,1.57894l-1.57894,-11.44737l-9.86842,-5.92105" fill="none" stroke="#6fc543" stroke-width="4" stroke-linecap="round"/><path d="M167.20709,306.65108v-9.47368l1.18421,-8.68421" fill="none" stroke="#6fc543" stroke-width="4" stroke-linecap="round"/><path d="M170.75972,302.30897v-3.55264" fill="none" stroke="#6fc543" stroke-width="4" stroke-linecap="round"/><path d="M234.0755,289.73002l-5.13158,4.73685l-1.18421,9.47369l-5.92105,1.57894l-1.57894,-11.44737l-9.86842,-5.92105" fill="none" stroke="#6fc543" stroke-width="4" stroke-linecap="round"/><path d="M224.20709,303.15108v-9.47369l1.18421,-8.68421" fill="none" stroke="#6fc543" stroke-width="4" stroke-linecap="round"/><path d="M227.75972,298.80897v-3.55264" fill="none" stroke="#6fc543" stroke-width="4" stroke-linecap="round"/><path d="M288.0755,295.23002l-5.13158,4.73685l-1.18421,9.47368l-5.92105,1.57895l-1.57894,-11.44737l-9.86842,-5.92105" fill="none" stroke="#6fc543" stroke-width="4" stroke-linecap="round"/><path d="M278.20709,308.65108v-9.47369l1.18421,-8.68421" fill="none" stroke="#6fc543" stroke-width="4" stroke-linecap="round"/><path d="M281.75972,300.75634v3.55263" fill="none" stroke="#6fc543" stroke-width="4" stroke-linecap="round"/><path d="M347.07552,297.23003l-5.13158,4.73684l-1.18421,9.47369l-5.92106,1.57894l-1.57894,-11.44737l-9.86842,-5.92105" fill="none" stroke="#6fc543" stroke-width="4" stroke-linecap="round"/><path d="M337.2071,310.65108v-9.47368l1.18421,-8.68421" fill="none" stroke="#6fc543" stroke-width="4" stroke-linecap="round"/><path d="M340.75973,306.30897v-3.55264" fill="none" stroke="#6fc543" stroke-width="4" stroke-linecap="round"/><path d="M403.07552,293.73003l-5.13158,4.73684l-1.18421,9.47369l-5.92106,1.57894l-1.57894,-11.44737l-9.86842,-5.92105" fill="none" stroke="#6fc543" stroke-width="4" stroke-linecap="round"/><path d="M393.2071,307.15108v-9.47368l1.18421,-8.68421" fill="none" stroke="#6fc543" stroke-width="4" stroke-linecap="round"/><path d="M396.75973,302.80897v-3.55264" fill="none" stroke="#6fc543" stroke-width="4" stroke-linecap="round"/><path d="M459.07551,292.73003l-5.13158,4.73685l-1.18421,9.47368l-5.92105,1.57894l-1.57894,-11.44737l-9.86842,-5.92105" fill="none" stroke="#6fc543" stroke-width="4" stroke-linecap="round"/><path d="M449.2071,306.15108v-9.47369l1.18421,-8.68421" fill="none" stroke="#6fc543" stroke-width="4" stroke-linecap="round"/><path d="M452.75973,301.80897v-3.55263" fill="none" stroke="#6fc543" stroke-width="4" stroke-linecap="round"/><path d="M57.57551,302.23002l-5.13158,4.73685l-1.18421,9.47368l-5.92105,1.57895l-1.57895,-11.44737l-9.86842,-5.92105" fill="none" stroke="#7fe24d" stroke-width="4" stroke-linecap="round"/><path d="M47.70709,315.65108v-9.47368l1.18421,-8.68421" fill="none" stroke="#7fe24d" stroke-width="4" stroke-linecap="round"/><path d="M51.25972,311.30898v-3.55263" fill="none" stroke="#7fe24d" stroke-width="4" stroke-linecap="round"/><path d="M194.07551,306.23002l-5.13158,4.73685l-1.18421,9.47368l-5.92105,1.57895l-1.57895,-11.44737l-9.86842,-5.92105" fill="none" stroke="#7fe24d" stroke-width="4" stroke-linecap="round"/><path d="M184.20709,319.65108v-9.47368l1.18421,-8.68421" fill="none" stroke="#7fe24d" stroke-width="4" stroke-linecap="round"/><path d="M187.75972,315.30898v-3.55263" fill="none" stroke="#7fe24d" stroke-width="4" stroke-linecap="round"/><path d="M304.07551,304.23002l-5.13158,4.73685l-1.18421,9.47368l-5.92105,1.57895l-1.57895,-11.44737l-9.86842,-5.92105" fill="none" stroke="#7fe24d" stroke-width="4" stroke-linecap="round"/><path d="M294.20709,317.65108v-9.47368l1.18421,-8.68421" fill="none" stroke="#7fe24d" stroke-width="4" stroke-linecap="round"/><path d="M297.75972,313.30898v-3.55263" fill="none" stroke="#7fe24d" stroke-width="4" stroke-linecap="round"/><path d="M446.07552,305.23002l-5.13158,4.73685l-1.18421,9.47368l-5.92105,1.57895l-1.57895,-11.44737l-9.86842,-5.92105" fill="none" stroke="#7fe24d" stroke-width="4" stroke-linecap="round"/><path d="M436.2071,318.65108v-9.47368l1.18421,-8.68421" fill="none" stroke="#7fe24d" stroke-width="4" stroke-linecap="round"/><path d="M439.75973,314.30898v-3.55263" fill="none" stroke="#7fe24d" stroke-width="4" stroke-linecap="round"/></g></g></svg>