<svg version="1.1" xmlns="http://www.w3.org/2000/svg" xmlns:xlink="http://www.w3.org/1999/xlink" width="45.38636" height="86.52932" viewBox="0,0,45.38636,86.52932"><g transform="translate(-218.5,-142.72069)"><g data-paper-data="{&quot;isPaintingLayer&quot;:true}" fill-rule="nonzero" stroke-linecap="butt" stroke-linejoin="miter" stroke-miterlimit="10" stroke-dasharray="" stroke-dashoffset="0" style="mix-blend-mode: normal"><path d="M263.63636,185.98535c0,23.75634 -9.62588,43.01466 -21.5,43.01466c-11.87412,0 -21.5,-19.25832 -21.5,-43.01466c0,-23.75634 9.62588,-43.01466 21.5,-43.01466c11.87412,0 21.5,19.25832 21.5,43.01466z" data-paper-data="{&quot;index&quot;:null}" fill="#ffffff" stroke="#400000" stroke-width="0.5"/><path d="M224.86364,167.1965c0,4.62786 -1.42455,8.37948 -3.18182,8.37948c-1.75727,0 -3.18182,-3.75163 -3.18182,-8.37948c0,-4.62786 1.42455,-8.37948 3.18182,-8.37948c1.75727,0 3.18182,3.75163 3.18182,8.37948z" data-paper-data="{&quot;index&quot;:null}" fill="#400000" stroke="none" stroke-width="0"/><path d="M234.86363,167.99454c0,3.96673 -1.42455,7.18241 -3.18182,7.18241c-1.75727,0 -3.18182,-3.21567 -3.18182,-7.18241c0,-3.96673 1.42455,-7.18241 3.18182,-7.18241c1.75727,0 3.18182,3.21567 3.18182,7.18241z" data-paper-data="{&quot;index&quot;:null}" fill="#400000" stroke="none" stroke-width="0"/></g></g></svg>