<svg version="1.1" xmlns="http://www.w3.org/2000/svg" xmlns:xlink="http://www.w3.org/1999/xlink" width="43.5" height="48.94137" viewBox="0,0,43.5,48.94137"><g transform="translate(-218.25,-180.30863)"><g data-paper-data="{&quot;isPaintingLayer&quot;:true}" fill-rule="nonzero" stroke-linecap="butt" stroke-linejoin="miter" stroke-miterlimit="10" stroke-dasharray="" stroke-dashoffset="0" style="mix-blend-mode: normal"><path d="M261.5,204.77932c0,13.37671 -9.62588,24.22068 -21.5,24.22068c-11.87412,0 -21.5,-10.84397 -21.5,-24.22068c0,-13.37671 9.62588,-24.22068 21.5,-24.22068c11.87412,0 21.5,10.84397 21.5,24.22068z" fill="#ffffff" stroke="#400000" stroke-width="0.5"/><path d="M239.54545,194.1997c0,2.72994 -2.34033,4.943 -5.22727,4.943c-2.88694,0 -5.22727,-2.21305 -5.22727,-4.943c0,-2.72994 2.34033,-4.943 5.22727,-4.943c2.88694,0 5.22727,2.21305 5.22727,4.943z" fill="#400000" stroke="none" stroke-width="0"/><path d="M251.81818,194.42438c0,2.72994 -2.03507,4.943 -4.54545,4.943c-2.51039,0 -4.54545,-2.21305 -4.54545,-4.943c0,-2.72994 2.03507,-4.943 4.54545,-4.943c2.51039,0 4.54545,2.21305 4.54545,4.943z" fill="#400000" stroke="none" stroke-width="0"/></g></g></svg>