<svg version="1.1" xmlns="http://www.w3.org/2000/svg" xmlns:xlink="http://www.w3.org/1999/xlink" width="515.21741" height="369.19197" viewBox="0,0,515.21741,369.19197"><g transform="translate(19.13044,-20.59068)"><g data-paper-data="{&quot;isPaintingLayer&quot;:true}" fill-rule="nonzero" stroke="none" stroke-linecap="butt" stroke-linejoin="miter" stroke-miterlimit="10" stroke-dasharray="" stroke-dashoffset="0" style="mix-blend-mode: normal"><path d="M96.30435,355.8696c0,15.1278 -20.14718,27.3913 -45,27.3913c-24.85281,0 -45,-12.26351 -45,-27.3913c0,-15.1278 20.14719,-27.3913 45.00001,-27.3913c24.85282,0 45,12.26351 45,27.3913z" fill="#8eff57" stroke-width="0"/><path d="M71.95652,349.78264c0,15.1278 -20.14719,27.3913 -45,27.3913c-24.85281,0 -45,-12.26351 -45,-27.3913c0,-15.1278 20.14719,-27.3913 45.00001,-27.3913c24.85282,0 45,12.26351 45,27.3913z" fill="#8eff57" stroke-width="0"/><path d="M152.1739,355.00004c0,15.1278 -20.14719,27.3913 -45,27.3913c-24.85281,0 -45,-12.26351 -45,-27.3913c0,-15.1278 20.14719,-27.39131 45,-27.39131c24.85281,0 45,12.26351 45,27.39131z" fill="#8eff57" stroke-width="0"/><path d="M127.82611,348.91307c0,15.1278 -20.14719,27.3913 -45,27.3913c-24.85281,0 -45,-12.26351 -45,-27.3913c0,-15.1278 20.14719,-27.3913 45.00001,-27.3913c24.85281,0 45,12.26351 45,27.3913z" fill="#8eff57" stroke-width="0"/><path d="M215.43479,355.00004c0,15.1278 -20.14719,27.3913 -45,27.3913c-24.85281,0 -45,-12.26351 -45,-27.3913c0,-15.1278 20.14719,-27.39131 45,-27.39131c24.85281,0 45,12.26351 45,27.39131z" fill="#8eff57" stroke-width="0"/><path d="M191.08698,348.91307c0,15.1278 -20.14719,27.3913 -45,27.3913c-24.85281,0 -45,-12.26351 -45,-27.3913c0,-15.1278 20.14719,-27.3913 45.00001,-27.3913c24.85281,0 45,12.26351 45,27.3913z" fill="#8eff57" stroke-width="0"/><path d="M271.30437,354.13047c0,15.1278 -20.14719,27.3913 -45,27.3913c-24.85281,0 -45,-12.26351 -45,-27.3913c0,-15.1278 20.14719,-27.3913 45,-27.3913c24.85281,0 45,12.26351 45,27.3913z" fill="#8eff57" stroke-width="0"/><path d="M246.95655,348.04351c0,15.1278 -20.14719,27.3913 -45,27.3913c-24.85281,0 -45,-12.26351 -45,-27.3913c0,-15.1278 20.14719,-27.39131 45,-27.39131c24.85281,0 45,12.26351 45,27.39131z" fill="#8eff57" stroke-width="0"/><path d="M321.08697,356.30438c0,15.1278 -20.14718,27.39131 -45,27.39131c-24.85281,0 -45,-12.26351 -45,-27.39131c0,-15.1278 20.14719,-27.3913 45,-27.3913c24.85282,0 45,12.26351 45,27.3913z" fill="#8eff57" stroke-width="0"/><path d="M296.73914,350.21742c0,15.1278 -20.14718,27.3913 -45,27.3913c-24.85281,0 -45,-12.26351 -45,-27.3913c0,-15.1278 20.14719,-27.3913 45,-27.3913c24.85282,0 45,12.26351 45,27.3913z" fill="#8eff57" stroke-width="0"/><path d="M376.95655,355.43482c0,15.1278 -20.14718,27.3913 -45,27.3913c-24.85282,0 -45,-12.26351 -45,-27.3913c0,-15.1278 20.14718,-27.3913 45,-27.3913c24.85282,0 45,12.26351 45,27.3913z" fill="#8eff57" stroke-width="0"/><path d="M352.60872,349.34786c0,15.1278 -20.14718,27.39131 -45,27.39131c-24.85282,0 -45.00001,-12.26351 -45.00001,-27.39131c0,-15.1278 20.14719,-27.3913 45.00001,-27.3913c24.85282,0 45,12.26351 45,27.3913z" fill="#8eff57" stroke-width="0"/><path d="M440.21742,355.43482c0,15.1278 -20.14718,27.3913 -45,27.3913c-24.85282,0 -45,-12.26351 -45,-27.3913c0,-15.1278 20.14718,-27.3913 45,-27.3913c24.85282,0 45,12.26351 45,27.3913z" fill="#8eff57" stroke-width="0"/><path d="M415.8696,349.34786c0,15.1278 -20.14718,27.39131 -45,27.39131c-24.85282,0 -45.00001,-12.26351 -45.00001,-27.39131c0,-15.1278 20.14719,-27.3913 45.00001,-27.3913c24.85282,0 45,12.26351 45,27.3913z" fill="#8eff57" stroke-width="0"/><path d="M496.08697,354.56525c0,15.1278 -20.14718,27.3913 -45,27.3913c-24.85282,0 -45,-12.26351 -45,-27.3913c0,-15.1278 20.14718,-27.3913 45,-27.3913c24.85282,0 45,12.26351 45,27.3913z" fill="#8eff57" stroke-width="0"/><path d="M471.73916,348.47829c0,15.1278 -20.14718,27.3913 -45,27.3913c-24.85282,0 -45,-12.26351 -45,-27.3913c0,-15.1278 20.14719,-27.3913 45,-27.3913c24.85282,0 45,12.26351 45,27.3913z" fill="#8eff57" stroke-width="0"/><path d="M95.21739,361.95656c0,15.1278 -20.14718,27.3913 -45,27.3913c-24.85281,0 -45,-12.26351 -45,-27.3913c0,-15.1278 20.14719,-27.3913 45.00001,-27.3913c24.85282,0 45,12.26351 45,27.3913z" fill="#bfff56" stroke-width="0"/><path d="M70.86956,355.8696c0,15.1278 -20.14719,27.3913 -45,27.3913c-24.85281,0 -45,-12.26351 -45,-27.3913c0,-15.1278 20.14719,-27.3913 45.00001,-27.3913c24.85282,0 45,12.26351 45,27.3913z" fill="#bfff56" stroke-width="0"/><path d="M151.08694,361.087c0,15.1278 -20.14719,27.3913 -45,27.3913c-24.85281,0 -45,-12.26351 -45,-27.3913c0,-15.1278 20.14719,-27.39131 45,-27.39131c24.85281,0 45,12.26351 45,27.39131z" fill="#bfff56" stroke-width="0"/><path d="M126.73915,355.00003c0,15.1278 -20.14719,27.3913 -45,27.3913c-24.85281,0 -45,-12.26351 -45,-27.3913c0,-15.1278 20.14719,-27.3913 45.00001,-27.3913c24.85281,0 45,12.26351 45,27.3913z" fill="#bfff56" stroke-width="0"/><path d="M214.34783,361.087c0,15.1278 -20.14719,27.3913 -45,27.3913c-24.85281,0 -45,-12.26351 -45,-27.3913c0,-15.1278 20.14719,-27.39131 45,-27.39131c24.85281,0 45,12.26351 45,27.39131z" fill="#bfff56" stroke-width="0"/><path d="M190.00002,355.00003c0,15.1278 -20.14719,27.3913 -45,27.3913c-24.85281,0 -45,-12.26351 -45,-27.3913c0,-15.1278 20.14719,-27.3913 45.00001,-27.3913c24.85281,0 45,12.26351 45,27.3913z" fill="#bfff56" stroke-width="0"/><path d="M270.21741,360.21743c0,15.1278 -20.14719,27.3913 -45,27.3913c-24.85281,0 -45,-12.26351 -45,-27.3913c0,-15.1278 20.14719,-27.3913 45,-27.3913c24.85281,0 45,12.26351 45,27.3913z" fill="#bfff56" stroke-width="0"/><path d="M245.86959,354.13047c0,15.1278 -20.14719,27.3913 -45,27.3913c-24.85281,0 -45,-12.26351 -45,-27.3913c0,-15.1278 20.14719,-27.39131 45,-27.39131c24.85281,0 45,12.26351 45,27.39131z" fill="#bfff56" stroke-width="0"/><path d="M320.00001,362.39134c0,15.1278 -20.14718,27.39131 -45,27.39131c-24.85281,0 -45,-12.26351 -45,-27.39131c0,-15.1278 20.14719,-27.3913 45,-27.3913c24.85282,0 45,12.26351 45,27.3913z" fill="#bfff56" stroke-width="0"/><path d="M295.65218,356.30438c0,15.1278 -20.14718,27.3913 -45,27.3913c-24.85281,0 -45,-12.26351 -45,-27.3913c0,-15.1278 20.14719,-27.3913 45,-27.3913c24.85282,0 45,12.26351 45,27.3913z" fill="#bfff56" stroke-width="0"/><path d="M375.86959,361.52178c0,15.1278 -20.14718,27.3913 -45,27.3913c-24.85282,0 -45,-12.26351 -45,-27.3913c0,-15.1278 20.14718,-27.3913 45,-27.3913c24.85282,0 45,12.26351 45,27.3913z" fill="#bfff56" stroke-width="0"/><path d="M351.52176,355.43482c0,15.1278 -20.14718,27.39131 -45,27.39131c-24.85282,0 -45.00001,-12.26351 -45.00001,-27.39131c0,-15.1278 20.14719,-27.3913 45.00001,-27.3913c24.85282,0 45,12.26351 45,27.3913z" fill="#bfff56" stroke-width="0"/><path d="M439.13046,361.52178c0,15.1278 -20.14718,27.3913 -45,27.3913c-24.85282,0 -45,-12.26351 -45,-27.3913c0,-15.1278 20.14718,-27.3913 45,-27.3913c24.85282,0 45,12.26351 45,27.3913z" fill="#bfff56" stroke-width="0"/><path d="M414.78264,355.43482c0,15.1278 -20.14718,27.39131 -45,27.39131c-24.85282,0 -45.00001,-12.26351 -45.00001,-27.39131c0,-15.1278 20.14719,-27.3913 45.00001,-27.3913c24.85282,0 45,12.26351 45,27.3913z" fill="#bfff56" stroke-width="0"/><path d="M495.00001,360.65221c0,15.1278 -20.14718,27.3913 -45,27.3913c-24.85282,0 -45,-12.26351 -45,-27.3913c0,-15.1278 20.14718,-27.3913 45,-27.3913c24.85282,0 45,12.26351 45,27.3913z" fill="#bfff56" stroke-width="0"/><path d="M470.6522,354.56525c0,15.1278 -20.14718,27.3913 -45,27.3913c-24.85282,0 -45,-12.26351 -45,-27.3913c0,-15.1278 20.14719,-27.3913 45,-27.3913c24.85282,0 45,12.26351 45,27.3913z" fill="#bfff56" stroke-width="0"/><text transform="translate(68.41843,65.65205) scale(0.87439,0.87439)" font-size="40" xml:space="preserve" fill="#fffe66" fill-rule="nonzero" stroke="none" stroke-width="1" stroke-linecap="butt" stroke-linejoin="miter" stroke-miterlimit="10" stroke-dasharray="" stroke-dashoffset="0" font-family="Sans Serif" font-weight="normal" text-anchor="start" style="mix-blend-mode: normal"><tspan x="0" dy="0">Graß-Zupf Simulator</tspan></text><text transform="translate(64.92087,66.14257) scale(0.89254,1.04717)" font-size="40" xml:space="preserve" fill="#ffe966" fill-rule="nonzero" stroke="none" stroke-width="1" stroke-linecap="butt" stroke-linejoin="miter" stroke-miterlimit="10" stroke-dasharray="" stroke-dashoffset="0" font-family="Sans Serif" font-weight="normal" text-anchor="start" style="mix-blend-mode: normal"><tspan x="0" dy="0">Graß-Zupf Simulator</tspan></text></g></g></svg>