<svg version="1.1" xmlns="http://www.w3.org/2000/svg" xmlns:xlink="http://www.w3.org/1999/xlink" width="49.32534" height="47.47121" viewBox="0,0,49.32534,47.47121"><g transform="translate(-224.87815,-182.47898)"><g data-paper-data="{&quot;isPaintingLayer&quot;:true}" fill-rule="nonzero" stroke-linecap="butt" stroke-linejoin="miter" stroke-miterlimit="10" stroke-dasharray="" stroke-dashoffset="0" style="mix-blend-mode: normal"><path d="M261.23024,186.07315c9.82572,6.66709 11.67226,21.08946 4.12438,32.21326c-7.54789,11.12381 -21.63198,14.73669 -31.45769,8.0696c-9.82572,-6.66709 -11.67226,-21.08946 -4.12438,-32.21326c7.54789,-11.12381 21.63198,-14.73669 31.45769,-8.0696z" data-paper-data="{&quot;index&quot;:null}" fill="#ffffff" stroke="#400000" stroke-width="0.5"/><path d="M273.12145,204.97796c1.45412,0.98667 1.44096,3.5432 -0.02941,5.71018c-1.47037,2.16697 -3.84114,3.12379 -5.29526,2.13712c-1.45412,-0.98667 -1.44096,-3.5432 0.02941,-5.71018c1.47037,-2.16697 3.84114,-3.12379 5.29526,-2.13712z" data-paper-data="{&quot;index&quot;:null}" fill="#400000" stroke="none" stroke-width="0"/><path d="M264.21268,200.29736c1.45412,0.98667 1.61123,3.29225 0.35092,5.14966c-1.26032,1.85741 -3.46081,2.56327 -4.91493,1.5766c-1.45412,-0.98667 -1.61123,-3.29225 -0.35092,-5.14966c1.26032,-1.85741 3.46081,-2.56327 4.91493,-1.5766z" data-paper-data="{&quot;index&quot;:null}" fill="#400000" stroke="none" stroke-width="0"/></g></g></svg>