<svg version="1.1" xmlns="http://www.w3.org/2000/svg" xmlns:xlink="http://www.w3.org/1999/xlink" width="45.38636" height="112.86482" viewBox="0,0,45.38636,112.86482"><g transform="translate(-218.25,-116.38518)"><g data-paper-data="{&quot;isPaintingLayer&quot;:true}" fill-rule="nonzero" stroke-linecap="butt" stroke-linejoin="miter" stroke-miterlimit="10" stroke-dasharray="" stroke-dashoffset="0" style="mix-blend-mode: normal"><path d="M240,116.63518c11.87412,0 21.5,25.15373 21.5,56.18241c0,31.02869 -9.62588,56.18241 -21.5,56.18241c-11.87412,0 -21.5,-25.15373 -21.5,-56.18241c0,-31.02869 9.62588,-56.18241 21.5,-56.18241z" data-paper-data="{&quot;index&quot;:null}" fill="#ffffff" stroke="#400000" stroke-width="0.5"/><path d="M260.45454,129.09723c1.75727,0 3.18182,4.90007 3.18182,10.94462c0,6.04454 -1.42455,10.94462 -3.18182,10.94462c-1.75727,0 -3.18182,-4.90007 -3.18182,-10.94462c0,-6.04454 1.42455,-10.94462 3.18182,-10.94462z" data-paper-data="{&quot;index&quot;:null}" fill="#400000" stroke="none" stroke-width="0"/><path d="M250.45455,131.70308c1.75727,0 3.18182,4.20007 3.18182,9.38111c0,5.18105 -1.42455,9.38111 -3.18182,9.38111c-1.75727,0 -3.18182,-4.20007 -3.18182,-9.38111c0,-5.18105 1.42455,-9.38111 3.18182,-9.38111z" data-paper-data="{&quot;index&quot;:null}" fill="#400000" stroke="none" stroke-width="0"/></g></g></svg>