<svg version="1.1" xmlns="http://www.w3.org/2000/svg" xmlns:xlink="http://www.w3.org/1999/xlink" width="43.5" height="112.6254" viewBox="0,0,43.5,112.6254"><g transform="translate(-218.25,-116.6246)"><g data-paper-data="{&quot;isPaintingLayer&quot;:true}" fill-rule="nonzero" stroke-linecap="butt" stroke-linejoin="miter" stroke-miterlimit="10" stroke-dasharray="" stroke-dashoffset="0" style="mix-blend-mode: normal"><path d="M261.5,172.9373c0,30.96257 -9.62588,56.0627 -21.5,56.0627c-11.87412,0 -21.5,-25.10013 -21.5,-56.0627c0,-30.96257 9.62588,-56.0627 21.5,-56.0627c11.87412,0 21.5,25.10013 21.5,56.0627z" fill="#ffffff" stroke="#400000" stroke-width="0.5"/><path d="M239.54545,140.23138c0,6.3189 -2.34033,11.44137 -5.22727,11.44137c-2.88694,0 -5.22727,-5.12247 -5.22727,-11.44137c0,-6.3189 2.34033,-11.44137 5.22727,-11.44137c2.88694,0 5.22727,5.12247 5.22727,11.44137z" fill="#400000" stroke="none" stroke-width="0"/><path d="M251.81818,140.75145c0,6.3189 -2.03507,11.44137 -4.54545,11.44137c-2.51039,0 -4.54545,-5.12247 -4.54545,-11.44137c0,-6.3189 2.03507,-11.44137 4.54545,-11.44137c2.51039,0 4.54545,5.12247 4.54545,11.44137z" fill="#400000" stroke="none" stroke-width="0"/></g></g></svg>