<svg version="1.1" xmlns="http://www.w3.org/2000/svg" xmlns:xlink="http://www.w3.org/1999/xlink" width="516.95654" height="379.40617" viewBox="0,0,516.95654,379.40617"><g transform="translate(19.13044,-10.37648)"><g data-paper-data="{&quot;isPaintingLayer&quot;:true}" fill-rule="nonzero" stroke="none" stroke-linecap="butt" stroke-linejoin="miter" stroke-miterlimit="10" stroke-dasharray="" stroke-dashoffset="0" style="mix-blend-mode: normal"><path d="M95.2174,331.30437c0,15.1278 -20.14719,27.39131 -45,27.39131c-24.85281,0 -45,-12.26351 -45,-27.39131c0,-15.1278 20.14719,-27.39131 45,-27.39131c24.85281,0 45,12.26351 45,27.39131z" fill="#49d859" stroke-width="0"/><path d="M70.86956,325.21741c0,15.1278 -20.14719,27.3913 -45,27.3913c-24.85281,0 -45,-12.26351 -45,-27.3913c0,-15.1278 20.14719,-27.39131 45.00001,-27.39131c24.85281,0 45,12.26351 45,27.39131z" fill="#49d859" stroke-width="0"/><path d="M151.08695,330.4348c0,15.1278 -20.14718,27.3913 -45,27.3913c-24.85282,0 -45,-12.26351 -45,-27.3913c0,-15.1278 20.14719,-27.3913 45,-27.3913c24.85281,0 45,12.26351 45,27.3913z" fill="#49d859" stroke-width="0"/><path d="M126.73914,324.34784c0,15.1278 -20.14719,27.3913 -45,27.3913c-24.85282,0 -45.00001,-12.26351 -45.00001,-27.3913c0,-15.1278 20.14719,-27.3913 45.00001,-27.3913c24.85281,0 45,12.26351 45,27.3913z" fill="#49d859" stroke-width="0"/><path d="M214.34784,330.4348c0,15.1278 -20.14718,27.3913 -45,27.3913c-24.85281,0 -45,-12.26351 -45,-27.3913c0,-15.1278 20.14718,-27.3913 45,-27.3913c24.85282,0 45,12.26351 45,27.3913z" fill="#49d859" stroke-width="0"/><path d="M190.00002,324.34784c0,15.1278 -20.14718,27.3913 -45,27.3913c-24.85281,0 -45,-12.26351 -45,-27.3913c0,-15.1278 20.14719,-27.3913 45,-27.3913c24.85282,0 45,12.26351 45,27.3913z" fill="#49d859" stroke-width="0"/><path d="M270.21741,329.56524c0,15.1278 -20.14719,27.3913 -45,27.3913c-24.85282,0 -45,-12.26351 -45,-27.3913c0,-15.1278 20.14718,-27.39131 45,-27.39131c24.85282,0 45,12.26351 45,27.39131z" fill="#49d859" stroke-width="0"/><path d="M245.86957,323.47828c0,15.1278 -20.14718,27.3913 -45,27.3913c-24.85281,0 -45.00001,-12.26351 -45.00001,-27.3913c0,-15.1278 20.14719,-27.3913 45.00001,-27.3913c24.85281,0 45,12.26351 45,27.3913z" fill="#49d859" stroke-width="0"/><path d="M320.00002,331.73915c0,15.1278 -20.14719,27.3913 -45,27.3913c-24.85282,0 -45,-12.26351 -45,-27.3913c0,-15.1278 20.14718,-27.3913 45,-27.3913c24.85281,0 45,12.26351 45,27.3913z" fill="#49d859" stroke-width="0"/><path d="M295.65218,325.65219c0,15.1278 -20.14719,27.3913 -45,27.3913c-24.85282,0 -45,-12.26351 -45,-27.3913c0,-15.1278 20.14719,-27.3913 45,-27.3913c24.85281,0 45,12.26351 45,27.3913z" fill="#49d859" stroke-width="0"/><path d="M375.86959,330.86959c0,15.1278 -20.14719,27.3913 -45,27.3913c-24.85282,0 -45,-12.26351 -45,-27.3913c0,-15.1278 20.14718,-27.39131 45,-27.39131c24.85281,0 45,12.26351 45,27.39131z" fill="#49d859" stroke-width="0"/><path d="M351.52176,324.78263c0,15.1278 -20.14718,27.3913 -45,27.3913c-24.85281,0 -45,-12.26351 -45,-27.3913c0,-15.1278 20.14719,-27.3913 45,-27.3913c24.85282,0 45,12.26351 45,27.3913z" fill="#49d859" stroke-width="0"/><path d="M439.13046,330.86959c0,15.1278 -20.14719,27.3913 -45,27.3913c-24.85282,0 -45,-12.26351 -45,-27.3913c0,-15.1278 20.14719,-27.39131 45,-27.39131c24.85281,0 45,12.26351 45,27.39131z" fill="#49d859" stroke-width="0"/><path d="M414.78264,324.78263c0,15.1278 -20.14718,27.3913 -45,27.3913c-24.85281,0 -45,-12.26351 -45,-27.3913c0,-15.1278 20.14719,-27.3913 45,-27.3913c24.85282,0 45,12.26351 45,27.3913z" fill="#49d859" stroke-width="0"/><path d="M495.00002,330.00002c0,15.1278 -20.14718,27.3913 -45,27.3913c-24.85281,0 -45,-12.26351 -45,-27.3913c0,-15.1278 20.14719,-27.3913 45,-27.3913c24.85282,0 45,12.26351 45,27.3913z" fill="#49d859" stroke-width="0"/><path d="M470.6522,323.91306c0,15.1278 -20.14719,27.3913 -45,27.3913c-24.85282,0 -45.00001,-12.26351 -45.00001,-27.3913c0,-15.1278 20.14719,-27.39131 45.00001,-27.39131c24.85281,0 45,12.26351 45,27.39131z" fill="#49d859" stroke-width="0"/><path d="M95.21741,361.95657c0,15.1278 -20.14718,27.3913 -45,27.3913c-24.85281,0 -45,-12.26351 -45,-27.3913c0,-15.1278 20.14719,-27.3913 45.00001,-27.3913c24.85282,0 45,12.26351 45,27.3913z" fill="#bfff56" stroke-width="0"/><path d="M70.86958,355.86961c0,15.1278 -20.14719,27.3913 -45,27.3913c-24.85281,0 -45,-12.26351 -45,-27.3913c0,-15.1278 20.14719,-27.3913 45.00001,-27.3913c24.85282,0 45,12.26351 45,27.3913z" fill="#bfff56" stroke-width="0"/><path d="M151.08695,361.08701c0,15.1278 -20.14719,27.3913 -45,27.3913c-24.85281,0 -45,-12.26351 -45,-27.3913c0,-15.1278 20.14719,-27.39131 45,-27.39131c24.85281,0 45,12.26351 45,27.39131z" fill="#bfff56" stroke-width="0"/><path d="M126.73915,355.00002c0,15.1278 -20.14719,27.3913 -45,27.3913c-24.85281,0 -45,-12.26351 -45,-27.3913c0,-15.1278 20.14719,-27.3913 45.00001,-27.3913c24.85281,0 45,12.26351 45,27.3913z" fill="#bfff56" stroke-width="0"/><path d="M214.34783,361.08701c0,15.1278 -20.14719,27.3913 -45,27.3913c-24.85281,0 -45,-12.26351 -45,-27.3913c0,-15.1278 20.14719,-27.39131 45,-27.39131c24.85281,0 45,12.26351 45,27.39131z" fill="#bfff56" stroke-width="0"/><path d="M190.00004,355.00002c0,15.1278 -20.14719,27.3913 -45,27.3913c-24.85281,0 -45,-12.26351 -45,-27.3913c0,-15.1278 20.14719,-27.3913 45.00001,-27.3913c24.85281,0 45,12.26351 45,27.3913z" fill="#bfff56" stroke-width="0"/><path d="M270.21741,360.21742c0,15.1278 -20.14719,27.3913 -45,27.3913c-24.85281,0 -45,-12.26351 -45,-27.3913c0,-15.1278 20.14719,-27.3913 45,-27.3913c24.85281,0 45,12.26351 45,27.3913z" fill="#bfff56" stroke-width="0"/><path d="M245.8696,354.13048c0,15.1278 -20.14719,27.3913 -45,27.3913c-24.85281,0 -45,-12.26351 -45,-27.3913c0,-15.1278 20.14719,-27.39131 45,-27.39131c24.85281,0 45,12.26351 45,27.39131z" fill="#bfff56" stroke-width="0"/><path d="M320.00001,362.39135c0,15.1278 -20.14718,27.39131 -45,27.39131c-24.85281,0 -45,-12.26351 -45,-27.39131c0,-15.1278 20.14719,-27.3913 45,-27.3913c24.85282,0 45,12.26351 45,27.3913z" fill="#bfff56" stroke-width="0"/><path d="M295.65218,356.30437c0,15.1278 -20.14718,27.3913 -45,27.3913c-24.85281,0 -45,-12.26351 -45,-27.3913c0,-15.1278 20.14719,-27.3913 45,-27.3913c24.85282,0 45,12.26351 45,27.3913z" fill="#bfff56" stroke-width="0"/><path d="M375.86961,361.52177c0,15.1278 -20.14718,27.3913 -45,27.3913c-24.85282,0 -45,-12.26351 -45,-27.3913c0,-15.1278 20.14718,-27.3913 45,-27.3913c24.85282,0 45,12.26351 45,27.3913z" fill="#bfff56" stroke-width="0"/><path d="M351.52176,355.43483c0,15.1278 -20.14718,27.39131 -45,27.39131c-24.85282,0 -45.00001,-12.26351 -45.00001,-27.39131c0,-15.1278 20.14719,-27.3913 45.00001,-27.3913c24.85282,0 45,12.26351 45,27.3913z" fill="#bfff56" stroke-width="0"/><path d="M439.13048,361.52177c0,15.1278 -20.14718,27.3913 -45,27.3913c-24.85282,0 -45,-12.26351 -45,-27.3913c0,-15.1278 20.14718,-27.3913 45,-27.3913c24.85282,0 45,12.26351 45,27.3913z" fill="#bfff56" stroke-width="0"/><path d="M414.78266,355.43483c0,15.1278 -20.14718,27.39131 -45,27.39131c-24.85282,0 -45.00001,-12.26351 -45.00001,-27.39131c0,-15.1278 20.14719,-27.3913 45.00001,-27.3913c24.85282,0 45,12.26351 45,27.3913z" fill="#bfff56" stroke-width="0"/><path d="M495.00004,360.65222c0,15.1278 -20.14718,27.3913 -45,27.3913c-24.85282,0 -45,-12.26351 -45,-27.3913c0,-15.1278 20.14718,-27.3913 45,-27.3913c24.85282,0 45,12.26351 45,27.3913z" fill="#bfff56" stroke-width="0"/><path d="M470.65222,354.56526c0,15.1278 -20.14718,27.3913 -45,27.3913c-24.85282,0 -45,-12.26351 -45,-27.3913c0,-15.1278 20.14719,-27.3913 45,-27.3913c24.85282,0 45,12.26351 45,27.3913z" fill="#bfff56" stroke-width="0"/><text transform="translate(64.83695,64.31789) scale(0.89468,1.02764)" font-size="40" xml:space="preserve" fill="#ffd266" fill-rule="nonzero" stroke="none" stroke-width="1" stroke-linecap="butt" stroke-linejoin="miter" stroke-miterlimit="10" stroke-dasharray="" stroke-dashoffset="0" font-family="Sans Serif" font-weight="normal" text-anchor="start" style="mix-blend-mode: normal"><tspan x="0" dy="0">Graß-Zupf Simulator</tspan></text><text transform="translate(71.32723,66.31981) scale(0.85982,0.85982)" font-size="40" xml:space="preserve" fill="#fffe66" fill-rule="nonzero" stroke="none" stroke-width="1" stroke-linecap="butt" stroke-linejoin="miter" stroke-miterlimit="10" stroke-dasharray="" stroke-dashoffset="0" font-family="Sans Serif" font-weight="normal" text-anchor="start" style="mix-blend-mode: normal"><tspan x="0" dy="0">Graß-Zupf Simulator</tspan></text><text transform="translate(67.88794,64.99782) scale(0.87767,0.9618)" font-size="40" xml:space="preserve" fill="#ffe966" fill-rule="nonzero" stroke="none" stroke-width="1" stroke-linecap="butt" stroke-linejoin="miter" stroke-miterlimit="10" stroke-dasharray="" stroke-dashoffset="0" font-family="Sans Serif" font-weight="normal" text-anchor="start" style="mix-blend-mode: normal"><tspan x="0" dy="0">Graß-Zupf Simulator</tspan></text><text transform="translate(63.3152,65.89399) scale(0.90634,1.20427)" font-size="40" xml:space="preserve" fill="#ffb366" fill-rule="nonzero" stroke="none" stroke-width="1" stroke-linecap="butt" stroke-linejoin="miter" stroke-miterlimit="10" stroke-dasharray="" stroke-dashoffset="0" font-family="Sans Serif" font-weight="normal" text-anchor="start" style="mix-blend-mode: normal"><tspan x="0" dy="0">Graß-Zupf Simulator</tspan></text><text transform="translate(60.4891,64.53529) scale(0.923,1.24503)" font-size="40" xml:space="preserve" fill="#ff9566" fill-rule="nonzero" stroke="none" stroke-width="1" stroke-linecap="butt" stroke-linejoin="miter" stroke-miterlimit="10" stroke-dasharray="" stroke-dashoffset="0" font-family="Sans Serif" font-weight="normal" text-anchor="start" style="mix-blend-mode: normal"><tspan x="0" dy="0">Graß-Zupf Simulator</tspan></text><path d="M95.2174,338.47828c0,15.1278 -20.14719,27.39131 -45,27.39131c-24.85281,0 -45,-12.26351 -45,-27.39131c0,-15.1278 20.14719,-27.39131 45,-27.39131c24.85281,0 45,12.26351 45,27.39131z" fill="#53f35b" stroke-width="0"/><path d="M70.86956,332.39132c0,15.1278 -20.14719,27.3913 -45,27.3913c-24.85281,0 -45,-12.26351 -45,-27.3913c0,-15.1278 20.14719,-27.39131 45.00001,-27.39131c24.85281,0 45,12.26351 45,27.39131z" fill="#4ee656" stroke-width="0"/><path d="M151.08695,337.60871c0,15.1278 -20.14718,27.3913 -45,27.3913c-24.85282,0 -45,-12.26351 -45,-27.3913c0,-15.1278 20.14719,-27.3913 45,-27.3913c24.85281,0 45,12.26351 45,27.3913z" fill="#53f35b" stroke-width="0"/><path d="M126.73914,331.52173c0,15.1278 -20.14719,27.3913 -45,27.3913c-24.85282,0 -45.00001,-12.26351 -45.00001,-27.3913c0,-15.1278 20.14719,-27.3913 45.00001,-27.3913c24.85281,0 45,12.26351 45,27.3913z" fill="#4ee656" stroke-width="0"/><path d="M214.34783,337.60871c0,15.1278 -20.14718,27.3913 -45,27.3913c-24.85281,0 -45,-12.26351 -45,-27.3913c0,-15.1278 20.14718,-27.3913 45,-27.3913c24.85282,0 45,12.26351 45,27.3913z" fill="#53f35b" stroke-width="0"/><path d="M190.00001,331.52173c0,15.1278 -20.14718,27.3913 -45,27.3913c-24.85281,0 -45,-12.26351 -45,-27.3913c0,-15.1278 20.14719,-27.3913 45,-27.3913c24.85282,0 45,12.26351 45,27.3913z" fill="#4ee656" stroke-width="0"/><path d="M270.2174,336.73915c0,15.1278 -20.14719,27.3913 -45,27.3913c-24.85282,0 -45,-12.26351 -45,-27.3913c0,-15.1278 20.14718,-27.39131 45,-27.39131c24.85282,0 45,12.26351 45,27.39131z" fill="#4ee656" stroke-width="0"/><path d="M245.86957,330.65218c0,15.1278 -20.14718,27.3913 -45,27.3913c-24.85281,0 -45.00001,-12.26351 -45.00001,-27.3913c0,-15.1278 20.14719,-27.3913 45.00001,-27.3913c24.85281,0 45,12.26351 45,27.3913z" fill="#4ee656" stroke-width="0"/><path d="M320.00001,338.91306c0,15.1278 -20.14719,27.3913 -45,27.3913c-24.85282,0 -45,-12.26351 -45,-27.3913c0,-15.1278 20.14718,-27.3913 45,-27.3913c24.85281,0 45,12.26351 45,27.3913z" fill="#53f35b" stroke-width="0"/><path d="M295.65218,332.82608c0,15.1278 -20.14719,27.3913 -45,27.3913c-24.85282,0 -45,-12.26351 -45,-27.3913c0,-15.1278 20.14719,-27.3913 45,-27.3913c24.85281,0 45,12.26351 45,27.3913z" fill="#4ee656" stroke-width="0"/><path d="M375.86958,338.0435c0,15.1278 -20.14719,27.3913 -45,27.3913c-24.85282,0 -45,-12.26351 -45,-27.3913c0,-15.1278 20.14718,-27.39131 45,-27.39131c24.85281,0 45,12.26351 45,27.39131z" fill="#53f35b" stroke-width="0"/><path d="M351.52175,331.95653c0,15.1278 -20.14718,27.3913 -45,27.3913c-24.85281,0 -45,-12.26351 -45,-27.3913c0,-15.1278 20.14719,-27.3913 45,-27.3913c24.85282,0 45,12.26351 45,27.3913z" fill="#4ee656" stroke-width="0"/><path d="M439.13045,338.0435c0,15.1278 -20.14719,27.3913 -45,27.3913c-24.85282,0 -45,-12.26351 -45,-27.3913c0,-15.1278 20.14719,-27.39131 45,-27.39131c24.85281,0 45,12.26351 45,27.39131z" fill="#53f35b" stroke-width="0"/><path d="M414.78263,331.95653c0,15.1278 -20.14718,27.3913 -45,27.3913c-24.85281,0 -45,-12.26351 -45,-27.3913c0,-15.1278 20.14719,-27.3913 45,-27.3913c24.85282,0 45,12.26351 45,27.3913z" fill="#4ee656" stroke-width="0"/><path d="M495.00002,337.17393c0,15.1278 -20.14718,27.3913 -45,27.3913c-24.85281,0 -45,-12.26351 -45,-27.3913c0,-15.1278 20.14719,-27.3913 45,-27.3913c24.85282,0 45,12.26351 45,27.3913z" fill="#4ee656" stroke-width="0"/><path d="M470.65219,331.08697c0,15.1278 -20.14719,27.3913 -45,27.3913c-24.85282,0 -45.00001,-12.26351 -45.00001,-27.3913c0,-15.1278 20.14719,-27.39131 45.00001,-27.39131c24.85281,0 45,12.26351 45,27.39131z" fill="#4ee656" stroke-width="0"/><path d="M95.21739,361.95656c0,15.1278 -20.14718,27.3913 -45,27.3913c-24.85281,0 -45,-12.26351 -45,-27.3913c0,-15.1278 20.14719,-27.3913 45.00001,-27.3913c24.85282,0 45,12.26351 45,27.3913z" fill="#bfff56" stroke-width="0"/><path d="M70.86956,355.8696c0,15.1278 -20.14719,27.3913 -45,27.3913c-24.85281,0 -45,-12.26351 -45,-27.3913c0,-15.1278 20.14719,-27.3913 45.00001,-27.3913c24.85282,0 45,12.26351 45,27.3913z" fill="#bfff56" stroke-width="0"/><path d="M151.08694,361.087c0,15.1278 -20.14719,27.3913 -45,27.3913c-24.85281,0 -45,-12.26351 -45,-27.3913c0,-15.1278 20.14719,-27.39131 45,-27.39131c24.85281,0 45,12.26351 45,27.39131z" fill="#bfff56" stroke-width="0"/><path d="M126.73914,355.00002c0,15.1278 -20.14719,27.3913 -45,27.3913c-24.85281,0 -45,-12.26351 -45,-27.3913c0,-15.1278 20.14719,-27.3913 45.00001,-27.3913c24.85281,0 45,12.26351 45,27.3913z" fill="#bfff56" stroke-width="0"/><path d="M214.34783,361.087c0,15.1278 -20.14719,27.3913 -45,27.3913c-24.85281,0 -45,-12.26351 -45,-27.3913c0,-15.1278 20.14719,-27.39131 45,-27.39131c24.85281,0 45,12.26351 45,27.39131z" fill="#bfff56" stroke-width="0"/><path d="M190.00003,355.00002c0,15.1278 -20.14719,27.3913 -45,27.3913c-24.85281,0 -45,-12.26351 -45,-27.3913c0,-15.1278 20.14719,-27.3913 45.00001,-27.3913c24.85281,0 45,12.26351 45,27.3913z" fill="#bfff56" stroke-width="0"/><path d="M270.21741,360.21742c0,15.1278 -20.14719,27.3913 -45,27.3913c-24.85281,0 -45,-12.26351 -45,-27.3913c0,-15.1278 20.14719,-27.3913 45,-27.3913c24.85281,0 45,12.26351 45,27.3913z" fill="#bfff56" stroke-width="0"/><path d="M245.86958,354.13047c0,15.1278 -20.14719,27.3913 -45,27.3913c-24.85281,0 -45,-12.26351 -45,-27.3913c0,-15.1278 20.14719,-27.39131 45,-27.39131c24.85281,0 45,12.26351 45,27.39131z" fill="#bfff56" stroke-width="0"/><path d="M320.00001,362.39134c0,15.1278 -20.14718,27.39131 -45,27.39131c-24.85281,0 -45,-12.26351 -45,-27.39131c0,-15.1278 20.14719,-27.3913 45,-27.3913c24.85282,0 45,12.26351 45,27.3913z" fill="#bfff56" stroke-width="0"/><path d="M295.65218,356.30437c0,15.1278 -20.14718,27.3913 -45,27.3913c-24.85281,0 -45,-12.26351 -45,-27.3913c0,-15.1278 20.14719,-27.3913 45,-27.3913c24.85282,0 45,12.26351 45,27.3913z" fill="#bfff56" stroke-width="0"/><path d="M375.8696,361.52177c0,15.1278 -20.14718,27.3913 -45,27.3913c-24.85282,0 -45,-12.26351 -45,-27.3913c0,-15.1278 20.14718,-27.3913 45,-27.3913c24.85282,0 45,12.26351 45,27.3913z" fill="#bfff56" stroke-width="0"/><path d="M351.52176,355.43482c0,15.1278 -20.14718,27.39131 -45,27.39131c-24.85282,0 -45.00001,-12.26351 -45.00001,-27.39131c0,-15.1278 20.14719,-27.3913 45.00001,-27.3913c24.85282,0 45,12.26351 45,27.3913z" fill="#bfff56" stroke-width="0"/><path d="M439.13047,361.52177c0,15.1278 -20.14718,27.3913 -45,27.3913c-24.85282,0 -45,-12.26351 -45,-27.3913c0,-15.1278 20.14718,-27.3913 45,-27.3913c24.85282,0 45,12.26351 45,27.3913z" fill="#bfff56" stroke-width="0"/><path d="M414.78265,355.43482c0,15.1278 -20.14718,27.39131 -45,27.39131c-24.85282,0 -45.00001,-12.26351 -45.00001,-27.39131c0,-15.1278 20.14719,-27.3913 45.00001,-27.3913c24.85282,0 45,12.26351 45,27.3913z" fill="#bfff56" stroke-width="0"/><path d="M495.00003,360.65221c0,15.1278 -20.14718,27.3913 -45,27.3913c-24.85282,0 -45,-12.26351 -45,-27.3913c0,-15.1278 20.14718,-27.3913 45,-27.3913c24.85282,0 45,12.26351 45,27.3913z" fill="#bfff56" stroke-width="0"/><path d="M470.6522,354.56525c0,15.1278 -20.14718,27.3913 -45,27.3913c-24.85282,0 -45,-12.26351 -45,-27.3913c0,-15.1278 20.14719,-27.3913 45,-27.3913c24.85282,0 45,12.26351 45,27.3913z" fill="#bfff56" stroke-width="0"/><path d="M73.04347,340.43483c0,15.1278 -20.14719,27.3913 -45,27.3913c-24.85281,0 -45,-12.26351 -45,-27.3913c0,-15.1278 20.14719,-27.3913 45.00001,-27.3913c24.85282,0 45,12.26351 45,27.3913z" fill="#6af754" stroke-width="0"/><path d="M128.91306,338.91308c0,15.1278 -20.14719,27.3913 -45,27.3913c-24.85281,0 -45,-12.26351 -45,-27.3913c0,-15.1278 20.14719,-27.3913 45.00001,-27.3913c24.85281,0 45,12.26351 45,27.3913z" fill="#6af754" stroke-width="0"/><path d="M192.17393,338.91308c0,15.1278 -20.14719,27.3913 -45,27.3913c-24.85281,0 -45,-12.26351 -45,-27.3913c0,-15.1278 20.14719,-27.3913 45.00001,-27.3913c24.85281,0 45,12.26351 45,27.3913z" fill="#6af754" stroke-width="0"/><path d="M248.0435,338.04352c0,15.1278 -20.14719,27.3913 -45,27.3913c-24.85281,0 -45,-12.26351 -45,-27.3913c0,-15.1278 20.14719,-27.39131 45,-27.39131c24.85281,0 45,12.26351 45,27.39131z" fill="#6af754" stroke-width="0"/><path d="M297.82609,340.21743c0,15.1278 -20.14718,27.3913 -45,27.3913c-24.85281,0 -45,-12.26351 -45,-27.3913c0,-15.1278 20.14719,-27.3913 45,-27.3913c24.85282,0 45,12.26351 45,27.3913z" fill="#6af754" stroke-width="0"/><path d="M353.69567,339.34787c0,15.1278 -20.14718,27.39131 -45,27.39131c-24.85282,0 -45.00001,-12.26351 -45.00001,-27.39131c0,-15.1278 20.14719,-27.3913 45.00001,-27.3913c24.85282,0 45,12.26351 45,27.3913z" fill="#6af754" stroke-width="0"/><path d="M416.95655,339.34787c0,15.1278 -20.14718,27.39131 -45,27.39131c-24.85282,0 -45.00001,-12.26351 -45.00001,-27.39131c0,-15.1278 20.14719,-27.3913 45.00001,-27.3913c24.85282,0 45,12.26351 45,27.3913z" fill="#6af754" stroke-width="0"/><path d="M497.8261,343.26092c0,15.1278 -20.14718,27.3913 -45,27.3913c-24.85282,0 -45,-12.26351 -45,-27.3913c0,-15.1278 20.14718,-27.3913 45,-27.3913c24.85282,0 45,12.26351 45,27.3913z" fill="#6af754" stroke-width="0"/><path d="M472.82611,337.82613c0,15.1278 -20.14718,27.3913 -45,27.3913c-24.85282,0 -45,-12.26351 -45,-27.3913c0,-15.1278 20.14719,-27.3913 45,-27.3913c24.85282,0 45,12.26351 45,27.3913z" fill="#6af754" stroke-width="0"/><path d="M96.30435,355.86961c0,15.1278 -20.14718,27.3913 -45,27.3913c-24.85281,0 -45,-12.26351 -45,-27.3913c0,-15.1278 20.14719,-27.3913 45.00001,-27.3913c24.85282,0 45,12.26351 45,27.3913z" fill="#8eff57" stroke-width="0"/><path d="M71.95652,349.78265c0,15.1278 -20.14719,27.3913 -45,27.3913c-24.85281,0 -45,-12.26351 -45,-27.3913c0,-15.1278 20.14719,-27.3913 45.00001,-27.3913c24.85282,0 45,12.26351 45,27.3913z" fill="#8eff57" stroke-width="0"/><path d="M152.17389,355.00005c0,15.1278 -20.14719,27.3913 -45,27.3913c-24.85281,0 -45,-12.26351 -45,-27.3913c0,-15.1278 20.14719,-27.39131 45,-27.39131c24.85281,0 45,12.26351 45,27.39131z" fill="#8eff57" stroke-width="0"/><path d="M127.82611,348.26091c0,15.1278 -20.14719,27.3913 -45,27.3913c-24.85281,0 -45,-12.26351 -45,-27.3913c0,-15.1278 20.14719,-27.3913 45.00001,-27.3913c24.85281,0 45,12.26351 45,27.3913z" fill="#8eff57" stroke-width="0"/><path d="M215.43479,355.00005c0,15.1278 -20.14719,27.3913 -45,27.3913c-24.85281,0 -45,-12.26351 -45,-27.3913c0,-15.1278 20.14719,-27.39131 45,-27.39131c24.85281,0 45,12.26351 45,27.39131z" fill="#8eff57" stroke-width="0"/><path d="M191.08698,348.26091c0,15.1278 -20.14719,27.3913 -45,27.3913c-24.85281,0 -45,-12.26351 -45,-27.3913c0,-15.1278 20.14719,-27.3913 45.00001,-27.3913c24.85281,0 45,12.26351 45,27.3913z" fill="#8eff57" stroke-width="0"/><path d="M271.30437,354.13048c0,15.1278 -20.14719,27.3913 -45,27.3913c-24.85281,0 -45,-12.26351 -45,-27.3913c0,-15.1278 20.14719,-27.3913 45,-27.3913c24.85281,0 45,12.26351 45,27.3913z" fill="#8eff57" stroke-width="0"/><path d="M246.95655,347.39135c0,15.1278 -20.14719,27.3913 -45,27.3913c-24.85281,0 -45,-12.26351 -45,-27.3913c0,-15.1278 20.14719,-27.39131 45,-27.39131c24.85281,0 45,12.26351 45,27.39131z" fill="#8eff57" stroke-width="0"/><path d="M321.08697,356.30439c0,15.1278 -20.14718,27.39131 -45,27.39131c-24.85281,0 -45,-12.26351 -45,-27.39131c0,-15.1278 20.14719,-27.3913 45,-27.3913c24.85282,0 45,12.26351 45,27.3913z" fill="#8eff57" stroke-width="0"/><path d="M296.73913,349.56526c0,15.1278 -20.14718,27.3913 -45,27.3913c-24.85281,0 -45,-12.26351 -45,-27.3913c0,-15.1278 20.14719,-27.3913 45,-27.3913c24.85282,0 45,12.26351 45,27.3913z" fill="#8eff57" stroke-width="0"/><path d="M376.95655,355.43483c0,15.1278 -20.14718,27.3913 -45,27.3913c-24.85282,0 -45,-12.26351 -45,-27.3913c0,-15.1278 20.14718,-27.3913 45,-27.3913c24.85282,0 45,12.26351 45,27.3913z" fill="#8eff57" stroke-width="0"/><path d="M352.60872,348.6957c0,15.1278 -20.14718,27.39131 -45,27.39131c-24.85282,0 -45.00001,-12.26351 -45.00001,-27.39131c0,-15.1278 20.14719,-27.3913 45.00001,-27.3913c24.85282,0 45,12.26351 45,27.3913z" fill="#8eff57" stroke-width="0"/><path d="M440.21742,355.43483c0,15.1278 -20.14718,27.3913 -45,27.3913c-24.85282,0 -45,-12.26351 -45,-27.3913c0,-15.1278 20.14718,-27.3913 45,-27.3913c24.85282,0 45,12.26351 45,27.3913z" fill="#8eff57" stroke-width="0"/><path d="M415.8696,348.6957c0,15.1278 -20.14718,27.39131 -45,27.39131c-24.85282,0 -45.00001,-12.26351 -45.00001,-27.39131c0,-15.1278 20.14719,-27.3913 45.00001,-27.3913c24.85282,0 45,12.26351 45,27.3913z" fill="#8eff57" stroke-width="0"/><path d="M496.73914,352.60874c0,15.1278 -20.14718,27.3913 -45,27.3913c-24.85282,0 -45,-12.26351 -45,-27.3913c0,-15.1278 20.14718,-27.3913 45,-27.3913c24.85282,0 45,12.26351 45,27.3913z" fill="#8eff57" stroke-width="0"/><path d="M471.73916,347.17395c0,15.1278 -20.14718,27.3913 -45,27.3913c-24.85282,0 -45,-12.26351 -45,-27.3913c0,-15.1278 20.14719,-27.3913 45,-27.3913c24.85282,0 45,12.26351 45,27.3913z" fill="#8eff57" stroke-width="0"/><path d="M95.21739,361.95657c0,15.1278 -20.14718,27.3913 -45,27.3913c-24.85281,0 -45,-12.26351 -45,-27.3913c0,-15.1278 20.14719,-27.3913 45.00001,-27.3913c24.85282,0 45,12.26351 45,27.3913z" fill="#bfff56" stroke-width="0"/><path d="M70.86956,355.86961c0,15.1278 -20.14719,27.3913 -45,27.3913c-24.85281,0 -45,-12.26351 -45,-27.3913c0,-15.1278 20.14719,-27.3913 45.00001,-27.3913c24.85282,0 45,12.26351 45,27.3913z" fill="#bfff56" stroke-width="0"/><path d="M151.08694,361.08701c0,15.1278 -20.14719,27.3913 -45,27.3913c-24.85281,0 -45,-12.26351 -45,-27.3913c0,-15.1278 20.14719,-27.39131 45,-27.39131c24.85281,0 45,12.26351 45,27.39131z" fill="#bfff56" stroke-width="0"/><path d="M126.73915,355.00004c0,15.1278 -20.14719,27.3913 -45,27.3913c-24.85281,0 -45,-12.26351 -45,-27.3913c0,-15.1278 20.14719,-27.3913 45.00001,-27.3913c24.85281,0 45,12.26351 45,27.3913z" fill="#bfff56" stroke-width="0"/><path d="M214.34783,361.08701c0,15.1278 -20.14719,27.3913 -45,27.3913c-24.85281,0 -45,-12.26351 -45,-27.3913c0,-15.1278 20.14719,-27.39131 45,-27.39131c24.85281,0 45,12.26351 45,27.39131z" fill="#bfff56" stroke-width="0"/><path d="M190.00002,355.00004c0,15.1278 -20.14719,27.3913 -45,27.3913c-24.85281,0 -45,-12.26351 -45,-27.3913c0,-15.1278 20.14719,-27.3913 45.00001,-27.3913c24.85281,0 45,12.26351 45,27.3913z" fill="#bfff56" stroke-width="0"/><path d="M270.21741,360.21744c0,15.1278 -20.14719,27.3913 -45,27.3913c-24.85281,0 -45,-12.26351 -45,-27.3913c0,-15.1278 20.14719,-27.3913 45,-27.3913c24.85281,0 45,12.26351 45,27.3913z" fill="#bfff56" stroke-width="0"/><path d="M245.86959,354.13048c0,15.1278 -20.14719,27.3913 -45,27.3913c-24.85281,0 -45,-12.26351 -45,-27.3913c0,-15.1278 20.14719,-27.39131 45,-27.39131c24.85281,0 45,12.26351 45,27.39131z" fill="#bfff56" stroke-width="0"/><path d="M320.00001,362.39135c0,15.1278 -20.14718,27.39131 -45,27.39131c-24.85281,0 -45,-12.26351 -45,-27.39131c0,-15.1278 20.14719,-27.3913 45,-27.3913c24.85282,0 45,12.26351 45,27.3913z" fill="#bfff56" stroke-width="0"/><path d="M295.65218,356.30439c0,15.1278 -20.14718,27.3913 -45,27.3913c-24.85281,0 -45,-12.26351 -45,-27.3913c0,-15.1278 20.14719,-27.3913 45,-27.3913c24.85282,0 45,12.26351 45,27.3913z" fill="#bfff56" stroke-width="0"/><path d="M375.86959,361.52179c0,15.1278 -20.14718,27.3913 -45,27.3913c-24.85282,0 -45,-12.26351 -45,-27.3913c0,-15.1278 20.14718,-27.3913 45,-27.3913c24.85282,0 45,12.26351 45,27.3913z" fill="#bfff56" stroke-width="0"/><path d="M351.52176,355.43483c0,15.1278 -20.14718,27.39131 -45,27.39131c-24.85282,0 -45.00001,-12.26351 -45.00001,-27.39131c0,-15.1278 20.14719,-27.3913 45.00001,-27.3913c24.85282,0 45,12.26351 45,27.3913z" fill="#bfff56" stroke-width="0"/><path d="M439.13046,361.52179c0,15.1278 -20.14718,27.3913 -45,27.3913c-24.85282,0 -45,-12.26351 -45,-27.3913c0,-15.1278 20.14718,-27.3913 45,-27.3913c24.85282,0 45,12.26351 45,27.3913z" fill="#bfff56" stroke-width="0"/><path d="M414.78264,355.43483c0,15.1278 -20.14718,27.39131 -45,27.39131c-24.85282,0 -45.00001,-12.26351 -45.00001,-27.39131c0,-15.1278 20.14719,-27.3913 45.00001,-27.3913c24.85282,0 45,12.26351 45,27.3913z" fill="#bfff56" stroke-width="0"/><path d="M495.00001,360.65222c0,15.1278 -20.14718,27.3913 -45,27.3913c-24.85282,0 -45,-12.26351 -45,-27.3913c0,-15.1278 20.14718,-27.3913 45,-27.3913c24.85282,0 45,12.26351 45,27.3913z" fill="#bfff56" stroke-width="0"/><path d="M470.6522,354.56526c0,15.1278 -20.14718,27.3913 -45,27.3913c-24.85282,0 -45,-12.26351 -45,-27.3913c0,-15.1278 20.14719,-27.3913 45,-27.3913c24.85282,0 45,12.26351 45,27.3913z" fill="#bfff56" stroke-width="0"/></g></g></svg>