<svg version="1.1" xmlns="http://www.w3.org/2000/svg" xmlns:xlink="http://www.w3.org/1999/xlink" width="45.38636" height="113.34366" viewBox="0,0,45.38636,113.34366"><g transform="translate(-218.5,-115.90635)"><g data-paper-data="{&quot;isPaintingLayer&quot;:true}" fill-rule="nonzero" stroke-linecap="butt" stroke-linejoin="miter" stroke-miterlimit="10" stroke-dasharray="" stroke-dashoffset="0" style="mix-blend-mode: normal"><path d="M263.63636,172.57818c0,31.16091 -9.62588,56.42183 -21.5,56.42183c-11.87412,0 -21.5,-25.26091 -21.5,-56.42183c0,-31.16091 9.62588,-56.42183 21.5,-56.42183c11.87412,0 21.5,25.26091 21.5,56.42183z" data-paper-data="{&quot;index&quot;:null}" fill="#ffffff" stroke="#400000" stroke-width="0.5"/><path d="M224.86364,139.66277c0,6.07031 -1.42455,10.99126 -3.18182,10.99126c-1.75727,0 -3.18182,-4.92096 -3.18182,-10.99126c0,-6.07031 1.42455,-10.99126 3.18182,-10.99126c1.75727,0 3.18182,4.92096 3.18182,10.99126z" data-paper-data="{&quot;index&quot;:null}" fill="#400000" stroke="none" stroke-width="0"/><path d="M234.86363,140.70955c0,5.20312 -1.42455,9.42108 -3.18182,9.42108c-1.75727,0 -3.18182,-4.21796 -3.18182,-9.42108c0,-5.20312 1.42455,-9.42108 3.18182,-9.42108c1.75727,0 3.18182,4.21796 3.18182,9.42108z" data-paper-data="{&quot;index&quot;:null}" fill="#400000" stroke="none" stroke-width="0"/></g></g></svg>