<svg version="1.1" xmlns="http://www.w3.org/2000/svg" xmlns:xlink="http://www.w3.org/1999/xlink" width="28.80122" height="25.84142" viewBox="0,0,28.80122,25.84142"><g transform="translate(-225.93752,-166.9375)"><g data-paper-data="{&quot;isPaintingLayer&quot;:true}" fill="none" fill-rule="nonzero" stroke-linecap="round" stroke-linejoin="miter" stroke-miterlimit="10" stroke-dasharray="" stroke-dashoffset="0" style="mix-blend-mode: normal"><path d="M251.84211,174.47371l-5.13158,4.73684l-1.18421,9.47369l-5.92105,1.57894l-1.57895,-11.44737l-9.86842,-5.92105" stroke="#6fc543" stroke-width="4"/><path d="M241.9737,187.89474v-9.47368l1.18421,-8.68421" stroke="#6fc543" stroke-width="4"/><path d="M245.52633,180.00001v3.55263" stroke="#6fc543" stroke-width="4"/><path d="M251.8421,174.47371l-5.13158,4.73685l-1.18421,9.47368l-5.92105,1.57894l-1.57894,-11.44737l-9.86842,-5.92105" stroke="#6fc543" stroke-width="4"/><path d="M241.9737,187.89475v-9.47369l1.18421,-8.68421" stroke="#6fc543" stroke-width="4"/><path d="M245.52633,180.00001v3.55263" stroke="#6fc543" stroke-width="4"/><path d="M238.06252,192.0625l9,-2.25l1.875,-10.125l4.875,-4.375l0.375,-1.75l-0.875,-0.75l-0.875,-0.25h-1l-0.75,0.25l-4.125,4l-1.625,1.125l-0.75,0.125l0.875,-7.125l0.25,-1.625l-0.625,-1.375l-1,-0.375l-0.875,-0.125h-0.75l-1.125,2.375l-0.875,7.375l-3,-1.25l-2.125,-1.25l-4,-2.375l-2.125,-1.25h-1.25l-0.625,0.5l-0.5,1.125v0.75l1.125,0.875l1,1l7.5,4.125l0.375,1.375l0.5,4.625z" stroke="#5ea839" stroke-width="1"/></g></g></svg>