<svg version="1.1" xmlns="http://www.w3.org/2000/svg" xmlns:xlink="http://www.w3.org/1999/xlink" width="43.5" height="149.49512" viewBox="0,0,43.5,149.49512"><g transform="translate(-223.25,-84.75488)"><g data-paper-data="{&quot;isPaintingLayer&quot;:true}" fill-rule="nonzero" stroke-linecap="butt" stroke-linejoin="miter" stroke-miterlimit="10" stroke-dasharray="" stroke-dashoffset="0" style="mix-blend-mode: normal"><path d="M266.5,159.50245c0,41.14386 -9.62588,74.49756 -21.5,74.49756c-11.87412,0 -21.5,-33.3537 -21.5,-74.49756c0,-41.14386 9.62588,-74.49756 21.5,-74.49756c11.87412,0 21.5,33.3537 21.5,74.49756z" fill="#ffffff" stroke="#400000" stroke-width="0.5"/><path d="M244.54545,126.96184c0,8.39671 -2.34033,15.20358 -5.22727,15.20358c-2.88694,0 -5.22727,-6.80687 -5.22727,-15.20358c0,-8.39671 2.34033,-15.20358 5.22727,-15.20358c2.88694,0 5.22727,6.80687 5.22727,15.20358z" fill="#400000" stroke="none" stroke-width="0"/><path d="M256.81818,127.65292c0,8.39671 -2.03507,15.20358 -4.54545,15.20358c-2.51039,0 -4.54545,-6.80687 -4.54545,-15.20358c0,-8.39671 2.03507,-15.20358 4.54545,-15.20358c2.51039,0 4.54545,6.80687 4.54545,15.20358z" fill="#400000" stroke="none" stroke-width="0"/></g></g></svg>