<svg version="1.1" xmlns="http://www.w3.org/2000/svg" xmlns:xlink="http://www.w3.org/1999/xlink" width="28.80122" height="25.8414" viewBox="0,0,28.80122,25.8414"><g transform="translate(-225.93752,-166.9375)"><g data-paper-data="{&quot;isPaintingLayer&quot;:true}" fill="none" fill-rule="nonzero" stroke-linecap="round" stroke-linejoin="miter" stroke-miterlimit="10" stroke-dasharray="" stroke-dashoffset="0" style="mix-blend-mode: normal"><path d="M251.84213,174.47368l-5.13158,4.73685l-1.18421,9.47368l-5.92105,1.57895l-1.57895,-11.44737l-9.86842,-5.92105" stroke="#7fe24d" stroke-width="4"/><path d="M241.97371,187.89473v-9.47368l1.18421,-8.68421" stroke="#7fe24d" stroke-width="4"/><path d="M245.52634,180.00001v3.55263" stroke="#7fe24d" stroke-width="4"/><path d="M236.93752,185.4375l-0.5,-4.625l-0.375,-1.375l-7.5,-4.125l-1,-1l-1.125,-0.875v-0.75l0.5,-1.125l0.625,-0.5h1.25l2.125,1.25l4,2.375l2.125,1.25l3,1.25l0.875,-7.375l1.125,-2.375h0.75l0.875,0.125l1,0.375l0.625,1.375l-0.25,1.625l-0.875,7.125l0.75,-0.125l1.625,-1.125l4.125,-4l0.75,-0.25h1l0.875,0.25l0.875,0.75l-0.375,1.75l-4.875,4.375l-1.875,10.125l-9,2.25z" stroke="#71ca45" stroke-width="1"/></g></g></svg>