<svg version="1.1" xmlns="http://www.w3.org/2000/svg" xmlns:xlink="http://www.w3.org/1999/xlink" width="49.32534" height="47.47121" viewBox="0,0,49.32534,47.47121"><g transform="translate(-207.89036,-188.22489)"><g data-paper-data="{&quot;isPaintingLayer&quot;:true}" fill-rule="nonzero" stroke-linecap="butt" stroke-linejoin="miter" stroke-miterlimit="10" stroke-dasharray="" stroke-dashoffset="0" style="mix-blend-mode: normal"><path d="M252.3213,199.88867c7.54788,11.1238 5.70134,25.54617 -4.12438,32.21326c-9.82571,6.66709 -23.9098,3.05421 -31.45769,-8.0696c-7.54788,-11.1238 -5.70134,-25.54617 4.12438,-32.21326c9.82571,-6.66709 23.9098,-3.05421 31.45769,8.0696z" data-paper-data="{&quot;index&quot;:null}" fill="#ffffff" stroke="#400000" stroke-width="0.5"/><path d="M214.26766,212.861c1.47037,2.16698 1.48353,4.72351 0.02941,5.71018c-1.45412,0.98667 -3.82489,0.02985 -5.29526,-2.13712c-1.47037,-2.16698 -1.48353,-4.72351 -0.02941,-5.71018c1.45412,-0.98667 3.82489,-0.02985 5.29526,2.13712z" data-paper-data="{&quot;index&quot;:null}" fill="#400000" stroke="none" stroke-width="0"/><path d="M222.7961,207.61988c1.26031,1.85741 1.1032,4.16299 -0.35092,5.14966c-1.45412,0.98667 -3.65461,0.28081 -4.91493,-1.5766c-1.26031,-1.85741 -1.1032,-4.16299 0.35092,-5.14966c1.45412,-0.98667 3.65461,-0.28081 4.91493,1.5766z" data-paper-data="{&quot;index&quot;:null}" fill="#400000" stroke="none" stroke-width="0"/></g></g></svg>