<svg version="1.1" xmlns="http://www.w3.org/2000/svg" xmlns:xlink="http://www.w3.org/1999/xlink" width="43.5" height="98.5" viewBox="0,0,43.5,98.5"><g transform="translate(-218.25,-130.75)"><g data-paper-data="{&quot;isPaintingLayer&quot;:true}" fill-rule="nonzero" stroke-linecap="butt" stroke-linejoin="miter" stroke-miterlimit="10" stroke-dasharray="" stroke-dashoffset="0" style="mix-blend-mode: normal"><path d="M261.5,180c0,27.06195 -9.62588,49 -21.5,49c-11.87412,0 -21.5,-21.93805 -21.5,-49c0,-27.06195 9.62588,-49 21.5,-49c11.87412,0 21.5,21.93805 21.5,49z" fill="#ffffff" stroke="#400000" stroke-width="0.5"/><path d="M239.54545,158.59675c0,5.52285 -2.34033,10 -5.22727,10c-2.88694,0 -5.22727,-4.47715 -5.22727,-10c0,-5.52285 2.34033,-10 5.22727,-10c2.88694,0 5.22727,4.47715 5.22727,10z" fill="#400000" stroke="none" stroke-width="0"/><path d="M251.81818,159.0513c0,5.52285 -2.03507,10 -4.54545,10c-2.51039,0 -4.54545,-4.47715 -4.54545,-10c0,-5.52285 2.03507,-10 4.54545,-10c2.51039,0 4.54545,4.47715 4.54545,10z" fill="#400000" stroke="none" stroke-width="0"/></g></g></svg>