<svg version="1.1" xmlns="http://www.w3.org/2000/svg" xmlns:xlink="http://www.w3.org/1999/xlink" width="514.13045" height="364.48769" viewBox="0,0,514.13045,364.48769"><g transform="translate(19.13044,-25.29492)"><g data-paper-data="{&quot;isPaintingLayer&quot;:true}" fill-rule="nonzero" stroke="none" stroke-linecap="butt" stroke-linejoin="miter" stroke-miterlimit="10" stroke-dasharray="" stroke-dashoffset="0" style="mix-blend-mode: normal"><text transform="translate(64.20654,64.18479) scale(0.89402,0.89402)" font-size="40" xml:space="preserve" fill="#fffe66" fill-rule="nonzero" stroke="none" stroke-width="1" stroke-linecap="butt" stroke-linejoin="miter" stroke-miterlimit="10" stroke-dasharray="" stroke-dashoffset="0" font-family="Sans Serif" font-weight="normal" text-anchor="start" style="mix-blend-mode: normal"><tspan x="0" dy="0">Graß-Zupf Simulator</tspan></text><path d="M95.21739,361.95654c0,15.1278 -20.14719,27.39131 -45,27.39131c-24.85281,0 -45,-12.26351 -45,-27.39131c0,-15.1278 20.14719,-27.39131 45,-27.39131c24.85281,0 45,12.26351 45,27.39131z" fill="#bfff56" stroke-width="0"/><path d="M70.86956,355.86958c0,15.1278 -20.14719,27.3913 -45,27.3913c-24.85281,0 -45,-12.26351 -45,-27.3913c0,-15.1278 20.14719,-27.39131 45.00001,-27.39131c24.85281,0 45,12.26351 45,27.39131z" fill="#bfff56" stroke-width="0"/><path d="M151.08695,361.08697c0,15.1278 -20.14718,27.3913 -45,27.3913c-24.85282,0 -45,-12.26351 -45,-27.3913c0,-15.1278 20.14719,-27.3913 45,-27.3913c24.85281,0 45,12.26351 45,27.3913z" fill="#bfff56" stroke-width="0"/><path d="M126.73913,355.00001c0,15.1278 -20.14719,27.3913 -45,27.3913c-24.85282,0 -45.00001,-12.26351 -45.00001,-27.3913c0,-15.1278 20.14719,-27.3913 45.00001,-27.3913c24.85281,0 45,12.26351 45,27.3913z" fill="#bfff56" stroke-width="0"/><path d="M214.34783,361.08697c0,15.1278 -20.14718,27.3913 -45,27.3913c-24.85281,0 -45,-12.26351 -45,-27.3913c0,-15.1278 20.14718,-27.3913 45,-27.3913c24.85282,0 45,12.26351 45,27.3913z" fill="#bfff56" stroke-width="0"/><path d="M190.00001,355.00001c0,15.1278 -20.14718,27.3913 -45,27.3913c-24.85281,0 -45,-12.26351 -45,-27.3913c0,-15.1278 20.14719,-27.3913 45,-27.3913c24.85282,0 45,12.26351 45,27.3913z" fill="#bfff56" stroke-width="0"/><path d="M270.2174,360.21741c0,15.1278 -20.14719,27.3913 -45,27.3913c-24.85282,0 -45,-12.26351 -45,-27.3913c0,-15.1278 20.14718,-27.39131 45,-27.39131c24.85282,0 45,12.26351 45,27.39131z" fill="#bfff56" stroke-width="0"/><path d="M245.86956,354.13045c0,15.1278 -20.14718,27.3913 -45,27.3913c-24.85281,0 -45.00001,-12.26351 -45.00001,-27.3913c0,-15.1278 20.14719,-27.3913 45.00001,-27.3913c24.85281,0 45,12.26351 45,27.3913z" fill="#bfff56" stroke-width="0"/><path d="M320.00001,362.39132c0,15.1278 -20.14719,27.3913 -45,27.3913c-24.85282,0 -45,-12.26351 -45,-27.3913c0,-15.1278 20.14718,-27.3913 45,-27.3913c24.85281,0 45,12.26351 45,27.3913z" fill="#bfff56" stroke-width="0"/><path d="M295.65218,356.30436c0,15.1278 -20.14719,27.3913 -45,27.3913c-24.85282,0 -45,-12.26351 -45,-27.3913c0,-15.1278 20.14719,-27.3913 45,-27.3913c24.85281,0 45,12.26351 45,27.3913z" fill="#bfff56" stroke-width="0"/><path d="M375.86958,361.52176c0,15.1278 -20.14719,27.3913 -45,27.3913c-24.85282,0 -45,-12.26351 -45,-27.3913c0,-15.1278 20.14718,-27.39131 45,-27.39131c24.85281,0 45,12.26351 45,27.39131z" fill="#bfff56" stroke-width="0"/><path d="M351.52175,355.4348c0,15.1278 -20.14718,27.3913 -45,27.3913c-24.85281,0 -45,-12.26351 -45,-27.3913c0,-15.1278 20.14719,-27.3913 45,-27.3913c24.85282,0 45,12.26351 45,27.3913z" fill="#bfff56" stroke-width="0"/><path d="M439.13045,361.52176c0,15.1278 -20.14719,27.3913 -45,27.3913c-24.85282,0 -45,-12.26351 -45,-27.3913c0,-15.1278 20.14719,-27.39131 45,-27.39131c24.85281,0 45,12.26351 45,27.39131z" fill="#bfff56" stroke-width="0"/><path d="M414.78263,355.4348c0,15.1278 -20.14718,27.3913 -45,27.3913c-24.85281,0 -45,-12.26351 -45,-27.3913c0,-15.1278 20.14719,-27.3913 45,-27.3913c24.85282,0 45,12.26351 45,27.3913z" fill="#bfff56" stroke-width="0"/><path d="M495.00001,360.65219c0,15.1278 -20.14718,27.3913 -45,27.3913c-24.85281,0 -45,-12.26351 -45,-27.3913c0,-15.1278 20.14719,-27.3913 45,-27.3913c24.85282,0 45,12.26351 45,27.3913z" fill="#bfff56" stroke-width="0"/><path d="M470.65219,354.56523c0,15.1278 -20.14719,27.3913 -45,27.3913c-24.85282,0 -45.00001,-12.26351 -45.00001,-27.3913c0,-15.1278 20.14719,-27.39131 45.00001,-27.39131c24.85281,0 45,12.26351 45,27.39131z" fill="#bfff56" stroke-width="0"/></g></g></svg>