<svg version="1.1" xmlns="http://www.w3.org/2000/svg" xmlns:xlink="http://www.w3.org/1999/xlink" width="45.38636" height="86.76874" viewBox="0,0,45.38636,86.76874"><g transform="translate(-218.25,-142.48127)"><g data-paper-data="{&quot;isPaintingLayer&quot;:true}" fill-rule="nonzero" stroke-linecap="butt" stroke-linejoin="miter" stroke-miterlimit="10" stroke-dasharray="" stroke-dashoffset="0" style="mix-blend-mode: normal"><path d="M240,142.73127c11.87412,0 21.5,19.31191 21.5,43.13437c0,23.82244 -9.62588,43.13437 -21.5,43.13437c-11.87412,0 -21.5,-19.31191 -21.5,-43.13437c0,-23.82244 9.62588,-43.13437 21.5,-43.13437z" data-paper-data="{&quot;index&quot;:null}" fill="#ffffff" stroke="#400000" stroke-width="0.5"/><path d="M260.45454,158.6217c1.75727,0 3.18182,3.76205 3.18182,8.4028c0,4.64073 -1.42455,8.4028 -3.18182,8.4028c-1.75727,0 -3.18182,-3.76205 -3.18182,-8.4028c0,-4.64073 1.42455,-8.4028 3.18182,-8.4028z" data-paper-data="{&quot;index&quot;:null}" fill="#400000" stroke="none" stroke-width="0"/><path d="M250.45455,160.62236c1.75727,0 3.18182,3.22463 3.18182,7.2024c0,3.97778 -1.42455,7.2024 -3.18182,7.2024c-1.75727,0 -3.18182,-3.22463 -3.18182,-7.2024c0,-3.97778 1.42455,-7.2024 3.18182,-7.2024z" data-paper-data="{&quot;index&quot;:null}" fill="#400000" stroke="none" stroke-width="0"/></g></g></svg>