<svg version="1.1" xmlns="http://www.w3.org/2000/svg" xmlns:xlink="http://www.w3.org/1999/xlink" width="45.38636" height="98.5" viewBox="0,0,45.38636,98.5"><g transform="translate(-218.25,-130.75)"><g data-paper-data="{&quot;isPaintingLayer&quot;:true}" fill-rule="nonzero" stroke-linecap="butt" stroke-linejoin="miter" stroke-miterlimit="10" stroke-dasharray="" stroke-dashoffset="0" style="mix-blend-mode: normal"><path d="M240,131c11.87412,0 21.5,21.93805 21.5,49c0,27.06195 -9.62588,49 -21.5,49c-11.87412,0 -21.5,-21.93805 -21.5,-49c0,-27.06195 9.62588,-49 21.5,-49z" data-paper-data="{&quot;index&quot;:null}" fill="#ffffff" stroke="#400000" stroke-width="0.5"/><path d="M260.45454,149.0513c1.75727,0 3.18182,4.27364 3.18182,9.54545c0,5.2718 -1.42455,9.54545 -3.18182,9.54545c-1.75727,0 -3.18182,-4.27364 -3.18182,-9.54545c0,-5.2718 1.42455,-9.54545 3.18182,-9.54545z" data-paper-data="{&quot;index&quot;:null}" fill="#400000" stroke="none" stroke-width="0"/><path d="M250.45455,151.32402c1.75727,0 3.18182,3.66313 3.18182,8.18182c0,4.5187 -1.42455,8.18182 -3.18182,8.18182c-1.75727,0 -3.18182,-3.66313 -3.18182,-8.18182c0,-4.5187 1.42455,-8.18182 3.18182,-8.18182z" data-paper-data="{&quot;index&quot;:null}" fill="#400000" stroke="none" stroke-width="0"/></g></g></svg>