<svg version="1.1" xmlns="http://www.w3.org/2000/svg" xmlns:xlink="http://www.w3.org/1999/xlink" width="64.4964" height="137.97427" viewBox="0,0,64.4964,137.97427"><g transform="translate(-233.526,-97.25194)"><g data-paper-data="{&quot;isPaintingLayer&quot;:true}" fill-rule="nonzero" stroke-linecap="butt" stroke-linejoin="miter" stroke-miterlimit="10" stroke-dasharray="" stroke-dashoffset="0" style="mix-blend-mode: normal"><path d="M285.98388,173.57521c-13.70056,37.74244 -33.85523,65.05425 -45.01673,61.00261c-11.16149,-4.05164 -9.10318,-37.93244 4.59737,-75.67489c13.70056,-37.74244 33.85523,-65.05425 45.01673,-61.00261c11.16149,4.05164 9.10318,37.93244 -4.59737,75.67489z" data-paper-data="{&quot;index&quot;:null}" fill="#ffffff" stroke="#400000" stroke-width="0.5"/><path d="M260.37385,130.49492c-2.66894,7.35243 -6.1716,12.82666 -7.8234,12.22705c-1.65181,-0.59961 -0.82726,-7.04601 1.84168,-14.39842c2.66894,-7.35243 6.1716,-12.82666 7.8234,-12.22705c1.65181,0.59961 0.82726,7.04601 -1.84168,14.39842z" data-paper-data="{&quot;index&quot;:null}" fill="#400000" stroke="none" stroke-width="0"/><path d="M269.31345,135.17495c-2.28766,6.30207 -5.48124,10.92485 -7.13304,10.32524c-1.65181,-0.59961 -1.13635,-6.19452 1.15132,-12.49661c2.28766,-6.30207 5.48124,-10.92485 7.13304,-10.32524c1.65181,0.59961 1.13635,6.19452 -1.15132,12.49661z" data-paper-data="{&quot;index&quot;:null}" fill="#400000" stroke="none" stroke-width="0"/></g></g></svg>