<svg version="1.1" xmlns="http://www.w3.org/2000/svg" xmlns:xlink="http://www.w3.org/1999/xlink" width="74" height="71" viewBox="0,0,74,71"><g transform="translate(-203,-144.5)"><g data-paper-data="{&quot;isPaintingLayer&quot;:true}" fill="none" fill-rule="nonzero" stroke-linejoin="miter" stroke-miterlimit="10" stroke-dasharray="" stroke-dashoffset="0" style="mix-blend-mode: normal"><path d="M276,180c0,19.05382 -16.11775,34.5 -36,34.5c-19.88225,0 -36,-15.44618 -36,-34.5c0,-19.05382 16.11775,-34.5 36,-34.5c19.88225,0 36,15.44618 36,34.5z" stroke="#000000" stroke-width="2" stroke-linecap="butt"/><path d="M214.04072,200.05945c0,0 -3.53664,-4.35278 -5.26394,-9.42669c-1.55425,-4.56559 -1.32269,-9.74715 -1.238,-12.31606c0.07387,-2.24086 0.39983,-6.71671 2.13117,-10.78556c1.89836,-4.46137 5.55073,-8.77057 5.55073,-8.77057" stroke="#f8eaff" stroke-width="5" stroke-linecap="round"/><path d="M263.93648,157.91775c0,0 4.31732,4.59985 6.64565,9.96528c1.87293,4.316 1.8639,9.30587 1.81656,11.43596c-0.04986,2.24376 0.16077,6.29055 -1.13229,10.20488c-1.7525,5.30516 -5.13854,10.367 -5.13854,10.367" stroke="#efc2ff" stroke-width="5" stroke-linecap="round"/><path d="M217.41206,157.07492c0,0 5.60906,-4.69977 10.97462,-6.52172c4.51836,-1.53428 9.67934,-1.59184 12.11899,-1.56589c1.99857,0.02126 5.98329,0.12029 9.51761,1.27531c5.70461,1.86426 11.04757,5.12664 11.04757,5.12664" stroke="#fffdff" stroke-width="5" stroke-linecap="round"/><path d="M264.44219,202.92509c0,0 -6.81275,4.83751 -13.1053,7.03417c-4.4285,1.54594 -8.76634,1.52072 -10.69248,1.54236c-2.25752,0.02536 -7.69289,-0.44331 -12.20314,-2.14255c-6.00907,-2.26393 -12.71489,-6.93969 -12.71489,-6.93969" stroke="#f3d1ff" stroke-width="5" stroke-linecap="round"/></g></g></svg>