<svg version="1.1" xmlns="http://www.w3.org/2000/svg" xmlns:xlink="http://www.w3.org/1999/xlink" width="43.5" height="87.00814" viewBox="0,0,43.5,87.00814"><g transform="translate(-218.25,-142.24186)"><g data-paper-data="{&quot;isPaintingLayer&quot;:true}" fill-rule="nonzero" stroke-linecap="butt" stroke-linejoin="miter" stroke-miterlimit="10" stroke-dasharray="" stroke-dashoffset="0" style="mix-blend-mode: normal"><path d="M261.5,185.74593c0,23.88856 -9.62588,43.25407 -21.5,43.25407c-11.87412,0 -21.5,-19.36551 -21.5,-43.25407c0,-23.88856 9.62588,-43.25407 21.5,-43.25407c11.87412,0 21.5,19.36551 21.5,43.25407z" fill="#ffffff" stroke="#400000" stroke-width="0.5"/><path d="M239.54545,166.85251c0,4.87522 -2.34033,8.82736 -5.22727,8.82736c-2.88694,0 -5.22727,-3.95214 -5.22727,-8.82736c0,-4.87522 2.34033,-8.82736 5.22727,-8.82736c2.88694,0 5.22727,3.95214 5.22727,8.82736z" fill="#400000" stroke="none" stroke-width="0"/><path d="M251.81818,167.25375c0,4.87522 -2.03507,8.82736 -4.54545,8.82736c-2.51039,0 -4.54545,-3.95214 -4.54545,-8.82736c0,-4.87522 2.03507,-8.82736 4.54545,-8.82736c2.51039,0 4.54545,3.95214 4.54545,8.82736z" fill="#400000" stroke="none" stroke-width="0"/></g></g></svg>