<svg version="1.1" xmlns="http://www.w3.org/2000/svg" xmlns:xlink="http://www.w3.org/1999/xlink" width="64.4964" height="137.97427" viewBox="0,0,64.4964,137.97427"><g transform="translate(-184.20679,-92.22425)"><g data-paper-data="{&quot;isPaintingLayer&quot;:true}" fill-rule="nonzero" stroke-linecap="butt" stroke-linejoin="miter" stroke-miterlimit="10" stroke-dasharray="" stroke-dashoffset="0" style="mix-blend-mode: normal"><path d="M191.64794,92.87263c11.1615,-4.05164 31.31617,23.26017 45.01673,61.00261c13.70055,37.74245 15.75886,71.62325 4.59737,75.67489c-11.1615,4.05164 -31.31617,-23.26017 -45.01673,-61.00261c-13.70055,-37.74245 -15.75886,-71.62325 -4.59737,-75.67489z" data-paper-data="{&quot;index&quot;:null}" fill="#ffffff" stroke="#400000" stroke-width="0.5"/><path d="M220.01366,111.06881c1.6518,-0.59961 5.15446,4.87462 7.8234,12.22705c2.66894,7.35241 3.49349,13.79881 1.84168,14.39842c-1.6518,0.59961 -5.15446,-4.87462 -7.8234,-12.22705c-2.66894,-7.35241 -3.49349,-13.79881 -1.84168,-14.39842z" data-paper-data="{&quot;index&quot;:null}" fill="#400000" stroke="none" stroke-width="0"/><path d="M211.76442,117.65065c1.6518,-0.59961 4.84538,4.02317 7.13304,10.32524c2.28767,6.30209 2.80313,11.897 1.15132,12.49661c-1.6518,0.59961 -4.84538,-4.02317 -7.13304,-10.32524c-2.28767,-6.30209 -2.80313,-11.897 -1.15132,-12.49661z" data-paper-data="{&quot;index&quot;:null}" fill="#400000" stroke="none" stroke-width="0"/></g></g></svg>