<svg version="1.1" xmlns="http://www.w3.org/2000/svg" xmlns:xlink="http://www.w3.org/1999/xlink" width="53.85942" height="145.03886" viewBox="0,0,53.85942,145.03886"><g transform="translate(-211.78337,-100.03565)"><g data-paper-data="{&quot;isPaintingLayer&quot;:true}" fill-rule="nonzero" stroke-linejoin="miter" stroke-miterlimit="10" stroke-dasharray="" stroke-dashoffset="0" style="mix-blend-mode: normal"><path d="M219.68247,210.77778l0.91945,-60.22439h9.19457l-0.91946,58.61534z" fill="#5574de" stroke="#000000" stroke-width="0.5" stroke-linecap="round"/><path d="M228.87703,152.39229l9.6543,-0.68959l-0.91945,57.0063h-9.19457z" fill="#ff8517" stroke="#000000" stroke-width="0.5" stroke-linecap="round"/><path d="M239.22092,149.63392l6.66606,-0.91945l-1.83891,60.91398l-6.66606,-0.91945z" fill="#5574de" stroke="#000000" stroke-width="0.5" stroke-linecap="round"/><path d="M221.72031,152.2698l2.55016,16.58676l-8.57637,1.67219l-3.60909,-17.34139z" data-paper-data="{&quot;index&quot;:null}" fill="#5574de" stroke="#000000" stroke-width="0.5" stroke-linecap="round"/><path d="M223.18899,166.57779l6.60028,12.37112l-8.42322,4.23346l-5.34267,-11.4789z" data-paper-data="{&quot;index&quot;:null}" fill="#5574de" stroke="#000000" stroke-width="0.5" stroke-linecap="round"/><path d="M226.38773,180.33321l2.29074,-1.09486l1.97044,0.16539l1.21758,1.14799l2.47258,2.80861l-0.05837,4.84863l-1.54836,2.79288l-1.93826,1.68755l-4.68848,-0.6885l-4.12272,-4.23423l-2.31242,-3.43872l1.50571,-1.96519z" data-paper-data="{&quot;index&quot;:null}" fill="#ffffff" stroke="#000000" stroke-width="0.5" stroke-linecap="round"/><path d="M243.58833,208.47913v15.40089l-6.89593,-1.14932l0.68959,-13.56198z" fill="#3a9c36" stroke="#000000" stroke-width="0.5" stroke-linecap="round"/><path d="M243.58833,223.4203l-0.45972,12.87239l-6.89593,0.91945l0.68959,-14.7113z" fill="#3a9c36" stroke="#000000" stroke-width="0.5" stroke-linecap="round"/><path d="M235.31323,237.0589l9.88415,-0.45973l2.98824,1.83891l0.91945,2.75837l-1.14932,1.83892l-2.98824,0.68959l-8.73483,0.68959l-1.37919,-1.14932z" fill="#9c3636" stroke="#000000" stroke-width="0.5" stroke-linecap="round"/><path d="M226.06165,209.57145l0.68959,13.56198l-6.89593,1.14932v-15.4009z" data-paper-data="{&quot;index&quot;:null}" fill="#3a9c36" stroke="#000000" stroke-width="0.5" stroke-linecap="round"/><path d="M226.52138,223.36329l0.68959,14.7113l-6.89593,-0.91945l-0.45972,-12.87239z" data-paper-data="{&quot;index&quot;:null}" fill="#3a9c36" stroke="#000000" stroke-width="0.5" stroke-linecap="round"/><path d="M228.13043,243.66795l-1.37919,1.14932l-8.73483,-0.68959l-2.98824,-0.68959l-1.14932,-1.83891l0.91945,-2.75837l2.98824,-1.83891l9.88416,0.45973z" data-paper-data="{&quot;index&quot;:null}" fill="#9c3636" stroke="#000000" stroke-width="0.5" stroke-linecap="round"/><path d="M234.16391,125.80468l2.06877,0.45973h4.36742l2.06877,1.83892l1.37919,4.59728l-0.22987,5.51674l0.45973,6.66606l-0.91945,3.67783l-1.37919,1.83891l-3.2181,1.37919l-7.58551,-0.22987l-3.2181,-0.22986l-3.44797,-1.60905l-0.68959,-6.89593l-0.68959,-4.13755l1.60905,-6.66605l2.75837,-3.90769l2.75837,-1.14932l2.5285,-0.91946z" fill="#ffece7" stroke="#000000" stroke-width="0.5" stroke-linecap="round"/><path d="M243.58837,131.32142l-0.91946,-2.06878l-1.14932,-1.83891l-1.60905,-0.91946l-5.05701,-0.68959h-2.06878l-5.05701,1.83891l-2.06878,2.52851l-2.06878,5.28687l-0.91946,2.75837l-1.37918,-0.68959l-0.45973,-2.29864l-0.91946,-1.60905l-0.45973,-2.06878l-0.22986,-1.60905v-1.83891v-2.29864l0.22986,-2.75837l1.37918,-3.2181l0.91946,-2.98823l1.37918,-1.60905l1.14932,-1.37918l0.68959,-1.37918l1.14932,-2.29864l0.91946,-2.98823l0.45973,-2.75837l2.06878,-1.83891l1.37918,-0.68959l1.83891,-1.14932l2.75837,-0.45973l3.44796,0.68959l2.29864,2.29864l0.45973,3.44796l0.22986,2.29864l0.45973,2.98823l0.22986,2.52851l2.75837,1.83891l0.68959,2.98823l1.14932,3.90769v2.52851v4.59728l-0.45973,2.98823l-0.68959,1.60905l-2.29864,1.37918z" fill="#9c5436" stroke="#000000" stroke-width="0.5" stroke-linecap="round"/><path d="M232.96188,148.67656l-2.6889,-0.33611l-1.84862,-1.17639l-0.63287,-1.7113" fill="none" stroke="#ff0000" stroke-width="1" stroke-linecap="round"/><path d="M240.38068,135.91252c0,1.68388 -1.01278,3.04894 -2.26212,3.04894c-1.24933,0 -2.26212,-1.36506 -2.26212,-3.04894c0,-1.68388 1.01278,-3.04894 2.26212,-3.04894c1.24933,0 2.26212,1.36506 2.26212,3.04894z" fill="#66ffd7" stroke="#000000" stroke-width="0.5" stroke-linecap="butt"/><path d="M232.00467,135.99487c0,1.68389 -1.01278,3.04894 -2.26212,3.04894c-1.24934,0 -2.26212,-1.36505 -2.26212,-3.04894c0,-1.68389 1.01278,-3.04895 2.26212,-3.04895c1.24934,0 2.26212,1.36506 2.26212,3.04895z" fill="#66ffd7" stroke="#000000" stroke-width="0.5" stroke-linecap="butt"/><path d="M229.06185,136.40428c0,-0.27614 0.22386,-0.5 0.5,-0.5c0.27614,0 0.5,0.22386 0.5,0.5c0,0.27614 -0.22386,0.5 -0.5,0.5c-0.27614,0 -0.5,-0.22386 -0.5,-0.5z" fill="#000000" stroke="none" stroke-width="0.5" stroke-linecap="butt"/><path d="M237.52021,136.20758c0,-0.27614 0.22386,-0.5 0.5,-0.5c0.27614,0 0.5,0.22386 0.5,0.5c0,0.27614 -0.22386,0.5 -0.5,0.5c-0.27614,0 -0.5,-0.22386 -0.5,-0.5z" fill="#000000" stroke="none" stroke-width="0.5" stroke-linecap="butt"/><path d="M248.88607,152.23955l3.48409,17.36693l-8.54476,1.82678l-4.16204,-16.25735z" fill="#5574de" stroke="#000000" stroke-width="0.5" stroke-linecap="round"/><path d="M251.05602,167.69157l7.85131,9.93308l-7.56849,5.62057l-8.08286,-11.45757z" fill="#5574de" stroke="#000000" stroke-width="0.5" stroke-linecap="round"/><path d="M257.9523,176.45537l2.35616,-0.76004l2.4649,3.33114l2.60773,5.30333l-0.92258,4.64811l-2.23954,1.26062l-3.15029,0.52284l-4.58781,-1.56993l-1.81755,-3.27085l-0.67355,-1.5319l0.50453,-1.91192l1.79923,-1.79134z" fill="#ffffff" stroke="#000000" stroke-width="0.5" stroke-linecap="round"/></g></g></svg>