<svg version="1.1" xmlns="http://www.w3.org/2000/svg" xmlns:xlink="http://www.w3.org/1999/xlink" width="46.09068" height="145.03886" viewBox="0,0,46.09068,145.03886"><g transform="translate(-211.78337,-100.03565)"><g data-paper-data="{&quot;isPaintingLayer&quot;:true}" fill-rule="nonzero" stroke-linejoin="miter" stroke-miterlimit="10" stroke-dasharray="" stroke-dashoffset="0" style="mix-blend-mode: normal"><path d="M219.68247,210.77778l0.91945,-60.22439h9.19457l-0.91946,58.61534z" fill="#5574de" stroke="#000000" stroke-width="0.5" stroke-linecap="round"/><path d="M228.87703,152.39229l9.6543,-0.68959l-0.91945,57.0063h-9.19457z" fill="#ff8517" stroke="#000000" stroke-width="0.5" stroke-linecap="round"/><path d="M239.22092,149.63392l6.66606,-0.91945l-1.83891,60.91398l-6.66606,-0.91945z" fill="#5574de" stroke="#000000" stroke-width="0.5" stroke-linecap="round"/><path d="M249.19844,149.72584l2.99969,17.45712l-8.59227,1.58841l-3.70824,-16.36682z" fill="#5574de" stroke="#000000" stroke-width="0.5" stroke-linecap="round"/><path d="M252.021,167.45553l3.29904,12.22397l-9.17141,2.18128l-2.91078,-13.71626z" fill="#5574de" stroke="#000000" stroke-width="0.5" stroke-linecap="round"/><path d="M254.55005,179.37294l2.43944,0.42224l0.63406,4.09514l-0.15619,5.90772l-2.97738,3.68663l-2.56886,0.07518l-3.03231,-1.00139l-3.33234,-3.52252l-0.08892,-3.74086l0.11569,-1.66943l1.33541,-1.45831l2.4257,-0.74975z" fill="#ffffff" stroke="#000000" stroke-width="0.5" stroke-linecap="round"/><path d="M221.72031,152.2698l2.55016,16.58676l-8.57637,1.67219l-3.60909,-17.34139z" data-paper-data="{&quot;index&quot;:null}" fill="#5574de" stroke="#000000" stroke-width="0.5" stroke-linecap="round"/><path d="M224.38305,168.13844l2.32038,13.82838l-9.33253,1.33291l-1.41207,-12.58234z" data-paper-data="{&quot;index&quot;:null}" fill="#5574de" stroke="#000000" stroke-width="0.5" stroke-linecap="round"/><path d="M223.26497,182.31072l2.53169,-0.19174l1.77706,0.8672l0.71966,1.51079l1.28871,3.513l-1.80893,4.49893l-2.45406,2.04333l-2.41756,0.87182l-4.12162,-2.33841l-2.31115,-5.43913l-0.91139,-4.04246l2.11479,-1.28716z" data-paper-data="{&quot;index&quot;:null}" fill="#ffffff" stroke="#000000" stroke-width="0.5" stroke-linecap="round"/><path d="M243.58833,208.47913v15.40089l-6.89593,-1.14932l0.68959,-13.56198z" fill="#3a9c36" stroke="#000000" stroke-width="0.5" stroke-linecap="round"/><path d="M243.58833,223.4203l-0.45972,12.87239l-6.89593,0.91945l0.68959,-14.7113z" fill="#3a9c36" stroke="#000000" stroke-width="0.5" stroke-linecap="round"/><path d="M235.31323,237.0589l9.88415,-0.45973l2.98824,1.83891l0.91945,2.75837l-1.14932,1.83892l-2.98824,0.68959l-8.73483,0.68959l-1.37919,-1.14932z" fill="#9c3636" stroke="#000000" stroke-width="0.5" stroke-linecap="round"/><path d="M226.06165,209.57145l0.68959,13.56198l-6.89593,1.14932v-15.4009z" data-paper-data="{&quot;index&quot;:null}" fill="#3a9c36" stroke="#000000" stroke-width="0.5" stroke-linecap="round"/><path d="M226.52138,223.36329l0.68959,14.7113l-6.89593,-0.91945l-0.45972,-12.87239z" data-paper-data="{&quot;index&quot;:null}" fill="#3a9c36" stroke="#000000" stroke-width="0.5" stroke-linecap="round"/><path d="M228.13043,243.66795l-1.37919,1.14932l-8.73483,-0.68959l-2.98824,-0.68959l-1.14932,-1.83891l0.91945,-2.75837l2.98824,-1.83891l9.88416,0.45973z" data-paper-data="{&quot;index&quot;:null}" fill="#9c3636" stroke="#000000" stroke-width="0.5" stroke-linecap="round"/><path d="M234.16391,125.80468l2.06877,0.45973h4.36742l2.06877,1.83892l1.37919,4.59728l-0.22987,5.51674l0.45973,6.66606l-0.91945,3.67783l-1.37919,1.83891l-3.2181,1.37919l-7.58551,-0.22987l-3.2181,-0.22986l-3.44797,-1.60905l-0.68959,-6.89593l-0.68959,-4.13755l1.60905,-6.66605l2.75837,-3.90769l2.75837,-1.14932l2.5285,-0.91946z" fill="#ffece7" stroke="#000000" stroke-width="0.5" stroke-linecap="round"/><path d="M243.58837,131.32142l-0.91946,-2.06878l-1.14932,-1.83891l-1.60905,-0.91946l-5.05701,-0.68959h-2.06878l-5.05701,1.83891l-2.06878,2.52851l-2.06878,5.28687l-0.91946,2.75837l-1.37918,-0.68959l-0.45973,-2.29864l-0.91946,-1.60905l-0.45973,-2.06878l-0.22986,-1.60905v-1.83891v-2.29864l0.22986,-2.75837l1.37918,-3.2181l0.91946,-2.98823l1.37918,-1.60905l1.14932,-1.37918l0.68959,-1.37918l1.14932,-2.29864l0.91946,-2.98823l0.45973,-2.75837l2.06878,-1.83891l1.37918,-0.68959l1.83891,-1.14932l2.75837,-0.45973l3.44796,0.68959l2.29864,2.29864l0.45973,3.44796l0.22986,2.29864l0.45973,2.98823l0.22986,2.52851l2.75837,1.83891l0.68959,2.98823l1.14932,3.90769v2.52851v4.59728l-0.45973,2.98823l-0.68959,1.60905l-2.29864,1.37918z" fill="#9c5436" stroke="#000000" stroke-width="0.5" stroke-linecap="round"/><path d="M232.96188,148.67656l-2.6889,-0.33611l-1.84862,-1.17639l-0.63287,-1.7113" fill="none" stroke="#ff0000" stroke-width="1" stroke-linecap="round"/><path d="M240.38068,135.91252c0,1.68388 -1.01278,3.04894 -2.26212,3.04894c-1.24933,0 -2.26212,-1.36506 -2.26212,-3.04894c0,-1.68388 1.01278,-3.04894 2.26212,-3.04894c1.24933,0 2.26212,1.36506 2.26212,3.04894z" fill="#66ffd7" stroke="#000000" stroke-width="0.5" stroke-linecap="butt"/><path d="M232.00467,135.99487c0,1.68389 -1.01278,3.04894 -2.26212,3.04894c-1.24934,0 -2.26212,-1.36505 -2.26212,-3.04894c0,-1.68389 1.01278,-3.04895 2.26212,-3.04895c1.24934,0 2.26212,1.36506 2.26212,3.04895z" fill="#66ffd7" stroke="#000000" stroke-width="0.5" stroke-linecap="butt"/><path d="M229.06185,136.40428c0,-0.27614 0.22386,-0.5 0.5,-0.5c0.27614,0 0.5,0.22386 0.5,0.5c0,0.27614 -0.22386,0.5 -0.5,0.5c-0.27614,0 -0.5,-0.22386 -0.5,-0.5z" fill="#000000" stroke="none" stroke-width="0.5" stroke-linecap="butt"/><path d="M237.52021,136.20758c0,-0.27614 0.22386,-0.5 0.5,-0.5c0.27614,0 0.5,0.22386 0.5,0.5c0,0.27614 -0.22386,0.5 -0.5,0.5c-0.27614,0 -0.5,-0.22386 -0.5,-0.5z" fill="#000000" stroke="none" stroke-width="0.5" stroke-linecap="butt"/></g></g></svg>