<svg version="1.1" xmlns="http://www.w3.org/2000/svg" xmlns:xlink="http://www.w3.org/1999/xlink" width="79.51709" height="112.11681" viewBox="0,0,79.51709,112.11681"><g transform="translate(-181.67037,-160.28045)"><g data-paper-data="{&quot;isPaintingLayer&quot;:true}" fill-rule="nonzero" stroke-width="0.5" stroke-linejoin="miter" stroke-miterlimit="10" stroke-dasharray="" stroke-dashoffset="0" style="mix-blend-mode: normal"><path d="M245.27685,233.11826l0.22987,12.41266h-9.65429l-0.91946,-11.4932z" data-paper-data="{&quot;index&quot;:null}" fill="#000000" stroke="#000000" stroke-linecap="round"/><path d="M245.52999,243.52619l0.68959,12.64252l-10.34388,-0.68959l-0.45972,-9.88416z" data-paper-data="{&quot;index&quot;:null}" fill="#000000" stroke="#000000" stroke-linecap="round"/><path d="M244.57366,256.08921v2.06878v2.98823l3.2181,1.14932l2.5285,0.22986l5.28688,0.91946l2.29864,0.68959l1.83891,0.91946l1.14932,3.67783l-2.98823,2.06877l-4.13755,0.91946l-4.82715,-0.22986l-4.13756,-0.68959l-3.90769,-0.22986l-2.75837,-0.91946l-0.91945,-4.59728l0.22986,-9.42443z" data-paper-data="{&quot;index&quot;:null}" fill="#a20000" stroke="#000000" stroke-linecap="round"/><path d="M217.64347,234.21057l-0.91945,11.4932h-9.6543l0.22987,-12.41266z" data-paper-data="{&quot;index&quot;:null}" fill="#000000" stroke="#000000" stroke-linecap="round"/><path d="M217.41361,246.52724l-0.45972,9.88416l-10.34388,0.68959l0.68959,-12.64252z" data-paper-data="{&quot;index&quot;:null}" fill="#000000" stroke="#000000" stroke-linecap="round"/><path d="M215.3817,256.05547l0.22986,9.42443l-0.91945,4.59728l-2.75837,0.91945l-3.90769,0.22987l-4.13756,0.68959l-4.82714,0.22986l-4.13756,-0.91945l-2.98823,-2.06878l1.14932,-3.67782l1.83891,-0.91946l2.29864,-0.68959l5.28688,-0.91945l2.5285,-0.22987l3.2181,-1.14932v-2.98823v-2.06878z" data-paper-data="{&quot;index&quot;:null}" fill="#a20000" stroke="#000000" stroke-linecap="round"/><g data-paper-data="{&quot;index&quot;:null}"><g><path d="M213.79227,170.72416l1.37918,-0.91945l1.83891,-0.91946l1.37919,-0.68959h2.06878l1.60905,-0.22987h1.60905h3.44796l1.83892,0.45973l3.67782,1.83891l1.14932,1.60905l0.91946,2.06878l0.22986,2.52851l-0.22986,2.29864l-0.45973,2.5285l-0.45973,2.5285l-0.45973,2.06878l-1.14932,5.51674l-2.06877,-0.45973l-3.2181,-0.45972h-3.2181l-2.06878,0.45972l-2.29864,0.68959l-0.22986,-1.60905l-0.68959,-2.5285l-0.91945,-1.14932l-1.37919,-0.6896l-1.37918,-0.45972l-1.37919,-0.45973l-1.14932,-0.91945l-1.37918,-2.29864l-0.22987,-2.52851v-2.98823l0.45973,-2.29864z" fill="#ffc7c7" stroke="#000000" stroke-linecap="round"/><path d="M210.80403,176.39414l-1.37919,-0.91946v-3.90769l2.29864,-4.82715l1.60905,-0.91945l3.67782,-0.22987l2.75837,-0.45973l4.13755,0.22986h3.67783l3.2181,0.22986l2.75837,0.91945l2.06878,2.06878l1.14932,3.2181l-0.91946,1.37919l-2.5285,-2.29864l-2.5285,-1.37919l-2.29864,-0.91945l-4.82715,-0.91946h-2.75837l-5.05701,1.14932l-3.67783,4.13755z" fill="#ffd200" stroke="#000000" stroke-linecap="round"/><path d="M235.16963,167.42944l-2.98824,-1.14932l-4.36741,-1.60905l-8.73484,0.45973l-4.36741,0.22986l-2.52851,2.06877l-1.83891,1.14933l-0.91945,3.67783l-0.22986,-1.83892l-0.45973,-2.98824l1.60905,-3.44796l3.44797,-2.06877l2.5285,-0.68959l3.67782,-0.45973l2.75837,-0.22986l2.29864,0.68959l2.5285,0.45973l2.5285,0.45973l2.06877,-1.14932l2.06878,0.68959l2.06878,2.75837v1.83891l-0.46248,1.89198z" fill="#fff500" stroke="#000000" stroke-linecap="round"/><path d="M224.9621,179.56646l-0.02019,-0.0325c0.07148,0.16361 0.09408,0.35113 0.08413,0.54605l0.27997,0.05599l-0.11606,0.58028c-0.04197,0.23369 -0.24633,0.41102 -0.49211,0.41102c-0.21462,0 -0.39766,-0.13522 -0.46856,-0.32512l-0.01436,-0.03589c-0.3691,0.1001 -0.55366,-0.269 -0.55366,-0.269c-0.68874,-1.45235 0.41482,-2.62057 1.03142,-1.38526c0.26942,0.12334 0.26942,0.45442 0.26942,0.45442z" fill="#ff8800" stroke="none" stroke-linecap="butt"/><path d="M226.05339,173.08346c2.05063,0 3.71299,0.81799 3.71299,1.82703c0,1.00904 -1.66236,1.82703 -3.71299,1.82703c-2.05063,0 -3.71299,-0.81799 -3.71299,-1.82703c0,-1.00904 1.66236,-1.82703 3.71299,-1.82703z" fill="#717171" stroke="#000000" stroke-linecap="butt"/><path d="M215.51337,173.6043c2.05063,0 3.71299,0.81799 3.71299,1.82703c0,1.00904 -1.66235,1.82703 -3.71299,1.82703c-2.05063,0 -3.71299,-0.81799 -3.71299,-1.82703c0,-1.00904 1.66236,-1.82703 3.71299,-1.82703z" fill="#717171" stroke="#000000" stroke-linecap="butt"/><path d="M219.15783,174.35155h0.47149c1.09061,0.00416 1.96287,0.15625 2.93468,0.64215c0,0 0.44721,0.22361 0.22361,0.67082c-0.22361,0.44721 -0.67082,0.22361 -0.67082,0.22361c-0.82809,-0.41405 -1.54601,-0.54082 -2.48746,-0.53658h-0.47149c0,0 -0.5,0 -0.5,-0.5c0,-0.5 0.5,-0.5 0.5,-0.5z" fill="#000000" stroke="none" stroke-linecap="butt"/><path d="M234.47789,175.80811l-0.44828,-0.11265c-1.22657,-0.25095 -2.77395,-0.46743 -4.02749,-0.46178c0,0 -0.5,0 -0.5,-0.5c0,-0.5 0.5,-0.5 0.5,-0.5c1.32124,0.00503 2.92701,0.22692 4.2236,0.4812l0.4947,0.12309c0,0 0.48507,0.12127 0.3638,0.60634c-0.12127,0.48507 -0.60634,0.3638 -0.60634,0.3638z" fill="#000000" stroke="none" stroke-linecap="butt"/><path d="M210.28887,176.50177l0.05279,-0.34148c0.24555,-0.41754 0.70606,-0.73186 1.17426,-0.85605c0,0 0.49029,-0.09806 0.58835,0.39223c0.09806,0.49029 -0.39223,0.58835 -0.39223,0.58835c-0.15309,0.00994 -0.32977,0.09337 -0.42322,0.22018c-0.00106,0.04284 -0.02354,0.49677 -0.49995,0.49677c-0.5,0 -0.5,-0.5 -0.5,-0.5zM211.23609,176.6075l0.04764,-0.09543c-0.02086,0.02965 -0.03718,0.06158 -0.04764,0.09543z" fill="#000000" stroke="none" stroke-linecap="butt"/><path d="M233.74352,176.09133l0.01839,-0.03677l0.07088,0.03544c0.06888,-0.10877 0.19216,-0.2061 0.41275,-0.2061c0.5,0 0.5,0.5 0.5,0.5c-0.13418,3.90893 -5.80308,-0.45822 -1.09236,-0.36875z" fill="#ffb9b9" stroke="none" stroke-linecap="butt"/></g><path d="M232.27021,182.74902l-0.0068,0.31794c-0.21291,1.09194 -0.80042,1.44246 -1.45493,2.29293c-2.37829,1.4575 -9.9414,2.97503 -10.6115,-0.87846c0,0 -0.0822,-0.4932 0.411,-0.5754c0.4932,-0.0822 0.5754,0.411 0.5754,0.411c0.20926,1.3262 0.85315,0.75584 2.02652,1.14161c2.4226,0.79647 4.72454,0.43956 6.92884,-0.84134c0.4694,-0.64617 1.03993,-0.91871 1.13827,-1.71474l-0.0068,-0.15355c0,0 0,-0.5 0.5,-0.5c0.5,0 0.5,0.5 0.5,0.5z" fill="#ff0000" stroke="none" stroke-linecap="butt"/></g><g data-paper-data="{&quot;index&quot;:null}" stroke="#000000" stroke-linecap="round"><path d="M248.74808,208.86224l0.22987,2.29864v4.36742l0.22986,3.44796v5.51674l-0.22986,5.05701l-2.52851,4.36742l-37.23798,-0.22986l-3.2181,-1.37919l-2.98824,-4.59728l-0.45972,-5.51674l-0.45973,-5.28687l0.22986,-5.97647l0.68959,-4.13755l0.45973,-5.05701l0.22986,-3.44797l0.68959,-2.75837l0.45973,-2.52851l2.75837,-2.06877l31.95111,-0.45973l2.29864,0.68959l2.06877,2.06878l1.37919,3.67782l1.14932,1.60905l1.37919,4.36742l0.68959,4.59728z" fill="#ffffff"/><path d="M225.47768,195.7068l-3.59692,-4.46018l7.76934,-0.57551l-2.4459,5.32344l1.72652,2.30203l1.29489,1.72652l0.86326,2.15815l0.43163,2.58978v2.30203l-0.14388,3.88467l-1.29489,4.17242l-1.43877,4.74793l-4.46018,-7.04996l-0.86326,-1.00714l-1.58264,-3.74079l-0.14388,-3.02141l0.14388,-3.16529l0.43163,-2.15815l1.00714,-1.15101z" fill="#ff0000"/></g><path d="M208.06578,199.64145l-4.45106,6.13802l-1.67153,3.53961l-0.68625,1.70607l-10.28049,-3.39193l0.47777,-4.26755l3.42647,-6.05464l3.59324,-4.00544z" data-paper-data="{&quot;index&quot;:null}" fill="#ffffff" stroke="#000000" stroke-linecap="round"/><path d="M200.67481,212.19272l-7.28251,8.28871l-8.37754,-6.13664l7.84747,-9.62822z" data-paper-data="{&quot;index&quot;:null}" fill="#ffffff" stroke="#000000" stroke-linecap="round"/><path d="M184.84424,221.03603l-1.46496,-1.4787l-1.24489,-2.48285l-0.20634,-1.93951l0.97662,-1.57501l3.19813,-0.66717l2.3247,1.87759l1.49937,1.80194l4.57373,4.58052l0.20634,1.93951l-2.26963,1.71258l-1.43743,0.31639l-1.50623,-0.33011z" data-paper-data="{&quot;index&quot;:null}" fill="#ffc7c7" stroke="#000000" stroke-linecap="round"/><path d="M254.05166,196.22272l-0.93099,5.29983l-2.64565,6.43426l-3.06129,3.01144l-9.01704,-5.99055l0.91796,-1.59342l1.75149,-3.50074l2.07844,-7.29159z" data-paper-data="{&quot;index&quot;:null}" fill="#ffffff" stroke="#000000" stroke-linecap="round"/><path d="M247.37954,210.44686l-8.8982,8.66646l-6.85194,-7.80335l7.61374,-7.98551z" data-paper-data="{&quot;index&quot;:null}" fill="#ffffff" stroke="#000000" stroke-linecap="round"/><path d="M228.47938,214.30138l-0.17856,-1.5316l0.45789,-1.39882l1.92996,-2.08792l1.90934,0.39835l4.10257,5.00689l1.64378,1.67125l1.63692,2.50001l-0.98215,3.11585l-1.66439,0.81502l-1.90936,-0.39836l-2.34661,-1.48582l-1.32555,-1.60487z" data-paper-data="{&quot;index&quot;:null}" fill="#ffc7c7" stroke="#000000" stroke-linecap="round"/></g></g></svg>