<svg version="1.1" xmlns="http://www.w3.org/2000/svg" xmlns:xlink="http://www.w3.org/1999/xlink" width="47.46844" height="145.03888" viewBox="0,0,47.46844,145.03888"><g transform="translate(-209.02199,-100.03563)"><g data-paper-data="{&quot;isPaintingLayer&quot;:true}" fill-rule="nonzero" stroke-linejoin="miter" stroke-miterlimit="10" stroke-dasharray="" stroke-dashoffset="0" style="mix-blend-mode: normal"><path d="M219.68247,210.77778l0.91945,-60.22439h9.19457l-0.91946,58.61534z" fill="#5574de" stroke="#000000" stroke-width="0.5" stroke-linecap="round"/><path d="M228.41731,208.709h9.19457l0.91945,-57.0063l-9.6543,0.68959z" fill="#ff8517" stroke="#000000" stroke-width="0.5" stroke-linecap="round"/><path d="M237.38201,208.709l6.66606,0.91945l1.83891,-60.91398l-6.66606,0.91945z" fill="#5574de" stroke="#000000" stroke-width="0.5" stroke-linecap="round"/><path d="M245.19738,149.63392l0.22986,16.78008l8.73483,0.22987l0.6896,-17.69954z" fill="#5574de" stroke="#000000" stroke-width="0.5" stroke-linecap="round"/><path d="M245.19738,165.72441v14.02171l9.42443,-0.22986l-0.68959,-12.64253z" fill="#5574de" stroke="#000000" stroke-width="0.5" stroke-linecap="round"/><path d="M248.41548,179.97599l-2.5285,0.22986l-1.60905,1.14932l-0.45973,1.60905l-0.68959,3.67783l2.5285,4.13755l2.75837,1.60905l2.52851,0.45973l3.67783,-2.98824l1.37918,-5.7466l0.22987,-4.13755l-2.29864,-0.91945z" fill="#ffffff" stroke="#000000" stroke-width="0.5" stroke-linecap="round"/><path d="M220.54491,151.18596l-0.22986,16.78008l-8.73484,0.22987l-0.68959,-17.69954z" data-paper-data="{&quot;index&quot;:null}" fill="#5574de" stroke="#000000" stroke-width="0.5" stroke-linecap="round"/><path d="M220.54491,167.27645v14.02171l-9.42443,-0.22986l0.68959,-12.64253z" data-paper-data="{&quot;index&quot;:null}" fill="#5574de" stroke="#000000" stroke-width="0.5" stroke-linecap="round"/><path d="M217.09695,181.0683l2.52851,0.22986l1.60905,1.14932l0.45972,1.60905l0.68959,3.67783l-2.5285,4.13755l-2.75837,1.60905l-2.5285,0.45973l-3.67782,-2.98824l-1.37919,-5.7466l-0.22986,-4.13755l2.29864,-0.91945z" data-paper-data="{&quot;index&quot;:null}" fill="#ffffff" stroke="#000000" stroke-width="0.5" stroke-linecap="round"/><path d="M243.58833,208.47913v15.40089l-6.89593,-1.14932l0.68959,-13.56198z" fill="#3a9c36" stroke="#000000" stroke-width="0.5" stroke-linecap="round"/><path d="M236.92227,222.50084l-0.68959,14.7113l6.89593,-0.91945l0.45972,-12.87239z" fill="#3a9c36" stroke="#000000" stroke-width="0.5" stroke-linecap="round"/><path d="M235.31323,237.0589l9.88415,-0.45973l2.98824,1.83891l0.91945,2.75837l-1.14932,1.83892l-2.98824,0.68959l-8.73483,0.68959l-1.37919,-1.14932z" fill="#9c3636" stroke="#000000" stroke-width="0.5" stroke-linecap="round"/><path d="M226.06165,209.57145l0.68959,13.56198l-6.89593,1.14932v-15.4009z" data-paper-data="{&quot;index&quot;:null}" fill="#3a9c36" stroke="#000000" stroke-width="0.5" stroke-linecap="round"/><path d="M226.52138,223.36329l0.68959,14.7113l-6.89593,-0.91945l-0.45972,-12.87239z" data-paper-data="{&quot;index&quot;:null}" fill="#3a9c36" stroke="#000000" stroke-width="0.5" stroke-linecap="round"/><path d="M228.13043,243.66795l-1.37919,1.14932l-8.73483,-0.68959l-2.98824,-0.68959l-1.14932,-1.83891l0.91945,-2.75837l2.98824,-1.83891l9.88416,0.45973z" data-paper-data="{&quot;index&quot;:null}" fill="#9c3636" stroke="#000000" stroke-width="0.5" stroke-linecap="round"/><path d="M234.16391,125.80468l2.06877,0.45973h4.36742l2.06877,1.83892l1.37919,4.59728l-0.22987,5.51674l0.45973,6.66606l-0.91945,3.67783l-1.37919,1.83891l-3.2181,1.37919l-7.58551,-0.22987l-3.2181,-0.22986l-3.44797,-1.60905l-0.68959,-6.89593l-0.68959,-4.13755l1.60905,-6.66605l2.75837,-3.90769l2.75837,-1.14932l2.5285,-0.91946z" fill="#ffece7" stroke="#000000" stroke-width="0.5" stroke-linecap="round"/><path d="M243.8182,136.37843l2.29864,-1.37918l0.68959,-1.60905l0.45973,-2.98823v-4.59728v-2.52851l-1.14932,-3.90769l-0.68959,-2.98823l-2.75837,-1.83891l-0.22986,-2.52851l-0.45973,-2.98823l-0.22986,-2.29864l-0.45973,-3.44796l-2.29864,-2.29864l-3.44796,-0.68959l-2.75837,0.45973l-1.83891,1.14932l-1.37918,0.68959l-2.06878,1.83891l-0.45973,2.75837l-0.91946,2.98823l-1.14932,2.29864l-0.68959,1.37918l-1.14932,1.37918l-1.37918,1.60905l-0.91946,2.98823l-1.37918,3.2181l-0.22986,2.75837v2.29864v1.83891l0.22986,1.60905l0.45973,2.06878l0.91946,1.60905l0.45973,2.29864l1.37918,0.68959l0.91946,-2.75837l2.06878,-5.28687l2.06878,-2.52851l5.05701,-1.83891h2.06878l5.05701,0.68959l1.60905,0.91946l1.14932,1.83891l0.91946,2.06878z" fill="#9c5436" stroke="#000000" stroke-width="0.5" stroke-linecap="round"/><path d="M232.96188,148.67656l-2.6889,-0.33611l-1.84862,-1.17639l-0.63287,-1.7113" fill="none" stroke="#ff0000" stroke-width="1" stroke-linecap="round"/><path d="M240.38068,135.91252c0,1.68388 -1.01278,3.04894 -2.26212,3.04894c-1.24933,0 -2.26212,-1.36506 -2.26212,-3.04894c0,-1.68388 1.01278,-3.04894 2.26212,-3.04894c1.24933,0 2.26212,1.36506 2.26212,3.04894z" fill="#66ffd7" stroke="#000000" stroke-width="0.5" stroke-linecap="butt"/><path d="M232.00467,135.99487c0,1.68389 -1.01278,3.04894 -2.26212,3.04894c-1.24934,0 -2.26212,-1.36505 -2.26212,-3.04894c0,-1.68389 1.01278,-3.04895 2.26212,-3.04895c1.24934,0 2.26212,1.36506 2.26212,3.04895z" fill="#66ffd7" stroke="#000000" stroke-width="0.5" stroke-linecap="butt"/><path d="M229.06185,136.40428c0,-0.27614 0.22386,-0.5 0.5,-0.5c0.27614,0 0.5,0.22386 0.5,0.5c0,0.27614 -0.22386,0.5 -0.5,0.5c-0.27614,0 -0.5,-0.22386 -0.5,-0.5z" fill="#000000" stroke="none" stroke-width="0.5" stroke-linecap="butt"/><path d="M237.52021,136.20758c0,-0.27614 0.22386,-0.5 0.5,-0.5c0.27614,0 0.5,0.22386 0.5,0.5c0,0.27614 -0.22386,0.5 -0.5,0.5c-0.27614,0 -0.5,-0.22386 -0.5,-0.5z" fill="#000000" stroke="none" stroke-width="0.5" stroke-linecap="butt"/></g></g></svg>