<svg version="1.1" xmlns="http://www.w3.org/2000/svg" xmlns:xlink="http://www.w3.org/1999/xlink" width="47.46844" height="145.03886" viewBox="0,0,47.46844,145.03886"><g transform="translate(-209.02201,-100.03565)"><g data-paper-data="{&quot;isPaintingLayer&quot;:true}" fill-rule="nonzero" stroke-linejoin="miter" stroke-miterlimit="10" stroke-dasharray="" stroke-dashoffset="0" style="mix-blend-mode: normal"><path d="M219.68248,210.77779l0.91945,-60.22439h9.19457l-0.91946,58.61534z" fill="#5574de" stroke="#000000" stroke-width="0.5" stroke-linecap="round"/><path d="M228.87704,152.39229l9.6543,-0.68959l-0.91945,57.0063h-9.19457z" fill="#ff8517" stroke="#000000" stroke-width="0.5" stroke-linecap="round"/><path d="M239.22093,149.63393l6.66606,-0.91945l-1.83891,60.91398l-6.66606,-0.91945z" fill="#5574de" stroke="#000000" stroke-width="0.5" stroke-linecap="round"/><path d="M254.85168,148.94434l-0.6896,17.69954l-8.73483,-0.22987l-0.22986,-16.78008z" fill="#5574de" stroke="#000000" stroke-width="0.5" stroke-linecap="round"/><path d="M253.93223,166.87374l0.68959,12.64253l-9.42443,0.22986v-14.02171z" fill="#5574de" stroke="#000000" stroke-width="0.5" stroke-linecap="round"/><path d="M253.93224,179.05655l2.29864,0.91945l-0.22987,4.13755l-1.37918,5.7466l-3.67783,2.98824l-2.52851,-0.45973l-2.75837,-1.60905l-2.5285,-4.13755l0.68959,-3.67783l0.45973,-1.60905l1.60905,-1.14932l2.5285,-0.22986z" fill="#ffffff" stroke="#000000" stroke-width="0.5" stroke-linecap="round"/><path d="M220.54492,151.18597l-0.22986,16.78008l-8.73484,0.22987l-0.68959,-17.69954z" data-paper-data="{&quot;index&quot;:null}" fill="#5574de" stroke="#000000" stroke-width="0.5" stroke-linecap="round"/><path d="M220.54492,167.27646v14.02171l-9.42443,-0.22986l0.68959,-12.64253z" data-paper-data="{&quot;index&quot;:null}" fill="#5574de" stroke="#000000" stroke-width="0.5" stroke-linecap="round"/><path d="M217.09696,181.06831l2.52851,0.22986l1.60905,1.14932l0.45972,1.60905l0.68959,3.67783l-2.5285,4.13755l-2.75837,1.60905l-2.5285,0.45973l-3.67782,-2.98824l-1.37919,-5.7466l-0.22986,-4.13755l2.29864,-0.91945z" data-paper-data="{&quot;index&quot;:null}" fill="#ffffff" stroke="#000000" stroke-width="0.5" stroke-linecap="round"/><path d="M243.58834,208.47914v15.40089l-6.89593,-1.14932l0.68959,-13.56198z" fill="#3a9c36" stroke="#000000" stroke-width="0.5" stroke-linecap="round"/><path d="M243.58834,223.42031l-0.45972,12.87239l-6.89593,0.91945l0.68959,-14.7113z" fill="#3a9c36" stroke="#000000" stroke-width="0.5" stroke-linecap="round"/><path d="M235.31324,237.05891l9.88415,-0.45973l2.98824,1.83891l0.91945,2.75837l-1.14932,1.83892l-2.98824,0.68959l-8.73483,0.68959l-1.37919,-1.14932z" fill="#9c3636" stroke="#000000" stroke-width="0.5" stroke-linecap="round"/><path d="M226.06166,209.57146l0.68959,13.56198l-6.89593,1.14932v-15.4009z" data-paper-data="{&quot;index&quot;:null}" fill="#3a9c36" stroke="#000000" stroke-width="0.5" stroke-linecap="round"/><path d="M226.52139,223.3633l0.68959,14.7113l-6.89593,-0.91945l-0.45972,-12.87239z" data-paper-data="{&quot;index&quot;:null}" fill="#3a9c36" stroke="#000000" stroke-width="0.5" stroke-linecap="round"/><path d="M228.13044,243.66796l-1.37919,1.14932l-8.73483,-0.68959l-2.98824,-0.68959l-1.14932,-1.83891l0.91945,-2.75837l2.98824,-1.83891l9.88416,0.45973z" data-paper-data="{&quot;index&quot;:null}" fill="#9c3636" stroke="#000000" stroke-width="0.5" stroke-linecap="round"/><path d="M234.16392,125.80469l2.06877,0.45973h4.36742l2.06877,1.83892l1.37919,4.59728l-0.22987,5.51674l0.45973,6.66606l-0.91945,3.67783l-1.37919,1.83891l-3.2181,1.37919l-7.58551,-0.22987l-3.2181,-0.22986l-3.44797,-1.60905l-0.68959,-6.89593l-0.68959,-4.13755l1.60905,-6.66605l2.75837,-3.90769l2.75837,-1.14932l2.5285,-0.91946z" fill="#ffece7" stroke="#000000" stroke-width="0.5" stroke-linecap="round"/><path d="M243.58838,131.32143l-0.91946,-2.06878l-1.14932,-1.83891l-1.60905,-0.91946l-5.05701,-0.68959h-2.06878l-5.05701,1.83891l-2.06878,2.52851l-2.06878,5.28687l-0.91946,2.75837l-1.37918,-0.68959l-0.45973,-2.29864l-0.91946,-1.60905l-0.45973,-2.06878l-0.22986,-1.60905v-1.83891v-2.29864l0.22986,-2.75837l1.37918,-3.2181l0.91946,-2.98823l1.37918,-1.60905l1.14932,-1.37918l0.68959,-1.37918l1.14932,-2.29864l0.91946,-2.98823l0.45973,-2.75837l2.06878,-1.83891l1.37918,-0.68959l1.83891,-1.14932l2.75837,-0.45973l3.44796,0.68959l2.29864,2.29864l0.45973,3.44796l0.22986,2.29864l0.45973,2.98823l0.22986,2.52851l2.75837,1.83891l0.68959,2.98823l1.14932,3.90769v2.52851v4.59728l-0.45973,2.98823l-0.68959,1.60905l-2.29864,1.37918z" fill="#9c5436" stroke="#000000" stroke-width="0.5" stroke-linecap="round"/><path d="M240.38069,135.91252c0,1.68388 -1.01278,3.04894 -2.26212,3.04894c-1.24933,0 -2.26212,-1.36506 -2.26212,-3.04894c0,-1.68388 1.01278,-3.04894 2.26212,-3.04894c1.24933,0 2.26212,1.36506 2.26212,3.04894z" fill="#66ffd7" stroke="#000000" stroke-width="0.5" stroke-linecap="butt"/><path d="M232.00468,135.99488c0,1.68389 -1.01278,3.04894 -2.26212,3.04894c-1.24934,0 -2.26212,-1.36505 -2.26212,-3.04894c0,-1.68389 1.01278,-3.04895 2.26212,-3.04895c1.24934,0 2.26212,1.36506 2.26212,3.04895z" fill="#66ffd7" stroke="#000000" stroke-width="0.5" stroke-linecap="butt"/><path d="M229.06186,136.40428c0,-0.27614 0.22386,-0.5 0.5,-0.5c0.27614,0 0.5,0.22386 0.5,0.5c0,0.27614 -0.22386,0.5 -0.5,0.5c-0.27614,0 -0.5,-0.22386 -0.5,-0.5z" fill="#000000" stroke="none" stroke-width="0.5" stroke-linecap="butt"/><path d="M237.52022,136.20759c0,-0.27614 0.22386,-0.5 0.5,-0.5c0.27614,0 0.5,0.22386 0.5,0.5c0,0.27614 -0.22386,0.5 -0.5,0.5c-0.27614,0 -0.5,-0.22386 -0.5,-0.5z" fill="#000000" stroke="none" stroke-width="0.5" stroke-linecap="butt"/><path d="M227.68131,133.28878l3.72749,5.01777" fill="none" stroke="#000000" stroke-width="2" stroke-linecap="round"/><path d="M232.12562,132.71532l-4.8744,6.45142" fill="none" stroke="#000000" stroke-width="2" stroke-linecap="round"/><path d="M235.70974,132.57195l4.58767,5.73459" fill="none" stroke="#000000" stroke-width="2" stroke-linecap="round"/><path d="M240.58415,132.85868l-5.16113,5.59123" fill="none" stroke="#000000" stroke-width="2" stroke-linecap="round"/><path d="M228.39814,148.05535l2.00711,-1.14692l5.44786,-0.28673l3.44076,2.58057" fill="none" stroke="#ff0000" stroke-width="1" stroke-linecap="round"/></g></g></svg>