<svg version="1.1" xmlns="http://www.w3.org/2000/svg" xmlns:xlink="http://www.w3.org/1999/xlink" width="62.216" height="63.36821" viewBox="0,0,62.216,63.36821"><g transform="translate(-209,-149.00678)"><g data-paper-data="{&quot;isPaintingLayer&quot;:true}" fill-rule="nonzero" stroke="none" stroke-linecap="butt" stroke-linejoin="miter" stroke-miterlimit="10" stroke-dasharray="" stroke-dashoffset="0" style="mix-blend-mode: normal"><g stroke-width="1"><path d="M268.083,183.402c0,14.527 -12.525,26.307 -27.978,26.307c-15.453,0 -27.977,-11.775 -27.977,-26.307c0,-14.527 12.523,-21.275 27.977,-21.275c15.452,-0.001 27.978,6.749 27.978,21.275z" fill="#ec1c2c"/><g fill="#231f20"><path d="M271.216,183.121c0,16.156 -13.927,29.254 -31.109,29.254c-17.179,0 -31.107,-13.098 -31.107,-29.254c0,-14.238 10.821,-20.648 25.149,-21.972c0,0 4.528,-0.58 9.136,-0.189c15.684,0.73 27.931,7.017 27.931,22.161zM266.47,183.55c0,-12.602 -10.007,-18.984 -22.949,-19.92c0,0 -8.207,0.115 -8.456,0.144c-12.145,1.341 -21.314,7.71 -21.314,19.774c0,13.686 11.798,24.785 26.357,24.785c14.558,0 26.356,-11.097 26.362,-24.783z"/><path d="M249.06,170.065c-3.568,0.181 -6.986,0.271 -10.561,0.672c-2.387,0.268 -4.687,0.289 -6.455,-1.514c-0.384,-0.395 0.118,-1.076 0.598,-0.773c1.182,0.741 2.373,1.041 3.571,1.099c0.078,0.064 4.274,-0.49 6.19,-1.098c2.312,-0.63 4.626,-1.15 6.929,-0.389c1.101,0.364 0.888,1.942 -0.272,2.003z"/></g><path d="M221.555,183.261c0,3.431 1.85,6.212 -0.084,6.212c-1.934,0 -3.5,-2.781 -3.5,-6.212c0,-3.43 1.566,-6.211 3.5,-6.211c1.934,0 0.084,2.782 0.084,6.211z" fill="#ffffff"/></g><g stroke-width="1"><path d="M233.116,153.686c1.021,-0.61 2.039,-1.222 3.059,-1.833c0.734,1.128 1.472,2.229 2.064,3.482c2.162,4.564 1.686,9.385 1.624,14.212c-0.375,0.089 -0.977,0.153 -1.348,0.219c0.258,-6.148 -1.205,-11.784 -5.399,-16.08z" fill="#99661d"/><path d="M242.297,167.438c0,0 -0.23,1.876 -0.251,2.23c0,0 -3.771,1.124 -5.25,0.562l-0.046,-1.609c0.03,-3.215 -0.97,-6.668 -1.562,-7.749c-0.283,-0.516 -1.423,-3.466 -4.9,-6.557c-0.596,-0.527 -0.395,-1.515 0.242,-1.898c1.807,-1.084 3.609,-2.168 5.414,-3.252c0.58,-0.347 1.265,-0.088 1.658,0.435c5.528,7.358 4.864,17.077 4.695,17.838zM239.761,168.152c0.112,-4.442 0.49,-8.57 -1.522,-12.817c-0.592,-1.253 -1.33,-2.354 -2.064,-3.482c-1.02,0.611 -2.038,1.223 -3.059,1.833c3.962,4.058 5.58,8.969 5.53,14.683v1.152l1.109,-0.141z" fill="#231f20"/></g><path d="M222.4972,177.88114c0,-3.03757 2.46243,-5.5 5.5,-5.5c3.03757,0 5.5,2.46243 5.5,5.5c0,3.03757 -2.46243,5.5 -5.5,5.5c-3.03757,0 -5.5,-2.46243 -5.5,-5.5z" fill="#9d00ff" stroke-width="0.5"/><path d="M248.18639,178.68392c0,-3.03757 2.46243,-5.5 5.5,-5.5c3.03757,0 5.5,2.46243 5.5,5.5c0,3.03757 -2.46243,5.5 -5.5,5.5c-3.03757,0 -5.5,-2.46243 -5.5,-5.5z" fill="#9d00ff" stroke-width="0.5"/><path d="M237.32345,196.26405c4.07454,0.15861 6.63076,0.84003 9.67895,-1.773c1.57657,-1.35149 1.63326,-4.59603 4.20517,-5.11042c5.08475,-1.01695 6.99153,0.25424 8.00848,5.33899c0.30088,1.50441 -1.368,3.22887 -2.2327,4.37397c-2.88667,3.82278 -6.20728,7.16659 -11.14418,8.40082c-11.10082,2.7752 -21.12575,-4.61144 -24.42401,-14.50625c-0.20897,-0.58124 -0.32284,-1.20785 -0.32284,-1.86105c0,-0.30952 0.02557,-0.61307 0.07471,-0.90866c0.11871,-1.31653 0.30504,-2.12071 1.45283,-2.89524c1.00117,-1.04525 2.41081,-1.69611 3.97246,-1.69611c5.95965,-1.98728 5.4653,10.43195 10.73112,10.63693z" fill="#9d00ff" stroke-width="0.5"/><path d="M242.89319,189.51389c-2.2,1.65 -3.85,-0.55 -3.85,-0.55l-0.18445,-2.13991l-0.66001,0.72713l0.10359,-1.86939c-0.46385,0.35678 -1.04473,0.56892 -1.67516,0.56892c-1.51878,0 -2.75,-1.23122 -2.75,-2.75c0,-1.51878 1.23122,-2.75 2.75,-2.75c0.8235,0 1.56247,0.36197 2.06646,0.93549c0.40512,-0.65794 1.47888,-1.92855 3.40656,-1.12535c0.81305,0.33877 1.25718,0.82945 1.48531,1.33998c0.02221,0.0124 0.04423,0.0251 0.06606,0.0381c0.41117,-0.24482 0.8916,-0.38544 1.40488,-0.38544c1.51878,0 2.75,1.23122 2.75,2.75c0,1.51878 -1.23122,2.75 -2.75,2.75c-0.38832,0 -0.75784,-0.08049 -1.09279,-0.22569c0.1807,0.77504 0.09986,1.80841 -1.07044,2.68614z" fill="#fe0000" stroke-width="0.5"/></g></g></svg>