<svg version="1.1" xmlns="http://www.w3.org/2000/svg" xmlns:xlink="http://www.w3.org/1999/xlink" width="471.50769" height="245.23462" viewBox="0,0,471.50769,245.23462"><g transform="translate(-4.24616,-57.38269)"><g data-paper-data="{&quot;isPaintingLayer&quot;:true}" fill-rule="nonzero" stroke="none" stroke-width="0.5" stroke-linecap="butt" stroke-linejoin="miter" stroke-miterlimit="10" stroke-dasharray="" stroke-dashoffset="0" style="mix-blend-mode: normal"><path d="" fill="#8d0000"/><g><g><path d="M389.23452,176.78419c8.37716,-0.56791 16.62113,-0.27727 24.67989,1.906c3.08896,0.83685 6.31085,-0.07184 9.42594,-0.12594c0.03839,-0.00066 0.07688,-0.00168 0.11548,-0.00302c-6.20073,-14.21768 -8.50609,-30.11587 -14.36873,-44.33631c-1.52973,-3.71052 -3.62928,-7.53385 -5.51423,-11.10514c-0.15793,-0.29922 -0.92509,-1.65363 -1.40696,-2.94466c-0.4588,1.72058 -1.51819,3.27599 -2.21289,4.93051c-3.7781,5.84529 -3.92975,12.82818 -6.05483,19.41415c-3.48609,10.80395 -7.85367,21.62235 -10.86212,32.62041c2.04945,-0.30966 4.22799,-0.22243 6.19844,-0.35601zM431.03575,206.41747c-2.51677,1.9796 -5.33401,1.22945 -8.11212,1.70452c-2.60703,0.44581 -5.19664,1.06594 -7.83475,1.25496c-11.68644,0.83735 -23.73903,2.60742 -35.44251,2.4641c-2.46518,-0.03019 -4.93539,-0.3466 -7.39422,-0.16715c0,0 -1.12536,0.07857 -2.03846,-0.55407c-1.09707,3.64951 -2.16846,7.32214 -3.5388,10.99697c-1.96818,5.27804 -4.55215,10.40841 -6.53494,15.72186c-0.67578,1.81094 -1.89591,3.44192 -2.26005,5.34024c-1.2789,6.66723 -0.97312,14.08669 -3.52643,20.38994c0.43775,0.78096 0.72455,1.98905 -0.4123,3.29655c-0.92027,1.0584 -1.90566,1.18392 -2.69021,1.02094c-0.67307,0.25526 -1.53913,0.2751 -2.54978,-0.37813c-0.94623,-0.6116 -1.30245,-1.34993 -1.37986,-2.03127c-3.0233,-1.89785 -6.22523,-3.75348 -9.31947,-5.39278c-4.3324,-2.29527 -9.48309,-4.81534 -10.4379,-10.42771c-0.86248,-5.06972 2.90394,-8.89173 4.05156,-13.43597c1.43598,-5.68602 3.56679,-11.72087 4.28724,-17.51876c2.57326,-8.09749 5.04507,-16.19178 7.39649,-24.32673c1.76571,-6.10865 4.95423,-11.99023 7.12599,-17.97556c2.83146,-7.80353 4.64801,-16.15184 8.17551,-23.69564c1.0524,-2.25063 2.56889,-4.25861 3.69466,-6.47345c3.97755,-9.58869 8.51031,-18.89654 12.51627,-28.50394c2.55452,-6.12644 4.24744,-12.57832 7.07848,-18.63507c1.68818,-3.61172 3.80757,-7.03575 5.43909,-10.67234c0.67094,-1.4955 0.64752,-3.43091 1.83292,-4.56294c0.67606,-0.64562 6.71447,-2.20961 8.07691,-2.58241c4.48618,-1.20931 9.62473,-2.34537 14.28437,-2.44211c1.68052,-0.03488 3.55717,-0.69483 5.04178,0.09339c4.42745,2.35068 4.05739,10.35523 5.7219,14.34598c1.62897,3.90553 4.02232,7.48894 5.65,11.3951c1.4603,3.50448 2.23418,7.41098 3.57722,10.96435c2.17774,5.76183 4.62717,10.89184 6.05191,16.96124c5.89784,12.16282 8.92893,25.15434 13.69628,37.76128c4.07874,10.78598 8.23724,22.33175 10.12696,33.90294c0.4344,2.6599 0.58351,5.3737 1.21717,7.99328c0.60856,2.25713 0.60726,4.64726 1.18639,6.91212c0.97187,3.80077 2.78607,7.46057 4.13171,11.05658c2.05376,5.48834 2.21281,11.65988 4.02039,17.20896c1.40711,4.31969 6.38135,10.02413 2.11765,14.71793c-1.1419,1.25708 -3.3391,0.62748 -4.99375,1.01001c-2.12978,0.49236 -4.37486,0.45075 -6.46834,1.0798c-2.25476,0.67752 -4.43686,1.92416 -6.79116,1.94087c-1.79577,0.01275 -3.8928,0.70757 -5.37906,-0.30039c-1.39603,-0.94677 -1.21925,-3.14926 -1.94956,-4.66977c-0.94719,-1.97205 -1.92662,-3.95655 -2.50402,-6.0667c-5.35018,-9.06167 -6.26455,-21.18296 -7.88215,-31.33125c-1.04781,-6.57368 -3.05853,-12.93514 -5.30441,-19.23193c-0.44031,0.64368 -1.01398,1.25963 -1.75461,1.84218z" fill="#000000"/><g><path d="M256.71204,91.2758c3.23602,-0.19603 7.66648,-0.63753 9.9362,0.32634c10.15147,4.31097 10.37541,22.65521 1.24945,28.09427c-2.93779,1.75092 -8.5364,2.25306 -11.87322,3.06582c-0.50097,0.00312 -7.40582,0.06253 -7.90679,0c-5.94258,-0.74169 -11.31212,-3.52734 -17.35834,-3.52734c-1.18578,0 -7.03745,-0.20982 -7.861,1.10573c-0.3342,0.53384 0.43601,1.19719 0.49069,1.82463c0.14247,1.6347 -0.67099,3.41808 0.81366,4.78067c2.89753,2.65931 9.47467,2.35208 13.02449,3.68171c5.24683,1.96526 10.86384,5.05319 14.68669,9.10227c3.27462,0.70926 4.26979,0.65425 7.40622,2.85767c2.05515,1.4438 3.27502,3.88096 5.32793,5.32794c4.8435,3.41391 9.13435,6.30568 12.41761,11.59393c3.34449,5.38687 4.29769,12.46759 6.50254,18.34719c3.55406,9.47749 6.35649,19.35608 6.42,29.55555c0,18.36407 2.25203,43.11151 -15.76606,54.29821c-3.6361,2.25751 -7.51681,2.92717 -11.58632,3.94455c-3.81087,0.95271 -7.10867,1.84946 -11.05129,1.84946c-7.21829,1.80458 -15.17542,0.91261 -22.60115,0.91261c-5.89905,0 -12.31242,0.70536 -18.16122,-0.02462c-5.639,-0.7038 -9.81076,-3.59616 -14.94629,-5.50739c-4.15773,-1.54734 -10.14531,-2.28667 -11.7943,-7.53239c-1.0551,-3.35646 2.34482,-10.09987 3.7796,-13.00223c1.49063,-2.94122 2.9738,-11.16425 6.33965,-12.30347c2.10203,-0.71146 4.32333,1.12598 6.31826,2.09807c3.70143,1.80363 6.09197,5.35425 10.06846,6.8173c7.4474,2.74008 15.73234,1.65727 23.32233,0.70852c5.74673,-0.71834 12.14402,-1.1494 17.1281,-4.73237c1.83388,-1.31835 3.16616,-3.22194 4.76694,-4.81525c7.75136,-10.30762 10.09333,-23.83792 5.61654,-35.77888c-1.2638,-3.37095 -2.32065,-7.76966 -4.76895,-10.57855c-0.90896,-1.04283 -2.37396,-1.46832 -3.3527,-2.44594c-1.87616,-1.874 -3.14086,-4.33502 -5.15739,-6.05707c-5.38669,-4.60003 -11.93336,-8.06206 -18.22238,-11.23108c-5.0452,-3.7839 -10.44812,-4.92751 -15.86615,-7.92253c-1.23125,-0.68062 -2.09734,-1.92971 -3.35432,-2.56154c-2.36552,-1.18905 -5.16989,-1.43926 -7.41919,-2.83576c-3.62492,-2.25056 -6.53578,-5.42417 -9.47581,-8.46351c-1.09426,-1.13123 -2.52612,-2.03298 -3.23752,-3.43689c-0.35481,-0.7002 -1.81795,-8.49924 -2.0847,-9.70939c-2.51583,-11.41348 -0.21118,-21.05158 5.12296,-31.24166c4.86194,-3.76985 8.79459,-7.64332 14.70241,-9.85615c5.86,-2.19493 12.98384,-3.54531 19.22344,-2.85206c2.73801,0.30421 5.33654,1.43867 8.06959,1.78461c2.34923,0.29736 4.75645,-0.31097 7.10391,0c2.73073,0.36174 5.15713,1.94124 7.76875,2.81718c1.95519,0.65577 4.09782,1.10048 6.23864,1.5219z" fill="#ffe95e"/><path d="M201.78754,94.09284c-0.89952,1.57416 -12.21,1.74799 -9.27365,-3.97426l-0.21424,-0.49276l-0.15219,-0.13617l0.0293,-0.14649l-0.1532,-0.35235l-0.08681,-0.52084l-0.00713,-0.00684v-0.03596l-0.05339,-0.32037l0.05339,-0.66744v-0.66957l0.07877,-0.31509l0.00287,-0.03585l0.00766,-0.00625l0.05804,-0.23216l0.10636,-0.19942l0.03054,-0.22394l0.23225,-0.58064l0.21197,-0.74189l0.12126,-0.60628l0.08887,-0.18763l0.01593,-0.207l0.4021,-1.2063l0.11673,-0.46692l0.06063,-0.11367l0.00988,-0.12845l0.06582,-0.19744l0.10495,-0.62973l0.05339,-0.12281v-0.13391l0.14734,-0.58934l0.06062,-0.11367l0.00989,-0.12845l0.56676,-1.70029l0.22393,-0.78378l0.11674,-0.70046l0.1579,-0.36316l0.06305,-0.39094l0.38817,-0.90573l0.54612,-1.63836l0.17569,-0.27609l0.0886,-0.31502l0.47616,-0.83328l0.20995,-0.52487l0.15576,-0.21567l0.07746,-0.25451l0.30656,-0.51093l0.19689,-0.49224l0.0241,-0.03337l0.00656,-0.04064l0.442,-1.03134l0.18392,-0.242l0.10224,-0.28625l0.1049,-0.15736l0.13176,-0.3294l0.55881,-1.67642l0.12696,-0.19951l0.0513,-0.23085l0.14734,-0.29467l0.13511,-0.15763l0.06982,-0.19552l0.47588,-0.71381l0.39343,-0.78687l0.0735,-0.22049l0.23561,-0.37023l0.1476,-0.41328l0.0506,-0.07591l0.0082,-0.02459l0.12696,-0.19951l0.01996,-0.08984l0.00041,-0.00532l0.00232,-0.00696l0.02861,-0.12873l0.04291,-0.08582l0.15304,-0.45912l-0.00971,-0.0356l0.04855,-0.08092l0.02895,-0.08686l0.3282,-0.51574l0.14473,-0.65129l0.04094,-0.08189l0.02289,-0.09155l0.03205,-0.01831l0.1988,-0.3976l1.10201,-1.28568l0.90165,-0.05009l0.75137,-0.50091l1.65302,0.36734l0.25586,0.12793l0.05024,-0.00346l0.62892,0.57174l0.64533,0.55314l0.0028,0.05028l0.22001,0.33002l0.24719,0.32959l0.12956,0.12956l0.27174,0.45289l0.34372,0.401l0.139,0.27802l0.96124,1.20154l0.09334,0.20366l0.15841,0.15841l0.88401,1.47335l0.03751,0.12324l0.08384,0.09781l0.69589,1.39178l0.41702,0.72978l0.42934,0.53667l0.24092,0.52565l0.31044,0.48784l0.04445,0.13336l0.30086,0.52649l0.42934,0.53667l0.06058,0.13217l0.10758,0.0978l0.51025,0.76537l0.50026,0.62534l0.24092,0.52566l0.10372,0.16298l0.39203,0.49004l0.09334,0.20366l0.15841,0.15841l0.40178,0.66963l0.2513,0.37695l0.11559,0.32366l0.20122,0.27862l0.16888,0.4222l0.30859,0.36002l0.88401,1.76801l0.0513,0.23085l0.12696,0.19951l0.07349,0.22048l0.04291,0.08583l0.02861,0.12873l0.00232,0.00695l0.00041,0.00532l0.01996,0.08984l0.12696,0.19951l0.0735,0.22049l0.09877,0.19753l0.1812,0.2718l0.06983,0.19552l0.13511,0.15763l0.05622,0.11246l0.06074,0.06074l0.03619,0.00723l0.05066,0.07962l0.06474,0.06474l0.38841,0.64735l0.40531,0.63691l0.02895,0.08685l0.04855,0.08092l-0.00972,0.0356l0.08774,0.26321l0.0506,0.07591l0.06982,0.19552l0.13511,0.15763l0.31359,0.62717l0.38675,0.3315l0.00955,0.1718h1.36079c0.56001,0 1.0873,0.14011 1.54873,0.38719l0.09406,0.02351l0.02475,0.04332c0.96839,0.57153 1.61803,1.62567 1.61803,2.83155c0,1.20588 -0.64964,2.26001 -1.61803,2.83154l-0.02475,0.04332l-0.09406,0.02352c-0.46142,0.24707 -0.98871,0.38718 -1.54873,0.38718h-5.17945l-0.61578,0.10263l-0.06852,-0.00548l-0.0641,0.02482l-1.17868,0.14733l-0.2061,-0.02498l-0.20141,0.05035h-1.17698l-1.29747,0.11795l-1.30124,0.26025l-0.16343,-0.00778l-0.15399,0.05528l-1.45539,0.14553l-1.30807,0.14534l-0.01842,-0.00249l-0.01749,0.00628l-5.51928,0.55193c0.35775,1.49552 0.0687,2.91847 -1.65448,3.34927zM213.65829,80.20758l-0.07349,-0.22049l-0.04291,-0.08582l-0.02861,-0.12873l-0.00232,-0.00696l-0.00041,-0.00532l-0.01996,-0.08984l-0.12696,-0.1995l-0.0735,-0.22049l-0.70582,-1.41165l-0.09316,-0.15528l-0.38714,-0.53603l-0.13103,-0.32758l-0.01286,-0.02144l0.00174,-0.00637l-0.02547,-0.06365l-0.1049,-0.15736l-0.02695,-0.07544l-0.05665,-0.05665l-0.3283,-0.54717l-0.45128,-0.5641l-0.24092,-0.52566l-0.10372,-0.16298l-0.39203,-0.49004l-0.06058,-0.13218l-0.10758,-0.0978l-0.51025,-0.76537l-0.50026,-0.62534l-0.1079,-0.23541l-0.17918,-0.18697l-0.58934,-1.03134l-0.08427,-0.29964l-0.36533,-0.45666l-0.1079,-0.23541l-0.17917,-0.18697l-0.58934,-1.03134l-0.02527,-0.08987l-0.06075,-0.07088l-0.68024,-1.36049l-0.07029,-0.11714l-0.00213,0.00427l-0.13511,0.15763l-0.06983,0.19552l-0.4435,0.66524l-0.49931,1.49793l-0.05304,0.08334l-0.01335,0.09789l-0.29466,0.73667l-0.20122,0.27862l-0.11559,0.32366l-0.12734,0.19101l-0.30739,0.71726l-0.27979,0.69948l-0.15577,0.21567l-0.07746,0.25451l-0.30656,0.51093l-0.19689,0.49223l-0.13533,0.18738l-0.06258,0.2225l-0.42792,0.74887l-0.48646,1.45937l-0.07485,0.11762l-0.0222,0.13764l-0.28612,0.66759l-0.08227,0.49365l-0.07541,0.17345l-0.0063,0.18903l-0.29467,1.03134l-0.03657,0.06339l-0.00562,0.07297l-0.54943,1.64831l-0.08491,0.33963l-0.12576,0.75457l-0.10391,0.239l-0.01998,0.25984l-0.10743,0.3223l-0.11673,0.46692l-0.06063,0.11367l-0.00988,0.12845l-0.09884,0.29652l0.30242,-0.0336l0.01842,0.00249l0.01749,-0.00628l1.34221,-0.13422l1.491,-0.27109l0.13422,0.00875l0.12659,-0.04544l5.87542,-0.58754l1.30807,-0.14533l0.01841,0.00249l0.0175,-0.00628l1.31347,-0.13135l1.31579,-0.26316l0.17833,0.0085l0.16856,-0.05881l1.62068,-0.14733l0.15009,0.02335l0.14737,-0.03684h0.05752l-0.00048,-0.0008l-0.34372,-0.401l-0.20319,-0.40639l-0.1812,-0.2718l-0.06983,-0.19552l-0.13511,-0.15763l-0.29466,-0.58934l-0.05131,-0.23085z" fill="#f7db26"/><path d="M213.83913,80.4447l0.05055,0.2319l0.29329,0.59116l0.13493,0.15787l0.06933,0.19614l0.18078,0.27234l0.2024,0.40732l0.34339,0.40139l0.00047,0.0008l-0.05768,0.00018l-0.1479,0.03745l-0.15046,-0.02295l-1.62699,0.15337l-0.1695,0.05957l-0.1791,-0.00787l-1.32361,0.26841l-1.32251,0.13563l-0.01763,0.00633l-0.01854,-0.00244l-1.31855,0.14836l-5.9193,0.58101l-0.12715,0.04514l-0.13496,-0.00917l-1.49718,0.26713l-1.34677,0.13059l-0.01753,0.00625l-0.01848,-0.00254l-0.30329,0.03283l0.0983,-0.29702l0.00954,-0.12877l0.06048,-0.11381l0.11569,-0.46793l0.10676,-0.32297l0.01922,-0.26063l0.10345,-0.23949l0.1236,-0.75702l0.08396,-0.34078l0.54478,-1.65486l0.00535,-0.0734l0.03642,-0.06366l0.29136,-1.03754l0.00562,-0.19053l0.07491,-0.17462l0.08073,-0.49776l0.28444,-0.6734l0.02188,-0.13905l0.07462,-0.11873l0.48537,-1.4765l0.42948,-0.75931l0.06335,-0.22553l0.13621,-0.19023l0.19958,-0.49903l0.31046,-0.51816l0.07939,-0.25743l0.15793,-0.21858l0.28608,-0.70641l0.31406,-0.72282l0.12944,-0.19248l0.11827,-0.32536l0.2043,-0.28036l0.30028,-0.73933l0.01382,-0.09808l0.05379,-0.08365l0.50741,-1.50052l0.44802,-0.6662l0.0706,-0.19565l0.1363,-0.15782l0.00216,-0.00428l0.07068,0.11709l0.68468,1.36002l0.06127,0.07084l0.02546,0.08986l0.59516,1.03125l0.18127,0.18706l0.10934,0.23552l0.37043,0.45728l0.08602,0.29995l0.60146,1.03489l0.18279,0.18854l0.11097,0.23697l0.51163,0.63308l0.5218,0.77813l0.10908,0.10006l0.062,0.13453l0.39685,0.50043l0.10479,0.16623l0.24311,0.5355l0.45194,0.57395l0.32775,0.55507l0.05656,0.05734l0.0268,0.07644l0.10458,0.15926l0.02531,0.06444l-0.00175,0.00646l0.01281,0.02168l0.13014,0.33133l0.38567,0.54078l0.09271,0.15654l0.70151,1.42094l0.07277,0.22174l0.12646,0.20034l0.01966,0.09034l0.00039,0.00535l0.0023,0.007l0.02817,0.12943l0.04268,0.08618l0.07281,0.22151z" data-paper-data="{&quot;noHover&quot;:false,&quot;origItem&quot;:[&quot;Path&quot;,{&quot;applyMatrix&quot;:true,&quot;segments&quot;:[[379.49569,410.43789],[379.3879,410.1145],[379.32496,409.98863],[379.283,409.79982],[379.2796,409.78961],[379.279,409.78181],[379.24972,409.65004],[379.06351,409.35743],[378.95571,409.03404],[377.92049,406.9636],[377.78385,406.73586],[377.21604,405.94967],[377.02386,405.46922],[377.005,405.43778],[377.00755,405.42843],[376.9702,405.33507],[376.81634,405.10427],[376.77682,404.99362],[376.69373,404.91053],[376.21222,404.108],[375.55033,403.28064],[375.19697,402.50967],[375.04485,402.27063],[374.46986,401.5519],[374.38101,401.35804],[374.22322,401.2146],[373.47485,400.09204],[372.74112,399.17487],[372.58287,398.8296],[372.32007,398.55538],[371.4557,397.04273],[371.3321,396.60325],[370.79628,395.93348],[370.63803,395.58821],[370.37524,395.31399],[369.51086,393.80134],[369.47379,393.66953],[369.38469,393.56557],[368.38699,391.57017],[368.2839,391.39837],[368.28077,391.40464],[368.0826,391.63584],[367.98018,391.92261],[367.32971,392.89831],[366.59738,395.0953],[366.51959,395.21754],[366.50001,395.36112],[366.06783,396.44158],[365.7727,396.85022],[365.60316,397.32493],[365.41639,397.60508],[364.96554,398.65707],[364.55518,399.68298],[364.32672,399.9993],[364.21311,400.37258],[363.76349,401.12195],[363.47471,401.8439],[363.27623,402.11872],[363.18445,402.44505],[362.55682,403.54341],[361.84334,405.68385],[361.73356,405.85636],[361.701,406.05823],[361.28136,407.03738],[361.16069,407.76141],[361.05009,408.0158],[361.04085,408.29304],[360.60866,409.80569],[360.55502,409.89867],[360.54678,410.0057],[359.74094,412.42325],[359.6164,412.92138],[359.43195,414.0281],[359.27954,414.37864],[359.25023,414.75975],[359.09266,415.23246],[358.92145,415.91728],[358.83253,416.084],[358.81804,416.2724],[358.67307,416.7073],[359.11662,416.65802],[359.14363,416.66167],[359.16928,416.65246],[361.13787,416.4556],[363.3247,416.058],[363.52156,416.07083],[363.70723,416.00418],[372.3246,415.14244],[374.24313,414.92928],[374.27013,414.93293],[374.29579,414.92372],[376.22223,414.73107],[378.15208,414.3451],[378.41363,414.35756],[378.66086,414.27131],[381.03788,414.05522],[381.25802,414.08946],[381.47416,414.03543],[381.55853,414.03543],[381.55783,414.03426],[381.0537,413.44612],[380.75569,412.85008],[380.48992,412.45143],[380.3875,412.16466],[380.18933,411.93347],[379.75715,411.06909],[379.6819,410.73051]],&quot;closed&quot;:true}]}" fill="#fff6ba"/><path d="M239.42055,88.74533c0,-0.69833 0.21787,-1.34579 0.58934,-1.87808v-0.03727l0.1831,-0.73239l0.16376,-0.73696l0.04094,-0.08188l0.02289,-0.09155l0.03205,-0.01831l0.24171,-0.48342l0.07349,-0.22049l0.02635,-0.04139l0.12058,-0.54262l0.00041,-0.00532l0.00232,-0.00696l0.02861,-0.12873l0.04094,-0.08189l0.02289,-0.09155l0.01023,-0.00585l0.04235,-0.12703l0.02634,-0.04139l0.15192,-0.68364l0.02947,-0.05893l0.11786,-0.53041l0.02947,-0.05894l0.08654,-0.38939l0.00041,-0.00532l0.00232,-0.00696l0.02861,-0.12873l0.04094,-0.08189l0.02288,-0.09155l0.01024,-0.00585l0.00244,-0.00732l0.11673,-0.46692l0.00879,-0.01648l-0.01578,-0.05787l0.41985,-0.69974l0.38402,-0.72003l0.0117,-0.00329l0.02954,-0.05907l0.13511,-0.15763l0.06982,-0.19552l0.0506,-0.07591l0.15553,-0.46659l0.2356,-0.37024l0.1476,-0.41327l0.1812,-0.27181l0.05586,-0.11171l0.13511,-0.15763l0.06982,-0.19552l0.58934,-0.88401l0.21811,-0.19828l0.01895,-0.0379l0.04905,-0.05722l0.12404,-0.20673l0.03185,-0.08921l0.29467,-0.442l0.24215,-0.22013l0.16837,-0.28061l0.06462,-0.06462l0.1142,-0.17131l0.24215,-0.22013l0.16837,-0.28061l0.2769,-0.2769l0.12414,-0.16553l0.16218,-0.32436l0.13511,-0.15763l0.06982,-0.19552l0.29467,-0.442l0.21023,-0.19112l0.08418,-0.13228l0.1476,-0.41327l0.29466,-0.442l0.24215,-0.22013l0.16837,-0.28061l0.21195,-0.21196l0.00074,-0.00111l0.05585,-0.11171l0.34372,-0.40101l0.27174,-0.45289l1.17867,-1.17868l0.36833,-0.221l0.66301,-0.663l0.28061,-0.16837l0.22013,-0.24214l0.1713,-0.11421l0.21196,-0.21195l0.20278,-0.12167l0.14913,-0.18354l0.40254,-0.30191l0.57156,-0.57156l0.28061,-0.16837l0.22013,-0.24215l0.17131,-0.1142l0.50663,-0.50663l0.28061,-0.16837l0.22014,-0.24215l0.80812,-0.53875l0.51638,-0.38728l0.08604,-0.03623l0.06279,-0.06907l0.73798,-0.49198l0.74917,-0.62431l0.07765,-0.03749l0.05437,-0.06693l1.13762,-0.85321l1.43326,-1.14661l0.04791,-0.02195l0.03323,-0.0409l0.40253,-0.30191l0.86623,-0.86623l0.11336,-0.06801l0.0352,-0.10561l0.66885,-0.31682l0.63462,-0.38077l0.1074,0.02929l0.11947,-0.05659l0.73668,-0.14734l1.69142,0.08055l0.31331,0.35972l0.47631,0.02646l1.102,1.28568l0.05146,0.10293l0.03205,0.01831l0.02289,0.09155l0.04094,0.08189l0.11172,0.50277l0.02401,0.02756l-0.01073,0.03218l0.03877,0.17445l0.1831,0.73239v0.09155l0.02047,0.09212l-0.02047,0.0307v1.0446l0.02047,0.03071l-0.02047,0.09212v0.09155l-0.14733,0.58934v0.37496l0.02047,0.03071l-0.02047,0.09212v0.09155l-0.14734,0.58934v10.28274l0.08354,0.41766l-0.01557,0.32687l0.07937,0.31748v3.2641l0.10263,0.61579l-0.0219,0.27373l0.06661,0.2664v0.12918l0.16825,0.58889l0.01527,0.45802l0.11114,0.4446v0.67945l0.12197,0.97571l-0.02499,0.2061l0.05036,0.20142v8.84006l-0.07937,0.31747l0.01557,0.32688l-0.14733,0.73667l-0.18787,0.3966l-0.0952,0.4284l-0.04094,0.08188l-0.17022,0.68089l-0.6613,0.37789l-0.248,0.28933l-0.32278,0.56487l-1.64278,0.4107h-0.52229l-0.03071,0.02047l-0.09212,-0.02047h-0.09155l-0.58934,-0.14734h-0.442l-0.3924,-0.0981h-0.40447l-0.51349,-0.12837l-0.66001,-0.132l-0.0724,-0.0343h-0.08011l-1.17867,-0.29467l-0.09232,-0.04923h-0.14216l-0.12825,-0.03207l-0.09956,0.04979l-0.69697,-0.24892l-0.71799,-0.1795l-0.05523,-0.09665l-0.12449,-0.04446l-0.27181,-0.1812l-0.37846,-0.18923l-0.23945,-0.05986l-0.11367,-0.06063l-0.12845,-0.00988l-0.442,-0.14733l-0.16485,-0.1049l-0.40119,-0.1003l-0.66001,-0.132l-0.18763,-0.08887l-0.207,-0.01593l-0.24795,-0.08265l-1.27277,-0.25455l-0.2747,-0.13012l-0.30117,-0.04107l-0.40692,-0.16277l-0.53368,-0.08894l-0.04988,-0.02169l-0.05433,0.00258l-0.73667,-0.14733l-0.03247,-0.01538l-0.03591,0.00095l-1.2919,-0.28709l-0.61298,-0.1226l-0.91253,-0.13036l-1.15008,-0.14376l-0.30519,-0.11813l-0.32628,-0.0251l-0.16095,-0.05365l-0.73806,-0.10544l-0.27657,-0.11268l-0.29777,-0.0229l-0.63944,-0.21315l-0.3615,-0.06025h-0.02275l-0.04549,-0.01137l-0.19998,-0.03333l-0.02042,-0.00888l-0.19875,0.02056l-0.80019,-0.11431h-0.35584c-0.56001,0 -1.0873,-0.14011 -1.54872,-0.38718l-0.09406,-0.02352l-0.02476,-0.04332c-0.96839,-0.57153 -1.61803,-1.62566 -1.61803,-2.83154zM247.1474,86.12403l0.73806,0.10544l0.27657,0.11268l0.29776,0.02291l0.13337,0.04445l0.85585,0.10698l0.02764,0.0107l0.02949,-0.00305l1.03134,0.14733l0.08645,0.03522l0.09324,-0.00444l0.73668,0.14733l0.03247,0.01538l0.03592,-0.00095l1.2919,0.28709l0.65045,0.13009l0.83175,0.13863l0.32689,0.14213l0.35318,0.04816l0.4566,0.18264l1.17755,0.2355l0.18763,0.08888l0.207,0.01592l0.24795,0.08265l0.53609,0.10722l0.0724,0.0343h0.08011l0.58934,0.14733l0.31926,0.17028l0.21221,0.04715l0.00532,0.00041l0.00696,0.00232l0.12873,0.0286l0.08582,0.04291l0.10079,0.03359l0.46692,0.11673l0.31926,0.17028l0.35322,0.07849l0.884,0.442l0.08995,0.0771l0.51103,0.03931l0.3223,0.10743l0.36253,0.09063v-6.15863l-0.12197,-0.97571l0.02499,-0.2061l-0.05036,-0.20142v-0.42385l-0.16825,-0.58889l-0.01527,-0.45802l-0.11115,-0.4446v-0.31741l-0.10263,-0.61579l0.0219,-0.27373l-0.06661,-0.2664v-3.21069l-0.08353,-0.41766l0.01557,-0.32687l-0.07937,-0.31748v-7.49764l-0.35712,0.2976l-0.16078,0.07762l-0.12009,0.1321l-0.80813,0.53875l-0.51638,0.38729l-0.08604,0.03622l-0.06279,0.06908l-0.61331,0.40888l-0.50663,0.50663l-0.28061,0.16837l-0.22013,0.24214l-0.17131,0.11421l-0.50663,0.50663l-0.20278,0.12167l-0.14913,0.18354l-0.40254,0.3019l-0.2769,0.2769l-0.28061,0.16837l-0.22013,0.24215l-0.17131,0.1142l-0.50663,0.50663l-0.36833,0.221l-0.81011,0.81011l-0.03172,0.08883l-0.29466,0.442l-0.24215,0.22013l-0.16837,0.28061l-0.17523,0.17524l-0.32036,0.50342l-0.38841,0.64735l-0.06462,0.06462l-0.00074,0.00111l-0.20319,0.40638l-0.19436,0.22675l-0.11589,0.27524l-0.442,0.58934l-0.18354,0.14913l-0.12167,0.20278l-0.21195,0.21195l-0.11421,0.17131l-0.24214,0.22013l-0.16837,0.28061l-0.06462,0.06462l-0.00074,0.00112l-0.05586,0.11171l-0.34371,0.40101l-0.27174,0.45289l-0.06462,0.06462l-0.29541,0.44312l-0.05586,0.11171l-0.13511,0.15763l-0.06982,0.19552l-0.0506,0.07591l-0.15553,0.46659l-0.2356,0.37024l-0.1476,0.41328l-0.1812,0.2718l-0.20319,0.40639l-0.21288,0.24836l-0.04098,0.07683l-0.00989,0.12845l-0.14733,0.442l-0.12696,0.19951l-0.0513,0.23085l-0.02947,0.05894l-0.11786,0.5304l-0.02947,0.05894l-0.05187,0.23339l-0.03508,0.45599l-0.14733,0.442l-0.08945,0.14056l-0.00014,0.00055z" fill="#f7db26"/><path d="M247.01204,86.14019l0.00014,-0.00055l0.08928,-0.14074l0.14638,-0.44303l0.0337,-0.45755l0.05124,-0.23413l0.02935,-0.05907l0.11639,-0.53226l0.02935,-0.05909l0.05063,-0.23175l0.12658,-0.20002l0.14612,-0.44375l0.00944,-0.12911l0.04079,-0.07711l0.21247,-0.24901l0.20213,-0.40813l0.18056,-0.27292l0.14632,-0.41567l0.23462,-0.37224l0.15404,-0.47003l0.0504,-0.07642l0.06923,-0.19712l0.13473,-0.15872l0.05555,-0.11266l0.29428,-0.447l0.06448,-0.06518l0.27072,-0.45778l0.34309,-0.40587l0.05573,-0.11326l0.00074,-0.00113l0.06457,-0.06552l0.16827,-0.28482l0.24228,-0.22379l0.11448,-0.1743l0.21255,-0.21606l0.12247,-0.20668l0.18445,-0.15253l0.44728,-0.60204l0.11889,-0.28022l0.1978,-0.23146l0.20889,-0.41262l0.00076,-0.00113l0.06588,-0.0658l0.39859,-0.65497l0.32808,-0.50744l0.17863,-0.17661l0.17201,-0.28185l0.24631,-0.22127l0.29981,-0.44301l0.03231,-0.08891l0.82065,-0.81078l0.37234,-0.22081l0.51129,-0.50609l0.17279,-0.11397l0.22176,-0.24184l0.28278,-0.16789l0.27865,-0.27646l0.40503,-0.3012l0.14981,-0.18332l0.20396,-0.12128l0.50881,-0.50584l0.17211,-0.1139l0.22088,-0.24184l0.28183,-0.16785l0.50815,-0.50594l0.61538,-0.40787l0.06293,-0.06901l0.08635,-0.03607l0.51777,-0.38655l0.81016,-0.53759l0.12025,-0.13201l0.1612,-0.07736l0.35775,-0.29721l0.02293,7.52199l0.08057,0.31979l-0.01454,0.32905l0.08489,0.42091l0.0043,3.23816l0.06642,0.26876l-0.02217,0.27617l0.10175,0.62092l-0.00061,0.32002l0.11022,0.44784l0.01412,0.46138l0.1668,0.59247l-0.00126,0.42654l0.04981,0.20248l-0.02567,0.20739l0.11908,0.98048l-0.01747,6.17639l-0.36352,-0.08996l-0.32317,-0.10687l-0.5128,-0.03822l-0.09011,-0.077l-0.88657,-0.44057l-0.35458,-0.07779l-0.32034,-0.16974l-0.4689,-0.11582l-0.10121,-0.03341l-0.08616,-0.04277l-0.12933,-0.02836l-0.00699,-0.0023l-0.00535,-0.0004l-0.2132,-0.04675l-0.32063,-0.16975l-0.59239,-0.1463l-0.08058,0.00015l-0.07277,-0.03419l-0.53919,-0.10638l-0.24939,-0.08231l-0.20832,-0.01565l-0.18875,-0.08866l-1.18547,-0.23455l-0.45983,-0.18252l-0.35578,-0.04819l-0.32935,-0.14224l-0.83799,-0.13934l-0.65531,-0.13107l-1.3012,-0.29008l-0.03614,0.00085l-0.03271,-0.01548l-0.7415,-0.14958l-0.09376,0.00417l-0.08705,-0.03554l-1.03709,-0.15082l-0.02961,0.00297l-0.0278,-0.01081l-0.85989,-0.10998l-0.13403,-0.045l-0.29896,-0.02392l-0.27791,-0.11387l-0.74075,-0.10805z" data-paper-data="{&quot;noHover&quot;:false,&quot;origItem&quot;:[&quot;Path&quot;,{&quot;applyMatrix&quot;:true,&quot;segments&quot;:[[428.61359,419.11545],[429.69609,419.27009],[430.10173,419.43535],[430.53845,419.46895],[430.73406,419.53415],[431.98932,419.69106],[432.02986,419.70675],[432.07311,419.70228],[433.58576,419.91837],[433.71256,419.97003],[433.84932,419.96352],[434.92979,420.17961],[434.97741,420.20217],[435.03009,420.20078],[436.92489,420.62185],[437.87889,420.81265],[439.09881,421.01597],[439.57826,421.22443],[440.09627,421.29506],[440.76595,421.56294],[442.49304,421.90835],[442.76823,422.03871],[443.07184,422.06206],[443.4355,422.18328],[444.22178,422.34054],[444.32797,422.39084],[444.44547,422.39084],[445.30984,422.60693],[445.7781,422.85667],[446.08934,422.92583],[446.09714,422.92643],[446.10735,422.92984],[446.29616,422.97179],[446.42203,423.03473],[446.56985,423.084],[447.25468,423.25521],[447.72294,423.50495],[448.241,423.62007],[449.53755,424.26835],[449.66948,424.38143],[450.419,424.43908],[450.89171,424.59665],[451.42343,424.72958],[451.42343,415.69683],[451.24454,414.26578],[451.28119,413.96349],[451.20733,413.66807],[451.20733,413.04642],[450.96056,412.18271],[450.93817,411.51094],[450.77515,410.85886],[450.77515,410.39332],[450.62462,409.49015],[450.65674,409.08867],[450.55905,408.69794],[450.55905,403.98887],[450.43654,403.3763],[450.45937,402.89688],[450.34296,402.43124],[450.34296,391.43458],[449.81918,391.87107],[449.58337,391.98491],[449.40724,392.17866],[448.22197,392.96883],[447.4646,393.53686],[447.33841,393.58999],[447.24631,393.69131],[446.34678,394.291],[445.60372,395.03406],[445.19215,395.281],[444.86929,395.63614],[444.61803,395.80365],[443.87497,396.54671],[443.57756,396.72516],[443.35884,396.99435],[442.76844,397.43714],[442.36232,397.84326],[441.95076,398.0902],[441.6279,398.44535],[441.37664,398.61285],[440.63358,399.35591],[440.09335,399.68005],[438.90517,400.86823],[438.85864,400.99851],[438.42646,401.64679],[438.07131,401.96965],[437.82437,402.38121],[437.56736,402.63823],[437.09749,403.37659],[436.52781,404.32605],[436.43303,404.42083],[436.43195,404.42246],[436.13393,405.01849],[435.84887,405.35106],[435.6789,405.75475],[435.03062,406.61912],[434.76143,406.83784],[434.58298,407.13526],[434.27211,407.44613],[434.1046,407.69739],[433.74946,408.02025],[433.50251,408.43181],[433.40773,408.52659],[433.40665,408.52823],[433.32472,408.69207],[432.8206,409.28022],[432.42205,409.94446],[432.32727,410.03924],[431.894,410.68915],[431.81207,410.853],[431.6139,411.0842],[431.51149,411.37096],[431.43727,411.48229],[431.20915,412.16663],[430.8636,412.70965],[430.64712,413.3158],[430.38135,413.71445],[430.08333,414.31049],[429.7711,414.67476],[429.711,414.78745],[429.6965,414.97584],[429.48041,415.62412],[429.2942,415.91674],[429.21896,416.25532],[429.17574,416.34176],[429.00287,417.11969],[428.95965,417.20613],[428.88358,417.54844],[428.83213,418.21723],[428.61604,418.86551],[428.48485,419.07167],[428.48465,419.07247]],&quot;closed&quot;:true}]}" fill="#fff6ba"/></g><g><path d="M54.71184,176.05173v-0.16117c-0.23008,-0.06394 -0.4726,-0.13418 -0.72539,-0.2108c-1.79328,0.3086 -3.71368,0.37197 -6.64553,0.37197c0,0 -1.48033,0 -2.5646,0c-0.46604,2.99567 -1.03525,5.97662 -1.42281,8.98524c-0.3139,2.43684 0.29657,4.93191 0,7.37093c-1.07627,8.85129 -1.51174,18.02476 -3.68546,26.71961c0,5.6441 -1.12796,11.03566 -1.84274,16.58458c-0.82059,6.37036 0.57001,12.48113 -0.99761,18.83761c-0.94215,3.82033 -1.6353,10.71397 -5.20049,13.12949c-1.51814,1.02858 -3.64676,0.40741 -5.47771,0.50914c-5.62295,0.31243 -11.37617,0.60811 -16.6761,-0.95435c-0.46694,0.09641 -1.01513,0.09158 -1.65666,-0.0688c-1.16193,-0.29049 -1.81359,-0.88713 -2.1701,-1.53896c-0.79919,-0.61518 -2.07076,-2.01992 -0.9736,-4.21425c0.40791,-0.81581 0.92495,-1.30422 1.46353,-1.58201l0.12108,-0.48434c1.43891,-5.75562 2.7086,-11.67676 2.66231,-17.6005c0,-5.82621 0.7687,-12.24154 0.02554,-18.01079c-0.80201,-6.22608 -1.62291,-12.80867 -0.93032,-19.17977c1.52168,-13.99787 3.66888,-27.91684 3.66888,-42.04691c0.03394,-5.45027 1.17741,-10.71654 1.86827,-16.07975c0.3139,-2.43684 -0.29657,-4.93191 0,-7.37093c0.82001,-6.74385 1.98366,-13.40513 2.75515,-20.18944c1.20461,-10.59308 -0.88469,-21.43467 -0.93796,-31.91189c0,0 0,-3.40905 3.40905,-3.40905c3.40905,0 3.40905,3.40905 3.40905,3.40905c-0.00016,0.02656 -0.00031,0.05312 -0.00044,0.07968c4.88181,-0.97868 9.69535,-1.94519 14.60218,-2.54183c5.17819,-0.62964 10.56796,0.57963 15.74383,-0.00895c7.37903,-0.83912 13.56422,-0.81973 20.94189,0c4.02593,0.44732 8.17385,0.37386 12.02506,2.08564c3.40938,1.51539 5.77545,3.51805 8.65789,5.70586c5.11142,2.04457 12.9141,5.73853 16.61034,10.00121c3.39062,3.91023 5.89686,11.18212 7.13953,16.09938c1.21022,4.78887 2.60248,8.14396 0.8114,13.06596c-2.08844,5.73916 -9.11693,12.75921 -14.10311,16.32466c-2.23448,1.59781 -5.14467,2.07622 -7.37093,3.68547c-3.43175,2.48065 -6.20582,4.54507 -10.13503,6.44956c-0.54643,0.56093 -1.2162,1.02773 -1.87623,1.49871c-3.14594,1.04899 -6.45595,3.95044 -8.15355,5.64804c-5.87263,5.87263 -12.5171,7.63509 -17.829,11.14373c-0.4359,0.17045 -0.86087,0.36269 -1.2736,0.57538c-0.2087,-0.26537 -0.46169,-0.49676 -0.72991,-0.71643zM46.94132,152.99862c1.18317,-0.44171 2.69875,-0.53973 3.82367,-1.05919c3.60715,-1.6657 7.17561,-2.66512 10.71457,-4.45868c3.93417,-1.9069 5.26234,-4.59978 8.74493,-7.08734c0.97401,-0.69572 2.35327,-0.71596 3.26821,-1.48773c1.17817,-0.99381 1.06558,-3.3054 0.86979,-4.54383c-0.9445,-5.97417 -4.07622,-9.47356 -8.74482,-13.31418c-1.27947,-1.05256 -3.31959,-0.52804 -4.96109,-0.30342c-1.09625,0.15001 -2.23621,-0.29448 -3.31875,-0.06565c-7.60203,1.60695 -9.40049,12.58235 -9.35194,18.79492c-0.0281,4.51228 -0.47009,9.02651 -1.04455,13.52511z" fill="#ff945e"/><g><path d="M80.88226,169.29666c1.77859,0.98517 2.52479,7.62611 2.88704,9.21629c0.42023,3.04165 1.48447,7.75759 -0.46525,10.62769c-5.69381,8.38166 -23.97799,6.23941 -22.97549,-5.93955c0.20091,-2.44079 5.18019,-6.22308 6.77911,-7.54285c3.27652,-2.70448 5.85169,-3.65262 9.95941,-4.56328c0,0 1.91905,-0.43163 2.77803,-2.02616c0.35453,-0.0217 0.70467,0.04368 1.03716,0.22785z" data-paper-data="{&quot;noHover&quot;:false,&quot;origItem&quot;:[&quot;Path&quot;,{&quot;applyMatrix&quot;:true,&quot;segments&quot;:[[[185.7748,528.26025],[0.43302,0.07125],[-1.47271,1.68481]],[[181.88093,529.94505],[0,0],[-5.19825,-0.03136]],[[168.72797,532.7161],[4.68974,-2.35777],[-2.28856,1.15057]],[[158.54838,539.8666],[0.91246,-2.88496],[-4.55296,14.39527]],[[184.42164,553.24566],[-9.161,8.53245],[3.13698,-2.92174]],[[187.87508,540.65255],[-0.32928,3.77936],[0.00043,-2.01502]],[[186.95692,528.81519],[1.87185,1.67527],[-0.34993,-0.31318]]],&quot;closed&quot;:true}]}" fill="#7aff4a"/><g><path d="M79.80598,169.13966c-0.85898,1.59454 -2.76958,2.0302 -2.76958,2.0302c-4.10772,0.91065 -6.60418,1.84904 -9.88071,4.55352c-1.59892,1.31976 -6.54537,5.03363 -6.74628,7.47442c-1.00249,12.17897 17.13095,14.28364 22.82476,5.90199c1.94972,-2.8701 0.87936,-7.51733 0.45912,-10.55898c-0.36225,-1.59018 -1.07603,-8.19078 -2.85462,-9.17595c-0.33249,-0.18417 -0.67818,-0.24689 -1.0327,-0.2252zM70.44063,164.64982c0.23664,-0.16265 0.39754,-0.24422 0.39754,-0.24422l2.17742,-1.05598c3.42392,-1.11136 7.69023,-3.13798 11.42664,-1.23213c5.11814,2.61063 6.11098,10.14245 7.21576,14.9833c0.56146,4.27504 1.24837,6.69847 0.32518,11.02808c-2.46352,11.5536 -18.21694,17.2131 -28.48183,12.65828c-8.79363,-3.90198 -13.82836,-15.66529 -8.54948,-24.00694c1.58621,-2.50653 4.79987,-5.45534 7.07143,-7.31531c2.82164,-2.31038 5.42977,-3.74921 8.41732,-4.81508z" fill="#7aff4a"/><path d="M89.27981,181.1985c-0.01325,0.63783 -0.12498,1.17302 -0.30377,1.62208c2.36609,7.05977 7.99878,13.06643 11.8558,19.42387c8.7126,14.36079 17.11496,28.98324 25.85358,43.36676c0.6286,1.03466 3.832,8.14081 5.18222,8.45475c0.9013,0.20955 1.78467,-0.49125 2.66782,-0.76746c0.63715,-0.19927 1.26729,-0.40801 1.89175,-0.62534c3.11435,-1.42502 7.33747,-3.81956 10.22054,-4.31845l3.62567,-1.71961c0.2842,-0.1421 0.58979,-0.25275 0.91337,-0.32653c2.17911,-0.4969 4.34845,0.86679 4.84536,3.0459c0.43601,1.91206 -0.56049,3.8166 -2.28342,4.59037l-3.63251,1.72285c-1.08634,2.25542 -4.21241,2.52606 -6.72772,3.29653c-1.37264,0.63464 -2.79697,1.2441 -4.22749,1.75719c-4.92593,2.21332 -10.93958,4.95252 -15.67788,3.91138c-6.22799,-1.36846 -11.30255,-8.94938 -15.05429,-13.5178c-8.72762,-10.62746 -16.9181,-21.51917 -25.65127,-32.16184c-5.33493,-7.75037 -8.31875,-16.27182 -11.1097,-25.20964c-1.54333,-4.9424 -3.21262,-7.23583 0.77868,-12.19016c1.47343,-1.82896 7.40774,-3.55161 9.66615,-4.31355l3.20517,-0.17142c0,0 4.04604,0.08409 3.96194,4.13013z" fill="#a6ff4a"/></g></g></g></g><path d="M26.07133,274.18874c4.42188,-1.72789 12.88508,3.08558 13.56192,7.47325c0.84076,5.45031 -4.67646,8.10582 -9.28257,8.3451c-0.37397,0.01942 0.49208,0.56489 0.74916,0.83718c0.64945,0.68787 1.24951,1.23472 1.94376,1.82813c0.94438,0.8072 6.53284,6.36093 2.36303,6.66765c-1.0124,0.07447 -6.19666,-4.99251 -8.76853,-8.53668c0.27684,4.00937 1.74407,10.26257 -1.74585,10.26257c-4.29511,0 -1.62146,-10.97706 -1.61313,-12.15066c0.02242,-3.16029 0.11668,-5.95916 0.27419,-9.00711c0.04736,-0.91637 0.05255,-4.84868 1.04195,-5.04657l0.66532,-0.24911c0.25085,-0.1704 0.52219,-0.31101 0.81075,-0.42377zM35.86798,280.46606c-0.87334,-2.05274 -5.75345,-2.36157 -8.69434,-2.65216c0.35726,2.67745 -0.05722,6.21687 -0.34573,8.93468c3.79167,-1.10042 11.81828,0.24753 9.04007,-6.28252z" fill="#ff945e"/><path d="M51.09079,295.68578l0.01062,0.01593l-0.01062,0.04779v0.04749l-0.0914,0.36559v0.36558l-0.04117,0.16471l0.00807,0.16958l-0.0914,0.45698l-0.04611,0.09734l-0.00794,0.10329l0.00638,0.00957l-0.01062,0.04779v0.04749l-0.0914,0.36558v2.19349l-0.21307,0.85226l-1.49146,0.85226l-1.49146,-0.85226l-0.0343,-0.13723l-0.30214,0.07554h-0.04749l-0.04779,0.01062l-0.01593,-0.01062h-0.0219l-0.34208,0.05701l-0.29954,0.07488h-0.04156l-0.03756,0.01779l-0.45698,0.0914l-0.16958,-0.00807l-0.16471,0.04117h-0.15575l-0.16201,0.04051h-0.20983l-0.20358,0.05089h-1.64512l-0.26582,-0.06646l-0.2732,-0.02101l-0.01903,-0.00635l-0.25614,-0.06404l-0.27319,-0.02101l-0.27419,-0.0914l-0.10351,-0.06586l-0.11976,-0.02662l-0.81448,-0.40724l-0.019,0.00237l-0.038,-0.03087l-0.04248,-0.02124l-0.29736,-0.25489l-0.30396,-0.24697l-0.0285,-0.038l-0.03717,-0.03186l-0.00106,-0.01911l-0.20746,-0.27661l-0.01879,-0.04464l-0.03584,-0.03258l-0.18279,-0.27419l-0.03622,-0.10143l-0.0701,-0.08178l-0.04394,-0.08788l-0.12393,-0.18589l-0.03623,-0.10143l-0.0701,-0.08178l-0.0914,-0.18279l-0.04072,-0.18324l-0.08834,-0.16563l-0.07552,-0.30208l-0.07069,-0.21208l-0.02101,-0.27319l-0.06646,-0.26582v-0.08898l-0.00393,-0.01177l-0.02101,-0.27319l-0.06646,-0.26582v-0.63977l0.04117,-0.16471l-0.00807,-0.16958l0.05829,-0.29147v-0.08558l-0.01062,-0.01593l0.01062,-0.04779v-0.04749l0.09139,-0.36558v-0.0914l0.03376,-0.13501l-0.03376,-0.07805l0.13112,-0.3114l0.08195,-0.32779l0.07384,-0.04219l0.054,-0.12826l0.2458,-0.32773l0.15655,-0.23482l0.12562,-0.1142l0.08735,-0.14558l0.06344,-0.06344l0.08917,-0.13375l0.12562,-0.1142l0.08735,-0.14558l0.73117,-0.73117l0.1052,-0.06312l0.07736,-0.09522l0.26867,-0.2015l0.09714,-0.09714l0.0823,-0.04938l0.05817,-0.07635l0.38326,-0.30661l0.11604,-0.11604l0.0823,-0.04938l0.05817,-0.07635l0.45698,-0.36558l0.06857,-0.03143l0.05073,-0.05581l0.40794,-0.27196l0.06344,-0.06344l0.14558,-0.08735l0.1142,-0.12562l0.27418,-0.18279l0.10144,-0.03623l0.08178,-0.0701l0.26611,-0.13305l0.0095,-0.01662l0.04749,-0.01188l0.04248,-0.02124l0.32903,-0.07312l0.03656,-0.01828l0.38233,-0.08496l0.37996,-0.09499h0.04749l0.04779,-0.01062l0.01593,0.01062h0.80274l0.26582,0.06646l0.26909,0.0207l0.00957,-0.00638l0.04779,0.01062h0.04749l0.37996,0.09499l0.01761,0.00391v-0.49647l0.04117,-0.16471l-0.00807,-0.16958l0.05829,-0.29147v-0.1968l0.05089,-0.20357v-0.20984l0.0914,-0.36558l0.09875,-0.18515l0.06343,-0.2537l0.10339,-0.05909l0.14784,-0.2772l0.66415,-0.18679l0.57608,-0.32919l0.19604,0.11203l0.21737,-0.06114l0.47903,0.45908l0.59902,0.3423l0.07619,0.30478l0.08598,0.0824v0.26151l0.0509,0.20358v0.18037l0.00392,0.01177l0.02102,0.2732l0.06646,0.26582v6.56066l0.01062,0.01593l-0.01062,0.04779zM47.49272,292.28802l-0.02187,0.01458l-0.0504,-0.0112c-0.01492,0.00039 -0.02988,0.00058 -0.04489,0.00058c-0.28629,0 -0.55608,-0.07057 -0.79295,-0.19528l-0.01182,-0.0059l-0.19222,-0.04805l-0.27319,-0.02102l-0.01177,-0.00392h-0.41776l-0.09355,0.04677l-0.04546,0.03031l-0.06344,0.06344l-0.14558,0.08735l-0.1142,0.12562l-0.48683,0.32455l-0.3255,0.2604l-0.11604,0.11603l-0.0823,0.04938l-0.05817,0.07635l-0.38326,0.30661l-0.11604,0.11603l-0.1052,0.06312l-0.07737,0.09522l-0.26867,0.2015l-0.52616,0.52616l-0.08917,0.13375l-0.12562,0.1142l-0.08735,0.14558l-0.06344,0.06344l-0.08917,0.13375l-0.03584,0.03258l-0.01879,0.04463l-0.02467,0.0329v0.13252l-0.04118,0.16471l0.00808,0.16958l-0.05829,0.29147v0.19438l0.00392,0.01177l0.02102,0.27319l0.06646,0.26582v0.08897l0.00392,0.01177l0.00513,0.06664l0.03145,0.05897l0.03807,0.15227l0.09213,0.1382l0.03623,0.10143l0.0701,0.08178l0.04394,0.08788l0.09768,0.14652l0.00437,0.00583l0.41374,0.20687l0.19222,0.04805l0.27319,0.02101l0.01177,0.00393h1.15868l0.16201,-0.04051h0.20983l0.20358,-0.05089h0.1968l0.2517,-0.05034l0.32623,-0.08156h0.06948l0.06372,-0.0277l0.54837,-0.0914l0.09107,0.00729l0.06663,-0.03332l0.11976,-0.02661l0.10351,-0.06587l0.12145,-0.04048l0.1205,-0.09038l0.01147,-0.01147l0.03554,-0.04739l0.00393,-0.01177l0.06586,-0.1035l0.02662,-0.11977l0.00284,-0.00568v-1.24274l0.06646,-0.26582l0.02101,-0.2732l0.00635,-0.01903l0.04847,-0.19389v-0.20984l0.0914,-0.36558l0.01273,-0.02386l0.02778,-0.1111v-0.27176l-0.00393,-0.01177l-0.02101,-0.2732l-0.06646,-0.26582v-0.63977l-0.0914,-0.36558v-0.04749l-0.01062,-0.04779l0.01062,-0.01593v-0.10796c-0.00207,0.00015 -0.00415,0.00029 -0.00622,0.00044z" fill="#ff945e"/><path d="M54.04744,288.33455c0.96685,0.55248 1.45091,1.23792 1.67771,2.00733c0.57778,1.96003 -0.51392,4.46496 0.45351,6.70495c0.01613,0.03735 0.25671,1.24598 0.40733,1.24983c3.34717,0.08581 0.69393,-10.65551 4.62142,-8.41123c2.83993,1.62282 0.95763,11.8309 -3.41665,11.8309c-5.31304,0 -5.14316,-4.69904 -5.26507,-8.844c-0.01289,-0.43813 -0.65945,-3.29139 0.05275,-3.69837z" fill="#ff945e"/><path d="M70.74083,285.83489c0,0.93378 -1.40827,1.49904 -3.08293,1.79602c0.3235,5.05426 0.72584,13.06947 -1.08927,13.06947c-2.46075,0 -1.64776,-4.19575 -1.91226,-5.82569c-0.307,-1.89181 -0.76087,-4.3949 -0.98096,-6.9967c-0.70984,-0.03736 -1.24019,-0.12583 -1.42813,-0.25113c-0.88674,-0.0602 -1.58736,-0.79856 -1.58736,-1.70057c0,-0.94138 0.76314,-1.70453 1.70453,-1.70453c0.02452,0 0.04892,0.00052 0.07319,0.00154c0.34842,-0.14893 0.7312,-0.26977 1.13528,-0.36352c0.1405,-2.99314 0.86425,-5.76268 2.77403,-7.49699c3.8385,-3.48582 9.89912,3.414 7.54,4.76207c-0.29651,0.50239 -0.84339,0.83942 -1.46899,0.83942c-0.94138,0 -1.70453,-0.76314 -1.70453,-1.70453c0,-0.10527 0.00954,-0.20832 0.02781,-0.30831c-0.39664,-0.55827 -0.84339,-0.99965 -1.55893,-1.00321c-1.71029,-0.00851 -1.64646,3.54647 -1.73102,4.77478c1.82082,0.26629 3.28956,0.99887 3.28956,2.11187z" fill="#ff945e"/><path d="M78.00404,275.99616c0.6256,0 1.17248,0.33703 1.46899,0.83942l0.02247,0.01285l0.0122,0.0488c0.12818,0.23938 0.20087,0.51293 0.20087,0.80347v0.18279l-0.02035,0.08141c-0.00156,0.01002 -0.00321,0.02001 -0.00494,0.02997l0.01213,0.10004l-0.0914,0.73117l-0.02296,0.05932l0.00303,0.06354l-0.05829,0.29147v0.37959l-0.03455,0.13821l0.01136,0.14201l-0.0682,0.40922v0.4073l-0.02975,0.11902l0.01262,0.12203l-0.07426,0.51985v0.51863l-0.02612,0.10449l0.01296,0.10693l-0.07824,0.62587v0.16807l-0.02612,0.10449l0.01296,0.10692l-0.0914,0.73117l-0.02296,0.05932l0.00303,0.06354l-0.0914,0.45698l-0.0178,0.03756v0.04156l-0.06643,0.26573l-0.06547,0.52373v0.35085l-0.03455,0.13822l0.01137,0.14201l-0.08568,0.51408l-0.07392,0.59135v2.90993l-0.02976,0.11902l0.01263,0.12204l-0.08763,0.6134l-0.01393,0.12536l0.1363,-0.03029l0.37997,-0.09499h0.04749l0.04779,-0.01062l0.01593,0.01062h1.87967l0.01593,-0.01062l0.04779,0.01062h0.04749l0.36559,0.0914h0.0914l0.26582,0.06646l0.2732,0.02101l0.16867,0.05623l0.01847,-0.00504l0.04199,0.02519l0.04505,0.01502l0.33043,0.21027l0.33584,0.2015l0.03359,0.03359l0.0413,0.02628l0.00376,0.01878l0.28694,0.28694l0.00498,0.0083l0.02996,0.00843l0.19923,0.37354l0.21781,0.36302l-0.00819,0.03003l0.00456,0.00854l0.07552,0.30208l0.03239,0.09716l0.03723,0.07444l0.02661,0.11977l0.06587,0.10351l0.0914,0.27418l0.00512,0.06664l0.03145,0.05897l0.0914,0.36559v0.20983l0.0509,0.20358v0.98553l0.01062,0.01593l-0.01062,0.04779v0.04749l-0.09499,0.37997l-0.08497,0.38233l-0.02124,0.04248l-0.01187,0.04749l-0.01147,0.00656l-0.04572,0.13718l-0.06587,0.1035l-0.02661,0.11977l-0.0914,0.18279l-0.10083,0.11763l-0.06012,0.14279l-0.18197,0.24263l-0.02266,0.04532l-0.17832,0.20803l-0.14098,0.23496l-0.03644,0.03645l-0.02477,0.06935l-0.1703,0.25545l-0.00145,0.02609l-0.32154,0.27561l-0.04259,0.06389l-0.00145,0.02609l-0.3348,0.28696l-0.32627,0.29661l-0.02607,-0.00179l-0.52824,0.26412l-0.11977,0.02661l-0.10351,0.06587l-0.27418,0.09139l-0.27319,0.02102l-0.26582,0.06646h-0.18279l-0.36558,0.09139h-0.04749l-0.04779,0.01062l-0.01593,-0.01062h-0.07158l-0.36558,0.0914h-0.04749l-0.04779,0.01062l-0.01593,-0.01062h-0.34576l-0.36558,0.0914h-0.04749l-0.04779,0.01062l-0.01593,-0.01062h-0.23455l-0.01593,0.01062l-0.04779,-0.01062h-0.04749l-0.37996,-0.09499l-0.38233,-0.08496l-0.04248,-0.02124l-0.04749,-0.01188l-0.0095,-0.01662l-0.26833,-0.13417l-0.41759,0.34067l-0.14553,-0.05378l-0.1347,0.07697l-0.62791,-0.35881l-0.70314,-0.25985l-0.08211,-0.18886l-0.07829,-0.04474l-0.07961,-0.31843l-0.11027,-0.25361l-0.09139,-0.54837l0.01136,-0.14201l-0.03455,-0.13821v-1.18814l0.05089,-0.20357v-0.20984l0.04051,-0.16201v-0.15575l0.05089,-0.20358v-0.20983l0.08156,-0.32623l0.05034,-0.2517v-0.83657l0.05089,-0.20357v-0.20984l0.0405,-0.16201v-0.52133l0.0509,-0.20357v-0.20984l0.0405,-0.16201v-0.06435l0.06646,-0.26582l0.02101,-0.27319l0.00635,-0.01904l0.03875,-0.15502l-0.00807,-0.16958l0.07689,-0.38445l0.08323,-0.74904l0.00952,-0.02563l-0.00282,-0.02719l0.07427,-0.51985v-2.89491l0.02612,-0.10449l-0.01296,-0.10693l0.0914,-0.73116l0.01287,-0.03326l-0.00284,-0.03554l0.0682,-0.40922v-0.31591l0.02613,-0.10449l-0.01296,-0.10692l0.0914,-0.73117l0.03772,-0.09747v-0.10451l0.08156,-0.32623l0.07123,-0.35614l0.07051,-0.56407v-0.16807l0.02613,-0.10449l-0.01296,-0.10693l0.07823,-0.62586v-0.53365l0.02975,-0.11902l-0.01262,-0.12204l0.07426,-0.51985v-0.42724l0.03455,-0.13821l-0.01136,-0.14201l0.0682,-0.40922v-0.4073l0.04117,-0.16471l-0.00807,-0.16958l0.07918,-0.39591l0.07051,-0.56407v-0.07667c0,-0.29053 0.07268,-0.56408 0.20086,-0.80347l0.0122,-0.0488l0.02247,-0.01285c0.29651,-0.50239 0.84339,-0.83942 1.46899,-0.83942zM80.10614,296.56016h0.04749l0.01278,-0.00284l0.03656,-0.01828l0.16469,-0.14117l0.04181,-0.08362l0.17832,-0.20803l0.14097,-0.23496l0.067,-0.06699l0.04885,-0.11602l0.16306,-0.21742l0.04049,-0.12145l0.00393,-0.00616v-0.52452l-0.02463,-0.0985l-0.03239,-0.09716l-0.03722,-0.07445l-0.02661,-0.11976l-0.06587,-0.10351l-0.00754,-0.02264h-1.57425l-0.00525,0.00132l-0.0041,0.00261l-0.15926,0.05309l-0.07445,0.03723l-0.11976,0.02661l-0.04486,0.02854l-0.00198,0.00554l-0.12393,0.18589l-0.04394,0.08787l-0.17832,0.20804l-0.14097,0.23495l-0.06344,0.06345l-0.10819,0.16228l-0.01979,0.07915l-0.0405,0.07594v0.79018l-0.0509,0.20358v0.14551l0.2054,0.04565l0.14574,0.07287l0.28012,-0.07003h0.04749l0.04779,-0.01062l0.01593,0.01062h0.34576l0.36559,-0.0914h0.04749l0.04779,-0.01062l0.01593,0.01062h0.07157z" fill="#ff945e"/><path d="M90.41401,289.88828l0.01593,-0.01062l0.04779,0.01062h0.04749l0.37996,0.09499l0.09995,0.02221c0.05004,0.0088 0.09934,0.01978 0.14778,0.03284l0.13459,0.0299l0.04248,0.02125l0.04749,0.01187l0.0095,0.01662l0.05029,0.02515c0.14444,0.06847 0.27772,0.15665 0.39636,0.26107l0.24142,-0.16094l0.45907,0.10201h0.0018l0.01438,0.0036l0.38233,0.08496l0.03656,0.01828l0.32902,0.07312l0.04248,0.02124l0.04749,0.01187l0.0095,0.01663l0.26611,0.13305l0.20803,0.17832l0.23496,0.14097l0.13709,0.1371l0.22849,0.13709l0.18279,0.18279l0.14097,0.23496l0.17832,0.20804l0.03038,0.06076l0.23992,0.20564l0.00145,0.02609l0.17031,0.25546l0.03622,0.10143l0.0701,0.08178l0.27418,0.54837l0.04072,0.18325l0.08834,0.16563l0.18279,0.73116v0.20984l0.05089,0.20357v1.07693l0.01062,0.01593l-0.01062,0.04779v0.04749l-0.09499,0.37996l-0.02967,0.13355l0.00017,0.00357l-0.0914,0.45698l-0.0178,0.03756v0.04156l-0.0914,0.36558l-0.08834,0.16563l-0.00657,0.02956l0.00714,0.02617l-0.02058,0.0343l-0.02071,0.09322l-0.0914,0.18279l-0.16704,0.19488l-0.0046,0.00862l-0.01007,0.03021l-0.21027,0.33043l-0.2015,0.33584l-0.03359,0.03358l-0.00419,0.0066l-0.02343,0.06562l-0.17031,0.25546l-0.00145,0.02609l-0.3348,0.28697l-0.14025,0.1275l-0.08437,0.12655l-0.12562,0.1142l-0.08735,0.14557l-0.27418,0.27419l-0.14558,0.08735l-0.1142,0.12562l-0.13375,0.08917l-0.06345,0.06344l-0.22849,0.13709l-0.13709,0.1371l-0.23495,0.14097l-0.20804,0.17832l-0.18279,0.0914l-0.09322,0.02071l-0.0343,0.02058l-0.01072,-0.00292l-0.08503,0.05412l-0.13718,0.04572l-0.00655,0.01147l-0.04749,0.01188l-0.04248,0.02124l-0.38233,0.08496l-0.37996,0.09499h-0.04749l-0.04779,0.01062l-0.01593,-0.01062h-0.87431l-0.01593,0.01062l-0.04779,-0.01062h-0.04749l-0.37996,-0.09499l-0.38233,-0.08496l-0.04248,-0.02124l-0.04749,-0.01188l-0.0095,-0.01662l-0.4489,-0.22445l-0.20803,-0.17832l-0.23496,-0.14097l-0.36558,-0.36559l-0.13709,-0.22849l-0.1371,-0.13709l-0.14097,-0.23496l-0.17832,-0.20803l-0.13533,-0.27067l-0.12393,-0.18589l-0.07657,-0.21441l-0.12223,-0.19208l-0.05309,-0.15926l-0.03722,-0.07444l-0.02661,-0.11977l-0.06587,-0.10351l-0.0914,-0.27418l-0.00826,-0.10739l-0.04611,-0.09734l-0.0914,-0.45698l0.00808,-0.16958l-0.04118,-0.16471v-0.82256l0.06646,-0.26582l0.02102,-0.2732l0.00392,-0.01177v-0.08897l0.06646,-0.26582l0.02101,-0.27319l0.00635,-0.01904l0.06404,-0.25614l0.02101,-0.27319l0.27419,-0.82256l0.00261,-0.0041l0.00491,-0.01963l0.06656,-0.29951l0.01732,-0.22513l0.09139,-0.27418l0.06587,-0.10351l0.02661,-0.11977l0.12862,-0.25723l0.05309,-0.15926l0.12223,-0.19207l0.07657,-0.21441l0.54837,-0.82256l0.12562,-0.1142l0.08735,-0.14558l0.18279,-0.18279l0.23495,-0.14097l0.20804,-0.17832l0.2661,-0.13306l0.0095,-0.01662l0.04749,-0.01187l0.04248,-0.02125l0.38233,-0.08496l0.37997,-0.09499h0.04749l0.04779,-0.01062l0.01593,0.01062zM90.82518,293.38477l-0.02187,0.01458l-0.0504,-0.0112c-0.01492,0.00039 -0.02988,0.00058 -0.04489,0.00058c-0.0307,0 -0.06121,-0.00081 -0.09151,-0.00241l-0.10014,0.1502l-0.01921,0.05763l-0.06587,0.10351l-0.02661,0.11977l-0.12862,0.25723l-0.05309,0.15926l-0.00261,0.0041l-0.00491,0.01963l-0.06656,0.29951l-0.01732,0.22513l-0.18913,0.56741l-0.06404,0.25614l-0.02101,0.27319l-0.00393,0.01177v0.08898l-0.06646,0.26582l-0.02101,0.27319l-0.00393,0.01177v0.37717l0.03749,0.18742l0.01953,0.05859l0.03723,0.07445l0.02661,0.11976l0.06587,0.10351l0.01921,0.05763l0.05617,0.08426l0.03622,0.10143l0.0701,0.08178l0.08469,0.16938l0.0987,0.16449l0.09483,0.09483h0.3025l0.00616,-0.00392l0.11361,-0.03787l0.08838,-0.05304l0.1371,-0.13709l0.14558,-0.08735l0.1142,-0.12562l0.13376,-0.08917l0.03549,-0.0355l0.08917,-0.13375l0.12562,-0.1142l0.08735,-0.14557l0.18279,-0.18279l0.12142,-0.07285l0.01626,-0.03253l0.16986,-0.19817l0.01184,-0.03554l0.21027,-0.33043l0.08564,-0.14272l0.02326,-0.09306l0.08344,-0.4172l0.05829,-0.12307v-0.70374l-0.08651,-0.34607l-0.11739,-0.23478l-0.08687,-0.10135l-0.25654,-0.21989l-0.00471,-0.08491l-0.09057,-0.10566l-0.04237,-0.08475l-0.12271,-0.07363l-0.02314,-0.01157l-0.32902,-0.07312l-0.04248,-0.02124l-0.04749,-0.01188l-0.0095,-0.01662l-0.08332,-0.04166l-0.1977,-0.16946c-0.12303,0.03789 -0.252,0.06222 -0.38518,0.07126z" fill="#ff945e"/><path d="M98.56803,278.55523c0.75238,0.42993 1.29451,1.13722 1.67795,2.00602c1.32609,3.00469 0.75409,7.94123 0.4171,10.01784c-0.26233,1.61658 0.04779,7.57345 0.17055,7.62618c1.09134,0.46881 3.15415,-2.75123 4.01933,0.4211c0.74148,2.71874 -4.3209,3.22706 -5.67628,2.808c-3.42539,-1.05906 -1.84906,-17.21734 -1.85619,-18.4971c-0.00389,-0.69806 -1.00621,-3.09418 -0.22144,-3.54262z" fill="#ff945e"/><path d="M110.61242,289.15712l0.01593,-0.01062l0.04779,0.01062h0.0475l0.37996,0.09499l0.09996,0.02221c0.05005,0.0088 0.09934,0.01978 0.14778,0.03284l0.13459,0.02991l0.04248,0.02124l0.0475,0.01187l0.0095,0.01662l0.05029,0.02514c0.21926,0.10394 0.4128,0.25329 0.56848,0.43591l0.0415,-0.20751l0.08362,-0.50171l0.07146,-0.50023v-0.24445l0.04118,-0.1647l-0.00808,-0.16958l0.05829,-0.29147v-1.01936l0.04118,-0.1647l-0.00808,-0.16958l0.05829,-0.29147v-0.83657l0.06646,-0.26582l0.02102,-0.2732l0.00392,-0.01177v-0.18037l0.06646,-0.26582l0.02102,-0.2732l0.00392,-0.01177v-0.36316l0.06646,-0.26582l0.02102,-0.2732l0.00392,-0.01177v-0.36316l0.06646,-0.26582l0.02102,-0.2732l0.00392,-0.01177v-0.06915l-0.01062,-0.01593l0.01062,-0.04779v-0.0475l0.09499,-0.37996l0.08496,-0.38233l0.01828,-0.03656l0.07312,-0.32902l0.00284,-0.00568v-0.51157l0.21307,-0.85226l1.49146,-0.85226l1.49146,0.85226l0.21307,0.85226v0.61995l0.01062,0.01593l-0.01062,0.04779v0.0475l-0.09499,0.37996l-0.08496,0.38233l-0.01828,0.03656l-0.07312,0.32902l-0.00284,0.00568v0.23738l-0.06646,0.26582l-0.02102,0.2732l-0.00392,0.01177v0.36316l-0.06646,0.26582l-0.02102,0.2732l-0.00392,0.01177l0,0.36316l-0.06646,0.26582l-0.02102,0.2732l-0.00392,0.01177v0.18037l-0.06646,0.26582l-0.02102,0.2732l-0.00392,0.01177v0.72874l-0.04118,0.1647l0.00808,0.16958l-0.05829,0.29147v1.01936l-0.04118,0.1647l0.00808,0.16958l-0.05829,0.29147v0.1968l-0.02976,0.11902l0.01262,0.12203l-0.0914,0.63977l-0.00768,0.01886l0.00162,0.0203l-0.0914,0.54837l-0.01125,0.02588l0.00134,0.02819l-0.05829,0.29147v0.01401l-0.01401,0.05604l-0.01909,0.09546l-0.01011,0.02134l-0.02325,0.09299l-0.02102,0.2732l-0.07069,0.21208l-0.02463,0.0985v0.42993l-0.05089,0.20357v0.20984l-0.0405,0.16201v0.15575l-0.05089,0.20357v0.20984l-0.18279,0.73116l-0.03145,0.05897l-0.00513,0.06664l-0.00392,0.01177v0.18037l-0.0783,0.31318l-0.04362,0.31986l-0.06088,0.15219v0.03732l-0.06646,0.26582l-0.02102,0.2732l-0.00392,0.01177v0.08898l-0.05089,0.20357v0.20984l-0.08156,0.32623l-0.17484,0.87418l-0.01779,0.03756v0.04156l-0.0914,0.36558l-0.13727,0.25738l-0.09811,0.27471l-0.08434,0.12652l-0.11688,0.29219l-0.04235,0.05864l-0.01569,0.07061l-0.18279,0.36558l-0.17832,0.20804l-0.14097,0.23496l-0.28694,0.28694l-0.00375,0.01877l-0.0413,0.02628l-0.03358,0.03358l-0.33584,0.2015l-0.33042,0.21027l-0.04506,0.01502l-0.04198,0.02519l-0.01847,-0.00504l-0.05376,0.01792l-0.15776,0.07888l-0.0095,0.01662l-0.0475,0.01187l-0.04248,0.02124l-0.38233,0.08496l-0.37996,0.09499h-0.0475l-0.04779,0.01062l-0.01593,-0.01062h-2.15385l-0.01593,0.01062l-0.04779,-0.01062h-0.0475l-0.37996,-0.09499l-0.38233,-0.08496l-0.03656,-0.01828l-0.17533,-0.03896l-0.02618,0.00714l-0.0343,-0.02058l-0.09322,-0.02072l-0.04248,-0.02124l-0.0475,-0.01187l-0.0095,-0.01662l-0.08332,-0.04166l-0.20804,-0.17832l-0.23496,-0.14097l-0.13709,-0.13709l-0.22849,-0.13709l-0.10415,-0.10415l-0.01877,-0.00375l-0.02628,-0.0413l-0.03358,-0.03358l-0.2015,-0.33584l-0.21027,-0.33042l-0.01502,-0.04506l-0.02519,-0.04198l0.00504,-0.01847l-0.01792,-0.05376l-0.03722,-0.07444l-0.02661,-0.11976l-0.06587,-0.1035l-0.13712,-0.41137l-0.01147,-0.00655l-0.01187,-0.0475l-0.02124,-0.04248l-0.08496,-0.38233l-0.09257,-0.37028l-0.00634,-0.01903l-0.00656,-0.08534l-0.00013,-0.00059l0.00008,-0.00011l-0.0144,-0.18715l-0.06646,-0.26582v-0.45698l0.06646,-0.26582l0.02102,-0.2732l0.00392,-0.01177v-0.45456l0.04118,-0.1647l-0.00808,-0.16958l0.0914,-0.45698l0.01779,-0.03756v-0.04156l0.18279,-0.73116l0.03145,-0.05897l0.00513,-0.06664l0.0914,-0.27419l0.04025,-0.06324l0.04524,-0.18095l-0.03429,-0.12575l0.11268,-0.18781l0.05312,-0.21248l0.11317,-0.06467l0.0204,-0.03401l0.01502,-0.04506l0.21027,-0.33042l0.2015,-0.33584l0.03358,-0.03358l0.02628,-0.0413l0.01877,-0.00375l0.69822,-0.69822l0.13709,-0.22849l0.16999,-0.16999l0.05909,-0.11818l0.57172,-0.667l0.0672,-0.00373l0.03339,-0.05844l0.49193,-0.12298l0.00411,-0.00261l0.27419,-0.0914l0.2732,-0.02102l0.26582,-0.06646zM111.02359,292.6536l-0.02188,0.01458l-0.0504,-0.0112c-0.01492,0.00039 -0.02988,0.00058 -0.04489,0.00058c-0.19322,0 -0.37894,-0.03215 -0.55209,-0.0914h-0.02141l-0.27762,0.27762l-0.13709,0.22849l-0.62766,0.62766l-0.06523,0.1025l-0.08457,0.38058l-0.02124,0.04248l-0.01187,0.0475l-0.01147,0.00655l-0.02503,0.07508l-0.15708,0.62831l-0.05034,0.2517v0.56238l-0.06646,0.26582l-0.01822,0.23685l0.01822,0.23685l0.03013,0.12054l0.04025,0.06324l0.14448,0.43345l0.02308,0.04616h1.65161l0.00568,-0.00284l0.03273,-0.00727l0.15229,-0.38073l0.10439,-0.14454l0.05997,-0.16791l0.01902,-0.02853l0.00995,-0.0398l0.17484,-0.87418l0.01779,-0.03756v-0.04156l0.0405,-0.16201v-0.15575l0.06646,-0.26582l0.02102,-0.2732l0.00392,-0.01177v-0.08898l0.0783,-0.31318l0.04362,-0.31986l0.06088,-0.15219v-0.12872l0.06646,-0.26582l0.02102,-0.2732l0.07069,-0.21208l0.11602,-0.46409l0,-0.01711c-0.24019,0.16053 -0.52346,0.26166 -0.82878,0.28239z" fill="#ff945e"/><path d="M127.1529,279.96821c2.44525,4.02947 -1.31912,4.62876 -1.64798,7.59695c-0.07378,0.66591 1.49909,2.78321 1.7147,3.75347c0.97016,4.36574 -2.23639,6.82916 -5.90872,7.64524c-1.95186,0.43375 -2.63642,-1.86881 -1.30924,-3.19599c1.5091,-1.5091 5.44367,-0.2533 3.6605,-4.52647c-0.7272,-1.74266 -4.32997,-2.71574 -4.32997,-3.76139c0,-1.70331 6.01271,-2.15451 5.39234,-4.71577c-0.33554,-1.38529 -1.59504,-1.729 -2.85766,-1.84396c-0.31251,0.35964 -0.77327,0.58703 -1.28713,0.58703c-0.70122,0 -1.30354,-0.42343 -1.56523,-1.02855c-0.08611,-0.09891 -0.12792,-0.22577 -0.11533,-0.3895c-0.01576,-0.09314 -0.02397,-0.18885 -0.02397,-0.28648c0,-0.39588 0.13496,-0.76023 0.36137,-1.04957c1.49806,-2.65161 6.49142,-1.13307 7.91633,1.21499z" fill="#ff945e"/><path d="M130.99883,276.91011c0.6256,0 1.17248,0.33703 1.46899,0.83942l0.02247,0.01284l0.0122,0.0488c0.12818,0.23938 0.20087,0.51294 0.20087,0.80347v1.55372l-0.06646,0.26582l-0.02102,0.2732l-0.00392,0.01177v0.18037l-0.04118,0.1647l0.00808,0.16958l-0.14969,0.74845v1.11076l-0.05089,0.20357v0.20984l-0.0405,0.16201v0.15575l-0.05089,0.20357v0.20984l-0.0405,0.16201v0.42993l-0.05089,0.20357v0.20984l-0.0405,0.16201v0.15575l-0.05089,0.20357l0,0.20984l-0.0405,0.16201l0,0.24714l-0.04118,0.1647l0.00808,0.16958l-0.05829,0.29147l0,2.51158l0.00087,-0.00074l0.36558,-0.18279l0.11976,-0.02661l0.1035,-0.06587l0.82256,-0.27419l0.2732,-0.02102l0.26582,-0.06646h1.27954l0.20357,0.05089h0.20984l0.36558,0.0914l0.25738,0.13727l0.27471,0.09811l0.27419,0.18279l0.1142,0.12562l0.14558,0.08735l0.45698,0.45698l0.08735,0.14558l0.12562,0.1142l0.08917,0.13375l0.06344,0.06344l0.08735,0.14558l0.12562,0.1142l0.18279,0.27419l0.03623,0.10143l0.0701,0.08178l0.15352,0.30703l0.13255,0.22091l0.04717,0.04717l0.01877,0.00375l0.02628,0.0413l0.03358,0.03358l0.2015,0.33584l0.21027,0.33042l0.01502,0.04506l0.02519,0.04198l-0.00504,0.01847l0.23902,0.71705l0.02102,0.2732l0.06646,0.26582v0.80274l0.01062,0.01593l-0.01062,0.04779v0.0475l-0.09499,0.37996l-0.05081,0.22864l0.00714,0.02618l-0.02058,0.0343l-0.02072,0.09322l-0.02124,0.04248l-0.01187,0.0475l-0.01662,0.0095l-0.04166,0.08332l-0.17832,0.20804l-0.14097,0.23496l-0.13709,0.13709l-0.13709,0.22849l-0.18279,0.18279l-0.1052,0.06312l-0.07736,0.09522l-0.36558,0.27419l-0.04464,0.01879l-0.03258,0.03584l-0.13375,0.08917l-0.06344,0.06344l-0.23496,0.14097l-0.20804,0.17832l-0.08787,0.04394l-0.73426,0.48951l-0.27471,0.09811l-0.25738,0.13727l-0.18406,0.04601l-0.01544,0.00772l-0.11976,0.02661l-0.1035,0.06587l-0.27419,0.0914l-0.06664,0.00513l-0.05897,0.03145l-0.07915,0.01979l-0.02853,0.01902l-0.10143,0.03623l-0.08178,0.0701l-0.18279,0.0914l-0.11976,0.02661l-0.1035,0.06587l-0.27419,0.0914l-0.17075,0.01313l-0.05488,0.02744l-0.0095,0.01662l-0.0475,0.01187l-0.04248,0.02124l-0.38233,0.08496l-0.37996,0.09499h-0.0475l-0.04779,0.01062l-0.01593,-0.01062h-0.03477l-0.18847,0.09423l-0.85757,0.19057l-0.15928,-0.10619l-0.15884,0.04467l-0.51624,-0.49473l-0.59493,-0.39662l0.00915,-0.16475l-0.05029,-0.04819l-0.2622,0.14983l-1.49146,-0.85226l-0.21307,-0.85226l0,-0.43716l-0.01062,-0.01593l0.01062,-0.04779v-0.0475l0.07661,-0.30644l0.01086,-0.14118l0.00392,-0.01177v-0.08898l0.06646,-0.26582l0.02102,-0.2732l0.00392,-0.01177v-8.58876l0.04118,-0.1647l-0.00808,-0.16958l0.05829,-0.29147v-0.2882l0.05089,-0.20357v-0.20984l0.0405,-0.16201v-0.15575l0.05089,-0.20357l0,-0.20984l0.0405,-0.16201v-0.42993l0.05089,-0.20357v-0.20984l0.0405,-0.16201v-0.15575l0.05089,-0.20357v-0.20984l0.0405,-0.16201v-1.0697l0.04118,-0.1647l-0.00808,-0.16958l0.14969,-0.74845v-0.2882l0.06646,-0.26582l0.02102,-0.2732l0.00392,-0.01177v-1.27712c0,-0.29053 0.07269,-0.56408 0.20087,-0.80347l0.0122,-0.0488l0.02247,-0.01284c0.2965,-0.50239 0.84339,-0.83942 1.46899,-0.83942zM133.16791,295.95818l0.17565,-0.1171l0.27471,-0.09811l0.25738,-0.13727l0.30207,-0.07552l0.09716,-0.03239l0.07444,-0.03722l0.18325,-0.04072l0.16563,-0.08834l0.07915,-0.01979l0.5769,-0.3846l0.06935,-0.02477l0.03645,-0.03645l0.14558,-0.08735l0.1142,-0.12562l0.23482,-0.15655l0.1943,-0.14572l0,-0.10497l-0.06464,-0.19393l-0.09245,-0.15408l-0.14838,-0.14838l-0.27419,-0.45698l-0.01946,-0.06394l-0.0435,-0.05074l-0.13533,-0.27067l-0.0303,-0.04545l-0.06344,-0.06344l-0.08735,-0.14558l-0.12562,-0.1142l-0.08917,-0.13375l-0.11257,-0.11257l-0.66247,0l-0.44523,0.14841l-0.16232,0.08116l-0.14868,0.09912l-0.05161,0.08602l-0.06344,0.06344l-0.08917,0.13375l-0.12562,0.1142l-0.04895,0.08158l-0.1838,0.3676l-0.04601,0.18406l-0.08834,0.16563l-0.04072,0.18325l-0.18279,0.36558l-0.0701,0.08178l-0.03623,0.10143l-0.01902,0.02853l-0.01979,0.07915l-0.03145,0.05897l-0.00513,0.06664l-0.07069,0.21208l-0.16691,0.66766l-0.03145,0.05897l-0.00513,0.06664l-0.02971,0.08914l0.91146,-0.05064l0.11177,0.16766z" fill="#ff945e"/><path d="M145.66102,280.50091c-3.87306,0.95835 -2.57413,-3.13155 -1.07538,-4.41619l0.33491,-0.16746c0.23687,-0.12471 0.50667,-0.19529 0.79296,-0.19529c0.94138,0 1.70453,0.76314 1.70453,1.70453c0,0.35664 -0.10953,0.68769 -0.29678,0.96136c-0.14456,0.98343 -0.67872,1.91967 -1.46024,2.11305z" fill="#ff945e"/><path d="M149.52297,296.55929c-0.4503,1.80121 -4.46842,3.457 -5.60823,1.46233c-1.07083,-1.87396 1.50099,-1.95606 1.8736,-2.55821c0.51298,-0.82901 -1.4959,-1.32381 -1.93188,-2.19578c-0.8723,-1.7446 0.6199,-4.29806 2.00871,-5.2101c2.6068,-1.71189 6.9549,2.94154 4.88175,4.1262c-0.2965,0.50239 -0.84339,0.83942 -1.46899,0.83942c-0.63379,0 -1.18678,-0.34591 -1.4805,-0.85923c-2.0664,-1.21287 2.45548,1.47558 1.72554,4.39537z" fill="#ff945e"/><path d="M211.07853,280.14155c-3.67518,-3.37659 -4.40918,3.9948 -4.00791,5.57469c0.38341,1.50958 7.11136,3.21603 8.00331,7.61167c0.69147,3.40767 -6.82441,8.39823 -9.6516,5.57104c-5.43919,-5.43919 7.42197,-1.87819 6.30142,-4.99031c-1.27472,-3.54029 -5.46756,-3.52404 -7.47952,-6.25939c-1.25,-1.69943 -0.62017,-3.93028 -0.58459,-5.82332c0.03363,-1.78886 0.99505,-3.62265 2.47137,-4.56213c2.53425,-1.6127 6.40588,-1.35874 8.16633,1.36939c0.25198,0.39049 3.37203,3.38919 1.84243,4.26324c-0.2965,0.50239 -0.84339,0.83942 -1.46899,0.83942c-0.84483,0 -1.54611,-0.61463 -1.68108,-1.42113c-0.5928,-0.68238 -1.10304,-1.43072 -1.91117,-2.17319z" fill="#ffe95e"/><path d="M222.80592,288.89708c0.11129,0.12984 0.209,0.25284 0.29395,0.36949c0.34332,0.31182 0.55888,0.7618 0.55888,1.26212c0,0.94138 -0.76314,1.70453 -1.70453,1.70453c-0.34613,0 -0.66816,-0.10317 -0.93702,-0.28043c-1.16827,0.41792 -2.3186,0.98566 -2.41639,2.31653c-0.27817,3.78574 4.55215,1.35322 4.55215,4.14976c0,2.65865 -4.92452,1.96919 -6.09679,0.72118c-3.43896,-3.66117 0.066,-13.78452 5.61962,-10.25041z" fill="#ffe95e"/><path d="M227.73673,291.6391c0.43261,0.38702 7.02749,-1.63612 4.84636,2.18085c-0.84441,1.47771 -3.35949,0.64016 -4.76693,1.35007c-1.37465,0.69337 0.57622,4.81109 -2.32138,4.65011c-2.91113,-0.16173 -1.65687,-7.60048 -1.29989,-9.19028c0,-0.11556 0.0115,-0.22843 0.03342,-0.33754c0.15663,-0.7797 0.84529,-1.36699 1.67111,-1.36699c0.94138,0 1.70453,0.76314 1.70453,1.70453c0,0.24796 -0.05295,0.48355 -0.14815,0.69609c0.0837,0.11393 0.1762,0.21946 0.28093,0.31316z" fill="#ffe95e"/><path d="M241.13315,300.67577l-0.05024,0.04306l-0.11944,0.11944l-0.28835,0.17301l-0.06467,0.11317l-0.21248,0.05312l-0.18781,0.11268l-0.12575,-0.03429l-0.32623,0.08156h-0.80927l-0.20357,-0.05089h-0.20984l-0.80927,-0.20232l-0.16563,-0.08834l-0.18325,-0.04072l-1.01159,-0.50579l-0.20804,-0.17832l-0.23496,-0.14097l-0.30348,-0.30348l-0.08735,-0.14558l-0.12562,-0.1142l-0.03354,-0.05032l-0.09825,-0.01965l-0.11758,-0.18478l-0.16629,-0.14253l-0.00723,-0.13014l-0.18054,-0.2837l-0.16239,-0.48717l-0.01549,-0.00885l-0.01187,-0.0475l-0.02124,-0.04248l-0.08496,-0.38233l-0.07245,-0.28981l-0.03623,-0.05693l-0.10116,-0.30348l-0.02102,-0.2732l-0.06646,-0.26582v-0.60695l0.04118,-0.1647l-0.00808,-0.16958l0.10116,-0.50579l0.09746,-0.20575l0.04939,-0.22225l0.01748,-0.03496l0.05578,-0.22311l0.03145,-0.05897l0.00513,-0.06664l0.10116,-0.30348l0.06587,-0.1035l0.02661,-0.11976l0.11864,-0.23728l0.05578,-0.22311l0.13727,-0.25738l0.09811,-0.27471l0.0757,-0.11355l0.02897,-0.08692l0.06587,-0.1035l0.02661,-0.11976l0.40464,-0.80927l0.17832,-0.20804l0.14097,-0.23496l0.11944,-0.11944l0.04306,-0.05024l0.14097,-0.23496l0.11944,-0.11944l0.04306,-0.05024l0.14097,-0.23496l0.08297,-0.08297l0.10869,-0.16304l0.24763,-0.22512l0.22512,-0.24763l0.16304,-0.10869l0.08297,-0.08297l0.14558,-0.08735l0.1142,-0.12562l0.30348,-0.20232l0.06458,-0.02307l0.02865,-0.05014l0.37249,-0.09312l0.36159,-0.12914l0.05166,0.02583l0.06653,-0.01663h0.09807l0.02776,-0.00617l0.37996,-0.09499h0.0475l0.04779,-0.01062l0.01593,0.01062h0.49574l0.26582,0.06646l0.2732,0.02102l0.30348,0.10116l0.1035,0.06587l0.10894,0.02421l0.30756,-0.17575l0.11245,-0.13119l0.12975,-0.00721l0.82311,-0.47035l0.67724,0.38699l0.08505,-0.00472l0.05743,0.08614l0.67175,0.38386l0.21307,0.85226v0.0911l0.01062,0.01593l-0.01062,0.04779v1.19378l0.06806,0.34029l-0.00808,0.16958l0.04118,0.1647v5.46258l-0.05089,0.20357v0.20984l-0.05027,0.20106v0.79169l0.01062,0.01593l-0.01062,0.04779v0.0475l-0.09499,0.37996l-0.00617,0.02776v0.18918l0.01062,0.01593l-0.01062,0.04779v0.0475l-0.09499,0.37996l-0.08496,0.38233l-0.02124,0.04248l-0.01187,0.0475l-0.01662,0.0095l-0.05142,0.10284l-0.57172,0.667l-0.80207,0.04456l-0.04963,0.02836l-0.04084,-0.02333l-0.82261,0.0457l-0.44732,-0.67098zM239.94405,292.16174l-0.02598,-0.00144l-0.03326,-0.03881c-0.02629,-0.01868 -0.05203,-0.03808 -0.07718,-0.05819l-0.10249,0.06149l-0.1142,0.12562l-0.01983,0.01322l-0.01322,0.01983l-0.12562,0.1142l-0.08735,0.14558l-0.11944,0.11944l-0.04306,0.05024l-0.14097,0.23496l-0.11944,0.11944l-0.04306,0.05024l-0.14097,0.23496l-0.00673,0.00673l-0.22676,0.45352l-0.06285,0.18856l-0.12223,0.19208l-0.07657,0.21441l-0.03854,0.05782l-0.02955,0.1182l-0.08834,0.16563l-0.04072,0.18325l-0.14814,0.29629l-0.04215,0.12645l-0.08528,0.34113l-0.08834,0.16563l-0.03517,0.15827l-0.02792,0.13959v0.1347l0.00113,0.0045l0.02124,0.04248l0.08496,0.38233l0.07245,0.28981l0.03623,0.05693l0.05058,0.15174l0.16629,0.14253l0.00145,0.02609l0.09048,0.13572l0.5911,0.29555l0.41982,0.10496l0.17615,-0.17615l0.02449,-0.07348l0.06587,-0.1035l0.02661,-0.11976l0.07182,-0.14364l0.04554,-0.18214l0.08496,-0.38233l0.02124,-0.04248l0.06758,-0.27032l0.02102,-0.2732l0.18162,-0.54485l0.07544,-0.30178l0.0932,-0.46602l0.01779,-0.03756v-0.04156l0.09132,-0.36529l0.0932,-0.46602l0.06806,-0.14368v-0.02783l0.05089,-0.20357v-0.20984l0.05027,-0.20106v-0.09364l0.06646,-0.26582l0.02102,-0.2732l0.03465,-0.10395c-0.2402,-0.03784 -0.46373,-0.12584 -0.65954,-0.25295z" fill="#ffe95e"/><path d="M255.14152,283.39339c0.83429,1.46 -0.88657,2.34476 -3.10745,2.82334c-0.52797,3.32765 -1.36277,6.74563 -1.36591,8.86719c-0.00118,0.79821 1.03019,5.84896 -1.70453,5.84896c-2.54967,0 -1.39319,-9.16452 -0.73234,-14.26597c-1.42338,0.05334 -2.56523,-0.03105 -2.82422,-0.20371c-0.88673,-0.0602 -1.58737,-0.79856 -1.58737,-1.70056c0,-0.94138 0.76314,-1.70453 1.70453,-1.70453c0.18672,0 0.36643,0.03002 0.53456,0.08551c0.74314,-0.26285 1.60982,-0.47151 2.50859,-0.61545c-0.02364,-1.66384 -0.03471,-4.36845 0.5458,-4.70017l1.46899,-0.83942c0.82117,0.46924 1.32209,1.27468 1.59708,2.30146c0.23574,0.88022 0.30545,1.92309 0.26854,3.05624c1.3153,0.11407 2.35096,0.44727 2.69373,1.04712z" fill="#ffe95e"/><path d="M258.32443,290.62265c0.11299,0.16948 0.21145,0.32848 0.29639,0.4778c0.33506,0.31126 0.54469,0.75569 0.54469,1.24909c0,0.94138 -0.76314,1.70453 -1.70453,1.70453c-0.203,0 -0.39772,-0.03549 -0.57827,-0.1006c-0.94854,0.37489 -1.85117,0.92406 -1.86471,2.34435c-0.01394,1.46191 4.5286,-0.26624 2.71157,3.36783c-0.67603,1.35207 -4.02632,0.8711 -5.06548,-0.0196c-3.90588,-3.34789 1.42232,-10.07228 5.62559,-9.02147z" fill="#ffe95e"/><path d="M263.48224,279.8762c0.40611,3.01184 -0.44894,7.98303 0.5389,11.13909c0.32863,1.04995 2.45937,-0.91217 3.29469,-0.19619c2.03473,1.74406 6.03926,5.86149 2.93361,8.52347c-1.99451,1.70958 -2.65261,-3.02181 -3.67552,-4.37152c-0.26998,-0.35623 -0.58226,-1.31391 -0.89709,-0.99663c-1.23623,1.24586 -1.71378,6.23756 -3.76484,6.3515c-2.39215,0.1329 -1.54706,-3.56565 -1.40105,-4.84045c0.37331,-3.25929 0.18917,-12.13718 -0.46579,-15.41198c-0.02619,-0.11876 -0.04,-0.24217 -0.04,-0.3688c0,-0.94138 0.76314,-1.70453 1.70453,-1.70453c0.87482,0 1.59572,0.65904 1.69329,1.50773c0.03502,0.11593 0.06183,0.23875 0.0793,0.36831z" fill="#ffe95e"/><path d="M331.18601,289.712c0.92254,-1.14065 1.73561,-1.45961 2.59427,-1.45417c0.74659,0.00473 1.52765,0.25472 2.44511,0.42308c1.45923,-3.00459 3.11753,-5.88651 5.04831,-8.49913c0.90599,-1.22594 2.58692,-4.89127 4.42927,-3.8385c1.67916,0.95952 1.02899,5.30031 1.04523,6.29944c0.00356,0.21907 0.10119,0.46302 0.10299,0.68374c0.0041,0.50262 0.17592,2.37734 0.32478,4.70438c1.84526,-0.12692 3.35894,0.2424 2.28377,2.32504c-0.30212,0.58522 -1.07859,0.99508 -2.10498,1.27937c0.13767,4.29953 -0.05323,8.6153 -1.48715,8.53564c-2.04991,-0.11388 -2.43674,-4.52786 -2.47213,-7.98891c-1.73155,0.09242 -3.47214,0.05932 -4.69697,0.01717c-0.96418,2.65724 -1.84738,5.35608 -3.38332,7.65999c-0.0084,0.27047 -0.0798,0.52506 -0.20003,0.74959c-0.22501,0.90005 -0.86507,1.10455 -1.51039,0.90105c-0.93829,-0.00363 -1.69779,-0.76538 -1.69779,-1.70451c0,-0.14644 0.01847,-0.28857 0.0532,-0.42418c-0.00307,-0.20092 0.02811,-0.40499 0.10069,-0.60719c0.81784,-2.27843 1.70001,-4.57711 2.67572,-6.83771c-1.45623,-0.19339 -3.01859,-0.54076 -3.13137,-1.10465zM343.18835,288.67632c0.07308,-0.00979 0.15774,-0.02344 0.25251,-0.04016c0.00135,-0.10029 0.00187,-0.18838 0.00126,-0.26306c-0.0144,-1.76348 1.66878,-5.60243 -0.0669,-5.29019c-0.54311,0.0977 -1.67839,2.79042 -2.06993,3.40569c-0.47948,0.75346 -0.89425,1.54475 -1.26847,2.35948c1.05626,-0.00045 2.10319,-0.03128 3.15152,-0.17177z" fill="#000000"/><path d="M355.84892,293.40996c0.94287,0.0154 6.4239,-0.83409 4.62331,2.31695c-0.38187,0.66827 -4.59883,1.68001 -5.87113,2.44127c-0.75437,0.45136 -0.60899,6.91167 -3.73643,3.41629c-1.24187,-1.38797 1.29009,-9.46062 2.42467,-10.47859c0.01842,-0.01653 0.03757,-0.03433 0.05736,-0.05307c0.06068,-0.06837 0.12677,-0.13182 0.1976,-0.18969c0.20771,-0.19486 0.44615,-0.38554 0.65038,-0.32984c0.13655,-0.03525 0.27973,-0.054 0.42729,-0.054c0.94138,0 1.70453,0.76314 1.70453,1.70453c0,0.00438 -0.00002,0.00875 -0.00005,0.01312c-0.00357,0.4737 -0.20037,0.90142 -0.51548,1.20824c0.01041,0.00291 0.023,0.00454 0.03796,0.00479z" fill="#000000"/><path d="M364.97786,296.7115c0.02431,2.90147 4.53167,-0.532 4.53167,2.88779c0,3.5219 -7.95135,2.39109 -7.95135,-3.92142c0,-3.17078 5.73476,-8.30134 7.27139,-4.32957c0.06151,0.12903 0.10727,0.26702 0.1348,0.41147c0.01037,0.03772 0.02044,0.07608 0.03019,0.11509v0.20599c0,0.94138 -0.76314,1.70453 -1.70453,1.70453c-0.08108,0 -0.16084,-0.00566 -0.23891,-0.01661c-1.04209,0.39632 -2.09086,0.84458 -2.07328,2.94275z" fill="#000000"/><path d="M375.11748,275.95735c0.87883,0.50219 1.35465,1.3381 1.57927,2.34707c0.53467,2.40175 -0.3541,5.78411 -0.61888,7.98007c-0.11372,0.94316 -0.18926,1.89997 -0.31889,2.83486c-0.07707,0.5558 -0.84253,1.81285 -0.30386,1.6557c1.41649,-0.41325 3.65097,-1.33186 5.0463,-0.49466c2.24079,1.34447 3.76308,8.02267 1.33651,9.40928c-4.35977,2.4913 -1.48832,-5.9241 -2.94985,-6.21329c-4.97001,-0.98342 -2.88187,7.1315 -6.13942,7.31247c-2.00956,0.11164 -1.77576,-2.82587 -1.49854,-4.07336c1.03004,-4.63518 1.42476,-9.83424 1.89504,-14.58366c0.09726,-0.9822 0.04739,-5.07452 0.50334,-5.33507z" fill="#000000"/><path d="M388.81549,289.14039c0.63372,0.36212 1.14213,1.30898 1.49669,2.52087c1.04419,3.569 0.75403,9.43657 -1.59969,9.43657c-2.43547,0 -2.23704,-10.62028 -1.366,-11.11801z" fill="#000000"/><path d="M386.596,286.00427c0,-0.94138 0.76314,-1.70453 1.70453,-1.70453c0.94138,0 1.70453,0.76314 1.70453,1.70453c0,0.94138 -0.76314,1.70453 -1.70453,1.70453c-0.94138,0 -1.70453,-0.76314 -1.70453,-1.70453z" fill="#000000"/><path d="M399.27439,292.08083c0.05797,0.61949 -0.33113,2.2471 0.15604,1.86006c1.33708,-1.06223 3.63453,-6.67742 5.31319,-2.05834c0.08632,0.23752 -0.11168,0.49295 -0.16447,0.74009c-0.2868,1.34283 -5.07848,9.50847 -6.17764,9.30975c-1.75806,-0.31786 -2.65999,-7.74325 -2.60204,-10.73195c-0.02433,-0.11467 -0.03713,-0.2336 -0.03713,-0.35552c0,-0.2297 0.04544,-0.44879 0.12781,-0.64877c0.25522,-0.6196 0.86503,-1.05576 1.57672,-1.05576c0.94138,0 1.70453,0.76314 1.70453,1.70453c0,0.05168 -0.0023,0.10281 -0.0068,0.15332c0.04112,0.28211 0.06745,0.63011 0.10979,1.08259z" fill="#000000"/><path d="M406.57656,295.99455c0,-0.36431 0.11429,-0.70193 0.30898,-0.97895v-0.05097l0.06646,-0.26582l0.02102,-0.2732l0.08614,-0.25843l0.02437,-0.09747l0.08496,-0.38233l0.02124,-0.04248l0.01187,-0.0475l0.01662,-0.0095l0.05326,-0.10651l0.0701,-0.08178l0.03623,-0.10143l0.03891,-0.05837l0.06075,-0.27338l0.02124,-0.04248l0.01187,-0.0475l0.01662,-0.0095l0.10207,-0.20415l0.16768,-0.50303l0.01552,-0.02439v-0.05455l0.06646,-0.26582l0.02102,-0.2732l0.08614,-0.25843l0.10265,-0.41059l-0.00518,-0.07514l0.03306,-0.03637l0.01192,-0.04768l0.0654,-0.03737l0.48056,-0.52862l0.09808,-0.06539l0.30653,-0.35762l0.0672,-0.00373l0.03339,-0.05844l0.31482,-0.0787l0.18713,-0.16039l0.51848,-0.25924l0.0095,-0.01662l0.0475,-0.01187l0.04248,-0.02124l0.37077,-0.08239l0.0412,-0.0206l0.38233,-0.08496l0.37996,-0.09499h0.0475l0.04779,-0.01062l0.01593,0.01062h1.42545l0.01593,-0.01062l0.04779,0.01062h0.0475l0.37996,0.09499l0.37835,0.08408l0.10564,-0.02881l0.18781,0.11268l0.21248,0.05312l0.02884,0.05048l0.17065,0.10239l0.21248,0.05312l0.06467,0.11317l0.28835,0.17301l0.06462,0.06462l0.00602,-0.00164l0.04198,0.02519l0.04506,0.01502l0.33042,0.21027l0.33584,0.2015l0.03358,0.03358l0.0413,0.02628l0.00375,0.01877l0.12734,0.12734l0.17301,0.28835l0.11317,0.06467l0.05312,0.21248l0.11268,0.18781l-0.03429,0.12575l0.01094,0.04375l0.08614,0.25843l0.02102,0.2732l0.06646,0.26582v0.60973l0.01062,0.01593l-0.01062,0.04779v0.0475l-0.09499,0.37996l-0.08496,0.38233l-0.02124,0.04248l-0.01187,0.0475l-0.01662,0.0095l-0.05198,0.10396l0.02842,0.10421l-0.11268,0.18781l-0.05312,0.21248l-0.11317,0.06467l-0.17301,0.28835l-0.01039,0.01039l-0.07222,0.14443l0.0018,0.02607l-0.29661,0.32628l-0.28697,0.33479l-0.02609,0.00145l-0.14981,0.09988l-0.41997,0.41997l-0.00375,0.01877l-0.0413,0.02628l-0.03358,0.03358l-0.33584,0.2015l-0.33042,0.21027l-0.04506,0.01502l-0.04198,0.02519l-0.01383,-0.00377l-0.11061,0.07374l-0.10143,0.03623l-0.08178,0.0701l-0.20599,0.10299l-0.11976,0.02661l-0.1035,0.06587l-0.66895,0.22298l0.10948,0.05474l0.01529,0.0034l0.01287,-0.00858l0.04779,0.01062h0.0475l0.37996,0.09499l0.03601,0.008h1.84986l0.85226,0.21307l0.85226,1.49146l-0.85226,1.49146l-0.85226,0.21307h-1.94863l-0.01593,0.01062l-0.04779,-0.01062h-0.0475l-0.37996,-0.09499l-0.02684,-0.00597l-0.01287,0.00858l-0.04779,-0.01062h-0.0475l-0.37996,-0.09499l-0.38233,-0.08496l-0.0412,-0.0206l-0.37077,-0.08239l-0.04248,-0.02124l-0.0475,-0.01187l-0.0095,-0.01662l-0.51848,-0.25924l-0.20804,-0.17832l-0.23496,-0.14097l-0.01039,-0.01039l-0.37055,-0.18528l-0.20804,-0.17832l-0.23496,-0.14097l-0.18963,-0.18963l-0.08025,-0.0535l-0.09093,-0.04547l-0.02607,0.0018l-0.32628,-0.29661l-0.33479,-0.28697l-0.00145,-0.02609l-0.02395,-0.03592l-0.16257,-0.09754l-0.41197,-0.41197l-0.06337,-0.10562c-0.08876,-0.0301 -0.17424,-0.06731 -0.25576,-0.11096l-0.0488,-0.0122l-0.01284,-0.02247c-0.50239,-0.2965 -0.83942,-0.84339 -0.83942,-1.46899zM410.8791,294.10399l0.05574,-0.03547l1.12099,-0.37366l0.00272,-0.00136l0.22068,-0.14712l0.21441,-0.07657l0.05869,-0.03735l0.39406,-0.39406l0.14558,-0.08735l0.01397,-0.01536l0.03613,-0.07225l0.15449,-0.18024l0.02976,-0.13394l-0.12014,-0.0801l-0.03181,-0.03499l-0.07445,-0.04467l-0.21248,-0.05312l-0.05481,-0.09591l-1.14878,0l-0.02446,0.00543l-0.20576,0.10288l-0.01039,0.01039l-0.2217,0.13302v0.0006l-0.09499,0.37996l-0.08496,0.38233l-0.02124,0.04248l-0.01187,0.0475l-0.01624,0.00928l-0.16714,0.50141l-0.06587,0.1035l-0.02661,0.11976l-0.03519,0.07038z" fill="#000000"/></g></g></g></svg>