<svg version="1.1" xmlns="http://www.w3.org/2000/svg" xmlns:xlink="http://www.w3.org/1999/xlink" width="20.07144" height="48.92858" viewBox="0,0,20.07144,48.92858"><g transform="translate(-229.96428,-155.53571)"><g data-paper-data="{&quot;isPaintingLayer&quot;:true}" fill-rule="nonzero" stroke="#000000" stroke-width="1.5" stroke-linejoin="miter" stroke-miterlimit="10" stroke-dasharray="" stroke-dashoffset="0" style="mix-blend-mode: normal"><path d="M240,156.28571c5.12836,0 9.28572,10.61725 9.28572,23.71429c0,13.09704 -4.15736,23.71429 -9.28572,23.71429c-5.12836,0 -9.28572,-10.61725 -9.28572,-23.71429c0,-13.09704 4.15736,-23.71429 9.28572,-23.71429z" data-paper-data="{&quot;index&quot;:null}" fill="#ff9900" stroke-linecap="butt"/><path d="M240,171.21429c1.87465,0 3.39436,3.93349 3.39436,8.78571c0,4.85221 -1.5197,8.78571 -3.39436,8.78571c-1.87465,0 -3.39436,-3.93349 -3.39436,-8.78571c0,-4.85221 1.5197,-8.78571 3.39436,-8.78571z" data-paper-data="{&quot;index&quot;:null}" fill="#001eff" stroke-linecap="butt"/><path d="M239.86558,183.379l0.13215,-6.53226" data-paper-data="{&quot;index&quot;:null}" fill="none" stroke-linecap="round"/></g></g></svg>