<svg version="1.1" xmlns="http://www.w3.org/2000/svg" xmlns:xlink="http://www.w3.org/1999/xlink" width="105.43077" height="89.1327" viewBox="0,0,105.43077,89.1327"><g transform="translate(-186.98305,-137.35692)"><g data-paper-data="{&quot;isPaintingLayer&quot;:true}" fill-rule="nonzero" stroke="none" stroke-linecap="butt" stroke-linejoin="miter" stroke-miterlimit="10" stroke-dasharray="" stroke-dashoffset="0" style="mix-blend-mode: normal"><path d="M267.5,180c0,15.74012 -12.31217,28.5 -27.5,28.5c-15.18783,0 -27.5,-12.75988 -27.5,-28.5c0,-15.74012 12.31217,-28.5 27.5,-28.5c15.18783,0 27.5,12.75988 27.5,28.5z" fill="#000000" stroke-width="0"/><path d="M229.40823,137.87017c1.48107,-0.37017 2.59177,-0.37017 2.59177,-0.37017c4.56092,0 9.42108,-0.32193 14,0c2.6148,0.18384 5.37416,-0.16367 7.82683,0.7612c5.33326,2.0111 8.49981,8.42331 12.24423,12.16773c1.01242,1.01242 2.38103,1.59993 3.48095,2.51653c3.5685,2.97375 6.36226,6.60899 9.1814,10.21465c2.7999,3.58104 5.61251,5.40128 8.12437,9.69882c1.43215,2.45026 2.11176,5.27576 3.381,7.81423c2.43582,7.79815 3.53128,20.12737 -0.5368,27.75382c-0.62828,1.17785 -4.89295,5.41978 -6.63093,7.14408c-4.25199,4.21852 -8.91356,7.87055 -14.77354,9.66142c-1.37639,0.42064 -2.88509,0.03206 -4.31215,0.21884c-3.51239,0.45973 -7.07256,1.36176 -10.5872,0.91954c-1.04585,-0.13159 -1.96225,-0.8151 -3,-1c-1.41324,-0.2518 -2.95652,0.21616 -4.29602,-0.29995c-2.33233,-0.89866 -4.38735,-2.41426 -6.44205,-3.8375c-0.32521,-0.22526 -0.2257,-0.87052 -0.5871,-1.03142c-0.65709,-0.29255 -1.46225,0.02451 -2.1497,-0.18707c-4.75956,-1.46485 -9.50414,-3.65219 -13.94258,-5.86583c-6.66991,-4.50104 -13.33489,-10.85662 -18.53527,-17.09708c-0.9166,-1.09992 -1.50411,-2.46853 -2.51653,-3.48095c-1.01242,-1.01242 -2.38103,-1.59993 -3.48095,-2.51653c-5.14932,-4.2911 -9.4484,-10.75429 -11.18047,-17.25701c-0.63487,-2.3835 -0.09002,-11.73903 0.49369,-13.12436c1.04908,-2.48977 3.39505,-4.20532 5.16773,-6.24423c2.89315,-3.32766 7.56648,-8.50232 11.14408,-10.63093c1.63551,-0.9731 3.63835,-1.1179 5.45753,-1.67685c1.72398,-0.78455 3.34579,-1.85083 5.17193,-2.35364c2.23038,-0.61411 4.6431,-0.35011 6.87217,-0.96894l-0.04678,-0.24285c0,0 3.92864,-1.96432 7.88036,-0.68556zM229.0878,157.04536l-2.66245,1.15606c-4.16588,0.97964 -6.49808,0.66446 -9.95589,2.67743c-0.84749,0.10772 -1.77773,-0.05765 -2.54247,0.32315c-0.48178,0.2399 -0.50791,0.95852 -0.85592,1.36907c-1.51134,1.78289 -4.01977,4.77242 -6,6c-0.01673,0.01037 -0.0341,0.01915 -0.05199,0.02643c-0.02366,0.19333 -0.36146,0.40454 -0.28658,0.60497c0.25556,0.68416 0.86738,1.18137 1.21178,1.82539c1.28414,2.40131 1.54082,3.19516 3.60775,4.9176c1.46111,1.21759 3.17418,2.1386 4.51905,3.48347c5.60464,5.60464 10.16056,13.03941 16.9482,17.42197c5.036,2.5297 10.98279,3.40493 15.90772,5.9471c1.33981,0.69159 2.3751,1.8748 3.4129,2.96858c0.08342,0.08792 -0.31841,0.14707 -0.43419,0.16165c1.57339,-0.16928 3.168,0.28916 4.69613,0.7009c1.77651,0.47866 3.58536,-0.86701 5.4128,-1.08046c0.56349,-0.06582 1.13192,0.33198 1.68785,0.21884c2.42152,-0.49279 6.84262,-5.43429 8.59553,-7.1945c0.49261,-0.49466 -0.28895,-1.37496 -0.298,-2.07301c-0.01729,-1.33322 -0.02327,-2.66687 0,-4c0.02432,-1.39312 0.35876,-2.91448 -0.2388,-4.17317c-1.00136,-2.00273 -1.55247,-4.21697 -2.619,-6.18577c-1.31569,-2.42874 -4.17724,-4.21344 -5.87563,-6.30118c-2.21377,-2.72127 -4.06426,-5.49007 -6.8186,-7.78535c-2.89806,-2.41505 -5.58747,-5.10446 -8.00252,-8.00252c-0.27076,-0.32491 -1.65226,-1.59675 -2.60199,-2.51583c-3.83566,0.85446 -10.25189,-0.03619 -13.84347,-0.03619c0,0 -1.27382,0 -2.9122,-0.45464z" fill="#ff0000" stroke-width="0.5"/></g></g></svg>