<svg version="1.1" xmlns="http://www.w3.org/2000/svg" xmlns:xlink="http://www.w3.org/1999/xlink" width="277.9928" height="221.03057" viewBox="0,0,277.9928,221.03057"><g transform="translate(-79,-79.5)"><g data-paper-data="{&quot;isPaintingLayer&quot;:true}" fill-rule="nonzero" stroke="none" stroke-linecap="butt" stroke-linejoin="miter" stroke-miterlimit="10" stroke-dasharray="" stroke-dashoffset="0" style="mix-blend-mode: normal"><path d="M267.5,180c0,15.74012 -12.31217,28.5 -27.5,28.5c-15.18783,0 -27.5,-12.75988 -27.5,-28.5c0,-15.74012 12.31217,-28.5 27.5,-28.5c15.18783,0 27.5,12.75988 27.5,28.5z" fill="#000000" stroke-width="0"/><path d="M229.40823,137.87017c1.48107,-0.37017 2.59177,-0.37017 2.59177,-0.37017c4.56092,0 9.42108,-0.32193 14,0c2.6148,0.18384 5.37416,-0.16367 7.82683,0.7612c5.33326,2.0111 8.49981,8.42331 12.24423,12.16773c1.01242,1.01242 2.38103,1.59993 3.48095,2.51653c3.5685,2.97375 6.36226,6.60899 9.1814,10.21465c2.7999,3.58104 5.61251,5.40128 8.12437,9.69882c1.43215,2.45026 2.11176,5.27576 3.381,7.81423c2.43582,7.79815 3.53128,20.12737 -0.5368,27.75382c-0.62828,1.17785 -4.89295,5.41978 -6.63093,7.14408c-4.25199,4.21852 -8.91356,7.87055 -14.77354,9.66142c-1.37639,0.42064 -2.88509,0.03206 -4.31215,0.21884c-3.51239,0.45973 -7.07256,1.36176 -10.5872,0.91954c-1.04585,-0.13159 -1.96225,-0.8151 -3,-1c-1.41324,-0.2518 -2.95652,0.21616 -4.29602,-0.29995c-2.33233,-0.89866 -4.38735,-2.41426 -6.44205,-3.8375c-0.32521,-0.22526 -0.2257,-0.87052 -0.5871,-1.03142c-0.65709,-0.29255 -1.46225,0.02451 -2.1497,-0.18707c-4.75956,-1.46485 -9.50414,-3.65219 -13.94258,-5.86583c-6.66991,-4.50104 -13.33489,-10.85662 -18.53527,-17.09708c-0.9166,-1.09992 -1.50411,-2.46853 -2.51653,-3.48095c-1.01242,-1.01242 -2.38103,-1.59993 -3.48095,-2.51653c-5.14932,-4.2911 -9.4484,-10.75429 -11.18047,-17.25701c-0.63487,-2.3835 -0.09002,-11.73903 0.49369,-13.12436c1.04908,-2.48977 3.39505,-4.20532 5.16773,-6.24423c2.89315,-3.32766 7.56648,-8.50232 11.14408,-10.63093c1.63551,-0.9731 3.63835,-1.1179 5.45753,-1.67685c1.72398,-0.78455 3.34579,-1.85083 5.17193,-2.35364c2.23038,-0.61411 4.6431,-0.35011 6.87217,-0.96894l-0.04678,-0.24285c0,0 3.92864,-1.96432 7.88036,-0.68556zM229.0878,157.04536l-2.66245,1.15606c-4.16588,0.97964 -6.49808,0.66446 -9.95589,2.67743c-0.84749,0.10772 -1.77773,-0.05765 -2.54247,0.32315c-0.48178,0.2399 -0.50791,0.95852 -0.85592,1.36907c-1.51134,1.78289 -4.01977,4.77242 -6,6c-0.01673,0.01037 -0.0341,0.01915 -0.05199,0.02643c-0.02366,0.19333 -0.36146,0.40454 -0.28658,0.60497c0.25556,0.68416 0.86738,1.18137 1.21178,1.82539c1.28414,2.40131 1.54082,3.19516 3.60775,4.9176c1.46111,1.21759 3.17418,2.1386 4.51905,3.48347c5.60464,5.60464 10.16056,13.03941 16.9482,17.42197c5.036,2.5297 10.98279,3.40493 15.90772,5.9471c1.33981,0.69159 2.3751,1.8748 3.4129,2.96858c0.08342,0.08792 -0.31841,0.14707 -0.43419,0.16165c1.57339,-0.16928 3.168,0.28916 4.69613,0.7009c1.77651,0.47866 3.58536,-0.86701 5.4128,-1.08046c0.56349,-0.06582 1.13192,0.33198 1.68785,0.21884c2.42152,-0.49279 6.84262,-5.43429 8.59553,-7.1945c0.49261,-0.49466 -0.28895,-1.37496 -0.298,-2.07301c-0.01729,-1.33322 -0.02327,-2.66687 0,-4c0.02432,-1.39312 0.35876,-2.91448 -0.2388,-4.17317c-1.00136,-2.00273 -1.55247,-4.21697 -2.619,-6.18577c-1.31569,-2.42874 -4.17724,-4.21344 -5.87563,-6.30118c-2.21377,-2.72127 -4.06426,-5.49007 -6.8186,-7.78535c-2.89806,-2.41505 -5.58747,-5.10446 -8.00252,-8.00252c-0.27076,-0.32491 -1.65226,-1.59675 -2.60199,-2.51583c-3.83566,0.85446 -10.25189,-0.03619 -13.84347,-0.03619c0,0 -1.27382,0 -2.9122,-0.45464z" fill="#ff0000" stroke-width="0.5"/><path d="M349.94427,198.97214c-4.47214,8.94427 -13.41641,4.47214 -13.41641,4.47214l-4.99733,-2.56542c-2.57434,-0.63405 -5.20797,-1.0632 -7.72301,-1.90214c-4.61846,-1.54056 -9.13506,-3.37787 -13.63436,-5.23792c-0.55866,-0.23096 -1.01607,-0.68954 -1.51252,-1.04643c-0.84414,-0.05988 -1.63919,-0.24102 -2.36664,-0.48792c-0.762,0.08498 -1.53095,0.27452 -2.29401,0.29556c-1.99924,0.05512 -4.00493,0.14029 -6,0c-0.14666,-0.01031 0.02325,-0.50583 -0.10216,-0.42908c-2.39371,1.46493 -5.17111,3.53516 -7.85231,4.57422c-4.94377,1.9159 -8.98964,1.85486 -14.04554,1.85486c0,0 -10,0 -10,-10c0,-4.14143 1.71514,-6.56771 3.7248,-7.98917c-3.57499,-0.00469 -7.14996,-0.01083 -10.7248,-0.01083c0,0 -10,0 -10,-10c0,-10 10,-10 10,-10c12.54814,0 26.11777,-1.3931 38.41052,1.29488c1.79093,0.39161 8.65146,2.99323 9.43658,3.5927c2.48981,1.90105 3.98275,4.85272 6.22396,7.04135l0.89183,0.89183c1.30526,0.58412 2.52904,1.42039 3.86394,1.94044c6.83601,2.6632 13.51906,5.05442 20.64263,6.85995l7.00267,3.43458c0,0 8.94427,4.47214 4.47214,13.41641z" fill="#ff5600" stroke-width="0.5"/><path d="M242.80855,294.43919c-3.93919,-9.19145 5.25226,-13.13064 5.25226,-13.13064l6.73171,-2.88033c7.6684,-3.82605 15.33563,-8.05897 22.34298,-13.02808c2.99202,-2.12173 6.36758,-4.07652 8.35799,-7.15746c1.5763,-2.43995 1.52716,-7.04787 1.50651,-9.74269c-0.03449,-4.50075 0.58083,-9.53139 0.04867,-14.01462c-0.68388,-5.76145 -1.04867,-11.14966 -1.04867,-16.98538c0,0 0,-10 10,-10c10,0 10,10 10,10c0,10.41191 1.06412,20.54037 1,31c-0.04078,6.65185 -0.80998,14.43251 -4.49349,20.25731c-1.75044,2.768 -4.37851,4.88204 -6.76313,7.12691c-9.29503,8.75031 -21.21509,15.01701 -32.5359,20.68755l-7.26829,3.11967c0,0 -9.19145,3.93919 -13.13064,-5.25226z" fill="#ff5600" stroke-width="0.5"/><path d="M192.44619,206.15278c2.48896,-0.95619 4.83229,-2.28499 7.36133,-3.1295c2.60722,-0.87061 5.39088,-1.1351 8,-2c8.6852,-2.87907 16.60939,-7.39669 24.72034,-11.46756c0,0 8.94427,-4.47214 13.41641,4.47214c4.47214,8.94427 -4.47214,13.41641 -4.47214,13.41641c-8.95395,4.45682 -17.72063,9.32992 -27.27966,12.53244c-6.33823,2.12347 -12.73328,3.75163 -18.97257,6.20011c0.5989,1.65335 1.10931,3.3325 1.51258,5.02564c1.32346,5.55654 1.5766,11.30474 2.96894,16.87217c0.67352,2.69316 1.0682,6.49124 3.36964,8.35429c0,0 7.07107,7.07107 0,14.14214c-7.07107,7.07107 -14.14214,0 -14.14214,0c-9.19629,-9.74846 -8.9433,-22.42836 -11.66142,-34.77354c-0.07365,-0.3345 -0.19464,-0.76674 -0.34989,-1.2606c-3.02716,0.14915 -6.523,-0.40665 -9.1147,-0.72412c-0.76139,0.76268 -1.31102,1.31848 -1.54841,1.56992c-8.42775,8.92646 -16.43094,18.56368 -25.70249,26.6718c-4.79079,4.18963 -10.1026,7.46294 -15.38974,10.93229l-6.16228,0.51317c0,0 -10,0 -10,-10c0,-10 10,-10 10,-10l-0.16228,0.51317c2.26189,-2.94475 5.81658,-4.62169 8.61026,-7.06771c8.77046,-7.679 16.32006,-16.88423 24.29751,-25.3282c4.59704,-4.86587 9.93007,-9.0445 14.34338,-14.06628c-0.33616,-2.97744 0.08895,-8.29513 6.70522,-10.5232c1.47013,-3.182 2.67011,-6.49552 3.71908,-9.69007c0,0 3.16228,-9.48683 12.64911,-6.32456c9.48683,3.16228 6.32456,12.64911 6.32456,12.64911c-1.51688,4.49697 -3.25565,9.04284 -5.38115,13.38894c0.78017,-0.30031 1.56079,-0.59889 2.34051,-0.89843z" fill="#ff5600" stroke-width="0.5"/><path d="M289.07107,147.57107c-7.07107,7.07107 -14.14214,0 -14.14214,0l-1.26882,-1.33765c-2.27083,-1.45371 -4.61302,-3.6816 -7.05363,-4.75027c-2.16741,-0.94905 -4.5776,-1.32093 -6.68735,-2.38559c-3.04117,0.6435 -6.13779,1.0892 -9.10736,1.99899c-2.68725,0.8233 -5.0722,2.52677 -7.80111,3.19922c-1.94648,0.47964 -4.00624,0.17014 -6.01066,0.20422c-5.66272,0.09629 -11.33582,0 -17,0c0,0 -2.28138,0 -4.66479,-1.08967c0.30084,0.53183 0.62674,1.04761 0.98529,1.54267c0,0 5.547,8.3205 -2.7735,13.8675c-8.3205,5.547 -13.8675,-2.7735 -13.8675,-2.7735c-2.89937,-4.52275 -4.22477,-9.31328 -6.62377,-14.07487c-0.41157,-0.81689 -0.81753,-1.63129 -1.21809,-2.44423c-2.38657,-2.05193 -3.32447,-4.86562 -3.32447,-4.86562l-0.06215,-0.22148c-2.694,1.44751 -7.10804,2.54431 -11.52209,-1.86973c-7.07107,-7.07107 0,-14.14214 0,-14.14214c0.71039,-0.71039 1.34813,-1.61732 2.23809,-2.05277l0.27323,-0.81968c0.1147,-0.37296 0.25063,-0.73663 0.40638,-1.08959c-0.33443,-0.57908 -0.65006,-1.17179 -0.93175,-1.78832c-0.8434,-1.84594 -1.16514,-3.89252 -1.89802,-5.78505c-0.71614,-1.84929 -2.71731,-2.88921 -4.08792,-4.32245c-2.40189,-2.51165 -4.15676,-5.6696 -5.41577,-8.90879l-0.51317,-4.16228c0,0 0,-10 10,-10c8.10299,0 9.64013,6.56584 9.93173,9.05694c1.20167,1.91928 4.44484,4.1667 4.80169,4.60317c1.24869,1.52732 2.39678,3.1675 3.24973,4.94637c0.94553,1.97196 1.20121,4.22214 2.10198,6.21495c1.46601,3.24333 3.81147,6.05524 5.15367,9.35173c2.51891,6.18657 5.11848,12.04525 8.058,18.04254c1.65834,-7.2157 9.70321,-7.2157 9.70321,-7.2157c3.66667,0 7.33333,0 11,0c2,0 4.00065,-0.05111 6,0c0.66638,0.01703 1.35393,0.40572 1.98934,0.20422c0.42156,-0.13368 0.83209,-0.29629 1.23592,-0.47644c-1.99373,-1.9936 -3.95075,-4.04265 -6.22526,-5.72779c0,0 -8,-6 -2,-14c6,-8 14,-2 14,-2c2.45259,1.85639 4.88748,3.76253 7.07107,5.92893c1.29456,1.28437 2.27617,2.9214 3.77604,3.95865c2.37816,1.64464 5.20649,2.60211 7.48946,4.37641c5.50339,-1.94217 10.98733,-3.93904 16.53168,-5.76094c5.21446,-1.7135 10.74928,-2.22755 16.13206,-3.30107c5.14615,-1.02633 10.45316,-2.61914 15.57434,-3.9034l4.42536,-0.29857c0,0 10,0 10,10c0,10 -10,10 -10,10l0.42536,-0.29857c-5.39889,1.346 -11.00495,3.00954 -16.42566,4.0966c-4.61745,0.92597 -9.40765,1.18763 -13.86794,2.69893c-0.42576,0.14426 -0.85124,0.28927 -1.27647,0.43493c0.16256,0.11357 0.32412,0.22523 0.48461,0.33469l2.73118,2.66235c0,0 7.07107,7.07107 0,14.14214zM186.64912,88.02152l-0.16228,-0.6838c0.00469,0.21588 0.06238,0.44537 0.16228,0.6838z" fill="#ff5600" stroke-width="0.5"/><path d="M318,248.5c0,-10 10,-10 10,-10h6c0.70297,0.06015 1.41652,0.31594 2.10892,0.18044c0.00008,-0.00002 0.00016,-0.00003 0.00023,-0.00005c0.03501,-0.1972 0.0501,-0.39178 0.01997,-0.57857c-0.16788,-1.04064 -0.86281,-1.95487 -1,-3c-1.00615,-7.665 -0.01881,-15.50533 2.38404,-22.7641c0,0 3.16228,-9.48683 12.64911,-6.32456c9.48683,3.16228 6.32456,12.64911 6.32456,12.64911c-1.37634,4.09281 -2.31841,8.88172 -1.61596,13.2359c0.8351,5.17643 2.79809,12.24448 -0.05413,17.3204c-1.53945,2.73966 -4.47816,4.49561 -7.16126,6.13164c-2.36582,1.44257 -5.06437,2.34655 -7.76441,2.96934c-1.91435,0.44156 -3.92738,0.12029 -5.89108,0.18044h-6c0,0 -10,0 -10,-10z" fill="#ff5600" stroke-width="0.5"/><path d="M79,131.5c0,-10 10,-10 10,-10h7c8.51946,0 17.3431,-0.66058 25.82481,0.03407c4.85451,0.39758 9.49823,2.16473 14.26076,3.18582c2.37524,0.50925 4.84995,0.48018 7.21197,1.04761c6.86255,1.6486 18.01857,5.92724 22.64954,11.66255c1.34659,1.66771 1.69318,3.93844 2.53977,5.90766c0,0 3.16228,9.48683 -6.32456,12.64911c-8.38349,2.7945 -11.828,-4.28896 -12.51581,-5.97441c-1.39526,-0.62835 -5.77557,-2.98726 -6.4733,-3.27363c-3.55368,-1.45854 -7.50255,-1.65423 -11.25873,-2.45869c-5.06473,-1.08471 -6.93768,-2.47845 -11.73924,-2.81418c-7.96224,-0.55672 -16.18466,0.03407 -24.17519,0.03407h-7c0,0 -10,0 -10,-10z" fill="#ff5600" stroke-width="0.5"/></g></g></svg>