<svg version="1.1" xmlns="http://www.w3.org/2000/svg" xmlns:xlink="http://www.w3.org/1999/xlink" width="118.58443" height="161.41625" viewBox="0,0,118.58443,161.41625"><g transform="translate(-919.65941,-535.56302)"><g data-paper-data="{&quot;isPaintingLayer&quot;:true}" fill-rule="nonzero" stroke-linecap="butt" stroke-linejoin="miter" stroke-miterlimit="10" stroke-dasharray="" stroke-dashoffset="0" style="mix-blend-mode: normal"><g stroke="#000000" stroke-width="2"><path d="M961.08064,694.86243c-11.89655,-0.49118 -21.25207,-3.30398 -20.89612,-6.28256c0.35594,-2.97858 10.28854,-4.995 22.1851,-4.50381c11.89655,0.49118 21.25207,3.30398 20.89612,6.28256c-0.35594,2.97857 -10.28854,4.995 -22.1851,4.50381z" data-paper-data="{&quot;index&quot;:null}" fill="#7d4e23"/><path d="M949.65825,689.55837c0,0 8.97042,-13.96345 8.17179,-21.22242c-0.85154,-7.7397 -12.53458,-15.36256 -12.53458,-15.36256l13.36906,-1.41596c0,0 11.63281,15.19256 11.60821,15.58621c-0.61522,9.84415 -7.22062,22.36395 -7.22062,22.36395z" data-paper-data="{&quot;index&quot;:null}" fill="#50a72f"/></g><g stroke="#000000" stroke-width="2"><path d="M944.14413,695.97927c-11.89655,-0.49118 -21.25207,-3.30398 -20.89612,-6.28256c0.35594,-2.97858 10.28854,-4.995 22.1851,-4.50381c11.89655,0.49118 21.25207,3.30398 20.89612,6.28256c-0.35594,2.97857 -10.28854,4.995 -22.1851,4.50381z" data-paper-data="{&quot;index&quot;:null}" fill="#7d4e23"/><path d="M922.10548,688.21007c0,0 7.08738,1.21004 7.10607,0.45369c0.09152,-3.70374 7.38744,-12.76745 7.77675,-18.99674c0.04633,-0.74128 -15.06602,-17.85749 -15.06602,-17.85749l16.3586,0.37428c0,0 9.73224,15.67174 9.70744,16.06859c-0.47255,7.5612 -2.90654,19.76562 -2.90654,19.76562z" data-paper-data="{&quot;index&quot;:null}" fill="#50a72f"/></g><path d="M924.78107,652.11886c0,0 1.92032,-2.26742 1.99638,-3.6444c0.0195,-0.35297 -4.80828,-0.9364 -4.89741,-1.43786c-0.35226,-1.98179 3.43372,-4.56049 3.43372,-4.56049l35.5986,0.95639c0,0 -3.72008,2.35278 -3.7984,3.77061c-0.09572,1.7328 3.26572,5.87215 3.26572,5.87215z" data-paper-data="{&quot;index&quot;:null}" fill="#50a72f" stroke="#000000" stroke-width="2"/><g data-paper-data="{&quot;index&quot;:null}" stroke="#000000" stroke-width="2"><path d="M969.01466,584.56487l14.00765,4.20574c0,0 -21.59527,9.60651 -22.91561,15.89585c-0.76917,3.6639 3.39329,18.89785 3.39329,18.89785l-14.73035,-0.73589c0,0 -3.37196,-16.18144 -2.1181,-22.15413c1.31404,-6.2593 22.36312,-16.1094 22.36312,-16.1094z" fill="#4e73cc"/><path d="M957.9437,621.25575c6.0226,1.35768 10.23349,5.65642 9.40529,9.60147c-0.8282,3.94506 -6.38189,6.04257 -12.40448,4.68489c-6.02261,-1.35767 -10.23349,-5.65641 -9.40529,-9.60147c0.8282,-3.94506 6.38187,-6.04256 12.40447,-4.68488z" fill="#ffffff"/></g><g data-paper-data="{&quot;index&quot;:null}" stroke="#000000" stroke-width="2"><path d="M924.91063,641.96952c0,0 -3.87069,-36.83541 1.35076,-47.03364c4.75826,-9.29356 28.37796,-28.34373 28.37796,-28.34373l32.66173,16.35734c0,0 -23.12555,12.26171 -27.69066,21.17801c-5.3367,10.42333 -0.85571,39.42221 -0.85571,39.42221z" fill="#4e73cc"/><path d="M949.78117,641.33561c0,0 -2.33437,-27.85086 2.95931,-38.19018c4.51073,-8.81008 23.25398,-22.21004 23.25398,-22.21004l12.14709,4.46574c0,0 -26.54074,10.41952 -31.01736,19.16296c-5.31051,10.37217 -1.22036,38.60409 -1.22036,38.60409z" fill="#ff9b2d"/></g><g data-paper-data="{&quot;index&quot;:null}" stroke="#000000" stroke-width="2"><path d="M967.44976,583.27338c0,0 -15.07381,9.18421 -18.03709,14.43454c-3.33427,5.90765 -0.83188,21.33843 -0.83188,21.33843l-13.54066,0.35259c0,0 -3.62672,-20.87184 -1.01487,-25.49951c3.04572,-5.3964 23.63201,-16.9693 23.63201,-16.9693z" fill="#4e73cc"/><path d="M943.87632,617.67563c5.84681,1.82083 8.93042,6.23131 6.88744,9.85106c-2.04299,3.61976 -8.43895,5.07807 -14.28575,3.25724c-5.84682,-1.82083 -8.93042,-6.23131 -6.88744,-9.85107c2.04299,-3.61976 8.43894,-5.07808 14.28575,-3.25724z" fill="#ffffff"/></g><path d="M1005.95992,554.79903c7.89456,4.51107 6.55418,13.43766 -2.99382,19.93807c-9.54799,6.50041 -23.68798,8.11309 -31.58255,3.60203c-7.89457,-4.51108 -6.5542,-13.43766 2.99381,-19.93807c9.54799,-6.50041 23.68799,-8.11309 31.58256,-3.60202z" data-paper-data="{&quot;index&quot;:null}" fill="#ffdcca" stroke="#000000" stroke-width="2"/><g data-paper-data="{&quot;index&quot;:null}" stroke="none" stroke-width="0.5"><path d="M998.23398,578.18301c1.45853,-1.22214 2.75618,-2.54304 4.28824,-3.75357c2.34612,-1.85374 4.35219,-3.66434 5.93678,-5.74727c0.53999,-1.41559 1.05345,-2.74716 1.08041,-4.11641c0.01827,-0.92763 -0.76887,-1.59473 -1.22366,-2.3929c-1.28082,-2.24783 -2.57247,-4.34794 -6.35095,-5.15775c-2.49237,-0.11232 -4.40882,-0.95289 -7.14505,-0.62446c-2.81931,0.3384 -6.15875,1.72062 -8.70059,2.83415c-2.10097,0.92039 -4.33117,1.51842 -6.40009,2.56162c-2.7261,1.84381 -6.5821,3.34739 -8.82302,5.37305l-0.28937,0.22961c-0.30148,-0.19042 -0.56845,-0.38914 -0.62205,-0.57685c-0.17143,-0.60035 0.57455,-1.73271 0.81542,-2.38522c0.47158,-1.27749 0.69753,-2.68276 1.41778,-3.96102c0.561,-0.99559 1.91422,-2.11341 2.89315,-3.02707c1.12328,-1.49769 3.93364,-2.96628 5.78091,-4.22724c0.63618,-0.43425 1.22297,-0.95494 2.12519,-1.03607c3.79083,-0.34089 6.74533,0.72326 10.35405,-1.68991c2.465,-1.23182 4.63646,-2.31638 6.79759,-3.68582c2.22913,-0.75872 4.46741,-1.49129 6.57535,-2.55324c2.99643,-1.1341 5.00246,-3.11692 7.56378,-4.63351c3.35923,-1.98901 8.33031,-2.55454 12.00283,-2.65395c0.8291,-0.09569 2.04546,-0.27978 2.82089,-0.1873c0.69948,0.08342 1.28692,0.62339 1.75682,0.8919c1.59817,0.91322 3.11068,1.69402 4.14274,2.92035c0.43737,0.5197 1.45064,1.0819 1.12697,1.8619c-0.32772,0.78967 -0.96878,1.79048 -1.57889,2.57588c-1.38079,1.79894 -2.51186,3.59522 -4.12738,5.3593c-1.59541,1.74212 -3.79648,3.40287 -5.37478,5.10552c-0.98096,1.05824 -1.67794,2.13272 -2.82635,3.19799c-3.34314,3.10115 -3.13715,6.28032 -5.58772,9.45843c-1.09421,1.41904 -2.83176,2.67516 -4.58133,3.86629c-1.79157,1.21973 -3.93499,3.05789 -6.25176,3.84019c-2.51065,0.84775 -5.02951,1.74579 -7.59591,2.33335z" data-paper-data="{&quot;noHover&quot;:false,&quot;origItem&quot;:[&quot;Path&quot;,{&quot;applyMatrix&quot;:true,&quot;segments&quot;:[[[425.87994,155.69536],[-0.63905,6.55218],[0.97861,-10.03363]],[[432.37249,126.97018],[-3.83131,9.3867],[3.99864,-5.41564]],[[445.26708,112.09196],[-5.15453,4.34924],[3.49207,-2.94651]],[[457.75117,106.67493],[-4.22696,1.69078],[11.90418,-4.76167]],[[493.79238,101.83686],[-12.90551,-4.23813],[6.90317,4.12055]],[[514.86421,112.84924],[-5.85487,-5.94273],[6.03262,6.12315]],[[526.63893,137.38103],[-2.35426,-8.05989],[1.94592,6.66194]],[[533.48339,156.91985],[-1.39402,-6.99012],[0.04647,10.6844]],[[535.88871,189.64055],[1.9079,-10.38479],[0,0]],[[535.67654,190.70143],[0,0],[1.50972,-0.057]],[[539.49058,190.00753],[-0.85548,0.49341],[2.73608,-1.57807]],[[546.46534,181.05664],[-1.86403,2.48192],[3.6494,-4.8591]],[[557.8827,166.08074],[-3.00626,5.30777],[2.34149,-4.13407]],[[561.90808,151.38955],[-0.94319,4.62687],[2.79664,-6.72042]],[[563.0082,127.7546],[-0.01266,7.2763],[0.00436,-2.50586]],[[561.4379,120.69224],[2.03417,1.87419],[-8.54691,-7.87473]],[[540.98198,96.82572],[0.16673,14.05698],[-1.7033,-8.29351]],[[537.39166,73.09193],[0.38875,8.1804],[-2.89574,-6.38412]],[[530.07134,53.30331],[1.42382,7.11909],[-3.45665,-8.94043]],[[528.12484,25.19306],[0.86698,9.36086],[-1.13706,-12.27691]],[[507.10381,-4.67292],[9.16104,6.90384],[-1.78868,-1.78868]],[[500.49797,-10.32302],[2.36727,1.1013],[-2.13539,-0.99342]],[[492.53881,-10.67398],[2.24522,0],[-7.63614,0]],[[470.65575,-8.93775],[7.36028,-1.99958],[-3.11913,0.84738]],[[460.63424,-5.11442],[2.13529,-3.03098],[-2.1618,3.06861]],[[454.91607,5.80754],[1.41189,-3.56207],[-3.27713,8.12887]],[[445.21035,30.038],[2.53443,-8.44071],[-2.50286,8.33558]],[[439.71567,55.69825],[2.39668,-8.18084],[-1.48961,5.08465]],[[434.8683,70.79192],[1.08146,-5.40728],[-3.14826,15.74129]],[[413.29615,110.46904],[5.76062,-14.38109],[-2.57214,6.42123]],[[410.43676,130.81582],[0,-6.88167],[0,7.04688]],[[412.01222,154.08111],[-3.03352,-6.61545],[3.28739,7.16908]],[[422.82544,175.02896],[-4.4249,-6.45189],[0.87441,-6.45671]]],&quot;closed&quot;:true}]}" fill="#c35e00"/><path d="M1021.41119,559.42637c-0.13406,0.41536 -0.31355,0.83035 -0.8973,1.36387c0,0 -0.66626,0.5648 -1.39568,0.28306c-0.09307,-0.03596 -0.16342,-0.0765 -0.21533,-0.1199c-0.0762,-0.04322 -0.11502,-0.08101 -0.11502,-0.08101c-0.35503,-0.3502 -0.96455,-0.56767 -1.25736,-0.94683c-0.36116,-0.46765 -0.22804,-1.11155 -0.5404,-1.59929c-1.66767,-2.60419 -6.05958,-4.96902 -9.86743,-6.2281c-0.81788,-0.46734 -2.08598,-0.97915 -3.12688,-1.19438c-0.31079,-0.06426 -0.75677,0.09265 -1.06659,0.02726c-1.84638,-0.38965 -3.68786,-1.02783 -5.47196,-1.61061l-0.41699,-0.21973c0,0 -0.62785,-0.35878 0.13486,-0.87804c0.25095,-0.17085 0.4873,-0.24665 0.69147,-0.27144c0.18439,-0.26855 0.61953,-0.42982 0.61953,-0.42982l0.89685,-0.33018c1.78107,-0.5462 3.27857,-1.63825 4.9635,-2.37513c4.0326,-0.97644 6.6866,-0.46233 9.70502,0.54331c1.10104,0.36683 2.44879,0.4852 3.59344,0.82722c2.52369,0.75409 4.42204,2.18919 6.42815,3.34189c0.99253,0.82345 1.96727,1.61094 2.92931,2.44409c0.29945,0.25932 0.94372,0.41386 0.88688,0.7841c-0.00937,0.06105 -0.29765,0.31034 -0.64542,0.59733c-0.00412,0.02041 -0.00797,0.03231 -0.00797,0.03231c-0.39842,1.03394 -1.09179,1.25242 -2.01143,2.15473c-1.15477,1.133 -1.54279,2.29422 -2.95931,3.3039z" fill="#b35700"/><path d="M1034.05526,545.86253c-0.00894,0.0224 -0.01578,0.03541 -0.01578,0.03541l-0.40525,0.72803c-0.92998,1.06623 -1.93848,1.99179 -2.49526,3.13693c-0.54904,1.12923 -0.35245,1.29671 -1.71494,2.40508c-0.61352,0.10929 -1.2683,0.36372 -1.84053,0.32791c-0.33872,-0.0212 -1.37532,-0.72887 -1.7186,-0.89019c-1.0289,-0.48351 -2.05518,-0.96737 -3.08157,-1.45277c-1.98429,-0.93839 -4.63759,-1.30435 -6.59744,-2.22939c-1.59807,-0.75431 -2.74226,-1.7319 -4.75663,-2.14843c-1.24065,-0.26398 -2.45993,-0.07229 -3.74795,-0.21902c-0.53236,-0.06066 -1.28424,-0.00143 -1.51178,-0.29493c-1.04109,-1.34286 2.14532,-2.09831 3.29651,-2.9867c1.75077,-1.35112 4.26634,-3.33153 6.88978,-3.91727c1.90626,-0.42562 3.76815,0.02998 5.28462,0.3492c2.08631,0.43918 4.00001,0.98585 6.14286,1.3668c0.62719,0.11149 1.4038,-0.00158 2.03727,0.10197c2.93931,0.48047 4.70496,3.09967 4.78971,5.02435c0,0 0.00956,0.41796 -0.55504,0.66307z" fill="#a24e00"/><path d="M1035.23972,543.86895c-0.51363,0.08518 -0.81082,-0.1628 -0.81082,-0.1628c-1.46921,-1.22585 -3.12306,-2.23711 -4.91708,-3.26223c-0.51501,-0.29428 -1.0717,-0.83496 -1.87863,-0.8815c-1.3239,-0.07639 -2.9104,0.34063 -4.27512,0.29552c-1.43864,-0.04758 -2.8348,-0.54673 -3.76636,-1.10285c-0.30647,-0.02705 -0.61294,-0.05409 -0.91942,-0.08112l-0.08345,-0.07344l-0.04201,0.03561l-0.81936,-0.31648c-0.03867,-0.01425 -0.07515,-0.03102 -0.10901,-0.05036c-0.34676,-0.19814 -0.2864,-0.59125 0.13485,-0.87804c0.23348,-0.15894 0.52875,-0.25186 0.80468,-0.26939l1.37482,-0.09259c2.15486,-0.51276 4.5111,-0.97534 6.39996,-0.93174c4.36343,0.1007 8.79323,2.32513 10.4354,4.65269c0.26135,0.66351 0.28684,1.31486 0.40634,2.01441l-0.41383,0.71832c0,0 -0.52503,0.60608 -1.36187,0.42993c-0.05974,-0.01259 -0.11255,-0.02734 -0.15909,-0.04393z" fill="#7a3b00"/><path d="M990.78896,551.86859c0,0 -0.68782,0.46827 -1.29479,0.2082c-2.02965,0.27093 -4.03124,-0.04702 -6.34673,0.16121c-0.90223,0.08113 -1.488,0.60037 -2.12417,1.03463c-1.84726,1.26096 -4.65539,2.72483 -5.77866,4.22251c-0.97893,0.91365 -2.33159,2.0287 -2.89259,3.02427c-0.72026,1.27823 -0.94632,2.68008 -1.41791,3.95757c-0.24088,0.65252 -0.98735,1.78308 -0.81591,2.38342c0.05361,0.18771 0.32035,0.38582 0.62183,0.57623l0.2253,-0.20901c2.24091,-2.02564 6.09614,-3.53213 8.82224,-5.37593c2.0689,-1.0432 4.299,-1.64302 6.39999,-2.5634c2.54184,-1.11354 5.88193,-2.49962 8.70123,-2.83803c2.73624,-0.32843 4.71751,0.50155 7.20987,0.61388c3.77849,0.80981 5.03219,2.89979 6.31299,5.14761c0.4548,0.79816 1.25384,1.50298 1.23557,2.4306c-0.02695,1.36926 -0.54393,2.70174 -1.08393,4.11733c-1.5846,2.08293 -3.59808,3.89473 -5.9442,5.74846c-1.53208,1.21054 -2.81754,2.48956 -4.27606,3.71173c2.56639,-0.58756 5.07815,-1.48493 7.58881,-2.33267c2.31677,-0.78228 4.45307,-2.61881 6.24466,-3.83853c1.74957,-1.19115 3.48027,-2.44471 4.57448,-3.86376c2.2997,-2.98245 2.24657,-5.9562 4.99418,-8.87393c-0.03432,-0.12949 0.00342,-0.24631 0.00342,-0.24631c0.57737,-1.74757 2.33357,-3.17293 3.9512,-4.74348c2.38379,-2.31442 4.84587,-4.55915 6.94884,-6.97466c1.15295,-1.79488 3.74191,-4.2973 3.11858,-6.04937c-0.23269,-0.22673 -0.49198,-0.43647 -0.66322,-0.63992c-0.18504,-0.21987 -0.38538,-0.42533 -0.5988,-0.61974c-0.5719,-0.33106 -1.22292,-0.61553 -1.74367,-0.97401c-1.00956,-0.69498 -2.26848,-1.97302 -3.89244,-2.12606c-1.05053,0.20896 -2.29507,0.43188 -3.31625,0.44781c-0.65134,0.01016 -1.24034,-0.14849 -1.87594,-0.19324c-0.49689,0.04425 -1.00287,0.09854 -1.51278,0.16456c-0.56172,0.13803 -1.12429,0.30879 -1.67317,0.33916c-0.13071,0.00723 -0.2603,0.00274 -0.38926,-0.00594c-0.78544,0.15437 -1.56411,0.34171 -2.31757,0.56814c-0.21771,0.12392 -0.43905,0.24349 -0.68035,0.33546c-0.44425,0.16931 -0.8996,0.28272 -1.35177,0.40708c-0.47293,0.20887 -0.92591,0.43879 -1.353,0.69167c-2.56135,1.51658 -4.55764,3.49869 -7.55407,4.63279c-1.81101,0.91236 -3.70915,1.57904 -5.62158,2.22987c-0.34414,0.19625 -0.69736,0.38638 -1.06771,0.56436c-0.45367,0.21804 -0.90534,0.43508 -1.35512,0.6518c-1.68016,0.9724 -3.40105,1.83139 -5.30412,2.78239c-0.89658,0.59954 -1.75248,0.98413 -2.59068,1.22877l-0.11675,0.08649zM1022.90526,535.99261c0.35667,-0.05009 0.67656,-0.0587 0.97838,-0.0461c0.98227,-0.09084 1.93715,-0.14323 2.83747,-0.16469c1.02427,-0.11821 2.43637,-0.30491 3.36939,-0.17423c1.01711,0.14245 1.69728,0.69174 2.4004,1.09353c1.53175,0.87526 2.97761,1.6444 4.05428,2.7444c0.54537,0.3852 0.99525,0.80962 1.21464,1.34774c0.37853,0.46996 0.62615,0.98296 0.39408,1.662c-0.29728,0.86991 -1.11626,2.0625 -1.77217,2.91702c-1.423,1.83182 -2.57316,3.66597 -4.2231,5.46609c-1.59466,1.7398 -3.86074,3.42093 -5.39482,5.12103c-0.98308,1.08947 -1.73039,2.18393 -2.90971,3.27791c-2.73665,2.53856 -2.87168,5.05653 -4.40557,7.7275c-1.25231,2.18063 -3.40848,4.02592 -6.01632,5.80138c-1.30014,0.88515 -2.57029,1.87923 -3.96962,2.69874c-3.48767,2.04254 -8.98352,3.7378 -13.28448,4.38195c-0.22567,0.11887 -0.70163,0.31454 -1.14029,0.13932c-0.27349,0.00216 -0.80217,-0.05247 -0.73107,-0.51546c0.09534,-0.62087 1.07864,-0.73436 1.07864,-0.73436c0.04801,-0.0055 0.096,-0.01116 0.14397,-0.01695c2.11807,-1.52746 3.69683,-3.23686 5.68975,-4.82302c2.1444,-1.70672 4.00682,-3.35109 5.5021,-5.25347c0.42817,-1.20437 1.50992,-3.06458 0.94023,-4.12659c-1.23785,-2.3077 -2.55465,-5.41682 -6.42401,-6.2089c-2.2799,-0.09539 -4.07648,-0.88162 -6.53941,-0.6155c-2.4581,0.26558 -5.51839,1.62774 -7.74151,2.58003c-2.0119,0.86179 -4.10603,1.40804 -6.06967,2.39608c-2.47644,1.69955 -6.45218,3.19049 -8.39105,5.05949l-0.65015,0.60309c0,0 -0.03592,0.03331 -0.10109,0.08054c-0.03669,0.14984 -0.17152,0.3269 -0.51832,0.50161c-0.87104,0.43882 -1.33714,-0.01482 -1.33714,-0.01482c-0.48499,-0.479 -1.50971,-0.85804 -1.70842,-1.46051c-0.25966,-0.78714 0.51328,-2.04841 0.83354,-2.91141c0.49287,-1.32804 0.71927,-2.79599 1.4957,-4.12338c0.64468,-1.10218 2.0018,-2.29154 3.09629,-3.29943c1.32078,-1.67136 4.73071,-3.80388 7.0046,-5.11966c1.12927,-0.65345 1.39107,-0.813 2.72729,-0.98734c2.45664,-0.32053 4.62384,0.32052 6.83601,-0.23567c5.74692,-3.13022 11.64825,-6.06015 17.82853,-8.75229c1.69753,-1.17294 3.38043,-2.32025 5.26473,-3.32812c0.57694,-0.30859 1.17054,-0.49741 1.76664,-0.67289c0.68443,-0.2955 1.39987,-0.55585 2.13453,-0.78434c0.43196,-0.23513 0.8488,-0.49033 1.3369,-0.62857c0.60921,-0.17253 1.22304,-0.15759 1.83062,-0.15308c0.65609,-0.12493 1.31415,-0.22983 1.96667,-0.31678c0.20133,-0.05513 0.40256,-0.10382 0.60258,-0.1319z" fill="#000000"/></g></g></g></svg>