<svg version="1.1" xmlns="http://www.w3.org/2000/svg" xmlns:xlink="http://www.w3.org/1999/xlink" width="132.76252" height="145.28751" viewBox="0,0,132.76252,145.28751"><g transform="translate(-917.39963,-551.69175)"><g data-paper-data="{&quot;isPaintingLayer&quot;:true}" fill-rule="nonzero" stroke-linecap="butt" stroke-linejoin="miter" stroke-miterlimit="10" stroke-dasharray="" stroke-dashoffset="0" style="mix-blend-mode: normal"><g stroke="#000000" stroke-width="2"><path d="M961.08064,694.86243c-11.89655,-0.49118 -21.25207,-3.30398 -20.89612,-6.28256c0.35594,-2.97858 10.28854,-4.995 22.1851,-4.50381c11.89655,0.49118 21.25207,3.30398 20.89612,6.28256c-0.35594,2.97857 -10.28854,4.995 -22.1851,4.50381z" data-paper-data="{&quot;index&quot;:null}" fill="#7d4e23"/><path d="M949.65825,689.55837c0,0 15.19684,-13.96345 14.39821,-21.22242c-0.85154,-7.7397 -18.761,-15.36256 -18.761,-15.36256l13.36906,-1.41596c0,0 18.56245,12.43127 18.40066,15.02017c-0.61522,9.84415 -14.01307,22.92999 -14.01307,22.92999z" data-paper-data="{&quot;index&quot;:null}" fill="#50a72f"/></g><g stroke="#000000" stroke-width="2"><path d="M944.14413,695.97927c-11.89655,-0.49118 -21.25207,-3.30398 -20.89612,-6.28256c0.35594,-2.97858 10.28854,-4.995 22.1851,-4.50381c11.89655,0.49118 21.25207,3.30398 20.89612,6.28256c-0.35594,2.97857 -10.28854,4.995 -22.1851,4.50381z" data-paper-data="{&quot;index&quot;:null}" fill="#7d4e23"/><path d="M922.10548,688.21007c0,0 7.08738,1.21004 7.10607,0.45369c0.09152,-3.70374 13.04782,-12.76745 13.43713,-18.99674c0.46663,-7.46647 -20.7264,-17.85749 -20.7264,-17.85749l16.3586,0.37428c0,0 15.39262,13.97363 15.36782,14.37048c-0.47255,7.5612 -8.56692,21.46373 -8.56692,21.46373z" data-paper-data="{&quot;index&quot;:null}" fill="#50a72f"/></g><path d="M924.78107,652.11886c0,0 1.92032,-2.26742 1.99638,-3.6444c0.0195,-0.35297 -4.80828,-0.9364 -4.89741,-1.43786c-0.35226,-1.98179 3.43372,-4.56049 3.43372,-4.56049l35.5986,0.95639c0,0 -3.72008,2.35278 -3.7984,3.77061c-0.09572,1.7328 3.26572,5.87215 3.26572,5.87215z" data-paper-data="{&quot;index&quot;:null}" fill="#50a72f" stroke="#000000" stroke-width="2"/><g data-paper-data="{&quot;index&quot;:null}" stroke="#000000" stroke-width="2"><path d="M969.01466,584.56487l14.00765,4.20574c0,0 -21.59527,9.60651 -22.91561,15.89585c-0.76917,3.6639 3.39329,18.89785 3.39329,18.89785l-14.73035,-0.73589c0,0 -3.37196,-16.18144 -2.1181,-22.15413c1.31404,-6.2593 22.36312,-16.1094 22.36312,-16.1094z" fill="#4e73cc"/><path d="M957.9437,621.25575c6.0226,1.35768 10.23349,5.65642 9.40529,9.60147c-0.8282,3.94506 -6.38189,6.04257 -12.40448,4.68489c-6.02261,-1.35767 -10.23349,-5.65641 -9.40529,-9.60147c0.8282,-3.94506 6.38187,-6.04256 12.40447,-4.68488z" fill="#ffffff"/></g><g data-paper-data="{&quot;index&quot;:null}" stroke="#000000" stroke-width="2"><path d="M924.91063,641.96952c0,0 -3.87069,-36.83541 1.35076,-47.03364c4.75826,-9.29356 40.26475,-19.85316 40.26475,-19.85316l32.66173,18.62149c0,0 -35.01234,1.50699 -39.57745,10.42329c-5.3367,10.42333 -0.85571,39.42221 -0.85571,39.42221z" fill="#4e73cc"/><path d="M949.78117,641.33561c0,0 -2.33437,-27.85086 2.95931,-38.19018c4.51073,-8.81008 33.44266,-16.54966 33.44266,-16.54966l7.05275,6.16385c0,0 -31.63508,3.06103 -36.1117,11.80447c-5.31051,10.37217 -1.22036,38.60409 -1.22036,38.60409z" fill="#ff9b2d"/></g><g data-paper-data="{&quot;index&quot;:null}" stroke="#000000" stroke-width="2"><path d="M971.97806,588.36772c0,0 -19.60211,4.65591 -22.56539,9.90624c-3.33427,5.90765 -0.83188,21.33843 -0.83188,21.33843l-13.54066,0.35259c0,0 -3.62672,-20.87184 -1.01487,-25.49951c3.04572,-5.3964 27.02824,-12.441 27.02824,-12.441z" fill="#4e73cc"/><path d="M943.87632,617.67563c5.84681,1.82083 8.93042,6.23131 6.88744,9.85106c-2.04299,3.61976 -8.43895,5.07807 -14.28575,3.25724c-5.84682,-1.82083 -8.93042,-6.23131 -6.88744,-9.85107c2.04299,-3.61976 8.43894,-5.07808 14.28575,-3.25724z" fill="#ffffff"/></g><path d="M1015.87249,566.8763c6.77616,6.0628 3.59799,14.51146 -7.09863,18.87059c-10.69661,4.35913 -24.86109,2.97803 -31.63726,-3.08476c-6.77616,-6.06281 -3.59801,-14.51146 7.09862,-18.87059c10.69661,-4.35913 24.8611,-2.97803 31.63727,3.08478z" data-paper-data="{&quot;index&quot;:null}" fill="#ffdcca" stroke="#000000" stroke-width="2"/><g data-paper-data="{&quot;index&quot;:null}" stroke="none" stroke-width="0.5"><path d="M1003.42556,588.12658c1.68193,-0.88997 3.2272,-1.91017 4.9786,-2.77341c2.68201,-1.32191 5.02247,-2.67278 7.00775,-4.37812c0.82418,-1.2713 1.60485,-2.46599 1.91766,-3.7993c0.21193,-0.90328 -0.41824,-1.72029 -0.69599,-2.59594c-0.78223,-2.46604 -1.60596,-4.7899 -5.13142,-6.37225c-2.41372,-0.63124 -4.11192,-1.85413 -6.85631,-2.10539c-2.82772,-0.25889 -6.38243,0.39413 -9.10098,0.95127c-2.24703,0.4605 -4.55299,0.57874 -6.79437,1.16603c-3.05151,1.23271 -7.13673,1.89634 -9.75184,3.40838l-0.331,0.16399c-0.25497,-0.24928 -0.47446,-0.49945 -0.48761,-0.69422c-0.04204,-0.62293 0.92432,-1.57417 1.29637,-2.16185c0.7284,-1.15057 1.24333,-2.47747 2.21506,-3.57677c0.75686,-0.8562 2.31399,-1.66619 3.4624,-2.35484c1.41174,-1.22956 4.46715,-2.07772 6.53733,-2.92433c0.71295,-0.29155 1.39568,-0.67796 2.29491,-0.56855c3.77826,0.4597 6.44477,2.11838 10.47847,0.51356c2.66815,-0.68888 5.01846,-1.29517 7.41825,-2.1822c2.33853,-0.2756 4.68054,-0.52371 6.964,-1.12118c3.16738,-0.48215 5.54383,-2.00143 8.36575,-2.94863c3.701,-1.24225 8.68039,-0.75531 12.29245,-0.08423c0.83077,0.07988 2.05873,0.15432 2.79765,0.40698c0.66655,0.22791 1.12803,0.87882 1.53136,1.23969c1.37176,1.22735 2.68746,2.30729 3.44013,3.72239c0.31897,0.5997 1.19221,1.36144 0.71252,2.05646c-0.48567,0.70364 -1.32191,1.54819 -2.08283,2.18858c-1.72658,1.47027 -3.2084,2.99019 -5.15722,4.37726c-1.92456,1.36981 -4.42436,2.53335 -6.32393,3.86814c-1.18064,0.82961 -2.08698,1.7345 -3.43283,2.53595c-3.91793,2.33314 -4.38158,5.48506 -7.44279,8.08019c-1.36686,1.15873 -3.32875,2.02356 -5.28879,2.82232c-2.0071,0.81794 -4.48763,2.16703 -6.9168,2.44734c-2.63245,0.30376 -5.28344,0.65498 -7.91597,0.69265z" data-paper-data="{&quot;noHover&quot;:false,&quot;origItem&quot;:[&quot;Path&quot;,{&quot;applyMatrix&quot;:true,&quot;segments&quot;:[[[425.87994,155.69536],[-0.63905,6.55218],[0.97861,-10.03363]],[[432.37249,126.97018],[-3.83131,9.3867],[3.99864,-5.41564]],[[445.26708,112.09196],[-5.15453,4.34924],[3.49207,-2.94651]],[[457.75117,106.67493],[-4.22696,1.69078],[11.90418,-4.76167]],[[493.79238,101.83686],[-12.90551,-4.23813],[6.90317,4.12055]],[[514.86421,112.84924],[-5.85487,-5.94273],[6.03262,6.12315]],[[526.63893,137.38103],[-2.35426,-8.05989],[1.94592,6.66194]],[[533.48339,156.91985],[-1.39402,-6.99012],[0.04647,10.6844]],[[535.88871,189.64055],[1.9079,-10.38479],[0,0]],[[535.67654,190.70143],[0,0],[1.50972,-0.057]],[[539.49058,190.00753],[-0.85548,0.49341],[2.73608,-1.57807]],[[546.46534,181.05664],[-1.86403,2.48192],[3.6494,-4.8591]],[[557.8827,166.08074],[-3.00626,5.30777],[2.34149,-4.13407]],[[561.90808,151.38955],[-0.94319,4.62687],[2.79664,-6.72042]],[[563.0082,127.7546],[-0.01266,7.2763],[0.00436,-2.50586]],[[561.4379,120.69224],[2.03417,1.87419],[-8.54691,-7.87473]],[[540.98198,96.82572],[0.16673,14.05698],[-1.7033,-8.29351]],[[537.39166,73.09193],[0.38875,8.1804],[-2.89574,-6.38412]],[[530.07134,53.30331],[1.42382,7.11909],[-3.45665,-8.94043]],[[528.12484,25.19306],[0.86698,9.36086],[-1.13706,-12.27691]],[[507.10381,-4.67292],[9.16104,6.90384],[-1.78868,-1.78868]],[[500.49797,-10.32302],[2.36727,1.1013],[-2.13539,-0.99342]],[[492.53881,-10.67398],[2.24522,0],[-7.63614,0]],[[470.65575,-8.93775],[7.36028,-1.99958],[-3.11913,0.84738]],[[460.63424,-5.11442],[2.13529,-3.03098],[-2.1618,3.06861]],[[454.91607,5.80754],[1.41189,-3.56207],[-3.27713,8.12887]],[[445.21035,30.038],[2.53443,-8.44071],[-2.50286,8.33558]],[[439.71567,55.69825],[2.39668,-8.18084],[-1.48961,5.08465]],[[434.8683,70.79192],[1.08146,-5.40728],[-3.14826,15.74129]],[[413.29615,110.46904],[5.76062,-14.38109],[-2.57214,6.42123]],[[410.43676,130.81582],[0,-6.88167],[0,7.04688]],[[412.01222,154.08111],[-3.03352,-6.61545],[3.28739,7.16908]],[[422.82544,175.02896],[-4.4249,-6.45189],[0.87441,-6.45671]]],&quot;closed&quot;:true}]}" fill="#c35e00"/><path d="M1030.01382,574.63366c-0.21799,0.37812 -0.48032,0.74638 -1.16277,1.14598c0,0 -0.76967,0.41292 -1.42401,-0.01518c-0.08349,-0.05463 -0.1438,-0.10899 -0.18548,-0.16229c-0.06547,-0.0582 -0.09553,-0.10328 -0.09553,-0.10328c-0.27391,-0.41672 -0.82445,-0.75689 -1.03146,-1.18892c-0.25534,-0.53286 0.00954,-1.13466 -0.19387,-1.67695c-1.08597,-2.89544 -4.88598,-6.12674 -8.34617,-8.15456c-0.70201,-0.6281 -1.83498,-1.39387 -2.80782,-1.8221c-0.29047,-0.12786 -0.75941,-0.06772 -1.04869,-0.19647c-1.72401,-0.76729 -3.39124,-1.77659 -5.01394,-2.71971l-0.3618,-0.3021c0,0 -0.5389,-0.48219 0.31556,-0.8304c0.28114,-0.11457 0.52812,-0.13925 0.73296,-0.12078c0.23649,-0.22403 0.69574,-0.2907 0.69574,-0.2907l0.94608,-0.13525c1.85592,-0.16151 3.54875,-0.91612 5.35055,-1.28421c4.14764,-0.11121 6.63536,0.94674 9.37661,2.56158c0.99994,0.58905 2.2931,0.98675 3.34087,1.56067c2.31009,1.26536 3.86621,3.06584 5.58679,4.61272c0.7983,1.01287 1.58673,1.98685 2.35319,3.00282c0.23857,0.31623 0.83626,0.60213 0.70322,0.95229c-0.02193,0.05774 -0.35599,0.2412 -0.7561,0.44909c-0.0083,0.0191 -0.01455,0.02993 -0.01455,0.02993c-0.6059,0.92771 -1.32964,0.9963 -2.41769,1.68626c-1.36624,0.86635 -1.9886,1.9207 -3.58501,2.6117z" fill="#b35700"/><path d="M1045.21568,564.0151c-0.01343,0.02003 -0.02284,0.03132 -0.02284,0.03132l-0.54859,0.62714c-1.13246,0.84808 -2.31227,1.54219 -3.09629,2.54551c-0.77313,0.98938 -0.61592,1.19429 -2.18014,1.99309c-0.62281,-0.02148 -1.31633,0.09034 -1.8684,-0.06439c-0.32679,-0.09159 -1.19241,-1.00046 -1.49434,-1.23002c-0.90498,-0.68806 -1.80733,-1.37591 -2.70946,-2.06529c-1.74407,-1.33274 -4.2621,-2.24567 -5.98507,-3.56025c-1.40491,-1.07194 -2.31927,-2.26726 -4.20193,-3.09598c-1.15797,-0.51768 -2.39038,-0.58531 -3.6192,-0.99825c-0.50789,-0.17069 -1.25552,-0.27006 -1.41663,-0.60467c-0.73713,-1.53094 2.53682,-1.60308 3.84839,-2.23098c1.99469,-0.95496 4.8689,-2.36529 7.55682,-2.38925c1.95312,-0.01741 3.6785,0.81762 5.09463,1.44702c1.94827,0.86592 3.70526,1.80084 5.721,2.62165c0.58999,0.24023 1.37307,0.29213 1.97086,0.52591c2.77376,1.08474 3.9524,4.01536 3.63263,5.91519c0,0 -0.07809,0.41071 -0.68147,0.53228z" fill="#a24e00"/><path d="M1046.79099,562.31342c-0.52008,-0.02416 -0.75882,-0.32882 -0.75882,-0.32882c-1.18025,-1.50608 -2.58595,-2.84095 -4.12582,-4.2187c-0.44205,-0.39551 -0.87331,-1.04068 -1.65265,-1.25501c-1.27862,-0.35166 -2.91726,-0.27576 -4.24235,-0.60538c-1.39685,-0.34749 -2.6577,-1.12767 -3.4523,-1.86637c-0.29403,-0.09057 -0.58806,-0.18112 -0.88211,-0.27167l-0.06624,-0.08927l-0.04853,0.02603l-0.73502,-0.48089c-0.03483,-0.02202 -0.067,-0.04606 -0.09606,-0.07205c-0.29764,-0.2663 -0.15637,-0.63808 0.31555,-0.8304c0.26156,-0.10658 0.56974,-0.13567 0.84323,-0.09509l1.36377,0.19707c2.21445,-0.05062 4.61532,-0.01003 6.45327,0.42775c4.24581,1.0113 8.11224,4.11323 9.23115,6.73283c0.11676,0.7035 0.00542,1.34577 -0.02407,2.05484l-0.55495,0.61585c0,0 -0.6402,0.48283 -1.42168,0.13551c-0.05578,-0.02481 -0.10434,-0.05028 -0.14638,-0.07624z" fill="#7a3b00"/><path d="M1001.65027,560.83692c0,0 -0.77056,0.31402 -1.30969,-0.06728c-2.04142,-0.15967 -3.9322,-0.88932 -6.24002,-1.1701c-0.89924,-0.10941 -1.58067,0.2758 -2.29361,0.56736c-2.07018,0.84661 -5.12242,1.69063 -6.53415,2.92018c-1.1484,0.68864 -2.7044,1.49604 -3.46126,2.35222c-0.97173,1.09927 -1.48606,2.42281 -2.21446,3.57337c-0.37206,0.58769 -1.33852,1.53707 -1.29647,2.15999c0.01315,0.19477 0.23255,0.4443 0.48752,0.69357l0.26404,-0.15725c2.61509,-1.51202 6.70017,-2.17866 9.75168,-3.41136c2.24136,-0.5873 4.5476,-0.70731 6.79464,-1.1678c2.71855,-0.55715 6.2747,-1.21381 9.10241,-0.95493c2.7444,0.25126 4.5082,1.47736 6.92191,2.10861c3.52547,1.58235 4.3142,3.88836 5.09642,6.35439c0.27776,0.87564 0.91167,1.73203 0.69975,2.6353c-0.3128,1.33332 -1.0971,2.52817 -1.92129,3.79947c-1.98529,1.70534 -4.33324,3.05583 -7.01525,4.37773c-1.75142,0.86324 -3.27601,1.84504 -4.95794,2.73504c2.63252,-0.03767 5.27643,-0.38972 7.90889,-0.69347c2.42916,-0.2803 4.90239,-1.62928 6.90951,-2.44721c1.96005,-0.79878 3.9147,-1.66254 5.28156,-2.82128c2.87274,-2.43536 3.4429,-5.35442 6.7401,-7.63279c-0.00647,-0.1338 0.05487,-0.24014 0.05487,-0.24014c0.93019,-1.58811 2.94571,-2.61454 4.85611,-3.81193c2.81522,-1.76452 5.69242,-3.44451 8.25419,-5.36663c1.50293,-1.51397 4.55811,-3.4194 4.31511,-5.2631c-0.18011,-0.27039 -0.38978,-0.52973 -0.51467,-0.76451c-0.13495,-0.25372 -0.28787,-0.49654 -0.4559,-0.7313c-0.48999,-0.44338 -1.06709,-0.85775 -1.50132,-1.31723c-0.84183,-0.8908 -1.80553,-2.40393 -3.36154,-2.89332c-1.071,-0.01544 -2.33464,-0.05781 -3.33655,-0.25586c-0.63905,-0.12632 -1.18183,-0.40468 -1.79401,-0.58141c-0.49515,-0.06068 -1.00129,-0.11344 -1.51373,-0.15556c-0.57817,0.01746 -1.16401,0.06676 -1.7071,-0.01837c-0.12933,-0.02027 -0.25511,-0.05177 -0.3794,-0.08724c-0.80035,-0.01336 -1.60099,0.00694 -2.38514,0.07073c-0.23882,0.07563 -0.48027,0.14625 -0.73547,0.18571c-0.46984,0.07263 -0.93884,0.08827 -1.40702,0.11528c-0.50616,0.10531 -0.99722,0.23538 -1.46776,0.39332c-2.82194,0.94719 -5.18872,2.46781 -8.3561,2.94996c-1.9618,0.51331 -3.95741,0.76814 -5.96368,1.00449c-0.37758,0.11991 -0.76276,0.23194 -1.16215,0.32851c-0.48925,0.11831 -0.97633,0.23605 -1.46149,0.35389c-1.84641,0.59939 -3.70892,1.07936 -5.76883,1.6112c-1.00217,0.39871 -1.91958,0.59573 -2.79042,0.65961l-0.13226,0.06015zM1036.37719,552.03099c0.35926,0.02563 0.67387,0.08414 0.96637,0.1596c0.97954,0.11666 1.92425,0.26519 2.80914,0.43256c1.02634,0.09868 2.44625,0.21153 3.33128,0.5345c0.9648,0.35208 1.51501,1.03151 2.11852,1.5715c1.31475,1.17634 2.56771,2.23093 3.39044,3.53183c0.45272,0.49077 0.80386,0.99991 0.90582,1.57202c0.27184,0.53875 0.40666,1.0922 0.03767,1.70767c-0.47269,0.78847 -1.52304,1.78334 -2.3432,2.48174c-1.77473,1.49359 -3.28315,3.04654 -5.27316,4.46167c-1.92334,1.3677 -4.49097,2.53757 -6.34677,3.87912c-1.18924,0.8597 -2.14898,1.77361 -3.53107,2.59666c-3.20716,1.90988 -3.86597,4.34388 -5.92468,6.63486c-1.68079,1.87039 -4.17528,3.22378 -7.09685,4.41439c-1.45654,0.59357 -2.90655,1.29994 -4.44636,1.80858c-3.8378,1.26772 -9.56669,1.77573 -13.90724,1.50587c-0.24554,0.06903 -0.75191,0.1608 -1.1442,-0.10231c-0.26789,-0.0551 -0.77344,-0.21912 -0.60706,-0.65699c0.22312,-0.58719 1.2084,-0.49246 1.2084,-0.49246c0.0481,0.00467 0.09621,0.00917 0.14433,0.01354c2.39075,-1.05056 4.29218,-2.39186 6.57283,-3.526c2.454,-1.22034 4.61921,-2.43871 6.47938,-3.98618c0.67065,-1.08815 2.11762,-2.68089 1.78271,-3.83858c-0.72769,-2.5156 -1.36492,-5.83139 -4.98296,-7.41542c-2.2095,-0.57024 -3.80184,-1.71491 -6.26595,-1.96993c-2.45927,-0.25453 -5.73681,0.43727 -8.10996,0.90341c-2.14767,0.42183 -4.30974,0.5179 -6.43663,1.07328c-2.77719,1.14387 -6.97686,1.77009 -9.26383,3.19212l-0.76193,0.45373c0,0 -0.04209,0.02506 -0.1157,0.05761c-0.06723,0.13885 -0.23611,0.28378 -0.61179,0.38208c-0.94357,0.24689 -1.30445,-0.29422 -1.30445,-0.29422c-0.37405,-0.56986 -1.2968,-1.15489 -1.36508,-1.7856c-0.08924,-0.82404 0.93045,-1.89571 1.42416,-2.67261c0.75979,-1.19555 1.28828,-2.58365 2.32522,-3.71924c0.86099,-0.94292 2.4369,-1.82206 3.71802,-2.57868c1.6412,-1.35807 5.42181,-2.73004 7.92064,-3.54101c1.24099,-0.40275 1.53037,-0.504 2.87349,-0.39494c2.46934,0.20049 4.45447,1.28074 6.73405,1.19964c6.2746,-1.8587 12.65829,-3.48923 19.26502,-4.82889c1.90535,-0.79186 3.79103,-1.56172 5.84448,-2.15309c0.62873,-0.18107 1.2487,-0.24153 1.86832,-0.28842c0.7311,-0.14578 1.48518,-0.2507 2.25138,-0.32044c0.47159,-0.13956 0.9326,-0.30191 1.43881,-0.33498c0.63182,-0.04127 1.22895,0.10176 1.82214,0.23327c0.66771,0.01509 1.33315,0.05018 1.98942,0.10166c0.20841,-0.01179 0.41537,-0.01731 0.61684,-0.00292z" fill="#000000"/></g></g></g></svg>