<svg version="1.1" xmlns="http://www.w3.org/2000/svg" xmlns:xlink="http://www.w3.org/1999/xlink" width="92.24788" height="240.42915" viewBox="0,0,92.24788,240.42915"><g transform="translate(-920.60989,-420.28542)"><g data-paper-data="{&quot;isPaintingLayer&quot;:true}" fill-rule="nonzero" stroke-linecap="butt" stroke-linejoin="miter" stroke-miterlimit="10" stroke-dasharray="" stroke-dashoffset="0" style="mix-blend-mode: normal"><g stroke="#000000" stroke-width="2"><path d="M936.78463,653.55798c-10.32146,-5.9545 -16.93109,-13.63184 -14.76301,-17.14781c2.16805,-3.51597 12.29279,-1.53913 22.61424,4.41538c10.32146,5.9545 16.93109,13.63184 14.76301,17.14781c-2.16805,3.51596 -12.29279,1.53913 -22.61424,-4.41538z" data-paper-data="{&quot;index&quot;:null}" fill="#7d4e23"/><path d="M930.26038,640.86005c2.38229,-4.52979 22.95347,-45.45221 22.95347,-45.45221l11.34612,6.28939l-23.26176,43.71932c0,0 -11.52433,-3.63147 -11.03784,-4.55651z" data-paper-data="{&quot;index&quot;:null}" fill="#50a72f"/></g><g data-paper-data="{&quot;index&quot;:null}" stroke="#000000" stroke-width="2"><path d="M970.05887,511.12256c0,0 -24.29332,45.37668 -24.4636,50.33512c-0.0567,1.65095 -9.61762,-3.54016 -9.61762,-3.54016l25.89205,-51.09977z" fill="#4e73cc"/><path d="M942.46616,559.47646c4.63605,4.00096 5.70553,9.27515 2.38877,11.78024c-3.31678,2.50509 -9.76383,1.29243 -14.39987,-2.70852c-2.28638,-1.97316 0.44662,-5.99216 3.37661,-8.25565c3.01113,-2.32616 6.28481,-2.84388 8.63449,-0.81608z" fill="#ffffff"/></g><path d="M946.63991,602.08052l0.53269,-9.64275l32.76841,0.95639l0.03336,9.64276z" data-paper-data="{&quot;index&quot;:null}" fill="#50a72f" stroke="#000000" stroke-width="2"/><g data-paper-data="{&quot;index&quot;:null}" stroke="#000000" stroke-width="2"><path d="M946.76948,590.7991l3.12495,-96.32078l31.52965,2.77242l-0.81053,95.12853z" fill="#4e73cc"/><path d="M974.47021,591.29726c0,0 2.78431,-83.92428 2.11032,-92.2125c-0.13911,-1.71072 3.98591,0.0516 3.98591,0.0516l0.02644,91.7293z" fill="#ff9b2d"/></g><path d="M966.17541,454.81023c7.91157,-4.48116 14.89999,1.23223 15.60902,12.7612c0.70904,11.52895 -5.12977,24.5077 -13.04134,28.98887c-7.91158,4.48115 -14.9,-1.23221 -15.60903,-12.76117c-0.70904,-11.52895 5.12977,-24.50772 13.04136,-28.9889z" data-paper-data="{&quot;index&quot;:null}" fill="#ffdcca" stroke="#000000" stroke-width="2"/><g data-paper-data="{&quot;index&quot;:null}" stroke="none" stroke-width="0.5"><path d="M982.32859,473.3999c-0.30529,-1.87822 -0.77767,-3.66863 -1.03542,-5.60412c-0.39469,-2.96393 -0.92604,-5.6135 -1.90685,-8.03993c-0.94092,-1.1875 -1.82318,-2.30925 -2.9864,-3.03207c-0.78805,-0.48971 -1.7637,-0.15393 -2.68218,-0.17084c-2.58669,-0.04757 -5.05194,-0.01037 -7.67873,2.82383c-1.37008,2.08505 -3.07186,3.30292 -4.18768,5.8228c-1.14968,2.59639 -1.66788,6.17324 -2.00948,8.92719c-0.28237,2.27629 -0.90786,4.49893 -1.06826,6.81043c0.19199,3.28548 -0.48582,7.36839 0.1104,10.32973l0.04952,0.36607c-0.31773,0.16186 -0.62497,0.2898 -0.81371,0.23996c-0.60366,-0.1594 -1.19586,-1.37924 -1.63368,-1.91969c-0.85717,-1.05812 -1.94969,-1.9704 -2.68046,-3.24268c-0.56915,-0.99095 -0.83858,-2.72534 -1.12376,-4.03368c-0.71345,-1.73086 -0.53985,-4.89702 -0.67989,-7.12925c-0.04822,-0.76874 -0.19597,-1.53921 0.1953,-2.35622c1.64396,-3.43279 4.06837,-5.42872 3.83793,-9.76382c0.20065,-2.74833 0.37792,-5.1691 0.30502,-7.72654c0.48681,-2.30385 1.00079,-4.6022 1.16503,-6.95678c0.5562,-3.15522 -0.12322,-5.89276 -0.11812,-8.86939c0.00671,-3.90392 2.06064,-8.46603 3.85172,-11.67372c0.34138,-0.76159 0.80467,-1.90124 1.28038,-2.52055c0.42912,-0.55865 1.19344,-0.78771 1.66436,-1.05443c1.60162,-0.90715 3.04564,-1.80836 4.62714,-2.0689c0.67022,-0.11041 1.67123,-0.69415 2.17633,-0.01737c0.51135,0.68521 1.04408,1.74764 1.40746,2.67341c0.84082,2.10613 1.80697,3.99624 2.49789,6.28632c0.68232,2.26157 0.98523,5.00222 1.64237,7.22891c0.40842,1.38396 0.97592,2.53211 1.30483,4.0636c0.95751,4.45835 3.79558,5.90574 5.27533,9.63614c0.66071,1.66567 0.85263,3.8011 0.98255,5.91366c0.13306,2.16327 0.61791,4.94501 0.10658,7.33624c-0.55413,2.59132 -1.06923,5.21541 -1.87551,7.72171z" data-paper-data="{&quot;noHover&quot;:false,&quot;origItem&quot;:[&quot;Path&quot;,{&quot;applyMatrix&quot;:true,&quot;segments&quot;:[[[425.87994,155.69536],[-0.63905,6.55218],[0.97861,-10.03363]],[[432.37249,126.97018],[-3.83131,9.3867],[3.99864,-5.41564]],[[445.26708,112.09196],[-5.15453,4.34924],[3.49207,-2.94651]],[[457.75117,106.67493],[-4.22696,1.69078],[11.90418,-4.76167]],[[493.79238,101.83686],[-12.90551,-4.23813],[6.90317,4.12055]],[[514.86421,112.84924],[-5.85487,-5.94273],[6.03262,6.12315]],[[526.63893,137.38103],[-2.35426,-8.05989],[1.94592,6.66194]],[[533.48339,156.91985],[-1.39402,-6.99012],[0.04647,10.6844]],[[535.88871,189.64055],[1.9079,-10.38479],[0,0]],[[535.67654,190.70143],[0,0],[1.50972,-0.057]],[[539.49058,190.00753],[-0.85548,0.49341],[2.73608,-1.57807]],[[546.46534,181.05664],[-1.86403,2.48192],[3.6494,-4.8591]],[[557.8827,166.08074],[-3.00626,5.30777],[2.34149,-4.13407]],[[561.90808,151.38955],[-0.94319,4.62687],[2.79664,-6.72042]],[[563.0082,127.7546],[-0.01266,7.2763],[0.00436,-2.50586]],[[561.4379,120.69224],[2.03417,1.87419],[-8.54691,-7.87473]],[[540.98198,96.82572],[0.16673,14.05698],[-1.7033,-8.29351]],[[537.39166,73.09193],[0.38875,8.1804],[-2.89574,-6.38412]],[[530.07134,53.30331],[1.42382,7.11909],[-3.45665,-8.94043]],[[528.12484,25.19306],[0.86698,9.36086],[-1.13706,-12.27691]],[[507.10381,-4.67292],[9.16104,6.90384],[-1.78868,-1.78868]],[[500.49797,-10.32302],[2.36727,1.1013],[-2.13539,-0.99342]],[[492.53881,-10.67398],[2.24522,0],[-7.63614,0]],[[470.65575,-8.93775],[7.36028,-1.99958],[-3.11913,0.84738]],[[460.63424,-5.11442],[2.13529,-3.03098],[-2.1618,3.06861]],[[454.91607,5.80754],[1.41189,-3.56207],[-3.27713,8.12887]],[[445.21035,30.038],[2.53443,-8.44071],[-2.50286,8.33558]],[[439.71567,55.69825],[2.39668,-8.18084],[-1.48961,5.08465]],[[434.8683,70.79192],[1.08146,-5.40728],[-3.14826,15.74129]],[[413.29615,110.46904],[5.76062,-14.38109],[-2.57214,6.42123]],[[410.43676,130.81582],[0,-6.88167],[0,7.04688]],[[412.01222,154.08111],[-3.03352,-6.61545],[3.28739,7.16908]],[[422.82544,175.02896],[-4.4249,-6.45189],[0.87441,-6.45671]]],&quot;closed&quot;:true}]}" fill="#c35e00"/><path d="M978.04818,443.89274c0.28854,0.32747 0.55355,0.69382 0.71389,1.46821c0,0 0.14507,0.86131 -0.46983,1.34436c-0.07847,0.06162 -0.14927,0.10138 -0.2131,0.12382c-0.07608,0.04342 -0.1284,0.05748 -0.1284,0.05748c-0.48244,0.12624 -0.98082,0.53908 -1.45637,0.59703c-0.58654,0.0715 -1.072,-0.37194 -1.65088,-0.35265c-3.09068,0.10288 -7.36762,2.66982 -10.39562,5.29969c-0.81963,0.46425 -1.90755,1.2928 -2.62442,2.07758c-0.21403,0.23432 -0.30705,0.69786 -0.52157,0.93077c-1.27838,1.38805 -2.7679,2.64489 -4.18047,3.88073l-0.40194,0.24617c0,0 -0.62922,0.35637 -0.68586,-0.56458c-0.01864,-0.30302 0.03699,-0.54491 0.11999,-0.73309c-0.13662,-0.29573 -0.05291,-0.75217 -0.05291,-0.75217l0.17443,-0.93964c0.44055,-1.81009 0.26699,-3.65535 0.49452,-5.48023c1.22118,-3.96535 3.01921,-5.98404 5.42598,-8.06484c0.87791,-0.75901 1.66833,-1.85706 2.5472,-2.66623c1.93773,-1.78405 4.14135,-2.68257 6.15727,-3.81804c1.21498,-0.43243 2.38996,-0.86793 3.59771,-1.26918c0.37593,-0.1249 0.83797,-0.59976 1.12718,-0.36172c0.04769,0.03926 0.11468,0.41443 0.18368,0.86002c0.01544,0.01396 0.02371,0.02336 0.02371,0.02336c0.6852,0.87079 0.51871,1.57844 0.82444,2.83002c0.38387,1.57157 1.1838,2.49845 1.32793,4.23201z" fill="#b35700"/><path d="M972.8494,426.09322c0.01469,0.01914 0.02238,0.03166 0.02238,0.03166l0.41874,0.72034c0.44134,1.34422 0.72165,2.68406 1.4215,3.7478c0.69014,1.04895 0.93455,0.96554 1.19112,2.70308c-0.21955,0.58322 -0.3354,1.27607 -0.65857,1.74966c-0.19131,0.28033 -1.32929,0.8098 -1.64336,1.02245c-0.94137,0.63739 -1.88167,1.27233 -2.82337,1.9066c-1.82056,1.22622 -3.49087,3.31999 -5.28746,4.53202c-1.46497,0.98829 -2.88995,1.47229 -4.27729,2.99102c-0.86085,0.93158 -1.31908,2.07762 -2.10335,3.10983c-0.32417,0.42662 -0.65743,1.1032 -1.02599,1.14883c-1.68629,0.20878 -0.70752,-2.91628 -0.88296,-4.35979c-0.26684,-2.19533 -0.68383,-5.36965 0.15317,-7.92406c0.60817,-1.85611 1.95118,-3.22379 3.00044,-4.36422c1.44355,-1.56898 2.89131,-2.93468 4.31371,-4.58202c0.41631,-0.48217 0.71594,-1.20752 1.12864,-1.69913c1.9149,-2.28112 5.06855,-2.46055 6.76631,-1.54995c0,0 0.36416,0.20534 0.28636,0.81592z" fill="#a24e00"/><path d="M971.74093,424.0564c-0.18923,0.48504 -0.55425,0.61379 -0.55425,0.61379c-1.80447,0.63656 -3.5188,1.54149 -5.31669,2.55984c-0.51612,0.29234 -1.26533,0.4946 -1.71765,1.16445c-0.74214,1.099 -1.19432,2.67582 -1.93043,3.8259c-0.776,1.21233 -1.91846,2.15744 -2.8725,2.67405c-0.17984,0.24962 -0.35969,0.49925 -0.53953,0.74888l-0.10577,0.03421l0.00914,0.0543l-0.69071,0.5426c-0.032,0.02596 -0.06505,0.04875 -0.09898,0.06798c-0.3475,0.19683 -0.65458,-0.05592 -0.68585,-0.56457c-0.01733,-0.28192 0.05367,-0.5832 0.17959,-0.82936l0.6229,-1.22911c0.6603,-2.11432 1.46662,-4.3761 2.46924,-5.9775c2.31613,-3.69935 6.49174,-6.3706 9.33161,-6.5929c0.70389,0.11437 1.27681,0.42529 1.93921,0.68002l0.40602,0.72276c0,0 0.2527,0.761 -0.3263,1.39035c-0.04134,0.04492 -0.08101,0.08277 -0.11905,0.11431z" fill="#7a3b00"/><path d="M955.90455,466.35384c0,0 0.05108,0.83051 -0.48262,1.21939c-0.80419,1.88311 -2.10025,3.44122 -3.10441,5.53802c-0.39126,0.817 -0.24424,1.58585 -0.19601,2.35461c0.14003,2.23222 -0.0365,5.39407 0.67697,7.12489c0.28517,1.30833 0.55251,3.04084 1.12165,4.03178c0.73073,1.27227 1.82025,2.18289 2.67742,3.24103c0.43782,0.54048 1.02823,1.75982 1.63189,1.91919c0.18874,0.04984 0.49533,-0.07823 0.81306,-0.24009l-0.06454,-0.30047c-0.59622,-2.96132 0.0787,-7.04505 -0.11327,-10.33052c0.1604,-2.31147 0.78431,-4.53495 1.06669,-6.81124c0.3416,-2.75395 0.85681,-6.33334 2.00648,-8.92972c1.11581,-2.51989 2.84163,-3.79889 4.21169,-5.88393c2.6268,-2.83421 5.06394,-2.84398 7.65062,-2.79639c0.91849,0.01689 1.93264,-0.30983 2.72068,0.17986c1.16325,0.72282 2.04449,1.84807 2.98541,3.03557c0.98082,2.42644 1.50942,5.08299 1.90409,8.04691c0.25774,1.93552 0.70035,3.69404 1.00567,5.57227c0.80628,-2.5063 1.31833,-5.12392 1.87247,-7.71525c0.51135,-2.39122 0.02424,-5.16599 -0.10878,-7.32927c-0.12995,-2.11257 -0.32316,-4.24081 -0.98388,-5.90648c-1.38864,-3.50076 -3.97202,-4.97458 -5.07616,-8.82729c-0.12886,-0.03667 -0.20997,-0.12879 -0.20997,-0.12879c-1.20719,-1.38925 -1.53508,-3.6272 -2.05856,-5.82021c-0.77144,-3.2317 -1.44296,-6.49509 -2.44479,-9.53705c-0.95375,-1.90819 -1.78195,-5.41233 -3.60655,-5.77176c-0.3138,0.08416 -0.62658,0.19989 -0.88896,0.24313c-0.28355,0.04672 -0.56254,0.11394 -0.83869,0.19805c-0.57679,0.32244 -1.15398,0.7367 -1.72822,1.00117c-1.11326,0.5127 -2.85512,0.94184 -3.81646,2.2596c-0.35716,1.00981 -0.80147,2.19352 -1.30957,3.07946c-0.32407,0.56507 -0.76141,0.99032 -1.12465,1.51382c-0.21586,0.44973 -0.42773,0.91242 -0.63153,1.38447c-0.16836,0.55338 -0.30905,1.12422 -0.56339,1.61156c-0.06057,0.11606 -0.13064,0.22516 -0.204,0.33157c-0.26864,0.75404 -0.50547,1.51911 -0.69583,2.28249c-0.00473,0.25046 -0.01504,0.50182 -0.05929,0.75624c-0.08146,0.46839 -0.21663,0.91775 -0.34078,1.36998c-0.0621,0.51326 -0.09592,1.02013 -0.09678,1.51646c-0.00511,2.97665 0.67866,5.70546 0.12246,8.86068c-0.1411,2.02293 -0.53791,3.99521 -0.95565,5.97169c-0.00716,0.3961 -0.0242,0.79688 -0.06044,1.20618c-0.04439,0.50138 -0.0886,1.00054 -0.13213,1.49791c-0.02262,1.94112 -0.16356,3.85933 -0.31848,5.98113c0.05724,1.07704 -0.0495,2.0093 -0.26751,2.85481l0.0147,0.14454zM958.66794,430.63455c0.13919,-0.3322 0.29525,-0.61156 0.46029,-0.86457c0.42381,-0.89077 0.8667,-1.73836 1.30829,-2.52323c0.42175,-0.94086 0.9828,-2.2501 1.57188,-2.98536c0.64216,-0.80151 1.46188,-1.10552 2.16652,-1.50462c1.53504,-0.86946 2.93498,-1.71931 4.43069,-2.08276c0.60979,-0.27197 1.20449,-0.44183 1.77915,-0.35546c0.59739,-0.08525 1.1649,-0.03598 1.63002,0.51048c0.59586,0.70004 1.20255,2.01342 1.60195,3.01386c0.84753,2.15922 1.83647,4.08507 2.54079,6.42317c0.68071,2.25975 0.96792,5.06667 1.64546,7.25407c0.43419,1.40175 0.99312,2.60336 1.33092,4.1761c0.78382,3.64955 2.87926,5.05222 4.39145,7.73553c1.23458,2.19072 1.71907,4.98704 1.91272,8.13595c0.09655,1.56989 0.30205,3.16965 0.29149,4.79127c-0.02632,4.04167 -1.37728,9.63212 -3.02121,13.65838c-0.01312,0.25473 -0.08813,0.76385 -0.46289,1.05138c-0.13788,0.23619 -0.45498,0.66273 -0.81664,0.36505c-0.48499,-0.39921 -0.08011,-1.30244 -0.08011,-1.30244c0.0198,-0.04407 0.03946,-0.08823 0.059,-0.13241c-0.23074,-2.60118 -0.89345,-4.83173 -1.23861,-7.35531c-0.37137,-2.7154 -0.83324,-5.15656 -1.70449,-7.41396c-0.8165,-0.98345 -1.8628,-2.86382 -3.06679,-2.91677c-2.61619,-0.1151 -5.96164,-0.57185 -8.61962,2.34953c-1.24695,1.91106 -2.84079,3.05367 -3.8705,5.30677c-1.0277,2.24868 -1.42052,5.57533 -1.73787,7.97292c-0.28721,2.16978 -0.88769,4.249 -1.04172,6.4418c0.19555,2.99716 -0.55431,7.17653 0.06158,9.79818l0.18622,0.86703c0,0 0.01026,0.04789 0.01758,0.12805c0.11005,0.1081 0.19338,0.31448 0.16634,0.70186c-0.06786,0.97298 -0.69597,1.14184 -0.69597,1.14184c-0.65955,0.17214 -1.50899,0.85931 -2.1284,0.72228c-0.80931,-0.179 -1.49854,-1.48789 -2.07673,-2.20415c-0.88974,-1.10226 -2.03592,-2.04694 -2.78021,-3.39261c-0.61803,-1.11735 -0.94696,-2.89165 -1.25409,-4.34747c-0.76184,-1.98936 -0.85258,-6.01018 -0.82174,-8.63713c0.01531,-1.30462 0.01193,-1.61119 0.54483,-2.84888c0.97973,-2.27551 2.63816,-3.81088 3.29039,-5.99665c0.24574,-6.53949 0.74257,-13.10937 1.58633,-19.79755c-0.14088,-2.05854 -0.2672,-4.09139 -0.17075,-6.22611c0.02954,-0.65362 0.17053,-1.26036 0.32428,-1.86243c0.0957,-0.73933 0.23748,-1.48735 0.41647,-2.23561c0.0186,-0.49145 0.01223,-0.98017 0.14279,-1.47037c0.16298,-0.61183 0.48948,-1.13185 0.8038,-1.65181c0.22785,-0.62781 0.47393,-1.24708 0.7326,-1.85241c0.05549,-0.20123 0.11645,-0.3991 0.19453,-0.58538z" fill="#000000"/></g><g data-paper-data="{&quot;index&quot;:null}" stroke="#000000" stroke-width="2"><path d="M966.87279,508.90939l10.36932,0.15302l18.48856,44.09411l-10.71539,3.76621l-18.14248,-48.01335z" fill="#4e73cc"/><path d="M992.24084,553.36481c4.88384,-0.89426 9.07039,2.65572 9.22401,3.42983c0.78462,3.95396 -0.30986,9.77679 -6.38262,10.88875c-6.07277,1.11197 -10.59034,-1.63573 -11.37496,-5.58969c-0.78462,-3.95396 2.4608,-7.61692 8.53356,-8.72888z" fill="#ffffff"/></g><g stroke="#000000" stroke-width="2"><path d="M993.72699,653.72034c-11.25501,3.91321 -21.38558,3.89177 -22.62723,-0.04788c-1.24166,-3.93964 6.87576,-10.30561 18.13078,-14.21881c11.25501,-3.91321 21.38558,-3.89177 22.62723,0.04788c1.24166,3.93963 -6.87576,10.30561 -18.13078,14.21881z" data-paper-data="{&quot;index&quot;:null}" fill="#7d4e23"/><path d="M980.49724,653.09189l-19.13898,-46.78399l11.61038,-6.91073l17.78904,49.38208z" data-paper-data="{&quot;index&quot;:null}" fill="#50a72f"/></g></g></g></svg>