<svg version="1.1" xmlns="http://www.w3.org/2000/svg" xmlns:xlink="http://www.w3.org/1999/xlink" width="35.5" height="48.92857" viewBox="0,0,35.5,48.92857"><g transform="translate(-222.25,-155.53571)"><g data-paper-data="{&quot;isPaintingLayer&quot;:true}" fill-rule="nonzero" stroke="#000000" stroke-width="1.5" stroke-linejoin="miter" stroke-miterlimit="10" stroke-dasharray="" stroke-dashoffset="0" style="mix-blend-mode: normal"><path d="M257,180c0,13.09704 -7.61116,23.71429 -17,23.71429c-9.38884,0 -17,-10.61725 -17,-23.71429c0,-13.09704 7.61116,-23.71429 17,-23.71429c9.38884,0 17,10.61725 17,23.71429z" fill="#ff9900" stroke-linecap="butt"/><path d="M246.21429,180c0,4.85222 -2.78223,8.78571 -6.21429,8.78571c-3.43206,0 -6.21429,-3.9335 -6.21429,-8.78571c0,-4.85222 2.78223,-8.78571 6.21429,-8.78571c3.43206,0 6.21429,3.9335 6.21429,8.78571z" fill="#001eff" stroke-linecap="butt"/><path d="M240.00415,176.84674l0.24194,6.53226" fill="none" stroke-linecap="round"/></g></g></svg>