<svg version="1.1" xmlns="http://www.w3.org/2000/svg" xmlns:xlink="http://www.w3.org/1999/xlink" width="4.64285" height="48.92858" viewBox="0,0,4.64285,48.92858"><g transform="translate(-237.67857,-155.53571)"><g data-paper-data="{&quot;isPaintingLayer&quot;:true}" fill-rule="nonzero" stroke="#000000" stroke-width="1.5" stroke-linejoin="miter" stroke-miterlimit="10" stroke-dasharray="" stroke-dashoffset="0" style="mix-blend-mode: normal"><path d="M241.57143,180c0,13.09704 -0.70355,23.71429 -1.57143,23.71429c-0.86788,0 -1.57143,-10.61725 -1.57143,-23.71429c0,-13.09704 0.70355,-23.71429 1.57143,-23.71429c0.86788,0 1.57143,10.61725 1.57143,23.71429z" fill="#ff9900" stroke-linecap="butt"/><path d="M240.57443,180c0,4.85222 -0.25718,8.78571 -0.57443,8.78571c-0.31725,0 -0.57443,-3.9335 -0.57443,-8.78571c0,-4.85222 0.25718,-8.78571 0.57443,-8.78571c0.31725,0 0.57443,3.9335 0.57443,8.78571z" fill="#001eff" stroke-linecap="butt"/><path d="M240.02275,183.379l-0.02237,-6.53226" fill="none" stroke-linecap="round"/></g></g></svg>