<svg version="1.1" xmlns="http://www.w3.org/2000/svg" xmlns:xlink="http://www.w3.org/1999/xlink" width="20.07143" height="48.92858" viewBox="0,0,20.07143,48.92858"><g transform="translate(-229.96428,-155.53571)"><g data-paper-data="{&quot;isPaintingLayer&quot;:true}" fill-rule="nonzero" stroke="#000000" stroke-width="1.5" stroke-linejoin="miter" stroke-miterlimit="10" stroke-dasharray="" stroke-dashoffset="0" style="mix-blend-mode: normal"><path d="M249.28572,180c0,13.09704 -4.15736,23.71429 -9.28572,23.71429c-5.12836,0 -9.28572,-10.61725 -9.28572,-23.71429c0,-13.09704 4.15736,-23.71429 9.28572,-23.71429c5.12836,0 9.28572,10.61725 9.28572,23.71429z" fill="#ff9900" stroke-linecap="butt"/><path d="M243.39436,180c0,4.85222 -1.51971,8.78571 -3.39436,8.78571c-1.87466,0 -3.39436,-3.9335 -3.39436,-8.78571c0,-4.85222 1.51971,-8.78571 3.39436,-8.78571c1.87466,0 3.39436,3.9335 3.39436,8.78571z" fill="#001eff" stroke-linecap="butt"/><path d="M240.00227,176.84674l0.13215,6.53226" fill="none" stroke-linecap="round"/></g></g></svg>