<svg version="1.1" xmlns="http://www.w3.org/2000/svg" xmlns:xlink="http://www.w3.org/1999/xlink" width="70.36414" height="233.27916" viewBox="0,0,70.36414,233.27916"><g transform="translate(-913.91144,-463.67198)"><g data-paper-data="{&quot;isPaintingLayer&quot;:true}" fill-rule="nonzero" stroke-linecap="butt" stroke-linejoin="miter" stroke-miterlimit="10" stroke-dasharray="" stroke-dashoffset="0" style="mix-blend-mode: normal"><g stroke="#000000" stroke-width="2"><path d="M961.08064,694.40808c-11.89655,-0.67863 -21.25207,-4.5649 -20.89612,-8.68022c0.35594,-4.11531 10.28854,-6.90128 22.1851,-6.22263c11.89655,0.67863 21.25207,4.5649 20.89612,8.68022c-0.35594,4.1153 -10.28854,6.90128 -22.1851,6.22263z" data-paper-data="{&quot;index&quot;:null}" fill="#7d4e23"/><path d="M949.65825,687.0798c0,0 -1.7843,-18.72638 -2.58293,-28.75564c-0.85154,-10.69346 -1.77986,-21.79152 -1.77986,-21.79152l13.36906,-1.95635c0,0 2.5762,21.55664 2.5516,22.10053c-0.61522,13.60104 1.83599,30.33282 1.83599,30.33282z" data-paper-data="{&quot;index&quot;:null}" fill="#50a72f"/></g><g stroke="#000000" stroke-width="2"><path d="M944.14413,695.95114c-11.89655,-0.67863 -21.25207,-4.5649 -20.89612,-8.68022c0.35594,-4.11531 10.28854,-6.90128 22.1851,-6.22263c11.89655,0.67863 21.25207,4.5649 20.89612,8.68022c-0.35594,4.1153 -10.28854,6.90128 -22.1851,6.22263z" data-paper-data="{&quot;index&quot;:null}" fill="#7d4e23"/><path d="M922.10548,685.21694c0,0 7.08738,1.67183 7.10607,0.62683c0.09152,-5.11722 -0.53709,-17.07395 -0.14778,-25.68056c0.00918,-0.20293 -7.14149,-25.2386 -7.14149,-25.2386l16.3586,0.51712c0,0 2.37375,22.78473 2.34895,23.33303c-0.47255,10.44684 4.45195,26.17683 4.45195,26.17683z" data-paper-data="{&quot;index&quot;:null}" fill="#50a72f"/></g><path d="M923.08295,635.13773c0,0 -1.11379,-4.5808 -1.20292,-5.08226c-0.35226,-1.98179 3.43372,-4.56049 3.43372,-4.56049l32.76841,0.95639c0,0 -0.88989,2.35278 -0.96821,3.77061c-0.09572,1.7328 3.26572,5.87215 3.26572,5.87215z" data-paper-data="{&quot;index&quot;:null}" fill="#50a72f" stroke="#000000" stroke-width="2"/><g data-paper-data="{&quot;index&quot;:null}" stroke="#000000" stroke-width="2"><path d="M945.24107,552.86675l9.47934,4.20574c0,0 -5.18017,20.92726 -6.50051,27.2166c-0.76917,3.6639 6.22348,20.59596 6.22348,20.59596l-13.59827,-0.73589c0,0 -6.20215,-16.18144 -4.94829,-22.15413c1.31404,-6.2593 9.34425,-29.12829 9.34425,-29.12829z" fill="#4e73cc"/><path d="M948.88709,603.14254c6.0226,1.35768 10.23349,5.65642 9.40529,9.60147c-0.8282,3.94506 -6.38189,6.04257 -12.40448,4.68489c-6.02261,-1.35767 -10.23349,-5.65641 -9.40529,-9.60147c0.8282,-3.94506 6.38187,-6.04256 12.40447,-4.68488z" fill="#ffffff"/></g><g data-paper-data="{&quot;index&quot;:null}" stroke="#000000" stroke-width="2"><path d="M924.91063,623.85631c0,0 -2.95799,-28.62039 -1.02962,-43.01376c1.94335,-14.50514 5.85268,-49.34475 5.85268,-49.34475l30.39757,6.73469c0,0 0.08511,6.78117 -0.0812,15.29757c-0.23887,12.23211 -0.99643,28.04393 -3.26984,32.48422c-5.3367,10.42333 1.97448,39.42221 1.97448,39.42221z" fill="#4e73cc"/><path d="M949.78117,622.65636c0,0 -2.33437,-27.85086 2.95931,-38.19018c4.51073,-8.81008 1.1785,-43.15343 1.1785,-43.15343l4.7886,2.76762c0,0 2.89323,33.06102 -1.58339,41.80446c-5.31051,10.37217 -1.22036,38.60409 -1.22036,38.60409z" fill="#ff9b2d"/></g><g data-paper-data="{&quot;index&quot;:null}" stroke="#000000" stroke-width="2"><path d="M947.63844,552.70733c0,0 0.2092,21.07101 -2.75408,26.32134c-2.50141,4.43199 -4.82961,16.48793 -3.00886,21.10313c0.60623,1.53666 6.70528,0.2353 6.70528,0.2353l-18.635,0.91863c0,0 1.46762,-21.43788 4.07947,-26.06555c3.04572,-5.3964 6.65088,-27.72402 6.65088,-27.72402z" fill="#4e73cc"/><path d="M940.4801,600.69449c5.84681,1.82083 8.93042,6.23131 6.88744,9.85106c-2.04299,3.61976 -8.43895,5.07807 -14.28575,3.25724c-5.84682,-1.82083 -8.93042,-6.23131 -6.88744,-9.85107c2.04299,-3.61976 8.43894,-5.07808 14.28575,-3.25724z" fill="#ffffff"/></g><path d="M954.76101,496.94061c8.59491,-2.9667 14.427,3.92296 13.02631,15.38847c-1.40068,11.46549 -9.50372,23.16509 -18.09863,26.1318c-8.59492,2.96669 -14.42702,-3.92294 -13.02632,-15.38845c1.40068,-11.46549 9.50372,-23.16511 18.09865,-26.13182z" data-paper-data="{&quot;index&quot;:null}" fill="#ffdcca" stroke="#000000" stroke-width="2"/><g data-paper-data="{&quot;index&quot;:null}" stroke="none" stroke-width="0.5"><path d="M967.2618,518.15926c0.04158,-1.90242 -0.09712,-3.74889 0.00163,-5.69897c0.15123,-2.98627 0.11089,-5.68829 -0.41202,-8.25268c-0.70913,-1.33889 -1.37254,-2.60246 -2.38481,-3.52488c-0.68579,-0.62493 -1.70624,-0.4723 -2.60631,-0.65605c-2.53485,-0.51747 -4.96571,-0.92948 -8.06438,1.37941c-1.72661,1.80093 -3.6216,2.6888 -5.17732,4.96357c-1.60294,2.34384 -2.76336,5.76667 -3.60038,8.41249c-0.69186,2.1869 -1.71135,4.25862 -2.2897,6.50234c-0.40907,3.26557 -1.81851,7.15697 -1.77112,10.17736l-0.01792,0.36897c-0.34188,0.10134 -0.66727,0.17123 -0.84379,0.08789c-0.56458,-0.26658 -0.92492,-1.57382 -1.25708,-2.18492c-0.65031,-1.19643 -1.55859,-2.29228 -2.04565,-3.67629c-0.37933,-1.07797 -0.32866,-2.83244 -0.371,-4.17083c-0.38658,-1.83178 0.36026,-4.9135 0.62875,-7.13394c0.09247,-0.76468 0.08739,-1.54917 0.62079,-2.28134c2.24117,-3.07633 4.98829,-4.59778 5.55055,-8.90244c0.69741,-2.66594 1.31221,-5.01403 1.7059,-7.54204c0.89791,-2.1768 1.82153,-4.34325 2.41148,-6.62864c1.12106,-3.00133 0.95113,-5.8168 1.49779,-8.74281c0.71698,-3.83752 3.56677,-7.94972 5.91164,-10.77794c0.47427,-0.68676 1.1372,-1.72308 1.71766,-2.24548c0.52361,-0.47124 1.31685,-0.55739 1.82845,-0.73397c1.73995,-0.60057 3.32385,-1.22396 4.92636,-1.19237c0.67912,0.01339 1.76964,-0.37846 2.14316,0.37894c0.37813,0.76682 0.70864,1.90845 0.89749,2.88488c0.44354,2.22397 1.04962,4.25833 1.31229,6.6359c0.2594,2.34798 0.05854,5.09798 0.29953,7.40708c0.14977,1.43518 0.49887,2.66742 0.5436,4.2332c0.13025,4.55815 2.65756,6.49781 3.4338,10.4352c0.34658,1.75809 0.14672,3.89279 -0.10994,5.99372c-0.26281,2.15137 -0.29223,4.97489 -1.23015,7.23315c-1.01642,2.44723 -2.00041,4.93377 -3.2493,7.25151z" data-paper-data="{&quot;noHover&quot;:false,&quot;origItem&quot;:[&quot;Path&quot;,{&quot;applyMatrix&quot;:true,&quot;segments&quot;:[[[425.87994,155.69536],[-0.63905,6.55218],[0.97861,-10.03363]],[[432.37249,126.97018],[-3.83131,9.3867],[3.99864,-5.41564]],[[445.26708,112.09196],[-5.15453,4.34924],[3.49207,-2.94651]],[[457.75117,106.67493],[-4.22696,1.69078],[11.90418,-4.76167]],[[493.79238,101.83686],[-12.90551,-4.23813],[6.90317,4.12055]],[[514.86421,112.84924],[-5.85487,-5.94273],[6.03262,6.12315]],[[526.63893,137.38103],[-2.35426,-8.05989],[1.94592,6.66194]],[[533.48339,156.91985],[-1.39402,-6.99012],[0.04647,10.6844]],[[535.88871,189.64055],[1.9079,-10.38479],[0,0]],[[535.67654,190.70143],[0,0],[1.50972,-0.057]],[[539.49058,190.00753],[-0.85548,0.49341],[2.73608,-1.57807]],[[546.46534,181.05664],[-1.86403,2.48192],[3.6494,-4.8591]],[[557.8827,166.08074],[-3.00626,5.30777],[2.34149,-4.13407]],[[561.90808,151.38955],[-0.94319,4.62687],[2.79664,-6.72042]],[[563.0082,127.7546],[-0.01266,7.2763],[0.00436,-2.50586]],[[561.4379,120.69224],[2.03417,1.87419],[-8.54691,-7.87473]],[[540.98198,96.82572],[0.16673,14.05698],[-1.7033,-8.29351]],[[537.39166,73.09193],[0.38875,8.1804],[-2.89574,-6.38412]],[[530.07134,53.30331],[1.42382,7.11909],[-3.45665,-8.94043]],[[528.12484,25.19306],[0.86698,9.36086],[-1.13706,-12.27691]],[[507.10381,-4.67292],[9.16104,6.90384],[-1.78868,-1.78868]],[[500.49797,-10.32302],[2.36727,1.1013],[-2.13539,-0.99342]],[[492.53881,-10.67398],[2.24522,0],[-7.63614,0]],[[470.65575,-8.93775],[7.36028,-1.99958],[-3.11913,0.84738]],[[460.63424,-5.11442],[2.13529,-3.03098],[-2.1618,3.06861]],[[454.91607,5.80754],[1.41189,-3.56207],[-3.27713,8.12887]],[[445.21035,30.038],[2.53443,-8.44071],[-2.50286,8.33558]],[[439.71567,55.69825],[2.39668,-8.18084],[-1.48961,5.08465]],[[434.8683,70.79192],[1.08146,-5.40728],[-3.14826,15.74129]],[[413.29615,110.46904],[5.76062,-14.38109],[-2.57214,6.42123]],[[410.43676,130.81582],[0,-6.88167],[0,7.04688]],[[412.01222,154.08111],[-3.03352,-6.61545],[3.28739,7.16908]],[[422.82544,175.02896],[-4.4249,-6.45189],[0.87441,-6.45671]]],&quot;closed&quot;:true}]}" fill="#c35e00"/><path d="M968.42218,488.36584c0.22413,0.37451 0.41806,0.78296 0.43481,1.5736c0,0 -0.01408,0.87332 -0.70661,1.23642c-0.08837,0.04632 -0.16523,0.07253 -0.23207,0.08298c-0.08271,0.02885 -0.13672,0.03316 -0.13672,0.03316c-0.49736,0.03635 -1.06254,0.3516 -1.54069,0.32205c-0.58975,-0.03643 -0.98643,-0.5608 -1.55915,-0.64717c-3.0578,-0.46124 -7.73043,1.28458 -11.18642,3.31955c-0.89043,0.30736 -2.11095,0.9241 -2.95866,1.56533c-0.2531,0.19146 -0.42891,0.63033 -0.68223,0.82032c-1.50962,1.13225 -3.20297,2.09707 -4.81684,3.05524l-0.44003,0.16892c0,0 -0.68356,0.23592 -0.57167,-0.67996c0.03681,-0.30135 0.13552,-0.52908 0.25138,-0.69901c-0.08053,-0.31565 0.08484,-0.74924 0.08484,-0.74924l0.3425,-0.89221c0.76257,-1.69971 0.92769,-3.54574 1.48349,-5.29875c1.92235,-3.67694 4.0577,-5.33474 6.80293,-6.94284c1.00137,-0.58659 1.9784,-1.52248 2.98984,-2.15821c2.23002,-1.40166 4.56035,-1.8842 6.74923,-2.63388c1.27339,-0.20412 2.508,-0.41854 3.7686,-0.59333c0.39238,-0.05441 0.93311,-0.43726 1.17418,-0.15057c0.03975,0.04728 0.03735,0.42838 0.02412,0.87909c0.01264,0.01654 0.01906,0.02728 0.01906,0.02728c0.5153,0.98094 0.22283,1.64648 0.29571,2.93279c0.09149,1.61518 0.7094,2.67215 0.53567,4.403z" fill="#b35700"/><path d="M966.54912,469.91748c0.01097,0.02149 0.01624,0.0352 0.01624,0.0352l0.28067,0.78452c0.18937,1.40209 0.22119,2.77056 0.71579,3.94389c0.48774,1.15702 0.74326,1.11948 0.67937,2.8747c-0.32201,0.53353 -0.56201,1.19374 -0.96596,1.60061c-0.23912,0.24084 -1.45445,0.55439 -1.80197,0.70634c-1.04163,0.45545 -2.08178,0.90869 -3.12318,1.36101c-2.01329,0.87446 -4.03672,2.62934 -6.02386,3.49421c-1.62034,0.70521 -3.10961,0.92184 -4.75014,2.16276c-1.01599,0.75938 -1.67512,1.8029 -2.63412,2.67517c-0.39639,0.36051 -0.8472,0.96515 -1.21791,0.94295c-1.69613,-0.10156 -0.16504,-2.99634 -0.07488,-4.44767c0.13709,-2.20724 0.30469,-5.40443 1.59253,-7.76389c0.93577,-1.71445 2.50522,-2.81492 3.74449,-3.74538c1.70496,-1.28011 3.37705,-2.35956 5.07546,-3.72057c0.4971,-0.39836 0.92371,-1.05708 1.41898,-1.46539c2.29802,-1.89459 5.43167,-1.49716 6.93539,-0.29283c0,0 0.32071,0.26818 0.13311,0.85441z" fill="#a24e00"/><path d="M965.82979,467.71296c-0.27433,0.44251 -0.65669,0.50269 -0.65669,0.50269c-1.89017,0.29758 -3.74055,0.87545 -5.69373,1.54964c-0.5607,0.19354 -1.33421,0.25609 -1.90087,0.83245c-0.92973,0.9456 -1.66129,2.41383 -2.59438,3.41075c-0.98365,1.05089 -2.27901,1.77232 -3.31113,2.1067c-0.22226,0.21272 -0.44453,0.42546 -0.66679,0.6382l-0.11023,0.01439l-0.00089,0.05506l-0.77791,0.40786c-0.03619,0.01971 -0.07284,0.0361 -0.1097,0.04883c-0.37752,0.13031 -0.63348,-0.1741 -0.57167,-0.67995c0.03426,-0.28036 0.1589,-0.5637 0.32751,-0.78283l0.83616,-1.09524c1.03401,-1.95887 2.23844,-4.03616 3.51572,-5.42838c2.95062,-3.21613 7.54259,-5.08296 10.3755,-4.78479c0.67133,0.24055 1.17811,0.65053 1.7831,1.02154l0.26772,0.78458c0,0 0.11001,0.79428 -0.57385,1.30776c-0.04883,0.03664 -0.09472,0.06665 -0.13786,0.09074z" fill="#7a3b00"/><path d="M942.56107,506.42253c0,0 -0.1009,0.82594 -0.69646,1.11121c-1.13343,1.70534 -2.69137,3.0016 -4.06031,4.88067c-0.5334,0.73217 -0.52874,1.51493 -0.6212,2.27963c-0.2685,2.22043 -1.01743,5.29738 -0.63083,7.12913c0.04234,1.33838 -0.01005,3.09061 0.36927,4.16857c0.48702,1.384 1.39265,2.47767 2.04296,3.67412c0.33216,0.61112 0.69084,1.91755 1.25541,2.1841c0.17652,0.08335 0.5013,0.01321 0.84318,-0.08813l-0.00879,-0.3072c-0.0474,-3.02037 1.35935,-6.91311 1.76843,-10.17866c0.57834,-2.24369 1.59643,-4.31652 2.2883,-6.50343c0.83703,-2.64581 1.99496,-6.07169 3.59789,-8.41552c1.55572,-2.27478 3.48546,-3.21839 5.21206,-5.01931c3.09868,-2.3089 5.4969,-1.87502 8.03174,-1.35754c0.90008,0.18374 1.95675,0.04702 2.64253,0.67193c1.0123,0.92242 1.67407,2.18924 2.3832,3.52813c0.52291,2.5644 0.55928,5.27279 0.40803,8.25905c-0.09877,1.95011 0.01647,3.75981 -0.02509,5.66224c1.24888,-2.31774 2.2287,-4.79849 3.24513,-7.24572c0.93793,-2.25825 0.96388,-5.07533 1.22672,-7.2267c0.25664,-2.10095 0.45392,-4.22881 0.10733,-5.9869c-0.72844,-3.695 -3.0005,-5.6143 -3.38514,-9.60361c-0.12003,-0.0595 -0.18303,-0.16485 -0.18303,-0.16485c-0.93424,-1.58573 -0.84942,-3.84598 -0.96511,-6.09763c-0.1705,-3.31812 -0.23698,-6.64922 -0.66855,-9.82269c-0.5906,-2.04989 -0.76734,-5.64623 -2.49607,-6.33167c-0.32387,0.02566 -0.65249,0.08253 -0.91836,0.0773c-0.28732,-0.00566 -0.57388,0.00968 -0.86073,0.04213c-0.62584,0.2121 -1.26877,0.51442 -1.88155,0.66998c-1.18797,0.30157 -2.97884,0.40658 -4.16392,1.5274c-0.53495,0.92796 -1.18724,2.01106 -1.84806,2.78975c-0.42149,0.49667 -0.92891,0.83524 -1.38134,1.2839c-0.29409,0.40294 -0.58662,0.81936 -0.87291,1.24644c-0.26625,0.5135 -0.50846,1.04921 -0.84723,1.48213c-0.08068,0.1031 -0.16943,0.19763 -0.26093,0.28892c-0.40136,0.69257 -0.77346,1.40177 -1.09955,2.11776c-0.05022,0.24542 -0.1061,0.49071 -0.1959,0.73282c-0.16533,0.44575 -0.38002,0.86301 -0.58439,1.2851c-0.15446,0.49339 -0.27995,0.98564 -0.37111,1.47353c-0.54668,2.92603 -0.37087,5.7337 -1.49193,8.73504c-0.50685,1.96348 -1.25593,3.83063 -2.02634,5.6981c-0.07911,0.38818 -0.1688,0.77917 -0.27892,1.17504c-0.13488,0.48493 -0.26919,0.96771 -0.4025,1.44886c-0.37547,1.9046 -0.8631,3.76513 -1.40153,5.82332c-0.1397,1.06948 -0.4143,1.96674 -0.78252,2.75847l-0.01185,0.1448zM951.77805,471.80244c0.19732,-0.30132 0.40161,-0.54763 0.60993,-0.76638c0.57883,-0.79878 1.16855,-1.55163 1.74559,-2.24304c0.58592,-0.84841 1.37584,-2.03369 2.08888,-2.64948c0.77729,-0.67128 1.63864,-0.82105 2.40414,-1.08527c1.66763,-0.57562 3.19884,-1.15654 4.73571,-1.24175c0.6491,-0.15647 1.26478,-0.21528 1.81413,-0.02578c0.60293,0.02488 1.152,0.1766 1.50991,0.79857c0.45853,0.79678 0.8161,2.19863 1.02679,3.25504c0.44047,2.27739 1.06246,4.35105 1.32956,6.77827c0.25815,2.34589 0.02979,5.15821 0.29799,7.43238c0.17187,1.45735 0.50282,2.74061 0.54879,4.34856c0.10663,3.73125 1.91185,5.4918 2.91052,8.40548c0.81533,2.3788 0.78289,5.2166 0.40031,8.34817c-0.19073,1.56125 -0.27976,3.17169 -0.58523,4.76431c-0.76133,3.96941 -3.10701,9.22069 -5.45614,12.88059c-0.05926,0.24809 -0.22566,0.73506 -0.64648,0.9496c-0.17856,0.20716 -0.56798,0.56887 -0.86943,0.21035c-0.40425,-0.48079 0.15823,-1.29527 0.15823,-1.29527c0.02749,-0.03973 0.05486,-0.07958 0.08211,-0.11947c0.24644,-2.59974 0.00069,-4.91364 0.1205,-7.4579c0.12894,-2.73765 0.11899,-5.22209 -0.32694,-7.60034c-0.62391,-1.1156 -1.31057,-3.15498 -2.48483,-3.42613c-2.55157,-0.58924 -5.75805,-1.64712 -8.90325,0.74182c-1.57388,1.65225 -3.34903,2.48576 -4.77154,4.51387c-1.41973,2.02413 -2.41133,5.22376 -3.15966,7.52357c-0.67725,2.08129 -1.64605,4.01654 -2.19653,6.1447c-0.3531,2.9827 -1.85094,6.95585 -1.72239,9.6458l0.02534,0.88644c0,0 0.00138,0.04896 -0.00601,0.12911c0.08854,0.12632 0.13292,0.34441 0.03584,0.72041c-0.24378,0.94438 -0.89213,0.99613 -0.89213,0.99613c-0.67987,0.04925 -1.64016,0.57038 -2.2243,0.32292c-0.76323,-0.32328 -1.20278,-1.73573 -1.64098,-2.54524c-0.67431,-1.24576 -1.62945,-2.38324 -2.11645,-3.84188c-0.40439,-1.21115 -0.40496,-3.01569 -0.44205,-4.50309c-0.38712,-2.09477 0.25531,-6.06498 0.76365,-8.64246c0.25245,-1.28005 0.30492,-1.58212 1.05414,-2.70217c1.37744,-2.05924 3.28757,-3.26719 4.32665,-5.29779c1.43161,-6.3856 3.11564,-12.75539 5.16234,-19.17836c0.23606,-2.0498 0.48176,-4.07171 0.96505,-6.15324c0.14798,-0.63733 0.39703,-1.20828 0.65777,-1.77232c0.22864,-0.70957 0.50416,-1.41931 0.81632,-2.12251c0.10772,-0.47986 0.19038,-0.96158 0.40796,-1.41984c0.27159,-0.57196 0.68726,-1.02388 1.09095,-1.47797c0.33829,-0.57587 0.69295,-1.14002 1.05745,-1.68818c0.09118,-0.18778 0.18713,-0.37124 0.2978,-0.54021z" fill="#000000"/></g></g></g></svg>