<svg version="1.1" xmlns="http://www.w3.org/2000/svg" xmlns:xlink="http://www.w3.org/1999/xlink" width="78.39548" height="215.52731" viewBox="0,0,78.39548,215.52731"><g transform="translate(-913.91145,-481.42383)"><g data-paper-data="{&quot;isPaintingLayer&quot;:true}" fill-rule="nonzero" stroke-linecap="butt" stroke-linejoin="miter" stroke-miterlimit="10" stroke-dasharray="" stroke-dashoffset="0" style="mix-blend-mode: normal"><g stroke="#000000" stroke-width="2"><path d="M961.08064,694.40808c-11.89655,-0.67863 -21.25207,-4.5649 -20.89612,-8.68022c0.35594,-4.11531 10.28854,-6.90128 22.1851,-6.22263c11.89655,0.67863 21.25207,4.5649 20.89612,8.68022c-0.35594,4.1153 -10.28854,6.90128 -22.1851,6.22263z" data-paper-data="{&quot;index&quot;:null}" fill="#7d4e23"/><path d="M949.65825,687.0798c0,0 2.744,-18.72638 1.94537,-28.75564c-0.85154,-10.69346 -6.30816,-21.79152 -6.30816,-21.79152l13.36906,-1.95635c0,0 5.97243,20.9906 5.94783,21.53449c-0.61522,13.60104 -1.56024,30.89886 -1.56024,30.89886z" data-paper-data="{&quot;index&quot;:null}" fill="#50a72f"/></g><g stroke="#000000" stroke-width="2"><path d="M944.14413,695.95114c-11.89655,-0.67863 -21.25207,-4.5649 -20.89612,-8.68022c0.35594,-4.11531 10.28854,-6.90128 22.1851,-6.22263c11.89655,0.67863 21.25207,4.5649 20.89612,8.68022c-0.35594,4.1153 -10.28854,6.90128 -22.1851,6.22263z" data-paper-data="{&quot;index&quot;:null}" fill="#7d4e23"/><path d="M922.10548,685.21694c0,0 7.08738,1.67183 7.10607,0.62683c0.09152,-5.11722 2.85914,-17.07395 3.24845,-25.68056c0.04633,-1.02418 -10.53772,-25.2386 -10.53772,-25.2386l16.3586,0.51712c0,0 4.6379,22.78473 4.6131,23.33303c-0.47255,10.44684 2.1878,26.17683 2.1878,26.17683z" data-paper-data="{&quot;index&quot;:null}" fill="#50a72f"/></g><path d="M923.08295,635.13773c0,0 -1.11379,-4.5808 -1.20292,-5.08226c-0.35226,-1.98179 3.43372,-4.56049 3.43372,-4.56049l32.76841,0.95639c0,0 -0.88989,2.35278 -0.96821,3.77061c-0.09572,1.7328 3.26572,5.87215 3.26572,5.87215z" data-paper-data="{&quot;index&quot;:null}" fill="#50a72f" stroke="#000000" stroke-width="2"/><g data-paper-data="{&quot;index&quot;:null}" stroke="#000000" stroke-width="2"><path d="M945.24107,552.86675l9.47934,4.20574c0,0 -5.18017,20.92726 -6.50051,27.2166c-0.76917,3.6639 6.22348,20.59596 6.22348,20.59596l-13.59827,-0.73589c0,0 -6.20215,-16.18144 -4.94829,-22.15413c1.31404,-6.2593 9.34425,-29.12829 9.34425,-29.12829z" fill="#4e73cc"/><path d="M948.88709,603.14254c6.0226,1.35768 10.23349,5.65642 9.40529,9.60147c-0.8282,3.94506 -6.38189,6.04257 -12.40448,4.68489c-6.02261,-1.35767 -10.23349,-5.65641 -9.40529,-9.60147c0.8282,-3.94506 6.38187,-6.04256 12.40447,-4.68488z" fill="#ffffff"/></g><g data-paper-data="{&quot;index&quot;:null}" stroke="#000000" stroke-width="2"><path d="M924.91063,623.85631c0,0 -2.95799,-28.62039 -1.02962,-43.01376c1.94335,-14.50514 12.64513,-43.68437 12.64513,-43.68437l28.69946,12.96111c0,0 -4.58914,28.36322 -8.44538,35.89499c-5.3367,10.42333 1.97448,39.42221 1.97448,39.42221z" fill="#4e73cc"/><path d="M949.78117,623.2224c0,0 -2.33437,-27.85086 2.95931,-38.19018c4.51073,-8.81008 6.27284,-35.2289 6.27284,-35.2289l4.7886,3.8997c0,0 -2.20111,24.00442 -6.67773,32.74786c-5.31051,10.37217 -1.22036,38.60409 -1.22036,38.60409z" fill="#ff9b2d"/></g><g data-paper-data="{&quot;index&quot;:null}" stroke="#000000" stroke-width="2"><path d="M952.16674,556.10356c0,0 -4.3191,18.24082 -7.28238,23.49115c-2.50141,4.43199 -4.82961,16.48793 -3.00886,21.10313c0.60623,1.53666 6.70528,0.2353 6.70528,0.2353l-18.635,0.91863c0,0 1.46762,-21.43788 4.07947,-26.06555c3.04572,-5.3964 10.61314,-24.89383 10.61314,-24.89383z" fill="#4e73cc"/><path d="M940.4801,600.69449c5.84681,1.82083 8.93042,6.23131 6.88744,9.85106c-2.04299,3.61976 -8.43895,5.07807 -14.28575,3.25724c-5.84682,-1.82083 -8.93042,-6.23131 -6.88744,-9.85107c2.04299,-3.61976 8.43894,-5.07808 14.28575,-3.25724z" fill="#ffffff"/></g><path d="M971.92085,511.20365c9.07663,-0.53717 12.83307,7.67074 8.39022,18.33287c-4.44284,10.66211 -15.40254,19.74092 -24.47918,20.2781c-9.07664,0.53716 -12.83309,-7.67073 -8.39023,-18.33285c4.44284,-10.66211 15.40255,-19.74093 24.4792,-20.27811z" data-paper-data="{&quot;index&quot;:null}" fill="#ffdcca" stroke="#000000" stroke-width="2"/><g data-paper-data="{&quot;index&quot;:null}" stroke="none" stroke-width="0.5"><path d="M978.23169,535.00857c0.55343,-1.82062 0.91817,-3.63601 1.53952,-5.48709c0.95151,-2.83466 1.64184,-5.44732 1.83037,-8.05768c-0.3215,-1.48058 -0.61931,-2.8763 -1.34509,-4.03768c-0.4917,-0.78681 -1.51548,-0.91523 -2.33257,-1.33506c-2.30116,-1.18234 -4.53064,-2.23506 -8.13743,-0.84805c-2.14856,1.26816 -4.21284,1.6117 -6.32472,3.38224c-2.17599,1.8243 -4.21705,4.80699 -5.73703,7.12876c-1.25636,1.91905 -2.79711,3.63879 -3.9595,5.64318c-1.27515,3.03402 -3.68245,6.40068 -4.45191,9.3218l-0.11683,0.35044c-0.35654,0.00532 -0.68872,-0.01519 -0.8362,-0.14308c-0.47169,-0.40905 -0.46589,-1.76503 -0.62081,-2.4431c-0.30331,-1.32754 -0.88216,-2.62784 -0.97765,-4.09194c-0.07435,-1.14034 0.44791,-2.81604 0.76832,-4.11621c0.12209,-1.86814 1.67287,-4.63398 2.53062,-6.69958c0.2954,-0.71135 0.50221,-1.46811 1.21341,-2.02917c2.98821,-2.35738 6.04399,-3.08104 7.74706,-7.07425c1.39098,-2.37882 2.61663,-4.47388 3.67793,-6.80186c1.45204,-1.85372 2.92603,-3.69054 4.11084,-5.73194c1.88942,-2.58744 2.48559,-5.34431 3.80159,-8.01424c1.72599,-3.50165 5.57978,-6.69223 8.60089,-8.78272c0.64201,-0.53329 1.56,-1.35226 2.25991,-1.69863c0.63135,-0.31245 1.41841,-0.18134 1.95868,-0.21331c1.83747,-0.10874 3.53083,-0.28156 5.06536,0.18132c0.65031,0.19616 1.80612,0.11314 1.96138,0.94324c0.15716,0.84041 0.16733,2.02888 0.08567,3.02005c-0.17308,2.26115 -0.13849,4.38359 -0.52719,6.74384c-0.38386,2.33087 -1.31939,4.92464 -1.71049,7.2131c-0.24309,1.42235 -0.23948,2.70308 -0.61896,4.22284c-1.10466,4.42419 0.80544,6.97391 0.49031,10.9747c-0.14072,1.78639 -0.90925,3.78796 -1.72335,5.74168c-0.83364,2.00063 -1.62393,4.71145 -3.13648,6.63281c-1.63913,2.08214 -3.25764,4.21088 -5.08567,6.1056z" data-paper-data="{&quot;noHover&quot;:false,&quot;origItem&quot;:[&quot;Path&quot;,{&quot;applyMatrix&quot;:true,&quot;segments&quot;:[[[425.87994,155.69536],[-0.63905,6.55218],[0.97861,-10.03363]],[[432.37249,126.97018],[-3.83131,9.3867],[3.99864,-5.41564]],[[445.26708,112.09196],[-5.15453,4.34924],[3.49207,-2.94651]],[[457.75117,106.67493],[-4.22696,1.69078],[11.90418,-4.76167]],[[493.79238,101.83686],[-12.90551,-4.23813],[6.90317,4.12055]],[[514.86421,112.84924],[-5.85487,-5.94273],[6.03262,6.12315]],[[526.63893,137.38103],[-2.35426,-8.05989],[1.94592,6.66194]],[[533.48339,156.91985],[-1.39402,-6.99012],[0.04647,10.6844]],[[535.88871,189.64055],[1.9079,-10.38479],[0,0]],[[535.67654,190.70143],[0,0],[1.50972,-0.057]],[[539.49058,190.00753],[-0.85548,0.49341],[2.73608,-1.57807]],[[546.46534,181.05664],[-1.86403,2.48192],[3.6494,-4.8591]],[[557.8827,166.08074],[-3.00626,5.30777],[2.34149,-4.13407]],[[561.90808,151.38955],[-0.94319,4.62687],[2.79664,-6.72042]],[[563.0082,127.7546],[-0.01266,7.2763],[0.00436,-2.50586]],[[561.4379,120.69224],[2.03417,1.87419],[-8.54691,-7.87473]],[[540.98198,96.82572],[0.16673,14.05698],[-1.7033,-8.29351]],[[537.39166,73.09193],[0.38875,8.1804],[-2.89574,-6.38412]],[[530.07134,53.30331],[1.42382,7.11909],[-3.45665,-8.94043]],[[528.12484,25.19306],[0.86698,9.36086],[-1.13706,-12.27691]],[[507.10381,-4.67292],[9.16104,6.90384],[-1.78868,-1.78868]],[[500.49797,-10.32302],[2.36727,1.1013],[-2.13539,-0.99342]],[[492.53881,-10.67398],[2.24522,0],[-7.63614,0]],[[470.65575,-8.93775],[7.36028,-1.99958],[-3.11913,0.84738]],[[460.63424,-5.11442],[2.13529,-3.03098],[-2.1618,3.06861]],[[454.91607,5.80754],[1.41189,-3.56207],[-3.27713,8.12887]],[[445.21035,30.038],[2.53443,-8.44071],[-2.50286,8.33558]],[[439.71567,55.69825],[2.39668,-8.18084],[-1.48961,5.08465]],[[434.8683,70.79192],[1.08146,-5.40728],[-3.14826,15.74129]],[[413.29615,110.46904],[5.76062,-14.38109],[-2.57214,6.42123]],[[410.43676,130.81582],[0,-6.88167],[0,7.04688]],[[412.01222,154.08111],[-3.03352,-6.61545],[3.28739,7.16908]],[[422.82544,175.02896],[-4.4249,-6.45189],[0.87441,-6.45671]]],&quot;closed&quot;:true}]}" fill="#c35e00"/><path d="M987.38919,506.63367c0.11475,0.4211 0.19126,0.86673 -0.00598,1.63256c0,0 -0.24924,0.83712 -1.01406,0.99986c-0.09759,0.02075 -0.17867,0.02525 -0.24585,0.01728c-0.08743,0.00546 -0.1406,-0.00497 -0.1406,-0.00497c-0.48872,-0.09922 -1.118,0.05181 -1.57044,-0.10568c-0.55804,-0.19423 -0.79849,-0.8062 -1.32665,-1.04392c-2.81988,-1.26932 -7.79028,-0.84925 -11.66721,0.17758c-0.94034,0.05566 -2.28201,0.32015 -3.27132,0.70882c-0.29538,0.11605 -0.5831,0.4912 -0.87829,0.60578c-1.75916,0.68285 -3.65006,1.1549 -5.46263,1.64199l-0.46929,0.0439c0,0 -0.72187,0.0427 -0.36696,-0.809c0.11677,-0.28023 0.27327,-0.47288 0.43069,-0.60524c0.00764,-0.32567 0.28389,-0.69855 0.28389,-0.69855l0.57057,-0.76668c1.19297,-1.43086 1.85014,-3.16384 2.85839,-4.70182c2.8433,-3.02175 5.34681,-4.04178 8.42415,-4.84938c1.12252,-0.29459 2.31586,-0.93209 3.46134,-1.27129c2.52554,-0.74785 4.89963,-0.58362 7.20961,-0.71478c1.28123,0.1471 2.5279,0.27381 3.7889,0.44569c0.3925,0.0535 1.01649,-0.16922 1.17125,0.17189c0.02552,0.05625 -0.07964,0.42257 -0.21401,0.85298c0.00771,0.01934 0.01099,0.03141 0.01099,0.03141c0.23146,1.08361 -0.22976,1.64553 -0.50672,2.90378c-0.34778,1.57995 -0.03804,2.76445 -0.67242,4.3842z" fill="#b35700"/><path d="M990.56418,488.36431c0.00476,0.02365 0.00614,0.03828 0.00614,0.03828l0.05854,0.83116c-0.19603,1.40117 -0.53469,2.72746 -0.37508,3.99073c0.15741,1.24572 0.41358,1.27853 -0.12161,2.95138c-0.45404,0.42684 -0.86331,0.99778 -1.36207,1.28055c-0.29524,0.16738 -1.5501,0.14132 -1.92573,0.19385c-1.12589,0.15745 -2.24977,0.31318 -3.37459,0.46768c-2.17458,0.2987 -4.59652,1.44242 -6.74333,1.73895c-1.75053,0.24177 -3.24301,0.04847 -5.15755,0.80063c-1.18323,0.45703 -2.09951,1.28395 -3.25832,1.86506c-0.47897,0.24016 -1.07623,0.70071 -1.42719,0.5793c-1.60579,-0.55552 0.64969,-2.92971 1.12816,-4.30286c0.72766,-2.08835 1.75185,-5.12169 3.62864,-7.04607c1.36372,-1.39831 3.17192,-2.03441 4.61631,-2.59592c1.98716,-0.77251 3.88852,-1.36067 5.8912,-2.21285c0.58616,-0.24943 1.17471,-0.76858 1.76179,-1.02809c2.72404,-1.20415 5.63418,0.0242 6.7571,1.58965c0,0 0.23644,0.34478 -0.1024,0.85863z" fill="#a24e00"/><path d="M990.46646,486.04746c-0.38357,0.35206 -0.76798,0.30682 -0.76798,0.30682c-1.90035,-0.22355 -3.83802,-0.16647 -5.90067,-0.04439c-0.59213,0.03505 -1.35382,-0.11347 -2.05499,0.28859c-1.15042,0.65962 -2.25106,1.87595 -3.41856,2.58408c-1.23075,0.74645 -2.67274,1.09154 -3.7568,1.13498c-0.27142,0.14485 -0.54285,0.28971 -0.81428,0.43458l-0.11002,-0.01589l-0.01572,0.05278l-0.85912,0.1828c-0.04017,0.00921 -0.07988,0.0151 -0.11881,0.01741c-0.39868,0.0236 -0.56299,-0.33859 -0.36697,-0.809c0.10865,-0.26071 0.30513,-0.4999 0.52662,-0.6654l1.1007,-0.82896c1.52428,-1.60715 3.24461,-3.28234 4.85021,-4.27821c3.70907,-2.30054 8.63446,-2.8589 11.28179,-1.80729c0.58151,0.41279 0.95885,0.94432 1.44127,1.46483l0.04606,0.82772c0,0 -0.10842,0.7945 -0.90548,1.10438c-0.05691,0.0221 -0.10919,0.03862 -0.15723,0.05017z" fill="#7a3b00"/><path d="M957.61472,517.04145c0,0 -0.32005,0.76807 -0.97049,0.88203c-1.55159,1.3362 -3.40154,2.16393 -5.22678,3.60386c-0.7112,0.56106 -0.91795,1.31604 -1.21334,2.02741c-0.85775,2.06559 -2.40925,4.82627 -2.53132,6.69439c-0.32041,1.30015 -0.84372,2.97323 -0.76938,4.11356c0.09546,1.46408 0.67235,2.76157 0.97565,4.08913c0.15492,0.67809 0.14773,2.03284 0.61942,2.44186c0.14748,0.12789 0.47914,0.148 0.83568,0.14268l0.07444,-0.29817c0.76945,-2.9211 3.17452,-6.28978 4.44967,-9.32378c1.16237,-2.00437 2.70207,-3.72555 3.95844,-5.64461c1.51998,-2.32176 3.55947,-5.30805 5.73545,-7.13235c2.11188,-1.77055 4.22467,-2.15838 6.37322,-3.42654c3.6068,-1.38701 5.79896,-0.32204 8.1001,0.8603c0.8171,0.41982 1.87146,0.57333 2.36316,1.36012c0.72581,1.16138 1.02116,2.55979 1.34266,4.04037c-0.18853,2.61037 -0.88441,5.22809 -1.83593,8.06274c-0.62137,1.8511 -0.99878,3.62476 -1.55219,5.44539c1.82802,-1.89472 3.44095,-4.01901 5.08009,-6.10115c1.51255,-1.92135 2.29777,-4.62691 3.13143,-6.62753c0.81409,-1.95374 1.57828,-3.94942 1.719,-5.73581c0.29573,-3.75449 -1.37408,-6.21573 -0.66788,-10.16083c-0.09952,-0.08968 -0.13175,-0.20813 -0.13175,-0.20813c-0.47165,-1.77902 0.21999,-3.93251 0.71623,-6.13185c0.73127,-3.24102 1.5662,-6.46648 2.00705,-9.63867c-0.0155,-2.13322 0.78484,-5.64382 -0.69477,-6.77035c-0.31878,-0.06269 -0.65055,-0.09661 -0.90515,-0.1734c-0.27513,-0.08299 -0.5552,-0.14555 -0.84017,-0.19171c-0.65986,0.03534 -1.36052,0.15294 -1.99254,0.13736c-1.22528,-0.03021 -2.97804,-0.41239 -4.42162,0.34704c-0.76553,0.74917 -1.6859,1.61605 -2.53235,2.18752c-0.53989,0.3645 -1.11985,0.55357 -1.67657,0.86349c-0.39192,0.30863 -0.78597,0.63065 -1.17689,0.96463c-0.39495,0.4226 -0.77274,0.87307 -1.21577,1.1985c-0.10551,0.0775 -0.21648,0.14457 -0.32922,0.20778c-0.57337,0.55856 -1.12305,1.14103 -1.63026,1.74246c-0.11459,0.22276 -0.23459,0.44387 -0.38639,0.65277c-0.27949,0.38459 -0.59882,0.72844 -0.90951,1.07972c-0.28188,0.4334 -0.53555,0.87352 -0.75499,1.31871c-1.31603,2.66994 -1.90443,5.42089 -3.79385,8.00834c-1.01792,1.75385 -2.24308,3.34958 -3.48887,4.93986c-0.18093,0.35243 -0.37281,0.70471 -0.58567,1.05617c-0.26074,0.43054 -0.52035,0.85916 -0.77856,1.28649c-0.87552,1.73261 -1.84715,3.39252 -2.92104,5.22904c-0.42313,0.9921 -0.92968,1.78197 -1.4979,2.44495l-0.05049,0.13623zM975.83245,486.19315c0.27131,-0.23689 0.53449,-0.41893 0.79412,-0.57335c0.77292,-0.61294 1.54392,-1.17871 2.28614,-1.68875c0.79314,-0.65881 1.87362,-1.58695 2.72638,-1.98747c0.92961,-0.43661 1.79942,-0.34838 2.60782,-0.39621c1.7611,-0.10423 3.39227,-0.25038 4.89511,0.08232c0.66724,0.0245 1.27595,0.13403 1.75378,0.46475c0.57385,0.18667 1.0616,0.48093 1.23839,1.17641c0.2265,0.89096 0.19249,2.33729 0.11027,3.41137c-0.19046,2.31176 -0.15115,4.47634 -0.54898,6.88559c-0.3845,2.32852 -1.36333,4.97487 -1.7188,7.23704c-0.22779,1.44966 -0.25543,2.77462 -0.64509,4.33532c-0.90426,3.62159 0.35888,5.80399 0.5342,8.87907c0.14313,2.51057 -0.65393,5.23433 -1.86741,8.14647c-0.60498,1.45185 -1.12531,2.97852 -1.84923,4.42961c-1.80428,3.61668 -5.48007,8.04012 -8.72972,10.93028c-0.12401,0.22289 -0.41565,0.64689 -0.87876,0.73991c-0.22784,0.15129 -0.70043,0.39449 -0.89394,-0.03208c-0.2595,-0.57204 0.50191,-1.20451 0.50191,-1.20451c0.03719,-0.03084 0.0743,-0.06182 0.1113,-0.09288c0.93887,-2.43678 1.32668,-4.73115 2.12865,-7.14868c0.86295,-2.60128 1.52383,-4.99623 1.73625,-7.40658c-0.2997,-1.24258 -0.41053,-3.3916 -1.46805,-3.96958c-2.29789,-1.25596 -5.09992,-3.1399 -8.77312,-1.68837c-1.96137,1.16622 -3.89559,1.48975 -5.81264,3.05873c-1.9133,1.5659 -3.73157,4.37922 -5.07277,6.39176c-1.21379,1.8213 -2.6689,3.42331 -3.77327,5.32396c-1.14492,2.77675 -3.6594,6.19828 -4.26154,8.82312l-0.21482,0.86039c0,0 -0.01188,0.04752 -0.04063,0.1227c0.05117,0.14553 0.03504,0.3675 -0.1599,0.70335c-0.48959,0.84355 -1.12785,0.71842 -1.12785,0.71842c-0.66794,-0.13605 -1.73323,0.1066 -2.22892,-0.28932c-0.64767,-0.51725 -0.68974,-1.99592 -0.89323,-2.89365c-0.31311,-1.38151 -0.92584,-2.73455 -1.00114,-4.27049c-0.06254,-1.27534 0.42389,-3.01309 0.78957,-4.45531c0.19255,-2.12152 1.88256,-5.77106 3.06761,-8.11573c0.58852,-1.16443 0.72056,-1.44113 1.74425,-2.31744c1.88205,-1.61112 4.04729,-2.25878 5.59581,-3.93363c3.10174,-5.76234 6.44227,-11.44134 10.14636,-17.07368c0.78047,-1.91004 1.56269,-3.79063 2.58978,-5.66451c0.31448,-0.57375 0.70837,-1.05631 1.11165,-1.52906c0.41164,-0.62154 0.86848,-1.2306 1.35882,-1.82347c0.23322,-0.43299 0.44281,-0.87453 0.77599,-1.25707c0.41587,-0.47745 0.93807,-0.80043 1.44933,-1.12873c0.48115,-0.46321 0.97489,-0.91072 1.4738,-1.34018c0.13847,-0.15621 0.28037,-0.30697 0.43253,-0.4398z" fill="#000000"/></g></g></g></svg>