<svg version="1.1" xmlns="http://www.w3.org/2000/svg" xmlns:xlink="http://www.w3.org/1999/xlink" width="99.1011" height="190.19209" viewBox="0,0,99.1011,190.19209"><g transform="translate(-919.82615,-506.7778)"><g data-paper-data="{&quot;isPaintingLayer&quot;:true}" fill-rule="nonzero" stroke-linecap="butt" stroke-linejoin="miter" stroke-miterlimit="10" stroke-dasharray="" stroke-dashoffset="0" style="mix-blend-mode: normal"><g stroke="#000000" stroke-width="2"><path d="M961.08064,694.71098c-11.89655,-0.55366 -21.25207,-3.72429 -20.89612,-7.08178c0.35594,-3.35749 10.28854,-5.63043 22.1851,-5.07675c11.89655,0.55366 21.25207,3.72429 20.89612,7.08178c-0.35594,3.35748 -10.28854,5.63043 -22.1851,5.07675z" data-paper-data="{&quot;index&quot;:null}" fill="#7d4e23"/><path d="M949.65825,688.73218c0,0 8.97042,-15.73977 8.17179,-23.92217c-0.85154,-8.72429 -12.53458,-17.31687 -12.53458,-17.31687l13.36906,-1.59609c0,0 11.63281,17.12524 11.60821,17.56897c-0.61522,11.09645 -7.22062,25.20892 -7.22062,25.20892z" data-paper-data="{&quot;index&quot;:null}" fill="#50a72f"/></g><g stroke="#000000" stroke-width="2"><path d="M944.14413,695.96989c-11.89655,-0.55366 -21.25207,-3.72429 -20.89612,-7.08178c0.35594,-3.35749 10.28854,-5.63043 22.1851,-5.07675c11.89655,0.55366 21.25207,3.72429 20.89612,7.08178c-0.35594,3.35748 -10.28854,5.63043 -22.1851,5.07675z" data-paper-data="{&quot;index&quot;:null}" fill="#7d4e23"/><path d="M922.10548,687.21236c0,0 7.08738,1.36397 7.10607,0.5114c0.09152,-4.1749 7.38744,-14.39163 7.77675,-21.41336c0.04633,-0.83558 -15.06602,-20.12918 -15.06602,-20.12918l16.3586,0.42189c0,0 9.73224,17.66538 9.70744,18.11271c-0.47255,8.52308 -2.90654,22.28005 -2.90654,22.28005z" data-paper-data="{&quot;index&quot;:null}" fill="#50a72f"/></g><path d="M924.78107,645.32641c0,0 1.92032,-2.26742 1.99638,-3.6444c0.0195,-0.35297 -4.80828,-0.9364 -4.89741,-1.43786c-0.35226,-1.98179 3.43372,-4.56049 3.43372,-4.56049l35.5986,0.95639c0,0 -3.72008,2.35278 -3.7984,3.77061c-0.09572,1.7328 3.26572,5.87215 3.26572,5.87215z" data-paper-data="{&quot;index&quot;:null}" fill="#50a72f" stroke="#000000" stroke-width="2"/><g data-paper-data="{&quot;index&quot;:null}" stroke="#000000" stroke-width="2"><path d="M961.65617,570.41392l10.61142,2.50763c0,0 -10.84055,16.965 -12.16089,23.25434c-0.76917,3.6639 3.39329,18.89785 3.39329,18.89785l-14.73035,-0.73589c0,0 -3.37196,-16.18144 -2.1181,-22.15413c1.31404,-6.2593 22.36312,-16.1094 22.36312,-16.1094z" fill="#4e73cc"/><path d="M957.9437,613.33122c6.0226,1.35768 10.23349,5.65642 9.40529,9.60147c-0.8282,3.94506 -6.38189,6.04257 -12.40448,4.68489c-6.02261,-1.35767 -10.23349,-5.65641 -9.40529,-9.60147c0.8282,-3.94506 6.38187,-6.04256 12.40447,-4.68488z" fill="#ffffff"/></g><g data-paper-data="{&quot;index&quot;:null}" stroke="#000000" stroke-width="2"><path d="M924.91063,634.04499c0,0 -3.87069,-36.83541 1.35076,-47.03364c4.75826,-9.29356 19.32136,-34.00411 19.32136,-34.00411l31.52965,14.09319c0,0 -13.64574,21.57077 -17.50198,29.10254c-5.3367,10.42333 -0.85571,39.42221 -0.85571,39.42221z" fill="#4e73cc"/><path d="M949.78117,633.41108c0,0 -2.33437,-27.85086 2.95931,-38.19018c4.51073,-8.81008 11.93322,-31.26664 11.93322,-31.26664l9.88294,3.8997c0,0 -12.95583,20.04216 -17.43245,28.7856c-5.31051,10.37217 -1.22036,38.60409 -1.22036,38.60409z" fill="#ff9b2d"/></g><g data-paper-data="{&quot;index&quot;:null}" stroke="#000000" stroke-width="2"><path d="M958.9592,569.68847c0,0 -11.11155,14.84459 -14.07483,20.09492c-2.50141,4.43199 -4.82961,16.48793 -3.00886,21.10313c0.60623,1.53666 6.70528,0.2353 6.70528,0.2353l-18.635,0.91863c0,0 1.46762,-21.43788 4.07947,-26.06555c3.04572,-5.3964 16.83956,-22.06364 16.83956,-22.06364z" fill="#4e73cc"/><path d="M940.4801,610.88317c5.84681,1.82083 8.93042,6.23131 6.88744,9.85106c-2.04299,3.61976 -8.43895,5.07807 -14.28575,3.25724c-5.84682,-1.82083 -8.93042,-6.23131 -6.88744,-9.85107c2.04299,-3.61976 8.43894,-5.07808 14.28575,-3.25724z" fill="#ffffff"/></g><path d="M991.30164,531.84147c8.8239,2.19376 9.962,11.14839 2.542,20.0007c-7.41998,8.8523 -20.58826,14.25012 -29.41217,12.05637c-8.82391,-2.19377 -9.96202,-11.14838 -2.54201,-20.00069c7.41998,-8.8523 20.58827,-14.25012 29.41219,-12.05637z" data-paper-data="{&quot;index&quot;:null}" fill="#ffdcca" stroke="#000000" stroke-width="2"/><g data-paper-data="{&quot;index&quot;:null}" stroke="none" stroke-width="0.5"><path d="M990.22718,556.44526c1.07113,-1.57277 1.96059,-3.19682 3.10564,-4.77842c1.75347,-2.42198 3.19145,-4.70995 4.14976,-7.14534c0.13461,-1.50909 0.26653,-2.93012 -0.07994,-4.25508c-0.23472,-0.89763 -1.17363,-1.32548 -1.82837,-1.96986c-1.84392,-1.81472 -3.65808,-3.48434 -7.51438,-3.23591c-2.42896,0.56981 -4.50178,0.28219 -7.04553,1.34246c-2.62098,1.09247 -5.45857,3.33087 -7.60172,5.09378c-1.77143,1.45713 -3.75489,2.63921 -5.46207,4.20581c-2.12183,2.51577 -5.4235,5.01146 -7.02898,7.57026l-0.21601,0.29966c-0.34191,-0.10124 -0.65286,-0.21986 -0.7555,-0.38591c-0.32826,-0.53109 0.08161,-1.82366 0.13592,-2.51708c0.10634,-1.35759 -0.05845,-2.77134 0.28697,-4.19731c0.26906,-1.11064 1.26723,-2.55438 1.96075,-3.69986c0.67358,-1.74675 2.97854,-3.92436 4.4132,-5.64022c0.49408,-0.59091 0.91713,-1.25157 1.76327,-1.57504c3.5552,-1.35911 6.68775,-1.13867 9.50406,-4.4424c2.03703,-1.85584 3.83163,-3.49012 5.53881,-5.39574c1.93873,-1.33642 3.89337,-2.65016 5.633,-4.24541c2.575,-1.90634 3.9661,-4.36003 6.01836,-6.5161c2.6916,-2.8277 7.32145,-4.724 10.82848,-5.81855c0.77182,-0.31759 1.89225,-0.82558 2.6636,-0.94749c0.6958,-0.10998 1.40796,0.24986 1.93318,0.38044c1.78631,0.44411 3.45416,0.78408 4.78087,1.68347c0.56223,0.38115 1.69022,0.64655 1.5909,1.48518c-0.10058,0.84904 -0.44526,1.98648 -0.81875,2.90821c-0.83944,2.10668 -1.4393,4.14288 -2.5141,6.27986c-1.06142,2.11038 -2.72781,4.30719 -3.7835,6.37493c-0.65615,1.28516 -1.0346,2.5087 -1.84998,3.84617c-2.37362,3.89354 -1.3107,6.89683 -2.80446,10.62165c-0.66699,1.66316 -1.99739,3.34452 -3.35702,4.96661c-1.39227,1.66104 -2.95493,4.01289 -4.97158,5.39583c-2.18542,1.49866 -4.36506,3.04795 -6.6749,4.31139z" data-paper-data="{&quot;noHover&quot;:false,&quot;origItem&quot;:[&quot;Path&quot;,{&quot;applyMatrix&quot;:true,&quot;segments&quot;:[[[425.87994,155.69536],[-0.63905,6.55218],[0.97861,-10.03363]],[[432.37249,126.97018],[-3.83131,9.3867],[3.99864,-5.41564]],[[445.26708,112.09196],[-5.15453,4.34924],[3.49207,-2.94651]],[[457.75117,106.67493],[-4.22696,1.69078],[11.90418,-4.76167]],[[493.79238,101.83686],[-12.90551,-4.23813],[6.90317,4.12055]],[[514.86421,112.84924],[-5.85487,-5.94273],[6.03262,6.12315]],[[526.63893,137.38103],[-2.35426,-8.05989],[1.94592,6.66194]],[[533.48339,156.91985],[-1.39402,-6.99012],[0.04647,10.6844]],[[535.88871,189.64055],[1.9079,-10.38479],[0,0]],[[535.67654,190.70143],[0,0],[1.50972,-0.057]],[[539.49058,190.00753],[-0.85548,0.49341],[2.73608,-1.57807]],[[546.46534,181.05664],[-1.86403,2.48192],[3.6494,-4.8591]],[[557.8827,166.08074],[-3.00626,5.30777],[2.34149,-4.13407]],[[561.90808,151.38955],[-0.94319,4.62687],[2.79664,-6.72042]],[[563.0082,127.7546],[-0.01266,7.2763],[0.00436,-2.50586]],[[561.4379,120.69224],[2.03417,1.87419],[-8.54691,-7.87473]],[[540.98198,96.82572],[0.16673,14.05698],[-1.7033,-8.29351]],[[537.39166,73.09193],[0.38875,8.1804],[-2.89574,-6.38412]],[[530.07134,53.30331],[1.42382,7.11909],[-3.45665,-8.94043]],[[528.12484,25.19306],[0.86698,9.36086],[-1.13706,-12.27691]],[[507.10381,-4.67292],[9.16104,6.90384],[-1.78868,-1.78868]],[[500.49797,-10.32302],[2.36727,1.1013],[-2.13539,-0.99342]],[[492.53881,-10.67398],[2.24522,0],[-7.63614,0]],[[470.65575,-8.93775],[7.36028,-1.99958],[-3.11913,0.84738]],[[460.63424,-5.11442],[2.13529,-3.03098],[-2.1618,3.06861]],[[454.91607,5.80754],[1.41189,-3.56207],[-3.27713,8.12887]],[[445.21035,30.038],[2.53443,-8.44071],[-2.50286,8.33558]],[[439.71567,55.69825],[2.39668,-8.18084],[-1.48961,5.08465]],[[434.8683,70.79192],[1.08146,-5.40728],[-3.14826,15.74129]],[[413.29615,110.46904],[5.76062,-14.38109],[-2.57214,6.42123]],[[410.43676,130.81582],[0,-6.88167],[0,7.04688]],[[412.01222,154.08111],[-3.03352,-6.61545],[3.28739,7.16908]],[[422.82544,175.02896],[-4.4249,-6.45189],[0.87441,-6.45671]]],&quot;closed&quot;:true}]}" fill="#c35e00"/><path d="M1007.42899,532.09177c-0.01603,0.43616 -0.07588,0.88433 -0.49251,1.55651c0,0 -0.48752,0.72472 -1.26607,0.652c-0.09934,-0.00929 -0.17807,-0.02917 -0.23982,-0.05681c-0.08508,-0.02086 -0.13272,-0.04667 -0.13272,-0.04667c-0.4369,-0.24043 -1.08259,-0.28392 -1.46749,-0.56915c-0.47474,-0.35179 -0.52177,-1.00762 -0.95502,-1.39201c-2.31311,-2.05242 -7.18266,-3.13354 -11.18941,-3.30946c-0.91416,-0.22727 -2.27366,-0.37487 -3.33386,-0.29887c-0.31655,0.02269 -0.70304,0.29499 -1.01897,0.31633c-1.88275,0.12724 -3.82839,0.01398 -5.70374,-0.06157l-0.46103,-0.09803c0,0 -0.70176,-0.17449 -0.10904,-0.88162c0.19502,-0.23266 0.40184,-0.36989 0.59157,-0.44928c0.1044,-0.30858 0.47927,-0.58212 0.47927,-0.58212l0.77323,-0.56167c1.56536,-1.01004 2.70938,-2.46823 4.13036,-3.63561c3.61499,-2.03646 6.30877,-2.26359 9.48692,-2.11684c1.1593,0.05353 2.48844,-0.19914 3.68296,-0.18135c2.63365,0.03924 4.85077,0.90391 7.09477,1.46751c1.17908,0.52245 2.33126,1.01513 3.48364,1.5552c0.35869,0.1681 1.02071,0.14158 1.06671,0.51332c0.00759,0.0613 -0.20202,0.3796 -0.45862,0.75036c0.00159,0.02076 0.00112,0.03326 0.00112,0.03326c-0.10218,1.10333 -0.70998,1.50216 -1.34953,2.62059c-0.80307,1.40437 -0.86062,2.62735 -1.94912,3.98425z" fill="#b35700"/><path d="M1015.90715,515.60023c-0.00251,0.02399 -0.00555,0.03837 -0.00555,0.03837l-0.19196,0.81081c-0.60492,1.27898 -1.32365,2.44395 -1.54798,3.69735c-0.2212,1.23599 0.01353,1.34369 -0.99613,2.78086c-0.56066,0.27204 -1.12156,0.69497 -1.68195,0.81615c-0.33172,0.07173 -1.52172,-0.32732 -1.89593,-0.38919c-1.12162,-0.18543 -2.24081,-0.37191 -3.36053,-0.55984c-2.16472,-0.36331 -4.81752,0.0062 -6.95509,-0.3509c-1.74299,-0.29121 -3.10994,-0.92074 -5.16166,-0.77368c-1.26568,0.08342 -2.38685,0.59951 -3.66622,0.80864c-0.52879,0.08642 -1.23621,0.34792 -1.535,0.12738c-1.36709,-1.00907 1.49372,-2.60271 2.35988,-3.77072c1.31727,-1.77637 3.19936,-4.36633 5.56458,-5.64354c1.71863,-0.92806 3.63425,-0.99605 5.18037,-1.10133c2.12711,-0.14483 4.11735,-0.13928 6.28303,-0.35553c0.63387,-0.0633 1.35045,-0.38334 1.9882,-0.45599c2.95918,-0.33711 5.37066,1.70311 5.97571,3.53218c0,0 0.12288,0.3996 -0.35377,0.78904z" fill="#a24e00"/><path d="M1016.50472,513.35964c-0.4711,0.22167 -0.82453,0.06387 -0.82453,0.06387c-1.74724,-0.78003 -3.61379,-1.30333 -5.619,-1.80185c-0.57564,-0.14311 -1.2584,-0.51199 -2.04756,-0.3373c-1.29477,0.28658 -2.70803,1.11939 -4.03357,1.44717c-1.39734,0.34551 -2.87663,0.24492 -3.92433,-0.03686c-0.30227,0.05733 -0.60454,0.11466 -0.90682,0.17201l-0.10028,-0.04797l-0.03074,0.04569l-0.87455,-0.08169c-0.04109,-0.00319 -0.08075,-0.00941 -0.1186,-0.01881c-0.38758,-0.09635 -0.43642,-0.49106 -0.10905,-0.88162c0.18145,-0.21645 0.44031,-0.38618 0.70107,-0.4781l1.29781,-0.46304c1.93416,-1.07953 4.07575,-2.16554 5.90526,-2.63734c4.22632,-1.08991 9.09414,-0.1542 11.30747,1.63896c0.43197,0.56741 0.63365,1.18727 0.93892,1.82795l-0.20285,0.8038c0,0 -0.34039,0.72603 -1.19359,0.78414c-0.06091,0.00413 -0.11574,0.0043 -0.16504,0.001z" fill="#7a3b00"/><path d="M975.90558,533.14786c0,0 -0.53452,0.6377 -1.18935,0.55252c-1.87944,0.81276 -3.89205,1.05121 -6.06361,1.88138c-0.84615,0.32347 -1.26861,0.98246 -1.76268,1.57338c-1.43465,1.71586 -3.73876,3.88832 -4.41232,5.63506c-0.69352,1.14546 -1.6919,2.58639 -1.96097,3.69701c-0.34544,1.42594 -0.18169,2.83643 -0.28804,4.19403c-0.05432,0.69344 -0.46515,1.98441 -0.13688,2.51548c0.10264,0.16605 0.41321,0.28414 0.75512,0.38537l0.15996,-0.26241c1.60547,-2.55878 4.90561,-5.05706 7.02744,-7.57282c1.70716,-1.56659 3.69004,-2.75036 5.46149,-4.20749c2.14314,-1.76291 4.98031,-4.00521 7.60128,-5.09768c2.54375,-1.06028 4.67608,-0.80047 7.10503,-1.37028c3.8563,-0.24843 5.63119,1.42176 7.47509,3.23647c0.65475,0.64437 1.61537,1.10529 1.85009,2.0029c0.34649,1.32497 0.21142,2.74783 0.07681,4.25693c-0.95832,2.4354 -2.4031,4.72654 -4.15658,7.14851c-1.14507,1.58161 -2.03418,3.16205 -3.1053,4.73484c2.30983,-1.26344 4.48282,-2.81015 6.66825,-4.30881c2.01666,-1.38293 3.5729,-3.73127 4.96519,-5.3923c1.35963,-1.62211 2.68413,-3.29914 3.35112,-4.96231c1.4018,-3.49551 0.54185,-6.3427 2.39228,-9.89775c-0.06825,-0.11527 -0.0637,-0.23795 -0.0637,-0.23795c0.08028,-1.83873 1.38259,-3.68802 2.51206,-5.63934c1.66442,-2.87553 3.42314,-5.7053 4.78983,-8.60173c0.62129,-2.0408 2.43202,-5.15305 1.35564,-6.66953c-0.28559,-0.15489 -0.59215,-0.2862 -0.81227,-0.43541c-0.23787,-0.16125 -0.48654,-0.30448 -0.74479,-0.43351c-0.64038,-0.16303 -1.34423,-0.2597 -1.94285,-0.46303c-1.16053,-0.39419 -2.7196,-1.28163 -4.32396,-0.9872c-0.95409,0.48682 -2.09108,1.03983 -3.06943,1.33291c-0.62402,0.18693 -1.23397,0.19447 -1.85778,0.32428c-0.46612,0.17773 -0.93826,0.3676 -1.41099,0.56982c-0.503,0.28561 -0.99792,0.60294 -1.51784,0.78146c-0.12382,0.04251 -0.24974,0.07344 -0.3762,0.10016c-0.71384,0.36218 -1.4122,0.75425 -2.07567,1.17708c-0.1758,0.17846 -0.35627,0.35373 -0.56346,0.50786c-0.38145,0.28376 -0.78879,0.51674 -1.19009,0.7594c-0.39829,0.32963 -0.77166,0.67409 -1.11386,1.0336c-2.05229,2.15607 -3.43421,4.60642 -6.00921,6.51277c-1.49458,1.37054 -3.13983,2.52836 -4.80314,3.67482c-0.27779,0.28245 -0.56598,0.56149 -0.87396,0.83349c-0.37726,0.33321 -0.75287,0.66492 -1.12675,0.99581c-1.35233,1.39273 -2.77471,2.6874 -4.34737,4.12016c-0.69971,0.8208 -1.41874,1.42369 -2.1588,1.88708l-0.08882,0.11498zM1002.49299,509.13509c0.3296,-0.14521 0.63509,-0.2405 0.92896,-0.31047c0.92053,-0.35458 1.82516,-0.66472 2.6857,-0.93024c0.9535,-0.39234 2.26159,-0.95608 3.19498,-1.0841c1.01751,-0.13956 1.82144,0.20402 2.60733,0.39942c1.71207,0.42564 3.31261,0.77253 4.64788,1.53821c0.62958,0.22234 1.17794,0.5084 1.53542,0.96656c0.49208,0.34929 0.8699,0.7756 0.83127,1.49216c-0.04947,0.91797 -0.5132,2.28836 -0.91196,3.28906c-0.87112,2.1498 -1.47904,4.22764 -2.57717,6.40866c-1.06133,2.10794 -2.78473,4.34204 -3.79857,6.3953c-0.64969,1.31579 -1.07115,2.57224 -1.90846,3.94575c-1.94302,3.1872 -1.38809,5.64697 -2.13768,8.63444c-0.61199,2.43904 -2.18497,4.80122 -4.21159,7.21905c-1.01037,1.20541 -1.96226,2.50748 -3.08594,3.67669c-2.80063,2.91415 -7.6282,6.04031 -11.59181,7.83c-0.18483,0.17577 -0.58963,0.49352 -1.05941,0.44422c-0.26259,0.07647 -0.7862,0.16769 -0.84371,-0.29718c-0.07712,-0.62339 0.83824,-1.00005 0.83824,-1.00005c0.0447,-0.01835 0.08935,-0.03685 0.13393,-0.05547c1.62276,-2.04597 2.67707,-4.12033 4.16343,-6.18875c1.59935,-2.22563 2.9443,-4.31457 3.86578,-6.55193c0.08445,-1.27542 0.61946,-3.35973 -0.21761,-4.22675c-1.81885,-1.88402 -3.93166,-4.51777 -7.87058,-4.22756c-2.21989,0.52832 -4.16259,0.26038 -6.46028,1.18636c-2.29319,0.92415 -4.86762,3.06732 -6.74791,4.58838c-1.70165,1.37652 -3.56826,2.47176 -5.18913,3.95664c-1.92082,2.30904 -5.34115,4.82514 -6.69858,7.15103l-0.4616,0.75719c0,0 -0.02551,0.04182 -0.07537,0.105c0.00545,0.15417 -0.07614,0.36123 -0.36235,0.62368c-0.71885,0.65919 -1.29076,0.34943 -1.29076,0.34943c-0.59699,-0.32903 -1.68617,-0.41507 -2.04126,-0.94078c-0.46397,-0.68684 -0.06322,-2.11079 0.01024,-3.02836c0.11308,-1.41203 -0.06833,-2.88622 0.31779,-4.37474c0.32059,-1.23597 1.30306,-2.74962 2.08215,-4.0172c0.81639,-1.96759 3.51775,-4.94718 5.34803,-6.83183c0.90896,-0.93597 1.1175,-1.16071 2.35592,-1.69191c2.27684,-0.97663 4.5367,-0.9492 6.51419,-2.08611c4.67887,-4.57532 9.56081,-8.99989 14.77586,-13.27151c1.31451,-1.59043 2.6219,-3.15222 4.16103,-4.6346c0.47126,-0.45388 0.99112,-0.79703 1.51702,-1.12803c0.57825,-0.47052 1.19591,-0.91565 1.84073,-1.33534c0.35172,-0.34375 0.68344,-0.70271 1.11553,-0.9685c0.53932,-0.33172 1.13407,-0.4843 1.71997,-0.64522c0.59738,-0.29867 1.2021,-0.5786 1.80637,-0.83975c0.17875,-0.10781 0.35915,-0.2094 0.54399,-0.29082z" fill="#000000"/></g></g></g></svg>