<svg version="1.1" xmlns="http://www.w3.org/2000/svg" xmlns:xlink="http://www.w3.org/1999/xlink" width="11.07142" height="48.92858" viewBox="0,0,11.07142,48.92858"><g transform="translate(-234.46429,-155.53571)"><g data-paper-data="{&quot;isPaintingLayer&quot;:true}" fill-rule="nonzero" stroke="#000000" stroke-width="1.5" stroke-linejoin="miter" stroke-miterlimit="10" stroke-dasharray="" stroke-dashoffset="0" style="mix-blend-mode: normal"><path d="M240,156.28571c2.64307,0 4.78571,10.61725 4.78571,23.71429c0,13.09704 -2.14263,23.71429 -4.78571,23.71429c-2.64307,0 -4.78571,-10.61725 -4.78571,-23.71429c0,-13.09704 2.14263,-23.71429 4.78571,-23.71429z" data-paper-data="{&quot;index&quot;:null}" fill="#ff9900" stroke-linecap="butt"/><path d="M240,171.21429c0.96617,0 1.7494,3.93349 1.7494,8.78571c0,4.85221 -0.78323,8.78571 -1.7494,8.78571c-0.96617,0 -1.7494,-3.93349 -1.7494,-8.78571c0,-4.85221 0.78323,-8.78571 1.7494,-8.78571z" data-paper-data="{&quot;index&quot;:null}" fill="#001eff" stroke-linecap="butt"/><path d="M239.99883,176.84674l-0.06811,6.53226" data-paper-data="{&quot;index&quot;:null}" fill="none" stroke-linecap="round"/></g></g></svg>