<svg version="1.1" xmlns="http://www.w3.org/2000/svg" xmlns:xlink="http://www.w3.org/1999/xlink" width="47.75231" height="54.56778" viewBox="0,0,47.75231,54.56778"><defs><linearGradient x1="322.04035" y1="168.10117" x2="322.04035" y2="175.16468" gradientUnits="userSpaceOnUse" id="color-1"><stop offset="0" stop-color="#8cff2e"/><stop offset="1" stop-color="#65df00"/></linearGradient><linearGradient x1="313.68912" y1="168.38586" x2="313.68912" y2="175.44938" gradientUnits="userSpaceOnUse" id="color-2"><stop offset="0" stop-color="#8cff2e"/><stop offset="1" stop-color="#65df00"/></linearGradient><radialGradient cx="320" cy="156.5466" r="23.36059" gradientUnits="userSpaceOnUse" id="color-3"><stop offset="0" stop-color="#8cff2e"/><stop offset="1" stop-color="#65df00"/></radialGradient><radialGradient cx="320" cy="156.5466" r="23.87616" gradientUnits="userSpaceOnUse" id="color-4"><stop offset="0" stop-color="#8cff2e"/><stop offset="1" stop-color="#65df00"/></radialGradient></defs><g transform="translate(-296.12385,-133.18601)"><g stroke-miterlimit="10"><g fill-opacity="0.24706" fill="#000000" stroke-linecap="butt"><path d="M327.59488,184.44418l0.00001,-0.00225c0,0.00074 0,0.0015 -0.00001,0.00225z" stroke="none" stroke-width="0.5"/><path d="M306.29036,184.13287c-4.28545,0.47192 -7.30865,0.19905 -9.06168,-0.78034c-2.41294,-1.34808 -0.63447,-2.15157 3.0228,-3.13387c3.07331,-0.82546 7.44493,-1.42358 11.51039,-1.7902c-0.24046,1.38799 -0.24446,2.54468 -0.43936,4.03624c-0.02328,0.17815 -1.02236,0.32524 -0.75666,0.62446c0.17336,0.19523 0.47646,0.35098 0.87685,0.47474c-1.61366,0.17169 -3.3232,0.36753 -5.15234,0.56896z" stroke="#000000" stroke-width="0"/><path d="M340.0087,180.22168c4.72161,0.82692 4.04196,2.25661 3.44594,2.9538c-0.57723,0.6752 -5.06888,1.34712 -9.76178,0.89153c-1.75628,-0.1705 -3.42053,-0.34981 -5.00187,-0.51284c1.18935,-0.85816 0.29311,-3.77849 0.05631,-4.88249c4.12597,0.46072 8.5287,1.0714 11.2614,1.55z" stroke="#000000" stroke-width="0"/><path d="M320.08852,174.59962c2.70331,0 8.00037,0.0473 8.00037,0.88132c0,2.73211 2.45218,8.00402 -0.09516,10.23624c-1.22644,1.07473 -3.37875,2.063 -7.90519,2.03608c-4.50536,-0.0268 -7.29938,-1.02705 -8.24853,-1.95569c-2.28422,-2.23487 0.09518,-7.60988 0.09518,-10.28983c0,-0.86619 5.44037,-0.90812 8.15333,-0.90812z" stroke="#000000" stroke-width="0"/></g><path d="M322.04035,168.10117v7.06351" fill="none" stroke="url(#color-1)" stroke-width="2.5" stroke-linecap="round"/><path d="M313.68912,175.44938v-7.06351" fill="none" stroke="url(#color-2)" stroke-width="2.5" stroke-linecap="round"/><path d="M311.93519,176.68173c0,-3.09973 -0.25233,-7.21457 -0.51376,-11.62879c3.90525,0.60983 8.9462,0.62261 9.91032,0.63619c3.06866,0.04322 5.4731,-0.49025 7.33286,-1.46596c-0.27956,4.71955 -0.57571,9.18138 -0.57571,12.55374c0,2.96224 -5.29705,3.13027 -8.00037,3.13027c-2.71296,0 -8.15334,-0.14891 -8.15334,-3.22545z" fill="#000000" stroke="#000000" stroke-width="0" stroke-linecap="butt"/><path d="M313.67199,167.41994v2.18004l-1.99428,-0.09288l-0.06966,-2.0175z" fill="#000000" stroke="#000000" stroke-width="0" stroke-linecap="butt"/><path d="M315.75621,167.41994v2.18004h-2.18005v-2.18004z" fill="#ffffff" stroke="#000000" stroke-width="0" stroke-linecap="butt"/><path d="M311.56161,167.46931l-0.06966,-2.1336h2.18004v2.18004z" fill="#ffffff" stroke="#000000" stroke-width="0" stroke-linecap="butt"/><path d="M313.57617,167.51575v-2.18004h2.18005v2.18004z" fill="#000000" stroke="#000000" stroke-width="0" stroke-linecap="butt"/><path d="M317.92699,167.45267v2.18004h-2.18004v-2.18004z" fill="#000000" stroke="#000000" stroke-width="0" stroke-linecap="butt"/><path d="M320.01121,167.45267v2.18004h-2.18005v-2.18004z" fill="#ffffff" stroke="#000000" stroke-width="0" stroke-linecap="butt"/><path d="M315.74695,167.54848v-2.18004h2.18004v2.18004z" fill="#ffffff" stroke="#000000" stroke-width="0" stroke-linecap="butt"/><path d="M317.83116,167.54848v-2.18004h2.18005v2.18004z" fill="#000000" stroke="#000000" stroke-width="0" stroke-linecap="butt"/><path d="M322.21472,167.45267v2.18004h-2.18004v-2.18004z" fill="#000000" stroke="#000000" stroke-width="0" stroke-linecap="butt"/><path d="M324.29894,167.45267v2.18004h-2.18005v-2.18004z" fill="#ffffff" stroke="#000000" stroke-width="0" stroke-linecap="butt"/><path d="M320.03468,167.54848v-2.18004h2.18004v2.18004z" fill="#ffffff" stroke="#000000" stroke-width="0" stroke-linecap="butt"/><path d="M322.11889,167.54848v-2.18004h2.18005v2.18004z" fill="#000000" stroke="#000000" stroke-width="0" stroke-linecap="butt"/><path d="M326.46972,167.4854v2.18004h-2.18005v-2.18004z" fill="#000000" stroke="#000000" stroke-width="0" stroke-linecap="butt"/><path d="M328.4706,167.56873l-0.125,2.09671h-1.97171v-2.18004z" fill="#ffffff" stroke="#000000" stroke-width="0" stroke-linecap="butt"/><path d="M324.28967,167.58121v-2.18004h2.18005v2.18004z" fill="#ffffff" stroke="#000000" stroke-width="0" stroke-linecap="butt"/><path d="M326.37388,167.58121v-2.18004h2.18005l-0.125,2.22171z" fill="#000000" stroke="#000000" stroke-width="0" stroke-linecap="butt"/><path d="M313.67199,171.52488v2.18004l-1.80853,-0.13932l-0.02322,-2.11038z" fill="#000000" stroke="#000000" stroke-width="0" stroke-linecap="butt"/><path d="M315.75621,171.52488v2.18004h-2.18005v-2.18004z" fill="#ffffff" stroke="#000000" stroke-width="0" stroke-linecap="butt"/><path d="M311.79381,171.48137l-0.06966,-2.04072h1.94784v2.18004z" fill="#ffffff" stroke="#000000" stroke-width="0" stroke-linecap="butt"/><path d="M313.57617,171.62069v-2.18004h2.18005v2.18004z" fill="#000000" stroke="#000000" stroke-width="0" stroke-linecap="butt"/><path d="M317.92699,171.55761v2.18004h-2.18004v-2.18004z" fill="#000000" stroke="#000000" stroke-width="0" stroke-linecap="butt"/><path d="M320.01121,171.55761v2.18004h-2.18005v-2.18004z" fill="#ffffff" stroke="#000000" stroke-width="0" stroke-linecap="butt"/><path d="M315.74695,171.65342v-2.18004h2.18004v2.18004z" fill="#ffffff" stroke="#000000" stroke-width="0" stroke-linecap="butt"/><path d="M317.83116,171.65342v-2.18004h2.18005v2.18004z" fill="#000000" stroke="#000000" stroke-width="0" stroke-linecap="butt"/><path d="M322.21472,171.55761v2.18004h-2.18004v-2.18004z" fill="#000000" stroke="#000000" stroke-width="0" stroke-linecap="butt"/><path d="M324.29894,171.55761v2.18004h-2.18005v-2.18004z" fill="#ffffff" stroke="#000000" stroke-width="0" stroke-linecap="butt"/><path d="M320.03468,171.65342v-2.18004h2.18004v2.18004z" fill="#ffffff" stroke="#000000" stroke-width="0" stroke-linecap="butt"/><path d="M322.11889,171.65342v-2.18004h2.18005v2.18004z" fill="#000000" stroke="#000000" stroke-width="0" stroke-linecap="butt"/><path d="M326.46972,171.59034v2.18004h-2.18005v-2.18004z" fill="#000000" stroke="#000000" stroke-width="0" stroke-linecap="butt"/><path d="M328.26226,171.6945l-0.16667,2.09671l-1.72171,-0.02083v-2.18004z" fill="#ffffff" stroke="#000000" stroke-width="0" stroke-linecap="butt"/><path d="M324.28967,171.68616v-2.18004h2.18005v2.18004z" fill="#ffffff" stroke="#000000" stroke-width="0" stroke-linecap="butt"/><path d="M326.37388,171.68616v-2.18004l1.97171,0.04167l-0.125,2.15921z" fill="#000000" stroke="#000000" stroke-width="0" stroke-linecap="butt"/><path d="M313.57939,175.62981v2.18004l-1.41378,-0.20898c0,0 -0.16406,-0.37001 -0.18977,-0.69278c-0.02823,-0.35449 0.02723,-1.34795 0.02723,-1.34795z" fill="#000000" stroke="#000000" stroke-width="0" stroke-linecap="butt"/><path d="M315.66362,175.62981v2.18004h-2.18005v-2.18004z" fill="#ffffff" stroke="#000000" stroke-width="0" stroke-linecap="butt"/><path d="M311.97985,175.63275l-0.04644,-2.06394l1.64598,-0.02322v2.18004z" fill="#ffffff" stroke="#000000" stroke-width="0" stroke-linecap="butt"/><path d="M313.48357,175.72563v-2.18004h2.18005v2.18004z" fill="#000000" stroke="#000000" stroke-width="0" stroke-linecap="butt"/><path d="M317.83439,175.66254v2.18004h-2.18004v-2.18004z" fill="#000000" stroke="#000000" stroke-width="0" stroke-linecap="butt"/><path d="M319.91862,175.66254v2.18004h-2.18005v-2.18004z" fill="#ffffff" stroke="#000000" stroke-width="0" stroke-linecap="butt"/><path d="M315.65435,175.75836v-2.18004h2.18004v2.18004z" fill="#ffffff" stroke="#000000" stroke-width="0" stroke-linecap="butt"/><path d="M317.73857,175.75836v-2.18004h2.18005v2.18004z" fill="#000000" stroke="#000000" stroke-width="0" stroke-linecap="butt"/><path d="M322.12212,175.66254v2.18004h-2.18004v-2.18004z" fill="#000000" stroke="#000000" stroke-width="0" stroke-linecap="butt"/><path d="M324.20635,175.66254v2.18004h-2.18005v-2.18004z" fill="#ffffff" stroke="#000000" stroke-width="0" stroke-linecap="butt"/><path d="M319.94208,175.75836v-2.18004h2.18004v2.18004z" fill="#ffffff" stroke="#000000" stroke-width="0" stroke-linecap="butt"/><path d="M322.0263,175.75836v-2.18004h2.18005v2.18004z" fill="#000000" stroke="#000000" stroke-width="0" stroke-linecap="butt"/><path d="M326.37712,175.69527v2.18005h-2.18005v-2.18005z" fill="#000000" stroke="#000000" stroke-width="0" stroke-linecap="butt"/><path d="M328.13626,175.76493l-0.09288,1.69243l-1.76209,0.41796v-2.18005z" fill="#ffffff" stroke="#000000" stroke-width="0" stroke-linecap="butt"/><path d="M324.19707,175.79109v-2.18004h2.18005v2.18004z" fill="#ffffff" stroke="#000000" stroke-width="0" stroke-linecap="butt"/><path d="M326.28129,175.79109v-2.18004l1.90921,0.1875l-0.10417,1.99254z" fill="#000000" stroke="#000000" stroke-width="0" stroke-linecap="butt"/><path d="M312.15796,177.61966h1.39057l0.32507,1.52988c0,0 -0.66735,-0.33657 -0.93244,-0.57295c-0.30198,-0.26928 -0.78321,-0.95693 -0.78321,-0.95693z" fill="#ffffff" stroke="#000000" stroke-width="0" stroke-linecap="butt"/><path d="M313.82423,179.17277l-0.37151,-1.5531h2.18004l-0.06966,1.92462z" fill="#000000" stroke="#000000" stroke-width="0" stroke-linecap="butt"/><path d="M315.62349,179.60024v-1.94785h2.18004v2.18004z" fill="#ffffff" stroke="#000000" stroke-width="0" stroke-linecap="butt"/><path d="M317.7077,179.83243v-2.18004h2.18005v2.34258z" fill="#000000" stroke="#000000" stroke-width="0" stroke-linecap="butt"/><path d="M319.888,179.99497l0.02322,-2.34258h2.18004l-0.04644,2.20326z" fill="#ffffff" stroke="#000000" stroke-width="0" stroke-linecap="butt"/><path d="M321.99544,179.83243v-2.18004h2.18005l-0.09288,2.08716z" fill="#000000" stroke="#000000" stroke-width="0" stroke-linecap="butt"/><path d="M324.05011,179.70263l0.13932,-2.0175h2.18005l-0.27864,1.48344z" fill="#ffffff" stroke="#000000" stroke-width="0" stroke-linecap="butt"/><path d="M326.13433,179.12213l0.1161,-1.437l1.76209,-0.23219c0,0 -0.41096,0.76769 -0.70705,1.03083c-0.32692,0.29054 -1.17114,0.63837 -1.17114,0.63837z" fill="#000000" stroke="#000000" stroke-width="0" stroke-linecap="butt"/><path d="M311.84001,140.13416c0.94914,-3.29837 3.74317,-6.85106 8.24854,-6.94624c4.52644,-0.09562 6.67874,3.41456 7.90519,7.23177c1.60631,4.99955 1.22464,14.29207 0.72343,22.90861c-3.28866,-0.06262 -11.13361,-0.91437 -17.44289,-0.79822c-0.4823,-8.47366 -0.83445,-17.53017 0.56573,-22.39592z" fill="url(#color-3)" stroke="#000000" stroke-width="0" stroke-linecap="butt"/><path d="M340.0087,159.93868c-5.06263,3.14924 -15.8571,7.90856 -20.00469,7.90856c-4.63016,0 -14.26269,-2.66067 -19.75253,-7.89787c-3.65728,-3.48895 -5.43574,-6.34278 -3.0228,-11.1309c1.75302,-3.4786 4.77623,-4.4478 9.06168,-2.77161c5.50149,2.15183 9.9211,4.12385 13.90401,4.12385c3.8423,0 8.26123,-2.08406 13.49849,-3.88992c4.6929,-1.61815 9.18455,0.76835 9.76178,3.16654c0.59602,2.47628 1.27567,7.55425 -3.44594,10.49133z" fill="url(#color-4)" stroke="#000000" stroke-width="0" stroke-linecap="butt"/></g></g></svg>