<svg version="1.1" xmlns="http://www.w3.org/2000/svg" xmlns:xlink="http://www.w3.org/1999/xlink" width="23.81614" height="27.60153" viewBox="0,0,23.81614,27.60153"><defs><linearGradient x1="319.99998" y1="162.6392" x2="319.99998" y2="173.91146" gradientUnits="userSpaceOnUse" id="color-1"><stop offset="0" stop-color="#8cff2e"/><stop offset="1" stop-color="#65df00"/></linearGradient><linearGradient x1="319.99998" y1="156.62438" x2="319.99998" y2="179.92627" gradientUnits="userSpaceOnUse" id="color-2"><stop offset="0" stop-color="#8cff2e"/><stop offset="1" stop-color="#65df00"/></linearGradient></defs><g transform="translate(-308.09193,-156.6244)"><g stroke-miterlimit="10"><g fill-opacity="0.25882" fill="#000000" stroke="#000000" stroke-width="0"><path d="M313.16241,182.22456c-2.13734,0.26084 -3.64514,0.11002 -4.51945,-0.43131c-1.20344,-0.74511 -0.31644,-1.18922 1.5076,-1.73216c1.5994,-0.47608 3.52029,-0.81534 5.62059,-1.01518c-0.18784,0.86788 -0.36203,2.1317 -0.31835,2.96004c-0.92435,0.10548 -1.22124,0.08812 -2.2904,0.2186z"/><path d="M329.9792,180.06276c2.35487,0.45706 2.0159,1.24728 1.71864,1.63263c-0.28789,0.3732 -2.52807,0.74458 -4.86862,0.49277c-0.96195,-0.10349 -1.40833,-0.09319 -2.26559,-0.19007c0.0418,-0.81274 -0.08932,-2.09802 -0.33915,-2.97333c2.24725,0.2604 4.23271,0.74258 5.75472,1.038z"/><path d="M320.04415,176.95532c1.34826,0 3.99013,0.02615 3.99013,0.48712c0,1.5101 1.22301,4.424 -0.04746,5.6578c-0.61168,0.59402 -1.68513,1.14027 -3.94266,1.12539c-2.24702,-0.01481 -3.64052,-0.56767 -4.1139,-1.08095c-1.13924,-1.23527 0.04747,-4.20616 0.04747,-5.68743c0,-0.47876 2.71335,-0.50193 4.06642,-0.50193z"/></g><g fill="#65df00" stroke="none" stroke-width="0.5"><path d="M317.05278,178.89538c0.17281,0.17281 0.00776,0.34562 0.00026,0.35329c-0.13105,0.2096 -0.22283,0.43033 -0.3477,0.64534c0,0 -0.12597,0.21594 -0.34191,0.08998c-0.21594,-0.12597 -0.08998,-0.34191 -0.08998,-0.34191c0.12777,-0.21793 0.22231,-0.4405 0.3539,-0.65523l-0.16108,0.05363c-0.25165,0.07474 -0.412,0.1905 -0.63073,0.33634c0,0 -0.20801,0.13868 -0.34669,-0.06934c-0.13868,-0.20801 0.06934,-0.34669 0.06934,-0.34669c0.25786,-0.17189 0.46413,-0.30438 0.76104,-0.3982l0.16844,-0.05622c0,0 0.23717,-0.07906 0.31623,0.15811c0.02241,0.06722 0.01941,0.12173 0.00362,0.16535c0.06653,-0.02283 0.1559,-0.02383 0.24527,0.06555zM317.05996,179.23766l0.00762,-0.01196c-0.00256,0.00398 -0.0051,0.00797 -0.00762,0.01196z"/><path d="M317.89632,179.08051c0.22361,0.1118 0.1118,0.33541 0.1118,0.33541l-0.01217,0.02301c-0.11144,0.26703 -0.22606,0.49249 -0.39586,0.72744c0,0 -0.14704,0.20218 -0.34923,0.05514c-0.20218,-0.14704 -0.05514,-0.34923 -0.05514,-0.34923c0.14891,-0.20325 0.24206,-0.39337 0.33869,-0.62567l0.02649,-0.05431c0,0 0.1118,-0.22361 0.33541,-0.1118z"/><path d="M318.53839,179.13144c0.25,0 0.25,0.25 0.25,0.25l-0.00291,0.07667c-0.05689,0.36801 -0.11057,0.70176 -0.22078,1.06c0,0 -0.07352,0.23894 -0.31247,0.16542c-0.23894,-0.07352 -0.16542,-0.31247 -0.16542,-0.31247c0.10343,-0.33608 0.15153,-0.64324 0.20448,-0.98899l-0.00291,-0.00065c0,0 0,-0.25 0.25,-0.25z"/><path d="M319.42428,179.34658c0.24749,0.03536 0.21213,0.28284 0.21213,0.28284l-0.02322,0.15617c-0.05899,0.25223 -0.07759,0.50084 -0.13531,0.75388c0,0 -0.05621,0.2436 -0.29981,0.18738c-0.2436,-0.05621 -0.18738,-0.29981 -0.18738,-0.29981c0.05899,-0.25223 0.07759,-0.50084 0.13531,-0.75388l0.01544,-0.11445c0,0 0.03536,-0.24749 0.28284,-0.21213z"/><path d="M320.24363,179.42845c0.22361,-0.1118 0.33541,0.1118 0.33541,0.1118l0.06312,0.15812c0.03499,0.28336 0.03713,0.55917 0.05918,0.84303c0,0 0.01917,0.24926 -0.23009,0.26844c-0.24926,0.01917 -0.26844,-0.23009 -0.26844,-0.23009c-0.02103,-0.27594 -0.02197,-0.54438 -0.0568,-0.81936l-0.0142,0.00347c0,0 -0.1118,-0.22361 0.1118,-0.33541z"/><path d="M321.24279,179.34495c0.22979,-0.09848 0.32827,0.13131 0.32827,0.13131l0.0753,0.19578c0.04407,0.29162 0.04243,0.55446 0.0216,0.84836c0,0 -0.01781,0.24936 -0.26718,0.23155c-0.24936,-0.01781 -0.23155,-0.26718 -0.23155,-0.26718c0.01856,-0.25763 0.02302,-0.48148 -0.01706,-0.73671l-0.04068,-0.07485c0,0 -0.09848,-0.22979 0.13131,-0.32827z"/><path d="M321.97636,179.3593c0.17678,-0.17678 0.35355,0 0.35355,0l0.11198,0.13861c0.12569,0.30302 0.19059,0.53991 0.1932,0.86936c0,0 0,0.25 -0.25,0.25c-0.25,0 -0.25,-0.25 -0.25,-0.25c0.00272,-0.26559 -0.05259,-0.43313 -0.15474,-0.67705l-0.004,0.02263c0,0 -0.17678,-0.17678 0,-0.35355z"/><path d="M322.83387,179.09984c0.22361,-0.1118 0.33541,0.1118 0.33541,0.1118l0.01724,0.04208c0.16803,0.2317 0.33511,0.4163 0.46602,0.67313c0,0 0.1118,0.22361 -0.1118,0.33541c-0.22361,0.1118 -0.33541,-0.1118 -0.33541,-0.1118c-0.11246,-0.23066 -0.27184,-0.3951 -0.42317,-0.60266l-0.06008,-0.11256c0,0 -0.1118,-0.22361 0.1118,-0.33541z"/><path d="M323.31014,178.83739c0.17678,-0.17678 0.35355,0 0.35355,0l0.05409,0.06251c0.21368,0.1364 0.41458,0.23474 0.65141,0.32552c0,0 0.23334,0.08974 0.14359,0.32308c-0.08974,0.23334 -0.32308,0.14359 -0.32308,0.14359c-0.2667,-0.10289 -0.49904,-0.21722 -0.74036,-0.37036l-0.13921,-0.13079c0,0 -0.17678,-0.17678 0,-0.35355z"/><path d="M323.50754,178.47292c0,-0.25 0.25,-0.25 0.25,-0.25l0.23087,0.03908c0.24004,0.1534 0.43641,0.32498 0.6928,0.45123c0,0 0.22361,0.1118 0.1118,0.33541c-0.1118,0.22361 -0.33541,0.1118 -0.33541,0.1118c-0.27263,-0.13803 -0.48182,-0.3146 -0.73763,-0.47661l0.03757,0.03908c0,0 -0.25,0 -0.25,-0.25z"/><path d="M316.3528,178.18297c0,0.21762 -0.18943,0.24581 -0.2385,0.24946c-0.24283,0.05604 -0.48566,0.11207 -0.72849,0.16811c0,0 -0.2436,0.05621 -0.29981,-0.18738c-0.05621,-0.2436 0.18738,-0.29981 0.18738,-0.29981c0.25129,-0.05799 0.50258,-0.11598 0.75388,-0.17397l0.07555,-0.0064c0,0 0.25,0 0.25,0.25z"/><path d="M323.72657,177.15669c-0.05621,-0.2436 0.18738,-0.29981 0.18738,-0.29981l0.25129,-0.05799c0,0 0.2436,-0.05621 0.29981,0.18738c0.05621,0.2436 -0.18738,0.29981 -0.18738,0.29981l-0.23614,0.05449l0.07948,0.00421c0.19077,0.06104 0.37415,0.15273 0.53744,0.26872c0,0 0.20218,0.14704 0.05514,0.34923c-0.14704,0.20218 -0.34923,0.05514 -0.34923,0.05514c-0.11634,-0.08737 -0.2507,-0.15455 -0.3904,-0.1952l-0.06179,0.01106c0,0 -0.25,0 -0.25,-0.25c0,-0.1933 0.14947,-0.23714 0.21726,-0.24708c-0.06268,-0.02017 -0.12724,-0.06891 -0.15287,-0.17995z"/><path d="M316.34573,177.56023c-0.1118,0.22361 -0.33541,0.1118 -0.33541,0.1118l-0.06039,-0.038c-0.08376,-0.01933 -0.16753,-0.03866 -0.25129,-0.05799c0,0 -0.2436,-0.05621 -0.18738,-0.29981c0.05621,-0.2436 0.29981,-0.18738 0.29981,-0.18738c0.08376,0.01933 0.16753,0.03866 0.25129,0.05799l0.17157,0.07798c0,0 0.22361,0.1118 0.1118,0.33541z"/></g><path d="M329.9792,169.96712c-2.52495,1.57066 -7.90862,3.94434 -9.9772,3.94434c-2.30926,0 -7.11342,-1.32699 -9.85144,-3.93901c-1.82404,-1.74009 -2.71104,-3.16342 -1.5076,-5.55146c0.87431,-1.73493 2.38211,-2.21831 4.51945,-1.38232c2.74383,1.07321 4.94808,2.05674 6.93453,2.05674c1.91632,0 4.12023,-1.03941 6.73228,-1.94007c2.34055,-0.80704 4.58073,0.38321 4.86862,1.57929c0.29726,1.23503 0.63623,3.76763 -1.71864,5.23248z" fill="url(#color-1)" stroke="#000000" stroke-width="0"/><path d="M315.97773,178.3176c0,-4.74738 -1.18671,-14.2689 -0.04747,-18.22785c0.47338,-1.64504 1.86688,-3.41692 4.1139,-3.46439c2.25753,-0.04769 3.33098,1.70299 3.94266,3.6068c1.27047,3.95427 0.04746,13.29313 0.04746,18.13291c0,1.4774 -2.64187,1.5612 -3.99013,1.5612c-1.35307,0 -4.06642,-0.07427 -4.06642,-1.60867z" fill="url(#color-2)" stroke="#000000" stroke-width="0"/></g></g></svg>