<svg version="1.1" xmlns="http://www.w3.org/2000/svg" xmlns:xlink="http://www.w3.org/1999/xlink" width="160.96153" height="250.31783" viewBox="0,0,160.96153,250.31783"><defs><radialGradient cx="319.42313" cy="59.73507" r="120.92274" gradientUnits="userSpaceOnUse" id="color-1"><stop offset="0" stop-color="#835d12"/><stop offset="1" stop-color="#593b00"/></radialGradient><radialGradient cx="320.00005" cy="16.98535" r="80.48077" gradientUnits="userSpaceOnUse" id="color-2"><stop offset="0" stop-color="#88fc3b"/><stop offset="1" stop-color="#55e01b"/></radialGradient><linearGradient x1="298.35429" y1="165.65855" x2="298.35429" y2="172.72205" gradientUnits="userSpaceOnUse" id="color-3"><stop offset="0" stop-color="#8cff2e"/><stop offset="1" stop-color="#65df00"/></linearGradient><linearGradient x1="303.40801" y1="170.06251" x2="303.40801" y2="177.12601" gradientUnits="userSpaceOnUse" id="color-4"><stop offset="0" stop-color="#8cff2e"/><stop offset="1" stop-color="#65df00"/></linearGradient><linearGradient x1="308.96709" y1="172.15619" x2="308.96709" y2="179.21969" gradientUnits="userSpaceOnUse" id="color-5"><stop offset="0" stop-color="#8cff2e"/><stop offset="1" stop-color="#65df00"/></linearGradient><linearGradient x1="315.68133" y1="173.38352" x2="315.68133" y2="180.44702" gradientUnits="userSpaceOnUse" id="color-6"><stop offset="0" stop-color="#8cff2e"/><stop offset="1" stop-color="#65df00"/></linearGradient><linearGradient x1="322.68433" y1="172.87815" x2="322.68433" y2="179.94165" gradientUnits="userSpaceOnUse" id="color-7"><stop offset="0" stop-color="#8cff2e"/><stop offset="1" stop-color="#65df00"/></linearGradient><linearGradient x1="329.18198" y1="173.02254" x2="329.18198" y2="180.08604" gradientUnits="userSpaceOnUse" id="color-8"><stop offset="0" stop-color="#8cff2e"/><stop offset="1" stop-color="#65df00"/></linearGradient><linearGradient x1="335.10204" y1="170.56788" x2="335.10204" y2="177.63138" gradientUnits="userSpaceOnUse" id="color-9"><stop offset="0" stop-color="#8cff2e"/><stop offset="1" stop-color="#65df00"/></linearGradient><linearGradient x1="339.43381" y1="167.10247" x2="339.43381" y2="174.16597" gradientUnits="userSpaceOnUse" id="color-10"><stop offset="0" stop-color="#8cff2e"/><stop offset="1" stop-color="#65df00"/></linearGradient><linearGradient x1="337.62891" y1="171.28984" x2="337.62891" y2="178.35334" gradientUnits="userSpaceOnUse" id="color-11"><stop offset="0" stop-color="#8cff2e"/><stop offset="1" stop-color="#65df00"/></linearGradient><linearGradient x1="332.4308" y1="173.67231" x2="332.4308" y2="180.73581" gradientUnits="userSpaceOnUse" id="color-12"><stop offset="0" stop-color="#8cff2e"/><stop offset="1" stop-color="#65df00"/></linearGradient><linearGradient x1="325.71657" y1="175.40501" x2="325.71657" y2="182.46851" gradientUnits="userSpaceOnUse" id="color-13"><stop offset="0" stop-color="#8cff2e"/><stop offset="1" stop-color="#65df00"/></linearGradient><linearGradient x1="319.00234" y1="175.5494" x2="319.00234" y2="182.6129" gradientUnits="userSpaceOnUse" id="color-14"><stop offset="0" stop-color="#8cff2e"/><stop offset="1" stop-color="#65df00"/></linearGradient><linearGradient x1="311.92714" y1="175.26062" x2="311.92714" y2="182.32412" gradientUnits="userSpaceOnUse" id="color-15"><stop offset="0" stop-color="#8cff2e"/><stop offset="1" stop-color="#65df00"/></linearGradient><linearGradient x1="305.2129" y1="173.60011" x2="305.2129" y2="180.66361" gradientUnits="userSpaceOnUse" id="color-16"><stop offset="0" stop-color="#8cff2e"/><stop offset="1" stop-color="#65df00"/></linearGradient><linearGradient x1="299.36503" y1="169.91811" x2="299.36503" y2="176.98161" gradientUnits="userSpaceOnUse" id="color-17"><stop offset="0" stop-color="#8cff2e"/><stop offset="1" stop-color="#65df00"/></linearGradient></defs><g transform="translate(-239.5193,63.49542)"><g stroke-miterlimit="10"><path d="M320,167.8075c20.41591,0 36.96626,4.25664 36.96626,9.50746c0,5.25083 -16.55036,9.50746 -36.96626,9.50746c-20.41591,0 -36.96626,-4.25663 -36.96626,-9.50746c0,-5.25083 16.55037,-9.50746 36.96626,-9.50746z" fill-opacity="0.2549" fill="#000000" stroke="#000000" stroke-width="0" stroke-linecap="butt"/><path d="M298.94238,170.99324c0,0 15.22841,-232.18089 20.76923,-232.18089c5.44468,0 20.1923,232.1809 20.1923,232.1809c0,13.87713 -40.96153,11.85551 -40.96153,0z" fill="url(#color-1)" stroke="none" stroke-width="0" stroke-linecap="butt"/><path d="M239.51931,16.98534c0,-44.44829 36.03246,-80.48076 80.48077,-80.48076c44.44829,0 80.48076,36.03246 80.48076,80.48076c0,44.44829 -36.03245,80.48076 -80.48076,80.48076c-44.44829,0 -80.48077,-36.03246 -80.48077,-80.48076z" fill="url(#color-2)" stroke="#000000" stroke-width="0" stroke-linecap="butt"/><path d="M298.35429,172.72204v-7.06351" fill="none" stroke="url(#color-3)" stroke-width="2.5" stroke-linecap="round"/><path d="M303.40801,177.126v-7.06351" fill="none" stroke="url(#color-4)" stroke-width="2.5" stroke-linecap="round"/><path d="M308.96709,179.21968v-7.06351" fill="none" stroke="url(#color-5)" stroke-width="2.5" stroke-linecap="round"/><path d="M315.68133,173.3835v7.06351" fill="none" stroke="url(#color-6)" stroke-width="2.5" stroke-linecap="round"/><path d="M322.68433,172.87813v7.06351" fill="none" stroke="url(#color-7)" stroke-width="2.5" stroke-linecap="round"/><path d="M329.18198,180.08603v-7.06351" fill="none" stroke="url(#color-8)" stroke-width="2.5" stroke-linecap="round"/><path d="M335.10204,170.56786v7.06351" fill="none" stroke="url(#color-9)" stroke-width="2.5" stroke-linecap="round"/><path d="M339.43381,174.16596v-7.06351" fill="none" stroke="url(#color-10)" stroke-width="2.5" stroke-linecap="round"/><path d="M337.62891,178.35333v-7.06351" fill="none" stroke="url(#color-11)" stroke-width="2.5" stroke-linecap="round"/><path d="M332.4308,180.7358v-7.06351" fill="none" stroke="url(#color-12)" stroke-width="2.5" stroke-linecap="round"/><path d="M325.71657,175.40499v7.06351" fill="none" stroke="url(#color-13)" stroke-width="2.5" stroke-linecap="round"/><path d="M319.00234,182.61289v-7.06351" fill="none" stroke="url(#color-14)" stroke-width="2.5" stroke-linecap="round"/><path d="M311.92714,182.32411v-7.06351" fill="none" stroke="url(#color-15)" stroke-width="2.5" stroke-linecap="round"/><path d="M305.2129,180.6636v-7.06351" fill="none" stroke="url(#color-16)" stroke-width="2.5" stroke-linecap="round"/><path d="M299.36503,169.91809v7.06351" fill="none" stroke="url(#color-17)" stroke-width="2.5" stroke-linecap="round"/></g></g></svg>