<svg version="1.1" xmlns="http://www.w3.org/2000/svg" xmlns:xlink="http://www.w3.org/1999/xlink" width="78.2039" height="104.33403" viewBox="0,0,78.2039,104.33403"><g transform="translate(-202.50048,-108.25)"><g data-paper-data="{&quot;isPaintingLayer&quot;:true}" fill-rule="nonzero" stroke-width="0.5" stroke-linecap="butt" stroke-linejoin="miter" stroke-miterlimit="10" stroke-dasharray="" stroke-dashoffset="0" style="mix-blend-mode: normal"><path d="" fill="#9966ff" stroke="none"/><path d="" fill="#9966ff" stroke="none"/><path d="" fill="#9966ff" stroke="none"/><path d="" fill="#9966ff" stroke="none"/><path d="" fill="#9966ff" stroke="none"/><path d="" fill="#9966ff" stroke="#000000"/><path d="" fill="#9966ff" stroke="#000000"/><path d="" fill="#9966ff" stroke="#000000"/><path d="" fill="#9966ff" stroke="#000000"/><path d="" fill="#9966ff" stroke="#000000"/><path d="" fill="#9966ff" stroke="#000000"/><path d="" fill="#9966ff" stroke="#000000"/><path d="" fill="#9966ff" stroke="#000000"/><path d="" fill="#9d00ff" stroke="none"/><path d="M226.16239,210.83046c-2.88962,-1.20401 -6.01971,-1.76577 -8.90933,-2.96978c-3.42073,-1.42531 -5.44948,-5.04753 -7.86118,-7.86118c-5.57995,-6.50994 -5.66582,-15.48508 -5.73563,-23.52905c-0.02037,-2.34714 -1.1585,-4.90536 -1.15576,-7.368c0.00741,-6.67304 2.15182,-12.53671 4.226,-18.64463c0.95139,-2.8016 0.90212,-6.17171 2.83601,-8.41095c2.04611,-2.36917 4.27145,-4.59452 6.64063,-6.64062c2.58598,-2.23335 6.47677,-2.18 9.72087,-3.25281c10.33746,-3.41853 19.29462,-6.70809 30.13544,-2.01412c11.88229,5.14491 21.80096,15.40971 24.17858,28.28431c1.18466,6.41484 -0.21064,15.16295 -0.63714,20.73935c-0.46603,6.0933 -1.97331,11.87661 -4.98149,17.31245c-2.20515,3.98475 -8.26129,8.08974 -12.27885,9.63328c-11.30532,4.34348 -22.79615,9.38092 -34.69738,4.42207z" fill="#ff9d00" stroke="none"/><path d="M228.65625,132.5v-24h11v24z" fill="#b77100" stroke="#000000"/><path d="M262.52588,172.89112c2.60888,0.86963 1.73925,3.47851 1.73925,3.47851l-0.89439,2.57087c-0.0275,1.1188 0.27152,2.29473 -0.08249,3.35641c-0.43431,1.30248 -1.55133,2.2723 -2.19819,3.48335c-1.03862,1.94449 -1.27028,4.43025 -2.85001,5.96786c-0.93743,0.91244 -2.58905,0.37756 -3.8809,0.58362c-1.82724,0.29146 -3.63194,0.75773 -5.47609,0.90889c-4.95558,0.40619 -10.24636,0.12454 -15.22682,0.00937c-1.34356,-0.03107 -2.74158,0.19814 -4.06228,0.01822c-1.59024,0.62485 -3.18629,0.87547 -5.09365,-0.72555c-1.02332,-0.86687 -0.44834,-1.95995 -1.02794,-2.65694c-0.21323,-0.25641 -0.76356,0.03787 -0.97619,-0.21905c-0.26055,-0.31482 -0.13379,-0.48158 -0.06295,-0.67915c-1.02057,0.03417 -2.0711,0.18168 -2.69221,-0.51409c-1.12207,-1.25694 -0.54088,-3.32811 -0.90847,-4.97243c-0.52116,-2.33129 -2.18393,-8.01775 -2.82051,-10.24553c0,0 -0.75548,-2.64419 1.88871,-3.39967c2.64419,-0.75548 3.39967,1.88871 3.39967,1.88871c0.1488,0.52086 0.69667,2.4063 1.28284,4.47905c0.21027,0.01498 0.39625,0.0274 0.53555,0.0272c3.78806,-0.00546 6.76911,1.40078 9.51387,3.95517c1.12789,1.04966 1.15496,2.99832 2.09787,3.84641c1.32675,1.19334 3.1297,2.3034 4.54696,3.71547c1.00893,0.02024 2.01839,0.05393 3.02757,0.0808c0.37804,-0.21665 0.76728,-0.42576 1.17287,-0.62072c0.21021,-1.59422 1.31849,-0.88637 1.97013,-1.87156c0.19158,-0.28964 -0.15027,-0.79259 0.09606,-1.03737c0.37223,-0.36991 0.70016,0.05626 1.07345,-0.10883c1.18396,-0.52363 3.24663,-2.33697 4.07446,-3.2901c1.27823,-2.33429 2.99286,-3.59249 5.10274,-4.74091c1.3829,-1.60073 2.73663,-3.22221 4.04342,-4.90003c1.95079,-2.50465 3.62398,-5.44691 6.47858,-6.88781l0.22679,-0.11448c0,0 0.22318,-0.11265 0.33583,0.11053c0.11265,0.22318 -0.11053,0.33583 -0.11053,0.33583l-0.22679,0.11448c-2.77485,1.40065 -4.40974,4.30965 -6.30942,6.74869c-1.05426,1.35358 -2.13895,2.67069 -3.24483,3.96981c0.18298,-0.09264 0.36852,-0.18572 0.55659,-0.27976c0,0 0.22361,-0.1118 0.33541,0.1118c0.1118,0.22361 -0.1118,0.33541 -0.1118,0.33541c-0.57876,0.28938 -1.1304,0.56812 -1.65539,0.85235c-0.87936,1.01689 -1.77036,2.02562 -2.66846,3.03525c-2.3369,2.62707 -4.71377,5.17 -7.19799,7.65834c-0.16547,0.16575 -0.45155,0.38554 -0.72155,0.6173c0.96959,-0.01019 1.93809,-0.04666 2.90477,-0.12747c1.81002,-0.15132 3.56319,-0.76115 5.37424,-0.8995c0.44136,-0.03372 1.02379,0.76069 1.26877,0.39201c0.7735,-1.16408 0.57567,-2.75795 1.14999,-4.03214c0.42396,-0.94059 1.47568,-1.53783 1.80181,-2.51665c0.27868,-0.83642 -0.05499,-1.7624 -0.08249,-2.64359l1.10561,-3.42913c0,0 0.86963,-2.60888 3.47851,-1.73925zM228.60387,193.04067c-1.94073,-0.65747 -2.80983,-3.23367 -4.74453,-3.90867c-0.31559,-0.11011 -0.66397,-0.14539 -1.02401,-0.14987c-0.02875,0.13711 -0.03657,0.26594 0.04605,0.36576c0.21243,0.25667 0.76241,-0.03803 0.97544,0.21814c0.66292,0.79719 -0.04106,1.74145 0.96668,2.59512c1.41577,1.21198 2.70565,1.28193 3.97185,0.93986c-0.06409,-0.01873 -0.12792,-0.03881 -0.19148,-0.06034zM224.27684,182.71998c0.06477,0.64322 -1.16803,1.35506 -0.70538,1.80658c0.47559,0.46414 1.2482,-0.85929 1.8817,-0.65856c1.48542,0.47067 2.71702,1.54812 3.94656,2.50531c0.54088,0.42107 0.65671,1.37508 1.30891,1.58602c2.20449,0.713 4.6307,-0.20933 6.94762,-0.20933c0.29513,0 0.59034,0.00208 0.88562,0.00574c-1.34388,-1.23781 -2.9265,-2.23507 -4.14566,-3.33164c-1.00441,-0.90341 -0.95963,-2.78702 -2.10413,-3.85215c-2.65365,-2.46959 -5.50938,-3.82646 -9.17252,-3.82119c-0.09524,0.00014 -0.23244,-0.00944 -0.39388,-0.02261c0.73783,2.62027 1.49005,5.38498 1.55116,5.99181zM254.75912,177.36871c-1.45915,0.9388 -2.67346,2.06437 -3.65669,3.83697c-0.84559,0.98436 -3.04089,2.91256 -4.28259,3.46173c-0.28146,0.12448 -0.70495,-0.21072 -0.92324,0.00622c-0.22676,0.22535 0.14489,0.69191 -0.03147,0.95856c-0.73713,1.11444 -1.62571,0.36043 -1.98224,1.88905c-0.1904,0.11572 -0.37934,0.23302 -0.56716,0.35128c0.49776,0.0099 0.99538,0.01649 1.49277,0.01734c0.34798,-0.35742 0.82181,-0.71109 1.08386,-0.97358c2.47749,-2.4816 4.84768,-5.01744 7.17825,-7.6374c0.56605,-0.63634 1.12927,-1.2723 1.68851,-1.91017z" fill="#fe0000" stroke="none"/><path d="M222.90625,153.5c0,-1.51878 1.23122,-2.75 2.75,-2.75c1.51878,0 2.75,1.23122 2.75,2.75c0,1.51878 -1.23122,2.75 -2.75,2.75c-1.51878,0 -2.75,-1.23122 -2.75,-2.75z" fill="#fe0000" stroke="none"/><path d="M252.90625,153.5c0,-1.51878 1.23122,-2.75 2.75,-2.75c1.51878,0 2.75,1.23122 2.75,2.75c0,1.51878 -1.23122,2.75 -2.75,2.75c-1.51878,0 -2.75,-1.23122 -2.75,-2.75z" fill="#fe0000" stroke="none"/><path d="M245.40625,167.5c0,1.51878 -1.23122,2.75 -2.75,2.75c-1.47734,0 -2.68259,-1.16494 -2.74727,-2.62633c-0.61232,-0.50438 -1.00273,-1.26843 -1.00273,-2.12367c0,-1.51878 1.23122,-2.75 2.75,-2.75c0.57852,0 1.11531,0.17864 1.55822,0.48376c0.4581,-0.88158 1.37961,-1.48376 2.44178,-1.48376c1.51878,0 2.75,1.23122 2.75,2.75c0,1.51878 -1.23122,2.75 -2.75,2.75c-0.08849,0 -0.176,-0.00418 -0.26235,-0.01235c0.00817,0.08635 0.01235,0.17386 0.01235,0.26235z" fill="#fe0000" stroke="none"/></g></g></svg>