<svg version="1.1" xmlns="http://www.w3.org/2000/svg" xmlns:xlink="http://www.w3.org/1999/xlink" width="1117.82197" height="933.76682" viewBox="0,0,1117.82197,933.76682"><g transform="translate(293.47117,335.48612)"><g data-paper-data="{&quot;isPaintingLayer&quot;:true}" fill-rule="nonzero" stroke="none" stroke-width="0.5" stroke-linecap="butt" stroke-linejoin="miter" stroke-miterlimit="10" stroke-dasharray="" stroke-dashoffset="0" style="mix-blend-mode: normal"><path d="M-274.56973,-152.16457l-1.66756,-0.57259l-0.68733,-0.1921l-0.24616,-0.12844l-1.1119,-0.3818l-2.59318,-1.55141l-4.04413,-2.11012l-0.49549,-0.60578l-0.60623,-0.36269l-2.417,-3.33352l-3.67038,-4.48741l-0.06008,-0.65762l-0.51794,-0.71434l-0.25459,-7.74192l-0.52947,-5.79573l0.31659,-0.67805l-0.02459,-0.74791l2.7649,-5.12115l3.2771,-7.01874l0.75702,-0.45327l0.31372,-0.58108l5.13877,-2.68358l3.53273,-2.11521l0.69999,-0.09521l0.69371,-0.36227l4.54803,-0.35072l2.99425,-0.40728l1.17247,0.08597l0.27683,-0.02135l0.70752,0.09352l1.7584,0.12893l262.02496,45.75039l0.33799,-0.0676l0.75134,0.2578l26.60793,4.64583l3.40908,-3.63226l0.26185,-0.05927l0.24682,-0.251l8.00608,-1.61713l6.08751,-1.37797l0.28688,0.09042l0.29484,-0.05955l5.90753,2.01438l7.79002,2.45521l0.21888,0.2757l0.25411,0.08665l3.75846,4.9677l0.77976,0.9822l2.18341,-3.48485l1.50453,-0.66578l1.53486,-1.77721l6.37464,-1.72288l4.27706,-1.89267l1.92831,0.21554l1.87312,-0.50625l4.51512,1.2203l6.56249,0.73353l1.78725,1.52315l1.58827,0.42926l3.02399,3.50146l2.2428,1.91139l0.8,1.61185l1.35508,1.56904l1.02939,3.23523l0.82484,1.66191l0.71637,2.77864l6.64466,1.16018l106.8575,16.78728l42.38891,-20.64156l-0.20437,-0.52079l-0.49298,-0.78055l-10,-20l-1.39754,-3.66855l-0.01884,-0.12009l-1.21402,-1.98012l0.19967,-4.48634l-0.36436,-2.32278l0.56712,-2.23304l0.10244,-2.30165l1.0201,-2.11836l1.10542,-4.3526l1.73448,-1.54477l0.05274,-0.10952l2.39813,-3.10811l17,-18l1.97573,-1.713l0.1886,-0.21403l0.41286,-0.30745l0.38893,-0.33721l0.24954,-0.13824l2.09729,-1.56181l9.74254,-5.84552l25.24709,-41.23691l0.01983,-0.08728l0.21493,-0.29616l1.31672,-2.15064l2.37281,-3.12748l0.37849,-0.32755l2.38629,-3.28827l2.43654,-0.88542l1.61796,-1.40019l10.81702,-3.45383l6.8782,2.01821l7.05317,1.27888l8.12144,7.93593l0.81872,1.97687l1.7812,1.88362l0.65925,4.00905l0.19152,0.46245l0.71928,3.85928l0.21306,2.51269l0.05938,0.36108l-0.02139,0.08691l10.94647,129.09291l2.59273,-3.41101l1.69981,-2.55886l0.48858,-0.3202l1.36997,-1.80234l2.85441,-0.96618l4.78424,-3.13543l4.29682,0.0616l2.24585,-0.76019l4.17088,0.85219l4.25661,0.06103l2.03088,1.22363l4.21028,0.86024l4.00155,4.08747l2.58119,1.55519l0.9521,2.05396l0.40865,0.41743l1.11223,2.86357l2.30245,4.96708l0.05423,1.82207l0.42974,2.628l0.95082,15.2131l0.99379,0.03303l42.54561,-223.36447l1.11463,-3.76417l0.47577,-0.87865l0.68877,-2.44368l1.92782,-2.38867l1.20172,-2.21934l1.63594,-1.29666l2.36598,-2.93157l2.17232,-0.66552l2.72455,-2.1595l5.74809,-0.43621l3.67001,-1.12436l2.72232,0.63926l2.78835,-0.2116l3.4526,1.67711l5.61197,1.31781l2.35876,2.554l2.04363,0.9927l1.88537,3.2615l1.4163,1.53353l0.84492,2.37817l1.53621,2.6575l0.30351,2.52069l0.33451,0.94153l0.52054,3.89107l0.00505,0.1516l1.88382,2.18127l0.03208,0.10083l0.07486,0.08821l1.52586,4.94264l1.10157,3.46208l0.0157,0.15704l0.01705,0.05524l0.12101,1.32541l0.23686,2.36856l0,110.48684l0.875,1.01316l0.34016,1.06909l0.72972,1.02429l0.8796,4.03357l0.78489,2.4668l0.20916,2.09164l0.0478,0.21919l0.00175,0.27627l0.13191,1.31915v139.57966l1.11685,0.30423l0.975,0.22917l0.18448,0.08668l0.64932,0.17688l2.94185,1.51044l4.38658,2.06104l0.31329,0.35202l0.38091,0.19557l2.81045,3.3903l4.0444,4.54437l0.05325,0.39871l0.33867,0.40854l0.78269,7.98716l0.80745,6.04549l-0.17413,0.41748l0.04411,0.45018l-2.54393,5.54332l-0.1592,0.38169l141.64801,55.66952l0.22127,0.01397l0.65365,0.32988l1.66949,0.65613l3.49267,1.79238l0.50848,0.41331l3.81294,1.92429l1.19978,2.15025l1.47685,1.20044l5.28346,10.05096l-0.80988,7.29903l-0.13941,7.3425l-6.53709,9.28457l-1.61949,0.99969l-1.46739,1.97733l-4.0295,1.41582l-0.55759,0.34419l-3.69488,1.32637l-0.5022,0.12555l138.49962,242.58418l0.01764,0.01167l0.02876,0.06959l2.6035,4.56006l1.59755,3.58597l0.89624,4.19009l0.5914,1.43127l-0.11134,0.81308l0.51,2.38435l-2.18445,11.14293l-0.20605,0.20495l-0.03943,0.28794l-7.57714,8.45717l-2.21026,1.02956l-0.58184,0.57876l-1.49864,0.39035l-3.88415,1.80927l-3.82455,0.88557l-5.20807,0.66961l-0.07287,0.01898l-0.01994,-0.00705l-290.32363,37.32732l-1.54579,1.89081l-0.88744,0.26577l-1.1303,1.03866l-4,3l-1.09694,0.66327l-1.40306,1.21173l-4.7089,1.49829l-4.6661,1.62671l-1.84949,-0.12755l-1.27551,0.12755h-3l-1.88471,-0.18847l-0.23646,0.01549l-0.33618,-0.0484l-1.54265,0.72666v5.49472l-0.39062,3.90625l-2.73437,8.59375l-7.42187,8.59375l-14.45312,3.90625l-14.45312,-3.90625l-7.42187,-8.59375l-2.73437,-8.59375l-0.39062,-3.90625v-6.96564l-21.57457,2.77387l-2.77758,16.3731l-1.03846,3.78589l-0.55674,1.07967l-0.73963,2.65331l-1.75921,2.19262l-1.0776,2.08976l-1.77626,1.46719l-2.49295,3.10712l-2.02897,0.62799l-2.45649,2.02906l-5.94834,0.57232l-3.8685,1.19735l-2.5156,-0.58309l-2.57043,0.24732l-3.67752,-1.69553l-5.82147,-1.34936l-2.16841,-2.33439l-1.9288,-0.88928l-2.06283,-3.40789l-0.36297,-0.39075l-0.73347,-0.07293l-2.7037,-0.54463l-14.5788,109.34101l-0.24884,1.05224l-0.03971,1.55132l-4.73251,10.32183l-2.53147,1.53963l-5.68965,5.04978l-3.33882,0.4413l-1.2317,0.74911l-5.15785,0.09542l-5.11425,0.67597l-1.32976,-0.55676l-3.36728,0.06229l-6.38002,-4.1434l-2.73302,-1.14429l-6.22099,-9.49927l-0.27095,-1.52799l-0.4032,-1.00328l-38.76744,-133.57913l-16.46161,-3.31601l-27.9212,88.45267l-1.54837,3.60748l-0.63523,0.90153l-1.0305,2.43335l-2.12222,2.04104l-1.4065,1.99613l-1.86526,1.15048l-2.79025,2.68351l-2.16944,0.37558l-2.83958,1.75143l-5.86105,-0.24513l-3.88218,0.6721l-2.52419,-0.94004l-2.6912,-0.11256l-3.31761,-2.12521l-5.49733,-2.04728l-1.938,-2.71567l-1.85395,-1.18761l-1.53102,-3.55566l-1.27304,-1.78387l-0.5222,-2.38539l-1.16447,-2.70437l-0.00605,-2.64255l-0.23585,-1.07734l-0.02799,-3.92563l6.29771,-67.86104l-0.6235,0.10765l-14,1l-1.97985,-0.05617l-1.9805,0.02454l-77.24332,-6.75879l-72.97116,-1.14915l-1.67123,-0.19375l-1.68026,-0.08527l-30.38591,-4.60393l-0.2665,0.0418l-0.80214,-0.20372l-1.54546,-0.23416l-3.80365,-0.97139l-0.63857,-0.31513l-4.21584,-1.07069l-1.60455,-1.8016l-1.6282,-0.80349l-7.38494,-8.62551l-0.83985,-7.3617l-1.46974,-7.26222l1.58046,-3.7931l-0.23653,-3.53377l1.17987,-35.9205l-4.37704,-1.31311l-3.62926,-1.4966l-1.59236,-1.08825l-3.11891,-1.51732l-1.30313,-1.50478l-1.43119,-0.9781l-1.62223,-2.5478l-3.07692,-3.55303l-0.1888,-1.57596l-1.2107,-1.90147l0.1835,-6.6727l-0.5649,-4.71527l0.74166,-1.71254l0.0513,-1.86553l2.50414,-4.03511l2.65281,-6.12546l1.90069,-1.21193l0.83694,-1.34863l4.28993,-1.9204l2.54675,-1.62388l1.71042,-0.28186l1.81687,-0.81333l3.46793,-0.05756l1.05598,-0.17402l5.79295,-176.36326l-1.30088,-0.7352l-7.22911,-3.90298l-0.13529,-0.25907l-0.19445,-0.10989l-2.79793,-5.62018l-2.12861,-4.07605l-0.01822,-0.23626l-0.11576,-0.23253l-0.29023,-5.03225l-0.26917,-3.49054l0.04725,-0.35742l-0.0071,-0.12311l0.17986,-1.18384l0.29444,-2.2275l3.65503,-15.53389l7.83489,-70.45811l0.81994,-3.83915l0.8145,-1.8298l0.97242,-3.40652l1.20285,-1.48028l0.67763,-1.52231l1.33595,-1.23882l-3.53623,-2.80818l-1.88236,-0.77509l-1.30713,-1.97046l-1.61522,-1.56877l-5.0294,-7.48562l-0.25526,-1.34692l-0.06926,-0.10441l-0.02174,-0.37576l-1.76806,-9.32936l1.08307,-2.51127l-0.15795,-2.73031l4.85494,-8.16043l0.14906,-0.34562l0.10082,-0.07439l0.70093,-1.17816l7.28806,-5.31164l2.05466,-0.92105l1.9027,-1.40393l2.03396,-0.08387l0.59095,-0.19698l3.82932,-0.86469l0.08711,-0.00119l0.08302,-0.02641l3.90625,-0.39062h1v-23l0.08296,-0.82965l-0.02759,-0.83333l2.517,-37.75493zM520.76787,118.5l-0.61347,50.30486l-0.26076,2.32132l-0.12801,1.28008l-0.0244,0.07669l-0.02506,0.22311l-1.12985,3.4066l-1.55507,4.88735l-0.10697,0.12386l-0.04708,0.14196l-3.10647,3.50952l-4.16135,4.81841l-0.13628,0.03683l-0.12201,0.13784l-8.04008,2.06813l-6.15474,1.66344l-0.15218,-0.04113l-0.15267,0.03927l-0.94124,-0.26675l-0.75391,44.48045v27.78815l-0.39062,3.90625l-2.73437,8.59375l-1.875,2.17105v16.97663l3.22737,1.07579l0.26649,-0.05393l1.71315,0.71381l2.69869,0.89956l3.58227,1.60584l0.35771,0.2607l2.12975,0.8874l2.22366,2.28543l2.57694,1.87811l1.17967,1.98285l0.30867,0.31725l2.09631,3.31916l0.10071,0.20143l0.41361,0.47891l0.30476,0.95783l0.18092,0.36183l0.092,0.24151l1.12909,1.89782l-0.05354,0.92548l0.22999,0.60374l0.28789,1.83527l0.56327,1.77027l0.39063,3.90625v0.40454l0.15576,0.993l-0.15576,0.61332v44.65136l0.1286,4.75831l244.6457,-31.45445l-129.58272,-226.96609zM322.3206,-114.77965l-0.09032,0.08605l-2.40598,2.92373l-1.69086,0.87584l-3.032,1.87075l-8.64922,4.21179l16.93929,2.66116zM317.13512,-175.93256l-10.16605,6.09963l-1.31754,1.39504l3.95815,2.08323l2.45282,0.24528l3.81773,1.21473l1.56079,0.18273l0.6895,0.51817z" fill="#66b3ff"/><path d="M384.54088,-67.5c-15.26595,0.27375 -30.66145,1.5843 -45.9749,2c-20.24673,0.54962 -40.7492,1.62719 -61.00067,1.95909c-17.86667,0.29282 -35.98735,1.01823 -53.84553,-0.0004c-46.32018,-2.6421 -92.63573,-5.36512 -138.95646,-7.99749c-12.09223,-0.68719 -24.18738,-1.32225 -36.28225,-1.9612c-1.85982,-0.09825 -5.94806,0.40134 -11.23802,1.15659c0.92231,10.17829 -1.50499,21.48695 -2.0868,30.91247c-0.34771,5.63292 0.061,11.28762 0,16.93094c-0.02911,2.69307 -0.96878,5.42448 -1,8.06906c-0.20435,17.30911 0.1211,34.62105 0,51.93094c-0.04609,6.58811 -1.95298,13.18319 -2,19.7767c-0.23711,33.24843 -0.16719,66.49896 0,99.74782c0.05051,10.04488 1.9383,20.38022 2,30.47549c0.25697,42.04596 1.11152,84.13977 2,126.2233c0.20849,9.87512 1.96565,19.893 2,29.7767c0.06603,18.99989 0.0339,38.00003 0,57c-0.01248,6.99147 -1.85808,13.86482 -2,20.7767c-0.24041,11.70811 2.44961,23.76863 -0.39062,35.12955c-3.14044,12.56178 -10.1847,21.09375 -24.60937,21.09375c-14.63883,0 -24.8506,-10.88499 -25,-25c-0.11642,-10.99938 -0.05582,-22.00014 0,-33c0.03404,-6.70871 1.91017,-13.28453 2,-20.03986c0.23884,-17.9621 0.20488,-35.92855 0,-53.89107c-0.11338,-9.93996 -1.94608,-20.09504 -2,-30.06906c-0.22704,-41.99367 -1.22812,-83.94748 -2,-125.93094c-0.18292,-9.94923 -1.97705,-20.10416 -2,-30.06906c-0.07983,-34.66657 -0.05782,-69.33338 0,-104c0.01198,-7.18227 1.92196,-14.55354 2,-21.65277c0.28204,-25.65698 0.72669,-50.06394 1,-75.34723c0.05097,-4.71545 1.68089,-9.47621 2,-14.06906c0.22942,-3.30206 -0.12805,-6.62981 -0.16709,-9.94045c-0.41812,-0.05373 -0.81735,-0.11538 -1.19646,-0.18537c-12.73321,-2.35075 -21.68798,-8.84907 -22.58776,-23.24566c-0.3113,-4.98085 0.79618,-10.18961 2.99708,-14.66864c6.58835,-13.40788 23.98688,-11.58352 35.69507,-12.7984c8.31748,-0.86304 29.8377,-4.61726 44.25916,-5.09242c12.69889,-0.4184 38.41987,1.87726 41.39269,2.04315c45.89213,2.56096 92.40324,6.02463 138.32614,7.95685c37.39004,1.5732 74.50739,-1.34672 111.87211,-1.95909c11.6473,-0.19089 23.39917,-0.29708 35.02443,-1.04091c3.26421,-0.20886 6.96869,-0.98803 10.38463,-1c12.64071,-0.04429 25.28184,0.08232 37.92236,0c1.92623,-0.01254 3.71009,-0.45359 5.52103,-0.793c1.16138,-2.42281 2.70161,-4.62948 4.54394,-6.54324c4.54801,-4.72434 10.93707,-7.66376 18.01267,-7.66376c4.98998,0 9.6385,1.46195 13.54062,3.98091c3.10186,1.54571 5.69746,3.94195 8.33438,8.51909c6.23071,10.81517 3.10416,25.85394 3.94858,37.73584c2.28651,32.17363 0.22809,64.50943 0.17642,96.76416c-0.00508,3.16928 -0.82026,6.46062 -1,9.55644c-0.71225,12.2681 -1.3552,24.32325 -3,36.51262c-0.95101,7.04781 -0.29015,14.38133 -1.25126,21.46647c-0.47477,3.49991 -1.6748,10.94267 -2.33073,16.8112c1.07398,0.38825 2.09506,0.88828 3.03511,1.55952c0.21193,0.15133 0.97554,1.08395 1.84425,2.13544c1.14423,0.98453 2.19835,2.07088 3.14829,3.24499c1.78365,-8.12247 1.06005,-16.59819 1.60621,-24.89624c0.83057,-12.61926 -0.14186,-27.91516 9.21558,-37.63934c1.68612,-1.7522 2.88432,-4.49773 5.24852,-5.06675c2.49211,-0.59981 5.06258,-0.81616 7.57464,-1.32602c2.37879,-0.48281 4.84806,-1.95379 7.17278,-1.25567c1.84002,0.55256 3.5805,1.39941 5.40496,2.00133c2.91483,0.96166 6.69423,0.81962 8.63515,3.1974c4.97788,6.09828 8.89496,12.22357 8.68685,20.39277c-0.61143,24.00147 -1.21887,48.00345 -2,72c-0.18262,5.60998 -3.51153,10.21544 -4.2215,15.69407c-1.17695,9.08218 -1.59207,18.26095 -1.76886,27.41737c-0.41308,21.39414 0.12274,42.79661 0,64.19439c-0.08097,14.11546 -10.42435,25 -25,25c-12.16563,0 -15.69735,-3.84089 -21.875,-12.5c-0.66349,-0.93001 -0.34356,-2.3597 -1.03917,-3.26595c-0.25124,-0.32731 -0.77157,0.31387 -1.17958,0.37532c-0.65842,0.09916 -1.32074,0.16797 -1.9842,0.2272c0.14041,4.69581 0.45222,9.11566 1.07795,12.08578c3.4522,16.38627 9.96764,34.0165 10,51.07764c0.05058,26.66662 0.02061,53.33334 0,80c-0.00519,6.71499 -0.84201,16.26196 -1,20.62461c-0.67782,18.71642 1.10641,45.37539 -26,45.37539c-14.42468,0 -21.46893,-8.53197 -24.60937,-21.09375c-1.72159,-6.88635 0.03967,-13.77901 0.60938,-20.55902c0.69753,-8.30136 0.91697,-16.64163 1,-24.97184c0.25854,-25.93836 0.19419,-51.88002 0,-77.81895c-0.08778,-11.72574 -7.2291,-35.12782 -9.25356,-43.49305c-2.88487,-11.92047 -1.50288,-31.37699 -1.74644,-41.2867c-0.14613,-5.94584 -0.84717,-12.01778 -1,-18.00695c-0.08986,-3.52129 -1.98439,-7.10074 -2,-10.76974c-0.06174,-14.50804 0.16192,-29.01725 0,-43.52451c-0.0273,-2.44571 -0.98222,-4.97709 -1,-7.47549c-0.11119,-15.62745 -0.31645,-34.2862 1.12407,-50.48759c0.77909,-8.76236 2.10816,-15.07298 2.98013,-24.01853c0.67959,-6.97183 0.30159,-14.53026 1.23595,-21.60385c1.79619,-13.59809 3.54716,-27.74385 3.65985,-41.44647c0.22099,-26.87174 0.23587,-53.74578 0.07566,-80.61815c-17.75559,1.34042 -39.93994,0.16113 -40.69103,0.17459z" fill="#000000"/></g></g></svg>