<svg version="1.1" xmlns="http://www.w3.org/2000/svg" xmlns:xlink="http://www.w3.org/1999/xlink" width="1042.5" height="609.5" viewBox="0,0,1042.5,609.5"><g transform="translate(193.25,136.75)"><g data-paper-data="{&quot;isPaintingLayer&quot;:true}" fill-rule="nonzero" stroke-width="0.5" stroke-linecap="butt" stroke-linejoin="miter" stroke-miterlimit="10" stroke-dasharray="" stroke-dashoffset="0" style="mix-blend-mode: normal"><path d="M-193,472.5v-569h229v569z" fill="#000000" stroke="#000000"/><path d="M445,420.5v-531h404v531z" fill="#000000" stroke="#000000"/><path d="M3.15625,144.5v-3h49v3z" fill="#000000" stroke="#000000"/><path d="M7.15625,191.5v-2h42v2z" fill="#000000" stroke="#000000"/><path d="M24.15625,-7.5v-129h425v129z" fill="#000000" stroke="#000000"/><path d="M32.15625,8.5v-34h424v34z" fill="#000000" stroke="#000000"/><path d="M28.15625,424.5v-76h449v76z" fill="#ffffff" stroke="#000000"/><path d="M35.15625,351.82051v-344.32051h410v344.32051z" fill="#ffffff" stroke="#000000"/><path d="M404.15625,386.5v-8h57v8z" fill="#ffffff" stroke="#000000"/><path d="M23.15625,428.5v-85h465v85z" fill="#000000" stroke="#000000"/><path d="M318.14343,83.16451c0.49448,0.22708 0.98715,0.45962 1.47832,0.69669l2.75046,-0.78584c-0.96684,-0.11493 -1.92125,-0.28485 -2.84354,-0.58798c-0.35734,0.17217 -0.83403,0.40794 -1.38524,0.67714zM335.81908,87.9803c-0.27801,0.29323 -0.56482,0.56915 -0.88343,0.76574c-0.76561,0.47239 -1.51077,1.01233 -2.2593,1.54914c4.30044,1.6586 8.5692,3.3992 12.93587,4.86929c-1.75183,-2.00057 -3.58378,-4.41698 -5.48367,-5.57285c-1.28408,-0.78122 -2.84737,-0.97415 -4.22541,-1.57431c-0.02794,-0.01217 -0.05596,-0.02451 -0.08406,-0.03702zM328.43326,100.55311c-3.21978,-1.24647 -6.44142,-2.483 -9.69344,-3.61237l-0.47098,-0.60961l-0.16344,0.24515l-2.92902,-1.95268c-0.60266,-0.38921 -1.12436,-0.89305 -1.53425,-1.48067c-0.82168,-0.34655 -1.64697,-0.68438 -2.4747,-1.0151c-2.10163,-0.83972 -4.62362,-0.82051 -6.42761,-2.18709c-2.51949,-1.9086 -6.36732,-4.13544 -6.07294,-7.28249c0.31039,-3.31809 4.58896,-4.92565 7.38461,-6.73958c3.76749,-2.4445 8.50183,-2.89863 12.73234,-4.40604c3.04199,0.62028 6.18944,0.55791 9.25342,1.0584c2.77077,0.45259 5.30364,1.71844 7.79081,3.05106c0.14051,-0.02191 0.28267,-0.03798 0.42663,-0.04768c7.76713,-0.52355 18.48948,4.35725 26.03682,6.04405c6.19454,1.38445 12.5731,1.77771 18.94608,1.87529c0.62932,-1.62568 1.97708,-3.11651 4.40196,-4.38415c7.08265,-3.70254 14.46166,-1.42729 20.93813,1.99929l2.52772,-1.68515l0.18972,0.28458l0.4447,-0.64904c0.27164,-0.07938 0.52819,-0.16542 0.77194,-0.25744c0.2046,-0.1387 0.4103,-0.27001 0.6168,-0.39345c0.49691,-0.29704 1.02104,-0.53906 1.55812,-0.75525c1.55751,-1.07096 2.76581,-2.40779 5.05314,-3.59386c1.9807,-1.02707 4.35798,-1.2629 6.20053,-2.5211c3.41237,-2.33018 8.24274,-8.83042 12.74777,-8.8386c0.49807,-0.0009 0.98677,0.04932 1.46813,0.13967v-0.33924h3c1.2039,0 2.31746,0.38681 3.22317,1.04292c1.30926,0.22804 2.70317,1.01138 3.69618,2.9974c2.45967,4.91935 -2.45967,7.37902 -2.45967,7.37902l-0.57059,-0.03026c-2.83362,2.83362 -5.38421,5.88315 -9.29527,7.37492c-0.86441,0.32971 -1.87483,-0.18817 -2.78198,-0.04779c-0.59945,0.65165 -1.36944,1.27384 -2.70707,1.86512c-0.13358,0.05905 -0.26976,0.10735 -0.40811,0.14672c-0.61291,0.56467 -1.22988,1.12858 -1.93605,1.52894c-3.77326,2.13926 -4.33802,2.25675 -8.02134,3.46075c-0.4896,0.16004 -1.00128,0.26316 -1.49566,0.4094c1.04885,0.84258 2.03385,1.75333 2.9114,2.76923c1.28209,1.4842 2.47496,3.05469 3.52358,4.71209c0.84812,1.34049 0.76009,3.57619 2.21294,4.21294c1.93088,0.84626 4.02325,1.26725 6,2c1.39661,1.52461 3.66279,2.57453 4.18982,4.57382c0.14262,0.54103 0.25576,1.10314 0.33454,1.67579c2.35551,1.19524 4.73291,2.34885 4.83723,2.41165c2.75407,1.6578 7.10182,2.29928 7.99938,5.38595c1.28366,4.41445 -0.70788,7.03346 -3.58507,8.7912c0.0312,0.02739 0.06226,0.0551 0.09318,0.08316c2.2518,2.0433 6.09003,4.07962 5.72877,7.09876c-0.39594,3.30897 -4.59421,4.91757 -7.38461,6.73958c-1.76521,1.1526 -4.03858,1.22717 -6,2c-1.65843,0.65344 -3.10591,1.86359 -4.84112,2.27153c-4.15173,0.97607 -9.31412,-0.7333 -12.81623,-2.48108c-2.10894,-1.0525 -3.85025,-2.34477 -5.34105,-3.80386c-0.08211,0.02004 -0.1643,0.0398 -0.24655,0.05929c-1.85969,0.44055 -4.05549,0.959 -5.7333,0.04386c-7.16065,-3.90569 -8.05629,-7.4594 -11.77407,-13.22995c-0.33532,-0.52047 -0.67826,-1.03609 -1.02563,-1.54889c-1.616,0.56579 -3.36432,0.80839 -4.91038,1.5485c-2.0249,0.96934 -3.15973,3.5011 -5.31167,4.1406c-7.41864,2.20462 -15.72416,-3.12261 -22.0663,-5.77365c-1.41487,-0.59142 -2.81688,-1.21268 -4.20972,-1.8546c-1.24324,0.22797 -2.55689,0.00302 -3.82874,0.04691h-3c-3.03757,0 -5.5,-2.46243 -5.5,-5.5c0,-0.07843 0.00164,-0.15647 0.00489,-0.2341c-1.26543,-0.42503 -2.51321,-0.87559 -3.57402,-1.6581l-5.54981,-1.84994c-2.24744,-0.69118 -3.88107,-2.78375 -3.88107,-5.25786c0,-0.67906 0.12306,-1.32937 0.3481,-1.92985c-2.59005,-0.99701 -5.09823,-2.22264 -7.57109,-3.51704zM390.50137,113.11854c-1.19309,-0.32253 -2.40398,-0.63058 -3.60832,-0.89832c-0.35175,0.13915 -0.70476,0.27203 -1.0634,0.37125c-0.03705,0.01025 -4.48132,1.20678 -9.30611,2.50555c1.01992,0.42605 2.03877,0.85465 3.05578,1.28759c1.16422,0.49561 2.38701,2.18479 3.47216,1.53405c0.37875,-0.22713 0.27685,-0.89136 0.61782,-1.17204c1.25526,-1.03332 2.62312,-1.94675 4.07051,-2.68735c0.86615,-0.44319 1.81077,-0.69928 2.76156,-0.94072zM429.91957,132.67334c0.67304,0.19404 1.34066,0.23409 1.97304,-0.02621c0.75954,-0.31264 1.52726,-0.75019 2.30823,-1.21672c-0.16808,-0.08355 -0.33412,-0.16934 -0.49822,-0.25807c-0.51792,0.32509 -1.03677,0.64843 -1.56309,0.95763c-0.74603,0.15819 -1.48544,0.34147 -2.21996,0.54337zM415.31502,106.67699c0.87484,0.30754 1.7355,0.65631 2.59347,1.02425c-0.67247,-0.49516 -1.35635,-0.96368 -2.14213,-1.21508c-0.17446,-0.05582 -0.31596,0.04387 -0.45134,0.19083z" fill="#bc0b00" stroke="none"/><path d="M447.0756,31.04033c1.63083,3.26167 0.0178,5.44205 -1.25447,6.54114c0.19814,0.41416 0.39067,0.83104 0.57632,1.25123c1.98784,4.49937 2.02125,9.62849 3.11643,14.42395c0.6027,2.63906 1.46427,5.20618 2.40836,7.74825c0.0776,-0.00325 0.15562,-0.00489 0.23402,-0.00489c3.03757,0 5.5,2.46243 5.5,5.5c0,1.51878 -0.61561,2.89378 -1.61091,3.88909l-0.43436,0.43436c0.87342,2.58541 1.59833,5.20712 1.99211,7.9137c0.37256,2.56072 0.05102,5.17518 0.05316,7.76286c0.00409,4.94491 0.46397,7.64491 -1.47017,12.22504c-1.32303,3.13299 -8.01949,10.59494 -9.16784,11.69095c-2.44683,2.33531 -4.72871,5.35721 -7.98965,6.25549c-12.39445,3.41426 -9.22944,-5.24865 -9.3585,-12.56138c-0.07878,-4.46388 0.04089,-8.9564 0.66425,-13.37724c0.03847,-0.27283 0.07346,-0.5466 0.10568,-0.82113c-2.5166,1.9916 -5.52702,3.29994 -8.17347,5.12435c-4.29608,2.96163 -13.5264,11.86268 -20.00207,9.62834c-4.00772,-1.38281 -5.71118,-5.84123 -6.5349,-10.38502l-3.93952,2.05015c-0.78218,0.42747 -1.67962,0.67046 -2.63381,0.67046c-3.03757,0 -5.5,-2.46243 -5.5,-5.5c0,-1.90251 0.96598,-3.57941 2.43423,-4.56697l8.27484,-5.72874c-0.06643,-0.7345 -0.12933,-1.46928 -0.18898,-2.20433c-0.00669,0.00002 -0.01339,0.00004 -0.02008,0.00004c-3.03757,0 -5.5,-2.46243 -5.5,-5.5c0,-1.34294 0.48131,-2.57346 1.28084,-3.52847c-0.72366,-0.68467 -1.41774,-1.38711 -2.08654,-2.10819c-2.85871,2.30219 -5.52669,5.04435 -8.25327,6.5653c-2.01356,1.12321 -4.51131,1.31126 -6.39017,2.64765c0,0 -4.57628,3.05085 -7.62713,-1.52543c-3.05085,-4.57628 1.52543,-7.62713 1.52543,-7.62713c1.27527,-0.81785 2.43939,-1.84279 3.82581,-2.45355c1.18641,-0.52265 2.64937,-0.27167 3.78402,-0.8988c0.01365,-0.00755 0.02727,-0.01514 0.04086,-0.02278c-0.06553,-0.33945 -0.09984,-0.69001 -0.09984,-1.04859c0,-0.23539 0.01479,-0.46732 0.04348,-0.69493c-1.66135,-0.45509 -3.00873,-1.6697 -3.64562,-3.24733c-0.76949,0.7698 -1.56419,1.51152 -2.41093,2.19564c-2.66602,2.15399 -12.98255,10.45798 -17.16552,2.63814c-4.04961,-7.57054 3.6895,-10.97974 7.27947,-14.25325c4.25545,-3.88033 10.33845,-12.4763 17.91279,-12.12469c0.70506,-2.22371 0.81685,-4.70537 1.44246,-6.96852c2.33039,-8.43023 1.83174,-17.00403 7.79047,-24.032c2.08252,-2.45621 8.40455,-8.35068 12.20267,-4.15544c3.44527,3.8055 2.5322,9.94961 3.7983,14.92441c0.39018,3.33658 0.68185,6.68194 0.90604,10.03331c1.35328,-3.50138 2.6861,-7.01192 3.98825,-10.5385c6.01554,-16.29166 8.42622,-33.94968 11.98184,-50.9368l0.0184,-0.03069l-0.01113,-0.00247l1.9765,-8.89425c0.5047,-2.51676 2.72721,-4.41263 5.39253,-4.41263c3.03757,0 5.5,2.46243 5.5,5.5v11c0.31043,1.29669 0,2.66667 0,4c0,2.03322 0.00004,4.06644 0.00009,6.09966c0.75005,-0.3834 1.59972,-0.59966 2.49991,-0.59966c3.03757,0 5.5,2.46243 5.5,5.5v6h-0.06834c0.02048,0.11839 0.03943,0.23719 0.05678,0.35643c0.00913,0.06272 -0.78955,6.16889 -1.5454,11.93409c-0.17634,2.94175 -0.3524,5.89208 -0.44571,8.8811c-0.16206,5.19092 0.72377,11.10942 -0.97694,16.31276c0.99727,0.09786 1.99334,0.37276 2.98964,0.61288l0.03031,-0.01662c0,0 4.91935,-2.45967 7.37902,2.45967zM446.68137,80.07486c-1.47675,1.14166 -3.0397,2.17614 -4.65396,3.06473c-0.85747,2.86272 -0.46752,5.97853 -0.77802,8.95766c-0.2976,2.85542 -0.07055,5.76679 -0.15816,8.63783c2.33845,-2.41037 5.39511,-5.80916 5.60622,-8.90709c0.2621,-3.84613 0.54442,-7.74704 0.01195,-11.56514c-0.00861,-0.06176 -0.01797,-0.12443 -0.02804,-0.188zM424.85178,79.90913c-0.0159,-0.04776 -0.0318,-0.0953 -0.04771,-0.1426c-0.16424,-0.48821 -0.32643,-1.25385 -0.48366,-2.20742c-2.10775,0.98667 -4.09174,2.24373 -6.25595,3.09926c-1.01038,0.39941 -2.21655,0.1625 -3.19836,0.62773c-0.57537,0.27264 -0.72394,1.07179 -1.2229,1.46728c-1.23223,0.9767 -2.61761,1.74283 -3.92642,2.61424c-1.26585,0.49943 -2.48841,1.09383 -3.67708,1.75676c0.17841,1.60906 0.34021,3.21935 0.39672,4.83617c0.02802,0.8017 -1.18552,2.46502 -0.38839,2.37503c1.16132,-0.13109 1.45934,-1.84678 2.35539,-2.59708c2.44806,-2.04986 5.00884,-3.96945 7.64255,-5.77459c2.40419,-1.64782 5.20987,-2.71161 7.45348,-4.57217c0.51823,-0.42976 0.95231,-0.93962 1.35234,-1.48262zM404.65972,74.35331c4.5101,-2.84702 9.06621,-5.63204 13.54131,-8.52596c-3.97784,-0.38696 -7.97302,-0.58893 -11.95645,-0.92006c-0.65692,1.15755 -1.32015,2.31174 -1.98553,3.46451c0.08588,1.57113 0.18433,3.14112 0.29855,4.70969c0.03089,0.42422 0.06514,0.84814 0.10212,1.27181zM420.80433,10.70817c-0.1189,0.43742 -0.23945,0.87409 -0.36175,1.30997c-1.52414,5.43211 -3.55777,10.82885 -5.71204,16.16844c0.20651,-0.05527 0.41781,-0.09882 0.63314,-0.1299l2.35748,-1.8523c0.94123,-0.75365 2.13553,-1.20438 3.43509,-1.20438c0.00541,0 0.01081,0.00001 0.01621,0.00002c-0.15351,-4.7633 -0.27921,-9.52894 -0.36813,-14.29185zM392.65633,43.0626c-0.27591,-7.53411 -0.68108,-15.05507 -1.51014,-22.53764c-1.40944,7.79361 -1.63643,17.27354 -5.47294,24.36698c0.32728,0.59063 0.64725,1.18998 0.96983,1.78418c0.36529,-0.18401 0.72092,-0.37761 1.06146,-0.58621c1.65347,-1.01286 3.30446,-2.02023 4.95179,-3.02731zM440.14322,67.56802c-0.01776,0.59002 -0.04185,1.17837 -0.07321,1.76451c0.63883,-0.76732 1.29252,-1.51521 2.00185,-2.1863c-0.23399,-0.5675 -0.44877,-1.09473 -0.63531,-1.56813c-0.37771,0.67428 -0.82378,1.34072 -1.29333,1.98993zM422.15198,49.24041c-0.03589,-0.76604 -0.07145,-1.53238 -0.10664,-2.29897c-0.93642,0.69846 -1.86281,1.40474 -2.77992,2.1191c1.0929,0.04251 2.08385,0.10083 2.88656,0.17987z" fill="#06ff00" stroke="none"/><path d="M37.15625,346.5v-57h408v57z" fill="#43ff00" stroke="#000000"/></g></g></svg>