<svg version="1.1" xmlns="http://www.w3.org/2000/svg" xmlns:xlink="http://www.w3.org/1999/xlink" width="616.46875" height="650.75" viewBox="0,0,616.46875,650.75"><g transform="translate(68.3125,161.75)"><g data-paper-data="{&quot;isPaintingLayer&quot;:true}" fill="#000000" fill-rule="nonzero" stroke-linecap="butt" stroke-linejoin="miter" stroke-miterlimit="10" stroke-dasharray="" stroke-dashoffset="0" style="mix-blend-mode: normal"><path d="M-68.3125,489v-636h125v636z" stroke="none" stroke-width="0"/><path d="M418.15625,-93.80843v-6.95816c0.33333,-0.00788 0.66666,-0.01589 1,-0.02401v5.73c-0.29681,0.30017 -0.62971,0.71039 -1,1.25218z" stroke="none" stroke-width="0"/><path d="M402.15625,397.5v-506h19.54209c4.86961,2.27597 9.28495,2.83011 13.38848,0h78.49198c0.17098,0.47646 0.3807,0.96717 0.63318,1.47214c4.47214,8.94427 13.41641,4.47214 13.41641,4.47214l4.49984,-5.94427h16.02802v506z" stroke="none" stroke-width="0"/><path d="" stroke="none" stroke-width="0"/><path d="M53.15625,-36.5v-125h386v125z" stroke="#000000" stroke-width="0.5"/><path d="M51.15625,5.5v-54h384v54z" stroke="#000000" stroke-width="0.5"/><path d="M45.15625,408.5v-73l350.5932,0c2.39217,7.12591 6.81191,10.23226 14.4068,11c1.95725,0.19785 6.39266,-1.68493 8.79588,-2.3988c2.46726,-0.73289 5.14075,-1.3635 7.10196,-3.03028c4.70472,0.5219 7.55249,-1.59047 11.49567,-3.58777c1.23,-0.62302 2.80204,-0.59703 3.8638,-1.47664c0.20191,-0.16727 0.40415,-0.33602 0.60602,-0.50651h11.13667v73z" stroke="#000000" stroke-width="0.5"/></g></g></svg>