<svg version="1.1" xmlns="http://www.w3.org/2000/svg" xmlns:xlink="http://www.w3.org/1999/xlink" width="655.38285" height="682.70762" viewBox="0,0,655.38285,682.70762"><g transform="translate(35.22054,208.20762)"><g data-paper-data="{&quot;isPaintingLayer&quot;:true}" fill="#000000" fill-rule="nonzero" stroke="none" stroke-width="0.5" stroke-linecap="butt" stroke-linejoin="miter" stroke-miterlimit="10" stroke-dasharray="" stroke-dashoffset="0" style="mix-blend-mode: normal"><path d="M29.11412,345.36183c3.89169,3.58013 5.88058,7.36237 6.79292,11.31269c0.81062,2.4617 1.2492,5.09237 1.2492,7.82548c0,2.77422 -0.45187,5.4429 -1.28604,7.93645c-0.28009,2.4742 -0.56976,4.98934 -0.71396,7.53904c-0.18781,3.32067 0.15653,6.7322 -0.25126,10.06005c-0.47734,3.8954 -2.46555,12.1822 -2.74874,15.93995c-0.40225,5.33765 -0.8166,16.79533 -1,22.90914c-0.24511,8.17124 1.59208,16.59079 -0.39062,24.52162c-3.14044,12.56178 -10.1847,21.09375 -24.60937,21.09375c-14.69739,0 -24.78718,-10.88562 -25,-25c-0.37871,-25.11619 1.78638,-49.62034 4.24512,-74.45122c0.08711,-0.87976 0.19281,-1.86236 0.32262,-2.92315c-8.62671,-10.19846 -7.16758,-28.85297 -7.56774,-42.15014c-0.07386,-2.45427 -0.92145,-4.97653 -1,-7.47549c-0.5617,-17.87036 -4.09592,-36.38811 -0.46374,-54.15026c1.98585,-9.71124 6.84419,-25.00743 7.46374,-35.40618c2.26362,-37.99291 0.92321,-76.6923 1,-114.44356c0.01516,-7.45478 1.95612,-15.0468 2,-22.47549c0.16644,-28.17435 -0.82765,-56.36183 0,-84.52451c0,-4.28865 1.07988,-8.32507 2.98256,-11.8522c0.21766,-0.47549 0.44688,-0.94517 0.68755,-1.40637c-3.67482,-10.41916 -5.25838,-20.03663 -8.03518,-32.16134c-1.77494,-7.75013 -1.67535,-16.15785 -5.22225,-23.27363c-0.45909,-0.92102 -2.00431,-0.71925 -2.72196,-1.45683c-5.13401,-5.27662 -7.70765,-14.93019 -7.69072,-21.8605c0.05142,-21.05218 0.44332,-42.10915 0,-63.15672c-0.28821,-13.68338 -4.97925,-34.73596 -0.33516,-49.33168c5.93856,-18.66406 36.85698,-20.7162 45.21016,-3.00073c4.52367,9.59381 2.96253,20.53641 5.53136,30.49215c0.35122,1.36117 2.62658,1.11094 3.70781,2.00931c3.96965,3.29831 6.5826,9.86592 7.54568,14.88856c0.69189,3.6083 1.93969,9.88444 2.29147,14.55052c0.21771,2.88785 -1.41852,10.80281 0.54195,8.67123c11.12206,-12.09282 6.96751,-20.52144 18.05361,-30.20552c0.58558,-0.51152 1.52657,-0.32823 2.25179,-0.60859c2.93284,-1.1338 5.67202,-2.80772 8.70748,-3.62811c2.96846,-0.80229 6.04889,1.12336 9.0416,1.82985c2.99271,0.70648 6.6091,0.36174 8.90538,2.40686c2.3481,2.09128 4.0495,4.81348 6.16566,7.13919c0.52328,0.57509 1.4469,0.83198 1.74189,1.55137c0.6021,1.46832 2.50563,8.11107 2.79508,11.00565c0.11749,1.17489 -0.93403,2.73059 -0.15576,3.84601c0.46852,0.67149 1.76111,0.23958 2.30351,0.85294c2.50737,2.83538 4.59504,6.02841 6.61335,9.2304c0.3535,0.56082 -0.22582,1.83831 0.42895,1.94199c7.38426,1.1693 28.76473,3.53862 40.33143,3.1864c2.302,-0.0701 6.74216,-6.02919 9.82349,-6.99536c6.08425,-1.90776 12.56453,-1.7555 18.86129,-1.6257c50.08911,1.03256 99.0596,15.07696 148.6429,22.25203c0.34134,0.0494 0.1964,-0.7178 0.47718,-0.9181c1.62205,-1.1571 3.26649,-2.29808 5.0179,-3.24807c3.63971,-1.97423 8.30903,-3.10417 12.5,-3.125c27.93525,-0.13883 56.86,5.05187 83.77114,-2.44398c0.35763,-0.09961 0.18783,-0.72397 0.35386,-1.05602c0.71198,-1.42397 1.59681,-2.772 2.61063,-3.9995c4.57669,-5.54134 9.47023,-9.38887 16.77051,-10.83095c2.96453,-0.58561 6.02054,0.56753 9.00669,1.03048c16.48625,2.5559 34.34268,20.96952 47.30328,23.58572c33.87717,6.83837 68.88213,5.7447 103.30688,8.80456c7.45636,0.66276 16.80526,5.14624 20.12192,12.30005c2.09911,4.52763 3.08858,9.7601 2.66479,14.73263c-0.4238,4.97254 -2.28446,9.96209 -5.11949,14.0692c-11.58399,16.78175 -48.06969,4.81361 -59.17718,5.5416c-1.09951,0.07206 0.89966,7.35245 0.35795,8.7698c-0.7338,1.91994 -2.33098,3.40261 -3.24231,5.24492c-0.91134,1.84231 -1.12063,4.01152 -2.2014,5.75983c-0.7942,1.28474 -1.72428,1.21192 -2.59537,1.8188c-2.23882,1.55979 -4.29502,3.4156 -6.7036,4.6978c-3.9136,2.08339 -8.4237,2.26268 -12.75158,1.8474c-15.16498,-1.45515 -30.2993,-3.22421 -45.4705,-4.61295c-4.1311,-0.37815 -10.09334,0.81334 -15.19815,0.3314l13.97603,10.24909c5.90051,5.30622 12.35218,9.99116 18.89224,14.48557c1.32828,0.91281 3.47587,0.96758 4.82367,1.79956c8.00959,4.94419 12.32154,12.47629 12.5,21.875c0.06299,3.31731 -1.36981,6.22516 -2.47701,9.16494c-1.51847,4.03175 -2.25266,7.11246 -5.56444,9.97264c-7.16073,6.18427 -17.66597,6.04735 -26.51396,5.85625c-4.03163,-0.08708 -8.06296,-0.19943 -12.09422,-0.31688c0.14239,2.92843 0.34902,5.86947 0.64963,8.84756c1.76363,17.47152 2.36243,34.76555 3,52.34146c0.42528,11.72371 2.95282,24.68759 3,36.13403c0.06182,14.99987 0.1198,30.00048 0,45c-0.07087,8.87297 -2.77489,17.68272 -3,26.47549c-0.70394,27.49609 -1.01079,54.88285 -1,82.44687c0.00064,1.62744 3.23636,12.60325 3.60938,16.17139c1.2313,11.77827 1.62295,24.06682 1.39063,35.90625c-0.10641,5.42243 -1.64308,10.36851 -4.33217,14.40386c0.32949,1.94677 0.59605,3.72495 0.84059,5.04059c3.16167,17.00947 4.90018,34.14345 6.39599,51.35276c0.62933,7.2404 2.50636,16.90347 0.70497,24.10904c-3.34908,13.39632 -10.07287,19.8494 -24.60937,21.09375c-2.58026,0.22087 -5,-1.35135 -7.5,-2.02703l-0.04119,0.01113c-1.36428,0.51918 -5.30432,2.37309 -7.45881,2.01589c-1.74913,-0.28999 -3.39944,-1.02428 -5.13479,-1.38778c-2.36379,-0.49514 -4.81626,-0.5549 -7.1477,-1.18501c-1.82051,-0.49203 -5.14668,-4.8226 -5.62448,-5.33264c-6.72036,-7.17391 -7.61966,-16.3233 -8.06944,-26.00864c-0.8711,-18.7579 -2.06204,-43.22915 -1.0236,-61.08593c0,-2.31274 0.31404,-4.55213 0.90181,-6.67786c0.48138,-2.04716 1.1875,-4.02441 2.22319,-5.82214c1.59207,-2.76349 4.65935,-6.62119 7.42188,-8.59375c0.61473,-0.43895 1.46005,-0.48124 2.19352,-0.69898c0.06987,-0.03939 0.13995,-0.07845 0.21024,-0.11719c-0.14967,-4.61618 0.20476,-9.27391 0.04937,-13.31338c-0.26009,-6.76135 -0.7606,-14.02545 -1.99187,-20.69535c-0.73873,-4.00175 -2.41834,-7.78428 -2.83014,-11.90231c-2.91555,-29.15546 0.48149,-60.5661 0.82201,-90.17903c0.10574,-9.19557 2.86966,-18.50162 3,-27.65277c0.42943,-30.15038 -2.0384,-59.78725 -3,-89.87174c-0.24869,-7.78046 -1.81298,-15.65893 -2,-23.47549c-0.19181,-8.01656 -1.93056,-16.0121 -2,-24c-0.00308,-0.35423 -0.00523,-0.70848 -0.00655,-1.06275c-5.97548,0.47222 -11.93394,0.96728 -17.99345,1.06275c-37.09954,0.58451 -73.69477,2.41472 -110.80603,0.987c-8.27305,-0.31828 -17.7572,-1.70083 -25.7068,-3.68703c-1.86627,-0.46629 -3.59233,-1.46644 -5.49095,-1.77567c-14.79183,-2.40913 -28.72084,-6.87667 -43.48222,-9.91135c-18.46283,-3.79563 -37.69459,-0.6295 -56.54354,-0.61296c-2.33921,0.00205 -4.90921,1.15576 -7.368,1.15576c-12.0679,0 -25.43387,1.62182 -37.09254,4.69324c-19.43885,5.12107 -37.482,11.26621 -58.16269,7.15099c-6.39925,-1.27338 -14.06991,-2.31331 -20.96005,-4.71035c-0.01009,18.56878 -0.3363,37.14205 -0.38718,55.71035c-0.02095,7.64541 -1.97909,15.49568 -2,23.07764c-0.05061,18.34866 2.43272,82.66252 -1.19305,116.02323c-1.41621,13.03056 -6.87158,25.51887 -7.80695,38.50218c-1.55643,21.60391 1.63274,43.68488 2,65.31931c0.01919,1.13013 0.11291,2.23667 0.23967,3.33134c0.24599,0.19172 0.48557,0.39412 0.7182,0.60813z"/></g></g></svg>