<svg version="1.1" xmlns="http://www.w3.org/2000/svg" xmlns:xlink="http://www.w3.org/1999/xlink" width="97.55879" height="218.85189" viewBox="0,0,97.55879,218.85189"><g transform="translate(-183.69121,-28.26939)"><g data-paper-data="{&quot;isPaintingLayer&quot;:true}" fill-rule="nonzero" stroke-width="0.5" stroke-linecap="butt" stroke-linejoin="miter" stroke-miterlimit="10" stroke-dasharray="" stroke-dashoffset="0" style="mix-blend-mode: normal"><path d="" fill="#9966ff" stroke="none"/><path d="" fill="#9966ff" stroke="none"/><path d="" fill="#9966ff" stroke="none"/><path d="" fill="#9966ff" stroke="none"/><path d="" fill="#9966ff" stroke="none"/><path d="" fill="#9966ff" stroke="#000000"/><path d="" fill="#9966ff" stroke="#000000"/><path d="" fill="#9966ff" stroke="#000000"/><path d="" fill="#9966ff" stroke="#000000"/><path d="" fill="#9966ff" stroke="#000000"/><path d="" fill="#9966ff" stroke="#000000"/><path d="" fill="#9966ff" stroke="#000000"/><path d="" fill="#9966ff" stroke="#000000"/><path d="" fill="#9d00ff" stroke="none"/><path d="" fill="#ff9d00" stroke="none"/><path d="" fill="#b77100" stroke="#000000"/><path d="" fill="#fe0000" stroke="none"/><path d="" fill="#fe0000" stroke="none"/><path d="" fill="#fe0000" stroke="none"/><path d="" fill="#fe0000" stroke="none"/><path d="" fill="#43ff00" stroke="none"/><path d="" fill="#43ff00" stroke="none"/><path d="" fill="#ff009a" stroke="none"/><path d="" fill="#ff009a" stroke="none"/><path d="" fill="#ff009a" stroke="none"/><path d="" fill="#3eff00" stroke="none"/><path d="" fill="#3eff00" stroke="none"/><path d="M263.2405,222.54088c-0.22838,2.7405 -2.96888,2.51213 -2.96888,2.51213l-1.038,-0.0865c-0.82891,-0.06908 -11.20215,-0.9076 -11.63923,-1.05739c-4.88455,-1.67396 -4.99132,-4.01485 -6.01066,-8.60013c-0.78359,-3.52481 -1.04365,-7.02967 -1.32441,-10.53868c-0.6175,0.46939 -1.23623,0.93163 -1.96242,1.17419c-1.02689,0.34301 -2.18515,-0.14678 -3.24738,0.06253c-4.75693,0.93734 -9.18573,3.17924 -14.34643,1.93747c-1.30882,-0.31493 -2.21928,-1.53614 -3.41131,-2.16164c-0.77641,-0.40741 -1.58996,-0.73676 -2.40568,-1.06152c0.28423,5.09906 0.5593,10.19977 1.33752,15.21119c0.67332,4.33586 2.01265,8.78568 2.02106,13.20909c0.00284,1.49331 0.45075,3.1895 -0.32008,4.46849c-2.73351,4.5355 -8.25859,3.45684 -12.31208,5.21731c-1.12205,0.48731 -1.91328,1.60013 -3.06014,2.02575c-1.76033,0.65329 -3.67537,0.77062 -5.51306,1.15593l0.40522,0.24795c0,0 -1.94454,1.94454 -3.88909,0c-1.94454,-1.94454 0,-3.88909 0,-3.88909l2.40522,-1.75205c4.56538,-0.85883 7.37384,-2.84667 11.87235,-3.9713c1.77531,-0.44383 4.31124,-0.05437 5.24237,-1.62972c0.67046,-1.13434 -0.45795,-2.59635 -0.62197,-3.90377c-0.43786,-3.49023 -1.1435,-6.94177 -1.67705,-10.41866c-1.39453,-9.08741 -1.18682,-18.45021 -2.32295,-27.58134c-0.12527,-1.00681 -0.2076,-2.00797 -0.28484,-3.00218c-0.14334,-0.41853 -0.26814,-0.84336 -0.36897,-1.2764c-0.33939,-1.45768 -0.36968,-2.9521 -0.30695,-4.45728c-0.15447,-0.73685 -0.34931,-1.4681 -0.60155,-2.19314c0,0 -0.64974,-1.94921 0.85887,-3.03955c-0.00101,-9.44041 -0.0804,-18.92955 1.81487,-28.17987c-7.10038,2.62364 -14.0202,5.56171 -21.19524,7.95867l0.07492,0.33566c0,0 -1.94454,1.94454 -3.88909,0c-1.94454,-1.94454 0,-3.88909 0,-3.88909l2.07492,-1.66434c8.26564,-2.74952 16.21091,-6.20875 24.46452,-9.12578c0.81724,-3.25313 1.89634,-7.44985 2.11413,-7.7865c0.86061,-1.3303 2.30115,-2.14341 3.6617,-3.01569c-6.12707,-1.74638 -11.3585,-10.08292 -10.04944,-16.08521c0.36328,-1.66573 1.5847,-3.06339 2.73418,-4.32248c0.6959,-0.76226 2.15607,-0.68468 2.6596,-1.58567c0.7349,-1.31496 0.1744,-3.05731 0.71996,-4.46143c0.69909,-1.79928 2.06812,-3.26617 2.94975,-4.9834c1.66458,-3.24226 2.97598,-6.65538 4.56985,-9.93298c0.77845,-1.60079 1.60104,-3.18079 2.33776,-4.80121c0.63538,-1.39754 0.69064,-3.16417 1.77689,-4.24902c1.05874,-1.05737 2.73775,-1.22291 4.16187,-1.68208c3.76053,-1.21248 6.91806,-1.10967 10.76887,-1.10967c1.40995,0.09678 3.05283,-0.49195 4.22984,0.29033c5.56638,3.6996 4.57484,8.581 5.49284,14.07298c1.26976,7.59639 3.29396,15.32712 0.94017,23.07353c-0.50552,1.6637 -1.5782,3.13739 -1.96247,4.83321c-0.33408,1.47434 0.4212,3.13669 -0.15971,4.53233c-1.55971,3.74721 -5.77969,4.2879 -9.09491,5.28691l-0.6166,0.65933c0.44913,1.84855 1.12707,5.13337 1.97264,5.92388c0.66842,0.62489 1.86252,0.26216 2.64396,0.73821c1.06952,0.65155 2.06633,1.56744 2.98845,2.59877c1.67992,0.07016 3.4023,0.49366 5.01285,0.04668c1.21302,-0.33666 8.47161,-3.90774 9.36666,-4.33961c4.16897,-2.01159 8.14026,-3.58984 12.54303,-4.83315c0.50656,-1.8834 2.64324,-1.8834 2.64324,-1.8834h3c1.51878,0 2.75,1.23122 2.75,2.75c0,1.18535 -0.74996,2.19554 -1.80127,2.58196l-3.56724,1.406l-0.02125,-0.05392l-0.13049,0.10864c-8.34237,2.19807 -15.43893,7.48862 -23.67682,9.65116c-0.10493,0.02754 -1.00564,0.04223 -2.1097,0.04987c4.04405,10.29487 3.51495,20.18525 1.22692,30.91415c-0.59567,2.79318 -2.21047,5.2804 -3.00587,8.02339c-1.29925,4.48055 -0.06467,11.07177 -2.55296,15.08081c-0.02374,0.03825 -0.04864,0.07512 -0.07463,0.11069c0.17068,2.22857 0.29808,4.4621 0.67383,6.66296c0.01882,0.11025 0.98139,7.85587 1.52371,8.86094c0.30884,0.57238 1.03409,0.87686 1.67137,1.00674c3.3686,0.6865 6.85881,0.48411 10.28478,0.76961l1.038,0.0865c0,0 2.7405,0.22838 2.51213,2.96888zM237.83211,192.97947c0,0 -0.66697,-2.66789 2.00092,-3.33486c0.9663,-0.24158 1.67011,-0.04566 2.17481,0.30252c0.18021,-1.45917 0.42532,-2.90586 0.82788,-4.31588c0.77968,-2.73089 2.41612,-5.19604 2.99413,-7.97661c1.92222,-9.24696 2.8591,-18.20101 -0.76366,-27.06189c-1.21244,-1.81685 -3.03975,-4.77686 -5.01195,-5.94097c-1.02922,-0.60751 -2.52812,-0.39988 -3.35604,-1.26179c-2.22308,-2.31433 -2.25597,-6.02043 -3.68127,-8.89563c-0.38613,-0.77891 -0.94076,-1.45266 -1.51596,-2.11357c-3.53155,1.55334 -7.07827,2.90821 -10.41264,5.17663c-1.10425,0.75124 -2.5858,1.14598 -3.29734,2.27622c-0.81382,1.29271 -0.60989,2.99402 -0.95703,4.4816c-0.0282,0.12082 -0.05664,0.24159 -0.08531,0.3623c0.1385,0.21392 0.26075,0.46686 0.36024,0.76532c0.66486,1.99458 -0.70351,2.97254 -1.38478,3.3225c-0.07514,0.29512 -0.14996,0.59031 -0.2241,0.88566c-2.4287,9.67517 -2.25,19.73141 -2.25,29.66146c0,1.53107 -0.20696,3.08472 -0.29247,4.62424c0.28898,1.66298 0.43953,3.31591 0.59506,5.01835c0.93585,2.5701 2.74083,4.83683 3.54855,7.46494c0.40135,1.30587 0.30698,2.71501 0.46046,4.07252c1.71617,0.27949 3.0539,1.74494 4.73529,2.18795c3.98004,1.04866 7.98473,-1.34317 11.65357,-2.06253c0.90063,-0.17659 1.88172,0.35208 2.75262,0.06253c1.0043,-0.3339 1.62522,-1.40038 2.58869,-1.83836c0.09911,-0.04506 0.20982,-0.06824 0.32737,-0.07754c-0.418,-1.96334 -1.29746,-3.83074 -1.78705,-5.78512zM242.95933,125.26012c0.2031,-1.13915 -0.40561,-2.33698 -0.15971,-3.46767c0.39343,-1.80906 1.48788,-3.39892 2.03753,-5.16679c1.70308,-5.47764 0.71217,-11.52898 -0.06655,-16.97716c-0.19207,-1.34378 -0.77074,-2.61024 -0.99328,-3.94931c-0.5395,-3.24628 0.66904,-10.44795 -4.27732,-9.6367c-3.44369,0 -5.85007,0.12166 -9.23113,0.89033c-0.60633,0.13785 -1.43048,-0.15162 -1.83813,0.31792c-0.54797,0.63118 -0.24824,1.66869 -0.55993,2.44426c-2.01037,5.00238 -4.6226,10.35 -7.09612,15.14011c-0.7967,1.54286 -2.06555,2.8365 -2.7097,4.44902c-0.70293,1.75965 -0.32816,3.90015 -1.28004,5.53857c-0.39166,0.67414 -4.30587,2.41419 -4.60622,4.09185c-0.5595,3.12513 3.08717,9.36179 6.6863,9.65227c0.20604,0.01663 7.7265,-1.8818 7.96801,-1.94222c0,0 1.23319,-0.3083 2.23233,0.33273c0.1251,-0.20163 0.28622,-0.40551 0.4901,-0.60938c1.15244,-1.15244 2.30489,-0.93888 3.05255,-0.57367c0.49639,-0.26499 0.98912,-0.54374 1.47713,-0.83989c0,0 2.35811,-1.41486 3.77297,0.94324c0.32004,0.5334 0.44703,1.01853 0.45194,1.44995c1.97183,-0.57358 4.53164,-1.42758 4.64929,-2.08746z" fill="#67ff66" stroke="none"/><path d="M221.25294,54.00264c-0.00367,1.52696 -0.00895,3.05391 -0.01632,4.58084l-0.13396,0.24955l0.09394,0.01879l-0.99001,4.95004c-0.23085,1.28532 -1.35482,2.26064 -2.70659,2.26064c-1.51878,0 -2.75,-1.23122 -2.75,-2.75v-5.5l0.02186,0c-0.00645,-0.04346 -0.0127,-0.08696 -0.01876,-0.13051c-0.00515,-0.03702 0.00909,-0.24832 0.03796,-0.58885c-0.6588,0.1014 -1.4472,-0.0477 -2.2356,-0.8361c-1.94454,-1.94454 0,-3.88909 0,-3.88909l2.27757,-1.72335c0.20744,-0.04943 0.41318,-0.10435 0.6174,-0.16413c0.10543,-1.00039 0.20541,-1.93011 0.28518,-2.64974c-0.00092,-5.50612 0.0144,-11.01239 0.0144,-16.51824c0,0 0,-2.75 2.75,-2.75c2.75,0 2.75,2.75 2.75,2.75c0,1.06252 0.00042,2.12505 0.00108,3.18758c0.60998,-1.57624 1.21659,-3.06792 1.38043,-3.20532c1.3668,-1.14628 3.40063,-1.07896 5.09962,-1.62259c2.2393,-0.71652 5.39718,-2.17078 7.82125,-0.90034c6.96806,3.65192 1.98382,8.6801 -0.7286,13.01123c-1.50547,2.4039 -2.27539,5.34414 -4.27119,7.35957c-1.81825,1.83613 -4.53261,2.48561 -6.84437,3.64024c-0.81482,0.40697 -1.63109,0.82196 -2.45528,1.21977zM221.26027,47.83072c0,0.00907 0,0.01813 0,0.0272c0.01051,-0.00527 0.02101,-0.01053 0.03152,-0.01579c2.04811,-1.0252 3.52522,-0.63383 5.15563,-2.35976c1.74325,-1.84538 2.38247,-4.48828 3.72881,-6.64043c1.10295,-1.76307 2.49092,-3.33561 3.60929,-5.08894c0.33436,-0.52419 -1.24373,0.11576 -1.84501,0.27399c-0.91147,0.23986 -1.7539,0.71119 -2.67164,0.92584c-0.94932,0.22204 -2.10804,-0.19067 -2.90038,0.37741c-0.52013,0.37291 -0.10133,1.28437 -0.27615,1.90003c-0.28179,0.9924 -0.72212,1.93278 -1.08625,2.89801c-0.68412,1.81343 -1.21553,3.6927 -2.0585,5.43795c-0.40707,0.84278 -1.25628,1.44825 -1.68731,2.26449z" fill="#67ff66" stroke="none"/><path d="M249.5,75.0625c-2.75,0 -2.75,-2.75 -2.75,-2.75v-1c0,-6.17539 -0.06052,-12.35571 -0.04136,-18.53306c-0.7422,0.39393 -1.94769,0.6831 -3.15318,-0.5224c-1.94454,-1.94454 0,-3.88909 0,-3.88909c1.20837,-1.19578 2.19388,-2.49908 3.21058,-3.78726c0.084,-1.84479 0.52246,-3.38378 2.60727,-5.01167c0.07212,-0.05631 0.14528,-0.11088 0.21941,-0.16381l-0.03726,-0.03726l2,-2c0.49765,-0.49765 1.18515,-0.80546 1.94454,-0.80546c1.51878,0 2.75,1.23122 2.75,2.75c0,0.46188 -0.11387,0.89717 -0.31507,1.27932l-1.97526,3.95052l-0.14923,-0.07461l-0.07953,0.45273c-0.55007,0.55825 -1.06253,1.13319 -1.55538,1.71681c0.03803,0.22621 0.07104,0.45223 0.07446,0.67524c0.12247,7.99538 0,16.00372 0,24v1c0,0 0,2.75 -2.75,2.75z" fill="#67ff66" stroke="none"/></g></g></svg>