<svg version="1.1" xmlns="http://www.w3.org/2000/svg" xmlns:xlink="http://www.w3.org/1999/xlink" width="19.75065" height="14.13193" viewBox="0,0,19.75065,14.13193"><g transform="translate(-310.12468,-223.24997)"><g fill="#ff0000" stroke="#000000" stroke-width="0" stroke-miterlimit="10"><path d="M321.36212,227.8471c0,-2.35086 1.90575,-4.2566 4.25661,-4.2566c2.35086,0 4.2566,1.90574 4.2566,4.2566c0,2.35086 -1.90574,4.25661 -4.2566,4.25661c-2.35086,0 -4.25661,-1.90574 -4.25661,-4.25661z"/><path d="M310.12468,227.50657c0,-2.35086 1.90575,-4.2566 4.25661,-4.2566c2.35086,0 4.2566,1.90574 4.2566,4.2566c0,2.35086 -1.90574,4.25661 -4.2566,4.25661c-2.35086,0 -4.25661,-1.90574 -4.25661,-4.25661z"/><path d="M315.57313,233.12529c0,-2.35086 1.90575,-4.2566 4.25661,-4.2566c2.35086,0 4.2566,1.90574 4.2566,4.2566c0,2.35086 -1.90574,4.25661 -4.2566,4.25661c-2.35086,0 -4.25661,-1.90574 -4.25661,-4.25661z"/></g></g></svg>