<svg version="1.1" xmlns="http://www.w3.org/2000/svg" xmlns:xlink="http://www.w3.org/1999/xlink" width="54.36217" height="75.7427" viewBox="0,0,54.36217,75.7427"><g transform="translate(-292.82117,-142.2237)"><g stroke="#000000" stroke-width="2" stroke-miterlimit="10"><path d="M299.0513,216.92126v-73.54208h41.63158v73.54208z" fill="#7c95bf" stroke-linecap="butt"/><path d="M298.65164,146.93895c0,-1.84983 2.83844,-3.34941 6.33983,-3.34941c3.50139,0 6.33983,1.49958 6.33983,3.34941c0,1.84983 -2.83844,3.34941 -6.33983,3.34941c-3.50139,0 -6.33983,-1.49958 -6.33983,-3.34941z" fill="#fff466" stroke-linecap="butt"/><path d="M324.79765,147.49573c0,-1.59293 2.83844,-2.88424 6.33983,-2.88424c3.5014,0 6.33983,1.29132 6.33983,2.88424c0,1.59293 -2.83844,2.88425 -6.33983,2.88425c-3.5014,0 -6.33983,-1.29132 -6.33983,-2.88425z" fill="#fff466" stroke-linecap="butt"/><path d="M293.8393,207.21549l4.81262,-63.99179c0,0 0.46241,68.5699 0.46757,73.7427c0.00065,0.65442 -5.28019,-9.75091 -5.28019,-9.75091z" fill="#7c95bf" stroke-linecap="round"/><path d="M341.22981,143.00398l4.9309,65.91577c0,0 -5.07593,7.71191 -5.07278,6.18545c0.01576,-7.63762 0.14188,-72.10122 0.14188,-72.10122z" fill="#7c95bf" stroke-linecap="round"/><path d="M299.16686,151.97491h39.7393" fill="none" stroke-linecap="round"/></g></g></svg>