<svg version="1.1" xmlns="http://www.w3.org/2000/svg" xmlns:xlink="http://www.w3.org/1999/xlink" width="49.32278" height="75.60283" viewBox="0,0,49.32278,75.60283"><g transform="translate(-294.40826,-142.21577)"><g stroke="#000000" stroke-width="2" stroke-miterlimit="10"><path d="M307.10582,216.78421c0,0 0,-30.04465 0,-45.55169c0,-1.71563 0,-3.25333 0,-4.55269c0,-8.3572 0,-20.56745 0,-20.56745h34.91273c0,0 0,12.21025 0,20.56745c0,1.95648 0,4.45329 0,7.2843c0,16.04342 0,42.82009 0,42.82009z" fill="#7c95bf" stroke-linecap="butt"/><path d="M306.83528,216.75442l-10.726,-0.66254c0,0 -1.69055,-56.35407 0.17892,-68.79402c0.024,-0.15969 10.00209,-0.88209 10.00209,-0.88209z" fill="#7c95bf" stroke-linecap="round"/><path d="M313.88477,145.55387c0,0.95041 -2.38034,1.72086 -5.31666,1.72086c-2.9363,0 -5.31666,-0.77046 -5.31666,-1.72086c0,-0.95041 2.38035,-1.72086 5.31667,-1.72086c2.9363,0 5.31666,0.77046 5.31666,1.72086z" fill="#fff466" stroke-linecap="butt"/><path d="M337.41438,146.6575c-2.9363,0 -5.31666,-0.77046 -5.31666,-1.72086c0,-0.95041 2.38035,-1.72086 5.31666,-1.72086c2.93631,0 5.31666,0.77046 5.31666,1.72086c0,0.95041 -2.38035,1.72086 -5.31666,1.72086z" fill="#fff466" stroke-linecap="butt"/></g></g></svg>