<svg version="1.1" xmlns="http://www.w3.org/2000/svg" xmlns:xlink="http://www.w3.org/1999/xlink" width="52.39203" height="78.6653" viewBox="0,0,52.39203,78.6653"><g transform="translate(-294.16982,-139.95636)"><g stroke="#000000" stroke-width="2" stroke-miterlimit="10"><path d="M300.19292,144.7277c0,-2.08284 2.38035,-3.77134 5.31666,-3.77134c2.93631,0 5.31666,1.68848 5.31666,3.77134c0,2.08284 -2.38036,3.77134 -5.31666,3.77134c-2.93631,0 -5.31666,-1.68848 -5.31666,-3.77134z" fill="#fff466" stroke-linecap="butt"/><path d="M330.23535,144.83244c0,-2.08284 2.38036,-3.77134 5.31666,-3.77134c2.93632,0 5.31667,1.68848 5.31667,3.77134c0,2.08284 -2.38036,3.77134 -5.31666,3.77134c-2.93632,0 -5.31666,-1.68848 -5.31666,-3.77134z" fill="#fff466" stroke-linecap="butt"/><path d="M341.14289,143.22896c0,0 0,23.29799 0,35.32284c0,1.33038 0,2.52278 0,3.53036c0,6.48056 0,15.94893 0,15.94893h-41.63158c0,0 0,-9.46837 0,-15.94893c0,-1.51714 0,-3.45328 0,-5.64857c0,-12.44079 0,-33.20463 0,-33.20463z" fill="#7c95bf" stroke-linecap="butt"/><path d="M345.19701,217.62166h-49.65984l4.42714,-18.56646l39.6064,0.76621z" fill="#7c95bf" stroke-linecap="round"/><path d="M299.38641,198.96464l-4.21804,18.51581l4.01518,-74.35857z" fill="#7c95bf" stroke-linecap="round"/><path d="M341.62853,143.96541l3.46893,68.30811l-4.67973,-12.33243z" fill="#7c95bf" stroke-linecap="round"/></g></g></svg>