<svg version="1.1" xmlns="http://www.w3.org/2000/svg" xmlns:xlink="http://www.w3.org/1999/xlink" width="183.75394" height="317.14507" viewBox="0,0,183.75394,317.14507"><g transform="translate(-144.3122,-13.90927)"><g data-paper-data="{&quot;isPaintingLayer&quot;:true}" fill-rule="nonzero" stroke-width="2" stroke-linejoin="miter" stroke-miterlimit="10" stroke-dasharray="" stroke-dashoffset="0" style="mix-blend-mode: normal"><path d="M202.50002,244.96529l0.9375,-112.03125l66.5625,1.40625l-0.46875,109.21875z" fill="none" stroke="#000000" stroke-linecap="round"/><path d="M246.09377,134.80903l-1.875,107.34375l-17.34375,0.9375l-0.46875,-109.6875z" fill="#ffa429" stroke="#000000" stroke-linecap="round"/><path d="M263.93904,133.89473l19.61476,-25.16455l12.48264,10.64654l-20.57978,25.57365z" data-paper-data="{&quot;index&quot;:null}" fill="#576cf2" stroke="#000000" stroke-linecap="round"/><path d="M281.37569,109.39112l19.93433,-21.79304l11.69825,12.24313l-18.73095,19.72791z" data-paper-data="{&quot;index&quot;:null}" fill="#576cf2" stroke="#000000" stroke-linecap="round"/><path d="M319.00858,84.30928l5.79399,5.49094l-0.83176,5.27945l-1.7939,4.25387l-3.37633,1.88199l-2.99216,0.23611l-4.27501,-1.13133l-3.89085,-2.77719l-10.06901,-6.62227l-2.24499,-2.39303l-0.15152,-5.64247l2.73489,-2.5657l3.03446,-1.56127l7.58789,1.23707l5.57903,1.8362z" data-paper-data="{&quot;index&quot;:null}" fill="#ffffff" stroke="#000000" stroke-linecap="round"/><path d="M273.89627,236.79959l21.33477,35.3167l-17.0783,9.79436l-20.58128,-36.82955z" fill="#2b841f" stroke="#000000" stroke-linecap="round"/><path d="M296.09454,274.83448l16.38162,31.64905l-15.82452,8.19081l-18.03012,-33.97549z" fill="#2b841f" stroke="#000000" stroke-linecap="round"/><path d="M305.4828,310.20241l7.29793,-4.68638l6.47337,-1.92213l5.99215,1.30578l1.59637,3.12517l-2.90214,2.86698l-20.406,16.06824l-8.80639,-12.8616z" data-paper-data="{&quot;index&quot;:null}" fill="#853c1e" stroke="#000000" stroke-linecap="round"/><path d="M214.94853,246.77003l-15.66644,39.17355l-18.19751,-7.5132l16.60849,-37.77035z" data-paper-data="{&quot;index&quot;:null}" fill="#2b841f" stroke="#000000" stroke-linecap="round"/><path d="M198.94151,288.08829l-22.02272,31.53441l-14.71269,-10.05195l20.1039,-29.42538z" data-paper-data="{&quot;index&quot;:null}" fill="#2b841f" stroke="#000000" stroke-linecap="round"/><path d="M182.38084,315.40596l-6.27862,14.26718l-23.02332,-12.02164l-3.38186,-2.28145l0.99151,-3.36631l5.64777,-2.39035l6.71705,0.69309l8.03809,3.25741z" data-paper-data="{&quot;index&quot;:null}" fill="#853c1e" stroke="#000000" stroke-linecap="round"/><path d="M201.1456,149.69397l-23.705,-22.70709l11.00592,-12.16696l22.69529,22.42581z" data-paper-data="{&quot;index&quot;:null}" fill="#576cf2" stroke="#000000" stroke-linecap="round"/><path d="M175.16962,126.64151l-17.45861,-20.86231l12.44208,-11.48643l18.53029,22.99876z" data-paper-data="{&quot;index&quot;:null}" fill="#576cf2" stroke="#000000" stroke-linecap="round"/><path d="M154.16219,91.35957l5.05406,-2.99225l7.14475,-2.83882l3.29908,0.87268l3.22237,1.91803l1.06459,5.54319l-1.67827,2.81957l-8.4106,8.6314l-3.20313,3.54845l-3.932,2.02361l-2.97299,0.41242l-3.70188,-1.11243l-2.66616,-3.76897l-1.9469,-4.97735l4.4786,-6.60779z" data-paper-data="{&quot;index&quot;:null}" fill="#ffffff" stroke="#000000" stroke-linecap="round"/><path d="M226.15387,133.26924l0.57692,109.61539l-22.5,1.73077l-0.57692,-110.19231z" fill="#576cf2" stroke="#000000" stroke-linecap="round"/><path d="M246.34617,133.84617l22.5,0.57692l0.57692,107.88462l-24.80769,0.57692z" fill="#576cf2" stroke="#000000" stroke-linecap="round"/><path d="M251.88509,136.31553h-18.75l-6.09375,-2.8125l-7.96875,-4.6875l-4.6875,-7.03125l-0.9375,-7.96875l-1.40625,-7.5l0.9375,-8.4375l1.875,-6.5625l1.40625,-5.15625l1.875,-6.5625l3.75,-3.28125l9.84375,-1.40625l6.5625,-1.40625l5.625,1.875l7.96875,6.09375l4.21875,8.4375l2.8125,7.5l0.9375,7.96875v5.15625v7.96875v6.09375l-0.9375,3.28125l-3.75,4.6875z" fill="#ffe5c7" stroke="#000000" stroke-linecap="round"/><path d="M212.04134,96.47178l-1.875,-2.34375l-0.9375,-3.75l-1.875,-5.625l-0.9375,-6.5625v-6.5625l0.9375,-7.03125l1.875,-4.6875l3.28125,-5.15625l4.6875,-4.6875l2.34375,-3.75l-1.40625,-8.4375l-1.40625,-7.03125v-4.21875l0.9375,-7.5l1.40625,-3.75l3.75,-0.46875h4.21875l3.28125,0.46875l4.21875,2.34375l3.75,4.6875l1.875,6.09375l2.8125,7.96875l2.8125,6.09375l4.6875,7.5l4.21875,3.75l2.34375,4.21875l2.8125,7.03125l0.46875,7.96875l0.9375,14.0625v6.5625l-0.9375,4.6875l-7.5,-15.46875l-7.5,-6.09375l-8.90625,-3.28125l-18.28125,6.09375l-5.625,14.0625" fill="#ad4a00" stroke="#000000" stroke-linecap="round"/><path d="M232.66634,95.53428c0,3.62437 -2.62333,6.5625 -5.85937,6.5625c-3.23604,0 -5.85937,-2.93813 -5.85937,-6.5625c0,-3.62437 2.62333,-6.5625 5.85938,-6.5625c3.23604,0 5.85938,2.93813 5.85938,6.5625z" fill="#00ffce" stroke="#000000" stroke-linecap="butt"/><path d="M252.19759,95.37803c0,3.62437 -2.62333,6.5625 -5.85937,6.5625c-3.23604,0 -5.85937,-2.93813 -5.85937,-6.5625c0,-3.62437 2.62333,-6.5625 5.85938,-6.5625c3.23604,0 5.85938,2.93813 5.85938,6.5625z" fill="#00ffce" stroke="#000000" stroke-linecap="butt"/><g data-paper-data="{&quot;index&quot;:null}" fill="none" stroke="#ff0000" stroke-linecap="round"><path d="M227.74446,129.59678l2.34375,-2.34375l4.21875,-1.40625h3.75l7.03125,0.46875"/><path d="M232.27571,126.2374l7.03125,-0.46875h3.75l4.21875,1.40625l2.34375,2.34375" data-paper-data="{&quot;index&quot;:null}"/></g><path d="M223.16558,99.62349l7.09091,-8.72727" fill="none" stroke="#000000" stroke-linecap="round"/><path d="M218.80194,89.25986l13.36364,10.36364" fill="none" stroke="#000000" stroke-linecap="round"/><path d="M220.98376,102.07804l10.90909,-12.81818" fill="none" stroke="#000000" stroke-linecap="round"/><path d="M239.52922,88.44168l10.36364,12" fill="none" stroke="#000000" stroke-linecap="round"/><path d="M240.62012,100.98713l11.45455,-12.27273" fill="none" stroke="#000000" stroke-linecap="round"/></g></g></svg>