<svg version="1.1" xmlns="http://www.w3.org/2000/svg" xmlns:xlink="http://www.w3.org/1999/xlink" width="98.68569" height="321.23239" viewBox="0,0,98.68569,321.23239"><g transform="translate(-185.90512,-14.39315)"><g data-paper-data="{&quot;isPaintingLayer&quot;:true}" fill-rule="nonzero" stroke-linejoin="miter" stroke-miterlimit="10" stroke-dasharray="" stroke-dashoffset="0" style="mix-blend-mode: normal"><path d="M202.50002,244.9653l0.9375,-112.03125l66.5625,1.40625l-0.46875,109.21875z" fill="none" stroke="#000000" stroke-width="2" stroke-linecap="round"/><path d="M246.09377,134.80904l-1.875,107.34375l-17.34375,0.9375l-0.46875,-109.6875z" fill="#ffa429" stroke="#000000" stroke-width="2" stroke-linecap="round"/><path d="M269.15,244.53044l-6.31646,40.77431l-19.38191,-3.45518l7.86544,-41.45046z" fill="#2b841f" stroke="#000000" stroke-width="2" stroke-linecap="round"/><path d="M261.15801,286.486l-8.53101,34.60118l-17.30058,-4.26548l8.82388,-37.43739z" fill="#2b841f" stroke="#000000" stroke-width="2" stroke-linecap="round"/><path d="M243.5609,319.47394l8.26057,2.64286l5.60414,3.76731l2.80885,5.45169l-1.39311,3.22092l-4.05861,-0.41205l-25.38347,-5.50206l4.30916,-14.98015z" data-paper-data="{&quot;index&quot;:null}" fill="#853c1e" stroke="#000000" stroke-width="2" stroke-linecap="round"/><path d="M223.7643,243.68108l-1.64364,42.97096l-20.04213,-0.98975l3.0281,-41.94587z" data-paper-data="{&quot;index&quot;:null}" fill="#2b841f" stroke="#000000" stroke-width="2" stroke-linecap="round"/><path d="M220.99094,280.70643l4.35376,35.97522l-16.64451,2.18782l-4.37562,-33.28899z" data-paper-data="{&quot;index&quot;:null}" fill="#2b841f" stroke="#000000" stroke-width="2" stroke-linecap="round"/><path d="M216.54791,320.06865l8.61163,-1.03015l6.66305,1.0968l4.82092,3.79075l0.07185,3.50856l-3.86259,1.31235l-25.37357,5.54748l-2.30789,-15.41581z" data-paper-data="{&quot;index&quot;:null}" fill="#853c1e" stroke="#000000" stroke-width="2" stroke-linecap="round"/><path d="M226.15387,133.26925l0.57692,109.61539l-22.5,1.73077l-0.57692,-110.19231z" fill="#576cf2" stroke="#000000" stroke-width="2" stroke-linecap="round"/><path d="M246.34617,133.84617l22.5,0.57692l0.57692,107.88462l-24.80769,0.57692z" fill="#576cf2" stroke="#000000" stroke-width="2" stroke-linecap="round"/><path d="M283.49845,137.0625l-3.47721,31.71596l-16.21389,-2.50507l4.08361,-32.5709z" data-paper-data="{&quot;index&quot;:null}" fill="#576cf2" stroke="#000000" stroke-width="2" stroke-linecap="round"/><path d="M280.64498,167.98667l-6.6826,29.20385l-16.44824,-4.94821l6.65429,-26.77957z" data-paper-data="{&quot;index&quot;:null}" fill="#576cf2" stroke="#000000" stroke-width="2" stroke-linecap="round"/><path d="M255.88852,208.52658l-6.30077,-4.90109l0.31408,-5.33533l1.37148,-4.40823l3.17719,-2.2016l2.95499,-0.52614l4.36483,0.70998l4.14263,2.38542l10.66559,5.61109l2.4672,2.16325l0.69982,5.60095l-2.47226,2.81964l-2.86813,1.84912l-7.67227,-0.49284l-5.73122,-1.28464z" data-paper-data="{&quot;index&quot;:null}" fill="#ffffff" stroke="#000000" stroke-width="2" stroke-linecap="round"/><path d="M202.44963,132.79965l5.76203,32.31623l-16.06267,3.33995l-5.11225,-31.49379z" data-paper-data="{&quot;index&quot;:null}" fill="#576cf2" stroke="#000000" stroke-width="2" stroke-linecap="round"/><path d="M207.55942,166.74234l2.82894,27.05615l-16.73607,2.57826l-2.52458,-29.42686z" data-paper-data="{&quot;index&quot;:null}" fill="#576cf2" stroke="#000000" stroke-width="2" stroke-linecap="round"/><path d="M209.65965,207.95841l-5.65145,1.59941l-7.63329,0.91614l-2.96596,-1.68779l-2.6243,-2.67871l0.38921,-5.63104l2.34385,-2.29629l10.33916,-6.19198l4.00448,-2.6107l4.3189,-0.95016l2.97956,0.36205l3.294,2.02259l1.61302,4.32571l0.60851,5.30984l-6.02028,5.24182z" data-paper-data="{&quot;index&quot;:null}" fill="#ffffff" stroke="#000000" stroke-width="2" stroke-linecap="round"/><path d="M251.88509,136.7994h-18.75l-6.09375,-2.8125l-7.96875,-4.6875l-4.6875,-7.03125l-0.9375,-7.96875l-1.40625,-7.5l0.9375,-8.4375l1.875,-6.5625l1.40625,-5.15625l1.875,-6.5625l3.75,-3.28125l9.84375,-1.40625l6.5625,-1.40625l5.625,1.875l7.96875,6.09375l4.21875,8.4375l2.8125,7.5l0.9375,7.96875v5.15625v7.96875v6.09375l-0.9375,3.28125l-3.75,4.6875z" fill="#ffe5c7" stroke="#000000" stroke-width="2" stroke-linecap="round"/><path d="M212.04134,96.95565l-1.875,-2.34375l-0.9375,-3.75l-1.875,-5.625l-0.9375,-6.5625v-6.5625l0.9375,-7.03125l1.875,-4.6875l3.28125,-5.15625l4.6875,-4.6875l2.34375,-3.75l-1.40625,-8.4375l-1.40625,-7.03125v-4.21875l0.9375,-7.5l1.40625,-3.75l3.75,-0.46875h4.21875l3.28125,0.46875l4.21875,2.34375l3.75,4.6875l1.875,6.09375l2.8125,7.96875l2.8125,6.09375l4.6875,7.5l4.21875,3.75l2.34375,4.21875l2.8125,7.03125l0.46875,7.96875l0.9375,14.0625v6.5625l-0.9375,4.6875l-7.5,-15.46875l-7.5,-6.09375l-8.90625,-3.28125l-18.28125,6.09375l-5.625,14.0625" fill="#ad4a00" stroke="#000000" stroke-width="2" stroke-linecap="round"/><path d="M237.82259,124.6119l-7.03125,0.46875h-3.75l-4.21875,-1.40625l-2.34375,-2.34375" fill="none" stroke="#ff0000" stroke-width="2" stroke-linecap="round"/><path d="M232.66634,96.01815c0,3.62437 -2.62333,6.5625 -5.85937,6.5625c-3.23604,0 -5.85937,-2.93813 -5.85937,-6.5625c0,-3.62437 2.62333,-6.5625 5.85938,-6.5625c3.23604,0 5.85938,2.93813 5.85938,6.5625z" fill="#00ffce" stroke="#000000" stroke-width="2" stroke-linecap="butt"/><path d="M252.19759,95.8619c0,3.62437 -2.62333,6.5625 -5.85937,6.5625c-3.23604,0 -5.85937,-2.93813 -5.85937,-6.5625c0,-3.62437 2.62333,-6.5625 5.85938,-6.5625c3.23604,0 5.85938,2.93813 5.85938,6.5625z" fill="#00ffce" stroke="#000000" stroke-width="2" stroke-linecap="butt"/><path d="M225.99567,96.57104c0,-1.38071 1.11929,-2.5 2.5,-2.5c1.38071,0 2.5,1.11929 2.5,2.5c0,1.38071 -1.11929,2.5 -2.5,2.5c-1.38071,0 -2.5,-1.11929 -2.5,-2.5z" fill="#000000" stroke="none" stroke-width="0.5" stroke-linecap="butt"/><path d="M245.7673,96.2946c0,-1.38071 1.11929,-2.5 2.5,-2.5c1.38071,0 2.5,1.11929 2.5,2.5c0,1.38071 -1.11929,2.5 -2.5,2.5c-1.38071,0 -2.5,-1.11929 -2.5,-2.5z" fill="#000000" stroke="none" stroke-width="0.5" stroke-linecap="butt"/></g></g></svg>