<svg version="1.1" xmlns="http://www.w3.org/2000/svg" xmlns:xlink="http://www.w3.org/1999/xlink" width="132" height="136.22222" viewBox="0,0,132,136.22222"><g transform="translate(-174,-114)"><g data-paper-data="{&quot;isPaintingLayer&quot;:true}" fill-rule="nonzero" stroke="none" stroke-linecap="butt" stroke-linejoin="miter" stroke-miterlimit="10" stroke-dasharray="" stroke-dashoffset="0" style="mix-blend-mode: normal"><path d="M295,249.22222c0.27614,0 0.5,0.22386 0.5,0.5c0,0.27614 -0.22386,0.5 -0.5,0.5c-0.27614,0 -0.5,-0.22386 -0.5,-0.5c0,-0.27614 0.22386,-0.5 0.5,-0.5z" fill="#4341ba" stroke-width="0"/><path d="M174,180c0,-36.45079 29.54921,-66 66,-66c36.45079,0 66,29.54921 66,66c0,36.45079 -29.54921,66 -66,66c-36.45079,0 -66,-29.54921 -66,-66z" fill="#5d5aff" stroke-width="0"/><path d="M183.25,180c0,-13.94519 11.30481,-25.25 25.25,-25.25c13.94519,0 25.25,11.30481 25.25,25.25c0,13.94519 -11.30481,25.25 -25.25,25.25c-13.94519,0 -25.25,-11.30481 -25.25,-25.25z" fill="#4745c4" stroke-width="0"/><path d="M245,179.5c0,-14.08326 11.41674,-25.5 25.5,-25.5c14.08326,0 25.5,11.41674 25.5,25.5c0,14.08326 -11.41674,25.5 -25.5,25.5c-14.08326,0 -25.5,-11.41674 -25.5,-25.5z" fill="#1e1d52" stroke-width="0"/><text transform="translate(198.5,185.72222) scale(0.5,0.5)" font-size="40" xml:space="preserve" fill="#5d5aff" fill-rule="nonzero" stroke="none" stroke-width="1" stroke-linecap="butt" stroke-linejoin="miter" stroke-miterlimit="10" stroke-dasharray="" stroke-dashoffset="0" font-family="Sans Serif" font-weight="normal" text-anchor="start" style="mix-blend-mode: normal"><tspan x="0" dy="0">Ja</tspan></text><text transform="translate(248,184.72222) scale(0.5,0.5)" font-size="40" xml:space="preserve" fill="#5d5aff" fill-rule="nonzero" stroke="none" stroke-width="1" stroke-linecap="butt" stroke-linejoin="miter" stroke-miterlimit="10" stroke-dasharray="" stroke-dashoffset="0" font-family="Sans Serif" font-weight="normal" text-anchor="start" style="mix-blend-mode: normal"><tspan x="0" dy="0">Nein</tspan></text><text transform="translate(201,145.72222) scale(0.5,0.5)" font-size="40" xml:space="preserve" fill="#2e2d80" fill-rule="nonzero" stroke="none" stroke-width="1" stroke-linecap="butt" stroke-linejoin="miter" stroke-miterlimit="10" stroke-dasharray="" stroke-dashoffset="0" font-family="Sans Serif" font-weight="normal" text-anchor="start" style="mix-blend-mode: normal"><tspan x="0" dy="0">Mobile ?</tspan></text><text transform="translate(218.5,234.22222) scale(0.5,0.5)" font-size="40" xml:space="preserve" fill="#2e2d80" fill-rule="nonzero" stroke="none" stroke-width="1" stroke-linecap="butt" stroke-linejoin="miter" stroke-miterlimit="10" stroke-dasharray="" stroke-dashoffset="0" font-family="Sans Serif" font-weight="normal" text-anchor="start" style="mix-blend-mode: normal"><tspan x="0" dy="0">?????</tspan></text></g></g></svg>