<svg version="1.1" xmlns="http://www.w3.org/2000/svg" xmlns:xlink="http://www.w3.org/1999/xlink" width="313.9415" height="113.06676" viewBox="0,0,313.9415,113.06676"><g transform="translate(-74.51976,-211.31862)"><g data-paper-data="{&quot;isPaintingLayer&quot;:true}" fill-rule="nonzero" stroke-width="2" stroke-linejoin="miter" stroke-miterlimit="10" stroke-dasharray="" stroke-dashoffset="0" style="mix-blend-mode: normal"><path d="M203.5067,320.57832l-31.83463,-2.13302l1.81723,-16.3053l32.71443,2.70273z" data-paper-data="{&quot;index&quot;:null}" fill="#576cf2" stroke="#000000" stroke-linecap="round"/><path d="M173.44055,319.87831l-29.22204,-4.28792l3.57906,-16.55094l26.83734,4.44931z" data-paper-data="{&quot;index&quot;:null}" fill="#576cf2" stroke="#000000" stroke-linecap="round"/><path d="M131.57229,302.77913l1.29826,-7.87625l4.83795,-2.27126l4.52816,-0.89956l3.45136,1.74058l1.87311,2.34526l1.46005,4.17419l-0.11817,4.77886l0.1618,12.05045l-0.72285,3.20063l-4.58726,3.28899l-3.65787,-0.82611l-2.99411,-1.63732l-3.22991,-6.97668l-1.60751,-5.64917z" data-paper-data="{&quot;index&quot;:null}" fill="#ffffff" stroke="#000000" stroke-linecap="round"/><path d="M291.42328,253.36933l41.18359,-2.52059l0.75589,19.67299l-42.17439,1.15136z" fill="#2b841f" stroke="#000000" stroke-linecap="round"/><path d="M335.41551,251.34449l35.63695,0.16644l-0.08322,17.81847l-38.46262,0.21498z" fill="#2b841f" stroke="#000000" stroke-linecap="round"/><path d="M371.10348,259.43144l-0.76689,-8.63909l1.29959,-6.62647l3.9361,-4.70298l3.50911,0.03524l1.19388,3.90085l4.77066,25.53104l-15.47905,1.8364z" data-paper-data="{&quot;index&quot;:null}" fill="#853c1e" stroke="#000000" stroke-linecap="round"/><path d="M298.47609,276.07414l40.99948,4.6351l-2.65556,19.50758l-41.73872,-6.15495z" data-paper-data="{&quot;index&quot;:null}" fill="#2b841f" stroke="#000000" stroke-linecap="round"/><path d="M340.34184,282.63081l35.54366,-2.58227l1.29113,17.77183l-38.3315,3.18044z" data-paper-data="{&quot;index&quot;:null}" fill="#2b841f" stroke="#000000" stroke-linecap="round"/><path d="M374.86948,289.73681l1.22596,-8.58596l2.77831,-6.15468l4.90598,-3.68001l3.40837,0.83557l0.27163,4.07041l-1.18496,25.94589l-15.48945,-1.74651z" data-paper-data="{&quot;index&quot;:null}" fill="#853c1e" stroke="#000000" stroke-linecap="round"/><path d="M198.49969,236.80545l-32.82535,0.18793l-0.56244,-16.39661l31.90447,0.31268z" data-paper-data="{&quot;index&quot;:null}" fill="#576cf2" stroke="#000000" stroke-linecap="round"/><path d="M163.80306,238.32564l-27.05565,-2.83385l0.94252,-16.90725l29.31199,3.62244z" data-paper-data="{&quot;index&quot;:null}" fill="#576cf2" stroke="#000000" stroke-linecap="round"/><path d="M124.16461,227.60553l1.54747,-5.6659l3.15571,-7.01055l2.97657,-1.66899l3.64891,-0.86486l4.62188,3.24015l0.75676,3.19279l-0.03395,12.05148l0.16885,4.77735l-1.41569,4.18945l-1.84813,2.36499l-3.43269,1.7771l-4.53746,-0.85147l-4.86178,-2.21981l-1.38174,-7.86203z" data-paper-data="{&quot;index&quot;:null}" fill="#ffffff" stroke="#000000" stroke-linecap="round"/><path d="M300.82775,301.24508l-111.95441,4.25318l-1.67866,-66.55619l109.12322,-4.59114z" fill="none" stroke="#000000" stroke-linecap="round"/><path d="M188.77034,262.80094l107.31537,-3.09954l1.73992,17.2817l-109.54804,5.54935z" fill="#ffa429" stroke="#000000" stroke-linecap="round"/><path d="M188.15588,282.79076l109.47099,-5.65406l2.77119,22.39567l-110.04729,5.68078z" fill="#576cf2" stroke="#000000" stroke-linecap="round"/><path d="M187.79682,262.59341l-0.46598,-22.50257l107.74208,-5.57388l1.72548,24.75433z" fill="#576cf2" stroke="#000000" stroke-linecap="round"/><path d="M198.46184,255.38312l-1.13266,18.71576l-3.17548,5.91272l-5.16032,7.67103l-7.30157,4.25419l-8.01083,0.45441l-7.57125,0.95062l-8.36546,-1.44548l-6.43725,-2.26801l-5.06188,-1.71516l-6.43725,-2.26801l-3.04873,-3.94137l-0.80904,-9.91072l-1.00725,-6.63546l2.21137,-5.50146l6.564,-7.58608l8.67694,-3.70135l7.6562,-2.3543l8.01083,-0.45441l5.14683,0.31148l7.9542,0.48138l6.08262,0.36811l3.21862,1.134l4.45241,4.02632z" fill="#ffe5c7" stroke="#000000" stroke-linecap="round"/><path d="M156.28396,292.74721l-2.45274,1.72999l-3.79978,0.70926l-5.72799,1.53178l-6.60715,0.53936l-6.55052,-0.39643l-6.96178,-1.36053l-4.56567,-2.15474l-4.94862,-3.58674l-4.39578,-4.9621l-3.60157,-2.566l-8.50704,0.89399l-7.10336,0.97894l-4.21105,-0.25485l-7.42967,-1.38885l-3.6582,-1.63021l-0.24136,-3.77147l0.25485,-4.21105l0.66611,-3.24694l2.59432,-4.06946l4.90547,-3.45999l6.19589,-1.50346l8.1241,-2.32598l6.25252,-2.43925l7.76947,-4.22588l3.998,-3.98451l4.35263,-2.08462l7.18831,-2.38262l7.98251,0.01349l14.09345,-0.08629l6.55052,0.39643l4.62231,1.21895l-15.89356,6.55186l-6.53568,7.11819l-3.81327,8.69177l4.97828,18.61598l13.69702,6.46422" fill="#ad4a00" stroke="#000000" stroke-linecap="round"/><path d="M156.5941,272.10324c3.61775,0.21894 6.39204,3.01497 6.19656,6.2451c-0.19548,3.23013 -3.28672,5.67118 -6.90447,5.45224c-3.61775,-0.21894 -6.39204,-3.01497 -6.19656,-6.24511c0.19548,-3.23013 3.28672,-5.67119 6.90447,-5.45225z" fill="#00ffce" stroke="#000000" stroke-linecap="butt"/><path d="M157.61798,252.59822c3.61775,0.21894 6.39204,3.01497 6.19656,6.2451c-0.19548,3.23013 -3.28672,5.67118 -6.90447,5.45224c-3.61775,-0.21894 -6.39204,-3.01497 -6.19656,-6.24511c0.19548,-3.23013 3.28672,-5.67119 6.90447,-5.45225z" fill="#00ffce" stroke="#000000" stroke-linecap="butt"/><g data-paper-data="{&quot;index&quot;:null}" fill="none" stroke="#ff0000" stroke-linecap="round"><path d="M190.29707,279.07379l-2.19789,-2.48105l-1.14883,-4.29599l0.22653,-3.74315l0.89264,-6.99009"/><path d="M187.21755,274.34788l-0.04315,-7.04673l0.22653,-3.74315l1.65853,-4.1261l2.48105,-2.19789" data-paper-data="{&quot;index&quot;:null}"/></g><path d="M160.10191,281.83367l-8.28298,-7.60516" fill="none" stroke="#000000" stroke-linecap="round"/><path d="M149.49361,285.56329l11.15199,-12.71318" fill="none" stroke="#000000" stroke-linecap="round"/><path d="M162.42018,284.15978l-12.13577,-11.66349" fill="none" stroke="#000000" stroke-linecap="round"/><path d="M149.92902,264.82444l12.60414,-9.61981" fill="none" stroke="#000000" stroke-linecap="round"/><path d="M162.51746,264.49339l-11.55837,-12.17501" fill="none" stroke="#000000" stroke-linecap="round"/></g></g></svg>