<svg version="1.1" xmlns="http://www.w3.org/2000/svg" xmlns:xlink="http://www.w3.org/1999/xlink" width="171.36352" height="321.69029" viewBox="0,0,171.36352,321.69029"><g transform="translate(-148.51162,-14.39315)"><g data-paper-data="{&quot;isPaintingLayer&quot;:true}" fill-rule="nonzero" stroke-linejoin="miter" stroke-miterlimit="10" stroke-dasharray="" stroke-dashoffset="0" style="mix-blend-mode: normal"><path d="M202.50001,244.96529l0.9375,-112.03125l66.5625,1.40625l-0.46875,109.21875z" fill="none" stroke="#000000" stroke-width="2" stroke-linecap="round"/><path d="M246.09376,134.80903l-1.875,107.34375l-17.34375,0.9375l-0.46875,-109.6875z" fill="#ffa429" stroke="#000000" stroke-width="2" stroke-linecap="round"/><path d="M262.30276,240.37573l15.23653,38.34436l-18.45646,6.85252l-14.24452,-39.71271z" fill="#2b841f" stroke="#000000" stroke-width="2" stroke-linecap="round"/><path d="M276.04839,275.43007l16.94831,31.34923l-15.67461,8.47415l-18.63839,-33.64564z" fill="#2b841f" stroke="#000000" stroke-width="2" stroke-linecap="round"/><path d="M284.2484,311.39791l7.373,-4.56735l6.5037,-1.81683l5.97017,1.40282l1.54546,3.15066l-2.94828,2.81952l-20.66402,15.73505l-8.59656,-13.00279z" data-paper-data="{&quot;index&quot;:null}" fill="#853c1e" stroke="#000000" stroke-width="2" stroke-linecap="round"/><path d="M222.84754,247.99396l-14.35548,39.67272l-18.43723,-6.90408l15.34366,-38.30161z" data-paper-data="{&quot;index&quot;:null}" fill="#2b841f" stroke="#000000" stroke-width="2" stroke-linecap="round"/><path d="M209.38863,286.69581l-15.96964,34.99128l-16.28528,-7.23149l14.46297,-32.57058z" data-paper-data="{&quot;index&quot;:null}" fill="#2b841f" stroke="#000000" stroke-width="2" stroke-linecap="round"/><path d="M180.44145,318.11255l7.87664,3.63043l5.10294,4.42257l2.12311,5.75356l-1.77549,3.02699l-3.97805,-0.90391l-24.52311,-8.55633l6.10372,-14.34287z" data-paper-data="{&quot;index&quot;:null}" fill="#853c1e" stroke="#000000" stroke-width="2" stroke-linecap="round"/><path d="M226.15386,133.26924l0.57692,109.61539l-22.5,1.73077l-0.57692,-110.19231z" fill="#576cf2" stroke="#000000" stroke-width="2" stroke-linecap="round"/><path d="M246.34616,133.84617l22.5,0.57692l0.57692,107.88462l-24.80769,0.57692z" fill="#576cf2" stroke="#000000" stroke-width="2" stroke-linecap="round"/><path d="M280.3349,134.27617l11.03821,29.93579l-15.62835,4.99194l-10.87694,-30.97146z" data-paper-data="{&quot;index&quot;:null}" fill="#576cf2" stroke="#000000" stroke-width="2" stroke-linecap="round"/><path d="M290.40502,161.99104l18.87025,22.72065l-13.72437,9.91891l-16.98857,-21.24682z" data-paper-data="{&quot;index&quot;:null}" fill="#576cf2" stroke="#000000" stroke-width="2" stroke-linecap="round"/><path d="M307.47173,201.59792l-7.13573,3.578l-4.68073,-2.57977l-3.38881,-3.1352l-0.61983,-3.81539l0.79687,-2.89375l2.51941,-3.63431l3.93611,-2.71267l9.65515,-7.21231l3.01447,-1.29598l5.35687,1.77887l1.48111,3.44511l0.43469,3.38475l-3.74691,6.71321l-3.6262,4.62037z" data-paper-data="{&quot;index&quot;:null}" fill="#ffffff" stroke="#000000" stroke-width="2" stroke-linecap="round"/><path d="M206.0008,140.54015l-17.72968,27.62603l-14.05482,-8.46327l17.64763,-26.58109z" data-paper-data="{&quot;index&quot;:null}" fill="#576cf2" stroke="#000000" stroke-width="2" stroke-linecap="round"/><path d="M188.88444,166.65082l-13.58663,23.56782l-15.0644,-7.73352l15.22426,-25.30881z" data-paper-data="{&quot;index&quot;:null}" fill="#576cf2" stroke="#000000" stroke-width="2" stroke-linecap="round"/><path d="M159.43872,199.3156l-4.52842,-3.74038l-5.09285,-5.75928l-0.29742,-3.39957l0.71204,-3.68177l4.85404,-2.88074l3.22156,0.62303l10.97153,4.98644l4.42422,1.81051l3.23676,3.01314l1.39586,2.65713l0.20842,3.85978l-2.64193,3.78598l-4.0226,3.51898l-7.73477,-1.9733z" data-paper-data="{&quot;index&quot;:null}" fill="#ffffff" stroke="#000000" stroke-width="2" stroke-linecap="round"/><path d="M251.88509,136.7994h-18.75l-6.09375,-2.8125l-7.96875,-4.6875l-4.6875,-7.03125l-0.9375,-7.96875l-1.40625,-7.5l0.9375,-8.4375l1.875,-6.5625l1.40625,-5.15625l1.875,-6.5625l3.75,-3.28125l9.84375,-1.40625l6.5625,-1.40625l5.625,1.875l7.96875,6.09375l4.21875,8.4375l2.8125,7.5l0.9375,7.96875v5.15625v7.96875v6.09375l-0.9375,3.28125l-3.75,4.6875z" fill="#ffe5c7" stroke="#000000" stroke-width="2" stroke-linecap="round"/><path d="M212.04134,96.95565l-1.875,-2.34375l-0.9375,-3.75l-1.875,-5.625l-0.9375,-6.5625v-6.5625l0.9375,-7.03125l1.875,-4.6875l3.28125,-5.15625l4.6875,-4.6875l2.34375,-3.75l-1.40625,-8.4375l-1.40625,-7.03125v-4.21875l0.9375,-7.5l1.40625,-3.75l3.75,-0.46875h4.21875l3.28125,0.46875l4.21875,2.34375l3.75,4.6875l1.875,6.09375l2.8125,7.96875l2.8125,6.09375l4.6875,7.5l4.21875,3.75l2.34375,4.21875l2.8125,7.03125l0.46875,7.96875l0.9375,14.0625v6.5625l-0.9375,4.6875l-7.5,-15.46875l-7.5,-6.09375l-8.90625,-3.28125l-18.28125,6.09375l-5.625,14.0625" fill="#ad4a00" stroke="#000000" stroke-width="2" stroke-linecap="round"/><path d="M237.82259,124.6119l-7.03125,0.46875h-3.75l-4.21875,-1.40625l-2.34375,-2.34375" fill="none" stroke="#ff0000" stroke-width="2" stroke-linecap="round"/><path d="M232.66634,96.01815c0,3.62437 -2.62333,6.5625 -5.85937,6.5625c-3.23604,0 -5.85937,-2.93813 -5.85937,-6.5625c0,-3.62437 2.62333,-6.5625 5.85938,-6.5625c3.23604,0 5.85938,2.93813 5.85938,6.5625z" fill="#00ffce" stroke="#000000" stroke-width="2" stroke-linecap="butt"/><path d="M252.19759,95.8619c0,3.62437 -2.62333,6.5625 -5.85937,6.5625c-3.23604,0 -5.85937,-2.93813 -5.85937,-6.5625c0,-3.62437 2.62333,-6.5625 5.85938,-6.5625c3.23604,0 5.85938,2.93813 5.85938,6.5625z" fill="#00ffce" stroke="#000000" stroke-width="2" stroke-linecap="butt"/><path d="M225.99567,96.57104c0,-1.38071 1.11929,-2.5 2.5,-2.5c1.38071,0 2.5,1.11929 2.5,2.5c0,1.38071 -1.11929,2.5 -2.5,2.5c-1.38071,0 -2.5,-1.11929 -2.5,-2.5z" fill="#000000" stroke="none" stroke-width="0.5" stroke-linecap="butt"/><path d="M245.7673,96.2946c0,-1.38071 1.11929,-2.5 2.5,-2.5c1.38071,0 2.5,1.11929 2.5,2.5c0,1.38071 -1.11929,2.5 -2.5,2.5c-1.38071,0 -2.5,-1.11929 -2.5,-2.5z" fill="#000000" stroke="none" stroke-width="0.5" stroke-linecap="butt"/></g></g></svg>