<svg version="1.1" xmlns="http://www.w3.org/2000/svg" xmlns:xlink="http://www.w3.org/1999/xlink" width="158.15489" height="320.76321" viewBox="0,0,158.15489,320.76321"><g transform="translate(-151.74355,-14.39315)"><g data-paper-data="{&quot;isPaintingLayer&quot;:true}" fill-rule="nonzero" stroke-linejoin="miter" stroke-miterlimit="10" stroke-dasharray="" stroke-dashoffset="0" style="mix-blend-mode: normal"><path d="M202.50001,244.96529l0.9375,-112.03125l66.5625,1.40625l-0.46875,109.21875z" fill="none" stroke="#000000" stroke-width="2" stroke-linecap="round"/><path d="M246.09376,134.80903l-1.875,107.34375l-17.34375,0.9375l-0.46875,-109.6875z" fill="#ffa429" stroke="#000000" stroke-width="2" stroke-linecap="round"/><path d="M264.43608,239.50447l14.01405,38.80784l-18.66429,6.26434l-12.97918,-40.14407z" fill="#2b841f" stroke="#000000" stroke-width="2" stroke-linecap="round"/><path d="M273.96026,276.06806l20.76962,28.95932l-14.47966,10.38481l-22.73604,-31.02405z" fill="#2b841f" stroke="#000000" stroke-width="2" stroke-linecap="round"/><path d="M286.81373,308.03123l6.60412,-5.62205l6.15741,-2.77222l6.11308,0.49103l2.00076,2.88307l-2.49179,3.23002l-18.06877,18.65779l-10.45046,-11.56552z" data-paper-data="{&quot;index&quot;:null}" fill="#853c1e" stroke="#000000" stroke-width="2" stroke-linecap="round"/><path d="M217.8655,249.92096l-19.52242,37.4016l-17.35071,-9.30326l20.31875,-35.91085z" data-paper-data="{&quot;index&quot;:null}" fill="#2b841f" stroke="#000000" stroke-width="2" stroke-linecap="round"/><path d="M198.15072,285.68236l-17.6425,34.17837l-15.91667,-8.01029l16.02057,-31.83334z" data-paper-data="{&quot;index&quot;:null}" fill="#2b841f" stroke="#000000" stroke-width="2" stroke-linecap="round"/><path d="M171.75116,315.22996l7.20508,4.82786l4.34113,5.17239l1.18861,6.01649l-2.2309,2.7089l-3.78558,-1.52031l-22.86571,-12.31881l8.29052,-13.20003z" data-paper-data="{&quot;index&quot;:null}" fill="#853c1e" stroke="#000000" stroke-width="2" stroke-linecap="round"/><path d="M226.15386,133.26924l0.57692,109.61539l-22.5,1.73077l-0.57692,-110.19231z" fill="#576cf2" stroke="#000000" stroke-width="2" stroke-linecap="round"/><path d="M246.34616,133.84617l22.5,0.57692l0.57692,107.88462l-24.80769,0.57692z" fill="#576cf2" stroke="#000000" stroke-width="2" stroke-linecap="round"/><path d="M279.38934,135.24189l11.06435,29.92614l-15.62399,5.00559l-10.90398,-30.96195z" data-paper-data="{&quot;index&quot;:null}" fill="#576cf2" stroke="#000000" stroke-width="2" stroke-linecap="round"/><path d="M288.46829,162.61795l11.15716,27.34651l-16.0733,5.32844l-9.8063,-25.3747z" data-paper-data="{&quot;index&quot;:null}" fill="#576cf2" stroke="#000000" stroke-width="2" stroke-linecap="round"/><path d="M293.53635,207.92518l-7.81947,1.60519l-3.85163,-3.70531l-2.45988,-3.90673l0.39077,-3.84561l1.52001,-2.58812l3.37567,-2.85666l4.50491,-1.59918l11.19514,-4.46185l3.24742,-0.46994l4.71233,3.10715l0.53707,3.71134l-0.4579,3.38169l-5.35959,5.51193l-4.7003,3.52198z" data-paper-data="{&quot;index&quot;:null}" fill="#ffffff" stroke="#000000" stroke-width="2" stroke-linecap="round"/><path d="M207.04647,139.2948l-14.50734,29.44616l-14.91815,-6.82743l14.54343,-28.39863z" data-paper-data="{&quot;index&quot;:null}" fill="#576cf2" stroke="#000000" stroke-width="2" stroke-linecap="round"/><path d="M190.25284,169.36444l-12.05955,24.38454l-15.52593,-6.75935l13.5831,-26.2262z" data-paper-data="{&quot;index&quot;:null}" fill="#576cf2" stroke="#000000" stroke-width="2" stroke-linecap="round"/><path d="M161.87584,203.41186l-4.29642,-4.00471l-4.739,-6.05378l-0.09341,-3.41128l0.93113,-3.63255l5.01775,-2.58504l3.1785,0.81474l10.65341,5.63418l4.30792,2.07207l3.05062,3.20147l1.23432,2.73592l-0.02297,3.86534l-2.8638,3.62107l-4.22601,3.27191l-7.60279,-2.43272z" data-paper-data="{&quot;index&quot;:null}" fill="#ffffff" stroke="#000000" stroke-width="2" stroke-linecap="round"/><path d="M251.88509,136.7994h-18.75l-6.09375,-2.8125l-7.96875,-4.6875l-4.6875,-7.03125l-0.9375,-7.96875l-1.40625,-7.5l0.9375,-8.4375l1.875,-6.5625l1.40625,-5.15625l1.875,-6.5625l3.75,-3.28125l9.84375,-1.40625l6.5625,-1.40625l5.625,1.875l7.96875,6.09375l4.21875,8.4375l2.8125,7.5l0.9375,7.96875v5.15625v7.96875v6.09375l-0.9375,3.28125l-3.75,4.6875z" fill="#ffe5c7" stroke="#000000" stroke-width="2" stroke-linecap="round"/><path d="M212.04134,96.95565l-1.875,-2.34375l-0.9375,-3.75l-1.875,-5.625l-0.9375,-6.5625v-6.5625l0.9375,-7.03125l1.875,-4.6875l3.28125,-5.15625l4.6875,-4.6875l2.34375,-3.75l-1.40625,-8.4375l-1.40625,-7.03125v-4.21875l0.9375,-7.5l1.40625,-3.75l3.75,-0.46875h4.21875l3.28125,0.46875l4.21875,2.34375l3.75,4.6875l1.875,6.09375l2.8125,7.96875l2.8125,6.09375l4.6875,7.5l4.21875,3.75l2.34375,4.21875l2.8125,7.03125l0.46875,7.96875l0.9375,14.0625v6.5625l-0.9375,4.6875l-7.5,-15.46875l-7.5,-6.09375l-8.90625,-3.28125l-18.28125,6.09375l-5.625,14.0625" fill="#ad4a00" stroke="#000000" stroke-width="2" stroke-linecap="round"/><path d="M237.82259,124.6119l-7.03125,0.46875h-3.75l-4.21875,-1.40625l-2.34375,-2.34375" fill="none" stroke="#ff0000" stroke-width="2" stroke-linecap="round"/><path d="M232.66634,96.01815c0,3.62437 -2.62333,6.5625 -5.85937,6.5625c-3.23604,0 -5.85937,-2.93813 -5.85937,-6.5625c0,-3.62437 2.62333,-6.5625 5.85938,-6.5625c3.23604,0 5.85938,2.93813 5.85938,6.5625z" fill="#00ffce" stroke="#000000" stroke-width="2" stroke-linecap="butt"/><path d="M252.19759,95.8619c0,3.62437 -2.62333,6.5625 -5.85937,6.5625c-3.23604,0 -5.85937,-2.93813 -5.85937,-6.5625c0,-3.62437 2.62333,-6.5625 5.85938,-6.5625c3.23604,0 5.85938,2.93813 5.85938,6.5625z" fill="#00ffce" stroke="#000000" stroke-width="2" stroke-linecap="butt"/><path d="M225.99567,96.57104c0,-1.38071 1.11929,-2.5 2.5,-2.5c1.38071,0 2.5,1.11929 2.5,2.5c0,1.38071 -1.11929,2.5 -2.5,2.5c-1.38071,0 -2.5,-1.11929 -2.5,-2.5z" fill="#000000" stroke="none" stroke-width="0.5" stroke-linecap="butt"/><path d="M245.7673,96.2946c0,-1.38071 1.11929,-2.5 2.5,-2.5c1.38071,0 2.5,1.11929 2.5,2.5c0,1.38071 -1.11929,2.5 -2.5,2.5c-1.38071,0 -2.5,-1.11929 -2.5,-2.5z" fill="#000000" stroke="none" stroke-width="0.5" stroke-linecap="butt"/></g></g></svg>