<svg version="1.1" xmlns="http://www.w3.org/2000/svg" xmlns:xlink="http://www.w3.org/1999/xlink" width="104.54453" height="323.98168" viewBox="0,0,104.54453,323.98168"><g transform="translate(-180.32941,-14.39315)"><g data-paper-data="{&quot;isPaintingLayer&quot;:true}" fill-rule="nonzero" stroke-linejoin="miter" stroke-miterlimit="10" stroke-dasharray="" stroke-dashoffset="0" style="mix-blend-mode: normal"><path d="M202.50002,244.9653l0.9375,-112.03125l66.5625,1.40625l-0.46875,109.21875z" fill="none" stroke="#000000" stroke-width="2" stroke-linecap="round"/><path d="M246.09377,134.80904l-1.875,107.34375l-17.34375,0.9375l-0.46875,-109.6875z" fill="#ffa429" stroke="#000000" stroke-width="2" stroke-linecap="round"/><path d="M267.2145,242.59823l0.75477,41.25376l-19.68729,-0.08721l0.65563,-42.18502z" fill="#2b841f" stroke="#000000" stroke-width="2" stroke-linecap="round"/><path d="M266.6761,287.36512l-7.11292,34.92029l-17.46013,-3.55643l7.28988,-37.76607z" fill="#2b841f" stroke="#000000" stroke-width="2" stroke-linecap="round"/><path d="M251.97219,320.8796l8.27328,2.60281l5.62232,3.74012l2.83522,5.43802l-1.37749,3.22763l-4.06056,-0.39239l-25.40983,-5.37904l4.23654,-15.00084z" data-paper-data="{&quot;index&quot;:null}" fill="#853c1e" stroke="#000000" stroke-width="2" stroke-linecap="round"/><path d="M222.105,244.49534l-1.12012,42.98779l-20.0527,-0.74555l2.51697,-41.97964z" data-paper-data="{&quot;index&quot;:null}" fill="#2b841f" stroke="#000000" stroke-width="2" stroke-linecap="round"/><path d="M220.15003,284.8364l0.10122,38.46308l-17.8172,0.22969l-0.45937,-35.63437z" data-paper-data="{&quot;index&quot;:null}" fill="#2b841f" stroke="#000000" stroke-width="2" stroke-linecap="round"/><path d="M212.05833,323.93612l8.6702,-0.22112l6.53144,1.71449l4.44569,4.22456l-0.25625,3.49993l-3.96831,0.94575l-25.78087,3.15273l-0.85759,-15.564z" data-paper-data="{&quot;index&quot;:null}" fill="#853c1e" stroke="#000000" stroke-width="2" stroke-linecap="round"/><path d="M226.15387,133.26925l0.57692,109.61539l-22.5,1.73077l-0.57692,-110.19231z" fill="#576cf2" stroke="#000000" stroke-width="2" stroke-linecap="round"/><path d="M246.34617,133.84617l22.5,0.57692l0.57692,107.88462l-24.80769,0.57692z" fill="#576cf2" stroke="#000000" stroke-width="2" stroke-linecap="round"/><path d="M281.46367,135.84756l0.89976,31.89331l-16.4042,-0.26061l-0.41618,-32.82326z" data-paper-data="{&quot;index&quot;:null}" fill="#576cf2" stroke="#000000" stroke-width="2" stroke-linecap="round"/><path d="M283.73116,168.03366l-4.2593,29.65435l-16.79934,-3.57935l4.43037,-27.23595z" data-paper-data="{&quot;index&quot;:null}" fill="#576cf2" stroke="#000000" stroke-width="2" stroke-linecap="round"/><path d="M261.47139,211.06408l-7.57433,-2.5199l-1.48276,-5.13477l-0.17676,-4.61326l2.26135,-3.13494l2.61049,-1.48127l4.35179,-0.78594l4.70092,0.86772l11.92612,1.73398l3.04728,1.21687l2.52721,5.04714l-1.3907,3.48259l-2.0875,2.69959l-7.39759,2.09339l-5.8316,0.69973z" data-paper-data="{&quot;index&quot;:null}" fill="#ffffff" stroke="#000000" stroke-width="2" stroke-linecap="round"/><path d="M205.75036,133.87067l-3.32708,32.65686l-16.36258,-1.19603l3.72622,-31.68768z" data-paper-data="{&quot;index&quot;:null}" fill="#576cf2" stroke="#000000" stroke-width="2" stroke-linecap="round"/><path d="M203.15788,167.38819l0.5367,27.19835l-16.8939,1.1574l-0.03346,-29.53493z" data-paper-data="{&quot;index&quot;:null}" fill="#576cf2" stroke="#000000" stroke-width="2" stroke-linecap="round"/><path d="M198.40834,212.08098l-5.85079,-0.515l-7.46008,-1.85841l-2.17182,-2.63225l-1.5001,-3.43688l2.36636,-5.12449l3.00726,-1.31262l11.86532,-2.11022l4.67114,-1.01589l4.37446,0.64791l2.65601,1.39802l2.35935,3.06182l-0.0308,4.61656l-1.31963,5.17912l-7.49088,2.75812z" data-paper-data="{&quot;index&quot;:null}" fill="#ffffff" stroke="#000000" stroke-width="2" stroke-linecap="round"/><path d="M251.88509,136.7994h-18.75l-6.09375,-2.8125l-7.96875,-4.6875l-4.6875,-7.03125l-0.9375,-7.96875l-1.40625,-7.5l0.9375,-8.4375l1.875,-6.5625l1.40625,-5.15625l1.875,-6.5625l3.75,-3.28125l9.84375,-1.40625l6.5625,-1.40625l5.625,1.875l7.96875,6.09375l4.21875,8.4375l2.8125,7.5l0.9375,7.96875v5.15625v7.96875v6.09375l-0.9375,3.28125l-3.75,4.6875z" fill="#ffe5c7" stroke="#000000" stroke-width="2" stroke-linecap="round"/><path d="M212.04134,96.95565l-1.875,-2.34375l-0.9375,-3.75l-1.875,-5.625l-0.9375,-6.5625v-6.5625l0.9375,-7.03125l1.875,-4.6875l3.28125,-5.15625l4.6875,-4.6875l2.34375,-3.75l-1.40625,-8.4375l-1.40625,-7.03125v-4.21875l0.9375,-7.5l1.40625,-3.75l3.75,-0.46875h4.21875l3.28125,0.46875l4.21875,2.34375l3.75,4.6875l1.875,6.09375l2.8125,7.96875l2.8125,6.09375l4.6875,7.5l4.21875,3.75l2.34375,4.21875l2.8125,7.03125l0.46875,7.96875l0.9375,14.0625v6.5625l-0.9375,4.6875l-7.5,-15.46875l-7.5,-6.09375l-8.90625,-3.28125l-18.28125,6.09375l-5.625,14.0625" fill="#ad4a00" stroke="#000000" stroke-width="2" stroke-linecap="round"/><path d="M237.82259,124.6119l-7.03125,0.46875h-3.75l-4.21875,-1.40625l-2.34375,-2.34375" fill="none" stroke="#ff0000" stroke-width="2" stroke-linecap="round"/><path d="M232.66634,96.01815c0,3.62437 -2.62333,6.5625 -5.85937,6.5625c-3.23604,0 -5.85937,-2.93813 -5.85937,-6.5625c0,-3.62437 2.62333,-6.5625 5.85938,-6.5625c3.23604,0 5.85938,2.93813 5.85938,6.5625z" fill="#00ffce" stroke="#000000" stroke-width="2" stroke-linecap="butt"/><path d="M252.19759,95.8619c0,3.62437 -2.62333,6.5625 -5.85937,6.5625c-3.23604,0 -5.85937,-2.93813 -5.85937,-6.5625c0,-3.62437 2.62333,-6.5625 5.85938,-6.5625c3.23604,0 5.85938,2.93813 5.85938,6.5625z" fill="#00ffce" stroke="#000000" stroke-width="2" stroke-linecap="butt"/><path d="M225.99567,96.57104c0,-1.38071 1.11929,-2.5 2.5,-2.5c1.38071,0 2.5,1.11929 2.5,2.5c0,1.38071 -1.11929,2.5 -2.5,2.5c-1.38071,0 -2.5,-1.11929 -2.5,-2.5z" fill="#000000" stroke="none" stroke-width="0.5" stroke-linecap="butt"/><path d="M245.7673,96.2946c0,-1.38071 1.11929,-2.5 2.5,-2.5c1.38071,0 2.5,1.11929 2.5,2.5c0,1.38071 -1.11929,2.5 -2.5,2.5c-1.38071,0 -2.5,-1.11929 -2.5,-2.5z" fill="#000000" stroke="none" stroke-width="0.5" stroke-linecap="butt"/></g></g></svg>