<svg version="1.1" xmlns="http://www.w3.org/2000/svg" xmlns:xlink="http://www.w3.org/1999/xlink" width="94.57231" height="314.2629" viewBox="0,0,94.57231,314.2629"><g transform="translate(-191.89268,-14.39315)"><g data-paper-data="{&quot;isPaintingLayer&quot;:true}" fill-rule="nonzero" stroke-linejoin="miter" stroke-miterlimit="10" stroke-dasharray="" stroke-dashoffset="0" style="mix-blend-mode: normal"><path d="M202.50002,244.9653l0.9375,-112.03125l66.5625,1.40625l-0.46875,109.21875z" fill="none" stroke="#000000" stroke-width="2" stroke-linecap="round"/><path d="M246.09377,134.80904l-1.875,107.34375l-17.34375,0.9375l-0.46875,-109.6875z" fill="#ffa429" stroke="#000000" stroke-width="2" stroke-linecap="round"/><path d="M271.88237,250.37703l-23.88898,33.64163l-15.78893,-11.76039l25.57679,-33.55344z" fill="#2b841f" stroke="#000000" stroke-width="2" stroke-linecap="round"/><path d="M250.83485,283.50017l-20.75532,28.96958l-14.48479,-10.37763l22.07917,-31.49491z" fill="#2b841f" stroke="#000000" stroke-width="2" stroke-linecap="round"/><path d="M222.33879,308.10616l6.95799,5.17767l4.0805,5.38039l0.89016,6.06781l-2.36189,2.59549l-3.70594,-1.70532l-22.22973,-13.43252l8.93202,-12.77469z" data-paper-data="{&quot;index&quot;:null}" fill="#853c1e" stroke="#000000" stroke-width="2" stroke-linecap="round"/><path d="M218.27972,240.03854l17.92569,38.1926l-17.91396,8.16627l-16.25723,-37.92285z" data-paper-data="{&quot;index&quot;:null}" fill="#2b841f" stroke="#000000" stroke-width="2" stroke-linecap="round"/><path d="M231.00432,273.47796l20.48556,32.55397l-14.98298,9.64447l-19.28893,-29.96594z" data-paper-data="{&quot;index&quot;:null}" fill="#2b841f" stroke="#000000" stroke-width="2" stroke-linecap="round"/><path d="M244.78155,310.33193l6.86444,-5.30102l6.2825,-2.47574l6.08277,0.7817l1.86113,2.97512l-2.64283,3.10762l-18.93715,17.77574l-9.88759,-12.05027z" data-paper-data="{&quot;index&quot;:null}" fill="#853c1e" stroke="#000000" stroke-width="2" stroke-linecap="round"/><path d="M226.15387,133.26925l0.57692,109.61539l-22.5,1.73077l-0.57692,-110.19231z" fill="#576cf2" stroke="#000000" stroke-width="2" stroke-linecap="round"/><path d="M246.34617,133.84617l22.5,0.57692l0.57692,107.88462l-24.80769,0.57692z" fill="#576cf2" stroke="#000000" stroke-width="2" stroke-linecap="round"/><path d="M285.14757,144.16968l-15.98714,27.61168l-13.82197,-8.83847l16.8871,-28.14898z" data-paper-data="{&quot;index&quot;:null}" fill="#576cf2" stroke="#000000" stroke-width="2" stroke-linecap="round"/><path d="M266.64927,171.63822l-16.16329,25.22439l-13.80646,-10.21819l15.31696,-22.95246z" data-paper-data="{&quot;index&quot;:null}" fill="#576cf2" stroke="#000000" stroke-width="2" stroke-linecap="round"/><path d="M232.84777,191.80638l-3.63648,-7.10609l2.54124,-4.70176l3.10726,-3.41444l3.81019,-0.65116l2.9002,0.77308l3.65489,2.48949l2.74491,3.91371l7.29135,9.59559l1.32069,3.00374l-1.73483,5.37129l-3.43283,1.50935l-3.38106,0.46248l-6.74376,-3.69164l-4.64999,-3.58814z" data-paper-data="{&quot;index&quot;:null}" fill="#ffffff" stroke="#000000" stroke-width="2" stroke-linecap="round"/><path d="M206.20592,133.21207l16.65658,28.28601l-13.8937,8.72524l-15.76102,-27.74137z" data-paper-data="{&quot;index&quot;:null}" fill="#576cf2" stroke="#000000" stroke-width="2" stroke-linecap="round"/><path d="M224.28025,160.39272l14.40494,23.07674l-13.91134,9.65494l-15.1708,-25.34088z" data-paper-data="{&quot;index&quot;:null}" fill="#576cf2" stroke="#000000" stroke-width="2" stroke-linecap="round"/><path d="M243.71222,197.72211l-4.96996,3.12992l-7.06408,3.03399l-3.32182,-0.78174l-3.27382,-1.82881l-1.21644,-5.51184l1.60019,-2.86462l8.17034,-8.85914l3.10448,-3.63508l3.87493,-2.13086l2.96056,-0.49391l3.73103,1.01031l2.76868,3.69432l2.08289,4.92201l-4.29542,6.72829z" data-paper-data="{&quot;index&quot;:null}" fill="#ffffff" stroke="#000000" stroke-width="2" stroke-linecap="round"/><path d="M251.88509,136.7994h-18.75l-6.09375,-2.8125l-7.96875,-4.6875l-4.6875,-7.03125l-0.9375,-7.96875l-1.40625,-7.5l0.9375,-8.4375l1.875,-6.5625l1.40625,-5.15625l1.875,-6.5625l3.75,-3.28125l9.84375,-1.40625l6.5625,-1.40625l5.625,1.875l7.96875,6.09375l4.21875,8.4375l2.8125,7.5l0.9375,7.96875v5.15625v7.96875v6.09375l-0.9375,3.28125l-3.75,4.6875z" fill="#ffe5c7" stroke="#000000" stroke-width="2" stroke-linecap="round"/><path d="M212.04134,96.95565l-1.875,-2.34375l-0.9375,-3.75l-1.875,-5.625l-0.9375,-6.5625v-6.5625l0.9375,-7.03125l1.875,-4.6875l3.28125,-5.15625l4.6875,-4.6875l2.34375,-3.75l-1.40625,-8.4375l-1.40625,-7.03125v-4.21875l0.9375,-7.5l1.40625,-3.75l3.75,-0.46875h4.21875l3.28125,0.46875l4.21875,2.34375l3.75,4.6875l1.875,6.09375l2.8125,7.96875l2.8125,6.09375l4.6875,7.5l4.21875,3.75l2.34375,4.21875l2.8125,7.03125l0.46875,7.96875l0.9375,14.0625v6.5625l-0.9375,4.6875l-7.5,-15.46875l-7.5,-6.09375l-8.90625,-3.28125l-18.28125,6.09375l-5.625,14.0625" fill="#ad4a00" stroke="#000000" stroke-width="2" stroke-linecap="round"/><path d="M237.82259,124.6119l-7.03125,0.46875h-3.75l-4.21875,-1.40625l-2.34375,-2.34375" fill="none" stroke="#ff0000" stroke-width="2" stroke-linecap="round"/><path d="M232.66634,96.01815c0,3.62437 -2.62333,6.5625 -5.85937,6.5625c-3.23604,0 -5.85937,-2.93813 -5.85937,-6.5625c0,-3.62437 2.62333,-6.5625 5.85938,-6.5625c3.23604,0 5.85938,2.93813 5.85938,6.5625z" fill="#00ffce" stroke="#000000" stroke-width="2" stroke-linecap="butt"/><path d="M252.19759,95.8619c0,3.62437 -2.62333,6.5625 -5.85937,6.5625c-3.23604,0 -5.85937,-2.93813 -5.85937,-6.5625c0,-3.62437 2.62333,-6.5625 5.85938,-6.5625c3.23604,0 5.85938,2.93813 5.85938,6.5625z" fill="#00ffce" stroke="#000000" stroke-width="2" stroke-linecap="butt"/><path d="M225.99567,96.57104c0,-1.38071 1.11929,-2.5 2.5,-2.5c1.38071,0 2.5,1.11929 2.5,2.5c0,1.38071 -1.11929,2.5 -2.5,2.5c-1.38071,0 -2.5,-1.11929 -2.5,-2.5z" fill="#000000" stroke="none" stroke-width="0.5" stroke-linecap="butt"/><path d="M245.7673,96.2946c0,-1.38071 1.11929,-2.5 2.5,-2.5c1.38071,0 2.5,1.11929 2.5,2.5c0,1.38071 -1.11929,2.5 -2.5,2.5c-1.38071,0 -2.5,-1.11929 -2.5,-2.5z" fill="#000000" stroke="none" stroke-width="0.5" stroke-linecap="butt"/></g></g></svg>