<svg version="1.1" xmlns="http://www.w3.org/2000/svg" xmlns:xlink="http://www.w3.org/1999/xlink" width="28.80122" height="25.74103" viewBox="0,0,28.80122,25.74103"><g transform="translate(-225.93752,-166.9375)"><g data-paper-data="{&quot;isPaintingLayer&quot;:true}" fill-rule="nonzero" stroke-linejoin="miter" stroke-miterlimit="10" stroke-dasharray="" stroke-dashoffset="0" style="mix-blend-mode: normal"><path d="M251.9046,174.28619l-5.13158,4.73684l-1.18421,9.47368l-5.92105,1.57895l-1.57895,-11.44737l-9.86842,-5.92105" fill="none" stroke="#8eff57" stroke-width="4" stroke-linecap="round"/><path d="M242.03618,187.70723v-9.47368l1.18421,-8.68421" fill="none" stroke="#8eff57" stroke-width="4" stroke-linecap="round"/><path d="M242.6895,180.85493c-0.95559,-2.432 2.67654,-4.23 4.03609,-1.9773c1.51971,2.51807 0.58361,4.61138 -0.56465,6.90791c-0.24612,0.49224 -1.4897,2.10878 -2.31729,1.55705c-1.04045,-0.07063 -1.86253,-0.93699 -1.86253,-1.99535c0,-0.50043 0.1838,-0.95794 0.48757,-1.30869c0.51183,-1.13851 0.87002,-1.53138 0.22082,-3.18362z" fill="#8eff57" stroke="none" stroke-width="0.5" stroke-linecap="butt"/><path d="M236.93752,185.4375l-0.5,-4.625l-0.375,-1.375l-7.5,-4.125l-1,-1l-1.125,-0.875v-0.75l0.5,-1.125l0.625,-0.5h1.25l2.125,1.25l4,2.375l2.125,1.25l3,1.25l0.875,-7.375l1.125,-2.375h0.75l0.875,0.125l1,0.375l0.625,1.375l-0.25,1.625l-0.875,7.125l0.75,-0.125l1.625,-1.125l4.125,-4l0.75,-0.25h1l0.875,0.25l0.875,0.75l-0.375,1.75l-4.875,4.375l-1.875,10.125l-9,2.25z" fill="none" stroke="#86ef51" stroke-width="1" stroke-linecap="round"/></g></g></svg>