<svg version="1.1" xmlns="http://www.w3.org/2000/svg" xmlns:xlink="http://www.w3.org/1999/xlink" width="229.23448" height="197.40677" viewBox="0,0,229.23448,197.40677"><g transform="translate(-118.32644,-31.69163)"><g stroke="none" stroke-width="0.5" stroke-miterlimit="10"><path d="M123.47406,101.00825c0,4.2571 0.76982,6.02602 3.32193,9.41981c1.22086,1.66327 1.61076,3.83047 2.78064,5.52999c0.55338,0.80391 1.61712,1.10267 2.34657,1.75106c0.62397,0.55464 0.96328,1.44305 1.6963,1.8426c0.72797,0.39679 1.69325,0.08375 2.4518,0.41837c0.67343,0.29707 1.02982,1.15787 1.69928,1.42664c0.67693,-2.62448 1.52157,-5.17153 2.49873,-7.65946c0.30176,-1.39638 0.71814,-2.76949 1.45694,-4.12599c0.18595,-0.34142 0.45755,-0.62883 0.72918,-0.91542c0.34654,-0.73275 0.70305,-1.46122 1.06855,-2.18591c0.07614,-0.67301 0.09724,-1.36355 0.45062,-1.9207c0.26915,-0.42435 0.66519,-0.73279 1.08891,-1.01805c0.97033,-1.78839 1.98848,-3.55755 3.03909,-5.31549c-10.21117,-2.80575 -24.62855,-10.5547 -24.62855,2.75255zM157.60753,95.5223c1.11803,2.23607 -1.11803,3.3541 -1.11803,3.3541l-0.44225,0.07769c-2.2019,2.1962 -3.82016,4.94741 -6.0059,7.09788c-0.30856,0.30358 -0.76097,0.45054 -1.15817,0.6491c-0.30732,0.57706 -0.60889,1.15643 -0.90412,1.73838c-0.00044,0.42586 0.01211,0.85838 -0.15316,1.23311c-0.45971,1.04232 -1.21052,1.95105 -1.81746,2.92015c-0.32643,0.74165 -0.64085,1.48823 -0.9421,2.24025c-0.41125,1.78126 -0.40204,3.66231 -0.93711,5.41263c-0.49842,1.63045 -1.06178,3.13627 -2.04919,4.25922c-0.74385,3.47997 -1.1529,7.10012 -1.13428,10.90086c0,20.84755 11.54916,25.57514 18.3621,42.69575c1.99078,5.00273 1.81897,10.89907 3.87098,15.95733c10.97413,32.88886 22.39994,30.02735 53.88957,30.02735c22.47259,0.18539 44.61837,-8.73585 67.15684,-8.73585c15.82193,0.05384 31.18799,-3.29087 46.51638,-6.34975c0.05089,-0.01016 0.10268,-0.01969 0.15521,-0.02849c-0.34876,-0.13488 -0.66294,-0.26811 -0.87666,-0.37311c-4.31281,-2.11885 -7.23022,-3.46588 -10.2482,-7.45201c-5.19937,-13.80992 22.85135,-11.81165 23.44195,-14.03495c0.30406,-1.14462 -1.66468,-1.68622 -2.45631,-2.56708c-3.76118,-4.18512 -5.68694,-8.74283 -6.34752,-14.04545c-0.42286,0.19117 -0.96432,0.26299 -1.65203,0.09106c-2.42536,-0.60634 -1.81902,-3.0317 -1.81902,-3.0317l0.47135,-1.57762c0.01076,-1.04347 0.02152,-2.08694 0.03228,-3.13041c6.92809,-20.78426 -0.12643,-43.03361 -4.35166,-64.08213c-5.98167,-30.5589 -12.70191,-33.49045 -35.41486,-51.85286c-8.12572,-3.43731 -15.6896,-7.97739 -24.30339,-10.06344c-7.01182,-1.69809 -38.49688,5.00261 -44.55399,8.63688c-26.15877,4.01581 -44.2485,12.30107 -57.6597,34.9657c-2.81143,4.67509 -5.86288,9.23303 -8.82167,13.81853c0.46429,0.18062 0.92155,0.55174 1.27013,1.2489zM134.26832,124.63369c-0.96259,-0.35951 -2.11281,-0.16936 -3.00811,-0.67361c-1.06772,-0.60136 -1.75573,-1.7112 -2.67162,-2.52533c-1.01325,-0.90067 -2.32925,-1.51093 -3.11334,-2.61686c-1.16041,-1.63672 -1.45333,-3.80159 -2.67926,-5.38983c-3.65736,-4.88829 -4.9577,-9.24002 -4.30977,-15.39611c1.88186,-17.87987 20.97931,-5.72672 32.24963,-4.06932c3.33872,-5.32804 6.86304,-10.61227 10.13575,-16.08024c14.12573,-23.14736 32.88796,-33.53711 60.27427,-37.10506c7.57419,-4.54452 38.27275,-10.36968 47.17242,-8.83482c9.17773,1.58281 17.482,7.02169 25.92774,10.6842c24.04232,19.05071 31.26901,23.34243 37.74787,55.16129c4.28606,21.51555 11.4765,44.35831 4.43874,65.69909c0.06724,-0.00394 0.13645,-0.00597 0.20768,-0.00597c2.5,0 2.5,2.5 2.5,2.5c-0.01313,5.5742 8.92591,22.42428 8.39812,23.64043c-1.40293,3.23273 -27.07837,5.18223 -23.51324,8.89666c2.10979,2.85435 14.69234,9.02326 14.00537,11.43971c-1.90735,6.70912 -46.1396,10.36938 -53.80534,10.3923c-22.54364,0 -44.61916,8.58552 -67.15684,8.73585c-33.31394,0 -46.94351,1.65259 -58.58449,-33.30756c-1.96621,-4.97711 -1.81685,-10.85445 -3.77289,-15.71013c-7.18751,-17.84223 -18.76526,-22.62104 -18.76526,-44.66274c0.01306,-3.19463 0.29466,-6.26115 0.7995,-9.22314c-0.835,-0.41828 -1.59583,-1.21975 -2.47694,-1.54883z" fill="#000000"/><path d="M156.29132,94.254c2.95879,-4.5855 6.01437,-9.15125 8.8258,-13.82634c13.4112,-22.66463 31.5318,-30.97144 57.69057,-34.98724c6.05711,-3.63427 37.56629,-10.33448 44.57811,-8.63639c8.61379,2.08605 16.19017,6.63141 24.31588,10.06872c22.71295,18.36241 29.45452,21.31952 35.43619,51.87842c4.22522,21.04852 11.27987,43.33238 4.35178,64.11664c-0.01076,1.04347 -0.02207,2.08837 -0.03283,3.13184l-0.47167,1.57841c0,0 -0.60676,2.42633 1.8186,3.03266c0.68771,0.17193 1.22932,0.09976 1.65218,-0.0914c0.66058,5.30263 2.58431,9.86446 6.34549,14.04959c0.79163,0.88086 2.76015,1.42287 2.45609,2.56749c-0.5906,2.2233 -28.64796,0.23424 -23.44859,14.04415c3.01798,3.98613 5.86108,5.26624 10.17389,7.38509c0.21373,0.105 0.52782,0.23833 0.87658,0.37321c-0.05252,0.0088 -0.02947,0.08466 -0.08036,0.09481c-15.32839,3.05888 -30.70965,6.4152 -46.53158,6.36137c-22.53847,0 -44.71936,8.92475 -67.19195,8.73936c-31.48963,0 -42.94144,2.84461 -53.91557,-30.04425c-2.052,-5.05826 -1.88461,-10.96102 -3.87538,-15.96375c-6.81294,-17.12061 -18.36872,-21.87069 -18.36872,-42.71824c-0.01862,-3.80074 0.39046,-7.42631 1.13431,-10.90628c0.98741,-1.12295 1.55095,-2.63098 2.04937,-4.26144c0.53506,-1.75032 0.52622,-3.63413 0.93747,-5.41539c0.30125,-0.75202 0.61587,-1.49979 0.94231,-2.24144c0.60694,-0.9691 1.35808,-1.87946 1.81779,-2.92178c0.16527,-0.37473 0.15287,-0.80787 0.1533,-1.23373c0.29523,-0.58194 0.59704,-1.16227 0.90436,-1.73934c0.3972,-0.19856 0.84973,-0.34598 1.15829,-0.64956c2.18574,-2.15047 3.80537,-4.90606 6.00727,-7.10225l0.44229,-0.07781c0,0 2.23677,-1.11984 1.11874,-3.3559c-0.34858,-0.69716 -0.80571,-1.06862 -1.26999,-1.24923z" fill-opacity="0.32157" fill="#f0f0f0"/><path d="M261.52359,111.92807c0,-2.5 2.5,-2.5 2.5,-2.5h1.09198c4.64551,0.09284 9.19506,-2.32989 13.72299,-3.23083c2.75834,-0.54884 5.99012,0.012 8.73585,-0.54599c0.96045,-0.19518 1.76739,-0.90749 2.72995,-1.09198c2.84007,-0.54434 6.31022,-0.04511 9.20862,-0.04511c0.3573,0 5.73753,-0.00938 5.86036,0.03228c1.88363,0.63891 3.50785,1.87619 5.26177,2.81428c-6.36836,13.93494 -15.62551,24.15396 -27.02951,32.17901c-2.33816,1.64537 -3.71973,7.98474 -5.57021,10.46971c0,0 -1.5,2 -3.5,0.5c-2,-1.5 -0.5,-3.5 -0.5,-3.5c2.44781,-3.23648 3.34701,-8.7892 6.44158,-11.36992c3.76211,-3.13741 8.64811,-5.50301 12.40702,-8.60467c3.95979,-3.26741 6.88874,-11.76059 10.0889,-16.06079c0.3988,-0.53588 0.88161,-1.1541 1.43837,-1.58498c-4.10683,1.09335 -9.04925,-0.78323 -13.16135,0.07996c-0.95918,0.20135 -1.76837,0.90247 -2.72995,1.09198c-2.76135,0.54421 -5.98703,-0.00716 -8.73585,0.54599c-4.92577,0.99123 -9.57941,3.24937 -14.66852,3.32105h-1.09198c0,0 -2.5,0 -2.5,-2.5z" fill="#000000"/><path d="M197.10522,124.14606c-0.01774,-6.11569 -0.1847,-12.45618 2.39318,-18.15233c0.05078,-0.11221 0.42932,-0.64314 0.9232,-1.31686c-5.5795,1.42575 -11.24809,2.07184 -17.0136,1.44288c1.08995,8.97315 3.72954,23.56098 0.9175,26.79218c-0.79318,0.91141 -2.3697,0.53408 -3.48297,1.0036c-10.87516,4.5866 -12.13734,-6.7451 -12.13734,-15.43558c0.04506,-4.36927 1.3197,-11.23908 4.83403,-14.73746c-0.28724,-0.10889 -0.57472,-0.2215 -0.86244,-0.33788c-5.55099,-1.28159 -8.18926,-4.95896 -8.33952,-10.58622v-1.09198c0,0 0,-2.5 2.5,-2.5c2.5,0 2.5,2.5 2.5,2.5v1.09198c-0.14914,3.39102 1.46501,5.27759 4.76425,5.7935c1.37516,0.5448 2.74133,0.99867 4.09909,1.36871c0.27136,-0.68954 0.88748,-1.47235 2.28642,-1.47235c0.4628,0 0.83992,0.08567 1.14723,0.2253c0.67864,-0.34068 1.74157,-0.556 2.8045,0.50694c0.68304,0.68304 0.83825,1.36609 0.77154,1.94716c13.92326,1.04539 27.0383,-5.74353 40.02191,-12.24329c0,0 2.23607,-1.11803 3.3541,1.11803c1.11803,2.23607 -1.11803,3.3541 -1.11803,3.3541c-5.29062,2.6419 -10.65691,5.325 -16.10663,7.55814c17.8449,10.0868 -7.45295,61.87577 -14.25642,23.17142zM206.73963,104.54736c-0.93978,1.13617 -2.094,2.14219 -2.6767,3.48722c-2.15625,4.97722 -1.95677,10.37455 -1.97475,15.69908c4.09468,26.76693 17.89412,-17.60066 4.74139,-19.16744c0,0 -0.0327,-0.00545 -0.08994,-0.01886zM178.09401,106.75764c-0.22651,0.02518 -0.44385,0.0774 -0.64198,0.18757c-0.50005,0.27806 -0.59642,0.97662 -0.89628,1.46392c-1.81584,2.95086 -2.89884,6.58746 -2.85056,10.07083c0,5.96017 -0.29977,15.53076 7.3113,10.68359c1.05306,-0.67065 -0.55031,-2.43575 -0.80038,-3.65893c-1.23189,-6.02557 -1.88402,-12.44038 -2.12209,-18.74697z" fill="#000000"/><path d="M180.23424,125.5512c0.25007,1.22318 1.85098,2.98917 0.79792,3.65982c-7.61106,4.84717 -7.37693,-4.77277 -7.37693,-10.73294c-0.04827,-3.48337 1.07991,-7.16788 2.89575,-10.11873c0.29986,-0.4873 0.40064,-1.18608 0.9007,-1.46415c0.19813,-0.11017 0.41817,-0.16233 0.64469,-0.18751c0.23807,6.30659 0.90599,12.81794 2.13788,18.84351z" fill-opacity="0.74118" fill="#f0f0f0"/><path d="M206.82811,104.51624c13.15273,1.56677 -0.68005,46.02025 -4.77473,19.25331c0.01797,-5.32453 -0.16131,-10.80558 1.99494,-15.7828c0.5827,-1.34503 1.74974,-2.35319 2.68952,-3.48936c0.05724,0.01341 0.09026,0.01885 0.09026,0.01885z" fill-opacity="0.74118" fill="#f0f0f0"/><path d="M196.56288,182.60719c-0.06811,-0.86532 -0.02665,-1.74307 0.09697,-2.60288c-0.62807,0.56589 -1.76807,0.76917 -2.39325,1.39435c-0.53985,0.53985 -0.31884,1.51455 -0.68034,2.187c-0.17142,0.31886 -0.3739,0.61803 -0.59091,0.908c0.36026,0.23715 0.70848,0.50632 1.04201,0.81059c1.06105,0.63086 2.05785,1.13782 2.99332,1.53078c-0.11655,-1.41071 -0.35666,-2.81582 -0.46779,-4.22784zM190.73106,177.86313c0.84895,-0.84895 2.19417,-0.97661 3.27291,-1.50363c1.26691,-0.61895 2.39795,-2.28928 3.76233,-1.93343c4.83771,1.26174 4.36441,9.43855 4.33181,13.47057c10.90881,-0.60502 8.11791,-24.36081 2.99873,-32.64106c0,0 -0.09764,-0.16273 -0.19428,-0.42542c-0.67229,-0.0023 -1.34402,-0.00783 -2.01525,-0.01611c-1.17789,1.47696 -2.3413,2.96583 -3.47458,4.47722l-1.62051,2.16069c-0.45492,0.62044 -1.18914,1.02328 -2.01746,1.02328c-1.38071,0 -2.5,-1.11929 -2.5,-2.5v-3.27594h0.02676c-0.18621,-0.71562 -0.35747,-1.43481 -0.50754,-2.15881c-0.90312,-0.03245 -1.80588,-0.06558 -2.70842,-0.0982c-0.21158,0.89736 -0.93892,1.47923 -0.93892,1.47923c-0.64864,0.45469 -1.29728,0.90938 -1.94592,1.36407l-0.41902,2.51412c-0.179,1.20503 -1.21791,2.12954 -2.47274,2.12954c-0.88153,0 -1.6565,-0.45626 -2.10163,-1.14551l-2.16245,-3.24368l0.03748,-0.02498c-0.06911,-0.08655 -0.13685,-0.17431 -0.20314,-0.26339c-0.7841,-1.05373 -0.84163,-2.48843 -1.26244,-3.73265l-0.20495,-1.01608c-1.00826,2.16485 -3.48515,30.37069 -1.13768,32.54287c-0.21209,-3.54659 -0.32185,-8.00535 1.85557,-9.7658c1.62304,-1.31222 3.9666,-3.05985 5.86501,-2.19255c1.58575,0.72447 1.42031,6.66925 1.31212,9.86034c0.00816,0.0101 0.01626,0.02031 0.02428,0.03064c0.49714,-0.02865 0.99836,-0.03554 1.49895,-0.01525c1.15895,-1.57402 1.51821,-3.71731 2.90097,-5.10007zM182.44104,188.36674c0,0 0,2.5 -2.5,2.5c-1.65166,0 -2.21213,-1.09119 -2.40231,-1.83176c-2.60425,0.0932 -4.93522,-1.08204 -6.52128,-5.88357c-0.77215,-2.33756 2.71617,-33.18358 3.87988,-34.22579c2.19991,-1.97021 3.83826,-1.95179 5.411,-1.27769c1.38937,-0.1476 2.07577,0.7074 2.39112,1.34803c0.20957,0.12791 0.42218,0.25556 0.63888,0.38012c3.2393,-0.08912 6.52461,-0.00999 9.82282,0.10583c0.93246,-0.41621 1.66187,-0.24509 2.18825,0.08075c3.42403,0.13025 6.85407,0.2687 10.2532,0.2687h2.18396c0,0 2.5,0 2.5,2.5c0,0.57909 -0.13414,1.02404 -0.34027,1.36592c8.16865,15.58435 6.61394,51.00954 -18.986,35.54799c-2.39583,-2.75867 -5.45206,-2.09496 -8.52158,-1.24397c0.00152,0.12268 0.00233,0.24452 0.00233,0.36544z" fill="#000000"/><path d="M187.81146,183.0096c-0.50059,-0.02029 -1.00619,-0.0154 -1.50334,0.01324c-0.00803,-0.01033 -0.01623,-0.02059 -0.02439,-0.03069c0.10819,-3.19109 0.24974,-9.16316 -1.33601,-9.88762c-1.89841,-0.86731 -4.14804,0.84602 -5.77108,2.15824c-2.17743,1.76044 -2.15089,6.27084 -1.93881,9.81743c-2.34747,-2.17218 0.13399,-30.45103 1.14225,-32.61588l0.26928,1.09264c0.42081,1.24422 0.48127,2.67619 1.26538,3.72992c0.06628,0.08908 0.13412,0.17675 0.20322,0.2633l-0.03739,0.0249l2.16436,3.24162c0.44514,0.68925 1.14638,1.07799 2.02791,1.07799c1.25484,0 2.30436,-0.93294 2.48335,-2.13797l0.42419,-2.51679c0.64864,-0.45469 1.30475,-0.91202 1.95339,-1.36671c0,0 0.73126,-0.58275 0.94285,-1.48011c0.90255,0.03263 1.81375,0.06495 2.71687,0.0974c0.15007,0.724 0.32313,1.4432 0.50934,2.15882h-0.02686l0.00038,3.27595c0,1.38071 1.13487,2.50301 2.51558,2.50301c0.82831,0 1.56958,-0.39962 2.0245,-1.02006l1.62179,-2.15996c1.13328,-1.5114 2.29833,-2.99924 3.47622,-4.47621c0.67123,0.00828 1.34653,0.01635 2.01881,0.01864c0.09664,0.26269 0.19512,0.42609 0.19512,0.42609c5.11918,8.28025 7.90151,32.11926 -3.00731,32.72428c0.03259,-4.03202 0.44536,-12.28623 -4.39235,-13.54797c-1.36437,-0.35585 -2.44942,1.39676 -3.71633,2.0157c-1.07874,0.52702 -2.4463,0.65342 -3.29524,1.50237c-1.38276,1.38276 -1.74673,3.52443 -2.90568,5.09845z" fill-opacity="0.74118" fill="#f01616"/></g></g></svg>