<svg version="1.1" xmlns="http://www.w3.org/2000/svg" xmlns:xlink="http://www.w3.org/1999/xlink" width="202.32712" height="262.29084" viewBox="0,0,202.32712,262.29084"><g transform="translate(-149.66535,-48.24558)"><g stroke="none" stroke-width="0.5" stroke-miterlimit="10"><path d="M265.47897,112.40866c1.95432,-1.035 3.73033,-2.21095 5.0394,-3.70989c1.95733,-2.24123 3.7369,-5.61691 5.08013,-9.34612c-0.29074,0.49395 -0.59086,0.96565 -0.89127,1.40934c-2.5993,3.839 -5.47843,7.67508 -8.65003,11.04505c-0.19164,0.20362 -0.38455,0.40391 -0.57823,0.60162zM277.91856,89.5622c0.3041,-2.75776 0.25648,-5.34938 -0.24436,-7.46825c-4.18683,-23.02758 -23.97552,-24.76473 -43.47867,-28.85303c-5.27692,1.15817 -1.6903,10.45441 -7.3853,13.38763c-4.86829,2.50742 -11.40868,-1.58604 -16.46246,2.0067c-5.06238,3.59886 -7.59775,15.66742 -11.37011,20.98601c-6.49921,4.91759 -17.78967,1.36576 -23.52526,6.69452c-5.84382,5.42931 -0.17053,22.28933 2.22088,28.32814c7.5909,12.56129 -4.68418,11.85656 -11.96868,18.58057c-2.30147,2.12438 -1.08006,5.05383 -3.22507,7.19883c-2.14099,2.14099 -5.00451,0.50765 -6.75009,2.96554c-2.37757,3.34778 -0.46575,10.0137 0.68504,13.56383c3.33118,4.89306 15.99389,13.4069 22.30909,13.32034c3.74011,-0.05126 6.0344,-2.48927 9.07464,-4.13919c5.03719,-2.73365 8.20382,0.06291 6.40444,-7.00612c0.58121,-4.07873 2.43739,-6.8097 3.62055,-10.38605c-0.93047,-0.77276 -1.76181,-1.97232 -2.43763,-3.74361c-1.76003,-4.61293 0.04553,-10.26138 3.31512,-14.5335c0.77385,-1.70185 1.62411,-3.07098 2.45411,-3.76178c1.31989,-1.09853 2.82522,-1.66283 4.40969,-1.85843c3.24055,-1.38098 6.61246,-1.14805 9.19383,1.75679c2.28787,0.92877 4.28795,1.98079 5.62276,2.56824c0.87776,-0.28546 1.61914,-0.62408 2.25014,-1.00517c1.48082,-3.23937 4.21806,-7.03975 4.75449,-9.98735c0.42496,-2.33509 -5.53539,-10.16961 -6.41919,-12.84814c-2.211,-6.7009 -0.74897,-21.14023 1.02015,-27.97421c2.02499,-3.04613 9.7314,-12.04156 13.34166,-12.85864c6.29639,-1.42501 10.7891,5.6593 15.87103,7.83457c8.05194,3.44655 14.83137,1.57093 23.24496,2.1539c0.92449,1.07696 2.09512,1.98414 2.77346,3.23088c0.3237,0.59493 0.55281,1.21345 0.70077,1.847zM254.82272,117.72502l0.02185,-0.73423c2.07983,-3.41832 4.85665,-5.72602 7.56305,-8.60144c2.46743,-2.62152 4.45699,-5.52786 6.59017,-8.42207c2.37599,-3.22366 5.31349,-6.9501 3.2498,-10.99138c-9.32966,1.61109 -20.28456,1.38744 -28.23037,-4.70143c-1.69479,-1.29872 -4.60005,-5.59045 -7.43153,-4.93929c-1.98533,0.45657 -8.70396,8.06945 -10.02643,10.04208c-1.38409,5.85577 -2.73914,18.77887 -0.8493,24.37031c1.07967,3.19439 4.67671,7.7054 6.09495,11.58854c0.7941,-0.29734 1.72661,-0.53471 2.82831,-0.69946c2.88727,-0.43176 10.91611,-1.08637 13.41075,0.17157c6.1968,3.12478 1.40384,7.0298 4.54976,10.72944c2.54844,2.99699 6.59242,1.94197 10.22507,2.05073c6.69331,4.46221 30.1466,2.53323 22.30929,20.50038c-5.65861,12.97245 -24.41624,1.3523 -26.97019,3.48637c3.38111,4.42702 47.55076,28.22246 52.49263,29.21083c1.00088,1.35969 1.57428,2.73467 3.1934,3.36405c0.99034,0.38496 2.15517,0.30027 3.07885,0.82541c0.87856,0.49949 1.2664,1.64246 2.14387,2.14387c0.85275,0.48729 2.01249,0.2157 2.85849,0.71462c1.74104,1.02677 2.51572,3.3154 4.28773,4.28773c0.86104,0.47247 2.00947,0.22088 2.85849,0.71463c1.84875,1.07513 2.92446,3.26507 4.84504,4.20589c1.00437,0.492 2.29745,0.30234 3.22419,0.92843c0.84489,0.57079 1.08081,1.75187 1.80525,2.46937c2.09818,2.07808 5.02178,3.59118 7.09786,5.66726c3.68789,3.68789 9.36657,10.65062 3.24547,15.24526c-0.52402,0.39334 -1.15427,0.57558 -1.80944,0.70833c0.01208,0.27558 -0.0143,0.46018 -0.0143,0.46018c-3.03699,20.41338 -23.02894,37.00631 -40.66821,44.0488c-23.99196,14.1323 -52.2001,15.98208 -79.71704,15.98208c-13.31992,0 -41.57494,-6.30607 -52.84629,-13.28599c-4.32533,-2.67852 -6.30912,-9.73067 -9.22522,-13.49649c-6.00499,-9.03448 -14.1165,-38.69649 -10.33558,-49.3996c2.35556,-6.66815 7.54808,-12.92644 12.58694,-17.94535c3.25715,-4.93954 6.95154,-9.35391 11.15581,-13.15695c-8.4189,-0.26484 -22.22831,-9.62405 -26.49294,-16.11807c-1.80589,-5.30596 -3.89686,-13.67192 -0.24968,-18.68414c2.23539,-3.07204 5.48778,-1.79453 7.27077,-3.57752c1.3893,-1.3893 1.18697,-5.24831 3.318,-7.28938c6.06067,-5.80485 16.16033,-3.96469 10.93205,-12.73267c-3.44465,-8.53873 -8.96956,-26.7547 -1.05066,-34.29834c6.15774,-5.86595 17.12586,-1.36971 23.21092,-6.39161c4.15538,-6.0541 6.1767,-17.16688 11.99798,-21.54392c5.87147,-4.41477 11.59932,-0.86766 17.65496,-2.66692c2.19372,-0.6518 -0.16262,-11.06476 8.97236,-13.71936c21.946,3.55414 43.99703,7.5686 48.5916,32.83873c1.98975,8.80688 -2.13502,23.97807 -8.2671,30.88068c-3.67946,4.1418 -9.77726,5.91821 -14.67908,8.66544c-0.1764,0.71607 -0.67974,1.56157 -2.0495,1.75725c-0.38808,0.05544 -0.72399,0.04133 -1.01457,-0.02187c-0.72324,0.18419 -1.739,0.14705 -2.55547,-1.01934c-1.43366,-2.04808 0.61442,-3.48174 0.61442,-3.48174c0.067,-0.0469 0.13461,-0.09346 0.2028,-0.1397zM199.1946,168.84386c0.41615,1.39724 1.43422,4.41337 1.13677,5.72459c6.49777,-1.16893 12.11661,-2.74393 12.11661,-12.02485c2.78436,-11.13744 -3.58782,-3.96525 -9.66874,-2.76859c-0.67565,2.90972 -3.04435,5.94213 -3.58464,9.06885zM342.52045,231.78516c-0.02988,-0.20163 -0.02988,-0.33233 -0.02988,-0.33233l1.89366,-3.8546c6.38801,-1.05001 -1.62881,-7.38563 -3.83712,-9.21912c-0.79528,-0.6603 -1.41335,-1.51441 -2.1969,-2.18859c-0.96474,-0.83008 -2.14141,-1.40984 -3.03662,-2.31446c-0.4927,-0.49788 -0.46702,-1.43497 -1.05323,-1.81836c-0.7093,-0.4639 -1.73762,-0.11608 -2.4928,-0.50082c-2.00818,-1.02309 -3.19285,-3.26909 -5.15968,-4.36958c-0.85711,-0.47958 -2.01249,-0.2157 -2.85849,-0.71462c-1.74104,-1.02677 -2.51572,-3.3154 -4.28773,-4.28773c-0.86104,-0.47247 -2.00574,-0.22734 -2.85849,-0.71462c-0.87747,-0.50141 -1.26759,-1.64037 -2.14387,-2.14387c-0.78219,-0.44944 -1.81878,-0.22636 -2.63813,-0.60384c-1.65627,-0.76307 -3.04525,-2.20046 -3.95283,-3.78217c-1.87007,-0.37401 -46.43343,-23.05974 -50.01535,-25.72093c-2.67073,-1.98422 -3.49782,-5.09589 -4.68542,-7.95503c6.5289,-9.97307 23.45075,4.3608 27.34113,-5.0891c5.03089,-12.22027 -14.29555,-10.57266 -19.13881,-13.8015c-15.89672,0.79907 -14.50894,-12.78333 -15.23933,-12.94624c-2.88177,-0.64275 -7.84435,-0.09303 -10.88642,0.17157c-5.65451,0.49182 -3.20896,8.46528 -8.95016,12.50285c-2.58414,2.68214 -4.8661,2.94334 -7.02697,2.20872c-1.40337,0.11799 -2.99455,0.13096 -4.80278,0.01842c-5.65255,-7.15473 -10.31029,-5.21607 -12.66034,-0.0798c-0.93586,3.00504 -0.08486,6.49266 0.5707,9.64075c3.68729,-0.40311 12.45679,-3.81689 15.03705,-1.38432c1.95016,1.83854 0.56214,8.39565 -0.00112,10.6487c0,17.904 -15.59332,12.89122 -26.26131,19.02098c-8.26427,4.7486 -14.55628,11.28985 -20.02245,19.4189c-4.73541,4.7534 -9.21448,10.2368 -11.71023,16.35654c-3.42928,8.40883 4.77522,37.60876 9.67386,44.93059c2.12732,2.90928 4.62706,10.58758 7.92573,12.22992c9.3529,4.65664 16.49553,5.0311 26.48902,7.54534c2.85419,0.71807 5.50408,3.28857 8.11988,4.38205c4.085,1.70763 11.12645,0.51304 15.45519,0.51304c26.49561,0 54.55263,-1.40702 77.49523,-15.46132c15.99551,-6.4081 35.38031,-21.44508 37.94027,-40.27667c0,0 0.00143,-0.01003 0.00476,-0.02874z" fill="#000000"/><path d="M342.56409,231.82644c-2.55996,18.83159 -21.96155,33.89476 -37.95706,40.30286c-22.9426,14.0543 -51.04666,15.47014 -77.54227,15.47014c-4.32873,0 -11.37794,1.19132 -15.46294,-0.5163c-2.6158,-1.09347 -5.27017,-3.66661 -8.12435,-4.38469c-9.99349,-2.51423 -17.14601,-2.89734 -26.49891,-7.55398c-3.29866,-1.64234 -5.80279,-9.32642 -7.9301,-12.2357c-4.89864,-7.32183 -13.11096,-36.54399 -9.68168,-44.95282c2.49575,-6.11974 6.97474,-11.61241 11.71016,-16.3658c5.46617,-8.12905 11.76204,-14.68575 20.02631,-19.43435c10.66799,-6.12976 26.27658,-1.13677 26.27658,-19.04077c0.56326,-2.25305 2.00862,-8.72838 0.05846,-10.56692c-2.58026,-2.43257 -11.34253,0.97568 -15.02983,1.37879c-0.65557,-3.14809 -1.57147,-6.7117 -0.63561,-9.71673c2.35005,-5.13627 7.01325,-7.07869 12.6658,0.07604c1.80824,0.11255 3.40191,0.09818 4.80528,-0.01981c2.16087,0.73462 4.44745,0.47131 7.03159,-2.21083c5.7412,-4.03758 3.30332,-12.01339 8.95783,-12.50521c3.04207,-0.2646 8.01131,-0.81533 10.89308,-0.17258c0.73039,0.1629 -0.64676,13.74556 15.24996,12.94649c4.84326,3.22884 24.18666,1.58666 19.15577,13.80692c-3.89038,9.4499 -20.83617,-4.78981 -27.36507,5.18326c1.1876,2.85914 2.02167,5.87124 4.6924,7.85546c3.58192,2.66118 48.18734,25.38452 50.05741,25.75854c0.90758,1.58172 2.29733,3.02288 3.95361,3.78595c0.81934,0.37748 1.85606,0.15521 2.63825,0.60465c0.87628,0.5035 1.26664,1.64433 2.14411,2.14574c0.85275,0.48729 1.99752,0.24292 2.85857,0.71539c1.77202,0.97233 2.54689,3.26425 4.28794,4.29102c0.846,0.49892 2.00139,0.23558 2.8585,0.71516c1.96683,1.10049 3.15147,3.34931 5.15965,4.3724c0.75518,0.38474 1.78348,0.03717 2.49279,0.50107c0.58621,0.3834 0.56048,1.32155 1.05318,1.81943c0.89522,0.90463 2.07179,1.48561 3.03653,2.31569c0.78355,0.67418 1.4015,1.52941 2.19679,2.18971c2.20831,1.83349 10.22439,8.17372 3.83638,9.22373l-1.89417,3.85679c0,0 -0.00004,0.13086 0.02984,0.33249c-0.00333,0.01871 -0.00476,0.02876 -0.00476,0.02876z" fill="#ffb6cc"/><path d="M277.17267,87.73673c-0.67834,-1.24674 -1.84755,-2.15117 -2.77204,-3.22813c-8.41359,-0.58297 -15.18488,1.3035 -23.23682,-2.14305c-5.08193,-2.17527 -9.55955,-9.24911 -15.85594,-7.8241c-3.61026,0.81708 -11.3056,9.81601 -13.33059,12.86214c-1.76912,6.83399 -3.17397,21.20943 -0.96297,27.91033c0.8838,2.67853 6.83113,10.56379 6.40617,12.89888c-0.53643,2.94761 -3.29434,6.76 -4.77516,9.99937c-0.63101,0.38109 -1.37761,0.72094 -2.25537,1.0064c-1.33481,-0.58745 -3.34774,-1.63884 -5.63561,-2.56761c-2.58137,-2.90484 -5.97489,-3.14466 -9.21544,-1.76368c-1.58447,0.1956 -3.09449,0.75673 -4.41439,1.85526c-0.83,0.6908 -1.62009,1.98005 -2.39395,3.6819c-3.26959,4.27212 -5.08097,9.91683 -3.32094,14.52976c0.67582,1.7713 1.50332,2.96895 2.43378,3.74171c-1.18315,3.57636 -3.04005,6.30702 -3.62126,10.38575c1.79938,7.06903 -1.40839,4.36358 -6.44558,7.09723c-3.04025,1.64993 -5.33835,4.08589 -9.07846,4.13715c-6.3152,0.08656 -18.99076,-8.4382 -22.32194,-13.33126c-1.15079,-3.55012 -3.06708,-10.22229 -0.68951,-13.57007c1.74558,-2.45789 4.60949,-0.82391 6.75048,-2.9649c2.14501,-2.14501 0.92169,-5.07779 3.22316,-7.20217c7.2845,-6.72401 19.5549,-6.03245 11.964,-18.59374c-2.39141,-6.03881 -8.06043,-22.93117 -2.21661,-28.36048c5.73559,-5.32876 17.04382,-1.79669 23.54303,-6.71428c3.77236,-5.31858 6.3285,-17.39465 11.39088,-20.99351c5.05377,-3.59274 11.61056,0.5014 16.47886,-2.00603c5.695,-2.93322 2.1117,-12.22865 7.38862,-13.38682c19.50315,4.0883 39.32184,5.84898 43.50868,28.87656c0.50084,2.11887 0.55066,4.71489 0.24657,7.47265c-0.14796,-0.63355 -0.46793,-1.21033 -0.79163,-1.80526z" fill="#feff00"/><path d="M281.42311,167.48202c-0.10306,0.10306 -0.20612,0.1941 -0.30883,0.27418c-0.3772,2.46469 -0.95408,4.79479 -1.80868,6.27722c-6.57587,11.40677 -32.04229,-1.96388 -36.84459,-9.41659c-0.8601,-0.67246 -2.1534,-1.01251 -2.58029,-2.01737c-0.62064,-1.46095 -0.24029,-3.16641 -0.29581,-4.75276c-0.13728,-3.92244 0.2538,-8.19873 4.40178,-10.17055c1.62714,-0.77349 9.16483,-0.4949 10.82119,-0.12342c0.28855,0.06471 6.28418,3.0366 6.60437,3.26351c1.47175,1.04296 2.13609,2.61904 3.83734,3.31493c0.98343,0.40227 2.15517,0.30027 3.07885,0.82541c0.87857,0.49949 1.2664,1.64246 2.14387,2.14387c0.85275,0.48729 2.01804,0.20643 2.85849,0.71462c0.26045,0.15749 0.50784,0.3342 0.74464,0.52538c1.06936,-0.27361 2.05935,0.38638 2.05935,0.38638c0.20837,0.1433 0.41344,0.29193 0.6151,0.44552c0.03299,-0.47204 0.302,-2.39641 2.49539,-2.39641c2.5,0 2.5,2.5 2.5,2.5c0,1.05505 -0.03993,2.40602 -0.13889,3.87853l0.12128,0.07069c0,0 1.42985,1.42985 0.43171,3.0036c-0.08958,0.40126 -0.31027,0.82726 -0.73627,1.25326zM276.03733,166.82312c-0.53483,-0.0318 -1.05483,-0.12453 -1.5448,-0.34063c-1.28599,-0.56717 -2.18788,-3.55845 -3.62522,-4.31642c-0.86876,-0.45813 -2.00574,-0.22734 -2.85849,-0.71462c-0.87747,-0.50141 -1.26759,-1.64037 -2.14387,-2.14387c-1.69454,-0.97367 -3.8359,-1.15718 -5.35558,-2.38601c-2.01019,-1.62546 -4.13723,-3.9076 -6.85026,-4.50259c-1.90721,-0.41827 -3.90625,0.14487 -5.85722,0.06688c-0.63658,-0.02545 -1.29321,-0.3788 -1.90178,-0.1903c-1.86432,0.57747 -1.25038,4.39401 -1.3152,5.55115c-0.04496,0.80263 -0.61736,1.65668 -0.29581,2.39347c0.25378,0.5815 1.1383,0.56075 1.70745,0.84112c5.39812,7.87518 13.90071,11.38778 23.24403,11.41635c0.56733,0.00173 5.34947,0.22796 5.65666,-0.82351c0.45164,-1.54587 0.83866,-3.17977 1.1401,-4.85101z" fill="#1e0000"/><path d="M274.93956,171.70074c-0.3072,1.05147 -5.09818,0.83576 -5.6655,0.83403c-9.34332,-0.02857 -17.92919,-3.58288 -23.3273,-11.45806c-0.56915,-0.28037 -1.45343,-0.26175 -1.70721,-0.84324c-0.32155,-0.73678 0.25241,-1.59814 0.29737,-2.40078c0.06482,-1.15714 -0.5419,-4.9886 1.32242,-5.56607c0.60857,-0.1885 1.267,0.16246 1.90359,0.18791c1.95098,0.07799 3.9618,-0.49578 5.869,-0.07752c2.71303,0.59499 4.87087,2.86922 6.88106,4.49468c1.51969,1.22883 3.70154,1.43865 5.39608,2.41232c0.87627,0.5035 1.27195,1.66018 2.14943,2.16159c0.85275,0.48729 1.99006,0.26134 2.85882,0.71947c1.43734,0.75797 2.33732,3.76397 3.62331,4.33114c0.48997,0.21609 1.01005,0.30855 1.54488,0.34035c-0.30143,1.67124 -0.69429,3.31832 -1.14593,4.86419z" fill="#ffffff"/><path d="M206.55647,159.01261c-0.69837,-0.19046 -1.39674,-0.38093 -2.0951,-0.57139l-0.10905,0.41687c-1.01277,1.5601 -2.02942,3.11781 -3.06465,4.6631c-1.00208,1.4958 -2.47492,2.63743 -3.47774,4.13273c-0.67148,1.00124 -0.52769,3.86941 0.92508,4.3194c0.60857,0.1885 1.26507,-0.16817 1.90178,-0.1903c1.90157,-0.0661 3.88698,0.66164 5.70714,0.10727c0.727,-0.22142 1.15422,-1.03343 1.85694,-1.3228c3.23368,-1.33156 8.25395,-1.66152 11.72089,-1.53569c2.94762,-1.96508 6.16776,-2.6793 9.49743,-4.07051c4.6664,-1.94972 -3.03472,-7.44846 -7.38187,-5.03737c-1.64491,0.91232 -1.55433,3.97623 -3.3481,4.54232c-3.90941,1.23375 -9.09964,-1.9881 -12.00535,-5.42574c-0.08126,-0.0153 -0.1274,-0.02789 -0.1274,-0.02789zM203.387,152.56285c0.76547,0.19137 1.22895,0.56393 1.50482,0.98425l0.07234,-0.01048c0.27667,-0.41603 0.73879,-0.78399 1.4979,-0.97377c2.42536,-0.60634 3.0317,1.81902 3.0317,1.81902c1.85874,11.30813 14.57758,-2.80231 21.39928,0.44051c5.7588,2.73754 5.97241,11.14863 0.98966,14.48992c-3.33081,2.23354 -7.22865,2.31606 -10.512,4.50497c-2.06202,0.0557 -4.08914,0.54731 -6.13598,0.80316c-2.44271,0.30534 -2.82618,-0.46013 -5.01106,0.51964c-0.87451,0.39216 -1.50626,1.28311 -2.43079,1.53569c-0.47719,0.13037 -6.67065,0.11977 -7.15606,0.10727c-1.27289,-0.03279 -2.66521,0.35637 -3.8152,-0.1903c-4.29802,-2.04314 -5.42051,-7.44457 -3.36266,-11.40229c0.5311,-1.02143 1.65299,-1.60936 2.38601,-2.49709c1.46788,-1.77768 2.62002,-3.95693 3.93481,-5.85802l0.57555,-2.45345c0,0 0.60634,-2.42536 3.0317,-1.81902z" fill="#1e0000"/><path d="M206.64549,159.00846c2.90571,3.43765 8.18356,6.68281 12.09297,5.44906c1.79377,-0.56609 1.69535,-3.64933 3.34026,-4.56165c4.34715,-2.41109 12.05687,3.11469 7.39047,5.06441c-3.32967,1.39121 -6.55791,2.13373 -9.50552,4.09881c-3.46693,-0.12583 -8.56644,0.21009 -11.80012,1.54166c-0.70273,0.28937 -1.13073,1.10047 -1.85774,1.32189c-1.82017,0.55437 -3.81249,-0.184 -5.71405,-0.1179c-0.63671,0.02213 -1.29403,0.37703 -1.90259,0.18853c-1.45277,-0.44999 -1.60018,-3.33088 -0.9287,-4.33213c1.00282,-1.4953 2.4756,-2.65089 3.47767,-4.14669c1.03523,-1.54529 2.05959,-3.12365 3.07236,-4.68375l0.11002,-0.41829c0.69837,0.19046 1.39902,0.37793 2.09739,0.5684c0,0 0.04634,0.01235 0.1276,0.02765z" fill="#ffffff"/><path d="M226.68027,126.92322c0,-0.48244 0.0931,-0.87179 0.24337,-1.186c-1.48106,-0.98144 -3.96548,-2.66002 -4.19387,-3.15664c-1.57723,-3.42963 0.12193,-9.27437 -0.27708,-13.02277c-0.17723,-1.66496 -1.59975,-2.97216 -2.05533,-4.58336c-0.82941,-2.93327 -0.80906,-7.2541 -0.80316,-10.32001c1.57377,-6.16703 4.41428,-5.99815 7.70551,-9.86875c1.38997,-1.63465 2.15437,-7.45522 3.91013,-8.91009c1.14973,-0.95269 2.95403,-0.46137 4.44346,-0.56664c12.14593,-0.85852 8.4344,6.4809 15.81842,8.71079c6.88348,2.07873 14.24755,1.1885 21.3518,1.4012c15.2221,11.09998 -11.90394,30.43361 -20.28358,40.71747c0.10758,0.28229 0.17161,0.61837 0.17161,1.01848c0,2.5 -2.5,2.5 -2.5,2.5c-6.39811,0 -12.77155,-0.23368 -19.16183,-0.23368h-1.86945c0,0 -2.5,0 -2.5,-2.5zM271.78803,97.34563c0.23418,-1.30633 0.53288,-6.83122 -0.41344,-7.13922c-6.94171,0.34893 -14.87621,0.90892 -21.52556,-1.45729c-1.79317,-0.63811 -12.57147,-13.78037 -15.46925,-9.0068c-1.25921,2.07432 -1.50226,6.23088 -3.2361,8.24086c-3.08508,3.57641 -5.3122,2.00166 -6.58694,7.28219c0.00562,1.97461 0.51681,3.91578 0.72119,5.8798c0.08219,0.78983 -0.31609,1.61765 -0.0951,2.38037c0.54387,1.87713 1.96529,3.48537 2.23241,5.42136c0.37362,2.70792 0.17295,6.14294 0.01873,8.88093c-0.04521,0.80262 -0.56319,1.63534 -0.29581,2.39347c0.15831,0.44888 0.91188,0.29487 1.32643,0.52876c0.74802,0.42205 1.42925,0.95283 2.14387,1.42925l1.11118,2.24475c5.2333,0.01291 10.4553,0.17161 15.69033,0.21935c5.33395,-7.46803 23.07742,-20.0422 24.37808,-27.29778z" fill="#1e0000"/><path d="M247.40803,124.69337c-5.23502,-0.04774 -10.48455,-0.21599 -15.71785,-0.2289l-1.11439,-2.2473c-0.71462,-0.47642 -1.39923,-1.0104 -2.14725,-1.43244c-0.41455,-0.2339 -1.16968,-0.08159 -1.328,-0.53047c-0.26738,-0.75813 0.24867,-1.59319 0.29388,-2.39582c0.15422,-2.73799 0.3472,-6.18718 -0.02642,-8.89509c-0.26712,-1.93599 -1.69116,-3.55668 -2.23503,-5.43382c-0.22099,-0.76272 0.17715,-1.59569 0.09496,-2.38552c-0.20438,-1.96402 -0.71385,-3.91707 -0.71947,-5.89169c1.27474,-5.28053 3.51106,-3.72394 6.59614,-7.30035c1.73384,-2.00998 1.98918,-6.17756 3.24839,-8.25188c2.89778,-4.77357 13.70885,8.36127 15.50202,8.99938c6.64935,2.36621 14.62264,1.83363 21.56436,1.48469c0.94632,0.308 0.65201,5.84608 0.41783,7.15241c-1.30066,7.25558 -19.09522,19.88877 -24.42917,27.3568z" fill="#ffefe4"/><path d="M243.15802,290.05189c0,-1.9215 1.47686,-2.36613 2.16035,-2.46902c0.01054,-0.05501 0.02122,-0.11005 0.03206,-0.16514l-0.04855,-0.93895c0,0 0,-2.5 2.5,-2.5c2.5,0 2.5,2.5 2.5,2.5l-0.02228,0.88112c1.93702,-0.13392 3.85315,-0.29728 5.79825,-0.3476c0.73257,-0.36577 1.41987,-0.23456 1.92803,-0.00794c0.2517,0.00503 0.50414,0.01266 0.75743,0.02321l2.95493,2.6858c0,0 1.73159,1.73159 0.05343,3.48099c-0.02411,0.38519 -0.04654,0.76948 -0.03582,1.14527c0.0798,2.79863 0.19736,5.78333 0,8.57547c-0.12196,1.7254 0.53115,3.8214 -0.56664,5.15809c-1.10016,1.33955 -3.29253,1.08818 -4.958,1.56874c-3.40475,0.98243 -8.0821,1.95638 -10.48654,-1.76262c-1.34405,-2.07887 -1.13253,-5.43495 -1.1374,-7.8227c-0.00537,-2.63384 -0.03272,-5.15411 0.1348,-7.68398c-0.70979,-0.25223 -1.56404,-0.85936 -1.56404,-2.32073zM249.58726,294.33962c0,0 0,5.71698 0,5.71698c-0.00244,1.09638 -0.133,3.93254 0.29184,5.0405c0.53875,1.40501 4.78574,-0.28351 5.23516,-0.33337c0.72643,-0.08059 1.70626,0.68896 2.18823,0.1395c0.45442,-0.51805 -0.48662,-1.3037 -0.56664,-1.98814c-0.41055,-3.5115 1.32973,-8.43489 -0.79103,-11.16885c-2.14939,0.23982 -4.18487,0.49043 -6.27898,0.6472c-0.05208,0.64798 -0.08002,1.29723 -0.07858,1.94618z" fill="#1e0000"/><path d="M249.63989,292.35071c2.09411,-0.15677 4.17215,-0.41181 6.32154,-0.65162c2.12076,2.73396 0.39434,7.74416 0.80489,11.25565c0.08002,0.68444 1.01674,1.47307 0.56232,1.99111c-0.48197,0.54946 -1.47505,-0.2144 -2.20149,-0.13381c-0.44942,0.04986 -4.73391,1.7336 -5.27266,0.32859c-0.42485,-1.10796 -0.31691,-3.97125 -0.31447,-5.06764c0,0 0.01386,-5.7706 0.01386,-5.7706c-0.00144,-0.64895 0.03392,-1.30371 0.086,-1.95168z" fill="#ff2e6d"/><path d="M229.81939,289.64099c0.47804,-0.02625 1.02563,0.1113 1.61693,0.55477c2,1.5 0.5,3.5 0.5,3.5c-2.75703,3.34339 -3.35931,10.39168 -7.96658,12.85277c-18.81029,10.04799 -29.32016,-17.76672 -4.9991,-22.55759c4.17556,0.00804 7.79145,0.07439 10.28269,4.11458c0.2887,0.4682 0.44781,0.99293 0.56606,1.53547zM226.06741,294.79567c-0.77495,-0.74022 -0.77495,-1.88529 -0.77495,-1.88529l0.07464,-0.10828c-0.77764,-3.73635 -2.30702,-3.84572 -5.90377,-3.83549c-13.55486,2.7594 -11.76054,18.98079 2.14712,13.17355c1.83007,-0.76416 3.2518,-4.3 4.45696,-7.34449z" fill="#1e0000"/><path d="M221.63567,302.18333c-13.90766,5.80724 -15.71809,-10.50648 -2.16323,-13.26588c3.59675,-0.01024 5.16234,0.12718 5.93998,3.86353l-0.07447,0.10867c0,0 0.00376,1.15724 0.77872,1.89746c-1.20515,3.04448 -2.65093,6.63207 -4.481,7.39622z" fill="#ff2e6d"/><path d="M234.15806,96.07735c0,-1.38071 1.11929,-2.5 2.5,-2.5c1.38071,0 2.5,1.11929 2.5,2.5c0,1.38071 -1.11929,2.5 -2.5,2.5c-1.38071,0 -2.5,-1.11929 -2.5,-2.5z" fill="#000000"/><path d="M249.34732,99.58256c0,-1.38071 1.11929,-2.5 2.5,-2.5c1.38071,0 2.5,1.11929 2.5,2.5c0,1.38071 -1.11929,2.5 -2.5,2.5c-1.38071,0 -2.5,-1.11929 -2.5,-2.5z" fill="#000000"/><path d="M234.22334,106.69611c2,-1.5 3.5,0.5 3.5,0.5l0.65321,0.87299c0.54202,0.69107 3.67328,5.26903 5.10161,2.48174c0.30734,-0.59975 0.22364,-1.32913 0.33546,-1.9937c0,0 0.60634,-2.42536 3.0317,-1.81902c2.42536,0.60634 1.81902,3.0317 1.81902,3.0317c-0.35554,1.20488 -0.30793,2.61338 -1.06663,3.61464c-4.3719,5.76963 -9.82781,1.86672 -13.1255,-2.19188l-0.74887,-0.99646c0,0 -1.5,-2 0.5,-3.5z" fill="#000000"/></g></g></svg>