<svg version="1.1" xmlns="http://www.w3.org/2000/svg" xmlns:xlink="http://www.w3.org/1999/xlink" width="441.18467" height="410.16" viewBox="0,0,441.18467,410.16"><g transform="translate(-24.78624,43.66)"><g data-paper-data="{&quot;isPaintingLayer&quot;:true}" fill-rule="nonzero" stroke="none" stroke-linecap="butt" stroke-linejoin="miter" stroke-miterlimit="10" stroke-dasharray="" stroke-dashoffset="0" style="mix-blend-mode: normal"><path d="M267.5,180c0,15.74012 -12.31217,28.5 -27.5,28.5c-15.18783,0 -27.5,-12.75988 -27.5,-28.5c0,-15.74012 12.31217,-28.5 27.5,-28.5c15.18783,0 27.5,12.75988 27.5,28.5z" fill="#000000" stroke-width="0"/><path d="M229.40823,137.87017c1.48107,-0.37017 2.59177,-0.37017 2.59177,-0.37017c4.56092,0 9.42108,-0.32193 14,0c2.6148,0.18384 5.37416,-0.16367 7.82683,0.7612c5.33326,2.0111 8.49981,8.42331 12.24423,12.16773c1.01242,1.01242 2.38103,1.59993 3.48095,2.51653c3.5685,2.97375 6.36226,6.60899 9.1814,10.21465c2.7999,3.58104 5.61251,5.40128 8.12437,9.69882c1.43215,2.45026 2.11176,5.27576 3.381,7.81423c2.43582,7.79815 3.53128,20.12737 -0.5368,27.75382c-0.62828,1.17785 -4.89295,5.41978 -6.63093,7.14408c-4.25199,4.21852 -8.91356,7.87055 -14.77354,9.66142c-1.37639,0.42064 -2.88509,0.03206 -4.31215,0.21884c-3.51239,0.45973 -7.07256,1.36176 -10.5872,0.91954c-1.04585,-0.13159 -1.96225,-0.8151 -3,-1c-1.41324,-0.2518 -2.95652,0.21616 -4.29602,-0.29995c-2.33233,-0.89866 -4.38735,-2.41426 -6.44205,-3.8375c-0.32521,-0.22526 -0.2257,-0.87052 -0.5871,-1.03142c-0.65709,-0.29255 -1.46225,0.02451 -2.1497,-0.18707c-4.75956,-1.46485 -9.50414,-3.65219 -13.94258,-5.86583c-6.66991,-4.50104 -13.33489,-10.85662 -18.53527,-17.09708c-0.9166,-1.09992 -1.50411,-2.46853 -2.51653,-3.48095c-1.01242,-1.01242 -2.38103,-1.59993 -3.48095,-2.51653c-5.14932,-4.2911 -9.4484,-10.75429 -11.18047,-17.25701c-0.63487,-2.3835 -0.09002,-11.73903 0.49369,-13.12436c1.04908,-2.48977 3.39505,-4.20532 5.16773,-6.24423c2.89315,-3.32766 7.56648,-8.50232 11.14408,-10.63093c1.63551,-0.9731 3.63835,-1.1179 5.45753,-1.67685c1.72398,-0.78455 3.34579,-1.85083 5.17193,-2.35364c2.23038,-0.61411 4.6431,-0.35011 6.87217,-0.96894l-0.04678,-0.24285c0,0 3.92864,-1.96432 7.88036,-0.68556zM229.0878,157.04536l-2.66245,1.15606c-4.16588,0.97964 -6.49808,0.66446 -9.95589,2.67743c-0.84749,0.10772 -1.77773,-0.05765 -2.54247,0.32315c-0.48178,0.2399 -0.50791,0.95852 -0.85592,1.36907c-1.51134,1.78289 -4.01977,4.77242 -6,6c-0.01673,0.01037 -0.0341,0.01915 -0.05199,0.02643c-0.02366,0.19333 -0.36146,0.40454 -0.28658,0.60497c0.25556,0.68416 0.86738,1.18137 1.21178,1.82539c1.28414,2.40131 1.54082,3.19516 3.60775,4.9176c1.46111,1.21759 3.17418,2.1386 4.51905,3.48347c5.60464,5.60464 10.16056,13.03941 16.9482,17.42197c5.036,2.5297 10.98279,3.40493 15.90772,5.9471c1.33981,0.69159 2.3751,1.8748 3.4129,2.96858c0.08342,0.08792 -0.31841,0.14707 -0.43419,0.16165c1.57339,-0.16928 3.168,0.28916 4.69613,0.7009c1.77651,0.47866 3.58536,-0.86701 5.4128,-1.08046c0.56349,-0.06582 1.13192,0.33198 1.68785,0.21884c2.42152,-0.49279 6.84262,-5.43429 8.59553,-7.1945c0.49261,-0.49466 -0.28895,-1.37496 -0.298,-2.07301c-0.01729,-1.33322 -0.02327,-2.66687 0,-4c0.02432,-1.39312 0.35876,-2.91448 -0.2388,-4.17317c-1.00136,-2.00273 -1.55247,-4.21697 -2.619,-6.18577c-1.31569,-2.42874 -4.17724,-4.21344 -5.87563,-6.30118c-2.21377,-2.72127 -4.06426,-5.49007 -6.8186,-7.78535c-2.89806,-2.41505 -5.58747,-5.10446 -8.00252,-8.00252c-0.27076,-0.32491 -1.65226,-1.59675 -2.60199,-2.51583c-3.83566,0.85446 -10.25189,-0.03619 -13.84347,-0.03619c0,0 -1.27382,0 -2.9122,-0.45464z" fill="#ff0000" stroke-width="0.5"/><path d="M349.94427,198.97214c-4.47214,8.94427 -13.41641,4.47214 -13.41641,4.47214l-4.99733,-2.56542c-2.57434,-0.63405 -5.20797,-1.0632 -7.72301,-1.90214c-4.61846,-1.54056 -9.13506,-3.37787 -13.63436,-5.23792c-0.55866,-0.23096 -1.01607,-0.68954 -1.51252,-1.04643c-0.84414,-0.05988 -1.63919,-0.24102 -2.36664,-0.48792c-0.762,0.08498 -1.53095,0.27452 -2.29401,0.29556c-1.99924,0.05512 -4.00493,0.14029 -6,0c-0.14666,-0.01031 0.02325,-0.50583 -0.10216,-0.42908c-2.39371,1.46493 -5.17111,3.53516 -7.85231,4.57422c-4.94377,1.9159 -8.98964,1.85486 -14.04554,1.85486c0,0 -10,0 -10,-10c0,-4.14143 1.71514,-6.56771 3.7248,-7.98917c-3.57499,-0.00469 -7.14996,-0.01083 -10.7248,-0.01083c0,0 -10,0 -10,-10c0,-10 10,-10 10,-10c12.54814,0 26.11777,-1.3931 38.41052,1.29488c1.79093,0.39161 8.65146,2.99323 9.43658,3.5927c2.48981,1.90105 3.98275,4.85272 6.22396,7.04135l0.89183,0.89183c1.30526,0.58412 2.52904,1.42039 3.86394,1.94044c6.83601,2.6632 13.51906,5.05442 20.64263,6.85995l7.00267,3.43458c0,0 8.94427,4.47214 4.47214,13.41641z" fill="#ff5600" stroke-width="0.5"/><path d="M242.80855,294.43919c-3.93919,-9.19145 5.25226,-13.13064 5.25226,-13.13064l6.73171,-2.88033c7.6684,-3.82605 15.33563,-8.05897 22.34298,-13.02808c2.99202,-2.12173 6.36758,-4.07652 8.35799,-7.15746c1.5763,-2.43995 1.52716,-7.04787 1.50651,-9.74269c-0.03449,-4.50075 0.58083,-9.53139 0.04867,-14.01462c-0.68388,-5.76145 -1.04867,-11.14966 -1.04867,-16.98538c0,0 0,-10 10,-10c10,0 10,10 10,10c0,10.41191 1.06412,20.54037 1,31c-0.04078,6.65185 -0.80998,14.43251 -4.49349,20.25731c-1.75044,2.768 -4.37851,4.88204 -6.76313,7.12691c-9.29503,8.75031 -21.21509,15.01701 -32.5359,20.68755l-7.26829,3.11967c0,0 -9.19145,3.93919 -13.13064,-5.25226z" fill="#ff5600" stroke-width="0.5"/><path d="M192.44619,206.15278c2.48896,-0.95619 4.83229,-2.28499 7.36133,-3.1295c2.60722,-0.87061 5.39088,-1.1351 8,-2c8.6852,-2.87907 16.60939,-7.39669 24.72034,-11.46756c0,0 8.94427,-4.47214 13.41641,4.47214c4.47214,8.94427 -4.47214,13.41641 -4.47214,13.41641c-8.95395,4.45682 -17.72063,9.32992 -27.27966,12.53244c-6.33823,2.12347 -12.73328,3.75163 -18.97257,6.20011c0.5989,1.65335 1.10931,3.3325 1.51258,5.02564c1.32346,5.55654 1.5766,11.30474 2.96894,16.87217c0.67352,2.69316 1.0682,6.49124 3.36964,8.35429c0,0 7.07107,7.07107 0,14.14214c-7.07107,7.07107 -14.14214,0 -14.14214,0c-9.19629,-9.74846 -8.9433,-22.42836 -11.66142,-34.77354c-0.07365,-0.3345 -0.19464,-0.76674 -0.34989,-1.2606c-3.02716,0.14915 -6.523,-0.40665 -9.1147,-0.72412c-0.76139,0.76268 -1.31102,1.31848 -1.54841,1.56992c-8.42775,8.92646 -16.43094,18.56368 -25.70249,26.6718c-4.79079,4.18963 -10.1026,7.46294 -15.38974,10.93229l-6.16228,0.51317c0,0 -10,0 -10,-10c0,-10 10,-10 10,-10l-0.16228,0.51317c2.26189,-2.94475 5.81658,-4.62169 8.61026,-7.06771c8.77046,-7.679 16.32006,-16.88423 24.29751,-25.3282c4.59704,-4.86587 9.93007,-9.0445 14.34338,-14.06628c-0.33616,-2.97744 0.08895,-8.29513 6.70522,-10.5232c1.47013,-3.182 2.67011,-6.49552 3.71908,-9.69007c0,0 3.16228,-9.48683 12.64911,-6.32456c9.48683,3.16228 6.32456,12.64911 6.32456,12.64911c-1.51688,4.49697 -3.25565,9.04284 -5.38115,13.38894c0.78017,-0.30031 1.56079,-0.59889 2.34051,-0.89843z" fill="#ff5600" stroke-width="0.5"/><path d="M289.07107,147.57107c-7.07107,7.07107 -14.14214,0 -14.14214,0l-1.26882,-1.33765c-2.27083,-1.45371 -4.61302,-3.6816 -7.05363,-4.75027c-2.16741,-0.94905 -4.5776,-1.32093 -6.68735,-2.38559c-3.04117,0.6435 -6.13779,1.0892 -9.10736,1.99899c-2.68725,0.8233 -5.0722,2.52677 -7.80111,3.19922c-1.94648,0.47964 -4.00624,0.17014 -6.01066,0.20422c-5.66272,0.09629 -11.33582,0 -17,0c0,0 -2.28138,0 -4.66479,-1.08967c0.30084,0.53183 0.62674,1.04761 0.98529,1.54267c0,0 5.547,8.3205 -2.7735,13.8675c-8.3205,5.547 -13.8675,-2.7735 -13.8675,-2.7735c-2.89937,-4.52275 -4.22477,-9.31328 -6.62377,-14.07487c-0.41157,-0.81689 -0.81753,-1.63129 -1.21809,-2.44423c-2.38657,-2.05193 -3.32447,-4.86562 -3.32447,-4.86562l-0.06215,-0.22148c-2.694,1.44751 -7.10804,2.54431 -11.52209,-1.86973c-7.07107,-7.07107 0,-14.14214 0,-14.14214c0.71039,-0.71039 1.34813,-1.61732 2.23809,-2.05277l0.27323,-0.81968c0.1147,-0.37296 0.25063,-0.73663 0.40638,-1.08959c-0.33443,-0.57908 -0.65006,-1.17179 -0.93175,-1.78832c-0.8434,-1.84594 -1.16514,-3.89252 -1.89802,-5.78505c-0.71614,-1.84929 -2.71731,-2.88921 -4.08792,-4.32245c-2.40189,-2.51165 -4.15676,-5.6696 -5.41577,-8.90879l-0.51317,-4.16228c0,0 0,-10 10,-10c8.10299,0 9.64013,6.56584 9.93173,9.05694c1.20167,1.91928 4.44484,4.1667 4.80169,4.60317c1.24869,1.52732 2.39678,3.1675 3.24973,4.94637c0.94553,1.97196 1.20121,4.22214 2.10198,6.21495c1.46601,3.24333 3.81147,6.05524 5.15367,9.35173c2.51891,6.18657 5.11848,12.04525 8.058,18.04254c1.65834,-7.2157 9.70321,-7.2157 9.70321,-7.2157c3.66667,0 7.33333,0 11,0c2,0 4.00065,-0.05111 6,0c0.66638,0.01703 1.35393,0.40572 1.98934,0.20422c0.42156,-0.13368 0.83209,-0.29629 1.23592,-0.47644c-1.99373,-1.9936 -3.95075,-4.04265 -6.22526,-5.72779c0,0 -8,-6 -2,-14c6,-8 14,-2 14,-2c2.45259,1.85639 4.88748,3.76253 7.07107,5.92893c1.29456,1.28437 2.27617,2.9214 3.77604,3.95865c2.37816,1.64464 5.20649,2.60211 7.48946,4.37641c5.50339,-1.94217 10.98733,-3.93904 16.53168,-5.76094c5.21446,-1.7135 10.74928,-2.22755 16.13206,-3.30107c5.14615,-1.02633 10.45316,-2.61914 15.57434,-3.9034l4.42536,-0.29857c0,0 10,0 10,10c0,10 -10,10 -10,10l0.42536,-0.29857c-5.39889,1.346 -11.00495,3.00954 -16.42566,4.0966c-4.61745,0.92597 -9.40765,1.18763 -13.86794,2.69893c-0.42576,0.14426 -0.85124,0.28927 -1.27647,0.43493c0.16256,0.11357 0.32412,0.22523 0.48461,0.33469l2.73118,2.66235c0,0 7.07107,7.07107 0,14.14214zM186.64912,88.02152l-0.16228,-0.6838c0.00469,0.21588 0.06238,0.44537 0.16228,0.6838z" fill="#ff5600" stroke-width="0.5"/><path d="M318,248.5c0,-10 10,-10 10,-10h6c0.70297,0.06015 1.41652,0.31594 2.10892,0.18044c0.00008,-0.00002 0.00016,-0.00003 0.00023,-0.00005c0.03501,-0.1972 0.0501,-0.39178 0.01997,-0.57857c-0.16788,-1.04064 -0.86281,-1.95487 -1,-3c-1.00615,-7.665 -0.01881,-15.50533 2.38404,-22.7641c0,0 3.16228,-9.48683 12.64911,-6.32456c9.48683,3.16228 6.32456,12.64911 6.32456,12.64911c-1.37634,4.09281 -2.31841,8.88172 -1.61596,13.2359c0.8351,5.17643 2.79809,12.24448 -0.05413,17.3204c-1.53945,2.73966 -4.47816,4.49561 -7.16126,6.13164c-2.36582,1.44257 -5.06437,2.34655 -7.76441,2.96934c-1.91435,0.44156 -3.92738,0.12029 -5.89108,0.18044h-6c0,0 -10,0 -10,-10z" fill="#ff5600" stroke-width="0.5"/><path d="M79,131.5c0,-10 10,-10 10,-10h7c8.51946,0 17.3431,-0.66058 25.82481,0.03407c4.85451,0.39758 9.49823,2.16473 14.26076,3.18582c2.37524,0.50925 4.84995,0.48018 7.21197,1.04761c6.86255,1.6486 18.01857,5.92724 22.64954,11.66255c1.34659,1.66771 1.69318,3.93844 2.53977,5.90766c0,0 3.16228,9.48683 -6.32456,12.64911c-8.38349,2.7945 -11.828,-4.28896 -12.51581,-5.97441c-1.39526,-0.62835 -5.77557,-2.98726 -6.4733,-3.27363c-3.55368,-1.45854 -7.50255,-1.65423 -11.25873,-2.45869c-5.06473,-1.08471 -6.93768,-2.47845 -11.73924,-2.81418c-7.96224,-0.55672 -16.18466,0.03407 -24.17519,0.03407h-7c0,0 -10,0 -10,-10z" fill="#ff5600" stroke-width="0.5"/><path d="M313.47998,307.20001c5.29999,8.47998 -3.17999,13.77997 -3.17999,13.77997l-8.40842,5.24197c-2.85541,1.43026 -8.32887,4.29943 -12.75006,6.22782c2.37282,2.25035 4.89689,4.45738 7.93518,5.53529l7.34866,1.81351c0,0 9.70143,2.42536 7.27607,12.12678c-2.42536,9.70143 -12.12678,7.27607 -12.12678,7.27607l-8.65134,-2.18649c-2.38245,-0.99598 -5.00129,-1.55182 -7.14735,-2.98795c-2.71549,-1.81719 -6.19005,-4.93609 -9.5345,-8.15396c0.48365,2.00962 1.02064,4.0142 1.62942,6.02516l-0.49159,1.12572c0.05817,0.15688 0.11251,0.31562 0.16291,0.4761h0.4578v3c0,5.52285 -4.47715,10 -10,10c-2.76142,0 -5.26142,-1.11929 -7.07107,-2.92893l-4,-4l0.29252,-0.29252c-0.54616,-0.39079 -1.07092,-0.81318 -1.56986,-1.27364c-3.11373,-2.87358 -3.27677,-7.81497 -4.90959,-11.72478c-1.01583,-2.43242 -2.02897,-4.86596 -3.04185,-7.29961c-2.81104,-0.82285 -6.03712,-2.9594 -6.63898,-8.3762c-0.28733,-2.58596 0.17294,-4.57384 1.01122,-6.09981l-0.66531,-1.77366c-4.53144,-2.44099 -8.98026,-2.87163 -14.0323,-4.9111c-3.20994,-1.29583 -6.29807,-2.89706 -9.30176,-4.61775c-0.23544,-0.13488 -22.46953,-14.27419 -22.76158,-14.47763c-3.91165,-2.72492 -7.34002,-6.14043 -11.4104,-8.62201c-3.23443,-1.97193 -6.97724,-2.96463 -10.36726,-4.65513c-4.91665,-2.45179 -12.92839,-7.57181 -18.66469,-9.44999c-2.92062,-0.95627 -6.08562,-1.02488 -9,-2c-8.7645,-2.9325 -16.98235,-7.68862 -25.49431,-11.17748c-0.91771,-0.37615 -1.86039,-0.68267 -2.81829,-0.9411c-0.94043,1.29688 -1.72113,2.39744 -2.24833,3.18684c-2.97037,4.44761 -5.22188,9.3768 -8.46079,13.63282c-2.19592,2.8855 -5.47767,4.81103 -7.73494,7.6488c-2.061,2.59103 -2.96805,5.93681 -4.79192,8.6999l-0.37623,0.92513c0,0 -4.47214,8.94427 -13.41641,4.47214c-0.19067,-0.09533 -0.37523,-0.1927 -0.55388,-0.29197c-0.14967,0.45746 -0.29739,0.91565 -0.44309,1.37457c-1.18502,3.73254 -1.80307,7.63776 -3.11084,11.32908c-0.94998,2.68141 -2.89513,4.97391 -3.6379,7.71995c-0.42899,1.58597 0.19244,3.28131 0.21784,4.92409c0.04947,3.19862 -1.05643,6.87026 1.33989,9.26658l2.20711,1.41292c0,0 8.3205,5.547 2.7735,13.8675c-5.547,8.3205 -13.8675,2.7735 -13.8675,2.7735l-3.79289,-2.58708c-2.90522,-2.90522 -5.29614,-4.80453 -6.89891,-8.90659c-2.15771,-5.52237 -1.81838,-10.06073 -1.7612,-15.82683c0.03001,-3.02603 -0.47896,-6.13105 0.21784,-9.07591c0.85712,-3.62239 3.14461,-6.76237 4.3621,-10.28005c1.20527,-3.48236 1.76967,-7.16004 2.88916,-10.67092c1.83327,-5.7494 3.94627,-11.39418 6.26488,-16.9543c-0.58724,-0.148 -1.19443,-0.3168 -1.82642,-0.509c-15.73787,-4.78621 -17.8914,-20.83873 -22.38427,-34.31735c-0.24212,-0.72635 -0.53813,-1.43222 -0.85551,-2.12996c-1.24343,0.57992 -2.77682,0.93749 -4.66778,0.93749c-10,0 -10,-10 -10,-10l0.12913,-4.60182c0.64118,-1.92354 0.6476,-4.00327 1,-6c0.16765,-0.94991 0.36731,-1.89969 0.59402,-2.84739c-1.65278,-2.45664 -3.87683,-7.53925 1.20579,-12.62186c1.36986,-1.36986 2.73971,-2.20896 4.05816,-2.67153c0.44793,-2.18267 0.56003,-5.63555 0.28042,-6.95987c-0.22534,-1.06726 -1.31603,-1.78849 -1.64636,-2.82807c-0.17375,-0.54679 0.28778,-1.14129 0.20469,-1.70898c-0.03247,-0.2219 -0.24856,0.37335 -0.37285,0.56002c0,0 -8.3205,-5.547 -2.7735,-13.8675c5.547,-8.3205 13.8675,-2.7735 13.8675,-2.7735c1.87572,1.52001 4.21421,2.60238 5.62715,4.56002c1.30044,1.80177 1.38362,4.22624 2.20469,6.29102c0.6999,1.76005 1.99184,3.31271 2.35364,5.17193c1.1459,5.8885 0.62321,14.05442 -1.35364,19.76699c-0.16703,0.48268 -0.39153,0.94086 -0.63605,1.39062c3.88001,5.06914 4.70094,10.85516 6.73391,16.94745c0.80356,2.40806 2.19723,4.59168 3,7c0.86923,2.60768 1.13222,5.39184 2,8c0.76112,2.2876 2.0103,4.38645 2.8705,6.63867c1.55517,4.07181 0.65016,5.85672 4.74522,7.04398c1.20753,0.3501 2.47936,0.44051 3.73236,0.5439c0.21434,0.01769 0.42887,0.03199 0.64355,0.04367c2.49243,-4.98704 5.08763,-9.92136 7.72694,-14.81874c2.42308,-4.49616 4.60277,-9.13291 7.27812,-13.48368c5.29137,-8.60503 10.95201,-14.794 15.73489,-23.5404c3.59108,-6.56698 5.85521,-13.65675 8.39377,-20.65235c0,0 3.41743,-9.39793 12.81536,-5.9805c9.39793,3.41743 5.9805,12.81536 5.9805,12.81536c-3.04966,8.37023 -5.22267,15.24154 -9.4898,23.13302c1.56842,-1.85232 3.23991,-3.62997 4.51289,-5.68867c1.48125,-2.39552 2.2864,-5.14871 3.36589,-7.75012c2.25379,-5.43126 4.87684,-10.72558 6.73637,-16.30414c0.94022,-2.82065 1.16847,-5.86014 2.23792,-8.63436c0.74479,-1.93202 2.2887,-3.47045 3.15367,-5.35173c0.72877,-1.58507 1.06553,-3.32247 1.5983,-4.98371c0,0 1.74947,-5.24842 6.54967,-6.63651c0.01472,-0.15756 0.0318,-0.30948 0.05051,-0.45503c-4.91243,-2.33466 -9.95742,-4.28086 -14.94019,-6.50739c-5.06285,-2.26232 -10.75101,-1.2388 -16.17317,-1.2388c-3.33825,0 -6.68693,-0.31393 -10.01462,-0.04867c-3.05026,0.24315 -5.62822,2.41538 -8.51591,3.42752c-2.23662,0.78394 -4.802,0.51864 -6.94186,1.53747c-1.64496,0.7832 -2.6714,2.47848 -4.03368,3.68822c-5.27045,4.68029 -10.44125,9.4799 -15.42285,14.46653l-8,8c0,0 -7.07107,7.07107 -14.14214,0c-7.07107,-7.07107 0,-14.14214 0,-14.14214l8,-8c7.91233,-7.90481 8.11705,-8.46938 16.57715,-15.53347c2.60054,-2.17142 4.95486,-4.75969 7.96632,-6.31178c2.7813,-1.43346 6.11664,-1.39573 9.05814,-2.46253c2.17612,-0.78921 4.0319,-2.3365 6.2241,-3.07988c6.25433,-2.12086 12.78249,-1.54127 19.24536,-1.54127c8.5528,0 15.6859,-0.46202 23.82683,2.7612c2.07904,0.82315 3.93594,2.13997 6,3c7.20127,3.00053 18.02242,5.13234 21.41196,13.41196c2.1763,5.31603 0.64656,8.38093 -0.75196,12.98911c0,0 -1.74947,5.24842 -6.54967,6.63651c-0.13146,1.40691 -0.45033,2.36349 -0.45033,2.36349c-0.80057,2.33876 -1.38745,4.76196 -2.4017,7.01629c-0.74545,1.65686 -2.19564,2.95195 -2.84633,4.64827c-0.90413,2.35703 -0.96377,4.9707 -1.76208,7.36564c-0.87412,2.62236 -2.18828,5.0772 -3.23792,7.63436c-1.64539,4.00853 -6.45417,16.66649 -8.65983,20.31138c-2.06203,3.40754 -5.08716,6.14829 -7.29501,9.46322c-2.53728,3.80954 -4.40882,8.03287 -6.91077,11.86571c-0.36373,0.55721 -0.86898,1.28737 -1.47806,2.14429c7.41104,3.16435 14.59041,7.3532 22.23578,9.89133c2.91666,0.96828 6.08902,1.01478 9,2c8.78342,2.97276 12.98351,6.36366 21.33531,10.55001c3.81487,1.91221 7.98621,3.12843 11.63274,5.34487c4.47163,2.71795 8.29203,6.39243 12.5896,9.37799c6.89259,4.78835 13.99831,9.27774 21.23842,13.52237c5.62698,3.2989 12.08393,4.3171 17.925,6.76727c-0.10701,-0.27183 -0.2107,-0.54508 -0.31072,-0.8199c-1.24304,-3.41558 -1.27773,-7.16455 -2.20626,-10.67868c-0.77856,-2.94652 -2.03115,-5.74944 -2.90592,-8.66884c-2.88561,-9.63018 -4.93577,-19.30128 -7.96272,-28.87962c-1.71532,-5.42787 -2.66788,-11.10932 -4.78611,-16.39299c-1.82671,-4.55652 -4.42913,-8.76231 -6.62452,-13.15309c0,0 -4.47214,-8.94427 4.47214,-13.41641c8.94427,-4.47214 13.41641,4.47214 13.41641,4.47214c0.98221,1.96443 7.1422,14.26265 7.37548,14.84691c2.26972,5.68455 3.3719,11.76982 5.21389,17.60701c3.04855,9.66071 5.12349,19.41955 8.03728,29.12038c0.94266,3.13841 2.26342,6.16127 3.09408,9.33116c0.80206,3.06077 0.71334,6.34737 1.79374,9.32132c1.39705,3.84559 3.81137,7.24376 5.56678,10.93954c1.49951,3.15701 2.19157,6.74517 4.19374,9.60987c0.11951,0.17099 0.24253,0.33898 0.36875,0.50424c2.12078,-0.30678 4.25699,-0.72305 6.44587,-1.35827c2.41335,-0.70036 11.48093,-5.37686 13.07455,-6.17198l7.59158,-4.75803c0,0 8.47998,-5.29999 13.77997,3.17999zM106.34376,240.82586c2.17762,-2.87357 4.31602,-5.77408 6.28304,-8.79301c0.77895,-1.19551 1.49986,-2.42702 2.1993,-3.67181c-2.4878,3.38903 -4.92943,6.35558 -8.78719,12.53718c0.10219,-0.02578 0.20385,-0.04987 0.30484,-0.07237z" fill="#ffb800" stroke-width="0.5"/><path d="M403.13803,282.39634c6.07464,2.7612 6.25335,7.73338 5.69977,10.73643c1.14256,0.85852 2.21364,2.10944 3.10647,3.89509c0.70507,1.41015 1.07666,2.70913 1.2024,3.89695c2.41843,1.345 4.87167,2.63427 7.20083,4.12508c0.10278,0.06579 0.79883,0.39394 1.71671,0.88366c-0.01816,-0.47813 -0.03704,-0.95619 -0.0642,-1.43355v-7c0,0 0,-10 10,-10c10,0 10,10 10,10v7c-0.08917,3.09918 0.8133,6.39155 -0.26751,9.29753c-1.92246,5.16893 -4.27196,10.63872 -8.47518,14.20898c-4.19339,3.56191 -12.40834,1.14456 -16.51462,-1c-1.15493,-0.60318 -1.83598,-1.86792 -2.89681,-2.62445c-4.73001,-3.37323 -10.23977,-5.6816 -15.1298,-8.74362c-2.76318,5.24834 -5.7474,10.29704 -8.86585,15.51705c-1.53223,2.56481 -1.97177,5.97424 -4.27418,7.87815c-2.55599,2.1136 -6.0642,2.9717 -9.35421,3.39144c-2.95172,0.37658 -6.18335,0.22672 -8.8629,-1.06728c-2.39199,-1.15513 -3.82815,-3.71388 -5.42826,-5.83416c-0.0046,-0.00609 -0.00919,-0.01219 -0.01379,-0.01828c-2.64055,1.05021 -5.62824,2.01543 -7.44475,2.93892c0,0 -8.94427,4.47214 -13.41641,-4.47214c-4.47214,-8.94427 4.47214,-13.41641 4.47214,-13.41641c1.49995,-0.74089 2.96212,-1.56396 4.4963,-2.2304c-3.62063,-5.2298 -7.24126,-10.45959 -10.86188,-15.68939c-3.79473,-5.48128 -7.58947,-10.96256 -11.3842,-16.44384c0,0 -5.6921,-8.22192 2.52982,-13.91402c8.22192,-5.6921 13.91402,2.52982 13.91402,2.52982c7.26295,10.49093 14.52591,20.98187 21.78886,31.4728c4.33505,-2.19461 8.79446,-4.28351 13.33111,-6.15833c-4.9047,-4.34872 -9.82249,-8.6834 -15.15428,-12.48504c0,0 -8.13733,-5.81238 -2.32495,-13.94972c5.81238,-8.13733 13.94972,-2.32495 13.94972,-2.32495c6.14499,4.39645 8.36462,5.71217 13.931,10.75311c0.77858,0.70509 1.5586,1.42313 2.34142,2.14869c2.09125,-2.17211 5.72019,-4.29223 11.05323,-1.86812z" fill="#ffb800" stroke-width="0.5"/><path d="M458.42536,142.79857c9.70143,2.42536 7.27607,12.12678 7.27607,12.12678l-2.22471,8.76712c-2.47424,5.77744 -5.60733,11.25903 -8.75476,16.6991c-1.37136,2.37028 -2.10453,5.14422 -3.8399,7.26255c-2.13537,2.6066 -5.28757,4.21759 -7.58452,6.68299c-1.53365,1.64612 -9.07045,12.62231 -10.4249,14.32906c-1.64155,2.06853 -3.90368,3.65723 -5.26332,5.92104c-1.25785,2.09433 -1.47178,4.66826 -2.44293,6.90997c-3.27548,7.56079 -7.30695,14.7049 -11.84588,21.54982c0,0 -5.547,8.3205 -13.8675,2.7735c-8.3205,-5.547 -2.7735,-13.8675 -2.7735,-13.8675c3.92531,-5.85071 7.29992,-11.98488 10.15412,-18.45018c1.31406,-2.97659 1.88395,-6.29942 3.55707,-9.09003c1.80303,-3.00729 4.58235,-5.31245 6.73668,-8.07896c3.75476,-4.82172 7.49221,-11.25975 11.5751,-15.67094c1.88665,-2.03835 4.61308,-3.20379 6.41548,-5.31701c1.12626,-1.32049 1.30916,-3.22482 2.1601,-4.73745c1.99937,-3.55409 4.19694,-7.01729 6.01713,-10.66261c-0.72458,0.46598 -1.23379,0.6923 -1.23379,0.6923l-9.31972,4.1355c-12.97721,4.72634 -25.84049,9.67308 -39.16335,13.38828c-7.97938,2.22512 -16.63696,2.12016 -24.41604,4.82493c0,0 -9.48683,3.16228 -12.64911,-6.32456c-3.16228,-9.48683 6.32456,-12.64911 6.32456,-12.64911c8.33463,-2.70646 17.14287,-2.80078 25.58396,-5.17507c12.52368,-3.52262 24.62435,-8.17822 36.83665,-12.61172l8.68028,-3.8645c0,0 9.13812,-4.06138 13.1995,5.07673c0.04027,0.09061 0.07925,0.18072 0.11694,0.27034c1.42117,-2.69835 4.6548,-6.53925 11.1703,-4.91038z" fill="#ffb800" stroke-width="0.5"/><path d="M340.59347,47.85056c1.91838,-1.5328 7.69799,-5.20124 13.4776,0.57837c7.07107,7.07107 0,14.14214 0,14.14214l-4.90879,3.41577c-1.4631,0.47109 -2.90894,1.00504 -4.31517,1.62559c-0.73037,0.90224 -2.34896,1.85562 -2.70196,2.93311c-1.01595,3.10108 -1.63337,6.32971 -2.75529,9.39404c-0.50451,1.37799 -1.36888,2.63 -1.70677,4.05801c-1.62813,6.88092 -0.67567,14.50271 -0.68308,21.50242c-0.00441,4.16352 -0.284,10.54358 0.72581,14.67435c0.71963,2.94373 2.52124,5.56947 3.11373,8.5414c0.4821,2.41825 -0.28305,4.95592 0.06381,7.39724c0.31239,2.19872 1.45664,4.21014 1.89468,6.38731c1.68801,8.38985 2.12205,16.89007 6.14625,24.52756c0,0 4.47214,8.94427 -4.47214,13.41641c-8.94427,4.47214 -13.41641,-4.47214 -13.41641,-4.47214c-1.18852,-2.4599 -2.69294,-4.79083 -3.56555,-7.37969c-0.74581,-2.21266 -0.71481,-4.61943 -1.24537,-6.89332c-0.56682,-2.42929 -1.55315,-4.75341 -2.04282,-7.19942c-0.52754,-2.63513 -0.47575,-5.36421 -1,-8c-0.5136,-2.58223 -1.73106,-5.00661 -2.10532,-7.61269c-0.31288,-2.17867 0.49697,-4.44478 0.06381,-6.60276c-0.52464,-2.61373 -2.29523,-4.85908 -2.88627,-7.4586c-1.57079,-6.90865 -1.26741,-12.43752 -1.27419,-19.32565c-0.00869,-8.82974 -0.6578,-17.79861 1.31692,-26.49758c0.88646,-3.905 2.91042,-7.46913 4.08188,-11.29829c0.53125,-1.7365 0.6949,-3.60093 1.45606,-5.24966c2.13603,-4.62681 5.70549,-7.67783 9.29804,-11.06689c2.43489,-1.26446 4.89635,-2.50933 7.44057,-3.53702z" fill="#ffb800" stroke-width="0.5"/><path d="M395.07115,87.53252c0.29878,-2.50929 1.85219,-9.03252 9.92885,-9.03252c10,0 10,10 10,10l-0.51317,4.16228c-2.10708,5.79307 -5.6262,10.22381 -8.62904,15.47879c-0.52298,0.91521 -0.47702,2.08479 -1,3c-0.8269,1.44707 -2.25126,2.51099 -3,4c-0.81352,1.61785 -0.94501,3.50499 -1.619,5.18577c-1.31233,3.27268 -5.10009,9.59144 -6.55636,12.13456c-3.67506,6.4178 -7.43021,12.79459 -12.61136,18.10968c0,0 -7.07107,7.07107 -14.14214,0c-7.07107,-7.07107 0,-14.14214 0,-14.14214c3.96205,-3.75819 6.73382,-9.23342 9.38864,-13.89032c0.0942,-0.16525 4.63817,-7.84668 5.44364,-9.86544c0.89165,-2.23477 1.30913,-4.66009 2.381,-6.81423c0.74247,-1.49215 2.1731,-2.55293 3,-4c0.52298,-0.91521 0.47702,-2.08479 1,-3c0.8269,-1.44707 2.1731,-2.55293 3,-4c0.52298,-0.91521 0.47702,-2.08479 1,-3c0.85663,-1.49911 2.17517,-2.79425 2.92894,-4.32641z" fill="#ffb800" stroke-width="0.5"/><path d="M245.92893,13.42893c7.07107,-7.07107 14.14214,0 14.14214,0l3.66235,3.73118c2.70305,4.00553 4.54201,8.15493 6.91568,12.32062c0.41519,0.72863 0.84555,1.45085 1.29866,2.15811c8.05224,1.20595 8.05224,9.86116 8.05224,9.86116v3c0,5.52285 -4.47715,10 -10,10c-2.76142,0 -5.26142,-1.11929 -7.07107,-2.92893l-0.45589,-0.45589c0.09322,0.36871 0.18178,0.73955 0.26539,1.11264c0.80288,3.58271 0.7085,7.31002 1.17403,10.95196c0.69981,5.47475 1.8099,10.94928 2.89334,16.35906c0,0 1.96116,9.80581 -7.84465,11.76697c-9.80581,1.96116 -11.76697,-7.84465 -11.76697,-7.84465c-1.16409,-5.82795 -2.387,-11.73935 -3.10666,-17.64094c-0.3666,-3.00629 -0.17561,-6.09014 -0.82597,-9.04804c-1.51065,-6.87054 -5.42683,-12.79532 -8.31351,-19.02221c-1.07584,-2.3207 -1.31885,-5.00434 -2.59248,-7.22266c-1.32652,-2.31044 -3.74935,-3.8595 -5.09157,-6.16086c-1.05406,-1.8073 -0.77073,-4.24738 -1.97616,-5.95744c-3.47588,-4.931 -7.95696,-9.07116 -11.8602,-13.6713c-0.91741,-1.0812 -1.49985,-2.47137 -2.59803,-3.36838c-1.05198,-0.85926 -2.58166,-0.95325 -3.67671,-1.7569c-0.79691,-0.58484 -4.8338,-4.65118 -6.22396,-6.04135l-2,-2c0,0 -7.07107,-7.07107 0,-14.14214c7.07107,-7.07107 14.14214,0 14.14214,0l2,2c1.28947,1.28947 2.27429,2.92412 3.77604,3.95865c1.33698,0.92103 3.08942,1.18793 4.32329,2.2431c2.09024,1.78751 3.71344,4.05962 5.49603,6.15405c4.73202,5.55983 9.84571,10.83438 14.04574,16.80627c1.22197,1.73748 0.95339,4.20784 2.02384,6.04256c0.01714,0.02938 0.03448,0.05863 0.05201,0.08774c0.3309,-0.42972 0.7096,-0.86104 1.14092,-1.29236z" fill="#ffb800" stroke-width="0.5"/><path d="M138.60949,25.16999c-0.24973,-0.11291 -0.50706,-0.17741 -0.77176,-0.18316zM139.06394,25.43255c-2.48577,-0.28954 -9.06394,-1.82195 -9.06394,-9.93255c0,-10 10,-10 10,-10l4.16228,0.51317c1.69834,0.66011 3.53804,1.03381 5.09503,1.98032c7.19183,4.37201 9.26343,12.36865 13.89552,18.71588c3.35171,4.59276 7.30955,8.4288 11.84717,11.79063c0,0 8,6 2,14c-6,8 -14,2 -14,2c-8.07911,-6.11515 -14.77601,-13.31652 -19.76606,-22.18791c-0.80057,-1.42327 -2.23311,-5.51811 -4.17,-6.87954z" fill="#ffb800" stroke-width="0.5"/><path d="M51.05573,64.02786c4.47214,-8.94427 13.41641,-4.47214 13.41641,-4.47214l3.52786,1.94427c5.88783,4.45655 10.70017,9.05598 14.59948,15.23902c4.0584,-1.72818 7.76107,-4.11309 11.93105,-5.61787c2.80739,-1.01307 5.81091,-1.37804 8.67359,-2.22235c3.1605,-0.93215 6.1792,-2.34349 9.38536,-3.10392c16.12001,-3.82332 31.92571,-4.28733 48.41052,-4.29488c15.50579,-0.0071 20.86346,-0.4721 35.33948,1.09012c8.86403,0.95658 17.56133,3.14995 26.2272,5.24489c4.51635,1.09181 8.83437,2.96762 13.39448,3.85919c0,0 9.80581,1.96116 7.84465,11.76697c-1.96116,9.80581 -11.76697,7.84465 -11.76697,7.84465c-12.85845,-2.61689 -25.16984,-7.49228 -38.37832,-8.89592c-13.03968,-1.3857 -18.46554,-0.90303 -32.66052,-0.90988c-14.82468,-0.00716 -29.091,0.23811 -43.58948,3.70512c-2.9464,0.70457 -5.70754,2.04375 -8.61464,2.89608c-2.41149,0.70702 -4.95629,0.94238 -7.32641,1.77765c-3.67772,1.29608 -6.84752,3.59516 -10.46946,5.037c0,0.82377 0,2.58415 0,2.58415c0,5.52285 -4.47715,10 -10,10c-4.49839,0 -8.30305,-2.97024 -9.55975,-7.05648l-1.72254,-5.16763c-1.62257,-1.91847 -2.12867,-4.56674 -3.3668,-6.75662c-2.68405,-4.74724 -6.04272,-7.82742 -10.3509,-11.01927l-0.47214,-0.05573c0,0 -8.94427,-4.47214 -4.47214,-13.41641z" fill="#ffb800" stroke-width="0.5"/><path d="M347,-39.5c6,-8 14,-2 14,-2l3.77572,2.83661c1.72378,1.36449 3.82895,2.35241 5.17134,4.09346c1.30882,1.69751 1.75399,3.91339 2.53977,5.90766c2.19345,5.56688 4.1491,12.25627 5.30365,18.12598c0.3214,1.634 0.18337,3.36716 0.71935,4.94385c0.70256,2.06672 2.22407,3.78806 2.94891,5.84708c0.75631,2.14842 2.01703,10.27528 2.40521,12.60137c0,0 1.64399,9.86394 -8.21995,11.50793c-9.86394,1.64399 -11.50793,-8.21995 -11.50793,-8.21995c-0.52172,-3.13454 -0.47038,-6.42655 -1.59479,-9.39863c-0.81006,-2.14118 -2.33773,-3.97762 -3.05109,-6.15292c-1.36479,-4.16174 -1.57081,-8.71158 -2.97701,-12.93016c-0.80784,-2.42352 -1.41588,-4.90913 -2.11437,-7.3664c-0.25324,-0.89088 -0.76905,-1.71479 -0.88563,-2.6336c-0.00193,-0.01518 0.00155,-0.02847 0.00942,-0.04008c-0.09937,0.01482 -0.19873,0.02996 -0.29831,0.04119l-4.22428,-3.16339c0,0 -8,-6 -2,-14z" fill="#ffb800" stroke-width="0.5"/></g></g></svg>