<svg version="1.1" xmlns="http://www.w3.org/2000/svg" xmlns:xlink="http://www.w3.org/1999/xlink" width="60.05384" height="112.67875" viewBox="0,0,60.05384,112.67875"><g transform="translate(-209.97209,-123.65809)"><g data-paper-data="{&quot;isPaintingLayer&quot;:true}" fill-rule="nonzero" stroke-width="0.5" stroke-linejoin="miter" stroke-miterlimit="10" stroke-dasharray="" stroke-dashoffset="0" style="mix-blend-mode: normal"><path d="M228.85159,210.57192l-1.60905,-43.67418l8.73484,-0.22986v43.21445z" fill="#4467d2" stroke="#000000" stroke-linecap="round"/><path d="M236.43712,167.1276l6.66605,-0.91945l0.22986,42.75472h-7.58551z" fill="#ffa621" stroke="#000000" stroke-linecap="round"/><path d="M243.33303,166.43802l5.74661,0.45972l0.22986,42.52486l-5.51674,-0.22986z" fill="#4467d2" stroke="#4467d2" stroke-linecap="round"/><path d="M249.07964,166.66787l15.17103,15.63076l-2.75837,2.98824l-8.50497,-8.9647l-3.90769,-1.14932z" fill="#4467d2" stroke="#000000" stroke-linecap="round"/><path d="M227.24255,173.79367h-2.29864l-5.74661,12.87239l-4.82715,-2.5285l12.41266,-17.23981z" fill="#4467d2" stroke="#4467d2" stroke-linecap="round"/><path d="M249.07964,208.27328l0.91945,22.29682l-5.97646,0.22986l-0.45973,-16.32035h-7.58552v16.09049l-7.12579,-0.45973l-0.22986,-19.53845z" fill="#39b24b" stroke="#000000" stroke-linecap="round"/><path d="M250.45882,230.11037h6.43619l2.29864,1.14932l1.60905,2.06877l-2.29864,1.60905h-2.5285l-11.72307,0.22987l-0.45972,-4.13756z" fill="#984a14" stroke="#000000" stroke-linecap="round"/><path d="M235.74752,230.11037v4.59728l-3.90769,1.37919h-3.2181l-2.98824,-0.22987l-1.83891,-0.22986l-2.75836,-0.22986l-1.37919,-1.83892l0.68959,-1.37918l1.37918,-0.68959l2.52851,-0.22986l1.60905,-0.45973l3.44796,-0.91945z" fill="#984a14" stroke="#000000" stroke-linecap="round"/><path d="M235.97739,166.66786l-2.98824,-0.68959l-4.13755,-2.5285l-1.14932,-2.5285l-0.91945,-6.4362l0.91945,-5.97646l4.59728,-4.36742l4.59728,-0.91945l5.05701,0.22987l2.5285,5.51673l0.45973,4.13756v3.67782l-2.06878,8.50498z" fill="#ffe3d2" stroke="#000000" stroke-linecap="round"/><path d="M243.79276,148.04887l-1.60905,-4.36742h-2.29864l-5.28687,-1.14932l-3.2181,3.44797l-2.29864,0.22986l-1.14932,2.75837l-0.91945,5.05701l-1.37919,-1.83891l-2.75837,-3.44796l0.91945,-4.59728l2.98824,-4.36741l2.75837,-2.29864v-5.7466l0.22987,-1.60905l3.44796,-5.51674l1.83891,-0.68959l2.06878,0.22987l2.29864,0.45973l1.37918,2.06878l0.68959,2.29864l2.29864,4.82714l2.75837,2.75837l0.68959,2.75837l0.45973,5.28687l-0.45973,3.90769l-2.06877,4.59728z" fill="#984a14" stroke="#000000" stroke-linecap="round"/><path d="M241.26426,162.53033l-3.44797,0.22986l-2.75836,-0.91946l-0.91946,-1.14932" fill="none" stroke="#ff0000" stroke-linecap="round"/><path d="M230.23077,149.19821h2.06878l1.14932,1.83891l-0.22986,3.67783h-1.37919l-1.60905,-0.45973l-0.91945,-2.98823z" fill="#54d7ff" stroke="#000000" stroke-linecap="round"/><path d="M242.81629,151.43984l-0.91945,2.98823l-1.60905,0.45973h-1.37919l-0.22986,-3.67783l1.14932,-1.83891h2.06878z" data-paper-data="{&quot;index&quot;:null}" fill="#54d7ff" stroke="#000000" stroke-linecap="round"/><path d="M230.8801,151.95657c0,-0.27614 0.22386,-0.5 0.5,-0.5c0.27614,0 0.5,0.22386 0.5,0.5c0,0.27614 -0.22386,0.5 -0.5,0.5c-0.27614,0 -0.5,-0.22386 -0.5,-0.5z" fill="#000000" stroke="none" stroke-linecap="butt"/><path d="M239.8448,151.72671c0,-0.27614 0.22386,-0.5 0.5,-0.5c0.27614,0 0.5,0.22386 0.5,0.5c0,0.27614 -0.22386,0.5 -0.5,0.5c-0.27614,0 -0.5,-0.22386 -0.5,-0.5z" fill="#000000" stroke="none" stroke-linecap="butt"/><path d="M263.56107,182.29864l2.06878,-1.14932h1.60905l2.29864,1.83891l0.22986,1.60905l-1.14932,2.29864l-1.14932,1.14932h-1.37918h-2.75837l-2.06878,-3.2181" fill="#ffffff" stroke="#000000" stroke-linecap="round"/><path d="M210.92219,186.20633l2.06878,-0.45973l1.37918,-0.68959l4.59728,1.14932l0.91946,2.98823l-2.29864,3.67783h-2.06878l-3.44796,-1.14932l-1.83891,-1.60905l0.22986,-2.52851z" fill="#ffffff" stroke="#000000" stroke-linecap="round"/></g></g></svg>