<svg version="1.1" xmlns="http://www.w3.org/2000/svg" xmlns:xlink="http://www.w3.org/1999/xlink" width="48.62131" height="75.60279" viewBox="0,0,48.62131,75.60279"><g transform="translate(-295.33861,-142.2158)"><g stroke="#000000" stroke-width="2" stroke-miterlimit="10"><path d="M297.0511,216.78421c0,0 0,-26.77667 0,-42.82009c0,-2.83101 0,-5.32782 0,-7.2843c0,-8.3572 0,-20.56745 0,-20.56745h34.91273c0,0 0,12.21025 0,20.56745c0,1.29936 0,2.83706 0,4.55269c0,15.50704 0,45.55169 0,45.55169z" fill="#7c95bf" stroke-linecap="butt"/><path d="M332.77936,146.41574c0,0 9.97809,0.7224 10.00209,0.88209c1.86947,12.43995 0.17892,68.79402 0.17892,68.79402l-10.726,0.66254z" fill="#7c95bf" stroke-linecap="round"/><path d="M325.18487,145.55386c0,-0.9504 2.38036,-1.72086 5.31666,-1.72086c2.93632,0 5.31667,0.77045 5.31667,1.72086c0,0.9504 -2.38036,1.72086 -5.31666,1.72086c-2.93632,0 -5.31666,-0.77045 -5.31666,-1.72086z" fill="#fff466" stroke-linecap="butt"/><path d="M296.33861,144.93666c0,-0.9504 2.38035,-1.72086 5.31666,-1.72086c2.93631,0 5.31666,0.77045 5.31666,1.72086c0,0.9504 -2.38036,1.72086 -5.31666,1.72086c-2.93631,0 -5.31666,-0.77045 -5.31666,-1.72086z" fill="#fff466" stroke-linecap="butt"/></g></g></svg>