<svg version="1.1" xmlns="http://www.w3.org/2000/svg" xmlns:xlink="http://www.w3.org/1999/xlink" width="150.02384" height="139.77945" viewBox="0,0,150.02384,139.77945"><g transform="translate(-248.98808,-280.11028)"><g fill="#8c5d31" stroke="#000000" stroke-width="0" stroke-miterlimit="10"><path d="M275.79766,348.33236c-5.09624,-7.2129 -25.25389,10.64168 -26.6728,-0.16265c-1.41892,-10.80433 8.36023,-26.12377 21.94824,-35.81247c13.58801,-9.6887 -8.0201,15.06732 2.07359,18.68411c10.0937,3.61679 17.21076,-2.35519 18.27736,-11.39193c1.0666,-9.03673 -19.86751,-11.38518 -14.58945,-19.85372c5.27807,-8.46854 21.93378,-19.26703 39.2221,-19.66883c17.28832,-0.4018 19.4203,6.51459 23.74095,18.2055c4.32064,11.69091 -18.51635,18.107 -9.32784,20.79386c9.18851,2.68686 27.35727,-16.51527 44.23797,-10.58562c16.88069,5.92965 23.82511,17.58669 24.29269,34.65825c0.46758,17.07157 -13.48935,-1.26012 -23.20282,5.1335c-9.71347,6.39362 -17.94712,10.53594 -15.59302,20.40277c1.04727,4.38948 15.54821,-10.98431 21.60394,-10.20136c7.55657,0.97699 6.41991,17.64093 1.1285,19.72237c-3.74979,1.47503 -8.64989,16.86084 -13.95741,14.92101c-8.18408,-2.99117 -17.33688,-23.75661 -24.73471,-18.16408c-12.19547,9.21939 10.82343,21.73463 1.55271,31.31929c-9.27071,9.58466 -26.62684,18.1588 -42.25844,10.7649c-15.63159,-7.3939 10.26905,-29.57002 -3.56806,-32.44128c-13.83711,-2.87126 -7.99682,29.30906 -22.61897,27.00736c-14.62214,-2.30169 -12.21051,-18.90512 -18.16403,-33.42708c-5.95352,-14.52195 -9.25501,-14.69044 -4.82925,-22.65861c4.42576,-7.96817 26.535,-0.0324 21.43875,-7.2453z"/></g></g></svg>