<svg version="1.1" xmlns="http://www.w3.org/2000/svg" xmlns:xlink="http://www.w3.org/1999/xlink" width="1483.97898" height="1455.45045" viewBox="0,0,1483.97898,1455.45045"><g transform="translate(304.47057,294.74222)"><g stroke-miterlimit="10"><path d="M0.09904,899.90102v-899.80195h899.80195v899.80195z" fill="#3badff" stroke="none" stroke-width="0" stroke-linecap="butt"/><path d="M15.06509,21.86358l-1.5015,836.33634" fill="none" stroke="#ffffff" stroke-width="2.5" stroke-linecap="round"/><path d="M16.56659,886.72844l30.03003,-860.36036" fill="none" stroke="#ffffff" stroke-width="2.5" stroke-linecap="round"/><path d="M54.10413,11.35306v864.86486" fill="none" stroke="#ffffff" stroke-width="2.5" stroke-linecap="round"/><path d="M37.58761,882.22394l64.56456,-864.86486" fill="none" stroke="#ffffff" stroke-width="2.5" stroke-linecap="round"/><path d="M81.13116,17.35907l13.51351,845.34535" fill="none" stroke="#ffffff" stroke-width="2.5" stroke-linecap="round"/><path d="M178.72875,9.85155l-169.66967,828.82883" fill="none" stroke="#ffffff" stroke-width="2.5" stroke-linecap="round"/><path d="M378.42845,825.16687l-180.18018,-783.78378l336.33634,7.50751l-46.54655,223.72372" fill="none" stroke="#ffffff" stroke-width="0.5" stroke-linecap="round"/><path d="M566.11614,35.37709l-330.33033,788.28829" fill="none" stroke="#ffffff" stroke-width="2.5" stroke-linecap="round"/><path d="M385.93596,236.57829l292.79279,626.12613" fill="none" stroke="#ffffff" stroke-width="2.5" stroke-linecap="round"/><path d="M696.74678,57.89962l-186.18619,734.23423" fill="none" stroke="#ffffff" stroke-width="2.5" stroke-linecap="round"/><path d="M750.80083,664.50622l-27.02703,-602.1021" fill="none" stroke="#ffffff" stroke-width="2.5" stroke-linecap="round"/><path d="M674.22425,819.16087l60.06006,-512.01201" fill="none" stroke="#ffffff" stroke-width="2.5" stroke-linecap="round"/><path d="M816.86689,766.60832l-33.03303,-675.67568" fill="none" stroke="#ffffff" stroke-width="2.5" stroke-linecap="round"/><path d="M699.74978,760.60231l-208.70871,-602.1021l-247.96659,-21.313" fill="none" stroke="#ffffff" stroke-width="0.5" stroke-linecap="round"/><path d="M355.90593,813.15487l328.82883,-665.16517" fill="none" stroke="#ffffff" stroke-width="2.5" stroke-linecap="round"/><path d="M301.85187,63.90562l316.81682,629.12913" fill="none" stroke="#ffffff" stroke-width="2.5" stroke-linecap="round"/><path d="M166.71674,738.07979l241.74174,-722.22222" fill="none" stroke="#ffffff" stroke-width="2.5" stroke-linecap="round"/><path d="M334.88491,634.47619l10.51051,-573.57357" fill="none" stroke="#ffffff" stroke-width="2.5" stroke-linecap="round"/><path d="M385.93596,29.37108l-1.5015,719.21922" fill="none" stroke="#ffffff" stroke-width="2.5" stroke-linecap="round"/><path d="M156.20623,523.36508l-51.05105,369.36937" fill="none" stroke="#ffffff" stroke-width="2.5" stroke-linecap="round"/><path d="M165.21524,873.21493l3.003,-608.10811" fill="none" stroke="#ffffff" stroke-width="2.5" stroke-linecap="round"/><path d="M246.29632,867.20892l-25.52553,-415.91592" fill="none" stroke="#ffffff" stroke-width="2.5" stroke-linecap="round"/><path d="M337.88791,870.21192l12.01201,-454.95495" fill="none" stroke="#ffffff" stroke-width="2.5" stroke-linecap="round"/><path d="M417.46749,886.72843l21.02102,-367.86787" fill="none" stroke="#ffffff" stroke-width="2.5" stroke-linecap="round"/><path d="M474.52455,876.21793l-60.06006,-468.46847" fill="none" stroke="#ffffff" stroke-width="2.5" stroke-linecap="round"/><path d="M548.09812,461.80351l28.52853,417.41742" fill="none" stroke="#ffffff" stroke-width="2.5" stroke-linecap="round"/><path d="M705.75578,487.32904l7.50751,378.37838" fill="none" stroke="#ffffff" stroke-width="2.5" stroke-linecap="round"/><path d="M861.91194,867.20892l-60.06006,-439.93994" fill="none" stroke="#ffffff" stroke-width="2.5" stroke-linecap="round"/><path d="M747.79782,844.6864l-6.00601,-417.41742" fill="none" stroke="#ffffff" stroke-width="2.5" stroke-linecap="round"/><path d="M870.92095,2.34406l-1.5015,518.01802" fill="none" stroke="#ffffff" stroke-width="2.5" stroke-linecap="round"/><path d="M834.88491,51.89361l-73.57357,506.00601" fill="none" stroke="#ffffff" stroke-width="2.5" stroke-linecap="round"/><path d="M705.75579,352.1939l54.05405,-340.84084" fill="none" stroke="#ffffff" stroke-width="2.5" stroke-linecap="round"/><path d="M635.18521,5.34706l-40.54054,328.82883" fill="none" stroke="#ffffff" stroke-width="2.5" stroke-linecap="round"/><path d="M455.00503,54.89661l-34.53453,148.64865" fill="none" stroke="#ffffff" stroke-width="2.5" stroke-linecap="round"/><path d="M285.33536,221.56327l9.00901,-192.19219" fill="none" stroke="#ffffff" stroke-width="2.5" stroke-linecap="round"/><path d="M453.78769,-292.24222c0,-1.38071 1.11929,-2.5 2.5,-2.5c1.38071,0 2.5,1.11929 2.5,2.5c0,1.38071 -1.11929,2.5 -2.5,2.5c-1.38071,0 -2.5,-1.11929 -2.5,-2.5z" fill="#ffffff" stroke="none" stroke-width="0.5" stroke-linecap="butt"/><path d="M1174.50841,416.46649c0,-1.38071 1.11929,-2.5 2.5,-2.5c1.38071,0 2.5,1.11929 2.5,2.5c0,1.38071 -1.11929,2.5 -2.5,2.5c-1.38071,0 -2.5,-1.11929 -2.5,-2.5z" fill="#ffffff" stroke="none" stroke-width="0.5" stroke-linecap="butt"/><path d="M447.78168,1158.20823c0,-1.38071 1.11929,-2.5 2.5,-2.5c1.38071,0 2.5,1.11929 2.5,2.5c0,1.38071 -1.11929,2.5 -2.5,2.5c-1.38071,0 -2.5,-1.11929 -2.5,-2.5z" fill="#ffffff" stroke="none" stroke-width="0.5" stroke-linecap="butt"/><path d="M-304.47057,447.99802c0,-1.38071 1.11929,-2.5 2.5,-2.5c1.38071,0 2.5,1.11929 2.5,2.5c0,1.38071 -1.11929,2.5 -2.5,2.5c-1.38071,0 -2.5,-1.11929 -2.5,-2.5z" fill="#ffffff" stroke="none" stroke-width="0.5" stroke-linecap="butt"/><path d="M22.35375,101.15118l683.18318,63.06306" fill="none" stroke="#ffffff" stroke-width="0.5" stroke-linecap="round"/><path d="M124.45586,296.34637l462.46246,123.12312" fill="none" stroke="#ffffff" stroke-width="0.5" stroke-linecap="round"/><path d="M294.12553,449.49952l258.25826,100.6006" fill="none" stroke="#ffffff" stroke-width="0.5" stroke-linecap="round"/><path d="M142.47387,616.16619l415.91592,72.07207" fill="none" stroke="#ffffff" stroke-width="0.5" stroke-linecap="round"/><path d="M256.58799,698.74877l388.88889,19.51952" fill="none" stroke="#ffffff" stroke-width="0.5" stroke-linecap="round"/><path d="M264.0955,616.16619l202.7027,-31.53153" fill="none" stroke="#ffffff" stroke-width="0.5" stroke-linecap="round"/><path d="M232.56396,497.54757h229.72973" fill="none" stroke="#ffffff" stroke-width="0.5" stroke-linecap="round"/><path d="M310.64204,467.51754l270.27027,-37.53754" fill="none" stroke="#ffffff" stroke-width="0.5" stroke-linecap="round"/><path d="M250.58198,350.40043l160.66066,-21.02102" fill="none" stroke="#ffffff" stroke-width="0.5" stroke-linecap="round"/><path d="M130.46186,233.28331l253.75375,-67.56757" fill="none" stroke="#ffffff" stroke-width="0.5" stroke-linecap="round"/><path d="M298.63003,128.1782l361.86186,-16.51652" fill="none" stroke="#ffffff" stroke-width="0.5" stroke-linecap="round"/><path d="M411.24264,111.66169l306.30631,25.52553" fill="none" stroke="#ffffff" stroke-width="0.5" stroke-linecap="round"/><path d="M255.08649,273.82385l426.42643,31.53153" fill="none" stroke="#ffffff" stroke-width="0.5" stroke-linecap="round"/><path d="M297.12853,395.44547l348.34835,36.03604" fill="none" stroke="#ffffff" stroke-width="0.5" stroke-linecap="round"/><path d="M107.93934,551.60163l509.00901,10.51051" fill="none" stroke="#ffffff" stroke-width="0.5" stroke-linecap="round"/><path d="M387.21862,628.1782l283.78378,49.54955" fill="none" stroke="#ffffff" stroke-width="0.5" stroke-linecap="round"/><path d="M164.9964,764.81484h445.94595" fill="none" stroke="#ffffff" stroke-width="0.5" stroke-linecap="round"/><path d="M414.24565,728.7788l276.27628,-72.07207" fill="none" stroke="#ffffff" stroke-width="0.5" stroke-linecap="round"/><path d="M618.44985,622.1722l156.15616,-97.5976" fill="none" stroke="#ffffff" stroke-width="0.5" stroke-linecap="round"/><path d="M624.45586,472.02205l99.0991,-34.53453" fill="none" stroke="#ffffff" stroke-width="0.5" stroke-linecap="round"/><path d="M586.91832,374.42445l282.28228,-153.15315" fill="none" stroke="#ffffff" stroke-width="0.5" stroke-linecap="round"/><path d="M749.08048,194.24427l55.55556,-60.06006" fill="none" stroke="#ffffff" stroke-width="0.5" stroke-linecap="round"/><path d="M675.50691,249.79982l72.07207,-7.50751" fill="none" stroke="#ffffff" stroke-width="0.5" stroke-linecap="round"/><path d="M675.50691,466.01604l69.06907,10.51051" fill="none" stroke="#ffffff" stroke-width="0.5" stroke-linecap="round"/><path d="M658.99039,656.70673l55.55556,1.5015" fill="none" stroke="#ffffff" stroke-width="0.5" stroke-linecap="round"/><path d="M438.26967,686.73676l75.07508,-33.03303" fill="none" stroke="#ffffff" stroke-width="0.5" stroke-linecap="round"/><path d="M378.20961,662.71274l-399.3994,-10.51051" fill="none" stroke="#ffffff" stroke-width="0.5" stroke-linecap="round"/><path d="M-7.67628,635.68571l409.90991,-198.1982" fill="none" stroke="#ffffff" stroke-width="0.5" stroke-linecap="round"/><path d="M382.71411,410.46049l-211.71171,-40.54054" fill="none" stroke="#ffffff" stroke-width="0.5" stroke-linecap="round"/><path d="M113.94535,365.41544l267.26727,-30.03003" fill="none" stroke="#ffffff" stroke-width="0.5" stroke-linecap="round"/><path d="M501.33273,293.34337l-220.72072,-43.54354l421.92192,76.57658" fill="none" stroke="#ffffff" stroke-width="0.5" stroke-linecap="round"/><path d="M146.97838,245.29532l327.32733,-73.57357" fill="none" stroke="#ffffff" stroke-width="0.5" stroke-linecap="round"/><path d="M164.9964,158.20823l381.38138,31.53153" fill="none" stroke="#ffffff" stroke-width="0.5" stroke-linecap="round"/><path d="M786.61802,195.74577h-216.21622" fill="none" stroke="#ffffff" stroke-width="0.5" stroke-linecap="round"/><path d="M128.96036,167.21724l-84.08408,18.01802" fill="none" stroke="#ffffff" stroke-width="0.5" stroke-linecap="round"/><path d="M237.06847,77.12715l210.21021,-15.01502l-288.28829,72.07207" fill="none" stroke="#ffffff" stroke-width="0.5" stroke-linecap="round"/><path d="M414.24565,53.10313l-264.26426,-12.01201" fill="none" stroke="#ffffff" stroke-width="0.5" stroke-linecap="round"/><path d="M526.85826,44.09412l-403.9039,-15.01502l312.31231,21.02102" fill="none" stroke="#ffffff" stroke-width="0.5" stroke-linecap="round"/><path d="M101.93333,146.19622l645.64565,15.01502l-210.21021,4.5045" fill="none" stroke="#ffffff" stroke-width="0.5" stroke-linecap="round"/><path d="M279.11051,177.72775l198.1982,10.51051" fill="none" stroke="#ffffff" stroke-width="0.5" stroke-linecap="round"/><path d="M585.41682,200.25027l-587.08709,43.54354" fill="none" stroke="#ffffff" stroke-width="0.5" stroke-linecap="round"/><path d="M-120.28889,257.30733l600.6006,-37.53754" fill="none" stroke="#ffffff" stroke-width="0.5" stroke-linecap="round"/><path d="M546.37778,219.76979l-357.35736,30.03003" fill="none" stroke="#ffffff" stroke-width="0.5" stroke-linecap="round"/><path d="M333.16457,248.29832l312.31231,1.5015" fill="none" stroke="#ffffff" stroke-width="0.5" stroke-linecap="round"/><path d="M603.43484,260.31034l-264.26426,48.04805" fill="none" stroke="#ffffff" stroke-width="0.5" stroke-linecap="round"/><path d="M456.28769,309.85988l180.18018,12.01201" fill="none" stroke="#ffffff" stroke-width="0.5" stroke-linecap="round"/><path d="M143.97538,368.41844l-144.14414,12.01201" fill="none" stroke="#ffffff" stroke-width="0.5" stroke-linecap="round"/><path d="M534.36577,365.41544l318.31832,9.00901" fill="none" stroke="#ffffff" stroke-width="0.5" stroke-linecap="round"/><path d="M580.91231,401.45148l-226.72673,42.04204" fill="none" stroke="#ffffff" stroke-width="0.5" stroke-linecap="round"/><path d="M504.33574,455.50553l276.27628,28.52853" fill="none" stroke="#ffffff" stroke-width="0.5" stroke-linecap="round"/><path d="M612.44384,536.58661l-390.39039,81.08108" fill="none" stroke="#ffffff" stroke-width="0.5" stroke-linecap="round"/><path d="M420.25165,604.15418l237.23724,31.53153" fill="none" stroke="#ffffff" stroke-width="0.5" stroke-linecap="round"/><path d="M477.30871,683.73376l-280.78078,51.05105" fill="none" stroke="#ffffff" stroke-width="0.5" stroke-linecap="round"/><path d="M480.31171,749.79982l243.24324,33.03303" fill="none" stroke="#ffffff" stroke-width="0.5" stroke-linecap="round"/><path d="M388.72012,776.82685l-25.52553,15.01502" fill="none" stroke="#ffffff" stroke-width="0.5" stroke-linecap="round"/><path d="M755.08649,794.84487l-265.76577,-12.01201" fill="none" stroke="#ffffff" stroke-width="0.5" stroke-linecap="round"/></g></g></svg>