<svg version="1.1" xmlns="http://www.w3.org/2000/svg" xmlns:xlink="http://www.w3.org/1999/xlink" width="198.73236" height="227.43004" viewBox="0,0,198.73236,227.43004"><g transform="translate(-129.87112,-60.93196)"><g fill="#000000" stroke="none" stroke-width="0.5" stroke-miterlimit="10"><path d="M141.57981,191.18009c0.28205,-0.12521 0.56984,-0.24704 0.86354,-0.3657c-0.28497,-0.00399 -0.56991,-0.0083 -0.85483,-0.01294zM137.25734,200.73046c-9.9574,16.96895 16.60747,21.5151 17.35688,4.41069c0.68548,-1.15747 1.70211,-2.21242 2.05643,-3.47241c0.59487,-2.11543 -0.07212,-4.34937 -0.06688,-6.52418c0.00313,-1.30111 0.85491,-2.89137 -0.11066,-3.90221c-0.61715,-0.64607 -3.64717,-0.40871 -4.27613,-0.40393c-0.53218,0.00405 -1.06444,0.00734 -1.59675,0.00983c-0.71292,0.99324 -1.64725,1.88337 -2.22594,2.93808c-0.78676,1.43392 -0.83945,3.36287 -2.32893,4.31404l1.82116,-0.36134c0,0 2.45145,0.41598 1.96116,2.49584c-0.49029,2.07987 -2.94174,1.66389 -2.94174,1.66389l-5.06563,-1.52993c0.20357,-2.08554 0.2131,-3.3617 0.52869,-4.71628c-2.17532,1.22443 -3.79411,2.83262 -5.11165,5.0779zM137.67709,193.40052c-1.41918,-0.75302 -0.97037,-2.27615 -0.97037,-2.27615l1.34627,-3.32255c3.1972,-0.90194 6.1013,-1.15324 9.16547,-1.21023c0.19112,-0.61045 0.3858,-1.21946 0.71804,-1.7801c1.23621,-2.08606 3.19088,-3.81928 4.49617,-5.87483c1.51648,-2.38814 3.26773,-4.706 4.30777,-7.27115c0.52401,-1.29239 0.47141,-2.71564 0.95508,-4.01931c1.49772,-4.03695 4.23011,-7.76204 5.92587,-11.74201c1.19088,-2.79501 1.71032,-7.35363 4.01698,-9.56306c1.2204,-1.16895 5.26525,-1.87964 7.22453,-2.29522c13.28952,-4.40222 33.02746,-7.77235 46.99306,-4.08952c8.81058,2.3234 17.76389,6.23599 27.03183,6.83145c-0.00066,-0.2412 -0.001,-0.48245 -0.001,-0.72375c0,-1.66289 -0.92828,-9.25891 1.18567,-9.98436c2.48026,-0.85115 11.89817,3.24771 14.872,3.81153c18.73425,3.55196 27.0271,-7.92237 29.40145,-22.02352c-0.0087,-5.45258 -1.75287,-11.21349 -4.93055,-16.39539c-0.16804,0.73679 -0.34005,1.47269 -0.42466,2.19762c-0.17433,1.49356 0.39636,3.06344 -0.10956,4.50162c-0.37898,1.07733 -4.17868,4.8974 -5.54708,5.3789c-1.68695,0.59359 -7.32835,0.08093 -8.43666,-1.23857c-1.02759,-1.22341 -0.57543,-2.98467 -0.51076,-4.48594c0.14844,-3.44555 2.80583,-6.02509 5.53426,-8.25215c0.9328,-0.76139 1.6857,-1.78335 2.8771,-2.21266c0.44882,-0.16172 0.92768,-0.21281 1.41885,-0.21858c-1.55027,-1.86514 -5.01928,-2.14308 -7.34894,-2.12796h-2.75472c0,0 -2.5,0 -2.5,-2.12106c0,-2.12106 2.5,-2.12106 2.5,-2.12106h2.75472c0.90613,0.00471 1.84762,0.05477 2.7918,0.16222c-1.42079,-1.027 -2.93101,-1.95999 -4.52451,-2.78096c-0.51587,0.41152 -1.034,0.80241 -1.55698,1.15793l-2.78577,1.77295c0,0 -2,1.27264 -3.5,-0.42421c-1.5,-1.69685 0.5,-2.96948 0.5,-2.96948l1.2357,-0.78615c-1.46721,-0.91349 -3.19269,-1.48553 -4.80737,-2.20997c-6.77402,-0.92536 -14.32535,-0.18608 -20.89194,-0.2047c-12.09442,1.60433 -25.17291,16.36502 -19.85121,27.07037c4.19269,8.43418 11.97308,14.06266 21.20105,17.90695c2.7277,0.58269 5.28304,0.45254 8.08546,0.45254h0.68868c0,0 2.5,0 2.5,2.12106c0,2.12106 -2.5,2.12106 -2.5,2.12106h-0.68868c-3.4685,0 -6.43443,-0.0013 -9.8202,-0.71604c-10.39821,-4.46215 -19.81283,-10.89409 -24.25178,-20.65627c-6.19624,-13.62684 9.03418,-30.28293 24.22426,-32.52733c4.48414,-0.01095 9.3844,-0.31205 14.22594,-0.26548c-2.25212,-1.27228 -7.22276,-4.06713 -7.44505,-4.23734c-4.07493,-3.12007 -6.41716,-7.65483 -8.81076,-11.7164c0,0 -1.11803,-1.89713 1.11803,-2.84569c2.23607,-0.94856 3.3541,0.94856 3.3541,0.94856c2.09279,3.55113 4.13344,7.75882 7.71755,10.48667c2.38651,1.81636 5.39482,2.94313 8.01862,4.50626c1.70984,1.01864 2.97628,2.53397 4.75305,3.4665c0.01129,0.00592 0.02258,0.01183 0.03389,0.01774c1.44708,0.22499 2.85937,0.52345 4.22198,0.91534c1.43158,0.41172 2.82056,0.89436 4.16463,1.44159c1.49535,-1.27425 2.99785,-2.5505 4.58112,-3.49319c2.11057,-1.25666 4.81202,-1.67485 6.91621,-2.93918c3.71469,-2.23203 6.26979,-3.82452 11.07386,-3.88839c0,0 2.5,0 2.5,2.12106c0,2.12106 -2.5,2.12106 -2.5,2.12106c-3.86862,-0.0744 -5.29024,1.40068 -8.20916,3.1231c-2.09728,1.23758 -4.76238,1.66337 -6.85737,2.90374c-1.0363,0.61355 -2.04114,1.37971 -3.0324,2.19593c12.88323,7.16402 20.61118,20.54538 20.59264,33.04408c-1.50407,8.9326 -7.08955,22.27879 -18.1945,26.39136c-4.65577,1.72421 -21.68635,0.30754 -27.06891,-3.4604c0.21437,1.62622 -0.18314,3.31613 -0.18314,4.96467c0,0.81644 -0.01357,1.64725 -0.03796,2.49037c0.02466,0.13296 0.03796,0.27638 0.03796,0.43109c0,0.21538 -0.02578,0.40889 -0.0721,0.58275c-0.43182,11.30358 -2.57151,24.62558 0.00522,35.15599c1.14271,4.66995 1.84179,9.30142 2.0595,14.14212c4.70057,0 9.40114,0 14.10172,0c2.0123,0 9.81533,-0.65705 11.40928,0.62124c4.05248,3.24993 3.48695,49.09806 3.48695,55.83808c-0.00685,1.269 -0.23601,2.55122 -0.02055,3.807c1.01168,5.89626 0.87527,11.41567 1.3528,17.4115c0.04212,0.52884 -0.21201,1.29396 0.32404,1.56619c0.53566,0.27204 32.27553,0.00758 32.60304,-0.14075c0,0 2.23607,-0.94856 3.3541,0.94856c1.11803,1.89713 -1.11803,2.84569 -1.11803,2.84569c-1.53917,0.62333 -35.68289,1.1092 -37.64225,-0.14075c-2.75899,-1.76006 -3.82938,-22.57158 -3.85314,-26.29579c0,-7.97088 0.81755,-47.90399 -2.02248,-52.84009c-1.1563,-2.0097 -5.23784,0.62124 -7.87374,0.62124c-4.76042,0 -9.52084,0 -14.28126,0c-0.28989,0.56372 -0.912,1.16858 -2.24704,1.16858c-1.33504,0 -1.95714,-0.60487 -2.24704,-1.16858c-1.08747,0 -2.17493,0 -3.2624,0c-2.80385,0 -5.87149,-0.31908 -8.64737,-0.01589c-4.06039,0.44349 -7.8681,1.1669 -12.01301,1.18447h-1.75185c-0.26277,0.55644 -0.52554,1.11287 -0.78831,1.6693c-2.24189,3.78209 -6.20974,6.73927 -8.27895,10.54895c-3.43016,6.31537 -4.37088,14.32539 -6.76631,20.7663c-1.86049,5.00254 -6.85489,10.32999 -9.82361,14.97569c-3.73756,5.84885 -6.22863,13.0316 -8.75672,19.45809c-1.37407,4.66205 -3.71842,13.54545 -9.70774,15.97386c-6.30925,2.55813 -35.31075,-2.79465 -43.65482,-2.76c0,0 -2.5,0 -2.5,-2.12106c0,-2.12106 2.5,-2.12106 2.5,-2.12106c6.9939,0.02504 37.17639,4.96046 41.7414,3.08291c4.18943,-1.72308 5.86077,-9.98278 6.82056,-13.2407c2.64457,-6.73923 5.28078,-14.09962 9.14894,-20.27372c2.75375,-4.39535 7.79346,-9.51475 9.45941,-14.23888c2.32854,-6.60301 3.49746,-14.85069 6.99977,-21.28038c2.09084,-3.83846 6.03969,-6.71831 8.25686,-10.50782c0.44559,-0.94676 0.89118,-1.89353 1.33677,-2.84029l3.00048,-2.14567c0,0 2.08013,-1.17655 3.46688,0.58828c0.05739,0.07304 0.10885,0.14507 0.15476,0.21606c3.59359,-0.08394 6.98259,-0.77703 10.54456,-1.14467c2.99065,-0.30868 6.24295,-0.01589 9.25829,-0.01589c0.9962,0 1.99241,0 2.98861,0c-0.19626,-15.83579 -1.72019,-31.74787 -2.00087,-47.8606c-6.2484,-0.49022 -11.33387,-2.65542 -17.46904,-4.0603c-18.70058,-4.28221 -36.49347,-5.33988 -55.06086,1.13675c-0.041,0.0087 -4.99206,1.0163 -5.17169,1.21053c-0.81997,0.88659 -0.73988,2.1652 -1.15483,3.23574c-1.17208,3.02391 -2.26799,5.83552 -3.7559,8.78744c-1.27727,2.53404 -2.88288,4.96436 -3.85079,7.5952c-0.49448,1.34403 -0.45471,2.80817 -1.00093,4.1377c-2.04141,4.96892 -6.269,8.98161 -8.99347,13.5483c2.78171,0.00229 5.6582,-0.20713 7.86344,1.93234c1.08775,1.05532 0.98955,2.68508 1.25453,4.06886c0.47761,2.49419 0.53716,7.80282 -0.05471,10.04498c-0.33942,1.28582 -1.38377,2.35939 -2.07565,3.53908c-0.72291,22.44793 -40.41192,15.87343 -26.71859,-7.27514c1.34824,-2.27919 2.95657,-4.06502 4.93443,-5.50679zM284.36869,101.73985c-2.64347,1.02519 -4.26133,4.30946 -5.0195,6.60447c-0.15104,0.4572 -0.73197,0.92081 -0.51076,1.35698c0.14742,0.29066 0.71689,-0.20545 1.08966,-0.21555c1.60696,-0.04355 3.71853,-0.89021 4.20963,-2.65561c0.33207,-1.19375 -0.22725,-2.45599 -0.10956,-3.67846c0.05038,-0.52328 0.18567,-0.98087 0.34052,-1.41182z"/><path d="M255.86851,92.71019c0.68692,0.23205 1.46168,0.7555 1.46168,1.93627c0,2.12106 -2.5,2.12106 -2.5,2.12106c-0.43261,0 -5.01799,0.00745 -5.89266,-0.01589c-0.40883,-0.01091 -1.04213,-0.39326 -1.22327,-0.0821c-0.3901,0.67009 0.06649,1.49945 -0.0341,2.24192c-0.0472,0.34841 -0.72951,0.77804 -0.40438,0.9946c1.15308,0.76802 6.50312,1.38098 7.97506,0.9609c0.56784,-0.16206 0.76136,-0.78505 1.13411,-1.18299c1.70202,-1.81704 3.98436,-5.15205 0.65689,-6.69748c-0.30389,-0.14114 -0.717,-0.22637 -1.17333,-0.27626zM248.77447,92.41867c-0.62997,-0.26298 -1.26504,-0.79322 -1.26504,-1.86226c0,-2.12106 2.5,-2.12106 2.5,-2.12106h2.75472c4.3926,0.02282 8.23925,0.31397 10.57385,4.23083c2.16412,3.63081 -1.96103,10.7132 -6.17374,12.11996c-1.10857,0.37018 -2.60459,0.49813 -4.22068,0.43228c1.69436,2.39839 3.30075,6.06309 3.99245,6.98222c0.50273,0.66801 1.39917,1.61266 2.28006,2.575c0.4205,-1.92276 1.62286,-3.96541 3.11531,-4.6203c1.07906,-0.4735 4.25193,1.47617 7.4467,3.88396l2.62839,-1.20994c0.44189,1.64652 2.16973,2.89065 2.70107,4.51802c0.14325,0.43873 0.2264,0.88835 0.26744,1.34347c1.20747,1.11226 2.08133,2.02051 2.35164,2.46874c0,0 1.11803,1.89713 -1.11803,2.84569c-0.79457,0.33707 -1.44797,0.31481 -1.9602,0.14604c-0.13643,0.31016 -0.30563,0.60711 -0.51852,0.88296c-0.67675,0.87692 -2.09214,1.15916 -2.91805,1.93868c-2.66761,2.51776 -0.49725,6.17164 -4.48714,8.47553c-1.62593,0.93887 -4.16287,1.44843 -5.85757,0.60161c-1.38499,-0.69207 -0.75655,-2.6564 -0.96147,-4.009c-0.21405,-1.41285 0.4118,-2.88314 0.04511,-4.27322c-0.13377,-0.5071 -1.89755,-3.81048 -2.32793,-4.41953c-1.52551,-2.15876 -3.20158,-0.27642 -5.46687,0.19368c-0.07585,0.01574 -0.149,0.02882 -0.21967,0.03936l-1.04393,1.77138c-0.40086,0.71743 -1.26228,1.21359 -2.26029,1.21359c-1.38071,0 -2.5,-0.94963 -2.5,-2.12106v-2.33717h0.38397c-0.0461,-0.43897 -0.01189,-0.87466 0.14552,-1.30532c0.12271,-0.33573 0.40004,-0.54887 0.764,-0.69333c-0.48555,-2.85041 -1.96022,-5.47559 -1.98217,-8.51858c0,-1.9501 -0.62477,-5.64948 1.28629,-7.46942c-1.55014,-0.50162 -2.86037,-1.14663 -3.62811,-1.8802c-0.96407,-0.92116 -0.54066,-2.45328 -0.40438,-3.67974c0.18084,-1.62739 0.14583,-3.48901 1.34326,-4.76957c0.88234,-0.9436 2.74218,-1.28112 4.73401,-1.3733zM270.5016,119.86458c-1.20917,-0.85637 -2.61545,-1.3905 -4.50693,-2.33789c-0.19535,-0.09785 -0.41349,-0.25242 -0.63798,-0.44275c0.33422,2.24605 -0.20492,5.04604 -2.57963,5.52245c0.18169,0.31327 0.35823,0.63727 0.53184,0.97002c0.96576,1.85099 1.54024,3.89879 1.5932,5.92469c0.91928,-2.32473 0.32934,-3.03965 2.47097,-5.24626c0.67429,-0.69474 1.91996,-0.87033 2.59139,-1.56707c0.8939,-0.92759 0.89679,-1.89459 0.53714,-2.82318zM254.6257,118.23766c-4.40628,-6.12671 -4.1823,-15.86628 -4.1823,-6.64676c-0.02371,2.63004 0.92674,4.95632 1.5256,7.40586c0.77472,-0.30787 1.55217,-0.60713 2.38842,-0.72427c0.09036,-0.01265 0.17978,-0.02427 0.26828,-0.03483z"/><path d="M306.04717,165.3457c0,-2.12106 2.5,-2.12106 2.5,-2.12106l3.18407,0.22392c1.07952,0.47909 2.30614,0.77201 3.23855,1.43727c0.93486,0.66701 1.36698,1.73405 2.23194,2.4658c0.81399,0.68863 1.95475,1.05864 2.75837,1.75598c7.03168,6.1017 10.66403,16.0986 7.48006,24.38813c-2.47472,6.443 -9.21857,12.31074 -15.51262,16.30749c-27.12792,11.2081 -25.9148,-26.29389 -10.74411,-35.64845c-0.41406,-2.18776 -0.63541,-4.43921 -0.57881,-6.5689c-2.1404,-3.63193 0.84902,-10.12201 -1.44224,-13.0466c-0.86627,-1.10572 -3.14087,0.21806 -4.69425,0.05717c-6.46104,-0.66918 -12.54963,-3.46027 -19.2239,-4.08447c-5.71792,-0.53476 -11.3133,0.58081 -16.97064,0.59462c0,0 -2.5,0 -2.5,-2.12106c0,-2.12106 2.5,-2.12106 2.5,-2.12106c7.03318,0.01994 40.02939,0.44754 44.50743,4.74738c3.72871,3.58034 0.22213,10.81205 2.68984,14.99938c0.04061,1.94131 0.18072,3.977 0.49045,5.97112c2.48281,-0.23707 5.30437,-0.00908 7.40662,-0.00908c0,0 2.5,0 2.5,2.12106c0,2.12106 -2.5,2.12106 -2.5,2.12106c-1.28371,0 -3.27266,-0.1889 -5.10534,-0.16844c0.01946,0.11974 0.02987,0.24773 0.02987,0.38455c0,2.12106 -2.5,2.12106 -2.5,2.12106l-2.41169,-1.01893c-8.11649,6.82305 -15.0824,37.3031 5.91812,28.06103c2.86107,-1.82531 4.69461,-3.73473 7.00116,-6.01265c1.19867,-1.18379 2.97009,-1.95424 3.93361,-3.28365c4.1151,-5.67777 4.3195,-13.4083 0.60825,-19.23469c-2.13513,-3.35201 -4.19401,-4.77493 -7.17571,-7.31243c-1.30653,-1.11189 -2.49435,-2.44401 -4.17102,-3.10843l-0.948,0.22392c0,0 -2.5,0 -2.5,-2.12106z"/></g></g></svg>