<svg version="1.1" xmlns="http://www.w3.org/2000/svg" xmlns:xlink="http://www.w3.org/1999/xlink" width="87.93598" height="262.29086" viewBox="0,0,87.93598,262.29086"><g transform="translate(-185.9507,-47.63057)"><g stroke="none" stroke-width="0.5" stroke-miterlimit="10"><path d="M236.28595,111.79366c0.84939,-1.035 1.62129,-2.21095 2.19024,-3.70989c0.8507,-2.24123 1.62414,-5.61691 2.20794,-9.34612c-0.12636,0.49395 -0.2568,0.96565 -0.38737,1.40934c-1.12972,3.839 -2.38105,7.67508 -3.7595,11.04505c-0.08329,0.20362 -0.16713,0.40391 -0.25131,0.60162zM241.69248,88.9472c0.13217,-2.75776 0.11147,-5.34938 -0.1062,-7.46825c-1.81969,-23.02758 -10.42031,-24.76473 -18.89682,-28.85303c-2.29347,1.15817 -0.73464,10.45441 -3.20982,13.38763c-2.11587,2.50742 -4.95847,-1.58604 -7.15496,2.0067c-2.20023,3.59886 -3.30216,15.66742 -4.94171,20.98601c-2.8247,4.91759 -7.7318,1.36576 -10.22461,6.69452c-2.53986,5.42931 -0.07412,22.28933 0.96525,28.32814c3.29918,12.56129 -2.03585,11.85656 -5.20186,18.58057c-1.00027,2.12438 -0.46942,5.05383 -1.40169,7.19883c-0.93052,2.14099 -2.17507,0.50765 -2.93374,2.96554c-1.03335,3.34778 -0.20243,10.0137 0.29773,13.56383c1.44781,4.89306 6.95131,13.4069 9.69604,13.32034c1.62554,-0.05126 2.62269,-2.48927 3.94405,-4.13919c2.18928,-2.73365 3.56557,0.06291 2.78352,-7.00612c0.25261,-4.07873 1.05935,-6.8097 1.57357,-10.38605c-0.4044,-0.77276 -0.76572,-1.97232 -1.05945,-3.74361c-0.76495,-4.61293 0.01979,-10.26138 1.44083,-14.5335c0.33633,-1.70185 0.70588,-3.07098 1.06661,-3.76178c0.57365,-1.09853 1.22791,-1.66283 1.91655,-1.85843c1.40842,-1.38098 2.87393,-1.14805 3.99585,1.75679c0.99436,0.92877 1.86364,1.98079 2.44378,2.56824c0.38149,-0.28546 0.70372,-0.62408 0.97796,-1.00517c0.6436,-3.23937 1.83327,-7.03975 2.06641,-9.98735c0.1847,-2.33509 -2.40581,-10.16961 -2.78993,-12.84814c-0.96095,-6.7009 -0.32552,-21.14023 0.44338,-27.97421c0.88011,-3.04613 4.22949,-12.04156 5.79859,-12.85864c2.73655,-1.42501 4.68919,5.6593 6.89791,7.83457c3.49956,3.44655 6.44605,1.57093 10.10279,2.1539c0.4018,1.07696 0.91059,1.98414 1.20541,3.23088c0.14069,0.59493 0.24026,1.21345 0.30457,1.847zM231.6545,117.11002l0.0095,-0.73423c0.90394,-3.41832 2.11081,-5.72602 3.28707,-8.60144c1.0724,-2.62152 1.93711,-5.52786 2.86424,-8.42207c1.03266,-3.22366 2.30936,-6.9501 1.41244,-10.99138c-4.05488,1.61109 -8.81613,1.38744 -12.26956,-4.70143c-0.73659,-1.29872 -1.99929,-5.59045 -3.22991,-4.93929c-0.86287,0.45657 -3.78294,8.06945 -4.35771,10.04208c-0.60156,5.85577 -1.19049,18.77887 -0.36913,24.37031c0.46925,3.19439 2.0326,7.7054 2.649,11.58854c0.34513,-0.29734 0.75042,-0.53471 1.22925,-0.69946c1.25487,-0.43176 4.74439,-1.08637 5.82862,0.17157c2.69327,3.12478 0.61014,7.0298 1.97743,10.72944c1.10761,2.99699 2.86522,1.94197 4.44405,2.05073c2.90907,4.46221 13.1024,2.53323 9.69613,20.50038c-2.45936,12.97245 -10.61185,1.3523 -11.72186,3.48637c1.46951,4.42702 20.66664,28.22246 22.81449,29.21083c0.43501,1.35969 0.68422,2.73467 1.38792,3.36405c0.43042,0.38496 0.93669,0.30027 1.33814,0.82541c0.38184,0.49949 0.55041,1.64246 0.93177,2.14387c0.37062,0.48729 0.87467,0.2157 1.24236,0.71462c0.7567,1.02677 1.09339,3.3154 1.86355,4.28773c0.37423,0.47247 0.87336,0.22088 1.24236,0.71463c0.80351,1.07513 1.27104,3.26507 2.10576,4.20589c0.43652,0.492 0.99852,0.30234 1.40131,0.92843c0.36721,0.57079 0.46974,1.75187 0.7846,2.46937c0.91192,2.07808 2.18258,3.59118 3.08489,5.66726c1.60284,3.68789 4.07092,10.65062 1.41056,15.24526c-0.22775,0.39334 -0.50167,0.57558 -0.78642,0.70833c0.00525,0.27558 -0.00622,0.46018 -0.00622,0.46018c-1.31995,20.41338 -10.0089,37.00631 -17.67533,44.0488c-10.42745,14.1323 -22.68735,15.98208 -34.64684,15.98208c-5.78914,0 -18.06942,-6.30607 -22.9682,-13.28599c-1.87989,-2.67852 -2.74209,-9.73067 -4.00949,-13.49649c-2.60991,-9.03448 -6.13535,-38.69649 -4.49208,-49.3996c1.02378,-6.66815 3.28057,-12.92644 5.47057,-17.94535c1.41563,-4.93954 3.0213,-9.35391 4.84857,-13.15695c-3.65905,-0.26484 -9.66093,-9.62405 -11.51444,-16.11807c-0.78488,-5.30596 -1.69366,-13.67192 -0.10852,-18.68414c0.97155,-3.07204 2.38511,-1.79453 3.16004,-3.57752c0.60382,-1.3893 0.51588,-5.24831 1.44208,-7.28938c2.63411,-5.80485 7.02365,-3.96469 4.75132,-12.73267c-1.49712,-8.53873 -3.89838,-26.7547 -0.45664,-34.29834c2.67629,-5.86595 7.44329,-1.36971 10.08799,-6.39161c1.80602,-6.0541 2.68453,-17.16688 5.2146,-21.54392c2.55187,-4.41477 5.04133,-0.86766 7.67325,-2.66692c0.95344,-0.6518 -0.07068,-11.06476 3.89959,-13.71936c9.53823,3.55414 19.12211,7.5686 21.11902,32.83873c0.86479,8.80688 -0.92793,23.97807 -3.59307,30.88068c-1.59918,4.1418 -4.24942,5.91821 -6.37986,8.66544c-0.07667,0.71607 -0.29543,1.56157 -0.89076,1.75725c-0.16867,0.05544 -0.31466,0.04133 -0.44096,-0.02187c-0.31434,0.18419 -0.75581,0.14705 -1.11067,-1.01934c-0.6231,-2.04808 0.26704,-3.48174 0.26704,-3.48174c0.02912,-0.0469 0.0585,-0.09346 0.08814,-0.1397zM207.47725,168.22886c0.18087,1.39724 0.62334,4.41337 0.49407,5.72459c2.82408,-1.16893 5.26615,-2.74393 5.26615,-12.02485c1.21015,-11.13744 -1.55935,-3.96525 -4.20225,-2.76859c-0.29365,2.90972 -1.32314,5.94213 -1.55797,9.06885zM269.76993,231.17016c-0.01299,-0.20163 -0.01299,-0.33233 -0.01299,-0.33233l0.82303,-3.8546c2.77637,-1.05001 -0.70792,-7.38563 -1.6677,-9.21912c-0.34565,-0.6603 -0.61427,-1.51441 -0.95482,-2.18859c-0.4193,-0.83008 -0.93071,-1.40984 -1.31978,-2.31446c-0.21414,-0.49788 -0.20298,-1.43497 -0.45776,-1.81836c-0.30828,-0.4639 -0.75521,-0.11608 -1.08343,-0.50082c-0.8728,-1.02309 -1.38769,-3.26909 -2.24251,-4.36958c-0.37252,-0.47958 -0.87467,-0.2157 -1.24236,-0.71462c-0.7567,-1.02677 -1.09339,-3.3154 -1.86355,-4.28773c-0.37423,-0.47247 -0.87174,-0.22734 -1.24236,-0.71462c-0.38137,-0.50141 -0.55092,-1.64037 -0.93177,-2.14387c-0.33996,-0.44944 -0.79048,-0.22636 -1.14659,-0.60384c-0.71985,-0.76307 -1.32354,-2.20046 -1.71799,-3.78217c-0.81278,-0.37401 -20.18103,-23.05974 -21.73781,-25.72093c-1.16076,-1.98422 -1.52023,-5.09589 -2.03639,-7.95503c2.83761,-9.97307 10.19223,4.3608 11.88308,-5.0891c2.18654,-12.22027 -6.21317,-10.57266 -8.31816,-13.8015c-6.90908,0.79907 -6.30592,-12.78333 -6.62336,-12.94624c-1.25248,-0.64275 -3.40933,-0.09303 -4.73149,0.17157c-2.45758,0.49182 -1.39469,8.46528 -3.88994,12.50285c-1.12313,2.68214 -2.11492,2.94334 -3.05408,2.20872c-0.60994,0.11799 -1.3015,0.13096 -2.0874,0.01842c-2.45673,-7.15473 -4.48109,-5.21607 -5.50247,-0.0798c-0.40675,3.00504 -0.03688,6.49266 0.24804,9.64075c1.60258,-0.40311 5.414,-3.81689 6.53544,-1.38432c0.84758,1.83854 0.24432,8.39565 -0.00049,10.6487c0,17.904 -6.77721,12.89122 -11.41376,19.02098c-3.59184,4.7486 -6.32649,11.28985 -8.70221,19.4189c-2.05812,4.7534 -4.00482,10.2368 -5.08953,16.35654c-1.49044,8.40883 2.07542,37.60876 4.20448,44.93059c0.92458,2.90928 2.01103,10.58758 3.4447,12.22992c4.06498,4.65664 7.16933,5.0311 11.51273,7.54534c1.2405,0.71807 2.3922,3.28857 3.52908,4.38205c1.77543,1.70763 4.83581,0.51304 6.71718,0.51304c11.5156,0 23.70982,-1.40702 33.68119,-15.46132c6.95201,-6.4081 15.37709,-21.44508 16.48971,-40.27667c0,0 0.00062,-0.01003 0.00207,-0.02874z" fill="#000000"/><path d="M269.7889,231.21144c-1.11262,18.83159 -9.54499,33.89476 -16.497,40.30286c-9.97138,14.0543 -22.18604,15.47014 -33.70164,15.47014c-1.88136,0 -4.94511,1.19132 -6.72055,-0.5163c-1.13689,-1.09347 -2.29054,-3.66661 -3.53103,-4.38469c-4.3434,-2.51423 -7.45205,-2.89734 -11.51703,-7.55398c-1.43367,-1.64234 -2.52202,-9.32642 -3.4466,-12.2357c-2.12906,-7.32183 -5.69832,-36.54399 -4.20788,-44.95282c1.08471,-6.11974 3.03138,-11.61241 5.0895,-16.3658c2.37572,-8.12905 5.11205,-14.68575 8.70389,-19.43435c4.63655,-6.12976 11.4204,-1.13677 11.4204,-19.04077c0.24481,-2.25305 0.87299,-8.72838 0.02541,-10.56692c-1.12144,-2.43257 -4.92972,0.97568 -6.53231,1.37879c-0.28493,-3.14809 -0.683,-6.7117 -0.27625,-9.71673c1.02139,-5.13627 3.04812,-7.07869 5.50485,0.07604c0.7859,0.11255 1.47855,0.09818 2.08848,-0.01981c0.93916,0.73462 1.93296,0.47131 3.05609,-2.21083c2.49526,-4.03758 1.4357,-12.01339 3.89328,-12.50521c1.32215,-0.2646 3.4819,-0.81533 4.73438,-0.17258c0.31744,0.1629 -0.2811,13.74556 6.62798,12.94649c2.10499,3.22884 10.51207,1.58666 8.32553,13.80692c-1.69085,9.4499 -9.05587,-4.78981 -11.89348,5.18326c0.51616,2.85914 0.87866,5.87124 2.03942,7.85546c1.55678,2.66118 20.94332,25.38452 21.75609,25.75854c0.39445,1.58172 0.99847,3.02288 1.71833,3.78595c0.3561,0.37748 0.80669,0.15521 1.14664,0.60465c0.38085,0.5035 0.55051,1.64433 0.93188,2.14574c0.37062,0.48729 0.86817,0.24292 1.2424,0.71539c0.77016,0.97233 1.10694,3.26425 1.86364,4.29102c0.36769,0.49892 0.86985,0.23558 1.24237,0.71516c0.85483,1.10049 1.3697,3.34931 2.2425,4.3724c0.32822,0.38474 0.77514,0.03717 1.08342,0.50107c0.25478,0.3834 0.2436,1.32155 0.45774,1.81943c0.38908,0.90463 0.90045,1.48561 1.31975,2.31569c0.34055,0.67418 0.60912,1.52941 0.95478,2.18971c0.95978,1.83349 4.44375,8.17372 1.66738,9.22373l-0.82325,3.85679c0,0 -0.00002,0.13086 0.01297,0.33249c-0.00145,0.01871 -0.00207,0.02876 -0.00207,0.02876z" fill="#ffb6cc"/><path d="M241.36829,87.12173c-0.29482,-1.24674 -0.80299,-2.15117 -1.20479,-3.22813c-3.65674,-0.58297 -6.59969,1.3035 -10.09925,-2.14305c-2.20872,-2.17527 -4.1548,-9.24911 -6.89135,-7.8241c-1.5691,0.81708 -4.91367,9.81601 -5.79378,12.86214c-0.7689,6.83399 -1.37948,21.20943 -0.41853,27.91033c0.38412,2.67853 2.96896,10.56379 2.78427,12.89888c-0.23314,2.94761 -1.4318,6.76 -2.07539,9.99937c-0.27425,0.38109 -0.59874,0.72094 -0.98024,1.0064c-0.58014,-0.58745 -1.455,-1.63884 -2.44936,-2.56761c-1.12192,-2.90484 -2.59682,-3.14466 -4.00524,-1.76368c-0.68865,0.1956 -1.34494,0.75673 -1.91859,1.85526c-0.36074,0.6908 -0.70413,1.98005 -1.04047,3.6819c-1.42104,4.27212 -2.20831,9.91683 -1.44336,14.52976c0.29373,1.7713 0.65338,2.96895 1.05778,3.74171c-0.51422,3.57636 -1.32128,6.30702 -1.57388,10.38575c0.78205,7.06903 -0.61212,4.36358 -2.8014,7.09723c-1.32136,1.64993 -2.32017,4.08589 -3.94571,4.13715c-2.74473,0.08656 -8.25382,-8.4382 -9.70162,-13.33126c-0.50016,-3.55012 -1.33302,-10.22229 -0.29968,-13.57007c0.75867,-2.45789 2.00339,-0.82391 2.93391,-2.9649c0.93227,-2.14501 0.40059,-5.07779 1.40086,-7.20217c3.16601,-6.72401 8.49901,-6.03245 5.19983,-18.59374c-1.03936,-6.03881 -3.50325,-22.93117 -0.96339,-28.36048c2.49282,-5.32876 7.40763,-1.79669 10.23234,-6.71428c1.63955,-5.31858 2.75051,-17.39465 4.95074,-20.99351c2.19648,-3.59274 5.04621,0.5014 7.16209,-2.00603c2.47518,-2.93322 0.91779,-12.22865 3.21126,-13.38682c8.47651,4.0883 17.09017,5.84898 18.90986,28.87656c0.21768,2.11887 0.23933,4.71489 0.10716,7.47265c-0.06431,-0.63355 -0.20337,-1.21033 -0.34406,-1.80526z" fill="#feff00"/><path d="M243.21563,166.86702c-0.04479,0.10306 -0.08958,0.1941 -0.13422,0.27418c-0.16394,2.46469 -0.41466,4.79479 -0.78609,6.27722c-2.85802,11.40677 -13.92631,-1.96388 -16.0135,-9.41659c-0.37382,-0.67246 -0.93592,-1.01251 -1.12145,-2.01737c-0.26974,-1.46095 -0.10444,-3.16641 -0.12857,-4.75276c-0.05967,-3.92244 0.11031,-8.19873 1.91311,-10.17055c0.70719,-0.77349 3.98324,-0.4949 4.70314,-0.12342c0.12541,0.06471 2.73125,3.0366 2.87041,3.26351c0.63966,1.04296 0.92839,2.61904 1.6678,3.31493c0.42742,0.40227 0.93669,0.30027 1.33814,0.82541c0.38185,0.49949 0.55041,1.64246 0.93177,2.14387c0.37062,0.48729 0.87709,0.20643 1.24236,0.71462c0.1132,0.15749 0.22072,0.3342 0.32364,0.52538c0.46477,-0.27361 0.89504,0.38638 0.89504,0.38638c0.09056,0.1433 0.17969,0.29193 0.26734,0.44552c0.01434,-0.47204 0.13126,-2.39641 1.08455,-2.39641c1.08656,0 1.08656,2.5 1.08656,2.5c0,1.05505 -0.01735,2.40602 -0.06036,3.87853l0.05271,0.07069c0,0 0.62145,1.42985 0.18763,3.0036c-0.03893,0.40126 -0.13485,0.82726 -0.32,1.25326zM240.87485,166.20812c-0.23245,-0.0318 -0.45845,-0.12453 -0.67141,-0.34063c-0.55892,-0.56717 -0.9509,-3.55845 -1.5756,-4.31642c-0.37758,-0.45813 -0.87174,-0.22734 -1.24236,-0.71462c-0.38137,-0.50141 -0.55092,-1.64037 -0.93177,-2.14387c-0.73649,-0.97367 -1.66717,-1.15718 -2.32766,-2.38601c-0.87367,-1.62546 -1.79813,-3.9076 -2.97728,-4.50259c-0.82892,-0.41827 -1.69775,0.14487 -2.54568,0.06688c-0.27667,-0.02545 -0.56206,-0.3788 -0.82656,-0.1903c-0.81028,0.57747 -0.54344,4.39401 -0.57162,5.55115c-0.01954,0.80263 -0.26832,1.65668 -0.12857,2.39347c0.1103,0.5815 0.49473,0.56075 0.7421,0.84112c2.34615,7.87518 6.04157,11.38778 10.10239,11.41635c0.24657,0.00173 2.325,0.22796 2.45851,-0.82351c0.19629,-1.54587 0.3645,-3.17977 0.49551,-4.85101z" fill="#1e0000"/><path d="M240.39773,171.08574c-0.13352,1.05147 -2.21579,0.83576 -2.46236,0.83403c-4.06082,-0.02857 -7.79243,-3.58288 -10.13858,-11.45806c-0.24737,-0.28037 -0.63169,-0.26175 -0.74199,-0.84324c-0.13975,-0.73678 0.1097,-1.59814 0.12924,-2.40078c0.02817,-1.15714 -0.23552,-4.9886 0.57475,-5.56607c0.2645,-0.1885 0.55067,0.16246 0.82734,0.18791c0.84794,0.07799 1.72189,-0.49578 2.5508,-0.07752c1.17914,0.59499 2.11699,2.86922 2.99067,4.49468c0.66049,1.22883 1.60877,1.43865 2.34526,2.41232c0.38085,0.5035 0.55282,1.66018 0.93419,2.16159c0.37062,0.48729 0.86493,0.26134 1.24251,0.71947c0.6247,0.75797 1.01585,3.76397 1.57477,4.33114c0.21295,0.21609 0.43899,0.30855 0.67144,0.34035c-0.13101,1.67124 -0.30175,3.31832 -0.49805,4.86419z" fill="#ffffff"/><path d="M210.67688,158.39761c-0.30353,-0.19046 -0.60706,-0.38093 -0.91058,-0.57139l-0.0474,0.41687c-0.44017,1.5601 -0.88203,3.11781 -1.33197,4.6631c-0.43553,1.4958 -1.07566,2.63743 -1.51151,4.13273c-0.29184,1.00124 -0.22935,3.86941 0.40206,4.3194c0.2645,0.1885 0.54983,-0.16817 0.82656,-0.1903c0.82647,-0.0661 1.68937,0.66164 2.48045,0.10727c0.31597,-0.22142 0.50165,-1.03343 0.80707,-1.3228c1.40543,-1.33156 3.58735,-1.66152 5.09417,-1.53569c1.2811,-1.96508 2.68065,-2.6793 4.1278,-4.07051c2.02812,-1.94972 -1.31896,-7.44846 -3.20833,-5.03737c-0.71492,0.91232 -0.67555,3.97623 -1.45516,4.54232c-1.69912,1.23375 -3.95491,-1.9881 -5.2178,-5.42574c-0.03532,-0.0153 -0.05537,-0.02789 -0.05537,-0.02789zM209.29936,151.94785c0.33269,0.19137 0.53413,0.56393 0.65403,0.98425l0.03144,-0.01048c0.12025,-0.41603 0.32109,-0.78399 0.65102,-0.97377c1.05412,-0.60634 1.31765,1.81902 1.31765,1.81902c0.80785,11.30813 6.33575,-2.80231 9.30061,0.44051c2.50291,2.73754 2.59575,11.14863 0.43013,14.48992c-1.44765,2.23354 -3.14174,2.31606 -4.56875,4.50497c-0.8962,0.0557 -1.77723,0.54731 -2.66684,0.80316c-1.06166,0.30534 -1.22832,-0.46013 -2.17792,0.51964c-0.38008,0.39216 -0.65465,1.28311 -1.05648,1.53569c-0.2074,0.13037 -2.89922,0.11977 -3.11019,0.10727c-0.55323,-0.03279 -1.15836,0.35637 -1.65817,-0.1903c-1.86802,-2.04314 -2.35588,-7.44457 -1.46149,-11.40229c0.23083,-1.02143 0.71843,-1.60936 1.03701,-2.49709c0.63797,-1.77768 1.13872,-3.95693 1.71016,-5.85802l0.25015,-2.45345c0,0 0.26353,-2.42536 1.31765,-1.81902z" fill="#1e0000"/><path d="M210.71557,158.39346c1.26289,3.43765 3.55676,6.68281 5.25588,5.44906c0.77961,-0.56609 0.73684,-3.64933 1.45175,-4.56165c1.88937,-2.41109 5.24019,3.11469 3.21207,5.06441c-1.44715,1.39121 -2.85022,2.13373 -4.13132,4.09881c-1.50681,-0.12583 -3.72317,0.21009 -5.1286,1.54166c-0.30542,0.28937 -0.49144,1.10047 -0.80742,1.32189c-0.79109,0.55437 -1.657,-0.184 -2.48346,-0.1179c-0.27673,0.02213 -0.56241,0.37703 -0.82691,0.18853c-0.63141,-0.44999 -0.69547,-3.33088 -0.40363,-4.33213c0.43585,-1.4953 1.07595,-2.65089 1.51147,-4.14669c0.44993,-1.54529 0.89514,-3.12365 1.33532,-4.68375l0.04782,-0.41829c0.30353,0.19046 0.60805,0.37793 0.91157,0.5684c0,0 0.02014,0.01235 0.05546,0.02765z" fill="#ffffff"/><path d="M219.42315,126.30822c0,-0.48244 0.04046,-0.87179 0.10577,-1.186c-0.6437,-0.98144 -1.72349,-2.66002 -1.82275,-3.15664c-0.6855,-3.42963 0.05299,-9.27437 -0.12043,-13.02277c-0.07703,-1.66496 -0.69529,-2.97216 -0.89329,-4.58336c-0.36048,-2.93327 -0.35164,-7.2541 -0.34907,-10.32001c0.684,-6.16703 1.91855,-5.99815 3.34899,-9.86875c0.60411,-1.63465 0.93634,-7.45522 1.69943,-8.91009c0.4997,-0.95269 1.28389,-0.46137 1.93123,-0.56664c5.2789,-0.85852 3.66578,6.4809 6.87505,8.71079c2.99172,2.07873 6.19231,1.1885 9.27998,1.4012c6.61587,11.09998 -5.17372,30.43361 -8.81571,40.71747c0.04676,0.28229 0.07459,0.61837 0.07459,1.01848c0,2.5 -1.08656,2.5 -1.08656,2.5c-2.78076,0 -5.55081,-0.23368 -8.32817,-0.23368h-0.81251c0,0 -1.08656,0 -1.08656,-2.5zM239.02801,96.73063c0.10178,-1.30633 0.2316,-6.83122 -0.17969,-7.13922c-3.01703,0.34893 -6.46554,0.90892 -9.3555,-1.45729c-0.77935,-0.63811 -5.46385,-13.78037 -6.72329,-9.0068c-0.54728,2.07432 -0.65292,6.23088 -1.40648,8.24086c-1.34085,3.57641 -2.3088,2.00166 -2.86283,7.28219c0.00244,1.97461 0.22462,3.91578 0.31345,5.8798c0.03572,0.78983 -0.13738,1.61765 -0.04133,2.38037c0.23638,1.87713 0.85416,3.48537 0.97026,5.42136c0.16238,2.70792 0.07517,6.14294 0.00814,8.88093c-0.01965,0.80262 -0.24478,1.63534 -0.12857,2.39347c0.06881,0.44888 0.39632,0.29487 0.5765,0.52876c0.32511,0.42205 0.62118,0.95283 0.93177,1.42925l0.48294,2.24475c2.27451,0.01291 4.54411,0.17161 6.81938,0.21935c2.31826,-7.46803 10.02997,-20.0422 10.59527,-27.29778z" fill="#1e0000"/><path d="M228.4319,124.07837c-2.27526,-0.04774 -4.55682,-0.21599 -6.83134,-0.2289l-0.48434,-2.2473c-0.31059,-0.47642 -0.60814,-1.0104 -0.93324,-1.43244c-0.18017,-0.2339 -0.50837,-0.08159 -0.57718,-0.53047c-0.11621,-0.75813 0.10808,-1.59319 0.12773,-2.39582c0.06703,-2.73799 0.1509,-6.18718 -0.01148,-8.89509c-0.1161,-1.93599 -0.73502,-3.55668 -0.97139,-5.43382c-0.09605,-0.76272 0.07699,-1.59569 0.04127,-2.38552c-0.08883,-1.96402 -0.31026,-3.91707 -0.3127,-5.89169c0.55403,-5.28053 1.52599,-3.72394 2.86683,-7.30035c0.75357,-2.00998 0.86454,-6.17756 1.41182,-8.25188c1.25944,-4.77357 5.95818,8.36127 6.73753,8.99938c2.88996,2.36621 6.35533,1.83363 9.37236,1.48469c0.41129,0.308 0.28338,5.84608 0.1816,7.15241c-0.5653,7.25558 -8.29922,19.88877 -10.61747,27.3568z" fill="#ffefe4"/><path d="M226.58475,289.43689c0,-1.9215 0.64188,-2.36613 0.93894,-2.46902c0.00458,-0.05501 0.00922,-0.11005 0.01393,-0.16514l-0.0211,-0.93895c0,0 0,-2.5 1.08656,-2.5c1.08656,0 1.08656,2.5 1.08656,2.5l-0.00968,0.88112c0.84187,-0.13392 1.67467,-0.29728 2.52005,-0.3476c0.31839,-0.36577 0.61711,-0.23456 0.83797,-0.00794c0.10939,0.00503 0.21911,0.01266 0.3292,0.02321l1.28428,2.6858c0,0 0.75259,1.73159 0.02322,3.48099c-0.01048,0.38519 -0.02023,0.76948 -0.01557,1.14527c0.03468,2.79863 0.08578,5.78333 0,8.57547c-0.05301,1.7254 0.23085,3.8214 -0.24627,5.15809c-0.47815,1.33955 -1.43101,1.08818 -2.15486,1.56874c-1.47978,0.98243 -3.51266,1.95638 -4.55769,-1.76262c-0.58415,-2.07887 -0.49222,-5.43495 -0.49434,-7.8227c-0.00233,-2.63384 -0.01422,-5.15411 0.05859,-7.68398c-0.30849,-0.25223 -0.67977,-0.85936 -0.67977,-2.32073zM229.37905,293.72462v5.71698c-0.00106,1.09638 -0.0578,3.93254 0.12684,5.0405c0.23415,1.40501 2.07999,-0.28351 2.27532,-0.33337c0.31572,-0.08059 0.74158,0.68896 0.95105,0.1395c0.1975,-0.51805 -0.2115,-1.3037 -0.24627,-1.98814c-0.17843,-3.5115 0.57793,-8.43489 -0.3438,-11.16885c-0.93417,0.23982 -1.81884,0.49043 -2.72899,0.6472c-0.02264,0.64798 -0.03478,1.29723 -0.03415,1.94618z" fill="#1e0000"/><path d="M229.40192,291.73571c0.91015,-0.15677 1.81331,-0.41181 2.74749,-0.65162c0.92173,2.73396 0.17139,7.74416 0.34982,11.25565c0.03478,0.68444 0.4419,1.47307 0.2444,1.99111c-0.20948,0.54946 -0.64109,-0.2144 -0.95682,-0.13381c-0.19533,0.04986 -2.05747,1.7336 -2.29162,0.32859c-0.18465,-1.10796 -0.13774,-3.97125 -0.13668,-5.06764l0.00602,-5.7706c-0.00063,-0.64895 0.01474,-1.30371 0.03738,-1.95168z" fill="#ff2e6d"/><path d="M220.78748,289.02599c0.20777,-0.02625 0.44576,0.1113 0.70275,0.55477c0.86925,1.5 0.21731,3.5 0.21731,3.5c-1.19827,3.34339 -1.46003,10.39168 -3.46246,12.85277c-8.17538,10.04799 -12.74321,-17.76672 -2.17272,-22.55759c1.81479,0.00804 3.38634,0.07439 4.46909,4.11458c0.12548,0.4682 0.19463,0.99293 0.24602,1.53547zM219.15678,294.18067c-0.33681,-0.74022 -0.33681,-1.88529 -0.33681,-1.88529l0.03244,-0.10828c-0.33798,-3.73635 -1.00268,-3.84572 -2.56591,-3.83549c-5.89125,2.7594 -5.1114,18.98079 0.93319,13.17355c0.79539,-0.76416 1.41331,-4.3 1.9371,-7.34449z" fill="#1e0000"/><path d="M217.23065,301.56833c-6.04459,5.80724 -6.83144,-10.50648 -0.94019,-13.26588c1.56323,-0.01024 2.24367,0.12718 2.58165,3.86353l-0.03237,0.10867c0,0 0.00163,1.15724 0.33845,1.89746c-0.52379,3.04448 -1.15215,6.63207 -1.94754,7.39622z" fill="#ff2e6d"/><path d="M222.67316,95.46235c0,-1.38071 0.48647,-2.5 1.08656,-2.5c0.60009,0 1.08656,1.11929 1.08656,2.5c0,1.38071 -0.48647,2.5 -1.08656,2.5c-0.60009,0 -1.08656,-1.11929 -1.08656,-2.5z" fill="#000000"/><path d="M229.27476,98.96756c0,-1.38071 0.48647,-2.5 1.08656,-2.5c0.60009,0 1.08656,1.11929 1.08656,2.5c0,1.38071 -0.48647,2.5 -1.08656,2.5c-0.60009,0 -1.08656,-1.11929 -1.08656,-2.5z" fill="#000000"/><path d="M222.70154,106.08111c0.86925,-1.5 1.52118,0.5 1.52118,0.5l0.2839,0.87299c0.23557,0.69107 1.59649,5.26903 2.21728,2.48174c0.13358,-0.59975 0.0972,-1.32913 0.1458,-1.9937c0,0 0.26353,-2.42536 1.31765,-1.81902c1.05412,0.60634 0.79059,3.0317 0.79059,3.0317c-0.15453,1.20488 -0.13383,2.61338 -0.46358,3.61464c-1.90013,5.76963 -4.27139,1.86672 -5.70464,-2.19188l-0.32548,-0.99646c0,0 -0.65193,-2 0.21731,-3.5z" fill="#000000"/></g></g></svg>