<svg version="1.1" xmlns="http://www.w3.org/2000/svg" xmlns:xlink="http://www.w3.org/1999/xlink" width="86.70597" height="262.29086" viewBox="0,0,86.70597,262.29086"><g transform="translate(-164.42548,-47.01556)"><g stroke="none" stroke-width="0.5" stroke-miterlimit="10"><path d="M201.25247,110.57703c-1.35917,-3.36997 -2.593,-7.20605 -3.70691,-11.04505c-0.12874,-0.44369 -0.25735,-0.91539 -0.38195,-1.40934c0.57563,3.72921 1.33826,7.10489 2.17706,9.34612c0.56099,1.49894 1.32209,2.67489 2.1596,3.70989c-0.083,-0.19771 -0.16567,-0.398 -0.2478,-0.60162zM196.16937,88.33221c0.06341,-0.63355 0.16159,-1.25207 0.30031,-1.847c0.2907,-1.24674 0.79236,-2.15392 1.18855,-3.23088c3.60559,-0.58297 6.51087,1.29265 9.96148,-2.1539c2.17783,-2.17527 4.10315,-9.25958 6.80143,-7.83457c1.54715,0.81708 4.84968,9.81251 5.71748,12.85864c0.75814,6.83398 1.38469,21.27331 0.43718,27.97421c-0.37875,2.67853 -2.93302,10.51305 -2.7509,12.84814c0.22988,2.9476 1.40291,6.74798 2.03751,9.98735c0.27041,0.38109 0.58812,0.71971 0.96428,1.00517c0.57202,-0.58745 1.42915,-1.63947 2.4096,-2.56824c1.10623,-2.90484 2.55124,-3.13777 3.93996,-1.75679c0.67901,0.1956 1.32411,0.7599 1.88974,1.85843c0.35569,0.6908 0.72006,2.05993 1.05169,3.76178c1.40116,4.27212 2.17492,9.92057 1.42067,14.5335c-0.28962,1.77129 -0.64588,2.97085 -1.04463,3.74361c0.50704,3.57635 1.30249,6.30732 1.55156,10.38605c-0.77111,7.06903 0.58593,4.27247 2.74458,7.00612c1.30287,1.64992 2.28608,4.08793 3.88888,4.13919c2.70634,0.08656 8.13286,-8.42728 9.56041,-13.32034c0.49316,-3.55013 1.31246,-10.21605 0.29357,-13.56383c-0.74806,-2.45789 -1.9752,-0.82455 -2.89271,-2.96554c-0.91923,-2.145 -0.3958,-5.07445 -1.38208,-7.19883c-3.12172,-6.72401 -8.38213,-6.01928 -5.1291,-18.58057c1.02482,-6.03881 3.45607,-22.89883 0.95174,-28.32814c-2.45795,-5.32876 -7.2964,-1.77693 -10.0816,-6.69452c-1.61662,-5.31859 -2.70314,-17.38715 -4.87259,-20.98601c-2.16576,-3.59274 -4.96861,0.50072 -7.05488,-2.0067c-2.44056,-2.93322 -0.90353,-12.22946 -3.16492,-13.38763c-8.35795,4.0883 -16.83826,5.82545 -18.6325,28.85303c-0.21463,2.11887 -0.23504,4.71049 -0.10472,7.46825zM206.06694,116.49501c0.02922,0.04624 0.0582,0.0928 0.08691,0.1397c0,0 0.87769,1.43366 0.26331,3.48174c-0.34989,1.16639 -0.78519,1.20353 -1.09513,1.01934c-0.12453,0.0632 -0.26848,0.07731 -0.43479,0.02187c-0.587,-0.19568 -0.8027,-1.04118 -0.8783,-1.75725c-2.10064,-2.74723 -4.71382,-4.52364 -6.29062,-8.66544c-2.62786,-6.90261 -4.39551,-22.0738 -3.54281,-30.88068c1.96897,-25.27013 11.4188,-29.28459 20.82361,-32.83873c3.91474,2.6546 2.90494,13.06756 3.84505,13.71936c2.5951,1.79926 5.04974,-1.74785 7.56592,2.66692c2.49467,4.37704 3.36089,15.48982 5.14166,21.54392c2.60771,5.0219 7.30803,0.52566 9.94689,6.39161c3.39359,7.54364 1.02593,25.75961 -0.45025,34.29834c-2.24055,8.76798 2.0876,6.92782 4.68486,12.73267c0.91324,2.04107 0.82653,5.90008 1.42191,7.28938c0.76409,1.78299 2.15788,0.50548 3.11584,3.57752c1.56298,5.01222 0.6669,13.37818 -0.107,18.68414c-1.82758,6.49402 -7.74551,15.85323 -11.35338,16.11807c1.80171,3.80304 3.38492,8.21741 4.78075,13.15695c2.15937,5.01891 4.38459,11.2772 5.39405,17.94535c1.62029,10.70311 -1.85585,40.36512 -4.42925,49.3996c-1.24968,3.76582 -2.09982,10.81797 -3.95341,13.49649c-4.83026,6.97992 -16.93877,13.28599 -22.64693,13.28599c-11.7922,0 -23.88062,-1.84978 -34.16222,-15.98208c-7.55919,-7.04249 -16.12661,-23.63542 -17.4281,-44.0488c0,0 -0.0113,-0.1846 -0.00613,-0.46018c-0.28077,-0.13275 -0.55086,-0.31499 -0.77542,-0.70833c-2.62316,-4.59464 -0.1896,-11.55737 1.39082,-15.24526c0.88969,-2.07608 2.14258,-3.58918 3.04174,-5.66726c0.31045,-0.7175 0.41156,-1.89858 0.77363,-2.46937c0.39715,-0.62609 0.95129,-0.43643 1.38171,-0.92843c0.82305,-0.94082 1.28404,-3.13076 2.07631,-4.20589c0.36384,-0.49375 0.85599,-0.24216 1.22499,-0.71463c0.75938,-0.97233 1.09137,-3.26096 1.83748,-4.28773c0.36255,-0.49892 0.85955,-0.22733 1.22499,-0.71462c0.37603,-0.50141 0.54224,-1.64438 0.91874,-2.14387c0.39584,-0.52514 0.89502,-0.44045 1.31942,-0.82541c0.69386,-0.62938 0.93959,-2.00436 1.36851,-3.36405c2.11781,-0.98837 21.04642,-24.78381 22.49537,-29.21083c-1.09448,-2.13407 -9.13294,9.48608 -11.5579,-3.48637c-3.35863,-17.96715 6.69213,-16.03817 9.5605,-20.50038c1.55675,-0.10876 3.28977,0.94626 4.38189,-2.05073c1.34816,-3.69964 -0.70583,-7.60466 1.94977,-10.72944c1.06906,-1.25794 4.50977,-0.60333 5.74709,-0.17157c0.47213,0.16475 0.87175,0.40212 1.21205,0.69946c0.60778,-3.88314 2.14927,-8.39415 2.61195,-11.58854c0.80988,-5.59144 0.22918,-18.51454 -0.36396,-24.37031c-0.56674,-1.97263 -3.44596,-9.58551 -4.29676,-10.04208c-1.21341,-0.65116 -2.45844,3.64057 -3.18473,4.93929c-3.40512,6.08887 -8.09978,6.31252 -12.09794,4.70143c-0.88438,4.04128 0.37447,7.76772 1.39268,10.99138c0.91416,2.89421 1.76677,5.80055 2.82417,8.42207c1.15981,2.87542 2.3498,5.18312 3.2411,8.60144l0.00936,0.73423zM228.36983,158.545c-2.60594,-1.19666 -5.33669,-8.36885 -4.14348,2.76859c0,9.28092 2.40792,10.85592 5.19249,12.02485c-0.12747,-1.31122 0.30882,-4.32735 0.48716,-5.72459c-0.23154,-3.12672 -1.24663,-6.15913 -1.53617,-9.06885zM168.48464,230.55516c0.00143,0.01871 0.00204,0.02874 0.00204,0.02874c1.09705,18.83159 9.40428,33.86857 16.25905,40.27667c9.8319,14.0543 21.85555,15.46132 33.21007,15.46132c1.85505,0 4.87262,1.19459 6.62322,-0.51304c1.12098,-1.09348 2.25658,-3.66398 3.47972,-4.38205c4.28264,-2.51424 7.34357,-2.8887 11.3517,-7.54534c1.41362,-1.64234 2.48487,-9.32064 3.39652,-12.22992c2.09928,-7.32183 5.61527,-36.52176 4.14567,-44.93059c-1.06954,-6.11974 -2.98901,-11.60314 -5.01834,-16.35654c-2.34249,-8.12905 -5.03889,-14.6703 -8.58049,-19.4189c-4.5717,-6.12976 -11.25411,-1.11698 -11.25411,-19.02098c-0.24138,-2.25305 -0.83621,-8.81016 -0.00048,-10.6487c1.10575,-2.43257 4.86387,0.98121 6.44403,1.38432c0.28094,-3.14809 0.64563,-6.63571 0.24457,-9.64075c-1.0071,-5.13627 -3.00314,-7.07493 -5.42551,0.0798c-0.77491,0.11254 -1.45679,0.09957 -2.0582,-0.01842c-0.92603,0.73462 -1.90395,0.47342 -3.01136,-2.20872c-2.46035,-4.03757 -1.41233,-12.01103 -3.83553,-12.50285c-1.30366,-0.2646 -3.43034,-0.81432 -4.6653,-0.17157c-0.313,0.16291 0.28172,13.74531 -6.53072,12.94624c-2.07555,3.22884 -10.35777,1.58123 -8.20181,13.8015c1.6672,9.4499 8.91895,-4.88397 11.71686,5.0891c-0.50894,2.85914 -0.86338,5.97081 -2.00791,7.95503c-1.53501,2.66119 -20.63235,25.34692 -21.43375,25.72093c-0.38894,1.58171 -0.98418,3.0191 -1.69396,3.78217c-0.35113,0.37748 -0.79535,0.1544 -1.13055,0.60384c-0.37552,0.5035 -0.54271,1.64246 -0.91874,2.14387c-0.36544,0.48728 -0.85599,0.24215 -1.22499,0.71462c-0.75938,0.97233 -1.09137,3.26096 -1.83748,4.28773c-0.36255,0.49892 -0.85768,0.23504 -1.22499,0.71462c-0.84287,1.10049 -1.35055,3.34649 -2.21115,4.36958c-0.32363,0.38474 -0.76431,0.03692 -1.06827,0.50082c-0.25122,0.38339 -0.24021,1.32048 -0.45135,1.81836c-0.38364,0.90462 -0.88789,1.48438 -1.30132,2.31446c-0.33579,0.67418 -0.60066,1.52829 -0.94147,2.18859c-0.94636,1.83349 -4.38191,8.16911 -1.64437,9.21912l0.81152,3.8546c0,0 0,0.1307 -0.0128,0.33233z" fill="#000000"/><path d="M168.46593,230.59642c0,0 -0.00061,-0.01005 -0.00204,-0.02876c0.0128,-0.20163 0.01279,-0.33249 0.01279,-0.33249l-0.81173,-3.85679c-2.73754,-1.05001 0.6977,-7.39024 1.64406,-9.22373c0.34082,-0.6603 0.60563,-1.51553 0.94142,-2.18971c0.41343,-0.83008 0.91764,-1.41106 1.30129,-2.31569c0.21114,-0.49788 0.20012,-1.43603 0.45133,-1.81943c0.30397,-0.4639 0.74464,-0.11633 1.06827,-0.50107c0.86059,-1.02309 1.36826,-3.27191 2.21113,-4.3724c0.36731,-0.47958 0.86244,-0.21624 1.22499,-0.71516c0.74612,-1.02677 1.07818,-3.31869 1.83757,-4.29102c0.369,-0.47247 0.85958,-0.2281 1.22502,-0.71539c0.37603,-0.50141 0.54332,-1.64224 0.91884,-2.14574c0.3352,-0.44944 0.77948,-0.22717 1.1306,-0.60465c0.70979,-0.76307 1.30536,-2.20423 1.69429,-3.78595c0.80141,-0.37402 19.91677,-23.09736 21.45178,-25.75854c1.14452,-1.98422 1.50196,-4.99632 2.0109,-7.85546c-2.79792,-9.97307 -10.05993,4.26664 -11.72712,-5.18326c-2.15596,-12.22026 6.13353,-10.57808 8.20908,-13.80692c6.81244,0.79907 6.22227,-12.78359 6.53527,-12.94649c1.23496,-0.64275 3.3645,-0.09202 4.66816,0.17258c2.4232,0.49182 1.37847,8.46763 3.83882,12.50521c1.10742,2.68214 2.08732,2.94545 3.01334,2.21083c0.60141,0.11799 1.28436,0.13236 2.05927,0.01981c2.42236,-7.15473 4.42075,-5.21231 5.42785,-0.07604c0.40106,3.00503 0.00855,6.56864 -0.27239,9.71673c-1.58017,-0.40311 -5.33518,-3.81136 -6.44094,-1.37879c-0.83573,1.83854 -0.21633,8.31387 0.02505,10.56692c0,17.904 6.68896,12.91101 11.26066,19.04077c3.5416,4.7486 6.23965,11.3053 8.58214,19.43435c2.02933,4.75339 3.94878,10.24606 5.01831,16.3658c1.4696,8.40883 -2.04974,37.63099 -4.14902,44.95282c-0.91164,2.90928 -1.98477,10.59336 -3.39839,12.2357c-4.00812,4.65664 -7.07329,5.03975 -11.35593,7.55398c-1.22314,0.71808 -2.36065,3.29122 -3.48164,4.38469c-1.7506,1.70762 -4.77149,0.5163 -6.62654,0.5163c-11.35452,0 -23.39833,-1.41584 -33.23023,-15.47014c-6.85477,-6.4081 -15.1692,-21.47127 -16.26625,-40.30286z" fill="#ffb6cc"/><path d="M217.05584,128.19321h-0.80114c-2.73851,0 -5.46981,0.23368 -8.21168,0.23368c0,0 -1.07136,0 -1.07136,-2.5c0,-0.40011 0.02744,-0.73619 0.07354,-1.01848c-3.59104,-10.28386 -15.21573,-29.61749 -8.6924,-40.71747c3.04448,-0.2127 6.2003,0.67753 9.15017,-1.4012c3.16437,-2.22989 1.57382,-9.56931 6.77888,-8.71079c0.63829,0.10527 1.41151,-0.38605 1.90422,0.56664c0.75242,1.45487 1.08,7.27544 1.67566,8.91009c1.41044,3.8706 2.62772,3.70172 3.30215,9.86875c0.00253,3.06591 0.01125,7.38674 -0.34419,10.32001c-0.19524,1.6112 -0.80485,2.9184 -0.8808,4.58336c-0.17099,3.7484 0.55717,9.59314 -0.11874,13.02277c-0.09788,0.49662 -1.16256,2.1752 -1.79726,3.15664c0.0644,0.31421 0.10429,0.70356 0.10429,1.186c0,2.5 -1.07136,2.5 -1.07136,2.5zM198.79655,96.11562c0.55739,7.25558 8.16124,19.82975 10.44707,27.29778c2.24344,-0.04774 4.48129,-0.20644 6.72399,-0.21935l0.47619,-2.24475c0.30625,-0.47642 0.59818,-1.0072 0.91874,-1.42925c0.17765,-0.23389 0.50059,-0.07988 0.56843,-0.52876c0.11458,-0.75813 -0.10739,-1.59085 -0.12677,-2.39347c-0.06609,-2.73799 -0.15209,-6.17301 0.00803,-8.88093c0.11447,-1.93599 0.72361,-3.54423 0.95668,-5.42136c0.0947,-0.76272 -0.07598,-1.59054 -0.04075,-2.38037c0.08759,-1.96402 0.30665,-3.90519 0.30906,-5.8798c-0.54628,-5.28053 -1.5007,-3.70578 -2.82279,-7.28219c-0.74303,-2.00998 -0.84718,-6.16654 -1.38681,-8.24086c-1.24182,-4.77357 -5.86079,8.36869 -6.62925,9.0068c-2.84954,2.36621 -6.24981,1.80622 -9.22464,1.45729c-0.40554,0.308 -0.27753,5.83289 -0.17718,7.13922z" fill="#1e0000"/><path d="M198.77549,96.10656c-0.10036,-1.30633 -0.22648,-6.84441 0.17906,-7.15241c2.97483,0.34894 6.39173,0.88152 9.24127,-1.48469c0.76845,-0.63811 5.40146,-13.77295 6.64329,-8.99938c0.53963,2.07432 0.64905,6.2419 1.39208,8.25188c1.32209,3.57641 2.28045,2.01982 2.82673,7.30035c-0.00241,1.97462 -0.22074,3.92767 -0.30832,5.89169c-0.03522,0.78983 0.1354,1.6228 0.04069,2.38552c-0.23307,1.87714 -0.84333,3.49783 -0.95781,5.43382c-0.16011,2.70791 -0.07741,6.1571 -0.01132,8.89509c0.01937,0.80263 0.24052,1.63769 0.12594,2.39582c-0.06785,0.44888 -0.39145,0.29657 -0.56911,0.53047c-0.32056,0.42204 -0.61394,0.95602 -0.92019,1.43244l-0.47756,2.2473c-2.2427,0.01291 -4.49235,0.18116 -6.73578,0.2289c-2.28583,-7.46803 -9.91157,-20.10122 -10.46896,-27.3568z" fill="#ffefe4"/><path d="M211.06576,288.82189c0,1.46137 -0.36608,2.0685 -0.67026,2.32073c0.07179,2.52987 0.06007,5.05014 0.05777,7.68398c-0.00209,2.38775 0.08856,5.74383 -0.48743,7.8227c-1.03041,3.719 -3.03485,2.74505 -4.49394,1.76262c-0.71373,-0.48056 -1.65325,-0.22919 -2.12472,-1.56874c-0.47045,-1.33669 -0.19056,-3.43269 -0.24283,-5.15809c-0.08458,-2.79214 -0.0342,-5.77684 0,-8.57547c0.00459,-0.37579 -0.00502,-0.76008 -0.01535,-1.14527c-0.71916,-1.7494 0.0229,-3.48099 0.0229,-3.48099l1.26632,-2.6858c0.10855,-0.01055 0.21673,-0.01818 0.32459,-0.02321c0.21777,-0.22662 0.51231,-0.35783 0.82624,0.00794c0.83356,0.05032 1.6547,0.21368 2.4848,0.3476l-0.00955,-0.88112c0,0 0,-2.5 1.07136,-2.5c1.07136,0 1.07136,2.5 1.07136,2.5l-0.02081,0.93895c0.00465,0.05509 0.00922,0.11013 0.01374,0.16514c0.29291,0.10289 0.9258,0.54752 0.9258,2.46902zM208.27688,291.16343c-0.89742,-0.15677 -1.76971,-0.40738 -2.69082,-0.6472c-0.90884,2.73396 -0.16305,7.65735 -0.33899,11.16885c-0.03429,0.68444 -0.43757,1.47009 -0.24283,1.98814c0.20655,0.54946 0.62644,-0.22009 0.93775,-0.1395c0.1926,0.04986 2.01262,1.73838 2.24349,0.33337c0.18206,-1.10796 0.12611,-3.94412 0.12507,-5.0405v-5.71698c0.00062,-0.64895 -0.01136,-1.2982 -0.03367,-1.94618z" fill="#1e0000"/><path d="M208.28801,291.1207c0.02232,0.64797 0.03747,1.30273 0.03685,1.95168l0.00594,5.7706c0.00105,1.09639 0.0473,3.95968 -0.13476,5.06764c-0.23088,1.40501 -2.06697,-0.27873 -2.25956,-0.32859c-0.31131,-0.08059 -0.73689,0.68327 -0.94343,0.13381c-0.19474,-0.51804 0.20669,-1.30667 0.24098,-1.99111c0.17594,-3.51149 -0.56391,-8.52169 0.34493,-11.25565c0.92111,0.23981 1.81164,0.49485 2.70905,0.65162z" fill="#ff2e6d"/><path d="M217.02453,286.87551c1.0676,-4.04019 2.61717,-4.10654 4.40658,-4.11458c10.42263,4.79087 5.9187,32.60558 -2.14233,22.55759c-1.97442,-2.46109 -2.23252,-9.50938 -3.41403,-12.85277c0,0 -0.64282,-2 0.21427,-3.5c0.2534,-0.44347 0.48806,-0.58102 0.69292,-0.55477c0.05068,-0.54254 0.11886,-1.06727 0.24258,-1.53547zM220.29984,300.91015c5.96004,5.80724 6.72898,-10.41415 0.92013,-13.17355c-1.54136,-0.01023 -2.19677,0.09914 -2.53002,3.83549l0.03199,0.10828c0,0 0,1.14507 -0.3321,1.88529c0.51646,3.04449 1.12574,6.58033 1.91,7.34449z" fill="#1e0000"/><path d="M218.36872,293.5571c0.3321,-0.74022 0.33372,-1.89746 0.33372,-1.89746l-0.03191,-0.10867c0.33325,-3.73635 1.00418,-3.87377 2.54554,-3.86353c5.80885,2.7594 5.033,19.07312 -0.92704,13.26588c-0.78426,-0.76415 -1.40384,-4.35174 -1.9203,-7.39622z" fill="#ff2e6d"/><path d="M196.489,86.50672c-0.13872,0.59493 -0.27584,1.17171 -0.33925,1.80526c-0.13032,-2.75776 -0.10897,-5.35378 0.10567,-7.47265c1.79424,-23.02758 10.28741,-24.78826 18.64536,-28.87656c2.26139,1.15817 0.72579,10.4536 3.16634,13.38682c2.08628,2.50743 4.89615,-1.58671 7.06191,2.00603c2.16945,3.59886 3.26487,15.67493 4.88149,20.99351c2.78519,4.91759 7.63126,1.38552 10.08921,6.71428c2.50433,5.42931 0.07491,22.32167 -0.94991,28.36048c-3.25303,12.56129 2.00537,11.86973 5.12709,18.59374c0.98628,2.12438 0.46203,5.05716 1.38126,7.20217c0.91751,2.14099 2.14482,0.50701 2.89287,2.9649c1.01889,3.34778 0.19768,10.01995 -0.29549,13.57007c-1.42756,4.89306 -6.85958,13.41782 -9.56592,13.33126c-1.6028,-0.05126 -2.58764,-2.48722 -3.89051,-4.13715c-2.15865,-2.73365 -3.53332,-0.0282 -2.76221,-7.09723c-0.24907,-4.07873 -14.01808,-3.35522 -15.12431,-0.45038c-0.98045,0.92877 4.48229,-30.00016 3.91026,-29.41271c-0.37616,-0.28546 -0.69611,-0.62531 -0.96652,-1.0064c-0.6346,-3.23937 -1.81648,-7.05176 -2.04636,-9.99937c-0.18211,-2.33509 -3.69523,6.99982 -3.31649,4.32129c0.94751,-6.7009 -4.92567,-5.70119 -5.68381,-12.53518c-0.8678,-3.04613 -4.42914,-11.43005 -5.9763,-12.24713c-2.69828,-1.42501 1.97179,-18.33641 -0.20604,-16.16114c-3.45061,3.44655 -1.34482,-7.66501 -4.95041,-7.08204c-0.39618,1.07696 -0.89724,1.98139 -1.18794,3.22813z" fill="#feff00"/></g></g></svg>