<svg version="1.1" xmlns="http://www.w3.org/2000/svg" xmlns:xlink="http://www.w3.org/1999/xlink" width="198.73236" height="307.31683" viewBox="0,0,198.73236,307.31683"><g transform="translate(-129.87112,18.9548)"><g fill="#000000" stroke="none" stroke-width="0.5" stroke-miterlimit="10"><path d="M141.57981,157.04409c0.28205,-0.16919 0.56984,-0.33381 0.86354,-0.49415c-0.28497,-0.00539 -0.56991,-0.01121 -0.85483,-0.01748zM137.25734,169.94911c-9.9574,22.92944 16.60747,29.07247 17.35688,5.95999c0.68548,-1.56404 1.70211,-2.98955 2.05643,-4.69213c0.59487,-2.8585 -0.07212,-5.87713 -0.06688,-8.81585c0.00313,-1.75813 0.85491,-3.90699 -0.11066,-5.2729c-0.61715,-0.87301 -3.64717,-0.55227 -4.27613,-0.54582c-0.53218,0.00547 -1.06444,0.00992 -1.59675,0.01328c-0.71292,1.34212 -1.64725,2.54492 -2.22594,3.97011c-0.78676,1.9376 -0.83945,4.54411 -2.32893,5.82938l1.82116,-0.48827c0,0 2.45145,0.56209 1.96116,3.37253c-0.49029,2.81044 -2.94174,2.24835 -2.94174,2.24835l-5.06563,-2.06733c0.20357,-2.81811 0.2131,-4.54252 0.52869,-6.37292c-2.17532,1.65452 -3.79411,3.8276 -5.11165,6.86156zM137.67709,160.04447c-1.41918,-1.01752 -0.97037,-3.07567 -0.97037,-3.07567l1.34627,-4.48962c3.1972,-1.21876 6.1013,-1.55832 9.16547,-1.63534c0.19112,-0.82487 0.3858,-1.6478 0.71804,-2.40538c1.23621,-2.81881 3.19088,-5.16084 4.49617,-7.93842c1.51648,-3.227 3.26773,-6.35903 4.30777,-9.82521c0.52401,-1.74636 0.47141,-3.66953 0.95508,-5.43113c1.49772,-5.45497 4.23011,-10.48853 5.92587,-15.8665c1.19088,-3.77678 1.71032,-9.93666 4.01698,-12.92217c1.2204,-1.57955 5.26525,-2.53988 7.22453,-3.10144c13.28952,-5.94854 33.02746,-10.50245 46.99306,-5.526c8.81058,3.13952 17.76389,8.42644 27.03183,9.23106c-0.00066,-0.32593 -0.001,-0.65192 -0.001,-0.97798c0,-2.247 -0.92828,-12.51118 1.18567,-13.49145c2.48026,-1.15013 11.89817,4.38849 14.872,5.15037c18.73425,4.79962 27.0271,-10.70517 29.40145,-29.75947c-0.0087,-7.36784 -1.75287,-15.15232 -4.93055,-22.15442c-0.16804,0.99559 -0.34005,1.98999 -0.42466,2.96956c-0.17433,2.01818 0.39636,4.1395 -0.10956,6.08286c-0.37898,1.45575 -4.17868,6.61766 -5.54708,7.26828c-1.68695,0.80209 -7.32835,0.10936 -8.43666,-1.67363c-1.02759,-1.65314 -0.57543,-4.03306 -0.51076,-6.06166c0.14844,-4.65583 2.80583,-8.14146 5.53426,-11.15079c0.9328,-1.02884 1.6857,-2.40977 2.8771,-2.98988c0.44882,-0.21853 0.92768,-0.28756 1.41885,-0.29536c-1.55027,-2.52029 -5.01928,-2.89586 -7.34894,-2.87543h-2.75472c0,0 -2.5,0 -2.5,-2.8661c0,-2.8661 2.5,-2.8661 2.5,-2.8661h2.75472c0.90613,0.00636 1.84762,0.07401 2.7918,0.2192c-1.42079,-1.38774 -2.93101,-2.64845 -4.52451,-3.75779c-0.51587,0.55607 -1.034,1.08426 -1.55698,1.56466l-2.78577,2.39572c0,0 -2,1.71966 -3.5,-0.57322c-1.5,-2.29288 0.5,-4.01254 0.5,-4.01254l1.2357,-1.06229c-1.46721,-1.23436 -3.19269,-2.00733 -4.80737,-2.98624c-6.77402,-1.2504 -14.32535,-0.25144 -20.89194,-0.2766c-12.09442,2.16786 -25.17291,22.11338 -19.85121,36.57908c4.19269,11.39676 11.97308,19.00229 21.20105,24.19692c2.7277,0.78737 5.28304,0.6115 8.08546,0.6115h0.68868c0,0 2.5,0 2.5,2.8661c0,2.8661 -2.5,2.8661 -2.5,2.8661h-0.68868c-3.4685,0 -6.43443,-0.00175 -9.8202,-0.96756c-10.39821,-6.02952 -19.81283,-14.72073 -24.25178,-27.91197c-6.19624,-18.41339 9.03418,-40.92008 24.22426,-43.95284c4.48414,-0.01479 9.3844,-0.42166 14.22594,-0.35873c-2.25212,-1.71918 -7.22276,-5.49575 -7.44505,-5.72574c-4.07493,-4.21602 -6.41716,-10.34365 -8.81076,-15.83189c0,0 -1.11803,-2.56352 1.11803,-3.84527c2.23607,-1.28175 3.3541,1.28175 3.3541,1.28175c2.09279,4.7985 4.13344,10.48418 7.71755,14.1702c2.38651,2.45437 5.39482,3.97693 8.01862,6.08912c1.70984,1.37645 2.97628,3.42405 4.75305,4.68414c0.01129,0.008 0.02258,0.01599 0.03389,0.02397c1.44708,0.30402 2.85937,0.70732 4.22198,1.23686c1.43158,0.55634 2.82056,1.20851 4.16463,1.94796c1.49535,-1.72184 2.99785,-3.44638 4.58112,-4.72021c2.11057,-1.69807 4.81202,-2.26315 6.91621,-3.97159c3.71469,-3.01605 6.26979,-5.16791 11.07386,-5.25422c0,0 2.5,0 2.5,2.8661c0,2.8661 -2.5,2.8661 -2.5,2.8661c-3.86862,-0.10054 -5.29024,1.89268 -8.20916,4.22012c-2.09728,1.67229 -4.76238,2.24765 -6.85737,3.9237c-1.0363,0.82907 -2.04114,1.86434 -3.0324,2.96727c12.88323,9.68044 20.61118,27.76212 20.59264,44.6511c-1.50407,12.07025 -7.08955,30.10441 -18.1945,35.66156c-4.65577,2.32985 -21.68635,0.41557 -27.06891,-4.6759c0.21437,2.19745 -0.18314,4.48095 -0.18314,6.70855c0,1.10322 -0.01357,2.22586 -0.03796,3.36513c0.02466,0.17967 0.03796,0.37346 0.03796,0.58252c0,0.29103 -0.02578,0.55251 -0.0721,0.78745c-0.43182,15.27406 -2.57151,33.27553 0.00522,47.50484c1.14271,6.31031 1.84179,12.56862 2.0595,19.10967c4.70057,0 9.40114,0 14.10172,0c2.0123,0 9.81533,-0.88784 11.40928,0.83946c4.05248,4.3915 3.48695,66.34418 3.48695,75.45169c-0.00685,1.71475 -0.23601,3.44736 -0.02055,5.14424c1.01168,7.96737 0.87527,15.42552 1.3528,23.52744c0.04212,0.7146 -0.21201,1.74847 0.32404,2.11633c0.53566,0.36759 32.27553,0.01024 32.60304,-0.19019c0,0 2.23607,-1.28175 3.3541,1.28175c1.11803,2.56352 -1.11803,3.84527 -1.11803,3.84527c-1.53917,0.84228 -35.68289,1.49881 -37.64225,-0.19019c-2.75899,-2.3783 -3.82938,-30.50004 -3.85314,-35.53242c0,-10.77072 0.81755,-64.73068 -2.02248,-71.40064c-1.1563,-2.71563 -5.23784,0.83946 -7.87374,0.83946c-4.76042,0 -9.52084,0 -14.28126,0c-0.28989,0.76173 -0.912,1.57906 -2.24704,1.57906c-1.33504,0 -1.95714,-0.81733 -2.24704,-1.57906c-1.08747,0 -2.17493,0 -3.2624,0c-2.80385,0 -5.87149,-0.43116 -8.64737,-0.02147c-4.06039,0.59927 -7.8681,1.57679 -12.01301,1.60053h-1.75185c-0.26277,0.75189 -0.52554,1.50377 -0.78831,2.25566c-2.24189,5.11058 -6.20974,9.1065 -8.27895,14.25436c-3.43016,8.5337 -4.37088,19.35731 -6.76631,28.06064c-1.86049,6.75972 -6.85489,13.95849 -9.82361,20.23603c-3.73756,7.90331 -6.22863,17.60907 -8.75672,26.29291c-1.37407,6.29964 -3.71842,18.30341 -9.70774,21.58482c-6.30925,3.45669 -35.31075,-3.7763 -43.65482,-3.72948c0,0 -2.5,0 -2.5,-2.8661c0,-2.8661 2.5,-2.8661 2.5,-2.8661c6.9939,0.03384 37.17639,6.70287 41.7414,4.16581c4.18943,-2.32833 5.86077,-13.48932 6.82056,-17.89161c2.64457,-9.10645 5.28078,-19.05223 9.14894,-27.39504c2.75375,-5.93926 7.79346,-12.85689 9.45941,-19.24041c2.32854,-8.92237 3.49746,-20.06712 6.99977,-28.7553c2.09084,-5.18675 6.03969,-9.07818 8.25686,-14.19878c0.44559,-1.27932 0.89118,-2.55865 1.33677,-3.83797l3.00048,-2.89936c0,0 2.08013,-1.58982 3.46688,0.79492c0.05739,0.0987 0.10885,0.19603 0.15476,0.29195c3.59359,-0.11342 6.98259,-1.04997 10.54456,-1.54675c2.99065,-0.41711 6.24295,-0.02147 9.25829,-0.02147c0.9962,0 1.99241,0 2.98861,0c-0.19626,-21.39825 -1.72019,-42.89959 -2.00087,-64.67205c-6.2484,-0.66241 -11.33387,-3.58816 -17.46904,-5.48652c-18.70058,-5.78638 -36.49347,-7.21556 -55.06086,1.53604c-0.041,0.01175 -4.99206,1.37328 -5.17169,1.63574c-0.81997,1.19801 -0.73988,2.92575 -1.15483,4.37232c-1.17208,4.08609 -2.26799,7.8853 -3.7559,11.87411c-1.27727,3.42414 -2.88288,6.70813 -3.85079,10.26308c-0.49448,1.81613 -0.45471,3.79456 -1.00093,5.59111c-2.04141,6.7143 -6.269,12.13648 -8.99347,18.30726c2.78171,0.0031 5.6582,-0.27989 7.86344,2.61109c1.08775,1.42601 0.98955,3.62824 1.25453,5.49808c0.47761,3.3703 0.53716,10.54363 -0.05471,13.57337c-0.33942,1.73747 -1.38377,3.18814 -2.07565,4.78221c-0.72291,30.33296 -40.41192,21.44911 -26.71859,-9.83059c1.34824,-3.07978 2.95657,-5.49289 4.93443,-7.4411zM284.36869,36.18718c-2.64347,1.3853 -4.26133,5.8232 -5.0195,8.92435c-0.15104,0.6178 -0.73197,1.24425 -0.51076,1.83363c0.14742,0.39276 0.71689,-0.27761 1.08966,-0.29126c1.60696,-0.05885 3.71853,-1.2029 4.20963,-3.58842c0.33207,-1.61306 -0.22725,-3.31868 -0.10956,-4.97055c0.05038,-0.70709 0.18567,-1.32541 0.34052,-1.90774z"/><path d="M255.86851,23.98578c0.68692,0.31356 1.46168,1.02087 1.46168,2.6164c0,2.8661 -2.5,2.8661 -2.5,2.8661c-0.43261,0 -5.01799,0.01007 -5.89266,-0.02147c-0.40883,-0.01474 -1.04213,-0.53139 -1.22327,-0.11094c-0.3901,0.90547 0.06649,2.02614 -0.0341,3.02942c-0.0472,0.47079 -0.72951,1.05133 -0.40438,1.34396c1.15308,1.03779 6.50312,1.86606 7.97506,1.29842c0.56784,-0.21898 0.76136,-1.06081 1.13411,-1.59853c1.70202,-2.45529 3.98436,-6.96175 0.65689,-9.05003c-0.30389,-0.19072 -0.717,-0.30589 -1.17333,-0.3733zM248.77447,23.59186c-0.62997,-0.35536 -1.26504,-1.07184 -1.26504,-2.51639c0,-2.8661 2.5,-2.8661 2.5,-2.8661h2.75472c4.3926,0.03083 8.23925,0.42426 10.57385,5.71694c2.16412,4.90617 -1.96103,14.47631 -6.17374,16.3772c-1.10857,0.50021 -2.60459,0.6731 -4.22068,0.58412c1.69436,3.24085 3.30075,8.19281 3.99245,9.43478c0.50273,0.90266 1.39917,2.17912 2.28006,3.47949c0.4205,-2.59815 1.62286,-5.35829 3.11531,-6.24322c1.07906,-0.63982 4.25193,1.99469 7.4467,5.24824l2.62839,-1.63494c0.44189,2.22487 2.16973,3.90601 2.70107,6.10502c0.14325,0.59284 0.2264,1.20039 0.26744,1.81537c1.20747,1.50295 2.08133,2.73023 2.35164,3.33591c0,0 1.11803,2.56352 -1.11803,3.84527c-0.79457,0.45547 -1.44797,0.42539 -1.9602,0.19734c-0.13643,0.4191 -0.30563,0.82036 -0.51852,1.19311c-0.67675,1.18494 -2.09214,1.56633 -2.91805,2.61966c-2.66761,3.40215 -0.49725,8.33948 -4.48714,11.45264c-1.62593,1.26865 -4.16287,1.9572 -5.85757,0.81293c-1.38499,-0.93516 -0.75655,-3.58949 -0.96147,-5.41719c-0.21405,-1.90912 0.4118,-3.89587 0.04511,-5.77423c-0.13377,-0.68523 -1.89755,-5.14894 -2.32793,-5.97193c-1.52551,-2.91704 -3.20158,-0.37351 -5.46687,0.26171c-0.07585,0.02127 -0.149,0.03894 -0.21967,0.05319l-1.04393,2.39359c-0.40086,0.96944 -1.26228,1.63988 -2.26029,1.63988c-1.38071,0 -2.5,-1.2832 -2.5,-2.8661v-3.15812h0.38397c-0.0461,-0.59316 -0.01189,-1.18189 0.14552,-1.76383c0.12271,-0.45366 0.40004,-0.74167 0.764,-0.93687c-0.48555,-3.85164 -1.96022,-7.39894 -1.98217,-11.51081c0,-2.63509 -0.62477,-7.63391 1.28629,-10.09312c-1.55014,-0.67782 -2.86037,-1.54939 -3.62811,-2.54063c-0.96407,-1.24473 -0.54066,-3.31501 -0.40438,-4.97228c0.18084,-2.19903 0.14583,-4.71455 1.34326,-6.44492c0.88234,-1.27505 2.74218,-1.73112 4.73401,-1.85569zM270.5016,60.67839c-1.20917,-1.15718 -2.61545,-1.87892 -4.50693,-3.1591c-0.19535,-0.13222 -0.41349,-0.34108 -0.63798,-0.59827c0.33422,3.035 -0.20492,6.81851 -2.57963,7.46226c0.18169,0.42331 0.35823,0.86112 0.53184,1.31075c0.96576,2.50117 1.54024,5.26828 1.5932,8.00579c0.91928,-3.14131 0.32934,-4.10736 2.47097,-7.08906c0.67429,-0.93878 1.91996,-1.17604 2.59139,-2.11752c0.8939,-1.25342 0.89679,-2.56008 0.53714,-3.81484zM254.6257,58.47999c-4.40628,-8.27877 -4.1823,-21.43945 -4.1823,-8.98149c-0.02371,3.55387 0.92674,6.69727 1.5256,10.00723c0.77472,-0.41601 1.55217,-0.82039 2.38842,-0.97868c0.09036,-0.0171 0.17978,-0.03279 0.26828,-0.04706z"/><path d="M306.04717,122.13514c0,-2.8661 2.5,-2.8661 2.5,-2.8661l3.18407,0.30258c1.07952,0.64737 2.30614,1.04319 3.23855,1.94212c0.93486,0.9013 1.36698,2.34315 2.23194,3.33193c0.81399,0.93052 1.95475,1.4305 2.75837,2.37278c7.03168,8.24497 10.66403,21.75337 7.48006,32.95468c-2.47472,8.70616 -9.21857,16.635 -15.51262,22.03564c-27.12792,15.14504 -25.9148,-35.52985 -10.74411,-48.17028c-0.41406,-2.95623 -0.63541,-5.99852 -0.57881,-8.87628c-2.1404,-4.90768 0.84902,-13.67745 -1.44224,-17.62933c-0.86627,-1.49412 -3.14087,0.29465 -4.69425,0.07725c-6.46104,-0.90424 -12.54963,-4.67572 -19.2239,-5.51917c-5.71792,-0.7226 -11.3133,0.78482 -16.97064,0.80348c0,0 -2.5,0 -2.5,-2.8661c0,-2.8661 2.5,-2.8661 2.5,-2.8661c7.03318,0.02695 40.02939,0.60474 44.50743,6.41494c3.72871,4.83796 0.22213,14.60988 2.68984,20.26804c0.04061,2.62321 0.18072,5.37396 0.49045,8.06853c2.48281,-0.32034 5.30437,-0.01227 7.40662,-0.01227c0,0 2.5,0 2.5,2.8661c0,2.8661 -2.5,2.8661 -2.5,2.8661c-1.28371,0 -3.27266,-0.25525 -5.10534,-0.22761c0.01946,0.1618 0.02987,0.33475 0.02987,0.51963c0,2.8661 -2.5,2.8661 -2.5,2.8661l-2.41169,-1.37684c-8.11649,9.21971 -15.0824,50.40614 5.91812,37.91771c2.86107,-2.46646 4.69461,-5.04659 7.00116,-8.12464c1.19867,-1.5996 2.97009,-2.64068 3.93361,-4.43706c4.1151,-7.67214 4.3195,-18.11808 0.60825,-25.99104c-2.13513,-4.52943 -4.19401,-6.45216 -7.17571,-9.88098c-1.30653,-1.50245 -2.49435,-3.30249 -4.17102,-4.20029l-0.948,0.30258c0,0 -2.5,0 -2.5,-2.8661z"/></g></g></svg>