<svg version="1.1" xmlns="http://www.w3.org/2000/svg" xmlns:xlink="http://www.w3.org/1999/xlink" width="205.79986" height="90.22394" viewBox="0,0,205.79986,90.22394"><g transform="translate(-172.15195,-90.31929)"><g data-paper-data="{&quot;isPaintingLayer&quot;:true}" fill="#fbff00" fill-rule="nonzero" stroke="none" stroke-width="0.5" stroke-linecap="butt" stroke-linejoin="miter" stroke-miterlimit="10" stroke-dasharray="" stroke-dashoffset="0" style="mix-blend-mode: normal"><path d="M377.95175,177.58756c0.01387,2.49996 -2.4861,2.51383 -2.4861,2.51383l-3.17512,0.01756c-5.98982,0.10578 -11.93043,0.42176 -17.92446,0.42176c-6.94024,0 -12.42943,0.22955 -18.35086,-3.70389c-3.08596,-3.56168 -6.64424,-7.12142 -9.23355,-11.06658c-2.94532,-4.48759 -4.59423,-9.54887 -5.50783,-14.83538c-2.41935,3.08272 -4.98508,6.06763 -7.25022,9.04236c-3.11598,2.72537 -4.49638,4.42476 -8.47225,5.92716c-5.62641,2.1261 -8.41596,-1.13016 -11.27129,-5.39694c-2.58857,-3.86815 -4.10409,-7.86798 -4.89936,-12.06115c-0.7796,3.48639 -1.4302,6.38037 -3.8356,9.71684c-2.63985,3.66166 -7.73761,13.18397 -14.14099,10.17914c-1.96155,-0.92047 -1.54178,-4.05879 -2.09147,-6.15468c-1.18544,-4.51988 -1.88041,-9.0476 -3.3774,-13.55359c-1.55392,-3.52759 -3.38971,-6.48246 -6.07518,-9.29017c-2.0506,-2.14394 -4.3769,-4.00715 -6.5096,-6.06944c-1.15184,-1.11381 -2.28658,-2.24595 -3.39318,-3.40471c-0.48893,-0.51197 -0.71189,-1.40481 -1.39096,-1.60491c-0.37198,-0.10961 -0.28641,0.72982 -0.51453,1.04342c-2.29898,3.16042 -3.20718,5.17377 -3.9086,9.09132c-1.43934,8.03889 -1.4914,15.67863 -1.4914,23.8269c0,2.97344 0.84485,8.83848 -0.01493,11.69422c-0.02634,0.0875 -0.05386,0.17453 -0.08249,0.26111l0.03789,0.00842l-0.86789,3.9055c-0.22941,1.14398 -1.23964,2.00574 -2.45115,2.00574c-1.03935,0 -1.93056,-0.63424 -2.30771,-1.53681l-1.73396,-3.90142l0.08218,-0.03652l-0.1867,-0.24232c-1.07745,-5.8771 -3.18216,-11.48596 -4.15676,-17.40425c-0.02522,-0.15315 -0.24122,-2.33546 -0.46677,-4.62839c-0.84246,6.98992 -2.84634,13.60423 -8.38142,18.82605c-3.0364,2.86455 -5.29764,3.82889 -8.87894,5.80916c-1.66244,0.86645 -3.1821,2.09378 -4.98732,2.59936c-1.4654,0.41041 -3.04299,0.06475 -4.56474,0.07586c-4.09263,0.02986 -8.95706,-0.50232 -12.81742,-1.94744c-2.002,-0.74945 -3.63914,-2.30197 -5.64246,-3.04789c-3.48756,-1.29857 -7.88172,-2.45828 -10.06606,-5.92544c-1.61988,-2.57119 -1.49414,-8.45145 -0.65677,-11.21393c2.23542,-7.37464 10.30785,-11.61394 16.5908,-14.91244c0.1339,-0.07029 2.8569,-1.82561 4.97257,-2.76079c-4.32691,0.24894 -9.09476,-2.41664 -12.99729,-3.82985c-1.09244,-0.3956 -2.29376,-0.49459 -3.33767,-1.00468c-3.03099,-1.48102 -5.95539,-2.82179 -6.97232,-6.27102c-3.43928,-11.66532 8.26737,-21.90842 18.59314,-24.32713c2.4905,-0.58337 4.8774,0.33208 7.22911,0.90811c0,0 2.42536,0.60634 1.81902,3.0317c-0.60634,2.42536 -3.0317,1.81902 -3.0317,1.81902c-0.94037,-0.24074 -3.71679,-1.21886 -5.07089,-0.84904c-4.98971,1.36276 -10.63619,4.77419 -13.24621,9.34278c-1.2311,2.15493 -3.64279,7.5516 -0.83379,9.7167c1.89419,1.45999 4.29891,2.11987 6.54887,2.93055c5.79225,2.087 11.00937,3.65477 17.17256,4.53731c0.13961,1.8718 1.20259,3.90986 0.41884,5.6154c-0.75799,1.64947 -2.90421,2.18658 -4.44511,3.14622c-4.27883,2.66478 -8.53483,4.50827 -12.61958,7.50758c-3.09042,2.26921 -6.41185,4.9587 -6.34344,9.24191c0.02616,1.63817 -0.34493,3.51054 0.54747,4.88456c1.36044,2.09468 5.57895,3.01153 7.50537,3.73885c2.04539,0.77223 3.7324,2.33303 5.77897,3.10211c3.27799,1.23183 7.44364,1.53482 10.90401,1.56684c1.11437,0.01031 2.27166,0.38479 3.3424,0.07586c1.40185,-0.40447 2.54493,-1.42776 3.81739,-2.14164c3.12425,-1.71688 5.22648,-2.60847 7.84628,-5.06138c8.94122,-8.37164 7.02425,-22.13734 7.88418,-33.19094l0.08129,-0.13621l-0.05651,-0.01124l0.54188,-2.72346c0.20894,-1.16961 1.23126,-2.05742 2.46095,-2.05742c1.17195,0 2.15555,0.8064 2.4262,1.8946l1.3013,4.77142l-0.0191,0.00521c0.01773,0.04412 0.03524,0.08834 0.05253,0.13267c0.62273,1.59681 0.52498,3.38744 0.78626,5.08135c0.76038,4.92965 0.93938,9.95823 1.74769,14.86669c0.4156,2.52372 1.04801,4.9865 1.7123,7.43927c0.02162,-0.47661 0.03568,-0.9386 0.03568,-1.3805c0,-9.49473 -0.62199,-19.64351 2.30429,-28.84069c0.87253,-2.74233 4.49664,-10.26511 8.47404,-10.1191c2.72877,0.10018 6.72042,4.79629 8.39443,6.41182c5.62328,5.42681 10.52107,9.88571 13.77236,17.14753c1.20391,3.60103 2.49624,7.24735 3.20166,10.98782c0.22246,1.17955 0.42723,2.37274 0.44951,3.57288c0.01641,0.88391 -1.06877,2.13893 -0.33433,2.63104c0.70193,0.47033 1.47761,-0.86349 2.06313,-1.47265c2.48671,-2.58713 6.15358,-6.84617 7.59002,-10.15048c1.20786,-2.77851 0.89234,-5.06229 1.59829,-7.89002c0.93987,-3.76471 2.07142,-8.05692 3.69616,-12.11776c0.17327,-4.07249 0.83036,-8.47513 4.80515,-10.24865c0.53075,-0.23682 1.10025,-0.31255 1.68593,-0.31888c2.38262,-2.37736 5.30423,-4.08804 8.93506,-4.70356c5.04623,0.80431 9.77545,2.81968 14.61416,4.45121l1.29514,0.21586c-0.12308,-5.64454 -0.45245,-11.44207 0.06128,-16.98363c0.24736,-2.66828 1.0658,-5.20018 2.12113,-7.64075l-0.12699,-0.02931l1.113,-4.82299c0.2367,-1.13455 1.24246,-1.98682 2.44728,-1.98682c1.18975,0 2.18539,0.83109 2.43804,1.9444l0.84867,3.39469c3.48773,10.58414 3.25507,23.90553 1.41807,34.832c-0.57681,3.43087 -1.28058,7.63267 -2.88237,10.83702c-0.67631,1.35294 -1.44835,2.67592 -2.28711,3.97466c0.43024,3.75213 1.16851,7.3974 2.38563,10.82871c2.38973,6.73714 7.06708,11.60979 11.59779,16.96386c3.86207,2.58951 7.54802,2.44983 12.12771,2.44611c6.94461,-0.00565 13.8352,-0.29696 20.77324,-0.42142l3.20575,-0.01783c0,0 2.49996,-0.01387 2.51383,2.4861zM324.80993,133.93549c0.31813,-1.48015 0.55573,-2.95743 0.77639,-4.27315c1.37853,-8.21968 1.84849,-18.01551 0.23351,-26.66675c-0.28867,0.80035 -0.53105,1.60883 -0.60291,2.44384c-0.27666,3.21475 0.02058,6.45324 0.02058,9.67986c0,5.94272 -0.40671,12.38044 -0.42757,18.8162zM320.43645,143.69893c-0.38077,-5.64043 -0.23817,-11.35513 -0.20506,-16.75107l-3.64389,0c-4.53112,0.87455 -10.37511,0 -15,0c-0.64144,0 -2.21579,-0.27378 -3.70988,-0.30672c-0.68482,1.04337 -1.29517,2.19107 -1.92173,3.36592c-0.78162,1.46561 -1.47743,2.88784 -2.10582,4.30227c-0.05299,0.91893 -0.08922,1.72748 -0.11663,2.27728c-0.29789,5.97398 -0.22929,12.48492 2.66595,17.89222c1.16276,2.17163 2.96229,6.92592 5.83304,7.00875c3.1878,0.09197 6.00365,-3.05474 8.13324,-4.91908c3.15621,-4.18989 7.01946,-8.37963 10.07077,-12.86956z"/></g></g></svg>