<svg version="1.1" xmlns="http://www.w3.org/2000/svg" xmlns:xlink="http://www.w3.org/1999/xlink" width="181.02948" height="181.02948" viewBox="0,0,181.02948,181.02948"><g transform="translate(-153.71344,-90.24528)"><g stroke="none" stroke-miterlimit="10"><path d="M157.21344,271.27476c-1.933,0 -3.5,-1.567 -3.5,-3.5v-174.02948c0,-1.933 1.567,-3.5 3.5,-3.5h174.02948c1.933,0 3.5,1.567 3.5,3.5v174.02948c0,1.933 -1.567,3.5 -3.5,3.5z" fill="#0877f6" stroke-width="NaN"/><path d="M296.51415,248.85495c-1.5,2 -3.5,0.5 -3.5,0.5l-2.31253,-1.74226c-3.3268,-3.3268 -7.30642,-5.85043 -11.31696,-8.29331c-9.80352,-2.74111 -25.32864,-4.13742 -35.49916,-2.01308c-8.26022,1.72534 -19.41059,10.23748 -26.97984,4.98143c-2.33944,-1.78467 -5.02856,-6.82942 -7.61119,-7.84478c-8.94969,-3.51858 -29.34711,5.0782 -36.89856,9.61941c0,0 -2.14373,1.28624 -3.42997,-0.85749c-1.28624,-2.14373 0.85749,-3.42997 0.85749,-3.42997c8.73121,-5.22577 30.85753,-14.19883 41.38446,-9.95134c3.47025,1.4002 5.70622,6.26979 8.69777,8.46418c4.0782,3.50503 12.34558,-3.40106 17.07642,-4.26446c14.08575,-2.57072 30.4774,-3.34086 44.39269,0.70923c4.46326,2.64771 8.92311,5.42318 12.60286,9.10292l2.03652,1.51953c0,0 2,1.5 0.5,3.5z" fill="#000000" stroke-width="0.5"/><path d="M262.30299,163.77248c-1.76777,-1.76777 0,-3.53553 0,-3.53553l1.6326,-1.36347c-0.18854,-2.28377 -0.4769,-4.91824 -0.14519,-7.12691c0.14493,-0.96503 0.89291,-1.76186 1.08726,-2.71816c0.6714,-3.30358 0.69337,-6.52559 1.65617,-9.90164c3.54,-17.40687 15.60033,-32.12951 34.60588,-27.37688c6.58448,1.64655 12.63996,3.46255 16.65622,9.18293c0,0 1.38675,2.08013 -0.69338,3.46688c-2.08013,1.38675 -3.46688,-0.69338 -3.46688,-0.69338c-2.8641,-4.64408 -8.71747,-5.85896 -13.78718,-7.12603c-16.10196,-4.02435 -25.58341,9.09255 -28.45544,23.72454c-1.95445,6.82769 -2.52032,13.43805 -2.83808,20.48207l-2.71646,2.98559c0,0 -1.76777,1.76777 -3.53553,0z" fill="#000000" stroke-width="0.5"/><path d="M246.1309,161.24292c-2.5,0 -2.5,-2.5 -2.5,-2.5l0.12829,0.24694c-2.08381,-6.4312 -1.43773,-13.90707 -1.08726,-20.65802c-2.57192,-3.18111 -2.90026,-6.8043 -5.91964,-9.89544c-2.69304,-2.75704 -5.77925,-2.71508 -9.20868,-3.70211c-5.99795,-1.72629 -11.41015,-4.85864 -17.65546,-5.92116c-8.88455,-1.51154 -17.1643,2.13527 -25.73131,2.20103c0,0 -2.5,0 -2.5,-2.5c0,-2.5 2.5,-2.5 2.5,-2.5c8.77663,0.08321 17.29078,-3.65701 26.45737,-2.14803c6.46022,1.06346 12.03895,4.28559 18.22426,6.03874c4.35619,1.23471 8.0069,1.61384 11.44934,4.996c3.66312,3.59897 4.32048,7.87702 7.12753,11.84984c0.2109,6.66168 -1.08529,14.36409 1.08726,20.65802l0.12829,1.3342c0,0 0,2.5 -2.5,2.5z" fill="#000000" stroke-width="0.5"/><path d="M207.78469,145.06592c-15.70536,8.18411 -6.37459,41.38711 6.84556,24.89559c1.97742,-4.67662 2.36267,-7.84257 2.36267,-12.84949c0,-1.26847 -0.04568,-2.53777 0,-3.80542c0.03307,-0.91779 0.65122,-1.92586 0.23603,-2.74504c-0.74431,-1.46853 -4.94172,-3.62378 -6.3673,-4.75808l-2.18803,-0.37445c0,0 -0.42699,-0.0854 -0.88893,-0.36312zM215.93532,143.28456c2.35918,1.58662 4.99454,3.4899 5.82158,5.15623c0.72192,1.45454 0.19184,3.24257 0.23603,4.86581c0.19548,7.1817 -0.18618,12.55786 -3.07365,19.2248c-3.46036,4.33149 -4.62321,5.48278 -10.29899,5.56411c-25.5071,0.36549 -13.65612,-39.74744 7.06722,-39.79245c0,0 2.5,0 2.5,2.5c0,2.01281 -1.62056,2.40506 -2.25218,2.4815z" fill="#000000" stroke-width="0.5"/><path d="M206.12028,158.19929c0,-1.38071 1.11929,-2.5 2.5,-2.5c1.38071,0 2.5,1.11929 2.5,2.5c0,1.38071 -1.11929,2.5 -2.5,2.5c-1.38071,0 -2.5,-1.11929 -2.5,-2.5z" fill="#000000" stroke-width="0.5"/><path d="M289.28855,151.3403c-0.17519,0.48752 -0.43307,0.80987 -0.43307,0.80987c-11.00677,12.98721 7.85278,37.79902 8.05137,8.76727c0.02253,-3.29408 -0.94057,-5.42832 -1.35382,-8.64142c-1.71122,-1.68557 -3.00304,-1.37385 -5.38793,-1.36211l-0.84033,0.41534c0,0 -0.01258,0.00419 -0.03622,0.01106zM286.09277,148.1954c0.35908,-1.17897 1.65086,-1.60957 1.65086,-1.60957l2.42147,-0.67192c4.88869,0.02006 6.2996,0.52141 9.83377,4.07421c0.98286,5.03695 1.92125,8.96659 1.90798,14.19112c-0.0781,30.74047 -34.06186,7.11241 -16.95571,-15.15254c0,0 0.43867,-0.54834 1.14164,-0.8313z" fill="#000000" stroke-width="0.5"/><path d="M289.83962,162.54834c0,-1.38071 1.11929,-2.5 2.5,-2.5c1.38071,0 2.5,1.11929 2.5,2.5c0,1.38071 -1.11929,2.5 -2.5,2.5c-1.38071,0 -2.5,-1.11929 -2.5,-2.5z" fill="#000000" stroke-width="0.5"/><path d="M276.35613,200.60259c0,2.5 -2.5,2.5 -2.5,2.5h-0.62311c-0.138,0.18253 -0.31335,0.36346 -0.53332,0.53944c-1.95217,1.56174 -3.51391,-0.39043 -3.51391,-0.39043c-0.03394,-0.04256 -0.06782,-0.08513 -0.10165,-0.12771c-1.85408,0.02325 -3.71257,0.04858 -5.55703,-0.0213c-0.77042,-0.02919 -1.59212,-0.48371 -2.30508,-0.1903c-2.04742,0.8426 -3.09354,3.90653 -5.30577,3.99573c-1.3055,0.05264 -2.22963,-1.36936 -3.39934,-1.95148c-1.56067,-0.77668 -3.16697,-1.51173 -4.85711,-1.93874c-2.50715,-0.63343 -3.906,-0.44327 -6.42161,-0.45883c-1.06373,-0.00658 -2.23447,0.42045 -3.19093,-0.04511c-0.14296,-0.06959 -0.28292,-0.14391 -0.42022,-0.22241l-0.03548,0.08871l-2.66409,-1.06564c-0.94948,-0.35452 -1.62559,-1.26971 -1.62559,-2.34282c0,-1.25484 0.92451,-2.29374 2.12954,-2.47274l2.76221,-0.46037c1.11411,-0.9067 2.0457,-2.03438 2.9077,-3.18371c4.5137,-3.19012 8.11425,-25.93056 18.27898,-21.03202c1.50541,0.72548 1.08787,3.16041 1.66165,4.72992c2.7977,7.65287 5.51468,14.71317 10.49769,21.54923c0.04781,0.00039 0.09513,0.00059 0.14195,0.00059h2.17453c0,0 2.5,0 2.5,2.5zM265.15569,197.73479c-4.45836,-6.7329 -7.45262,-13.84189 -8.35441,-21.62841c-0.22813,-1.96977 -2.62893,2.99118 -3.68836,4.66738c-3.18924,5.04594 -3.80504,11.948 -8.47606,15.61664c-0.28117,0.37489 -0.58041,0.73624 -0.89449,1.08521c0.308,0.03221 0.62027,0.064 0.93484,0.08963c3.27096,0.26651 7.44622,1.21125 10.28934,3.03246c0.45423,0.29097 0.42032,1.20673 0.94972,1.31031c0.37688,0.07374 0.27374,-0.73949 0.53652,-1.01953c0.88024,-0.93805 1.65892,-2.12425 2.85582,-2.59559c1.48223,-0.58371 3.63705,-0.64779 5.84707,-0.5581z" fill="#000000" stroke-width="0.5"/></g></g></svg>