<svg version="1.1" xmlns="http://www.w3.org/2000/svg" xmlns:xlink="http://www.w3.org/1999/xlink" width="198.73231" height="268.06211" viewBox="0,0,198.73231,268.06211"><g transform="translate(-129.87117,-20.29994)"><g fill="#000000" stroke="none" stroke-width="0.5" stroke-miterlimit="10"><path d="M141.57981,173.81782c0.28205,-0.14758 0.56984,-0.29117 0.86354,-0.43103c-0.28497,-0.0047 -0.56991,-0.00978 -0.85483,-0.01525zM137.25734,185.07443c-9.9574,20.00058 16.60747,25.35894 17.35688,5.1987c0.68548,-1.36426 1.70211,-2.60768 2.05643,-4.09279c0.59487,-2.49337 -0.07212,-5.12642 -0.06688,-7.68977c0.00313,-1.53356 0.85491,-3.40794 -0.11066,-4.59937c-0.61715,-0.7615 -3.64717,-0.48173 -4.27613,-0.4761c-0.53218,0.00477 -1.06444,0.00865 -1.59675,0.01158c-0.71292,1.17069 -1.64725,2.21985 -2.22594,3.46299c-0.78676,1.6901 -0.83945,3.96367 -2.32893,5.08477l1.82116,-0.4259c0,0 2.45145,0.49029 1.96116,2.94174c-0.49029,2.45145 -2.94174,1.96116 -2.94174,1.96116l-5.06563,-1.80326c0.20357,-2.45814 0.2131,-3.96229 0.52869,-5.55888c-2.17532,1.44318 -3.79411,3.33869 -5.11165,5.98511zM137.67709,176.43495c-1.41918,-0.88755 -0.97037,-2.6828 -0.97037,-2.6828l1.34627,-3.91614c3.1972,-1.06308 6.1013,-1.35927 9.16547,-1.42645c0.19112,-0.71951 0.3858,-1.43732 0.71804,-2.09813c1.23621,-2.45875 3.19088,-4.50163 4.49617,-6.92442c1.51648,-2.8148 3.26773,-5.54677 4.30777,-8.5702c0.52401,-1.52329 0.47141,-3.20081 0.95508,-4.73739c1.49772,-4.75819 4.23011,-9.14879 5.92587,-13.83981c1.19088,-3.29436 1.71032,-8.66741 4.01698,-11.27157c1.2204,-1.37779 5.26525,-2.21545 7.22453,-2.70528c13.28952,-5.18871 33.02746,-9.16093 46.99306,-4.82014c8.81058,2.7385 17.76389,7.3501 27.03183,8.05194c-0.00066,-0.2843 -0.001,-0.56865 -0.001,-0.85306c0,-1.95998 -0.92828,-10.91308 1.18567,-11.76814c2.48026,-1.00322 11.89817,3.82793 14.872,4.49249c18.73425,4.18655 27.0271,-9.33776 29.40145,-25.95818c-0.0087,-6.42672 -1.75287,-13.21686 -4.93055,-19.32455c-0.16804,0.86842 -0.34005,1.7358 -0.42466,2.59025c-0.17433,1.76039 0.39636,3.61075 -0.10956,5.30587c-0.37898,1.2698 -4.17868,5.77236 -5.54708,6.33988c-1.68695,0.69964 -7.32835,0.09539 -8.43666,-1.45985c-1.02759,-1.44198 -0.57543,-3.5179 -0.51076,-5.28738c0.14844,-4.06112 2.80583,-7.10152 5.53426,-9.72646c0.9328,-0.89742 1.6857,-2.10196 2.8771,-2.60797c0.44882,-0.19062 0.92768,-0.25083 1.41885,-0.25763c-1.55027,-2.19836 -5.01928,-2.52596 -7.34894,-2.50814h-2.75472c0,0 -2.5,0 -2.5,-2.5c0,-2.5 2.5,-2.5 2.5,-2.5h2.75472c0.90613,0.00555 1.84762,0.06456 2.7918,0.1912c-1.42079,-1.21048 -2.93101,-2.31015 -4.52451,-3.27779c-0.51587,0.48504 -1.034,0.94576 -1.55698,1.3648l-2.78577,2.08971c0,0 -2,1.5 -3.5,-0.5c-1.5,-2 0.5,-3.5 0.5,-3.5l1.2357,-0.9266c-1.46721,-1.07669 -3.19269,-1.75093 -4.80737,-2.6048c-6.77402,-1.09068 -14.32535,-0.21932 -20.89194,-0.24127c-12.09442,1.89095 -25.17291,19.28876 -19.85121,31.9067c4.19269,9.94101 11.97308,16.57506 21.20105,21.10616c2.7277,0.6868 5.28304,0.53339 8.08546,0.53339h0.68868c0,0 2.5,0 2.5,2.5c0,2.5 -2.5,2.5 -2.5,2.5h-0.68868c-3.4685,0 -6.43443,-0.00153 -9.8202,-0.84397c-10.39821,-5.25935 -19.81283,-12.8404 -24.25178,-24.34667c-6.19624,-16.06138 9.03418,-35.69321 24.22426,-38.33858c4.48414,-0.0129 9.3844,-0.3678 14.22594,-0.31291c-2.25212,-1.49958 -7.22276,-4.79376 -7.44505,-4.99437c-4.07493,-3.67749 -6.41716,-9.02242 -8.81076,-13.80962c0,0 -1.11803,-2.23607 1.11803,-3.3541c2.23607,-1.11803 3.3541,1.11803 3.3541,1.11803c2.09279,4.18557 4.13344,9.145 7.71755,12.36019c2.38651,2.14086 5.39482,3.46894 8.01862,5.31133c1.70984,1.20063 2.97628,2.98668 4.75305,4.08582c0.01129,0.00698 0.02258,0.01395 0.03389,0.02091c1.44708,0.26519 2.85937,0.61697 4.22198,1.07887c1.43158,0.48528 2.82056,1.05414 4.16463,1.69914c1.49535,-1.5019 2.99785,-3.00616 4.58112,-4.11728c2.11057,-1.48117 4.81202,-1.97407 6.91621,-3.46428c3.71469,-2.6308 6.26979,-4.50779 11.07386,-4.58308c0,0 2.5,0 2.5,2.5c0,2.5 -2.5,2.5 -2.5,2.5c-3.86862,-0.0877 -5.29024,1.65092 -8.20916,3.68107c-2.09728,1.45868 -4.76238,1.96055 -6.85737,3.42251c-1.0363,0.72317 -2.04114,1.6262 -3.0324,2.58825c12.88323,8.44392 20.61118,24.21596 20.59264,38.94765c-1.50407,10.52847 -7.08955,26.25906 -18.1945,31.10638c-4.65577,2.03225 -21.68635,0.36249 -27.06891,-4.07863c0.21437,1.91676 -0.18314,3.90858 -0.18314,5.85164c0,0.9623 -0.01357,1.94154 -0.03796,2.93529c0.02466,0.15672 0.03796,0.32576 0.03796,0.50811c0,0.25386 -0.02578,0.48194 -0.0721,0.68687c-0.43182,13.32305 -2.57151,29.02512 0.00522,41.43687c1.14271,5.50427 1.84179,10.96318 2.0595,16.66872c4.70057,0 9.40114,0 14.10172,0c2.0123,0 9.81533,-0.77443 11.40928,0.73223c4.05248,3.83056 3.48695,57.86979 3.48695,65.81397c-0.00685,1.49572 -0.23601,3.00702 -0.02055,4.48715c1.01168,6.94967 0.87527,13.45516 1.3528,20.52219c0.04212,0.62332 -0.21201,1.52513 0.32404,1.846c0.53566,0.32064 32.27553,0.00893 32.60304,-0.1659c0,0 2.23607,-1.11803 3.3541,1.11803c1.11803,2.23607 -1.11803,3.3541 -1.11803,3.3541c-1.53917,0.73469 -35.68289,1.30736 -37.64225,-0.1659c-2.75899,-2.07451 -3.82938,-26.60416 -3.85314,-30.99373c0,-9.39494 0.81755,-56.46239 -2.02248,-62.28037c-1.1563,-2.36875 -5.23784,0.73223 -7.87374,0.73223c-4.76042,0 -9.52084,0 -14.28126,0c-0.28989,0.66443 -0.912,1.37736 -2.24704,1.37736c-1.33504,0 -1.95714,-0.71293 -2.24704,-1.37736c-1.08747,0 -2.17493,0 -3.2624,0c-2.80385,0 -5.87149,-0.37609 -8.64737,-0.01873c-4.06039,0.52272 -7.8681,1.37538 -12.01301,1.39609l-1.75185,0c-0.26277,0.65585 -0.52554,1.31169 -0.78831,1.96754c-2.24189,4.45779 -6.20974,7.94329 -8.27895,12.4336c-3.43016,7.44366 -4.37088,16.88473 -6.76631,24.47635c-1.86049,5.89628 -6.85489,12.17552 -9.82361,17.65121c-3.73756,6.89379 -6.22863,15.3598 -8.75672,22.93442c-1.37407,5.49496 -3.71842,15.96545 -9.70774,18.82771c-6.30925,3.01515 -35.31075,-3.29394 -43.65482,-3.2531c0,0 -2.5,0 -2.5,-2.5c0,-2.5 2.5,-2.5 2.5,-2.5c6.9939,0.02952 37.17639,5.84669 41.7414,3.6337c4.18943,-2.03092 5.86077,-11.76628 6.82056,-15.60625c2.64457,-7.94325 5.28078,-16.61862 9.14894,-23.89577c2.75375,-5.18062 7.79346,-11.21463 9.45941,-16.78276c2.32854,-7.78268 3.49746,-17.50387 6.99977,-25.08228c2.09084,-4.52423 6.03969,-7.91859 8.25686,-12.38512c0.44559,-1.11591 0.89118,-2.23182 1.33677,-3.34773l3.00048,-2.52901c0,0 2.08013,-1.38675 3.46688,0.69338c0.05739,0.08609 0.10885,0.17099 0.15476,0.25466c3.59359,-0.09893 6.98259,-0.91585 10.54456,-1.34918c2.99065,-0.36383 6.24295,-0.01873 9.25829,-0.01873c0.9962,0 1.99241,0 2.98861,0c-0.19626,-18.66497 -1.72019,-37.41987 -2.00087,-56.41125c-6.2484,-0.5778 -11.33387,-3.12983 -17.46904,-4.78571c-18.70058,-5.04726 -36.49347,-6.29389 -55.06086,1.33984c-0.041,0.01025 -4.99206,1.19787 -5.17169,1.4268c-0.81997,1.04498 -0.73988,2.55203 -1.15483,3.81383c-1.17208,3.56416 -2.26799,6.87808 -3.7559,10.35739c-1.27727,2.98676 -2.88288,5.85128 -3.85079,8.95214c-0.49448,1.58415 -0.45471,3.30987 -1.00093,4.87694c-2.04141,5.85666 -6.269,10.58624 -8.99347,15.96881c2.78171,0.0027 5.6582,-0.24414 7.86344,2.27757c1.08775,1.24386 0.98955,3.16479 1.25453,4.79579c0.47761,2.9398 0.53716,9.19685 -0.05471,11.83959c-0.33942,1.51554 -1.38377,2.78091 -2.07565,4.17136c-0.72291,26.45842 -40.41192,18.70934 -26.71859,-8.57489c1.34824,-2.68639 2.95657,-4.79126 4.93443,-6.49062zM284.36869,68.39841c-2.64347,1.20835 -4.26133,5.07938 -5.0195,7.78441c-0.15104,0.53889 -0.73197,1.08532 -0.51076,1.59941c0.14742,0.34259 0.71689,-0.24215 1.08966,-0.25406c1.60696,-0.05133 3.71853,-1.04925 4.20963,-3.13006c0.33207,-1.40702 -0.22725,-2.89477 -0.10956,-4.33564c0.05038,-0.61677 0.18567,-1.15611 0.34052,-1.66406z"/><path d="M255.86851,57.75554c0.68692,0.27351 1.46168,0.89047 1.46168,2.2822c0,2.5 -2.5,2.5 -2.5,2.5c-0.43261,0 -5.01799,0.00878 -5.89266,-0.01873c-0.40883,-0.01286 -1.04213,-0.46351 -1.22327,-0.09677c-0.3901,0.78981 0.06649,1.76733 -0.0341,2.64246c-0.0472,0.41065 -0.72951,0.91704 -0.40438,1.17229c1.15308,0.90523 6.50312,1.6277 7.97506,1.13257c0.56784,-0.19101 0.76136,-0.92531 1.13411,-1.39434c1.70202,-2.14167 3.98436,-6.0725 0.65689,-7.89404c-0.30389,-0.16636 -0.717,-0.26682 -1.17333,-0.32562zM248.77447,57.41194c-0.62997,-0.30997 -1.26504,-0.93493 -1.26504,-2.19496c0,-2.5 2.5,-2.5 2.5,-2.5h2.75472c4.3926,0.02689 8.23925,0.37007 10.57385,4.98669c2.16412,4.27949 -1.96103,12.6272 -6.17374,14.28528c-1.10857,0.43632 -2.60459,0.58712 -4.22068,0.50951c1.69436,2.82688 3.30075,7.14631 3.99245,8.22964c0.50273,0.78736 1.39917,1.90077 2.28006,3.03504c0.4205,-2.26628 1.62286,-4.67386 3.11531,-5.44575c1.07906,-0.55809 4.25193,1.7399 7.4467,4.57786l2.62839,-1.4261c0.44189,1.94068 2.16973,3.40708 2.70107,5.3252c0.14325,0.51711 0.2264,1.04706 0.26744,1.58349c1.20747,1.31097 2.08133,2.38149 2.35164,2.9098c0,0 1.11803,2.23607 -1.11803,3.3541c-0.79457,0.39729 -1.44797,0.37105 -1.9602,0.17213c-0.13643,0.36557 -0.30563,0.71557 -0.51852,1.04071c-0.67675,1.03358 -2.09214,1.36626 -2.91805,2.28504c-2.66761,2.96758 -0.49725,7.27425 -4.48714,9.98975c-1.62593,1.1066 -4.16287,1.7072 -5.85757,0.70909c-1.38499,-0.81571 -0.75655,-3.13099 -0.96147,-4.72523c-0.21405,-1.66526 0.4118,-3.39824 0.04511,-5.03667c-0.13377,-0.5977 -1.89755,-4.49125 -2.32793,-5.20911c-1.52551,-2.54444 -3.20158,-0.3258 -5.46687,0.22828c-0.07585,0.01855 -0.149,0.03397 -0.21967,0.0464l-1.04393,2.08785c-0.40086,0.84561 -1.26228,1.43041 -2.26029,1.43041c-1.38071,0 -2.5,-1.11929 -2.5,-2.5v-2.75472l0.38397,0c-0.0461,-0.51739 -0.01189,-1.03092 0.14552,-1.53853c0.12271,-0.39571 0.40004,-0.64693 0.764,-0.8172c-0.48555,-3.35966 -1.96022,-6.45385 -1.98217,-10.04049c0,-2.2985 -0.62477,-6.6588 1.28629,-8.80389c-1.55014,-0.59124 -2.86037,-1.35148 -3.62811,-2.21611c-0.96407,-1.08574 -0.54066,-2.89157 -0.40438,-4.33715c0.18084,-1.91814 0.14583,-4.11234 1.34326,-5.62169c0.88234,-1.11218 2.74218,-1.51 4.73401,-1.61866zM270.5016,89.76127c-1.20917,-1.00937 -2.61545,-1.63892 -4.50693,-2.75558c-0.19535,-0.11533 -0.41349,-0.29751 -0.63798,-0.52185c0.33422,2.64733 -0.20492,5.94756 -2.57963,6.50908c0.18169,0.36924 0.35823,0.75113 0.53184,1.14332c0.96576,2.18169 1.54024,4.59534 1.5932,6.98318c0.91928,-2.74006 0.32934,-3.58271 2.47097,-6.18355c0.67429,-0.81887 1.91996,-1.02582 2.59139,-1.84704c0.8939,-1.09332 0.89679,-2.23307 0.53714,-3.32756zM254.6257,87.84368c-4.40628,-7.22129 -4.1823,-18.70091 -4.1823,-7.83425c-0.02371,3.09992 0.92674,5.8418 1.5256,8.72897c0.77472,-0.36287 1.55217,-0.7156 2.38842,-0.85367c0.09036,-0.01492 0.17978,-0.0286 0.26828,-0.04105z"/><path d="M306.04717,143.36792c0,-2.5 2.5,-2.5 2.5,-2.5l3.18407,0.26393c1.07952,0.56468 2.30614,0.90994 3.23855,1.69405c0.93486,0.78617 1.36698,2.04385 2.23194,2.90633c0.81399,0.81166 1.95475,1.24778 2.75837,2.0697c7.03168,7.19181 10.66403,18.97473 7.48006,28.74526c-2.47472,7.59409 -9.21857,14.51015 -15.51262,19.22095c-27.12792,13.21051 -25.9148,-30.99149 -10.74411,-42.01731c-0.41406,-2.57862 -0.63541,-5.23231 -0.57881,-7.74248c-2.1404,-4.2808 0.84902,-11.93038 -1.44224,-15.37747c-0.86627,-1.30327 -3.14087,0.25701 -4.69425,0.06738c-6.46104,-0.78874 -12.54963,-4.07847 -19.2239,-4.81419c-5.71792,-0.6303 -11.3133,0.68457 -16.97064,0.70085c0,0 -2.5,0 -2.5,-2.5c0,-2.5 2.5,-2.5 2.5,-2.5c7.03318,0.02351 40.02939,0.52749 44.50743,5.59554c3.72871,4.21999 0.22213,12.74371 2.68984,17.67913c0.04061,2.28814 0.18072,4.68752 0.49045,7.03791c2.48281,-0.27942 5.30437,-0.0107 7.40662,-0.0107c0,0 2.5,0 2.5,2.5c0,2.5 -2.5,2.5 -2.5,2.5c-1.28371,0 -3.27266,-0.22265 -5.10534,-0.19854c0.01946,0.14113 0.02987,0.29199 0.02987,0.45326c0,2.5 -2.5,2.5 -2.5,2.5l-2.41169,-1.20097c-8.11649,8.04204 -15.0824,43.96758 5.91812,33.07434c2.86107,-2.15141 4.69461,-4.40197 7.00116,-7.08685c1.19867,-1.39528 2.97009,-2.30338 3.93361,-3.8703c4.1151,-6.69215 4.3195,-15.80379 0.60825,-22.67111c-2.13513,-3.95087 -4.19401,-5.628 -7.17571,-8.61885c-1.30653,-1.31054 -2.49435,-2.88065 -4.17102,-3.66377l-0.948,0.26393c0,0 -2.5,0 -2.5,-2.5z"/></g></g></svg>