<svg version="1.1" xmlns="http://www.w3.org/2000/svg" xmlns:xlink="http://www.w3.org/1999/xlink" width="162.02011" height="231.06791" viewBox="0,0,162.02011,231.06791"><g transform="translate(-168.45909,-77.13725)"><g stroke="none" stroke-miterlimit="10"><path d="M204.3177,248.69651c0.51481,-2.05922 2.59056,-2.05778 5.18837,-1.04565c-0.0358,-0.29976 -0.0856,-0.61423 -0.15024,-0.94447c-4.5274,-9.42003 -1.26492,-35.61322 -6.58772,-42.57976c-2.45976,-3.21936 -12.604,-2.6036 -16.39141,-5.33609c-5.39226,-2.66778 -16.12192,-7.37739 -17.55217,-13.96807c-3.14017,-14.47005 14.58569,-36.65431 29.05274,-26.57044c8.87606,5.6217 8.76611,19.24581 16.14985,26.22065c0.9606,0.9074 1.49453,-2.20161 2.4417,-3.12303c0.21181,-0.20605 0.43134,-0.40284 0.65783,-0.59038c-1.32858,-1.91485 -2.16872,-4.19678 -3.13785,-6.42622c-5.24383,-3.36837 -3.63551,-6.95398 -4.72318,-12.36147c-1.42624,-7.09073 -5.66414,-13.95425 -3.47091,-21.65307c2.98011,-10.46095 10.02451,-17.91379 9.87273,-29.80908c0,-10.36526 -1.46742,-23.44997 7.34507,-30.63754c4.42348,-3.60785 15.74349,-3.68433 20.2002,0c0.31945,0.26408 1.10814,3.16376 2.55486,2.02765c4.75258,-3.73217 5.41775,-4.99111 12.1019,-3.56271c5.29877,3.84964 10.46239,9.64801 17.13651,10.98476c3.03282,0.60744 4.02759,-1.3654 6.68715,2.08781c5.02834,6.52889 0.76828,22.0255 8.57227,32.57047c12.32369,9.50045 11.34304,55.34504 -5.87036,56.42932c0,0 -0.15779,0 -0.39409,-0.03964c0.41806,2.49858 0.58815,5.21766 1.93463,7.36093c0.41714,0.66398 0.89191,1.29314 1.39939,1.8909c0.33834,0.39852 0.73344,0.74685 1.12959,1.08795c0.03369,0.02901 0.07987,0.07221 0.12977,0.11743c0.09558,-0.0437 0.1918,-0.0788 0.28777,-0.10652c-0.12027,-0.72551 -0.58768,-1.41992 -0.49503,-2.14821c0.35682,-2.80477 2.1329,-5.88477 3.02063,-8.54376c2.52045,-7.5494 7.56332,-15.8296 14.8205,-19.63789c4.2764,-1.70112 9.03308,-5.78166 13.99926,-4.23128c9.11113,2.84438 11.94882,20.12975 9.30769,27.8613c-2.56697,7.51445 -14.15474,16.42672 -20.4485,20.20298c-1.34742,2.81253 -3.87973,3.93098 -6.24332,5.08557c-0.33014,0.49886 -0.89617,0.94006 -1.86659,0.98653c-0.88101,0.52857 -1.67354,1.14069 -2.28715,1.95195c-3.16521,4.18471 2.58287,15.78411 1.64029,20.64043c-1.60535,8.27104 -7.56164,11.51477 -11.30824,18.1302c-1.0516,1.85683 1.31631,4.48621 1.68018,6.5912c8.23014,7.57574 21.85866,25.54343 13.31931,37.78486c-4.50492,6.45795 -15.75701,9.67432 -23.1543,12.12861c-12.70336,1.84475 -21.57542,0.52311 -27.96755,-11.19354c-3.0362,-5.5653 -2.71223,-13.72048 -2.65283,-19.95774c0.01299,-1.36375 -0.20059,-2.75356 0.06688,-4.09089c0.10771,-0.53856 1.09626,-1.43305 1.3809,-1.7815c-0.01792,-0.03805 -0.03536,-0.07714 -0.05229,-0.11728c-0.00941,0.00371 -0.01938,0.00779 -0.02992,0.01227c-1.69947,0.72174 -2.48099,2.63304 -3.61631,4.0674c-0.6777,3.90188 -3.044,19.19759 -9.35344,14.11979c-2.6411,5.84249 -5.74672,14.09389 -10.97097,16.88635c-7.93344,4.24056 -43.04323,0.29752 -46.90501,-6.87905c-4.09589,-8.63913 1.05048,-20.99145 7.50132,-27.50137c2.67281,-2.69729 7.97228,-4.14744 9.43279,-8.007c0.45624,-1.20567 0.03354,-2.71224 0.72825,-3.79815c2.19779,-3.43536 5.88564,-4.22443 8.4136,-5.7789c0.0162,-0.07377 0.0347,-0.14797 0.05537,-0.22238c-0.00039,-0.01817 -0.00059,-0.03638 -0.00059,-0.05464c0,-0.52293 0.16055,-1.00836 0.43506,-1.40968c-1.84218,-1.67152 -3.04826,-2.98447 -3.01439,-3.11993zM223.66685,256.91861c-0.1122,0.53165 -0.2391,0.96922 -0.37894,1.32503c0.01857,0.11377 0.02946,0.23013 0.03213,0.34852c0.54581,0.26086 1.36628,0.0699 1.93308,0.36168c1.60293,0.82516 2.966,2.07431 4.5819,2.87377l1.43079,0.45044c0,0 0.95899,0.31966 1.45409,1.16225c0.9955,-0.53674 2.11391,-0.81266 3.14299,-0.60476c5.94311,1.20068 6.01227,10.27082 5.40905,15.91433c0.07998,0.1909 0.15047,0.38319 0.21101,0.57731c0.4331,-1.13932 0.94703,-2.25617 1.19296,-3.44601c0.23898,-1.15623 0.50351,-2.30704 0.75527,-3.46056c2.32009,-3.21082 4.97855,-8.99262 10.44973,-6.48213c0.19183,0.08802 0.36794,0.19559 0.52941,0.32108c1.22645,-1.67464 2.7248,-3.63288 4.77691,-4.03863c0.89552,-0.17707 1.82239,-0.1224 2.7377,0.05264c4.5977,-10.35268 16.02568,-18.0528 18.27874,-28.67461c1.33152,-6.27732 -1.66887,-11.17963 -2.86199,-16.78291c-1.84234,-3.83329 -1.30749,-7.75415 -1.30749,-11.94695c0,-2.72878 0.58705,-5.68414 -0.85158,-8.15255c-1.69418,-2.90689 -4.32288,-5.57999 -7.25059,-7.25059c-0.7871,-0.44913 -1.76515,-0.59885 -2.58317,-0.97756c-2.8243,3.78595 -6.4072,8.13125 -10.36196,8.32901c-1.10503,0.05526 -1.99707,-0.97109 -3.05178,-1.30533c-3.62053,-1.14732 -6.75857,-2.95726 -9.9162,-4.7678c-0.33029,0.13827 -0.58316,0.18042 -0.58316,0.18042c-6.89296,0.84942 -21.94048,36.73065 -21.94048,44.42081c0,2.8495 -0.65073,7.14511 -0.06688,9.97515c0.1629,0.78961 0.89078,1.37161 1.1165,2.14561c0.47209,1.61876 0.1272,3.40028 0.29548,5.0736c1.99328,0.92685 3.25076,2.36817 2.82646,4.37874zM211.39489,256.36978c-2.74332,1.37581 -6.53514,1.52943 -8.65373,5.44252c-4.56138,8.425 -23.82572,22.8639 -17.50274,34.54018c1.60596,3.67663 35.29906,7.53864 39.83556,4.84265c4.85032,-2.88249 7.83294,-12.39732 10.30764,-17.34673c0.43668,-0.5254 0.72199,-1.03949 0.88201,-1.54507c0.01271,-0.5774 0.043,-1.17354 0.08308,-1.77321c-0.88621,-4.28691 -9.00517,-8.17773 -6.81107,-13.56022l-1.93669,-0.67016c-1.68141,-0.84818 -3.172,-2.03264 -4.79546,-2.98708c-1.15771,-0.68063 -2.74652,-0.73931 -3.6276,-1.75284c-0.42137,-0.48471 -0.51982,-1.13232 -0.59467,-1.7979c-0.09146,-0.18377 -0.16097,-0.38038 -0.2051,-0.58642c-0.00421,-0.00255 -0.00842,-0.0051 -0.01262,-0.00767c-1.59965,-0.53194 -3.34308,-1.49199 -5.04036,-2.62258c-0.63483,-0.04014 -1.29612,-0.09638 -1.92825,-0.17549zM200.09462,197.14289l2.93042,-0.58608c5.46364,-0.94896 4.32658,-4.70674 6.38671,-9.06483c-5.48852,-5.25194 -8.62669,-21.92915 -14.32442,-25.0907c-10.75169,-9.02908 -22.44269,12.20465 -21.35056,21.48852c0.50463,4.28972 11.93332,8.96504 15.26858,10.6475c2.76986,2.1824 6.55315,2.41369 10.11572,3.02156c0.49301,-0.31986 0.97353,-0.41596 0.97353,-0.41596zM213.95659,189.57676c-2.20018,4.26772 -1.34321,8.67539 -6.49041,11.12767c-0.25671,0.1223 -0.52358,0.2149 -0.79695,0.28853c7.55793,8.57859 1.95357,33.66124 7.41597,44.09075c0.30483,1.50235 0.48514,2.80082 0.55837,3.92733c0.39057,-0.00292 0.77941,0.01346 1.16025,0.04689c-0.00454,-0.01516 -0.00915,-0.0303 -0.01383,-0.04542c-0.2783,-0.89924 -1.04752,-1.61918 -1.22784,-2.54307c-0.63877,-3.27297 -0.06688,-7.7943 -0.06688,-11.12391c0,-13.52651 6.91789,-17.44515 11.30381,-28.44748c2.73198,-6.85332 3.97451,-15.45423 10.41001,-19.2687c-0.29523,-0.13816 -0.59293,-0.27326 -0.89344,-0.40486c-0.28015,-0.12268 -0.56341,-0.23341 -0.84937,-0.33372c-0.28372,0.22369 -0.65968,0.40356 -1.15642,0.50291c-1.63994,0.32799 -2.40223,-0.6605 -2.7272,-1.35089c-2.92001,-0.37191 -5.93053,-0.39921 -8.67364,-1.46845c-2.76005,1.22472 -5.63539,2.8056 -7.67339,3.69543c0.01368,0.72155 -0.27904,1.307 -0.27904,1.307zM260.92428,181.80731c0.79057,-2.37171 3.16228,-1.58114 3.16228,-1.58114l1.08806,0.67136c0.72222,-0.49788 1.46515,-0.97386 2.03806,-1.6296c0.61058,-0.69885 0.59852,-1.84357 1.28203,-2.47127c3.62931,-3.33297 9.49066,-3.13308 14.14209,-3.14572h1.75825c0,0 1.59255,0 2.23551,1.27106c7.9989,-4.72753 9.50424,-40.57675 0.09932,-47.4066c-1.17188,-1.54864 -2.13589,-3.04151 -2.92993,-4.48453c-2.73597,7.9577 -12.42978,11.95532 -20.90137,8.53169c-7.4028,-2.9917 -11.48936,-11.10567 -13.24564,-19.21545c-0.78304,6.97507 -3.5769,13.01988 -8.63988,15.83364c-3.33203,0 -6.21173,2.26368 -9.60709,1.09812c-1.3616,-0.46741 -2.24365,-1.81243 -3.45029,-2.59757c-2.97159,-1.93356 -6.10951,-3.51259 -9.00401,-5.58284c-2.19211,7.08138 -5.98198,13.20515 -8.33838,20.55471c-2.10758,6.57348 2.35292,13.29773 3.56211,19.37287c0.91574,4.60079 -0.99138,7.4443 3.48201,9.90976c1.10966,2.06979 2.02052,5.50717 3.87358,7.51865c4.50807,-1.32172 9.67843,-0.26503 12.32161,3.14764c1.19332,0.22536 2.3681,0.5471 3.5039,1.05785c4.6215,2.0782 8.62571,5.72624 13.36102,7.56956c1.47606,0.57459 2.90628,1.38916 4.47717,1.59222c1.26887,0.16402 4.49461,-3.94081 6.82216,-7.08555c-0.64741,-0.38108 -1.64665,-1.26665 -1.09257,-2.92888zM273.00118,187.04481c2.57743,1.93526 4.98593,4.32862 6.54026,7.22212c3.52264,6.55763 -0.7781,14.61094 2.52961,20.92644c1.1888,6.42318 4.63598,12.39207 2.99886,19.55436c-2.59041,11.33289 -13.90195,18.7386 -18.56904,29.52882c1.61775,1.34453 3.03237,3.16781 4.84856,3.9518c4.33436,1.87099 11.7195,3.66177 14.27986,-2.25467c0.54407,-1.25722 0.37393,-3.60867 0.36835,-4.84042c0,0 0,-0.59188 0.28799,-1.19965c-0.9626,-4.27415 -3.60619,-6.34059 -1.82851,-10.95639c2.6611,-6.90964 9.33691,-9.19997 10.96299,-17.03489c1.45499,-7.01055 -5.47651,-15.90611 -0.70405,-22.72986c0.91877,-1.31368 2.18438,-2.15954 3.54862,-2.89589c-0.05869,-0.75477 -0.08616,-1.51737 -0.34377,-2.22224c-0.56687,-1.55104 -2.56527,-2.30953 -3.57194,-3.31832c-1.9139,-1.91793 -2.72582,-3.56146 -4.84021,-4.86978c-2.11866,0.20802 -4.08184,-1.25083 -5.70932,-2.74932c-3.52929,-3.24957 -3.86107,-7.71034 -4.69951,-12.09204l-1.03202,-2.01512c-0.55683,0.06803 -1.11392,0.13178 -1.67186,0.17875c-1.93827,0.16317 -2.76942,-0.72539 -4.23274,0.9654c-0.53634,0.61971 -0.52217,1.601 -1.06231,2.21741c-0.69012,0.78757 -1.56893,1.37989 -2.41488,2.00622c1.10065,0.97819 2.63474,1.36562 4.31505,2.62727zM290.19382,268.01453c-3.81732,8.46599 -13.89756,7.95266 -20.88524,4.77835c-2.33725,-1.06175 -6.03126,-6.31371 -8.93685,-5.71428c-0.65629,0.13539 -2.68306,3.15771 -2.69485,3.17376l-1.65241,0.8117c0.11079,3.98071 -1.01286,9.10216 -0.79018,11.50799c1.49745,16.17842 8.22279,22.3647 24.48377,20.08445c26.41003,-8.84588 26.16848,-20.16035 11.21259,-37.57165c-0.09648,0.99015 -0.30379,1.96928 -0.73683,2.92968zM297.88451,197.24049c1.58902,1.58547 3.76131,2.81843 4.63325,4.88687c0.21202,0.50296 0.33497,1.03256 0.42146,1.57305c0.97153,-0.72906 1.83507,-1.63334 2.47883,-2.87427c5.27846,-3.16708 17.31047,-11.95464 19.40527,-18.47863c1.50397,-4.68392 0.16365,-19.7074 -5.93052,-21.36983c-3.33449,-0.90962 -7.7251,2.81141 -10.61631,3.97391c-1.36507,0.62663 -2.2988,1.93966 -3.35897,3.00368c-0.68946,0.69196 -1.64485,1.07644 -2.34434,1.75825c-1.63942,1.598 -1.36038,2.29838 -2.57156,4.23524c-2.15059,3.4391 -3.75135,6.1934 -5.03671,10.04654c-0.60849,1.82408 -1.24881,3.64563 -1.66805,5.52228c-0.21055,0.9425 0.05918,2.07393 0.03188,3.06167c1.65204,1.3621 2.82505,2.9344 4.55576,4.66124zM235.64721,270.87263c0.20631,0.86976 0.50735,1.70462 1.06917,2.33834c-0.17331,-0.92711 -0.61909,-1.64478 -1.06917,-2.33834zM260.86922,87.08593c0.01017,-0.04562 0.02174,-0.093 0.03493,-0.14175c-1.7038,-1.31933 -3.37929,-2.70232 -5.07551,-4.04281c-2.80992,-0.49585 -5.12739,2.54055 -7.82498,3.47031c-1.38204,0.47634 -2.89643,0.26008 -4.49448,-0.28166c2.83711,4.12571 4.77671,9.30502 5.7183,14.64299c0.465,-0.56731 0.9356,-1.13137 1.23672,-1.79354c0.48834,-1.07386 0.20095,-2.46395 0.88158,-3.42748c0.54474,-0.77115 1.86257,-0.6432 2.4914,-1.34746c1.37075,-1.53518 1.03314,-4.3167 2.66656,-5.56876c1.22328,-0.93767 2.86195,-1.07972 4.36547,-1.50985z" fill="#000000" stroke-width="0.5"/><path d="M223.62926,256.95161c0.4243,-2.01057 -0.83769,-3.45788 -2.83097,-4.38473c-0.16828,-1.67332 0.1733,-3.46086 -0.29879,-5.07962c-0.22572,-0.774 -0.95503,-1.35943 -1.11793,-2.14904c-0.58385,-2.83004 0.06375,-7.14084 0.06375,-9.99034c0,-7.69016 15.08785,-43.62282 21.98081,-44.47224c0,0 0.25355,-0.04228 0.58384,-0.18055c3.15763,1.81054 6.3073,3.61975 9.92783,4.76707c1.05471,0.33424 1.9509,1.36099 3.05593,1.30573c3.95476,-0.19776 7.54695,-4.54086 10.37125,-8.32681c0.81802,0.37871 1.79877,0.52944 2.58587,0.97857c2.92771,1.6706 5.56572,4.34869 7.2599,7.25558c1.43863,2.46841 0.85692,5.42796 0.85692,8.15674c0,4.1928 -0.52587,8.12439 1.31647,11.95768c1.19312,5.60328 4.20105,10.53149 2.86953,16.80881c-2.25306,10.62181 -13.71147,18.36845 -18.30917,28.72113c-0.91531,-0.17504 -1.84611,-0.22823 -2.74163,-0.05116c-2.05211,0.40575 -3.55914,2.36601 -4.78559,4.04065c-0.16147,-0.12549 -0.33832,-0.23296 -0.53015,-0.32098c-5.47118,-2.51049 -8.1441,3.27102 -10.46419,6.48184c-0.25176,1.15352 -0.51649,2.3043 -0.75547,3.46053c-0.24593,1.18984 -0.76049,2.30658 -1.19359,3.4459c-0.06054,-0.19412 -0.13137,-0.38647 -0.21135,-0.57737c0.60322,-5.64351 0.52169,-14.71775 -5.42142,-15.91843c-1.02908,-0.2079 -2.15081,0.06626 -3.14631,0.603c-0.4951,-0.84259 -1.4564,-1.16368 -1.4564,-1.16368l-1.43252,-0.45163c-1.6159,-0.79946 -2.98487,-2.05357 -4.5878,-2.87873c-0.5668,-0.29178 -1.38884,-0.10243 -1.93465,-0.36329c-0.00267,-0.11839 -0.01382,-0.23503 -0.03239,-0.3488c0.13984,-0.35581 0.26605,-0.79415 0.37825,-1.3258z" fill="#c3c3c3" stroke-width="0.25"/><path d="M290.95854,265.04335c14.95589,17.4113 15.17375,28.8171 -11.23628,37.66298c-16.26098,2.28025 -23.0404,-3.95918 -24.53785,-20.1376c-0.22268,-2.40584 0.90777,-7.54933 0.79698,-11.53004l1.65407,-0.81433c0.01179,-0.01605 2.04386,-3.04493 2.70015,-3.18033c2.90559,-0.59943 6.6049,4.64773 8.94215,5.70948c6.98768,3.17431 17.12869,3.68698 20.94601,-4.77901c0.43304,-0.9604 0.63828,-1.94099 0.73476,-2.93115z" fill="#c9e0ed" stroke-width="0.5"/><path d="M293.28675,192.60637c0.02729,-0.98774 -0.24597,-2.12566 -0.03542,-3.06816c0.41924,-1.87664 1.05546,-3.71284 1.66395,-5.53693c1.28536,-3.85315 2.89849,-6.64676 5.04908,-10.08586c1.21119,-1.93686 0.9458,-2.64798 2.58521,-4.24597c0.69949,-0.68182 1.66386,-1.07004 2.35331,-1.76199c1.06017,-1.06401 2.00558,-2.37916 3.37066,-3.00578c2.89121,-1.1625 7.30531,-4.8792 10.6398,-3.96958c6.09417,1.66243 7.46395,16.73175 5.95998,21.41568c-2.0948,6.52398 -14.18706,15.36023 -19.46552,18.52731c-0.64376,1.24092 -1.51129,2.1442 -2.48282,2.87326c-0.08649,-0.5405 -0.21138,-1.07071 -0.4234,-1.57367c-0.87194,-2.06844 -3.05838,-3.30895 -4.6474,-4.89442c-1.73071,-1.72684 -2.9154,-3.31177 -4.56744,-4.67388z" fill="#c9e0ed" stroke-width="0.5"/><path d="M199.13989,197.60518c-3.56257,-0.60787 -7.37266,-0.83614 -10.14252,-3.01853c-3.33527,-1.68246 -14.8041,-6.39361 -15.30873,-10.68332c-1.09213,-9.28386 10.65753,-30.58001 21.40922,-21.55093c5.69772,3.16155 8.87042,19.90933 14.35894,25.16127c-2.06014,4.35809 -0.94088,8.1361 -6.40451,9.08506l-2.93646,0.58944c0,0 -0.48293,0.09716 -0.97594,0.41701z" fill="#c9e0ed" stroke-width="0.5"/><path d="M268.66997,184.37022c0.84595,-0.62633 1.72798,-1.21964 2.4181,-2.0072c0.54014,-0.61641 0.52767,-1.59812 1.06402,-2.21783c1.46333,-1.69079 2.29915,-0.80308 4.23742,-0.96624c0.55794,-0.04697 1.11686,-0.11092 1.67369,-0.17896l1.03297,2.01504c0.83844,4.3817 1.17624,8.84238 4.70553,12.09195c1.62748,1.49849 3.60048,2.95877 5.71914,2.75075c2.11439,1.30832 2.93672,2.95571 4.85062,4.87364c1.00667,1.00879 3.01284,1.77213 3.57971,3.32317c0.25761,0.70487 0.28767,1.46958 0.34637,2.22435c-1.36425,0.73635 -2.63136,1.58095 -3.55013,2.89463c-4.77247,6.82375 2.17116,15.78296 0.71617,22.7935c-1.62608,7.83492 -8.34113,10.15038 -11.00223,17.06002c-1.77768,4.6158 0.8562,6.58271 1.8188,10.85687c-0.28799,0.60777 -0.27759,1.29911 -0.27759,1.29911c0.00558,1.23175 0.17471,3.58329 -0.36936,4.84051c-2.56036,5.91644 -9.96165,4.12428 -14.29601,2.2533c-1.8162,-0.78399 -3.20002,-2.70217 -4.81777,-4.04671c4.66709,-10.79021 15.94736,-18.19785 18.53776,-29.53074c1.63711,-7.16229 -1.79567,-13.03285 -2.98447,-19.45603c-3.30771,-6.3155 0.99603,-14.369 -2.52661,-20.92663c-1.55433,-2.8935 -3.95536,-5.28814 -6.5328,-7.2234c-1.68031,-1.26165 -3.24269,-1.74491 -4.34334,-2.72309z" fill="#ececec" stroke-width="0.5"/><path d="M210.39269,250.58373c0,-2.5 2.5,-2.5 2.5,-2.5h1.6278c-0.0968,-0.9031 -0.25476,-1.90554 -0.48096,-3.02037c-5.4624,-10.42951 0.19174,-35.44197 -7.36619,-44.02057c0.27337,-0.07362 0.53298,-0.26595 0.78968,-0.38826c5.1472,-2.45228 4.2969,-6.85993 6.49708,-11.12765c0,0 0.29289,-0.58544 0.27921,-1.30699c2.038,-0.88983 4.91945,-2.46988 7.6795,-3.69459c2.74311,1.06924 5.76062,1.09847 8.68063,1.47038c0.32498,0.69039 1.08959,1.67978 2.72953,1.35179c0.49674,-0.09935 0.87336,-0.27895 1.15708,-0.50263c0.28596,0.10031 0.5699,0.21134 0.85005,0.33402c0.30051,0.1316 0.55658,0.35762 0.85181,0.49578c-6.4355,3.81446 -7.67657,12.41603 -10.40855,19.26935c-4.38592,11.00233 -11.26025,14.83107 -11.26025,28.35758c0,3.32961 -0.555,7.9239 0.08377,11.19687c0.11225,0.57518 0.45062,1.07383 0.75721,1.58529h1.0491c0,0 2.5,0 2.5,2.5c0,2.5 -2.5,2.5 -2.5,2.5h-0.31171c0.00249,0.83336 0.05465,1.65628 0.30713,2.43766c0.32475,1.00506 1.40807,1.61372 1.84894,2.57354c0.50563,1.1008 0.10541,2.50586 0.90016,3.42008c0.88108,1.01353 2.46532,1.07478 3.62303,1.75541c1.62346,0.95444 3.11054,2.14133 4.79196,2.98951l1.99863,0.74865c-2.1941,5.38249 5.92195,9.27552 6.80816,13.56243c-0.04007,0.59968 -0.07132,1.19647 -0.08403,1.77387c-0.16002,0.50559 -0.44673,1.02058 -0.88341,1.54598c-2.47471,4.94941 -5.47127,14.47021 -10.32159,17.3527c-4.5365,2.69599 -38.26335,-1.16919 -39.86931,-4.84582c-6.32298,-11.67628 12.98126,-26.20683 17.54264,-34.63183c3.1133,-5.75037 9.80309,-3.36726 11.48795,-8.68218h-1.35506c0,0 -2.5,0 -2.5,-2.5z" fill="#ededed" stroke-width="0.5"/><path d="M256.54387,88.56595c-1.63342,1.25206 -1.30763,4.10462 -2.67839,5.6398c-0.62883,0.70426 -1.98624,0.5838 -2.53097,1.35496c-0.68063,0.96353 -0.39382,2.35349 -0.88216,3.42735c-0.30112,0.66216 -0.77568,1.22509 -1.24069,1.79239c-0.9416,-5.33798 -2.90721,-10.59212 -5.74432,-14.71784c1.59804,0.54174 3.12361,0.74589 4.50565,0.26956c2.6976,-0.92976 5.06458,-3.97296 7.8745,-3.47711c1.69622,1.34049 3.39652,2.74545 5.10032,4.06478c-0.01318,0.04874 -0.11238,0.14432 -0.12254,0.18995c-1.50352,0.43013 -3.05813,0.51849 -4.28141,1.45616z" fill="#ececec" stroke-width="0.5"/><path d="M262.032,184.78384c-2.32754,3.14474 -5.56398,7.25172 -6.83285,7.0877c-1.57088,-0.20306 -3.00677,-1.01744 -4.48283,-1.59203c-4.73531,-1.84333 -8.75947,-5.49605 -13.38098,-7.57425c-1.1358,-0.51075 -2.31522,-0.83497 -3.50855,-1.06033c-2.64318,-3.41267 -7.82535,-4.47924 -12.33342,-3.15752c-1.85305,-2.01148 -2.77003,-5.45755 -3.87969,-7.52734c-4.47339,-2.46545 -2.57118,-5.32161 -3.48692,-9.92241c-1.2092,-6.07514 -5.66951,-12.82332 -3.56194,-19.3968c2.3564,-7.34956 6.15844,-13.49541 8.35055,-20.57679c2.89449,2.07024 6.0346,3.6471 9.0062,5.58066c1.20664,0.78514 2.0896,2.12933 3.4512,2.59674c3.39536,1.16556 6.28794,-1.1064 9.61996,-1.1064c5.06298,-2.81376 7.87465,-8.86282 8.65769,-15.83789c1.75628,8.10978 5.86939,16.22985 13.27219,19.22155c8.47159,3.42363 18.17845,-0.56368 20.91442,-8.52137c0.79404,1.44302 1.7619,2.94072 2.93378,4.48937c9.40492,6.82985 7.9005,42.73508 -0.09841,47.4626c-0.64296,-1.27106 -2.23562,-1.2709 -2.23562,-1.2709l-1.75897,0.00106c-4.65143,0.01263 -10.52564,-0.17451 -14.15496,3.15847c-0.68351,0.6277 -0.67477,1.7745 -1.28535,2.47335c-0.57291,0.65573 -1.31944,1.13359 -2.04165,1.63147l-1.08909,-0.67089c0,0 -2.37702,-0.78857 -3.16759,1.58314c-0.55408,1.66223 0.4454,2.54773 1.09281,2.9288z" fill="#ececec" stroke-width="0.5"/><path d="M227.15524,148.41104c1.95217,-1.56174 3.51391,0.39043 3.51391,0.39043l1.96386,2.548c0.63023,0.29342 1.26045,0.58684 1.89068,0.88027c0,0 2.23607,1.11803 1.11803,3.3541c-1.11803,2.23607 -3.3541,1.11803 -3.3541,1.11803c-0.93267,-0.48802 -1.86533,-0.97605 -2.798,-1.46407l-2.72482,-3.31285c0,0 -1.56174,-1.95217 0.39043,-3.51391z" fill="#000000" stroke-width="0.5"/><path d="M265.06376,147.42327c1.76777,1.76777 0,3.53553 0,3.53553l-0.48849,-0.10531c-0.35026,1.31921 -0.26151,2.84404 -1.05077,3.95762c-0.67529,0.95277 -2.03456,1.14963 -3.01678,1.78131c-0.98083,0.63079 -1.75856,1.64439 -2.8681,2.00334c-1.18081,0.382 -2.48066,0.08553 -3.72099,0.12829c0,0 -2.5,0 -2.5,-2.5c0,-2.5 2.5,-2.5 2.5,-2.5c2.7176,0.16293 5.58013,-1.12945 5.75374,-3.85114l1.85585,-2.44965c0,0 1.76777,-1.76777 3.53553,0z" fill="#000000" stroke-width="0.5"/><path d="M237.37603,105.5292c2.5,0 2.5,2.5 2.5,2.5l-0.06688,3.28127c-0.45238,0.95461 -0.90476,1.90922 -1.35715,2.86384c0,0 -1.11803,2.23607 -3.3541,1.11803c-2.23607,-1.11803 -1.11803,-3.3541 -1.11803,-3.3541c0.32101,-0.59218 0.64203,-1.18436 0.96304,-1.77653l-0.06688,-2.1325c0,0 0,-2.5 2.5,-2.5z" fill="#eed80a" stroke-width="0.5"/><path d="M264.05817,106.68929c2.5,0 2.5,2.5 2.5,2.5c0,1.80459 0,4.76927 0,6.57386c0,0 0,2.5 -2.5,2.5c-2.5,0 -2.5,-2.5 -2.5,-2.5c0,-1.80459 0,-3.60918 0,-5.41377v-1.16009c0,0 0,-2.5 2.5,-2.5z" fill="#eed80a" stroke-width="0.5"/></g></g></svg>