<svg version="1.1" xmlns="http://www.w3.org/2000/svg" xmlns:xlink="http://www.w3.org/1999/xlink" width="28.30424" height="69.53538" viewBox="0,0,28.30424,69.53538"><g transform="translate(-223.95047,-150.79009)"><g stroke-miterlimit="10"><g><path d="M230.47406,209.8066c0,-5.3952 4.37367,-9.76887 9.76887,-9.76887c5.3952,0 9.76887,4.37367 9.76887,9.76887c0,5.3952 -4.37367,9.76887 -9.76887,9.76887c-5.3952,0 -9.76887,-4.37367 -9.76887,-9.76887z" fill="#ffff66" stroke="#000000" stroke-width="1.5"/><path d="M225.14623,213.40566c0,-2.5 2.5,-2.5 2.5,-2.5c0.85692,0 3.25629,0 4.11321,0c0,0 2.5,0 2.5,2.5c0,2.5 -2.5,2.5 -2.5,2.5c-0.85692,0 -1.71384,0 -2.57075,0h-1.54245c0,0 -2.5,0 -2.5,-2.5z" fill="#c1c1c1" stroke="none" stroke-width="0.5"/><path d="M252.25472,213.40566c0,2.5 -2.5,2.5 -2.5,2.5l-3.03205,-0.10543c-0.85692,-0.25708 -1.71384,-0.51415 -2.57075,-0.77123c0,0 -2.39457,-0.71837 -1.6762,-3.11294c0.71837,-2.39457 3.11294,-1.6762 3.11294,-1.6762c0.85692,0.25708 1.71384,0.51415 2.57075,0.77123l1.59531,-0.10543c0,0 2.5,0 2.5,2.5z" fill="#c1c1c1" stroke="none" stroke-width="0.5"/><path d="M251.47663,204.57536c1.11803,2.23607 -1.11803,3.3541 -1.11803,3.3541l-1.42797,0.67265c-0.85692,0.25708 -1.71384,0.51415 -2.57075,0.77123c0,0 -2.39457,0.71837 -3.11294,-1.6762c-0.71837,-2.39457 1.6762,-3.11294 1.6762,-3.11294c0.85692,-0.25708 1.71384,-0.51415 2.57075,-0.77123l0.62864,-0.35565c0,0 2.23607,-1.11803 3.3541,1.11803z" fill="#c1c1c1" stroke="none" stroke-width="0.5"/><path d="M226.73723,202.88943c0.49029,-2.45145 2.94174,-1.96116 2.94174,-1.96116l1.04385,0.22093c0.85692,0.08569 1.71384,0.17138 2.57075,0.25708c0,0 2.48759,0.24876 2.23883,2.73635c-0.24876,2.48759 -2.73635,2.23883 -2.73635,2.23883c-0.85692,-0.08569 -1.71384,-0.17138 -2.57075,-0.25708l-1.52691,-0.29322c0,0 -2.45145,-0.49029 -1.96116,-2.94174z" fill="#c1c1c1" stroke="none" stroke-width="0.5"/></g><g><path d="M230.33255,191.92689c0,-5.3952 4.37367,-9.76887 9.76887,-9.76887c5.3952,0 9.76887,4.37367 9.76887,9.76887c0,5.3952 -4.37367,9.76887 -9.76887,9.76887c-5.3952,0 -9.76887,-4.37367 -9.76887,-9.76887z" fill="#ffff66" stroke="#000000" stroke-width="1.5"/><path d="M225.00472,195.52594c0,-2.5 2.5,-2.5 2.5,-2.5c0.85692,0 3.25628,0 4.1132,0c0,0 2.5,0 2.5,2.5c0,2.5 -2.5,2.5 -2.5,2.5c-0.85692,0 -1.71383,0 -2.57075,0h-1.54245c0,0 -2.5,0 -2.5,-2.5z" fill="#c1c1c1" stroke="none" stroke-width="0.5"/><path d="M252.11321,195.52594c0,2.5 -2.5,2.5 -2.5,2.5l-3.03205,-0.10543c-0.85692,-0.25707 -1.71384,-0.51415 -2.57076,-0.77123c0,0 -2.39456,-0.71837 -1.6762,-3.11293c0.71837,-2.39456 3.11294,-1.6762 3.11294,-1.6762c0.85692,0.25707 1.71383,0.51416 2.57075,0.77123l1.59531,-0.10543c0,0 2.5,0 2.5,2.5z" fill="#c1c1c1" stroke="none" stroke-width="0.5"/><path d="M251.33512,186.69564c1.11803,2.23607 -1.11804,3.3541 -1.11804,3.3541l-1.42797,0.67265c-0.85692,0.25707 -1.71383,0.51416 -2.57075,0.77123c0,0 -2.39456,0.71836 -3.11293,-1.6762c-0.71837,-2.39456 1.6762,-3.11293 1.6762,-3.11293c0.85692,-0.25707 1.71383,-0.51415 2.57075,-0.77122l0.62864,-0.35566c0,0 2.23607,-1.11803 3.3541,1.11804z" fill="#c1c1c1" stroke="none" stroke-width="0.5"/><path d="M226.59572,185.00971c0.49029,-2.45145 2.94174,-1.96116 2.94174,-1.96116l1.04385,0.22093c0.85692,0.08569 1.71383,0.17138 2.57075,0.25707c0,0 2.48759,0.24876 2.23883,2.73635c-0.24876,2.48759 -2.73635,2.23883 -2.73635,2.23883c-0.85692,-0.08569 -1.71383,-0.17139 -2.57075,-0.25708l-1.52691,-0.29321c0,0 -2.45145,-0.4903 -1.96116,-2.94174z" fill="#c1c1c1" stroke="none" stroke-width="0.5"/></g><g><path d="M229.67689,175.8467c0,-5.3952 4.37367,-9.76887 9.76887,-9.76887c5.3952,0 9.76887,4.37367 9.76887,9.76887c0,5.3952 -4.37367,9.76887 -9.76887,9.76887c-5.3952,0 -9.76887,-4.37367 -9.76887,-9.76887z" fill="#ffff66" stroke="#000000" stroke-width="1.5"/><path d="M224.34906,179.44576c0,-2.5 2.5,-2.5 2.5,-2.5c0.85692,0 3.25628,0 4.1132,0c0,0 2.5,0 2.5,2.5c0,2.5 -2.5,2.5 -2.5,2.5c-0.85692,0 -1.71383,0 -2.57075,0h-1.54245c0,0 -2.5,0 -2.5,-2.5z" fill="#c1c1c1" stroke="none" stroke-width="0.5"/><path d="M251.45755,179.44576c0,2.5 -2.5,2.5 -2.5,2.5l-3.03205,-0.10543c-0.85692,-0.25707 -1.71384,-0.51415 -2.57076,-0.77123c0,0 -2.39456,-0.71837 -1.6762,-3.11293c0.71837,-2.39456 3.11294,-1.6762 3.11294,-1.6762c0.85692,0.25707 1.71383,0.51416 2.57075,0.77123l1.59531,-0.10543c0,0 2.5,0 2.5,2.5z" fill="#c1c1c1" stroke="none" stroke-width="0.5"/><path d="M250.67946,170.61546c1.11803,2.23607 -1.11804,3.3541 -1.11804,3.3541l-1.42797,0.67265c-0.85692,0.25707 -1.71383,0.51416 -2.57075,0.77123c0,0 -2.39456,0.71836 -3.11293,-1.6762c-0.71837,-2.39456 1.6762,-3.11293 1.6762,-3.11293c0.85692,-0.25707 1.71383,-0.51415 2.57075,-0.77122l0.62864,-0.35566c0,0 2.23607,-1.11803 3.3541,1.11804z" fill="#c1c1c1" stroke="none" stroke-width="0.5"/><path d="M225.94006,168.92952c0.49029,-2.45145 2.94174,-1.96116 2.94174,-1.96116l1.04385,0.22093c0.85692,0.08569 1.71383,0.17138 2.57075,0.25707c0,0 2.48759,0.24876 2.23883,2.73635c-0.24876,2.48759 -2.73635,2.23883 -2.73635,2.23883c-0.85692,-0.08569 -1.71383,-0.17139 -2.57075,-0.25708l-1.52691,-0.29321c0,0 -2.45145,-0.4903 -1.96116,-2.94174z" fill="#c1c1c1" stroke="none" stroke-width="0.5"/></g><g><g><path d="M229.2783,161.30896c0,-5.3952 4.37367,-9.76887 9.76887,-9.76887c5.3952,0 9.76887,4.37367 9.76887,9.76887c0,5.3952 -4.37367,9.76887 -9.76887,9.76887c-5.3952,0 -9.76887,-4.37367 -9.76887,-9.76887z" fill="#ffff66" stroke="#000000" stroke-width="1.5"/><path d="M223.95047,164.90802c0,-2.5 2.5,-2.5 2.5,-2.5c0.85692,0 3.25628,0 4.1132,0c0,0 2.5,0 2.5,2.5c0,2.5 -2.5,2.5 -2.5,2.5c-0.85692,0 -1.71383,0 -2.57075,0h-1.54245c0,0 -2.5,0 -2.5,-2.5z" fill="#c1c1c1" stroke="none" stroke-width="0.5"/><path d="M251.05896,164.90802c0,2.5 -2.5,2.5 -2.5,2.5l-3.03205,-0.10543c-0.85692,-0.25707 -1.71384,-0.51415 -2.57076,-0.77123c0,0 -2.39456,-0.71837 -1.6762,-3.11293c0.71837,-2.39456 3.11294,-1.6762 3.11294,-1.6762c0.85692,0.25707 1.71383,0.51416 2.57075,0.77123l1.59531,-0.10543c0,0 2.5,0 2.5,2.5z" fill="#c1c1c1" stroke="none" stroke-width="0.5"/><path d="M250.28088,156.07772c1.11803,2.23607 -1.11804,3.3541 -1.11804,3.3541l-1.42797,0.67265c-0.85692,0.25707 -1.71383,0.51416 -2.57075,0.77123c0,0 -2.39456,0.71836 -3.11293,-1.6762c-0.71837,-2.39456 1.6762,-3.11293 1.6762,-3.11293c0.85692,-0.25707 1.71383,-0.51415 2.57075,-0.77122l0.62864,-0.35566c0,0 2.23607,-1.11803 3.3541,1.11804z" fill="#c1c1c1" stroke="none" stroke-width="0.5"/><path d="M225.54147,154.39178c0.49029,-2.45145 2.94174,-1.96116 2.94174,-1.96116l1.04385,0.22093c0.85692,0.08569 1.71383,0.17138 2.57075,0.25707c0,0 2.48759,0.24876 2.23883,2.73635c-0.24876,2.48759 -2.73635,2.23883 -2.73635,2.23883c-0.85692,-0.08569 -1.71383,-0.17139 -2.57075,-0.25708l-1.52691,-0.29321c0,0 -2.45145,-0.4903 -1.96116,-2.94174z" fill="#c1c1c1" stroke="none" stroke-width="0.5"/></g><path d="M231.57311,157.62028c0,-1.38071 1.11929,-2.5 2.5,-2.5c1.38071,0 2.5,1.11929 2.5,2.5c0,1.38071 -1.11929,2.5 -2.5,2.5c-1.38071,0 -2.5,-1.11929 -2.5,-2.5z" fill="#000000" stroke="none" stroke-width="0.5"/><path d="M239.28538,158.39151c0,-1.38071 1.11929,-2.5 2.5,-2.5c1.38071,0 2.5,1.11929 2.5,2.5c0,1.38071 -1.11929,2.5 -2.5,2.5c-1.38071,0 -2.5,-1.11929 -2.5,-2.5z" fill="#000000" stroke="none" stroke-width="0.5"/><path d="M229.51651,164.8184c0,-2.18105 1.90279,-2.45931 2.38831,-2.49481c2.75388,-0.77855 6.42601,-1.54114 9.15161,-0.27852c1.02488,0.47477 1.66448,1.52729 2.49672,2.29094c0,0 1.76777,1.76777 0,3.53553c-1.76777,1.76777 -3.53553,0 -3.53553,0c-1.84739,-2.19226 -4.44863,-1.46387 -7.02566,-0.65858l-0.97545,0.10543c0,0 -2.5,0 -2.5,-2.5z" fill="#000000" stroke="none" stroke-width="0.5"/></g></g></g></svg>