<svg version="1.1" xmlns="http://www.w3.org/2000/svg" xmlns:xlink="http://www.w3.org/1999/xlink" width="202.32712" height="262.29086" viewBox="0,0,202.32712,262.29086"><g transform="translate(-119.53004,-50.09059)"><g stroke="none" stroke-width="0.5" stroke-miterlimit="10"><path d="M205.46529,113.65206c-3.1716,-3.36997 -6.05073,-7.20605 -8.65003,-11.04505c-0.30041,-0.44369 -0.60053,-0.91539 -0.89127,-1.40934c1.34323,3.72921 3.1228,7.10489 5.08013,9.34612c1.30907,1.49894 3.08508,2.67489 5.0394,3.70989c-0.19368,-0.19771 -0.38659,-0.398 -0.57823,-0.60162zM193.60394,91.40724c0.14796,-0.63355 0.37707,-1.25207 0.70077,-1.847c0.67834,-1.24674 1.84897,-2.15392 2.77346,-3.23088c8.41359,-0.58297 15.19302,1.29265 23.24496,-2.1539c5.08193,-2.17527 9.57464,-9.25958 15.87103,-7.83457c3.61026,0.81708 11.31667,9.81251 13.34166,12.85864c1.76912,6.83398 3.23115,21.27331 1.02015,27.97421c-0.8838,2.67853 -6.84415,10.51305 -6.41919,12.84814c0.53643,2.9476 3.27367,6.74798 4.75449,9.98735c0.631,0.38109 1.37238,0.71971 2.25014,1.00517c1.33481,-0.58745 3.33489,-1.63947 5.62276,-2.56824c2.58137,-2.90484 5.95328,-3.13777 9.19383,-1.75679c1.58447,0.1956 3.0898,0.7599 4.40969,1.85843c0.83,0.6908 1.68026,2.05993 2.45411,3.76178c3.26959,4.27212 5.07515,9.92057 3.31512,14.5335c-0.67582,1.77129 -1.50716,2.97085 -2.43763,3.74361c1.18316,3.57635 3.03934,6.30732 3.62055,10.38605c-1.79938,7.06903 1.36725,4.27247 6.40444,7.00612c3.04024,1.64992 5.33453,4.08793 9.07464,4.13919c6.3152,0.08656 18.97791,-8.42728 22.30909,-13.32034c1.15079,-3.55013 3.06261,-10.21605 0.68504,-13.56383c-1.74558,-2.45789 -4.6091,-0.82455 -6.75009,-2.96554c-2.14501,-2.145 -0.9236,-5.07445 -3.22507,-7.19883c-7.2845,-6.72401 -19.55958,-6.01928 -11.96868,-18.58057c2.39141,-6.03881 8.0647,-22.89883 2.22088,-28.32814c-5.73559,-5.32876 -17.02605,-1.77693 -23.52526,-6.69452c-3.77236,-5.31859 -6.30773,-17.38715 -11.37011,-20.98601c-5.05378,-3.59274 -11.59417,0.50072 -16.46246,-2.0067c-5.695,-2.93322 -2.10838,-12.22946 -7.3853,-13.38763c-19.50315,4.0883 -39.29184,5.82545 -43.47867,28.85303c-0.50084,2.11887 -0.54846,4.71049 -0.24436,7.46825zM216.69979,119.57004c0.06819,0.04624 0.1358,0.0928 0.2028,0.1397c0,0 2.04808,1.43366 0.61442,3.48174c-0.81647,1.16639 -1.83223,1.20353 -2.55547,1.01934c-0.29058,0.0632 -0.62649,0.07731 -1.01457,0.02187c-1.36976,-0.19568 -1.8731,-1.04118 -2.0495,-1.75725c-4.90182,-2.74723 -10.99962,-4.52364 -14.67908,-8.66544c-6.13208,-6.90261 -10.25685,-22.0738 -8.2671,-30.88068c4.59457,-25.27013 26.6456,-29.28459 48.5916,-32.83873c9.13498,2.6546 6.77864,13.06756 8.97236,13.71936c6.05564,1.79926 11.78349,-1.74785 17.65496,2.66692c5.82128,4.37704 7.8426,15.48982 11.99798,21.54392c6.08506,5.0219 17.05318,0.52566 23.21092,6.39161c7.9189,7.54364 2.39399,25.75961 -1.05066,34.29834c-5.22828,8.76798 4.87138,6.92782 10.93205,12.73267c2.13103,2.04107 1.9287,5.90008 3.318,7.28938c1.78299,1.78299 5.03538,0.50548 7.27077,3.57752c3.64718,5.01222 1.55621,13.37818 -0.24968,18.68414c-4.26463,6.49402 -18.07404,15.85323 -26.49294,16.11807c4.20427,3.80304 7.89866,8.21741 11.15581,13.15695c5.03886,5.01891 10.23138,11.2772 12.58694,17.94535c3.78092,10.70311 -4.33059,40.36512 -10.33558,49.3996c-2.9161,3.76582 -4.89989,10.81797 -9.22522,13.49649c-11.27135,6.97992 -39.52637,13.28599 -52.84629,13.28599c-27.51694,0 -55.72508,-1.84978 -79.71704,-15.98208c-17.63927,-7.04249 -37.63122,-23.63542 -40.66821,-44.0488c0,0 -0.02638,-0.1846 -0.0143,-0.46018c-0.65517,-0.13275 -1.28542,-0.31499 -1.80944,-0.70833c-6.1211,-4.59464 -0.44242,-11.55737 3.24547,-15.24526c2.07608,-2.07608 4.99968,-3.58918 7.09786,-5.66726c0.72444,-0.7175 0.96036,-1.89858 1.80525,-2.46937c0.92674,-0.62609 2.21982,-0.43643 3.22419,-0.92843c1.92058,-0.94082 2.99629,-3.13076 4.84504,-4.20589c0.84902,-0.49375 1.99745,-0.24216 2.85849,-0.71463c1.77201,-0.97233 2.54669,-3.26096 4.28773,-4.28773c0.846,-0.49892 2.00574,-0.22733 2.85849,-0.71462c0.87747,-0.50141 1.26531,-1.64438 2.14387,-2.14387c0.92368,-0.52514 2.08851,-0.44045 3.07885,-0.82541c1.61912,-0.62938 2.19252,-2.00436 3.1934,-3.36405c4.94187,-0.98837 49.11152,-24.78381 52.49263,-29.21083c-2.55395,-2.13407 -21.31158,9.48608 -26.97019,-3.48637c-7.83731,-17.96715 15.61598,-16.03817 22.30929,-20.50038c3.63265,-0.10876 7.67663,0.94626 10.22507,-2.05073c3.14592,-3.69964 -1.64704,-7.60466 4.54976,-10.72944c2.49464,-1.25794 10.52348,-0.60333 13.41075,-0.17157c1.1017,0.16475 2.03421,0.40212 2.82831,0.69946c1.41824,-3.88314 5.01528,-8.39415 6.09495,-11.58854c1.88984,-5.59144 0.53479,-18.51454 -0.8493,-24.37031c-1.32247,-1.97263 -8.0411,-9.58551 -10.02643,-10.04208c-2.83148,-0.65116 -5.73674,3.64057 -7.43153,4.93929c-7.94581,6.08887 -18.90071,6.31252 -28.23037,4.70143c-2.06369,4.04128 0.87381,7.76772 3.2498,10.99138c2.13318,2.89421 4.12274,5.80055 6.59017,8.42207c2.7064,2.87542 5.48322,5.18312 7.56305,8.60144l0.02185,0.73423zM268.74325,161.62003c-6.08092,-1.19666 -12.4531,-8.36885 -9.66874,2.76859c0,9.28092 5.61884,10.85592 12.11661,12.02485c-0.29745,-1.31122 0.72062,-4.32735 1.13677,-5.72459c-0.54029,-3.12672 -2.90899,-6.15913 -3.58464,-9.06885zM129.00202,233.63019c0.00333,0.01871 0.00476,0.02874 0.00476,0.02874c2.55996,18.83159 21.94476,33.86857 37.94027,40.27667c22.9426,14.0543 50.99962,15.46132 77.49523,15.46132c4.32874,0 11.37019,1.19459 15.45519,-0.51304c2.6158,-1.09348 5.26569,-3.66398 8.11988,-4.38205c9.99349,-2.51424 17.13612,-2.8887 26.48902,-7.54534c3.29867,-1.64234 5.79841,-9.32064 7.92573,-12.22992c4.89864,-7.32183 13.10314,-36.52176 9.67386,-44.93059c-2.49575,-6.11974 -6.97482,-11.60314 -11.71023,-16.35654c-5.46617,-8.12905 -11.75818,-14.6703 -20.02245,-19.4189c-10.66799,-6.12976 -26.26131,-1.11698 -26.26131,-19.02098c-0.56326,-2.25305 -1.95128,-8.81016 -0.00112,-10.6487c2.58026,-2.43257 11.34976,0.98121 15.03705,1.38432c0.65556,-3.14809 1.50656,-6.63571 0.5707,-9.64075c-2.35005,-5.13627 -7.00779,-7.07493 -12.66034,0.0798c-1.80823,0.11254 -3.39941,0.09957 -4.80278,-0.01842c-2.16087,0.73462 -4.44283,0.47342 -7.02697,-2.20872c-5.7412,-4.03757 -3.29565,-12.01103 -8.95016,-12.50285c-3.04207,-0.2646 -8.00465,-0.81432 -10.88642,-0.17157c-0.73039,0.16291 0.65739,13.74531 -15.23933,12.94624c-4.84326,3.22884 -24.1697,1.58123 -19.13881,13.8015c3.89038,9.4499 20.81223,-4.88397 27.34113,5.0891c-1.1876,2.85914 -2.01469,5.97081 -4.68542,7.95503c-3.58192,2.66119 -48.14528,25.34692 -50.01535,25.72093c-0.90758,1.58171 -2.29656,3.0191 -3.95283,3.78217c-0.81935,0.37748 -1.85594,0.1544 -2.63813,0.60384c-0.87628,0.5035 -1.2664,1.64246 -2.14387,2.14387c-0.85275,0.48728 -1.99745,0.24215 -2.85849,0.71462c-1.77201,0.97233 -2.54669,3.26096 -4.28773,4.28773c-0.846,0.49892 -2.00138,0.23504 -2.85849,0.71462c-1.96683,1.10049 -3.1515,3.34649 -5.15968,4.36958c-0.75518,0.38474 -1.7835,0.03692 -2.4928,0.50082c-0.58621,0.38339 -0.56053,1.32048 -1.05323,1.81836c-0.89521,0.90462 -2.07188,1.48438 -3.03662,2.31446c-0.78355,0.67418 -1.40162,1.52829 -2.1969,2.18859c-2.20831,1.83349 -10.22513,8.16911 -3.83712,9.21912l1.89366,3.8546c0,0 0,0.1307 -0.02988,0.33233z" fill="#000000"/><path d="M128.95838,233.67145c0,0 -0.00143,-0.01005 -0.00476,-0.02876c0.02988,-0.20163 0.02984,-0.33249 0.02984,-0.33249l-1.89417,-3.85679c-6.38801,-1.05001 1.62807,-7.39024 3.83638,-9.22373c0.79529,-0.6603 1.41324,-1.51553 2.19679,-2.18971c0.96474,-0.83008 2.14131,-1.41106 3.03653,-2.31569c0.4927,-0.49788 0.46697,-1.43603 1.05318,-1.81943c0.70931,-0.4639 1.73761,-0.11633 2.49279,-0.50107c2.00818,-1.02309 3.19282,-3.27191 5.15965,-4.3724c0.85711,-0.47958 2.0125,-0.21624 2.8585,-0.71516c1.74105,-1.02677 2.51592,-3.31869 4.28794,-4.29102c0.86105,-0.47247 2.00582,-0.2281 2.85857,-0.71539c0.87747,-0.50141 1.26783,-1.64224 2.14411,-2.14574c0.78219,-0.44944 1.81891,-0.22717 2.63825,-0.60465c1.65628,-0.76307 3.04603,-2.20423 3.95361,-3.78595c1.87007,-0.37402 46.47549,-23.09736 50.05741,-25.75854c2.67073,-1.98422 3.5048,-4.99632 4.6924,-7.85546c-6.5289,-9.97307 -23.47469,4.26664 -27.36507,-5.18326c-5.03089,-12.22026 14.31251,-10.57808 19.15577,-13.80692c15.89672,0.79907 14.51957,-12.78359 15.24996,-12.94649c2.88177,-0.64275 7.85101,-0.09202 10.89308,0.17258c5.65451,0.49182 3.21663,8.46763 8.95783,12.50521c2.58414,2.68214 4.87072,2.94545 7.03159,2.21083c1.40337,0.11799 2.99704,0.13236 4.80528,0.01981c5.65255,-7.15473 10.31575,-5.21231 12.6658,-0.07604c0.93586,3.00503 0.01996,6.56864 -0.63561,9.71673c-3.6873,-0.40311 -12.44957,-3.81136 -15.02983,-1.37879c-1.95016,1.83854 -0.5048,8.31387 0.05846,10.56692c0,17.904 15.60859,12.91101 26.27658,19.04077c8.26427,4.7486 14.56014,11.3053 20.02631,19.43435c4.73542,4.75339 9.21441,10.24606 11.71016,16.3658c3.42928,8.40883 -4.78304,37.63099 -9.68168,44.95282c-2.12731,2.90928 -4.63144,10.59336 -7.9301,12.2357c-9.3529,4.65664 -16.50542,5.03975 -26.49891,7.55398c-2.85418,0.71808 -5.50855,3.29122 -8.12435,4.38469c-4.085,1.70762 -11.13421,0.5163 -15.46294,0.5163c-26.49561,0 -54.59967,-1.41584 -77.54227,-15.47014c-15.99551,-6.4081 -35.3971,-21.47127 -37.95706,-40.30286z" fill="#ffb6cc"/><path d="M242.34222,131.26824h-1.86945c-6.39028,0 -12.76372,0.23368 -19.16183,0.23368c0,0 -2.5,0 -2.5,-2.5c0,-0.40011 0.06403,-0.73619 0.17161,-1.01848c-8.37964,-10.28386 -35.50568,-29.61749 -20.28358,-40.71747c7.10425,-0.2127 14.46832,0.67753 21.3518,-1.4012c7.38402,-2.22989 3.67249,-9.56931 15.81842,-8.71079c1.48943,0.10527 3.29373,-0.38605 4.44346,0.56664c1.75576,1.45487 2.52016,7.27544 3.91013,8.91009c3.29123,3.8706 6.13174,3.70172 7.70551,9.86875c0.0059,3.06591 0.02625,7.38674 -0.80316,10.32001c-0.45558,1.6112 -1.8781,2.9184 -2.05533,4.58336c-0.39901,3.7484 1.30015,9.59314 -0.27708,13.02277c-0.22839,0.49662 -2.71281,2.1752 -4.19387,3.15664c0.15027,0.31421 0.24337,0.70356 0.24337,1.186c0,2.5 -2.5,2.5 -2.5,2.5zM199.73444,99.19065c1.30066,7.25558 19.04413,19.82975 24.37808,27.29778c5.23503,-0.04774 10.45703,-0.20644 15.69033,-0.21935l1.11118,-2.24475c0.71462,-0.47642 1.39585,-1.0072 2.14387,-1.42925c0.41455,-0.23389 1.16812,-0.07988 1.32643,-0.52876c0.26738,-0.75813 -0.2506,-1.59085 -0.29581,-2.39347c-0.15422,-2.73799 -0.35489,-6.17301 0.01873,-8.88093c0.26712,-1.93599 1.68854,-3.54423 2.23241,-5.42136c0.22099,-0.76272 -0.17729,-1.59054 -0.0951,-2.38037c0.20438,-1.96402 0.71557,-3.90519 0.72119,-5.8798c-1.27474,-5.28053 -3.50186,-3.70578 -6.58694,-7.28219c-1.73384,-2.00998 -1.97689,-6.16654 -3.2361,-8.24086c-2.89778,-4.77357 -13.67608,8.36869 -15.46925,9.0068c-6.64935,2.36621 -14.58385,1.80622 -21.52556,1.45729c-0.94632,0.308 -0.64762,5.83289 -0.41344,7.13922z" fill="#1e0000"/><path d="M199.68529,99.18159c-0.23418,-1.30633 -0.52849,-6.84441 0.41783,-7.15241c6.94172,0.34894 14.91501,0.88152 21.56436,-1.48469c1.79317,-0.63811 12.60424,-13.77295 15.50202,-8.99938c1.25921,2.07432 1.51455,6.2419 3.24839,8.25188c3.08508,3.57641 5.3214,2.01982 6.59614,7.30035c-0.00562,1.97462 -0.51509,3.92767 -0.71947,5.89169c-0.08219,0.78983 0.31595,1.6228 0.09496,2.38552c-0.54387,1.87714 -1.96791,3.49783 -2.23503,5.43382c-0.37362,2.70791 -0.18064,6.1571 -0.02642,8.89509c0.04521,0.80263 0.56126,1.63769 0.29388,2.39582c-0.15832,0.44888 -0.91345,0.29657 -1.328,0.53047c-0.74802,0.42204 -1.43263,0.95602 -2.14725,1.43244l-1.11439,2.2473c-5.2333,0.01291 -10.48283,0.18116 -15.71785,0.2289c-5.33395,-7.46803 -23.12851,-20.10122 -24.42917,-27.3568z" fill="#ffefe4"/><path d="M228.36446,291.89692c0,1.46137 -0.85425,2.0685 -1.56404,2.32073c0.16752,2.52987 0.14017,5.05014 0.1348,7.68398c-0.00487,2.38775 0.20665,5.74383 -1.1374,7.8227c-2.40444,3.719 -7.08179,2.74505 -10.48654,1.76262c-1.66547,-0.48056 -3.85784,-0.22919 -4.958,-1.56874c-1.09779,-1.33669 -0.44468,-3.43269 -0.56664,-5.15809c-0.19736,-2.79214 -0.0798,-5.77684 0,-8.57547c0.01072,-0.37579 -0.01171,-0.76008 -0.03582,-1.14527c-1.67816,-1.7494 0.05343,-3.48099 0.05343,-3.48099l2.95493,-2.6858c0.25329,-0.01055 0.50573,-0.01818 0.75743,-0.02321c0.50816,-0.22662 1.19546,-0.35783 1.92803,0.00794c1.9451,0.05032 3.86123,0.21368 5.79825,0.3476l-0.02228,-0.88112c0,0 0,-2.5 2.5,-2.5c2.5,0 2.5,2.5 2.5,2.5l-0.04855,0.93895c0.01084,0.05509 0.02152,0.11013 0.03206,0.16514c0.68349,0.10289 2.16035,0.54752 2.16035,2.46902zM221.85665,294.23846c-2.09411,-0.15677 -4.12959,-0.40738 -6.27898,-0.6472c-2.12076,2.73396 -0.38048,7.65735 -0.79103,11.16885c-0.08002,0.68444 -1.02106,1.47009 -0.56664,1.98814c0.48197,0.54946 1.4618,-0.22009 2.18823,-0.1395c0.44942,0.04986 4.69641,1.73838 5.23516,0.33337c0.42484,-1.10796 0.29428,-3.94412 0.29184,-5.0405v-5.71698c0.00144,-0.64895 -0.0265,-1.2982 -0.07858,-1.94618z" fill="#1e0000"/><path d="M221.88261,294.19573c0.05208,0.64797 0.08744,1.30273 0.086,1.95168l0.01386,5.7706c0.00244,1.09639 0.11038,3.95968 -0.31447,5.06764c-0.53875,1.40501 -4.82324,-0.27873 -5.27266,-0.32859c-0.72644,-0.08059 -1.71952,0.68327 -2.20149,0.13381c-0.45442,-0.51804 0.4823,-1.30667 0.56232,-1.99111c0.41055,-3.51149 -1.31587,-8.52169 0.80489,-11.25565c2.14939,0.23981 4.22743,0.49485 6.32154,0.65162z" fill="#ff2e6d"/><path d="M242.26916,289.95054c2.49124,-4.04019 6.10713,-4.10654 10.28269,-4.11458c24.32106,4.79087 13.81119,32.60558 -4.9991,22.55759c-4.60727,-2.46109 -5.20955,-9.50938 -7.96658,-12.85277c0,0 -1.5,-2 0.5,-3.5c0.5913,-0.44347 1.13889,-0.58102 1.61693,-0.55477c0.11825,-0.54254 0.27736,-1.06727 0.56606,-1.53547zM249.91204,303.98518c13.90766,5.80724 15.70198,-10.41415 2.14712,-13.17355c-3.59675,-0.01023 -5.12613,0.09914 -5.90377,3.83549l0.07464,0.10828c0,0 0,1.14507 -0.77495,1.88529c1.20516,3.04449 2.62689,6.58033 4.45696,7.34449z" fill="#1e0000"/><path d="M245.40582,296.63213c0.77496,-0.74022 0.77872,-1.89746 0.77872,-1.89746l-0.07447,-0.10867c0.77764,-3.73635 2.34323,-3.87377 5.93998,-3.86353c13.55486,2.7594 11.74443,19.07312 -2.16323,13.26588c-1.83007,-0.76415 -3.27585,-4.35174 -4.481,-7.39622z" fill="#ff2e6d"/><path d="M194.3498,89.58175c-0.3237,0.59493 -0.64367,1.17171 -0.79163,1.80526c-0.30409,-2.75776 -0.25427,-5.35378 0.24657,-7.47265c4.18684,-23.02758 24.00553,-24.78826 43.50868,-28.87656c5.27692,1.15817 1.69362,10.4536 7.38862,13.38682c4.8683,2.50743 11.42509,-1.58671 16.47886,2.00603c5.06238,3.59886 7.61852,15.67493 11.39088,20.99351c6.49921,4.91759 17.80744,1.38552 23.54303,6.71428c5.84382,5.42931 0.1748,22.32167 -2.21661,28.36048c-7.5909,12.56129 4.6795,11.86973 11.964,18.59374c2.30147,2.12438 1.07815,5.05716 3.22316,7.20217c2.14099,2.14099 5.0049,0.50701 6.75048,2.9649c2.37757,3.34778 0.46128,10.01995 -0.68951,13.57007c-3.33118,4.89306 -16.00674,13.41782 -22.32194,13.33126c-3.74011,-0.05126 -6.03821,-2.48722 -9.07846,-4.13715c-5.03719,-2.73365 -8.24496,-0.0282 -6.44558,-7.09723c-0.58121,-4.07873 -32.71098,-3.35522 -35.29235,-0.45038c-2.28787,0.92877 10.45935,-30.00016 9.12454,-29.41271c-0.87776,-0.28546 -1.62436,-0.62531 -2.25537,-1.0064c-1.48082,-3.23937 -4.23873,-7.05176 -4.77516,-9.99937c-0.42496,-2.33509 -8.62277,6.99982 -7.73897,4.32129c2.211,-6.7009 -11.49397,-5.70119 -13.26309,-12.53518c-2.02499,-3.04613 -10.33534,-11.43005 -13.9456,-12.24713c-6.29639,-1.42501 4.60114,-18.33641 -0.48079,-16.16114c-8.05194,3.44655 -3.13811,-7.66501 -11.5517,-7.08204c-0.92449,1.07696 -2.0937,1.98139 -2.77204,3.22813z" fill="#feff00"/></g></g></svg>