<svg version="1.1" xmlns="http://www.w3.org/2000/svg" xmlns:xlink="http://www.w3.org/1999/xlink" width="1054.1536" height="840.04877" viewBox="0,0,1054.1536,840.04877"><g transform="translate(318.96847,200.10889)"><g data-paper-data="{&quot;isPaintingLayer&quot;:true}" fill-rule="nonzero" stroke-width="0.5" stroke-linejoin="miter" stroke-miterlimit="10" stroke-dasharray="" stroke-dashoffset="0" style="mix-blend-mode: normal"><path d="M-2,411.8125v-431.87919h604v431.87919z" fill="#83f663" stroke="#000000" stroke-linecap="butt"/><path d="M151,355.8125v-133h178v133z" fill="#6263f5" stroke="#000000" stroke-linecap="butt"/><path d="M231.93934,189.75184c1.06066,-1.06066 2.12132,0 2.12132,0l1.43934,2.06066c0,3.93565 -0.24644,7.95365 0.24421,11.86028c0.20808,1.65683 -0.4167,3.46683 0.23564,5.00398c0.11952,0.28165 0.55317,-0.26203 0.83491,-0.38134c0.8819,-0.37344 1.73768,-0.82347 2.65558,-1.09672c0.10889,-0.03242 1.77185,-0.35745 3.30427,-0.6546c-0.41907,-2.66365 -0.68158,-5.58331 -1.59068,-7.83324c-0.76301,-1.88838 -2.08218,-3.55275 -2.63368,-5.51336c-0.53037,-1.88549 -0.22593,-4.86123 -1.65416,-6.36943c-1.45614,-1.53767 -2.87327,-0.584 -4.70902,-1.75496c-0.4749,-0.30292 -3.35093,-4.2105 -3.83264,-4.71639c-0.71746,-0.75348 -1.69122,-1.2533 -2.33682,-2.0692c-1.90091,-2.40232 -2.20713,-5.37611 -3.29615,-8.13251c-0.36459,-0.92281 -0.94164,-1.79315 -1.14427,-2.75728c-0.48598,0.58734 -1.05976,1.1009 -1.58028,1.65921c-2.95507,5.04924 -5.97568,10.28483 -8.65342,15.42268c-1.60928,3.08776 -2.11761,7.50248 -3.07703,10.86038c-2.07006,7.24507 -3.98388,14.52686 -5.81124,21.83629c0,0 -0.3638,1.45521 -1.81902,1.09141c-1.45521,-0.3638 -1.09141,-1.81902 -1.09141,-1.81902c1.83544,-7.34175 3.75795,-14.65573 5.83709,-21.93285c1.01786,-3.56257 1.59429,-8.07263 3.27464,-11.37048c2.70518,-5.30919 5.8721,-10.7189 8.94045,-15.88851c1.21327,-1.28338 3.68852,-4.68897 6.17193,-3.73231c0.95981,0.36974 0.39496,2.02326 0.70404,3.00428c0.8976,2.84892 1.99263,7.59361 3.87893,9.87421c0.6116,0.73945 1.51411,1.19013 2.17557,1.88533c1.23675,1.29983 1.74852,3.33786 3.28549,4.2635c1.6412,0.98842 3.97693,0.85084 5.29098,2.24504c1.90923,2.02568 1.66664,5.14123 2.34584,7.63057c0.50825,1.86279 1.82906,3.41129 2.53502,5.20849c0.95183,2.42314 1.25187,5.46481 1.71147,8.2665c2.3993,-0.97729 5.34551,-1.80873 7.42429,-3.30511c2.91226,-2.09634 5.60298,-5.5941 7.88232,-8.34288c6.28619,-7.58087 12.01702,-16.50738 19.06101,-23.37068c0.49751,-0.48475 1.0208,-0.95389 1.56245,-1.41104c-0.01924,-0.50542 -0.03279,-1.01213 -0.04023,-1.52024c-0.06474,-4.6105 -0.72846,-9.756 -0.07485,-14.32316c0.01961,-0.13702 1.42796,-5.76054 1.48878,-6.00154c0.16826,-0.66675 0.23845,-1.36738 0.51124,-1.99862c0.11329,-0.26215 0.85348,-0.75184 0.6117,-0.59986c-2.32234,1.45973 -4.53959,2.03412 -7.12185,3.02891c-8.07071,3.10917 -16.03277,6.34953 -24.25629,9.08366l-2.05922,1.00508c-0.20548,0.10577 -0.43855,0.16548 -0.68557,0.16548c-0.82843,0 -1.5,-0.67157 -1.5,-1.5c0,-0.46723 0.21362,-0.88457 0.54852,-1.15967l2.29586,-1.91322l0.25676,0.30811c2.7466,-2.90755 5.90678,-5.05019 9.39214,-7.59516c3.90127,-2.84867 8.00791,-6.8645 12.34009,-8.9819c2.59493,-1.2683 6.11567,-1.773 8.8994,-2.56905c6.39337,-1.82829 13.04649,-3.44882 19.71178,-3.69522c12.01704,-0.42918 24.00913,-0.85748 36.03432,-0.88865l2.01658,-0.00523c0.00152,0 0.00303,-0.00001 0.00455,-0.00001c0.82843,0 1.5,0.67157 1.5,1.5c0,0.5988 -0.35088,1.11566 -0.85825,1.35617l-2.65422,1.32711l-0.14928,-0.29856c-1.56983,1.00936 -3.15441,1.83769 -5.10907,2.92611c-8.49632,4.73102 -17.51567,9.94282 -25.40166,15.6288c-5.5187,3.97911 -10.39114,8.92389 -15.79083,13.07843c-2.17312,1.67163 -4.62112,3.26103 -6.84397,5.00759c0.57564,9.78698 3.2274,19.12333 4.79407,28.7894c1.14047,7.03647 1.01321,14.08579 1.01321,21.18494c0,0 0,1.5 -1.5,1.5c-1.5,0 -1.5,-1.5 -1.5,-1.5c0,-6.93781 0.13999,-13.82838 -0.97456,-20.70497c-1.46085,-9.01315 -3.8206,-17.73606 -4.64797,-26.79613c-1.92002,1.95424 -3.55799,4.46709 -5.27294,6.58055c-4.41431,5.44009 -8.81828,10.88735 -13.29284,16.27806c-2.43464,2.93312 -5.31562,6.62515 -8.43222,8.85762c-2.44267,1.74971 -5.86079,2.72478 -8.61862,3.87329c0.07867,0.60481 0.15733,1.20962 0.236,1.81443l0.00315,2.09715c0,0 0,1.5 -1.5,1.5c-1.5,0 -1.5,-1.5 -1.5,-1.5l0.00315,-1.90285c-0.05407,-0.41365 -0.10813,-0.82729 -0.1622,-1.24094c-2.01202,0.6049 -4.07829,1.30935 -5.91808,1.56443c-1.12743,0.15632 -2.5911,0.51308 -3.40272,-0.28491c-0.95648,-0.94041 -0.64116,-2.60672 -0.88067,-3.92652c-0.91067,-5.01821 -0.63948,-10.13521 -0.63948,-15.20922l-0.56066,0.06066c0,0 -1.06066,-1.06066 0,-2.12132zM284.57513,167.18131c1.72636,-1.26208 3.50116,-2.47379 5.13243,-3.72861c5.42606,-4.17293 10.31996,-9.13559 15.86541,-13.13398c5.65403,-4.07668 12.03743,-7.41235 17.97596,-11.06682c2.50309,-1.54036 5.87568,-4.28186 9.22513,-5.89686c-10.24675,0.11776 -20.47545,0.48348 -30.72243,0.84944c-6.41735,0.22054 -12.84054,1.82183 -18.99402,3.58152c-2.61183,0.7469 -5.97016,1.18898 -8.40688,2.37996c-1.71818,0.83978 -3.07529,2.27427 -4.61979,3.40205c-3.80249,2.77654 -7.60464,5.55355 -11.40741,8.32971c5.79984,-2.1281 11.52191,-4.41328 17.29909,-6.63888c1.71524,-0.66078 8.35487,-3.54714 9.95445,-2.66319c1.56714,0.86603 0.31475,4.62428 0.03336,5.75981c-1.57537,6.35739 -1.43299,12.32066 -1.33529,18.82586z" fill="#f59062" stroke="none" stroke-linecap="butt"/><path d="M-32.45312,131.90625l-7.42187,-8.59375l-2.73437,-8.59375l-0.39062,-3.90625v-7l0.07781,-0.77806l-0.02912,-0.7814l1,-16l0.16745,-1.024l0.04734,-1.03652l4.54294,-31.04341l-0.79564,-1.29978l-0.03629,-1.69829l-0.68635,-1.55385l0.54885,-4.88034l-0.14607,-6.83579l1.10791,-1.71671l0.16251,-1.44505l2.68982,-3.15188l0.10537,-0.94834l-52.57532,-5.96599l-2.67201,-0.57696l-1.81231,-0.15076l-4.75769,-2.52123l-2.82592,-1.26552l-0.41928,-0.4542l-2.0304,-1.07596l-0.23274,-0.43738l-191.17574,9.6099l-3.92094,-0.19402l-8.72019,-2.29949l-8.95552,-6.98108l-4.62693,-14.23879l3.17572,-14.63101l8.21031,-7.84396l8.44564,-3.16237l3.88171,-0.58624l250.10349,-12.57205l26.43437,-6.05175l0.5613,-2.17132l1.84613,-7.94099l0.27187,-0.25221l0.07074,-0.27365l4.65789,-4.113l3.32409,-3.08369l0.28265,-0.10113l0.24699,-0.21809l4.72548,-1.56098l3.23604,-1.15781l0.45723,-0.0622l0.14442,-0.04771l1.1259,-0.12511l2.16236,-0.29417l5.78883,-0.20583l1.54296,-3.93205l0.85921,-1.67645l0.53816,-1.69136l4.68411,-5.4237l3.53105,-21.18627l1.02749,-3.78888l0.74617,-1.45736l0.94785,-3.03229l1.50784,-1.76399l0.9081,-1.77364l2.09817,-1.74334l1.657,-1.93849l3.31345,-15.58951l0.39286,-1.23026l0.05116,-0.23654l0.08476,-0.18909l0.66542,-2.0838l1.2638,-2.22023l1.67473,-3.73626l0.95185,-0.87807l0.57089,-1.00293l2.90688,-2.20529l3.91652,-3.61297l1.05743,-0.1605l1.16551,-0.88421l7.27767,-0.39729l5.30155,-0.80467l1.14279,0.45287l1.22742,-0.06701l4.77256,2.44469l6.77586,2.68515l0.82487,1.20824l0.95192,0.48761l2.5683,4.66867l2.05729,3.01344l0.2233,1.13222l0.16098,0.29263l5.64999,-46.4947l0.43106,-1.92229l0.1639,-0.90587l0.08713,-0.21356l0.1769,-0.78887l1.34213,-2.93436l1.80056,-4.41327l0.39759,-0.39262l0.21081,-0.46089l3.1998,-2.90714l4.2713,-4.21799l0.46739,-0.08729l0.46587,-0.42326l7.86569,-1.13283l5.91826,-1.10536l0.50453,0.18034l0.53032,-0.07638l5.58013,2.26048l7.48318,2.67476l0.37237,0.50747l0.44068,0.17852l3.34694,4.98331l2.55759,3.48552l0.11492,0.49361l0.31154,0.46386l0.88673,4.68323l0.73164,3.14269l0.01645,0.8083l0.04291,0.22663l-0.01957,0.92037l0.04008,1.96962l-6.29818,79.23486l14.31717,-5.98059l9.73526,-25.23381l1.77047,-3.50383l0.22456,-0.27983l0.74546,-1.74602l2.81763,-2.69399l1.85671,-2.31368l1.27459,-0.68023l2.25833,-2.15924l2.62394,-0.44635l3.86082,-2.06046l5.10937,0.53456l3.16554,-0.53849l3.20757,1.20526l2.89307,0.30268l83.18321,-25.52212l3.63478,-0.72936l2.117,-0.89164l4.61802,0.91616l2.497,0.02585l1.94185,0.85476l2.0811,0.41286l2.06076,1.4103l4.30903,1.89675l1.22343,1.9442l2.56007,2.68136l15.74094,20.17374l1.3896,-5.22273l0.51081,-1.35825l0.10963,-0.38643l0.1248,-0.23693l0.63664,-1.69286l1.45959,-2.28673l1.98188,-3.7625l0.87057,-0.70641l0.54006,-0.8461l3.14586,-2.1448l4.26089,-3.45745l0.92949,-0.08126l1.04575,-0.71297l7.44336,-0.02918l5.49621,-0.4805l0.96503,0.45517l1.06698,-0.00418l4.77688,2.76054l6.73214,3.17533l0.64594,1.08843l0.80784,0.46685l2.39816,4.93538l1.94314,3.27427l0.13141,0.99513l0.48998,1.00838l0.20408,4.24766l0.35515,2.6895l-0.13929,1.80325l0.01285,0.26748l-0.04877,0.30147l177.10802,-37.31707l2.25804,-0.24481l1.21222,-0.1528l0.11155,0.00928l0.32105,-0.03481l3.50731,0.35328l5.04733,0.41987l0.20626,0.1093l0.21198,0.02135l4.04629,2.23522l5.56877,2.95104l0.09437,0.17735l0.22988,0.12699l3.74333,7.33963l2.96553,5.57295l-0.00874,0.2245l0.10208,0.20015l-0.35522,6.30285l-0.32048,8.23286l-0.15544,0.21169l-0.0113,0.20057l-3.81799,5.01426l-2.73602,3.72598l-0.18349,0.10828l-0.14141,0.18572l-4.40603,2.49773l-3.03589,1.79148l-0.30606,0.10303l-0.09737,0.0552l-1.16457,0.36962l-2.15257,0.72464l-135.63136,31.05074l1.05449,1.92065l0.15219,1.55126l0.64358,1.65495l-0.12231,3.65839l0.20706,2.11059l-0.11409,1.02743l37.34308,-1.32775l3.91766,0.25158l1.95354,0.54595l3.53619,0.47612l1.61327,0.96297l1.58248,0.44225l2.43263,1.9544l4.12176,2.46031l0.63959,1.36501l1.65807,1.33211l0.31113,1.00758l5.6939,-0.06261l22.60529,-8.85819l8.8275,-4.82754l1.24005,-0.52541l1.18675,-0.63671l48.31586,-20.01657l13.46627,-6.44039l1.97088,-0.71148l1.94747,-0.77326l7,-2l1.04547,-0.18877l0.01237,-0.00373l0.01568,-0.00133l2.78975,-0.5037l2.32682,0.06925l3.85369,-0.32722l1.46728,0.48558l1.36649,0.04067l3.10379,1.43874l4.84248,1.60258l0.7702,0.99913l1.58558,0.73498l3.64672,6.05255l3.13811,4.07087l0.18766,1.44899l0.75404,1.25149l0.07368,5.13948l0.9076,7.00772l-0.78474,1.56155l0.01808,1.2614l-2.79594,4.26622l-1.53614,3.05675l-1.0449,0.88156l-0.84717,1.29267l-2.6125,1.73545l30.30906,-0.33326l1.99173,0.17708l0.94897,0.04696l0.21404,0.05644l0.75557,0.06718l3.11339,0.95306l4.63719,1.22281l0.4155,0.3239l0.45721,0.13996l3.32522,2.80855l4.75759,3.70867l0.1387,0.42684l0.45332,0.38288l2.16541,7.67593l1.8695,5.75314l-0.10719,0.49386l0.13721,0.48638l-1.51401,5.85675l-1.69173,7.79403l-0.42905,0.4099l-0.11233,0.43452l-4.52178,3.9928l-3.14716,3.00673l-0.44779,0.16767l-0.39491,0.34871l-4.55369,1.50423l-3.04925,1.14176l-0.75005,0.11328l-0.21018,0.06943l-0.94432,0.10493l-1.97716,0.2986l-66.34006,3.33474l-1.10233,1.31116l-1.57141,0.7931l-0.16116,0.15049l-3.36153,2.02768l-59,28l-1.71443,0.61309l-1.67913,0.70406l-3.6013,1.10362l2.26639,0.61254l6.03068,1.46073l0.24489,0.23537l2.18742,0.59119l7.42188,8.59375l0.02319,0.07289l0.91705,0.88138l1.30636,6.10649l0.48777,1.53299l0.14028,1.40276l0.44103,2.06155l-0.19068,0.97283v0.45126l0.02094,0.06523l-0.02094,0.22303v2.72959l-0.39062,3.90625l-0.32987,1.03673l-0.10172,1.08318l-1.16769,3.74805l-1.06718,2.51233l-0.06792,0.21347l-0.04478,0.05185l-23.5173,55.36364l12.06,20.87307l181.595,-189.10457l2.98738,-2.54695l0.90993,-0.49427l1.94245,-1.69075l2.87952,-0.92851l2.19273,-1.19107l2.11471,-0.19787l3.62013,-1.16732l2.15844,0.62663l3.41237,-0.31929l5.08687,2.78677l3.72035,1.08008l1.90231,2.00021l2.42089,1.32625l1.99735,3.31936l3.99722,4.20292l0.56579,3.38026l1.15881,1.92579l-0.20069,3.79838l0.35063,2.0948l-0.58942,2.42473l-0.15963,3.02131l-1.13654,2.31085l-0.2446,1.00621l-1.6964,3.54028l-195.67866,321.67118l-27.34612,116.0691l-0.59409,1.72853l-0.0365,0.22214l-0.34041,0.87447l-0.30501,0.88744l-0.11563,0.19315l-0.66304,1.70327l-41.74131,81.99186l-5.81988,38.4112l-0.14586,0.57113l-0.05751,0.58664l-4,20l-1.14912,3.75379l-0.44096,0.79683l-0.66968,2.35713l-2.00096,2.46876l-1.25505,2.26789l-1.57766,1.22707l-2.31616,2.85765l-2.22972,0.67803l-2.83958,2.20857l-5.66536,0.37769l-3.5894,1.0915l-2.80621,-0.66512l-2.87757,0.19184l-3.35945,-1.67012l-5.52487,-1.3095l-2.4352,-2.64779l-2.08687,-1.03747l-1.81163,-3.20137l-1.35299,-1.4711l-0.86267,-2.44424l-1.56509,-2.76571l-0.05711,-0.51397l-5.24889,-2.57879l-5.5223,-2.44334l-0.30281,-0.41854l-2.19252,-1.07719l-5.34105,-9.33576l-0.37239,-0.51472l-0.05343,0.03669l-1.71004,0.34201l-1.9559,0.62489l-2.74964,4.52006l-0.49853,1.84457l-8.59375,7.42188l-0.17174,0.05464l-0.13594,0.11833l-10.80709,3.48476l-1.83499,-0.53273h-77.65997l-4.76324,17.54877l-0.64418,1.68725l-0.23075,0.72054l-0.13414,0.2352l-0.39116,1.02453l-1.66159,2.57473l-2.28091,3.99932l-0.58685,0.44444l-0.36069,0.55891l-3.44901,2.3263l-4.65552,3.52578l-0.62137,0.0334l-0.68795,0.46402l-7.78774,-0.0084l-2.00973,0.10803l-4.15446,19.87289l-0.60444,1.9149l-0.2531,0.92456l-0.10008,0.19433l-0.22407,0.70986l-1.60536,2.84234l-2.19959,4.27094l-0.39898,0.3299l-0.23111,0.4092l-3.46548,2.64738l-4.6554,3.84936l-0.43912,0.04248l-0.46335,0.35396l-7.97034,0.46184l-6.02933,0.58322l-0.45113,-0.20772l-0.49582,0.02873l-2.15831,-1.09648l-2.80222,1.50013l-5.10414,-0.52739l-3.15872,0.54307l-2.65403,-0.99191l-8.84547,1.22896l-1.54419,-0.42114l-0.24507,0.02914l-0.59457,-0.25813l-8.57109,-2.33757l-1.89755,-2.20735l-0.31235,-0.1356l-3.08291,2.82856l-1.86803,0.27836l-2.331,1.47511l-6.2901,-0.19046l-4.31906,0.64359l-2.09778,-0.83789l-2.25789,-0.06837l-1.23125,-0.76884l-1.50039,0.15858l-2.46333,1.4005l-6.21807,-0.48293l-4.28668,0.45307l-2.11257,-0.95008l-2.30942,-0.17936l-1.77678,-1.2298l-0.97065,0.81303l-6.49973,0.67045l-4.45176,1.18966l-0.57577,-0.15737l-0.45743,0.14141l-1.81302,-0.42091l-1.09496,0.11295l-0.42171,-0.19093l-1.72018,0.16744l-2.66192,-1.22369l-0.78647,0.13379l-4.94951,1.4334l-1.40409,-0.3526l-1.42719,0.24278l-4.8236,-1.81249l-6.86595,-1.72419l-1.15478,-1.28963l-1.17062,-0.43987l-2.95843,-4.17137l-1.09369,-1.22141l-1.64964,1.7628l-3.20329,4.19529l-1.05422,0.35429l-1.04228,1.11378l-7.05864,1.60867l-5.03658,1.69262l-1.25386,-0.25903l-1.24833,0.28449l-5.06998,-1.58976l-7.08992,-1.46467l-1.06473,-1.09233l-1.06122,-0.33276l-3.28801,-4.12922l-2.51187,-2.57699l-0.43245,-1.12061l-0.84093,-1.05607l-1.07164,-3.89998l-0.90181,-2.33686l-0.36905,-2.28814l-0.04698,-0.17097l-0.01145,-0.19128l-0.19762,-1.22525l-0.28716,-4.7608l-1.02968,6.92988l-0.52774,2.09142l-0.24234,1.08069l-0.06771,0.14804l-0.1227,0.48627l-1.5011,3.06391l-2.05957,4.50292l-0.26409,0.23994l-0.14295,0.29179l-3.41673,2.94233l-4.58057,4.16163l-0.30267,0.04359l-0.30434,0.26208l-8.07315,0.94446l-6.13863,0.88409l-0.31786,-0.12876l-0.34063,0.03985l-5.68432,-2.48052l-7.53355,-3.05179l-0.22393,-0.33341l-0.28027,-0.12231l-3.31279,-5.22745l-0.07633,-0.11366l-0.44429,0.49211l-0.44921,1.00217l-2.72532,2.51409l-3.6103,3.99895l-0.98928,0.24414l-1.02123,0.94208l-7.263,1.10238l-5.26207,1.29862l-1.12143,-0.32974l-1.15566,0.17541l-5.03873,-1.99676l-7.04784,-2.07229l-0.88478,-1.07126l-0.94729,-0.3754l-3.03771,-4.44952l-2.36117,-2.85883l-0.30988,-1.05362l-0.69363,-1.016l-0.80363,-4.07482l-0.73745,-2.50741l-0.15833,-2.03468l-0.04555,-0.23095l0.00412,-0.30143l-0.10481,-1.34684l7,-318l0.21707,-1.7752l0.11702,-1.78459l14.64054,-87.84323l1.0269,-41.6628l0.286,-2.28878l0.25266,-2.2927l5.09681,-23.98007zM472.97205,173.54858l1.34744,-1.40316l-0.45023,-0.77924zM331.01928,497.4612l-2.28659,2.09168l-1.10624,0.3871l-2.30267,1.68231l-2.7968,0.1021l-4.5121,1.57888l-4.70999,-1.24223l-2.94285,0.10743l-3.25451,-1.74194l-3.56931,-0.94138l-2.08146,-2.08313l-1.9815,-1.06057l-5.01357,18.47104l44.22929,0l-6.41818,-18.26711zM570.25832,144.42675l-33.84487,35.24447l6.04279,10.45867zM482.45145,288.77024l6.3827,-10.49235l3.5387,-15.0198z" fill="#6280f5" stroke="none" stroke-linecap="butt"/><path d="M121,275.8125v-274h193v274z" fill="#62f596" stroke="#000000" stroke-linecap="butt"/><path d="M388,359.8125v-136h74v136z" fill="#62f596" stroke="#000000" stroke-linecap="butt"/><path d="M143,53.8125l19,-24l8,27" fill="none" stroke="#000000" stroke-linecap="round"/><path d="M141,39.8125l33,3" fill="none" stroke="#000000" stroke-linecap="round"/><path d="M187,53.8125h14l-18,-2h13l-12,9l-2,-34" fill="none" stroke="#000000" stroke-linecap="round"/><path d="M210,52.8125l18,-27l5,30" fill="none" stroke="#000000" stroke-linecap="round"/><path d="M213,38.8125h21" fill="none" stroke="#000000" stroke-linecap="round"/><path d="M247,50.8125v-21l10,-3l-10,12l7,5" fill="none" stroke="#000000" stroke-linecap="round"/><path d="M267,45.8125l12,-22l7,23l8,-23l7,16" fill="none" stroke="#000000" stroke-linecap="round"/><path d="M129,259.8125v-46l17,4l-17,14" fill="none" stroke="#000000" stroke-linecap="round"/><path d="M151,222.8125l10,-4v40" fill="none" stroke="#000000" stroke-linecap="round"/><path d="M168,238.8125l12,6l-4,-17" fill="none" stroke="#000000" stroke-linecap="round"/><path d="M186,231.8125l-6,14" fill="none" stroke="#000000" stroke-linecap="round"/><path d="M232,263.8125l6,-55l21,2l-23,17" fill="none" stroke="#000000" stroke-linecap="round"/><path d="M254,220.8125l13,-3l-21,42l17,-3" fill="none" stroke="#000000" stroke-linecap="round"/><path d="M267,241.8125l19,1" fill="none" stroke="#000000" stroke-linecap="round"/><path d="M286,229.8125l-9,14l-3,-21" fill="none" stroke="#000000" stroke-linecap="round"/></g></g></svg>