<svg version="1.1" xmlns="http://www.w3.org/2000/svg" xmlns:xlink="http://www.w3.org/1999/xlink" width="724.5" height="2392.87264" viewBox="0,0,724.5,2392.87264"><g transform="translate(164.75,1836.06014)"><g data-paper-data="{&quot;isPaintingLayer&quot;:true}" fill-rule="nonzero" stroke-linejoin="miter" stroke-miterlimit="10" stroke-dasharray="" stroke-dashoffset="0" style="mix-blend-mode: normal"><path d="M17.82795,165.57468c1.23782,-2.17205 3.40987,-0.93423 3.40987,-0.93423l1.2718,0.72478c4.37014,2.49048 8.24641,4.71735 12.99229,6.39033c1.38376,0.48779 2.67551,1.37171 4.13676,1.50389c1.46125,0.13218 2.89084,-0.50446 4.33948,-0.73716c4.6507,-0.74706 9.64517,-1.44904 14.10716,-3.03645c3.81724,-1.35803 7.65316,-4.24638 11.19544,-6.20074c5.78472,-3.19157 11.74111,-6.19158 17.40166,-9.59721c7.89112,-4.74764 15.30438,-10.61073 22.87567,-15.85806c19.81661,-13.73402 39.54179,-27.62042 59.39788,-41.3079c-31.20659,2.9954 -62.41318,5.99079 -93.61977,8.98619c-9.63224,0.92456 -19.63712,2.76451 -29.309,2.80423c-11.61209,0.04769 -23.5313,-1.73405 -35.11624,-2.59219c-4.94476,-0.36628 -10.04716,-0.4387 -14.95902,-1.10808c-1.94443,-0.26498 -4.50018,0.38597 -5.78383,-1.09836c-1.30263,-1.50627 -1.26196,-4.20821 -0.32493,-5.96539c0.98398,-1.84522 3.50523,-2.28327 5.29784,-3.36012c2.85741,-1.71649 5.81671,-3.25736 8.72506,-4.88603c3.92576,-2.19842 7.98421,-5.11174 12.16273,-6.79333c10.73856,-4.32161 22.71958,-6.73328 33.8262,-10.01698c17.58105,-5.19787 35.16209,-10.39575 52.74314,-15.59362c9.5573,-2.82564 19.12875,-6.23103 28.82682,-8.51872c3.15692,-0.74469 6.36208,-1.35772 9.58349,-1.91517c-6.56497,-2.16801 -13.10231,-4.3822 -19.61932,-6.55477c-17.47333,-5.82506 -34.71011,-12.10799 -51.72058,-19.17322c-10.7511,-4.46543 -22.03864,-8.82134 -30.43634,-17.15611c0,0 -1.76777,-1.76777 0,-3.53553c1.76777,-1.76777 3.53553,0 3.53553,0c7.81607,7.88383 18.74785,11.89121 28.81869,16.07409c16.89975,7.01925 34.02435,13.26024 51.38399,19.0474c9.54459,3.18186 19.13341,6.45695 28.78956,9.54199c1.47548,-0.242 2.94691,-0.49007 4.41121,-0.75155c16.40713,-2.92984 32.81425,-5.85969 49.22138,-8.78953c24.62734,-4.39774 49.86572,-6.09574 74.73826,-8.77328l0.10051,0.03437l-0.0011,-0.03914l2.68851,-0.07529c0.02697,-0.00086 0.05404,-0.00129 0.08122,-0.00129c1.38071,0 2.5,1.11929 2.5,2.5c0,0.99801 -0.58479,1.85943 -1.43041,2.26029l-0.12405,0.06202c4.74476,-1.68124 9.51046,-3.42694 14.33173,-4.71168c9.64725,-2.57074 19.76757,-3.99326 29.55665,-5.96838c10.2192,-2.06191 20.4384,-4.12381 30.6576,-6.18572c2.59975,-1.50087 5.46884,-2.61033 7.83438,-1.58073c5.14052,-1.03719 10.28104,-2.07438 15.42156,-3.11158c11.44173,-2.30858 22.8789,-5.00743 34.38968,-6.93735c16.43252,-2.75511 33.12336,-4.43761 49.63903,-6.64956l4.85107,-0.64971c0.12161,-0.01818 0.24609,-0.0276 0.37277,-0.0276c1.38071,0 2.5,1.11929 2.5,2.5c0,1.18975 -0.83109,2.18539 -1.9444,2.43804l-3.94927,0.98732l-0.016,-0.06402c-5.36709,3.35607 -10.86561,6.46326 -16.28891,9.77321c-5.67848,3.4657 -11.14965,7.77286 -17.08214,10.77583c-5.91826,2.99577 -12.65603,4.97712 -18.83454,7.40101c-10.86079,4.26079 -21.72158,8.52158 -32.58237,12.78238c-6.30361,2.47296 -12.67288,4.79681 -19.08892,7.01042c-0.0718,0.71872 -0.14545,1.43361 -0.22562,2.14216c-0.16471,1.45568 0.27745,2.97149 -0.07132,4.39434c-1.11628,4.55399 -7.06719,7.27773 -10.733,9.31016c-4.23481,2.3479 -8.76547,4.04143 -13.14732,6.07534c-1.6674,0.77395 -3.1962,1.89526 -4.96181,2.40694c-2.74526,0.79558 -5.71617,0.06688 -8.57438,0.06688c-12.03062,0 -23.88212,-0.86206 -35.72758,-2.00861c-2.58037,0.76796 -5.1569,1.54161 -7.72841,2.32338c-12.75684,3.87826 -25.51367,7.75652 -38.27051,11.63478c-6.34295,1.92835 -12.87756,4.5914 -19.377,5.8779c-4.87719,0.96539 -10.22554,0.99399 -15.17794,1.46935c-9.95425,0.95547 -19.9085,1.91094 -29.86275,2.86641c-0.21361,0.0205 -0.42722,0.04101 -0.64083,0.06151c-22.3649,15.32681 -44.52894,30.96098 -66.80877,46.40214c-7.64309,5.29709 -15.12622,11.19815 -23.08862,15.99775c-5.73007,3.45399 -11.76281,6.49353 -17.62145,9.72588c-3.74833,2.06804 -7.74596,5.01833 -11.78145,6.47617c-4.76909,1.72285 -10.18436,2.59515 -15.18081,3.32569c-1.84684,0.27003 -3.68675,0.94242 -5.54564,0.77427c-1.85889,-0.16815 -3.54876,-1.15834 -5.31668,-1.75684c-5.05917,-1.71268 -9.21364,-4.13785 -13.83756,-6.77295l-1.2718,-0.72478c0,0 -2.17205,-1.23782 -0.93423,-3.40987zM230.50813,60.57683c10.58373,0.86564 21.18296,1.65989 31.74105,2.74812c0.94276,0.09717 1.88469,0.19549 2.82587,0.29466c8.27134,-2.57071 15.92001,-6.03654 23.91958,-9.62922c6.01054,-2.69939 12.26678,-5.12643 18.12625,-8.13689c4.65053,-2.38933 9.23083,-4.93911 13.75753,-7.59634c-0.93971,0.09336 -1.87896,0.1841 -2.81767,0.27054c-11.49488,1.05859 -23.29599,1.44383 -34.70321,3.19137c-10.9405,1.67603 -21.85458,4.49189 -32.70383,6.99677c-3.57655,1.8295 -7.09769,3.71483 -10.47728,5.75783c-3.25483,1.96759 -6.4738,4.01089 -9.6683,6.10315zM215.2664,56.38507c-1.87923,0.56874 -3.7478,1.2377 -5.60745,1.9602c0.25307,0.02951 0.50617,0.05884 0.75928,0.08802c1.34478,-0.56778 2.68956,-1.13556 4.03433,-1.70336c0.27134,-0.11457 0.54262,-0.22953 0.81384,-0.34486zM201.24516,62.30638c-0.27259,-0.03906 -0.54502,-0.07866 -0.81728,-0.11882c-1.19243,0.50131 -2.3823,0.99238 -3.5701,1.4604c-6.1244,2.41313 -12.24849,4.54011 -17.95384,7.83695c-5.1847,2.99599 -10.37281,5.98611 -15.56021,8.97744c10.77305,-0.90192 21.62646,-1.33811 32.41149,-2.19433c0.07267,-0.04878 0.14534,-0.09756 0.21801,-0.14634c2.32106,-1.55775 4.63476,-3.13722 6.94557,-4.72797c-3.2265,-0.0388 -6.4508,-0.08532 -9.66363,-0.08291l-0.0006,-0.00016v0.00016l-4.99988,0.00135c-0.00026,0 -0.00053,0 -0.00079,0c-1.38071,0 -2.5,-1.11929 -2.5,-2.5c0,-1.02968 0.6225,-1.91397 1.5117,-2.29705l4.49568,-2.05591c0.81312,-0.54465 8.15649,-3.59233 8.87254,-3.89468c0.20378,-0.08605 0.40756,-0.17209 0.61134,-0.25814zM211.6381,73.4384c-1.85282,1.28615 -3.70501,2.57082 -5.55892,3.84853c5.54852,-0.66841 11.17573,-2.31633 16.64466,-3.42938c1.82269,-0.37096 3.64026,-0.74925 5.45362,-1.13509c-3.27568,0.23768 -6.55037,0.43478 -9.82222,0.56753c-2.23398,0.09065 -4.47407,0.13375 -6.71715,0.14841zM278.86903,65.10515c3.6391,0.39107 7.27332,0.77352 10.90773,1.13026c23.24076,-6.9002 46.78447,-13.35887 69.75691,-21.17027c0.0568,-1.48325 -0.18517,-2.98292 -0.01556,-4.45886c0.66185,-5.75943 3.07167,-11.4743 4.01151,-17.17744c0.15836,-0.96098 -0.20118,-1.96663 -0.01088,-2.92179c0.16821,-0.84427 0.83828,-1.55251 1.0725,-2.36798c-1.42393,0.2873 -2.84786,0.57461 -4.27178,0.86191c-1.29397,0.77393 -2.51115,1.67138 -3.76967,2.50233c-5.04447,3.31155 -10.10574,6.65363 -15.20877,9.94667c1.88617,-0.08651 3.77261,-0.1365 5.65899,-0.13747h3c1.38071,0 2.5,1.11929 2.5,2.5c0,1.25484 -0.92451,2.29374 -2.12954,2.47274l-4.43655,0.73942c-7.08062,3.74131 -14.10468,7.58931 -21.18313,11.33674c-4.17025,2.20779 -8.4218,5.00708 -12.80221,6.76414c-9.22418,3.7 -19.4408,5.84469 -28.96499,8.70195c-1.37343,0.41203 -2.74408,0.8428 -4.11455,1.27765zM330.79741,32.23369c5.53232,-3.45925 11.00089,-7.02393 16.43751,-10.59268c-6.13736,1.23832 -12.27473,2.47665 -18.41209,3.71497c-9.68821,1.95477 -19.71069,3.35441 -29.25811,5.89856c-5.49551,1.46441 -10.91822,3.54465 -16.32026,5.425c11.30704,-1.68075 22.97847,-2.08281 34.35776,-3.13076c4.39055,-0.40434 8.79039,-0.89591 13.19518,-1.31509zM197.45026,83.1528c-3.2298,2.17121 -6.45369,4.35155 -9.67261,6.53953c7.15439,-0.68672 14.30879,-1.37344 21.46318,-2.06017c4.78637,-0.45942 9.97028,-0.46386 14.68481,-1.39706c6.33401,-1.25376 12.71112,-3.87734 18.89351,-5.75688c11.51978,-3.50217 23.03955,-7.00435 34.55933,-10.50652c-3.69059,-0.39723 -7.38668,-0.80172 -11.09346,-1.19608c-1.15392,0.26802 -2.31313,0.5082 -3.47913,0.71221c-0.00943,0.00256 -0.01885,0.00512 -0.02828,0.00768c-12.97323,3.51908 -25.88457,6.58079 -39.05659,9.2616c-5.71976,1.16411 -11.58898,2.87453 -17.38783,3.53309c-2.95293,0.33535 -5.91499,0.61661 -8.88293,0.8626zM305.75113,52.09106c1.45311,-0.49907 2.88865,-1.02679 4.3003,-1.59162c4.2286,-1.69193 8.33567,-4.42651 12.35991,-6.55698c4.45064,-2.35621 8.88028,-4.75098 13.31698,-7.13292c-1.09246,0.08674 -2.18474,0.18173 -3.27674,0.28236c-7.5362,4.68834 -15.1922,9.17398 -23.04574,13.20895c-1.2037,0.61843 -2.42372,1.21279 -3.65471,1.7902zM358.50154,50.68806c-18.15507,6.08048 -36.64131,11.36837 -55.03541,16.7348c7.46909,0.54396 14.96579,0.88964 22.53387,0.88964c2.47531,0 5.06255,0.80379 7.42562,0.06688c3.03627,-0.94684 5.70165,-2.82478 8.61131,-4.10901c5.48257,-2.41984 11.28995,-4.93005 15.84895,-8.93597c1.36957,-1.20342 0.51326,-3.1492 0.61566,-4.64633zM364.29936,43.42167c5.60109,-1.95947 11.16436,-4.00738 16.67697,-6.17003c10.86079,-4.26079 21.72158,-8.52158 32.58237,-12.78238c6.03025,-2.36572 12.62692,-4.2839 18.40246,-7.20742c5.81138,-2.94166 11.17376,-7.18833 16.73742,-10.58389c2.45837,-1.50037 4.94599,-2.95934 7.43808,-4.40954c-13.07601,1.62565 -26.20548,3.12801 -39.17275,5.30213c-11.45638,1.9208 -22.8398,4.60973 -34.22754,6.90741c-4.39671,0.88712 -8.79342,1.77423 -13.19013,2.66135c-0.08653,1.27968 -0.92828,2.66396 -1.06497,3.97866c-0.57358,5.51673 -1.60431,10.90397 -3.06458,16.33456c-0.51996,1.93367 -0.85797,3.94173 -1.11733,5.96916zM200.15638,68.36096c3.30156,0.04024 6.60827,0.08933 9.90984,0.08502c2.07628,-1.44096 4.15396,-2.88232 6.23627,-4.31647c-1.71209,-0.19516 -3.42774,-0.38611 -5.14362,-0.58145c-2.86005,1.20761 -5.7201,2.4152 -8.58019,3.62271c-0.82275,0.34736 -1.62475,0.76209 -2.4223,1.19019zM242.01914,66.52346c-6.06474,-0.49466 -12.13141,-0.96771 -18.18932,-1.48877c-1.57181,1.06633 -3.13955,2.14011 -4.70462,3.21807c7.62445,-0.33873 15.26379,-1.01686 22.89394,-1.7293zM227.79972,56.37563c-2.4416,1.0697 -4.87876,2.14796 -7.31759,3.20799c0.70239,0.08451 1.40374,0.17081 2.10382,0.25955c1.73191,-1.16741 3.46922,-2.32468 5.21376,-3.46754z" fill="#6280f5" stroke="none" stroke-width="0.5" stroke-linecap="butt"/><path d="M-148,472.1875v-2291.49764h561v2291.49764z" fill="#6280f5" stroke="#000000" stroke-width="33.5" stroke-linecap="butt"/><path d="M447.5573,176.79465l0.88546,-258.99849l9.99994,0.03419l-0.88546,258.99849z" fill="#6280f5" stroke="#000000" stroke-width="33.5" stroke-linecap="butt"/><path d="M386,473.8125v-541h157v541z" fill="#6280f5" stroke="#000000" stroke-width="33.5" stroke-linecap="butt"/><path d="M272,-46.1875v-26h218v26z" fill="#6280f5" stroke="#000000" stroke-width="33.5" stroke-linecap="butt"/><path d="M122,227.8125v-125h40v125z" fill="#6280f5" stroke="#000000" stroke-width="33.5" stroke-linecap="butt"/><path d="M251,200.8125v-80h114v80z" fill="#f56262" stroke="#000000" stroke-width="33.5" stroke-linecap="butt"/><path d="M90,556.8125v-222h4v222z" fill="#f56262" stroke="#000000" stroke-width="0" stroke-linecap="butt"/><path d="M-2,446v-558.6875h479v558.6875z" fill="#f56262" stroke="none" stroke-width="0" stroke-linecap="butt"/><path d="M106,363.8125v-91h137v91z" fill="#97f562" stroke="none" stroke-width="0" stroke-linecap="butt"/><path d="M186,193.8125l-28,69" fill="none" stroke="#000000" stroke-width="0.5" stroke-linecap="round"/><path d="M220,263.8125l-78,-73" fill="none" stroke="#000000" stroke-width="0.5" stroke-linecap="round"/><path d="M228,136.8125l-103,99" fill="none" stroke="#000000" stroke-width="0.5" stroke-linecap="round"/><path d="M395,360.8125v-132h66v132z" fill="#00ffa2" stroke="#000000" stroke-width="0.5" stroke-linecap="butt"/><path d="M410.30416,296.72017c-0.71585,1.12982 -1.45151,2.26602 -2.20048,3.42136l-0.22423,0.12054l0.06444,0.06214l-2.1416,2.22085c-0.45487,0.47305 -1.0942,0.76744 -1.80229,0.76744c-1.38071,0 -2.5,-1.11929 -2.5,-2.5c0,-0.22872 0.03071,-0.45026 0.08824,-0.66073l0.9864,-3.94561l0.02385,0.00596c0.00714,-0.05629 0.01473,-0.11256 0.02278,-0.1688c0.07429,-0.51921 0.31847,-1.10536 0.61365,-1.73083h-4.23492c-1.38071,0 -2.5,-1.11929 -2.5,-2.5c0,-1.18975 0.83109,-2.18539 1.9444,-2.43804l2.05606,-0.51401c-0.0003,-0.01595 -0.00045,-0.03193 -0.00045,-0.04795c0,-1.18975 0.83109,-2.18539 1.9444,-2.43804l0.31798,-0.0795c-0.30125,-0.60807 -0.39269,-1.17564 0.03344,-1.66211c0.25056,-0.28604 0.53896,-0.50864 0.8565,-0.68161c0.35096,-0.95638 1.26963,-1.63875 2.34769,-1.63875c0.5628,0 1.08217,0.18597 1.5,0.49982v-1.99982c0,-1.38071 1.11929,-2.5 2.5,-2.5c0.69036,0 1.31536,0.27982 1.76777,0.73223l1.90746,1.90746l1.47884,-0.49295c0.2642,-0.09499 0.54902,-0.14675 0.84593,-0.14675c1.38071,0 2.5,1.11929 2.5,2.5c0,0.16225 -0.01546,0.32089 -0.04498,0.47453c0.51531,0.01394 1.03038,0.0237 1.54498,0.02547c1.46685,0.00504 2.99943,-0.40224 4.40046,0.03228c1.84818,0.5732 4.88891,0.96365 5.03267,2.89334c0.29333,3.93749 -8.00384,8.96912 -11.02936,10.64307c-1.58763,0.8784 -3.14081,2.85 -4.89405,2.38277c-1.5174,-0.40438 -2.53634,-1.3249 -3.20555,-2.54378zM415.02429,288.52421c-0.17713,0.3559 -0.35753,0.70957 -0.54099,1.06137c-0.03195,1.1675 -0.08853,2.33458 -0.09057,3.50246c-0.00074,0.42558 -0.31161,1.39004 0.09756,1.27301c0.6279,-0.17959 0.62982,-1.17024 1.10595,-1.61723c1.45322,-1.36428 3.68922,-3.23627 5.92045,-4.37249c-0.50623,-0.02479 -1.01355,-0.06072 -1.51669,-0.05883c-1.65276,0.0062 -3.31704,0.1431 -4.97571,0.21171z" fill="#0001ff" stroke="none" stroke-width="0.5" stroke-linecap="butt"/></g></g></svg>