<svg version="1.1" xmlns="http://www.w3.org/2000/svg" xmlns:xlink="http://www.w3.org/1999/xlink" width="111" height="158.17738" viewBox="0,0,111,158.17738"><g transform="translate(-172.5,-84.25767)"><g data-paper-data="{&quot;isPaintingLayer&quot;:true}" fill-rule="nonzero" stroke="none" stroke-width="0.5" stroke-linecap="butt" stroke-linejoin="miter" stroke-miterlimit="10" stroke-dasharray="" stroke-dashoffset="0" style="mix-blend-mode: normal"><path d="M283.5,238.8125c0,2.5 -2.5,2.5 -2.5,2.5l-1.20943,-0.12829c-4.21298,1.36204 -8.36775,1.37494 -12.79057,1.12829c-1.49323,-0.08327 -3.28736,0.45408 -4.46178,-0.47189c-3.29971,-2.60169 -2.03822,-9.52671 -2.03822,-13.02811c0,-5.16862 0.10367,-10.34524 -0.93807,-15.44698c-0.22117,-1.08313 -0.89148,-2.05575 -1.02965,-3.15256c-0.21797,-1.73017 0.06524,-3.49004 -0.02656,-5.23146c-0.27457,-5.20841 -1.18314,-10.48775 -1.76823,-15.7158c-0.4605,0.38814 -0.92302,0.77468 -1.38771,1.15954c-0.91154,0.75495 -5.89195,4.94591 -7.84979,6.32717c0,7.6867 0,15.3734 0,23.0601c0,2.66667 0.13283,5.33664 0,8c-0.09102,1.82511 0.52267,3.92876 -0.47189,5.46178c-1.05717,1.62952 -6.51493,2.26447 -8.16074,2.88294c-3.55866,1.33728 -7.344,3.18245 -10.74933,4.89136l-3.11803,0.26393c0,0 -2.5,0 -2.5,-2.5c0,-2.5 2.5,-2.5 2.5,-2.5l0.88197,0.26393c3.56351,-1.77573 7.52687,-3.71495 11.25067,-5.10864c1.34239,-0.50241 2.7606,-0.78627 4.1684,-1.05559c0.5474,-0.10472 1.43745,0.44463 1.67086,-0.06148c0.36041,-0.78147 -0.40994,-1.67988 -0.47189,-2.53822c-0.19197,-2.65975 0,-5.33333 0,-8c0,-7.47843 0,-14.95687 0,-22.4353c-4.07136,-0.76782 -8.71694,-3.634 -9.8097,-6.60799c-1.04612,-2.84704 -0.33254,-6.33964 0.3052,-9.45672c-1.59963,-0.00237 -3.26007,-0.0101 -3.39595,-0.03227c-3.67,-0.59885 -7.33154,-2.39336 -10.99535,-2.99925c-2.24063,-0.37054 -4.65599,-0.2382 -6.70257,-1.22268c-1.08306,-0.52099 -1.92715,-1.4583 -3,-2c-3.62604,-1.83085 -8.23107,-2.66645 -12.12377,-3.71628l-0.97989,-0.03769c0,0 -2.49182,-0.20203 -2.28979,-2.69386c0.20203,-2.49182 2.69386,-2.28979 2.69386,-2.28979l1.8788,0.19409c4.22311,1.14085 9.06976,2.09556 13.01755,4.05194c2.67712,1.32668 2.53326,2.37179 5.30208,2.77807c5.76911,0.84653 11.31563,2.48909 17.12645,2.88185c-0.09332,-1.49774 -0.25414,-3.12603 0.08037,-4.1386c0.18959,-0.57389 0.96939,-1.77173 1.88467,-3.06612c-5.17367,-4.59007 -6.00055,-14.02471 -5.99193,-20.21534c0.0042,-3.01604 -0.23359,-7.82438 1.44525,-10.41817c2.51745,-3.88941 10.34484,-4.77301 14.33637,-5.97047c0,0 1.42036,-0.42611 2.40142,0.47194c5.16011,-1.71571 11.63345,-3.26992 15.28746,0.38409c1.00498,1.00498 0.25424,2.83515 0.51076,4.23307c1.12917,6.15355 1.01904,12.07406 1.01816,18.35868c-0.32248,6.23017 -2.58768,10.25811 -6.92486,13.47896c0.03998,-0.00458 0.07997,-0.00907 0.11997,-0.01345c1.93191,-0.2115 3.88848,0.01534 5.83611,0.09533c0.0898,-0.75507 0.49639,-1.76898 1.97905,-2.06552c1.67382,-0.33476 2.43335,0.70191 2.74679,1.39328c0.7995,-0.37079 1.58446,-0.71425 2.31788,-0.37495c1.83212,0.84757 2.61256,3.07811 3.91883,4.61716c-1.33189,1.28612 -2.66362,2.56573 -3.99959,3.83686c2.00267,5.93725 4.68969,11.55051 6.96337,17.51741l0.043,3.46169c0,0 0,2.5 -2.5,2.5c-2.5,0 -2.5,-2.5 -2.5,-2.5l0.043,-2.53831c-2.00719,-5.01217 -4.19414,-9.78004 -6.01036,-14.71434c-1.78408,1.65695 -3.58316,3.29563 -5.40742,4.91141c0.3142,0.56135 0.36452,1.11489 0.36452,1.11489c0.54443,5.98877 1.69802,12.07003 2.00455,18.05734c0.08127,1.58746 -0.22205,3.19107 -0.02656,4.76854c0.12332,0.99513 0.77102,1.8647 0.97035,2.84744c0.83352,4.10941 1.05946,8.37854 1.06193,12.55302c0.00158,2.66667 0.01133,5.33336 0,8c-0.0051,1.19989 -0.02306,2.39968 -0.03228,3.59954c-0.00352,0.45744 -0.40034,1.14058 -0.00594,1.37235c0.4624,0.27173 1.00383,-0.42636 1.53822,-0.47189c3.9561,-0.33709 7.38738,0.45214 11.20943,-0.87171l2.79057,-0.12829c0,0 2.5,0 2.5,2.5zM242.5,191.8125c0,0 0,-2.5 2.5,-2.5c1.37107,0 1.99021,0.75194 2.26979,1.43104c0.3444,-0.34209 0.68892,-0.68429 1.05632,-0.99338c3.60688,-3.03444 7.2423,-6.00751 10.79051,-9.11162c2.02061,-1.76771 3.75609,-3.62956 5.70732,-5.20709c-0.10003,-0.34007 -0.19758,-0.68151 -0.29247,-1.02444c-0.68387,-0.03793 -1.24855,-0.09493 -1.53147,-0.09451c-4.53652,0.00676 -8.47801,0.98033 -13,1h-2c0,0 -1.82572,0 -2.35675,-1.56021c-0.47803,-0.20537 -0.95459,-0.42138 -1.43382,-0.56809c-1.60726,-0.49205 -3.20307,-1.0183 -4.72957,-1.70826c-0.4533,0.63958 -0.83531,1.31641 -1.08713,2.06101c-0.58509,1.73002 0.31132,3.66551 0.10154,5.47899c-0.01179,0.20546 -0.04144,0.39254 -0.08565,0.56288c-0.47204,2.71571 -1.82722,6.54718 -1.09892,9.27696c0.1405,0.52662 0.83202,0.70619 1.27527,1.02335c0.73568,0.5264 2.34966,1.7415 3.91503,2.37823c0,-0.14829 0,-0.29659 0,-0.44488zM239,164.3125c0,0 1.5,-2 3.5,-0.5c2,1.5 0.5,3.5 0.5,3.5c-0.04106,0.05473 -0.08261,0.10921 -0.12459,0.16347c0.79459,0.26408 1.63789,0.48815 2.91516,0.96482c0.69135,0.25801 1.30755,1.01726 2.03221,0.878c1.29049,-0.24801 2.30392,-1.26536 3.43798,-1.92927c5.1766,-3.03048 8.04916,-5.36978 8.23981,-11.63024c-0.00064,-4.4417 0.5152,-9.23731 0.01816,-13.64132c-0.15413,-1.3657 -0.88382,-2.63055 -1,-4c-0.05183,-0.61089 0.94427,-1.33341 0.51076,-1.76693c-0.55052,-0.55052 -1.55649,-0.04535 -2.33494,-0.05726c-3.97892,-0.06087 -8.13486,1.63155 -11.90397,2.89044l-1.79057,0.12829c0,0 -0.96061,0 -1.69091,-0.59545c-1.30155,0.37112 -2.5936,0.7704 -3.85938,1.24781c-0.84574,0.31898 -1.93665,0.49266 -2.39497,1.27174c-0.72966,1.24032 -0.55098,6.31419 -0.55475,7.58183c-0.01266,4.25778 0.28823,12.60333 3.97655,16.18169c0.23492,-0.30763 0.41714,-0.54581 0.52346,-0.68762z" fill="#cb62f5"/><path d="M200.5,153.8125v3c0,0.63978 0.02909,1.32376 0.07223,2.03595c0.02814,0.02863 0.05558,0.05857 0.08227,0.08986c0.96257,1.12831 1.58545,7.75904 1.84095,10.02488l-0.22349,0.4173l0.1534,0.03835l-0.98732,3.94927c-0.25265,1.1133 -1.24829,1.9444 -2.43804,1.9444c-0.99437,0 -1.85315,-0.58054 -2.25589,-1.42117c-0.10917,0.93567 -0.23033,1.87079 -0.3636,2.80588c1.57259,0.90931 1.02044,2.81203 1.02044,2.81203l-1.97955,6.82152c-0.28386,1.06893 -1.25816,1.85663 -2.41644,1.85663c-1.38071,0 -2.5,-1.11929 -2.5,-2.5c0,-0.0384 0.00087,-0.0766 0.00258,-0.11457l0.19758,-4.98059l0.05595,0.00222l-0.04295,-0.17621c1.1762,-6.51783 1.78536,-12.9819 1.78188,-19.60573c0,0 0,-0.45143 0.19183,-0.97063c-0.01588,-0.95758 -0.06783,-1.89359 -0.17966,-2.78302c-0.1075,-0.85499 -0.25207,-1.70381 -0.41742,-2.54922c-0.53456,-0.09831 -1.0141,-0.28271 -1.40908,-0.57049c-3.6778,-2.67969 -3.44659,-7.56232 -3.17715,-11.33283c0.03231,-0.4522 0.06905,-0.90508 0.10988,-1.35853c-1.02174,-0.75264 -1.94743,-1.51702 -1.91597,-2.66375c0.02626,-0.95717 0.81908,-1.54283 1.79757,-2.00521c0,-1.50044 0,-3.04881 0,-4.62113c-1.21074,0.40953 -2.4456,0.80525 -3.70943,1.22653l-1.67254,0.86436c0,0 -2.23607,1.11803 -3.3541,-1.11803c-1.11803,-2.23607 1.11803,-3.3541 1.11803,-3.3541l2.32746,-1.13564c1.80696,-0.60232 3.57337,-1.12983 5.29057,-1.7434c0,-2.92534 0,-5.84231 0,-8.6033c-1.71019,0.39255 -3.13228,0.78837 -4.73223,2.48617l-2.64973,1.4683c0,0 -2.23607,1.11803 -3.3541,-1.11803c-1.11803,-2.23607 1.11803,-3.3541 1.11803,-3.3541l1.35027,-0.5317c2.43971,-2.34566 5.3018,-3.34767 8.26777,-4.35575c0,-2.31312 0,-4.62623 0,-6.93935c-1.78175,0.21819 -3.56214,0.42804 -5.14509,1.20884c0.82319,2.06006 -1.23688,3.09009 -1.23688,3.09009l-3.11803,1.26393h-3c-1.38071,0 -2.5,-1.11929 -2.5,-2.5c0,-1.1246 0.74256,-2.07576 1.76412,-2.38994l2.53885,-0.84628c1.027,-1.02091 1.83299,-2.35773 3.1285,-2.99483c2.32965,-1.14566 4.98742,-1.35963 7.56853,-1.80454c0,-0.98814 0,-1.97627 0,-2.96441c0,-1.54792 -0.01874,-8.41378 0.10727,-8.72446c0.79118,-1.95074 2.07703,-4.37719 4.14639,-4.76337c4.71462,-0.87983 5.73419,7.15003 5.99269,9.78884c0.14785,1.50928 -0.00979,3.07547 0.41856,4.53022c0.38585,1.31039 1.30513,2.41319 1.89793,3.64239c1.08044,-0.0606 2.09753,-0.01013 2.70493,0.75861c0.91318,1.15574 0.88996,2.70854 0.7998,4.27538c4.68255,-1.59447 9.03392,-3.71762 13.82609,-4.93297l-0.16143,-0.34241c0,0 1.76777,-1.76777 3.53553,0c1.76777,1.76777 0,3.53553 0,3.53553l-2.16143,1.65759c-4.77255,1.1735 -9.13023,3.38451 -13.81577,4.94635c0,0 -0.52759,0.17586 -1.16805,0.11286c0.02922,0.78552 0.05007,1.57255 0.06408,2.36073c0.6454,-0.3453 1.3134,-0.3453 1.3134,-0.3453c4.66667,0 9.33333,0 14,0h3c0,0 2.5,0 2.5,2.5c0,2.5 -2.5,2.5 -2.5,2.5c-4.66667,0 -12.33333,0 -17,0c0,0 -0.65574,0 -1.29554,-0.33583c-0.00282,0.38752 -0.00661,0.77514 -0.01119,1.16284c1.23104,1.66089 0.57161,4.49979 0.80673,6.67299c0.08776,0.81115 0.13256,1.62462 0.15017,2.43956c2.83254,-0.32196 4.39012,-1.73255 7.55927,-2.81127l0.0228,-0.39606c0,0 1.76777,-1.76777 3.53553,0c1.76777,1.76777 0,3.53553 0,3.53553l-1.9772,1.60394c-2.14851,0.69756 -3.88993,2.41527 -6.06611,3.02102c-1.02401,0.28504 -2.10019,0.21796 -3.17573,0.15517c-0.02722,0.81796 -0.04873,1.63561 -0.04873,2.4521c0,1.93133 0.04781,8.45784 -0.29581,9.17964c-0.33071,0.69468 -1.37057,1.5245 -2.62034,2.26855c0.09934,0.93455 0.05067,1.83452 -0.39196,2.63661c-0.23081,0.41824 -0.66496,0.86202 -1.23464,1.29154c0.54274,0.7206 0.54274,1.62365 0.54274,1.62365zM192.50576,104.38832c0.01355,-0.01019 0.02715,-0.02032 0.04078,-0.03038c0.10496,-0.49644 0.51977,-1.82567 1.97447,-2.02585c-0.45786,-0.73691 -0.92218,-1.47066 -1.15806,-2.29509c-0.49981,-1.74684 -0.4016,-3.61164 -0.59106,-5.41868c-0.05805,-0.5537 -0.17266,-1.09882 -0.30237,-1.64164c0.01248,0.61191 0.02145,1.22391 0.03047,1.83582c0.03888,2.63692 0.02646,5.27707 0.01351,7.91623c0.01328,0.16213 0.01176,0.3145 -0.00224,0.45761c-0.00195,0.40069 -0.00385,0.80136 -0.00551,1.20198zM196.04468,145.19686c-0.01581,-0.07005 -0.0292,-0.14007 -0.03972,-0.21005c-0.19746,-1.31315 -0.34304,-2.6328 -0.46763,-3.95508c0.02404,0.61623 0.02001,1.21443 -0.03733,1.78076c-0.0456,0.45039 -0.18407,0.88905 -0.32866,1.32593c0.05358,0.47803 0.09834,0.95966 0.16065,1.4333c0.09267,-0.10178 0.18522,-0.18812 0.26755,-0.22695c0.02656,-0.01253 0.19284,-0.06613 0.44514,-0.14792zM195.4459,122.38259c0.04523,-0.01619 0.09073,-0.03222 0.13651,-0.04814c-0.0045,-0.19537 -0.00874,-0.39074 -0.01273,-0.5861c-0.04438,0.15442 -0.07997,0.31093 -0.10292,0.47045c-0.00785,0.05454 -0.01478,0.10914 -0.02086,0.16379z" fill="#be4c4c"/></g></g></svg>