<svg version="1.1" xmlns="http://www.w3.org/2000/svg" xmlns:xlink="http://www.w3.org/1999/xlink" width="689.02759" height="1073.33046" viewBox="0,0,689.02759,1073.33046"><g transform="translate(84.8854,433.1875)"><g data-paper-data="{&quot;isPaintingLayer&quot;:true}" fill-rule="nonzero" stroke-width="0.5" stroke-linejoin="miter" stroke-miterlimit="10" stroke-dasharray="" stroke-dashoffset="0" style="mix-blend-mode: normal"><path d="M35.22222,-205.51338l0.48304,-2.0346l0.20821,-1.02068l0.07528,-0.1734l0.14028,-0.59088l1.42997,-3.0258l1.94603,-4.48216l0.31107,-0.29382l0.16626,-0.35181l3.32601,-2.94674l4.45156,-4.20463l0.361,-0.05915l0.3606,-0.31948l3.98342,-0.52294l0.75724,-1.24741l1.63447,-3.53378l1.12701,-1.01524l0.69687,-1.14797l2.80365,-2.00538l3.80914,-3.43136l1.22793,-0.17153l1.39492,-0.99775l7.08915,-0.1874l5.11572,-0.71462l1.32742,0.5443l1.43418,-0.03791l2.33464,1.27997l2.02446,-14.45048l0.92881,-3.81428l0.87448,-1.82313l1.07993,-3.39405l1.2327,-1.42734l0.71313,-1.48674l2.34272,-2.05161l3.13333,-3.62806l1.46017,-0.39464l1.60619,-1.4066l6.71403,-0.8421l4.67273,-1.2629l1.71047,0.46229l1.75807,-0.22051l0.73359,0.31289l-0.08282,-14.94862l-0.1095,-3.9054l0.02517,-0.35075l-0.03499,-0.34991v-36l0.39063,-3.90625l2.73438,-8.59375l7.42188,-8.59375l14.45313,-3.90625l14.45313,3.90625l7.42188,8.59375l2.73438,8.59375l0.39063,3.90625v18.93075l0.11544,20.83604l0.06397,2.2817l3.70708,1.00191l4.01921,0.23252l2.17188,1.44075l4.37555,1.18258l3.47809,4.02726l2.45066,1.62568l0.95376,2.31627l0.53937,0.62454l0.95952,3.01563l1.87078,4.54332l-0.02402,1.75376l0.31873,3.1873l0,30.83376l0.8317,-0.1853l5.33543,-1.63458l0.9743,0.22879l0.97685,-0.21764l5.31641,1.69543l7.30768,1.716l0.80441,0.87099l0.83543,0.26642l3.43716,4.35981l2.62705,2.84449l0.31545,0.88787l0.65038,0.82496l1.12358,4.16812l0.92975,2.61694l0.221,1.652l0.07289,0.27041l0.02562,0.46595l0.20103,1.50271l0.06348,1.90438l1.79519,0.43057l0.29136,0.31851l0.31696,0.08567l4.02906,4.66523l3.02689,3.30887l0.11528,0.32943l0.25064,0.29022l1.49392,4.69519l1.11885,3.19731l0.06917,0.53647l0.05243,0.16477l0.10775,1.07747l0.27268,2.11479l0.18467,6.46336l24.8913,-49.7826l9.01934,-109.02784l0.41079,-2.22952l0.19936,-1.20116l0.0415,-0.10609l0.05969,-0.32397l1.34052,-3.2557l1.84346,-4.71287l0.16689,-0.16966l0.08269,-0.20084l3.29659,-3.23456l4.41666,-4.49l0.20074,-0.04052l0.19112,-0.18753l8.09984,-1.48587l6.18405,-1.24815l0.21678,0.07396l0.22529,-0.04133l5.93381,2.14251l0.54762,0.18682l5.60077,-52.0872l0.39176,-1.86744l0.13697,-0.84764l0.08942,-0.23153l0.18786,-0.8955l1.27674,-2.89648l1.69522,-4.38909l0.4369,-0.44797l0.2286,-0.51862l3.11435,-2.90902l4.14831,-4.25341l0.5202,-0.10731l0.51525,-0.48128l7.78993,-1.23196l5.83759,-1.20421l0.56823,0.19114l0.59216,-0.09365l5.55481,2.1614l0.49876,0.16778l3.78453,-0.66252l2.82959,-1.37188l3.48252,0.26688l3.44041,-0.60228l2.16779,0.80268l1.01658,-0.4874l2.31251,0.18738l2.23973,-0.60533l4.15775,1.12372l6.2128,0.50342l2.21544,1.77448l1.86714,0.50463l2.7761,3.21443l2.00396,1.6051l1.00507,1.87904l1.63676,1.89519l0.91482,2.87514l0.69685,1.30281l1.09538,3.76982l5,27l0.08984,1.07413l0.21061,1.0571l8.06294,82.86906l4.84728,-1.01517l6.09431,-1.41715l0.27174,0.08389l0.27835,-0.0583l5.93636,1.977l7.81898,2.414l0.20841,0.25938l0.24092,0.08024l3.80345,4.95322l2.85951,3.55883l0.07257,0.25961l0.18008,0.23452l1.24152,4.85131l0.93358,3.33992l0.02644,0.41142l0.03431,0.13407l0.04591,1.08838l0.41293,-0.49193l0.21243,-0.06063l0.19004,-0.2178l7.94418,-2.1037l6.05018,-1.72671l0.23952,0.06114l0.23896,-0.06328l6.06539,1.67251l7.96269,2.03253l0.19199,0.21609l0.21297,0.05872l4.08095,4.77428l3.05592,3.43958l0.07419,0.22232l0.16692,0.19528l1.50462,4.81355l1.10906,3.32335l0.04044,0.35413l0.03643,0.11653l0.11333,1.19471l0.25525,2.235l0.98228,69.93798l0.95118,0.29463l7.9037,2.2913l0.176,0.21145l0.20094,0.06224l3.93655,4.90865l2.95073,3.54508l0.06377,0.21382l0.15298,0.19075l1.35616,4.86926l1.00458,3.36826l0.02757,0.33762l0.03133,0.11248l0.07658,1.20912l0.18399,2.2535l-0.57697,31.69187l0.00286,-0.01351l0.06132,-0.46523l0.09336,-0.26442l0.3445,-1.62504l1.12658,-2.54125l1.43815,-4.07304l0.70931,-0.77103l0.38087,-0.85913l2.8371,-2.63884l3.76051,-4.08771l0.85107,-0.2016l0.8658,-0.80529l7.41927,-1.15725l5.43241,-1.28681l0.95493,0.29052l0.98622,-0.15383l5.19846,2.03542l7.18387,2.18558l0.7444,0.91868l0.81442,0.31888l3.15054,4.57438l2.43929,3.01039l0.25671,0.90403l0.59426,0.86283l0.85316,4.23439l0.75933,2.67405l0.11336,1.65728l0.05539,0.2749l-0.00449,0.46923l0.10364,1.51517l-2.34951,74.86398l55.69656,84.3405l0.38229,0.20003l1.10963,2.05916l1.07715,1.63111l1.82662,3.47489l0.16815,0.59463l1.20507,2.23627l0.26824,2.97385l0.81249,2.87325l-0.32609,2.51927l0.05551,0.61545l-0.46383,3.89824l-0.42294,1.90838l-0.30026,2.31976l-0.28553,0.32346l-74.92748,338.08742l-5.48387,174.7359l-0.29252,2.2195l-0.13177,1.18192l-0.0399,0.12064l-0.04877,0.37001l-1.16291,3.29352l-1.58027,4.77796l-0.17785,0.20127l-0.08157,0.23101l-3.10778,3.37819l-4.15185,4.6984l-0.22355,0.0577l-0.20462,0.22242l-7.98649,1.89182l-6.08192,1.56983l-0.24868,-0.07025l-0.25145,0.05956l-6.0093,-1.82824l-0.87632,-0.24756l0.65793,21.31686l-0.26993,3.91644l-0.25872,0.90932l-0.12754,2.48184l-1.37963,2.81533l-0.70207,2.46752l-1.28103,1.57928l-1.634,3.33441l-2.00192,1.14801l-2.23628,2.75692l-5.46549,1.65969l-3.28403,1.88324l-2.84954,-0.02067l-2.72667,0.828l-3.6833,-0.87451l-5.71178,-0.04144l-2.92636,-2.00947l-2.24531,-0.53309l-2.5126,-2.73406l-1.67634,-1.15111l-1.37307,-2.16708l-2.12145,-2.30844l-0.82619,-2.34376l-0.506,-0.7986l-0.37667,-1.01182l-0.64685,-0.18752l-1.99216,-2.39343l-1.84799,-0.96693l-1.16177,-2.15593l-0.5162,-0.03148l-3.33506,0.66355l-3.06089,-1.05367l-5.15384,-0.31435l-3.4387,-2.6435l-2.50299,-0.86162l-1.89402,-2.51859l-1.16665,-0.89686l-1.44351,-2.57401l-2.32055,-3.08577l-0.45854,-1.8698l-0.18856,-0.33623l-1.17031,-3.74723l-5.30211,-25.7531l-0.24417,0.82295l-1.48561,3.63378l-0.34093,0.50212l-0.72303,2.0212l-2.42283,2.61199l-1.57909,2.32567l-1.42599,0.91403l-2.2942,2.47332l-2.45511,0.5709l-3.38446,2.16938l-5.37872,-0.13162l-3.36433,0.78233l-1.60065,-0.49418l-3.29566,3.39961l-0.73311,0.15354l-0.74619,0.67401l-7.57362,1.06842l-5.60085,1.173l-0.80758,-0.26895l-0.84285,0.1189l-5.29748,-2.16383l-4.75718,-1.58429l-3.05671,24.08686l-0.24534,1.06753l-0.00523,0.04561l-0.01684,0.05039l-0.61189,2.66246l-0.99321,2.1414l-1.236,3.6992l-1.00292,1.12799l-0.56239,1.21254l-2.5686,2.30893l-3.41104,3.83644l-1.19595,0.30481l-1.26914,1.14083l-7.03103,0.97459l-5.0118,1.27733l-1.37282,-0.39235l-1.41426,0.19603l-4.78326,-1.96726l-6.825,-1.95056l-1.09669,-1.30747l-1.14141,-0.46944l-2.83958,-4.27671l-2.21958,-2.64619l-0.38687,-1.2794l-0.8349,-1.25744l-0.70525,-3.83593l-0.68323,-2.25948l-0.23263,-2.72195l-0.00961,-0.05225l0.00122,-0.04589l-0.00419,-0.04901l-0.26229,2.23359l-0.38385,1.74466l-0.11755,0.72749l-0.09877,0.25571l-0.24337,1.10617l-1.25531,2.77405l-1.6518,4.27666l-0.52884,0.54224l-0.28203,0.62325l-3.05344,2.79673l-4.06385,4.16681l-0.62654,0.12925l-0.62967,0.57673l-7.68481,1.13843l-5.72195,1.18035l-0.68666,-0.23098l-0.71665,0.10616l-3.02977,-1.21314l-0.78828,0.138l-6.31039,1.16204l-0.10711,-0.03859l-0.11215,0.01963l-6.01724,-2.22805l-0.71882,-0.25899l-0.45779,0.40646l-7.65968,1.01386l-5.69427,1.1037l-0.72591,-0.2539l-0.76238,0.10091l-4.08559,-1.70971l-4.79958,0.75904l-6.39331,1.03609l-0.04605,-0.01772l-0.04874,0.00771l-6.03589,-2.3486l-7.55087,-2.90498l-1.28735,1.49061l-2.25179,0.60859l-8.70748,3.62811l-2.69701,-0.54582l-0.79685,0.21537l-1.67132,-0.45171l-4.47003,0.32708l-0.38022,0.07829l-0.1231,-0.04146l-3.05097,0.22324l-5.2627,-3.02325l-5.75182,-1.93719l-1.85489,-2.43262l-0.11263,-0.0647l-0.19337,-0.3366l-2.90148,-3.80519l-2.85889,0.28342l-4.36859,1.1807l-2.02379,-0.54697l-2.08618,0.20682l-4.11504,-1.88283l-6.22811,-1.68327l-1.66543,-1.92839l-1.60571,-0.73469l-2.3263,-3.81816l-1.82444,-2.11251l-0.58736,-1.84598l-1.17,-1.92032l-0.46145,-3.20708l-0.51557,-1.62036l-0.39062,-3.90625v-1.35388l-2.96662,-57.35474l0.04631,-0.96416l-0.0525,-0.70571l-0.72306,0.79697l-0.74325,1.46036l-2.39908,2.00319l-3.22873,3.55879l-1.46052,0.35666l-1.62777,1.35916l-6.74302,0.68498l-4.71299,1.15091l-1.68766,-0.50071l-1.75136,0.17791l-4.4165,-2.00784l-6.49778,-1.92781l-1.34642,-1.63833l-1.36864,-0.62221l-2.51009,-4.09745l-1.9844,-2.41464l-0.45851,-1.57316l-0.97855,-1.59739l-0.51743,-3.53538l-0.56896,-1.95211l-0.295,-3.91463l0.76552,-31.3013l-1.06371,2.10939l-0.59056,1.54231l-0.66655,0.68742l-6.36064,9.99529l-1.94496,2.47323l-2.0324,3.10342l-2.86765,1.20066l-2.50237,2.09073l-10.87532,3.26559l-6.08615,-1.90112l-6.32119,-0.8355l-6.46149,-5.73482v97.91592l-0.11537,1.15367l0.00077,0.10996l-0.02307,0.113l-0.25296,2.52962l-0.73495,2.30986l-0.79278,3.88358l-0.81938,1.18322l-0.38726,1.2171l-2.2991,2.66212l-2.95887,4.27274l-1.10059,0.4277l-1.0633,1.2312l-6.91239,1.86821l-4.87873,1.89591l-1.3462,-0.21349l-1.31581,0.35562l-5.05287,-1.36564l-7.07202,-1.12156l-1.18836,-1.11097l-1.13988,-0.30807l-3.39701,-3.93338l-2.5695,-2.40218l-0.51465,-1.16894l-0.94071,-1.08924l-1.2018,-3.77708l-0.97673,-2.21847l-0.52088,-2.4883l-0.03497,-0.1099l-0.01094,-0.10942l-0.23755,-1.13482l-16.14213,-150.73566v76.07365l-0.39062,3.90625l-2.73437,8.59375l-7.42187,8.59375l-14.45312,3.90625l-14.45312,-3.90625l-7.42187,-8.59375l-2.73437,-8.59375l-0.39062,-3.90625v-267l0.05687,-0.56866l-0.03089,-0.57066l8.78473,-192.56117l-13.34318,-124.59901l-0.01809,-0.04052l-0.00232,-0.15007l-0.30498,-2.84789l-0.02753,-3.92564l0.21152,-1.03618l-0.01638,-1.05742l0.75256,-3.85292l0.82605,-2.74247l0.03002,-0.14706l0.02526,-0.03648l21.53559,-71.49816l6.54676,-143.50501l0.34181,-2.33657l0.17673,-1.30003l0.02276,-0.06362l0.02694,-0.18418l1.25171,-3.39069l1.7358,-4.85297l0.09257,-0.0998l0.0431,-0.11675l3.23935,-3.42227l4.34675,-4.68651l0.11447,-0.02662l0.10524,-0.11118l8.12883,-1.8039l6.23394,-1.44989l0.12532,0.03868l0.12804,-0.02841l6.09612,1.94975l7.95613,2.45598l0.0959,0.11934l0.11194,0.0358l3.95313,5.02298l2.9517,3.67325l0.03351,0.11986l0.08418,0.10697l1.33728,4.97755l0.97314,3.48088l0.01195,0.18575l0.01753,0.06525l0.07092,1.31007l0.15155,2.35657l-5,141l-0.29832,2.19445l0.00163,0.10542l0.13738,0.03713l0.83799,-0.1676l5.40957,1.85613l2.77389,0.7497l2.27856,-7.1612l7.42188,-8.59375l14.45313,-3.90625l3.98038,1.07578zM535.92025,126.65478l16.37943,-73.90719l-13.42208,-20.32486z" fill="#000000" stroke="none" stroke-linecap="butt"/><path d="M123,79.8125l-61,8" fill="none" stroke="#000000" stroke-linecap="round"/><path d="M133.79015,174.8125c2.61736,0.69672 5.48847,-0.26628 8.1161,0.39063c12.56178,3.14044 21.09375,10.1847 21.09375,24.60938c0,4.99056 -1.43024,10.1201 -3.90625,14.45313c-3.74807,6.55912 -10.64229,8.51995 -17.1875,10.15625c-14.64735,3.66184 -33.43886,-5.63864 -45.74999,-8.9431c-3.44513,10.32427 -10.64189,17.57449 -25.41965,16.23106c-10.72261,-0.97478 -16.34169,-5.34234 -20.65347,-14.42913c-3.57407,-7.53212 -1.28396,-14.82813 -1.08314,-22.60222c0.97783,-37.85297 0.90787,-76.14025 1,-113.86597c0.0162,-6.63388 2.4173,-16.18135 3,-20.96153c0.20322,-1.66715 -0.28177,-3.38278 0,-5.03847c0,-3.10246 0.56513,-6.07293 1.59807,-8.81408c0.37327,-1.28572 0.85859,-2.52581 1.52693,-3.68592c0.56395,-0.97889 1.26647,-1.85937 2.02501,-2.70006c1.05219,-1.372 2.24341,-2.63177 3.55261,-3.75824c0.98755,-1.14348 2.23025,-2.23977 3.68881,-2.63397c3.70159,-2.16617 8.01009,-3.40772 12.60856,-3.40772c2.52273,0 4.95818,0.37366 7.25403,1.06865l0.01552,-0.00767c4.63384,-1.18591 8.9646,-4.05858 13.8242,-4.67036c14.41284,-1.81443 43.73426,-0.41704 46.90625,-0.39062c3.8067,0.0317 9.75935,1.50553 12.5,3.125c16.59429,9.80571 16.59429,33.94429 0,43.75c-11.57221,6.83812 -49.31274,3.10309 -50.96664,3.125c-2.6739,0.03542 -4.50103,2.93667 -6.95654,3.99567c-0.14085,0.06075 -0.28152,0.12121 -0.422,0.18135c-0.07492,0.93944 -0.12859,1.86832 -0.15482,2.78451c-0.11862,4.14312 -0.19788,8.28679 -0.24758,12.43088c2.58222,-0.90205 5.35763,-1.39241 8.24758,-1.39241c20.31795,-0.79072 40.66703,-0.12237 61,0c14.11544,0.08495 25,10.42067 25,25c0,39.21174 -71.13958,25.57832 -86,25c-2.8238,0 -5.53825,-0.46817 -8.06997,-1.33112c0.04697,5.77734 0.07912,11.5545 0.06997,17.33112c-0.00281,1.77342 -0.20918,3.59884 -0.43443,5.41204c12.2071,1.72156 24.91317,7.10934 34.22458,9.58796z" fill="#ffffff" stroke="none" stroke-linecap="butt"/><path d="M226.72108,91.59233c3.98934,-14.83895 5.70999,-30.52425 10.20411,-45.20506c2.42523,-7.92241 6.05718,-15.82415 9.59385,-23.26298c2.77049,-5.8273 8.25096,-18.96866 14.02783,-22.40554c4.25349,-2.53056 7.2052,-2.94517 11.9371,-3.22624c3.29874,-0.19594 7.03437,-0.31259 10.42172,0.60291c27.94955,7.55393 16.74039,60.39436 17.09431,74.63217c0.16946,6.8171 0.86262,13.62244 1.77224,20.38071c0.10682,0.79362 0.52637,-1.52035 0.65997,-2.3099c0.34114,-2.01605 0.47467,-4.06218 0.76085,-6.08677c0.52441,-3.71001 1.63049,-8.0393 2.40227,-11.32239c2.56294,-10.90256 5.93261,-30.1481 15.09524,-38.47776c4.99211,-4.53828 10.44784,-9.18695 17.98442,-8.66719c14.85018,1.02415 26.26965,12.40171 25.45987,27.30165c-0.33852,6.22873 -4.0213,10.41508 -5.97961,15.85778c-1.92764,5.35744 -4.56251,17.2843 -5.49463,22.68034c-3.89207,22.53113 -9.85107,46.17619 -18.25238,67.50653c-2.08895,5.3037 -5.99651,11.47119 -8.21691,15.74097c-7.44947,14.32521 -12.28225,22.16708 -25.8188,30.61219c-1.44716,0.90285 -2.36855,2.64043 -3.96933,3.22943c-17.7147,6.51808 -35.0371,-0.90706 -39.73365,-19.86682c-1.8474,-7.45788 36.85677,-77.48904 0.33046,-37.63929c-15.14609,16.5242 -16.38546,41.75195 -25.672,62.15326c-0.96731,2.12505 -2.1033,4.2484 -3.47084,6.18288c-1.25804,1.77958 -2.71204,3.39934 -4.41094,4.71356c-2.52918,1.9565 -6.82891,4.34861 -10.1405,5.1095c-3.28624,0.75506 -7.08528,0.46736 -10.85774,-0.63246c-4.65103,-1.05466 -8.8097,-3.40604 -12.07586,-6.65399c-4.67008,-4.14275 -7.77428,-9.61179 -7.27749,-15.53701c-0.06265,-0.72176 -0.09463,-1.4523 -0.09463,-2.1903c0,-4.2925 1.08182,-8.33232 2.98769,-11.8617c10.20968,-34.90403 31.26382,-66.13502 40.73338,-101.35847z" fill="#ffffff" stroke="none" stroke-linecap="butt"/><path d="M467,22.05939c-0.09367,25.28696 -0.2576,50.57557 0,75.86139c0.17633,17.30774 3.98294,34.58399 4,51.89172c0.03418,34.66665 0.12549,69.33356 0,104c-0.0511,14.11557 -10.45193,25 -25,25c-14.54853,0 -24.9484,-10.88443 -25,-25c-0.01413,-3.86628 -0.02165,-7.73258 -0.02424,-11.5989l-0.6493,0.57215l-0.42858,0.14109l-0.12767,0.08511l-4.15283,3.32226l-2.68482,1.74016l-0.166,0.1366l-0.22787,0.11868l-0.2156,0.13974l-0.20069,0.07708l-2.83763,1.47793l-3.46301,1.38521l-0.32175,0.27788l-0.95783,0.30476l-0.36183,0.18092l-3.66855,1.39754l-1.83527,0.28789l-1.77027,0.56327l-3.90625,0.39063l-0.40454,0l-0.993,0.15576l-0.61332,-0.15576h-8.43752l-1.08754,0.18885l-1.77434,-0.41988l-1.59598,-0.1596l-2.67445,-0.85096l-2.73114,-0.6463l-1.45065,-0.68427l-1.73751,-0.55284l-0.8354,-0.72148l-3.7037,-2.22222l-7.14124,-3.57062l-1.65375,-1.04447l-1.69686,-0.97287l-7,-5l-2.53071,-2.21924l-1.5808,-1.17641l-1.93608,-3.32934l-2.30771,-3.08341l-0.46492,-1.91486l-1.0535,-3.19682l-2,-9l-0.16735,-1.39962l-0.03735,-0.1174l-0.11917,-1.19174l-0.14219,-1.18922l0.011,-0.1227l-0.14026,-1.40259v-10l0.17642,-1.76416l0.07485,-1.77138l1,-7l0.40777,-1.65506l0.30287,-1.67743l1.72202,-6.02708l0.80156,-4.0078l0.10698,-0.34948l0.10074,-1.37674l0.78575,-1.51912l0.15565,-0.50845l1.64294,-2.96882l1.55887,-3.01381l0.33672,-0.41154l0.82813,-1.49644l1.08964,-0.8475l0.23144,-0.28287l2,-2l3.03835,-2.48592l0.07738,-0.04002l0.06244,-0.06075l3.31916,-2.09631l2.24555,-1.12278l5.40383,-3.85988l1.09723,-0.62908l1.03025,-0.73366l6.2524,-3.5728l8.28357,-5.52238l0.32277,-0.17147l1.04473,-0.90227l1.62979,-0.51857l0.46958,-0.24947l3.26101,-0.93754l3.23337,-1.0288l0.5291,-0.05291l1.64371,-0.47257l1.36976,0.17122l0.36368,-0.03637h2c4.16768,0 8.09717,1.01982 11.55253,2.82353l0.94747,0.30147l0.84993,0.73403c0.62234,0.39382 1.2261,0.81436 1.80965,1.26001l7.84042,-2.11903l2.56152,0.6923c-0.8407,-12.96404 -2.65743,-26.06772 -3.49799,-38.91113c-1.73676,-26.53696 -0.10517,-53.18747 -0.06353,-79.78118c0.00838,-5.34924 0.40941,-11.1459 1.90144,-16.33559c2.10798,-7.33212 8.40975,-17.4189 15.89413,-19.49378c1.25921,-0.56371 2.57357,-1.0263 3.93275,-1.37743c2.00415,-0.51776 4.10575,-0.7932 6.27168,-0.7932c9.33754,0 17.47943,5.11918 21.77225,12.70413c2.05483,3.63067 3.22775,7.8263 3.22775,12.29587c0,4.05069 -0.96337,7.87637 -2.67349,11.26042c-0.19745,0.97666 -0.32274,1.96891 -0.32651,2.98647zM390.50169,191.89103l-4.42725,3.16232l-0.5672,1.9852l-0.50723,3.55064v2.27245l3.0271,1.51355l1.0278,-0.82224l1.17738,-2.74722l1.43439,-5.73755l0.97818,-4.40182z" fill="#ffffff" stroke="none" stroke-linecap="butt"/><path d="M173.875,242.3125c0.70017,1.21534 1.2069,2.51725 1.59453,3.86744c0.98997,2.69059 1.53047,5.59846 1.53047,8.63256c0.82125,5.35721 0.64786,12.59682 0.88711,17.8711c0.1305,2.87693 1.52863,5.61259 1.26866,8.52645c-0.33637,3.77004 -0.69554,7.85633 -2.79508,11.00565c-3.93084,5.89625 -9.5599,9.98814 -16.02741,11.84577c7.56437,4.29839 12.66673,12.42885 12.66673,21.75104c0,13.80712 -11.19288,25 -25,25c-13.80712,0 -25,-11.19288 -25,-25c0,-11.54079 7.82001,-21.25513 18.45027,-24.13325c-0.48248,-0.29817 -0.9578,-0.60144 -1.42569,-0.90362c-12.35993,-7.98246 -11.89772,-22.99411 -12.92191,-35.69974c-0.24671,-3.06057 -0.38902,-8.28047 -0.10267,-10.26339c0,0 0,0 0,0c0,-4.63023 1.25876,-8.96647 3.45274,-12.68517c1.91292,-4.18716 4.74437,-7.7735 8.9387,-8.90711c3.70159,-2.16617 8.01009,-3.40772 12.60856,-3.40772c4.98998,0 9.6385,1.46195 13.54062,3.98091c3.10186,1.54571 5.69746,3.94195 8.33438,8.51909z" fill="#ffffff" stroke="none" stroke-linecap="butt"/><path d="M242.875,243.3125c0.8062,1.39939 1.38126,2.91021 1.81009,4.47777c0.8526,2.51809 1.31491,5.21617 1.31491,8.02223c1.94316,17.58532 -1.99222,48.85166 -21.5666,53.59209c11.19458,2.48093 19.5666,12.46672 19.5666,24.40791c0,13.80712 -11.19288,25 -25,25c-13.80712,0 -25,-11.19288 -25,-25c0,-11.91733 8.33861,-21.88707 19.49954,-24.39295c-0.51365,-0.10369 -1.0346,-0.22141 -1.56293,-0.35349c-4.84156,-1.21039 -9.47106,-3.84202 -13.07419,-7.29502c-10.48944,-10.05238 -3.70594,-22.74564 -2.86242,-34.21279c0.28723,-3.9047 -0.47104,-7.85894 0,-11.74575c0,0 0,0 0,0c0,-2.99804 0.52773,-5.87282 1.49536,-8.53652c0.47257,-1.5777 1.05837,-2.79068 1.87575,-4.00928c1.41027,-2.42605 3.21702,-4.59313 5.33152,-6.41251c0.98755,-1.14348 2.23025,-2.23977 3.68881,-2.63397c3.70159,-2.16617 8.01009,-3.40772 12.60856,-3.40772c4.98998,0 9.6385,1.46195 13.54062,3.98091c3.10186,1.54571 5.69746,3.94195 8.33438,8.51909z" fill="#ffffff" stroke="none" stroke-linecap="butt"/><path d="M316.45313,213.71875c3.33827,2.38367 5.58421,5.25212 7.1062,8.42903c2.18653,3.71415 3.44068,8.04297 3.44068,12.66472c0,1.13938 -0.07622,2.26095 -0.22384,3.3599c0.1091,2.35625 0.15219,4.72873 0.22384,7.07221c0.22432,7.33707 0.77664,14.66268 0.94334,22.00129c0.23298,10.25644 3.45621,22.10427 -6.21907,29.99727c-1.4701,1.19929 -3.07859,2.26842 -4.77825,3.17811c7.22587,4.38249 12.05399,12.32303 12.05399,21.39123c0,13.80712 -11.19288,25 -25,25c-13.80712,0 -25,-11.19288 -25,-25c0,-8.85199 4.60064,-16.62945 11.54126,-21.07172c-15.04506,-9.75648 -13.46425,-39.20632 -13.54126,-54.92828c-0.01843,-3.76184 -0.05112,-6.84641 0.04342,-9.5143c-0.02881,-0.49155 -0.04342,-0.98692 -0.04342,-1.4857c0,-7.58082 3.37418,-14.37355 8.70263,-18.95831c0.98755,-1.14348 2.23025,-2.23977 3.68881,-2.63397c3.70159,-2.16617 8.01009,-3.40772 12.60856,-3.40772c3.13655,0 6.13819,0.57762 8.90435,1.63228c1.99787,0.44467 3.89822,1.0954 5.54877,2.27397z" fill="#ffffff" stroke="none" stroke-linecap="butt"/></g></g></svg>