<svg version="1.1" xmlns="http://www.w3.org/2000/svg" xmlns:xlink="http://www.w3.org/1999/xlink" width="166" height="239.92604" viewBox="0,0,166,239.92604"><g transform="translate(-150,-113.8125)"><g data-paper-data="{&quot;isPaintingLayer&quot;:true}" fill-rule="nonzero" stroke-linecap="butt" stroke-linejoin="miter" stroke-miterlimit="10" stroke-dasharray="" stroke-dashoffset="0" style="mix-blend-mode: normal"><path d="M316,200.3125c0,47.77263 -37.16037,86.5 -83,86.5c-45.83963,0 -83,-38.72737 -83,-86.5c0,-47.77263 37.16037,-86.5 83,-86.5c45.83963,0 83,38.72737 83,86.5z" fill="#fffe00" stroke="#000000" stroke-width="0"/><path d="M267.25476,211.30298c10.50952,5.25476 5.25476,15.76428 5.25476,15.76428l-1,2c-1.51638,2.96874 -3.64158,5.59099 -5.26629,8.50186c-1.00864,1.8071 -1.34166,3.95379 -2.43385,5.71165c-1.26475,2.0356 -3.41076,3.37924 -4.9328,5.23035c-4.02316,4.89298 -7.94548,8.93579 -12.47447,12.19184c0.83744,1.68543 1.49027,3.47877 1.93205,5.35357c0.52453,1.73829 0.80506,3.54922 0.66584,5.75596c0,2.43835 -0.34908,4.79517 -1,7.02321c-0.29222,16.65637 0.12077,33.3183 0,49.97679c-0.14822,20.44544 -21.83414,31.16174 -39.45312,21.09375c-3.28631,-1.87789 -5.49633,-5.33513 -7.42187,-8.59375c-1.60548,-2.71697 -3.09939,-8.70361 -3.125,-12.5c-0.12142,-17.99959 -0.12142,-36.00041 0,-54c0.00902,-1.33697 0.20288,-2.66953 0.41704,-3.98927c0.22407,-1.38076 0.63466,-2.94806 1.21066,-4.60235c0.46685,-2.04328 1.18404,-3.9912 2.11759,-5.80977c-1.82607,-0.90339 -3.58482,-1.90924 -5.0538,-3.2901c-2.03028,-1.90849 -2.98344,-4.7277 -4.77827,-6.85914c-1.06664,-1.26668 -2.4791,-2.23419 -3.44533,-3.57902c-0.86981,-1.21064 -1.12271,-2.79477 -2,-4c-4.01094,-5.51024 -10.57989,-9.51997 -14.27729,-15.40208c-1.99445,-3.17292 -3.01558,-6.86575 -4.70014,-10.21351c0,0 -5.25476,-10.50952 5.25476,-15.76428c10.50952,-5.25476 15.76428,5.25476 15.76428,5.25476c1.25551,2.52392 1.819,5.38784 3.29986,7.78649c0.47651,0.77183 1.46864,1.08811 2.0672,1.76965c1.09981,1.25227 1.90581,2.74281 3,4c3.72785,4.2832 4.65058,3.59553 8.65551,8.82827c0.90602,1.18378 1.13753,2.78412 2,4c1.8468,2.60354 4.33997,4.20732 5.67942,7.3281c1.00338,0.26446 2.0232,0.52321 2.95086,0.98704c1.05186,0.52593 1.98356,1.26547 2.93713,1.95466c3.43609,-0.01744 6.53799,0.83291 10.01835,1.00227c-0.48482,-1.34445 2.38678,-1.57329 3.59884,-2.3306c2.03818,-1.27347 3.83602,-2.95074 5.40672,-4.76974c1.08926,-1.26146 1.92623,-2.72532 3,-4c0.8875,-1.05355 2.48708,-1.52021 3.0672,-2.76965c0.64086,-1.38027 0.82992,-2.9565 1.56615,-4.28835c1.42998,-2.58686 3.4487,-4.83629 4.73371,-7.49814l1,-2c0,0 5.25476,-10.50952 15.76428,-5.25476z" fill="#ff0000" stroke="none" stroke-width="0.5"/><path d="M193.25,157.8125c0,-6.48935 5.26065,-11.75 11.75,-11.75c6.48935,0 11.75,5.26065 11.75,11.75c0,6.48935 -5.26065,11.75 -11.75,11.75c-6.48935,0 -11.75,-5.26065 -11.75,-11.75z" fill="#00fff4" stroke="none" stroke-width="0.5"/><path d="M240.25,171.8125c0,-6.48935 5.26065,-11.75 11.75,-11.75c6.48935,0 11.75,5.26065 11.75,11.75c0,6.48935 -5.26065,11.75 -11.75,11.75c-6.48935,0 -11.75,-5.26065 -11.75,-11.75z" fill="#00fff4" stroke="none" stroke-width="0.5"/><path d="M199.25,157.8125c0,-2.62335 2.12665,-4.75 4.75,-4.75c2.62335,0 4.75,2.12665 4.75,4.75c0,2.62335 -2.12665,4.75 -4.75,4.75c-2.62335,0 -4.75,-2.12665 -4.75,-4.75z" fill="#000706" stroke="none" stroke-width="0.5"/><path d="M245.25,168.8125c0,-2.62335 2.12665,-4.75 4.75,-4.75c2.62335,0 4.75,2.12665 4.75,4.75c0,2.62335 -2.12665,4.75 -4.75,4.75c-2.62335,0 -4.75,-2.12665 -4.75,-4.75z" fill="#000706" stroke="none" stroke-width="0.5"/><path d="M204.25,197.8125c0,-2.62335 2.12665,-4.75 4.75,-4.75c2.62335,0 4.75,2.12665 4.75,4.75c0,2.62335 -2.12665,4.75 -4.75,4.75c-2.62335,0 -4.75,-2.12665 -4.75,-4.75z" fill="#000706" stroke="none" stroke-width="0.5"/><path d="M225.40476,197.4648c-2.21283,0.67915 -4.25476,-0.8523 -4.25476,-0.8523c-3.75364,-2.95341 -7.26424,-3.58701 -11.7838,-5.33982c-0.26679,-0.10347 -2.50237,-1.13423 -3.27487,-0.83725c-1.1572,0.44488 -2.10963,1.33858 -3.27358,1.7655c-0.45668,0.1675 -0.99704,-0.18205 -1.45899,-0.02967c-0.16465,0.05431 0.29995,0.23134 0.32991,0.40211c0.22036,1.25596 0.41434,2.52734 0.81758,3.73705c0.7107,2.1321 0.81364,4.43795 0.88218,6.68434c0.03777,1.23784 2.2858,0.95388 3.42932,1.42932c3.22225,1.33971 6.56391,1.38292 9.85081,1.94929c-1.97527,-0.57567 -3.41855,-2.39972 -3.41855,-4.56086c0,-2.62335 2.12665,-4.75 4.75,-4.75c2.62335,0 4.75,2.12665 4.75,4.75c0,2.62335 -2.12665,4.75 -4.75,4.75c-0.14556,0 -0.2896,-0.00655 -0.43182,-0.01936c0.73511,0.15198 1.46666,0.33869 2.19269,0.5807c1.07971,-0.02044 2.16171,-0.1345 3.23913,-0.06133c0.31877,0.02165 0.8515,0.72883 0.86655,0.40968c0.14955,-3.17229 0.94939,-6.11382 1.41904,-9.24005c0.03753,-0.24979 0.07985,-0.50773 0.11917,-0.76733zM222.96602,186.05135c2.21223,-1.96039 5.15824,-0.48738 5.15824,-0.48738l3.23449,1.88977c1.00989,1.18034 2.44567,2.10156 3.02967,3.54101c1.56364,3.85407 -0.1358,8.6306 -0.67402,12.39812c-0.41962,2.93733 -0.05212,6.21699 -1.58096,8.75995c-1.01628,1.6904 -2.53951,3.19055 -4.3157,4.04811c-1.1354,0.54818 -8.39611,0.31547 -9.57861,0.30024c-7.26554,-2.42185 -19.81941,-1.01816 -23.62756,-9.87092c-0.66726,-1.55117 -0.04518,-3.38766 -0.30024,-5.05688c-0.5837,-3.8201 -2.97637,-6.28101 -2,-10.52173c0.45348,-1.96961 0.97718,-4.09619 2.32991,-5.59789c1.10968,-1.23188 3.03482,-1.33663 4.54101,-2.02967c1.58312,-0.72843 3.03193,-1.82758 4.72642,-2.2345c4.97944,-1.19578 9.09019,1.59905 13.55276,3.10334c1.49799,0.50496 3.16759,0.52063 4.57999,1.23064c0.31799,0.15985 0.62523,0.33738 0.9246,0.5278z" fill="#000706" stroke="none" stroke-width="0.5"/></g></g></svg>