<svg version="1.1" xmlns="http://www.w3.org/2000/svg" xmlns:xlink="http://www.w3.org/1999/xlink" width="96.67951" height="177.09432" viewBox="0,0,96.67951,177.09432"><g transform="translate(-189.42865,6.40966)"><g data-paper-data="{&quot;isPaintingLayer&quot;:true}" fill-rule="nonzero" stroke="none" stroke-linecap="butt" stroke-linejoin="miter" stroke-miterlimit="10" stroke-dasharray="" stroke-dashoffset="0" style="mix-blend-mode: normal"><g stroke-width="1"><path d="" fill="#ec1c2c"/><g fill="#231f20"><path d=""/><path d=""/></g><path d="" fill="#ffffff"/></g><g stroke-width="1"><path d="" fill="#99661d"/><path d="" fill="#231f20"/></g><path d="" fill="#9d00ff" stroke-width="0.5"/><path d="" fill="#9d00ff" stroke-width="0.5"/><path d="" fill="#9d00ff" stroke-width="0.5"/><path d="" fill="#fe0000" stroke-width="0.5"/><path d="" fill="#ff66aa" stroke-width="0.5"/><path d="M277.04916,22.59679c0.38891,2.72236 -2.33345,3.11127 -2.33345,3.11127l-1.5059,0.21323c-1.24754,0.13101 -2.49507,0.26202 -3.74261,0.39303c-3.23749,0.50882 -8.50405,1.30936 -12.41678,-0.10144c2.73602,2.64827 5.68248,6.46452 6.48994,9.32195c0.87908,3.11087 0.06368,8.33955 -0.3344,11.48621c-0.309,2.44244 -0.96161,6.61133 -2.46983,8.63315c-0.14006,0.18775 -0.2871,0.36819 -0.44063,0.54167c1.12268,1.79016 2.1056,3.98503 3.25737,5.90062c3.24958,-9.01845 6.37886,-18.48279 12.08745,-26.00757l0.62561,-2.89545c0,0 0.62986,-2.6769 3.30676,-2.04704c2.6769,0.62986 2.04704,3.30676 2.04704,3.30676l-0.97996,3.92824c-6.02531,8.56113 -9.28463,18.75584 -12.97549,28.52248c1.48445,1.38635 3.01756,2.7515 4.25825,4.42108c1.48946,2.00435 2.68672,4.21088 4.0873,6.27831c2.72172,9.42937 0.10093,19.66365 -4.49047,27.98793c-1.96735,3.56684 -3.86077,7.16773 -7.10216,9.84504c-0.77779,0.64244 -1.65674,1.12427 -2.59927,1.48919c-0.07354,11.73649 -0.78323,23.30484 0.58918,34.98766c0.43272,3.68353 -0.3713,9.46105 1.15935,12.83988c0.40572,0.89561 2.69314,0.39142 2.93317,0.38578c4.46196,-0.10481 8.90234,0.0793 13.36087,-0.19936c0.96519,-0.00045 1.93038,-0.00089 2.89557,-0.00134h0.60209c0,0 2.75,0 2.75,2.75c0,2.75 -2.75,2.75 -2.75,2.75h-0.60209c-0.90798,-0.00045 -1.81596,-0.00089 -2.72394,-0.00134c-4.49824,0.28114 -9.02504,0.28241 -13.5325,0.20204c-3.25653,-0.05807 -5.15756,0.42159 -7.50306,-2.82537c-1.97816,-2.73843 -1.40356,-8.76966 -1.65965,-11.93769c-0.29323,-3.62758 -1.16344,-7.24285 -1.40685,-10.86254c-0.59951,-8.91525 0.2036,-18.0282 0.36611,-26.99587c-1.64597,0.13311 -3.28113,0.17335 -4.76067,0.28924c-4.5259,0.3545 -9.00162,0.37392 -13.53482,0.35176c-2.2763,-0.01113 -3.55866,0.17422 -5.07738,-0.18189c-0.00947,8.24487 -0.33674,16.5689 -0.00262,24.80273c0.15856,3.90732 0.83202,7.72962 1.0037,11.64535c0.16928,3.86077 1.97941,10.67913 -2.30747,13.29804c-4.84162,2.95782 -11.86488,-2.49374 -16.8923,-2.80888l-0.60686,0.00699c0,0 -2.75,0 -2.75,-2.75c0,-2.75 2.75,-2.75 2.75,-2.75l0.99872,0.00699c3.67093,0.28736 6.46619,1.29641 9.95282,2.55866c0.2244,0.08124 2.89401,1.31555 3.66079,1.05476c1.11969,-0.38081 -0.02599,-2.36623 -0.09917,-3.54665c-0.011,-0.1775 -0.35058,-8.60486 -0.39258,-9.10838c-0.91141,-10.92477 -0.81484,-21.79306 -0.81484,-32.77007c0,0 0,-1.21731 0.80991,-2.03212c-2.06687,-1.58988 -3.832,-3.62677 -5.72702,-5.36422c-1.82156,-2.47977 -4.15393,-5.10095 -5.46126,-7.89665c-4.25189,-9.09257 -4.91564,-20.69756 -2.60793,-30.65127c-4.00657,-3.03075 -6.66379,-7.3636 -9.73312,-11.39548c-3.56002,-4.67645 -6.92991,-8.30862 -11.89658,-11.36485l-2.14272,-1.49405c0,0 -2.25289,-1.57702 -0.67587,-3.82991c1.57702,-2.25289 3.82991,-0.67587 3.82991,-0.67587l1.87121,1.3157c5.54081,3.40992 9.43302,7.52787 13.39122,12.71876c2.2003,2.88553 4.28275,6.44979 7.02725,9.03529c0.78199,-2.55335 1.62461,-5.90088 2.9165,-7.84661c1.02765,-1.54777 2.27791,-2.34824 3.68476,-3.11785c-0.37995,-0.33888 -0.74824,-0.69978 -1.1038,-1.08417c-3.23005,-3.49195 -2.46079,-7.04237 -1.04919,-11.09088c2.68856,-7.71082 5.67446,-15.07747 13.89819,-17.42738c0.02507,-0.46096 0.13404,-0.78788 0.13404,-0.78788l2.39142,-2.45049c4.7379,-0.71529 11.63305,-1.5776 16.26098,0.65322c-0.24566,-0.37977 -0.46066,-0.79598 -0.64089,-1.25166c-0.55846,-1.41195 0.87114,-2.91861 1.49578,-4.30255c0.61116,-1.35408 3.4542,-5.02404 4.20504,-5.71962c1.15696,-1.0718 3.01331,-1.55792 3.66263,-2.99518c0.80228,-1.77584 -0.00114,-4.41559 -0.61407,-6.09533c-0.26376,-0.72282 -0.31414,-1.5827 -0.82934,-2.1542c-0.53278,-0.591 -1.90578,-0.50256 -2.39806,0.11839c-1.88033,2.37183 -2.15625,5.98926 -2.54789,8.79812c0,0 -0.38891,2.72236 -3.11127,2.33345c-2.72236,-0.38891 -2.33345,-3.11127 -2.33345,-3.11127c0.89715,-6.15014 4.70942,-19.36647 13.91955,-12.35735c3.33859,2.54075 4.683,10.99112 2.97191,14.6299c-1.76562,3.75475 -4.72411,4.21246 -6.9077,7.3325c-0.45636,0.65208 -0.70921,1.46112 -1.28038,2.01542c-0.21996,0.21346 -1.19653,-0.00264 -0.91258,0.11278c3.5268,1.43358 7.17128,0.75898 10.82948,0.1786c1.29462,-0.13658 2.58924,-0.27317 3.88387,-0.40975l1.30385,-0.18817c0,0 2.72236,-0.38891 3.11127,2.33345zM262.66855,72.10066c-2.55331,-1.02132 -1.53199,-3.57464 -1.53199,-3.57464c0.03855,-0.09636 0.077,-0.19285 0.11536,-0.28946c-0.16047,-0.16994 -0.31578,-0.34471 -0.46441,-0.52573c-1.99565,-2.43044 -3.41247,-5.83456 -5.11286,-8.53252c-2.82214,1.06349 -6.04657,1.4625 -8.69673,1.87611c-6.08785,-0.28467 -13.22542,-0.01077 -19.13272,-2.39772c-0.43007,0.56668 -0.97086,0.86166 -0.97086,0.86166c-4.02839,2.15293 -4.47676,5.67106 -5.94245,9.92283c-3.26945,9.48424 -3.20996,21.80159 1.09614,31.0535c1.07841,2.31703 3.08567,4.4823 4.57358,6.55351c2.0749,1.86782 3.92456,4.25015 6.40732,5.59764c1.70211,0.9238 2.98689,0.52361 4.99176,0.51246c4.39019,-0.02442 8.71237,0.01006 13.0981,-0.3344c2.29838,-0.18051 7.93419,0.15306 9.8568,-1.66167c6.06666,-5.72626 8.89472,-13.31783 10.04688,-21.33287c0.50008,-3.47877 0.99115,-6.46743 0.03573,-9.87384c-1.96359,-2.75958 -3.63676,-5.48725 -5.87124,-8.04261c-0.57267,0.40152 -1.39161,0.63048 -2.49841,0.18776zM239.19059,27.90596c-0.16895,0.19485 -0.37653,0.38516 -0.62738,0.53839c0.0785,2.12504 -2.15183,2.63973 -2.15183,2.63973c-6.65441,1.43957 -8.5496,8.24229 -10.66992,14.09323c-0.53928,1.48812 -1.88545,3.98644 -0.2464,5.36626c6.21697,5.23367 13.51847,4.60565 21.18972,5.01866c2.25272,-0.36098 8.07689,-0.7916 9.52261,-3.02904c2.1606,-3.34379 1.86737,-9.16695 1.92273,-12.88967c0.01346,-0.90539 0.31477,-1.8379 0.08976,-2.71499c-0.40349,-1.5728 -2.241,-3.18007 -3.2272,-4.31007c-1.12934,-1.29402 -3.09778,-4.57532 -5.06579,-4.97111c-3.0907,-0.62157 -7.37287,-0.21976 -10.73629,0.2586z" fill="#ff66aa" stroke-width="0.5"/><path d="M236.68523,13.54412c-0.04971,0.82457 -0.10221,1.64965 -0.16137,2.47518l-0.03328,0.05949l0.02664,0.00313l-0.39733,3.37733c-0.14342,1.384 -1.31329,2.4632 -2.73523,2.4632c-1.51878,0 -2.75,-1.23122 -2.75,-2.75v-3.21115l0.02777,0c-0.00882,-0.03263 -0.01749,-0.0653 -0.02602,-0.09803c-0.24219,-0.92927 0.60893,-5.33933 0.79302,-6.47021c0.21496,-3.45739 0.47846,-6.90317 1.04892,-10.34099c0,0 0.44838,-2.6903 3.1313,-2.26591c1.86933,-2.59734 4.47574,-4.07067 8.05944,-2.63242c5.65173,2.26822 4.07433,11.4386 1.17673,15.03449c-0.27453,0.34068 -4.76684,2.92421 -5.45949,3.32825l-2.65352,1.01183c0,0 -0.01659,0.00603 -0.04759,0.0158zM237.10714,7.49307c2.00457,-1.06027 4.12389,-1.66431 4.63207,-4.17348c0.00444,-0.02193 0.75231,-5.18736 -0.87988,-4.08449c-1.2097,0.81739 -1.54678,2.47909 -2.23595,3.76616c-0.76052,1.42033 -1.21103,2.93485 -1.51624,4.49182z" fill="#ff66aa" stroke-width="0.5"/></g></g></svg>