<svg version="1.1" xmlns="http://www.w3.org/2000/svg" xmlns:xlink="http://www.w3.org/1999/xlink" width="121.84375" height="119.75001" viewBox="0,0,121.84375,119.75001"><g transform="translate(-166.25,-95.0625)"><g data-paper-data="{&quot;isPaintingLayer&quot;:true}" fill-rule="nonzero" stroke="none" stroke-linecap="butt" stroke-linejoin="miter" stroke-miterlimit="10" stroke-dasharray="" stroke-dashoffset="0" style="mix-blend-mode: normal"><text transform="translate(166.5,116.8125) scale(0.5,0.5)" font-size="40" xml:space="preserve" fill="#a3ffaf" fill-rule="nonzero" stroke="none" stroke-width="1" stroke-linecap="butt" stroke-linejoin="miter" stroke-miterlimit="10" stroke-dasharray="" stroke-dashoffset="0" font-family="Sans Serif" font-weight="normal" text-anchor="start" style="mix-blend-mode: normal"><tspan x="0" dy="0">Leben Goofy</tspan></text><path d="M225.99488,161.24974c0.84575,2.7009 1.50017,5.26296 2.82737,7.87307c0.16168,0.31785 0.32538,0.63477 0.49026,0.95115l-0.81812,1.309c-0.74539,-0.40223 -1.63688,-0.64656 -2.33148,-0.29631c-0.89699,0.45231 -1.32617,1.4546 -1.77914,2.40831l-0.58338,-0.9723c-0.2591,-0.44936 -0.74442,-0.75183 -1.30038,-0.75183c-0.76396,0 -1.39453,0.57112 -1.48804,1.3097l-0.25,1.74999c-0.09545,0.02483 -0.15238,0.0476 -0.15238,0.0476c-0.84897,0.40673 -1.51043,0.938 -2.02649,1.56164c-0.02751,-0.0015 -0.05521,-0.00226 -0.08309,-0.00226c-0.5988,0 -1.11566,0.35088 -1.35617,0.85825l-0.30838,0.61676c-0.10805,-0.20147 -0.21201,-0.40498 -0.3104,-0.61124c-0.9482,-1.98792 -1.49986,-3.16598 -2.34508,-4.29041l0.32003,-0.24002l-1.78953,-2.38603c-0.2041,-0.27836 -0.50189,-0.48371 -0.84692,-0.56961c3.62694,-4.37769 8.55681,-7.46982 14.13133,-8.56545z" fill="#ff0000" stroke-width="0"/><path d="M205.70624,184.35418c-0.00103,0 -0.00205,0 -0.00308,0c0.52372,-4.42388 2.03873,-8.51309 4.29684,-11.99958c0,0.31832 0,0.5829 0,0.5829c0,3.80084 -0.07471,7.61462 0.02245,11.4171c-1.43874,-0.00026 -2.87747,-0.00042 -4.31621,-0.00042z" fill="#ff0000" stroke-width="0"/><path d="M212.98544,177.18311c0.60206,1.57666 1.41218,3.15478 2.26009,4.54344c-0.21134,0.84028 -0.36194,1.72964 -0.50651,2.62917c-0.57025,-0.00015 -1.1405,-0.00031 -1.71076,-0.00045c-0.05634,-2.38898 -0.05305,-4.78107 -0.04282,-7.17216z" fill="#ff0000" stroke-width="0"/><path d="M224.65989,184.86672c-0.06299,-0.00814 -0.12601,-0.01617 -0.18906,-0.0241c-0.20411,-0.16501 -0.39917,-0.29884 -0.58604,-0.4045c-0.14741,-0.39139 -0.27602,-0.79183 -0.39518,-1.19453c0.51819,-0.62828 1.01645,-1.27237 1.50433,-1.92788c0.34326,0.62278 0.70262,1.23146 1.08332,1.81289c-0.58964,0.49013 -1.08109,1.06943 -1.41737,1.73812z" fill="#ff0000" stroke-width="0"/><path d="M228.48226,176.42723c0.0705,0.09801 0.1415,0.19585 0.21296,0.29354c-0.0298,0.11928 -0.05933,0.23881 -0.08865,0.35851l-0.36377,-0.3183c0.07951,-0.11121 0.15932,-0.22247 0.23946,-0.33375z" fill="#ff0000" stroke-width="0"/><path d="" fill="#ff0000" stroke-width="0"/><path d="" fill="#ff0000" stroke-width="0"/><path d="M230.5,160.8125c10.80381,0 20.00698,7.40138 23.49953,17.76538c-1.37612,-2.24855 -2.99947,-1.00378 -4.62146,0.08365c-0.33328,0.22344 -0.49197,0.86448 -0.88962,0.8109c-0.34681,-0.04673 -0.23636,-0.6592 -0.37358,-0.98112c-0.38738,-0.90878 -0.70705,-1.85374 -1.1998,-2.70997c-1.08437,-1.88427 -3.83543,-7.45968 -6.35062,-7.67578c-2.00116,-0.17194 -3.21824,1.84558 -3.74974,3.70936c-0.53957,-0.35786 -1.07604,-0.71695 -1.6195,-1.07116c-0.0932,-0.1351 -0.18766,-0.26873 -0.28201,-0.40096l0.14895,-0.16385l-2.21597,-2.01451c-0.26687,-0.24444 -0.62245,-0.39359 -1.01286,-0.39359c-0.62878,0 -1.1672,0.38689 -1.39019,0.9356c-0.26554,0.12711 -0.48785,0.33005 -0.6389,0.58077l-0.18424,0.29479c-0.11819,-0.22822 -0.23564,-0.45677 -0.35206,-0.6858c-1.30578,-2.56798 -1.95051,-5.0839 -2.77821,-7.73815c1.30568,-0.22737 2.64519,-0.34553 4.01027,-0.34553z" fill="#ff0000" stroke-width="0"/><path d="M249.76824,182.33907c-2.90628,0.74983 -5.9468,1.43345 -8.89518,1.62813c-0.00648,-0.12485 -0.01412,-0.2501 -0.02291,-0.37539c0.09601,-0.19774 0.14985,-0.41974 0.14985,-0.65431c0,-0.13723 -0.01843,-0.27016 -0.05294,-0.39644l-0.65851,-2.63403l-0.12355,0.03089c-0.09259,-0.24083 -0.1937,-0.45308 -0.30319,-0.62929c-0.08233,-0.13249 -0.16534,-0.2719 -0.24969,-0.41539c-0.09243,-0.33505 -0.19662,-0.66438 -0.3131,-0.99099c0.36628,0.05709 0.73634,0.09188 1.12314,0.10456l-0.03106,0.42674l2.71541,0.19766c0.04108,0.00338 0.08263,0.0051 0.12458,0.0051c0.42885,0 0.81566,-0.17997 1.08904,-0.4685c1.04803,1.94399 2.32502,3.97653 3.52475,4.23477c1.08512,0.23358 2.13417,-0.66083 3.11038,-1.1891c0.27361,-0.14806 0.86537,-0.82352 0.77003,-0.52739c-0.07252,0.22524 -0.1513,0.4482 -0.23563,0.66913c-0.6289,0.25064 -1.22101,0.55408 -1.72142,0.98386z" fill="#ff0000" stroke-width="0"/><path d="M242.78655,175.23666l-1.5673,-0.7841l0,0c-0.61954,-0.30974 -1.21029,-0.63621 -1.78218,-0.97343c0.23374,-0.52316 0.35592,-1.1076 0.58995,-1.63328c0.11496,-0.25822 0.1481,-0.85295 0.40851,-0.74306c1.33825,0.56471 1.381,2.55796 2.14965,3.79043c0.06233,0.09995 0.12957,0.21517 0.20136,0.34345z" fill="#ff0000" stroke-width="0"/><path d="M232.62772,172.28334c0.02358,0.03206 0.04722,0.06407 0.07092,0.09603c-0.0232,-0.01229 -0.0465,-0.0243 -0.06991,-0.03604z" fill="#ff0000" stroke-width="0"/><path d="M205.5,187.8125c0,-0.99973 0.05031,-1.98677 0.14834,-2.95833c0.0193,0 0.0386,0 0.0579,0c1.44333,0 2.88666,0.00016 4.32999,0.00043c0.00963,0.32484 0.02059,0.64959 0.03305,0.97423c0.07179,1.8718 0.10186,5.19663 1.35167,6.76701c0.11522,0.14478 1.35938,0.8403 2.66694,1.5485c0.12912,1.53275 0.77331,3.23614 0.91942,4.60763c0.101,0.94808 -0.25124,1.99193 0.15106,2.85635c0.49567,1.06504 2.96705,2.27848 4.05798,2.46878c2.01196,0.35096 3.76993,-0.00119 5.45978,-0.60062c-0.79821,2.39263 -1.70326,4.99201 -3.00879,6.54117c-0.47184,0.58619 -0.28345,1.15468 -0.88346,1.6358l-0.19251,0.55454c0,0 -0.06284,0.24197 0.17914,0.30481c0.24197,0.06284 0.30481,-0.17914 0.30481,-0.17914l0.02831,-0.29582c0.64283,-0.55012 0.45262,-1.14807 0.94605,-1.69799c1.41959,-1.68451 2.3747,-4.54198 3.22538,-7.08642c1.09974,-0.42755 2.17966,-0.93826 3.29222,-1.4034c0.3416,0.18171 0.6832,0.36342 1.02479,0.54513c-0.08269,0.54908 -0.1492,1.10083 -0.24141,1.6484c-0.16807,0.99811 -0.36117,1.99185 -0.54175,2.98777l0.02523,0.08025l-0.03316,-0.00251l-0.12878,1.69885c-0.00365,0.04271 -0.00552,0.08593 -0.00552,0.12959c0,0.82843 0.67157,1.5 1.5,1.5c0.67476,0 1.24546,-0.44554 1.43396,-1.05847l0.65573,-1.96719l-0.30134,-0.10045c0.56525,-0.99215 1.06429,-2.00388 1.5458,-3.03535c0.38686,0.18022 0.76914,0.36689 1.14162,0.56754c0.00987,0.19646 0.0193,0.39493 0.02749,0.59577l-0.30139,1.50694c-0.02305,0.10451 -0.0352,0.21311 -0.0352,0.32455c0,0.82843 0.67157,1.5 1.5,1.5c0.73733,0 1.3504,-0.53199 1.47632,-1.23307l0.29033,-1.45164c0.07604,0.01188 0.15398,0.01804 0.23335,0.01804c0.78784,0 1.43382,-0.60738 1.49522,-1.37943l0.27022,-2.97245l-0.30182,-0.02744c0.29056,-1.2462 0.54594,-2.49693 0.81274,-3.74316c0.29325,0.38474 0.59806,0.7644 0.90419,1.1425c0.07593,0.55548 0.45597,1.01412 0.96681,1.20264c0.66247,0.84368 1.27766,1.69825 1.73256,2.60278c0.67475,1.34167 1.91755,2.28293 2.50732,3.68388c0.22974,0.54574 0.39614,1.12314 0.53653,1.7113c-4.37101,4.04452 -10.04988,6.48771 -16.25711,6.48772h-0.00003c-13.80711,-0.00002 -24.99997,-12.08832 -24.99997,-27z" fill="#ff0000" stroke-width="0"/><path d="M221.68553,201.11147c-0.4253,0.05191 -3.5907,0.11138 -3.84389,-0.84479c-0.28019,-1.05815 -0.30124,-2.24697 -0.29868,-3.46295c0.28537,0.43748 0.67959,0.81134 1.20415,1.0978c1.06137,0.57961 2.29742,0.71046 3.57188,0.62478c0.6788,0.36108 1.3576,0.72216 2.0364,1.08324c0.02037,0.08587 0.05269,0.17002 0.09923,0.25216c0.06543,0.11549 0.14152,0.22313 0.22666,0.32344c-1.16949,0.4485 -2.24355,0.83449 -2.99575,0.92631z" fill="#ff0000" stroke-width="0"/><path d="M213.77229,188.87722c-0.17055,0.17068 -0.30019,0.38225 -0.37292,0.61875l-0.03159,0.09476c-0.2519,-1.36884 -0.28599,-3.44332 -0.30047,-3.87049c-0.00978,-0.28827 -0.01854,-0.5766 -0.02637,-0.86498c0.53937,0.00014 1.07875,0.00028 1.61812,0.00042c-0.22067,1.38004 -0.45093,2.76702 -0.88677,4.02154z" fill="#ff0000" stroke-width="0"/><path d="M226.74184,191.70941c0.02171,0.00846 0.04341,0.01666 0.0651,0.0246c-0.45088,0.81876 -0.78458,1.66977 -1.05377,2.55454c-0.67505,-0.61192 -1.19913,-1.36345 -1.42627,-2.15653c-0.26539,-0.92665 0.48528,-1.09704 1.49901,-0.94239c0.2707,0.21094 0.57559,0.38719 0.91593,0.51978z" fill="#ff0000" stroke-width="0"/><path d="M220.0353,193.91348c0.1156,-0.88477 0.34137,-1.77773 0.64607,-2.64717c0.18975,0.09584 0.3956,0.16737 0.61866,0.21167c-0.08504,1.39122 0.58285,2.75891 1.52139,3.91756c-0.92871,-0.49402 -1.85742,-0.98804 -2.78612,-1.48205z" fill="#ff0000" stroke-width="0"/><path d="M234.30763,196.51651c-0.10373,-0.13777 -0.20678,-0.27508 -0.30869,-0.4123c0.06248,-0.28518 0.08717,-0.57887 0.09117,-0.87714c0.4201,-0.12581 0.83947,-0.25702 1.25061,-0.40162c0.66653,0.15579 1.36597,0.23736 1.98766,0.18374c-0.18307,0.66919 -0.33629,1.34158 -0.44817,2.00663c-0.22877,-0.53599 -0.76062,-0.91165 -1.38022,-0.91165c-0.42083,0 -0.80118,0.1733 -1.07359,0.45243c-0.0404,-0.01522 -0.08016,-0.0285 -0.11878,-0.04008z" fill="#ff0000" stroke-width="0"/><path d="M216.96147,191.5997c-0.01786,-0.04396 -0.03637,-0.08757 -0.05548,-0.13086l0.01704,-0.00568l-0.41945,-1.25835c0.22792,-0.5185 0.48252,-1.11271 0.73784,-1.75325c0.25488,0.20001 0.57614,0.31928 0.92526,0.31928c0.14894,0 0.29281,-0.02171 0.42862,-0.06213c-0.55509,1.04535 -1.08714,2.31561 -1.39733,3.59078c-0.06578,-0.23824 -0.14386,-0.47183 -0.23648,-0.69978z" fill="#ff0000" stroke-width="0"/><path d="M229.37351,193.79613c-0.17666,0.23344 -0.35076,0.4688 -0.52169,0.7062c-0.00932,-0.00069 -0.01864,-0.00139 -0.02797,-0.00209c0.09246,-0.30138 0.20348,-0.59575 0.34452,-0.87888c0.02494,-0.05007 0.0506,-0.09976 0.07691,-0.1491c0.04137,0.10811 0.08415,0.2161 0.12822,0.32387z" fill="#ff0000" stroke-width="0"/><path d="M221.98403,188.4327c0.18172,-0.31713 0.3707,-0.62427 0.56479,-0.91924c0.0071,0.00838 0.01422,0.01674 0.02134,0.02507c-0.14505,0.24834 -0.38622,0.63428 -0.58613,0.89417z" fill="#ff0000" stroke-width="0"/><path d="M229.60063,194.32519c0.03064,0.06822 0.06173,0.13629 0.09323,0.20417c-0.07831,0.0042 -0.16117,0.00528 -0.24735,0.00409c0.05111,-0.06959 0.10249,-0.13901 0.15411,-0.20826z" fill="#ff0000" stroke-width="0"/><path d="M229.46537,187.40794c-0.33748,0.65841 -0.85923,1.25785 -1.36778,1.42222c-0.28125,-0.08252 -0.56484,-0.15374 -0.84989,-0.21221c-0.10214,-0.10337 -0.17083,-0.22893 -0.21162,-0.37026c0.36409,-0.29625 0.73355,-0.68665 1.1062,-1.18324c0.40455,0.14674 0.87336,0.23668 1.3231,0.34349z" fill="#ff0000" stroke-width="0"/><path d="M234.32986,191.52285c-0.1074,0.03448 -0.21511,0.07452 -0.32285,0.11944c-0.00148,-0.10859 -0.00349,-0.2199 -0.0061,-0.33309c0.10811,0.07542 0.2178,0.14693 0.32895,0.21365z" fill="#ff0000" stroke-width="0"/><path d="" fill="#ff0000" stroke-width="0"/><path d="M249.20307,192.99562c1.51463,0.98326 3.32198,1.5929 4.86733,2.55471c0.11258,0.06999 0.22244,0.13785 0.33001,0.20604c-1.35235,4.75145 -3.88609,8.94421 -7.23101,12.17845c-0.13024,-0.5211 -0.2842,-1.0313 -0.48797,-1.51533c-0.59644,-1.41679 -1.84229,-2.36406 -2.52146,-3.71453c-0.39642,-0.78825 -0.93009,-1.54468 -1.51422,-2.2928c0.68602,-0.06615 1.23695,-0.5944 1.33774,-1.2697l0.49132,-2.93442l-0.01682,-0.00282c0.01034,-0.03304 0.02045,-0.06616 0.03033,-0.09938c0.06966,-0.23417 0.12764,-0.48072 0.17553,-0.73739c1.21032,-0.12536 2.43904,-1.27332 3.4265,-2.06906c0.23993,-0.19335 0.43443,-0.42615 0.60222,-0.68211c0.16372,0.13605 0.33322,0.26325 0.51049,0.37832z" fill="#ff0000" stroke-width="0"/><path d="M240.96233,194.37058c0.01919,0.50328 0.03752,1.01843 0.03757,1.54862c0,0.00001 0,0.00002 0,0.00004l0.00008,2.46459c-0.2622,-0.32637 -0.51912,-0.65518 -0.76368,-0.98835c0.22119,-1.01385 0.4548,-2.02377 0.72603,-3.02489z" fill="#ff0000" stroke-width="0"/><path d="M246.03236,191.00709c0.04065,-0.30945 0.07661,-0.62528 0.09529,-0.94094c0.09735,0.07969 0.19273,0.16284 0.2866,0.24873c-0.12828,0.23019 -0.25572,0.46085 -0.38188,0.69221z" fill="#ff0000" stroke-width="0"/><path d="M255.5,187.8125c0,2.58076 -0.33526,5.07695 -0.96131,7.44054c-0.06718,-0.04213 -0.13525,-0.08442 -0.20429,-0.12735c-1.54303,-0.95831 -3.34846,-1.56881 -4.85907,-2.54946c-0.1846,-0.11983 -0.36062,-0.25206 -0.53033,-0.39326c0.29907,-0.5726 0.527,-1.20674 0.85036,-1.7574c1.41329,-2.40676 3.02876,-4.52652 3.93378,-7.21073c0.25662,-0.76112 0.77915,-1.56287 0.93698,-2.34369c0.54402,2.21491 0.83391,4.54157 0.83391,6.94134z" fill="#ff0000" stroke-width="0"/><path d="M250.00177,182.78119c0.36494,-0.30874 0.77184,-0.54046 1.20191,-0.73036c-1.06131,2.41398 -2.71953,4.60356 -4.00627,6.87451c-0.18026,0.31815 -0.3606,0.63628 -0.53984,0.95501c-0.16713,-0.15253 -0.33926,-0.29691 -0.51887,-0.42937c-0.01468,-0.5012 -0.09477,-0.99103 -0.29201,-1.44258c-0.03822,-0.08749 -0.07879,-0.17358 -0.12152,-0.25839l0.03063,-0.01361l-1.20451,-2.71014c-0.18204,-0.43565 -0.5637,-0.76711 -1.03065,-0.88008c2.17224,-0.30142 4.35768,-0.76158 6.48113,-1.36498z" fill="#ff0000" stroke-width="0"/><path d="M240.89191,184.43334c0.52041,-0.04123 1.04338,-0.09213 1.56784,-0.15248c-0.44931,0.24052 -0.76186,0.70319 -0.79088,1.24122c-0.34821,0.12246 -0.6376,0.36977 -0.81445,0.68821c0.0434,-0.5409 0.05563,-1.14832 0.03749,-1.77695z" fill="#ff0000" stroke-width="0"/></g></g></svg>