<svg version="1.1" xmlns="http://www.w3.org/2000/svg" xmlns:xlink="http://www.w3.org/1999/xlink" width="121.84375" height="119.75" viewBox="0,0,121.84375,119.75"><g transform="translate(-166.25,-95.0625)"><g data-paper-data="{&quot;isPaintingLayer&quot;:true}" fill-rule="nonzero" stroke="none" stroke-linecap="butt" stroke-linejoin="miter" stroke-miterlimit="10" stroke-dasharray="" stroke-dashoffset="0" style="mix-blend-mode: normal"><text transform="translate(166.5,116.8125) scale(0.5,0.5)" font-size="40" xml:space="preserve" fill="#a3ffaf" fill-rule="nonzero" stroke="none" stroke-width="1" stroke-linecap="butt" stroke-linejoin="miter" stroke-miterlimit="10" stroke-dasharray="" stroke-dashoffset="0" font-family="Sans Serif" font-weight="normal" text-anchor="start" style="mix-blend-mode: normal"><tspan x="0" dy="0">Leben Goofy</tspan></text><path d="M216.20631,184.35612c-3.50002,-0.00097 -7.00005,-0.00194 -10.50007,-0.00194c-0.00103,0 -0.00205,0 -0.00308,0c1.38192,-11.67309 9.66564,-21.01597 20.29172,-23.10444c0.84575,2.7009 1.50017,5.26296 2.82737,7.87307c0.50799,0.99868 1.03592,1.98813 1.55781,2.98075c-0.2167,0.05313 -0.43953,0.12747 -0.66866,0.22464c-1.21512,0.5153 -0.77599,3.5706 -0.46899,5.30744l-2.08252,-1.82221c-0.26455,-0.23393 -0.61231,-0.37592 -0.99323,-0.37592c-0.82843,0 -1.5,0.67157 -1.5,1.5c0,0.05069 0.00251,0.10079 0.00743,0.15019l0.1421,1.6096l0.1004,-0.00886l-0.05147,0.27849c0.57212,1.18645 1.25162,2.4005 2.03682,3.57008c-0.95507,0.59238 -1.75879,1.36874 -2.24205,2.32971c-2.79631,-0.36139 -5.64736,-0.50982 -8.45359,-0.51059z" fill="#ff0000" stroke-width="0"/><path d="M232.85864,181.07073c-0.25073,-1.59099 -0.29111,-3.23597 -0.71959,-4.78381c0.64274,1.15455 1.16462,2.32032 1.64827,3.53542c0.11036,0.34923 0.2164,0.69907 0.32048,1.04898c-0.01405,0.17298 -0.02756,0.35368 -0.04039,0.53953c-0.39559,-0.11675 -0.79553,-0.20195 -1.19489,-0.25255c-0.00466,-0.02914 -0.00929,-0.05833 -0.0139,-0.08757z" fill="#ff0000" stroke-width="0"/><path d="M229.12965,178.10701l0.16378,-0.18718c0.02675,0.14711 0.05144,0.28078 0.07263,0.39783c-0.07772,-0.07084 -0.15654,-0.14105 -0.23641,-0.21065z" fill="#ff0000" stroke-width="0"/><path d="M230.5,160.8125c11.38631,0 20.99473,8.22101 24.014,19.46689c-1.56567,0.68474 -3.45895,0.95449 -4.74576,2.05968c-2.90628,0.74983 -5.9468,1.43345 -8.89518,1.62813c-0.09476,-1.82652 -0.43817,-3.73633 -1.01125,-4.65857c-0.78759,-1.26744 -1.63759,-3.16914 -3.12947,-3.20106c-0.34991,-0.00749 -0.64825,0.1252 -0.90736,0.34651c-1.08057,-2.44127 -2.63887,-4.65702 -4.92794,-4.43899c-0.54511,-1.03891 -1.09792,-2.07388 -1.62911,-3.11891c-1.30578,-2.56798 -1.95051,-5.0839 -2.77821,-7.73815c1.30568,-0.22737 2.64519,-0.34553 4.01027,-0.34553z" fill="#ff0000" stroke-width="0"/><path d="M205.5,187.8125c0,-0.99973 0.05031,-1.98677 0.14834,-2.95833c0.0193,0 0.0386,0 0.0579,0c3.49998,0 6.99995,0.00097 10.49993,0.00194c2.73711,0.00076 5.51711,0.14275 8.2463,0.48812c-0.0101,0.02741 -0.01995,0.05496 -0.02954,0.08263c-0.73967,2.13385 -0.1225,5.33139 2.31891,6.28255c0.68578,0.26718 1.35868,0.27402 1.99238,0.09408c0.14544,0.6573 0.36799,1.32913 0.63929,1.99264c-1.57256,2.07791 -2.94147,4.30857 -3.68708,6.76547c-1.09362,2.83357 -2.14274,7.22952 -4.0191,9.45605c-0.47184,0.58619 -0.28345,1.15468 -0.88346,1.6358l-0.19251,0.55454c0,0 -0.06284,0.24197 0.17914,0.30481c0.24197,0.06284 0.30481,-0.17914 0.30481,-0.17914l0.02831,-0.29582c0.64283,-0.55012 0.45262,-1.14807 0.94605,-1.69799c1.92445,-2.28359 2.99532,-6.72282 4.10954,-9.61553c0.70699,-2.32409 1.97295,-4.4294 3.44142,-6.39913c0.78613,1.75008 1.86418,3.39792 2.69938,4.51231l1.53333,0.6c0,0 1.5,0 1.5,-1.5c0,-0.93773 -0.58622,-1.28923 -1.02571,-1.42099c-0.28411,-0.37735 -0.56318,-0.75132 -0.82742,-1.12908l0.03988,0.00785c0.60891,-0.17803 1.22346,-0.3598 1.82063,-0.56983c1.0183,0.23801 2.1134,0.30279 2.89077,-0.0231c1.12636,3.0035 4.07288,5.32578 5.48178,8.12726c0.67475,1.34167 1.91755,2.28293 2.50732,3.68388c0.22974,0.54574 0.39614,1.12314 0.53653,1.7113c-4.37101,4.04452 -10.04988,6.48771 -16.25711,6.48772l-0.00003,0c-13.80711,-0.00002 -24.99997,-12.08832 -24.99997,-27z" fill="#ff0000" stroke-width="0"/><path d="M227.5915,188.83225c-0.84645,-0.31023 -0.67567,-1.35754 -0.25098,-2.26323c0.44795,0.50969 1.31718,0.6471 2.12485,0.83892c-0.45215,0.88213 -1.23509,1.65843 -1.87387,1.42431z" fill="#ff0000" stroke-width="0"/><path d="M233.29152,192.00661l-0.04907,-0.1145l-1.2907,0.55316c-0.07955,-0.26217 -0.14528,-0.53195 -0.19512,-0.81085c0.37429,-0.46171 0.71565,-0.91137 1.04497,-1.34686c0.4649,0.45849 0.97863,0.90536 1.52826,1.23529c-0.3461,0.11112 -0.69552,0.28 -1.03835,0.48376z" fill="#ff0000" stroke-width="0"/><path d="M231.66657,190.92006c-0.0627,-0.84061 -0.1809,-1.35201 0.23364,-1.61934c0.10276,0.13938 0.21065,0.27007 0.324,0.39115c0.0753,0.08044 0.15235,0.16198 0.23108,0.244c-0.2528,0.33013 -0.51211,0.66816 -0.78649,1.01325c-0.00076,-0.00968 -0.0015,-0.01937 -0.00223,-0.02907z" fill="#ff0000" stroke-width="0"/><path d="M245.53561,189.64649c1.37758,0.82173 2.287,2.45297 3.66746,3.34913c1.51463,0.98326 3.32198,1.5929 4.86733,2.55471c0.11258,0.06999 0.22244,0.13785 0.33001,0.20604c-1.35235,4.75145 -3.88609,8.94421 -7.23101,12.17845c-0.13024,-0.5211 -0.2842,-1.0313 -0.48797,-1.51533c-0.59644,-1.41679 -1.84229,-2.36406 -2.52146,-3.71453c-1.39302,-2.76989 -4.48063,-5.14683 -5.498,-8.15094c0.08482,-0.06618 0.16248,-0.14018 0.23202,-0.22253c0.65373,-0.77407 0.80825,-1.68004 0.62075,-2.60308c0.17083,-0.32036 0.31577,-0.67135 0.43083,-1.05718c0.16357,-0.5485 0.24804,-1.09306 0.26288,-1.62779c0.18407,-0.48636 0.30129,-1.03028 0.43115,-1.48895c0.01905,-0.06728 0.03704,-0.13822 0.05397,-0.21255c1.64707,0.74581 3.356,1.40592 4.84203,2.30454z" fill="#ff0000" stroke-width="0"/><path d="M255.5,187.8125c0,2.58076 -0.33526,5.07695 -0.96131,7.44054c-0.06718,-0.04213 -0.13525,-0.08442 -0.20429,-0.12735c-1.54303,-0.95831 -3.34846,-1.56881 -4.85907,-2.54946c-1.39115,-0.9031 -2.29549,-2.50992 -3.68098,-3.35761c-1.6435,-0.99384 -3.3374,-1.606 -5.00243,-2.42679c0.09235,-0.66701 0.12498,-1.49262 0.09999,-2.35849c3.01995,-0.23924 6.1261,-0.80428 9.10986,-1.65215c1.30101,-1.10066 3.13516,-1.22241 4.65197,-1.96021c0.55199,2.22994 0.84628,4.57361 0.84628,6.99151z" fill="#ff0000" stroke-width="0"/></g></g></svg>