<svg version="1.1" xmlns="http://www.w3.org/2000/svg" xmlns:xlink="http://www.w3.org/1999/xlink" width="121.84375" height="119.75001" viewBox="0,0,121.84375,119.75001"><g transform="translate(-166.25,-95.0625)"><g data-paper-data="{&quot;isPaintingLayer&quot;:true}" fill-rule="nonzero" stroke="none" stroke-linecap="butt" stroke-linejoin="miter" stroke-miterlimit="10" stroke-dasharray="" stroke-dashoffset="0" style="mix-blend-mode: normal"><text transform="translate(166.5,116.8125) scale(0.5,0.5)" font-size="40" xml:space="preserve" fill="#a3ffaf" fill-rule="nonzero" stroke="none" stroke-width="1" stroke-linecap="butt" stroke-linejoin="miter" stroke-miterlimit="10" stroke-dasharray="" stroke-dashoffset="0" font-family="Sans Serif" font-weight="normal" text-anchor="start" style="mix-blend-mode: normal"><tspan x="0" dy="0">Leben Goofy</tspan></text><path d="M235.36802,186.68681c-2.87596,-0.03009 -5.81999,-1.03194 -8.66624,-1.51553c-3.43994,-0.58446 -7.00242,-0.8142 -10.49547,-0.81516c-3.50002,-0.00097 -7.00005,-0.00194 -10.50007,-0.00194c-0.00103,0 -0.00205,0 -0.00308,0c1.38192,-11.67309 9.66564,-21.01597 20.29172,-23.10444c0.84575,2.7009 1.50017,5.26296 2.82737,7.87307c1.5782,3.10266 3.34889,6.11626 4.53291,9.41218c0.9276,2.58212 1.45389,5.23529 2.55559,7.73526c-0.1891,0.13554 -0.36955,0.27444 -0.54273,0.41656z" fill="#ff0000" stroke-width="0"/><path d="M230.5,160.8125c11.38631,0 20.99473,8.22101 24.014,19.46689c-1.56567,0.68474 -3.45895,0.95449 -4.74576,2.05968c-3.31074,0.85418 -6.79569,1.62244 -10.12018,1.67987c-0.86738,0.33738 -1.35129,0.62914 -2.30889,0.66245l-0.49746,0.006c-0.13686,0.00141 -0.24736,0.11279 -0.24736,0.24999c0,0.09917 0.05774,0.18485 0.14144,0.22526l0.44089,0.22424l0.01151,-0.02262c0.02054,0.01566 0.04115,0.03126 0.06181,0.04678c0,0.01339 0,0.02679 0,0.04019c-0.32819,0.1705 -0.63326,0.34828 -0.91908,0.53298c-1.07314,-2.46305 -1.59231,-5.07708 -2.50521,-7.61827c-1.1912,-3.3159 -2.97092,-6.3479 -4.55778,-9.46976c-1.30578,-2.56798 -1.95051,-5.0839 -2.77821,-7.73815c1.30568,-0.22737 2.64519,-0.34553 4.01027,-0.34553z" fill="#ff0000" stroke-width="0"/><path d="M230.5,214.8125c-13.80712,0 -25,-12.08831 -25,-27c0,-0.99973 0.05031,-1.98677 0.14834,-2.95833c0.0193,0 0.0386,0 0.0579,0c3.49998,0 6.99995,0.00097 10.49993,0.00194c3.46525,0.00096 6.99926,0.22829 10.41185,0.8081c2.69471,0.45784 5.47013,1.36836 8.20031,1.50575c-1.37724,1.29338 -2.32144,2.81851 -3.72891,4.48798c-2.24887,2.67556 -4.39525,5.58297 -5.403,8.90366c-1.09362,2.83357 -2.14274,7.22952 -4.0191,9.45605c-0.47184,0.58619 -0.28345,1.15468 -0.88346,1.6358l-0.19251,0.55454c0,0 -0.06284,0.24197 0.17914,0.30481c0.24197,0.06284 0.30481,-0.17914 0.30481,-0.17914l0.02831,-0.29582c0.64283,-0.55012 0.45262,-1.14807 0.94605,-1.69799c1.92445,-2.28359 2.99532,-6.72282 4.10954,-9.61553c0.99503,-3.27094 3.09725,-6.10854 5.31297,-8.74468c1.51918,-1.8125 2.4656,-3.45172 4.05713,-4.79458c0.05686,-0.00772 0.17946,-0.03992 0.2124,-0.1743c0.1216,-0.09703 0.247,-0.19242 0.37667,-0.28612c0.05143,0.10855 0.10408,0.21677 0.15802,0.32466c0,0 0.1118,0.22361 0.33541,0.1118c0.22361,-0.1118 0.1118,-0.33541 0.1118,-0.33541c-0.06428,-0.12855 -0.12669,-0.2576 -0.18739,-0.38712c0.22489,-0.14577 0.46228,-0.28699 0.71425,-0.42346c0.00528,2.75772 0.06749,5.5929 0.80076,8.24622c0.95225,3.27114 4.16971,5.70089 5.66204,8.66827c0.67475,1.34167 1.91755,2.28293 2.50732,3.68388c0.22974,0.54574 0.39614,1.12314 0.53653,1.7113c-4.37102,4.04453 -10.0499,6.48772 -16.25714,6.48772z" fill="#ff0000" stroke-width="0"/><path d="M245.53561,189.64649c1.37758,0.82173 2.287,2.45297 3.66746,3.34913c1.51463,0.98326 3.32198,1.5929 4.86733,2.55471c0.11258,0.06999 0.22244,0.13785 0.33001,0.20604c-1.35235,4.75145 -3.88609,8.94421 -7.23101,12.17845c-0.13024,-0.5211 -0.2842,-1.0313 -0.48797,-1.51533c-0.59644,-1.41679 -1.84229,-2.36406 -2.52146,-3.71453c-1.45842,-2.89994 -4.7743,-5.36917 -5.62722,-8.57833c-0.75914,-2.67701 -0.78257,-5.57652 -0.78281,-8.36089c2.36968,1.59065 5.37175,2.42103 7.78566,3.88075z" fill="#ff0000" stroke-width="0"/><path d="M255.5,187.8125c0,2.58076 -0.33526,5.07695 -0.96131,7.44054c-0.06718,-0.04213 -0.13525,-0.08442 -0.20429,-0.12735c-1.54303,-0.95831 -3.34846,-1.56881 -4.85907,-2.54946c-1.39115,-0.9031 -2.29549,-2.50992 -3.68098,-3.35761c-1.89905,-1.14837 -3.86538,-1.78714 -5.77673,-2.82701c-0.55553,-0.30224 -1.41567,-0.95842 -2.1635,-1.25402c0.68921,-0.09895 1.17922,-0.34318 1.89589,-0.62916c3.37377,-0.17586 6.89042,-0.77207 10.25175,-1.72724c1.30101,-1.10066 3.13516,-1.22241 4.65197,-1.96021c0.55199,2.22994 0.84628,4.57361 0.84628,6.99151z" fill="#ff0000" stroke-width="0"/></g></g></svg>