<svg viewBox="-230 -125 236.325 158.7" width="236.325" height="158.7" version="1.1" baseProfile="full" xmlns="http://www.w3.org/2000/svg" class="js-draw--autoresize"><style id="js-draw-style-sheet">path{stroke-linecap:round;stroke-linejoin:round;}text{white-space:pre;}</style><path d="M6.325,33.7l0-158.7l-236.325,0l0,158.7l236.325,0" fill="#ffffff" class="js-draw-image-background"></path><path d="M-139.4375,-109.04375q33.6375-.43125 56.0625,4.74375q50.8875,11.64375 71.5875,45.7125q12.9375,21.13125 -13.36875,45.7125q-28.4625,27.16875 -91.85625,36.65625q-57.35625,8.625 -85.81875-33.20625q-15.525-23.2875 -1.725-53.475q6.0375-12.9375 28.89375-30.61875q12.50625-9.4875 45.28125-15.95625q.8625,0 3.45-.43125" fill="none" stroke="#751dc759" stroke-width="2.5875"></path><path d="M-131.675,-110.76875q47.86875,4.74375 68.56875,14.23125q33.6375,15.525 40.96875,25.875q19.40625,26.30625 2.5875,49.1625q-7.33125,9.91875 -35.79375,25.0125q-27.6,14.6625 -39.675,16.3875q-28.03125,.8625 -50.8875,0q-75.0375-2.5875 -62.53125-78.05625q4.3125-25.44375 37.0875-45.28125q19.8375-12.50625 67.70625-6.9q5.60625,.43125 5.175,0" fill="none" stroke="#751dc759" stroke-width="18.1125"></path><path d="M-138.14375,-85.325q15.09375,5.60625 31.9125,16.3875q1.725-2.15625 2.5875-5.60625q-3.45-7.7625 -8.625-13.8q5.60625,3.45 15.09375,10.78125q2.15625,1.725 -11.64375-12.50625q.43125,.43125 .8625,.8625q9.4875,7.33125 16.81875,13.36875q-3.45-7.33125 -12.075-19.40625q-1.725-3.01875 9.91875,7.33125q21.13125,18.54375 19.8375,14.6625q-5.175-9.05625 -9.91875-15.95625q8.19375,6.0375 21.5625,18.54375q-3.45-5.175 -10.78125-14.23125q6.9,5.60625 18.54375,16.3875q-2.5875-4.3125 -7.7625-12.50625q-1.29375-2.15625 7.33125,6.0375q13.36875,13.36875 10.35,7.33125q2.15625,1.29375 5.175,4.74375q0-2.15625 -1.29375-5.175q.43125,.43125 1.725,1.725q6.46875,7.33125 12.075,13.8q0,2.5875 0,4.74375q-1.29375,10.78125 -13.36875,21.5625q3.01875-4.74375 9.4875-13.36875q-5.175,5.175 -14.6625,15.09375q-3.88125,3.88125 -13.8,10.78125q1.29375-.8625 4.3125-2.15625q15.525-11.64375 27.6-21.99375q-2.15625,1.725 -6.0375,4.74375q-26.30625,21.5625 -48.3,38.8125q-2.5875,2.5875 -26.7375,2.5875q-34.06875,.43125 -35.79375,.43125q-20.26875-3.45 -29.325-11.64375q-11.64375-9.4875 -21.13125-16.81875q-8.19375-6.46875 -1.29375-29.325q3.88125-12.50625 13.36875-26.30625q9.91875-13.36875 19.8375-18.1125q34.5-16.81875 74.175,15.09375q-15.95625-3.01875 -43.55625-13.36875q-9.05625-3.45 -12.9375,7.33125q-3.01875,9.4875 18.1125,16.3875q9.05625,3.01875 -7.7625-16.3875q1.725-1.29375 4.74375-2.15625q21.5625,12.50625 37.95,29.75625q11.2125,12.075 11.2125-.43125q-8.19375-18.975 -18.54375-33.6375q12.9375,15.525 35.79375,45.28125q-6.9-12.075 -20.26875-33.6375q12.9375,14.6625 35.3625,42.69375q1.29375,1.725 -2.15625-7.33125q-10.35-25.875 -6.0375-23.71875q12.50625,13.36875 20.7,26.30625q-2.15625-6.0375 -6.9-17.68125q1.29375,6.0375 3.88125,17.25q-7.33125-1.29375 -17.25-6.9q-6.0375-3.45 -6.9,23.71875q-.8625,16.3875 -17.25-7.7625q-1.29375,1.725 -2.15625,5.175q2.5875,10.78125 7.33125,19.8375q-1.725-1.29375 -4.3125-3.45q-10.35-14.23125 -16.81875-27.16875q6.9,10.78125 19.40625,31.48125q4.74375,8.625 9.4875-2.15625q-.43125-28.4625 -5.175-52.18125q8.19375,12.9375 19.8375,38.38125q1.29375,2.5875 -6.0375-6.0375q-32.775-41.4 -40.10625-27.6q-4.74375,9.4875 15.95625,43.9875q.43125-2.15625 .43125-6.0375q.43125-6.0375 -20.26875-21.99375q-7.7625-6.0375 -9.91875,6.46875q-2.15625,9.05625 12.50625,26.7375q1.725-2.15625 3.01875-6.0375q1.29375-3.88125 -15.95625-16.81875q-1.725,2.15625 -3.01875,6.0375q-2.15625,6.9 26.7375,22.85625q3.88125-2.15625 6.46875-5.60625q3.88125-4.74375 -28.4625-16.81875q-18.1125-6.9 -21.5625,7.33125q-2.15625,8.625 12.075,18.54375q-15.525-10.35 -45.28125-29.75625q0,1.725 .8625,5.175q.43125,2.5875 31.9125,17.25q-1.725-2.5875 -6.0375-6.0375q-10.35-9.91875 -30.61875-8.19375q-4.74375,0 4.3125,8.19375q15.525,14.6625 11.2125,7.33125q-1.29375-2.5875 -19.40625-16.3875q-6.9-4.3125 -12.9375-7.7625q1.725-2.15625 5.60625-3.88125q1.725-1.29375 .43125-18.1125q.43125,6.9 1.725,19.40625q1.29375-1.725 3.01875-5.175q5.60625-9.91875 -3.45-34.5q-1.725,2.5875 -3.01875,7.33125q-3.88125,11.64375 9.05625,18.1125q5.60625,2.5875 14.23125-34.06875q.43125,3.01875 0,8.19375q-.8625,28.03125 7.33125,33.6375q3.45,2.15625 -.43125-26.7375q-3.88125-27.6 -15.09375-16.81875q-9.91875,9.91875 3.88125,39.24375q9.05625,19.40625 16.3875,6.0375q5.175-9.4875 -4.3125-43.55625q-3.45-12.075 -14.6625-13.36875q-7.33125-.43125 -1.29375,26.30625q5.60625,24.15 23.2875,25.44375q9.05625,.43125 7.7625-25.875q-.43125-10.78125 -5.60625-11.2125q-3.45-.43125 6.46875,30.61875q8.19375,28.03125 21.13125,21.5625q6.46875-3.01875 -3.88125-28.89375q-6.9-16.81875 -16.3875-10.78125q-6.0375,3.45 8.19375,26.30625q11.2125,17.68125 23.71875,2.15625q7.33125-8.19375 -11.2125-18.1125q-22.85625-12.075 -35.3625,20.7q-6.9,18.975 10.78125,22.425q8.19375,1.725 3.45-17.25q-2.15625-9.05625 -9.91875-13.36875q-3.45-2.15625 9.4875,18.1125q24.15,37.0875 33.6375,14.23125q4.74375-12.50625 -15.95625-40.96875q-5.60625-7.33125 -10.78125,.8625q-4.3125,7.33125 14.23125,29.325q12.50625,15.09375 26.30625-1.29375q9.4875-11.2125 -5.60625-38.38125q-4.74375-8.625 -10.78125-2.5875q-5.175,5.60625 17.25,26.7375q7.33125,6.9 8.625-1.725q1.725-8.625 -20.7-28.4625q-7.7625-6.9 -13.36875,3.88125q-6.46875,12.50625 17.25,31.9125q1.29375-2.5875 1.725-6.46875q.43125-2.5875 -19.8375-15.09375q-6.9-2.15625 -12.9375-3.45" fill="none" stroke="#751dc71e" stroke-width="18.1125"></path><path d="M-187.7375,-82.30625q4.74375-.43125 12.075,3.88125q4.74375,2.5875 13.36875-3.01875q2.15625-1.29375 11.64375,2.15625q3.45,1.29375 9.4875-2.15625q7.7625-.43125 14.23125,0q4.74375,.43125 8.625,.8625q3.45,1.29375 6.46875,3.01875q4.3125-1.725 8.19375-4.3125q6.46875,.8625 11.64375,3.01875q6.9,.8625 12.9375,.8625q5.175,.8625 9.05625,1.725q5.60625-1.725 9.91875-4.74375q8.625,2.5875 15.95625,8.19375q9.4875,1.725 18.1125,1.725" fill="none" stroke="#d3bde830" stroke-width="2.15625"></path><path d="M-193.775,-58.15625q6.0375-7.7625 11.2125-7.7625q6.0375,1.29375 10.78125,3.01875q7.7625-1.29375 14.23125-4.74375q9.91875,.43125 18.1125,2.15625q5.60625-.43125 9.91875-1.29375q7.7625,2.15625 13.36875,5.60625q8.625-1.29375 15.525-4.74375q2.5875-1.29375 18.54375,5.175q6.9,3.01875 12.075-5.175q2.5875-4.74375 13.8,3.01875q12.50625,8.625 25.0125,6.0375q11.64375-2.15625 12.075-.43125" fill="none" stroke="#d3bde830" stroke-width="2.5875"></path><path d="M-29.0375,-26.675q-16.56-7.374375 -25.96125-8.1075q-5.865-.43125 -12.721875-5.43375" fill="none" stroke="#d3bde830" stroke-width="1.12125"></path><path d="M-77.76875,-44.7875q-17.68125,7.33125 -24.58125,8.625q-4.74375,.8625 -17.25-3.88125q-5.60625-2.15625 -12.9375,3.88125q-4.3125,3.45 -14.6625-6.9q-13.8-13.36875 -24.58125-9.91875q-6.0375,3.88125 -10.35,7.7625q-3.01875,.43125 -6.0375,.43125" fill="none" stroke="#d3bde830" stroke-width="1.725"></path><path d="M-201.96875,-15.03125q9.91875-6.9 16.3875-7.33125q6.0375,.43125 11.2125,1.725q6.0375-1.725 11.2125-4.3125q2.15625-1.29375 38.8125,9.05625q7.33125,2.15625 18.1125-3.45q5.60625-2.5875 16.3875,2.15625q9.91875,4.74375 27.16875-3.01875" fill="none" stroke="#d3bde830" stroke-width="2.15625"></path><path d="M-68.28125,11.70625Q-73.025,11.70625 -79.925,9.11875Q-93.29375,3.5125 -104.9375,4.375Q-112.26875,5.66875 -118.30625,6.9625Q-120.4625,7.39375 -139.4375,.925Q-142.025,-.36875 -156.25625,3.94375Q-158.84375,4.80625 -168.33125,1.7875Q-175.23125,-.36875 -185.58125,5.66875Q-188.16875,6.9625 -190.325,7.825" fill="none" stroke="#d3bde830" stroke-width="1.725"></path><path d="M-172.64375,-101.7125q4.74375,.43125 11.64375,3.01875q4.74375,1.725 22.425,.43125q10.35,0 18.1125,.43125q4.74375-.43125 8.19375-.8625q11.2125,3.01875 20.26875,7.33125q10.35,0 18.975-2.15625q3.88125-.43125 6.9-.43125q.8625,0 3.01875-1.29375" fill="none" stroke="#d3bde830" stroke-width="2.15625"></path><path d="M-40.25,-11.58125q-7.33125-18.1125 -12.075-23.71875q-2.5875-3.01875 -4.74375-5.60625q0-3.88125 1.725-7.7625q1.29375-3.88125 -.43125-14.6625q-1.29375-13.36875 -1.725-24.15q0-2.5875 -3.45-12.9375q-.8625-.8625 -1.725-1.29375" fill="none" stroke="#d3bde830" stroke-width="2.15625"></path><path d="M-71.3,9.98125q-16.81875-22.425 -15.95625-22.425" fill="none" stroke="#d3bde830" stroke-width="1.725"></path><path d="M-87.25625,-12.875q7.33125-38.38125 4.74375-37.0875q-.43125,0 -1.29375-15.09375q-2.15625-30.61875 -12.50625-47.4375q-.8625-.43125 -1.29375-.43125" fill="none" stroke="#d3bde830" stroke-width="2.15625"></path><path d="M-108.3875,18.175q-5.60625-3.88125 -10.78125-12.50625q-5.175-8.19375 -2.5875-10.35q5.175-9.91875 7.7625-18.975q6.0375-19.40625 -.43125-21.99375q-3.45-1.29375 1.29375-20.26875q.8625-2.5875 -3.45-9.91875q0-7.7625 1.725-14.6625q.43125-8.625 .43125-15.95625" fill="none" stroke="#d3bde830" stroke-width="2.15625"></path><path d="M-135.55625,13q-8.19375-14.23125 -15.09375-25.44375q-.43125-.43125 4.3125-3.88125q14.23125-10.35 8.625-22.85625q-1.725-1.725 -3.45-3.01875q0-2.5875 .8625-5.175q-3.01875-12.9375 -9.05625-23.71875q2.15625-1.29375 4.74375-1.725q5.175-1.29375 3.88125-20.26875q-.43125-7.7625 -5.60625-15.525" fill="none" stroke="#d3bde830" stroke-width="2.15625"></path><path d="M-159.275,9.55q-20.7-18.975 -17.25-21.13125q2.15625-1.29375 4.74375-2.15625q3.88125-1.725 1.29375-15.09375q-3.45-6.46875 -6.9-11.64375q.8625-3.01875 3.01875-6.0375q2.5875-3.88125 .43125-14.23125q0-1.29375 0-1.29375q5.60625,.8625 10.35-41.4q1.29375-7.7625 4.3125-9.91875" fill="none" stroke="#d3bde830" stroke-width="2.15625"></path><path d="M-192.05,-5.975q-.43125-30.61875 0-31.05q1.29375-1.29375 -.8625-17.25q-2.15625-15.525 3.01875-23.71875q2.5875-6.46875 4.74375-12.075" fill="none" stroke="#d3bde830" stroke-width="1.725"></path></svg>