<svg viewBox="-231 -199 169.65 170.625" width="169.65" height="170.625" version="1.1" baseProfile="full" xmlns="http://www.w3.org/2000/svg" class="js-draw--autoresize"><style id="js-draw-style-sheet">path{stroke-linecap:round;stroke-linejoin:round;}text{white-space:pre;}</style><path d="M-61.35,-28.375l0-170.625l-169.65,0l0,170.625l169.65,0" fill="#ffffff" class="js-draw-image-background"></path><path d="M-157.225,-197.375q10.725-.65 25.025,4.875q39.325,15.275 57.525,60.775q12.35,31.2 -9.75,60.125q-18.525,24.375 -61.425,33.8q-39.975,8.45 -68.9-24.05q-14.3-16.25 -14.95-38.675q-.325-16.25 15.925-48.1q16.9-33.8 42.9-44.525q6.825-1.625 13-2.275q2.6,0 4.875,0" fill="none" stroke="#321054c4" stroke-width="1.95"></path><path d="M-119.85,-138.875q-7.8,5.2 -12.675,14.3q-9.75,16.575 -.975,41.925q2.925,9.1 18.2,9.425q12.35,.325 19.5-20.475q5.2-15.6 -16.25-42.9q-7.15-9.425 -9.425-2.275" fill="none" stroke="#551b8fc4" stroke-width="1.625"></path><path d="M-182.9,-108q-4.225,1.625 -5.2,4.55q-1.3,2.925 3.25,5.85q2.275,1.3 5.525-2.925q2.275-3.25 -4.225-8.45" fill="none" stroke="#551b8fc4" stroke-width="1.625"></path><path d="M-111.4,-123.6q-3.9,4.225 -4.875,9.425q-1.3,5.2 5.525,5.525q5.2,.325 5.2-9.1q0-4.225 -6.175-7.15" fill="none" stroke="#7523c7c4" stroke-width="1.625"></path><path d="M-117.9,-98.9q-5.2,2.275 -7.15,6.5q-2.6,5.2 2.6,8.775q4.225,2.6 8.125-4.875q1.95-3.575 -1.95-9.1q-1.3-.975 -2.6-1.3" fill="none" stroke="#7523c7c4" stroke-width="1.625"></path><path d="M-179.975,-129.775q-5.2,0 -10.725,3.575q-13.325,9.75 -5.85,30.55q5.525,14.625 20.475,9.425q11.05-3.9 10.725-21.45q-.325-13.65 -10.4-23.075q-2.925-.325 -5.85,.325" fill="none" stroke="#7523c7c4" stroke-width="1.625"></path><path d="M-166.325,-138.875q-11.7-2.275 -21.125-.325q-25.025,4.875 -27.3,15.275q-1.95,10.075 .325,14.3q5.2,9.75 17.55,18.525q18.2,13 40.3,4.875q9.1-3.25 9.75-13.65q0-6.175 -10.4-23.075q-5.2-8.45 -12.025-15.6q-3.25-1.95 -6.175-3.25" fill="none" stroke="#b89ad6c4" stroke-width="1.95"></path><path d="M-118.55,-91.75q-3.575-.975 -3.9,.325q-.975,2.275 2.6,3.25q3.25,.975 2.6-3.25q-.975-1.625 -2.275-2.925" fill="none" stroke="#b89ad6c4" stroke-width="1.3"></path><path d="M-126.675,-121.325q-5.525,3.575 -5.525,6.825q-.325,5.525 6.175,3.25q5.85-1.625 1.625-8.775q-1.3-1.95 -2.6,0" fill="none" stroke="#b89ad6c4" stroke-width="1.625"></path><path d="M-151.05,-135.625q4.55,.325 5.2,0" fill="none" stroke="#000000c4" stroke-width="1.625"></path><path d="M-150.4,-127.825q1.95,.975 4.55,0" fill="none" stroke="#000000c4" stroke-width="1.625"></path><path d="M-108.15,-99.875q2.6-.325 2.925-1.3" fill="none" stroke="#000000c4" stroke-width="1.625"></path><path d="M-107.825,-95.325q1.3,.975 3.25-.325" fill="none" stroke="#000000c4" stroke-width="1.625"></path><path d="M-115.3,-100.525q2.275-5.2 1.95-7.475q0-.325 .325-.325" fill="none" stroke="#000000c4" stroke-width="1.625"></path><path d="M-118.55,-115.15q-5.525-.975 -5.2-.65" fill="none" stroke="#000000c4" stroke-width="1.3"></path><path d="M-127.975,-108.975q.0975,.0975 0,.0975q-.0975,0 -.0975-.0975q0-.0975 .0975-.0975q.0975,0 .0975,.0975" fill="none" stroke="#000000c4" stroke-width=".9425"></path><path d="M-127.325,-106.7q2.925,6.825 3.9,8.775q.325,.65 .65,1.3" fill="none" stroke="#000000c4" stroke-width=".975"></path><path d="M-129.275,-132.05q-5.46-8.0925 -9.1325-9.7825q-6.4675-2.8925 -14.2675,.0325q-1.95,.65 -8.775,3.575q-2.6,.975 -4.55,2.275" fill="none" stroke="#000000c4" stroke-width="1.3"></path></svg>