<svg viewBox="-787 -689.35 1674.5 1355.85" width="1674.5" height="1355.85" version="1.1" baseProfile="full" xmlns="http://www.w3.org/2000/svg" class="js-draw--autoresize"><style id="js-draw-style-sheet">path{stroke-linecap:round;stroke-linejoin:round;}text{white-space:pre;}</style><path d="M887.5,666.5l0-1355.85l-1674.5,0l0,1355.85l1674.5,0" fill="#ffffff" class="js-draw-image-background"></path><path d="M-12,-245q21,11 20,8q-2-13 20-7q13,4 8-6q12,7 31,23q-1-7 -6-19q9,2 22,10q2-3 3-7q15,9 31,29q5,6 4,3q-2-8 6-5q3-11 1-27q7-7 17-11q5-2 29,34q3,6 6,11q1-2 3-5q8,1 17,6q4,3 26-14q13-5 24-8q5-4 8-9q5-7 35,46q1-1 2-2q1-6 1-12q7-2 16-1q9-9 15-20q13,4 26,15q7,6 26,3q4-2 6-5q13,7 25,21q6-1 13-5q9,5 16,12q3-7 4-17q8-2 17-1q6-3 10-7q5-5 22,46q2,8 4,14q1-6 2-18q0-1 20,13q9,7 15-19q3-13 22,19q15,28 28,51q-1-5 -5-13q9,14 24,40q6,1 12,1q15,19 22,43q3,3 5,5q0,1 0,1q0,1 28,87q11,33 4,32q-6-5 -10-11q-2-4 6,33q5,25 1,22q-7-11 -12-21q-6-12 -1,19q7,49 -6,32q-12-16 -14-12q-3,3 -6,4q0,0 2,45q1,35 -7,26q-10-10 -10-9q0,21 3,39q1,6 -6,2q-11-13 -20-24q-10-15 -16,19q-3,20 -18,7q-11-8 -13,24q-2,44 -32,10q-20-23 -25,3q-5,24 -28-4q-22-28 -21-2q3,45 -13,31q-14-13 -17-13q-7,3 -12,8q-15,3 -27,4q-6,1 -10,2q-11-3 -19-7q-9,0 -16,1q-15,2 -28,3q-15,7 -27,15q-7,4 -31-9q-5-3 -10-6q-1,2 -2,4q-15-5 -30-19q-1,13 3,34q2,7 -23-23q-15-19 -17,4q-1,9 -29,2q-20-5 -22,15q0,12 -50,4q-25-5 -18-4q-10-6 -29-13q-12,4 -21,11q-9-2 -17-7q-7-4 -18,19q-3,7 -31-10q-19-11 -16,2q5,19 -38-13q-28-21 -29-1q-1,10 -30-8q-31-18 -24,5q1,3 -28-10q-11-5 -16,3q-19-4 -36-18q-32-24 -36-11q-2,3 -24-15q-14-10 -25-18q-12-8 -30-31q2-2 5-3q2-1 -35-54q-14-22 6-18q36,7 31-20q-9-20 -19-35q3-4 9-6q0,0 -24-29q-7-8 27-8q21,0 8-13q-31-30 -15-28q13,1 6-6q-15-14 -28-24q12-2 31,0q13,2 -15-38q1-2 2-4q-4-7 -9-12q2,0 7,0q2,1 -6-10q-14-18 -1-15q38,10 36,6q-11-21 -21-38q-5-9 12-10q3-11 2-25q-1-2 8,4q18,14 14,0q-5-19 -10-33q7,5 17,15q11,13 18-10q4-13 6-24q2-6 42,13q24,11 29-12q0-3 17,9q22,15 25-33q1-19 6-10q22,44 28,37q1-10 -1-18q-1-5 12,2q38,20 35-29q-1-19 6-14q19,27 31,52q9,18 20-28q6-26 20,0q11,20 19,11q7-9 28-8q7-1 12-4q6,2 11,4" fill="none" stroke="#000000" stroke-width="6"></path><path d="M-375,261q6,3 10,17q19,61 20,52q6-41 27-7q7,11 10,37q3,28 33,70q9,19 16,35q4-13 7-36q1-12 11,1q4,21 5,39q0,3 13,60q8,33 13,18q5-15 24-27q6-4 11,17q3,13 7,12q9,4 17,9q4-6 6-15q1-6 22-12q13,21 17,51q5,37 13,30q15-30 24-58q4-15 22-3q9-2 17-7q6-4 25,55q3-2 5-8q14,9 28,28q3,4 8-11q18-56 22-59q6-4 9-12q8-26 35,6q9,11 20-5q16-24 21-20q18,25 31,47q4-3 7-8q2-5 14,2q3,9 4,17q4-17 8-48q2-12 27-11q24-13 41-29q7-6 32,48q10,18 18,32q1,1 18,39q11,30 19,55q8-24 12-68q3-4 7-7q13-42 14-81q4-3 8-5q11,16 15,39q6,7 12,12q5,3 12-87q1-20 14-13q14,23 21,46q3,8 7,2q5-24 5-45q0-20 18-21q0,0 12-54q13,11 26,33q2-4 3-12q4-4 8-6q11-20 16-41q3-14 6-7q24,46 24,32q-4-57 0-55q4-11 4-27q0-8 14,14q8,12 9,1q2-14 7-17q4-20 2-39q2-2 6-3q5-21 2-45q8,10 20,30q3,5 -2-19q-6-30 0-31q3-15 -1-33q2-10 6-19" fill="none" stroke="#000000" stroke-width="9"></path><path d="M89,-67q-26-70 -27-60q-1,21 -4,19q-1,0 -22-46q-12-29 -21-53q-5-13 -6-6q-1,23 -1,41q0,8 -10-9q-8-13 -14,2q-1,3 -27-22q-3-4 -20-54q-19-58 -20-55q-8,23 -15,42q-1,4 -12-11q-7-5 -14-7q-13-8 -23-15q-7-5 -24,0q-4,1 -3,9q3,18 -4,10q-19-18 -35-33q4,17 17,45q6,14 -1,33q-3,9 -10-4q-9-14 -9-14q-6,51 -9,92q-1,1 -2,0q-7-10 -11-22q-8,12 -16,36q-2,17 -4,31q-3-2 -6-6q-1,16 3,44q1,12 -24-17q-7-8 -7,6q-5,23 -11,41q0,4 0,8" fill="none" stroke="#000000" stroke-width="7"></path><path d="M7,-41q-17-36 -19-33q-5,11 -9,21q-3,7 -15,6q-8,0 -27-41q-3-12 -5-23q-3-8 -6-14q0,0 1,1q4,1 -18-35q-8-13 -13-8q1,16 5,31q5,13 -5,11q-7-1 -13-3q-6,13 -7,29q0,10 -9,9q0,0 -17-32q-12-23 -19,10q-3,19 -36,34q-1,1 -27,1q-5,0 -18,22q-1,2 -8,10" fill="none" stroke="#000000" stroke-width="6"></path><path d="M-153,-41q23-28 32-22q7,4 6,4" fill="none" stroke="#000000" stroke-width="7"></path><path d="M-137,-303q2-29 2-30q-7-15 -10-6q-2,15 -3,28q0,0 -1,0" fill="none" stroke="#000000" stroke-width="7"></path><path d="M-54,20q-6-29 -11-52q0,1 -1,3q-5,3 -11,4q-1,13 4,27q4,10 3,11" fill="none" stroke="#000000" stroke-width="7"></path><path d="M-69,-24q-24-84 -24-98q0-5 -9-50q-7-35 -4-52q4-26 -9-59q-14-36 -25-52q-1-3 -2-6" fill="none" stroke="#a6a6a6" stroke-width="5"></path><path d="M266,-104q-2-16 -3-28q-6,5 -12,16q-3-3 -6-8q-2,1 -4,3" fill="none" stroke="#000000" stroke-width="6"></path><path d="M181,-99q-4-8 -3-5q1,5 -6,8" fill="none" stroke="#000000" stroke-width="6"></path><path d="M132,-137q-1-29 8-45q11-19 40,17q0,14 -3,27" fill="none" stroke="#000000" stroke-width="6"></path><path d="M231,-74q-3-8 -5-5q-5,9 -8,9q-5-1 -9-4" fill="none" stroke="#000000" stroke-width="4"></path><path d="M138,-82q-6-8 -8-5q-1,4 -2,8" fill="none" stroke="#000000" stroke-width="5"></path><path d="M328,-131q8-8 12-4q1,6 0,11" fill="none" stroke="#000000" stroke-width="6"></path><path d="M327,-80q2,0 3,0" fill="none" stroke="#000000" stroke-width="6"></path><path d="M200,-21q-3-15 -11-13q-11,4 -13,4" fill="none" stroke="#000000" stroke-width="6"></path><path d="M104,-14q-6-20 -6-20q0,3 0,15" fill="none" stroke="#000000" stroke-width="6"></path><path d="M-324,-89q0-37 0-37q1,1 -4,8" fill="none" stroke="#000000" stroke-width="6"></path><path d="M-353,-62q-3,9 -5,17" fill="none" stroke="#000000" stroke-width="5"></path><path d="M-326,-5Q-312,-8 -303,-1Q-296,3 -292,-1" fill="none" stroke="#000000" stroke-width="6"></path><path d="M-250,-3q11,2 14-6q8-18 13-21q1-1 7,7" fill="none" stroke="#000000" stroke-width="6"></path><path d="M263,-12q-.1,.5 1,9" fill="none" stroke="#1a9432" stroke-width="3"></path><path d="M258,-6q1,6.4 .2,4.7q-10.8-22.1 -14.6-12.7q-1.3,3.3 6.1,15.9q-.4-.2 -.8-.5q2.1,6.9 8.2,17.9q5.1,9.1 8.4,.9q3.5-8.2 -12.5-7.2q-9,0 -9,12q-1-1 -3-2q-4-5 1,18q4,16 8,8q0,0 -2,0q-6,3 9,18q3,3 3-2q0-10 -12-18q-10-6 -2,13q7,17 14,10q2-2 -3-10q-4-5 -5,6q-2,9 13,31q4,7 6,1q3-11 -24-41q-6-6 -8,1q-3,10 21,36q7,9 7-8q0-18 -13-22q-8-3 11,40q2,2 4,3q-2-5 -8-14q-8-11 -1,22q1,5 -1,5q-8-9 -12-21q-1,1 -3,2q-3,3 7,18q1-1 2-3q-2-1 -4-2q-5,0 -2,27q-3,3 -7,4q-3,6 -4,13q-1-5 -2-15q0-5 -3-1q-1,10 0,19q-3-1 -7-4q-3-2 -4,13q-2-2 -4-6q-3-3 -8,10q-3,10 -5,19q-2,8 2,6q5-2 -1-14q-3-6 -6,11q0,8 0,14q-2-3 -6-8q-6-8 -27,23q-4,5 -9-6q-4,8 -7,21q-4-3 -8-9q-2-3 -14,2q-6,6 -9,11q-5-5 -8-15q-4-16 -17,2q-8,14 -15,25q-10-4 -18-15q-5,8 -8,21q-8-3 -17-12q-2-2 -18,12q-13-5 -25-16q-4,7 -6,19q-6-5 -12-16q1,3 2,8q-7-3 -16-10q-10-9 -14,10q0,2 0,4q-6-4 -15-13q-9-8 -26-5q-10,2 3,14q2-1 3-2q-5-2 -14-2q-11-1 -5,11q-2-3 -5-8q-6-12 -15,1q1,6 3,12q-7-6 -18-18q-9-11 -23-5q0,10 5,21q-7-6 -18-18q-7-9 -12,3q0,7 1,13q-11-6 -24-21q-3,2 -4,4q-11-9 -20-28q-6-13 -10,0q0,9 1,17q-7-5 -16-16q2,1 5,4q-3-2 -9-6q-1-1 -2-1q-11-11 -18-23q1,4 3,11q-3-6 -10-18q-11-20 -11-12q0,14 8,10q3-2 -9-17q-4-6 -7,0q2,5 4,8q-2-2 -5-5q0,4 4,12q-6-3 -13-10q-6-5 -4,8q3,5 6,10q-3-2 -10-7q-10-8 1,24q0,0 0,0q-7-6 -12-12q-9-11 -4,15q3,11 7,20q-6-5 -14-14q6,6 16,19q-4-7 -13-20q8,11 24,31q7,10 4-15q0-7 -3-8q-6,0 14,27q10,13 16,8q3-2 -12-18q-5-5 -7-1q-1,4 26,32q20,19 19,9q0-4 -16-27q-1,0 -3,1q-3,2 30,29q11,9 12-2q1-6 -11-17q7,8 20,22q18,19 31-1q6-10 -6-30q10,14 29,39q10,13 15,0q-2-9 -6-17q8,7 22,22q18,19 25-5q-1-17 -5-31q13,12 32,38q11,16 22,7q5-5 -10-26q9,8 24,25q9,10 16-10q8-19 -7-30q-4-4 7,20q24,55 35,26q6-17 -6-34q7,10 20,28q13,19 22-4q1-12 0-22q12,11 26,33q10,15 13-10q2-20 11-12q14,15 24,28q9,11 13-19q2-14 15-1q9,9 14-5q5-12 25,2q12,9 20-7q2-6 21,2q9-4 17-11q11,5 20,15q7,8 20-16q5-10 21,4q25,23 31-15q0-4 19,8q7,4 21-13q6-7 21,13q3,5 10-10q11-7 21-11q6-8 9-16q8,0 17,4q10,4 12-56q7,5 15,18q4,5 7-5q-1-3 -3-5q-2,0 -4,1q-11-12 -17-31q-2-5 -5,1q-1,5 -1,9q-8-4 -17-13q-4-1 -8,0q-7-14 -8-33q-3-43 -4-41q-3,6 -3,5q-11-19 -16-16q-7,9 -10,19q-5-4 -9-13q-7,4 -13,13q-2,3 -10-31q-2-5 -3-5q-3,7 -5,14q-8-10 -16-29q-2,2 -5,4q-11-9 -20-25q-6-3 -11-3q-5-8 -7-18q-2,5 -5,14q-4,15 9,60q0-7 0-19q7,7 17,22q8,12 14-5q-2-18 -6-33q17,34 45,100q1-1 3-2q5-6 -24-44q-8-10 -11-1q-2,8 27,43q17,20 33,8q6-4 -6-22q-7-12 -15,0q-7,10 16,31q10,10 19-1q6-8 -5-7q-14,2 -7,49q6,45 30,39q8-2 0-41q-9-39 -27-29q-8,4 14,15q16,8 12-16q-2-22 -28-11q-17,7 -6,40q11,30 31,11q8-8 -5-44q-8-19 -18-13q-7,3 22,44q12,17 18,4q4-10 -19-41q-11-14 -21,2q-8,13 16,76q5,12 8,10q1-1 -12-51q-33-126 -52-103q-8,9 -2,81q1,12 6,7q2-2 -4-51q-7-59 -29-58q-11,0 -4,62q1,12 4,11q2-1 -4-51q-12-94 -19-61q-8,40 5,132q3,19 8,24q6,5 -1-56q-3-25 -13-16q-6,6 1,62q7,50 37,33q11-7 11-59q0-27 -15-22q-8,3 -7,56q1,40 26,58q17,12 14-57q-1-26 -14-22q-9,4 19,75q-7-6 -19-18q-12-13 -43-13q-17,0 -15,19q-3-8 -7-23q-11-15 -22-27" fill="none" stroke="#1a9432" stroke-width="7"></path><path d="M253,208q21,14 44,17q33,4 71-51q12-16 12-54q1-8 -2-6q-1,2 6,21q4,11 9,2q4-8 -10-39q-5-11 -8,5q-18,81 0,147q4,13 11,7q6-4 -9-29q-15-28 -54,5q-21,17 -17,35q-7-10 -17-30q-8-15 -30-12q-7,1 -1,5q8,7 25-42q19-53 5-80q-3,8 -3,24q-3-2 -6-6q-7-9 -20,19q-13,25 0,25q4,0 -1-19q0-1 -1-1q-1,2 -1,6" fill="none" stroke="#1a9432" stroke-width="6"></path><path d="M258,165Q263,171 267,168Q270,165 266,154Q264,146 255,156Q244,170 269,211Q287,240 306,221Q312,214 300,212Q287,209 268,240Q254,263 273,270Q285,274 287,235Q289,209 260,208Q242,207 240,233Q238,245 249,237Q260,228 264,167Q266,145 258,155Q252,161 256,192Q257,200 262,196Q273,188 260,150Q254,132 242,167Q218,235 238,268Q243,275 247,257Q255,216 249,195Q244,208 242,233Q242,232 243,231Q247,224 252,224Q254,222 256,219Q257,220 259,222Q262,226 243,224Q242,224 243,225Q256,244 258,244Q266,240 268,217Q269,208 261,212Q250,219 260,236Q263,242 266,227Q274,190 245,172Q236,166 234,186Q233,209 255,197Q274,187 277,105Q278,81 270,91Q268,108 271,124Q270,151 267,173Q260,216 296,237Q307,244 333,212Q355,187 365,215Q375,240 388,203Q397,176 409,192Q432,220 435,202Q438,186 420,180Q405,184 393,191Q389,194 373,147Q356,93 341,114Q336,121 341,140Q341,134 339,124Q338,116 322,138Q289,184 304,237Q310,255 319,240Q323,234 318,215Q316,217 314,221Q309,230 326,251Q341,270 349,226Q350,218 350,218Q365,245 369,244Q372,243 363,228Q355,215 354,227Q355,226 356,225Q360,219 338,208Q311,194 296,213Q301,208 309,200Q322,186 327,132Q330,102 312,98Q302,96 303,162Q305,178 308,191Q303,186 296,176Q288,164 259,206Q238,237 252,254Q256,259 246,218Q241,206 237,196Q241,194 246,193Q251,193 248,178Q246,168 232,182Q216,198 220,234Q221,235 222,235Q224,236 216,216Q211,205 205,213Q196,223 215,253Q221,264 225,251Q229,236 211,227Q199,221 205,248Q210,270 228,264Q238,261 229,238Q223,225 205,261Q197,275 179,260Q175,241 176,223Q178,225 181,230Q183,227 185,220Q182,222 179,227Q170,237 183,250Q189,256 188,241Q188,231 180,250Q174,269 171,285Q168,280 165,271Q161,255 131,281Q123,288 122,254Q121,243 135,257Q154,275 158,253Q161,240 149,244Q140,254 134,263Q129,263 123,259Q112,266 104,278Q97,288 87,281Q82,277 90,244Q95,250 100,262Q101,256 101,246Q98,245 94,247Q85,250 94,286Q95,282 97,274Q98,263 91,267Q86,279 84,289Q80,305 59,284Q36,262 31,282Q27,298 41,290Q50,286 50,271Q56,268 64,267Q65,265 64,263Q64,257 46,281Q41,287 39,285Q29,270 19,273Q9,267 1,257Q-8,266 -15,282Q-20,296 -42,276Q-36,279 -25,286Q-14,292 -12,275Q0,281 13,296Q21,305 28,295Q34,286 22,283Q16,281 27,297Q46,326 67,314Q75,309 65,286Q65,287 65,288Q66,291 90,306Q91,307 93,308Q94,308 14,311Q9,311 4,310Q22,307 57,303Q35,305 -6,309Q-8,309 19,310Q114,312 109,301Q102,294 95,289Q94,288 160,284Q229,279 206,283Q189,287 192,292Q193,294 273,290Q297,287 317,283Q314,287 307,291Q301,295 329,288Q429,264 418,235Q413,222 377,259Q378,260 379,261Q386,265 419,223Q442,192 428,192Q413,210 406,233Q400,249 389,233Q383,220 380,208Q375,195 361,222Q354,245 350,265Q349,261 349,252Q348,241 283,270Q273,275 275,277Q278,281 340,241Q359,229 347,228Q339,228 305,253Q289,265 301,274Q309,280 325,262Q337,249 306,248Q277,247 258,264Q247,275 280,267Q331,254 350,167Q349,160 348,155Q353,167 361,190Q369,210 383,203Q386,167 375,130Q388,150 409,188Q415,200 420,192Q422,189 397,133Q409,148 428,178Q434,187 437,183Q440,180 418,149Q394,114 376,126Q378,131 381,136Q371,120 352,91Q342,75 340,88Q340,91 313,51Q331,70 361,105Q376,123 377,110Q378,104 342,62Q317,35 311,55Q310,60 310,65Q299,47 286,13Q282,2 278,21Q277,45 277,65Q278,74 272,71Q267,63 265,55Q261,41 227,147Q225,157 224,166Q224,160 224,148Q213,161 198,186Q187,200 177,211Q179,203 186,189Q164,205 130,239Q130,239 131,239Q135,237 137,236Q115,246 74,263Q70,263 66,263Q80,251 108,237Q129,226 119,228Q85,238 57,246Q53,246 49,245Q46,245 103,225Q71,239 12,262Q-13,270 -34,276Q-40,279 -44,281Q-22,270 21,250Q22,251 22,253Q25,259 -62,270Q-64,270 -65,269Q-46,256 -13,246Q3,241 -4,241Q-41,243 -71,247Q-64,245 -52,241Q-76,242 -120,246Q-135,248 -148,250Q-177,249 -200,245Q-210,243 -220,247Q-217,252 -212,256Q-219,245 -233,225Q-227,230 -217,240Q-237,235 -271,218Q-278,217 -283,217Q-281,216 -278,215Q-273,214 -305,190Q-316,182 -311,210Q-306,232 -302,250Q-308,241 -316,224Q-322,219 -328,216Q-312,226 -282,244Q-292,242 -309,235Q-304,233 -294,232Q-276,230 -287,204Q-291,194 -303,202Q-312,207 -296,227Q-283,242 -284,218Q-284,197 -304,191Q-315,187 -309,221Q-303,253 -286,250Q-277,248 -298,206Q-306,190 -308,201Q-309,213 -273,247Q-259,260 -261,243Q-264,227 -286,216Q-298,211 -277,237Q-256,265 -243,252Q-236,245 -265,217Q-279,203 -285,219Q-289,232 -239,275Q-219,292 -221,275Q-223,258 -275,250Q-294,247 -290,260Q-288,269 -203,284Q-203,285 -204,285Q-239,288 -269,286Q-221,290 -132,296Q-148,294 -179,290Q-140,298 -68,309Q-26,316 -5,295Q3,288 -86,313Q-165,335 -155,330Q-151,328 -107,313Q-69,301 -60,295Q-46,286 -101,268Q-116,263 -111,270Q-105,278 -63,282Q-46,284 -52,267Q-56,255 -85,251Q-97,249 -90,262Q-86,272 -56,284Q-47,288 -46,283Q-44,272 -94,270Q-136,269 -127,295Q-125,302 -109,302Q-99,302 -119,284Q-136,268 -162,260Q-179,255 -143,280Q-130,288 -132,280Q-133,275 -163,263Q-179,257 -177,270Q-176,277 -137,300Q-120,309 -121,303Q-121,299 -152,280Q-187,258 -192,272Q-185,279 -174,284Q-187,274 -212,257Q-228,246 -232,266Q-233,277 -211,301Q-206,307 -206,300Q-206,289 -236,267Q-250,257 -255,268Q-260,277 -231,296Q-220,303 -229,278Q-245,237 -267,234Q-272,234 -261,246Q-243,265 -236,252Q-229,241 -259,235Q-282,231 -282,262Q-282,280 -259,286Q-250,288 -266,276Q-290,256 -292,265Q-295,273 -252,287Q-224,296 -218,273Q-216,267 -188,286Q-171,297 -158,286Q-154,282 -108,308Q-77,325 -92,290Q-96,282 -90,284Q-75,292 -63,301Q-52,309 -52,293Q-52,281 -79,264Q-100,252 -90,279Q-78,313 -39,315Q-22,316 -42,290Q-56,271 -69,290Q-78,303 -64,339Q-54,362 -43,314Q-35,276 -15,292Q0,305 5,286Q10,269 26,290Q57,330 61,296Q62,286 81,304Q103,326 110,288Q116,254 130,269Q174,315 167,238Q165,229 163,221Q170,230 181,248Q188,259 196,243Q197,227 195,214Q206,225 222,250Q237,273 259,264Q260,264 244,238Q229,215 222,231Q216,241 240,277Q249,291 254,282Q260,269 229,240Q210,222 199,247Q195,257 210,275Q225,293 227,232Q228,178 212,165Q218,166 227,168Q239,171 249,156Q238,163 219,178Q193,199 203,223Q208,234 217,213Q227,186 205,191Q183,195 183,244Q183,260 196,257Q204,256 198,236Q190,212 161,255Q143,282 150,296Q148,291 145,281Q139,265 117,271Q105,274 109,295Q112,308 123,294Q129,278 131,263Q141,270 152,284Q169,309 184,287Q187,265 185,245Q184,233 196,247Q216,274 231,298Q235,305 239,296Q239,275 237,258Q235,245 251,270Q274,306 274,285Q274,269 273,256Q284,266 297,287Q307,304 309,281Q311,255 316,255Q332,266 342,279Q353,292 351,262Q349,233 354,236Q363,248 370,260Q376,272 381,262Q383,253 382,245Q390,248 400,257Q409,265 402,236Q392,195 377,198Q372,200 394,221Q414,240 422,221Q429,207 391,160Q385,153 348,144Q337,161 333,183Q332,192 316,193Q307,193 304,116Q301,57 297,58Q293,58 305,81Q308,87 310,82Q314,74 298,67Q286,61 259,159Q255,154 252,144Q249,137 244,156Q238,193 234,223Q230,247 211,235Q182,217 134,288Q129,297 126,296Q113,288 132,274Q196,226 224,278Q247,319 246,296Q245,284 257,297Q265,306 271,280Q277,287 283,301Q288,311 296,303Q298,290 296,278Q301,282 307,291Q317,304 328,283Q329,267 329,254Q335,263 343,281Q349,296 361,288Q366,285 359,259Q357,259 356,260Q354,261 369,282Q383,302 389,281Q394,268 380,253Q376,248 377,260Q379,287 406,297Q422,303 417,258Q415,238 404,234Q393,231 418,279Q429,300 438,287Q445,276 427,211Q427,210 427,210Q434,217 441,230Q447,242 452,235Q447,236 440,240Q427,246 436,273Q440,285 452,283Q463,281 449,256Q448,257 447,259Q445,261 463,282Q474,296 474,276Q472,241 448,217Q436,205 439,237Q443,266 447,290Q442,286 435,278Q430,271 417,284Q409,293 420,313Q419,310 417,305Q411,289 390,299Q378,305 386,326Q386,322 386,314Q386,291 369,297Q365,311 366,325Q363,316 359,298Q355,284 341,290Q336,306 335,323Q329,314 323,297Q317,284 306,296Q298,305 308,341Q309,339 310,335Q314,323 298,301Q287,287 273,332Q266,353 260,334Q245,293 229,313Q225,318 233,326Q243,335 239,315Q234,288 205,290Q190,291 200,317Q191,310 179,295Q170,284 158,296Q154,300 162,323Q163,323 164,322Q166,321 149,300Q126,273 106,319Q99,335 80,314Q62,294 61,331Q56,326 50,315Q52,325 58,342Q61,344 63,344Q66,345 53,326Q32,297 8,334Q2,345 -21,327Q-46,308 -60,336Q-64,342 -76,342Q-80,342 -95,318Q-108,299 -108,313Q-109,338 -128,327Q-152,314 -166,322Q-175,327 -183,318Q-208,290 -218,288Q-228,287 -219,307Q-224,303 -233,294Q-239,288 -244,313Q-246,322 -269,295Q-275,288 -277,293Q-277,297 -277,300Q-287,287 -298,262Q-303,253 -306,260Q-302,278 -294,294Q-293,295 -297,285Q-308,257 -307,264Q-303,281 -305,280Q-315,266 -316,272Q-318,282 -320,278Q-330,262 -338,248Q-340,250 -341,252Q-340,256 -337,259Q-338,252 -341,241Q-344,232 -362,235Q-358,230 -350,223Q-344,219 -351,202Q-354,192 -372,199" fill="none" stroke="#1a9432" stroke-width="7"></path><path d="M-373,205q12,15 11,8q-4-7 -9-12" fill="none" stroke="#1a9432" stroke-width="4"></path><path d="M-376,197q.3,.3 0,.3q-.3,0 -.3-.3q0-.3 .3-.3q.3,0 .3,.3" fill="none" stroke="#1a9432" stroke-width="2.6"></path><path d="M-381,196q-11-5 -12,1q-2,11 20,33q0-3 0-7q-6-12 -12-21" fill="none" stroke="#1a9432" stroke-width="5"></path><path d="M-385,215q33,42 54,49q9,4 4-12q-7-11 -13-20" fill="none" stroke="#1a9432" stroke-width="5"></path><path d="M-342,242q16,35 10,27q-10-11 -15-42q-1-5 21,6q14,7 11-29q-1-8 17,9q17,18 15-5q-2-10 -4-18q5,4 11,13q-6-11 -18-30" fill="none" stroke="#1a9432" stroke-width="6"></path><path d="M-298,170q64,94 64,95q5,5 2-35q-1-5 -1-10q7,6 17,18q11,6 21,10" fill="none" stroke="#1a9432" stroke-width="6"></path><path d="M57,258q33,10 52,11" fill="none" stroke="#1a9432" stroke-width="5"></path><path d="M196,-1q16,7 18,23q2,16 -2,41q-4,25 -28,64q-16,27 -29,50q-16,27 -72,27q-32-1 -51-19q-22-21 -56-18q-14,2 -44,22q-15,10 -57,25q-39,15 -77,11q-45-3 -63-29q-23-32 -28-49q-12-39 18-76q34-44 103-55q9-2 31,11q14,9 53,30q30,17 53-1q17-20 29-38q6-7 55-19q126-30 148,0q1,2 1,4" fill="none" stroke="#3e3e3e" stroke-width="8"></path><path d="M26,184Q15,188 5,190Q2,190 4,173Q5,173 5,173" fill="none" stroke="#646464" stroke-width="6"></path><path d="M-61,186q20-1 21-3q1-9 1-18" fill="none" stroke="#646464" stroke-width="6"></path><path d="M-16,28q-14,0 -14,2q1,14 3,25" fill="none" stroke="#646464" stroke-width="6"></path><path d="M-101,43q26-3 27-1q3,13 6,24" fill="none" stroke="#646464" stroke-width="7"></path><path d="M-67,46q1,0 3-1" fill="none" stroke="#646464" stroke-width="5"></path><path d="M-59,43q.3,.3 0,.3q-.3,0 -.3-.3q0-.3 .3-.3q.3,0 .3,.3" fill="none" stroke="#646464" stroke-width="2.6"></path><path d="M-53,38q1,1 2,1" fill="none" stroke="#646464" stroke-width="3"></path><path d="M-42,35q.6,0 1,0" fill="none" stroke="#646464" stroke-width="2.6"></path><path d="M-32,176q1,1 2,1" fill="none" stroke="#646464" stroke-width="3"></path><path d="M-25,174q1.7,.6 3,1" fill="none" stroke="#646464" stroke-width="2.9"></path><path d="M-14,180q.3,.3 0,.3q-.3,0 -.3-.3q0-.3 .3-.3q.3,0 .3,.3" fill="none" stroke="#646464" stroke-width="3"></path><path d="M-4,175Q-2,176 0,176" fill="none" stroke="#646464" stroke-width="5"></path><path d="M-90,-86q-8-1 -16,7q-11,12 1,20q10,7 23-4q11-7 -6-29" fill="none" stroke="#621a99" stroke-width="6"></path><path d="M-93,-71q10-5 6-7q0,0 0,2" fill="none" stroke="#621a99" stroke-width="4"></path><path d="M-85,-74q-9.8-10.2 -16.2-4.1q2.6,2.7 7.1,4.7q-1.9-1.6 -5.9-4.6q-.5,1.7 -.6,5.1q-.2,8.3 13.4,4.6q8.8-2.4 -1.7-7.7q-8.5-4.2 -15,1.8q5.9,5.2 16.9,8.2q-3-2 -10-6q-7-1 -14-1q7,1 20,2q9,1 2-9q-8-12 -12,2q-2,10 11,7q9-3 3-9q-4-5 -12,12q-5,10 7,10q1,0 2-3" fill="none" stroke="#621a99" stroke-width="4"></path><path d="M690,131q8,20 15,11q3-6 -7-27" fill="none" stroke="#621a99" stroke-width="5"></path><path d="M696,9Q684,27 688,29Q694,13 692,-9" fill="none" stroke="#621a99" stroke-width="5"></path><path d="M647,-103q-4,33 9,47q11,12 8-21q-8-20 -16-35" fill="none" stroke="#621a99" stroke-width="5"></path><path d="M583,-156q2-6 -1-8q0,1 0,1" fill="none" stroke="#621a99" stroke-width="5"></path><path d="M513,-211q-1,14 0,14q1-5 -1-11" fill="none" stroke="#621a99" stroke-width="5"></path><path d="M383,-216q-6-13 -10-7q-2,7 -3,12" fill="none" stroke="#621a99" stroke-width="5"></path><path d="M363,-207q3,10 8,4" fill="none" stroke="#621a99" stroke-width="4"></path><path d="M467,-142q-.6-.8 -3-4" fill="none" stroke="#621a99" stroke-width="2.6"></path><path d="M473,-88q1,1 3,5" fill="none" stroke="#621a99" stroke-width="7"></path><path d="M576,-40q0,0 2,2" fill="none" stroke="#621a99" stroke-width="4"></path><path d="M548,117q1,1 1,2" fill="none" stroke="#621a99" stroke-width="4"></path><path d="M604,231q-6,23 2,17q5-9 7-17" fill="none" stroke="#621a99" stroke-width="5"></path><path d="M645,116q-.5,5 -1,9" fill="none" stroke="#621a99" stroke-width="2.6"></path><path d="M644,132q.6-7.1 1-13" fill="none" stroke="#621a99" stroke-width="2.6"></path><path d="M628,66q-1-13 -3-24" fill="none" stroke="#621a99" stroke-width="3"></path><path d="M649,165q-18,31 -9,34q1,0 12-33" fill="none" stroke="#621a99" stroke-width="4"></path><path d="M670,62q12,9 20,2q8-7 -1-30q-5-11 -10,7" fill="none" stroke="#621a99" stroke-width="3"></path><path d="M665,-6q8,7 11,2q4-7 1-20q-4,5 -7,16" fill="none" stroke="#621a99" stroke-width="4"></path><path d="M599,-131q12,10 19,7q10-4 2-18q-5-8 -12,11q-6,15 6,26q3,3 2-23" fill="none" stroke="#621a99" stroke-width="5"></path><path d="M350,310q-12,11 -6,21q4,5 13-2q2-6 2-12" fill="none" stroke="#621a99" stroke-width="4"></path><path d="M398,310q11,1 20-8" fill="none" stroke="#621a99" stroke-width="4"></path><path d="M119,337q-13-9 -19,1q-3,4 7,10q11,5 10-29" fill="none" stroke="#621a99" stroke-width="5"></path><path d="M-214,305q-24,7 -18,13q6,8 4-29" fill="none" stroke="#621a99" stroke-width="6"></path><path d="M-67,327q-11,6 -14,16q-3,8 6,13q4,2 5-19" fill="none" stroke="#621a99" stroke-width="5"></path><path d="M-413,214q-8-2 -6,0q4,7 4-8q-6-17 -15-30" fill="none" stroke="#621a99" stroke-width="5"></path><path d="M-435,107q2,10 5,8q-5-19 -18-37" fill="none" stroke="#621a99" stroke-width="5"></path><path d="M-405,58q-8-2 -11,7q-2,7 0,9" fill="none" stroke="#621a99" stroke-width="4"></path><path d="M-346,68q0-1 -2-4" fill="none" stroke="#621a99" stroke-width="3"></path><path d="M-389,126q1,0 3,2" fill="none" stroke="#621a99" stroke-width="5"></path><path d="M-433,30Q-434,16 -438,8" fill="none" stroke="#621a99" stroke-width="6"></path><path d="M-435,23Q-431,21 -429,18Q-428,6 -428,-3" fill="none" stroke="#621a99" stroke-width="4"></path><path d="M-430,-76q0,14 7,26q4,6 6,4q2-2 -19-35" fill="none" stroke="#621a99" stroke-width="5"></path><path d="M-429,-162q2,27 11,27q7-1 -10-36" fill="none" stroke="#621a99" stroke-width="6"></path><path d="M-378,-238q-2,10 2,20q4,9 7,1" fill="none" stroke="#621a99" stroke-width="6"></path><path d="M-293,-236q-4-9 -11-11q-5,0 -9,1" fill="none" stroke="#621a99" stroke-width="4"></path><path d="M42,-279q8,30 12,25q-1-13 -5-24" fill="none" stroke="#621a99" stroke-width="5"></path><path d="M236,-263q-11-12 -14-2q-2,7 3,11q1-2 1-6" fill="none" stroke="#621a99" stroke-width="4"></path><path d="M541,-30q-36,7 -66,13q-16,0 -30-2q-10-2 -19-4q-4-22 1-46q0-6 1-11q0-4 42-15q44-11 60,7q6,8 11,56q1,19 0,20" fill="none" stroke="#e15600" stroke-width="6"></path><path d="M423,-57q-31-9 -36-8q-7,1 -21,0q-7-2 -12-5q-1,1 -3,2q-1-10 1-27q4-17 7-32q4-19 2-33q-2-8 26-5q17,4 30,9q25-3 46-11q9-3 25,5q13,7 18,48q1,9 -1,11" fill="none" stroke="#e15600" stroke-width="5"></path><path d="M549,-67q-11-16 -21-40q-9-23 -21-18q-5,2 -26,13q-35,18 -37,20q-17,15 -29,28q-2,2 -2,2" fill="none" stroke="#e15600" stroke-width="6"></path><path d="M390,-109q33-22 32-23" fill="none" stroke="#e15600" stroke-width="6"></path><path d="M419,-96q-11-20 -21-37" fill="none" stroke="#e15600" stroke-width="4"></path><path d="M401,-106q-8.9-19.9 -11-20" fill="none" stroke="#e15600" stroke-width="2.9"></path><path d="M409,-102q12-6 20-13" fill="none" stroke="#e15600" stroke-width="6"></path><path d="M401,-59q-2,6 -4,11" fill="none" stroke="#e15600" stroke-width="4"></path><path d="M387,-63q-1,6 -3,11" fill="none" stroke="#e15600" stroke-width="3"></path><path d="M378,-67q0,5 0,10" fill="none" stroke="#e15600" stroke-width="4"></path><path d="M371,-64q-1.1,5.5 -2,10" fill="none" stroke="#e15600" stroke-width="2.7"></path><path d="M363,-67q0,10 -2,11" fill="none" stroke="#e15600" stroke-width="3"></path><path d="M358,-72q-6.6-3.3 -12-6" fill="none" stroke="#e15600" stroke-width="2.8"></path><path d="M349,-89q-.6,0 -3,0" fill="none" stroke="#e15600" stroke-width="2.6"></path><path d="M355,-114q-5.5-3.8 -10-7" fill="none" stroke="#e15600" stroke-width="2.9"></path><path d="M355,-128q-3.3-2.2 -6-4" fill="none" stroke="#e15600" stroke-width="2.8"></path><path d="M356,-142q-5-2.7 -9-5" fill="none" stroke="#e15600" stroke-width="3"></path><path d="M358,-154q-.6-1 -3-5" fill="none" stroke="#e15600" stroke-width="2.6"></path><path d="M377,-173q1-12 1-21" fill="none" stroke="#e15600" stroke-width="4"></path><path d="M389,-171q3-3 5-5" fill="none" stroke="#e15600" stroke-width="5"></path><path d="M403,-170q5-16 4-16" fill="none" stroke="#e15600" stroke-width="4"></path><path d="M420,-172q0-5 0-10" fill="none" stroke="#e15600" stroke-width="4"></path><path d="M426,-167q3-7 4-13" fill="none" stroke="#e15600" stroke-width="3"></path><path d="M448,-163q2-6 2-10" fill="none" stroke="#e15600" stroke-width="3"></path><path d="M466,-166q3.5-14.3 2-13" fill="none" stroke="#e15600" stroke-width="2.8"></path><path d="M477,-173q1.6-6.6 3-12" fill="none" stroke="#e15600" stroke-width="2.6"></path><path d="M459,-28q5-41 16-39q16,3 16,45" fill="none" stroke="#e15600" stroke-width="4"></path><path d="M464,-41q7-4 6-5q1,2 4,6q-1-3 -4-7" fill="none" stroke="#e15600" stroke-width="4"></path><path d="M-440,156q.3,.3 0,.3q-.3,0 -.3-.3q0-.3 .3-.3q.3,0 .3,.3" fill="none" stroke="#e15600" stroke-width="3"></path><path d="M-77,70q-7,9 -9,8q-5-3 -25-6q-20-4 -36-8q-10-1 -18-2q-13-4 -24-8q-5-3 -24,10q-28,18 -31,26q-16,39 -11,54q10,31 27,36q26,8 54,13q20-3 36-7q28-8 50-13q13-5 23-9q7,7 11,16q-1-1 -2-3" fill="none" stroke="#e15600" stroke-width="7"></path><path d="M-107,178q1,12 1,21" fill="none" stroke="#e15600" stroke-width="6"></path><path d="M-146,183q-4,10 -7,18" fill="none" stroke="#e15600" stroke-width="4"></path><path d="M-179,193q-12,18 -13,16" fill="none" stroke="#e15600" stroke-width="4"></path><path d="M-214,191q-5,4 -10,8" fill="none" stroke="#e15600" stroke-width="3"></path><path d="M-229,163q-18-3 -16-4" fill="none" stroke="#e15600" stroke-width="5"></path><path d="M-251,141q-9-5 -17-9" fill="none" stroke="#e15600" stroke-width="4"></path><path d="M-246,104q-4-20 -4-20" fill="none" stroke="#e15600" stroke-width="5"></path><path d="M-224,71q6-10 10-18" fill="none" stroke="#e15600" stroke-width="5"></path><path d="M-175,53q5-7 10-12" fill="none" stroke="#e15600" stroke-width="4"></path><path d="M-146,68q8-10 15-18" fill="none" stroke="#e15600" stroke-width="4"></path><path d="M-125,59q10-17 7-18" fill="none" stroke="#e15600" stroke-width="5"></path><path d="M-180,66Q-179,0 -184,26" fill="none" stroke="#e15600" stroke-width="6"></path><path d="M-220,67q-20-6 -36-12" fill="none" stroke="#e15600" stroke-width="5"></path><path d="M-243,103q-21,7 -39,12" fill="none" stroke="#e15600" stroke-width="5"></path><path d="M-249,153q-18,26 -24,31" fill="none" stroke="#e15600" stroke-width="6"></path><path d="M-115,110q-21-6 -21-6q14-23 19-5q0,4 0,8" fill="none" stroke="#e15600" stroke-width="6"></path><path d="M-183,112q-23-7 -25-4q1-6 5-18q2-5 19,1q12,5 4,17" fill="none" stroke="#e15600" stroke-width="6"></path><path d="M-188,160q-11-1 -20-1q-4-1 1-16q4-13 17,0q8,8 4,14" fill="none" stroke="#e15600" stroke-width="6"></path><path d="M-142,163q19-3 19-4q2-14 0-14q-13-5 -16,12q1,1 1,2" fill="none" stroke="#e15600" stroke-width="6"></path><path d="M-176.5,117q-5,18.5 -3.6,17.3q6-5.2 8-3.9" fill="none" stroke="#e15600" stroke-width="2.6"></path><path d="M-163.3,127q-3.6,1.5 -5.2,5.8q-.9,2.6 1.7,2q3.2-.7 5-12.4q-.1,4.1 -.7,11.7" fill="none" stroke="#e15600" stroke-width="2.4"></path><path d="M-166.5,117.8q.1,.2 .5,.8" fill="none" stroke="#e15600" stroke-width="2.2"></path><path d="M-164.1,115.9q.7-.2 1.3-.3" fill="none" stroke="#e15600" stroke-width="2.1"></path><path d="M-151.2,127.5q-2.5-.2 -4,2q-4.2,6.4 .9,7.4q3,.6 6-16.6q1-6 -.1-7.7q-.4,1.9 -.2,5.2" fill="none" stroke="#e15600" stroke-width="2.3"></path><path d="M-146.4,129.9q5.4,1.5 7.8-3.3q2.1-4.3 -2.3-4.1q-3.8,.1 -3.7,9q.1,5.1 4.9,2.6q1.3-1.5 2-3.1" fill="none" stroke="#e15600" stroke-width="2.4"></path><path d="M-131.4,121.5q.2,9.4 .4,9q3.8-7.7 7.2-3.2q.1,.2 -.2,1.3" fill="none" stroke="#e15600" stroke-width="2.3"></path><path d="M-26,50q14,17 16,17q27-18 47-34q26-8 49-11q19-4 34-7q24-4 35,13" fill="none" stroke="#e15600" stroke-width="6"></path><path d="M21,71q1,27 7,20q4-7 7-13q0,4 0,10q5-2 11-8" fill="none" stroke="#e15600" stroke-width="6"></path><path d="M57,88q2,0 2-1q-3,3 -6,9q1,0 3,0q3-4 5-9" fill="none" stroke="#e15600" stroke-width="5"></path><path d="M64,71q1,19 1,19q3-9 6-4q0,1 -1,5" fill="none" stroke="#e15600" stroke-width="5"></path><path d="M77,82q-1,9 0,8q1-5 5-2q1,0 0,1" fill="none" stroke="#e15600" stroke-width="5"></path><path d="M88,81q-1,12 1,7q2-4 3-7" fill="none" stroke="#e15600" stroke-width="5"></path><path d="M95,77q2,9 3,8q3,0 6,1" fill="none" stroke="#e15600" stroke-width="5"></path><path d="M108,82q-1-5 -2-2q-3,7 7,6q-4,4 -11,9" fill="none" stroke="#e15600" stroke-width="5"></path><path d="M120,77q2-1 4-2q0,4 -2,11q0,3 3,2q1-3 2-6" fill="none" stroke="#e15600" stroke-width="5"></path><path d="M130,74q1,5 4,3q8-5 8,5" fill="none" stroke="#e15600" stroke-width="5"></path><path d="M18,104Q5,123 2,125" fill="none" stroke="#e15600" stroke-width="6"></path><path d="M30,111q-3,9 -5,16" fill="none" stroke="#e15600" stroke-width="6"></path><path d="M30,114q4-1 7-1" fill="none" stroke="#e15600" stroke-width="5"></path><path d="M29,120q4,2 7,1" fill="none" stroke="#e15600" stroke-width="4"></path><path d="M39,120q-1,5 1,5q6-3 7-3" fill="none" stroke="#e15600" stroke-width="5"></path><path d="M51,124q10,0 9-4q-2-9 -7,8q-1,2 3,2" fill="none" stroke="#e15600" stroke-width="5"></path><path d="M67,121q1,6 1,6" fill="none" stroke="#e15600" stroke-width="4"></path><path d="M70,114q1,0 1,0" fill="none" stroke="#e15600" stroke-width="3"></path><path d="M75,120q6,2 5,5q-3,5 2,4q1-1 2-3" fill="none" stroke="#e15600" stroke-width="5"></path><path d="M92,121q4-3 2-3q-3-1 -3,11q0,1 2,2q0,0 1-2" fill="none" stroke="#e15600" stroke-width="4"></path><path d="M103,116q1,7 1,7" fill="none" stroke="#e15600" stroke-width="4"></path><path d="M106,111q1.1,0 2,0" fill="none" stroke="#e15600" stroke-width="2.7"></path><path d="M114,101q3,15 2,17" fill="none" stroke="#e15600" stroke-width="5"></path><path d="M111,109q17,1 17,0" fill="none" stroke="#e15600" stroke-width="6"></path><path d="M39,135q-1,8 0,8q1-1 2-2" fill="none" stroke="#e15600" stroke-width="5"></path><path d="M56,141q-7,4 -4,6q2-3 4-7q0,3 0,8" fill="none" stroke="#e15600" stroke-width="4"></path><path d="M65,140q-2,10 0,8q0-1 3-6" fill="none" stroke="#e15600" stroke-width="4"></path><path d="M76,136q0,7 -1,12" fill="none" stroke="#e15600" stroke-width="5"></path><path d="M76,141q7,0 8-1" fill="none" stroke="#e15600" stroke-width="5"></path><path d="M79,140q1,4 5,7" fill="none" stroke="#e15600" stroke-width="5"></path><path d="M149.6,24.3q4.7,3.6 11.4,4.4q15.6-.3 28.4-1.2q11.1,1.5 20.2,3.6q.9-1.4 1.3-3.2" fill="none" stroke="#e15600" stroke-width="3.3"></path><path d="M91.2,187.8q-11-10 -12.9-9q-9.1,4.7 -7.6,8.9q9,1.4 18.7-.8" fill="none" stroke="#e15600" stroke-width="3.4"></path><path d="M93.2,156q-7.3-.8 -14.7,3.3q-18.6,10.4 -8.5,23.1q6.2,7.9 23.3-3.6q11.5-7.7 3.1-20.9q-.4-.6 -4-.7" fill="none" stroke="#e15600" stroke-width="3.6"></path><path d="M92.4,157.2q-25.3,35.8 -15.7,24.6" fill="none" stroke="#e15600" stroke-width="3"></path><path d="M71.9,166.1q10.3,8.5 18.5,15.7" fill="none" stroke="#e15600" stroke-width="3.3"></path><path d="M86.8,156q-.2,30.1 -4,27.8" fill="none" stroke="#e15600" stroke-width="3.2"></path><path d="M68.7,175.3q35.2-3 28.6-3.6" fill="none" stroke="#e15600" stroke-width="3.5"></path><path d="M41.7,171.7q-6,.1 -6-.8q0-9.9 5.1-5.7q0,3.3 -1.1,6.5" fill="none" stroke="#e15600" stroke-width="3.4"></path><path d="M54.2,158.8q-18.2,5.3 -27.7,8.6q-2.1,.8 -3-2.8q-.9-3.5 22.6-10.4q5.8-1.8 7.3,7q0,0 0,0" fill="none" stroke="#e15600" stroke-width="3.8"></path><path d="M30.8,162.4q-.1-8.8 -3-4.8q0,2.6 .6,4.8" fill="none" stroke="#e15600" stroke-width="2.7"></path><path d="M43.7,158.4q1.2-7 2.9-4.9q.3,1.6 .3,2.9" fill="none" stroke="#e15600" stroke-width="3.2"></path><path d="M-109,165.3q.2,.2 0,.2q-.2,0 -.2-.2q0-.2 .2-.2q.2,0 .2,.2" fill="none" stroke="#e15600" stroke-width="1.8"></path><path d="M129.1,142.7q-19.5-1.4 -19.6,.9q-.7,10.5 -1.4,19q10.2,2.7 23.2,.9q3.2,.6 5.8,1.7q.6-5.3 -1.2-12.8q-.7-6.2 -.9-11.4q-5.4-1 -11.9,.5" fill="none" stroke="#e15600" stroke-width="3.7"></path><path d="M113.4,149.5q10,1.1 13.3-1.2" fill="none" stroke="#e15600" stroke-width="3.3"></path><path d="M114.6,154q3.4,.8 6.2,1.3q.3,0 .2,1.5" fill="none" stroke="#e15600" stroke-width="2.8"></path><path d="M125.9,153.2q2.1-.8 4,.4" fill="none" stroke="#e15600" stroke-width="2.1"></path><path d="M119.4,149.9q2.3,.6 4.2,4.1q1.5,2.8 2.5-.8q1.2,0 2.5,.6q.3-1.1 .3-2.6q-.2-3.5 -9.1-2.2q-3.9,1.6 -6.9,3.4q.9-.3 2.5-.9q3.5,.5 6.4,1.5q1.6,.6 6.1-3.4q2.7-2.4 -5.3,1.4q-8.9,4.1 -2,10.1q4.7,4.2 8.3-3.9q.7-1.9 1.2-3.5q-.3,.3 -.7,.8q-2.4,.2 -4.7-.5" fill="none" stroke="#3885a8" stroke-width="2.6"></path><path d="M123.9,149.1q2.2-2.6 3.9-4.8q-.2,1.5 -1.1,4" fill="none" stroke="#3885a8" stroke-width="2.4"></path><path d="M119.8,153.6q5.1,.6 9.3,1.2" fill="none" stroke="#3885a8" stroke-width="2.4"></path><path d="M112.2,148.7q7.7-6.1 7.5-1.8q-.1,4 .7,3.4q4.3-3 4.5,1.3q3.2,.5 7-.4" fill="none" stroke="#93c6db" stroke-width="3.3"></path><path d="M113.8,157.2q6.1-6 6.6-2.8q.5,3.8 .7,3.7q7.2-5 9.4-.7q.9,1.8 1.4,2.2" fill="none" stroke="#93c6db" stroke-width="3.5"></path><path d="M-113,114.9q-2.2,15.7 -6.4,18.5" fill="none" stroke="#e15600" stroke-width="4"></path><path d="M-109.4,127.8q5.7-1.6 5.1,1.7q-1.5,8.2 -8.7,5.9" fill="none" stroke="#e15600" stroke-width="3.7"></path><path d="M-93.3,127q-.7-2.3 -2.6-.9q-5.8,4.3 .1,6.2q2-3.5 2.5-8.5" fill="none" stroke="#e15600" stroke-width="3.8"></path><path d="M-88,112.5q3.8,16.6 -1.2,16.9" fill="none" stroke="#e15600" stroke-width="3.4"></path><path d="M-89.6,129.4q7.4-2.8 5.6,.1q-2.4,1.1 -4.8,1.5" fill="none" stroke="#e15600" stroke-width="2.5"></path><path d="M-78.4,122.2q-.9,1.9 -.3,6.4q.1,.4 -1.3,1.6" fill="none" stroke="#e15600" stroke-width="3"></path><path d="M-102.9,118.1q.2-.4 .4-.8" fill="none" stroke="#e15600" stroke-width="2.1"></path><path d="M140.8,99.6q-4.5,15.7 -1.1,19.9" fill="none" stroke="#e15600" stroke-width="3.9"></path><path d="M89.2,136.2q7.1,1.3 6,7.1q-1.9,2.9 -4,5" fill="none" stroke="#e15600" stroke-width="3.7"></path><path d="M146.4,15.8Q153.8,14.4 167.7,13.1Q186,11.3 184.7,7.3" fill="none" stroke="#e15600" stroke-width="3.4"></path><path d="M128.3,14.6Q157.7,-1.8 156.5,-4.7" fill="none" stroke="#e15600" stroke-width="3.3"></path><path d="M103.7,13q15-31.4 8.1-21.4" fill="none" stroke="#e15600" stroke-width="3"></path><path d="M65,19.4Q63.3,10.5 61.4,3.3" fill="none" stroke="#e15600" stroke-width="2"></path><path d="M43.7,28.3q-4.4-13.7 -6.4-13.7" fill="none" stroke="#e15600" stroke-width="2.6"></path><path d="M22.8,36.4q-3.2-4.3 -6.1-7.7" fill="none" stroke="#e15600" stroke-width="1.9"></path><path d="M14.7,47.6Q9.7,46.4 -2.6,42" fill="none" stroke="#e15600" stroke-width="3"></path><path d="M179,27.5Q167.4,11.2 153.3,5.7Q150.1,4.5 121.5,7.7Q90.7,8.2 65.3,7.4Q41.5,6.6 24,18.8Q9.7,28.8 6.9,29.8Q-16.8,38.1 -16.3,45.2" fill="none" stroke="#e15600" stroke-width="3.1"></path><path d="M209.7,30.3q-5.7,15.8 -16.6,21.7q-12.5,6.8 -34.8,3.3q-12.5-1.9 -24.8,2.1q-5.7,1.9 -24.2,1.8q-25.1,0 -30.4-6.5q-7.6-9.5 -24.4-3.5q-15.6,2.3 -28.7,3.1q-8.5,.5 -15.6,18.8q-4,10.3 -19-2.6q-.6-.5 -1.9-3.5" fill="none" stroke="#e15600" stroke-width="3.3"></path><path d="M-.2,73.8Q14.2,87.2 17.5,84.7" fill="none" stroke="#e15600" stroke-width="2.5"></path><path d="M38.9,86.3q6.8,5.3 17.3,6.8" fill="none" stroke="#e15600" stroke-width="2"></path><path d="M76.7,97.2q26,.5 26.6-.8" fill="none" stroke="#e15600" stroke-width="1.5"></path><path d="M113.4,94.8q16.2,.4 16.1-1.2" fill="none" stroke="#e15600" stroke-width="1.3"></path><path d="M140.8,89.5q17.1-8.6 16.9-10" fill="none" stroke="#e15600" stroke-width="1.8"></path><path d="M152.1,83.9q17.2-8.3 22.5-13.7" fill="none" stroke="#e15600" stroke-width="1.3"></path><path d="M176.2,71.4q9.4-7.2 13.4-14.1q2.1-4.6 3.5-8.5" fill="none" stroke="#e15600" stroke-width="2.3"></path><path d="M120.6,47.2q-1.4,7.3 -2.8,13.3" fill="none" stroke="#e15600" stroke-width="2.2"></path><path d="M104.9,48.8q13.5,.7 24.6,1.2" fill="none" stroke="#e15600" stroke-width="2.3"></path><path d="M153.7,50.5q1.6,12.7 .8,14" fill="none" stroke="#e15600" stroke-width="2"></path><path d="M139.6,52.1q19,5.6 19.3,1.6" fill="none" stroke="#e15600" stroke-width="2.3"></path><path d="M57.4,52.9q-4,6.1 -7.7,10.8" fill="none" stroke="#e15600" stroke-width="3"></path><path d="M40.5,53.7q30.2,10.7 30.2,10.8" fill="none" stroke="#e15600" stroke-width="2.6"></path><path d="M-71.1,116.8q-3,10.1 -5.7,18.3" fill="none" stroke="#e15600" stroke-width="3.1"></path><path d="M-63.2,117.2q-2.6,3.8 -1.9,6.5q-2.3,2.5 -5.4,4.1" fill="none" stroke="#e15600" stroke-width="2.8"></path><path d="M-59.5,117.8q-.9,4.4 -1.7,8" fill="none" stroke="#e15600" stroke-width="2.4"></path><path d="M-62.8,120.2q4,.4 7.3,.6" fill="none" stroke="#e15600" stroke-width="2.6"></path><path d="M-51.6,125.1q-4.8,2.2 -2.6,3.3q1.4-1.5 2.3-3.7q-.1,.8 -.3,2.4" fill="none" stroke="#e15600" stroke-width="2.7"></path><path d="M-46.6,123.5q-.9,1.8 -1.5,3.4q1.3-3.7 3.8-10.4" fill="none" stroke="#e15600" stroke-width="2.6"></path><path d="M-40.6,115.8q-1.6,9.3 -2.3,10.3" fill="none" stroke="#e15600" stroke-width="2.7"></path><path d="M-42.9,118.8q7.7,1.4 7.3,.4" fill="none" stroke="#e15600" stroke-width="2.5"></path><path d="M-48.2,124.1q-1.4,2.9 -.4,2.7" fill="none" stroke="#e15600" stroke-width="2.4"></path><path d="M-65.2,131.4q-1.9,7.7 -1.4,7.4q1.8-.5 3.4-.6q-.9-.4 -2.6-.8" fill="none" stroke="#e15600" stroke-width="2.6"></path><path d="M-58.5,133.1q-2.2,5.8 -2.4,7.9" fill="none" stroke="#e15600" stroke-width="2.5"></path><path d="M-50.6,137.4q-4.6,4.4 -3.2,5.4q3-3.1 5-8q-.6,2.4 -1.8,6.9" fill="none" stroke="#e15600" stroke-width="2.8"></path><path d="M-43.9,132.1q-.4,4.7 -.7,8.6" fill="none" stroke="#e15600" stroke-width="2.1"></path><path d="M-47.2,133.4q5.3,1.4 5.3,1.4" fill="none" stroke="#e15600" stroke-width="2.7"></path><path d="M-40.6,137.4q3.8,.4 3.2,1.1q-3.9,3.9 -2,4.3q.5,.1 2.1-1.4" fill="none" stroke="#e15600" stroke-width="2.4"></path><path d="M-68.5,138.7q-.9,3.8 -1.6,7" fill="none" stroke="#e15600" stroke-width="2.7"></path><path d="M159,-600q-21-7 -35-4q-10,7 -17,13q-12-3 -23-11q-8-2 -16-3q-9,3 -16,6q-14,3 -25,3q-8,15 -10,33q-6,5 -13,8q-14,16 -23,32q-8,14 0,28q7,7 14,13q9,13 14,26q5,1 10,0q10,5 18,12q14,4 27,5q14,6 25,13q13,3 24,3q7-4 12-9q8,3 15,10q7,5 23-2q11-8 19-15q7,0 13,1q9-4 16-11q15-11 29-19q9-5 -3-48q-11-30 -21-53q-7-19 -32-32q-20-5 -36-7q-2-1 -3-3" fill="none" stroke="#000000" stroke-width="8"></path><path d="M239,-465q2,71 -10,63q-9-11 -14-23q-4-7 -6,5q-4,19 -8,20q-8,7 -13,14q-4,2 -7,4q-7,7 -12,15q-9,3 -18,4q-6,6 -10,13q-5,10 -33-15q-8-7 -11,6q-4,22 -17,2q-9-20 -15-37q-5-14 -18-18q-3,3 -4,8q-8-6 -17-19q-7-11 -13,2q-5,14 -19-27q-9-26 -4-32" fill="none" stroke="#000000" stroke-width="7"></path><path d="M-661,-438q-30-10 -32-8q-9,4 -17,7q-6,6 -10,11q-6,1 -11,0q-5,4 -8,9q-11,9 -21,16q-10,3 -18,5q-5,1 8,32q5,12 0,39q-1,7 0,29q2,0 3-1q8,1 15,6q7-2 14-5q5,4 9,11q5-3 10-9q2-3 29,11q7-3 12-8q12,2 23,10q7-5 12-14q18,7 35,23q2,2 10-15q9-9 18-15q13-3 24-5q7-1 18-69q1-7 -2-13q-10-26 -16-47q-2-5 -22-18q-9,8 -14,20q-4,8 -24-18q-8-6 -15-11q-5-3 -8,3q-10,0 -20-4q-16,14 -27,34q-7,3 -14,4q-2,0 -7,5" fill="none" stroke="#000000" stroke-width="8"></path><path d="M-558,-301q-10-2 -14,7q-12,41 -19,75q-1,5 -9-13q-2-4 -26-26q-3-3 -9,11q-6,9 -11,16q-9,27 -13,51q-3,15 -15,10q-6-2 -14-36q-13-51 -19-43q-1,10 0,20q-2-1 -6-4q-3,3 -6,9q0,0 -14,3q-8-9 -13-20q-1,3 0,8q-5-8 -12-24q-2,2 -5,7q-3,5 -7-22q-6-33 2-40" fill="none" stroke="#000000" stroke-width="6"></path><path d="M865,415q-19-35 -28-32q-11,8 -20,15q-12,4 -23,6q-8-5 -14-11q-4,1 -7,3q-5-1 -8-3q-16,16 -27,41q-8,20 -14-2q-5,7 -10,21q11,13 26,22q13,13 23,24q5-2 10-7q3-4 13,7q4,5 6,1q16-8 32-12q9-3 15-6q12,8 21,21q7,0 14-4q9-4 -3-40q-5-9 -10-17q-8-14 8-37q2,1 4,3" fill="none" stroke="#000000" stroke-width="9"></path><path d="M850,496q-9,42 -14,36q-5-7 -9-12q-9-12 -16-1q-13,18 -21,6q-7,2 -14,7q-13-8 -23-20q-2,2 -4,6q-9-15 -15-43" fill="none" stroke="#000000" stroke-width="8"></path><path d="M-221,411q26-32 26-31q16,49 16,50q11-8 19-22q12,7 22,21q17,23 17,23q28-23 38-25q13-7 24-14q11,18 16,46q3,17 24-21q9-16 26,7q8,12 29-16q26-34 46,14q3,6 20,6q17,2 32,5q24-13 42-31q9-2 16-2q16-15 26-32q2-4 18,6q23,16 29,25q8,10 25-3q28-23 44,50q12,55 13,40q7-70 28-59q26-40 36-100q2-9 7-1q8,18 14,33q5-9 9-26q8,5 18,16q2,3 30-26q5-5 22-37" fill="none" stroke="#000000" stroke-width="11"></path><path d="M-220,401q-11-29 -24-37q-4-3 -23-31q-9-21 -16-38" fill="none" stroke="#000000" stroke-width="9"></path><path d="M10,409Q3,494 4,513Q5,521 8,516Q23,484 33,455Q41,449 50,445Q61,440 84,396" fill="none" stroke="#000000" stroke-width="8"></path><path d="M-187,386q-8,39 -8,34q8-22 19-39" fill="none" stroke="#000000" stroke-width="7"></path><path d="M182,405q13,13 20,3q10-14 15-9q11,29 14,56q3,1 7,0q5-19 4-40" fill="none" stroke="#000000" stroke-width="7"></path><path d="M401,416q11-23 26-23q9,1 16,2q5-12 5-28" fill="none" stroke="#000000" stroke-width="6"></path><path d="M504,361q30-13 45-42" fill="none" stroke="#000000" stroke-width="6"></path><path d="M167.5,-487q6.5-42.2 11.8-76.7q1.3-8.8 -.4-30.3q-.4-4.9 3.2-4q26.7,6.8 26.6,5.9q-.6-16.7 -.4-30.5q.1-1.8 -23.9-5.4q-8.4,8.6 -13.5,19.9q-10.8-.4 -22-5.5q-1.3-11.8 2-24q-.1-.9 -.4-1.6q-.6-1.9 -19,.2q-3.7,9.6 -3.7,20.8q-4.7,.2 -10.6-1.9q-4-8.8 -5-18.1q-4.1,1.2 -9,5q-1,.8 -.2,15.1q9.8,7.4 21.6,10.9q2.1,12.4 -.7,25.9q.4,34.8 3.8,63.5q.6,5.3 -1.1,3.1" fill="none" stroke="#000000" stroke-width="5.7"></path><path d="M44.2,-518.7q.1-67.4 -.6-73.8q-.6-5.8 .8-6.4q7.3-.7 13.5-.3q1.1,.1 2.6-24.2q.1-1.4 -16.2-2.7q-.9,0 -4,13.9q-2.4,11.1 -19.2,1.8q-2.9-10.2 -2.5-20.5q0-.6 -15.2,3.6q-2.8,9.8 -1.8,20.6q-7.4,3.4 -16.7,3.8q-4,.1 -1-20.4q0-.5 -2-.5q-15-.5 -13.9,8.8q2.6,22.5 2.8,22.5q15.2,0 19.5,10.2q17.1,39.9 15.3,68.9q.2-.1 .5-.2" fill="none" stroke="#000000" stroke-width="5.6"></path><path d="M44.7,-525.1Q12.2,-511.1 3.8,-513" fill="none" stroke="#000000" stroke-width="4.3"></path><path d="M41.3,-589.1q61.9,12.2 70.9,9.9q5.4,0 9.8,.5" fill="none" stroke="#000000" stroke-width="5.7"></path><path d="M58,-523.4q15.1-37.4 27.3-41.1q9.1-2.8 12.2,18q2.6,17.7 .5,32.9" fill="none" stroke="#000000" stroke-width="5.3"></path><path d="M11.3,-508.9q5.3-6.3 17.4-12.4q13.9-6.9 50.1-4.3q22.4,1.6 55.7,14.2q16.1,6.1 33.7,27.8q.3,0 .5,0" fill="none" stroke="#000000" stroke-width="5.7"></path><path d="M164.6,-481.9q2.5-.3 -2.2,4.6q-7.7,8.1 -20.7,2q-24.1-11.2 -24.4-12.7q2.7-15.2 7.7-27.7" fill="none" stroke="#000000" stroke-width="4.6"></path><path d="M8.4,-511.3Q18.1,-489.4 19.8,-490Q35.4,-494.6 48.3,-498.3Q50.8,-511.1 48.2,-525.1" fill="none" stroke="#000000" stroke-width="5.3"></path><path d="M36.1,-512.4q-11.4-.8 -10.4,1.1" fill="none" stroke="#29ce37" stroke-width="1.9"></path><path d="M26.9,-505.5q3,1.2 2.1-.6q-2.3-5.2 -10.9,2q-3,2.5 1.7,3q8.5-3.3 15-7.8q2.3-1.2 4.2-2.1q-6.6,2 -18.7,6.4q-2.4,.9 11.2-4.7q8-3.2 7.4-3.1q-5.1,2.8 -9.1,5.8" fill="none" stroke="#29ce37" stroke-width="3.9"></path><path d="M132.4,-497.4q8.2,3.5 14.8,6.4q-2.8-2.8 -8.6-7.2q-2.4-1.8 -2.7,2.3q-.5,6.1 11.4,9.1q6.7,1.6 .6-6.5q-8.8-11.9 -10.4-3.2q-.5,2.8 11.9,10.1q-5.5-5.6 -16.5-15q-15.1-12.8 -15.2-2.1q0,2.3 29.4,22.2q1.8,.9 3.3,1.5q.7-.3 1.2-.9q-2.2-10.6 -8.3-20.2q4,4.3 11,12.7" fill="none" stroke="#29ce37" stroke-width="4.5"></path><path d="M-602.2,-322.7q7.7-30.6 11.7-62.4q2.4-19.3 2-48.8q-.4-32.4 -5-35.1q-.2-.1 0-.2q7.4-2.3 13.6-3.9q.8-.3 -12.2-12.8q-3-3 -13.2,.4q-5.6,1.3 -10.2,2q-.6,6.5 1.8,14q.7,2.2 7.4,2.6q.4,0 -.7,24.4q-1.6,34.3 -7.3,68.9q-2.1,24.2 -3,44.1q-.2,5.9 -.7,5.6q-3.9-2.8 -9.4-2.2q-.7,.1 1.3,14.3q.6,4.6 22.2,6.5q9.8,.8 12.9-9.8q1.9-6.6 .9-6.1q-4,2 -14.9-.2q-.2-.6 -.1-1.3" fill="none" stroke="#000000" stroke-width="2.9"></path><path d="M-738.3,-329q9.9,1 9.3,1.3q-4.5,6.9 -7.1,13.7q-.8,2 -17.9-3.6q-6.3-2 -5.5-3q3.5-4.4 1.8-10.6q.4,.4 .9,1.1q3.3,.6 6.5,.3q1.6-.2 1.7-14.8q.2-13.5 -3.7-55.3q-2.3-25.1 -2.8-46.7q-.5-23.3 1-13.9q.2,1.6 -11-.6q-4.5-.9 -.4-14q1.5-4.7 15.8-5.8q10-.9 20.6,4.5q3.1,7.9 3.6,16q0,.5 -12.6-1.2q-.8-.2 -.8,.5q.5,38.3 .5,39.1q-1.9,19.9 -3.8,36.2q2.1,16.7 5.4,30.3q3,12.2 .8,26q0,0 .1-.1" fill="none" stroke="#000000" stroke-width="2.8"></path><path d="M-581.9,-475.5q-6.1,8.2 -14.1,12.3q-18.1,10.8 -32.7,20q-24.4,15.5 -74.5,14.5q-22.4-.5 -56.5-26.8q-10.3-7.4 -18.8-13.2q-5.2-3.6 -3.6-11.2q.6-5.7 .9-10.4q.3-6.3 3.1-6.6q2-.2 14.6,11.9q27.4,26.2 77.6,33.1q7,.9 40.8-7.7q28.5-8 51.8-14.8q3-1.5 5.3-2.9q2.8,5 3.8,12.5q-.7-.6 -1.6-1.8" fill="none" stroke="#000000" stroke-width="3"></path><path d="M-756.7,-353.9q8.2,11.5 23.1,20q30.5,17.5 78.6,11.1q33.2-7.7 60-15.4q8.1-2.3 9.5-.4q2,2.9 4.1,19.8q1.6,12 -2.4,13.5q-42.5,15.5 -107.9,8.5q-37.2-4 -41.6-5.2q-46.1-12.5 -38.3-42.6q4.3-16.7 18.6-4.1q1.7,1.1 3.1,1.9" fill="none" stroke="#000000" stroke-width="3"></path><path d="M-600.7,-339.1q7.5,.6 14.2-3.9q15.6-10.5 10.2-33.4q-4.3-18.1 -63.5-29.1q-33.2-6.1 -72.5-1.5q-31.3,3.7 -42.4,14q-22.9,21.4 8.2,47q8.6,7.1 18.9,7.2" fill="none" stroke="#000000" stroke-width="2.9"></path><path d="M-579.9,-386.3q1.4-35.2 -4.3-67.1q-.8-3.1 -1.6-5.5" fill="none" stroke="#000000" stroke-width="2.3"></path><path d="M-757,-395q1.4,2 1.5-.1q1.4-32.8 2.7-59.6q.2-14.6 .2-26.5" fill="none" stroke="#000000" stroke-width="2.6"></path><path d="M-632.2,-386.9q14,1.7 21.9,7.3q11,7.6 5.2,18.3q-1.3,2.5 -14.4,11.3q-4.1,2.8 -18.1,4q-22.6,2 -24,2q-10.2,.3 -18.6,.8q-13.5-.4 -24.6-1.2q-25.4-1.9 -30.7-24q-3.3-13.6 18.5-16.4q22,.3 40,1.9q1.4,.1 32.1-5.9q7.5-1.4 15.7-.3q-.4-.6 -1.2-1.4" fill="none" stroke="#000000" stroke-width="3"></path><path d="M-656.9,-391.1q1.8-4.2 1.4-4.5q-5.6-4.4 -7.5-1.3q-1,2.8 -1.6,5.2" fill="none" stroke="#000000" stroke-width="2.6"></path><path d="M-664,-395.9q1.6-5.3 2.7-9.8" fill="none" stroke="#000000" stroke-width="2.5"></path><path d="M-686,-388.4q.9-8.5 .5-8.3q-4.5,.8 -8.3,.8q-.9,3.5 -.2,7.8" fill="none" stroke="#000000" stroke-width="2.6"></path><path d="M-686,-395.3q.7-4.4 1.2-8" fill="none" stroke="#000000" stroke-width="2.3"></path><path d="M-720.2,-387.2q-.2-7.2 -1.3-7.2q-4.5-.3 -5.2,5.5q-.3,1.5 -.6,2.7q-.8-5.1 -.9-14.5" fill="none" stroke="#000000" stroke-width="2.5"></path><path d="M-618.8,-387.5q1.2-7.6 .3-7.6q-3.2-.5 -5.8-1.1q-1.4-.3 -1.7,5.4q.8-4.5 1.8-12.8" fill="none" stroke="#000000" stroke-width="2.3"></path><path d="M-592.6,-367q1.6-6.4 .8-6.5q-7.3-.8 -7.6,1.5q-.4,2.9 -.1,2.9" fill="none" stroke="#000000" stroke-width="2.3"></path><path d="M-592.4,-371.5q1.2-5.4 2.1-9.8" fill="none" stroke="#000000" stroke-width="2.2"></path><path d="M-606.6,-352.4q7.2-6.6 7.5-4q.3,3 .5,5.4" fill="none" stroke="#000000" stroke-width="2.4"></path><path d="M-598.3,-353.3q2.9-5 5.4-9" fill="none" stroke="#000000" stroke-width="2.1"></path><path d="M-742.8,-369.4q-1.2-8.7 -4.5-7.4q-.7,.2 -3.8,9.2" fill="none" stroke="#000000" stroke-width="2.5"></path><path d="M-751.4,-372.1q.9-6.4 1.5-11.6" fill="none" stroke="#000000" stroke-width="2.5"></path><path d="M-739.5,-352.2q-1.3-7.8 -5.2-8q-1.7,6.3 -.7,14" fill="none" stroke="#000000" stroke-width="2.3"></path><path d="M-746,-351.6q1.3-11 .6-11.8" fill="none" stroke="#000000" stroke-width="2.5"></path><path d="M-715.4,-333.1q2-6.1 -.5-8.2q-1.8-1.6 -3,6.4q0,2 .1,3.6q.8-4.4 1.6-12.8" fill="none" stroke="#000000" stroke-width="2.8"></path><path d="M-695.8,-327.2q1.6-9.2 -1.9-9.4q-3-.1 -3.2,10.9q.9-6.6 2.1-19" fill="none" stroke="#000000" stroke-width="2.7"></path><path d="M-669.3,-328.1q5.3-10 6.1-6.4q.4,3.8 .6,7q2.4-5.7 5.1-16.6" fill="none" stroke="#000000" stroke-width="2.8"></path><path d="M-645,-331.3q8.1-15.9 8.6-8.6q-.6,4.5 -1.5,8.2q-.5,2.2 3.5-6.3q1.8-4.2 3.1-7.6" fill="none" stroke="#000000" stroke-width="2.8"></path><path d="M-406.3,52.2q-14.4-4 -29.8-2.1q-16.5-.8 -30-2.6q-3.3-.4 -3.4,20q-.1,8.8 -.4,7.9q9.8-1.2 23.3,2.2q13.2,1.4 24.1,1.9q6.3,1.1 11.3,2.4q4.6-10.8 4.7-25.3q1-3.5 2.2-6.4" fill="none" stroke="#000000" stroke-width="4.9"></path><path d="M-452.4,76.8q-.5,28.6 -.7,22q-.2-3.4 -12-1.4q0,0 2.1-24.1q.5,.1 1.1,.5" fill="none" stroke="#000000" stroke-width="4.9"></path><path d="M-416.8,104.3q-21.2-10.2 -38.4-18.9" fill="none" stroke="#000000" stroke-width="3.2"></path><path d="M-466.9,-26.4q-9,7.1 -13.5,8.5" fill="none" stroke="#621a99" stroke-width="4.1"></path><path d="M-522,18.7Q-529.1,14.6 -537.2,19.4Q-552.6,28.7 -551.1,68.6Q-549.9,102.3 -516.9,88.1Q-497,79.6 -497.9,35.7Q-498.5,4.9 -528.6,8.8Q-533.8,12.3 -537.6,16.2" fill="none" stroke="#621a99" stroke-width="4.8"></path><path d="M-484.5,60.3q-6.3-8.3 -17-13.3q-8.9-4.3 -6-1.8" fill="none" stroke="#621a99" stroke-width="4.3"></path><path d="M-508.5,53.7q-12.9-10.4 -10.8-10.7q19-3.5 20.8-1.3" fill="none" stroke="#621a99" stroke-width="4.5"></path><path d="M-405.7,12.5q14.8,2 23.3,11.2q16.1,17.4 14.3,75q-.6,21.5 -4.5,22.9q-35.1,12.1 -33.7,8.1" fill="none" stroke="#000000" stroke-width="4.6"></path><path d="M-379.7,107q-23.2,1.2 -20.4-.5" fill="none" stroke="#000000" stroke-width="1.9"></path><path d="M-379.7,100.3q-11.5-2.2 -20.9-4" fill="none" stroke="#000000" stroke-width="2.7"></path><path d="M-384.2,81.6q-4.1-.3 -7.4-.6" fill="none" stroke="#000000" stroke-width="1.9"></path><path d="M-385.9,65.7q-5.3-1.5 -9.6-2.8" fill="none" stroke="#000000" stroke-width="1.9"></path><path d="M-382.5,49.9q-6.9-2.5 -12.5-4.5" fill="none" stroke="#000000" stroke-width="1.9"></path><path d="M-393.8,33.5q-.5-.2 -2.3-1.2" fill="none" stroke="#000000" stroke-width="1.9"></path><path d="M-384.8,109.3q2.7-13 4.5-23.8" fill="none" stroke="#000000" stroke-width="2"></path><path d="M-391.6,91.8q1.8-22 1.2-22.1" fill="none" stroke="#000000" stroke-width="1.9"></path><path d="M-395,84.4q.9-10.3 1.7-18.7" fill="none" stroke="#000000" stroke-width="1.9"></path><path d="M-382.5,78.2q.5-17.4 .5-31.7" fill="none" stroke="#000000" stroke-width="2.1"></path><path d="M-383.7,66.9q1.4-17.7 1.7-32.3" fill="none" stroke="#000000" stroke-width="2.3"></path><path d="M-390.4,49.3q1.7-16.5 1.1-16.4" fill="none" stroke="#000000" stroke-width="1.9"></path><path d="M-392.1,63.5q.6-6.3 1.1-11.4" fill="none" stroke="#000000" stroke-width="1.9"></path><path d="M-394.4,109.9q3.1,.3 5.6,.5" fill="none" stroke="#000000" stroke-width="2"></path><path d="M-393.8,110.4q7.1,2.8 13,5.1" fill="none" stroke="#000000" stroke-width="2.9"></path><path d="M52.8,-453.7q7.7-18.4 3.4-29.1q-2.3-5.8 -9.2,.9q-3.3,3.3 -3.6,24q-.1,.3 -.3,.5" fill="none" stroke="#000000" stroke-width="4.4"></path><path d="M-560.1,-346.8q7.9-24 .5-35.8q-3-4.7 -4.3,12.8q-.6,12.6 -1,23" fill="none" stroke="#000000" stroke-width="4.1"></path><path d="M761.8,436.8q9.9-17.5 4.7-27q-3.1-5.8 -12.4,24.9q-2.4,8 -2.6,7.8" fill="none" stroke="#000000" stroke-width="4.7"></path><path d="M-395,-422q.3,.3 0,.3q-.3,0 -.3-.3q0-.3 .3-.3q.3,0 .3,.3" fill="none" stroke="#a6a6a6" stroke-width="3"></path><path d="M48,-484q-17,14 -36,22q-16,11 -29,21q-31,16 -58,26q-17,7 -39,34q-10,14 -19,25q-10,14 -13,13" fill="none" stroke="#a6a6a6" stroke-width="7"></path><path d="M-567,-387q39,12 91,17q61,8 111,15q50,4 90,6q62,3 75,1q27-5 51,6q10,5 13,4" fill="none" stroke="#a6a6a6" stroke-width="7"></path><path d="M-149,-356q71,38 130,69q18,8 33,14q15,11 27,21" fill="none" stroke="#a6a6a6" stroke-width="10"></path><path d="M647,210q42,68 76,124q25,41 33,63q6,15 3,17" fill="none" stroke="#a6a6a6" stroke-width="11"></path><path d="M115.2,91q5.9,.7 14.4,9.3q20.9,21.3 14.6,17.9" fill="none" stroke="#e15600" stroke-width="2.8"></path><path d="M118.3,95q9.8,5.2 24.1,20.1" fill="none" stroke="#e15600" stroke-width="2.7"></path><path d="M130.2,114.7q3.7-1.2 8.7,2.3q9.9,11 17.1,20.9" fill="none" stroke="#e15600" stroke-width="3"></path><path d="M146.4,127q1.5,2.6 11.8,23.6" fill="none" stroke="#e15600" stroke-width="2.1"></path><path d="M46.4,90.6q-33.4,7 -32.5,7.4" fill="none" stroke="#e15600" stroke-width="2.5"></path><path d="M20.1,89.3Q5.9,104.6 8.2,104.6" fill="none" stroke="#e15600" stroke-width="2.3"></path><path d="M7.4,103.7Q4.3,122.7 2.1,138.4" fill="none" stroke="#e15600" stroke-width="2.5"></path><path d="M2.1,134Q-1,146.1 -3.6,155.9" fill="none" stroke="#e15600" stroke-width="2.6"></path><path d="M-28.2,62.9q13.7,20.8 22.8,48.7" fill="none" stroke="#e15600" stroke-width="2.4"></path><path d="M-13.2,95q8.5,22 10.6,41.6q-.1,7.7 -.6,14" fill="none" stroke="#e15600" stroke-width="2.7"></path><path d="M203.8,49.3q-7.1,31.5 -7,31.6" fill="none" stroke="#e15600" stroke-width="1.5"></path><path d="M190.7,67.8q-.7,14.7 -1.8,26.7" fill="none" stroke="#e15600" stroke-width="1.8"></path><path d="M186.3,87.5Q182.6,102.4 177.4,101.8Q175.1,101.3 173.2,100.8Q170.2,104.3 168.5,109.2Q167,113.7 159.3,101.7Q157.6,99.2 156.9,99.8Q156.1,100.6 161.3,112.6Q161.4,112.3 161.4,111.8Q161.9,106.3 158.3,108.4Q157.2,117 159.2,125.6Q160.3,130 152.4,104.7Q146.1,84.8 150.2,91.1Q156.9,101.3 159,86.8Q162.3,64 173.9,85.8Q174.8,85.8 175.7,85.4Q176.3,85.2 170.2,64.1Q167.6,55.2 171.8,58.4Q177,64.5 180.8,70.1Q179.2,64.8 175.3,55.4Q166.8,38.4 159.4,24.8Q155.3,17.4 157.9,15.8Q166.8,22 173.4,32.2Q166.9,25.1 155.8,11.5Q159.8,18.2 167.7,30.2Q175.7,42.3 166.6,42Q166.1,42 148.1,25.5Q127.1,6.3 125.3,19.3Q125.2,20 132.9,36.4Q136.9,45 130,42Q121.6,35.6 115.2,29.5Q106.6,21.4 106.9,30.6Q111,39.5 116,46.3Q113.4,44.6 109.2,41Q91.8,26.1 89.1,24.3Q79.6,18.1 83.8,28.8Q88.1,39.6 87.9,41.9Q87.8,44.7 72.6,35.7Q57.4,26.7 57.7,35.7Q60.3,41.5 63.3,46Q62.6,46.8 61.5,47.5Q53.5,42.4 47.5,34.2Q45.8,34 44.1,34.4Q48,42.7 57.3,51.6Q61.6,55.6 58.6,56.9Q49.7,51.9 42.9,44.1Q35,35.1 29.9,42Q29.5,47.5 30.4,52.4Q31.2,56.6 8.7,53.7" fill="none" stroke="#e15600" stroke-width="2.6"></path><path d="M7.4,54.2Q7.5,54.3 7.4,54.3Q7.3,54.3 7.3,54.2Q7.3,54.1 7.4,54.1Q7.5,54.1 7.5,54.2" fill="none" stroke="#e15600" stroke-width="1.5"></path><path d="M6.5,55Q6.6,55.1 6.5,55.1Q6.4,55.1 6.4,55Q6.4,54.9 6.5,54.9Q6.6,54.9 6.6,55" fill="none" stroke="#e15600" stroke-width="1.5"></path><path d="M4.7,60.3Q7.4,89.8 4.2,91.9Q2.3,89.5 1.2,85.7" fill="none" stroke="#e15600" stroke-width="1.9"></path><path d="M3,88.4Q9.4,99 7.6,100Q2.7,96.9 -1,91.9" fill="none" stroke="#e15600" stroke-width="2.4"></path><path d="M-1.8,92.8Q-1.7,92.9 -1.8,92.9Q-1.9,92.9 -1.9,92.8Q-1.9,92.7 -1.8,92.7Q-1.7,92.7 -1.7,92.8" fill="none" stroke="#e15600" stroke-width="1.5"></path><path d="M-1.8,93.6Q-1.7,93.7 -1.8,93.7Q-1.9,93.7 -1.9,93.6Q-1.9,93.5 -1.8,93.5Q-1.7,93.5 -1.7,93.6" fill="none" stroke="#e15600" stroke-width="1.5"></path><path d="M-1.4,96.7q3.7,14.8 .8,13.9q-3.2-1.1 -10.4-29.1q-5.4-21.3 8-20.1q6.1,2.9 10.8,6.1q.9-1.8 1.2-4.8q10.2-1 22.3,2.6q9.1,2.8 21-1.3q.8-1.2 1.1-2.4" fill="none" stroke="#e15600" stroke-width="2.8"></path><path d="M59.1,50.2Q72.9,49.8 99.9,53.5Q119.9,56.2 109.4,43.4Q109.3,43.1 109.3,42.8Q116,45.5 124.3,52.8Q127.3,55.5 128.1,53.9Q126,46.2 121.9,39.8Q117.4,32.8 126.9,34.4Q139.1,41.4 148.4,48.8Q149.8,50 143.4,43.5Q125.5,25.3 124,20.6Q123.1,17.7 148,34.5Q169.3,48.9 167.7,38.7Q157.3,22.9 145.8,11.2Q138.5,3.8 142.3,-2.9Q143.8,-5.7 170.6,15.4Q186.7,28 186.7,27.9" fill="none" stroke="#e15600" stroke-width="2.4"></path><path d="M-138.9,98.5q.07,.07 0,.07q-.07,0 -.07-.07q0-.07 .07-.07q.07,0 .07,.07" fill="none" stroke="#e15600" stroke-width=".7"></path><path d="M-111.7,145.9q-1,6.2 -4.4,12.8q-.3,.4 -.5,.7" fill="none" stroke="#e15600" stroke-width="1.3"></path><path d="M-107.9,145.6q-2.2,7.8 -2,7.8q2.2-.2 4-.6" fill="none" stroke="#e15600" stroke-width="1.5"></path><path d="M-103.7,151q3.2-2 2.1-2.7q-1.4-.9 -1,5q0,.2 .3,.8" fill="none" stroke="#e15600" stroke-width="1.3"></path><path d="M-99.6,149.2q.2,4 .5,3.6q.8-1.1 2.1-2.4" fill="none" stroke="#e15600" stroke-width="1.4"></path><path d="M-96,148.5q.1,3.8 .1,3.7q.6-1.9 3.1-1.2q.4,.5 .5,1" fill="none" stroke="#e15600" stroke-width="1.4"></path><path d="M-110.3,159.4q3.1,1.7 2.5,2.2q-3.1,2.6 -2.3,3q1.9-.3 3.6-1.2" fill="none" stroke="#e15600" stroke-width="1.4"></path><path d="M-104.4,162.1q2.8-1.8 2.4-3.7q-.3-1.5 -1.4,1.4q-1.6,4 .9,4.2q.6-.6 1.1-1.4" fill="none" stroke="#e15600" stroke-width="1.4"></path><path d="M-99.3,158.6q.1,6.4 2.3,3.7q.3-.3 .9-1.7" fill="none" stroke="#e15600" stroke-width="1.5"></path><path d="M-91.2,158.9q-3.6,2 -4.1,5.3q-.3,1.5 4-2.9q2.5-2.5 2.1-.4q-3.6,3.7 -7.6,6" fill="none" stroke="#e15600" stroke-width="1.5"></path><path d="M232.8,194.8q-4.1,23.5 -1.1,27.2q2,2.5 15.4-24q2.5-4.9 3.1-4.6q-.1,8.9 -3.8,17.8q-4,9.7 4.2,9.5q6.5-5.6 10.9-12.3" fill="none" stroke="#e15600" stroke-width="2.8"></path><path d="M275.7,212.6q-1-1.8 -3.7-.7q-5.2,2.1 -4.6,9.9q.4,4.3 5.3,.1q4.6-3.8 4.2-13.8q-.1-2.7 -1.7,4.7q-.5,2.4 -1.2,12.5" fill="none" stroke="#e15600" stroke-width="2.7"></path><path d="M286.7,192.4q-4,35.3 -2.6,40.7q.6,2.3 4.7-11.7" fill="none" stroke="#e15600" stroke-width="2.5"></path><path d="M303,210.8q-5.7,1.1 -8.7,6.6q-2.9,5.4 1.4,11q4.3,5.7 11.2-19.2q1.1-6.9 1.7-12.6" fill="none" stroke="#e15600" stroke-width="2.5"></path><path d="M208.4,276.4q-4.9-2.1 -8.7,3.7q-4.2,6.3 3,13.7q5.5,5.5 9.6-6.9q2.1-6.5 -6.7-11.3" fill="none" stroke="#e15600" stroke-width="3.6"></path><path d="M227.5,265.8q-2.7,14.2 -5.1,25.8" fill="none" stroke="#e15600" stroke-width="3.5"></path><path d="M233,269.4q1.5,8.9 -2.4,22.2" fill="none" stroke="#e15600" stroke-width="3.6"></path><path d="M222,280.7q21.1,7.2 19.2,4.7" fill="none" stroke="#e15600" stroke-width="3.6"></path><path d="M241.2,285.8q7.7,.7 8.5-5.1q.3-2.1 -2-1.6q-2.2,.4 -2.5,9.3q0,.6 2.2,2" fill="none" stroke="#e15600" stroke-width="3.5"></path><path d="M259.1,277.9q-4.3,8.1 -8.2,14.5" fill="none" stroke="#e15600" stroke-width="2.8"></path><path d="M251.3,284.6q5,7.4 7,7.4" fill="none" stroke="#e15600" stroke-width="2.9"></path><path d="M261.9,286.1q11.6,3.9 14.2-2.1q1.9-4.6 -3.3-5q-3.6-.4 -5.5,12.4q-.9,5.9 3.5,2.9" fill="none" stroke="#e15600" stroke-width="3.5"></path><path d="M417.3,-11.7q2.3,23 -.7,16.2" fill="none" stroke="#e15600" stroke-width="2.4"></path><path d="M415.4,-2.6Q420.8,-3 425.2,-3.4" fill="none" stroke="#e15600" stroke-width="2.2"></path><path d="M420.5,-4.6Q423.3,.7 425.7,5" fill="none" stroke="#e15600" stroke-width="2.2"></path><path d="M434.2,1.5Q435,-.9 434,-.2Q432.5,.7 433.1,5.1Q433.4,7.7 436.7,.8Q437.3,.7 437.9,.8Q438.9,1 437.2,5.4" fill="none" stroke="#e15600" stroke-width="2.3"></path><path d="M440.1,.5Q441,3.3 441.8,5.6Q444.7,4.6 447.8,1.8Q448.5,3.4 448.7,5.9" fill="none" stroke="#e15600" stroke-width="2.3"></path><path d="M454.6,.5Q454.1,12.9 454.4,12.6Q457.3,9.6 459.4,7.1Q460.7,5.5 461.6,7.4Q459,9.1 455.3,9.9" fill="none" stroke="#e15600" stroke-width="2.2"></path><path d="M468.1,-.7Q470.5,-5.1 469.4,-5.6Q468.8,-5.8 467.1,9.6" fill="none" stroke="#e15600" stroke-width="1.9"></path><path d="M463.7,5.7Q467.2,5.8 472.5,3.2" fill="none" stroke="#e15600" stroke-width="2"></path><path d="M477.6,-4.6Q477.1,2.7 476.4,8.6" fill="none" stroke="#e15600" stroke-width="2.3"></path><path d="M476.7,6.2Q479.8,5.3 482.3,4.5" fill="none" stroke="#e15600" stroke-width="1.9"></path><path d="M479.6,4.2Q481.1,8.7 483.3,9.9" fill="none" stroke="#e15600" stroke-width="1.7"></path><path d="M487.7,2.5Q489.5,11.5 490.6,8Q491.2,6.1 491.6,4.5" fill="none" stroke="#e15600" stroke-width="2"></path><path d="M495.3,6.2Q495.6,11.7 496.5,10.9Q502.8,5.5 502.4,9.4" fill="none" stroke="#e15600" stroke-width="2"></path><path d="M508.8,4.5Q509.6,3 508.4,3.4Q504.5,4.6 507.6,9Q508.5,9.7 509.3,10.1Q508.6,11.2 507.1,12.1" fill="none" stroke="#e15600" stroke-width="1.9"></path><path d="M516.4,-3.9Q518.9,7.7 517.4,10.3" fill="none" stroke="#e15600" stroke-width="1.9"></path><path d="M514.2,5Q519,3 522.8,1" fill="none" stroke="#e15600" stroke-width="1.9"></path><path d="M445.8,28q11.4-8.8 13.4-9.1q2.2-.3 -3.6,15.7" fill="none" stroke="#e15600" stroke-width="2.1"></path><path d="M448.2,26.3q15.7,6.6 14.5,3.7" fill="none" stroke="#e15600" stroke-width="2.3"></path><path d="M469.1,18.2q1.1,13.8 -.5,15.9" fill="none" stroke="#e15600" stroke-width="2.1"></path><path d="M467.6,27.5q4.2-.7 7.6-1.2" fill="none" stroke="#e15600" stroke-width="2.1"></path><path d="M471,27q3.2,5 5.7,4.9" fill="none" stroke="#e15600" stroke-width="2.1"></path><path d="M481.8,29.5q5,.2 6-2.4q1.1-2.9 -3-2.2q-3.9,.7 -2.6,8.7q.3,1.4 6.1-6.1q1.7-2.2 1,2.9q-.3,1.6 -.6,2.8" fill="none" stroke="#e15600" stroke-width="2.1"></path><path d="M496.3,28q-.1-2 -1.6-1.4q-2.2,.8 -3.1,6.5q-.2,1.6 1.4,.9q3.9-6.2 6-12.4" fill="none" stroke="#e15600" stroke-width="2.1"></path><path d="M501.9,29.5q1.3,1.3 3.8-.6q3.2-2.6 .7-3.6q-2.1-.9 -4,7.7q-.7,3.1 1.4,3q1-1.4 1.6-3.1" fill="none" stroke="#e15600" stroke-width="1.8"></path><path d="M509,28.5q-.4,3.3 -.9,6q1.1-.9 2.5-2.8q.7,.1 1.3,.4q.7,0 1.4-.2q.6,.6 .9,1.5" fill="none" stroke="#e15600" stroke-width="1.9"></path><path d="M516.9,26.5q.1,4.5 .2,8.1" fill="none" stroke="#e15600" stroke-width="1.9"></path><path d="M518.6,23.3q.2,.4 1.2,2" fill="none" stroke="#e15600" stroke-width="2.1"></path><path d="M520.6,30.9q3.3,.1 4.5-2.2q1.4-2.8 -.8-3q-1.2-.2 -1.3,7.4q0,2.1 1.5,2.6q.3-.9 .2-2.1" fill="none" stroke="#e15600" stroke-width="1.8"></path><path d="M34,-686.3q-10.9,9.9 -6.5,17.6q4.5,4.1 8.6,6.9q4,2.7 -10.5,7q-1.6,.5 -8.4,.8" fill="none" stroke="#e15600" stroke-width="3.9"></path><path d="M43.8,-669.2q-4.8,6.2 -4.1,12.4q1.4,10.7 11.1-3.8" fill="none" stroke="#e15600" stroke-width="3.7"></path><path d="M55.3,-687.6q-.2,18.1 .5,24.1q.3,2.8 5.7-1.4q5.1-3.9 7.3,10.5" fill="none" stroke="#e15600" stroke-width="3.5"></path><path d="M85.6,-683.5q1.5,1.5 -1.9,9q-10.6,24.2 1.2,25.7q2.3,.2 5.6-10.1" fill="none" stroke="#e15600" stroke-width="3.6"></path><path d="M102.3,-672.4q-6.2,5.5 -7.4,12.3q-1.3,7.4 4.6,4.8q5-2.1 .8-18.8" fill="none" stroke="#e15600" stroke-width="2.8"></path><path d="M120.8,-676.1q-9.7,4.5 -7,9.3q2,1.6 3.9,2.6q-2.6,1.6 -7.2,2.8" fill="none" stroke="#e15600" stroke-width="3.5"></path><path d="M135.1,-674.1q-5.7-.1 -7.2,2.8q-.6,6.5 -.2,12" fill="none" stroke="#e15600" stroke-width="3.2"></path><path d="M-712.3,-517.7q-2.3-8.4 -7.8-2.6q-5.4,5.7 -1.7,18.2q1.9,6.7 9.9-7.3q-.6,5.1 -2.8,14" fill="none" stroke="#e15600" stroke-width="3.8"></path><path d="M-703.5,-506.2q-2.9,8.2 -1.1,8q1.8-3.4 2.3-7.2" fill="none" stroke="#e15600" stroke-width="3.4"></path><path d="M-691.5,-524.5q1,16.8 0,21.5" fill="none" stroke="#e15600" stroke-width="3.3"></path><path d="M-697.1,-514.1q13.3,3.8 12.4,.8" fill="none" stroke="#e15600" stroke-width="3.2"></path><path d="M-678.7,-530.1q-.1,21.3 -2,26.3" fill="none" stroke="#e15600" stroke-width="2.9"></path><path d="M-681.5,-514.5q11.9,3.8 10,0" fill="none" stroke="#e15600" stroke-width="3.4"></path><path d="M-666.3,-511q5.8-1.4 5.6-6q-.1-2.1 -1.9-1q-4.6,2.8 .7,14.7" fill="none" stroke="#e15600" stroke-width="2.9"></path><path d="M-656.3,-518.1q.3,12.5 2.8,11.1q1.1-.7 8-10.7" fill="none" stroke="#e15600" stroke-width="2.9"></path><path d="M-708.3,-515.7q.4,0 .8,0" fill="none" stroke="#e15600" stroke-width="1.8"></path><path d="M-705.1,-516.5q.2,.1 1.2,.4" fill="none" stroke="#e15600" stroke-width="3.2"></path><path d="M-629.2,-518.5q-6.8,1.6 -6.7,2.6q2,2.1 4.4,3.5q3.2,1.9 -6.8,4.6" fill="none" stroke="#e15600" stroke-width="3.5"></path><path d="M-619.6,-516.9q-2.4,.1 -3.1,3.4q-1,4.3 1.6,5q3.9-6.2 5.3-14.8q.1,5.2 -.2,14.7" fill="none" stroke="#e15600" stroke-width="3.5"></path><path d="M-601.2,-522.1q-16.8,19.1 -4.2,16.5q3.2-6.2 4-13.1q.6,5.1 1,14.5" fill="none" stroke="#e15600" stroke-width="3.9"></path><path d="M-590.4,-537.7q.7,16.8 1,30.5" fill="none" stroke="#e15600" stroke-width="3.8"></path><path d="M-205.2,-275.8q-6,5.1 -8,13.5q-2.8,12 5.2,11.7q2.1-.1 3.9-8.1q-1,3.1 -2.8,9.1" fill="none" stroke="#e15600" stroke-width="2.6"></path><path d="M-193.9,-256.5q.9,.5 -.6,1.2q-5.5,2.6 -1.2,7.4q1.2,1.3 2.2-5.8q-.1-1.7 -.4-3.1" fill="none" stroke="#e15600" stroke-width="2.5"></path><path d="M-188.9,-257q.6,7.8 1,7.3q3-3.2 3.7-3.1q1.1,2.6 1.1,5.7" fill="none" stroke="#e15600" stroke-width="2.3"></path><path d="M-171.5,-256.8q-.5-4.3 -3.9,2.1q-3.2,5.9 -.5,11.5q1.3,2.6 8.9-27.6q.1-.5 2-1.9" fill="none" stroke="#e15600" stroke-width="2.4"></path><path d="M-167.4,-250.1q3.9-.7 6.3-4q2.5-3.6 .5-6.2q-1.8-2.4 -2.7,6.9q-.5,5.4 2.5,9.4q.4,.5 1.7-2.6" fill="none" stroke="#e15600" stroke-width="2.4"></path><path d="M-150,-271.4q1.2-.7 .9,2.4q-1.7,21.1 -1,25.9q.7,.5 1.5,.7q1.2,.3 .5-6.1" fill="none" stroke="#e15600" stroke-width="2.2"></path><path d="M-208,-236.9q-6.2,22.9 -8.5,26.2" fill="none" stroke="#e15600" stroke-width="2.6"></path><path d="M-209.9,-232.2q7,6.2 6.7,10q-.3,4.7 -7.1,2.6q1-.2 2.7-.3q4.9-.2 1.2,6.2q-1,1.7 -7.9,2.8" fill="none" stroke="#e15600" stroke-width="2.6"></path><path d="M-193.3,-217.6q3.1-4.1 1.9-5.9q-1.9-2.6 -4,6q-2,7.8 3.9,8.7q1.1,.1 3.4-4.6" fill="none" stroke="#e15600" stroke-width="2.3"></path><path d="M-183.4,-219.5q-2.2,10.7 -1.3,9.7q4.5-3.8 8.2-6.9" fill="none" stroke="#e15600" stroke-width="2.2"></path><path d="M-166.3,-218.4q-4.9,2 -9.3,6.8q-8,8.6 -2,7.1q7.6-4.9 13.4-9.9q2-1.8 2.6,1.1q.8,4.3 -14.6,13q-1.1,.6 -6.1,1.5" fill="none" stroke="#e15600" stroke-width="2.4"></path><path d="M-514.6,113.9q7.1-5.7 12.9-10.3q1.7-1.4 -.1,4.4q-1.3,4.1 -5.7,9.5" fill="none" stroke="#e15600" stroke-width="1.6"></path><path d="M-513.9,108.6q3.5,3.6 7.5,4.7q2.5,.6 4-1.1" fill="none" stroke="#e15600" stroke-width="1.7"></path><path d="M-497.7,104.1q-3.2,11.2 -2.7,14.5q.3,2.2 3.7-2.4" fill="none" stroke="#e15600" stroke-width="1.7"></path><path d="M-489,105.2q-.7,7.2 -3.2,14.7" fill="none" stroke="#e15600" stroke-width="1.7"></path><path d="M-496,113q3.9,.8 6.9,.5q2.3-1 4.1-2.2" fill="none" stroke="#e15600" stroke-width="1.7"></path><path d="M-483.7,116.7q2.1-1.7 1.6-3.1q-.9-2.5 -2,2.6q-.7,3.1 1.9,4.7" fill="none" stroke="#e15600" stroke-width="1.8"></path><path d="M-478,113.3q-1.4,8.8 0,8.5q3.8-1.7 6.7-3.4" fill="none" stroke="#e15600" stroke-width="1.7"></path><path d="M-508.8,125q-.4,6.3 -3.8,15.3q-.2,.5 -1.3,2.5" fill="none" stroke="#e15600" stroke-width="1.9"></path><path d="M-502.4,126.9q-1.4,6.6 -4.4,10.7q-2.4,1.6 -4.6,2.7" fill="none" stroke="#e15600" stroke-width="1.7"></path><path d="M-514.3,136.7q5,1.6 16.1,1.7" fill="none" stroke="#e15600" stroke-width="1.7"></path><path d="M-489.6,137.1q-1.8-1.9 -5,.8q-4.5,3.9 -1.6,7.1q4.5-3.4 8.2-9.6q.3-.5 -.9,2.9q-1.7,4.1 -3.1,7.5" fill="none" stroke="#e15600" stroke-width="1.6"></path><path d="M-475.8,134.3q.3-2.8 -1.5-3.1q-3.3-.6 -7.9,16.1q-.2,.3 -.4,.6" fill="none" stroke="#e15600" stroke-width="1.6"></path><path d="M-486.7,140.7q5,2.1 10.5,1.1" fill="none" stroke="#e15600" stroke-width="1.8"></path><path d="M-476.5,145.4q6-2.7 7-6.7q.3-1.1 -1.1-.3q-3.7,2.5 -3.7,9.5q0,2.8 4.2-2.9" fill="none" stroke="#e15600" stroke-width="1.6"></path><path d="M-469,142q-1,4.8 -.5,4.9q2.6-1.2 4.6-3q1.6-1.4 3,2.5q-.5,1.7 -1.4,3.2" fill="none" stroke="#e15600" stroke-width="1.6"></path><path d="M651.5,328.5q.1,.1 0,.1q-.1,0 -.1-.1q0-.1 .1-.1q.1,0 .1,.1" fill="none" stroke="#e15600" stroke-width="1.4"></path><path d="M773.3,333.8q-5,21.4 -1.1,28.3q1.8,3.2 2.9-4.8" fill="none" stroke="#e15600" stroke-width="2.9"></path><path d="M779.1,353.9q6.3-3.7 2.8-5.3q-3.1-1.3 -3.5,11.1q-.1,3.3 2.6,1.9" fill="none" stroke="#e15600" stroke-width="2.6"></path><path d="M786.3,352.6q5-.2 5.9-3.8q1-4 -4.3,.2q-4.4,3.5 -.1,11.4q1.3,2.4 4.6-2.8" fill="none" stroke="#e15600" stroke-width="2.9"></path><path d="M796.8,348q-.2,12.1 1.2,10.7q2.4-2.6 4.3-4.8" fill="none" stroke="#e15600" stroke-width="2.7"></path><path d="M802.6,350.5q7.1,1.3 8.1-3q-.8,2.4 -2.1,7q-.8,2.8 1.5,2.2" fill="none" stroke="#e15600" stroke-width="2.7"></path><path d="M832.6,329.8q.2,14.8 .3,26.9" fill="none" stroke="#e15600" stroke-width="3.1"></path><path d="M835.7,345.8q1.7,11.4 3.7,8.7q5.4-7 6.6,.2q-.3,1.1 -.7,2" fill="none" stroke="#e15600" stroke-width="2.9"></path><path d="M856.1,348q-2.5,.7 -2,2.6q.9,3.4 -.2,5.1q-.6,.9 -4.9,2.5" fill="none" stroke="#e15600" stroke-width="2.5"></path><path d="M860.1,352q2.6-3 1.2-3.6q-3.7-1.6 -1.4,7.7q.8,3.5 4.6-1.3" fill="none" stroke="#e15600" stroke-width="2.7"></path><path d="M869.1,327.9q.1,3.8 -1.2,12.7q-1.3,9.4 -.3,20.9" fill="none" stroke="#e15600" stroke-width="2.6"></path></svg>