<svg version="1.1" xmlns="http://www.w3.org/2000/svg" xmlns:xlink="http://www.w3.org/1999/xlink" width="797.21205" height="450.96965" viewBox="0,0,797.21205,450.96965"><defs><radialGradient cx="960.45602" cy="316.29906" r="36.90576" gradientUnits="userSpaceOnUse" id="color-1"><stop offset="0" stop-color="#a86922"/><stop offset="1" stop-color="#663d1e"/></radialGradient><linearGradient x1="955.45602" y1="316.29906" x2="965.45602" y2="316.29906" gradientUnits="userSpaceOnUse" id="color-2"><stop offset="0" stop-color="#a86922"/><stop offset="1" stop-color="#663d1e"/></linearGradient><radialGradient cx="950.93373" cy="538.12422" r="234.16007" gradientUnits="userSpaceOnUse" id="color-3"><stop offset="0" stop-color="#369b00"/><stop offset="1" stop-color="#00f208"/></radialGradient><radialGradient cx="954.9616" cy="447.32866" r="192.47124" gradientUnits="userSpaceOnUse" id="color-4"><stop offset="0" stop-color="#3747ff"/><stop offset="1" stop-color="#5729c9"/></radialGradient><radialGradient cx="958.71348" cy="715.96299" r="139.1946" gradientUnits="userSpaceOnUse" id="color-5"><stop offset="0" stop-color="#3747ff"/><stop offset="1" stop-color="#5729c9"/></radialGradient><linearGradient x1="561.39399" y1="566.65997" x2="1358.60604" y2="566.65997" gradientUnits="userSpaceOnUse" id="color-6"><stop offset="0" stop-color="#3a3a3a"/><stop offset="1" stop-color="#000000"/></linearGradient><radialGradient cx="960.00001" cy="299.31233" r="11.80774" gradientUnits="userSpaceOnUse" id="color-7"><stop offset="0" stop-color="#227f31"/><stop offset="1" stop-color="#135421"/></radialGradient></defs><g transform="translate(-561.39399,-287.50459)"><g data-paper-data="{&quot;isPaintingLayer&quot;:true}" fill-rule="nonzero" stroke-linejoin="miter" stroke-miterlimit="10" stroke-dasharray="" stroke-dashoffset="0" style="mix-blend-mode: normal"><path d="M960.04688,306.29449l-0.21638,46.91032" fill="url(#color-1)" stroke="url(#color-2)" stroke-width="10" stroke-linecap="round"/><path d="M716.77366,538.12422c0,-108.43106 104.83704,-196.33181 234.16007,-196.33181c129.32304,0 234.16007,87.90075 234.16007,196.33181c0,108.43106 -104.83704,196.33181 -234.16007,196.33181c-129.32304,0 -234.16007,-87.90075 -234.16007,-196.33181z" fill="url(#color-3)" stroke="none" stroke-width="0" stroke-linecap="butt"/><path d="M1179.75447,492.56327c14.97789,42.28197 -157.44405,60.5683 -224.79286,60.5683c-80.18399,0 -93.8168,-5.64334 -186.90206,-25.3205c-13.45395,-7.63055 -49.84131,-12.85018 -49.84131,-27.20576c0,-29.12126 36.90073,-82.98406 82.56264,-115.39112c45.96108,-32.6194 100.85772,-43.68842 154.18074,-43.68842c71.91185,0 154.28956,30.32349 191.62787,84.44649c22.69311,32.89434 24.54943,42.26964 33.16499,66.59102z" fill="url(#color-4)" stroke="none" stroke-width="0" stroke-linecap="butt"/><path d="M958.71348,738.47424c-76.87505,0 -183.46673,-50.59889 -183.46673,-63.03152c0,-4.93645 22.80752,4.39012 47.88404,8.38284c38.07969,6.0631 83.22832,5.12391 129.5797,5.12391c37.37581,0 94.47768,-2.7753 127.86749,-7.28284c35.28679,-4.76363 45.84436,-11.11118 45.84436,-4.72316c0,12.43263 -90.83381,61.53077 -167.70886,61.53077z" fill="url(#color-5)" stroke="none" stroke-width="0" stroke-linecap="butt"/><path d="M1358.60604,551.17585c0,11.59537 -14.42773,35.61036 -55.26282,53.40094c-82.04325,35.7437 -236.127,67.07548 -330.23635,67.07548c-73.01878,0 -219.9945,-16.74656 -306.56912,-44.97228c-44.10193,-14.37845 -85.93624,-42.09855 -101.74075,-61.11045c-6.45326,-7.76289 -1.74592,-18.05274 -1.74592,-19.16858c0,-4.15937 7.60104,-16.13505 29.77237,-29.57416c37.60873,-22.79646 101.44433,-49.3919 130.22682,-49.99038c0.57924,-0.01204 4.92824,-0.30463 5.47859,-0.29538c1.31303,0.02208 -19.69809,43.70319 -0.16716,52.56973c23.07562,10.47573 40.22143,16.30976 76.54815,23.66966c55.97139,11.33997 131.57373,14.79486 172.97191,14.79486c63.42981,0 160.01896,-15.40026 202.65643,-42.85764c5.23984,-6.82818 -2.55724,-29.34541 -12.19395,-52.872c25.02915,6.2295 99.09523,19.41617 142.59229,43.46035c32.8834,18.17719 47.66951,40.53866 47.66951,45.86987z" fill="url(#color-6)" stroke="none" stroke-width="0" stroke-linecap="butt"/><path d="M948.19227,299.31233c0,-6.52123 5.28651,-11.80774 11.80774,-11.80774c6.52124,0 11.80774,5.28651 11.80774,11.80774c0,6.52123 -5.2865,11.80774 -11.80774,11.80774c-6.52124,0 -11.80774,-5.28651 -11.80774,-11.80774z" fill="url(#color-7)" stroke="#000000" stroke-width="0" stroke-linecap="butt"/></g></g></svg>