<svg version="1.1" xmlns="http://www.w3.org/2000/svg" xmlns:xlink="http://www.w3.org/1999/xlink" width="351.45999" height="182.0098" viewBox="0,0,351.45999,182.0098"><defs><radialGradient cx="1076.00321" cy="564.18614" r="66.81876" gradientUnits="userSpaceOnUse" id="color-1"><stop offset="0" stop-color="#07a900"/><stop offset="1" stop-color="#00ff18"/></radialGradient><linearGradient x1="1116.53194" y1="455.40661" x2="1071.60061" y2="576.22111" gradientUnits="userSpaceOnUse" id="color-2"><stop offset="0" stop-color="#ffa500"/><stop offset="1" stop-color="#ff8000"/></linearGradient><radialGradient cx="1013.48582" cy="564.18614" r="66.81876" gradientUnits="userSpaceOnUse" id="color-3"><stop offset="0" stop-color="#07a900"/><stop offset="1" stop-color="#00ff18"/></radialGradient><linearGradient x1="1054.01455" y1="455.40661" x2="1009.08322" y2="576.22111" gradientUnits="userSpaceOnUse" id="color-4"><stop offset="0" stop-color="#ffa500"/><stop offset="1" stop-color="#ff8000"/></linearGradient><radialGradient cx="950.96845" cy="564.18614" r="66.81876" gradientUnits="userSpaceOnUse" id="color-5"><stop offset="0" stop-color="#07a900"/><stop offset="1" stop-color="#00ff18"/></radialGradient><linearGradient x1="991.49718" y1="455.40661" x2="946.56585" y2="576.22111" gradientUnits="userSpaceOnUse" id="color-6"><stop offset="0" stop-color="#ffa500"/><stop offset="1" stop-color="#ff8000"/></linearGradient><radialGradient cx="888.45108" cy="564.18614" r="66.81876" gradientUnits="userSpaceOnUse" id="color-7"><stop offset="0" stop-color="#07a900"/><stop offset="1" stop-color="#00ff18"/></radialGradient><linearGradient x1="928.97981" y1="455.40661" x2="884.04848" y2="576.22111" gradientUnits="userSpaceOnUse" id="color-8"><stop offset="0" stop-color="#ffa500"/><stop offset="1" stop-color="#ff8000"/></linearGradient><radialGradient cx="825.93372" cy="564.18614" r="66.81876" gradientUnits="userSpaceOnUse" id="color-9"><stop offset="0" stop-color="#07a900"/><stop offset="1" stop-color="#00ff18"/></radialGradient><linearGradient x1="866.46245" y1="455.40661" x2="821.53112" y2="576.22111" gradientUnits="userSpaceOnUse" id="color-10"><stop offset="0" stop-color="#ffa500"/><stop offset="1" stop-color="#ff8000"/></linearGradient></defs><g transform="translate(-784.27,-448.9951)"><g data-paper-data="{&quot;isPaintingLayer&quot;:true}" fill-rule="nonzero" stroke="none" stroke-width="0" stroke-linecap="butt" stroke-linejoin="miter" stroke-miterlimit="10" stroke-dasharray="" stroke-dashoffset="0" style="mix-blend-mode: normal"><g><path d="M1037.06814,618.46837c-2.07058,-0.77005 -3.20612,-2.85438 -2.53629,-4.65546l42.50567,-114.29222c0.66983,-1.80108 2.89137,-2.63689 4.96195,-1.86683l32.93881,12.25005c2.07058,0.77005 3.20612,2.85438 2.53629,4.65546l-42.50568,114.29222c-0.66983,1.80108 -2.89137,2.63689 -4.96195,1.86683z" fill="url(#color-1)"/><path d="M1055.13121,570.09608c-2.07058,-0.77006 -3.20612,-2.85437 -2.53629,-4.65545l42.50568,-114.29222c0.66983,-1.80108 2.89137,-2.63689 4.96195,-1.86683l32.9388,12.25006c2.07058,0.77006 3.20612,2.85437 2.53629,4.65545l-42.50568,114.29222c-0.66983,1.80108 -2.89137,2.63689 -4.96195,1.86683z" fill="url(#color-2)"/></g><g><path d="M974.55075,618.46837c-2.07058,-0.77005 -3.20612,-2.85438 -2.53629,-4.65546l42.50567,-114.29222c0.66983,-1.80108 2.89137,-2.63689 4.96195,-1.86683l32.93881,12.25005c2.07058,0.77005 3.20612,2.85438 2.53629,4.65546l-42.50568,114.29222c-0.66983,1.80108 -2.89137,2.63689 -4.96195,1.86683z" fill="url(#color-3)"/><path d="M992.61382,570.09608c-2.07058,-0.77006 -3.20612,-2.85437 -2.53629,-4.65545l42.50568,-114.29222c0.66983,-1.80108 2.89137,-2.63689 4.96195,-1.86683l32.9388,12.25006c2.07058,0.77006 3.20612,2.85437 2.53629,4.65545l-42.50568,114.29222c-0.66983,1.80108 -2.89137,2.63689 -4.96195,1.86683z" fill="url(#color-4)"/></g><g><path d="M912.03338,618.46837c-2.07058,-0.77005 -3.20612,-2.85438 -2.53629,-4.65546l42.50567,-114.29222c0.66983,-1.80108 2.89137,-2.63689 4.96195,-1.86683l32.93881,12.25005c2.07058,0.77005 3.20612,2.85438 2.53629,4.65546l-42.50568,114.29222c-0.66983,1.80108 -2.89137,2.63689 -4.96195,1.86683z" fill="url(#color-5)"/><path d="M930.09645,570.09608c-2.07058,-0.77006 -3.20612,-2.85437 -2.53629,-4.65545l42.50568,-114.29222c0.66983,-1.80108 2.89137,-2.63689 4.96195,-1.86683l32.9388,12.25006c2.07058,0.77006 3.20612,2.85437 2.53629,4.65545l-42.50568,114.29222c-0.66983,1.80108 -2.89137,2.63689 -4.96195,1.86683z" fill="url(#color-6)"/></g><g><path d="M849.51601,618.46837c-2.07058,-0.77005 -3.20612,-2.85438 -2.53629,-4.65546l42.50567,-114.29222c0.66983,-1.80108 2.89137,-2.63689 4.96195,-1.86683l32.93881,12.25005c2.07058,0.77005 3.20612,2.85438 2.53629,4.65546l-42.50568,114.29222c-0.66983,1.80108 -2.89137,2.63689 -4.96195,1.86683z" fill="url(#color-7)"/><path d="M867.57908,570.09608c-2.07058,-0.77006 -3.20612,-2.85437 -2.53629,-4.65545l42.50568,-114.29222c0.66983,-1.80108 2.89137,-2.63689 4.96195,-1.86683l32.9388,12.25006c2.07058,0.77006 3.20612,2.85437 2.53629,4.65545l-42.50568,114.29222c-0.66983,1.80108 -2.89137,2.63689 -4.96195,1.86683z" fill="url(#color-8)"/></g><g><path d="M786.99865,618.46837c-2.07058,-0.77005 -3.20612,-2.85438 -2.53629,-4.65546l42.50567,-114.29222c0.66983,-1.80108 2.89137,-2.63689 4.96195,-1.86683l32.93881,12.25005c2.07058,0.77005 3.20612,2.85438 2.53629,4.65546l-42.50568,114.29222c-0.66983,1.80108 -2.89137,2.63689 -4.96195,1.86683z" fill="url(#color-9)"/><path d="M805.06172,570.09608c-2.07058,-0.77006 -3.20612,-2.85437 -2.53629,-4.65545l42.50568,-114.29222c0.66983,-1.80108 2.89137,-2.63689 4.96195,-1.86683l32.9388,12.25006c2.07058,0.77006 3.20612,2.85437 2.53629,4.65545l-42.50568,114.29222c-0.66983,1.80108 -2.89137,2.63689 -4.96195,1.86683z" fill="url(#color-10)"/></g></g></g></svg>