<svg version="1.1" xmlns="http://www.w3.org/2000/svg" xmlns:xlink="http://www.w3.org/1999/xlink" width="49.53846" height="49.53846" viewBox="0,0,49.53846,49.53846"><g transform="translate(-935.23077,-515.23077)"><g data-paper-data="{&quot;isPaintingLayer&quot;:true}" fill-rule="nonzero" stroke-linecap="butt" stroke-linejoin="miter" stroke-miterlimit="10" stroke-dasharray="" stroke-dashoffset="0" style="mix-blend-mode: normal"><path d="M937.73077,540c0,-12.29895 9.97028,-22.26923 22.26923,-22.26923c12.29895,0 22.26923,9.97028 22.26923,22.26923c0,12.29895 -9.97028,22.26923 -22.26923,22.26923c-12.29895,0 -22.26923,-9.97028 -22.26923,-22.26923z" fill="none" stroke="#000000" stroke-width="5"/><path d="M940.56569,540.03938v-0.07876h38.86861v0.07876z" fill="none" stroke="#000000" stroke-width="5"/><path d="M959.99693,558.99635v-37.9927h0.00614v37.9927z" fill="none" stroke="#000000" stroke-width="5"/><path d="M937.30099,539.48825c0,-12.57421 10.19341,-22.76762 22.76762,-22.76762c12.57421,0 22.76762,10.19341 22.76762,22.76762c0,12.57421 -10.19341,22.76762 -22.76762,22.76762c-12.57421,0 -22.76762,-10.19341 -22.76762,-22.76762z" fill-opacity="0.01176" fill="#000000" stroke="none" stroke-width="0"/></g></g></svg>