<svg version="1.1" xmlns="http://www.w3.org/2000/svg" xmlns:xlink="http://www.w3.org/1999/xlink" width="686.62263" height="194.42474" viewBox="0,0,686.62263,194.42474"><defs><linearGradient x1="949.99672" y1="651.85932" x2="949.99672" y2="836.27676" gradientUnits="userSpaceOnUse" id="color-1"><stop offset="0" stop-color="#00b14a"/><stop offset="1" stop-color="#4c74b5"/></linearGradient><linearGradient x1="1330.14005" y1="478.23933" x2="1330.14005" y2="604.28918" gradientTransform="translate(-351.39478,-209.65956) scale(0.36604,0.36604)" gradientUnits="userSpaceOnUse" id="color-2"><stop offset="0" stop-color="#00b14a"/><stop offset="1" stop-color="#4c74b5"/></linearGradient></defs><g transform="translate(-616.68869,-442.7832)"><g data-paper-data="{&quot;isPaintingLayer&quot;:true}" fill-rule="nonzero" stroke-linecap="butt" stroke-linejoin="miter" stroke-miterlimit="10" stroke-dasharray="" stroke-dashoffset="0" style="mix-blend-mode: normal"><g fill="#1f1e54"><g stroke="#000000" stroke-width="10"><path d="M1271.44631,488.81989c19.82327,11.63231 26.86502,37.56291 26.86502,51.17842c0,18.9101 -6.29651,51.49569 -42.83711,66.12671c-60.81621,24.35108 -178.3463,26.03085 -296.13019,26.08077c0.1922,-13.78436 0.01591,-181.6034 -0.68397,-184.41159c137.41313,0.23582 259.16753,9.56218 312.78625,41.02569z"/><path d="M961.33997,447.79421c-0.69988,2.80818 -0.87617,170.62723 -0.68397,184.41159c-117.78389,-0.04993 -235.31398,-1.72969 -296.13019,-26.08078c-36.5406,-14.63102 -42.83711,-47.2166 -42.83711,-66.12671c0,-13.61551 7.04175,-39.54612 26.86501,-51.17842c53.61872,-31.46351 175.37313,-40.78986 312.78625,-41.02568z" data-paper-data="{&quot;index&quot;:null}"/></g><path d="M957.78415,627.23827c-2.04166,-0.51041 -4.63689,-0.04314 -6.125,-1.53125c-5.87337,-5.87337 -8.27232,-11.69661 -3.91324,-17.55184c0.18602,-3.84491 0.76043,-7.5416 1.12158,-10.25024c0.04452,-0.33388 0.06308,-0.71701 0.0678,-1.13359c-0.309,-3.6318 -0.05332,-7.8902 -0.0678,-9.01156c-0.01387,-1.07446 -1.5025,-1.29285 -1.80208,-2.06319c-0.76277,-1.96141 -1.36959,-4.02671 -1.53125,-6.125c-0.35208,-4.56979 -0.35208,-9.18021 0,-13.75c0.39619,-5.1424 4.45278,-9.63159 4.58333,-14.61774c0.15157,-5.7889 0.42232,-11.59718 0,-17.37264c-0.07222,-0.98766 -2.77578,-2.10597 -3.05208,-2.71795c-0.86598,-1.91808 -1.10343,-4.06444 -1.53125,-6.125c-0.60668,-2.92198 1.07595,-5.30088 2.26585,-7.5h-1.68252c-1.38071,0 -2.5,-1.11929 -2.5,-2.5c0,-1.25483 0.9245,-2.29375 2.12954,-2.47275l2.45947,-0.40991l0.01621,0.09724l0.18859,-0.12274c0.1591,0.00058 0.31718,-0.00105 0.47435,-0.00465c0.04085,-4.44605 0.09857,-8.89298 -0.01815,-13.3372c-0.04309,-1.64075 -0.94445,-3.14508 -1.34253,-4.73739c-0.38906,-1.55624 0.29505,-3.22023 0.09253,-4.81154c-1.17945,-9.26774 -2.92934,-19.74885 0.69792,-29.07607c0.42295,-1.08758 2.75526,-1.57986 3.40358,-2.51094c6.1656,-8.85465 15.87135,-5.22191 21.60524,1.90758c3.92954,4.88597 1.16764,6.97484 -0.79007,10.86098c-0.45537,0.90393 0.83435,3.50464 0.89941,3.76799c0.23055,0.93333 1.17277,13.08889 1.18392,14.18272c0.03822,3.7498 0.2624,7.50919 0,11.25c-0.12107,1.72597 -1.37176,3.35318 -1.12926,5.06632c0.2781,1.96458 1.20558,4.08518 1.20558,6.03515c0,1.02501 -0.0667,2.05669 -0.14687,3.08957c0.2041,0.36216 0.32055,0.7803 0.32055,1.22564c0,0.58036 -0.19776,1.11453 -0.52957,1.53881c-0.1088,1.81349 -0.11226,3.61547 0.27956,5.376c0.86775,0.58429 1.65664,1.27671 2.34735,2.05796c1.91005,2.16043 3.06932,5.00011 3.06932,8.11055c0,4.23524 -2.1493,7.9685 -5.41667,10.16853c-0.98234,3.85379 1.03065,8.07259 0.06608,11.93086c-1.63877,6.55507 -4.79722,13.63062 -4.64941,20.12909c0.0166,0.72978 0.67727,1.06355 0.96875,1.64652c1.1386,2.27719 2.15895,5.34645 2.36458,7.79167c0.32138,3.82167 0.33676,7.68186 0.04611,11.50721c0.00612,2.9516 -0.69758,5.90865 -0.87944,8.90946c-0.04245,0.70033 -0.06092,1.43852 -0.06727,2.20361c1.88067,2.49694 3.20367,5.39334 3.81727,7.37973c0.36219,1.17249 -1.29105,2.09226 -1.82652,3.19642c-1.37731,2.84006 -2.85754,7.60779 -5.96515,8.77233c-1.97068,0.73849 -4.08334,1.02084 -6.125,1.53125z" stroke="none" stroke-width="0.5"/></g><path d="" fill="#ff7c00" stroke="url(#color-1)" stroke-width="1"/><text transform="translate(960,572.78364) scale(2.73197,2.73197)" font-size="40" xml:space="preserve" fill="#f8ff66" fill-rule="nonzero" stroke="url(#color-2)" stroke-width="0" stroke-linecap="butt" stroke-linejoin="miter" stroke-miterlimit="10" stroke-dasharray="" stroke-dashoffset="0" font-family="Playful" font-weight="normal" text-anchor="middle" style="mix-blend-mode: normal"><tspan x="0" dy="0">Hauptmenü</tspan></text></g></g></svg>