<svg version="1.1" xmlns="http://www.w3.org/2000/svg" xmlns:xlink="http://www.w3.org/1999/xlink" width="1992.80566" height="1591.62821" viewBox="0,0,1992.80566,1591.62821"><defs><linearGradient x1="1640.1093" y1="983.97204" x2="1640.1093" y2="1134.3403" gradientUnits="userSpaceOnUse" id="color-1"><stop offset="0" stop-color="#498cff"/><stop offset="1" stop-color="#417ee5"/></linearGradient></defs><g transform="translate(50.66834,-212.0264)"><g data-paper-data="{&quot;isPaintingLayer&quot;:true}" fill-rule="nonzero" stroke-linejoin="miter" stroke-miterlimit="10" stroke-dasharray="" stroke-dashoffset="0" style="mix-blend-mode: normal"><path d="M1338.08127,1120.82679v-136.85475l598.05004,33.03304l6.00601,117.33522z" fill="url(#color-1)" stroke="none" stroke-width="0" stroke-linecap="butt"/><path d="" data-paper-data="{&quot;index&quot;:null}" fill="#bfff56" stroke="none" stroke-width="0" stroke-linecap="butt"/><path d="" data-paper-data="{&quot;index&quot;:null}" fill="#bfff56" stroke="none" stroke-width="0" stroke-linecap="butt"/><path d="" data-paper-data="{&quot;index&quot;:null}" fill="#bfff56" stroke="none" stroke-width="0" stroke-linecap="butt"/><path d="" data-paper-data="{&quot;index&quot;:null}" fill="#bfff56" stroke="none" stroke-width="0" stroke-linecap="butt"/><path d="" data-paper-data="{&quot;index&quot;:null}" fill="#bfff56" stroke="none" stroke-width="0" stroke-linecap="butt"/><path d="" data-paper-data="{&quot;index&quot;:null}" fill="#bfff56" stroke="none" stroke-width="0" stroke-linecap="butt"/><path d="" data-paper-data="{&quot;index&quot;:null}" fill="#bfff56" stroke="none" stroke-width="0" stroke-linecap="butt"/><path d="" data-paper-data="{&quot;index&quot;:null}" fill="#49d859" stroke="none" stroke-width="0" stroke-linecap="butt"/><path d="" data-paper-data="{&quot;index&quot;:null}" fill="#49d859" stroke="none" stroke-width="0" stroke-linecap="butt"/><path d="" data-paper-data="{&quot;index&quot;:null}" fill="#49d859" stroke="none" stroke-width="0" stroke-linecap="butt"/><path d="" data-paper-data="{&quot;index&quot;:null}" fill="#49d859" stroke="none" stroke-width="0" stroke-linecap="butt"/><path d="" data-paper-data="{&quot;index&quot;:null}" fill="#49d859" stroke="none" stroke-width="0" stroke-linecap="butt"/><path d="" data-paper-data="{&quot;index&quot;:null}" fill="#49d859" stroke="none" stroke-width="0" stroke-linecap="butt"/><path d="" data-paper-data="{&quot;index&quot;:null}" fill="#49d859" stroke="none" stroke-width="0" stroke-linecap="butt"/><path d="" data-paper-data="{&quot;index&quot;:null}" fill="#bfff56" stroke="none" stroke-width="0" stroke-linecap="butt"/><path d="" data-paper-data="{&quot;index&quot;:null}" fill="#bfff56" stroke="none" stroke-width="0" stroke-linecap="butt"/><path d="" data-paper-data="{&quot;index&quot;:null}" fill="#bfff56" stroke="none" stroke-width="0" stroke-linecap="butt"/><path d="" data-paper-data="{&quot;index&quot;:null}" fill="#bfff56" stroke="none" stroke-width="0" stroke-linecap="butt"/><path d="" data-paper-data="{&quot;index&quot;:null}" fill="#bfff56" stroke="none" stroke-width="0" stroke-linecap="butt"/><path d="" data-paper-data="{&quot;index&quot;:null}" fill="#bfff56" stroke="none" stroke-width="0" stroke-linecap="butt"/><path d="" data-paper-data="{&quot;index&quot;:null}" fill="#bfff56" stroke="none" stroke-width="0" stroke-linecap="butt"/><path d="" data-paper-data="{&quot;index&quot;:null}" fill="#53f35b" stroke="none" stroke-width="0" stroke-linecap="butt"/><path d="" data-paper-data="{&quot;index&quot;:null}" fill="#4ee656" stroke="none" stroke-width="0" stroke-linecap="butt"/><path d="" data-paper-data="{&quot;index&quot;:null}" fill="#53f35b" stroke="none" stroke-width="0" stroke-linecap="butt"/><path d="" data-paper-data="{&quot;index&quot;:null}" fill="#4ee656" stroke="none" stroke-width="0" stroke-linecap="butt"/><path d="" data-paper-data="{&quot;index&quot;:null}" fill="#53f35b" stroke="none" stroke-width="0" stroke-linecap="butt"/><path d="" data-paper-data="{&quot;index&quot;:null}" fill="#4ee656" stroke="none" stroke-width="0" stroke-linecap="butt"/><path d="" data-paper-data="{&quot;index&quot;:null}" fill="#4ee656" stroke="none" stroke-width="0" stroke-linecap="butt"/><path d="" data-paper-data="{&quot;index&quot;:null}" fill="#bfff56" stroke="none" stroke-width="0" stroke-linecap="butt"/><path d="" data-paper-data="{&quot;index&quot;:null}" fill="#bfff56" stroke="none" stroke-width="0" stroke-linecap="butt"/><path d="" data-paper-data="{&quot;index&quot;:null}" fill="#bfff56" stroke="none" stroke-width="0" stroke-linecap="butt"/><path d="" data-paper-data="{&quot;index&quot;:null}" fill="#bfff56" stroke="none" stroke-width="0" stroke-linecap="butt"/><path d="" data-paper-data="{&quot;index&quot;:null}" fill="#bfff56" stroke="none" stroke-width="0" stroke-linecap="butt"/><path d="" data-paper-data="{&quot;index&quot;:null}" fill="#bfff56" stroke="none" stroke-width="0" stroke-linecap="butt"/><path d="" data-paper-data="{&quot;index&quot;:null}" fill="#bfff56" stroke="none" stroke-width="0" stroke-linecap="butt"/><path d="" data-paper-data="{&quot;index&quot;:null}" fill="#6af754" stroke="none" stroke-width="0" stroke-linecap="butt"/><path d="" data-paper-data="{&quot;index&quot;:null}" fill="#6af754" stroke="none" stroke-width="0" stroke-linecap="butt"/><path d="" data-paper-data="{&quot;index&quot;:null}" fill="#6af754" stroke="none" stroke-width="0" stroke-linecap="butt"/><path d="" data-paper-data="{&quot;index&quot;:null}" fill="#6af754" stroke="none" stroke-width="0" stroke-linecap="butt"/><path d="" data-paper-data="{&quot;index&quot;:null}" fill="#8eff57" stroke="none" stroke-width="0" stroke-linecap="butt"/><path d="" data-paper-data="{&quot;index&quot;:null}" fill="#8eff57" stroke="none" stroke-width="0" stroke-linecap="butt"/><path d="" data-paper-data="{&quot;index&quot;:null}" fill="#8eff57" stroke="none" stroke-width="0" stroke-linecap="butt"/><path d="" data-paper-data="{&quot;index&quot;:null}" fill="#8eff57" stroke="none" stroke-width="0" stroke-linecap="butt"/><path d="" data-paper-data="{&quot;index&quot;:null}" fill="#8eff57" stroke="none" stroke-width="0" stroke-linecap="butt"/><path d="" data-paper-data="{&quot;index&quot;:null}" fill="#8eff57" stroke="none" stroke-width="0" stroke-linecap="butt"/><path d="" data-paper-data="{&quot;index&quot;:null}" fill="#8eff57" stroke="none" stroke-width="0" stroke-linecap="butt"/><path d="" data-paper-data="{&quot;index&quot;:null}" fill="#bfff56" stroke="none" stroke-width="0" stroke-linecap="butt"/><path d="" data-paper-data="{&quot;index&quot;:null}" fill="#bfff56" stroke="none" stroke-width="0" stroke-linecap="butt"/><path d="" data-paper-data="{&quot;index&quot;:null}" fill="#bfff56" stroke="none" stroke-width="0" stroke-linecap="butt"/><path d="" data-paper-data="{&quot;index&quot;:null}" fill="#bfff56" stroke="none" stroke-width="0" stroke-linecap="butt"/><path d="" data-paper-data="{&quot;index&quot;:null}" fill="#bfff56" stroke="none" stroke-width="0" stroke-linecap="butt"/><path d="" data-paper-data="{&quot;index&quot;:null}" fill="#bfff56" stroke="none" stroke-width="0" stroke-linecap="butt"/><path d="" data-paper-data="{&quot;index&quot;:null}" fill="#bfff56" stroke="none" stroke-width="0" stroke-linecap="butt"/><path d="" data-paper-data="{&quot;index&quot;:null}" fill="#bfff56" stroke="none" stroke-width="0" stroke-linecap="butt"/><path d="" data-paper-data="{&quot;index&quot;:null}" fill="#bfff56" stroke="none" stroke-width="0" stroke-linecap="butt"/><path d="" data-paper-data="{&quot;index&quot;:null}" fill="#bfff56" stroke="none" stroke-width="0" stroke-linecap="butt"/><path d="" data-paper-data="{&quot;index&quot;:null}" fill="#bfff56" stroke="none" stroke-width="0" stroke-linecap="butt"/><path d="" data-paper-data="{&quot;index&quot;:null}" fill="#bfff56" stroke="none" stroke-width="0" stroke-linecap="butt"/><path d="" data-paper-data="{&quot;index&quot;:null}" fill="#bfff56" stroke="none" stroke-width="0" stroke-linecap="butt"/><path d="" data-paper-data="{&quot;index&quot;:null}" fill="#bfff56" stroke="none" stroke-width="0" stroke-linecap="butt"/><path d="" data-paper-data="{&quot;index&quot;:null}" fill="#49d859" stroke="none" stroke-width="0" stroke-linecap="butt"/><path d="" data-paper-data="{&quot;index&quot;:null}" fill="#49d859" stroke="none" stroke-width="0" stroke-linecap="butt"/><path d="" data-paper-data="{&quot;index&quot;:null}" fill="#49d859" stroke="none" stroke-width="0" stroke-linecap="butt"/><path d="" data-paper-data="{&quot;index&quot;:null}" fill="#49d859" stroke="none" stroke-width="0" stroke-linecap="butt"/><path d="" data-paper-data="{&quot;index&quot;:null}" fill="#49d859" stroke="none" stroke-width="0" stroke-linecap="butt"/><path d="" data-paper-data="{&quot;index&quot;:null}" fill="#49d859" stroke="none" stroke-width="0" stroke-linecap="butt"/><path d="" data-paper-data="{&quot;index&quot;:null}" fill="#49d859" stroke="none" stroke-width="0" stroke-linecap="butt"/><path d="" data-paper-data="{&quot;index&quot;:null}" fill="#bfff56" stroke="none" stroke-width="0" stroke-linecap="butt"/><path d="" data-paper-data="{&quot;index&quot;:null}" fill="#bfff56" stroke="none" stroke-width="0" stroke-linecap="butt"/><path d="" data-paper-data="{&quot;index&quot;:null}" fill="#bfff56" stroke="none" stroke-width="0" stroke-linecap="butt"/><path d="" data-paper-data="{&quot;index&quot;:null}" fill="#bfff56" stroke="none" stroke-width="0" stroke-linecap="butt"/><path d="" data-paper-data="{&quot;index&quot;:null}" fill="#bfff56" stroke="none" stroke-width="0" stroke-linecap="butt"/><path d="" data-paper-data="{&quot;index&quot;:null}" fill="#bfff56" stroke="none" stroke-width="0" stroke-linecap="butt"/><path d="" data-paper-data="{&quot;index&quot;:null}" fill="#bfff56" stroke="none" stroke-width="0" stroke-linecap="butt"/><path d="" data-paper-data="{&quot;index&quot;:null}" fill="#53f35b" stroke="none" stroke-width="0" stroke-linecap="butt"/><path d="" data-paper-data="{&quot;index&quot;:null}" fill="#4ee656" stroke="none" stroke-width="0" stroke-linecap="butt"/><path d="" data-paper-data="{&quot;index&quot;:null}" fill="#53f35b" stroke="none" stroke-width="0" stroke-linecap="butt"/><path d="" data-paper-data="{&quot;index&quot;:null}" fill="#4ee656" stroke="none" stroke-width="0" stroke-linecap="butt"/><path d="" data-paper-data="{&quot;index&quot;:null}" fill="#53f35b" stroke="none" stroke-width="0" stroke-linecap="butt"/><path d="" data-paper-data="{&quot;index&quot;:null}" fill="#4ee656" stroke="none" stroke-width="0" stroke-linecap="butt"/><path d="" data-paper-data="{&quot;index&quot;:null}" fill="#4ee656" stroke="none" stroke-width="0" stroke-linecap="butt"/><path d="" data-paper-data="{&quot;index&quot;:null}" fill="#bfff56" stroke="none" stroke-width="0" stroke-linecap="butt"/><path d="" data-paper-data="{&quot;index&quot;:null}" fill="#bfff56" stroke="none" stroke-width="0" stroke-linecap="butt"/><path d="" data-paper-data="{&quot;index&quot;:null}" fill="#bfff56" stroke="none" stroke-width="0" stroke-linecap="butt"/><path d="" data-paper-data="{&quot;index&quot;:null}" fill="#bfff56" stroke="none" stroke-width="0" stroke-linecap="butt"/><path d="" data-paper-data="{&quot;index&quot;:null}" fill="#bfff56" stroke="none" stroke-width="0" stroke-linecap="butt"/><path d="" data-paper-data="{&quot;index&quot;:null}" fill="#bfff56" stroke="none" stroke-width="0" stroke-linecap="butt"/><path d="" data-paper-data="{&quot;index&quot;:null}" fill="#bfff56" stroke="none" stroke-width="0" stroke-linecap="butt"/><path d="" data-paper-data="{&quot;index&quot;:null}" fill="#6af754" stroke="none" stroke-width="0" stroke-linecap="butt"/><path d="" data-paper-data="{&quot;index&quot;:null}" fill="#6af754" stroke="none" stroke-width="0" stroke-linecap="butt"/><path d="" data-paper-data="{&quot;index&quot;:null}" fill="#6af754" stroke="none" stroke-width="0" stroke-linecap="butt"/><path d="" data-paper-data="{&quot;index&quot;:null}" fill="#6af754" stroke="none" stroke-width="0" stroke-linecap="butt"/><path d="" data-paper-data="{&quot;index&quot;:null}" fill="#8eff57" stroke="none" stroke-width="0" stroke-linecap="butt"/><path d="" data-paper-data="{&quot;index&quot;:null}" fill="#8eff57" stroke="none" stroke-width="0" stroke-linecap="butt"/><path d="" data-paper-data="{&quot;index&quot;:null}" fill="#8eff57" stroke="none" stroke-width="0" stroke-linecap="butt"/><path d="" data-paper-data="{&quot;index&quot;:null}" fill="#8eff57" stroke="none" stroke-width="0" stroke-linecap="butt"/><path d="" data-paper-data="{&quot;index&quot;:null}" fill="#8eff57" stroke="none" stroke-width="0" stroke-linecap="butt"/><path d="" data-paper-data="{&quot;index&quot;:null}" fill="#8eff57" stroke="none" stroke-width="0" stroke-linecap="butt"/><path d="" data-paper-data="{&quot;index&quot;:null}" fill="#8eff57" stroke="none" stroke-width="0" stroke-linecap="butt"/><path d="" data-paper-data="{&quot;index&quot;:null}" fill="#bfff56" stroke="none" stroke-width="0" stroke-linecap="butt"/><path d="" data-paper-data="{&quot;index&quot;:null}" fill="#bfff56" stroke="none" stroke-width="0" stroke-linecap="butt"/><path d="" data-paper-data="{&quot;index&quot;:null}" fill="#bfff56" stroke="none" stroke-width="0" stroke-linecap="butt"/><path d="" data-paper-data="{&quot;index&quot;:null}" fill="#bfff56" stroke="none" stroke-width="0" stroke-linecap="butt"/><path d="" data-paper-data="{&quot;index&quot;:null}" fill="#bfff56" stroke="none" stroke-width="0" stroke-linecap="butt"/><path d="" data-paper-data="{&quot;index&quot;:null}" fill="#bfff56" stroke="none" stroke-width="0" stroke-linecap="butt"/><path d="" data-paper-data="{&quot;index&quot;:null}" fill="#bfff56" stroke="none" stroke-width="0" stroke-linecap="butt"/><path d="" data-paper-data="{&quot;index&quot;:null}" fill="#bfff56" stroke="none" stroke-width="0" stroke-linecap="butt"/><path d="" data-paper-data="{&quot;index&quot;:null}" fill="#bfff56" stroke="none" stroke-width="0" stroke-linecap="butt"/><path d="" data-paper-data="{&quot;index&quot;:null}" fill="#bfff56" stroke="none" stroke-width="0" stroke-linecap="butt"/><path d="" data-paper-data="{&quot;index&quot;:null}" fill="#bfff56" stroke="none" stroke-width="0" stroke-linecap="butt"/><path d="" data-paper-data="{&quot;index&quot;:null}" fill="#bfff56" stroke="none" stroke-width="0" stroke-linecap="butt"/><path d="" data-paper-data="{&quot;index&quot;:null}" fill="#bfff56" stroke="none" stroke-width="0" stroke-linecap="butt"/><path d="" data-paper-data="{&quot;index&quot;:null}" fill="#bfff56" stroke="none" stroke-width="0" stroke-linecap="butt"/><path d="" data-paper-data="{&quot;index&quot;:null}" fill="#49d859" stroke="none" stroke-width="0" stroke-linecap="butt"/><path d="" data-paper-data="{&quot;index&quot;:null}" fill="#49d859" stroke="none" stroke-width="0" stroke-linecap="butt"/><path d="" data-paper-data="{&quot;index&quot;:null}" fill="#49d859" stroke="none" stroke-width="0" stroke-linecap="butt"/><path d="" data-paper-data="{&quot;index&quot;:null}" fill="#49d859" stroke="none" stroke-width="0" stroke-linecap="butt"/><path d="" data-paper-data="{&quot;index&quot;:null}" fill="#49d859" stroke="none" stroke-width="0" stroke-linecap="butt"/><path d="" data-paper-data="{&quot;index&quot;:null}" fill="#49d859" stroke="none" stroke-width="0" stroke-linecap="butt"/><path d="" data-paper-data="{&quot;index&quot;:null}" fill="#49d859" stroke="none" stroke-width="0" stroke-linecap="butt"/><path d="" data-paper-data="{&quot;index&quot;:null}" fill="#bfff56" stroke="none" stroke-width="0" stroke-linecap="butt"/><path d="" data-paper-data="{&quot;index&quot;:null}" fill="#bfff56" stroke="none" stroke-width="0" stroke-linecap="butt"/><path d="" data-paper-data="{&quot;index&quot;:null}" fill="#bfff56" stroke="none" stroke-width="0" stroke-linecap="butt"/><path d="" data-paper-data="{&quot;index&quot;:null}" fill="#bfff56" stroke="none" stroke-width="0" stroke-linecap="butt"/><path d="" data-paper-data="{&quot;index&quot;:null}" fill="#bfff56" stroke="none" stroke-width="0" stroke-linecap="butt"/><path d="" data-paper-data="{&quot;index&quot;:null}" fill="#bfff56" stroke="none" stroke-width="0" stroke-linecap="butt"/><path d="" data-paper-data="{&quot;index&quot;:null}" fill="#bfff56" stroke="none" stroke-width="0" stroke-linecap="butt"/><path d="" data-paper-data="{&quot;index&quot;:null}" fill="#53f35b" stroke="none" stroke-width="0" stroke-linecap="butt"/><path d="" data-paper-data="{&quot;index&quot;:null}" fill="#4ee656" stroke="none" stroke-width="0" stroke-linecap="butt"/><path d="" data-paper-data="{&quot;index&quot;:null}" fill="#53f35b" stroke="none" stroke-width="0" stroke-linecap="butt"/><path d="" data-paper-data="{&quot;index&quot;:null}" fill="#4ee656" stroke="none" stroke-width="0" stroke-linecap="butt"/><path d="" data-paper-data="{&quot;index&quot;:null}" fill="#53f35b" stroke="none" stroke-width="0" stroke-linecap="butt"/><path d="" data-paper-data="{&quot;index&quot;:null}" fill="#4ee656" stroke="none" stroke-width="0" stroke-linecap="butt"/><path d="" data-paper-data="{&quot;index&quot;:null}" fill="#4ee656" stroke="none" stroke-width="0" stroke-linecap="butt"/><path d="" data-paper-data="{&quot;index&quot;:null}" fill="#bfff56" stroke="none" stroke-width="0" stroke-linecap="butt"/><path d="" data-paper-data="{&quot;index&quot;:null}" fill="#bfff56" stroke="none" stroke-width="0" stroke-linecap="butt"/><path d="" data-paper-data="{&quot;index&quot;:null}" fill="#bfff56" stroke="none" stroke-width="0" stroke-linecap="butt"/><path d="" data-paper-data="{&quot;index&quot;:null}" fill="#bfff56" stroke="none" stroke-width="0" stroke-linecap="butt"/><path d="" data-paper-data="{&quot;index&quot;:null}" fill="#bfff56" stroke="none" stroke-width="0" stroke-linecap="butt"/><path d="" data-paper-data="{&quot;index&quot;:null}" fill="#bfff56" stroke="none" stroke-width="0" stroke-linecap="butt"/><path d="" data-paper-data="{&quot;index&quot;:null}" fill="#bfff56" stroke="none" stroke-width="0" stroke-linecap="butt"/><path d="" data-paper-data="{&quot;index&quot;:null}" fill="#6af754" stroke="none" stroke-width="0" stroke-linecap="butt"/><path d="" data-paper-data="{&quot;index&quot;:null}" fill="#6af754" stroke="none" stroke-width="0" stroke-linecap="butt"/><path d="" data-paper-data="{&quot;index&quot;:null}" fill="#6af754" stroke="none" stroke-width="0" stroke-linecap="butt"/><path d="" data-paper-data="{&quot;index&quot;:null}" fill="#6af754" stroke="none" stroke-width="0" stroke-linecap="butt"/><path d="" data-paper-data="{&quot;index&quot;:null}" fill="#8eff57" stroke="none" stroke-width="0" stroke-linecap="butt"/><path d="" data-paper-data="{&quot;index&quot;:null}" fill="#8eff57" stroke="none" stroke-width="0" stroke-linecap="butt"/><path d="" data-paper-data="{&quot;index&quot;:null}" fill="#8eff57" stroke="none" stroke-width="0" stroke-linecap="butt"/><path d="" data-paper-data="{&quot;index&quot;:null}" fill="#8eff57" stroke="none" stroke-width="0" stroke-linecap="butt"/><path d="" data-paper-data="{&quot;index&quot;:null}" fill="#8eff57" stroke="none" stroke-width="0" stroke-linecap="butt"/><path d="" data-paper-data="{&quot;index&quot;:null}" fill="#8eff57" stroke="none" stroke-width="0" stroke-linecap="butt"/><path d="" data-paper-data="{&quot;index&quot;:null}" fill="#8eff57" stroke="none" stroke-width="0" stroke-linecap="butt"/><path d="" data-paper-data="{&quot;index&quot;:null}" fill="#bfff56" stroke="none" stroke-width="0" stroke-linecap="butt"/><path d="" data-paper-data="{&quot;index&quot;:null}" fill="#bfff56" stroke="none" stroke-width="0" stroke-linecap="butt"/><path d="" data-paper-data="{&quot;index&quot;:null}" fill="#bfff56" stroke="none" stroke-width="0" stroke-linecap="butt"/><path d="" data-paper-data="{&quot;index&quot;:null}" fill="#bfff56" stroke="none" stroke-width="0" stroke-linecap="butt"/><path d="" data-paper-data="{&quot;index&quot;:null}" fill="#bfff56" stroke="none" stroke-width="0" stroke-linecap="butt"/><path d="" data-paper-data="{&quot;index&quot;:null}" fill="#bfff56" stroke="none" stroke-width="0" stroke-linecap="butt"/><path d="" data-paper-data="{&quot;index&quot;:null}" fill="#bfff56" stroke="none" stroke-width="0" stroke-linecap="butt"/><path d="" data-paper-data="{&quot;index&quot;:null}" fill="none" stroke="#6fc543" stroke-width="15" stroke-linecap="round"/><path d="" data-paper-data="{&quot;index&quot;:null}" fill="none" stroke="#6fc543" stroke-width="15" stroke-linecap="round"/><path d="" data-paper-data="{&quot;index&quot;:null}" fill="none" stroke="#6fc543" stroke-width="15" stroke-linecap="round"/><path d="" data-paper-data="{&quot;index&quot;:null}" fill="none" stroke="#6fc543" stroke-width="15" stroke-linecap="round"/><path d="" data-paper-data="{&quot;index&quot;:null}" fill="none" stroke="#6fc543" stroke-width="15" stroke-linecap="round"/><path d="" data-paper-data="{&quot;index&quot;:null}" fill="none" stroke="#6fc543" stroke-width="15" stroke-linecap="round"/><path d="" data-paper-data="{&quot;index&quot;:null}" fill="none" stroke="#6fc543" stroke-width="15" stroke-linecap="round"/><path d="" data-paper-data="{&quot;index&quot;:null}" fill="none" stroke="#6fc543" stroke-width="15" stroke-linecap="round"/><path d="" data-paper-data="{&quot;index&quot;:null}" fill="none" stroke="#6fc543" stroke-width="15" stroke-linecap="round"/><path d="" data-paper-data="{&quot;index&quot;:null}" fill="none" stroke="#6fc543" stroke-width="15" stroke-linecap="round"/><path d="" data-paper-data="{&quot;index&quot;:null}" fill="none" stroke="#6fc543" stroke-width="15" stroke-linecap="round"/><path d="" data-paper-data="{&quot;index&quot;:null}" fill="none" stroke="#6fc543" stroke-width="15" stroke-linecap="round"/><path d="" data-paper-data="{&quot;index&quot;:null}" fill="none" stroke="#6fc543" stroke-width="15" stroke-linecap="round"/><path d="" data-paper-data="{&quot;index&quot;:null}" fill="none" stroke="#6fc543" stroke-width="15" stroke-linecap="round"/><path d="" data-paper-data="{&quot;index&quot;:null}" fill="none" stroke="#6fc543" stroke-width="15" stroke-linecap="round"/><path d="" data-paper-data="{&quot;index&quot;:null}" fill="none" stroke="#6fc543" stroke-width="15" stroke-linecap="round"/><path d="" data-paper-data="{&quot;index&quot;:null}" fill="none" stroke="#6fc543" stroke-width="15" stroke-linecap="round"/><path d="" data-paper-data="{&quot;index&quot;:null}" fill="none" stroke="#6fc543" stroke-width="15" stroke-linecap="round"/><path d="" data-paper-data="{&quot;index&quot;:null}" fill="none" stroke="#6fc543" stroke-width="15" stroke-linecap="round"/><path d="" data-paper-data="{&quot;index&quot;:null}" fill="none" stroke="#6fc543" stroke-width="15" stroke-linecap="round"/><path d="" data-paper-data="{&quot;index&quot;:null}" fill="none" stroke="#6fc543" stroke-width="15" stroke-linecap="round"/><path d="" data-paper-data="{&quot;index&quot;:null}" fill="none" stroke="#6fc543" stroke-width="15" stroke-linecap="round"/><path d="" data-paper-data="{&quot;index&quot;:null}" fill="none" stroke="#6fc543" stroke-width="15" stroke-linecap="round"/><path d="" data-paper-data="{&quot;index&quot;:null}" fill="none" stroke="#6fc543" stroke-width="15" stroke-linecap="round"/><path d="" data-paper-data="{&quot;index&quot;:null}" fill="none" stroke="#7fe24d" stroke-width="15" stroke-linecap="round"/><path d="" data-paper-data="{&quot;index&quot;:null}" fill="none" stroke="#7fe24d" stroke-width="15" stroke-linecap="round"/><path d="" data-paper-data="{&quot;index&quot;:null}" fill="none" stroke="#7fe24d" stroke-width="15" stroke-linecap="round"/><path d="" data-paper-data="{&quot;index&quot;:null}" fill="none" stroke="#7fe24d" stroke-width="15" stroke-linecap="round"/><path d="" data-paper-data="{&quot;index&quot;:null}" fill="none" stroke="#7fe24d" stroke-width="15" stroke-linecap="round"/><path d="" data-paper-data="{&quot;index&quot;:null}" fill="none" stroke="#7fe24d" stroke-width="15" stroke-linecap="round"/><path d="" data-paper-data="{&quot;index&quot;:null}" fill="none" stroke="#7fe24d" stroke-width="15" stroke-linecap="round"/><path d="" data-paper-data="{&quot;index&quot;:null}" fill="none" stroke="#7fe24d" stroke-width="15" stroke-linecap="round"/><path d="" data-paper-data="{&quot;index&quot;:null}" fill="none" stroke="#7fe24d" stroke-width="15" stroke-linecap="round"/><path d="" data-paper-data="{&quot;index&quot;:null}" fill="none" stroke="#7fe24d" stroke-width="15" stroke-linecap="round"/><path d="" data-paper-data="{&quot;index&quot;:null}" fill="none" stroke="#7fe24d" stroke-width="15" stroke-linecap="round"/><path d="" data-paper-data="{&quot;index&quot;:null}" fill="none" stroke="#7fe24d" stroke-width="15" stroke-linecap="round"/><path d="" data-paper-data="{&quot;index&quot;:null}" fill="none" stroke="#8eff57" stroke-width="15" stroke-linecap="round"/><path d="" data-paper-data="{&quot;index&quot;:null}" fill="none" stroke="#8eff57" stroke-width="15" stroke-linecap="round"/><path d="" data-paper-data="{&quot;index&quot;:null}" fill="none" stroke="#8eff57" stroke-width="15" stroke-linecap="round"/><path d="" data-paper-data="{&quot;index&quot;:null}" fill="none" stroke="#8eff57" stroke-width="15" stroke-linecap="round"/><path d="" data-paper-data="{&quot;index&quot;:null}" fill="none" stroke="#8eff57" stroke-width="15" stroke-linecap="round"/><path d="" data-paper-data="{&quot;index&quot;:null}" fill="none" stroke="#8eff57" stroke-width="15" stroke-linecap="round"/><path d="" data-paper-data="{&quot;index&quot;:null}" fill="none" stroke="#8eff57" stroke-width="15" stroke-linecap="round"/><path d="" data-paper-data="{&quot;index&quot;:null}" fill="none" stroke="#8eff57" stroke-width="15" stroke-linecap="round"/><path d="" data-paper-data="{&quot;index&quot;:null}" fill="none" stroke="#8eff57" stroke-width="15" stroke-linecap="round"/><path d="" data-paper-data="{&quot;index&quot;:null}" fill="none" stroke="#8eff57" stroke-width="15" stroke-linecap="round"/><path d="" data-paper-data="{&quot;index&quot;:null}" fill="none" stroke="#8eff57" stroke-width="15" stroke-linecap="round"/><g stroke="none" stroke-linecap="butt"><path d="M1133.309,1010.3321c-2.20914,0 23.64977,-19.1455 23.64977,-21.35464c0,0 -21.78122,7.21976 -21.78122,-33.00026c0,-25.45536 15.47712,-73.30738 18.18185,-132.07479c5.78418,-125.67635 -17.72761,-202.18737 -28.92732,-228.41247c-1.18249,-2.76889 -36.68919,-71.02836 -36.68919,-71.02836c0,-2.03681 10.60405,-9.80833 10.77638,-9.80833l60.47745,-16.45692c2.20914,0 12.71249,-0.14525 12.71249,2.0639c0,0 57.85622,79.3464 76.87642,150.56815c31.44861,117.76033 30.5776,255.27042 30.5776,284.33566c0,56.89642 -21.78122,53.81342 -21.78122,53.81342c0,2.20914 27.62379,24.00196 25.41465,24.00196z" fill="#825a08" stroke-width="NaN"/><path d="M943.50448,418.64738c0,-9.34215 0.82834,-12.51981 2.7309,-20.19778c3.18903,-12.86968 -66.46259,56.09193 -168.85565,58.12622c-1.47213,0.02925 -5.33618,-4.26323 -4.76583,-5.02719c63.80234,-85.45976 166.98989,-90.28577 193.35328,-95.57786c-46.69244,-26.24444 -114.80184,-24.04028 -114.71717,-24.10386c-10.19214,-2.99166 -6.32989,-15.98916 -4.17445,-17.80784c46.52933,-39.2597 90.84551,-46.17802 125.19463,-44.35004c85.98755,4.57607 120.99445,52.44874 125.07034,52.97821c45.6002,5.92363 123.4278,-63.91181 186.98231,-34.8202c0.38837,0.17777 -1.37473,-0.07428 -0.95439,-0.16152c10.50996,-2.18117 141.28758,-14.36836 206.16109,89.45742c0.568,0.90904 7.18691,10.0865 -7.86459,13.20616c-6.7507,1.3992 -41.81549,-9.6268 -42.97491,-9.87428c-49.3552,-10.53469 -115.57521,1.95879 -115.54744,2.23701c0.40123,4.02059 -115.41226,3.07915 -115.41226,7.26615c0,79.36836 -73.89056,158.03381 -153.25891,158.03381c-79.36836,0 -110.96696,-50.01607 -110.96696,-129.38442z" fill="#4ee656" stroke-width="0"/><path d="M1402.28849,557.35842c-2.48609,-1.88554 -62.91033,-65.13206 -126.29491,-81.51963c-51.22817,-13.24462 -104.59686,21.18255 -105.17274,22.32523c-9.22798,18.31052 -48.4376,52.80642 -73.72403,46.67789c-0.51891,-0.12577 -64.06395,50.4626 -74.28253,79.25591c-23.70611,66.79767 0.94801,147.82314 -0.12652,147.31802c-0.6713,-0.31557 -4.40594,21.84406 -8.80592,15.18315c-2.69735,-4.08337 -29.82472,0.90806 -60.05462,-43.04568c-34.73713,-50.50717 -29.0854,-70.35048 -31.04246,-75.46495c-19.16461,-50.08364 -6.16313,-83.18638 16.30553,-119.60342c1.4316,-6.98785 4.02679,-13.28826 7.52431,-18.97083c0.36427,-0.59184 -17.11273,10.36044 -35.19098,27.45817c-18.05441,17.07518 -36.7015,40.28193 -49.3398,60.71946c-48.32081,78.14007 -23.75004,131.89046 -53.96079,122.35654c-13.13737,-4.1459 -98.1853,-37.84096 -12.03572,-237.34451c19.95337,-46.20762 37.78824,-89.1725 146.70101,-106.80076c50.12635,-8.11329 97.10534,3.05984 127.1726,17.53722c1.36084,0.65524 4.41987,1.79402 4.02802,0.48576c-15.81698,-52.8073 42.36247,-143.68303 122.38989,-178.72354c108.81473,-47.64522 153.74384,-7.72975 150.12235,-3.63897c-1.04507,1.1805 -49.41269,42.16976 -88.13767,80.53686c-30.30743,30.02734 -53.35659,59.66539 -52.16352,59.28269c39.19283,-12.57198 89.01277,-6.39366 119.14363,10.9013c132.96827,76.32313 104.49266,195.96734 76.94488,175.07409z" fill="#8eff57" stroke-width="0"/></g><path d="M1293.92383,1029.97628c0,29.59753 -39.41794,53.59107 -88.04248,53.59107c-48.62454,0 -88.04248,-23.99355 -88.04248,-53.59107c0,-29.59753 39.41797,-53.59107 88.04248,-53.59107c48.62451,0 88.04248,23.99356 88.04248,53.59107z" fill="#fbff00" stroke="#000000" stroke-width="0" stroke-linecap="butt"/><path d="M1370.05723,1016.61507c0,29.59753 -39.41794,53.59107 -88.04248,53.59107c-48.62451,0 -88.04248,-23.99356 -88.04248,-53.59107c0,-29.59753 39.41797,-53.59107 88.04248,-53.59107c48.62454,0 88.04248,23.99355 88.04248,53.59107z" fill="#fbff00" stroke="#000000" stroke-width="0" stroke-linecap="butt"/><path d="M1246.28735,1016.61507c0,29.59753 -39.41797,53.59107 -88.04248,53.59107c-48.62454,0 -88.0425,-23.99356 -88.0425,-53.59107c0,-29.59753 39.41797,-53.59107 88.0425,-53.59107c48.62451,0 88.04248,23.99355 88.04248,53.59107z" fill="#fbff00" stroke="#000000" stroke-width="0" stroke-linecap="butt"/><path d="M1246.28735,1030.65073c0,29.59753 -39.41797,53.59107 -88.04248,53.59107c-48.62454,0 -88.0425,-23.99355 -88.0425,-53.59107c0,-29.59753 39.41797,-53.59107 88.0425,-53.59107c48.62451,0 88.04248,23.99356 88.04248,53.59107z" fill="#fcff34" stroke="#000000" stroke-width="0" stroke-linecap="butt"/><path d="M1370.05722,1030.65073c0,29.59753 -39.41794,53.59107 -88.04248,53.59107c-48.62451,0 -88.04248,-23.99355 -88.04248,-53.59107c0,-29.59753 39.41797,-53.59107 88.04248,-53.59107c48.62454,0 88.04248,23.99356 88.04248,53.59107z" fill="#fcff34" stroke="#000000" stroke-width="0" stroke-linecap="butt"/><path d="M627.72666,1029.97628c0,-29.59752 39.41796,-53.59107 88.04247,-53.59107c48.62451,0 88.04248,23.99352 88.04248,53.59107c0,29.59752 -39.41796,53.59106 -88.04248,53.59106c-48.62452,0 -88.04247,-23.99352 -88.04247,-53.59106z" data-paper-data="{&quot;index&quot;:null}" fill="#fbff00" stroke="#000000" stroke-width="0" stroke-linecap="butt"/><path d="M-45.13911,1029.12561c0,-29.59752 39.41794,-53.59106 88.04248,-53.59106c48.62451,0 88.04248,23.99352 88.04248,53.59106c0,29.59751 -39.41796,53.59107 -88.04248,53.59107c-48.62454,0 -88.04248,-23.99354 -88.04248,-53.59107z" data-paper-data="{&quot;index&quot;:null}" fill="#fbff00" stroke="#000000" stroke-width="0" stroke-linecap="butt"/><path d="M187.93953,1030.82689c0,-29.59753 39.41796,-53.59108 88.04247,-53.59108c48.62452,0 88.04248,23.99355 88.04248,53.59108c0,29.59751 -39.41796,53.59107 -88.04248,53.59107c-48.62451,0 -88.04247,-23.99354 -88.04247,-53.59107z" data-paper-data="{&quot;index&quot;:null}" fill="#fbff00" stroke="#000000" stroke-width="0" stroke-linecap="butt"/><path d="M675.36314,1018.06715c0,-29.59752 39.41796,-53.59107 88.04248,-53.59107c48.62454,0 88.0425,23.99352 88.0425,53.59107c0,29.59751 -39.41798,53.59106 -88.0425,53.59106c-48.62451,0 -88.04248,-23.99352 -88.04248,-53.59107z" data-paper-data="{&quot;index&quot;:null}" fill="#fbff00" stroke="#000000" stroke-width="0" stroke-linecap="butt"/><path d="M551.59325,1018.06715c0,-29.59752 39.41794,-53.59107 88.04248,-53.59107c48.62451,0 88.04248,23.99352 88.04248,53.59107c0,29.59751 -39.41797,53.59106 -88.04248,53.59106c-48.62454,0 -88.04248,-23.99352 -88.04248,-53.59107z" data-paper-data="{&quot;index&quot;:null}" fill="#fbff00" stroke="#000000" stroke-width="0" stroke-linecap="butt"/><path d="M442.2845,1016.36587c0,-29.59752 39.41796,-53.59107 88.04247,-53.59107c48.62454,0 88.0425,23.99352 88.0425,53.59107c0,29.59751 -39.41798,53.59106 -88.0425,53.59106c-48.62452,0 -88.04247,-23.99352 -88.04247,-53.59107z" data-paper-data="{&quot;index&quot;:null}" fill="#fbff00" stroke="#000000" stroke-width="0" stroke-linecap="butt"/><path d="M344.88485,1020.61911c0,-29.59752 39.41798,-53.59107 88.04249,-53.59107c48.62451,0 88.04248,23.99352 88.04248,53.59107c0,29.59751 -39.41794,53.59107 -88.04248,53.59107c-48.62451,0 -88.04249,-23.99354 -88.04249,-53.59108z" data-paper-data="{&quot;index&quot;:null}" fill="#fbff00" stroke="#000000" stroke-width="0" stroke-linecap="butt"/><path d="M235.57604,1018.91784c0,-29.59752 39.41796,-53.59108 88.04248,-53.59108c48.62451,0 88.04248,23.99352 88.04248,53.59107c0,29.59751 -39.41796,53.59107 -88.04248,53.59107c-48.62454,0 -88.04248,-23.99354 -88.04248,-53.59108z" data-paper-data="{&quot;index&quot;:null}" fill="#fbff00" stroke="#000000" stroke-width="0" stroke-linecap="butt"/><path d="M111.80616,1018.91784c0,-29.59752 39.41796,-53.59108 88.04249,-53.59108c48.62451,0 88.04247,23.99352 88.04247,53.59107c0,29.59751 -39.41796,53.59107 -88.04247,53.59107c-48.62454,0 -88.04249,-23.99354 -88.04249,-53.59108z" data-paper-data="{&quot;index&quot;:null}" fill="#fbff00" stroke="#000000" stroke-width="0" stroke-linecap="butt"/><path d="M90.53986,963.62542c48.62454,0 88.0425,23.99355 88.0425,53.59109c0,29.59751 -39.41797,53.59107 -88.0425,53.59107c-48.62451,0 -88.04247,-23.99352 -88.04247,-53.59107c0,-29.59753 39.41796,-53.59109 88.04247,-53.59109z" data-paper-data="{&quot;index&quot;:null}" fill="#fbff00" stroke="#000000" stroke-width="0" stroke-linecap="butt"/><path d="M675.36314,1030.65074c0,-29.59752 39.41796,-53.59107 88.04248,-53.59107c48.62454,0 88.0425,23.99352 88.0425,53.59106c0,29.59752 -39.41798,53.59107 -88.0425,53.59107c-48.62451,0 -88.04248,-23.99352 -88.04248,-53.59107z" data-paper-data="{&quot;index&quot;:null}" fill="#fcff34" stroke="#000000" stroke-width="0" stroke-linecap="butt"/><path d="M551.59328,1032.10283c0,-29.59752 39.41794,-53.59107 88.04248,-53.59107c48.62451,0 88.04248,23.99352 88.04248,53.59106c0,29.59752 -39.41796,53.59107 -88.04248,53.59107c-48.62452,0 -88.04248,-23.99352 -88.04248,-53.59107z" data-paper-data="{&quot;index&quot;:null}" fill="#fcff34" stroke="#000000" stroke-width="0" stroke-linecap="butt"/><path d="M442.2845,1030.40146c0,-29.59752 39.41796,-53.59107 88.04247,-53.59107c48.62454,0 88.0425,23.99352 88.0425,53.59107c0,29.59752 -39.41798,53.59107 -88.0425,53.59107c-48.62452,0 -88.04247,-23.99352 -88.04247,-53.59107z" data-paper-data="{&quot;index&quot;:null}" fill="#fcff34" stroke="#000000" stroke-width="0" stroke-linecap="butt"/><path d="M344.88485,1034.65478c0,-29.59752 39.41798,-53.59107 88.04249,-53.59107c48.62451,0 88.04248,23.99352 88.04248,53.59107c0,29.59751 -39.41794,53.59107 -88.04248,53.59107c-48.62451,0 -88.04249,-23.99354 -88.04249,-53.59108z" data-paper-data="{&quot;index&quot;:null}" fill="#fcff34" stroke="#000000" stroke-width="0" stroke-linecap="butt"/><path d="M235.57606,1032.95351c0,-29.59752 39.41794,-53.59107 88.04248,-53.59107c48.62451,0 88.04248,23.99354 88.04248,53.59107c0,29.59751 -39.41797,53.59106 -88.04248,53.59106c-48.62454,0 -88.04248,-23.99354 -88.04248,-53.59107z" data-paper-data="{&quot;index&quot;:null}" fill="#fcff34" stroke="#000000" stroke-width="0" stroke-linecap="butt"/><path d="M111.80617,1032.95351c0,-29.59752 39.41794,-53.59107 88.04248,-53.59107c48.62451,0 88.04248,23.99354 88.04248,53.59107c0,29.59751 -39.41797,53.59106 -88.04248,53.59106c-48.62454,0 -88.04248,-23.99354 -88.04248,-53.59107z" data-paper-data="{&quot;index&quot;:null}" fill="#fcff34" stroke="#000000" stroke-width="0" stroke-linecap="butt"/><path d="M2.49741,1031.25222c0,-29.59753 39.41797,-53.59108 88.04248,-53.59108c48.62454,0 88.0425,23.99355 88.0425,53.59108c0,29.59751 -39.41797,53.59106 -88.0425,53.59106c-48.62451,0 -88.04248,-23.99354 -88.04248,-53.59107z" data-paper-data="{&quot;index&quot;:null}" fill="#fcff34" stroke="#000000" stroke-width="0" stroke-linecap="butt"/><path d="M872.81975,1067.83031c0,-29.59752 39.41793,-53.59108 88.04247,-53.59108c48.62454,0 88.0425,23.99354 88.0425,53.59107c0,29.59752 -39.41796,53.59107 -88.04247,53.59107c-48.62451,0 -88.04248,-23.99352 -88.04248,-53.59107z" data-paper-data="{&quot;index&quot;:null}" fill="#fcff64" stroke="#000000" stroke-width="0" stroke-linecap="butt"/><path d="M870.69314,1049.54132c0,-29.59752 39.41793,-53.59107 88.04247,-53.59107c48.62454,0 88.0425,23.99354 88.0425,53.59107c0,29.59752 -39.41796,53.59106 -88.04248,53.59106c-48.62451,0 -88.04248,-23.99352 -88.04248,-53.59106z" data-paper-data="{&quot;index&quot;:null}" fill="#fcff64" stroke="#000000" stroke-width="0" stroke-linecap="butt"/><path d="M876.75195,1019.76844c0,-29.59753 39.41797,-53.59108 88.04248,-53.59108c48.62454,0 88.0425,23.99355 88.0425,53.59108c0,29.59751 -39.41797,53.59107 -88.04248,53.59107c-48.62451,0 -88.04247,-23.99354 -88.04247,-53.59108z" data-paper-data="{&quot;index&quot;:null}" fill="#fbff00" stroke="#000000" stroke-width="0" stroke-linecap="butt"/><path d="M874.94638,1033.8042c0,-29.59753 39.41797,-53.59109 88.04248,-53.59109c48.62454,0 88.0425,23.99355 88.0425,53.59109c0,29.59751 -39.41797,53.59106 -88.04248,53.59106c-48.62451,0 -88.04247,-23.99354 -88.04247,-53.59107z" data-paper-data="{&quot;index&quot;:null}" fill="#fcff34" stroke="#000000" stroke-width="0" stroke-linecap="butt"/><path d="M1136.97853,1019.76844c0,29.59753 -39.41797,53.59107 -88.04248,53.59107c-48.62451,0 -88.04248,-23.99356 -88.04248,-53.59107c0,-29.59753 39.41797,-53.59108 88.0425,-53.59108c48.62451,0 88.04248,23.99355 88.04248,53.59108z" fill="#fbff00" stroke="#000000" stroke-width="0" stroke-linecap="butt"/><path d="M784.67191,1019.76844c0,-29.59753 39.41797,-53.59108 88.04249,-53.59108c48.62454,0 88.0425,23.99355 88.0425,53.59108c0,29.59751 -39.41797,53.59107 -88.04248,53.59107c-48.62451,0 -88.04248,-23.99354 -88.04248,-53.59108z" data-paper-data="{&quot;index&quot;:null}" fill="#fbff00" stroke="#000000" stroke-width="0" stroke-linecap="butt"/><path d="M1293.92383,1044.01203c0,29.59753 -39.41794,53.59107 -88.04248,53.59107c-48.62454,0 -88.04248,-23.99356 -88.04248,-53.59107c0,-29.59753 39.41797,-53.59107 88.04248,-53.59107c48.62451,0 88.04248,23.99356 88.04248,53.59107z" fill="#fcff34" stroke="#000000" stroke-width="0" stroke-linecap="butt"/><path d="M1250.54062,1046.56402c0,29.59753 -39.41797,53.59107 -88.04248,53.59107c-48.62451,0 -88.04248,-23.99356 -88.04248,-53.59107c0,-29.59753 39.41797,-53.59107 88.04249,-53.59107c48.62451,0 88.04248,23.99356 88.04248,53.59107z" fill="#fcff64" stroke="#000000" stroke-width="0" stroke-linecap="butt"/><path d="M1374.31049,1046.56402c0,29.59753 -39.41797,53.59107 -88.04248,53.59107c-48.62451,0 -88.04248,-23.99356 -88.04248,-53.59107c0,-29.59753 39.41797,-53.59107 88.04249,-53.59107c48.62451,0 88.04248,23.99356 88.04248,53.59107z" fill="#fcff64" stroke="#000000" stroke-width="0" stroke-linecap="butt"/><path d="M627.72666,1044.01203c0,-29.59752 39.41796,-53.59107 88.04247,-53.59107c48.62451,0 88.04248,23.99352 88.04248,53.59107c0,29.59751 -39.41796,53.59107 -88.04248,53.59107c-48.62452,0 -88.04247,-23.99354 -88.04247,-53.59108z" data-paper-data="{&quot;index&quot;:null}" fill="#fcff34" stroke="#000000" stroke-width="0" stroke-linecap="butt"/><path d="M187.93954,1044.86265c0,-29.59753 39.41797,-53.59108 88.04249,-53.59108c48.62454,0 88.04248,23.99355 88.04248,53.59108c0,29.59751 -39.41794,53.59107 -88.04248,53.59107c-48.62451,0 -88.04249,-23.99354 -88.04249,-53.59107z" data-paper-data="{&quot;index&quot;:null}" fill="#fcff34" stroke="#000000" stroke-width="0" stroke-linecap="butt"/><path d="M671.10984,1046.56402c0,-29.59752 39.41797,-53.59107 88.04248,-53.59107c48.62452,0 88.0425,23.99352 88.0425,53.59107c0,29.59751 -39.41796,53.59106 -88.04248,53.59106c-48.62451,0 -88.04248,-23.99354 -88.04248,-53.59107z" data-paper-data="{&quot;index&quot;:null}" fill="#fcff64" stroke="#000000" stroke-width="0" stroke-linecap="butt"/><path d="M547.33997,1046.56402c0,-29.59752 39.41797,-53.59107 88.04249,-53.59107c48.62452,0 88.0425,23.99352 88.0425,53.59107c0,29.59751 -39.41797,53.59106 -88.04248,53.59106c-48.62451,0 -88.04247,-23.99354 -88.04247,-53.59107z" data-paper-data="{&quot;index&quot;:null}" fill="#fcff64" stroke="#000000" stroke-width="0" stroke-linecap="butt"/><path d="M438.0312,1044.86273c0,-29.59753 39.41797,-53.59108 88.04248,-53.59108c48.62451,0 88.04247,23.99355 88.04247,53.59108c0,29.59751 -39.41796,53.59106 -88.04247,53.59106c-48.62451,0 -88.04248,-23.99354 -88.04248,-53.59107z" data-paper-data="{&quot;index&quot;:null}" fill="#fcff64" stroke="#000000" stroke-width="0" stroke-linecap="butt"/><path d="M340.6316,1049.11598c0,-29.59752 39.41794,-53.59107 88.04248,-53.59107c48.62452,0 88.04249,23.99352 88.04249,53.59107c0,29.59752 -39.41797,53.59107 -88.04249,53.59107c-48.62454,0 -88.04248,-23.99354 -88.04248,-53.59107z" data-paper-data="{&quot;index&quot;:null}" fill="#fcff64" stroke="#000000" stroke-width="0" stroke-linecap="butt"/><path d="M319.36525,993.82362c48.62454,0 88.0425,23.99354 88.0425,53.59107c0,29.59753 -39.41798,53.59108 -88.0425,53.59108c-48.62452,0 -88.04248,-23.99355 -88.04248,-53.59108c0,-29.59752 39.41794,-53.59107 88.04248,-53.59107z" data-paper-data="{&quot;index&quot;:null}" fill="#fcff64" stroke="#000000" stroke-width="0" stroke-linecap="butt"/><path d="M195.59537,993.82362c48.62454,0 88.0425,23.99354 88.0425,53.59107c0,29.59753 -39.41797,53.59108 -88.0425,53.59108c-48.62454,0 -88.04248,-23.99355 -88.04248,-53.59108c0,-29.59752 39.41794,-53.59107 88.04248,-53.59107z" data-paper-data="{&quot;index&quot;:null}" fill="#fcff64" stroke="#000000" stroke-width="0" stroke-linecap="butt"/><path d="M-1.75587,1044.43739c0,-29.59752 39.41794,-53.59107 88.04248,-53.59107c48.62451,0 88.04247,23.99352 88.04247,53.59107c0,29.59751 -39.41794,53.59107 -88.04247,53.59107c-48.62454,0 -88.04248,-23.99354 -88.04248,-53.59107z" data-paper-data="{&quot;index&quot;:null}" fill="#fcff64" stroke="#000000" stroke-width="0" stroke-linecap="butt"/><path d="M1136.97853,1033.80411c0,29.59753 -39.41797,53.59107 -88.04248,53.59107c-48.62451,0 -88.04248,-23.99356 -88.04248,-53.59107c0,-29.59753 39.41797,-53.59108 88.0425,-53.59108c48.62451,0 88.04248,23.99355 88.04248,53.59108z" fill="#fcff34" stroke="#000000" stroke-width="0" stroke-linecap="butt"/><path d="M1141.23179,1049.54132c0,29.59753 -39.41797,53.59107 -88.04248,53.59107c-48.62451,0 -88.04248,-23.99355 -88.04248,-53.59107c0,-29.59753 39.41797,-53.59107 88.0425,-53.59107c48.62454,0 88.04248,23.99356 88.04248,53.59107z" fill="#fcff64" stroke="#000000" stroke-width="0" stroke-linecap="butt"/><path d="M784.67191,1033.8042c0,-29.59753 39.41797,-53.59109 88.04249,-53.59109c48.62454,0 88.0425,23.99355 88.0425,53.59109c0,29.59751 -39.41797,53.59106 -88.04248,53.59106c-48.62451,0 -88.04248,-23.99354 -88.04248,-53.59107z" data-paper-data="{&quot;index&quot;:null}" fill="#fcff34" stroke="#000000" stroke-width="0" stroke-linecap="butt"/><path d="M780.41867,1049.54132c0,-29.59752 39.41793,-53.59107 88.04247,-53.59107c48.62454,0 88.0425,23.99354 88.0425,53.59107c0,29.59752 -39.41796,53.59106 -88.04248,53.59106c-48.62451,0 -88.04248,-23.99352 -88.04248,-53.59106z" data-paper-data="{&quot;index&quot;:null}" fill="#fcff64" stroke="#000000" stroke-width="0" stroke-linecap="butt"/><path d="M-48.5417,1073.35958c0,-29.59752 39.41794,-53.59107 88.04248,-53.59107c48.62454,0 88.04248,23.99354 88.04248,53.59107c0,29.59752 -39.41796,53.59107 -88.04248,53.59107c-48.62454,0 -88.04248,-23.99354 -88.04248,-53.59107z" data-paper-data="{&quot;index&quot;:null}" fill="#fdff97" stroke="#000000" stroke-width="0" stroke-linecap="butt"/><path d="M-45.13911,1043.16137c0,-29.59752 39.41794,-53.59107 88.04248,-53.59107c48.62451,0 88.04248,23.99352 88.04248,53.59106c0,29.59752 -39.41796,53.59107 -88.04248,53.59107c-48.62454,0 -88.04248,-23.99354 -88.04248,-53.59107z" data-paper-data="{&quot;index&quot;:null}" fill="#fcff34" stroke="#000000" stroke-width="0" stroke-linecap="butt"/><path d="M-50.66834,1055.07051c0,-29.59752 39.41796,-53.59107 88.04248,-53.59107c48.62454,0 88.04247,23.99352 88.04247,53.59106c0,29.59752 -39.41794,53.59107 -88.04247,53.59107c-48.62454,0 -88.04248,-23.99354 -88.04248,-53.59107z" data-paper-data="{&quot;index&quot;:null}" fill="#fcff64" stroke="#000000" stroke-width="0" stroke-linecap="butt"/><path d="M1296.05042,1078.03815c0,29.59753 -39.41797,53.59107 -88.04248,53.59107c-48.62451,0 -88.04248,-23.99355 -88.04248,-53.59107c0,-29.59753 39.41797,-53.59108 88.04248,-53.59108c48.62451,0 88.04248,23.99355 88.04248,53.59108z" fill="#fdff97" stroke="#000000" stroke-width="0" stroke-linecap="butt"/><path d="M185.81288,1078.88885c0,-29.59752 39.41794,-53.59107 88.04248,-53.59107c48.62452,0 88.04248,23.99352 88.04248,53.59107c0,29.59752 -39.41794,53.59106 -88.04248,53.59106c-48.62454,0 -88.04248,-23.99352 -88.04248,-53.59106z" data-paper-data="{&quot;index&quot;:null}" fill="#fdff97" stroke="#000000" stroke-width="0" stroke-linecap="butt"/><path d="M625.60006,1078.03817c0,-29.59753 39.41797,-53.59108 88.04248,-53.59108c48.62452,0 88.04248,23.99355 88.04248,53.59108c0,29.59752 -39.41796,53.59107 -88.04248,53.59107c-48.62451,0 -88.04248,-23.99354 -88.04248,-53.59107z" data-paper-data="{&quot;index&quot;:null}" fill="#fdff97" stroke="#000000" stroke-width="0" stroke-linecap="butt"/><path d="M1139.10517,1067.83031c0,29.59753 -39.41797,53.59107 -88.04248,53.59107c-48.62451,0 -88.04248,-23.99355 -88.04248,-53.59107c0,-29.59753 39.41797,-53.59107 88.04249,-53.59107c48.62454,0 88.04248,23.99356 88.04248,53.59107z" fill="#fdff97" stroke="#000000" stroke-width="0" stroke-linecap="butt"/><path d="M782.54528,1067.83031c0,-29.59752 39.41793,-53.59108 88.04247,-53.59108c48.62452,0 88.0425,23.99354 88.0425,53.59107c0,29.59752 -39.41796,53.59107 -88.04248,53.59107c-48.62451,0 -88.04248,-23.99352 -88.04248,-53.59107z" data-paper-data="{&quot;index&quot;:null}" fill="#fdff97" stroke="#000000" stroke-width="0" stroke-linecap="butt"/><path d="M1248.414,1064.85302c0,29.59753 -39.41797,53.59107 -88.04248,53.59107c-48.62451,0 -88.04248,-23.99355 -88.04248,-53.59107c0,-29.59753 39.41797,-53.59107 88.0425,-53.59107c48.62451,0 88.04248,23.99356 88.04248,53.59107z" fill="#fdff97" stroke="#000000" stroke-width="0" stroke-linecap="butt"/><path d="M1372.18388,1062.70943c0,29.59753 -39.41798,53.59107 -88.04248,53.59107c-48.62451,0 -88.04248,-23.99355 -88.04248,-53.59107c0,-29.59753 39.41797,-53.59107 88.0425,-53.59107c48.62451,0 88.04248,23.99356 88.04248,53.59107z" fill="#fdff97" stroke="#000000" stroke-width="0" stroke-linecap="butt"/><path d="M1246.28737,1078.03815c0,29.59753 -39.41797,53.59107 -88.04248,53.59107c-48.62451,0 -88.04248,-23.99355 -88.04248,-53.59107c0,-29.59753 39.41797,-53.59107 88.04249,-53.59107c48.62451,0 88.04248,23.99356 88.04248,53.59107z" fill="#feffaf" stroke="#000000" stroke-width="0" stroke-linecap="butt"/><path d="M1370.05723,1078.03815c0,29.59753 -39.41797,53.59107 -88.04248,53.59107c-48.62451,0 -88.04248,-23.99355 -88.04248,-53.59107c0,-29.59753 39.41797,-53.59107 88.0425,-53.59107c48.62451,0 88.04248,23.99356 88.04248,53.59107z" fill="#feffaf" stroke="#000000" stroke-width="0" stroke-linecap="butt"/><path d="M673.23646,1064.85302c0,-29.59752 39.41797,-53.59107 88.04248,-53.59107c48.62454,0 88.0425,23.99352 88.0425,53.59107c0,29.59752 -39.41796,53.59106 -88.04248,53.59106c-48.62451,0 -88.04248,-23.99352 -88.04248,-53.59106z" data-paper-data="{&quot;index&quot;:null}" fill="#fdff97" stroke="#000000" stroke-width="0" stroke-linecap="butt"/><path d="M549.46659,1064.85302c0,-29.59752 39.41796,-53.59107 88.04247,-53.59107c48.62454,0 88.0425,23.99352 88.0425,53.59107c0,29.59752 -39.41796,53.59106 -88.04247,53.59106c-48.62451,0 -88.04249,-23.99352 -88.04249,-53.59106z" data-paper-data="{&quot;index&quot;:null}" fill="#fdff97" stroke="#000000" stroke-width="0" stroke-linecap="butt"/><path d="M528.20031,1009.56069c48.62451,0 88.04248,23.99355 88.04248,53.59109c0,29.59752 -39.41796,53.59106 -88.04248,53.59106c-48.62451,0 -88.04248,-23.99352 -88.04248,-53.59106c0,-29.59753 39.41797,-53.59109 88.04248,-53.59109z" data-paper-data="{&quot;index&quot;:null}" fill="#fdff97" stroke="#000000" stroke-width="0" stroke-linecap="butt"/><path d="M430.80072,1013.81393c48.62451,0 88.04247,23.99354 88.04247,53.59107c0,29.59752 -39.41796,53.59106 -88.04247,53.59106c-48.62452,0 -88.04248,-23.99352 -88.04248,-53.59106c0,-29.59752 39.41794,-53.59107 88.04248,-53.59107z" data-paper-data="{&quot;index&quot;:null}" fill="#fdff97" stroke="#000000" stroke-width="0" stroke-linecap="butt"/><path d="M233.4494,1065.70369c0,-29.59752 39.41794,-53.59108 88.04248,-53.59108c48.62452,0 88.0425,23.99354 88.0425,53.59107c0,29.59753 -39.41797,53.59108 -88.0425,53.59108c-48.62452,0 -88.04248,-23.99355 -88.04248,-53.59108z" data-paper-data="{&quot;index&quot;:null}" fill="#fdff97" stroke="#000000" stroke-width="0" stroke-linecap="butt"/><path d="M109.67952,1065.70369c0,-29.59752 39.41794,-53.59108 88.04247,-53.59108c48.62454,0 88.0425,23.99354 88.0425,53.59107c0,29.59753 -39.41797,53.59108 -88.0425,53.59108c-48.62454,0 -88.04247,-23.99355 -88.04247,-53.59108z" data-paper-data="{&quot;index&quot;:null}" fill="#fdff97" stroke="#000000" stroke-width="0" stroke-linecap="butt"/><path d="M0.37074,1062.72639c0,-29.59752 39.41794,-53.59107 88.04248,-53.59107c48.62451,0 88.04247,23.99352 88.04247,53.59107c0,29.59751 -39.41794,53.59107 -88.04247,53.59107c-48.62454,0 -88.04248,-23.99354 -88.04248,-53.59107z" data-paper-data="{&quot;index&quot;:null}" fill="#fdff97" stroke="#000000" stroke-width="0" stroke-linecap="butt"/><path d="M675.3631,1078.03815c0,-29.59752 39.41797,-53.59108 88.04248,-53.59108c48.62452,0 88.0425,23.99352 88.0425,53.59106c0,29.59752 -39.41797,53.59107 -88.04248,53.59107c-48.62451,0 -88.04249,-23.99354 -88.04249,-53.59107z" data-paper-data="{&quot;index&quot;:null}" fill="#feffaf" stroke="#000000" stroke-width="0" stroke-linecap="butt"/><path d="M551.59323,1078.03815c0,-29.59752 39.41797,-53.59108 88.04248,-53.59108c48.62454,0 88.0425,23.99352 88.0425,53.59106c0,29.59752 -39.41797,53.59107 -88.04248,53.59107c-48.62451,0 -88.04248,-23.99354 -88.04248,-53.59107z" data-paper-data="{&quot;index&quot;:null}" fill="#feffaf" stroke="#000000" stroke-width="0" stroke-linecap="butt"/><path d="M530.32695,1022.74579c48.62451,0 88.04247,23.99355 88.04247,53.59108c0,29.59752 -39.41796,53.59108 -88.04247,53.59108c-48.62451,0 -88.04249,-23.99354 -88.04249,-53.59108c0,-29.59753 39.41797,-53.59108 88.04249,-53.59108z" data-paper-data="{&quot;index&quot;:null}" fill="#feffaf" stroke="#000000" stroke-width="0" stroke-linecap="butt"/><path d="M344.88485,1080.59013c0,-29.59752 39.41796,-53.59106 88.04249,-53.59106c48.62451,0 88.04248,23.99352 88.04248,53.59106c0,29.59752 -39.41797,53.59107 -88.04248,53.59107c-48.62454,0 -88.04249,-23.99354 -88.04249,-53.59107z" data-paper-data="{&quot;index&quot;:null}" fill="#feffaf" stroke="#000000" stroke-width="0" stroke-linecap="butt"/><path d="M235.57604,1078.88885c0,-29.59752 39.41796,-53.59107 88.04248,-53.59107c48.62454,0 88.0425,23.99352 88.0425,53.59107c0,29.59753 -39.41797,53.59108 -88.0425,53.59108c-48.62454,0 -88.04248,-23.99355 -88.04248,-53.59108z" data-paper-data="{&quot;index&quot;:null}" fill="#feffaf" stroke="#000000" stroke-width="0" stroke-linecap="butt"/><path d="M111.80616,1078.88885c0,-29.59752 39.41796,-53.59107 88.04249,-53.59107c48.62454,0 88.0425,23.99352 88.0425,53.59107c0,29.59753 -39.41797,53.59108 -88.0425,53.59108c-48.62454,0 -88.04249,-23.99355 -88.04249,-53.59108z" data-paper-data="{&quot;index&quot;:null}" fill="#feffaf" stroke="#000000" stroke-width="0" stroke-linecap="butt"/><path d="M2.49738,1077.18748c0,-29.59752 39.41794,-53.59107 88.04247,-53.59107c48.62451,0 88.04248,23.99354 88.04248,53.59107c0,29.59752 -39.41794,53.59106 -88.04248,53.59106c-48.62454,0 -88.04247,-23.99354 -88.04247,-53.59108z" data-paper-data="{&quot;index&quot;:null}" fill="#feffaf" stroke="#000000" stroke-width="0" stroke-linecap="butt"/><path d="M874.94638,1079.73945c0,-29.59752 39.41794,-53.59107 88.04248,-53.59107c48.62454,0 88.0425,23.99352 88.0425,53.59106c0,29.59752 -39.41797,53.59107 -88.04248,53.59107c-48.62451,0 -88.04247,-23.99354 -88.04247,-53.59107z" data-paper-data="{&quot;index&quot;:null}" fill="#feffaf" stroke="#000000" stroke-width="0" stroke-linecap="butt"/><path d="M1184.61506,1091.64849c0,29.59753 -39.41794,53.59107 -88.04248,53.59107c-48.62451,0 -88.04248,-23.99355 -88.04248,-53.59107c0,-29.59753 39.41797,-53.59107 88.04249,-53.59107c48.62454,0 88.04248,23.99356 88.04248,53.59107z" fill="#feffaf" stroke="#000000" stroke-width="0" stroke-linecap="butt"/><path d="M1136.97853,1079.73945c0,29.59753 -39.41797,53.59107 -88.04248,53.59107c-48.62451,0 -88.04248,-23.99355 -88.04248,-53.59107c0,-29.59753 39.41797,-53.59107 88.0425,-53.59107c48.62454,0 88.04248,23.99356 88.04248,53.59107z" fill="#feffaf" stroke="#000000" stroke-width="0" stroke-linecap="butt"/><path d="M1293.92381,1089.9473c0,29.59753 -39.41798,53.59107 -88.04248,53.59107c-48.62451,0 -88.04248,-23.99356 -88.04248,-53.59107c0,-29.59753 39.41797,-53.59108 88.04248,-53.59108c48.62451,0 88.04248,23.99355 88.04248,53.59108z" fill="#feffaf" stroke="#000000" stroke-width="0" stroke-linecap="butt"/><path d="M737.0354,1091.64858c0,-29.59752 39.41794,-53.59107 88.04248,-53.59107c48.62454,0 88.0425,23.99352 88.0425,53.59107c0,29.59752 -39.41796,53.59106 -88.04247,53.59106c-48.62454,0 -88.04248,-23.99354 -88.04248,-53.59107z" data-paper-data="{&quot;index&quot;:null}" fill="#feffaf" stroke="#000000" stroke-width="0" stroke-linecap="butt"/><path d="M784.67191,1079.73945c0,-29.59752 39.41794,-53.59107 88.04249,-53.59107c48.62454,0 88.0425,23.99352 88.0425,53.59106c0,29.59752 -39.41797,53.59107 -88.04248,53.59107c-48.62451,0 -88.04248,-23.99354 -88.04248,-53.59107z" data-paper-data="{&quot;index&quot;:null}" fill="#feffaf" stroke="#000000" stroke-width="0" stroke-linecap="butt"/><path d="M715.76916,1036.35623c48.62451,0 88.04248,23.99355 88.04248,53.59109c0,29.59752 -39.41796,53.59107 -88.04248,53.59107c-48.62451,0 -88.04249,-23.99354 -88.04249,-53.59107c0,-29.59753 39.41797,-53.59109 88.04249,-53.59109z" data-paper-data="{&quot;index&quot;:null}" fill="#feffaf" stroke="#000000" stroke-width="0" stroke-linecap="butt"/><path d="M591.99924,1036.35623c48.62451,0 88.04248,23.99355 88.04248,53.59109c0,29.59752 -39.41796,53.59107 -88.04248,53.59107c-48.62451,0 -88.04248,-23.99354 -88.04248,-53.59107c0,-29.59753 39.41796,-53.59109 88.04248,-53.59109z" data-paper-data="{&quot;index&quot;:null}" fill="#feffaf" stroke="#000000" stroke-width="0" stroke-linecap="butt"/><path d="M394.64797,1088.24593c0,-29.59752 39.41797,-53.59108 88.04248,-53.59108c48.62451,0 88.04248,23.99354 88.04248,53.59107c0,29.59752 -39.41796,53.59107 -88.04248,53.59107c-48.62451,0 -88.04248,-23.99352 -88.04248,-53.59107z" data-paper-data="{&quot;index&quot;:null}" fill="#feffaf" stroke="#000000" stroke-width="0" stroke-linecap="butt"/><path d="M297.24834,1092.49925c0,-29.59752 39.41794,-53.59107 88.04248,-53.59107c48.62451,0 88.04248,23.99352 88.04248,53.59106c0,29.59753 -39.41796,53.59109 -88.04248,53.59109c-48.62452,0 -88.04248,-23.99355 -88.04248,-53.59109z" data-paper-data="{&quot;index&quot;:null}" fill="#feffaf" stroke="#000000" stroke-width="0" stroke-linecap="butt"/><path d="M275.98199,1037.20685c48.62452,0 88.04248,23.99352 88.04248,53.59107c0,29.59752 -39.41796,53.59107 -88.04248,53.59107c-48.62454,0 -88.04247,-23.99354 -88.04247,-53.59107c0,-29.59752 39.41794,-53.59107 88.04247,-53.59107z" data-paper-data="{&quot;index&quot;:null}" fill="#feffaf" stroke="#000000" stroke-width="0" stroke-linecap="butt"/><path d="M152.21214,1037.20685c48.62454,0 88.04248,23.99352 88.04248,53.59107c0,29.59752 -39.41794,53.59107 -88.04248,53.59107c-48.62454,0 -88.04248,-23.99354 -88.04248,-53.59107c0,-29.59752 39.41794,-53.59107 88.04248,-53.59107z" data-paper-data="{&quot;index&quot;:null}" fill="#feffaf" stroke="#000000" stroke-width="0" stroke-linecap="butt"/><path d="M-45.13909,1089.09662c0,-29.59752 39.41796,-53.59107 88.04249,-53.59107c48.62454,0 88.04247,23.99352 88.04247,53.59107c0,29.59752 -39.41794,53.59107 -88.04247,53.59107c-48.62454,0 -88.04249,-23.99354 -88.04249,-53.59108z" data-paper-data="{&quot;index&quot;:null}" fill="#feffaf" stroke="#000000" stroke-width="0" stroke-linecap="butt"/><g stroke="none" stroke-linecap="butt"><path d="M1133.309,1010.3321c-2.20914,0 23.64977,-19.1455 23.64977,-21.35464c0,0 -21.78122,7.21976 -21.78122,-33.00026c0,-25.45536 15.47712,-73.30738 18.18185,-132.07479c5.78418,-125.67635 -17.72761,-202.18737 -28.92732,-228.41247c-1.18249,-2.76889 -36.68919,-71.02836 -36.68919,-71.02836c0,-2.03681 10.60405,-9.80833 10.77638,-9.80833l60.47745,-16.45692c2.20914,0 12.71249,-0.14525 12.71249,2.0639c0,0 57.85622,79.3464 76.87642,150.56815c31.44861,117.76033 30.5776,255.27042 30.5776,284.33566c0,56.89642 -21.78122,53.81342 -21.78122,53.81342c0,2.20914 27.62379,24.00196 25.41465,24.00196z" fill="#825a08" stroke-width="NaN"/><path d="M943.50448,418.64738c0,-9.34215 0.82834,-12.51981 2.7309,-20.19778c3.18903,-12.86968 -66.46259,56.09193 -168.85565,58.12622c-1.47213,0.02925 -5.33618,-4.26323 -4.76583,-5.02719c63.80234,-85.45976 166.98989,-90.28577 193.35328,-95.57786c-46.69244,-26.24444 -114.80184,-24.04028 -114.71717,-24.10386c-10.19214,-2.99166 -6.32989,-15.98916 -4.17445,-17.80784c46.52933,-39.2597 90.84551,-46.17802 125.19463,-44.35004c85.98755,4.57607 120.99445,52.44874 125.07034,52.97821c45.6002,5.92363 123.4278,-63.91181 186.98231,-34.8202c0.38837,0.17777 -1.37473,-0.07428 -0.95439,-0.16152c10.50996,-2.18117 141.28758,-14.36836 206.16109,89.45742c0.568,0.90904 7.18691,10.0865 -7.86459,13.20616c-6.7507,1.3992 -41.81549,-9.6268 -42.97491,-9.87428c-49.3552,-10.53469 -115.57521,1.95879 -115.54744,2.23701c0.40123,4.02059 -115.41226,3.07915 -115.41226,7.26615c0,79.36836 -73.89056,158.03381 -153.25891,158.03381c-79.36836,0 -110.96696,-50.01607 -110.96696,-129.38442z" fill="#4ee656" stroke-width="0"/><path d="M1402.28849,557.35842c-2.48609,-1.88554 -62.91033,-65.13206 -126.29491,-81.51963c-51.22817,-13.24462 -104.59686,21.18255 -105.17274,22.32523c-9.22798,18.31052 -48.4376,52.80642 -73.72403,46.67789c-0.51891,-0.12577 -64.06395,50.4626 -74.28253,79.25591c-23.70611,66.79767 0.94801,147.82314 -0.12652,147.31802c-0.6713,-0.31557 -4.40594,21.84406 -8.80592,15.18315c-2.69735,-4.08337 -29.82472,0.90806 -60.05462,-43.04568c-34.73713,-50.50717 -29.0854,-70.35048 -31.04246,-75.46495c-19.16461,-50.08364 -6.16313,-83.18638 16.30553,-119.60342c1.4316,-6.98785 4.02679,-13.28826 7.52431,-18.97083c0.36427,-0.59184 -17.11273,10.36044 -35.19098,27.45817c-18.05441,17.07518 -36.7015,40.28193 -49.3398,60.71946c-48.32081,78.14007 -23.75004,131.89046 -53.96079,122.35654c-13.13737,-4.1459 -98.1853,-37.84096 -12.03572,-237.34451c19.95337,-46.20762 37.78824,-89.1725 146.70101,-106.80076c50.12635,-8.11329 97.10534,3.05984 127.1726,17.53722c1.36084,0.65524 4.41987,1.79402 4.02802,0.48576c-15.81698,-52.8073 42.36247,-143.68303 122.38989,-178.72354c108.81473,-47.64522 153.74384,-7.72975 150.12235,-3.63897c-1.04507,1.1805 -49.41269,42.16976 -88.13767,80.53686c-30.30743,30.02734 -53.35659,59.66539 -52.16352,59.28269c39.19283,-12.57198 89.01277,-6.39366 119.14363,10.9013c132.96827,76.32313 104.49266,195.96734 76.94488,175.07409z" fill="#8eff57" stroke-width="0"/></g><g data-paper-data="{&quot;index&quot;:null}" fill-opacity="0.17647" fill="#000000" stroke="none" stroke-linecap="butt"><path d="M1282.14858,1001.33557c1.5621,-1.5621 -2.56102,33.38072 -0.99892,34.94282c0,0 13.22164,-17.58166 53.45348,22.65019c20.55223,20.55223 118.40244,117.17065 179.43405,222.6773c36.91207,63.81069 52.10792,160.8276 52.10792,160.8276c1.5621,1.5621 -5.96759,8.88639 -7.52969,10.44849l-54.40081,31.12722c-0.12186,0.12186 -13.11535,2.12476 -14.55559,0.68451c0,0 -23.15971,-73.37376 -24.28146,-76.16781c-10.62456,-26.46334 -48.10067,-97.19014 -141.0573,-181.96671c-43.46737,-39.6423 -88.24783,-62.53481 -106.24749,-80.53447c-28.43985,-28.43985 -7.93306,-38.73636 -7.93306,-38.73636c-1.5621,-1.5621 -33.38502,3.185 -31.82292,1.6229z" stroke-width="NaN"/><path d="M1462.48899,1661.50761c-56.1219,-56.1219 -69.14502,-113.83219 -13.02311,-169.95409c56.1219,-56.1219 163.99529,-52.74554 220.11719,3.37636c2.96066,2.96066 84.18746,-79.59755 86.74674,-76.47085c0.17709,0.21637 55.83594,-37.77403 83.28618,-80.12257c0.64484,-0.99483 17.64283,-33.58594 23.40568,-37.37002c12.84895,-8.43708 14.65812,2.73264 14.89927,3.77706c27.54341,119.28841 -73.54797,203.14451 -82.52196,209.03385c-0.35891,0.23554 0.70956,-1.18939 0.56064,-0.78907c-24.36895,65.5107 -128.78249,71.16201 -156.83806,107.59486c-2.5077,3.25648 6.58978,61.86119 -50.97683,125.89934c-22.99592,25.58107 -59.22418,52.02535 -119.88619,57.16576c-2.81013,0.23813 -14.73177,-6.22147 -9.64026,-15.54383c-0.10483,0.01491 49.61437,-46.58713 64.07329,-98.16129c-22.3838,14.89966 -98.76093,84.45177 -204.30517,69.13766c-0.9435,-0.1369 -1.24645,-5.90444 -0.18481,-6.92471c73.84129,-70.96437 171.85564,-71.45228 160.50042,-78.29753c-6.77446,-4.08383 -9.60713,-5.74505 -16.21303,-12.35095z" stroke-width="0"/><path d="M1688.81477,1239.01478c4.70546,-34.25298 109.44199,30.21295 69.38783,178.20432c-9.07635,33.53512 -39.93564,73.13187 -76.53889,91.95565c-1.11424,0.57302 36.14125,5.23207 78.80437,5.03401c54.51233,-0.25306 117.69719,-5.47035 119.2709,-5.37458c5.4534,0.33184 1.90822,60.32602 -108.72567,103.57939c-81.36531,31.81055 -186.76324,8.69079 -212.91935,-39.83391c-0.648,-1.20216 -2.00582,1.76614 -2.50476,3.19172c-11.02371,31.49782 -36.34228,72.61758 -77.52392,102.3253c-89.47802,64.5479 -132.46994,46.7783 -179.25282,28.21374c-201.98727,-80.15336 -165.6753,-164.11733 -159.31737,-176.33845c14.62073,-28.10373 35.25383,27.2777 124.67518,48.3631c23.38814,5.51489 52.98328,8.73905 77.82365,8.04663c24.87317,-0.69333 44.97571,-5.30701 44.29964,-5.46792c-6.4913,-1.54506 -12.78144,-4.16505 -18.73489,-8.09391c-41.63848,-9.86299 -74.23908,-24.07673 -96.10214,-73.04264c-2.23263,-5.00033 -20.26034,-15.03529 -31.41144,-75.31211c-9.70422,-52.45575 13.0072,-68.10823 12.02714,-72.90292c-1.59872,-7.82123 16.71129,5.20721 16.96283,4.50938c0.40263,-1.11698 40.2632,73.60977 104.25903,104.08011c27.58557,13.13432 108.29008,3.97257 108.56807,3.51671c13.54668,-22.21373 65.66435,-25.54683 85.13701,-19.12451c1.21521,0.40079 63.29625,-12.99289 90.15468,-58.58204c33.2319,-56.40743 31.23625,-143.85586 31.6609,-146.94707z" stroke-width="0"/></g></g></g></svg>