<svg version="1.1" xmlns="http://www.w3.org/2000/svg" xmlns:xlink="http://www.w3.org/1999/xlink" width="351.59783" height="182.33599" viewBox="0,0,351.59783,182.33599"><defs><radialGradient cx="1076.07213" cy="564.02305" r="66.81876" gradientUnits="userSpaceOnUse" id="color-1"><stop offset="0" stop-color="#07a900"/><stop offset="1" stop-color="#00ff18"/></radialGradient><linearGradient x1="1116.60086" y1="455.24352" x2="1071.66953" y2="576.05801" gradientUnits="userSpaceOnUse" id="color-2"><stop offset="0" stop-color="#ffa500"/><stop offset="1" stop-color="#ff8000"/></linearGradient><radialGradient cx="1013.55474" cy="564.02305" r="66.81876" gradientUnits="userSpaceOnUse" id="color-3"><stop offset="0" stop-color="#07a900"/><stop offset="1" stop-color="#00ff18"/></radialGradient><linearGradient x1="1054.08347" y1="455.24352" x2="1009.15214" y2="576.05801" gradientUnits="userSpaceOnUse" id="color-4"><stop offset="0" stop-color="#ffa500"/><stop offset="1" stop-color="#ff8000"/></linearGradient><radialGradient cx="951.03737" cy="564.02305" r="66.81876" gradientUnits="userSpaceOnUse" id="color-5"><stop offset="0" stop-color="#07a900"/><stop offset="1" stop-color="#00ff18"/></radialGradient><linearGradient x1="991.5661" y1="455.24352" x2="946.63477" y2="576.05801" gradientUnits="userSpaceOnUse" id="color-6"><stop offset="0" stop-color="#ffa500"/><stop offset="1" stop-color="#ff8000"/></linearGradient><radialGradient cx="825.8648" cy="564.34924" r="66.81876" gradientUnits="userSpaceOnUse" id="color-7"><stop offset="0" stop-color="#034c00"/><stop offset="1" stop-color="#00c314"/></radialGradient><linearGradient x1="861.53746" y1="468.54813" x2="816.60613" y2="589.36263" gradientUnits="userSpaceOnUse" id="color-8"><stop offset="0" stop-color="#ff8100"/><stop offset="1" stop-color="#ff3500"/></linearGradient><radialGradient cx="888.43282" cy="564.34924" r="66.81876" gradientUnits="userSpaceOnUse" id="color-9"><stop offset="0" stop-color="#034c00"/><stop offset="1" stop-color="#00c314"/></radialGradient><linearGradient x1="924.10548" y1="468.54813" x2="879.17415" y2="589.36263" gradientUnits="userSpaceOnUse" id="color-10"><stop offset="0" stop-color="#ff8100"/><stop offset="1" stop-color="#ff3500"/></linearGradient></defs><g transform="translate(-784.20108,-448.832)"><g data-paper-data="{&quot;isPaintingLayer&quot;:true}" fill-rule="nonzero" stroke="none" stroke-width="0" stroke-linecap="butt" stroke-linejoin="miter" stroke-miterlimit="10" stroke-dasharray="" stroke-dashoffset="0" style="mix-blend-mode: normal"><g><path d="M1037.13706,618.30527c-2.07058,-0.77005 -3.20612,-2.85438 -2.53629,-4.65546l42.50567,-114.29222c0.66983,-1.80108 2.89137,-2.63689 4.96195,-1.86683l32.93881,12.25005c2.07058,0.77005 3.20612,2.85438 2.53629,4.65546l-42.50568,114.29222c-0.66983,1.80108 -2.89137,2.63689 -4.96195,1.86683z" fill="url(#color-1)"/><path d="M1055.20013,569.93299c-2.07058,-0.77006 -3.20612,-2.85437 -2.53629,-4.65545l42.50568,-114.29222c0.66983,-1.80108 2.89137,-2.63689 4.96195,-1.86683l32.9388,12.25006c2.07058,0.77006 3.20612,2.85437 2.53629,4.65545l-42.50568,114.29222c-0.66983,1.80108 -2.89137,2.63689 -4.96195,1.86683z" fill="url(#color-2)"/></g><g><path d="M974.61967,618.30527c-2.07058,-0.77005 -3.20612,-2.85438 -2.53629,-4.65546l42.50567,-114.29222c0.66983,-1.80108 2.89137,-2.63689 4.96195,-1.86683l32.93881,12.25005c2.07058,0.77005 3.20612,2.85438 2.53629,4.65546l-42.50568,114.29222c-0.66983,1.80108 -2.89137,2.63689 -4.96195,1.86683z" fill="url(#color-3)"/><path d="M992.68274,569.93299c-2.07058,-0.77006 -3.20612,-2.85437 -2.53629,-4.65545l42.50568,-114.29222c0.66983,-1.80108 2.89137,-2.63689 4.96195,-1.86683l32.9388,12.25006c2.07058,0.77006 3.20612,2.85437 2.53629,4.65545l-42.50568,114.29222c-0.66983,1.80108 -2.89137,2.63689 -4.96195,1.86683z" fill="url(#color-4)"/></g><g><path d="M912.1023,618.30527c-2.07058,-0.77005 -3.20612,-2.85438 -2.53629,-4.65546l42.50567,-114.29222c0.66983,-1.80108 2.89137,-2.63689 4.96195,-1.86683l32.93881,12.25005c2.07058,0.77005 3.20612,2.85438 2.53629,4.65546l-42.50568,114.29222c-0.66983,1.80108 -2.89137,2.63689 -4.96195,1.86683z" fill="url(#color-5)"/><path d="M930.16537,569.93299c-2.07058,-0.77006 -3.20612,-2.85437 -2.53629,-4.65545l42.50568,-114.29222c0.66983,-1.80108 2.89137,-2.63689 4.96195,-1.86683l32.9388,12.25006c2.07058,0.77006 3.20612,2.85437 2.53629,4.65545l-42.50568,114.29222c-0.66983,1.80108 -2.89137,2.63689 -4.96195,1.86683z" fill="url(#color-6)"/></g><g><path d="M786.92973,618.63146c-2.07058,-0.77005 -3.20612,-2.85438 -2.53629,-4.65546l42.50567,-114.29222c0.66983,-1.80108 2.89137,-2.63689 4.96195,-1.86683l32.93881,12.25005c2.07058,0.77005 3.20612,2.85438 2.53629,4.65546l-42.50568,114.29222c-0.66983,1.80108 -2.89137,2.63689 -4.96195,1.86683z" fill="url(#color-7)"/><path d="M800.13673,583.23758c-2.07058,-0.77006 -3.20612,-2.85437 -2.53629,-4.65545c0,0 20.22647,-54.38634 30.00192,-80.67125c1.15685,-3.11063 -7.63561,-7.7925 -7.4863,-8.19399c0.58551,-1.57434 3.36573,-9.41513 5.94298,-9.82248c0.52435,-0.08287 5.28226,8.25414 5.40584,7.92186c0.46806,-1.25855 2.67812,-3.3454 4.29302,-3.85472c0.49098,-0.15485 -2.51347,-6.96522 -1.93988,-7.05886c0.76139,-0.12431 1.56222,-2.14067 4.03854,-0.25472c1.02486,0.78053 2.71785,6.46219 3.10194,6.46827c1.40937,0.02233 2.68658,1.13995 4.28149,1.35933c0.51402,0.0707 4.81728,-7.59696 5.34443,-7.5079c0.90731,0.15328 2.02346,-1.83641 2.3509,-0.28249c0.53083,2.51917 -0.72488,10.03099 0.80749,10.47483c2.53466,0.73414 5.13186,1.38075 7.4796,2.32758c0.86494,0.34883 1.0796,-6.54971 3.30405,-7.66899c0.47768,-0.24036 2.38158,-1.1027 3.00426,0.00797c0.44991,0.8025 -0.28787,5.20376 -0.13353,5.22847c0.94568,0.15142 2.17838,-2.84228 2.99194,-3.34526c1.30979,-0.80976 2.60455,1.00138 2.99663,1.22682c0.60481,0.34775 -4.95464,9.09688 -4.40991,9.41174c3.66783,2.12006 3.89701,4.72004 3.31927,6.27351c-0.14449,0.38851 9.96274,-0.81803 10.38531,-0.44858c1.76725,1.54508 -0.58733,5.54491 -0.8926,6.36575c-0.14417,0.38765 -9.9035,-3.92798 -11.60367,0.64357c-8.24202,22.1617 -32.14668,86.43822 -32.14668,86.43822c-0.66983,1.80108 -2.89137,2.63689 -4.96195,1.86683z" fill="url(#color-8)"/></g><g><path d="M849.49775,618.63146c-2.07058,-0.77005 -3.20612,-2.85438 -2.53629,-4.65546l42.50567,-114.29222c0.66983,-1.80108 2.89137,-2.63689 4.96195,-1.86683l32.93881,12.25005c2.07058,0.77005 3.20612,2.85438 2.53629,4.65546l-42.50568,114.29222c-0.66983,1.80108 -2.89137,2.63689 -4.96195,1.86683z" fill="url(#color-9)"/><path d="M862.70475,583.23758c-2.07058,-0.77006 -3.20612,-2.85437 -2.53629,-4.65545c0,0 20.22647,-54.38634 30.00192,-80.67125c1.15685,-3.11063 -7.63561,-7.7925 -7.4863,-8.19399c0.58551,-1.57434 3.36573,-9.41513 5.94298,-9.82248c0.52435,-0.08287 5.28226,8.25414 5.40584,7.92186c0.46806,-1.25855 2.67812,-3.3454 4.29302,-3.85472c0.49098,-0.15485 -2.51347,-6.96522 -1.93988,-7.05886c0.76139,-0.12431 1.56222,-2.14067 4.03854,-0.25472c1.02486,0.78053 2.71785,6.46219 3.10194,6.46827c1.40937,0.02233 2.68658,1.13995 4.28149,1.35933c0.51402,0.0707 4.81728,-7.59696 5.34443,-7.5079c0.90731,0.15328 2.02346,-1.83641 2.3509,-0.28249c0.53083,2.51917 -0.72488,10.03099 0.80749,10.47483c2.53466,0.73414 5.13186,1.38075 7.4796,2.32758c0.86494,0.34883 1.0796,-6.54971 3.30405,-7.66899c0.47768,-0.24036 2.38158,-1.1027 3.00426,0.00797c0.44991,0.8025 -0.28787,5.20376 -0.13353,5.22847c0.94568,0.15142 2.17838,-2.84228 2.99194,-3.34526c1.30979,-0.80976 2.60455,1.00138 2.99663,1.22682c0.60481,0.34775 -4.95464,9.09688 -4.40991,9.41174c3.66783,2.12006 3.89701,4.72004 3.31927,6.27351c-0.14449,0.38851 9.96274,-0.81803 10.38531,-0.44858c1.76725,1.54508 -0.58733,5.54491 -0.8926,6.36575c-0.14417,0.38765 -9.9035,-3.92798 -11.60367,0.64357c-8.24202,22.1617 -32.14668,86.43822 -32.14668,86.43822c-0.66983,1.80108 -2.89137,2.63689 -4.96195,1.86683z" fill="url(#color-10)"/></g></g></g></svg>