<svg version="1.1" xmlns="http://www.w3.org/2000/svg" xmlns:xlink="http://www.w3.org/1999/xlink" width="139.12913" height="139.12913" viewBox="0,0,139.12913,139.12913"><defs><linearGradient x1="181.63775" y1="931.11924" x2="181.63775" y2="980.4466" gradientTransform="translate(-34.43191,-905.39504) scale(0.93518,0.93518)" gradientUnits="userSpaceOnUse" id="color-1"><stop offset="0" stop-color="#00b14a"/><stop offset="1" stop-color="#4c74b5"/></linearGradient></defs><g transform="translate(-21.3471,-924.48718)"><g data-paper-data="{&quot;isPaintingLayer&quot;:true}" fill-rule="nonzero" stroke-linejoin="miter" stroke-miterlimit="10" stroke-dasharray="" stroke-dashoffset="0" style="mix-blend-mode: normal"><path d="M26.3471,1058.61631v-129.12913h129.12913v129.12913z" fill="#1f1e54" stroke="#000000" stroke-width="10" stroke-linecap="butt"/><path d="M139.87307,1000.17303l-12.25201,7.35121l-1.9603,14.21234l-7.35122,-1.96032l-1.47024,-11.76194l-6.37105,-5.88097" data-paper-data="{&quot;index&quot;:null}" fill="none" stroke="#6fc543" stroke-width="10" stroke-linecap="round"/><path d="M121.24999,996.2524l1.47024,10.78177v11.76193" data-paper-data="{&quot;index&quot;:null}" fill="none" stroke="#6fc543" stroke-width="10" stroke-linecap="round"/><path d="M118.30953,1013.4052v-4.41074" data-paper-data="{&quot;index&quot;:null}" fill="none" stroke="#6fc543" stroke-width="10" stroke-linecap="round"/><path d="M70.34695,998.93149l-12.25202,7.35121l-1.96032,14.21234l-7.3512,-1.96032l-1.47024,-11.76193l-6.37105,-5.88098" data-paper-data="{&quot;index&quot;:null}" fill="none" stroke="#6fc543" stroke-width="10" stroke-linecap="round"/><path d="M51.72389,995.01085l1.47024,10.78177v11.76195" data-paper-data="{&quot;index&quot;:null}" fill="none" stroke="#6fc543" stroke-width="10" stroke-linecap="round"/><path d="M48.78339,1012.16366v-4.41073" data-paper-data="{&quot;index&quot;:null}" fill="none" stroke="#6fc543" stroke-width="10" stroke-linecap="round"/><path d="M86.48693,1014.45071l-12.25202,7.35121l-1.96032,14.21234l-7.35122,-1.96033l-1.47024,-11.76193l-6.37105,-5.88098" data-paper-data="{&quot;index&quot;:null}" fill="none" stroke="#7fe24d" stroke-width="10" stroke-linecap="round"/><path d="M67.86388,1010.53006l1.47024,10.78177v11.76193" data-paper-data="{&quot;index&quot;:null}" fill="none" stroke="#7fe24d" stroke-width="10" stroke-linecap="round"/><path d="M64.92337,1023.27217v4.41073" data-paper-data="{&quot;index&quot;:null}" fill="none" stroke="#7fe24d" stroke-width="10" stroke-linecap="round"/><path d="M130.56152,1016.93378l-12.25201,7.35121l-1.96033,14.21235l-7.35121,-1.96033l-1.47024,-11.76193l-6.37105,-5.88098" data-paper-data="{&quot;index&quot;:null}" fill="none" stroke="#7fe24d" stroke-width="10" stroke-linecap="round"/><path d="M111.93847,1013.01313l1.47024,10.78177v11.76193" data-paper-data="{&quot;index&quot;:null}" fill="none" stroke="#7fe24d" stroke-width="10" stroke-linecap="round"/><path d="M108.99798,1025.75523v4.41073" data-paper-data="{&quot;index&quot;:null}" fill="none" stroke="#7fe24d" stroke-width="10" stroke-linecap="round"/><path d="M101.38539,1026.86608l-12.25201,7.35121l-1.96033,14.21235l-7.35121,-1.96033l-1.47024,-11.76193l-6.37105,-5.88097" data-paper-data="{&quot;index&quot;:null}" fill="none" stroke="#8eff57" stroke-width="10" stroke-linecap="round"/><path d="M82.76233,1022.94544l1.47024,10.78177v11.76193" data-paper-data="{&quot;index&quot;:null}" fill="none" stroke="#8eff57" stroke-width="10" stroke-linecap="round"/><path d="M79.82183,1040.09825v-4.41073" data-paper-data="{&quot;index&quot;:null}" fill="none" stroke="#8eff57" stroke-width="10" stroke-linecap="round"/><text transform="translate(36.81838,968.14797) scale(1.06931,1.06931)" font-size="40" xml:space="preserve" fill="#f8ff66" fill-rule="nonzero" stroke="url(#color-1)" stroke-width="0" stroke-linecap="butt" stroke-linejoin="miter" stroke-miterlimit="10" stroke-dasharray="" stroke-dashoffset="0" font-family="Playful" font-weight="normal" text-anchor="start" style="mix-blend-mode: normal"><tspan x="0" dy="0">grass</tspan></text></g></g></svg>