<svg version="1.1" xmlns="http://www.w3.org/2000/svg" xmlns:xlink="http://www.w3.org/1999/xlink" width="8.46318" height="8.46318" viewBox="0,0,8.46318,8.46318"><g transform="translate(-955.76841,-535.76841)"><g data-paper-data="{&quot;isPaintingLayer&quot;:true}" fill-rule="nonzero" stroke-linecap="butt" stroke-linejoin="miter" stroke-miterlimit="10" stroke-dasharray="" stroke-dashoffset="0" style="mix-blend-mode: normal"><path d="M956.39341,540c0,-1.99186 1.61472,-3.60659 3.60659,-3.60659c1.99186,0 3.60659,1.61472 3.60659,3.60659c0,1.99186 -1.61472,3.60659 -3.60659,3.60659c-1.99186,0 -3.60659,-1.61472 -3.60659,-3.60659z" fill="none" stroke="#000000" stroke-width="1.25"/><path d="M956.85254,540.00638v-0.01276h6.29491v0.01276z" fill="none" stroke="#000000" stroke-width="1.25"/><path d="M959.9995,543.07653v-6.15306h0.001v6.15306z" fill="none" stroke="#000000" stroke-width="1.25"/><path d="M956.93769,540c0,-1.69127 1.37104,-3.06231 3.06231,-3.06231c1.69127,0 3.06231,1.37104 3.06231,3.06231c0,1.69127 -1.37104,3.06231 -3.06231,3.06231c-1.69127,0 -3.06231,-1.37104 -3.06231,-3.06231z" fill-opacity="0.01176" fill="#000000" stroke="none" stroke-width="0"/></g></g></svg>