<svg version="1.1" xmlns="http://www.w3.org/2000/svg" xmlns:xlink="http://www.w3.org/1999/xlink" width="13.28846" height="13.28846" viewBox="0,0,13.28846,13.28846"><g transform="translate(-953.35577,-533.35577)"><g data-paper-data="{&quot;isPaintingLayer&quot;:true}" fill-rule="nonzero" stroke-linecap="butt" stroke-linejoin="miter" stroke-miterlimit="10" stroke-dasharray="" stroke-dashoffset="0" style="mix-blend-mode: normal"><path d="" fill="#ff0000" stroke="none" stroke-width="0"/><path d="M954.10577,540c0,-3.25529 2.63894,-5.89423 5.89423,-5.89423c3.25529,0 5.89423,2.63894 5.89423,5.89423c0,3.25529 -2.63894,5.89423 -5.89423,5.89423c-3.25529,0 -5.89423,-2.63894 -5.89423,-5.89423z" fill="none" stroke="#000000" stroke-width="1.5"/><path d="M956.81567,540.01043h-1.77976v-0.02084h1.77919" fill="none" stroke="#000000" stroke-width="1.5"/><path d="M963.19036,539.98957h1.89359v0.02084h-1.89417" fill="none" stroke="#000000" stroke-width="1.5"/><path d="M960.00081,543.19987v1.81311h-0.00163v-1.81309" fill="none" stroke="#000000" stroke-width="1.5"/><path d="M959.99919,536.80855v-1.62677h0.00163v1.6268" fill="none" stroke="#000000" stroke-width="1.5"/><path d="M954.14166,540c0,-3.23547 2.62287,-5.85834 5.85834,-5.85834c3.23547,0 5.85834,2.62287 5.85834,5.85834c0,3.23547 -2.62287,5.85834 -5.85834,5.85834c-3.23547,0 -5.85834,-2.62287 -5.85834,-5.85834z" fill-opacity="0.01176" fill="#000000" stroke="none" stroke-width="0"/></g></g></svg>