<svg version="1.1" xmlns="http://www.w3.org/2000/svg" xmlns:xlink="http://www.w3.org/1999/xlink" width="30.88135" height="17.9193" viewBox="0,0,30.88135,17.9193"><defs><radialGradient cx="960" cy="540" r="1.35246" gradientUnits="userSpaceOnUse" id="color-1"><stop offset="0" stop-color="#ff0000"/><stop offset="1" stop-color="#d60000"/></radialGradient><radialGradient cx="960" cy="540" r="1.35246" gradientUnits="userSpaceOnUse" id="color-2"><stop offset="0" stop-color="#000000" stop-opacity="0"/><stop offset="1" stop-color="#000000" stop-opacity="0"/></radialGradient></defs><g transform="translate(-945.58274,-531.33494)"><g data-paper-data="{&quot;isPaintingLayer&quot;:true}" fill-rule="nonzero" stroke-linecap="butt" stroke-linejoin="miter" stroke-miterlimit="10" stroke-dasharray="" stroke-dashoffset="0" style="mix-blend-mode: normal"><path d="M958.64754,540c0,-0.74694 0.60552,-1.35246 1.35246,-1.35246c0.74694,0 1.35246,0.60552 1.35246,1.35246c0,0.74694 -0.60552,1.35246 -1.35246,1.35246c-0.74694,0 -1.35246,-0.60552 -1.35246,-1.35246z" fill="url(#color-1)" stroke="url(#color-2)" stroke-width="0"/><path d="M976.15104,532.73248c1.11803,2.23607 -1.11803,3.3541 -1.11803,3.3541l-0.86925,0.29119c-1.55573,1.55451 -4.35753,4.44754 -5.91691,5.37968c-0.90706,0.54221 -2.12748,0.30665 -3.07339,0.77783c-0.82639,0.41165 -1.31704,1.31852 -2.10406,1.80121c-4.22426,2.5908 -9.7757,4.17224 -14.62366,4.90028c0,0 -2.47487,0.35355 -2.82843,-2.12132c-0.35355,-2.47487 2.12132,-2.82843 2.12132,-2.82843c4.12962,-0.55142 9.13145,-1.99879 12.71812,-4.21364c0.89695,-0.55389 1.51068,-1.52348 2.4529,-1.99626c0.9214,-0.46234 2.10957,-0.22607 3.00256,-0.74115c0.65234,-0.37628 3.86216,-3.63919 4.716,-4.49373l2.16872,-1.22779c0,0 2.23607,-1.11803 3.3541,1.11803z" fill="#ff0000" stroke="none" stroke-width="0.5"/></g></g></svg>