<svg version="1.1" xmlns="http://www.w3.org/2000/svg" xmlns:xlink="http://www.w3.org/1999/xlink" width="186.81959" height="108.99654" viewBox="0,0,186.81959,108.99654"><g transform="translate(-866.5902,-485.50173)"><g data-paper-data="{&quot;isPaintingLayer&quot;:true}" fill-opacity="0.09804" fill="#fafafa" fill-rule="nonzero" stroke="none" stroke-width="0" stroke-linecap="butt" stroke-linejoin="miter" stroke-miterlimit="10" stroke-dasharray="" stroke-dashoffset="0" style="mix-blend-mode: normal"><path d="M955.10204,587.42344c-15.77172,0 -28.55722,-12.7855 -28.55722,-28.55722c0,-15.77172 12.7855,-28.55724 28.55724,-28.55724c15.77172,0 28.55724,12.78553 28.55724,28.55724c0,15.77172 -12.7855,28.55724 -28.55722,28.55724z" data-paper-data="{&quot;index&quot;:null}"/><path d="M952.74376,592.13999c-15.77172,0 -28.55722,-12.7855 -28.55722,-28.55722c0,-15.77172 12.7855,-28.55724 28.55724,-28.55724c15.77172,0 28.55724,12.78553 28.55724,28.55724c0,15.77172 -12.7855,28.55724 -28.55722,28.55724z" data-paper-data="{&quot;index&quot;:null}"/><path d="M969.25169,594.49826c-15.77172,0 -28.55722,-12.7855 -28.55722,-28.55722c0,-15.77172 12.7855,-28.55724 28.55724,-28.55724c15.77172,0 28.55724,12.78553 28.55724,28.55724c0,15.77172 -12.7855,28.55724 -28.55722,28.55724z" data-paper-data="{&quot;index&quot;:null}"/><path d="M959.81859,566.19897c-15.77172,0 -28.55722,-12.7855 -28.55722,-28.55722c0,-15.77172 12.7855,-28.55724 28.55724,-28.55724c15.77172,0 28.55724,12.78553 28.55724,28.55724c0,15.77172 -12.7855,28.55724 -28.55722,28.55724z" data-paper-data="{&quot;index&quot;:null}"/><path d="M959.81859,549.69104c-15.77172,0 -28.55722,-12.7855 -28.55722,-28.55722c0,-15.77172 12.7855,-28.55724 28.55724,-28.55724c15.77172,0 28.55724,12.78553 28.55724,28.55724c0,15.77172 -12.7855,28.55724 -28.55722,28.55724z" data-paper-data="{&quot;index&quot;:null}"/><path d="M996.29532,537.64172c0,-15.77172 12.7855,-28.55724 28.55724,-28.55724c15.77172,0 28.55724,12.78553 28.55724,28.55724c0,15.77172 -12.7855,28.55724 -28.55722,28.55724c-15.77172,0 -28.55722,-12.7855 -28.55722,-28.55722z"/><path d="M960.9212,514.05898c0,-15.77172 12.7855,-28.55724 28.55724,-28.55724c15.77172,0 28.55724,12.78553 28.55724,28.55724c0,15.77172 -12.7855,28.55724 -28.55722,28.55724c-15.77172,0 -28.55722,-12.7855 -28.55722,-28.55722z"/><path d="M972.71257,561.22447c0,-15.77172 12.7855,-28.55724 28.55724,-28.55724c15.77172,0 28.55724,12.78553 28.55724,28.55724c0,15.77172 -12.7855,28.55724 -28.55722,28.55724c-15.77172,0 -28.55722,-12.7855 -28.55722,-28.55722z"/><path d="M895.14743,566.19897c-15.77172,0 -28.55722,-12.7855 -28.55722,-28.55722c0,-15.77172 12.7855,-28.55724 28.55724,-28.55724c15.77172,0 28.55724,12.78553 28.55724,28.55724c0,15.77172 -12.7855,28.55724 -28.55722,28.55724z" data-paper-data="{&quot;index&quot;:null}"/><path d="M930.52155,542.61622c-15.77172,0 -28.55722,-12.7855 -28.55722,-28.55722c0,-15.77172 12.7855,-28.55724 28.55724,-28.55724c15.77172,0 28.55724,12.78553 28.55724,28.55724c0,15.77172 -12.7855,28.55724 -28.55722,28.55724z" data-paper-data="{&quot;index&quot;:null}"/><path d="M918.73018,589.78171c-15.77172,0 -28.55722,-12.7855 -28.55722,-28.55722c0,-15.77172 12.7855,-28.55724 28.55724,-28.55724c15.77172,0 28.55724,12.78553 28.55724,28.55724c0,15.77172 -12.7855,28.55724 -28.55722,28.55724z" data-paper-data="{&quot;index&quot;:null}"/></g></g></svg>