<svg version="1.1" xmlns="http://www.w3.org/2000/svg" xmlns:xlink="http://www.w3.org/1999/xlink" width="797.56958" height="445.45374" viewBox="0,0,797.56958,445.45374"><defs><radialGradient cx="960.00005" cy="540" r="198.25406" gradientUnits="userSpaceOnUse" id="color-1"><stop offset="0" stop-color="#88f569"/><stop offset="1" stop-color="#88f569"/></radialGradient><linearGradient x1="788.75316" y1="613.15904" x2="1131.76187" y2="613.15904" gradientUnits="userSpaceOnUse" id="color-2"><stop offset="0" stop-color="#3a3a3a"/><stop offset="1" stop-color="#000000"/></linearGradient><linearGradient x1="758.16213" y1="540" x2="1161.83507" y2="540" gradientUnits="userSpaceOnUse" id="color-3"><stop offset="0" stop-color="#3a3a3a"/><stop offset="1" stop-color="#000000"/></linearGradient><radialGradient cx="960.01707" cy="304.65077" r="9.35044" gradientUnits="userSpaceOnUse" id="color-4"><stop offset="0" stop-color="#677d1c"/><stop offset="1" stop-color="#1c7d45"/></radialGradient><radialGradient cx="960.01707" cy="304.65077" r="9.35044" gradientUnits="userSpaceOnUse" id="color-5"><stop offset="0" stop-color="#677d1c"/><stop offset="1" stop-color="#1c7d45"/></radialGradient><linearGradient x1="960.00002" y1="456.64764" x2="960.00002" y2="664.83943" gradientUnits="userSpaceOnUse" id="color-6"><stop offset="0" stop-color="#3a3a3a"/><stop offset="1" stop-color="#000000"/></linearGradient></defs><g transform="translate(-561.21521,-292.80033)"><g data-paper-data="{&quot;isPaintingLayer&quot;:true}" fill-rule="nonzero" stroke-linejoin="miter" stroke-miterlimit="10" stroke-dasharray="" stroke-dashoffset="0" style="mix-blend-mode: normal"><path d="M761.74599,540c0,-109.4927 88.76136,-198.25406 198.25406,-198.25406c109.49269,0 198.25406,88.76136 198.25406,198.25406c0,109.4927 -88.76137,198.25406 -198.25406,198.25406c-109.4927,0 -198.25406,-88.76136 -198.25406,-198.25406z" fill="url(#color-1)" stroke="none" stroke-width="0" stroke-linecap="butt"/><path d="M1111.63417,672.01231c-28.86638,39.41881 -85.827,66.24176 -151.37666,66.24176c-63.86171,0 -119.57103,-25.4593 -149.09111,-63.22186c-0.68413,-0.87515 -0.71944,-2.50856 0.46618,-2.50557c307.0585,0.77369 80.07971,0.98006 301.34621,-2.23701c0.62346,-0.00906 -0.88538,1.09557 -1.34461,1.72269z" fill="url(#color-2)" stroke="none" stroke-width="0" stroke-linecap="butt"/><path d="M760.81953,507.74772c15.68234,-94.15312 98.88851,-166.00178 199.17907,-166.00178c100.61811,0 184.04004,72.31874 199.33055,166.92501c0.13216,0.81767 -0.42577,2.17499 -2.08397,2.15794c-211.11729,-2.17079 -134.61976,2.56378 -394.327,-1.73707c-1.51702,-0.02512 -2.17655,-0.87646 -2.09865,-1.34411z" fill="url(#color-3)" stroke="none" stroke-width="0" stroke-linecap="butt"/><path d="M950.66663,304.65077c0,-5.16411 4.18634,-9.35044 9.35044,-9.35044c5.16411,0 9.35044,4.18634 9.35044,9.35044c0,5.16411 -4.18634,9.35044 -9.35044,9.35044c-5.16411,0 -9.35044,-4.18634 -9.35044,-9.35044z" fill="url(#color-4)" stroke="url(#color-5)" stroke-width="5" stroke-linecap="butt"/><path d="M561.21521,554.95484c0,-42.41147 87.19824,-79.21107 214.88921,-97.52914c1.06169,-0.15231 3.80888,-1.3378 3.19345,-0.45308c-63.11029,90.72581 422.83096,88.265 360.78184,-0.08714c0.80022,0.11179 1.5989,0.2243 2.39601,0.33753c128.464,18.24835 216.30907,55.16334 216.30907,97.73183c0,60.68758 -178.54203,109.88459 -398.78479,109.88459c-220.24276,0 -398.78479,-49.197 -398.78479,-109.88459z" fill="url(#color-6)" stroke="none" stroke-width="0" stroke-linecap="butt"/><path d="M960.10131,315.18055v25.86113" fill="none" stroke="#000000" stroke-width="10" stroke-linecap="round"/></g></g></svg>