<svg version="1.1" xmlns="http://www.w3.org/2000/svg" xmlns:xlink="http://www.w3.org/1999/xlink" width="686.62263" height="194.42474" viewBox="0,0,686.62263,194.42474"><defs><linearGradient x1="949.9967" y1="651.85932" x2="949.9967" y2="836.27676" gradientUnits="userSpaceOnUse" id="color-1"><stop offset="0" stop-color="#00b14a"/><stop offset="1" stop-color="#4c74b5"/></linearGradient><linearGradient x1="1060.96946" y1="479.01063" x2="1060.96946" y2="616.59368" gradientTransform="translate(-220.31487,-195.24492) scale(0.33535,0.33535)" gradientUnits="userSpaceOnUse" id="color-2"><stop offset="0" stop-color="#00b14a"/><stop offset="1" stop-color="#4c74b5"/></linearGradient></defs><g transform="translate(-616.68868,-442.78321)"><g data-paper-data="{&quot;isPaintingLayer&quot;:true}" fill-rule="nonzero" stroke-linecap="butt" stroke-linejoin="miter" stroke-miterlimit="10" stroke-dasharray="" stroke-dashoffset="0" style="mix-blend-mode: normal"><path d="" fill="#ff7c00" stroke="url(#color-1)" stroke-width="1"/><g fill="#1f1e54"><g stroke="#000000" stroke-width="10"><path d="M1271.4463,488.81989c19.82327,11.63231 26.86502,37.56291 26.86502,51.17842c0,18.9101 -6.29651,51.49569 -42.83711,66.12671c-60.81621,24.35108 -178.3463,26.03085 -296.13019,26.08077c0.1922,-13.78436 0.01591,-181.6034 -0.68397,-184.41159c137.41313,0.23582 259.16753,9.56218 312.78625,41.02569z"/><path d="M961.33996,447.79421c-0.69988,2.80818 -0.87617,170.62723 -0.68397,184.41159c-117.78389,-0.04993 -235.31398,-1.72969 -296.13019,-26.08078c-36.5406,-14.63102 -42.83711,-47.2166 -42.83711,-66.12671c0,-13.61551 7.04175,-39.54612 26.86501,-51.17842c53.61872,-31.46351 175.37313,-40.78986 312.78625,-41.02568z" data-paper-data="{&quot;index&quot;:null}"/></g><path d="M957.78413,627.23827c-2.04167,-0.51042 -4.63689,-0.04314 -6.125,-1.53125c-5.87336,-5.87336 -8.27232,-11.69661 -3.91324,-17.55184c0.18603,-3.8449 0.76042,-7.5416 1.12158,-10.25024c0.04452,-0.33387 0.06308,-0.717 0.0678,-1.13358c-0.309,-3.6318 -0.05332,-7.8902 -0.0678,-9.01156c-0.01387,-1.07446 -1.5025,-1.29284 -1.80208,-2.06319c-0.76277,-1.96141 -1.36959,-4.02672 -1.53125,-6.125c-0.35208,-4.56979 -0.35208,-9.18021 0,-13.75c0.39619,-5.1424 4.45278,-9.63159 4.58333,-14.61774c0.15157,-5.7889 0.42231,-11.59718 0,-17.37265c-0.07222,-0.98766 -2.77579,-2.10597 -3.05208,-2.71795c-0.86598,-1.91808 -1.10342,-4.06444 -1.53125,-6.125c-0.60668,-2.92198 1.07595,-5.30087 2.26585,-7.5l-1.68252,0c-1.38071,0 -2.5,-1.11929 -2.5,-2.5c0,-1.25484 0.92451,-2.29374 2.12954,-2.47274l2.45946,-0.40991l0.01621,0.09724l0.18859,-0.12274c0.1591,0.00058 0.31718,-0.00105 0.47435,-0.00465c0.04085,-4.44605 0.09857,-8.89298 -0.01814,-13.3372c-0.04309,-1.64075 -0.94446,-3.14508 -1.34254,-4.73739c-0.38906,-1.55625 0.29506,-3.22023 0.09254,-4.81154c-1.17945,-9.26774 -2.92934,-19.74885 0.69792,-29.07607c0.42295,-1.08758 2.75526,-1.57987 3.40357,-2.51094c6.1656,-8.85465 15.87135,-5.22191 21.60524,1.90758c3.92954,4.88597 1.16764,6.97485 -0.79007,10.86098c-0.45537,0.90394 0.83436,3.50464 0.89941,3.768c0.23055,0.93332 1.17277,13.08888 1.18392,14.18272c0.03822,3.74981 0.26241,7.50919 0,11.25c-0.12107,1.72597 -1.37176,3.35318 -1.12926,5.06631c0.2781,1.96458 1.20558,4.08518 1.20558,6.03515c0,1.02501 -0.06669,2.0567 -0.14687,3.08957c0.2041,0.36216 0.32054,0.7803 0.32054,1.22563c0,0.58036 -0.19776,1.11454 -0.52956,1.53881c-0.1088,1.81349 -0.11226,3.61547 0.27956,5.376c0.86775,0.58428 1.65664,1.27671 2.34735,2.05796c1.91005,2.16043 3.06932,5.00011 3.06932,8.11056c0,4.23524 -2.1493,7.96849 -5.41667,10.16852c-0.98234,3.85379 1.03065,8.07259 0.06608,11.93086c-1.63877,6.55508 -4.79722,13.63062 -4.64941,20.12909c0.0166,0.72978 0.67726,1.06355 0.96875,1.64652c1.13859,2.27719 2.15895,5.34645 2.36458,7.79167c0.32139,3.82166 0.33676,7.68186 0.04611,11.50721c0.00612,2.95161 -0.69758,5.90865 -0.87944,8.90946c-0.04244,0.70033 -0.06092,1.43851 -0.06727,2.20361c1.88066,2.49695 3.20366,5.39334 3.81727,7.37973c0.36219,1.17249 -1.29105,2.09225 -1.82652,3.19642c-1.37731,2.84006 -2.85754,7.60779 -5.96514,8.77233c-1.97067,0.73849 -4.08333,1.02083 -6.125,1.53125z" stroke="none" stroke-width="0.5"/></g><text transform="translate(656.97234,582.21451) scale(2.98197,2.98197)" font-size="40" xml:space="preserve" fill="#f8ff66" fill-rule="nonzero" stroke="url(#color-2)" stroke-width="0" stroke-linecap="butt" stroke-linejoin="miter" stroke-miterlimit="10" stroke-dasharray="" stroke-dashoffset="0" font-family="Playful" font-weight="normal" text-anchor="start" style="mix-blend-mode: normal"><tspan x="0" dy="0">Start Game</tspan></text></g></g></svg>