<svg version="1.1" xmlns="http://www.w3.org/2000/svg" xmlns:xlink="http://www.w3.org/1999/xlink" width="16.4102" height="16.4102" viewBox="0,0,16.4102,16.4102"><g transform="translate(-951.7949,-531.7949)"><g data-paper-data="{&quot;isPaintingLayer&quot;:true}" fill-rule="nonzero" stroke-linecap="butt" stroke-linejoin="miter" stroke-miterlimit="10" stroke-dasharray="" stroke-dashoffset="0" style="mix-blend-mode: normal"><path d="M953.0449,540c0,-3.84119 3.1139,-6.9551 6.9551,-6.9551c3.84119,0 6.9551,3.1139 6.9551,6.9551c0,3.84119 -3.1139,6.9551 -6.9551,6.9551c-3.84119,0 -6.9551,-3.1139 -6.9551,-6.9551z" fill="none" stroke="#000000" stroke-width="2.5"/><path d="M953.9303,540.0123v-0.0246h12.13939v0.0246z" fill="none" stroke="#000000" stroke-width="2.5"/><path d="M959.99904,545.93292v-11.86583h0.00192v11.86583z" fill="none" stroke="#000000" stroke-width="2.5"/><path d="M953.52033,540c0,-3.57862 2.90105,-6.47967 6.47967,-6.47967c3.57862,0 6.47967,2.90105 6.47967,6.47967c0,3.57862 -2.90105,6.47967 -6.47967,6.47967c-3.57862,0 -6.47967,-2.90105 -6.47967,-6.47967z" fill-opacity="0.01176" fill="#000000" stroke="none" stroke-width="0"/></g></g></svg>