<svg version="1.1" xmlns="http://www.w3.org/2000/svg" xmlns:xlink="http://www.w3.org/1999/xlink" width="32.66346" height="32.66346" viewBox="0,0,32.66346,32.66346"><g transform="translate(-943.66827,-523.66827)"><g data-paper-data="{&quot;isPaintingLayer&quot;:true}" fill-rule="nonzero" stroke-linecap="butt" stroke-linejoin="miter" stroke-miterlimit="10" stroke-dasharray="" stroke-dashoffset="0" style="mix-blend-mode: normal"><path d="" fill="#ff0000" stroke="none" stroke-width="0"/><path d="M945.41827,540c0,-8.05326 6.52847,-14.58173 14.58173,-14.58173c8.05326,0 14.58173,6.52847 14.58173,14.58173c0,8.05326 -6.52847,14.58173 -14.58173,14.58173c-8.05326,0 -14.58173,-6.52847 -14.58173,-14.58173z" fill="none" stroke="#000000" stroke-width="3.5"/><path d="M952.12229,540.02579h-4.40296v-0.05157h4.40154" fill="none" stroke="#000000" stroke-width="3.5"/><path d="M967.89263,539.97421h4.68455v0.05157h-4.68598" fill="none" stroke="#000000" stroke-width="3.5"/><path d="M960.00201,547.91615v4.48546h-0.00402v-4.4854" fill="none" stroke="#000000" stroke-width="3.5"/><path d="M959.99799,532.10468v-4.02446h0.00402v4.02453" fill="none" stroke="#000000" stroke-width="3.5"/><path d="M945.91097,540.02083c0,-7.72101 6.25911,-13.98012 13.98012,-13.98012c7.72101,0 13.98012,6.25911 13.98012,13.98012c0,7.72101 -6.25911,13.98012 -13.98012,13.98012c-7.72101,0 -13.98012,-6.25911 -13.98012,-13.98012z" fill-opacity="0.01176" fill="#000000" stroke="none" stroke-width="0"/></g></g></svg>