<svg version="1.1" xmlns="http://www.w3.org/2000/svg" xmlns:xlink="http://www.w3.org/1999/xlink" width="2022.98716" height="184.76762" viewBox="0,0,2022.98716,184.76762"><g transform="translate(50.66834,-961.3227)"><g data-paper-data="{&quot;isPaintingLayer&quot;:true}" fill-rule="nonzero" stroke="#000000" stroke-width="0" stroke-linecap="butt" stroke-linejoin="miter" stroke-miterlimit="10" stroke-dasharray="" stroke-dashoffset="0" style="mix-blend-mode: normal"><path d="M1966.7896,1029.12561c0,29.59753 -39.41794,53.59107 -88.04248,53.59107c-48.62451,0 -88.04248,-23.99356 -88.04248,-53.59107c0,-29.59753 39.41797,-53.59107 88.04248,-53.59107c48.62454,0 88.04248,23.99355 88.04248,53.59107z" fill="#fbff00"/><path d="M1733.71097,1030.82689c0,29.59753 -39.41797,53.59107 -88.04248,53.59107c-48.62454,0 -88.04248,-23.99356 -88.04248,-53.59107c0,-29.59753 39.41794,-53.59108 88.04248,-53.59108c48.62451,0 88.04248,23.99355 88.04248,53.59108z" fill="#fbff00"/><path d="M1293.92383,1029.97628c0,29.59753 -39.41794,53.59107 -88.04248,53.59107c-48.62454,0 -88.04248,-23.99355 -88.04248,-53.59107c0,-29.59753 39.41797,-53.59107 88.04248,-53.59107c48.62451,0 88.04248,23.99356 88.04248,53.59107z" fill="#fbff00"/><path d="M1576.76563,1019.16702c0,29.59753 -39.41797,53.59107 -88.04248,53.59107c-48.62454,0 -88.04248,-23.99356 -88.04248,-53.59107c0,-29.59753 39.41797,-53.59107 88.04248,-53.59107c48.62451,0 88.04248,23.99356 88.04248,53.59107z" fill="#fbff00"/><path d="M1686.07444,1017.46571c0,29.59753 -39.41796,53.59107 -88.04248,53.59107c-48.62451,0 -88.04248,-23.99356 -88.04248,-53.59107c0,-29.59753 39.41797,-53.59107 88.04248,-53.59107c48.62454,0 88.04248,23.99356 88.04248,53.59107z" fill="#fbff00"/><path d="M1809.84432,1017.46571c0,29.59753 -39.41796,53.59107 -88.04248,53.59107c-48.62451,0 -88.04248,-23.99356 -88.04248,-53.59107c0,-29.59753 39.41797,-53.59107 88.04248,-53.59107c48.62454,0 88.04248,23.99356 88.04248,53.59107z" fill="#fbff00"/><path d="M1919.1531,1015.76442c0,29.59753 -39.41797,53.59107 -88.04248,53.59107c-48.62454,0 -88.04249,-23.99355 -88.04249,-53.59107c0,-29.59753 39.41797,-53.59108 88.04249,-53.59108c48.62451,0 88.04248,23.99355 88.04248,53.59108z" fill="#fbff00"/><path d="M1479.36598,1014.91378c0,29.59753 -39.41794,53.59107 -88.04248,53.59107c-48.62451,0 -88.0425,-23.99356 -88.0425,-53.59107c0,-29.59753 39.41797,-53.59107 88.0425,-53.59107c48.62451,0 88.04248,23.99355 88.04248,53.59107z" fill="#fbff00"/><path d="M1370.05723,1016.61507c0,29.59753 -39.41794,53.59107 -88.04248,53.59107c-48.62451,0 -88.04248,-23.99356 -88.04248,-53.59107c0,-29.59753 39.41797,-53.59107 88.04248,-53.59107c48.62454,0 88.04248,23.99355 88.04248,53.59107z" fill="#fbff00"/><path d="M1246.28735,1016.61507c0,29.59753 -39.41797,53.59107 -88.04248,53.59107c-48.62454,0 -88.0425,-23.99356 -88.0425,-53.59107c0,-29.59753 39.41797,-53.59107 88.0425,-53.59107c48.62451,0 88.04248,23.99355 88.04248,53.59107z" fill="#fbff00"/><path d="M1246.28735,1030.65073c0,29.59753 -39.41797,53.59107 -88.04248,53.59107c-48.62454,0 -88.0425,-23.99355 -88.0425,-53.59107c0,-29.59753 39.41797,-53.59107 88.0425,-53.59107c48.62451,0 88.04248,23.99356 88.04248,53.59107z" fill="#fcff34"/><path d="M1370.05722,1030.65073c0,29.59753 -39.41794,53.59107 -88.04248,53.59107c-48.62451,0 -88.04248,-23.99355 -88.04248,-53.59107c0,-29.59753 39.41797,-53.59107 88.04248,-53.59107c48.62454,0 88.04248,23.99356 88.04248,53.59107z" fill="#fcff34"/><path d="M1479.36598,1028.94938c0,29.59753 -39.41794,53.59107 -88.04248,53.59107c-48.62451,0 -88.0425,-23.99355 -88.0425,-53.59107c0,-29.59753 39.41797,-53.59107 88.0425,-53.59107c48.62451,0 88.04248,23.99356 88.04248,53.59107z" fill="#fcff34"/><path d="M1576.76563,1033.20262c0,29.59753 -39.41797,53.59107 -88.04248,53.59107c-48.62454,0 -88.04248,-23.99356 -88.04248,-53.59107c0,-29.59753 39.41797,-53.59107 88.04248,-53.59107c48.62451,0 88.04248,23.99355 88.04248,53.59107z" fill="#fcff34"/><path d="M1686.07443,1031.50143c0,29.59753 -39.41794,53.59107 -88.04248,53.59107c-48.62451,0 -88.04248,-23.99356 -88.04248,-53.59107c0,-29.59753 39.41797,-53.59107 88.04248,-53.59107c48.62454,0 88.04248,23.99355 88.04248,53.59107z" fill="#fcff34"/><path d="M1809.84431,1031.50143c0,29.59753 -39.41794,53.59107 -88.04248,53.59107c-48.62451,0 -88.04248,-23.99356 -88.04248,-53.59107c0,-29.59753 39.41798,-53.59107 88.04248,-53.59107c48.62454,0 88.04248,23.99355 88.04248,53.59107z" fill="#fcff34"/><path d="M1919.15307,1029.80014c0,29.59753 -39.41797,53.59107 -88.04248,53.59107c-48.62454,0 -88.0425,-23.99356 -88.0425,-53.59107c0,-29.59753 39.41797,-53.59108 88.0425,-53.59108c48.62451,0 88.04248,23.99355 88.04248,53.59108z" fill="#fcff36"/><path d="M627.72666,1029.97628c0,-29.59752 39.41796,-53.59107 88.04247,-53.59107c48.62451,0 88.04248,23.99352 88.04248,53.59107c0,29.59752 -39.41796,53.59106 -88.04248,53.59106c-48.62452,0 -88.04247,-23.99352 -88.04247,-53.59106z" data-paper-data="{&quot;index&quot;:null}" fill="#fbff00"/><path d="M-45.13911,1029.12561c0,-29.59752 39.41794,-53.59106 88.04248,-53.59106c48.62451,0 88.04248,23.99352 88.04248,53.59106c0,29.59751 -39.41796,53.59107 -88.04248,53.59107c-48.62454,0 -88.04248,-23.99354 -88.04248,-53.59107z" data-paper-data="{&quot;index&quot;:null}" fill="#fbff00"/><path d="M187.93953,1030.82689c0,-29.59753 39.41796,-53.59108 88.04247,-53.59108c48.62452,0 88.04248,23.99355 88.04248,53.59108c0,29.59751 -39.41796,53.59107 -88.04248,53.59107c-48.62451,0 -88.04247,-23.99354 -88.04247,-53.59107z" data-paper-data="{&quot;index&quot;:null}" fill="#fbff00"/><path d="M675.36314,1018.06715c0,-29.59752 39.41796,-53.59107 88.04248,-53.59107c48.62454,0 88.0425,23.99352 88.0425,53.59107c0,29.59751 -39.41798,53.59106 -88.0425,53.59106c-48.62451,0 -88.04248,-23.99352 -88.04248,-53.59107z" data-paper-data="{&quot;index&quot;:null}" fill="#fbff00"/><path d="M551.59325,1018.06715c0,-29.59752 39.41794,-53.59107 88.04248,-53.59107c48.62451,0 88.04248,23.99352 88.04248,53.59107c0,29.59751 -39.41797,53.59106 -88.04248,53.59106c-48.62454,0 -88.04248,-23.99352 -88.04248,-53.59107z" data-paper-data="{&quot;index&quot;:null}" fill="#fbff00"/><path d="M442.2845,1016.36587c0,-29.59752 39.41796,-53.59107 88.04247,-53.59107c48.62454,0 88.0425,23.99352 88.0425,53.59107c0,29.59751 -39.41798,53.59106 -88.0425,53.59106c-48.62452,0 -88.04247,-23.99352 -88.04247,-53.59107z" data-paper-data="{&quot;index&quot;:null}" fill="#fbff00"/><path d="M344.88485,1020.61911c0,-29.59752 39.41798,-53.59107 88.04249,-53.59107c48.62451,0 88.04248,23.99352 88.04248,53.59107c0,29.59751 -39.41794,53.59107 -88.04248,53.59107c-48.62451,0 -88.04249,-23.99354 -88.04249,-53.59108z" data-paper-data="{&quot;index&quot;:null}" fill="#fbff00"/><path d="M235.57604,1018.91784c0,-29.59752 39.41796,-53.59108 88.04248,-53.59108c48.62451,0 88.04248,23.99352 88.04248,53.59107c0,29.59751 -39.41796,53.59107 -88.04248,53.59107c-48.62454,0 -88.04248,-23.99354 -88.04248,-53.59108z" data-paper-data="{&quot;index&quot;:null}" fill="#fbff00"/><path d="M111.80616,1018.91784c0,-29.59752 39.41796,-53.59108 88.04249,-53.59108c48.62451,0 88.04247,23.99352 88.04247,53.59107c0,29.59751 -39.41796,53.59107 -88.04247,53.59107c-48.62454,0 -88.04249,-23.99354 -88.04249,-53.59108z" data-paper-data="{&quot;index&quot;:null}" fill="#fbff00"/><path d="M90.53986,963.62542c48.62454,0 88.0425,23.99355 88.0425,53.59109c0,29.59751 -39.41797,53.59107 -88.0425,53.59107c-48.62451,0 -88.04247,-23.99352 -88.04247,-53.59107c0,-29.59753 39.41796,-53.59109 88.04247,-53.59109z" data-paper-data="{&quot;index&quot;:null}" fill="#fbff00"/><path d="M675.36314,1030.65074c0,-29.59752 39.41796,-53.59107 88.04248,-53.59107c48.62454,0 88.0425,23.99352 88.0425,53.59106c0,29.59752 -39.41798,53.59107 -88.0425,53.59107c-48.62451,0 -88.04248,-23.99352 -88.04248,-53.59107z" data-paper-data="{&quot;index&quot;:null}" fill="#fcff34"/><path d="M551.59328,1032.10283c0,-29.59752 39.41794,-53.59107 88.04248,-53.59107c48.62451,0 88.04248,23.99352 88.04248,53.59106c0,29.59752 -39.41796,53.59107 -88.04248,53.59107c-48.62452,0 -88.04248,-23.99352 -88.04248,-53.59107z" data-paper-data="{&quot;index&quot;:null}" fill="#fcff34"/><path d="M442.2845,1030.40146c0,-29.59752 39.41796,-53.59107 88.04247,-53.59107c48.62454,0 88.0425,23.99352 88.0425,53.59107c0,29.59752 -39.41798,53.59107 -88.0425,53.59107c-48.62452,0 -88.04247,-23.99352 -88.04247,-53.59107z" data-paper-data="{&quot;index&quot;:null}" fill="#fcff34"/><path d="M344.88485,1034.65478c0,-29.59752 39.41798,-53.59107 88.04249,-53.59107c48.62451,0 88.04248,23.99352 88.04248,53.59107c0,29.59751 -39.41794,53.59107 -88.04248,53.59107c-48.62451,0 -88.04249,-23.99354 -88.04249,-53.59108z" data-paper-data="{&quot;index&quot;:null}" fill="#fcff34"/><path d="M235.57606,1032.95351c0,-29.59752 39.41794,-53.59107 88.04248,-53.59107c48.62451,0 88.04248,23.99354 88.04248,53.59107c0,29.59751 -39.41797,53.59106 -88.04248,53.59106c-48.62454,0 -88.04248,-23.99354 -88.04248,-53.59107z" data-paper-data="{&quot;index&quot;:null}" fill="#fcff34"/><path d="M111.80617,1032.95351c0,-29.59752 39.41794,-53.59107 88.04248,-53.59107c48.62451,0 88.04248,23.99354 88.04248,53.59107c0,29.59751 -39.41797,53.59106 -88.04248,53.59106c-48.62454,0 -88.04248,-23.99354 -88.04248,-53.59107z" data-paper-data="{&quot;index&quot;:null}" fill="#fcff34"/><path d="M2.49741,1031.25222c0,-29.59753 39.41797,-53.59108 88.04248,-53.59108c48.62454,0 88.0425,23.99355 88.0425,53.59108c0,29.59751 -39.41797,53.59106 -88.0425,53.59106c-48.62451,0 -88.04248,-23.99354 -88.04248,-53.59107z" data-paper-data="{&quot;index&quot;:null}" fill="#fcff34"/><path d="M872.81975,1067.83031c0,-29.59752 39.41793,-53.59108 88.04247,-53.59108c48.62454,0 88.0425,23.99354 88.0425,53.59107c0,29.59752 -39.41796,53.59107 -88.04247,53.59107c-48.62451,0 -88.04248,-23.99352 -88.04248,-53.59107z" data-paper-data="{&quot;index&quot;:null}" fill="#fcff64"/><path d="M870.69314,1049.54132c0,-29.59752 39.41793,-53.59107 88.04247,-53.59107c48.62454,0 88.0425,23.99354 88.0425,53.59107c0,29.59752 -39.41796,53.59106 -88.04248,53.59106c-48.62451,0 -88.04248,-23.99352 -88.04248,-53.59106z" data-paper-data="{&quot;index&quot;:null}" fill="#fcff64"/><path d="M876.75195,1019.76844c0,-29.59753 39.41797,-53.59108 88.04248,-53.59108c48.62454,0 88.0425,23.99355 88.0425,53.59108c0,29.59751 -39.41797,53.59107 -88.04248,53.59107c-48.62451,0 -88.04247,-23.99354 -88.04247,-53.59108z" data-paper-data="{&quot;index&quot;:null}" fill="#fbff00"/><path d="M874.94638,1033.8042c0,-29.59753 39.41797,-53.59109 88.04248,-53.59109c48.62454,0 88.0425,23.99355 88.0425,53.59109c0,29.59751 -39.41797,53.59106 -88.04248,53.59106c-48.62451,0 -88.04247,-23.99354 -88.04247,-53.59107z" data-paper-data="{&quot;index&quot;:null}" fill="#fcff34"/><path d="M1136.97853,1019.76844c0,29.59753 -39.41797,53.59107 -88.04248,53.59107c-48.62451,0 -88.04248,-23.99356 -88.04248,-53.59107c0,-29.59753 39.41797,-53.59108 88.0425,-53.59108c48.62451,0 88.04248,23.99355 88.04248,53.59108z" fill="#fbff00"/><path d="M784.67191,1019.76844c0,-29.59753 39.41797,-53.59108 88.04249,-53.59108c48.62454,0 88.0425,23.99355 88.0425,53.59108c0,29.59751 -39.41797,53.59107 -88.04248,53.59107c-48.62451,0 -88.04248,-23.99354 -88.04248,-53.59108z" data-paper-data="{&quot;index&quot;:null}" fill="#fbff00"/><path d="M1293.92383,1044.01203c0,29.59753 -39.41794,53.59107 -88.04248,53.59107c-48.62454,0 -88.04248,-23.99356 -88.04248,-53.59107c0,-29.59753 39.41797,-53.59107 88.04248,-53.59107c48.62451,0 88.04248,23.99356 88.04248,53.59107z" fill="#fcff34"/><path d="M1733.71094,1044.86265c0,29.59753 -39.41797,53.59107 -88.04248,53.59107c-48.62454,0 -88.04248,-23.99356 -88.04248,-53.59107c0,-29.59753 39.41794,-53.59108 88.04248,-53.59108c48.62451,0 88.04248,23.99355 88.04248,53.59108z" fill="#fcff34"/><path d="M1250.54062,1046.56402c0,29.59753 -39.41797,53.59107 -88.04248,53.59107c-48.62451,0 -88.04248,-23.99356 -88.04248,-53.59107c0,-29.59753 39.41797,-53.59107 88.04249,-53.59107c48.62451,0 88.04248,23.99356 88.04248,53.59107z" fill="#fcff64"/><path d="M1374.31049,1046.56402c0,29.59753 -39.41797,53.59107 -88.04248,53.59107c-48.62451,0 -88.04248,-23.99356 -88.04248,-53.59107c0,-29.59753 39.41797,-53.59107 88.04249,-53.59107c48.62451,0 88.04248,23.99356 88.04248,53.59107z" fill="#fcff64"/><path d="M1483.61928,1044.86273c0,29.59753 -39.41797,53.59107 -88.04248,53.59107c-48.62451,0 -88.04248,-23.99356 -88.04248,-53.59107c0,-29.59753 39.41797,-53.59108 88.04248,-53.59108c48.62451,0 88.04248,23.99355 88.04248,53.59108z" fill="#fcff64"/><path d="M1581.01889,1049.11598c0,29.59753 -39.41794,53.59107 -88.04248,53.59107c-48.62451,0 -88.04248,-23.99355 -88.04248,-53.59107c0,-29.59753 39.41797,-53.59107 88.04248,-53.59107c48.62454,0 88.04248,23.99356 88.04248,53.59107z" fill="#fcff64"/><path d="M1690.32771,1047.41462c0,29.59753 -39.41794,53.59108 -88.04248,53.59108c-48.62454,0 -88.0425,-23.99355 -88.0425,-53.59108c0,-29.59753 39.41797,-53.59107 88.0425,-53.59107c48.62454,0 88.04248,23.99355 88.04248,53.59107z" fill="#fcff64"/><path d="M1814.09759,1047.41462c0,29.59753 -39.41794,53.59108 -88.04248,53.59108c-48.62454,0 -88.0425,-23.99355 -88.0425,-53.59108c0,-29.59753 39.41797,-53.59107 88.0425,-53.59107c48.62454,0 88.04248,23.99355 88.04248,53.59107z" fill="#fcff64"/><path d="M1923.40635,1044.43739c0,29.59753 -39.41794,53.59107 -88.04248,53.59107c-48.62454,0 -88.04248,-23.99356 -88.04248,-53.59107c0,-29.59753 39.41797,-53.59107 88.04248,-53.59107c48.62454,0 88.04248,23.99355 88.04248,53.59107z" fill="#fcff64"/><path d="M627.72666,1044.01203c0,-29.59752 39.41796,-53.59107 88.04247,-53.59107c48.62451,0 88.04248,23.99352 88.04248,53.59107c0,29.59751 -39.41796,53.59107 -88.04248,53.59107c-48.62452,0 -88.04247,-23.99354 -88.04247,-53.59108z" data-paper-data="{&quot;index&quot;:null}" fill="#fcff34"/><path d="M187.93954,1044.86265c0,-29.59753 39.41797,-53.59108 88.04249,-53.59108c48.62454,0 88.04248,23.99355 88.04248,53.59108c0,29.59751 -39.41794,53.59107 -88.04248,53.59107c-48.62451,0 -88.04249,-23.99354 -88.04249,-53.59107z" data-paper-data="{&quot;index&quot;:null}" fill="#fcff34"/><path d="M671.10984,1046.56402c0,-29.59752 39.41797,-53.59107 88.04248,-53.59107c48.62452,0 88.0425,23.99352 88.0425,53.59107c0,29.59751 -39.41796,53.59106 -88.04248,53.59106c-48.62451,0 -88.04248,-23.99354 -88.04248,-53.59107z" data-paper-data="{&quot;index&quot;:null}" fill="#fcff64"/><path d="M547.33997,1046.56402c0,-29.59752 39.41797,-53.59107 88.04249,-53.59107c48.62452,0 88.0425,23.99352 88.0425,53.59107c0,29.59751 -39.41797,53.59106 -88.04248,53.59106c-48.62451,0 -88.04247,-23.99354 -88.04247,-53.59107z" data-paper-data="{&quot;index&quot;:null}" fill="#fcff64"/><path d="M438.0312,1044.86273c0,-29.59753 39.41797,-53.59108 88.04248,-53.59108c48.62451,0 88.04247,23.99355 88.04247,53.59108c0,29.59751 -39.41796,53.59106 -88.04247,53.59106c-48.62451,0 -88.04248,-23.99354 -88.04248,-53.59107z" data-paper-data="{&quot;index&quot;:null}" fill="#fcff64"/><path d="M340.6316,1049.11598c0,-29.59752 39.41794,-53.59107 88.04248,-53.59107c48.62452,0 88.04249,23.99352 88.04249,53.59107c0,29.59752 -39.41797,53.59107 -88.04249,53.59107c-48.62454,0 -88.04248,-23.99354 -88.04248,-53.59107z" data-paper-data="{&quot;index&quot;:null}" fill="#fcff64"/><path d="M319.36525,993.82362c48.62454,0 88.0425,23.99354 88.0425,53.59107c0,29.59753 -39.41798,53.59108 -88.0425,53.59108c-48.62452,0 -88.04248,-23.99355 -88.04248,-53.59108c0,-29.59752 39.41794,-53.59107 88.04248,-53.59107z" data-paper-data="{&quot;index&quot;:null}" fill="#fcff64"/><path d="M195.59537,993.82362c48.62454,0 88.0425,23.99354 88.0425,53.59107c0,29.59753 -39.41797,53.59108 -88.0425,53.59108c-48.62454,0 -88.04248,-23.99355 -88.04248,-53.59108c0,-29.59752 39.41794,-53.59107 88.04248,-53.59107z" data-paper-data="{&quot;index&quot;:null}" fill="#fcff64"/><path d="M-1.75587,1044.43739c0,-29.59752 39.41794,-53.59107 88.04248,-53.59107c48.62451,0 88.04247,23.99352 88.04247,53.59107c0,29.59751 -39.41794,53.59107 -88.04247,53.59107c-48.62454,0 -88.04248,-23.99354 -88.04248,-53.59107z" data-paper-data="{&quot;index&quot;:null}" fill="#fcff64"/><path d="M1966.7896,1043.16137c0,29.59753 -39.41794,53.59107 -88.04248,53.59107c-48.62451,0 -88.04248,-23.99355 -88.04248,-53.59107c0,-29.59753 39.41797,-53.59107 88.04248,-53.59107c48.62454,0 88.04248,23.99356 88.04248,53.59107z" fill="#fcff36"/><path d="M1972.31882,1055.07051c0,29.59753 -39.41794,53.59107 -88.04248,53.59107c-48.62454,0 -88.04248,-23.99355 -88.04248,-53.59107c0,-29.59753 39.41794,-53.59107 88.04248,-53.59107c48.62454,0 88.04248,23.99356 88.04248,53.59107z" fill="#fcff64"/><path d="M1136.97853,1033.80411c0,29.59753 -39.41797,53.59107 -88.04248,53.59107c-48.62451,0 -88.04248,-23.99356 -88.04248,-53.59107c0,-29.59753 39.41797,-53.59108 88.0425,-53.59108c48.62451,0 88.04248,23.99355 88.04248,53.59108z" fill="#fcff34"/><path d="M1141.23179,1049.54132c0,29.59753 -39.41797,53.59107 -88.04248,53.59107c-48.62451,0 -88.04248,-23.99355 -88.04248,-53.59107c0,-29.59753 39.41797,-53.59107 88.0425,-53.59107c48.62454,0 88.04248,23.99356 88.04248,53.59107z" fill="#fcff64"/><path d="M784.67191,1033.8042c0,-29.59753 39.41797,-53.59109 88.04249,-53.59109c48.62454,0 88.0425,23.99355 88.0425,53.59109c0,29.59751 -39.41797,53.59106 -88.04248,53.59106c-48.62451,0 -88.04248,-23.99354 -88.04248,-53.59107z" data-paper-data="{&quot;index&quot;:null}" fill="#fcff34"/><path d="M780.41867,1049.54132c0,-29.59752 39.41793,-53.59107 88.04247,-53.59107c48.62454,0 88.0425,23.99354 88.0425,53.59107c0,29.59752 -39.41796,53.59106 -88.04248,53.59106c-48.62451,0 -88.04248,-23.99352 -88.04248,-53.59106z" data-paper-data="{&quot;index&quot;:null}" fill="#fcff64"/><path d="M-48.5417,1073.35958c0,-29.59752 39.41794,-53.59107 88.04248,-53.59107c48.62454,0 88.04248,23.99354 88.04248,53.59107c0,29.59752 -39.41796,53.59107 -88.04248,53.59107c-48.62454,0 -88.04248,-23.99354 -88.04248,-53.59107z" data-paper-data="{&quot;index&quot;:null}" fill="#fdff97"/><path d="M-45.13911,1043.16137c0,-29.59752 39.41794,-53.59107 88.04248,-53.59107c48.62451,0 88.04248,23.99352 88.04248,53.59106c0,29.59752 -39.41796,53.59107 -88.04248,53.59107c-48.62454,0 -88.04248,-23.99354 -88.04248,-53.59107z" data-paper-data="{&quot;index&quot;:null}" fill="#fcff34"/><path d="M-50.66834,1055.07051c0,-29.59752 39.41796,-53.59107 88.04248,-53.59107c48.62454,0 88.04247,23.99352 88.04247,53.59106c0,29.59752 -39.41794,53.59107 -88.04247,53.59107c-48.62454,0 -88.04248,-23.99354 -88.04248,-53.59107z" data-paper-data="{&quot;index&quot;:null}" fill="#fcff64"/><path d="M1296.05042,1078.03815c0,29.59753 -39.41797,53.59107 -88.04248,53.59107c-48.62451,0 -88.04248,-23.99355 -88.04248,-53.59107c0,-29.59753 39.41797,-53.59108 88.04248,-53.59108c48.62451,0 88.04248,23.99355 88.04248,53.59108z" fill="#fdff97"/><path d="M1735.83761,1078.88876c0,29.59753 -39.41794,53.59107 -88.04248,53.59107c-48.62454,0 -88.04248,-23.99355 -88.04248,-53.59107c0,-29.59753 39.41796,-53.59107 88.04248,-53.59107c48.62454,0 88.04248,23.99356 88.04248,53.59107z" fill="#fdff97"/><path d="M185.81288,1078.88885c0,-29.59752 39.41794,-53.59107 88.04248,-53.59107c48.62452,0 88.04248,23.99352 88.04248,53.59107c0,29.59752 -39.41794,53.59106 -88.04248,53.59106c-48.62454,0 -88.04248,-23.99352 -88.04248,-53.59106z" data-paper-data="{&quot;index&quot;:null}" fill="#fdff97"/><path d="M625.60006,1078.03817c0,-29.59753 39.41797,-53.59108 88.04248,-53.59108c48.62452,0 88.04248,23.99355 88.04248,53.59108c0,29.59752 -39.41796,53.59107 -88.04248,53.59107c-48.62451,0 -88.04248,-23.99354 -88.04248,-53.59107z" data-paper-data="{&quot;index&quot;:null}" fill="#fdff97"/><path d="M1970.19218,1071.21594c0,29.59753 -39.41794,53.59107 -88.04248,53.59107c-48.62454,0 -88.04248,-23.99356 -88.04248,-53.59107c0,-29.59753 39.41796,-53.59107 88.04248,-53.59107c48.62454,0 88.04248,23.99356 88.04248,53.59107z" fill="#fdff97"/><path d="M1139.10517,1067.83031c0,29.59753 -39.41797,53.59107 -88.04248,53.59107c-48.62451,0 -88.04248,-23.99355 -88.04248,-53.59107c0,-29.59753 39.41797,-53.59107 88.04249,-53.59107c48.62454,0 88.04248,23.99356 88.04248,53.59107z" fill="#fdff97"/><path d="M782.54528,1067.83031c0,-29.59752 39.41793,-53.59108 88.04247,-53.59108c48.62452,0 88.0425,23.99354 88.0425,53.59107c0,29.59752 -39.41796,53.59107 -88.04248,53.59107c-48.62451,0 -88.04248,-23.99352 -88.04248,-53.59107z" data-paper-data="{&quot;index&quot;:null}" fill="#fdff97"/><path d="M1248.414,1064.85302c0,29.59753 -39.41797,53.59107 -88.04248,53.59107c-48.62451,0 -88.04248,-23.99355 -88.04248,-53.59107c0,-29.59753 39.41797,-53.59107 88.0425,-53.59107c48.62451,0 88.04248,23.99356 88.04248,53.59107z" fill="#fdff97"/><path d="M1372.18388,1062.70943c0,29.59753 -39.41798,53.59107 -88.04248,53.59107c-48.62451,0 -88.04248,-23.99355 -88.04248,-53.59107c0,-29.59753 39.41797,-53.59107 88.0425,-53.59107c48.62451,0 88.04248,23.99356 88.04248,53.59107z" fill="#fdff97"/><path d="M1481.49265,1061.00809c0,29.59753 -39.41797,53.59107 -88.04248,53.59107c-48.62451,0 -88.04248,-23.99355 -88.04248,-53.59107c0,-29.59753 39.41797,-53.59108 88.04248,-53.59108c48.62451,0 88.04248,23.99355 88.04248,53.59108z" fill="#fdff97"/><path d="M1578.89224,1065.26134c0,29.59753 -39.41794,53.59107 -88.04248,53.59107c-48.62451,0 -88.04248,-23.99355 -88.04248,-53.59107c0,-29.59753 39.41797,-53.59107 88.04248,-53.59107c48.62454,0 88.04248,23.99355 88.04248,53.59107z" fill="#fdff97"/><path d="M1688.20108,1063.56006c0,29.59753 -39.41794,53.59108 -88.04248,53.59108c-48.62454,0 -88.04249,-23.99355 -88.04249,-53.59108c0,-29.59753 39.41797,-53.59107 88.04249,-53.59107c48.62454,0 88.04248,23.99356 88.04248,53.59107z" fill="#fdff97"/><path d="M1811.97096,1063.56006c0,29.59753 -39.41794,53.59108 -88.04248,53.59108c-48.62454,0 -88.04249,-23.99355 -88.04249,-53.59108c0,-29.59753 39.41797,-53.59107 88.04249,-53.59107c48.62454,0 88.04248,23.99356 88.04248,53.59107z" fill="#fdff97"/><path d="M1921.27974,1060.58275c0,29.59753 -39.41794,53.59107 -88.04248,53.59107c-48.62454,0 -88.04248,-23.99356 -88.04248,-53.59107c0,-29.59753 39.41797,-53.59107 88.04248,-53.59107c48.62454,0 88.04248,23.99356 88.04248,53.59107z" fill="#fdff97"/><path d="M1246.28737,1078.03815c0,29.59753 -39.41797,53.59107 -88.04248,53.59107c-48.62451,0 -88.04248,-23.99355 -88.04248,-53.59107c0,-29.59753 39.41797,-53.59107 88.04249,-53.59107c48.62451,0 88.04248,23.99356 88.04248,53.59107z" fill="#feffaf"/><path d="M1370.05723,1078.03815c0,29.59753 -39.41797,53.59107 -88.04248,53.59107c-48.62451,0 -88.04248,-23.99355 -88.04248,-53.59107c0,-29.59753 39.41797,-53.59107 88.0425,-53.59107c48.62451,0 88.04248,23.99356 88.04248,53.59107z" fill="#feffaf"/><path d="M1479.36603,1074.19321c0,29.59753 -39.41797,53.59107 -88.04248,53.59107c-48.62451,0 -88.04248,-23.99356 -88.04248,-53.59107c0,-29.59753 39.41797,-53.59108 88.04248,-53.59108c48.62451,0 88.04248,23.99355 88.04248,53.59108z" fill="#feffaf"/><path d="M1576.76563,1078.44649c0,29.59753 -39.41794,53.59107 -88.04248,53.59107c-48.62451,0 -88.04248,-23.99355 -88.04248,-53.59107c0,-29.59753 39.41797,-53.59107 88.04248,-53.59107c48.62454,0 88.04248,23.99355 88.04248,53.59107z" fill="#feffaf"/><path d="M1686.07444,1076.74517c0,29.59753 -39.41796,53.59108 -88.04248,53.59108c-48.62454,0 -88.04249,-23.99355 -88.04249,-53.59108c0,-29.59753 39.41796,-53.59107 88.04249,-53.59107c48.62454,0 88.04248,23.99356 88.04248,53.59107z" fill="#feffaf"/><path d="M1809.84432,1076.74517c0,29.59753 -39.41796,53.59108 -88.04248,53.59108c-48.62454,0 -88.0425,-23.99355 -88.0425,-53.59108c0,-29.59753 39.41797,-53.59107 88.0425,-53.59107c48.62454,0 88.04248,23.99356 88.04248,53.59107z" fill="#feffaf"/><path d="M1919.1531,1075.04385c0,29.59753 -39.41794,53.59107 -88.04248,53.59107c-48.62454,0 -88.04248,-23.99355 -88.04248,-53.59107c0,-29.59753 39.41797,-53.59107 88.04248,-53.59107c48.62454,0 88.04248,23.99355 88.04248,53.59107z" fill="#feffaf"/><path d="M673.23646,1064.85302c0,-29.59752 39.41797,-53.59107 88.04248,-53.59107c48.62454,0 88.0425,23.99352 88.0425,53.59107c0,29.59752 -39.41796,53.59106 -88.04248,53.59106c-48.62451,0 -88.04248,-23.99352 -88.04248,-53.59106z" data-paper-data="{&quot;index&quot;:null}" fill="#fdff97"/><path d="M549.46659,1064.85302c0,-29.59752 39.41796,-53.59107 88.04247,-53.59107c48.62454,0 88.0425,23.99352 88.0425,53.59107c0,29.59752 -39.41796,53.59106 -88.04247,53.59106c-48.62451,0 -88.04249,-23.99352 -88.04249,-53.59106z" data-paper-data="{&quot;index&quot;:null}" fill="#fdff97"/><path d="M528.20031,1009.56069c48.62451,0 88.04248,23.99355 88.04248,53.59109c0,29.59752 -39.41796,53.59106 -88.04248,53.59106c-48.62451,0 -88.04248,-23.99352 -88.04248,-53.59106c0,-29.59753 39.41797,-53.59109 88.04248,-53.59109z" data-paper-data="{&quot;index&quot;:null}" fill="#fdff97"/><path d="M430.80072,1013.81393c48.62451,0 88.04247,23.99354 88.04247,53.59107c0,29.59752 -39.41796,53.59106 -88.04247,53.59106c-48.62452,0 -88.04248,-23.99352 -88.04248,-53.59106c0,-29.59752 39.41794,-53.59107 88.04248,-53.59107z" data-paper-data="{&quot;index&quot;:null}" fill="#fdff97"/><path d="M233.4494,1065.70369c0,-29.59752 39.41794,-53.59108 88.04248,-53.59108c48.62452,0 88.0425,23.99354 88.0425,53.59107c0,29.59753 -39.41797,53.59108 -88.0425,53.59108c-48.62452,0 -88.04248,-23.99355 -88.04248,-53.59108z" data-paper-data="{&quot;index&quot;:null}" fill="#fdff97"/><path d="M109.67952,1065.70369c0,-29.59752 39.41794,-53.59108 88.04247,-53.59108c48.62454,0 88.0425,23.99354 88.0425,53.59107c0,29.59753 -39.41797,53.59108 -88.0425,53.59108c-48.62454,0 -88.04247,-23.99355 -88.04247,-53.59108z" data-paper-data="{&quot;index&quot;:null}" fill="#fdff97"/><path d="M0.37074,1062.72639c0,-29.59752 39.41794,-53.59107 88.04248,-53.59107c48.62451,0 88.04247,23.99352 88.04247,53.59107c0,29.59751 -39.41794,53.59107 -88.04247,53.59107c-48.62454,0 -88.04248,-23.99354 -88.04248,-53.59107z" data-paper-data="{&quot;index&quot;:null}" fill="#fdff97"/><path d="M675.3631,1078.03815c0,-29.59752 39.41797,-53.59108 88.04248,-53.59108c48.62452,0 88.0425,23.99352 88.0425,53.59106c0,29.59752 -39.41797,53.59107 -88.04248,53.59107c-48.62451,0 -88.04249,-23.99354 -88.04249,-53.59107z" data-paper-data="{&quot;index&quot;:null}" fill="#feffaf"/><path d="M551.59323,1078.03815c0,-29.59752 39.41797,-53.59108 88.04248,-53.59108c48.62454,0 88.0425,23.99352 88.0425,53.59106c0,29.59752 -39.41797,53.59107 -88.04248,53.59107c-48.62451,0 -88.04248,-23.99354 -88.04248,-53.59107z" data-paper-data="{&quot;index&quot;:null}" fill="#feffaf"/><path d="M530.32695,1022.74579c48.62451,0 88.04247,23.99355 88.04247,53.59108c0,29.59752 -39.41796,53.59108 -88.04247,53.59108c-48.62451,0 -88.04249,-23.99354 -88.04249,-53.59108c0,-29.59753 39.41797,-53.59108 88.04249,-53.59108z" data-paper-data="{&quot;index&quot;:null}" fill="#feffaf"/><path d="M344.88485,1080.59013c0,-29.59752 39.41796,-53.59106 88.04249,-53.59106c48.62451,0 88.04248,23.99352 88.04248,53.59106c0,29.59752 -39.41797,53.59107 -88.04248,53.59107c-48.62454,0 -88.04249,-23.99354 -88.04249,-53.59107z" data-paper-data="{&quot;index&quot;:null}" fill="#feffaf"/><path d="M235.57604,1078.88885c0,-29.59752 39.41796,-53.59107 88.04248,-53.59107c48.62454,0 88.0425,23.99352 88.0425,53.59107c0,29.59753 -39.41797,53.59108 -88.0425,53.59108c-48.62454,0 -88.04248,-23.99355 -88.04248,-53.59108z" data-paper-data="{&quot;index&quot;:null}" fill="#feffaf"/><path d="M111.80616,1078.88885c0,-29.59752 39.41796,-53.59107 88.04249,-53.59107c48.62454,0 88.0425,23.99352 88.0425,53.59107c0,29.59753 -39.41797,53.59108 -88.0425,53.59108c-48.62454,0 -88.04249,-23.99355 -88.04249,-53.59108z" data-paper-data="{&quot;index&quot;:null}" fill="#feffaf"/><path d="M2.49738,1077.18748c0,-29.59752 39.41794,-53.59107 88.04247,-53.59107c48.62451,0 88.04248,23.99354 88.04248,53.59107c0,29.59752 -39.41794,53.59106 -88.04248,53.59106c-48.62454,0 -88.04247,-23.99354 -88.04247,-53.59108z" data-paper-data="{&quot;index&quot;:null}" fill="#feffaf"/><path d="M874.94638,1079.73945c0,-29.59752 39.41794,-53.59107 88.04248,-53.59107c48.62454,0 88.0425,23.99352 88.0425,53.59106c0,29.59752 -39.41797,53.59107 -88.04248,53.59107c-48.62451,0 -88.04247,-23.99354 -88.04247,-53.59107z" data-paper-data="{&quot;index&quot;:null}" fill="#feffaf"/><path d="M1184.61506,1091.64849c0,29.59753 -39.41794,53.59107 -88.04248,53.59107c-48.62451,0 -88.04248,-23.99355 -88.04248,-53.59107c0,-29.59753 39.41797,-53.59107 88.04249,-53.59107c48.62454,0 88.04248,23.99356 88.04248,53.59107z" fill="#feffaf"/><path d="M1136.97853,1079.73945c0,29.59753 -39.41797,53.59107 -88.04248,53.59107c-48.62451,0 -88.04248,-23.99355 -88.04248,-53.59107c0,-29.59753 39.41797,-53.59107 88.0425,-53.59107c48.62454,0 88.04248,23.99356 88.04248,53.59107z" fill="#feffaf"/><path d="M1293.92381,1089.9473c0,29.59753 -39.41798,53.59107 -88.04248,53.59107c-48.62451,0 -88.04248,-23.99356 -88.04248,-53.59107c0,-29.59753 39.41797,-53.59108 88.04248,-53.59108c48.62451,0 88.04248,23.99355 88.04248,53.59108z" fill="#feffaf"/><path d="M1417.69372,1089.9473c0,29.59753 -39.41797,53.59107 -88.04248,53.59107c-48.62451,0 -88.04248,-23.99356 -88.04248,-53.59107c0,-29.59753 39.41797,-53.59108 88.04248,-53.59108c48.62451,0 88.04248,23.99355 88.04248,53.59108z" fill="#feffaf"/><path d="M1527.00252,1086.10234c0,29.59753 -39.41797,53.59107 -88.04248,53.59107c-48.62451,0 -88.04248,-23.99355 -88.04248,-53.59107c0,-29.59753 39.41797,-53.59107 88.04248,-53.59107c48.62451,0 88.04248,23.99356 88.04248,53.59107z" fill="#feffaf"/><path d="M1624.40216,1090.35562c0,29.59753 -39.41794,53.59108 -88.04248,53.59108c-48.62451,0 -88.04248,-23.99355 -88.04248,-53.59108c0,-29.59753 39.41797,-53.59107 88.04248,-53.59107c48.62454,0 88.04248,23.99356 88.04248,53.59107z" fill="#feffaf"/><path d="M1733.71097,1088.65433c0,29.59753 -39.41794,53.59107 -88.04248,53.59107c-48.62454,0 -88.04248,-23.99356 -88.04248,-53.59107c0,-29.59753 39.41794,-53.59107 88.04248,-53.59107c48.62454,0 88.04248,23.99355 88.04248,53.59107z" fill="#feffaf"/><path d="M1857.48082,1088.65433c0,29.59753 -39.41794,53.59107 -88.04248,53.59107c-48.62454,0 -88.04248,-23.99356 -88.04248,-53.59107c0,-29.59753 39.41794,-53.59107 88.04248,-53.59107c48.62454,0 88.04248,23.99355 88.04248,53.59107z" fill="#feffaf"/><path d="M1966.78959,1086.95298c0,29.59753 -39.41796,53.59107 -88.04248,53.59107c-48.62454,0 -88.04248,-23.99355 -88.04248,-53.59107c0,-29.59753 39.41794,-53.59107 88.04248,-53.59107c48.62454,0 88.04248,23.99355 88.04248,53.59107z" fill="#feffaf"/><path d="M737.0354,1091.64858c0,-29.59752 39.41794,-53.59107 88.04248,-53.59107c48.62454,0 88.0425,23.99352 88.0425,53.59107c0,29.59752 -39.41796,53.59106 -88.04247,53.59106c-48.62454,0 -88.04248,-23.99354 -88.04248,-53.59107z" data-paper-data="{&quot;index&quot;:null}" fill="#feffaf"/><path d="M784.67191,1079.73945c0,-29.59752 39.41794,-53.59107 88.04249,-53.59107c48.62454,0 88.0425,23.99352 88.0425,53.59106c0,29.59752 -39.41797,53.59107 -88.04248,53.59107c-48.62451,0 -88.04248,-23.99354 -88.04248,-53.59107z" data-paper-data="{&quot;index&quot;:null}" fill="#feffaf"/><path d="M715.76916,1036.35623c48.62451,0 88.04248,23.99355 88.04248,53.59109c0,29.59752 -39.41796,53.59107 -88.04248,53.59107c-48.62451,0 -88.04249,-23.99354 -88.04249,-53.59107c0,-29.59753 39.41797,-53.59109 88.04249,-53.59109z" data-paper-data="{&quot;index&quot;:null}" fill="#feffaf"/><path d="M591.99924,1036.35623c48.62451,0 88.04248,23.99355 88.04248,53.59109c0,29.59752 -39.41796,53.59107 -88.04248,53.59107c-48.62451,0 -88.04248,-23.99354 -88.04248,-53.59107c0,-29.59753 39.41796,-53.59109 88.04248,-53.59109z" data-paper-data="{&quot;index&quot;:null}" fill="#feffaf"/><path d="M394.64797,1088.24593c0,-29.59752 39.41797,-53.59108 88.04248,-53.59108c48.62451,0 88.04248,23.99354 88.04248,53.59107c0,29.59752 -39.41796,53.59107 -88.04248,53.59107c-48.62451,0 -88.04248,-23.99352 -88.04248,-53.59107z" data-paper-data="{&quot;index&quot;:null}" fill="#feffaf"/><path d="M297.24834,1092.49925c0,-29.59752 39.41794,-53.59107 88.04248,-53.59107c48.62451,0 88.04248,23.99352 88.04248,53.59106c0,29.59753 -39.41796,53.59109 -88.04248,53.59109c-48.62452,0 -88.04248,-23.99355 -88.04248,-53.59109z" data-paper-data="{&quot;index&quot;:null}" fill="#feffaf"/><path d="M275.98199,1037.20685c48.62452,0 88.04248,23.99352 88.04248,53.59107c0,29.59752 -39.41796,53.59107 -88.04248,53.59107c-48.62454,0 -88.04247,-23.99354 -88.04247,-53.59107c0,-29.59752 39.41794,-53.59107 88.04247,-53.59107z" data-paper-data="{&quot;index&quot;:null}" fill="#feffaf"/><path d="M152.21214,1037.20685c48.62454,0 88.04248,23.99352 88.04248,53.59107c0,29.59752 -39.41794,53.59107 -88.04248,53.59107c-48.62454,0 -88.04248,-23.99354 -88.04248,-53.59107c0,-29.59752 39.41794,-53.59107 88.04248,-53.59107z" data-paper-data="{&quot;index&quot;:null}" fill="#feffaf"/><path d="M-45.13909,1089.09662c0,-29.59752 39.41796,-53.59107 88.04249,-53.59107c48.62454,0 88.04247,23.99352 88.04247,53.59107c0,29.59752 -39.41794,53.59107 -88.04247,53.59107c-48.62454,0 -88.04249,-23.99354 -88.04249,-53.59108z" data-paper-data="{&quot;index&quot;:null}" fill="#feffaf"/></g></g></svg>