<svg version="1.1" xmlns="http://www.w3.org/2000/svg" xmlns:xlink="http://www.w3.org/1999/xlink" width="817.27634" height="723.38301" viewBox="0,0,817.27634,723.38301"><defs><linearGradient x1="1612.70175" y1="636.46534" x2="1612.70175" y2="858.76836" gradientTransform="translate(-199.22882,-166.70138) scale(0.20753,0.20753)" gradientUnits="userSpaceOnUse" id="color-1"><stop offset="0" stop-color="#00b14a"/><stop offset="1" stop-color="#4c74b5"/></linearGradient><linearGradient x1="1589.47126" y1="640.26612" x2="1589.47126" y2="854.67804" gradientTransform="translate(-206.53823,-172.37714) scale(0.21514,0.21514)" gradientUnits="userSpaceOnUse" id="color-2"><stop offset="0" stop-color="#00b14a"/><stop offset="1" stop-color="#4c74b5"/></linearGradient></defs><g transform="translate(-553.69748,-177.51239)"><g data-paper-data="{&quot;isPaintingLayer&quot;:true}" fill-rule="nonzero" stroke-linecap="butt" stroke-linejoin="miter" stroke-miterlimit="10" stroke-dasharray="" stroke-dashoffset="0" style="mix-blend-mode: normal"><g><path d="M1309.14656,536.76324c2.73922,-1.99465 7.54278,-2.96856 10.56346,-0.83497c0.60817,0.42957 1.16329,0.95179 1.66391,1.54268c3.07629,1.55989 3.66633,5.01963 3.6823,8.43056c0.0092,1.96468 0.28618,5.81442 -1.37518,7.33999c-0.71645,0.6579 -1.67711,1.05235 -2.73437,1.21126c-0.60655,0.51698 -1.30125,0.94547 -1.99543,1.28387c-1.04013,0.50705 -2.31068,0.13679 -3.46746,0.16595c-4.00017,0.10083 -5.79949,-0.27858 -8.63134,-3.09518c-0.82675,-0.8223 -1.99259,-1.38421 -2.52394,-2.42216c-0.81865,-1.59916 -1.23867,-3.25793 -0.91839,-4.42842c-0.0496,-0.02261 -0.09925,-0.04432 -0.14895,-0.06505l0.26026,-1.27616h-0.61051v-2.5718c0,-1.38071 1.11929,-2.5 2.5,-2.5c0.26451,0 0.51943,0.04108 0.75872,0.11721c0.65619,-1.21523 1.85864,-2.08348 2.97692,-2.89778z" fill="#ff7c00" stroke="none" stroke-width="0.5"/><path d="M1324.65079,540c0,1.09127 -0.00491,2.18141 -0.01471,3.2704c-1.06158,-4.38262 -5.01033,-7.63741 -9.71928,-7.63741c-5.52285,0 -10,4.47715 -10,10c0,5.52285 4.47715,10 10,10c4.59739,0 8.47018,-3.10241 9.639,-7.32787c-4.46917,195.18551 -166.07109,352.05524 -364.76987,352.05524c-201.5093,0 -364.86486,-161.33883 -364.86486,-360.36036c0,-199.02153 163.35557,-360.36036 364.86487,-360.36036c201.5093,0 364.86487,161.33883 364.86487,360.36036zM750.3523,536.14318c5.52285,0 10,-4.47715 10,-10c0,-5.52285 -4.47715,-10 -10,-10c-5.52285,0 -10,4.47715 -10,10c0,5.52285 4.47715,10 10,10zM1003.22875,545.89806c5.52285,0 10,-4.47715 10,-10c0,-5.52285 -4.47715,-10 -10,-10c-5.52285,0 -10,4.47715 -10,10c0,5.52285 4.47715,10 10,10zM901.17772,539.14468c5.52285,0 10,-4.47715 10,-10c0,-5.52285 -4.47715,-10 -10,-10c-5.52285,0 -10,4.47715 -10,10c0,5.52285 4.47715,10 10,10zM955.20473,485.11766c5.52285,0 10,-4.47715 10,-10c0,-5.52285 -4.47715,-10 -10,-10c-5.52285,0 -10,4.47715 -10,10c0,5.52285 4.47715,10 10,10zM946.20023,590.17018c5.52285,0 10,-4.47715 10,-10c0,-5.52285 -4.47715,-10 -10,-10c-5.52285,0 -10,4.47715 -10,10c0,5.52285 4.47715,10 10,10zM680.56741,548.14918c5.52285,0 10,-4.47715 10,-10c0,-5.52285 -4.47715,-10 -10,-10c-5.52285,0 -10,4.47715 -10,10c0,5.52285 4.47715,10 10,10zM951.45286,739.49486c5.52285,0 10,-4.47715 10,-10c0,-5.52285 -4.47715,-10 -10,-10c-5.52285,0 -10,4.47715 -10,10c0,5.52285 4.47715,10 10,10zM1228.34126,554.90256c5.52285,0 10,-4.47715 10,-10c0,-5.52285 -4.47715,-10 -10,-10c-5.52285,0 -10,4.47715 -10,10c0,5.52285 4.47715,10 10,10zM831.39283,534.64243c5.52285,0 10,-4.47715 10,-10c0,-5.52285 -4.47715,-10 -10,-10c-5.52285,0 -10,4.47715 -10,10c0,5.52285 4.47715,10 10,10zM1073.01353,554.15218c5.52285,0 10,-4.47715 10,-10c0,-5.52285 -4.47715,-10 -10,-10c-5.52285,0 -10,4.47715 -10,10c0,5.52285 4.47715,10 10,10zM964.20924,340.29525c5.52285,0 10,-4.47715 10,-10c0,-5.52285 -4.47715,-10 -10,-10c-5.52285,0 -10,4.47715 -10,10c0,5.52285 4.47715,10 10,10zM967.21074,275.01261c5.52285,0 10,-4.47715 10,-10c0,-5.52285 -4.47715,-10 -10,-10c-5.52285,0 -10,4.47715 -10,10c0,5.52285 4.47715,10 10,10zM1151.80299,554.15218c5.52285,0 10,-4.47715 10,-10c0,-5.52285 -4.47715,-10 -10,-10c-5.52285,0 -10,4.47715 -10,10c0,5.52285 4.47715,10 10,10zM957.45586,415.33277c5.52285,0 10,-4.47715 10,-10c0,-5.52285 -4.47715,-10 -10,-10c-5.52285,0 -10,4.47715 -10,10c0,5.52285 4.47715,10 10,10zM951.45286,664.45733c5.52285,0 10,-4.47715 10,-10c0,-5.52285 -4.47715,-10 -10,-10c-5.52285,0 -10,4.47715 -10,10c0,5.52285 4.47715,10 10,10zM950.70248,813.03163c5.52285,0 10,-4.47715 10,-10c0,-5.52285 -4.47715,-10 -10,-10c-5.52285,0 -10,4.47715 -10,10c0,5.52285 4.47715,10 10,10z" fill="#ffce66" stroke="none" stroke-width="0"/><path d="M966.84825,192.65603c186.52738,5.13774 352.63887,170.11985 344.17063,355.18967" fill="none" stroke="#1f1e54" stroke-width="30"/><path d="M1311.17493,547.16622c-2.86503,183.41222 -169.87207,349.76973 -360.02709,338.15496" fill="none" stroke="#000000" stroke-width="30"/><path d="M952.19541,885.21083c-188.00955,-1.25281 -348.60579,-164.62306 -341.97355,-349.15386" fill="none" stroke="#1f1e54" stroke-width="30"/><path d="M609.86749,536.67143c-4.60554,-190.84544 167.23385,-346.47104 357.49919,-344.13304" fill="none" stroke="#000000" stroke-width="30"/><path d="M965.26266,265.38383c141.90103,8.8843 265.40762,123.35203 262.90693,281.29571" fill="none" stroke="#1f1e54" stroke-width="30"/><path d="M1228.06577,546.10498c-3.09235,136.64104 -119.91079,262.85515 -276.48887,257.38328" fill="none" stroke="#000000" stroke-width="30"/><path d="M952.97806,803.39798c-147.71609,-1.26515 -273.27111,-120.76931 -272.71418,-265.59765" fill="none" stroke="#1f1e54" stroke-width="30"/><path d="M680.16311,537.75067c-3.24389,-161.54527 136.52162,-273.06854 286.06126,-272.10064" fill="none" stroke="#000000" stroke-width="30"/><path d="M1151.75453,545.88518c-1.13373,83.926 -88.09227,183.26251 -202.0987,181.78182" fill="none" stroke="#000000" stroke-width="30"/><path d="M950.10579,727.805c-101.89085,0.53737 -201.80758,-95.06985 -200.76152,-203.05493" fill="none" stroke="#1f1e54" stroke-width="30"/><path d="M749.13452,524.93944c1.10912,-98.47284 100.88999,-196.07861 215.82171,-192.97462" fill="none" stroke="#000000" stroke-width="30"/><path d="M964.36788,332.11325c109.4098,0.8098 188.39059,115.52766 186.82309,213.89569" fill="none" stroke="#1f1e54" stroke-width="30"/><path d="M1073.49571,543.84975c-2.64294,54.71734 -65.73219,110.15536 -123.07769,109.97002" fill="none" stroke="#000000" stroke-width="30"/><path d="M950.43658,653.8369c-72.39519,0.79387 -127.80014,-66.27432 -120.82169,-131.48425" fill="none" stroke="#1f1e54" stroke-width="30"/><path d="M829.2607,523.66704c1.89508,-61.61812 53.58095,-118.3104 126.19259,-115.00374" fill="none" stroke="#000000" stroke-width="30"/><path d="M955.28971,408.48349c66.24594,0.76782 121.19661,60.75965 118.46902,135.70987" fill="none" stroke="#1f1e54" stroke-width="30"/><path d="M1003.09698,537.01072c0.26089,22.88325 -20.9429,43.49346 -59.98547,44.49629" fill="none" stroke="#000000" stroke-width="30"/><path d="M943.70681,581.71509c-23.09682,-0.27067 -43.09769,-20.80811 -45.98745,-53.98564" fill="none" stroke="#1f1e54" stroke-width="30"/><path d="M897.90612,527.79292c-2.80079,-34.22225 30.88056,-53.93403 58.29187,-51.31442" fill="none" stroke="#000000" stroke-width="30"/><path d="M955.23556,476.31911c22.08291,0.70849 47.16414,14.92794 48.45946,60.69073" fill="none" stroke="#1f1e54" stroke-width="30"/><path d="M874.01957,383.14079c0,-14.0903 11.42245,-25.51276 25.51276,-25.51276c14.09031,0 25.51275,11.42246 25.51275,25.51276c0,14.09031 -11.42245,25.51275 -25.51275,25.51275c-14.09031,0 -25.51276,-11.42245 -25.51276,-25.51275z" fill="#0d0800" stroke="#422000" stroke-width="7"/><path d="M836.99855,449.67156c0,-14.0903 11.42246,-25.51275 25.51276,-25.51275c14.09031,0 25.51275,11.42245 25.51275,25.51275c0,14.0903 -11.42245,25.51275 -25.51275,25.51275c-14.09031,0 -25.51276,-11.42245 -25.51276,-25.51275z" fill="#0d0800" stroke="#422000" stroke-width="7"/><path d="M685.41525,421.1498c0,-41.44207 36.955,-75.03752 82.54128,-75.03752c45.58628,0 82.54126,33.59545 82.54126,75.03752c0,41.44208 -36.95498,75.03752 -82.54126,75.03752c-45.58628,0 -82.54128,-33.59544 -82.54128,-75.03752z" fill="#0d0800" stroke="#422000" stroke-width="7"/><path d="M1309.14656,536.76324c2.73922,-1.99465 7.54278,-2.96856 10.56346,-0.83497c0.60817,0.42957 1.16329,0.95179 1.66391,1.54268c3.07629,1.55989 3.66633,5.01963 3.6823,8.43056c0.0092,1.96468 0.28618,5.81442 -1.37518,7.33999c-0.71645,0.6579 -1.67711,1.05235 -2.73437,1.21126c-0.60655,0.51698 -1.30125,0.94547 -1.99543,1.28387c-1.04013,0.50705 -2.31068,0.13679 -3.46746,0.16595c-4.00017,0.10083 -5.79949,-0.27858 -8.63134,-3.09518c-0.82675,-0.8223 -1.99259,-1.38421 -2.52394,-2.42216c-0.81865,-1.59916 -1.23867,-3.25793 -0.91839,-4.42842c-0.0496,-0.02261 -0.09925,-0.04432 -0.14895,-0.06505l0.26026,-1.27616h-0.61051v-2.5718c0,-1.38071 1.11929,-2.5 2.5,-2.5c0.26451,0 0.51943,0.04108 0.75872,0.11721c0.65619,-1.21523 1.85864,-2.08348 2.97692,-2.89778z" fill="#ff7c00" stroke="none" stroke-width="0.5"/><path d="M1324.65079,540c0,1.09127 -0.00491,2.18141 -0.01471,3.2704c-1.06158,-4.38262 -5.01033,-7.63741 -9.71928,-7.63741c-5.52285,0 -10,4.47715 -10,10c0,5.52285 4.47715,10 10,10c4.59739,0 8.47018,-3.10241 9.639,-7.32787c-4.46917,195.18551 -166.07109,352.05524 -364.76987,352.05524c-201.5093,0 -364.86486,-161.33883 -364.86486,-360.36036c0,-199.02153 163.35557,-360.36036 364.86487,-360.36036c201.5093,0 364.86487,161.33883 364.86487,360.36036zM750.3523,536.14318c5.52285,0 10,-4.47715 10,-10c0,-5.52285 -4.47715,-10 -10,-10c-5.52285,0 -10,4.47715 -10,10c0,5.52285 4.47715,10 10,10zM1003.22875,545.89806c5.52285,0 10,-4.47715 10,-10c0,-5.52285 -4.47715,-10 -10,-10c-5.52285,0 -10,4.47715 -10,10c0,5.52285 4.47715,10 10,10zM901.17772,539.14468c5.52285,0 10,-4.47715 10,-10c0,-5.52285 -4.47715,-10 -10,-10c-5.52285,0 -10,4.47715 -10,10c0,5.52285 4.47715,10 10,10zM955.20473,485.11766c5.52285,0 10,-4.47715 10,-10c0,-5.52285 -4.47715,-10 -10,-10c-5.52285,0 -10,4.47715 -10,10c0,5.52285 4.47715,10 10,10zM946.20023,590.17018c5.52285,0 10,-4.47715 10,-10c0,-5.52285 -4.47715,-10 -10,-10c-5.52285,0 -10,4.47715 -10,10c0,5.52285 4.47715,10 10,10zM680.56741,548.14918c5.52285,0 10,-4.47715 10,-10c0,-5.52285 -4.47715,-10 -10,-10c-5.52285,0 -10,4.47715 -10,10c0,5.52285 4.47715,10 10,10zM951.45286,739.49486c5.52285,0 10,-4.47715 10,-10c0,-5.52285 -4.47715,-10 -10,-10c-5.52285,0 -10,4.47715 -10,10c0,5.52285 4.47715,10 10,10zM1228.34126,554.90256c5.52285,0 10,-4.47715 10,-10c0,-5.52285 -4.47715,-10 -10,-10c-5.52285,0 -10,4.47715 -10,10c0,5.52285 4.47715,10 10,10zM831.39283,534.64243c5.52285,0 10,-4.47715 10,-10c0,-5.52285 -4.47715,-10 -10,-10c-5.52285,0 -10,4.47715 -10,10c0,5.52285 4.47715,10 10,10zM1073.01353,554.15218c5.52285,0 10,-4.47715 10,-10c0,-5.52285 -4.47715,-10 -10,-10c-5.52285,0 -10,4.47715 -10,10c0,5.52285 4.47715,10 10,10zM964.20924,340.29525c5.52285,0 10,-4.47715 10,-10c0,-5.52285 -4.47715,-10 -10,-10c-5.52285,0 -10,4.47715 -10,10c0,5.52285 4.47715,10 10,10zM967.21074,275.01261c5.52285,0 10,-4.47715 10,-10c0,-5.52285 -4.47715,-10 -10,-10c-5.52285,0 -10,4.47715 -10,10c0,5.52285 4.47715,10 10,10zM1151.80299,554.15218c5.52285,0 10,-4.47715 10,-10c0,-5.52285 -4.47715,-10 -10,-10c-5.52285,0 -10,4.47715 -10,10c0,5.52285 4.47715,10 10,10zM957.45586,415.33277c5.52285,0 10,-4.47715 10,-10c0,-5.52285 -4.47715,-10 -10,-10c-5.52285,0 -10,4.47715 -10,10c0,5.52285 4.47715,10 10,10zM951.45286,664.45733c5.52285,0 10,-4.47715 10,-10c0,-5.52285 -4.47715,-10 -10,-10c-5.52285,0 -10,4.47715 -10,10c0,5.52285 4.47715,10 10,10zM950.70248,813.03163c5.52285,0 10,-4.47715 10,-10c0,-5.52285 -4.47715,-10 -10,-10c-5.52285,0 -10,4.47715 -10,10c0,5.52285 4.47715,10 10,10z" fill="#ff7c00" stroke="none" stroke-width="0"/><path d="M966.84825,192.65603c186.52738,5.13774 352.63887,170.11985 344.17063,355.18967" fill="none" stroke="#000000" stroke-width="30"/><path d="M1311.17493,547.16622c-2.86503,183.41222 -169.87207,349.76973 -360.02709,338.15496" fill="none" stroke="#d26500" stroke-width="30"/><path d="M952.19541,885.21083c-188.00955,-1.25281 -348.60579,-164.62306 -341.97355,-349.15386" fill="none" stroke="#000000" stroke-width="30"/><path d="M609.86749,536.67143c-4.60554,-190.84544 167.23385,-346.47104 357.49919,-344.13304" fill="none" stroke="#d26500" stroke-width="30"/><path d="M965.26266,265.38383c141.90103,8.8843 265.40762,123.35203 262.90693,281.29571" fill="none" stroke="#000000" stroke-width="30"/><path d="M1228.06577,546.10498c-3.09235,136.64104 -119.91079,262.85515 -276.48887,257.38328" fill="none" stroke="#d26500" stroke-width="30"/><path d="M952.97806,803.39798c-147.71609,-1.26515 -273.27111,-120.76931 -272.71418,-265.59765" fill="none" stroke="#000000" stroke-width="30"/><path d="M680.16311,537.75067c-3.24389,-161.54527 136.52162,-273.06854 286.06126,-272.10064" fill="none" stroke="#d26500" stroke-width="30"/><path d="M1151.75453,545.88518c-1.13373,83.926 -88.09227,183.26251 -202.0987,181.78182" fill="none" stroke="#d26500" stroke-width="30"/><path d="M950.10579,727.805c-101.89085,0.53737 -201.80758,-95.06985 -200.76152,-203.05493" fill="none" stroke="#000000" stroke-width="30"/><path d="M749.13452,524.93944c1.10912,-98.47284 100.88999,-196.07861 215.82171,-192.97462" fill="none" stroke="#d26500" stroke-width="30"/><path d="M964.36788,332.11325c109.4098,0.8098 188.39059,115.52766 186.82309,213.89569" fill="none" stroke="#000000" stroke-width="30"/><path d="M1073.49571,543.84975c-2.64294,54.71734 -65.73219,110.15536 -123.07769,109.97002" fill="none" stroke="#d26500" stroke-width="30"/><path d="M950.43658,653.8369c-72.39519,0.79387 -127.80014,-66.27432 -120.82169,-131.48425" fill="none" stroke="#000000" stroke-width="30"/><path d="M829.2607,523.66704c1.89508,-61.61812 53.58095,-118.3104 126.19259,-115.00374" fill="none" stroke="#d26500" stroke-width="30"/><path d="M955.28971,408.48349c66.24594,0.76782 121.19661,60.75965 118.46902,135.70987" fill="none" stroke="#000000" stroke-width="30"/><path d="M1003.09698,537.01072c0.26089,22.88325 -20.9429,43.49346 -59.98547,44.49629" fill="none" stroke="#d26500" stroke-width="30"/><path d="M943.70681,581.71509c-23.09682,-0.27067 -43.09769,-20.80811 -45.98745,-53.98564" fill="none" stroke="#000000" stroke-width="30"/><path d="M897.90612,527.79292c-2.80079,-34.22225 30.88056,-53.93403 58.29187,-51.31442" fill="none" stroke="#d26500" stroke-width="30"/><path d="M955.23556,476.31911c22.08291,0.70849 47.16414,14.92794 48.45946,60.69073" fill="none" stroke="#000000" stroke-width="30"/></g><text transform="translate(960,803.26393) scale(4.81858,4.81858)" font-size="40" xml:space="preserve" fill="#1f1e54" fill-rule="nonzero" stroke="url(#color-1)" stroke-width="0" stroke-linecap="butt" stroke-linejoin="miter" stroke-miterlimit="10" stroke-dasharray="" stroke-dashoffset="0" font-family="Playful" font-weight="normal" text-anchor="middle" style="mix-blend-mode: normal"><tspan x="0" dy="0">Free Play</tspan></text><text transform="translate(960,801.21757) scale(4.64805,4.64805)" font-size="40" xml:space="preserve" fill="#f8ff66" fill-rule="nonzero" stroke="url(#color-2)" stroke-width="0" stroke-linecap="butt" stroke-linejoin="miter" stroke-miterlimit="10" stroke-dasharray="" stroke-dashoffset="0" font-family="Playful" font-weight="normal" text-anchor="middle" style="mix-blend-mode: normal"><tspan x="0" dy="0">Free Play</tspan></text></g></g></svg>