<svg version="1.1" xmlns="http://www.w3.org/2000/svg" xmlns:xlink="http://www.w3.org/1999/xlink" width="139.12913" height="139.12913" viewBox="0,0,139.12913,139.12913"><defs><linearGradient x1="198.59444" y1="933.09125" x2="198.59444" y2="989.61731" gradientTransform="translate(-26.63743,-796.11036) scale(0.81608,0.81608)" gradientUnits="userSpaceOnUse" id="color-1"><stop offset="0" stop-color="#00b14a"/><stop offset="1" stop-color="#4c74b5"/></linearGradient></defs><g transform="translate(-21.3471,-924.48718)"><g data-paper-data="{&quot;isPaintingLayer&quot;:true}" fill-rule="nonzero" stroke-linecap="butt" stroke-linejoin="miter" stroke-miterlimit="10" stroke-dasharray="" stroke-dashoffset="0" style="mix-blend-mode: normal"><path d="M26.3471,1058.61631v-129.12913h129.12913v129.12913z" fill="#1f1e54" stroke="#000000" stroke-width="10"/><path d="M107.32743,1031.95946c0,-6.47476 8.62308,-11.72359 19.26018,-11.72359c10.63711,0 19.26018,5.24882 19.26018,11.72359c0,6.47475 -8.62308,11.72358 -19.26018,11.72358c-10.6371,0 -19.26018,-5.24882 -19.26018,-11.72359z" data-paper-data="{&quot;index&quot;:null}" fill="#fbff00" stroke="#000000" stroke-width="0"/><path d="M86.02027,1032.88991c0,-6.47476 8.62308,-11.72359 19.26018,-11.72359c10.6371,0 19.26018,5.24882 19.26018,11.72359c0,6.47475 -8.62307,11.72359 -19.26018,11.72359c-10.6371,0 -19.26018,-5.24883 -19.26018,-11.72359z" data-paper-data="{&quot;index&quot;:null}" fill="#fbff00" stroke="#000000" stroke-width="0"/><path d="M107.32743,1035.0299c0,-6.47476 8.62308,-11.72359 19.26018,-11.72359c10.63711,0 19.26018,5.24882 19.26018,11.72359c0,6.47476 -8.62308,11.72359 -19.26018,11.72359c-10.6371,0 -19.26018,-5.24882 -19.26018,-11.72359z" data-paper-data="{&quot;index&quot;:null}" fill="#fcff34" stroke="#000000" stroke-width="0"/><path d="M86.02027,1035.96036c0,-6.47476 8.62308,-11.72359 19.26018,-11.72359c10.6371,0 19.26018,5.24882 19.26018,11.72359c0,6.47475 -8.62307,11.72359 -19.26018,11.72359c-10.6371,0 -19.26018,-5.24883 -19.26018,-11.72359z" data-paper-data="{&quot;index&quot;:null}" fill="#fcff34" stroke="#000000" stroke-width="0"/><path d="M106.39697,1038.19344c0,-6.47476 8.62308,-11.72359 19.26018,-11.72359c10.6371,0 19.26018,5.24883 19.26018,11.72359c0,6.47475 -8.62308,11.72358 -19.26018,11.72358c-10.6371,0 -19.26018,-5.24883 -19.26018,-11.72359z" data-paper-data="{&quot;index&quot;:null}" fill="#fcff64" stroke="#000000" stroke-width="0"/><path d="M85.08983,1039.12389c0,-6.47476 8.62307,-11.72359 19.26018,-11.72359c10.6371,0 19.26018,5.24882 19.26018,11.72359c0,6.47476 -8.62308,11.72359 -19.26018,11.72359c-10.63711,0 -19.26018,-5.24883 -19.26018,-11.72359z" data-paper-data="{&quot;index&quot;:null}" fill="#fcff64" stroke="#000000" stroke-width="0"/><path d="M126.12238,1030.47077c10.6371,0 19.26018,5.24883 19.26018,11.72359c0,6.47476 -8.62308,11.72358 -19.26018,11.72358c-10.6371,0 -19.26018,-5.24882 -19.26018,-11.72358c0,-6.47476 8.62308,-11.72359 19.26018,-11.72359z" data-paper-data="{&quot;index&quot;:null}" fill="#fdff97" stroke="#000000" stroke-width="0"/><path d="M104.81523,1031.40121c10.6371,0 19.26018,5.24883 19.26018,11.72359c0,6.47476 -8.62308,11.72358 -19.26018,11.72358c-10.6371,0 -19.26018,-5.24882 -19.26018,-11.72358c0,-6.47476 8.62307,-11.72359 19.26018,-11.72359z" data-paper-data="{&quot;index&quot;:null}" fill="#fdff97" stroke="#000000" stroke-width="0"/><path d="M126.5876,1033.35515c10.6371,0 19.26018,5.24883 19.26018,11.72359c0,6.47476 -8.62308,11.72359 -19.26018,11.72359c-10.6371,0 -19.26018,-5.24883 -19.26018,-11.72359c0,-6.47476 8.62308,-11.72359 19.26018,-11.72359z" data-paper-data="{&quot;index&quot;:null}" fill="#feffaf" stroke="#000000" stroke-width="0"/><path d="M86.02027,1046.00917c0,-6.47476 8.62308,-11.72358 19.26018,-11.72358c10.6371,0 19.26018,5.24882 19.26018,11.72358c0,6.47476 -8.62308,11.72359 -19.26018,11.72359c-10.63711,0 -19.26018,-5.24883 -19.26018,-11.72359z" data-paper-data="{&quot;index&quot;:null}" fill="#feffaf" stroke="#000000" stroke-width="0"/><path d="M57.41685,1031.95946c0,-6.47476 8.62308,-11.72359 19.26018,-11.72359c10.63711,0 19.26018,5.24882 19.26018,11.72359c0,6.47475 -8.62308,11.72358 -19.26018,11.72358c-10.6371,0 -19.26018,-5.24882 -19.26018,-11.72359z" data-paper-data="{&quot;index&quot;:null}" fill="#fbff00" stroke="#000000" stroke-width="0"/><path d="M36.1097,1032.88991c0,-6.47476 8.62308,-11.72359 19.26018,-11.72359c10.6371,0 19.26018,5.24882 19.26018,11.72359c0,6.47475 -8.62307,11.72359 -19.26018,11.72359c-10.6371,0 -19.26018,-5.24883 -19.26018,-11.72359z" data-paper-data="{&quot;index&quot;:null}" fill="#fbff00" stroke="#000000" stroke-width="0"/><path d="M57.41685,1035.0299c0,-6.47476 8.62308,-11.72359 19.26018,-11.72359c10.63711,0 19.26018,5.24882 19.26018,11.72359c0,6.47476 -8.62308,11.72359 -19.26018,11.72359c-10.6371,0 -19.26018,-5.24882 -19.26018,-11.72359z" data-paper-data="{&quot;index&quot;:null}" fill="#fcff34" stroke="#000000" stroke-width="0"/><path d="M36.1097,1035.96036c0,-6.47476 8.62308,-11.72359 19.26018,-11.72359c10.6371,0 19.26018,5.24882 19.26018,11.72359c0,6.47475 -8.62307,11.72359 -19.26018,11.72359c-10.6371,0 -19.26018,-5.24883 -19.26018,-11.72359z" data-paper-data="{&quot;index&quot;:null}" fill="#fcff34" stroke="#000000" stroke-width="0"/><path d="M56.4864,1038.19344c0,-6.47476 8.62308,-11.72359 19.26018,-11.72359c10.6371,0 19.26018,5.24883 19.26018,11.72359c0,6.47475 -8.62308,11.72358 -19.26018,11.72358c-10.6371,0 -19.26018,-5.24883 -19.26018,-11.72359z" data-paper-data="{&quot;index&quot;:null}" fill="#fcff64" stroke="#000000" stroke-width="0"/><path d="M35.17926,1039.12389c0,-6.47476 8.62307,-11.72359 19.26018,-11.72359c10.6371,0 19.26018,5.24882 19.26018,11.72359c0,6.47476 -8.62308,11.72359 -19.26018,11.72359c-10.63711,0 -19.26018,-5.24883 -19.26018,-11.72359z" data-paper-data="{&quot;index&quot;:null}" fill="#fcff64" stroke="#000000" stroke-width="0"/><path d="M76.2118,1030.47077c10.6371,0 19.26018,5.24883 19.26018,11.72359c0,6.47476 -8.62308,11.72358 -19.26018,11.72358c-10.6371,0 -19.26018,-5.24882 -19.26018,-11.72358c0,-6.47476 8.62308,-11.72359 19.26018,-11.72359z" data-paper-data="{&quot;index&quot;:null}" fill="#fdff97" stroke="#000000" stroke-width="0"/><path d="M54.90466,1031.40121c10.6371,0 19.26018,5.24883 19.26018,11.72359c0,6.47476 -8.62308,11.72358 -19.26018,11.72358c-10.6371,0 -19.26018,-5.24882 -19.26018,-11.72358c0,-6.47476 8.62307,-11.72359 19.26018,-11.72359z" data-paper-data="{&quot;index&quot;:null}" fill="#fdff97" stroke="#000000" stroke-width="0"/><path d="M76.67703,1033.35515c10.6371,0 19.26018,5.24883 19.26018,11.72359c0,6.47476 -8.62308,11.72359 -19.26018,11.72359c-10.6371,0 -19.26018,-5.24883 -19.26018,-11.72359c0,-6.47476 8.62308,-11.72359 19.26018,-11.72359z" data-paper-data="{&quot;index&quot;:null}" fill="#feffaf" stroke="#000000" stroke-width="0"/><path d="M36.1097,1046.00917c0,-6.47476 8.62308,-11.72358 19.26018,-11.72358c10.6371,0 19.26018,5.24882 19.26018,11.72358c0,6.47476 -8.62308,11.72359 -19.26018,11.72359c-10.63711,0 -19.26018,-5.24883 -19.26018,-11.72359z" data-paper-data="{&quot;index&quot;:null}" fill="#feffaf" stroke="#000000" stroke-width="0"/><g stroke="none"><path d="M87.33135,1038.93714c-0.29083,0 3.11349,-2.52051 3.11349,-2.81134c0,0 -2.8675,0.95048 -2.8675,-4.34448c0,-3.3512 2.03756,-9.65092 2.39364,-17.38765c0.76149,-16.54529 -2.33384,-26.61797 -3.80828,-30.07051c-0.15567,-0.36452 -4.83013,-9.35088 -4.83013,-9.35088c0,-0.26815 1.39602,-1.29127 1.41871,-1.29127l7.96186,-2.16655c0.29083,0 1.6736,-0.01912 1.6736,0.27171c0,0 7.61677,10.44596 10.12078,19.8223c4.14021,15.50315 4.02554,33.60636 4.02554,37.43279c0,7.49042 -2.8675,7.08454 -2.8675,7.08454c0,0.29083 3.63667,3.15986 3.34584,3.15986z" fill="#825a08" stroke-width="NaN"/><path d="M62.34359,961.04184c0,-1.2299 0.10905,-1.64823 0.35952,-2.65904c0.41984,-1.69429 -8.7498,7.3845 -22.22985,7.65232c-0.19381,0.00385 -0.70251,-0.56126 -0.62742,-0.66183c8.39958,-11.25078 21.98422,-11.88612 25.45497,-12.58283c-6.14706,-3.45508 -15.11366,-3.1649 -15.10252,-3.17327c-1.34179,-0.39385 -0.83333,-2.10497 -0.54957,-2.3444c6.12559,-5.16854 11.95981,-6.07934 16.48187,-5.83868c11.32026,0.60244 15.92892,6.90488 16.46551,6.97458c6.00327,0.77985 16.24927,-8.41399 24.61623,-4.58408c0.05113,0.0234 -0.18098,-0.00978 -0.12565,-0.02127c1.38364,-0.28715 18.60051,-1.89159 27.14111,11.77707c0.07478,0.11967 0.94616,1.32789 -1.03537,1.73859c-0.88873,0.1842 -5.50501,-1.26737 -5.65765,-1.29995c-6.49761,-1.38689 -15.21548,0.25787 -15.21182,0.2945c0.05282,0.52931 -15.19402,0.40537 -15.19402,0.95659c0,10.44885 -9.72769,20.80515 -20.17654,20.80515c-10.44885,0 -14.6088,-6.58462 -14.6088,-17.03346z" fill="#4ee656" stroke-width="0"/><path d="M122.74251,979.30315c-0.32729,-0.24823 -8.28215,-8.57464 -16.62673,-10.73206c-6.74419,-1.74366 -13.77018,2.78868 -13.84599,2.93912c-1.21486,2.41058 -6.37681,6.95197 -9.70577,6.14514c-0.06831,-0.01656 -8.43402,6.6434 -9.7793,10.43404c-3.12091,8.79391 0.12481,19.46092 -0.01666,19.39442c-0.08838,-0.04154 -0.58004,2.87577 -1.1593,1.99886c-0.35511,-0.53758 -3.92643,0.11955 -7.90619,-5.66696c-4.57314,-6.64927 -3.82909,-9.26164 -4.08674,-9.93496c-2.52302,-6.59351 -0.81137,-10.95149 2.14662,-15.74579c0.18847,-0.91995 0.53013,-1.7494 0.99058,-2.49751c0.04796,-0.07792 -2.25289,1.36395 -4.63289,3.61487c-2.37686,2.24795 -4.83175,5.30312 -6.49559,7.99372c-6.36144,10.28714 -3.12669,17.36338 -7.10394,16.10824c-1.72953,-0.54581 -12.9261,-4.98176 -1.5845,-31.24641c2.62686,-6.08323 4.97482,-11.73956 19.31319,-14.06032c6.59913,-1.06811 12.78392,0.40283 16.74228,2.30878c0.17915,0.08626 0.58188,0.23618 0.53029,0.06395c-2.08231,-6.95208 5.57702,-18.91588 16.11263,-23.52896c14.32546,-6.2725 20.24038,-1.01762 19.76361,-0.47907c-0.13758,0.15541 -6.50518,5.55165 -11.60332,10.60268c-3.98997,3.9531 -7.02439,7.85495 -6.86733,7.80457c5.15974,-1.6551 11.71853,-0.84173 15.68526,1.43516c17.50528,10.04794 13.75646,25.7991 10.1298,23.04851z" fill="#8eff57" stroke-width="0"/></g><text transform="translate(32.64072,975.52996) scale(1.22537,1.22537)" font-size="40" xml:space="preserve" fill="#ff3737" fill-rule="nonzero" stroke="url(#color-1)" stroke-width="0" stroke-linecap="butt" stroke-linejoin="miter" stroke-miterlimit="10" stroke-dasharray="" stroke-dashoffset="0" font-family="Playful" font-weight="normal" text-anchor="start" style="mix-blend-mode: normal"><tspan x="0" dy="0">Sand</tspan></text><text transform="translate(68.43969,829.9874) scale(0.5,0.5)" font-size="40" xml:space="preserve" fill="#ff3737" fill-rule="nonzero" stroke="none" stroke-width="1" stroke-linecap="butt" stroke-linejoin="miter" stroke-miterlimit="10" stroke-dasharray="" stroke-dashoffset="0" font-family="Playful" font-weight="normal" text-anchor="start" style="mix-blend-mode: normal"><tspan x="0" dy="0"> </tspan></text></g></g></svg>