<svg version="1.1" xmlns="http://www.w3.org/2000/svg" xmlns:xlink="http://www.w3.org/1999/xlink" width="169.91115" height="125.39466" viewBox="0,0,169.91115,125.39466"><defs><radialGradient cx="960" cy="540" r="1.35246" gradientUnits="userSpaceOnUse" id="color-1"><stop offset="0" stop-color="#ff0000"/><stop offset="1" stop-color="#d60000"/></radialGradient><radialGradient cx="960" cy="540" r="1.35246" gradientUnits="userSpaceOnUse" id="color-2"><stop offset="0" stop-color="#000000" stop-opacity="0"/><stop offset="1" stop-color="#000000" stop-opacity="0"/></radialGradient></defs><g transform="translate(-854.95204,-456.70289)"><g data-paper-data="{&quot;isPaintingLayer&quot;:true}" fill-rule="nonzero" stroke-linecap="butt" stroke-linejoin="miter" stroke-miterlimit="10" stroke-dasharray="" stroke-dashoffset="0" style="mix-blend-mode: normal"><path d="M958.64754,540c0,-0.74694 0.60552,-1.35246 1.35246,-1.35246c0.74694,0 1.35246,0.60552 1.35246,1.35246c0,0.74694 -0.60552,1.35246 -1.35246,1.35246c-0.74694,0 -1.35246,-0.60552 -1.35246,-1.35246z" fill="url(#color-1)" stroke="url(#color-2)" stroke-width="0"/><path d="M958.04581,532.73251c0.23469,-0.56032 0.56825,-1.05664 0.97879,-1.49927c-0.27831,-0.09876 -0.576,-0.20589 -0.84734,-0.31559c-0.12121,-0.04156 -0.23822,-0.09217 -0.35022,-0.15103c-0.79585,-0.41825 -1.33861,-1.25296 -1.33861,-2.21443c0,-1.38071 1.11929,-2.5 2.5,-2.5c0.45351,0 0.87881,0.12076 1.24551,0.33187c0.25653,0.03808 0.51468,0.10683 0.777,0.19938c0.7431,-1.67019 1.65778,-3.28316 2.84121,-4.56698c0.17789,-0.37495 0.35773,-0.73949 0.54016,-1.09115c2.26828,-4.37259 4.5284,-8.74942 6.80486,-13.11776c2.70189,-5.18471 5.93007,-9.91599 9.64372,-14.44388c1.37211,-1.67296 7.45082,-5.85316 7.45082,-0.46721c0,1.26558 -5.46909,6.1358 -6.02801,6.9301c-5.04131,7.16433 -8.82767,14.60499 -12.90774,22.39917c0.01273,0.04994 0.02433,0.10098 0.03476,0.15313c0.26137,1.30686 -0.75242,2.23552 -1.68808,3.14123c-0.33837,0.73019 -0.66039,1.46146 -0.97437,2.1926c1.28829,-0.3323 2.51822,-0.62773 3.53422,-0.95961c3.93856,-1.28654 6.51205,-2.51918 9.22832,-5.35355c1.43984,-1.50244 5.97357,-4.52463 7.4879,-1.87456c1.30017,2.2753 -1.12104,3.66943 -2.61896,4.58748c-4.79206,2.93695 -5.97577,5.20882 -12.37548,7.33386c0.73839,0.31692 1.4487,0.64007 2.13675,0.98088c2.10913,-0.3403 4.62872,-0.42599 6.03545,0.79543c1.04516,0.90748 1.42257,2.77263 0.56967,3.87319c0.69063,0.68843 1.37852,1.45206 2.07239,2.30806c1.28008,1.57919 8.4788,13.05303 0.67617,10.71224c-1.00373,-0.30112 -2.03227,-2.9522 -2.60463,-3.86064c-1.97354,-3.13237 -3.60545,-6.3704 -6.57295,-8.48538c-2.78858,0.6031 -5.65476,1.00385 -8.45578,1.7042c-0.28729,0.07183 -1.11423,0.35399 -2.15644,0.67308c0.011,0.09517 0.01665,0.19196 0.01665,0.29008c0,0.16186 -0.01538,0.32014 -0.04477,0.47343c0.42421,0.96694 0.71742,1.7919 0.78213,2.08705c0.51544,2.35122 -0.0422,4.77957 -0.34747,7.10559c-0.74006,5.63887 -1.85875,13.09428 -5.83388,17.52989c-1.03182,1.15135 -3.37473,3.46592 -5.17076,3.09092c-1.31651,-0.27487 -2.5,-0.41146 -2.5,-2.5c0,-1.82391 3.96207,-3.47037 4.91415,-5.29072c2.93974,-5.62068 4.94763,-14.31155 3.56971,-20.72263c-0.31947,0.29488 -0.73902,0.49512 -1.25151,0.55245c-0.44385,0.69601 -1.22272,1.15762 -2.1094,1.15762c-0.64486,0 -1.2327,-0.24416 -1.67611,-0.64507c-1.84034,-0.96446 -3.84876,-1.92456 -5.95258,-1.97788c-5.80818,-0.14721 -10.38006,0.74345 -15.94076,1.75653c-5.99532,1.09226 -11.97336,2.33418 -18.0237,3.06241c-5.07417,0.61074 -5.21382,0.46003 -9.88546,1.5102c-2.64511,0.59461 -8.16481,3.62115 -11.22631,3.01512c-2.62119,-0.51886 -3.10192,-2.71695 -1.25,-4.6875c0.90282,-0.96065 4.91839,-1.36848 5.83373,-1.6561c7.27232,-2.28512 14.7059,-2.92106 22.21268,-4.19521c3.81574,-0.64766 7.63331,-1.28512 11.444,-1.96183c2.16528,-0.38451 5.52935,-1.50311 7.85042,-1.67585c0.42833,-0.03188 0.85686,-0.0658 1.28563,-0.09475c-4.87247,-1.34286 -9.74471,-2.63351 -14.48132,-4.41092c-1.88435,-0.7071 -9.73941,-1.47964 -9.73941,-4.47359c0,-4.50343 7.45133,-1.56653 9.49145,-0.90565c6.64641,2.15306 13.32971,4.02414 20.01269,6.06928c-1.31137,-5.77074 -4.77978,-14.04904 -6.58851,-17.10287c-1.33799,-2.25904 -7.36632,-5.41265 -3.9607,-8.11711c2.08242,-1.65369 5.97953,2.14747 6.9857,3.66414c1.94681,2.93456 4.6331,8.33462 6.60529,13.47347c0.0164,-6.6921 0.24349,-13.33568 0.51159,-20.04896c0.06766,-1.69412 -0.37744,-9.08795 2.66832,-9.56794c4.77791,-0.75296 2.36614,7.19903 2.30696,9.76663c-0.04067,1.76472 0.25732,3.55643 -0.04596,5.29537c-0.32844,1.88321 -0.59558,3.79082 -0.60978,5.70241c-0.01795,2.418 -0.06654,4.83706 0,7.25421c0.04229,1.5363 -0.04488,3.10799 0.32787,4.59899v5.68763c1.28687,0.31236 2.52952,0.78113 3.56984,1.41949c0.2891,-0.5214 0.59523,-1.04486 0.88847,-1.57114zM963.78584,534.48649c-0.05316,0.13359 -0.1071,0.2665 -0.16185,0.39854c0.32474,-0.06895 0.65146,-0.14375 0.97894,-0.22794h-0.00002c0.51,-0.13111 1.02345,-0.25993 1.53871,-0.38704c-0.36293,-0.12791 -0.72535,-0.25717 -1.0867,-0.38936c-0.39054,0.17532 -0.80898,0.35754 -1.23352,0.53141c-0.01183,0.0248 -0.02369,0.0496 -0.03556,0.0744z" fill="#ff0000" stroke="none" stroke-width="0.5"/><path d="M970.9493,498.08862c2.17061,1.24035 0.93026,3.41096 0.93026,3.41096l-0.8697,1.51004c-1.29056,1.89888 -1.70698,4.27703 -2.83008,6.27951c-1.64509,2.93318 -5.0311,6.45932 -6.90321,9.29439c-1.6595,2.51309 -2.57157,5.51481 -4.47503,7.84856c-0.76749,0.94098 -2.08843,1.25894 -3.01766,2.04061c-0.23728,0.1996 -0.45906,0.40397 -0.66834,0.61286c-0.07499,0.44024 -0.15739,0.8764 -0.2478,1.3079c0,0 -0.41642,1.94327 -2.23932,1.99329c-0.21322,0.33172 -0.42997,0.66942 -0.65753,1.0125c0,0 -0.08977,0.13466 -0.2579,0.31261c0.17207,0.43661 0.22213,0.97402 -0.01427,1.60421c0.20341,-0.15064 0.40664,-0.30052 0.60974,-0.44946c0,0 2.01601,-1.47841 3.49442,0.5376c1.47841,2.01601 -0.5376,3.49442 -0.5376,3.49442c-5.00175,3.66795 -10.0695,7.78775 -15.83742,10.19674c-1.54018,0.64326 -3.22331,0.90983 -4.75014,1.58417c-2.93198,1.29493 -5.29794,3.65677 -8.19067,5.03713c-1.2942,0.61757 -2.78557,0.709 -4.12516,1.22067c-3.50464,1.33863 -5.8903,3.0265 -8.49557,5.67409l-2.2515,0.87849c0,0 -2.45145,0.49029 -2.94174,-1.96116c-0.49029,-2.45145 1.96116,-2.94174 1.96116,-2.94174l-0.30345,0.48888c3.14098,-3.09909 6.04807,-5.19703 10.20573,-6.79345c1.25045,-0.48014 2.65251,-0.53406 3.86237,-1.10886c2.90833,-1.38174 5.29157,-3.74134 8.23107,-5.05548c1.51931,-0.67922 3.19904,-0.94153 4.7367,-1.57811c4.31358,-1.78579 8.21256,-4.64438 11.99078,-7.4742c-0.7142,-0.02547 -1.27674,-0.3419 -1.27674,-0.3419c-2.52118,-1.44384 -4.45652,-3.00831 -6.26582,-4.93344c-2.30464,0.3175 -4.82788,0.49879 -6.91998,1.09333c-2.35315,0.66872 -4.48343,2.06996 -6.88275,2.5472c-4.39352,0.8739 -9.01619,1.13647 -13.38049,2.12896c-1.30654,0.29712 -2.46565,1.09713 -3.77529,1.38026c-2.51783,0.54434 -5.18185,-0.19259 -7.72491,0.218c-1.44869,0.2339 -2.74841,1.07916 -4.19119,1.3471c-4.81534,0.89424 -5.5326,0.12179 -10.23437,0.42935c-5.47028,0.35782 -10.84055,0.59082 -16.3476,0.59082c-0.84416,0 -1.68831,0 -2.53247,0h-0.77922c0,0 -2.5,0 -2.5,-2.5c0,-2.5 2.5,-2.5 2.5,-2.5c0.84416,0 2.46753,0 3.31169,0c5.39102,0 10.63619,-0.22878 15.99007,-0.57802c3.47576,-0.22673 6.19836,0.30793 9.63576,-0.34987c1.50356,-0.28773 2.8679,-1.14283 4.38024,-1.38018c2.4605,-0.38615 5.04222,0.38481 7.46989,-0.17161c1.25718,-0.28814 2.36956,-1.06133 3.62731,-1.34701c4.40693,-1.00097 9.0616,-1.30874 13.50263,-2.15675c3.32471,-0.63485 3.09602,-1.49811 6.75362,-2.51773c1.37035,-0.38201 2.91651,-0.6035 4.4691,-0.79934c-1.0124,-1.51188 -2.15879,-3.28966 -3.23853,-4.2845c-0.95144,-0.87664 -2.27412,-1.29746 -3.18902,-2.21216c-0.87376,-0.87357 -1.17044,-2.23487 -2.08734,-3.06305c-1.08041,-0.97588 -2.61422,-1.32354 -3.76147,-2.21989c-2.49919,-1.95262 -4.43411,-5.03154 -7.03175,-6.88219c-0.76556,-0.54541 -1.80345,-0.59177 -2.60123,-1.08888c-3.13085,-1.95087 -3.08712,-2.33532 -5.03203,-4.96541l-0.65464,-0.01358c0,0 -2.23607,-1.11803 -1.11803,-3.3541c1.11803,-2.23607 3.3541,-1.11803 3.3541,-1.11803l2.46225,1.54486c1.97652,2.77747 3.77719,2.98239 6.39272,4.85481c2.73587,1.95857 4.75747,5.09208 7.38383,7.14379c1.23979,0.96852 2.86321,1.40092 4.03074,2.45543c0.95442,0.86204 1.28907,2.26121 2.19838,3.17071c0.86818,0.86837 2.15002,1.23258 3.04475,2.07355c3.76526,3.53904 5.75768,8.04194 9.53722,11.26033c0.96495,-1.44636 1.65279,-2.59375 2.54929,-3.70229c0.93915,-6.79176 0.00364,-14.30384 -0.30555,-20.99729c-0.33535,-7.25978 0.51817,-14.03542 2.21493,-20.97937l-0.07464,-0.9521c0,0 0,-2.5 2.5,-2.5c2.5,0 2.5,2.5 2.5,2.5l-0.07464,2.16478c-0.50868,1.98041 -0.33736,4.08524 -0.74744,6.08839c-0.25152,1.22862 -1.08393,2.28398 -1.36364,3.50649c-0.98031,4.28473 0.24669,9.90063 0.42991,14.23095c0.15549,3.67498 0.35871,7.62378 0.27461,11.51427c0.13187,-0.45234 0.26735,-0.90428 0.49229,-1.30767c2.02235,-3.62676 4.59947,-7.48921 7.2623,-10.69501c0.73697,-0.88725 1.7458,-1.5732 2.30125,-2.58405c1.16144,-2.1137 1.69043,-4.56155 3.01408,-6.57764l0.68874,-1.21723c0,0 1.24035,-2.17061 3.41096,-0.93026z" fill="#ff8800" stroke="none" stroke-width="0.5"/><path d="M1019.74143,503.1813c0,2.5 -2.5,2.5 -2.5,2.5l-1.24541,-0.16664c-1.8891,0.72143 -4.0502,0.71105 -5.83393,1.66366c-2.36983,1.26562 -4.24108,3.38392 -6.68121,4.50802c-9.05256,4.17026 -19.08712,6.36957 -27.91695,11.0368c-5.40316,2.85598 -10.65,6.70828 -15.80178,10.02863c0,0 -2.10295,1.35189 -3.45484,-0.75105c-1.35189,-2.10295 0.75105,-3.45484 0.75105,-3.45484c5.27268,-3.38159 10.6214,-7.31922 16.14628,-10.23111c8.92852,-4.70578 19.01725,-7.01631 28.18695,-11.17099c2.40869,-1.09135 4.22184,-3.22829 6.56554,-4.45302c1.92332,-1.00505 4.22068,-1.0583 6.24399,-1.84283l3.0403,-0.16664c0,0 2.5,0 2.5,2.5z" fill="#ff8800" stroke="none" stroke-width="0.5"/><path d="M1015.87779,558.66832c-2.5,0 -2.5,-2.5 -2.5,-2.5l0.56511,0.60907c-1.85747,-2.27039 -3.65018,-4.83273 -5.93577,-6.70333c-4.37828,-3.58333 -9.86816,-5.82535 -15.06931,-7.94759c-6.31834,-2.57809 -12.81766,-4.05926 -17.78884,-8.93065c0,0 -1.76777,-1.76777 0,-3.53553c1.76777,-1.76777 3.53553,0 3.53553,0c4.26859,4.3828 10.56752,5.56467 16.10727,7.8226c5.72067,2.33168 11.63023,4.83583 16.44465,8.77389c2.52862,2.06834 4.52092,4.8425 6.57625,7.35442l0.56511,2.55712c0,0 0,2.5 -2.5,2.5z" fill="#ff8800" stroke="none" stroke-width="0.5"/><path d="M994.38273,558.91698c-0.411,2.46598 -2.87698,2.05499 -2.87698,2.05499l-1.87587,-0.42472c-7.68757,-3.84378 -14.35365,-9.50159 -21.23603,-14.48809c-0.36222,3.50257 -0.2399,7.09223 -0.68608,10.62474c-0.3117,2.46778 -0.71362,4.9882 -1.72808,7.25932c-1.01325,2.26842 -2.57081,4.32528 -3.21259,6.72539l-0.84948,1.59116c0,0 -1.28624,2.14373 -3.42997,0.85749c-2.14373,-1.28624 -0.85749,-3.42997 -0.85749,-3.42997l0.31935,-0.3569c1.35932,-4.75011 4.17856,-8.26195 4.79959,-13.28802c0.57679,-4.66804 0.37938,-9.18338 1.20862,-13.66777c-1.8206,-1.65881 -3.65075,-3.24764 -6.0553,-4.13264c0,0 -2.33336,-0.89745 -1.43592,-3.23081c0.89745,-2.33336 3.23081,-1.43592 3.23081,-1.43592c2.3707,0.9411 4.19018,2.32331 5.94746,3.82123c0.50107,-0.52594 1.33294,-0.98546 2.59079,-0.52204c2.34586,0.86426 1.48159,3.21012 1.48159,3.21012c-0.07458,0.19572 -0.14543,0.39202 -0.21276,0.58887c0.32861,0.2563 0.66566,0.50916 1.01362,0.75695c6.96751,4.9617 13.6094,10.77549 21.34794,14.64475l0.46179,-0.03511c0,0 2.46598,0.411 2.05499,2.87698z" fill="#ff8800" stroke="none" stroke-width="0.5"/><path d="M858.57678,525.92271c-1.11803,-2.23607 1.11803,-3.3541 1.11803,-3.3541l1.70551,-0.64618c2.00641,-0.14897 3.99287,-0.53462 5.95791,-0.96646c14.02955,-0.05141 28.76444,-1.57291 42.69747,0.20404c1.40732,0.17948 2.68577,0.98461 4.09244,1.16905c3.26105,0.42758 6.58918,0.03113 9.85957,0.38016c5.59175,0.59678 11.01419,1.87984 16.32716,3.60703c-0.42025,-0.45174 -0.90373,-0.86987 -1.21159,-1.39477c-0.07373,-0.12572 -0.14772,-0.25212 -0.22192,-0.37916c-2.42921,-0.39943 -2.05296,-2.84505 -2.05296,-2.84505c0.0298,-0.19361 0.05908,-0.38727 0.08785,-0.581c-1.48835,-2.64336 -2.97279,-5.39563 -4.25296,-7.95069c-1.55845,-3.11047 -2.93809,-6.28545 -4.68208,-9.31387c-0.42117,-0.73136 -2.9289,-4.24115 -3.2004,-4.83176c-1.11422,-2.42389 -1.09257,-4.52242 -2.68499,-6.62304c-1.52242,-2.00827 -3.56856,-3.70236 -4.59415,-6.00433c-0.83809,-1.88111 -1.12276,-3.97686 -1.95468,-5.8607l-1.00461,-2.80843c0,0 -0.84084,-2.35435 1.51351,-3.1952c2.35435,-0.84084 3.1952,1.51351 3.1952,1.51351l0.94344,2.64611c0.81481,1.87839 1.15286,3.93806 1.94142,5.82761c0.81067,1.94253 2.73977,3.20207 3.97728,4.90476c1.57736,2.17029 2.06077,4.95513 3.15917,7.40294c0.74273,1.65519 2.12563,2.94812 3.03337,4.51889c1.80692,3.12674 3.24232,6.40616 4.84747,9.62341c0.22959,0.46017 0.46541,0.92415 0.70631,1.39078c0.33081,-4.96672 0.31384,-9.95701 -0.07588,-14.94954c-0.25634,-3.2839 -1.18957,-6.48491 -1.55659,-9.75829c-0.50324,-4.48835 0.41763,-9.12503 0.00175,-13.61933c-0.2004,-2.16563 -0.5903,-4.32228 -0.59833,-6.49714v-1.94805c0,0 0,-2.5 2.5,-2.5c2.5,0 2.5,2.5 2.5,2.5v1.94805c-0.07553,17.60762 3.63555,34.93423 1.46732,52.55617c0.43625,0.76613 0.86922,1.52194 1.29366,2.2621c0.68179,1.18895 1.92322,2.06986 2.35451,3.3708c0.51354,1.54904 0.39861,4.09092 0.25457,6.18328c0.86057,-0.27402 1.76432,-0.48751 2.72894,-0.61927c0,0 2.48069,-0.31009 2.79078,2.17061c0.31009,2.48069 -2.17061,2.79078 -2.17061,2.79078c-5.30183,0.5809 -8.906,4.58259 -13.81936,6.47262c-10.97988,4.22364 -23.14732,7.31456 -33.42504,13.21862c-3.38475,1.94438 -5.10885,4.62133 -8.16809,6.78841c-0.8018,0.56797 -1.70823,0.96276 -2.60695,1.37174c-0.6013,1.3887 -2.29064,1.3887 -2.29064,1.3887l-2.31621,-4.60915c1.40784,-0.88928 3.07275,-1.34327 4.43161,-2.30573c3.11418,-2.20573 4.94697,-4.94316 8.45554,-6.96712c10.47234,-6.04108 22.88344,-9.29898 34.10717,-13.54533c2.71915,-1.02875 4.98531,-2.51591 7.31079,-3.84848c-0.16348,-0.53929 -0.13271,-1.00086 -0.13271,-1.00086c0.01694,-0.24847 0.05822,-0.76074 0.10219,-1.38508c-5.70092,-2.00033 -11.51738,-3.50196 -17.55584,-4.14537c-3.32071,-0.35383 -6.69845,0.02778 -10.01056,-0.39906c-1.40606,-0.1812 -2.68345,-0.98632 -4.08938,-1.16862c-1.57077,-0.20368 -3.16892,0.08225 -4.7517,0.02222c-12.24306,-0.46434 -24.46094,-0.15779 -36.70668,-0.20779c-2.01576,0.45318 -4.06039,0.81836 -6.12001,0.98159l0.14707,0.13304c0,0 -2.23607,1.11803 -3.3541,-1.11803z" fill="#ffd200" stroke="none" stroke-width="0.5"/><path d="M979.12814,478.10134c1.89814,1.62698 0.27116,3.52512 0.27116,3.52512l-1.04513,1.20709c-4.19117,5.76184 -7.41693,11.81714 -11.22581,17.81377c-5.22999,8.23401 -10.51191,16.27305 -15.30541,24.7986c0,0 -1.22565,2.17894 -3.40459,0.95329c-2.17894,-1.22565 -0.95329,-3.40459 -0.95329,-3.40459c4.83879,-8.5986 10.16978,-16.7175 15.44204,-25.02705c3.86159,-6.08621 7.14913,-12.22423 11.40337,-18.07487l1.29253,-1.52019c0,0 1.62698,-1.89814 3.52512,-0.27116z" fill="#ffd200" stroke="none" stroke-width="0.5"/><path d="M1005.75927,498.34522c-0.1543,0.05143 -0.3019,0.08948 -0.44303,0.11567c-0.74868,0.93059 -1.40899,1.94783 -2.26849,2.77421c-0.92528,0.88963 -2.22064,1.3236 -3.16627,2.19158c-0.78637,0.72181 -1.08028,1.93556 -1.97097,2.52384c-1.46773,0.96941 -3.30396,1.22587 -4.88218,2.00253c-5.48413,2.69881 -11.13829,6.84866 -15.99478,10.48952c-3.68319,2.76125 -6.56912,6.24764 -10.41838,8.83185c0,0 -2.08013,1.38675 -3.46688,-0.69338c-1.38675,-2.08013 0.69338,-3.46688 0.69338,-3.46688c3.78937,-2.5059 6.61061,-5.98434 10.23098,-8.70062c5.06694,-3.80162 10.99644,-8.16674 16.7325,-10.93905c1.30471,-0.63058 2.86448,-0.7133 4.07886,-1.50396c0.73837,-0.48074 0.88787,-1.55412 1.53553,-2.15148c0.91005,-0.83939 2.17214,-1.23909 3.0675,-2.09414c1.3347,-1.2746 2.25089,-2.95035 3.61443,-4.19405l4.23893,1.65208c0,0 0.79057,2.37171 -1.58114,3.16228z" fill="#ffd200" stroke="none" stroke-width="0.5"/><path d="M1024.38649,530.28234c-1.38675,2.08013 -3.46688,0.69338 -3.46688,0.69338l0.62892,-0.39336c-6.18639,1.01667 -12.05526,0.58875 -18.20237,-0.17423c-2.77389,-0.34429 -5.91196,0.01344 -8.70213,0.01344c-5.9668,0 -11.96328,-0.46085 -17.8214,0.73067c0,0 -2.45145,0.49029 -2.94174,-1.96116c-0.49029,-2.45145 1.96116,-2.94174 1.96116,-2.94174c6.21535,-1.22444 12.48124,-0.82777 18.80198,-0.82777c2.97354,0 6.26444,-0.33687 9.21994,0.01344c5.69848,0.67544 11.12074,1.18737 16.86257,0.21538l2.96658,1.16508c0,0 2.08013,1.38675 0.69338,3.46688z" fill="#ffd200" stroke="none" stroke-width="0.5"/><path d="M999.9353,566.25545c-2.48973,0.22634 -2.71607,-2.26339 -2.71607,-2.26339l-0.01276,-1.40766c-1.0922,-2.9015 -3.51605,-3.84624 -5.58387,-6.10107c-4.62119,-5.03914 -9.81134,-9.8392 -13.81809,-15.42036c0,0 -1.4531,-2.03433 0.58124,-3.48743c2.03433,-1.4531 3.48743,0.58124 3.48743,0.58124c3.86107,5.43657 8.99087,10.05678 13.45464,14.96926c2.50945,2.7617 4.93003,4.00105 6.49405,7.53529l0.37685,2.87806c0,0 0.22634,2.48973 -2.26339,2.71607z" fill="#ffd200" stroke="none" stroke-width="0.5"/><path d="M979.46203,566.45189c-2.49136,0.20761 -2.69898,-2.28375 -2.69898,-2.28375l-0.1654,-2.11081c-1.38623,-7.95406 -6.7418,-13.10896 -9.7808,-20.31708c0,0 -0.96154,-2.30769 1.34615,-3.26923c2.30769,-0.96154 3.26923,1.34615 3.26923,1.34615c1.47015,3.57954 4.09918,6.33973 5.93546,9.71696c2.0449,3.76093 3.39923,7.42505 4.15388,11.65427l0.22421,2.56451c0,0 0.20761,2.49136 -2.28375,2.69898z" fill="#ffd200" stroke="none" stroke-width="0.5"/><path d="M940.95326,560.84249c1.99801,-3.16306 4.56597,-5.90985 6.42301,-9.22769c3.46354,-6.18802 5.75008,-12.36453 10.82466,-17.47399c0,0 1.76777,-1.76777 3.53553,0c1.76777,1.76777 0,3.53553 0,3.53553c-4.73951,4.70196 -6.7858,10.66792 -10.01112,16.40535c-2.19079,3.89714 -5.49107,7.02273 -7.44266,10.99687l-4.85623,-1.29092c0,0 -0.55605,-2.2242 1.5268,-2.94516z" fill="#ffd200" stroke="none" stroke-width="0.5"/><path d="M936.89399,575.82172c0.3703,-1.48121 1.41905,-1.83166 2.17946,-1.88006c1.10714,-1.24808 2.32558,-2.40886 3.24759,-3.79547c2.59932,-3.90916 3.67074,-8.88763 5.85909,-13.01881c1.50633,-2.84366 3.39933,-5.51243 4.52938,-8.52548c1.68288,-4.48706 2.65466,-9.31364 4.8293,-13.61851c1.7676,-3.4991 4.24501,-5.72161 6.8138,-8.54869c0,0 1.68168,-1.84985 3.53153,-0.16817c1.84985,1.68168 0.16817,3.53153 0.16817,3.53153c-2.22302,2.44414 -4.55038,4.40198 -6.04334,7.42533c-2.05823,4.16807 -2.98268,8.82148 -4.62118,13.14307c-1.21576,3.2066 -3.18139,6.07626 -4.79089,9.10444c-2.2978,4.32318 -3.43566,9.38772 -6.14937,13.49877c-1.23825,1.87585 -3.00256,3.35339 -4.34896,5.15319l-3.38556,0.73055c0,0 -2.42536,-0.60634 -1.81902,-3.0317z" fill="#fcff00" stroke="none" stroke-width="0.5"/><path d="M1010.58558,542.92156c0,2.5 -2.5,2.5 -2.5,2.5l-1.34137,-0.06402c-2.01105,-0.46773 -4.11302,-0.48405 -6.11414,-0.9926c-4.89424,-1.2438 -10.19318,-4.27327 -14.26601,-7.20748c-1.44596,-1.04172 -3.18509,-2.32805 -4.50873,-3.65516c0.39663,1.12393 0.77041,2.25023 1.09159,3.38322c2.85905,10.08567 5.29618,20.03781 8.79373,29.94113c1.18088,3.34366 1.70056,6.76766 3.0682,10.0035l-1.09633,3.92889c0,0 -1.21411,2.18539 -3.3995,0.97129c-2.18539,-1.21411 -0.97129,-3.3995 -0.97129,-3.3995l0.85173,0.4224c-1.38163,-3.3556 -1.94343,-6.81561 -3.16556,-10.25624c-3.55191,-9.99954 -6.00632,-20.05927 -8.89163,-30.24849c-1.23109,-4.3475 -3.10829,-8.53184 -4.27407,-12.88292c-0.27941,-0.11134 -0.56854,-0.2053 -0.86832,-0.27962c-2.42895,-0.60213 -6.02796,0.07586 -8.54468,0.07586c0,0 -0.94547,0 -1.67354,-0.58144c-3.98472,2.75007 -7.53575,6.04704 -11.5501,8.73299c0,0 -2.08013,1.38675 -3.46688,-0.69338c-0.44434,-0.66651 -0.53274,-1.26183 -0.44769,-1.76315c-5.64475,1.31169 -10.89444,4.61226 -16.62129,6.32089c-3.13035,0.93395 -6.44185,1.26917 -9.4915,2.44008c-2.46314,0.94572 -4.65817,2.55518 -7.17924,3.33343c-9.63136,2.9732 -19.30562,4.79839 -28.67317,8.70658l0.02701,0.2393c0,0 -1.76777,1.76777 -3.53553,0c-1.76777,-1.76777 0,-3.53553 0,-3.53553l1.58545,-1.31915c9.47613,-3.94358 19.23329,-5.87259 28.98917,-8.82589c2.46435,-0.74601 4.59337,-2.35008 6.99886,-3.26832c3.17083,-1.21039 6.59982,-1.59937 9.8541,-2.56318c8.49766,-2.51673 15.32007,-7.57049 24.28657,-7.01709c1.44544,-1.14738 2.88006,-2.31158 4.35438,-3.42569c0.15288,-0.57578 0.45249,-0.97526 0.45249,-0.97526c0.05356,-0.0714 0.10714,-0.14275 0.16075,-0.21407c-1.23465,-0.41297 -2.46158,-0.83627 -3.67977,-1.26535c-5.26373,-1.854 -9.53894,-3.1083 -14.20102,-6.25372c0,0 -0.68097,-0.4643 -0.99433,-1.25071c-0.61618,3.35471 -1.14829,6.62095 -1.29259,10.15022c0.40286,0.58798 0.66146,1.46588 0.00343,2.57948c-0.09042,0.15303 -0.1853,0.28874 -0.28354,0.40884c-0.28488,0.6718 -0.90566,1.40375 -2.25839,1.40375c-1.64707,0 -2.20901,-1.08514 -2.40072,-1.82558c-5.00006,-2.9226 -10.30238,-5.80257 -15.7489,-7.6606c-6.02924,-2.05683 -12.84737,-3.83538 -18.47846,-6.87293c-1.50115,-0.80976 -2.69475,-2.10493 -4.15478,-2.9867c-8.05998,-4.86772 -16.29635,-9.39543 -24.05441,-14.78964c-3.41562,-2.37489 -6.20021,-5.13929 -9.8226,-7.21135c-1.09342,-0.88483 -2.18683,-1.76966 -3.28025,-2.65449l-1.4896,-0.67824c0,0 -2.23607,-1.11803 -1.11803,-3.3541c1.11803,-2.23607 3.3541,-1.11803 3.3541,-1.11803l2.4065,1.26981c0.98451,0.80348 1.96901,1.60696 2.95352,2.41045c3.62477,2.06916 6.4385,4.8629 9.84887,7.22947c7.67727,5.32751 15.81751,9.80012 23.78737,14.61647c1.39309,0.84187 2.52104,2.09191 3.95079,2.86991c5.3719,2.92314 11.96182,4.55942 17.72092,6.54042c4.90673,1.68781 9.68845,4.1199 14.26757,6.70817c0.55862,-6.07156 1.95516,-11.85902 2.79892,-18.01383c0.68633,-5.00643 1.75301,-9.88273 2.61984,-14.85568c0.54499,-3.12655 0.50803,-6.38096 1.46024,-9.40844c0.52183,-1.65912 1.54692,-3.11961 2.19485,-4.73367c2.16274,-5.38764 3.13246,-10.56651 6.55789,-15.304l4.55178,0.30546c0,0 1.95217,1.56174 0.39043,3.51391c-0.70598,0.88248 -1.49175,1.04689 -2.1409,0.96211c-1.40596,2.33969 -2.00158,4.43971 -3.07377,7.53659c-1.07845,3.11498 -2.69096,6.03308 -3.69603,9.17251c-0.90577,2.82929 -0.80862,5.88751 -1.31876,8.81413c-1.14578,6.57326 -2.1329,13.1783 -3.2902,19.74426c-0.17133,0.97207 -0.34799,1.92394 -0.52364,2.86293c1.40368,-1.85244 3.3696,-0.51205 3.3696,-0.51205c0.39062,0.26958 0.77865,0.52305 1.16504,0.76244c0.2473,-1.49197 1.88522,-1.90145 1.88522,-1.90145c9.2691,-2.25713 17.22358,-7.97857 24.90683,-13.40846c5.34786,-3.77943 10.92399,-7.2604 16.41532,-10.81992l3.17596,-0.72583c0,0 2.44451,-0.52382 2.96833,1.92068c0.52382,2.44451 -1.92068,2.96833 -1.92068,2.96833l-2.27859,0.443c-4.08193,2.83502 -8.29858,5.39319 -12.43681,8.14959c-3.80904,2.53713 -7.26546,5.87518 -11.11258,8.2734c-1.77075,1.10385 -6.99944,3.05959 -8.99481,4.10107c-2.49522,1.30237 -5.05685,2.55254 -7.73183,3.42906c2.20315,0.88406 4.4809,1.58832 7.00396,2.4769c1.72792,0.60855 3.47553,1.20812 5.23907,1.78271c3.58014,-4.57325 7.28496,-8.99207 11.18467,-13.3014l2.62907,-0.81832c0,0 2.5,0 2.5,2.5c0,1.90481 -1.45132,2.3583 -2.14237,2.46626c-2.51112,2.7786 -4.92976,5.61732 -7.28422,8.51836c0.54851,-0.2954 1.0821,-0.60928 1.59295,-0.95206c0.75444,-0.50623 1.18697,-1.39928 1.92381,-1.9308c2.75023,-1.98387 5.74693,-2.93958 9.01433,-3.55074l1.72296,-0.66675c0,0 2.34948,-0.85436 3.20384,1.49513c0.85436,2.34948 -1.49513,3.20384 -1.49513,3.20384l-2.56275,0.8917c-4.08613,0.66511 -5.6851,2.49608 -8.932,4.64834c-0.25113,0.16647 -0.50696,0.32635 -0.76668,0.48079c0.38732,0.08845 0.77502,0.17431 1.16309,0.25743c0.30805,-0.45448 0.83015,-0.84725 1.70862,-0.97274c1.90892,-0.2727 2.55579,1.13733 2.75182,1.79648c0.71149,0.10919 1.4237,0.20727 2.1364,0.29331c2.83126,0.34178 5.75125,0.2947 8.48243,1.11536c3.09375,0.9296 5.66397,2.8066 8.58269,4.11453l2.2184,2.81104c0,0 1.5,2 -0.5,3.5c-2,1.5 -3.5,-0.5 -3.5,-0.5l-1.2881,-1.86428c-2.47364,-0.92281 -4.44209,-2.52171 -7.00173,-3.28807c-1.58679,-0.47509 -3.24908,-0.58866 -4.91243,-0.69752c0.98077,1.17126 1.91454,2.37983 2.87995,3.50249c1.75264,2.03814 4.41348,3.72815 6.65168,5.1669c5.08467,3.26851 10.4431,4.40019 16.16784,5.71203l0.21707,-0.06402c0,0 2.5,0 2.5,2.5z" fill="#fcff00" stroke="none" stroke-width="0.5"/></g></g></svg>