<svg version="1.1" xmlns="http://www.w3.org/2000/svg" xmlns:xlink="http://www.w3.org/1999/xlink" width="111.56427" height="93.32254" viewBox="0,0,111.56427,93.32254"><defs><radialGradient cx="960" cy="540" r="1.35246" gradientUnits="userSpaceOnUse" id="color-1"><stop offset="0" stop-color="#ff0000"/><stop offset="1" stop-color="#d60000"/></radialGradient><radialGradient cx="960" cy="540" r="1.35246" gradientUnits="userSpaceOnUse" id="color-2"><stop offset="0" stop-color="#000000" stop-opacity="0"/><stop offset="1" stop-color="#000000" stop-opacity="0"/></radialGradient></defs><g transform="translate(-890.63981,-477.44242)"><g data-paper-data="{&quot;isPaintingLayer&quot;:true}" fill-rule="nonzero" stroke-linecap="butt" stroke-linejoin="miter" stroke-miterlimit="10" stroke-dasharray="" stroke-dashoffset="0" style="mix-blend-mode: normal"><path d="M958.64754,540c0,-0.74694 0.60552,-1.35246 1.35246,-1.35246c0.74694,0 1.35246,0.60552 1.35246,1.35246c0,0.74694 -0.60552,1.35246 -1.35246,1.35246c-0.74694,0 -1.35246,-0.60552 -1.35246,-1.35246z" fill="url(#color-1)" stroke="url(#color-2)" stroke-width="0"/><path d="M958.04581,532.73251c0.23469,-0.56032 0.56825,-1.05664 0.97879,-1.49927c-0.27831,-0.09876 -0.576,-0.20589 -0.84734,-0.31559c-0.12121,-0.04156 -0.23822,-0.09217 -0.35022,-0.15103c-0.79585,-0.41825 -1.33861,-1.25296 -1.33861,-2.21443c0,-1.38071 1.11929,-2.5 2.5,-2.5c0.45351,0 0.87881,0.12076 1.24551,0.33187c0.25653,0.03808 0.51468,0.10683 0.777,0.19938c0.7431,-1.67019 1.65778,-3.28316 2.84121,-4.56698c0.17789,-0.37495 0.35773,-0.73949 0.54016,-1.09115c2.26828,-4.37259 4.5284,-8.74942 6.80486,-13.11776c2.70189,-5.18471 5.93007,-9.91599 9.64372,-14.44388c1.37211,-1.67296 7.45082,-5.85316 7.45082,-0.46721c0,1.26558 -5.46909,6.1358 -6.02801,6.9301c-5.04131,7.16433 -8.82767,14.60499 -12.90774,22.39917c0.01273,0.04994 0.02433,0.10098 0.03476,0.15313c0.26137,1.30686 -0.75242,2.23552 -1.68808,3.14123c-0.33837,0.73019 -0.66039,1.46146 -0.97437,2.1926c1.28829,-0.3323 2.51822,-0.62773 3.53422,-0.95961c3.93856,-1.28654 6.51205,-2.51918 9.22832,-5.35355c1.43984,-1.50244 5.97357,-4.52463 7.4879,-1.87456c1.30017,2.2753 -1.12104,3.66943 -2.61896,4.58748c-4.79206,2.93695 -5.97577,5.20882 -12.37548,7.33386c0.73839,0.31692 1.4487,0.64007 2.13675,0.98088c2.10913,-0.3403 4.62872,-0.42599 6.03545,0.79543c1.04516,0.90748 1.42257,2.77263 0.56967,3.87319c0.69063,0.68843 1.37852,1.45206 2.07239,2.30806c1.28008,1.57919 8.4788,13.05303 0.67617,10.71224c-1.00373,-0.30112 -2.03227,-2.9522 -2.60463,-3.86064c-1.97354,-3.13237 -3.60545,-6.3704 -6.57295,-8.48538c-2.78858,0.6031 -5.65476,1.00385 -8.45578,1.7042c-0.28729,0.07183 -1.11423,0.35399 -2.15644,0.67308c0.011,0.09517 0.01665,0.19196 0.01665,0.29008c0,0.16186 -0.01538,0.32014 -0.04477,0.47343c0.42421,0.96694 0.71742,1.7919 0.78213,2.08705c0.51544,2.35122 -0.0422,4.77957 -0.34747,7.10559c-0.74006,5.63887 -1.85875,13.09428 -5.83388,17.52989c-1.03182,1.15135 -3.37473,3.46592 -5.17076,3.09092c-1.31651,-0.27487 -2.5,-0.41146 -2.5,-2.5c0,-1.82391 3.96207,-3.47037 4.91415,-5.29072c2.93974,-5.62068 4.94763,-14.31155 3.56971,-20.72263c-0.31947,0.29488 -0.73902,0.49512 -1.25151,0.55245c-0.44385,0.69601 -1.22272,1.15762 -2.1094,1.15762c-0.64486,0 -1.2327,-0.24416 -1.67611,-0.64507c-1.84034,-0.96446 -3.84876,-1.92456 -5.95258,-1.97788c-5.80818,-0.14721 -10.38006,0.74345 -15.94076,1.75653c-5.99532,1.09226 -11.97336,2.33418 -18.0237,3.06241c-5.07417,0.61074 -5.21382,0.46003 -9.88546,1.5102c-2.64511,0.59461 -8.16481,3.62115 -11.22631,3.01512c-2.62119,-0.51886 -3.10192,-2.71695 -1.25,-4.6875c0.90282,-0.96065 4.91839,-1.36848 5.83373,-1.6561c7.27232,-2.28512 14.7059,-2.92106 22.21268,-4.19521c3.81574,-0.64766 7.63331,-1.28512 11.444,-1.96183c2.16528,-0.38451 5.52935,-1.50311 7.85042,-1.67585c0.42833,-0.03188 0.85686,-0.0658 1.28563,-0.09475c-4.87247,-1.34286 -9.74471,-2.63351 -14.48132,-4.41092c-1.88435,-0.7071 -9.73941,-1.47964 -9.73941,-4.47359c0,-4.50343 7.45133,-1.56653 9.49145,-0.90565c6.64641,2.15306 13.32971,4.02414 20.01269,6.06928c-1.31137,-5.77074 -4.77978,-14.04904 -6.58851,-17.10287c-1.33799,-2.25904 -7.36632,-5.41265 -3.9607,-8.11711c2.08242,-1.65369 5.97953,2.14747 6.9857,3.66414c1.94681,2.93456 4.6331,8.33462 6.60529,13.47347c0.0164,-6.6921 0.24349,-13.33568 0.51159,-20.04896c0.06766,-1.69412 -0.37744,-9.08795 2.66832,-9.56794c4.77791,-0.75296 2.36614,7.19903 2.30696,9.76663c-0.04067,1.76472 0.25732,3.55643 -0.04596,5.29537c-0.32844,1.88321 -0.59558,3.79082 -0.60978,5.70241c-0.01795,2.418 -0.06654,4.83706 0,7.25421c0.04229,1.5363 -0.04488,3.10799 0.32787,4.59899v5.68763c1.28687,0.31236 2.52952,0.78113 3.56984,1.41949c0.2891,-0.5214 0.59523,-1.04486 0.88847,-1.57114zM963.78584,534.48649c-0.05316,0.13359 -0.1071,0.2665 -0.16185,0.39854c0.32474,-0.06895 0.65146,-0.14375 0.97894,-0.22794h-0.00002c0.51,-0.13111 1.02345,-0.25993 1.53871,-0.38704c-0.36293,-0.12791 -0.72535,-0.25717 -1.0867,-0.38936c-0.39054,0.17532 -0.80898,0.35754 -1.23352,0.53141c-0.01183,0.0248 -0.02369,0.0496 -0.03556,0.0744z" fill="#ff0000" stroke="none" stroke-width="0.5"/><path d="M979.12814,478.10134c1.89814,1.62698 0.27116,3.52512 0.27116,3.52512l-1.04513,1.20709c-4.19117,5.76184 -7.41693,11.81714 -11.22581,17.81377c-5.22999,8.23401 -10.51191,16.27305 -15.30541,24.7986c0,0 -1.22565,2.17894 -3.40459,0.95329c-2.17894,-1.22565 -0.95329,-3.40459 -0.95329,-3.40459c4.83879,-8.5986 10.16978,-16.7175 15.44204,-25.02705c3.86159,-6.08621 7.14913,-12.22423 11.40337,-18.07487l1.29253,-1.52019c0,0 1.62698,-1.89814 3.52512,-0.27116z" fill="#ffd200" stroke="none" stroke-width="0.5"/><path d="M999.9353,566.25545c-2.48973,0.22634 -2.71607,-2.26339 -2.71607,-2.26339l-0.01276,-1.40766c-1.0922,-2.9015 -3.51605,-3.84624 -5.58387,-6.10107c-4.62119,-5.03914 -9.81134,-9.8392 -13.81809,-15.42036c0,0 -1.4531,-2.03433 0.58124,-3.48743c2.03433,-1.4531 3.48743,0.58124 3.48743,0.58124c3.86107,5.43657 8.99087,10.05678 13.45464,14.96926c2.50945,2.7617 4.93003,4.00105 6.49405,7.53529l0.37685,2.87806c0,0 0.22634,2.48973 -2.26339,2.71607z" fill="#ffd200" stroke="none" stroke-width="0.5"/></g></g></svg>