<svg version="1.1" xmlns="http://www.w3.org/2000/svg" xmlns:xlink="http://www.w3.org/1999/xlink" width="8.46319" height="8.46319" viewBox="0,0,8.46319,8.46319"><g transform="translate(-955.76841,-535.76841)"><g data-paper-data="{&quot;isPaintingLayer&quot;:true}" fill-rule="nonzero" stroke-linecap="butt" stroke-linejoin="miter" stroke-miterlimit="10" stroke-dasharray="" stroke-dashoffset="0" style="mix-blend-mode: normal"><path d="M956.39341,540c0,-1.99186 1.61472,-3.60659 3.60659,-3.60659c1.99186,0 3.60659,1.61472 3.60659,3.60659c0,1.99186 -1.61472,3.60659 -3.60659,3.60659c-1.99186,0 -3.60659,-1.61472 -3.60659,-3.60659z" fill="none" stroke="#000000" stroke-width="1.25"/><path d="M956.39342,540.00001c0,-1.99186 1.61472,-3.60659 3.60659,-3.60659c1.99186,0 3.60659,1.61472 3.60659,3.60659c0,1.99186 -1.61472,3.60659 -3.60659,3.60659c-1.99186,0 -3.60659,-1.61472 -3.60659,-3.60659z" fill="none" stroke="#000000" stroke-width="1.25"/><path d="M956.62702,540c0,-1.86285 1.51013,-3.37298 3.37298,-3.37298c1.86285,0 3.37298,1.51013 3.37298,3.37298c0,1.86285 -1.51013,3.37298 -3.37298,3.37298c-1.86285,0 -3.37298,-1.51013 -3.37298,-3.37298z" fill-opacity="0.01176" fill="#000000" stroke="none" stroke-width="0"/></g></g></svg>