<svg version="1.1" xmlns="http://www.w3.org/2000/svg" xmlns:xlink="http://www.w3.org/1999/xlink" width="1500.79064" height="1003.7457" viewBox="0,0,1500.79064,1003.7457"><g transform="translate(354.01839,-35.4361)"><g data-paper-data="{&quot;isPaintingLayer&quot;:true}" fill-rule="nonzero" stroke-linejoin="miter" stroke-miterlimit="10" stroke-dasharray="" stroke-dashoffset="0" style="mix-blend-mode: normal"><path d="M-351.51839,102.09912c-2.5,0 -2.5,-2.5 -2.5,-2.5v-2.50208c0,0 0,-2.5 2.5,-2.5c2.5,0 2.5,2.5 2.5,2.5v2.50208c0,0 0,2.5 -2.5,2.5z" fill="#ad7500" stroke="none" stroke-width="0.5" stroke-linecap="butt"/><g><path d="M930.84855,57.3634c0,12.11011 -3.35851,21.92729 -7.50144,21.92729c-4.14293,0 -7.50144,-9.81718 -7.50144,-21.92729c0,-12.11011 3.35851,-21.92729 7.50144,-21.92729c4.14293,0 7.50144,9.81718 7.50144,21.92729z" fill="#ff0000" stroke="#ad7500" stroke-width="0" stroke-linecap="butt"/><path d="M933.44521,57.3634c0,12.11011 -3.35852,21.9273 -7.50144,21.9273c-4.14293,0 -7.50144,-9.81718 -7.50144,-21.9273c0,-12.11011 3.35851,-21.9273 7.50144,-21.9273c4.14293,0 7.50144,9.81718 7.50144,21.9273z" fill="#ffffff" stroke="#ad7500" stroke-width="0" stroke-linecap="butt"/><path d="M935.76657,57.3634c0,12.11011 -3.35851,21.92729 -7.50144,21.92729c-4.14293,0 -7.50144,-9.81718 -7.50144,-21.92729c0,-12.11011 3.35851,-21.92729 7.50144,-21.92729c4.14293,0 7.50144,9.81718 7.50144,21.92729z" fill="#ff0000" stroke="#ad7500" stroke-width="0" stroke-linecap="butt"/><path d="M938.36323,57.3634c0,12.11011 -3.35852,21.9273 -7.50144,21.9273c-4.14293,0 -7.50144,-9.81718 -7.50144,-21.9273c0,-12.11011 3.35851,-21.9273 7.50144,-21.9273c4.14293,0 7.50144,9.81718 7.50144,21.9273z" fill="#ffffff" stroke="#ad7500" stroke-width="0" stroke-linecap="butt"/><path d="M940.73548,57.3634c0,12.11011 -3.35851,21.92729 -7.50144,21.92729c-4.14293,0 -7.50144,-9.81718 -7.50144,-21.92729c0,-12.11011 3.35851,-21.92729 7.50144,-21.92729c4.14293,0 7.50144,9.81718 7.50144,21.92729z" fill="#ff0000" stroke="#ad7500" stroke-width="0" stroke-linecap="butt"/><path d="M943.33214,57.3634c0,12.11011 -3.35852,21.9273 -7.50144,21.9273c-4.14293,0 -7.50144,-9.81718 -7.50144,-21.9273c0,-12.11011 3.35851,-21.9273 7.50144,-21.9273c4.14293,0 7.50144,9.81718 7.50144,21.9273z" fill="#ffffff" stroke="#ad7500" stroke-width="0" stroke-linecap="butt"/><path d="M945.8494,57.3634c0,12.11011 -3.35851,21.92729 -7.50144,21.92729c-4.14293,0 -7.50144,-9.81718 -7.50144,-21.92729c0,-12.11011 3.35851,-21.92729 7.50144,-21.92729c4.14293,0 7.50144,9.81718 7.50144,21.92729z" fill="#ff0000" stroke="#ad7500" stroke-width="0" stroke-linecap="butt"/><path d="M948.44606,57.3634c0,12.11011 -3.35852,21.9273 -7.50144,21.9273c-4.14293,0 -7.50144,-9.81718 -7.50144,-21.9273c0,-12.11011 3.35851,-21.9273 7.50144,-21.9273c4.14293,0 7.50144,9.81718 7.50144,21.9273z" fill="#ffffff" stroke="#ad7500" stroke-width="0" stroke-linecap="butt"/><path d="M951.1338,57.3634c0,12.11011 -3.35851,21.92729 -7.50144,21.92729c-4.14293,0 -7.50144,-9.81718 -7.50144,-21.92729c0,-12.11011 3.35851,-21.92729 7.50144,-21.92729c4.14293,0 7.50144,9.81718 7.50144,21.92729z" fill="#ff0000" stroke="#ad7500" stroke-width="0" stroke-linecap="butt"/><path d="M953.73046,57.3634c0,12.11011 -3.35852,21.9273 -7.50144,21.9273c-4.14293,0 -7.50144,-9.81718 -7.50144,-21.9273c0,-12.11011 3.35851,-21.9273 7.50144,-21.9273c4.14293,0 7.50144,9.81718 7.50144,21.9273z" fill="#ffffff" stroke="#ad7500" stroke-width="0" stroke-linecap="butt"/><path d="M956.41819,57.3634c0,12.11011 -3.35851,21.92729 -7.50144,21.92729c-4.14293,0 -7.50144,-9.81718 -7.50144,-21.92729c0,-12.11011 3.35851,-21.92729 7.50144,-21.92729c4.14293,0 7.50144,9.81718 7.50144,21.92729z" fill="#ff0000" stroke="#ad7500" stroke-width="0" stroke-linecap="butt"/><path d="M959.01485,57.3634c0,12.11011 -3.35852,21.9273 -7.50144,21.9273c-4.14293,0 -7.50144,-9.81718 -7.50144,-21.9273c0,-12.11011 3.35851,-21.9273 7.50144,-21.9273c4.14293,0 7.50144,9.81718 7.50144,21.9273z" fill="#ffffff" stroke="#ad7500" stroke-width="0" stroke-linecap="butt"/><path d="M979.74504,35.43611c4.14293,0 7.50144,9.81718 7.50144,21.92729c0,12.11011 -3.35851,21.92729 -7.50144,21.92729c-4.14293,0 -7.50144,-9.81718 -7.50144,-21.92729c0,-12.11011 3.35851,-21.92729 7.50144,-21.92729z" data-paper-data="{&quot;index&quot;:null}" fill="#ff0000" stroke="#ad7500" stroke-width="0" stroke-linecap="butt"/><path d="M977.14838,35.4361c4.14293,0 7.50144,9.81719 7.50144,21.9273c0,12.11012 -3.35851,21.9273 -7.50144,21.9273c-4.14292,0 -7.50144,-9.81719 -7.50144,-21.9273c0,-12.11012 3.35851,-21.9273 7.50144,-21.9273z" data-paper-data="{&quot;index&quot;:null}" fill="#ffffff" stroke="#ad7500" stroke-width="0" stroke-linecap="butt"/><path d="M974.82702,35.43611c4.14293,0 7.50144,9.81718 7.50144,21.92729c0,12.11011 -3.35851,21.92729 -7.50144,21.92729c-4.14293,0 -7.50144,-9.81718 -7.50144,-21.92729c0,-12.11011 3.35851,-21.92729 7.50144,-21.92729z" data-paper-data="{&quot;index&quot;:null}" fill="#ff0000" stroke="#ad7500" stroke-width="0" stroke-linecap="butt"/><path d="M972.23036,35.4361c4.14293,0 7.50144,9.81719 7.50144,21.9273c0,12.11012 -3.35851,21.9273 -7.50144,21.9273c-4.14292,0 -7.50144,-9.81719 -7.50144,-21.9273c0,-12.11012 3.35851,-21.9273 7.50144,-21.9273z" data-paper-data="{&quot;index&quot;:null}" fill="#ffffff" stroke="#ad7500" stroke-width="0" stroke-linecap="butt"/><path d="M969.85811,35.43611c4.14293,0 7.50144,9.81718 7.50144,21.92729c0,12.11011 -3.35851,21.92729 -7.50144,21.92729c-4.14293,0 -7.50144,-9.81718 -7.50144,-21.92729c0,-12.11011 3.35851,-21.92729 7.50144,-21.92729z" data-paper-data="{&quot;index&quot;:null}" fill="#ff0000" stroke="#ad7500" stroke-width="0" stroke-linecap="butt"/><path d="M967.26145,35.4361c4.14293,0 7.50144,9.81719 7.50144,21.9273c0,12.11012 -3.35851,21.9273 -7.50144,21.9273c-4.14292,0 -7.50144,-9.81719 -7.50144,-21.9273c0,-12.11012 3.35851,-21.9273 7.50144,-21.9273z" data-paper-data="{&quot;index&quot;:null}" fill="#ffffff" stroke="#ad7500" stroke-width="0" stroke-linecap="butt"/><path d="M964.74419,35.43611c4.14293,0 7.50144,9.81718 7.50144,21.92729c0,12.11011 -3.35851,21.92729 -7.50144,21.92729c-4.14293,0 -7.50144,-9.81718 -7.50144,-21.92729c0,-12.11011 3.35851,-21.92729 7.50144,-21.92729z" data-paper-data="{&quot;index&quot;:null}" fill="#ff0000" stroke="#ad7500" stroke-width="0" stroke-linecap="butt"/><path d="M962.14753,35.4361c4.14293,0 7.50144,9.81719 7.50144,21.9273c0,12.11012 -3.35851,21.9273 -7.50144,21.9273c-4.14292,0 -7.50144,-9.81719 -7.50144,-21.9273c0,-12.11012 3.35851,-21.9273 7.50144,-21.9273z" data-paper-data="{&quot;index&quot;:null}" fill="#ffffff" stroke="#ad7500" stroke-width="0" stroke-linecap="butt"/><path d="M959.45979,35.43611c4.14293,0 7.50144,9.81718 7.50144,21.92729c0,12.11011 -3.35851,21.92729 -7.50144,21.92729c-4.14293,0 -7.50144,-9.81718 -7.50144,-21.92729c0,-12.11011 3.35851,-21.92729 7.50144,-21.92729z" data-paper-data="{&quot;index&quot;:null}" fill="#ff0000" stroke="#ad7500" stroke-width="0" stroke-linecap="butt"/><path d="M956.86313,35.4361c4.14293,0 7.50144,9.81719 7.50144,21.9273c0,12.11012 -3.35851,21.9273 -7.50144,21.9273c-4.14292,0 -7.50144,-9.81719 -7.50144,-21.9273c0,-12.11012 3.35851,-21.9273 7.50144,-21.9273z" data-paper-data="{&quot;index&quot;:null}" fill="#ffffff" stroke="#ad7500" stroke-width="0" stroke-linecap="butt"/><path d="M954.1754,35.43611c4.14293,0 7.50144,9.81718 7.50144,21.92729c0,12.11011 -3.35851,21.92729 -7.50144,21.92729c-4.14293,0 -7.50144,-9.81718 -7.50144,-21.92729c0,-12.11011 3.35851,-21.92729 7.50144,-21.92729z" data-paper-data="{&quot;index&quot;:null}" fill="#ff0000" stroke="#ad7500" stroke-width="0" stroke-linecap="butt"/><path d="M951.57875,35.43611c4.14293,0 7.50144,9.81718 7.50144,21.9273c0,12.11011 -3.35851,21.9273 -7.50144,21.9273c-4.14293,0 -7.50145,-9.81718 -7.50145,-21.9273c0,-12.11011 3.35852,-21.9273 7.50145,-21.9273z" data-paper-data="{&quot;index&quot;:null}" fill="#ffffff" stroke="#ad7500" stroke-width="0" stroke-linecap="butt"/><path d="M948.91675,79.29069c-4.14293,0 -7.50144,-9.81718 -7.50144,-21.92729c0,-12.11011 3.35851,-21.92729 7.50144,-21.92729c0.45422,0 0.89902,0.11801 1.33099,0.34411c-3.50801,1.83614 -6.17044,10.80081 -6.17044,21.58318c0,10.78237 2.66244,19.74703 6.17044,21.58318c-0.43197,0.2261 -0.87677,0.34411 -1.33099,0.34411z" fill="#ff0000" stroke="#ad7500" stroke-width="0" stroke-linecap="butt"/><path d="M953.42696,78.11246c0,0 -1.60823,0.10529 -3.50463,-5.19273c-1.69796,-4.74365 -2.50562,-13.7749 -2.51371,-17.26101c-0.00909,-3.921 0.93082,-8.14758 2.64544,-13.90507c1.064,-3.5728 3.40135,-5.25732 3.40135,-5.25732" fill="none" stroke="#ff0000" stroke-width="2" stroke-linecap="round"/><path d="M949.51754,36.49633c0,0 2.33735,1.68453 3.40135,5.25732c1.71462,5.7575 2.65453,9.98406 2.64543,13.90506c-0.00809,3.48611 -0.81575,12.51736 -2.51371,17.26101c-1.89639,5.29802 -3.99645,5.50012 -3.99645,5.50012" data-paper-data="{&quot;index&quot;:null}" fill="none" stroke="#ff0000" stroke-width="2" stroke-linecap="round"/><path d="M951.53844,38.60607l-0.13393,38.63926" fill="none" stroke="#ff0000" stroke-width="2" stroke-linecap="round"/></g><g><path d="M811.45268,971.80227c-2.20914,0 -4,-1.79086 -4,-4v-309.56617c0,-2.20914 1.79086,-4 4,-4h309.56617c2.20914,0 4,1.79086 4,4v309.56617c0,2.20914 -1.79086,4 -4,4z" fill="#ffffff" stroke="none" stroke-width="0" stroke-linecap="butt"/><path d="M775.02555,650.27799l185.87335,-321.94208l185.87335,321.94208z" fill="#ff0000" stroke="none" stroke-width="0" stroke-linecap="butt"/><path d="M835.8338,771.76163c-2.20914,0 -4,-1.79086 -4,-4v-82.01875c0,-2.20914 1.79086,-4 4,-4h82.01875c2.20914,0 4,1.79086 4,4v82.01875c0,2.20914 -1.79086,4 -4,4z" fill-opacity="0.33725" fill="#00e5ff" stroke="#ad7500" stroke-width="5" stroke-linecap="butt"/><path d="M1006.80692,771.76163c-2.20914,0 -4,-1.79086 -4,-4v-82.01875c0,-2.20914 1.79086,-4 4,-4h82.01875c2.20914,0 4,1.79086 4,4v82.01875c0,2.20914 -1.79086,4 -4,4z" fill-opacity="0.33725" fill="#00e5ff" stroke="#ad7500" stroke-width="5" stroke-linecap="butt"/><path d="M835.8338,941.17193c-2.20914,0 -4,-1.79086 -4,-4v-82.01875c0,-2.20914 1.79086,-4 4,-4h82.01875c2.20914,0 4,1.79086 4,4v82.01875c0,2.20914 -1.79086,4 -4,4z" fill-opacity="0.33725" fill="#00e5ff" stroke="#ad7500" stroke-width="5" stroke-linecap="butt"/><path d="M921.48401,583.57625c-2.20914,0 -4,-1.79086 -4,-4v-82.01875c0,-2.20914 1.79086,-4 4,-4h82.01875c2.20914,0 4,1.79086 4,4v82.01875c0,2.20914 -1.79086,4 -4,4z" fill-opacity="0.94902" fill="#00e5ff" stroke="#ad7500" stroke-width="5" stroke-linecap="butt"/><g><path d="M930.95126,493.03041c0,12.11011 -5.14343,21.92729 -11.48816,21.92729c-6.34474,0 -11.48816,-9.81718 -11.48816,-21.92729c0,-12.11011 5.14343,-21.92729 11.48816,-21.92729c6.34474,0 11.48816,9.81718 11.48816,21.92729z" fill="#ff0000" stroke="#ad7500" stroke-width="0" stroke-linecap="butt"/><path d="M934.92794,493.03041c0,12.11011 -5.14344,21.9273 -11.48816,21.9273c-6.34474,0 -11.48816,-9.81718 -11.48816,-21.9273c0,-12.11011 5.14343,-21.9273 11.48816,-21.9273c6.34474,0 11.48816,9.81718 11.48816,21.9273z" fill="#ffffff" stroke="#ad7500" stroke-width="0" stroke-linecap="butt"/><path d="M938.48301,493.03041c0,12.11011 -5.14343,21.92729 -11.48816,21.92729c-6.34474,0 -11.48816,-9.81718 -11.48816,-21.92729c0,-12.11011 5.14343,-21.92729 11.48816,-21.92729c6.34474,0 11.48816,9.81718 11.48816,21.92729z" fill="#ff0000" stroke="#ad7500" stroke-width="0" stroke-linecap="butt"/><path d="M942.4597,493.03041c0,12.11011 -5.14344,21.9273 -11.48816,21.9273c-6.34474,0 -11.48816,-9.81718 -11.48816,-21.9273c0,-12.11011 5.14343,-21.9273 11.48816,-21.9273c6.34474,0 11.48816,9.81718 11.48816,21.9273z" fill="#ffffff" stroke="#ad7500" stroke-width="0" stroke-linecap="butt"/><path d="M946.09271,493.03041c0,12.11011 -5.14343,21.92729 -11.48816,21.92729c-6.34474,0 -11.48816,-9.81718 -11.48816,-21.92729c0,-12.11011 5.14343,-21.92729 11.48816,-21.92729c6.34474,0 11.48816,9.81718 11.48816,21.92729z" fill="#ff0000" stroke="#ad7500" stroke-width="0" stroke-linecap="butt"/><path d="M950.06939,493.03041c0,12.11011 -5.14344,21.9273 -11.48816,21.9273c-6.34474,0 -11.48816,-9.81718 -11.48816,-21.9273c0,-12.11011 5.14343,-21.9273 11.48816,-21.9273c6.34474,0 11.48816,9.81718 11.48816,21.9273z" fill="#ffffff" stroke="#ad7500" stroke-width="0" stroke-linecap="butt"/><path d="M953.92448,493.03041c0,12.11011 -5.14343,21.92729 -11.48816,21.92729c-6.34474,0 -11.48816,-9.81718 -11.48816,-21.92729c0,-12.11011 5.14343,-21.92729 11.48816,-21.92729c6.34474,0 11.48816,9.81718 11.48816,21.92729z" fill="#ff0000" stroke="#ad7500" stroke-width="0" stroke-linecap="butt"/><path d="M957.90116,493.03041c0,12.11011 -5.14344,21.9273 -11.48816,21.9273c-6.34474,0 -11.48816,-9.81718 -11.48816,-21.9273c0,-12.11011 5.14343,-21.9273 11.48816,-21.9273c6.34474,0 11.48816,9.81718 11.48816,21.9273z" fill="#ffffff" stroke="#ad7500" stroke-width="0" stroke-linecap="butt"/><path d="M962.01733,493.03041c0,12.11011 -5.14343,21.92729 -11.48816,21.92729c-6.34474,0 -11.48816,-9.81718 -11.48816,-21.92729c0,-12.11011 5.14343,-21.92729 11.48816,-21.92729c6.34474,0 11.48816,9.81718 11.48816,21.92729z" fill="#ff0000" stroke="#ad7500" stroke-width="0" stroke-linecap="butt"/><path d="M965.99401,493.03041c0,12.11011 -5.14344,21.9273 -11.48816,21.9273c-6.34474,0 -11.48816,-9.81718 -11.48816,-21.9273c0,-12.11011 5.14343,-21.9273 11.48816,-21.9273c6.34474,0 11.48816,9.81718 11.48816,21.9273z" fill="#ffffff" stroke="#ad7500" stroke-width="0" stroke-linecap="butt"/><path d="M970.11017,493.03041c0,12.11011 -5.14343,21.92729 -11.48816,21.92729c-6.34474,0 -11.48816,-9.81718 -11.48816,-21.92729c0,-12.11011 5.14343,-21.92729 11.48816,-21.92729c6.34474,0 11.48816,9.81718 11.48816,21.92729z" fill="#ff0000" stroke="#ad7500" stroke-width="0" stroke-linecap="butt"/><path d="M974.08685,493.03041c0,12.11011 -5.14344,21.9273 -11.48816,21.9273c-6.34474,0 -11.48816,-9.81718 -11.48816,-21.9273c0,-12.11011 5.14343,-21.9273 11.48816,-21.9273c6.34474,0 11.48816,9.81718 11.48816,21.9273z" fill="#ffffff" stroke="#ad7500" stroke-width="0" stroke-linecap="butt"/><path d="M1005.83433,471.10312c6.34474,0 11.48816,9.81718 11.48816,21.92729c0,12.11011 -5.14343,21.92729 -11.48816,21.92729c-6.34474,0 -11.48816,-9.81718 -11.48816,-21.92729c0,-12.11011 5.14343,-21.92729 11.48816,-21.92729z" data-paper-data="{&quot;index&quot;:null}" fill="#ff0000" stroke="#ad7500" stroke-width="0" stroke-linecap="butt"/><path d="M1001.85765,471.10311c6.34474,0 11.48816,9.81719 11.48816,21.9273c0,12.11012 -5.14343,21.9273 -11.48816,21.9273c-6.34472,0 -11.48816,-9.81719 -11.48816,-21.9273c0,-12.11012 5.14343,-21.9273 11.48816,-21.9273z" data-paper-data="{&quot;index&quot;:null}" fill="#ffffff" stroke="#ad7500" stroke-width="0" stroke-linecap="butt"/><path d="M998.30258,471.10312c6.34474,0 11.48816,9.81718 11.48816,21.92729c0,12.11011 -5.14343,21.92729 -11.48816,21.92729c-6.34474,0 -11.48816,-9.81718 -11.48816,-21.92729c0,-12.11011 5.14343,-21.92729 11.48816,-21.92729z" data-paper-data="{&quot;index&quot;:null}" fill="#ff0000" stroke="#ad7500" stroke-width="0" stroke-linecap="butt"/><path d="M994.32589,471.10311c6.34474,0 11.48816,9.81719 11.48816,21.9273c0,12.11012 -5.14343,21.9273 -11.48816,21.9273c-6.34472,0 -11.48816,-9.81719 -11.48816,-21.9273c0,-12.11012 5.14343,-21.9273 11.48816,-21.9273z" data-paper-data="{&quot;index&quot;:null}" fill="#ffffff" stroke="#ad7500" stroke-width="0" stroke-linecap="butt"/><path d="M990.69288,471.10312c6.34474,0 11.48816,9.81718 11.48816,21.92729c0,12.11011 -5.14343,21.92729 -11.48816,21.92729c-6.34474,0 -11.48816,-9.81718 -11.48816,-21.92729c0,-12.11011 5.14343,-21.92729 11.48816,-21.92729z" data-paper-data="{&quot;index&quot;:null}" fill="#ff0000" stroke="#ad7500" stroke-width="0" stroke-linecap="butt"/><path d="M986.7162,471.10311c6.34474,0 11.48816,9.81719 11.48816,21.9273c0,12.11012 -5.14343,21.9273 -11.48816,21.9273c-6.34472,0 -11.48816,-9.81719 -11.48816,-21.9273c0,-12.11012 5.14343,-21.9273 11.48816,-21.9273z" data-paper-data="{&quot;index&quot;:null}" fill="#ffffff" stroke="#ad7500" stroke-width="0" stroke-linecap="butt"/><path d="M982.86111,471.10312c6.34474,0 11.48816,9.81718 11.48816,21.92729c0,12.11011 -5.14343,21.92729 -11.48816,21.92729c-6.34474,0 -11.48816,-9.81718 -11.48816,-21.92729c0,-12.11011 5.14343,-21.92729 11.48816,-21.92729z" data-paper-data="{&quot;index&quot;:null}" fill="#ff0000" stroke="#ad7500" stroke-width="0" stroke-linecap="butt"/><path d="M978.88443,471.10311c6.34474,0 11.48816,9.81719 11.48816,21.9273c0,12.11012 -5.14343,21.9273 -11.48816,21.9273c-6.34472,0 -11.48816,-9.81719 -11.48816,-21.9273c0,-12.11012 5.14343,-21.9273 11.48816,-21.9273z" data-paper-data="{&quot;index&quot;:null}" fill="#ffffff" stroke="#ad7500" stroke-width="0" stroke-linecap="butt"/><path d="M974.76826,471.10312c6.34474,0 11.48816,9.81718 11.48816,21.92729c0,12.11011 -5.14343,21.92729 -11.48816,21.92729c-6.34474,0 -11.48816,-9.81718 -11.48816,-21.92729c0,-12.11011 5.14343,-21.92729 11.48816,-21.92729z" data-paper-data="{&quot;index&quot;:null}" fill="#ff0000" stroke="#ad7500" stroke-width="0" stroke-linecap="butt"/><path d="M970.79158,471.10311c6.34474,0 11.48816,9.81719 11.48816,21.9273c0,12.11012 -5.14343,21.9273 -11.48816,21.9273c-6.34472,0 -11.48816,-9.81719 -11.48816,-21.9273c0,-12.11012 5.14343,-21.9273 11.48816,-21.9273z" data-paper-data="{&quot;index&quot;:null}" fill="#ffffff" stroke="#ad7500" stroke-width="0" stroke-linecap="butt"/><path d="M966.67542,471.10312c6.34474,0 11.48816,9.81718 11.48816,21.92729c0,12.11011 -5.14343,21.92729 -11.48816,21.92729c-6.34474,0 -11.48816,-9.81718 -11.48816,-21.92729c0,-12.11011 5.14343,-21.92729 11.48816,-21.92729z" data-paper-data="{&quot;index&quot;:null}" fill="#ff0000" stroke="#ad7500" stroke-width="0" stroke-linecap="butt"/><path d="M962.69875,471.10312c6.34474,0 11.48816,9.81718 11.48816,21.9273c0,12.11011 -5.14343,21.9273 -11.48816,21.9273c-6.34474,0 -11.48818,-9.81718 -11.48818,-21.9273c0,-12.11011 5.14344,-21.9273 11.48818,-21.9273z" data-paper-data="{&quot;index&quot;:null}" fill="#ffffff" stroke="#ad7500" stroke-width="0" stroke-linecap="butt"/><path d="M958.622,514.9577c-6.34474,0 -11.48816,-9.81718 -11.48816,-21.92729c0,-12.11011 5.14343,-21.92729 11.48816,-21.92729c0.69562,0 1.37681,0.11801 2.03836,0.34411c-5.37238,1.83614 -9.44979,10.80081 -9.44979,21.58318c0,10.78237 4.07742,19.74703 9.44979,21.58318c-0.66155,0.2261 -1.34274,0.34411 -2.03836,0.34411z" fill="#ff0000" stroke="#ad7500" stroke-width="0" stroke-linecap="butt"/><path d="M965.52922,513.77947c0,0 -2.46295,0.10529 -5.36721,-5.19273c-2.60036,-4.74365 -3.83726,-13.7749 -3.84965,-17.26101c-0.01392,-3.921 1.42551,-8.14758 4.05139,-13.90507c1.62947,-3.5728 5.20904,-5.25732 5.20904,-5.25732" fill="none" stroke="#ff0000" stroke-width="2" stroke-linecap="round"/><path d="M959.54209,472.16334c0,0 3.57956,1.68453 5.20904,5.25732c2.62587,5.7575 4.06531,9.98406 4.05137,13.90506c-0.01239,3.48611 -1.24929,12.51736 -3.84965,17.26101c-2.90425,5.29802 -6.1204,5.50012 -6.1204,5.50012" data-paper-data="{&quot;index&quot;:null}" fill="none" stroke="#ff0000" stroke-width="2" stroke-linecap="round"/><path d="M962.4319,512.91234l0.20512,-38.63926" fill="none" stroke="#ff0000" stroke-width="2" stroke-linecap="round"/></g><g><path d="M845.1766,681.7424c0,12.11011 -5.14343,21.92729 -11.48816,21.92729c-6.34474,0 -11.48816,-9.81718 -11.48816,-21.92729c0,-12.11011 5.14342,-21.92729 11.48816,-21.92729c6.34474,0 11.48816,9.81718 11.48816,21.92729z" fill="#ff0000" stroke="#ad7500" stroke-width="0" stroke-linecap="butt"/><path d="M849.15328,681.7424c0,12.11011 -5.14345,21.9273 -11.48817,21.9273c-6.34474,0 -11.48816,-9.81718 -11.48816,-21.9273c0,-12.11011 5.14343,-21.9273 11.48816,-21.9273c6.34474,0 11.48817,9.81718 11.48817,21.9273z" fill="#ffffff" stroke="#ad7500" stroke-width="0" stroke-linecap="butt"/><path d="M852.70836,681.7424c0,12.11011 -5.14343,21.92729 -11.48816,21.92729c-6.34474,0 -11.48817,-9.81718 -11.48817,-21.92729c0,-12.11011 5.14343,-21.92729 11.48817,-21.92729c6.34474,0 11.48816,9.81718 11.48816,21.92729z" fill="#ff0000" stroke="#ad7500" stroke-width="0" stroke-linecap="butt"/><path d="M856.68504,681.7424c0,12.11011 -5.14344,21.9273 -11.48816,21.9273c-6.34474,0 -11.48816,-9.81718 -11.48816,-21.9273c0,-12.11011 5.14343,-21.9273 11.48816,-21.9273c6.34474,0 11.48816,9.81718 11.48816,21.9273z" fill="#ffffff" stroke="#ad7500" stroke-width="0" stroke-linecap="butt"/><path d="M860.31805,681.7424c0,12.11011 -5.14343,21.92729 -11.48816,21.92729c-6.34474,0 -11.48817,-9.81718 -11.48817,-21.92729c0,-12.11011 5.14343,-21.92729 11.48817,-21.92729c6.34474,0 11.48816,9.81718 11.48816,21.92729z" fill="#ff0000" stroke="#ad7500" stroke-width="0" stroke-linecap="butt"/><path d="M864.29473,681.7424c0,12.11011 -5.14344,21.9273 -11.48816,21.9273c-6.34474,0 -11.48816,-9.81718 -11.48816,-21.9273c0,-12.11011 5.14343,-21.9273 11.48816,-21.9273c6.34474,0 11.48816,9.81718 11.48816,21.9273z" fill="#ffffff" stroke="#ad7500" stroke-width="0" stroke-linecap="butt"/><path d="M868.14982,681.7424c0,12.11011 -5.14343,21.92729 -11.48816,21.92729c-6.34474,0 -11.48817,-9.81718 -11.48817,-21.92729c0,-12.11011 5.14343,-21.92729 11.48817,-21.92729c6.34474,0 11.48816,9.81718 11.48816,21.92729z" fill="#ff0000" stroke="#ad7500" stroke-width="0" stroke-linecap="butt"/><path d="M872.1265,681.7424c0,12.11011 -5.14344,21.9273 -11.48816,21.9273c-6.34474,0 -11.48816,-9.81718 -11.48816,-21.9273c0,-12.11011 5.14343,-21.9273 11.48816,-21.9273c6.34474,0 11.48816,9.81718 11.48816,21.9273z" fill="#ffffff" stroke="#ad7500" stroke-width="0" stroke-linecap="butt"/><path d="M876.24267,681.7424c0,12.11011 -5.14343,21.92729 -11.48816,21.92729c-6.34474,0 -11.48817,-9.81718 -11.48817,-21.92729c0,-12.11011 5.14343,-21.92729 11.48817,-21.92729c6.34474,0 11.48816,9.81718 11.48816,21.92729z" fill="#ff0000" stroke="#ad7500" stroke-width="0" stroke-linecap="butt"/><path d="M880.21936,681.7424c0,12.11011 -5.14344,21.9273 -11.48816,21.9273c-6.34474,0 -11.48816,-9.81718 -11.48816,-21.9273c0,-12.11011 5.14343,-21.9273 11.48816,-21.9273c6.34474,0 11.48816,9.81718 11.48816,21.9273z" fill="#ffffff" stroke="#ad7500" stroke-width="0" stroke-linecap="butt"/><path d="M884.33551,681.7424c0,12.11011 -5.14343,21.92729 -11.48816,21.92729c-6.34474,0 -11.48816,-9.81718 -11.48816,-21.92729c0,-12.11011 5.14343,-21.92729 11.48816,-21.92729c6.34474,0 11.48816,9.81718 11.48816,21.92729z" fill="#ff0000" stroke="#ad7500" stroke-width="0" stroke-linecap="butt"/><path d="M888.31219,681.7424c0,12.11011 -5.14344,21.9273 -11.48816,21.9273c-6.34474,0 -11.48816,-9.81718 -11.48816,-21.9273c0,-12.11011 5.14343,-21.9273 11.48816,-21.9273c6.34474,0 11.48816,9.81718 11.48816,21.9273z" fill="#ffffff" stroke="#ad7500" stroke-width="0" stroke-linecap="butt"/><path d="M920.05967,659.81511c6.34474,0 11.48816,9.81718 11.48816,21.92729c0,12.11011 -5.14343,21.92729 -11.48816,21.92729c-6.34474,0 -11.48816,-9.81718 -11.48816,-21.92729c0,-12.11011 5.14342,-21.92729 11.48816,-21.92729z" data-paper-data="{&quot;index&quot;:null}" fill="#ff0000" stroke="#ad7500" stroke-width="0" stroke-linecap="butt"/><path d="M916.08299,659.8151c6.34474,0 11.48816,9.81719 11.48816,21.9273c0,12.11012 -5.14342,21.9273 -11.48816,21.9273c-6.34472,0 -11.48817,-9.81719 -11.48817,-21.9273c0,-12.11012 5.14343,-21.9273 11.48817,-21.9273z" data-paper-data="{&quot;index&quot;:null}" fill="#ffffff" stroke="#ad7500" stroke-width="0" stroke-linecap="butt"/><path d="M912.52792,659.81511c6.34474,0 11.48816,9.81718 11.48816,21.92729c0,12.11011 -5.14343,21.92729 -11.48816,21.92729c-6.34474,0 -11.48817,-9.81718 -11.48817,-21.92729c0,-12.11011 5.14343,-21.92729 11.48817,-21.92729z" data-paper-data="{&quot;index&quot;:null}" fill="#ff0000" stroke="#ad7500" stroke-width="0" stroke-linecap="butt"/><path d="M908.55123,659.8151c6.34474,0 11.48816,9.81719 11.48816,21.9273c0,12.11012 -5.14343,21.9273 -11.48816,21.9273c-6.34472,0 -11.48816,-9.81719 -11.48816,-21.9273c0,-12.11012 5.14343,-21.9273 11.48816,-21.9273z" data-paper-data="{&quot;index&quot;:null}" fill="#ffffff" stroke="#ad7500" stroke-width="0" stroke-linecap="butt"/><path d="M904.91823,659.81511c6.34474,0 11.48816,9.81718 11.48816,21.92729c0,12.11011 -5.14342,21.92729 -11.48816,21.92729c-6.34474,0 -11.48817,-9.81718 -11.48817,-21.92729c0,-12.11011 5.14343,-21.92729 11.48817,-21.92729z" data-paper-data="{&quot;index&quot;:null}" fill="#ff0000" stroke="#ad7500" stroke-width="0" stroke-linecap="butt"/><path d="M900.94154,659.8151c6.34474,0 11.48816,9.81719 11.48816,21.9273c0,12.11012 -5.14343,21.9273 -11.48816,21.9273c-6.34472,0 -11.48816,-9.81719 -11.48816,-21.9273c0,-12.11012 5.14343,-21.9273 11.48816,-21.9273z" data-paper-data="{&quot;index&quot;:null}" fill="#ffffff" stroke="#ad7500" stroke-width="0" stroke-linecap="butt"/><path d="M897.08646,659.81511c6.34474,0 11.48816,9.81718 11.48816,21.92729c0,12.11011 -5.14342,21.92729 -11.48816,21.92729c-6.34474,0 -11.48817,-9.81718 -11.48817,-21.92729c0,-12.11011 5.14343,-21.92729 11.48817,-21.92729z" data-paper-data="{&quot;index&quot;:null}" fill="#ff0000" stroke="#ad7500" stroke-width="0" stroke-linecap="butt"/><path d="M893.10977,659.8151c6.34474,0 11.48817,9.81719 11.48817,21.9273c0,12.11012 -5.14343,21.9273 -11.48817,21.9273c-6.34472,0 -11.48816,-9.81719 -11.48816,-21.9273c0,-12.11012 5.14343,-21.9273 11.48816,-21.9273z" data-paper-data="{&quot;index&quot;:null}" fill="#ffffff" stroke="#ad7500" stroke-width="0" stroke-linecap="butt"/><path d="M888.9936,659.81511c6.34474,0 11.48817,9.81718 11.48817,21.92729c0,12.11011 -5.14343,21.92729 -11.48817,21.92729c-6.34474,0 -11.48816,-9.81718 -11.48816,-21.92729c0,-12.11011 5.14343,-21.92729 11.48816,-21.92729z" data-paper-data="{&quot;index&quot;:null}" fill="#ff0000" stroke="#ad7500" stroke-width="0" stroke-linecap="butt"/><path d="M885.01692,659.8151c6.34474,0 11.48816,9.81719 11.48816,21.9273c0,12.11012 -5.14343,21.9273 -11.48816,21.9273c-6.34472,0 -11.48816,-9.81719 -11.48816,-21.9273c0,-12.11012 5.14343,-21.9273 11.48816,-21.9273z" data-paper-data="{&quot;index&quot;:null}" fill="#ffffff" stroke="#ad7500" stroke-width="0" stroke-linecap="butt"/><path d="M880.90076,659.81511c6.34474,0 11.48816,9.81718 11.48816,21.92729c0,12.11011 -5.14343,21.92729 -11.48816,21.92729c-6.34474,0 -11.48816,-9.81718 -11.48816,-21.92729c0,-12.11011 5.14343,-21.92729 11.48816,-21.92729z" data-paper-data="{&quot;index&quot;:null}" fill="#ff0000" stroke="#ad7500" stroke-width="0" stroke-linecap="butt"/><path d="M876.9241,659.81511c6.34474,0 11.48816,9.81718 11.48816,21.9273c0,12.11011 -5.14342,21.9273 -11.48816,21.9273c-6.34474,0 -11.48818,-9.81718 -11.48818,-21.9273c0,-12.11011 5.14345,-21.9273 11.48818,-21.9273z" data-paper-data="{&quot;index&quot;:null}" fill="#ffffff" stroke="#ad7500" stroke-width="0" stroke-linecap="butt"/><path d="M872.84735,703.66969c-6.34474,0 -11.48816,-9.81718 -11.48816,-21.92729c0,-12.11011 5.14343,-21.92729 11.48816,-21.92729c0.69562,0 1.37681,0.11801 2.03836,0.34411c-5.37238,1.83614 -9.44979,10.80081 -9.44979,21.58318c0,10.78237 4.07742,19.74703 9.44979,21.58318c-0.66155,0.2261 -1.34274,0.34411 -2.03836,0.34411z" fill="#ff0000" stroke="#ad7500" stroke-width="0" stroke-linecap="butt"/><path d="M879.75456,702.49147c0,0 -2.46294,0.10529 -5.36721,-5.19273c-2.60036,-4.74365 -3.83726,-13.7749 -3.84965,-17.26101c-0.01392,-3.921 1.42552,-8.14758 4.05139,-13.90507c1.62947,-3.5728 5.20903,-5.25732 5.20903,-5.25732" fill="none" stroke="#ff0000" stroke-width="2" stroke-linecap="round"/><path d="M873.76743,660.87533c0,0 3.57956,1.68453 5.20903,5.25732c2.62587,5.7575 4.06531,9.98406 4.05138,13.90506c-0.01239,3.48611 -1.24929,12.51736 -3.84965,17.26101c-2.90425,5.29802 -6.1204,5.50012 -6.1204,5.50012" data-paper-data="{&quot;index&quot;:null}" fill="none" stroke="#ff0000" stroke-width="2" stroke-linecap="round"/><path d="M876.65725,701.62433l0.20511,-38.63925" fill="none" stroke="#ff0000" stroke-width="2" stroke-linecap="round"/></g><g><path d="M1016.23362,681.7424c0,12.11011 -5.14343,21.92729 -11.48816,21.92729c-6.34474,0 -11.48816,-9.81718 -11.48816,-21.92729c0,-12.11011 5.14342,-21.92729 11.48816,-21.92729c6.34474,0 11.48816,9.81718 11.48816,21.92729z" fill="#ff0000" stroke="#ad7500" stroke-width="0" stroke-linecap="butt"/><path d="M1020.2103,681.7424c0,12.11011 -5.14345,21.9273 -11.48817,21.9273c-6.34474,0 -11.48816,-9.81718 -11.48816,-21.9273c0,-12.11011 5.14343,-21.9273 11.48816,-21.9273c6.34474,0 11.48817,9.81718 11.48817,21.9273z" fill="#ffffff" stroke="#ad7500" stroke-width="0" stroke-linecap="butt"/><path d="M1023.76538,681.7424c0,12.11011 -5.14343,21.92729 -11.48816,21.92729c-6.34474,0 -11.48817,-9.81718 -11.48817,-21.92729c0,-12.11011 5.14343,-21.92729 11.48817,-21.92729c6.34474,0 11.48816,9.81718 11.48816,21.92729z" fill="#ff0000" stroke="#ad7500" stroke-width="0" stroke-linecap="butt"/><path d="M1027.74206,681.7424c0,12.11011 -5.14344,21.9273 -11.48816,21.9273c-6.34474,0 -11.48816,-9.81718 -11.48816,-21.9273c0,-12.11011 5.14343,-21.9273 11.48816,-21.9273c6.34474,0 11.48816,9.81718 11.48816,21.9273z" fill="#ffffff" stroke="#ad7500" stroke-width="0" stroke-linecap="butt"/><path d="M1031.37507,681.7424c0,12.11011 -5.14343,21.92729 -11.48816,21.92729c-6.34474,0 -11.48817,-9.81718 -11.48817,-21.92729c0,-12.11011 5.14343,-21.92729 11.48817,-21.92729c6.34474,0 11.48816,9.81718 11.48816,21.92729z" fill="#ff0000" stroke="#ad7500" stroke-width="0" stroke-linecap="butt"/><path d="M1035.35175,681.7424c0,12.11011 -5.14344,21.9273 -11.48816,21.9273c-6.34474,0 -11.48816,-9.81718 -11.48816,-21.9273c0,-12.11011 5.14343,-21.9273 11.48816,-21.9273c6.34474,0 11.48816,9.81718 11.48816,21.9273z" fill="#ffffff" stroke="#ad7500" stroke-width="0" stroke-linecap="butt"/><path d="M1039.20684,681.7424c0,12.11011 -5.14343,21.92729 -11.48816,21.92729c-6.34474,0 -11.48817,-9.81718 -11.48817,-21.92729c0,-12.11011 5.14343,-21.92729 11.48817,-21.92729c6.34474,0 11.48816,9.81718 11.48816,21.92729z" fill="#ff0000" stroke="#ad7500" stroke-width="0" stroke-linecap="butt"/><path d="M1043.18352,681.7424c0,12.11011 -5.14344,21.9273 -11.48816,21.9273c-6.34474,0 -11.48816,-9.81718 -11.48816,-21.9273c0,-12.11011 5.14343,-21.9273 11.48816,-21.9273c6.34474,0 11.48816,9.81718 11.48816,21.9273z" fill="#ffffff" stroke="#ad7500" stroke-width="0" stroke-linecap="butt"/><path d="M1047.29969,681.7424c0,12.11011 -5.14343,21.92729 -11.48816,21.92729c-6.34474,0 -11.48817,-9.81718 -11.48817,-21.92729c0,-12.11011 5.14343,-21.92729 11.48817,-21.92729c6.34474,0 11.48816,9.81718 11.48816,21.92729z" fill="#ff0000" stroke="#ad7500" stroke-width="0" stroke-linecap="butt"/><path d="M1051.27638,681.7424c0,12.11011 -5.14344,21.9273 -11.48816,21.9273c-6.34474,0 -11.48816,-9.81718 -11.48816,-21.9273c0,-12.11011 5.14343,-21.9273 11.48816,-21.9273c6.34474,0 11.48816,9.81718 11.48816,21.9273z" fill="#ffffff" stroke="#ad7500" stroke-width="0" stroke-linecap="butt"/><path d="M1055.39253,681.7424c0,12.11011 -5.14343,21.92729 -11.48816,21.92729c-6.34474,0 -11.48816,-9.81718 -11.48816,-21.92729c0,-12.11011 5.14343,-21.92729 11.48816,-21.92729c6.34474,0 11.48816,9.81718 11.48816,21.92729z" fill="#ff0000" stroke="#ad7500" stroke-width="0" stroke-linecap="butt"/><path d="M1059.36921,681.7424c0,12.11011 -5.14344,21.9273 -11.48816,21.9273c-6.34474,0 -11.48816,-9.81718 -11.48816,-21.9273c0,-12.11011 5.14343,-21.9273 11.48816,-21.9273c6.34474,0 11.48816,9.81718 11.48816,21.9273z" fill="#ffffff" stroke="#ad7500" stroke-width="0" stroke-linecap="butt"/><path d="M1091.11669,659.81511c6.34474,0 11.48816,9.81718 11.48816,21.92729c0,12.11011 -5.14343,21.92729 -11.48816,21.92729c-6.34474,0 -11.48816,-9.81718 -11.48816,-21.92729c0,-12.11011 5.14342,-21.92729 11.48816,-21.92729z" data-paper-data="{&quot;index&quot;:null}" fill="#ff0000" stroke="#ad7500" stroke-width="0" stroke-linecap="butt"/><path d="M1087.14001,659.8151c6.34474,0 11.48816,9.81719 11.48816,21.9273c0,12.11012 -5.14342,21.9273 -11.48816,21.9273c-6.34472,0 -11.48817,-9.81719 -11.48817,-21.9273c0,-12.11012 5.14343,-21.9273 11.48817,-21.9273z" data-paper-data="{&quot;index&quot;:null}" fill="#ffffff" stroke="#ad7500" stroke-width="0" stroke-linecap="butt"/><path d="M1083.58494,659.81511c6.34474,0 11.48816,9.81718 11.48816,21.92729c0,12.11011 -5.14343,21.92729 -11.48816,21.92729c-6.34474,0 -11.48817,-9.81718 -11.48817,-21.92729c0,-12.11011 5.14343,-21.92729 11.48817,-21.92729z" data-paper-data="{&quot;index&quot;:null}" fill="#ff0000" stroke="#ad7500" stroke-width="0" stroke-linecap="butt"/><path d="M1079.60825,659.8151c6.34474,0 11.48816,9.81719 11.48816,21.9273c0,12.11012 -5.14343,21.9273 -11.48816,21.9273c-6.34472,0 -11.48816,-9.81719 -11.48816,-21.9273c0,-12.11012 5.14343,-21.9273 11.48816,-21.9273z" data-paper-data="{&quot;index&quot;:null}" fill="#ffffff" stroke="#ad7500" stroke-width="0" stroke-linecap="butt"/><path d="M1075.97525,659.81511c6.34474,0 11.48816,9.81718 11.48816,21.92729c0,12.11011 -5.14342,21.92729 -11.48816,21.92729c-6.34474,0 -11.48817,-9.81718 -11.48817,-21.92729c0,-12.11011 5.14343,-21.92729 11.48817,-21.92729z" data-paper-data="{&quot;index&quot;:null}" fill="#ff0000" stroke="#ad7500" stroke-width="0" stroke-linecap="butt"/><path d="M1071.99856,659.8151c6.34474,0 11.48816,9.81719 11.48816,21.9273c0,12.11012 -5.14343,21.9273 -11.48816,21.9273c-6.34472,0 -11.48816,-9.81719 -11.48816,-21.9273c0,-12.11012 5.14343,-21.9273 11.48816,-21.9273z" data-paper-data="{&quot;index&quot;:null}" fill="#ffffff" stroke="#ad7500" stroke-width="0" stroke-linecap="butt"/><path d="M1068.14348,659.81511c6.34474,0 11.48816,9.81718 11.48816,21.92729c0,12.11011 -5.14342,21.92729 -11.48816,21.92729c-6.34474,0 -11.48817,-9.81718 -11.48817,-21.92729c0,-12.11011 5.14343,-21.92729 11.48817,-21.92729z" data-paper-data="{&quot;index&quot;:null}" fill="#ff0000" stroke="#ad7500" stroke-width="0" stroke-linecap="butt"/><path d="M1064.16679,659.8151c6.34474,0 11.48817,9.81719 11.48817,21.9273c0,12.11012 -5.14343,21.9273 -11.48817,21.9273c-6.34472,0 -11.48816,-9.81719 -11.48816,-21.9273c0,-12.11012 5.14343,-21.9273 11.48816,-21.9273z" data-paper-data="{&quot;index&quot;:null}" fill="#ffffff" stroke="#ad7500" stroke-width="0" stroke-linecap="butt"/><path d="M1060.05062,659.81511c6.34474,0 11.48817,9.81718 11.48817,21.92729c0,12.11011 -5.14343,21.92729 -11.48817,21.92729c-6.34474,0 -11.48816,-9.81718 -11.48816,-21.92729c0,-12.11011 5.14343,-21.92729 11.48816,-21.92729z" data-paper-data="{&quot;index&quot;:null}" fill="#ff0000" stroke="#ad7500" stroke-width="0" stroke-linecap="butt"/><path d="M1056.07394,659.8151c6.34474,0 11.48816,9.81719 11.48816,21.9273c0,12.11012 -5.14343,21.9273 -11.48816,21.9273c-6.34472,0 -11.48816,-9.81719 -11.48816,-21.9273c0,-12.11012 5.14343,-21.9273 11.48816,-21.9273z" data-paper-data="{&quot;index&quot;:null}" fill="#ffffff" stroke="#ad7500" stroke-width="0" stroke-linecap="butt"/><path d="M1051.95778,659.81511c6.34474,0 11.48816,9.81718 11.48816,21.92729c0,12.11011 -5.14343,21.92729 -11.48816,21.92729c-6.34474,0 -11.48816,-9.81718 -11.48816,-21.92729c0,-12.11011 5.14343,-21.92729 11.48816,-21.92729z" data-paper-data="{&quot;index&quot;:null}" fill="#ff0000" stroke="#ad7500" stroke-width="0" stroke-linecap="butt"/><path d="M1047.98112,659.81511c6.34474,0 11.48816,9.81718 11.48816,21.9273c0,12.11011 -5.14342,21.9273 -11.48816,21.9273c-6.34474,0 -11.48818,-9.81718 -11.48818,-21.9273c0,-12.11011 5.14345,-21.9273 11.48818,-21.9273z" data-paper-data="{&quot;index&quot;:null}" fill="#ffffff" stroke="#ad7500" stroke-width="0" stroke-linecap="butt"/><path d="M1043.90437,703.66969c-6.34474,0 -11.48816,-9.81718 -11.48816,-21.92729c0,-12.11011 5.14343,-21.92729 11.48816,-21.92729c0.69562,0 1.37681,0.11801 2.03836,0.34411c-5.37238,1.83614 -9.44979,10.80081 -9.44979,21.58318c0,10.78237 4.07742,19.74703 9.44979,21.58318c-0.66155,0.2261 -1.34274,0.34411 -2.03836,0.34411z" fill="#ff0000" stroke="#ad7500" stroke-width="0" stroke-linecap="butt"/><path d="M1050.81158,702.49147c0,0 -2.46294,0.10529 -5.36721,-5.19273c-2.60036,-4.74365 -3.83726,-13.7749 -3.84965,-17.26101c-0.01392,-3.921 1.42552,-8.14758 4.05139,-13.90507c1.62947,-3.5728 5.20903,-5.25732 5.20903,-5.25732" fill="none" stroke="#ff0000" stroke-width="2" stroke-linecap="round"/><path d="M1044.82445,660.87533c0,0 3.57956,1.68453 5.20903,5.25732c2.62587,5.7575 4.06531,9.98406 4.05138,13.90506c-0.01239,3.48611 -1.24929,12.51736 -3.84965,17.26101c-2.90425,5.29802 -6.1204,5.50012 -6.1204,5.50012" data-paper-data="{&quot;index&quot;:null}" fill="none" stroke="#ff0000" stroke-width="2" stroke-linecap="round"/><path d="M1047.71427,701.62433l0.20511,-38.63925" fill="none" stroke="#ff0000" stroke-width="2" stroke-linecap="round"/></g><g><path d="M845.22844,850.96416c0,12.11011 -5.14343,21.92729 -11.48816,21.92729c-6.34474,0 -11.48816,-9.81718 -11.48816,-21.92729c0,-12.11011 5.14342,-21.92729 11.48816,-21.92729c6.34474,0 11.48816,9.81718 11.48816,21.92729z" fill="#ff0000" stroke="#ad7500" stroke-width="0" stroke-linecap="butt"/><path d="M849.20512,850.96416c0,12.11011 -5.14345,21.9273 -11.48817,21.9273c-6.34474,0 -11.48816,-9.81718 -11.48816,-21.9273c0,-12.11011 5.14343,-21.9273 11.48816,-21.9273c6.34474,0 11.48817,9.81718 11.48817,21.9273z" fill="#ffffff" stroke="#ad7500" stroke-width="0" stroke-linecap="butt"/><path d="M852.7602,850.96416c0,12.11011 -5.14343,21.92729 -11.48816,21.92729c-6.34474,0 -11.48817,-9.81718 -11.48817,-21.92729c0,-12.11011 5.14343,-21.92729 11.48817,-21.92729c6.34474,0 11.48816,9.81718 11.48816,21.92729z" fill="#ff0000" stroke="#ad7500" stroke-width="0" stroke-linecap="butt"/><path d="M856.73688,850.96416c0,12.11011 -5.14344,21.9273 -11.48816,21.9273c-6.34474,0 -11.48816,-9.81718 -11.48816,-21.9273c0,-12.11011 5.14343,-21.9273 11.48816,-21.9273c6.34474,0 11.48816,9.81718 11.48816,21.9273z" fill="#ffffff" stroke="#ad7500" stroke-width="0" stroke-linecap="butt"/><path d="M860.36989,850.96416c0,12.11011 -5.14343,21.92729 -11.48816,21.92729c-6.34474,0 -11.48817,-9.81718 -11.48817,-21.92729c0,-12.11011 5.14343,-21.92729 11.48817,-21.92729c6.34474,0 11.48816,9.81718 11.48816,21.92729z" fill="#ff0000" stroke="#ad7500" stroke-width="0" stroke-linecap="butt"/><path d="M864.34657,850.96416c0,12.11011 -5.14344,21.9273 -11.48816,21.9273c-6.34474,0 -11.48816,-9.81718 -11.48816,-21.9273c0,-12.11011 5.14343,-21.9273 11.48816,-21.9273c6.34474,0 11.48816,9.81718 11.48816,21.9273z" fill="#ffffff" stroke="#ad7500" stroke-width="0" stroke-linecap="butt"/><path d="M868.20166,850.96416c0,12.11011 -5.14343,21.92729 -11.48816,21.92729c-6.34474,0 -11.48817,-9.81718 -11.48817,-21.92729c0,-12.11011 5.14343,-21.92729 11.48817,-21.92729c6.34474,0 11.48816,9.81718 11.48816,21.92729z" fill="#ff0000" stroke="#ad7500" stroke-width="0" stroke-linecap="butt"/><path d="M872.17834,850.96416c0,12.11011 -5.14344,21.9273 -11.48816,21.9273c-6.34474,0 -11.48816,-9.81718 -11.48816,-21.9273c0,-12.11011 5.14343,-21.9273 11.48816,-21.9273c6.34474,0 11.48816,9.81718 11.48816,21.9273z" fill="#ffffff" stroke="#ad7500" stroke-width="0" stroke-linecap="butt"/><path d="M876.29451,850.96416c0,12.11011 -5.14343,21.92729 -11.48816,21.92729c-6.34474,0 -11.48817,-9.81718 -11.48817,-21.92729c0,-12.11011 5.14343,-21.92729 11.48817,-21.92729c6.34474,0 11.48816,9.81718 11.48816,21.92729z" fill="#ff0000" stroke="#ad7500" stroke-width="0" stroke-linecap="butt"/><path d="M880.2712,850.96416c0,12.11011 -5.14344,21.9273 -11.48816,21.9273c-6.34474,0 -11.48816,-9.81718 -11.48816,-21.9273c0,-12.11011 5.14343,-21.9273 11.48816,-21.9273c6.34474,0 11.48816,9.81718 11.48816,21.9273z" fill="#ffffff" stroke="#ad7500" stroke-width="0" stroke-linecap="butt"/><path d="M884.38735,850.96416c0,12.11011 -5.14343,21.92729 -11.48816,21.92729c-6.34474,0 -11.48816,-9.81718 -11.48816,-21.92729c0,-12.11011 5.14343,-21.92729 11.48816,-21.92729c6.34474,0 11.48816,9.81718 11.48816,21.92729z" fill="#ff0000" stroke="#ad7500" stroke-width="0" stroke-linecap="butt"/><path d="M888.36403,850.96416c0,12.11011 -5.14344,21.9273 -11.48816,21.9273c-6.34474,0 -11.48816,-9.81718 -11.48816,-21.9273c0,-12.11011 5.14343,-21.9273 11.48816,-21.9273c6.34474,0 11.48816,9.81718 11.48816,21.9273z" fill="#ffffff" stroke="#ad7500" stroke-width="0" stroke-linecap="butt"/><path d="M920.11151,829.03687c6.34474,0 11.48816,9.81718 11.48816,21.92729c0,12.11011 -5.14343,21.92729 -11.48816,21.92729c-6.34474,0 -11.48816,-9.81718 -11.48816,-21.92729c0,-12.11011 5.14342,-21.92729 11.48816,-21.92729z" data-paper-data="{&quot;index&quot;:null}" fill="#ff0000" stroke="#ad7500" stroke-width="0" stroke-linecap="butt"/><path d="M916.13483,829.03686c6.34474,0 11.48816,9.81719 11.48816,21.9273c0,12.11012 -5.14342,21.9273 -11.48816,21.9273c-6.34472,0 -11.48817,-9.81719 -11.48817,-21.9273c0,-12.11012 5.14343,-21.9273 11.48817,-21.9273z" data-paper-data="{&quot;index&quot;:null}" fill="#ffffff" stroke="#ad7500" stroke-width="0" stroke-linecap="butt"/><path d="M912.57976,829.03687c6.34474,0 11.48816,9.81718 11.48816,21.92729c0,12.11011 -5.14343,21.92729 -11.48816,21.92729c-6.34474,0 -11.48817,-9.81718 -11.48817,-21.92729c0,-12.11011 5.14343,-21.92729 11.48817,-21.92729z" data-paper-data="{&quot;index&quot;:null}" fill="#ff0000" stroke="#ad7500" stroke-width="0" stroke-linecap="butt"/><path d="M908.60307,829.03686c6.34474,0 11.48816,9.81719 11.48816,21.9273c0,12.11012 -5.14343,21.9273 -11.48816,21.9273c-6.34472,0 -11.48816,-9.81719 -11.48816,-21.9273c0,-12.11012 5.14343,-21.9273 11.48816,-21.9273z" data-paper-data="{&quot;index&quot;:null}" fill="#ffffff" stroke="#ad7500" stroke-width="0" stroke-linecap="butt"/><path d="M904.97007,829.03687c6.34474,0 11.48816,9.81718 11.48816,21.92729c0,12.11011 -5.14342,21.92729 -11.48816,21.92729c-6.34474,0 -11.48817,-9.81718 -11.48817,-21.92729c0,-12.11011 5.14343,-21.92729 11.48817,-21.92729z" data-paper-data="{&quot;index&quot;:null}" fill="#ff0000" stroke="#ad7500" stroke-width="0" stroke-linecap="butt"/><path d="M900.99338,829.03686c6.34474,0 11.48816,9.81719 11.48816,21.9273c0,12.11012 -5.14343,21.9273 -11.48816,21.9273c-6.34472,0 -11.48816,-9.81719 -11.48816,-21.9273c0,-12.11012 5.14343,-21.9273 11.48816,-21.9273z" data-paper-data="{&quot;index&quot;:null}" fill="#ffffff" stroke="#ad7500" stroke-width="0" stroke-linecap="butt"/><path d="M897.1383,829.03687c6.34474,0 11.48816,9.81718 11.48816,21.92729c0,12.11011 -5.14342,21.92729 -11.48816,21.92729c-6.34474,0 -11.48817,-9.81718 -11.48817,-21.92729c0,-12.11011 5.14343,-21.92729 11.48817,-21.92729z" data-paper-data="{&quot;index&quot;:null}" fill="#ff0000" stroke="#ad7500" stroke-width="0" stroke-linecap="butt"/><path d="M893.16161,829.03686c6.34474,0 11.48817,9.81719 11.48817,21.9273c0,12.11012 -5.14343,21.9273 -11.48817,21.9273c-6.34472,0 -11.48816,-9.81719 -11.48816,-21.9273c0,-12.11012 5.14343,-21.9273 11.48816,-21.9273z" data-paper-data="{&quot;index&quot;:null}" fill="#ffffff" stroke="#ad7500" stroke-width="0" stroke-linecap="butt"/><path d="M889.04544,829.03687c6.34474,0 11.48817,9.81718 11.48817,21.92729c0,12.11011 -5.14343,21.92729 -11.48817,21.92729c-6.34474,0 -11.48816,-9.81718 -11.48816,-21.92729c0,-12.11011 5.14343,-21.92729 11.48816,-21.92729z" data-paper-data="{&quot;index&quot;:null}" fill="#ff0000" stroke="#ad7500" stroke-width="0" stroke-linecap="butt"/><path d="M885.06876,829.03686c6.34474,0 11.48816,9.81719 11.48816,21.9273c0,12.11012 -5.14343,21.9273 -11.48816,21.9273c-6.34472,0 -11.48816,-9.81719 -11.48816,-21.9273c0,-12.11012 5.14343,-21.9273 11.48816,-21.9273z" data-paper-data="{&quot;index&quot;:null}" fill="#ffffff" stroke="#ad7500" stroke-width="0" stroke-linecap="butt"/><path d="M880.9526,829.03687c6.34474,0 11.48816,9.81718 11.48816,21.92729c0,12.11011 -5.14343,21.92729 -11.48816,21.92729c-6.34474,0 -11.48816,-9.81718 -11.48816,-21.92729c0,-12.11011 5.14343,-21.92729 11.48816,-21.92729z" data-paper-data="{&quot;index&quot;:null}" fill="#ff0000" stroke="#ad7500" stroke-width="0" stroke-linecap="butt"/><path d="M876.97594,829.03687c6.34474,0 11.48816,9.81718 11.48816,21.9273c0,12.11011 -5.14342,21.9273 -11.48816,21.9273c-6.34474,0 -11.48818,-9.81718 -11.48818,-21.9273c0,-12.11011 5.14345,-21.9273 11.48818,-21.9273z" data-paper-data="{&quot;index&quot;:null}" fill="#ffffff" stroke="#ad7500" stroke-width="0" stroke-linecap="butt"/><path d="M872.89919,872.89145c-6.34474,0 -11.48816,-9.81718 -11.48816,-21.92729c0,-12.11011 5.14343,-21.92729 11.48816,-21.92729c0.69562,0 1.37681,0.11801 2.03836,0.34411c-5.37238,1.83614 -9.44979,10.80081 -9.44979,21.58318c0,10.78237 4.07742,19.74703 9.44979,21.58318c-0.66155,0.2261 -1.34274,0.34411 -2.03836,0.34411z" fill="#ff0000" stroke="#ad7500" stroke-width="0" stroke-linecap="butt"/><path d="M879.8064,871.71323c0,0 -2.46294,0.10529 -5.36721,-5.19273c-2.60036,-4.74365 -3.83726,-13.7749 -3.84965,-17.26101c-0.01392,-3.921 1.42552,-8.14758 4.05139,-13.90507c1.62947,-3.5728 5.20903,-5.25732 5.20903,-5.25732" fill="none" stroke="#ff0000" stroke-width="2" stroke-linecap="round"/><path d="M873.81927,830.09709c0,0 3.57956,1.68453 5.20903,5.25732c2.62587,5.7575 4.06531,9.98406 4.05138,13.90506c-0.01239,3.48611 -1.24929,12.51736 -3.84965,17.26101c-2.90425,5.29802 -6.1204,5.50012 -6.1204,5.50012" data-paper-data="{&quot;index&quot;:null}" fill="none" stroke="#ff0000" stroke-width="2" stroke-linecap="round"/><path d="M876.70909,870.84609l0.20511,-38.63925" fill="none" stroke="#ff0000" stroke-width="2" stroke-linecap="round"/></g><g stroke="#ad7500" stroke-width="5"><path d="M1029.46665,969.18328c-1.68854,0 -3.05739,-2.42217 -3.05739,-5.41007v-106.70434c0,-2.9879 1.36884,-5.41008 3.05739,-5.41008h60.30165c1.68854,0 3.05739,2.42218 3.05739,5.41008v106.70434c0,2.9879 -1.36884,5.41007 -3.05739,5.41007z" fill="#ff0000" stroke-linecap="butt"/><path d="M1028.72479,905.16137h19.3861" fill="none" stroke-linecap="round"/><path d="M1048.1109,901.93035l-0.23078,6.23125" fill="none" stroke-linecap="round"/><path d="M1043.72594,904.469h7.84676" fill="none" stroke-linecap="round"/><path d="M1045.80303,906.77687l3.23102,-2.76944l2.07708,-0.92315" fill="none" stroke-linecap="round"/><path d="M1048.1109,904.469l-1.84629,-2.30787" fill="none" stroke-linecap="round"/><path d="M1046.72618,903.31507l4.38495,3.46181" fill="none" stroke-linecap="round"/></g><g fill="#ad7500" stroke="none" stroke-linecap="butt"><g><path d="M803.84628,982.3516c-2.20914,0 -4,-1.79086 -4,-4c0,0 0,-28.70507 0,-35.90197c0,-1.53627 2.9655,-9.91247 6.10164,-9.84365c3.181,0.0698 6.53327,8.60543 6.53327,9.99218c0,7.23314 0,35.75344 0,35.75344c0,2.20914 -1.79086,4 -4,4z" stroke-width="NaN"/><path d="M801.33272,953.5888c-2.20914,0 -4,-1.66239 -4,-3.71306v0c0,-2.05066 1.79086,-3.71306 4,-3.71306h26.60567c2.20914,0 4,1.66239 4,3.71306v0c0,2.05066 -1.79086,3.71306 -4,3.71306z" stroke-width="0"/><path d="M801.33273,970.81738c-2.20914,0 -4,-1.66239 -4,-3.71306v0c0,-2.05066 1.79086,-3.71305 4,-3.71305h26.60568c2.20914,0 4,1.66239 4,3.71305v0c0,2.05066 -1.79086,3.71306 -4,3.71306z" stroke-width="0"/><path d="M820.10946,982.3516c-2.20914,0 -4,-1.79086 -4,-4c0,0 0,-28.70507 0,-35.90197c0,-1.53627 2.9655,-9.91247 6.10164,-9.84365c3.181,0.0698 6.53327,8.60543 6.53327,9.99218c0,7.23314 0,35.75344 0,35.75344c0,2.20914 -1.79086,4 -4,4z" stroke-width="NaN"/></g><g><path d="M820.08141,982.3516c-2.20914,0 -4,-1.79086 -4,-4c0,0 0,-28.70507 0,-35.90197c0,-1.53627 2.9655,-9.91247 6.10164,-9.84365c3.181,0.0698 6.53327,8.60543 6.53327,9.99218c0,7.23314 0,35.75344 0,35.75344c0,2.20914 -1.79086,4 -4,4z" stroke-width="NaN"/><path d="M817.56785,953.5888c-2.20914,0 -4,-1.66239 -4,-3.71306v0c0,-2.05066 1.79086,-3.71306 4,-3.71306h26.60567c2.20914,0 4,1.66239 4,3.71306v0c0,2.05066 -1.79086,3.71306 -4,3.71306z" stroke-width="0"/><path d="M817.56786,970.81738c-2.20914,0 -4,-1.66239 -4,-3.71306v0c0,-2.05066 1.79086,-3.71305 4,-3.71305h26.60568c2.20914,0 4,1.66239 4,3.71305v0c0,2.05066 -1.79086,3.71306 -4,3.71306z" stroke-width="0"/><path d="M836.34459,982.3516c-2.20914,0 -4,-1.79086 -4,-4c0,0 0,-28.70507 0,-35.90197c0,-1.53627 2.9655,-9.91247 6.10164,-9.84365c3.181,0.0698 6.53327,8.60543 6.53327,9.99218c0,7.23314 0,35.75344 0,35.75344c0,2.20914 -1.79086,4 -4,4z" stroke-width="NaN"/></g><g><path d="M836.25569,982.3516c-2.20914,0 -4,-1.79086 -4,-4c0,0 0,-28.70507 0,-35.90197c0,-1.53627 2.9655,-9.91247 6.10164,-9.84365c3.181,0.0698 6.53327,8.60543 6.53327,9.99218c0,7.23314 0,35.75344 0,35.75344c0,2.20914 -1.79086,4 -4,4z" stroke-width="NaN"/><path d="M833.74213,953.5888c-2.20914,0 -4,-1.66239 -4,-3.71306v0c0,-2.05066 1.79086,-3.71306 4,-3.71306h26.60567c2.20914,0 4,1.66239 4,3.71306v0c0,2.05066 -1.79086,3.71306 -4,3.71306z" stroke-width="0"/><path d="M833.74214,970.81738c-2.20914,0 -4,-1.66239 -4,-3.71306v0c0,-2.05066 1.79086,-3.71305 4,-3.71305h26.60568c2.20914,0 4,1.66239 4,3.71305v0c0,2.05066 -1.79086,3.71306 -4,3.71306z" stroke-width="0"/><path d="M852.51887,982.3516c-2.20914,0 -4,-1.79086 -4,-4c0,0 0,-28.70507 0,-35.90197c0,-1.53627 2.9655,-9.91247 6.10164,-9.84365c3.181,0.0698 6.53327,8.60543 6.53327,9.99218c0,7.23314 0,35.75344 0,35.75344c0,2.20914 -1.79086,4 -4,4z" stroke-width="NaN"/></g><g><path d="M852.49082,982.3516c-2.20914,0 -4,-1.79086 -4,-4c0,0 0,-28.70507 0,-35.90197c0,-1.53627 2.9655,-9.91247 6.10164,-9.84365c3.181,0.0698 6.53327,8.60543 6.53327,9.99218c0,7.23314 0,35.75344 0,35.75344c0,2.20914 -1.79086,4 -4,4z" stroke-width="NaN"/><path d="M849.97726,953.5888c-2.20914,0 -4,-1.66239 -4,-3.71306v0c0,-2.05066 1.79086,-3.71306 4,-3.71306h26.60567c2.20914,0 4,1.66239 4,3.71306v0c0,2.05066 -1.79086,3.71306 -4,3.71306z" stroke-width="0"/><path d="M849.97727,970.81738c-2.20914,0 -4,-1.66239 -4,-3.71306v0c0,-2.05066 1.79086,-3.71305 4,-3.71305h26.60568c2.20914,0 4,1.66239 4,3.71305v0c0,2.05066 -1.79086,3.71306 -4,3.71306z" stroke-width="0"/><path d="M868.754,982.3516c-2.20914,0 -4,-1.79086 -4,-4c0,0 0,-28.70507 0,-35.90197c0,-1.53627 2.9655,-9.91247 6.10164,-9.84365c3.181,0.0698 6.53327,8.60543 6.53327,9.99218c0,7.23314 0,35.75344 0,35.75344c0,2.20914 -1.79086,4 -4,4z" stroke-width="NaN"/></g><g><path d="M868.73756,982.3516c-2.20914,0 -4,-1.79086 -4,-4c0,0 0,-28.70507 0,-35.90197c0,-1.53627 2.9655,-9.91247 6.10164,-9.84365c3.181,0.0698 6.53327,8.60543 6.53327,9.99218c0,7.23314 0,35.75344 0,35.75344c0,2.20914 -1.79086,4 -4,4z" stroke-width="NaN"/><path d="M866.224,953.5888c-2.20914,0 -4,-1.66239 -4,-3.71306v0c0,-2.05066 1.79086,-3.71306 4,-3.71306h26.60567c2.20914,0 4,1.66239 4,3.71306v0c0,2.05066 -1.79086,3.71306 -4,3.71306z" stroke-width="0"/><path d="M866.22401,970.81738c-2.20914,0 -4,-1.66239 -4,-3.71306v0c0,-2.05066 1.79086,-3.71305 4,-3.71305h26.60568c2.20914,0 4,1.66239 4,3.71305v0c0,2.05066 -1.79086,3.71306 -4,3.71306z" stroke-width="0"/><path d="M885.00074,982.3516c-2.20914,0 -4,-1.79086 -4,-4c0,0 0,-28.70507 0,-35.90197c0,-1.53627 2.9655,-9.91247 6.10164,-9.84365c3.181,0.0698 6.53327,8.60543 6.53327,9.99218c0,7.23314 0,35.75344 0,35.75344c0,2.20914 -1.79086,4 -4,4z" stroke-width="NaN"/></g><g><path d="M884.97269,982.3516c-2.20914,0 -4,-1.79086 -4,-4c0,0 0,-28.70507 0,-35.90197c0,-1.53627 2.9655,-9.91247 6.10164,-9.84365c3.181,0.0698 6.53327,8.60543 6.53327,9.99218c0,7.23314 0,35.75344 0,35.75344c0,2.20914 -1.79086,4 -4,4z" stroke-width="NaN"/><path d="M882.45913,953.5888c-2.20914,0 -4,-1.66239 -4,-3.71306v0c0,-2.05066 1.79086,-3.71306 4,-3.71306h26.60567c2.20914,0 4,1.66239 4,3.71306v0c0,2.05066 -1.79086,3.71306 -4,3.71306z" stroke-width="0"/><path d="M882.45914,970.81738c-2.20914,0 -4,-1.66239 -4,-3.71306v0c0,-2.05066 1.79086,-3.71305 4,-3.71305h26.60568c2.20914,0 4,1.66239 4,3.71305v0c0,2.05066 -1.79086,3.71306 -4,3.71306z" stroke-width="0"/><path d="M901.23587,982.3516c-2.20914,0 -4,-1.79086 -4,-4c0,0 0,-28.70507 0,-35.90197c0,-1.53627 2.9655,-9.91247 6.10164,-9.84365c3.181,0.0698 6.53327,8.60543 6.53327,9.99218c0,7.23314 0,35.75344 0,35.75344c0,2.20914 -1.79086,4 -4,4z" stroke-width="NaN"/></g><g><path d="M901.14697,982.3516c-2.20914,0 -4,-1.79086 -4,-4c0,0 0,-28.70507 0,-35.90197c0,-1.53627 2.9655,-9.91247 6.10164,-9.84365c3.181,0.0698 6.53327,8.60543 6.53327,9.99218c0,7.23314 0,35.75344 0,35.75344c0,2.20914 -1.79086,4 -4,4z" stroke-width="NaN"/><path d="M898.63341,953.5888c-2.20914,0 -4,-1.66239 -4,-3.71306v0c0,-2.05066 1.79086,-3.71306 4,-3.71306h26.60567c2.20914,0 4,1.66239 4,3.71306v0c0,2.05066 -1.79086,3.71306 -4,3.71306z" stroke-width="0"/><path d="M898.63342,970.81738c-2.20914,0 -4,-1.66239 -4,-3.71306v0c0,-2.05066 1.79086,-3.71305 4,-3.71305h26.60568c2.20914,0 4,1.66239 4,3.71305v0c0,2.05066 -1.79086,3.71306 -4,3.71306z" stroke-width="0"/><path d="M917.41015,982.3516c-2.20914,0 -4,-1.79086 -4,-4c0,0 0,-28.70507 0,-35.90197c0,-1.53627 2.9655,-9.91247 6.10164,-9.84365c3.181,0.0698 6.53327,8.60543 6.53327,9.99218c0,7.23314 0,35.75344 0,35.75344c0,2.20914 -1.79086,4 -4,4z" stroke-width="NaN"/></g><g><path d="M917.3821,982.3516c-2.20914,0 -4,-1.79086 -4,-4c0,0 0,-28.70507 0,-35.90197c0,-1.53627 2.9655,-9.91247 6.10164,-9.84365c3.181,0.0698 6.53327,8.60543 6.53327,9.99218c0,7.23314 0,35.75344 0,35.75344c0,2.20914 -1.79086,4 -4,4z" stroke-width="NaN"/><path d="M914.86854,953.5888c-2.20914,0 -4,-1.66239 -4,-3.71306v0c0,-2.05066 1.79086,-3.71306 4,-3.71306h26.60567c2.20914,0 4,1.66239 4,3.71306v0c0,2.05066 -1.79086,3.71306 -4,3.71306z" stroke-width="0"/><path d="M914.86855,970.81738c-2.20914,0 -4,-1.66239 -4,-3.71306v0c0,-2.05066 1.79086,-3.71305 4,-3.71305h26.60568c2.20914,0 4,1.66239 4,3.71305v0c0,2.05066 -1.79086,3.71306 -4,3.71306z" stroke-width="0"/><path d="M933.64528,982.3516c-2.20914,0 -4,-1.79086 -4,-4c0,0 0,-28.70507 0,-35.90197c0,-1.53627 2.9655,-9.91247 6.10164,-9.84365c3.181,0.0698 6.53327,8.60543 6.53327,9.99218c0,7.23314 0,35.75344 0,35.75344c0,2.20914 -1.79086,4 -4,4z" stroke-width="NaN"/></g><g><path d="M933.79071,982.3516c-2.20914,0 -4,-1.79086 -4,-4c0,0 0,-28.70507 0,-35.90197c0,-1.53627 2.9655,-9.91247 6.10164,-9.84365c3.181,0.0698 6.53327,8.60543 6.53327,9.99218c0,7.23314 0,35.75344 0,35.75344c0,2.20914 -1.79086,4 -4,4z" stroke-width="NaN"/><path d="M931.27715,953.5888c-2.20914,0 -4,-1.66239 -4,-3.71306v0c0,-2.05066 1.79086,-3.71306 4,-3.71306h26.60567c2.20914,0 4,1.66239 4,3.71306v0c0,2.05066 -1.79086,3.71306 -4,3.71306z" stroke-width="0"/><path d="M931.27716,970.81738c-2.20914,0 -4,-1.66239 -4,-3.71306v0c0,-2.05066 1.79086,-3.71305 4,-3.71305h26.60568c2.20914,0 4,1.66239 4,3.71305v0c0,2.05066 -1.79086,3.71306 -4,3.71306z" stroke-width="0"/><path d="M950.05389,982.3516c-2.20914,0 -4,-1.79086 -4,-4c0,0 0,-28.70507 0,-35.90197c0,-1.53627 2.9655,-9.91247 6.10164,-9.84365c3.181,0.0698 6.53327,8.60543 6.53327,9.99218c0,7.23314 0,35.75344 0,35.75344c0,2.20914 -1.79086,4 -4,4z" stroke-width="NaN"/></g><g><path d="M950.02584,982.3516c-2.20914,0 -4,-1.79086 -4,-4c0,0 0,-28.70507 0,-35.90197c0,-1.53627 2.9655,-9.91247 6.10164,-9.84365c3.181,0.0698 6.53327,8.60543 6.53327,9.99218c0,7.23314 0,35.75344 0,35.75344c0,2.20914 -1.79086,4 -4,4z" stroke-width="NaN"/><path d="M947.51228,953.5888c-2.20914,0 -4,-1.66239 -4,-3.71306v0c0,-2.05066 1.79086,-3.71306 4,-3.71306h26.60567c2.20914,0 4,1.66239 4,3.71306v0c0,2.05066 -1.79086,3.71306 -4,3.71306z" stroke-width="0"/><path d="M947.51229,970.81738c-2.20914,0 -4,-1.66239 -4,-3.71306v0c0,-2.05066 1.79086,-3.71305 4,-3.71305h26.60568c2.20914,0 4,1.66239 4,3.71305v0c0,2.05066 -1.79086,3.71306 -4,3.71306z" stroke-width="0"/><path d="M966.28902,982.3516c-2.20914,0 -4,-1.79086 -4,-4c0,0 0,-28.70507 0,-35.90197c0,-1.53627 2.9655,-9.91247 6.10164,-9.84365c3.181,0.0698 6.53327,8.60543 6.53327,9.99218c0,7.23314 0,35.75344 0,35.75344c0,2.20914 -1.79086,4 -4,4z" stroke-width="NaN"/></g><g><path d="M966.20012,982.3516c-2.20914,0 -4,-1.79086 -4,-4c0,0 0,-28.70507 0,-35.90197c0,-1.53627 2.9655,-9.91247 6.10164,-9.84365c3.181,0.0698 6.53327,8.60543 6.53327,9.99218c0,7.23314 0,35.75344 0,35.75344c0,2.20914 -1.79086,4 -4,4z" stroke-width="NaN"/><path d="M963.68656,953.5888c-2.20914,0 -4,-1.66239 -4,-3.71306v0c0,-2.05066 1.79086,-3.71306 4,-3.71306h26.60567c2.20914,0 4,1.66239 4,3.71306v0c0,2.05066 -1.79086,3.71306 -4,3.71306z" stroke-width="0"/><path d="M963.68657,970.81738c-2.20914,0 -4,-1.66239 -4,-3.71306v0c0,-2.05066 1.79086,-3.71305 4,-3.71305h26.60568c2.20914,0 4,1.66239 4,3.71305v0c0,2.05066 -1.79086,3.71306 -4,3.71306z" stroke-width="0"/><path d="M982.4633,982.3516c-2.20914,0 -4,-1.79086 -4,-4c0,0 0,-28.70507 0,-35.90197c0,-1.53627 2.9655,-9.91247 6.10164,-9.84365c3.181,0.0698 6.53327,8.60543 6.53327,9.99218c0,7.23314 0,35.75344 0,35.75344c0,2.20914 -1.79086,4 -4,4z" stroke-width="NaN"/></g><g><path d="M982.43525,982.3516c-2.20914,0 -4,-1.79086 -4,-4c0,0 0,-28.70507 0,-35.90197c0,-1.53627 2.9655,-9.91247 6.10164,-9.84365c3.181,0.0698 6.53327,8.60543 6.53327,9.99218c0,7.23314 0,35.75344 0,35.75344c0,2.20914 -1.79086,4 -4,4z" stroke-width="NaN"/><path d="M979.92169,953.5888c-2.20914,0 -4,-1.66239 -4,-3.71306v0c0,-2.05066 1.79086,-3.71306 4,-3.71306h26.60567c2.20914,0 4,1.66239 4,3.71306v0c0,2.05066 -1.79086,3.71306 -4,3.71306z" stroke-width="0"/><path d="M979.9217,970.81738c-2.20914,0 -4,-1.66239 -4,-3.71306v0c0,-2.05066 1.79086,-3.71305 4,-3.71305h26.60568c2.20914,0 4,1.66239 4,3.71305v0c0,2.05066 -1.79086,3.71306 -4,3.71306z" stroke-width="0"/><path d="M998.69843,982.3516c-2.20914,0 -4,-1.79086 -4,-4c0,0 0,-28.70507 0,-35.90197c0,-1.53627 2.9655,-9.91247 6.10164,-9.84365c3.181,0.0698 6.53327,8.60543 6.53327,9.99218c0,7.23314 0,35.75344 0,35.75344c0,2.20914 -1.79086,4 -4,4z" stroke-width="NaN"/></g><g><path d="M998.68199,982.3516c-2.20914,0 -4,-1.79086 -4,-4c0,0 0,-28.70507 0,-35.90197c0,-1.53627 2.9655,-9.91247 6.10164,-9.84365c3.181,0.0698 6.53327,8.60543 6.53327,9.99218c0,7.23314 0,35.75344 0,35.75344c0,2.20914 -1.79086,4 -4,4z" stroke-width="NaN"/><path d="M996.16843,953.5888c-2.20914,0 -4,-1.66239 -4,-3.71306v0c0,-2.05066 1.79086,-3.71306 4,-3.71306h26.60567c2.20914,0 4,1.66239 4,3.71306v0c0,2.05066 -1.79086,3.71306 -4,3.71306z" stroke-width="0"/><path d="M996.16844,970.81738c-2.20914,0 -4,-1.66239 -4,-3.71306v0c0,-2.05066 1.79086,-3.71305 4,-3.71305h26.60568c2.20914,0 4,1.66239 4,3.71305v0c0,2.05066 -1.79086,3.71306 -4,3.71306z" stroke-width="0"/><path d="M1014.94517,982.3516c-2.20914,0 -4,-1.79086 -4,-4c0,0 0,-28.70507 0,-35.90197c0,-1.53627 2.9655,-9.91247 6.10164,-9.84365c3.181,0.0698 6.53327,8.60543 6.53327,9.99218c0,7.23314 0,35.75344 0,35.75344c0,2.20914 -1.79086,4 -4,4z" stroke-width="NaN"/></g></g><g fill="#ad7500" stroke="none" stroke-linecap="butt"><g><path d="M1096.17389,982.3516c-2.20914,0 -4,-1.79086 -4,-4c0,0 0,-28.70507 0,-35.90197c0,-1.53627 2.9655,-9.91247 6.10164,-9.84365c3.181,0.0698 6.53327,8.60543 6.53327,9.99218c0,7.23314 0,35.75344 0,35.75344c0,2.20914 -1.79086,4 -4,4z" stroke-width="NaN"/><path d="M1093.66033,953.5888c-2.20914,0 -4,-1.66239 -4,-3.71306v0c0,-2.05066 1.79086,-3.71306 4,-3.71306h26.60567c2.20914,0 4,1.66239 4,3.71306v0c0,2.05066 -1.79086,3.71306 -4,3.71306z" stroke-width="0"/><path d="M1093.66034,970.81738c-2.20914,0 -4,-1.66239 -4,-3.71306v0c0,-2.05066 1.79086,-3.71305 4,-3.71305h26.60568c2.20914,0 4,1.66239 4,3.71305v0c0,2.05066 -1.79086,3.71306 -4,3.71306z" stroke-width="0"/><path d="M1112.43707,982.3516c-2.20914,0 -4,-1.79086 -4,-4c0,0 0,-28.70507 0,-35.90197c0,-1.53627 2.9655,-9.91247 6.10164,-9.84365c3.181,0.0698 6.53327,8.60543 6.53327,9.99218c0,7.23314 0,35.75344 0,35.75344c0,2.20914 -1.79086,4 -4,4z" stroke-width="NaN"/></g><g><path d="M1112.34817,982.3516c-2.20914,0 -4,-1.79086 -4,-4c0,0 0,-28.70507 0,-35.90197c0,-1.53627 2.9655,-9.91247 6.10164,-9.84365c3.181,0.0698 6.53327,8.60543 6.53327,9.99218c0,7.23314 0,35.75344 0,35.75344c0,2.20914 -1.79086,4 -4,4z" stroke-width="NaN"/><path d="M1109.83461,953.5888c-2.20914,0 -4,-1.66239 -4,-3.71306v0c0,-2.05066 1.79086,-3.71306 4,-3.71306h26.60567c2.20914,0 4,1.66239 4,3.71306v0c0,2.05066 -1.79086,3.71306 -4,3.71306z" stroke-width="0"/><path d="M1109.83462,970.81738c-2.20914,0 -4,-1.66239 -4,-3.71306v0c0,-2.05066 1.79086,-3.71305 4,-3.71305h26.60568c2.20914,0 4,1.66239 4,3.71305v0c0,2.05066 -1.79086,3.71306 -4,3.71306z" stroke-width="0"/><path d="M1128.61135,982.3516c-2.20914,0 -4,-1.79086 -4,-4c0,0 0,-28.70507 0,-35.90197c0,-1.53627 2.9655,-9.91247 6.10164,-9.84365c3.181,0.0698 6.53327,8.60543 6.53327,9.99218c0,7.23314 0,35.75344 0,35.75344c0,2.20914 -1.79086,4 -4,4z" stroke-width="NaN"/></g></g><g fill="#956600" stroke="none" stroke-linecap="butt"><g><path d="M1014.91712,982.3516c-2.20914,0 -4,-1.79086 -4,-4c0,0 0,-28.70507 0,-35.90197c0,-1.53627 2.9655,-9.91247 6.10164,-9.84365c3.181,0.0698 6.53327,8.60543 6.53327,9.99218c0,7.23314 0,35.75344 0,35.75344c0,2.20914 -1.79086,4 -4,4z" stroke-width="NaN"/><path d="M1012.40356,953.5888c-2.20914,0 -4,-1.66239 -4,-3.71306v0c0,-2.05066 1.79086,-3.71306 4,-3.71306h26.60567c2.20914,0 4,1.66239 4,3.71306v0c0,2.05066 -1.79086,3.71306 -4,3.71306z" stroke-width="0"/><path d="M1012.40357,970.81738c-2.20914,0 -4,-1.66239 -4,-3.71306v0c0,-2.05066 1.79086,-3.71305 4,-3.71305h26.60568c2.20914,0 4,1.66239 4,3.71305v0c0,2.05066 -1.79086,3.71306 -4,3.71306z" stroke-width="0"/><path d="M1031.1803,982.3516c-2.20914,0 -4,-1.79086 -4,-4c0,0 0,-28.70507 0,-35.90197c0,-1.53627 2.9655,-9.91247 6.10164,-9.84365c3.181,0.0698 6.53327,8.60543 6.53327,9.99218c0,7.23314 0,35.75344 0,35.75344c0,2.20914 -1.79086,4 -4,4z" stroke-width="NaN"/></g><g><path d="M1031.0914,982.3516c-2.20914,0 -4,-1.79086 -4,-4c0,0 0,-28.70507 0,-35.90197c0,-1.53627 2.9655,-9.91247 6.10164,-9.84365c3.181,0.0698 6.53327,8.60543 6.53327,9.99218c0,7.23314 0,35.75344 0,35.75344c0,2.20914 -1.79086,4 -4,4z" stroke-width="NaN"/><path d="M1028.57784,953.5888c-2.20914,0 -4,-1.66239 -4,-3.71306v0c0,-2.05066 1.79086,-3.71306 4,-3.71306h26.60567c2.20914,0 4,1.66239 4,3.71306v0c0,2.05066 -1.79086,3.71306 -4,3.71306z" stroke-width="0"/><path d="M1028.57785,970.81738c-2.20914,0 -4,-1.66239 -4,-3.71306v0c0,-2.05066 1.79086,-3.71305 4,-3.71305h26.60568c2.20914,0 4,1.66239 4,3.71305v0c0,2.05066 -1.79086,3.71306 -4,3.71306z" stroke-width="0"/><path d="M1047.35458,982.3516c-2.20914,0 -4,-1.79086 -4,-4c0,0 0,-28.70507 0,-35.90197c0,-1.53627 2.9655,-9.91247 6.10164,-9.84365c3.181,0.0698 6.53327,8.60543 6.53327,9.99218c0,7.23314 0,35.75344 0,35.75344c0,2.20914 -1.79086,4 -4,4z" stroke-width="NaN"/></g><g><path d="M1047.32652,982.3516c-2.20914,0 -4,-1.79086 -4,-4c0,0 0,-28.70507 0,-35.90197c0,-1.53627 2.9655,-9.91247 6.10164,-9.84365c3.181,0.0698 6.53327,8.60543 6.53327,9.99218c0,7.23314 0,35.75344 0,35.75344c0,2.20914 -1.79086,4 -4,4z" stroke-width="NaN"/><path d="M1044.81296,953.5888c-2.20914,0 -4,-1.66239 -4,-3.71306v0c0,-2.05066 1.79086,-3.71306 4,-3.71306h26.60567c2.20914,0 4,1.66239 4,3.71306v0c0,2.05066 -1.79086,3.71306 -4,3.71306z" stroke-width="0"/><path d="M1044.81297,970.81738c-2.20914,0 -4,-1.66239 -4,-3.71306v0c0,-2.05066 1.79086,-3.71305 4,-3.71305h26.60568c2.20914,0 4,1.66239 4,3.71305v0c0,2.05066 -1.79086,3.71306 -4,3.71306z" stroke-width="0"/><path d="M1063.58971,982.3516c-2.20914,0 -4,-1.79086 -4,-4c0,0 0,-28.70507 0,-35.90197c0,-1.53627 2.9655,-9.91247 6.10164,-9.84365c3.181,0.0698 6.53327,8.60543 6.53327,9.99218c0,7.23314 0,35.75344 0,35.75344c0,2.20914 -1.79086,4 -4,4z" stroke-width="NaN"/></g><g><path d="M1063.69202,982.3516c-2.20914,0 -4,-1.79086 -4,-4c0,0 0,-28.70507 0,-35.90197c0,-1.53627 2.9655,-9.91247 6.10164,-9.84365c3.181,0.0698 6.53327,8.60543 6.53327,9.99218c0,7.23314 0,35.75344 0,35.75344c0,2.20914 -1.79086,4 -4,4z" stroke-width="NaN"/><path d="M1061.17846,953.5888c-2.20914,0 -4,-1.66239 -4,-3.71306v0c0,-2.05066 1.79086,-3.71306 4,-3.71306h26.60567c2.20914,0 4,1.66239 4,3.71306v0c0,2.05066 -1.79086,3.71306 -4,3.71306z" stroke-width="0"/><path d="M1061.17847,970.81738c-2.20914,0 -4,-1.66239 -4,-3.71306v0c0,-2.05066 1.79086,-3.71305 4,-3.71305h26.60568c2.20914,0 4,1.66239 4,3.71305v0c0,2.05066 -1.79086,3.71306 -4,3.71306z" stroke-width="0"/><path d="M1079.9552,982.3516c-2.20914,0 -4,-1.79086 -4,-4c0,0 0,-28.70507 0,-35.90197c0,-1.53627 2.9655,-9.91247 6.10164,-9.84365c3.181,0.0698 6.53327,8.60543 6.53327,9.99218c0,7.23314 0,35.75344 0,35.75344c0,2.20914 -1.79086,4 -4,4z" stroke-width="NaN"/></g><g><path d="M1079.93876,982.3516c-2.20914,0 -4,-1.79086 -4,-4c0,0 0,-28.70507 0,-35.90197c0,-1.53627 2.9655,-9.91247 6.10164,-9.84365c3.181,0.0698 6.53327,8.60543 6.53327,9.99218c0,7.23314 0,35.75344 0,35.75344c0,2.20914 -1.79086,4 -4,4z" stroke-width="NaN"/><path d="M1077.4252,953.5888c-2.20914,0 -4,-1.66239 -4,-3.71306v0c0,-2.05066 1.79086,-3.71306 4,-3.71306h26.60567c2.20914,0 4,1.66239 4,3.71306v0c0,2.05066 -1.79086,3.71306 -4,3.71306z" stroke-width="0"/><path d="M1077.42521,970.81738c-2.20914,0 -4,-1.66239 -4,-3.71306v0c0,-2.05066 1.79086,-3.71305 4,-3.71305h26.60568c2.20914,0 4,1.66239 4,3.71305v0c0,2.05066 -1.79086,3.71306 -4,3.71306z" stroke-width="0"/><path d="M1096.20194,982.3516c-2.20914,0 -4,-1.79086 -4,-4c0,0 0,-28.70507 0,-35.90197c0,-1.53627 2.9655,-9.91247 6.10164,-9.84365c3.181,0.0698 6.53327,8.60543 6.53327,9.99218c0,7.23314 0,35.75344 0,35.75344c0,2.20914 -1.79086,4 -4,4z" stroke-width="NaN"/></g></g><path d="M1012.93553,957.86284c0,-2.38379 1.93245,-4.31624 4.31624,-4.31624c2.38379,0 4.31624,1.93245 4.31624,4.31624c0,2.38379 -1.93245,4.31624 -4.31624,4.31624c-2.38379,0 -4.31624,-1.93245 -4.31624,-4.31624z" fill="#ad7500" stroke="none" stroke-width="0" stroke-linecap="butt"/></g><g stroke="none" stroke-linecap="butt"><path d="M596.73179,1039.1818c-1.32589,0 -2.40074,-1.07485 -2.40074,-2.40074v-97.54944c0,-1.32589 1.07485,-2.40074 2.40074,-2.40074h18.94393c1.32589,0 2.40074,1.07485 2.40074,2.40074v97.54944c0,1.32589 -1.07485,2.40074 -2.40074,2.40074z" fill="#ad7500" stroke-width="0"/><path d="M577.11794,938.32277c-1.32589,0 -2.40074,-1.07485 -2.40074,-2.40074v-38.5953c0,-1.32589 1.07485,-2.40074 2.40074,-2.40074c0,0 44.80607,0 61.29781,0c5.57304,0 38.99355,10.44941 38.83861,21.28629c-0.15529,10.86149 -33.89881,22.1105 -39.589,22.1105c-16.47822,0 -60.54741,0 -60.54741,0z" fill="#ad7500" stroke-width="0"/><text transform="translate(575.75829,926.00006) scale(0.81059,0.81059)" font-size="40" xml:space="preserve" fill="#72ff00" fill-rule="nonzero" stroke="none" stroke-width="1" stroke-linecap="butt" stroke-linejoin="miter" stroke-miterlimit="10" stroke-dasharray="" stroke-dashoffset="0" font-family="&quot;Raufbold3bsFontGermanFat-Regular&quot;, Sans Serif" font-weight="normal" text-anchor="start" style="mix-blend-mode: normal"><tspan x="0" dy="0">Gras</tspan></text></g></g></g></svg>