<svg version="1.1" xmlns="http://www.w3.org/2000/svg" xmlns:xlink="http://www.w3.org/1999/xlink" width="27.79514" height="27.79514" viewBox="0,0,27.79514,27.79514"><g transform="translate(-946.10243,-526.10243)"><g data-paper-data="{&quot;isPaintingLayer&quot;:true}" fill-rule="nonzero" stroke-linecap="butt" stroke-linejoin="miter" stroke-miterlimit="10" stroke-dasharray="" stroke-dashoffset="0" style="mix-blend-mode: normal"><path d="M947.35243,540c0,-6.98506 5.66251,-12.64757 12.64757,-12.64757c6.98506,0 12.64757,5.66251 12.64757,12.64757c0,6.98506 -5.66251,12.64757 -12.64757,12.64757c-6.98506,0 -12.64757,-5.66251 -12.64757,-12.64757z" fill="none" stroke="#000000" stroke-width="2.5"/><path d="M948.96249,540.02237v-0.04473h22.07501v0.04473z" fill="none" stroke="#000000" stroke-width="2.5"/><path d="M959.99826,550.78878v-21.57755h0.00349v21.57755z" fill="none" stroke="#000000" stroke-width="2.5"/><path d="M947.68622,540.15397c0,-6.81409 5.52391,-12.33801 12.33801,-12.33801c6.81409,0 12.33801,5.52391 12.33801,12.33801c0,6.81409 -5.52391,12.33801 -12.33801,12.33801c-6.81409,0 -12.33801,-5.52391 -12.33801,-12.33801z" fill-opacity="0.01176" fill="#000000" stroke="none" stroke-width="0"/></g></g></svg>