<svg version="1.1" xmlns="http://www.w3.org/2000/svg" xmlns:xlink="http://www.w3.org/1999/xlink" width="38.88639" height="20.9725" viewBox="0,0,38.88639,20.9725"><defs><radialGradient cx="960" cy="540" r="1.35246" gradientUnits="userSpaceOnUse" id="color-1"><stop offset="0" stop-color="#ff0000"/><stop offset="1" stop-color="#d60000"/></radialGradient><radialGradient cx="960" cy="540" r="1.35246" gradientUnits="userSpaceOnUse" id="color-2"><stop offset="0" stop-color="#000000" stop-opacity="0"/><stop offset="1" stop-color="#000000" stop-opacity="0"/></radialGradient></defs><g transform="translate(-942.30995,-520.37996)"><g data-paper-data="{&quot;isPaintingLayer&quot;:true}" fill-rule="nonzero" stroke-linecap="butt" stroke-linejoin="miter" stroke-miterlimit="10" stroke-dasharray="" stroke-dashoffset="0" style="mix-blend-mode: normal"><path d="M958.64754,540c0,-0.74694 0.60552,-1.35246 1.35246,-1.35246c0.74694,0 1.35246,0.60552 1.35246,1.35246c0,0.74694 -0.60552,1.35246 -1.35246,1.35246c-0.74694,0 -1.35246,-0.60552 -1.35246,-1.35246z" fill="url(#color-1)" stroke="url(#color-2)" stroke-width="0"/><path d="M964.6029,534.65709c2.42642,-0.6238 4.93094,-1.19551 7.33787,-1.78041c2.16718,-0.52664 6.26329,-1.3493 8.2157,0.34592c1.22963,1.06765 1.53499,3.46086 0,4.375c-1.61792,0.96352 -2.39479,-0.70152 -3.71936,-0.34324c-3.44559,0.932 -7.07223,1.3389 -10.59577,2.21991c-0.95832,0.23961 -7.92114,2.81943 -8.84936,1.30411c-0.20777,-0.0553 -0.41407,-0.13626 -0.61961,-0.23632c-1.57928,-0.7688 -3.11374,-2.66512 -4.92491,-2.71393c-2.03073,-0.05473 -8.49731,2.62466 -9.10533,-1.02343c-0.40956,-2.45736 3.19301,-3.36682 5.03844,-3.78541c2.61048,-0.59213 7.13143,-0.1374 10.05475,1.6564c0.74254,-1.33918 1.59735,-2.6919 2.05786,-4.07126c1.10035,-3.29589 2.60288,-7.29557 5.38153,-9.55322c1.37379,-1.1162 4.0608,-0.94848 4.51602,1.32762c0.39073,1.95364 -2.06823,3.06211 -2.85583,4.51217c-0.84693,1.5593 -1.66961,5.00045 -2.91092,7.99403c0.32474,-0.06895 0.65146,-0.14375 0.97894,-0.22794z" fill="#ff0000" stroke="none" stroke-width="0.5"/></g></g></svg>