<svg version="1.1" xmlns="http://www.w3.org/2000/svg" xmlns:xlink="http://www.w3.org/1999/xlink" width="155.19481" height="92.13265" viewBox="0,0,155.19481,92.13265"><defs><radialGradient cx="960" cy="540" r="1.35246" gradientUnits="userSpaceOnUse" id="color-1"><stop offset="0" stop-color="#ff0000"/><stop offset="1" stop-color="#d60000"/></radialGradient><radialGradient cx="960" cy="540" r="1.35246" gradientUnits="userSpaceOnUse" id="color-2"><stop offset="0" stop-color="#000000" stop-opacity="0"/><stop offset="1" stop-color="#000000" stop-opacity="0"/></radialGradient></defs><g transform="translate(-864.54661,-481.39559)"><g data-paper-data="{&quot;isPaintingLayer&quot;:true}" fill-rule="nonzero" stroke-linecap="butt" stroke-linejoin="miter" stroke-miterlimit="10" stroke-dasharray="" stroke-dashoffset="0" style="mix-blend-mode: normal"><path d="M958.64754,540c0,-0.74694 0.60552,-1.35246 1.35246,-1.35246c0.74694,0 1.35246,0.60552 1.35246,1.35246c0,0.74694 -0.60552,1.35246 -1.35246,1.35246c-0.74694,0 -1.35246,-0.60552 -1.35246,-1.35246z" fill="url(#color-1)" stroke="url(#color-2)" stroke-width="0"/><path d="M958.04581,532.73251c0.23469,-0.56032 0.56825,-1.05664 0.97879,-1.49927c-0.27831,-0.09876 -0.576,-0.20589 -0.84734,-0.31559c-0.12121,-0.04156 -0.23822,-0.09217 -0.35022,-0.15103c-0.79585,-0.41825 -1.33861,-1.25296 -1.33861,-2.21443c0,-1.38071 1.11929,-2.5 2.5,-2.5c0.45351,0 0.87881,0.12076 1.24551,0.33187c0.25653,0.03808 0.51468,0.10683 0.777,0.19938c0.7431,-1.67019 1.65778,-3.28316 2.84121,-4.56698c0.17789,-0.37495 0.35773,-0.73949 0.54016,-1.09115c2.26828,-4.37259 4.5284,-8.74942 6.80486,-13.11776c2.70189,-5.18471 5.93007,-9.91599 9.64372,-14.44388c1.37211,-1.67296 7.45082,-5.85316 7.45082,-0.46721c0,1.26558 -5.46909,6.1358 -6.02801,6.9301c-5.04131,7.16433 -8.82767,14.60499 -12.90774,22.39917c0.01273,0.04994 0.02433,0.10098 0.03476,0.15313c0.26137,1.30686 -0.75242,2.23552 -1.68808,3.14123c-0.33837,0.73019 -0.66039,1.46146 -0.97437,2.1926c1.28829,-0.3323 2.51822,-0.62773 3.53422,-0.95961c3.93856,-1.28654 6.51205,-2.51918 9.22832,-5.35355c1.43984,-1.50244 5.97357,-4.52463 7.4879,-1.87456c1.30017,2.2753 -1.12104,3.66943 -2.61896,4.58748c-4.79206,2.93695 -5.97577,5.20882 -12.37548,7.33386c0.73839,0.31692 1.4487,0.64007 2.13675,0.98088c2.10913,-0.3403 4.62872,-0.42599 6.03545,0.79543c1.04516,0.90748 1.42257,2.77263 0.56967,3.87319c0.69063,0.68843 1.37852,1.45206 2.07239,2.30806c1.28008,1.57919 8.4788,13.05303 0.67617,10.71224c-1.00373,-0.30112 -2.03227,-2.9522 -2.60463,-3.86064c-1.97354,-3.13237 -3.60545,-6.3704 -6.57295,-8.48538c-2.78858,0.6031 -5.65476,1.00385 -8.45578,1.7042c-0.28729,0.07183 -1.11423,0.35399 -2.15644,0.67308c0.011,0.09517 0.01665,0.19196 0.01665,0.29008c0,0.16186 -0.01538,0.32014 -0.04477,0.47343c0.42421,0.96694 0.71742,1.7919 0.78213,2.08705c0.51544,2.35122 -0.0422,4.77957 -0.34747,7.10559c-0.74006,5.63887 -1.85875,13.09428 -5.83388,17.52989c-1.03182,1.15135 -3.37473,3.46592 -5.17076,3.09092c-1.31651,-0.27487 -2.5,-0.41146 -2.5,-2.5c0,-1.82391 3.96207,-3.47037 4.91415,-5.29072c2.93974,-5.62068 4.94763,-14.31155 3.56971,-20.72263c-0.31947,0.29488 -0.73902,0.49512 -1.25151,0.55245c-0.44385,0.69601 -1.22272,1.15762 -2.1094,1.15762c-0.64486,0 -1.2327,-0.24416 -1.67611,-0.64507c-1.84034,-0.96446 -3.84876,-1.92456 -5.95258,-1.97788c-5.80818,-0.14721 -10.38006,0.74345 -15.94076,1.75653c-5.99532,1.09226 -11.97336,2.33418 -18.0237,3.06241c-5.07417,0.61074 -5.21382,0.46003 -9.88546,1.5102c-2.64511,0.59461 -8.16481,3.62115 -11.22631,3.01512c-2.62119,-0.51886 -3.10192,-2.71695 -1.25,-4.6875c0.90282,-0.96065 4.91839,-1.36848 5.83373,-1.6561c7.27232,-2.28512 14.7059,-2.92106 22.21268,-4.19521c3.81574,-0.64766 7.63331,-1.28512 11.444,-1.96183c2.16528,-0.38451 5.52935,-1.50311 7.85042,-1.67585c0.42833,-0.03188 0.85686,-0.0658 1.28563,-0.09475c-4.87247,-1.34286 -9.74471,-2.63351 -14.48132,-4.41092c-1.88435,-0.7071 -9.73941,-1.47964 -9.73941,-4.47359c0,-4.50343 7.45133,-1.56653 9.49145,-0.90565c6.64641,2.15306 13.32971,4.02414 20.01269,6.06928c-1.31137,-5.77074 -4.77978,-14.04904 -6.58851,-17.10287c-1.33799,-2.25904 -7.36632,-5.41265 -3.9607,-8.11711c2.08242,-1.65369 5.97953,2.14747 6.9857,3.66414c1.94681,2.93456 4.6331,8.33462 6.60529,13.47347c0.0164,-6.6921 0.24349,-13.33568 0.51159,-20.04896c0.06766,-1.69412 -0.37744,-9.08795 2.66832,-9.56794c4.77791,-0.75296 2.36614,7.19903 2.30696,9.76663c-0.04067,1.76472 0.25732,3.55643 -0.04596,5.29537c-0.32844,1.88321 -0.59558,3.79082 -0.60978,5.70241c-0.01795,2.418 -0.06654,4.83706 0,7.25421c0.04229,1.5363 -0.04488,3.10799 0.32787,4.59899v5.68763c1.28687,0.31236 2.52952,0.78113 3.56984,1.41949c0.2891,-0.5214 0.59523,-1.04486 0.88847,-1.57114zM963.78584,534.48649c-0.05316,0.13359 -0.1071,0.2665 -0.16185,0.39854c0.32474,-0.06895 0.65146,-0.14375 0.97894,-0.22794h-0.00002c0.51,-0.13111 1.02345,-0.25993 1.53871,-0.38704c-0.36293,-0.12791 -0.72535,-0.25717 -1.0867,-0.38936c-0.39054,0.17532 -0.80898,0.35754 -1.23352,0.53141c-0.01183,0.0248 -0.02369,0.0496 -0.03556,0.0744z" fill="#ff0000" stroke="none" stroke-width="0.5"/><path d="M970.9493,498.08862c2.17061,1.24035 0.93026,3.41096 0.93026,3.41096l-0.8697,1.51004c-1.29056,1.89888 -1.70698,4.27703 -2.83008,6.27951c-1.64509,2.93318 -5.0311,6.45932 -6.90321,9.29439c-1.6595,2.51309 -2.57157,5.51481 -4.47503,7.84856c-0.76749,0.94098 -2.08843,1.25894 -3.01766,2.04061c-0.23728,0.1996 -0.45906,0.40397 -0.66834,0.61286c-0.07499,0.44024 -0.15739,0.8764 -0.2478,1.3079c0,0 -0.41642,1.94327 -2.23932,1.99329c-0.21322,0.33172 -0.42997,0.66942 -0.65753,1.0125c0,0 -0.08977,0.13466 -0.2579,0.31261c0.17207,0.43661 0.22213,0.97402 -0.01427,1.60421c0.20341,-0.15064 0.40664,-0.30052 0.60974,-0.44946c0,0 2.01601,-1.47841 3.49442,0.5376c1.47841,2.01601 -0.5376,3.49442 -0.5376,3.49442c-5.00175,3.66795 -10.0695,7.78775 -15.83742,10.19674c-1.54018,0.64326 -3.22331,0.90983 -4.75014,1.58417c-2.93198,1.29493 -5.29794,3.65677 -8.19067,5.03713c-1.2942,0.61757 -2.78557,0.709 -4.12516,1.22067c-3.50464,1.33863 -5.8903,3.0265 -8.49557,5.67409l-2.2515,0.87849c0,0 -2.45145,0.49029 -2.94174,-1.96116c-0.49029,-2.45145 1.96116,-2.94174 1.96116,-2.94174l-0.30345,0.48888c3.14098,-3.09909 6.04807,-5.19703 10.20573,-6.79345c1.25045,-0.48014 2.65251,-0.53406 3.86237,-1.10886c2.90833,-1.38174 5.29157,-3.74134 8.23107,-5.05548c1.51931,-0.67922 3.19904,-0.94153 4.7367,-1.57811c4.31358,-1.78579 8.21256,-4.64438 11.99078,-7.4742c-0.7142,-0.02547 -1.27674,-0.3419 -1.27674,-0.3419c-2.52118,-1.44384 -4.45652,-3.00831 -6.26582,-4.93344c-2.30464,0.3175 -4.82788,0.49879 -6.91998,1.09333c-2.35315,0.66872 -4.48343,2.06996 -6.88275,2.5472c-4.39352,0.8739 -9.01619,1.13647 -13.38049,2.12896c-1.30654,0.29712 -2.46565,1.09713 -3.77529,1.38026c-2.51783,0.54434 -5.18185,-0.19259 -7.72491,0.218c-1.44869,0.2339 -2.74841,1.07916 -4.19119,1.3471c-4.81534,0.89424 -5.5326,0.12179 -10.23437,0.42935c-5.47028,0.35782 -10.84055,0.59082 -16.3476,0.59082c-0.84416,0 -1.68831,0 -2.53247,0h-0.77922c0,0 -2.5,0 -2.5,-2.5c0,-2.5 2.5,-2.5 2.5,-2.5c0.84416,0 2.46753,0 3.31169,0c5.39102,0 10.63619,-0.22878 15.99007,-0.57802c3.47576,-0.22673 6.19836,0.30793 9.63576,-0.34987c1.50356,-0.28773 2.8679,-1.14283 4.38024,-1.38018c2.4605,-0.38615 5.04222,0.38481 7.46989,-0.17161c1.25718,-0.28814 2.36956,-1.06133 3.62731,-1.34701c4.40693,-1.00097 9.0616,-1.30874 13.50263,-2.15675c3.32471,-0.63485 3.09602,-1.49811 6.75362,-2.51773c1.37035,-0.38201 2.91651,-0.6035 4.4691,-0.79934c-1.0124,-1.51188 -2.15879,-3.28966 -3.23853,-4.2845c-0.95144,-0.87664 -2.27412,-1.29746 -3.18902,-2.21216c-0.87376,-0.87357 -1.17044,-2.23487 -2.08734,-3.06305c-1.08041,-0.97588 -2.61422,-1.32354 -3.76147,-2.21989c-2.49919,-1.95262 -4.43411,-5.03154 -7.03175,-6.88219c-0.76556,-0.54541 -1.80345,-0.59177 -2.60123,-1.08888c-3.13085,-1.95087 -3.08712,-2.33532 -5.03203,-4.96541l-0.65464,-0.01358c0,0 -2.23607,-1.11803 -1.11803,-3.3541c1.11803,-2.23607 3.3541,-1.11803 3.3541,-1.11803l2.46225,1.54486c1.97652,2.77747 3.77719,2.98239 6.39272,4.85481c2.73587,1.95857 4.75747,5.09208 7.38383,7.14379c1.23979,0.96852 2.86321,1.40092 4.03074,2.45543c0.95442,0.86204 1.28907,2.26121 2.19838,3.17071c0.86818,0.86837 2.15002,1.23258 3.04475,2.07355c3.76526,3.53904 5.75768,8.04194 9.53722,11.26033c0.96495,-1.44636 1.65279,-2.59375 2.54929,-3.70229c0.93915,-6.79176 0.00364,-14.30384 -0.30555,-20.99729c-0.33535,-7.25978 0.51817,-14.03542 2.21493,-20.97937l-0.07464,-0.9521c0,0 0,-2.5 2.5,-2.5c2.5,0 2.5,2.5 2.5,2.5l-0.07464,2.16478c-0.50868,1.98041 -0.33736,4.08524 -0.74744,6.08839c-0.25152,1.22862 -1.08393,2.28398 -1.36364,3.50649c-0.98031,4.28473 0.24669,9.90063 0.42991,14.23095c0.15549,3.67498 0.35871,7.62378 0.27461,11.51427c0.13187,-0.45234 0.26735,-0.90428 0.49229,-1.30767c2.02235,-3.62676 4.59947,-7.48921 7.2623,-10.69501c0.73697,-0.88725 1.7458,-1.5732 2.30125,-2.58405c1.16144,-2.1137 1.69043,-4.56155 3.01408,-6.57764l0.68874,-1.21723c0,0 1.24035,-2.17061 3.41096,-0.93026z" fill="#ff8800" stroke="none" stroke-width="0.5"/><path d="M1019.74143,503.1813c0,2.5 -2.5,2.5 -2.5,2.5l-1.24541,-0.16664c-1.8891,0.72143 -4.0502,0.71105 -5.83393,1.66366c-2.36983,1.26562 -4.24108,3.38392 -6.68121,4.50802c-9.05256,4.17026 -19.08712,6.36957 -27.91695,11.0368c-5.40316,2.85598 -10.65,6.70828 -15.80178,10.02863c0,0 -2.10295,1.35189 -3.45484,-0.75105c-1.35189,-2.10295 0.75105,-3.45484 0.75105,-3.45484c5.27268,-3.38159 10.6214,-7.31922 16.14628,-10.23111c8.92852,-4.70578 19.01725,-7.01631 28.18695,-11.17099c2.40869,-1.09135 4.22184,-3.22829 6.56554,-4.45302c1.92332,-1.00505 4.22068,-1.0583 6.24399,-1.84283l3.0403,-0.16664c0,0 2.5,0 2.5,2.5z" fill="#ff8800" stroke="none" stroke-width="0.5"/><path d="M1015.87779,558.66832c-2.5,0 -2.5,-2.5 -2.5,-2.5l0.56511,0.60907c-1.85747,-2.27039 -3.65018,-4.83273 -5.93577,-6.70333c-4.37828,-3.58333 -9.86816,-5.82535 -15.06931,-7.94759c-6.31834,-2.57809 -12.81766,-4.05926 -17.78884,-8.93065c0,0 -1.76777,-1.76777 0,-3.53553c1.76777,-1.76777 3.53553,0 3.53553,0c4.26859,4.3828 10.56752,5.56467 16.10727,7.8226c5.72067,2.33168 11.63023,4.83583 16.44465,8.77389c2.52862,2.06834 4.52092,4.8425 6.57625,7.35442l0.56511,2.55712c0,0 0,2.5 -2.5,2.5z" fill="#ff8800" stroke="none" stroke-width="0.5"/><path d="M994.38273,558.91698c-0.411,2.46598 -2.87698,2.05499 -2.87698,2.05499l-1.87587,-0.42472c-7.68757,-3.84378 -14.35365,-9.50159 -21.23603,-14.48809c-0.36222,3.50257 -0.2399,7.09223 -0.68608,10.62474c-0.3117,2.46778 -0.71362,4.9882 -1.72808,7.25932c-1.01325,2.26842 -2.57081,4.32528 -3.21259,6.72539l-0.84948,1.59116c0,0 -1.28624,2.14373 -3.42997,0.85749c-2.14373,-1.28624 -0.85749,-3.42997 -0.85749,-3.42997l0.31935,-0.3569c1.35932,-4.75011 4.17856,-8.26195 4.79959,-13.28802c0.57679,-4.66804 0.37938,-9.18338 1.20862,-13.66777c-1.8206,-1.65881 -3.65075,-3.24764 -6.0553,-4.13264c0,0 -2.33336,-0.89745 -1.43592,-3.23081c0.89745,-2.33336 3.23081,-1.43592 3.23081,-1.43592c2.3707,0.9411 4.19018,2.32331 5.94746,3.82123c0.50107,-0.52594 1.33294,-0.98546 2.59079,-0.52204c2.34586,0.86426 1.48159,3.21012 1.48159,3.21012c-0.07458,0.19572 -0.14543,0.39202 -0.21276,0.58887c0.32861,0.2563 0.66566,0.50916 1.01362,0.75695c6.96751,4.9617 13.6094,10.77549 21.34794,14.64475l0.46179,-0.03511c0,0 2.46598,0.411 2.05499,2.87698z" fill="#ff8800" stroke="none" stroke-width="0.5"/></g></g></svg>